<?xml version="1.0" encoding="UTF-8" standalone="no"?>
<svg
   width="40.715721"
   height="51.583801"
   overflow="hidden"
   version="1.1"
   id="svg37"
   sodipodi:docname="https-icon.svg"
   inkscape:version="1.2.2 (732a01da63, 2022-12-09)"
   xmlns:inkscape="http://www.inkscape.org/namespaces/inkscape"
   xmlns:sodipodi="http://sodipodi.sourceforge.net/DTD/sodipodi-0.dtd"
   xmlns="http://www.w3.org/2000/svg"
   xmlns:svg="http://www.w3.org/2000/svg">
  <sodipodi:namedview
     id="namedview39"
     pagecolor="#ffffff"
     bordercolor="#000000"
     borderopacity="0.25"
     inkscape:showpageshadow="2"
     inkscape:pageopacity="0.0"
     inkscape:pagecheckerboard="0"
     inkscape:deskcolor="#d1d1d1"
     showgrid="false"
     inkscape:zoom="1.1789063"
     inkscape:cx="-99.244533"
     inkscape:cy="-132.32604"
     inkscape:window-width="3840"
     inkscape:window-height="2054"
     inkscape:window-x="2725"
     inkscape:window-y="-11"
     inkscape:window-maximized="1"
     inkscape:current-layer="svg37" />
  <defs
     id="defs15">
    <linearGradient
       x1="759"
       y1="536.90802"
       x2="759"
       y2="497.09201"
       gradientUnits="userSpaceOnUse"
       spreadMethod="pad"
       id="fill0">
      <stop
         offset="0"
         stop-color="#0078D4"
         id="stop2" />
      <stop
         offset="0.06"
         stop-color="#0A7CD7"
         id="stop4" />
      <stop
         offset="0.34"
         stop-color="#2E8CE1"
         id="stop6" />
      <stop
         offset="0.59"
         stop-color="#4897E9"
         id="stop8" />
      <stop
         offset="0.82"
         stop-color="#589EED"
         id="stop10" />
      <stop
         offset="1"
         stop-color="#5EA0EF"
         id="stop12" />
    </linearGradient>
  </defs>
  <g
     id="g35"
     transform="translate(-738.82043,-491.98145)">
    <rect
       x="738.82043"
       y="491.98145"
       width="40.715721"
       height="51.583801"
       fill="#ffffff"
       id="rect17"
       style="stroke-width:0.0477383" />
    <g
       id="g33">
      <g
         id="g31">
        <g
           id="g29">
          <path
             d="m 777.093,515.569 c 0,11.679 -14.362,21.083 -17.505,23 -0.359,0.227 -0.817,0.227 -1.176,0 -3.143,-1.891 -17.505,-11.296 -17.505,-23 v -14.056 c -0.001,-0.611 0.488,-1.11 1.099,-1.124 11.193,-0.281 8.612,-5.111 16.994,-5.111 8.382,0 5.801,4.83 16.994,5.111 0.611,0.014 1.1,0.513 1.099,1.124 z"
             fill="#0078d4"
             id="path19" />
          <path
             d="m 775.611,515.671 c 0,10.733 -13.187,19.346 -16.074,21.083 -0.329,0.203 -0.745,0.203 -1.074,0 -2.887,-1.737 -16.074,-10.35 -16.074,-21.083 v -12.778 c -0.099,-0.57 0.283,-1.112 0.853,-1.211 0.056,-0.01 0.113,-0.015 0.169,-0.015 10.273,-0.179 7.922,-4.575 15.589,-4.575 7.667,0 5.316,4.396 15.589,4.575 0.559,0.013 1.009,0.463 1.022,1.022 z"
             fill="url(#fill0)"
             id="path21"
             style="fill:url(#fill0)" />
          <path
             d="m 766.283,513.576 h -1.022 v -3.629 c 0.018,-1.714 -0.622,-3.37 -1.789,-4.626 -2.271,-2.456 -6.103,-2.605 -8.559,-0.334 -0.115,0.107 -0.227,0.218 -0.334,0.334 -1.169,1.255 -1.809,2.911 -1.789,4.626 v 3.629 h -1.022 c -0.45,-0.044 -0.849,0.286 -0.893,0.735 -0.004,0.044 -0.005,0.089 -0.002,0.133 v 9.405 c 0,0.451 0.366,0.818 0.818,0.818 0.008,0 0.017,0 0.026,0 h 14.566 c 0.452,0.014 0.829,-0.341 0.843,-0.792 0,-0.009 10e-4,-0.017 10e-4,-0.026 v -9.405 c 0.028,-0.45 -0.314,-0.839 -0.765,-0.867 -0.026,-0.002 -0.052,-0.002 -0.079,-10e-4 z m -3.961,0 h -6.644 v -3.68 c 10e-4,-0.957 0.377,-1.874 1.048,-2.556 1.114,-1.256 3.037,-1.371 4.293,-0.256 0.09,0.08 0.175,0.166 0.255,0.256 0.15,0.159 0.287,0.33 0.409,0.511 v 0 c 0.412,0.593 0.635,1.297 0.639,2.019 z"
             fill="#ffbd02"
             id="path23" />
          <path
             d="m 751.717,513.576 h 14.566 c 0.198,10e-4 0.389,0.073 0.537,0.204 l -15.64,10.631 c -0.185,-0.152 -0.296,-0.375 -0.307,-0.613 v -9.354 c -0.028,-0.45 0.314,-0.839 0.765,-0.867 0.026,-0.002 0.052,-0.002 0.079,-10e-4 z"
             fill="#ffe452"
             id="path25" />
          <path
             d="m 766.283,513.576 h -14.566 c -0.198,10e-4 -0.389,0.073 -0.537,0.204 l 15.64,10.631 c 0.193,-0.145 0.307,-0.372 0.307,-0.613 v -9.354 c 0.028,-0.45 -0.314,-0.839 -0.765,-0.867 -0.026,-0.002 -0.052,-0.002 -0.079,-10e-4 z"
             fill="#ffd400"
             fill-opacity="0.5"
             id="path27" />
        </g>
      </g>
    </g>
  </g>
</svg>
