<svg id="ICONS-64x" xmlns="http://www.w3.org/2000/svg" viewBox="0 0 64 64">
  <defs>
    <style>
      .cls-1, .cls-4 {
        fill: none;
      }

      .cls-1, .cls-3 {
        stroke: #556a8a;
        stroke-miterlimit: 10;
        stroke-width: 2px;
      }

      .cls-2, .cls-3 {
        fill: #fff;
      }

      .cls-5 {
        fill: #e5e5e5;
      }

      .cls-6 {
        fill: #2bc7f4;
      }
    </style>
  </defs>
  <title>i_architecture</title>
  <line class="cls-1" x1="47" y1="8" x2="47" y2="54"/>
  <line class="cls-1" x1="22" y1="32" x2="47" y2="32"/>
  <rect class="cls-2" x="39.5" y="-2.5" width="13" height="19" transform="translate(53 -39) rotate(90)"/>
  <path class="cls-3" d="M36,1V15H56V1Z"/>
  <rect class="cls-2" x="8.5" y="21.5" width="15" height="19" transform="translate(47 15) rotate(90)"/>
  <path class="cls-3" d="M6,23V39H26V23Z"/>
  <path class="cls-3" d="M47,47a8,8,0,1,0,8,8A8,8,0,0,0,47,47Z"/>
  <rect class="cls-4" width="64" height="64"/>
  <rect class="cls-5" x="7" y="24" width="18" height="14"/>
  <rect class="cls-6" x="38" y="23" width="18" height="18" transform="translate(57.61 87.86) rotate(-135)"/>
</svg>
