<svg id="ICONS-64x" xmlns="http://www.w3.org/2000/svg" viewBox="0 0 64 64">
  <defs>
    <style>
      .cls-1 {
        fill: #fcfcfc;
      }

      .cls-2 {
        fill: #e5e5e5;
      }

      .cls-3 {
        fill: none;
        stroke: #556a8a;
        stroke-miterlimit: 10;
        stroke-width: 2px;
      }

      .cls-4 {
        fill: #2bc7f4;
      }
    </style>
  </defs>
  <title>i_synch</title>
  <path class="cls-1" d="M32,3.5a29,29,0,1,0,29,29A29,29,0,0,0,32,3.5Z"/>
  <path class="cls-2" d="M62,32.5A30,30,0,0,1,37.48,62h-11A30,30,0,0,1,2,32.5c0-.17,0-.34,0-.5H62C62,32.16,62,32.33,62,32.5Z"/>
  <path class="cls-3" d="M32,3.5a29,29,0,1,0,29,29A29,29,0,0,0,32,3.5Z"/>
  <path class="cls-4" d="M31.5,52.75A21.79,21.79,0,0,1,20.86,50a22.31,22.31,0,0,1-4.43-3.26,21.41,21.41,0,0,1-3.53-4.35l-.46-.75v5.73H10.25V37.13H20.5v2.19H13.71l.18.36A19.58,19.58,0,0,0,17,44.17a19.84,19.84,0,0,0,4.16,3.42,20.44,20.44,0,0,0,4.92,2.19,19.09,19.09,0,0,0,5.42.78A19.64,19.64,0,0,0,50.31,36.79l2.09.65a21.14,21.14,0,0,1-3,6.08,22.12,22.12,0,0,1-10.93,8.1A21.55,21.55,0,0,1,31.5,52.75Z"/>
  <path class="cls-4" d="M10.61,30a21.37,21.37,0,0,1,3-6.07,22.06,22.06,0,0,1,10.93-8.11,21.57,21.57,0,0,1,6.94-1.13,21.79,21.79,0,0,1,10.64,2.75,22.3,22.3,0,0,1,4.43,3.26,21.41,21.41,0,0,1,3.53,4.35l.46.75V20.1h2.19V30.35H42.5V28.16h6.79l-.18-.36A19.63,19.63,0,0,0,46,23.3a19.89,19.89,0,0,0-4.16-3.42,20.44,20.44,0,0,0-4.92-2.19,19.14,19.14,0,0,0-5.42-.78A19.64,19.64,0,0,0,12.69,30.69Z"/>
</svg>
