<?xml version="1.0" encoding="UTF-8" standalone="no"?>
<svg
   version="1.1"
   width="450px"
   height="507px"
   viewBox="-0.5 -0.5 450 507"
   id="svg31"
   sodipodi:docname="finance-operations-power-pages-dual-write.svg"
   inkscape:version="1.3.2 (091e20e, 2023-11-25, custom)"
   xmlns:inkscape="http://www.inkscape.org/namespaces/inkscape"
   xmlns:sodipodi="http://sodipodi.sourceforge.net/DTD/sodipodi-0.dtd"
   xmlns:xlink="http://www.w3.org/1999/xlink"
   xmlns="http://www.w3.org/2000/svg"
   xmlns:svg="http://www.w3.org/2000/svg">
  <sodipodi:namedview
     id="namedview31"
     pagecolor="#ffffff"
     bordercolor="#000000"
     borderopacity="0.25"
     inkscape:showpageshadow="2"
     inkscape:pageopacity="0.0"
     inkscape:pagecheckerboard="0"
     inkscape:deskcolor="#d1d1d1"
     inkscape:zoom="1.6410256"
     inkscape:cx="225.16407"
     inkscape:cy="351.00001"
     inkscape:window-width="1920"
     inkscape:window-height="1010"
     inkscape:window-x="-6"
     inkscape:window-y="-6"
     inkscape:window-maximized="1"
     inkscape:current-layer="svg31" />
  <defs
     id="defs1" />
  <g
     id="g30">
    <path
       d="M 179 0 L 439 0 L 439 80 L 329 80 L 309 110 L 309 80 L 179 80 Z"
       fill="#d5e8d4"
       stroke="#82b366"
       stroke-miterlimit="10"
       pointer-events="all"
       id="path1" />
    <path
       d="M 1 270 L 441 270"
       fill="none"
       stroke="rgb(0, 0, 0)"
       stroke-width="2"
       stroke-miterlimit="10"
       stroke-dasharray="2 6"
       pointer-events="stroke"
       id="path2" />
    <path
       d="M 289 441 C 289 432.72 302.43 426 319 426 C 326.96 426 334.59 427.58 340.21 430.39 C 345.84 433.21 349 437.02 349 441 L 349 491 C 349 499.28 335.57 506 319 506 C 302.43 506 289 499.28 289 491 Z"
       fill="#dae8fc"
       stroke="#6c8ebf"
       stroke-miterlimit="10"
       pointer-events="all"
       id="path3" />
    <path
       d="M 349 441 C 349 449.28 335.57 456 319 456 C 302.43 456 289 449.28 289 441"
       fill="none"
       stroke="#6c8ebf"
       stroke-miterlimit="10"
       pointer-events="all"
       id="path4" />
    <g
       transform="translate(-0.5 -0.5)"
       id="g4">
      <text
         x="319"
         y="482"
         fill="rgb(0, 0, 0)"
         font-family="Helvetica"
         font-size="12px"
         text-anchor="middle"
         id="text4"
         style="-inkscape-font-specification:'Helvetica, Normal';font-family:Helvetica;font-weight:normal;font-style:normal;font-stretch:normal;font-variant:normal;font-size:12px;font-variant-ligatures:normal;font-variant-caps:normal;font-variant-numeric:normal;font-variant-east-asian:normal;text-anchor:middle;fill:#000000"><tspan
           sodipodi:role="line"
           id="tspan31">Dynamics 365 database</tspan></text>
    </g>
    <path
       d="M 6 466 L 6 426 L 186 426 L 186 466"
       fill="#dae8fc"
       stroke="#6c8ebf"
       stroke-miterlimit="10"
       pointer-events="all"
       id="path5" />
    <path
       d="M 6 466 L 6 506 L 186 506 L 186 466"
       fill="none"
       stroke="#6c8ebf"
       stroke-miterlimit="10"
       pointer-events="none"
       id="path6" />
    <path
       d="M 6 466 L 186 466"
       fill="none"
       stroke="#6c8ebf"
       stroke-miterlimit="10"
       pointer-events="none"
       id="path7" />
    <g
       transform="translate(-0.5 -0.5)"
       id="g7">
      <text
         x="96"
         y="450"
         fill="rgb(0, 0, 0)"
         font-family="Helvetica"
         font-size="12px"
         text-anchor="middle"
         font-weight="bold"
         id="text7"
         style="-inkscape-font-specification:'Helvetica, Normal';font-family:Helvetica;font-weight:normal;font-style:normal;font-stretch:normal;font-variant:normal;font-size:12px;font-variant-ligatures:normal;font-variant-caps:normal;font-variant-numeric:normal;font-variant-east-asian:normal;text-anchor:middle;fill:#000000"><tspan
           sodipodi:role="line"
           id="tspan32">Dynamics 365 app</tspan></text>
    </g>
    <path
       d="M 192.37 466 L 282.63 466"
       fill="none"
       stroke="rgb(0, 0, 0)"
       stroke-miterlimit="10"
       pointer-events="stroke"
       id="path8" />
    <path
       d="M 187.12 466 L 194.12 462.5 L 192.37 466 L 194.12 469.5 Z"
       fill="rgb(0, 0, 0)"
       stroke="rgb(0, 0, 0)"
       stroke-miterlimit="10"
       pointer-events="all"
       id="path9" />
    <path
       d="M 287.88 466 L 280.88 469.5 L 282.63 466 L 280.88 462.5 Z"
       fill="rgb(0, 0, 0)"
       stroke="rgb(0, 0, 0)"
       stroke-miterlimit="10"
       pointer-events="all"
       id="path10" />
    <path
       d="M 287 125 C 287 116.72 300.43 110 317 110 C 324.96 110 332.59 111.58 338.21 114.39 C 343.84 117.21 347 121.02 347 125 L 347 175 C 347 183.28 333.57 190 317 190 C 300.43 190 287 183.28 287 175 Z"
       fill="#d5e8d4"
       stroke="#82b366"
       stroke-miterlimit="10"
       pointer-events="all"
       id="path11" />
    <path
       d="M 347 125 C 347 133.28 333.57 140 317 140 C 300.43 140 287 133.28 287 125"
       fill="none"
       stroke="#82b366"
       stroke-miterlimit="10"
       pointer-events="all"
       id="path12" />
    <g
       transform="translate(-0.5 -0.5)"
       id="g12">
      <text
         x="317"
         y="166"
         fill="rgb(0, 0, 0)"
         font-family="Helvetica"
         font-size="12px"
         text-anchor="middle"
         id="text12">Dataverse</text>
    </g>
    <path
       d="M 318.36 288.63 L 317.09 196.37"
       fill="none"
       stroke="rgb(0, 0, 0)"
       stroke-miterlimit="10"
       pointer-events="stroke"
       id="path13" />
    <path
       d="M 318.43 293.88 L 314.84 286.93 L 318.36 288.63 L 321.84 286.83 Z"
       fill="rgb(0, 0, 0)"
       stroke="rgb(0, 0, 0)"
       stroke-miterlimit="10"
       pointer-events="all"
       id="path14" />
    <path
       d="M 317.02 191.12 L 320.61 198.07 L 317.09 196.37 L 313.61 198.17 Z"
       fill="rgb(0, 0, 0)"
       stroke="rgb(0, 0, 0)"
       stroke-miterlimit="10"
       pointer-events="all"
       id="path15" />
    <g
       transform="translate(-0.5 -0.5)"
       id="g15">
      <text
         x="335.38544"
         y="239.00391"
         fill="#000000"
         font-family="Helvetica"
         font-size="11.2165px"
         text-anchor="middle"
         id="text15"
         transform="scale(1.019682,0.98069788)"
         style="stroke-width:1.01968;-inkscape-font-specification:'Helvetica, Normal';font-family:Helvetica;font-weight:normal;font-style:normal;font-stretch:normal;font-variant:normal;font-size:11.2165px;font-variant-ligatures:normal;font-variant-caps:normal;font-variant-numeric:normal;font-variant-east-asian:normal;text-anchor:middle;fill:#000000"><tspan
           sodipodi:role="line"
           id="tspan1">Dual-Write/ Integration engine</tspan></text>
    </g>
    <path
       d="M 6 150 L 6 110 L 186 110 L 186 150"
       fill="#ffe6cc"
       stroke="#d79b00"
       stroke-miterlimit="10"
       pointer-events="all"
       id="path16" />
    <path
       d="M 6 150 L 6 190 L 186 190 L 186 150"
       fill="none"
       stroke="#d79b00"
       stroke-miterlimit="10"
       pointer-events="none"
       id="path17" />
    <path
       d="M 6 150 L 186 150"
       fill="none"
       stroke="#d79b00"
       stroke-miterlimit="10"
       pointer-events="none"
       id="path18" />
    <g
       transform="translate(-0.5 -0.5)"
       id="g18">
      <text
         x="96"
         y="134"
         fill="rgb(0, 0, 0)"
         font-family="Helvetica"
         font-size="12px"
         text-anchor="middle"
         font-weight="bold"
         id="text18">Power Pages</text>
    </g>
    <path
       d="M 192.37 150 L 280.63 150"
       fill="none"
       stroke="rgb(0, 0, 0)"
       stroke-miterlimit="10"
       pointer-events="stroke"
       id="path19" />
    <path
       d="M 187.12 150 L 194.12 146.5 L 192.37 150 L 194.12 153.5 Z"
       fill="rgb(0, 0, 0)"
       stroke="rgb(0, 0, 0)"
       stroke-miterlimit="10"
       pointer-events="all"
       id="path20" />
    <path
       d="M 285.88 150 L 278.88 153.5 L 280.63 150 L 278.88 146.5 Z"
       fill="rgb(0, 0, 0)"
       stroke="rgb(0, 0, 0)"
       stroke-miterlimit="10"
       pointer-events="all"
       id="path21" />
    <path
       d="M 199 54 L 219 14 L 281 14 L 261 54 Z"
       fill="#d5e8d4"
       stroke="#82b366"
       stroke-miterlimit="10"
       pointer-events="all"
       id="path22" />
    <g
       transform="translate(-0.5 -0.5)"
       id="g22">
      <text
         x="240"
         y="38"
         fill="rgb(0, 0, 0)"
         font-family="Helvetica"
         font-size="12px"
         text-anchor="middle"
         id="text22">Web Role</text>
    </g>
    <path
       d="M 239 150 L 239.93 60.37"
       fill="none"
       stroke="rgb(0, 0, 0)"
       stroke-miterlimit="10"
       pointer-events="stroke"
       id="path23" />
    <path
       d="M 239.99 55.12 L 243.42 62.15 L 239.93 60.37 L 236.42 62.08 Z"
       fill="rgb(0, 0, 0)"
       stroke="rgb(0, 0, 0)"
       stroke-miterlimit="10"
       pointer-events="all"
       id="path24" />
    <path
       d="M 274 40.77 L 322.63 40.97"
       fill="none"
       stroke="rgb(0, 0, 0)"
       stroke-miterlimit="10"
       pointer-events="stroke"
       id="path25" />
    <path
       d="M 268.75 40.74 L 275.76 37.27 L 274 40.77 L 275.73 44.27 Z"
       fill="rgb(0, 0, 0)"
       stroke="rgb(0, 0, 0)"
       stroke-miterlimit="10"
       pointer-events="all"
       id="path26" />
    <path
       d="M 327.88 41 L 320.87 44.47 L 322.63 40.97 L 320.9 37.47 Z"
       fill="rgb(0, 0, 0)"
       stroke="rgb(0, 0, 0)"
       stroke-miterlimit="10"
       pointer-events="all"
       id="path27" />
    <rect
       x="327"
       y="14"
       width="60"
       height="60"
       fill="#d5e8d4"
       stroke="#82b366"
       pointer-events="all"
       id="rect27" />
    <g
       transform="translate(-0.5 -0.5)"
       id="g27">
      <text
         x="358.82812"
         y="32.765625"
         fill="rgb(0, 0, 0)"
         font-family="Helvetica"
         font-size="12px"
         text-anchor="middle"
         id="text27"
         style="font-style:normal;font-variant:normal;font-weight:normal;font-stretch:normal;font-size:12px;font-family:Helvetica;-inkscape-font-specification:'Helvetica, Normal';font-variant-ligatures:normal;font-variant-caps:normal;font-variant-numeric:normal;font-variant-east-asian:normal;text-anchor:middle;fill:#000000"><tspan
           sodipodi:role="line"
           id="tspan35"
           x="358.82812"
           y="32.765625">Contact</tspan><tspan
           sodipodi:role="line"
           id="tspan36"
           x="358.82812"
           y="47.765625">(external</tspan><tspan
           sodipodi:role="line"
           id="tspan37"
           x="358.82812"
           y="62.765625">user)</tspan></text>
    </g>
    <path
       d="M 189 304 L 449 304 L 449 396 L 339 396 L 319 426 L 319 396 L 189 396 Z"
       fill="#dae8fc"
       stroke="#6c8ebf"
       stroke-miterlimit="10"
       pointer-events="all"
       id="path28" />
    <path
       d="M 319 309 L 359 349 L 319 389 L 279 349 Z"
       fill="#dae8fc"
       stroke="#6c8ebf"
       stroke-miterlimit="10"
       pointer-events="all"
       id="path29" />
    <g
       transform="translate(-0.5 -0.5)"
       id="g29">
      <text
         x="318.39062"
         y="346.29688"
         fill="rgb(0, 0, 0)"
         font-family="Helvetica"
         font-size="12px"
         text-anchor="middle"
         id="text29"
         style="font-style:normal;font-variant:normal;font-weight:normal;font-stretch:normal;font-size:12px;font-family:Arial;-inkscape-font-specification:'Arial, Normal';font-variant-ligatures:normal;font-variant-caps:normal;font-variant-numeric:normal;font-variant-east-asian:normal;text-anchor:middle;fill:#000000"><tspan
           sodipodi:role="line"
           id="tspan7"
           x="318.39062"
           y="346.29688">Data</tspan><tspan
           sodipodi:role="line"
           id="tspan8"
           x="318.39062"
           y="361.29688">entities</tspan></text>
    </g>
  </g>
  <switch
     id="switch31">
    <g
       requiredFeatures="http://www.w3.org/TR/SVG11/feature#Extensibility"
       id="g31" />
    <a
       transform="translate(0,-5)"
       xlink:href="https://www.drawio.com/doc/faq/svg-export-text-problems"
       target="_blank"
       id="a31">
      <text
         text-anchor="middle"
         font-size="10px"
         x="50%"
         y="100%"
         id="text31">Text is not SVG - cannot display</text>
    </a>
  </switch>
</svg>
