<?xml version="1.0" encoding="UTF-8" standalone="no"?>
<svg
   width="1867.6534"
   height="1796.6115"
   overflow="hidden"
   version="1.1"
   id="svg600"
   sodipodi:docname="acquire-to-dispose-process.svg"
   inkscape:version="1.2.2 (732a01da63, 2022-12-09)"
   xmlns:inkscape="http://www.inkscape.org/namespaces/inkscape"
   xmlns:sodipodi="http://sodipodi.sourceforge.net/DTD/sodipodi-0.dtd"
   xmlns="http://www.w3.org/2000/svg"
   xmlns:svg="http://www.w3.org/2000/svg">
  <defs
     id="defs604" />
  <sodipodi:namedview
     id="namedview602"
     pagecolor="#ffffff"
     bordercolor="#000000"
     borderopacity="0.25"
     inkscape:showpageshadow="2"
     inkscape:pageopacity="0.0"
     inkscape:pagecheckerboard="0"
     inkscape:deskcolor="#d1d1d1"
     showgrid="false"
     inkscape:zoom="0.53489583"
     inkscape:cx="925.41383"
     inkscape:cy="932.89192"
     inkscape:window-width="3840"
     inkscape:window-height="2054"
     inkscape:window-x="2725"
     inkscape:window-y="-11"
     inkscape:window-maximized="1"
     inkscape:current-layer="svg600" />
  <g
     id="g598"
     transform="translate(-33.651413,-26.173321)">
    <rect
       x="33.651413"
       y="26.173321"
       width="1867.6534"
       height="1796.6115"
       fill="#ffffff"
       id="rect484"
       style="stroke-width:0.954057" />
    <path
       d="M 41,93.7008 C 41,61.2812 67.2812,35 99.7008,35 H 569.299 C 601.719,35 628,61.2812 628,93.7008 V 1755.3 c 0,32.42 -26.281,58.7 -58.701,58.7 H 99.7008 C 67.2812,1814 41,1787.72 41,1755.3 Z"
       fill="#cbcbcb"
       fill-rule="evenodd"
       id="path486" />
    <text
       font-family="'Segoe UI', 'Segoe UI_MSFontService', sans-serif"
       font-weight="400"
       font-size="87px"
       transform="translate(150.005,280)"
       id="text488">Upstream</text>
    <text
       font-family="'Segoe UI', 'Segoe UI_MSFontService', sans-serif"
       font-weight="400"
       font-size="87px"
       transform="translate(148.992,384)"
       id="text490">processes</text>
    <path
       d="m 100.5,585.6 c 0,-9.444 7.656,-17.1 17.1,-17.1 h 435.8 c 9.445,0 17.101,7.656 17.101,17.1 L 570.5,722.4 c 0,9.445 -7.656,17.101 -17.1,17.101 L 117.6,739.5 c -9.444,0 -17.1,-7.656 -17.1,-17.1 z"
       stroke="#000000"
       stroke-width="1.13333"
       stroke-linejoin="round"
       stroke-miterlimit="10"
       fill="#ffffff"
       fill-rule="evenodd"
       id="path492" />
    <text
       font-family="'Segoe UI', 'Segoe UI_MSFontService', sans-serif"
       font-weight="400"
       font-size="51px"
       transform="translate(133.485,672)"
       id="text494">Case to resolution</text>
    <path
       d="m 100.5,782.6 c 0,-9.444 7.656,-17.1 17.1,-17.1 h 435.8 c 9.445,0 17.101,7.656 17.101,17.1 L 570.5,919.4 c 0,9.445 -7.656,17.101 -17.1,17.101 L 117.6,936.5 c -9.444,0 -17.1,-7.656 -17.1,-17.1 z"
       stroke="#000000"
       stroke-width="1.13333"
       stroke-linejoin="round"
       stroke-miterlimit="10"
       fill="#ffffff"
       fill-rule="evenodd"
       id="path496" />
    <text
       font-family="'Segoe UI', 'Segoe UI_MSFontService', sans-serif"
       font-weight="400"
       font-size="51px"
       transform="translate(156.625,869)"
       id="text498">Forecast to plan</text>
    <path
       d="m 100.5,980.5 c 0,-9.389 7.611,-17 17,-17 h 436 c 9.389,0 17,7.611 17,17 v 136 c 0,9.39 -7.611,17 -17,17 h -436 c -9.389,0 -17,-7.61 -17,-17 z"
       stroke="#000000"
       stroke-width="1.13333"
       stroke-linejoin="round"
       stroke-miterlimit="10"
       fill="#ffffff"
       fill-rule="evenodd"
       id="path500" />
    <text
       font-family="'Segoe UI', 'Segoe UI_MSFontService', sans-serif"
       font-weight="400"
       font-size="51px"
       transform="translate(172.769,1066)"
       id="text502">Procure to pay</text>
    <path
       d="m 100.5,1177.5 c 0,-9.39 7.611,-17 17,-17 h 436 c 9.389,0 17,7.61 17,17 v 136 c 0,9.39 -7.611,17 -17,17 h -436 c -9.389,0 -17,-7.61 -17,-17 z"
       stroke="#000000"
       stroke-width="1.13333"
       stroke-linejoin="round"
       stroke-miterlimit="10"
       fill="#ffffff"
       fill-rule="evenodd"
       id="path504" />
    <text
       font-family="'Segoe UI', 'Segoe UI_MSFontService', sans-serif"
       font-weight="400"
       font-size="51px"
       transform="translate(162.432,1263)"
       id="text506">Design to retire</text>
    <path
       d="m 100.5,1374.5 c 0,-9.39 7.611,-17 17,-17 h 436 c 9.389,0 17,7.61 17,17 v 136 c 0,9.39 -7.611,17 -17,17 h -436 c -9.389,0 -17,-7.61 -17,-17 z"
       stroke="#000000"
       stroke-width="1.13333"
       stroke-linejoin="round"
       stroke-miterlimit="10"
       fill="#ffffff"
       fill-rule="evenodd"
       id="path508" />
    <text
       font-family="'Segoe UI', 'Segoe UI_MSFontService', sans-serif"
       font-weight="400"
       font-size="51px"
       transform="translate(160.165,1460)"
       id="text510">Project to profit</text>
    <path
       d="m 100.5,1571.5 c 0,-9.39 7.611,-17 17,-17 h 436 c 9.389,0 17,7.61 17,17 v 136 c 0,9.39 -7.611,17 -17,17 h -436 c -9.389,0 -17,-7.61 -17,-17 z"
       stroke="#000000"
       stroke-width="1.13333"
       stroke-linejoin="round"
       stroke-miterlimit="10"
       fill="#ffffff"
       fill-rule="evenodd"
       id="path512" />
    <text
       font-family="'Segoe UI', 'Segoe UI_MSFontService', sans-serif"
       font-weight="400"
       font-size="51px"
       transform="translate(150.535,1657)"
       id="text514">Record to report</text>
    <path
       d="M 672,93.7008 C 672,61.2812 698.281,35 730.701,35 H 1200.3 c 32.42,0 58.7,26.2812 58.7,58.7008 V 1755.3 c 0,32.42 -26.28,58.7 -58.7,58.7 H 730.701 C 698.281,1814 672,1787.72 672,1755.3 Z"
       fill="#cbcbcb"
       fill-rule="evenodd"
       id="path516" />
    <text
       font-family="'Segoe UI', 'Segoe UI_MSFontService', sans-serif"
       font-weight="400"
       font-size="87px"
       transform="translate(768.633,280)"
       id="text518">Acquire to</text>
    <text
       font-family="'Segoe UI', 'Segoe UI_MSFontService', sans-serif"
       font-weight="400"
       font-size="87px"
       transform="translate(819.579,384)"
       id="text520">dispose</text>
    <path
       d="m 731.5,585.6 c 0,-9.444 7.656,-17.1 17.1,-17.1 h 435.8 c 9.44,0 17.1,7.656 17.1,17.1 v 136.8 c 0,9.445 -7.66,17.101 -17.1,17.101 L 748.6,739.5 c -9.444,0 -17.1,-7.656 -17.1,-17.1 z"
       stroke="#000000"
       stroke-width="1.13333"
       stroke-linejoin="round"
       stroke-miterlimit="10"
       fill="#ffffff"
       fill-rule="evenodd"
       id="path522" />
    <text
       font-family="'Segoe UI', 'Segoe UI_MSFontService', sans-serif"
       font-weight="400"
       font-size="51px"
       transform="translate(781.426,641)"
       id="text524">Plan and budget</text>
    <text
       font-family="'Segoe UI', 'Segoe UI_MSFontService', sans-serif"
       font-weight="400"
       font-size="51px"
       transform="translate(898.926,702)"
       id="text526">assets</text>
    <path
       d="m 731.5,782.6 c 0,-9.444 7.656,-17.1 17.1,-17.1 h 435.8 c 9.44,0 17.1,7.656 17.1,17.1 v 136.8 c 0,9.445 -7.66,17.101 -17.1,17.101 L 748.6,936.5 c -9.444,0 -17.1,-7.656 -17.1,-17.1 z"
       stroke="#000000"
       stroke-width="1.13333"
       stroke-linejoin="round"
       stroke-miterlimit="10"
       fill="#ffffff"
       fill-rule="evenodd"
       id="path528" />
    <text
       font-family="'Segoe UI', 'Segoe UI_MSFontService', sans-serif"
       font-weight="400"
       font-size="51px"
       transform="translate(806.829,869)"
       id="text530">Acquire assets</text>
    <path
       d="m 731.5,980.5 c 0,-9.389 7.611,-17 17,-17 h 436 c 9.39,0 17,7.611 17,17 v 136 c 0,9.39 -7.61,17 -17,17 h -436 c -9.389,0 -17,-7.61 -17,-17 z"
       stroke="#000000"
       stroke-width="1.13333"
       stroke-linejoin="round"
       stroke-miterlimit="10"
       fill="#ffffff"
       fill-rule="evenodd"
       id="path532" />
    <text
       font-family="'Segoe UI', 'Segoe UI_MSFontService', sans-serif"
       font-weight="400"
       font-size="51px"
       transform="translate(783.699,1035)"
       id="text534">Manage internal</text>
    <text
       font-family="'Segoe UI', 'Segoe UI_MSFontService', sans-serif"
       font-weight="400"
       font-size="51px"
       transform="translate(898.926,1096)"
       id="text536">assets</text>
    <path
       d="m 731.5,1177.5 c 0,-9.39 7.611,-17 17,-17 h 436 c 9.39,0 17,7.61 17,17 v 136 c 0,9.39 -7.61,17 -17,17 h -436 c -9.389,0 -17,-7.61 -17,-17 z"
       stroke="#000000"
       stroke-width="1.13333"
       stroke-linejoin="round"
       stroke-miterlimit="10"
       fill="#ffffff"
       fill-rule="evenodd"
       id="path538" />
    <text
       font-family="'Segoe UI', 'Segoe UI_MSFontService', sans-serif"
       font-weight="400"
       font-size="51px"
       transform="translate(749.266,1232)"
       id="text540">Manage and report</text>
    <text
       font-family="'Segoe UI', 'Segoe UI_MSFontService', sans-serif"
       font-weight="400"
       font-size="51px"
       transform="translate(763.366,1293)"
       id="text542">on asset financials</text>
    <path
       d="m 731.5,1374.5 c 0,-9.39 7.611,-17 17,-17 h 436 c 9.39,0 17,7.61 17,17 v 136 c 0,9.39 -7.61,17 -17,17 h -436 c -9.389,0 -17,-7.61 -17,-17 z"
       stroke="#000000"
       stroke-width="1.13333"
       stroke-linejoin="round"
       stroke-miterlimit="10"
       fill="#ffffff"
       fill-rule="evenodd"
       id="path544" />
    <text
       font-family="'Segoe UI', 'Segoe UI_MSFontService', sans-serif"
       font-weight="400"
       font-size="51px"
       transform="translate(747.699,1429)"
       id="text546">Maintain and repair</text>
    <text
       font-family="'Segoe UI', 'Segoe UI_MSFontService', sans-serif"
       font-weight="400"
       font-size="51px"
       transform="translate(807.759,1490)"
       id="text548">internal assets</text>
    <path
       d="m 731.5,1571.5 c 0,-9.39 7.611,-17 17,-17 h 436 c 9.39,0 17,7.61 17,17 v 136 c 0,9.39 -7.61,17 -17,17 h -436 c -9.389,0 -17,-7.61 -17,-17 z"
       stroke="#000000"
       stroke-width="1.13333"
       stroke-linejoin="round"
       stroke-miterlimit="10"
       fill="#ffffff"
       fill-rule="evenodd"
       id="path550" />
    <text
       font-family="'Segoe UI', 'Segoe UI_MSFontService', sans-serif"
       font-weight="400"
       font-size="51px"
       transform="translate(760.199,1626)"
       id="text552">Retire and dispose</text>
    <text
       font-family="'Segoe UI', 'Segoe UI_MSFontService', sans-serif"
       font-weight="400"
       font-size="51px"
       transform="translate(869.666,1687)"
       id="text554">of assets</text>
    <path
       d="M 1303,93.7008 C 1303,61.2812 1329.28,35 1361.7,35 h 469.6 c 32.42,0 58.7,26.2812 58.7,58.7008 V 1755.3 c 0,32.42 -26.28,58.7 -58.7,58.7 h -469.6 c -32.42,0 -58.7,-26.28 -58.7,-58.7 z"
       fill="#cbcbcb"
       fill-rule="evenodd"
       id="path556" />
    <text
       font-family="'Segoe UI', 'Segoe UI_MSFontService', sans-serif"
       font-weight="400"
       font-size="87px"
       transform="translate(1355.72,280)"
       id="text558">Downstream</text>
    <text
       font-family="'Segoe UI', 'Segoe UI_MSFontService', sans-serif"
       font-weight="400"
       font-size="87px"
       transform="translate(1411.08,384)"
       id="text560">processes</text>
    <path
       d="m 1362.5,580.8 c 0,-6.241 5.06,-11.3 11.3,-11.3 h 447.4 c 6.24,0 11.3,5.059 11.3,11.3 v 90.4 c 0,6.241 -5.06,11.301 -11.3,11.301 L 1373.8,682.5 c -6.24,0 -11.3,-5.059 -11.3,-11.3 z"
       stroke="#000000"
       stroke-width="1.13333"
       stroke-linejoin="round"
       stroke-miterlimit="10"
       fill="#ffffff"
       fill-rule="evenodd"
       id="path562" />
    <text
       font-family="'Segoe UI', 'Segoe UI_MSFontService', sans-serif"
       font-weight="400"
       font-size="51px"
       transform="translate(1395.57,643)"
       id="text564">Case to resolution</text>
    <path
       d="m 1362.5,710.8 c 0,-6.241 5.06,-11.3 11.3,-11.3 h 447.4 c 6.24,0 11.3,5.059 11.3,11.3 v 90.4 c 0,6.241 -5.06,11.301 -11.3,11.301 L 1373.8,812.5 c -6.24,0 -11.3,-5.059 -11.3,-11.3 z"
       stroke="#000000"
       stroke-width="1.13333"
       stroke-linejoin="round"
       stroke-miterlimit="10"
       fill="#ffffff"
       fill-rule="evenodd"
       id="path566" />
    <text
       font-family="'Segoe UI', 'Segoe UI_MSFontService', sans-serif"
       font-weight="400"
       font-size="51px"
       transform="translate(1455.82,773)"
       id="text568">Hire to retire</text>
    <path
       d="m 1362.5,840.8 c 0,-6.241 5.06,-11.3 11.3,-11.3 h 447.4 c 6.24,0 11.3,5.059 11.3,11.3 v 90.4 c 0,6.241 -5.06,11.301 -11.3,11.301 L 1373.8,942.5 c -6.24,0 -11.3,-5.059 -11.3,-11.3 z"
       stroke="#000000"
       stroke-width="1.13333"
       stroke-linejoin="round"
       stroke-miterlimit="10"
       fill="#ffffff"
       fill-rule="evenodd"
       id="path570" />
    <text
       font-family="'Segoe UI', 'Segoe UI_MSFontService', sans-serif"
       font-weight="400"
       font-size="51px"
       transform="translate(1379.4,904)"
       id="text572">Inventory to deliver</text>
    <path
       d="m 1362.5,971.8 c 0,-6.241 5.06,-11.3 11.3,-11.3 h 447.4 c 6.24,0 11.3,5.059 11.3,11.3 v 90.4 c 0,6.24 -5.06,11.3 -11.3,11.3 h -447.4 c -6.24,0 -11.3,-5.06 -11.3,-11.3 z"
       stroke="#000000"
       stroke-width="1.13333"
       stroke-linejoin="round"
       stroke-miterlimit="10"
       fill="#ffffff"
       fill-rule="evenodd"
       id="path574" />
    <text
       font-family="'Segoe UI', 'Segoe UI_MSFontService', sans-serif"
       font-weight="400"
       font-size="51px"
       transform="translate(1445.6,1034)"
       id="text576">Order to cash</text>
    <path
       d="m 1362.5,1101.8 c 0,-6.24 5.06,-11.3 11.3,-11.3 h 447.4 c 6.24,0 11.3,5.06 11.3,11.3 v 90.4 c 0,6.24 -5.06,11.3 -11.3,11.3 h -447.4 c -6.24,0 -11.3,-5.06 -11.3,-11.3 z"
       stroke="#000000"
       stroke-width="1.13333"
       stroke-linejoin="round"
       stroke-miterlimit="10"
       fill="#ffffff"
       fill-rule="evenodd"
       id="path578" />
    <text
       font-family="'Segoe UI', 'Segoe UI_MSFontService', sans-serif"
       font-weight="400"
       font-size="51px"
       transform="translate(1419.86,1164)"
       id="text580">Plan to produce</text>
    <path
       d="m 1362.5,1231.8 c 0,-6.24 5.06,-11.3 11.3,-11.3 h 447.4 c 6.24,0 11.3,5.06 11.3,11.3 v 90.4 c 0,6.24 -5.06,11.3 -11.3,11.3 h -447.4 c -6.24,0 -11.3,-5.06 -11.3,-11.3 z"
       stroke="#000000"
       stroke-width="1.13333"
       stroke-linejoin="round"
       stroke-miterlimit="10"
       fill="#ffffff"
       fill-rule="evenodd"
       id="path582" />
    <text
       font-family="'Segoe UI', 'Segoe UI_MSFontService', sans-serif"
       font-weight="400"
       font-size="51px"
       transform="translate(1434.85,1294)"
       id="text584">Procure to pay</text>
    <path
       d="m 1362.5,1362.7 c 0,-6.19 5.01,-11.2 11.2,-11.2 h 447.6 c 6.19,0 11.2,5.01 11.2,11.2 v 89.6 c 0,6.19 -5.01,11.2 -11.2,11.2 h -447.6 c -6.19,0 -11.2,-5.01 -11.2,-11.2 z"
       stroke="#000000"
       stroke-width="1.13333"
       stroke-linejoin="round"
       stroke-miterlimit="10"
       fill="#ffffff"
       fill-rule="evenodd"
       id="path586" />
    <text
       font-family="'Segoe UI', 'Segoe UI_MSFontService', sans-serif"
       font-weight="400"
       font-size="51px"
       transform="translate(1422.25,1425)"
       id="text588">Project to profit</text>
    <path
       d="m 1362.5,1492.8 c 0,-6.24 5.06,-11.3 11.3,-11.3 h 447.4 c 6.24,0 11.3,5.06 11.3,11.3 v 90.4 c 0,6.24 -5.06,11.3 -11.3,11.3 h -447.4 c -6.24,0 -11.3,-5.06 -11.3,-11.3 z"
       stroke="#000000"
       stroke-width="1.13333"
       stroke-linejoin="round"
       stroke-miterlimit="10"
       fill="#ffffff"
       fill-rule="evenodd"
       id="path590" />
    <text
       font-family="'Segoe UI', 'Segoe UI_MSFontService', sans-serif"
       font-weight="400"
       font-size="51px"
       transform="translate(1412.62,1555)"
       id="text592">Record to report</text>
    <path
       d="m 1362.5,1622.8 c 0,-6.24 5.06,-11.3 11.3,-11.3 h 447.4 c 6.24,0 11.3,5.06 11.3,11.3 v 90.4 c 0,6.24 -5.06,11.3 -11.3,11.3 h -447.4 c -6.24,0 -11.3,-5.06 -11.3,-11.3 z"
       stroke="#000000"
       stroke-width="1.13333"
       stroke-linejoin="round"
       stroke-miterlimit="10"
       fill="#ffffff"
       fill-rule="evenodd"
       id="path594" />
    <text
       font-family="'Segoe UI', 'Segoe UI_MSFontService', sans-serif"
       font-weight="400"
       font-size="51px"
       transform="translate(1430.4,1685)"
       id="text596">Service to cash</text>
  </g>
</svg>
