<?xml version="1.0"?>
<svg xmlns="http://www.w3.org/2000/svg" xmlns:xlink="http://www.w3.org/1999/xlink" xmlns:ev="http://www.w3.org/2001/xml-events"    viewBox="45 36 731 593"    xml:space="preserve" color-interpolation-filters="sRGB" class="st13" width="1836" height="1464">
<rect x="0" y="0" width="1836" height="1464" fill="#ffffff" />
	<style type="text/css"><![CDATA[
		.st1 {fill:#e7e2da;stroke:#000000;stroke-linecap:round;stroke-linejoin:round;stroke-width:0.75}
		.st2 {fill:#ffffff;stroke:#0078d4;stroke-linecap:round;stroke-linejoin:round;stroke-width:0.24}
		.st3 {fill:#000000;font-family:Calibri;font-size:1.00001em}
		.st4 {fill:#a0a0a0;stroke:none;stroke-linecap:round;stroke-linejoin:round;stroke-width:0.24}
		.st5 {font-size:1em}
		.st6 {fill:#0078d4;stroke:none;stroke-linecap:round;stroke-linejoin:round;stroke-width:0.24}
		.st7 {fill:#ffffff}
		.st8 {stroke:#0078d4;stroke-linecap:round;stroke-linejoin:round;stroke-width:0.24}
		.st9 {marker-end:url(#mrkr13-135);stroke:#0078d4;stroke-linecap:round;stroke-linejoin:round;stroke-width:0.75}
		.st10 {fill:#0078d4;fill-opacity:1;stroke:#0078d4;stroke-opacity:1;stroke-width:0.22935779816514}
		.st11 {fill:none;stroke:none;stroke-linecap:round;stroke-linejoin:round;stroke-width:0.75}
		.st12 {fill:#0078d4;font-family:Calibri;font-size:1.16666em;font-weight:bold}
		.st13 {fill:none;fill-rule:evenodd;font-size:12px;overflow:visible;stroke-linecap:square;stroke-miterlimit:3}
	]]></style><style> a { pointer-events: none; } </style><style>a.rules_svg_anchor g:hover { opacity:0.8; cursor:pointer; }</style>
	<defs id="Markers">
		<g id="lend13">
			<path d="M 3 1 L 0 0 L 3 -1 L 3 1 " style="stroke:none" />
		</g>
		<marker id="mrkr13-135" class="st10" refX="-13.08" orient="auto" markerUnits="strokeWidth" overflow="visible">
			<use xlink:href="#lend13" transform="scale(-4.36,-4.36) " />
		</marker>
	</defs>
	<g>
		
		<g id="shape53-1" transform="translate(198,-559.125)">
			
			<rect x="0" y="622.125" width="459" height="565.875" class="st1" />
		</g>
		<g id="shape1-3" transform="translate(45,-1116)">
			
			<desc>Start</desc>
			<path d="M18 1188 L60.75 1188 A18 18 -180 0 0 60.75 1152 L18 1152 A18 18 -180 1 0 18 1188 Z" class="st2" />
			<text x="27.63" y="1173.6" class="st3">Start</text>
		</g>
		<a id="2f897ddb-81f6-48d5-bf28-f94f86dcea50" class="rules_svg_anchor rules_svg_shape"   href="/lms/chart?onclick=b3BlbkNoYXJ0Q29udGV4dE1lbnUoZXZlbnQsJ3cxMTJkNTIzNTk2NWMxNjgwMnY0MDY4JywxNjA4OCwgMSwgNCwgdGhpcywgd2luZG93LmZyYW1lRWxlbWVudCk=&amp;navigate=true&amp;details=Description">
			<g id="shape2-6" transform="translate(45,-1026)">
				
				<desc>10 Acquire to dispose</desc>
				<rect x="0" y="1125" width="78.75" height="63" class="st4" />
				<text x="6.64" y="1152.9" class="st3">10 Acquire to <tspan x="20.85" dy="1.2em" class="st5">dispose</tspan>
				</text>
			</g>
		</a>
		<a id="8ba90e51-8014-427b-af70-8edf0e4801a7" class="rules_svg_anchor rules_svg_shape"   href="/lms/chart?onclick=b3BlbkNoYXJ0Q29udGV4dE1lbnUoZXZlbnQsJ3cxMTJkNTIzNTk2NWMxNzI2OXY0MDY4JywxNjQ1OCwgMSwgMSwgdGhpcywgd2luZG93LmZyYW1lRWxlbWVudCk=&amp;navigate=true&amp;details=Description">
			<g id="shape3-10" transform="translate(45,-936)">
				
				<desc>75 Source to pay</desc>
				<rect x="0" y="1125" width="78.75" height="63" class="st4" />
				<text x="8.72" y="1152.9" class="st3">75 Source to <tspan x="30.63" dy="1.2em" class="st5">pay</tspan>
				</text>
			</g>
		</a>
		<a id="457f45b0-6a3f-480c-a744-61f35fdfd824" class="rules_svg_anchor rules_svg_shape"   href="/lms/chart?onclick=b3BlbkNoYXJ0Q29udGV4dE1lbnUoZXZlbnQsJ3cxMTJkNTIzNTk2NWMxNjgxNnY0MDY4JywxNjA5OCwgMSwgMSwgdGhpcywgd2luZG93LmZyYW1lRWxlbWVudCk=&amp;navigate=true&amp;details=Description">
			<g id="shape4-14" transform="translate(238.5,-1026)">
				
				<desc>10.20 Acquire assets</desc>
				<rect x="0" y="1125" width="99" height="63" class="st6" />
				<text x="15.7" y="1152.9" class="st3">10.20 Acquire <tspan x="34.59" dy="1.2em" class="st5">assets</tspan>
				</text>
			</g>
		</a>
		<a id="7f87a61f-6a32-4b74-a23a-d76d8b919807" class="rules_svg_anchor rules_svg_shape"   href="/lms/chart?onclick=b3BlbkNoYXJ0Q29udGV4dE1lbnUoZXZlbnQsJ3cxMTJkNTIzNTk2NWMxMDUzMDl2NDA2OCcsMTYwOTksIDEsIDEsIHRoaXMsIHdpbmRvdy5mcmFtZUVsZW1lbnQp&amp;navigate=true&amp;details=Description">
			<g id="shape5-18" transform="translate(238.5,-936)">
				
				<desc>10.20.100 Plan fixed assets</desc>
				<path d="M0 1188 L99 1188 L99 1125 L0 1125 L0 1188 Z" class="st7" />
				<path d="M0 1188 L99 1188 L99 1125 L0 1125 L0 1188" class="st8" />
				<path d="M9 1188 L9 1125" class="st8" />
				<path d="M90 1188 L90 1125" class="st8" />
				<text x="13.32" y="1152.9" class="st3">10.20.100 Plan <tspan x="21.29" dy="1.2em" class="st5">fixed assets</tspan>
				</text>
			</g>
		</a>
		<a id="ef03cdaa-9ed2-4875-b059-8a6ccc71d6e7" class="rules_svg_anchor rules_svg_shape"   href="/lms/chart?onclick=b3BlbkNoYXJ0Q29udGV4dE1lbnUoZXZlbnQsJ3cxMTJkNTIzNTk2NWMxNzI4NHY0MDY4JywxNjQ2OCwgMSwgMSwgdGhpcywgd2luZG93LmZyYW1lRWxlbWVudCk=&amp;navigate=true&amp;details=Description">
			<g id="shape6-25" transform="translate(45,-846)">
				
				<desc>75.30.020 Onboard new suppliers</desc>
				<path d="M0 1188 L99 1188 L99 1125 L0 1125 L0 1188 Z" class="st7" />
				<path d="M0 1188 L99 1188 L99 1125 L0 1125 L0 1188" class="st8" />
				<path d="M9 1188 L9 1125" class="st8" />
				<path d="M90 1188 L90 1125" class="st8" />
				<text x="25.18" y="1145.7" class="st3">75.30.020 <tspan x="16.16" dy="1.2em" class="st5">Onboard new </tspan>
					<tspan x="27.52" dy="1.2em" class="st5">suppliers</tspan>
				</text>
			</g>
		</a>
		<a id="bae95fde-331e-4ec4-a30e-626946c8f9be" class="rules_svg_anchor rules_svg_shape"   href="/lms/chart?onclick=b3BlbkNoYXJ0Q29udGV4dE1lbnUoZXZlbnQsJ3cxMTJkNTIzNTk2NWMxNzI4OHY0MDY4JywxNjQ4NCwgMSwgMSwgdGhpcywgd2luZG93LmZyYW1lRWxlbWVudCk=&amp;navigate=true&amp;details=Description">
			<g id="shape7-33" transform="translate(45,-756)">
				
				<desc>75.40.010 Raise purchase requisitions</desc>
				<path d="M0 1188 L99 1188 L99 1125 L0 1125 L0 1188 Z" class="st7" />
				<path d="M0 1188 L99 1188 L99 1125 L0 1125 L0 1188" class="st8" />
				<path d="M9 1188 L9 1125" class="st8" />
				<path d="M90 1188 L90 1125" class="st8" />
				<text x="25.18" y="1145.7" class="st3">75.40.010 <tspan x="13.01" dy="1.2em" class="st5">Raise purchase </tspan>
					<tspan x="20.97" dy="1.2em" class="st5">requisitions</tspan>
				</text>
			</g>
		</a>
		<a id="1327415b-ef4b-4907-8ef3-e985b999e00d" class="rules_svg_anchor rules_svg_shape"   href="/lms/chart?onclick=b3BlbkNoYXJ0Q29udGV4dE1lbnUoZXZlbnQsJ3cxMTJkNTIzNTk2NWMxNzMxOXY0MDY4JywxNjUwNywgMSwgMSwgdGhpcywgd2luZG93LmZyYW1lRWxlbWVudCk=&amp;navigate=true&amp;details=Description">
			<g id="shape8-41" transform="translate(45,-666)">
				
				<desc>80 Project to profit</desc>
				<rect x="0" y="1125" width="78.75" height="63" class="st4" />
				<text x="8.08" y="1152.9" class="st3">80 Project to <tspan x="25.75" dy="1.2em" class="st5">profit</tspan>
				</text>
			</g>
		</a>
		<a id="30e7bc1a-047e-4e04-ab39-31c832f60b09" class="rules_svg_anchor rules_svg_shape"   href="/lms/chart?onclick=b3BlbkNoYXJ0Q29udGV4dE1lbnUoZXZlbnQsJ3cxMTJkNTIzNTk2NWMxMDUzMTB2NDA2OCcsMTYxMDAsIDEsIDEsIHRoaXMsIHdpbmRvdy5mcmFtZUVsZW1lbnQp&amp;navigate=true&amp;details=Description">
			<g id="shape10-45" transform="translate(238.5,-846)">
				
				<desc>10.20.150 Plan asset leases</desc>
				<path d="M0 1188 L99 1188 L99 1125 L0 1125 L0 1188 Z" class="st7" />
				<path d="M0 1188 L99 1188 L99 1125 L0 1125 L0 1188" class="st8" />
				<path d="M9 1188 L9 1125" class="st8" />
				<path d="M90 1188 L90 1125" class="st8" />
				<text x="13.32" y="1152.9" class="st3">10.20.150 Plan <tspan x="20.67" dy="1.2em" class="st5">asset leases</tspan>
				</text>
			</g>
		</a>
		<a id="1d129bdd-51fb-40da-932f-fda0e3cfbc6e" class="rules_svg_anchor rules_svg_shape"   href="/lms/chart?onclick=b3BlbkNoYXJ0Q29udGV4dE1lbnUoZXZlbnQsJ3cxMTJkNTIzNTk2NWMxMDUzMTF2NDA2OCcsMTYxMDEsIDEsIDEsIHRoaXMsIHdpbmRvdy5mcmFtZUVsZW1lbnQp&amp;navigate=true&amp;details=Description">
			<g id="shape11-52" transform="translate(238.5,-756)">
				
				<desc>10.20.200 Budget fixed assets</desc>
				<path d="M0 1188 L99 1188 L99 1125 L0 1125 L0 1188 Z" class="st7" />
				<path d="M0 1188 L99 1188 L99 1125 L0 1125 L0 1188" class="st8" />
				<path d="M9 1188 L9 1125" class="st8" />
				<path d="M90 1188 L90 1125" class="st8" />
				<text x="25.18" y="1145.7" class="st3">10.20.200 <tspan x="18.81" dy="1.2em" class="st5">Budget fixed </tspan>
					<tspan x="34.59" dy="1.2em" class="st5">assets</tspan>
				</text>
			</g>
		</a>
		<a id="998622ee-db43-48cd-b0ae-61f5f6a935bd" class="rules_svg_anchor rules_svg_shape"   href="/lms/chart?onclick=b3BlbkNoYXJ0Q29udGV4dE1lbnUoZXZlbnQsJ3cxMTJkNTIzNTk2NWMxMDUzMTJ2NDA2OCcsMTYxMDIsIDEsIDEsIHRoaXMsIHdpbmRvdy5mcmFtZUVsZW1lbnQp&amp;navigate=true&amp;details=Description">
			<g id="shape12-60" transform="translate(238.5,-666)">
				
				<desc>10.20.250 Budget asset leases</desc>
				<path d="M0 1188 L99 1188 L99 1125 L0 1125 L0 1188 Z" class="st7" />
				<path d="M0 1188 L99 1188 L99 1125 L0 1125 L0 1188" class="st8" />
				<path d="M9 1188 L9 1125" class="st8" />
				<path d="M90 1188 L90 1125" class="st8" />
				<text x="25.18" y="1145.7" class="st3">10.20.250 <tspan x="18.19" dy="1.2em" class="st5">Budget asset </tspan>
					<tspan x="34.58" dy="1.2em" class="st5">leases</tspan>
				</text>
			</g>
		</a>
		<a id="f3c34499-edd0-486f-a97a-ffd4d3aa2019" class="rules_svg_anchor rules_svg_shape"   href="/lms/chart?onclick=b3BlbkNoYXJ0Q29udGV4dE1lbnUoZXZlbnQsJ3cxMTJkNTIzNTk2NWMxMDUzMTN2NDA2OCcsMTYxMDMsIDEsIDEsIHRoaXMsIHdpbmRvdy5mcmFtZUVsZW1lbnQp&amp;navigate=true&amp;details=Description">
			<g id="shape14-68" transform="translate(391.5,-936)">
				
				<desc>10.20.275 Reallocate asset budgets</desc>
				<path d="M0 1188 L99 1188 L99 1125 L0 1125 L0 1188 Z" class="st7" />
				<path d="M0 1188 L99 1188 L99 1125 L0 1125 L0 1188" class="st8" />
				<path d="M9 1188 L9 1125" class="st8" />
				<path d="M90 1188 L90 1125" class="st8" />
				<text x="25.18" y="1145.7" class="st3">10.20.275 <tspan x="24.06" dy="1.2em" class="st5">Reallocate </tspan>
					<tspan x="15.96" dy="1.2em" class="st5">asset budgets</tspan>
				</text>
			</g>
		</a>
		<a id="013cd6df-4ffd-47fc-a79e-cbb5dbcbf968" class="rules_svg_anchor rules_svg_shape"   href="/lms/chart?onclick=b3BlbkNoYXJ0Q29udGV4dE1lbnUoZXZlbnQsJ3cxMTJkNTIzNTk2NWMxMDUzMTR2NDA2OCcsMTYxMDQsIDEsIDEsIHRoaXMsIHdpbmRvdy5mcmFtZUVsZW1lbnQp&amp;navigate=true&amp;details=Description">
			<g id="shape15-76" transform="translate(391.5,-846)">
				
				<desc>10.20.300 Source assets</desc>
				<path d="M0 1188 L99 1188 L99 1125 L0 1125 L0 1188 Z" class="st7" />
				<path d="M0 1188 L99 1188 L99 1125 L0 1125 L0 1188" class="st8" />
				<path d="M9 1188 L9 1125" class="st8" />
				<path d="M90 1188 L90 1125" class="st8" />
				<text x="25.18" y="1152.9" class="st3">10.20.300 <tspan x="16.55" dy="1.2em" class="st5">Source assets</tspan>
				</text>
			</g>
		</a>
		<a id="b67d1dea-fd11-432d-847d-c58108511f13" class="rules_svg_anchor rules_svg_shape"   href="/lms/chart?onclick=b3BlbkNoYXJ0Q29udGV4dE1lbnUoZXZlbnQsJ3cxMTJkNTIzNTk2NWMxMDUzMTV2NDA2OCcsMTYxMDUsIDEsIDEsIHRoaXMsIHdpbmRvdy5mcmFtZUVsZW1lbnQp&amp;navigate=true&amp;details=Description">
			<g id="shape16-83" transform="translate(391.5,-756)">
				
				<desc>10.20.400 Purchase assets</desc>
				<path d="M0 1188 L99 1188 L99 1125 L0 1125 L0 1188 Z" class="st7" />
				<path d="M0 1188 L99 1188 L99 1125 L0 1125 L0 1188" class="st8" />
				<path d="M9 1188 L9 1125" class="st8" />
				<path d="M90 1188 L90 1125" class="st8" />
				<text x="25.18" y="1145.7" class="st3">10.20.400 <tspan x="27.26" dy="1.2em" class="st5">Purchase </tspan>
					<tspan x="34.59" dy="1.2em" class="st5">assets</tspan>
				</text>
			</g>
		</a>
		<a id="2d3b5240-1056-4425-97cc-d492e97e89cc" class="rules_svg_anchor rules_svg_shape"   href="/lms/chart?onclick=b3BlbkNoYXJ0Q29udGV4dE1lbnUoZXZlbnQsJ3cxMTJkNTIzNTk2NWMxMDUzMTZ2NDA2OCcsMTYxMDYsIDEsIDEsIHRoaXMsIHdpbmRvdy5mcmFtZUVsZW1lbnQp&amp;navigate=true&amp;details=Description">
			<g id="shape17-91" transform="translate(391.5,-666)">
				
				<desc>10.20.500 Produce assets</desc>
				<path d="M0 1188 L99 1188 L99 1125 L0 1125 L0 1188 Z" class="st7" />
				<path d="M0 1188 L99 1188 L99 1125 L0 1125 L0 1188" class="st8" />
				<path d="M9 1188 L9 1125" class="st8" />
				<path d="M90 1188 L90 1125" class="st8" />
				<text x="25.18" y="1152.9" class="st3">10.20.500 <tspan x="13.05" dy="1.2em" class="st5">Produce assets</tspan>
				</text>
			</g>
		</a>
		<a id="da89752f-1ce6-4c11-bfdf-89f18edbfe57" class="rules_svg_anchor rules_svg_shape"   href="/lms/chart?onclick=b3BlbkNoYXJ0Q29udGV4dE1lbnUoZXZlbnQsJ3cxMTJkNTIzNTk2NWMxMDUzMTd2NDA2OCcsMTYxMDcsIDEsIDEsIHRoaXMsIHdpbmRvdy5mcmFtZUVsZW1lbnQp&amp;navigate=true&amp;details=Description">
			<g id="shape19-98" transform="translate(544.5,-936)">
				
				<desc>10.20.600 Lease assets</desc>
				<path d="M0 1188 L99 1188 L99 1125 L0 1125 L0 1188 Z" class="st7" />
				<path d="M0 1188 L99 1188 L99 1125 L0 1125 L0 1188" class="st8" />
				<path d="M9 1188 L9 1125" class="st8" />
				<path d="M90 1188 L90 1125" class="st8" />
				<text x="25.18" y="1152.9" class="st3">10.20.600 <tspan x="19.52" dy="1.2em" class="st5">Lease assets</tspan>
				</text>
			</g>
		</a>
		<a id="06bc71b1-1159-4842-a3ab-23070f9e1b5f" class="rules_svg_anchor rules_svg_shape"   href="/lms/chart?onclick=b3BlbkNoYXJ0Q29udGV4dE1lbnUoZXZlbnQsJ3cxMTJkNTIzNTk2NWMxMDUzMTh2NDA2OCcsMTYxMDgsIDEsIDEsIHRoaXMsIHdpbmRvdy5mcmFtZUVsZW1lbnQp&amp;navigate=true&amp;details=Description">
			<g id="shape20-105" transform="translate(544.5,-846)">
				
				<desc>10.20.700 Install and commission assets</desc>
				<path d="M0 1188 L99 1188 L99 1125 L0 1125 L0 1188 Z" class="st7" />
				<path d="M0 1188 L99 1188 L99 1125 L0 1125 L0 1188" class="st8" />
				<path d="M9 1188 L9 1125" class="st8" />
				<path d="M90 1188 L90 1125" class="st8" />
				<text x="25.18" y="1138.5" class="st3">10.20.700 <tspan x="24.32" dy="1.2em" class="st5">Install and </tspan>
					<tspan x="20.45" dy="1.2em" class="st5">commission </tspan>
					<tspan x="34.59" dy="1.2em" class="st5">assets</tspan>
				</text>
			</g>
		</a>
		<a id="ab47f71c-2530-4ae6-958d-2812f4e2d093" class="rules_svg_anchor rules_svg_shape"   href="/lms/chart?onclick=b3BlbkNoYXJ0Q29udGV4dE1lbnUoZXZlbnQsJ3cxMTJkNTIzNTk2NWMxMDUzMTl2NDA2OCcsMTYxMDksIDEsIDEsIHRoaXMsIHdpbmRvdy5mcmFtZUVsZW1lbnQp&amp;navigate=true&amp;details=Description">
			<g id="shape21-114" transform="translate(544.5,-756)">
				
				<desc>10.20.800 Record fixed asset acquisitions</desc>
				<path d="M0 1188 L99 1188 L99 1125 L0 1125 L0 1188 Z" class="st7" />
				<path d="M0 1188 L99 1188 L99 1125 L0 1125 L0 1188" class="st8" />
				<path d="M9 1188 L9 1125" class="st8" />
				<path d="M90 1188 L90 1125" class="st8" />
				<text x="25.18" y="1138.5" class="st3">10.20.800 <tspan x="19.01" dy="1.2em" class="st5">Record fixed </tspan>
					<tspan x="36.94" dy="1.2em" class="st5">asset </tspan>
					<tspan x="20.63" dy="1.2em" class="st5">acquisitions</tspan>
				</text>
			</g>
		</a>
		<a id="18674bc1-1fb7-4cad-acc7-5a3eb901854b" class="rules_svg_anchor rules_svg_shape"   href="/lms/chart?onclick=b3BlbkNoYXJ0Q29udGV4dE1lbnUoZXZlbnQsJ3cxMTJkNTIzNTk2NWMxNzIzMHY0MDY4JywxNjQyMiwgMSwgMSwgdGhpcywgd2luZG93LmZyYW1lRWxlbWVudCk=&amp;navigate=true&amp;details=Description">
			<g id="shape23-123" transform="translate(697.5,-756)">
				
				<desc>70 Plan to produce</desc>
				<rect x="0" y="1125" width="78.75" height="63" class="st4" />
				<text x="14.9" y="1152.9" class="st3">70 Plan to <tspan x="19.14" dy="1.2em" class="st5">produce</tspan>
				</text>
			</g>
		</a>
		<g id="shape24-127" transform="translate(554.625,-589.5)">
			
			<desc>End</desc>
			<path d="M18 1188 L60.75 1188 A18 18 -180 0 0 60.75 1152 L18 1152 A18 18 -180 1 0 18 1188 Z" class="st2" />
			<text x="30.14" y="1173.6" class="st3">End</text>
		</g>
		<g id="shape26-130" transform="translate(75.375,-1116)">
			
			<path d="M9 1188 L9 1205.19" class="st9" />
		</g>
		<g id="shape27-136" transform="translate(123.75,-1048.5)">
			
			<path d="M0 1179 L104.94 1179" class="st9" />
		</g>
		<g id="shape28-141" transform="translate(80.4375,-936)">
			
			<path d="M3.94 1188 L3.94 1196.83 L14.06 1196.83 L14.06 1205.19" class="st9" />
		</g>
		<g id="shape29-146" transform="translate(85.5,-846)">
			
			<path d="M9 1188 L9 1205.19" class="st9" />
		</g>
		<g id="shape30-151" transform="translate(144,-787.5)">
			
			<path d="M0 1188 L17.66 1188 L17.66 1008 L84.69 1008" class="st9" />
		</g>
		<g id="shape32-156" transform="translate(123.75,-697.5)">
			
			<path d="M0 1188 L37.91 1188 L37.91 918 L104.94 918" class="st9" />
		</g>
		<g id="shape33-161" transform="translate(279,-1026)">
			
			<path d="M9 1188 L9 1205.19" class="st9" />
		</g>
		<g id="shape34-166" transform="translate(279,-936)">
			
			<path d="M9 1188 L9 1205.19" class="st9" />
		</g>
		<g id="shape35-171" transform="translate(279,-846)">
			
			<path d="M9 1188 L9 1205.19" class="st9" />
		</g>
		<g id="shape36-176" transform="translate(279,-756)">
			
			<path d="M9 1188 L9 1205.19" class="st9" />
		</g>
		<g id="shape37-181" transform="translate(337.5,-697.5)">
			
			<path d="M0 1188 L27 1188 L27 918 L44.19 918" class="st9" />
		</g>
		<g id="shape38-186" transform="translate(432,-936)">
			
			<path d="M9 1188 L9 1205.19" class="st9" />
		</g>
		<g id="shape39-191" transform="translate(432,-846)">
			
			<path d="M9 1188 L9 1205.19" class="st9" />
		</g>
		<g id="shape40-196" transform="translate(432,-756)">
			
			<path d="M9 1188 L9 1205.19" class="st9" />
		</g>
		<g id="shape44-201" transform="translate(585,-936)">
			
			<path d="M9 1188 L9 1205.19" class="st9" />
		</g>
		<g id="shape45-206" transform="translate(585,-846)">
			
			<path d="M9 1188 L9 1205.19" class="st9" />
		</g>
		<g id="shape46-211" transform="translate(490.5,-697.5)">
			
			<path d="M0 1188 L17.66 1188 L17.66 918 L44.19 918" class="st9" />
		</g>
		<g id="shape48-216" transform="translate(441,-666)">
			
			<path d="M0 1188 L0 1205.66 L150 1205.66 A3 3 0 0 1 156 1205.66 L295.88 1205.66 L295.88 1107.81" class="st9" />
		</g>
		<g id="shape54-221" transform="translate(198,-1098)">
			
			<desc>Business process area</desc>
			<rect x="0" y="1161" width="216" height="27" class="st11" />
			<text x="4" y="1178.7" class="st12">Business process area</text>
		</g>
		<a id="ab4c8997-4f4e-43b2-8777-ccf2c4959fd5" class="rules_svg_anchor rules_svg_shape"   href="/lms/chart?onclick=b3BlbkNoYXJ0Q29udGV4dE1lbnUoZXZlbnQsJ3cxMTJkNTIzNTk2NWMxMDUzMjB2NDA2OCcsMTYxMTAsIDEsIDEsIHRoaXMsIHdpbmRvdy5mcmFtZUVsZW1lbnQp&amp;navigate=true&amp;details=Description">
			<g id="shape55-224" transform="translate(544.5,-666)">
				
				<desc>10.20.900 Record asset lease right-of-use</desc>
				<path d="M0 1188 L99 1188 L99 1125 L0 1125 L0 1188 Z" class="st7" />
				<path d="M0 1188 L99 1188 L99 1125 L0 1125 L0 1188" class="st8" />
				<path d="M9 1188 L9 1125" class="st8" />
				<path d="M90 1188 L90 1125" class="st8" />
				<text x="25.18" y="1138.5" class="st3">10.20.900 <tspan x="18.39" dy="1.2em" class="st5">Record asset </tspan>
					<tspan x="15.45" dy="1.2em" class="st5">lease right</tspan>-of-<tspan x="41.02" dy="1.2em" class="st5">use</tspan>
				</text>
			</g>
		</a>
		<g id="shape56-233" transform="translate(585,-756)">
			
			<path d="M9 1188 L9 1205.19" class="st9" />
		</g>
		<g id="shape57-238" transform="translate(585,-666)">
			
			<path d="M9 1188 L9 1218.69" class="st9" />
		</g>
	</g>
</svg>
