<?xml version="1.0"?>
<svg xmlns="http://www.w3.org/2000/svg" xmlns:xlink="http://www.w3.org/1999/xlink" xmlns:ev="http://www.w3.org/2001/xml-events"    viewBox="16 22 712 762"    xml:space="preserve" color-interpolation-filters="sRGB" class="st11" width="1836" height="1920">
<rect x="0" y="0" width="1836" height="1920" fill="#ffffff" />
	<style type="text/css"><![CDATA[
		.st1 {fill:#ffffff;stroke:#0078d4;stroke-linecap:round;stroke-linejoin:round;stroke-width:0.24}
		.st2 {fill:#000000;font-family:Calibri;font-size:1.00001em}
		.st3 {fill:#a0a0a0;stroke:none;stroke-linecap:round;stroke-linejoin:round;stroke-width:0.24}
		.st4 {font-size:1em}
		.st5 {fill:#0078d4;stroke:none;stroke-linecap:round;stroke-linejoin:round;stroke-width:0.24}
		.st6 {fill:#ffffff;font-family:Calibri;font-size:1.00001em}
		.st7 {fill:#ffffff}
		.st8 {stroke:#0078d4;stroke-linecap:round;stroke-linejoin:round;stroke-width:0.24}
		.st9 {marker-end:url(#mrkr13-101);stroke:#0078d4;stroke-linecap:round;stroke-linejoin:round;stroke-width:0.75}
		.st10 {fill:#0078d4;fill-opacity:1;stroke:#0078d4;stroke-opacity:1;stroke-width:0.22935779816514}
		.st11 {fill:none;fill-rule:evenodd;font-size:12px;overflow:visible;stroke-linecap:square;stroke-miterlimit:3}
	]]></style><style> a { pointer-events: none; } </style><style>a.rules_svg_anchor g:hover { opacity:0.8; cursor:pointer; }</style>
	<defs id="Markers">
		<g id="lend13">
			<path d="M 3 1 L 0 0 L 3 -1 L 3 1 " style="stroke:none" />
		</g>
		<marker id="mrkr13-101" class="st10" refX="-13.08" orient="auto" markerUnits="strokeWidth" overflow="visible">
			<use xlink:href="#lend13" transform="scale(-4.36,-4.36) " />
		</marker>
	</defs>
	<g>
		
		<g id="shape1-1" transform="translate(54,-1116)">
			
			<desc>Start</desc>
			<path d="M18 1188 L60.75 1188 A18 18 -180 0 0 60.75 1152 L18 1152 A18 18 -180 1 0 18 1188 Z" class="st1" />
			<text x="27.63" y="1173.6" class="st2">Start</text>
		</g>
		<a id="108480dc-adf7-4f37-a874-1de6e8311bd8" class="rules_svg_anchor rules_svg_shape"   href="/lms/chart?onclick=b3BlbkNoYXJ0Q29udGV4dE1lbnUoZXZlbnQsJ3cxMTJkNTIzNTk2NWMxNzQxMnY0MDY4JywxNjU1NywgMSwgMSwgdGhpcywgd2luZG93LmZyYW1lRWxlbWVudCk=&amp;navigate=true&amp;details=Description">
			<g id="shape2-4" transform="translate(54,-1026)">
				
				<desc>90 Record to report</desc>
				<rect x="0" y="1125" width="78.75" height="63" class="st3" />
				<text x="8.22" y="1152.9" class="st2">90 Record to <tspan x="23.88" dy="1.2em" class="st4">report</tspan>
				</text>
			</g>
		</a>
		<a id="3582069a-8fbd-4244-80bf-de1a0db30266" class="rules_svg_anchor rules_svg_shape"   href="/lms/chart?onclick=b3BlbkNoYXJ0Q29udGV4dE1lbnUoZXZlbnQsJ3cxMTJkNTIzNTk2NWMxNjg1N3Y0MDY4JywxNjE0MCwgMSwgMSwgdGhpcywgd2luZG93LmZyYW1lRWxlbWVudCk=&amp;navigate=true&amp;details=Description">
			<g id="shape3-8" transform="translate(54,-936)">
				
				<desc>20 Case to resolution</desc>
				<rect x="0" y="1125" width="78.75" height="63" class="st3" />
				<text x="14" y="1152.9" class="st2">20 Case to <tspan x="14.55" dy="1.2em" class="st4">resolution</tspan>
				</text>
			</g>
		</a>
		<a id="d05a1009-ff8d-40b9-b8ae-39ddf00bbdcf" class="rules_svg_anchor rules_svg_shape"   href="/lms/chart?onclick=b3BlbkNoYXJ0Q29udGV4dE1lbnUoZXZlbnQsJ3cxMTJkNTIzNTk2NWMxNjk5MnY0MDY4JywxNjI1NywgMSwgMSwgdGhpcywgd2luZG93LmZyYW1lRWxlbWVudCk=&amp;navigate=true&amp;details=Description">
			<g id="shape4-12" transform="translate(54,-846)">
				
				<desc>50 Forecast to plan</desc>
				<rect x="0" y="1125" width="78.75" height="63" class="st3" />
				<text x="4.64" y="1152.9" class="st2">50 Forecast to <tspan x="28.82" dy="1.2em" class="st4">plan</tspan>
				</text>
			</g>
		</a>
		<a id="78f97537-6c39-40da-9062-d67c85bcdb32" class="rules_svg_anchor rules_svg_shape"   href="/lms/chart?onclick=b3BlbkNoYXJ0Q29udGV4dE1lbnUoZXZlbnQsJ3cxMTJkNTIzNTk2NWMxNzMxOXY0MDY4JywxNjUwNywgMSwgMSwgdGhpcywgd2luZG93LmZyYW1lRWxlbWVudCk=&amp;navigate=true&amp;details=Description">
			<g id="shape5-16" transform="translate(54,-756)">
				
				<desc>80 Project to profit</desc>
				<rect x="0" y="1125" width="78.75" height="63" class="st3" />
				<text x="8.08" y="1152.9" class="st2">80 Project to <tspan x="25.75" dy="1.2em" class="st4">profit</tspan>
				</text>
			</g>
		</a>
		<a id="4bf4c99f-d935-42f1-8330-b9b2053251e7" class="rules_svg_anchor rules_svg_shape"   href="/lms/chart?onclick=b3BlbkNoYXJ0Q29udGV4dE1lbnUoZXZlbnQsJ3cxMTJkNTIzNTk2NWMxNzI2OXY0MDY4JywxNjQ1OCwgMSwgMSwgdGhpcywgd2luZG93LmZyYW1lRWxlbWVudCk=&amp;navigate=true&amp;details=Description">
			<g id="shape6-20" transform="translate(54,-666)">
				
				<desc>75 Source to pay</desc>
				<rect x="0" y="1125" width="78.75" height="63" class="st3" />
				<text x="8.72" y="1152.9" class="st2">75 Source to <tspan x="30.63" dy="1.2em" class="st4">pay</tspan>
				</text>
			</g>
		</a>
		<a id="620c4714-0b95-4168-b89a-df0a2c9b759c" class="rules_svg_anchor rules_svg_shape"   href="/lms/chart?onclick=b3BlbkNoYXJ0Q29udGV4dE1lbnUoZXZlbnQsJ3cxMTJkNTIzNTk2NWMxNjk0NHY0MDY4JywxNjIyMCwgMSwgMSwgdGhpcywgd2luZG93LmZyYW1lRWxlbWVudCk=&amp;navigate=true&amp;details=Description">
			<g id="shape7-24" transform="translate(54,-576)">
				
				<desc>40 Design to retire</desc>
				<rect x="0" y="1125" width="78.75" height="63" class="st3" />
				<text x="9.03" y="1152.9" class="st2">40 Design to <tspan x="25.83" dy="1.2em" class="st4">retire</tspan>
				</text>
			</g>
		</a>
		<a id="4c1818b2-c361-4851-9c47-448bb9533b51" class="rules_svg_anchor rules_svg_shape"   href="/lms/chart?onclick=b3BlbkNoYXJ0Q29udGV4dE1lbnUoZXZlbnQsJ3cxMTJkNTIzNTk2NWMxNjgwMnY0MDY4JywxNjA4OCwgMSwgNCwgdGhpcywgd2luZG93LmZyYW1lRWxlbWVudCk=&amp;navigate=true&amp;details=Description">
			<g id="shape8-28" transform="translate(306,-1102.5)">
				
				<desc>10 Acquire to dispose</desc>
				<rect x="0" y="1125" width="99" height="63" class="st5" />
				<text x="16.76" y="1152.9" class="st6">10 Acquire to <tspan x="30.98" dy="1.2em" class="st4">dispose</tspan>
				</text>
			</g>
		</a>
		<a id="bb377755-5b12-487b-af2d-9cfdab07f024" class="rules_svg_anchor rules_svg_shape"   href="/lms/chart?onclick=b3BlbkNoYXJ0Q29udGV4dE1lbnUoZXZlbnQsJ3cxMTJkNTIzNTk2NWMxNjgxNnY0MDY4JywxNjA5OCwgMSwgMSwgdGhpcywgd2luZG93LmZyYW1lRWxlbWVudCk=&amp;navigate=true&amp;details=Description">
			<g id="shape10-32" transform="translate(306,-889.594)">
				
				<desc>10.20 Acquire assets</desc>
				<path d="M0 1188 L99 1188 L99 1125 L0 1125 L0 1188 Z" class="st7" />
				<path d="M0 1188 L99 1188 L99 1125 L0 1125 L0 1188" class="st8" />
				<path d="M9 1188 L9 1125" class="st8" />
				<path d="M90 1188 L90 1125" class="st8" />
				<text x="15.7" y="1152.9" class="st2">10.20 Acquire <tspan x="34.59" dy="1.2em" class="st4">assets</tspan>
				</text>
			</g>
		</a>
		<a id="8a1cb95a-92eb-4c8a-a310-3548dae342a9" class="rules_svg_anchor rules_svg_shape"   href="/lms/chart?onclick=b3BlbkNoYXJ0Q29udGV4dE1lbnUoZXZlbnQsJ3cxMTJkNTIzNTk2NWMxNjgzMHY0MDY4JywxNjExMSwgMSwgMSwgdGhpcywgd2luZG93LmZyYW1lRWxlbWVudCk=&amp;navigate=true&amp;details=Description">
			<g id="shape12-39" transform="translate(306,-799.594)">
				
				<desc>10.40 Manage active assets</desc>
				<path d="M0 1188 L99 1188 L99 1125 L0 1125 L0 1188 Z" class="st7" />
				<path d="M0 1188 L99 1188 L99 1125 L0 1125 L0 1188" class="st8" />
				<path d="M9 1188 L9 1125" class="st8" />
				<path d="M90 1188 L90 1125" class="st8" />
				<text x="14.62" y="1152.9" class="st2">10.40 Manage <tspan x="18.74" dy="1.2em" class="st4">active assets</tspan>
				</text>
			</g>
		</a>
		<a id="21b77db0-7be5-421e-8bdd-4da2f5aa8066" class="rules_svg_anchor rules_svg_shape"   href="/lms/chart?onclick=b3BlbkNoYXJ0Q29udGV4dE1lbnUoZXZlbnQsJ3cxMTJkNTIzNTk2NWMxNjg0NHY0MDY4JywxNjExOSwgMSwgMSwgdGhpcywgd2luZG93LmZyYW1lRWxlbWVudCk=&amp;navigate=true&amp;details=Description">
			<g id="shape13-46" transform="translate(427.5,-799.594)">
				
				<desc>10.50 Perform asset maintenance</desc>
				<path d="M0 1188 L99 1188 L99 1125 L0 1125 L0 1188 Z" class="st7" />
				<path d="M0 1188 L99 1188 L99 1125 L0 1125 L0 1188" class="st8" />
				<path d="M9 1188 L9 1125" class="st8" />
				<path d="M90 1188 L90 1125" class="st8" />
				<text x="14.41" y="1145.7" class="st2">10.50 Perform <tspan x="36.94" dy="1.2em" class="st4">asset </tspan>
					<tspan x="17.61" dy="1.2em" class="st4">maintenance</tspan>
				</text>
			</g>
		</a>
		<a id="d5a3acb1-278b-4fa6-a93d-2ae65dc14fbc" class="rules_svg_anchor rules_svg_shape"   href="/lms/chart?onclick=b3BlbkNoYXJ0Q29udGV4dE1lbnUoZXZlbnQsJ3cxMTJkNTIzNTk2NWMxNjg1MnY0MDY4JywxNjEyNiwgMSwgMSwgdGhpcywgd2luZG93LmZyYW1lRWxlbWVudCk=&amp;navigate=true&amp;details=Description">
			<g id="shape14-54" transform="translate(306,-705.094)">
				
				<desc>10.60 Dispose of assets</desc>
				<path d="M0 1188 L99 1188 L99 1125 L0 1125 L0 1188 Z" class="st7" />
				<path d="M0 1188 L99 1188 L99 1125 L0 1125 L0 1188" class="st8" />
				<path d="M9 1188 L9 1125" class="st8" />
				<path d="M90 1188 L90 1125" class="st8" />
				<text x="15.4" y="1152.9" class="st2">10.60 Dispose <tspan x="28.24" dy="1.2em" class="st4">of assets</tspan>
				</text>
			</g>
		</a>
		<g id="shape15-61" transform="translate(612,-403.313)">
			
			<desc>End</desc>
			<path d="M18 1188 L60.75 1188 A18 18 -180 0 0 60.75 1152 L18 1152 A18 18 -180 1 0 18 1188 Z" class="st1" />
			<text x="30.14" y="1173.6" class="st2">End</text>
		</g>
		<a id="1d732d3f-a17b-4272-b432-7a91cdc78d19" class="rules_svg_anchor rules_svg_shape"   href="/lms/chart?onclick=b3BlbkNoYXJ0Q29udGV4dE1lbnUoZXZlbnQsJ3cxMTJkNTIzNTk2NWMxNzQxMnY0MDY4JywxNjU1NywgMSwgMSwgdGhpcywgd2luZG93LmZyYW1lRWxlbWVudCk=&amp;navigate=true&amp;details=Description">
			<g id="shape16-64" transform="translate(612,-574.875)">
				
				<desc>90 Record to report</desc>
				<rect x="0" y="1125" width="78.75" height="63" class="st3" />
				<text x="8.22" y="1152.9" class="st2">90 Record to <tspan x="23.88" dy="1.2em" class="st4">report</tspan>
				</text>
			</g>
		</a>
		<a id="d2d47dff-6e24-4d80-bf79-59489377a4b9" class="rules_svg_anchor rules_svg_shape"   href="/lms/chart?onclick=b3BlbkNoYXJ0Q29udGV4dE1lbnUoZXZlbnQsJ3cxMTJkNTIzNTk2NWMxNzQ5NnY0MDY4JywxNjYxMiwgMSwgMSwgdGhpcywgd2luZG93LmZyYW1lRWxlbWVudCk=&amp;navigate=true&amp;details=Description">
			<g id="shape17-68" transform="translate(612,-656.438)">
				
				<desc>95 Service to deliver</desc>
				<rect x="0" y="1125" width="78.75" height="63" class="st3" />
				<text x="7.96" y="1152.9" class="st2">95 Service to <tspan x="22.7" dy="1.2em" class="st4">deliver</tspan>
				</text>
			</g>
		</a>
		<a id="170a2713-a4b3-41de-8b53-bfbca10bd7dc" class="rules_svg_anchor rules_svg_shape"   href="/lms/chart?onclick=b3BlbkNoYXJ0Q29udGV4dE1lbnUoZXZlbnQsJ3cxMTJkNTIzNTk2NWMxNzMxOXY0MDY4JywxNjUwNywgMSwgMSwgdGhpcywgd2luZG93LmZyYW1lRWxlbWVudCk=&amp;navigate=true&amp;details=Description">
			<g id="shape18-72" transform="translate(612,-738)">
				
				<desc>80 Project to profit</desc>
				<rect x="0" y="1125" width="78.75" height="63" class="st3" />
				<text x="8.08" y="1152.9" class="st2">80 Project to <tspan x="25.75" dy="1.2em" class="st4">profit</tspan>
				</text>
			</g>
		</a>
		<a id="5c822aa8-3175-4486-9c5e-4e04701fc83b" class="rules_svg_anchor rules_svg_shape"   href="/lms/chart?onclick=b3BlbkNoYXJ0Q29udGV4dE1lbnUoZXZlbnQsJ3cxMTJkNTIzNTk2NWMxNzIzMHY0MDY4JywxNjQyMiwgMSwgMSwgdGhpcywgd2luZG93LmZyYW1lRWxlbWVudCk=&amp;navigate=true&amp;details=Description">
			<g id="shape20-76" transform="translate(612,-821.812)">
				
				<desc>70 Plan to produce</desc>
				<rect x="0" y="1125" width="78.75" height="63" class="st3" />
				<text x="14.9" y="1152.9" class="st2">70 Plan to <tspan x="19.14" dy="1.2em" class="st4">produce</tspan>
				</text>
			</g>
		</a>
		<a id="227496c2-8ac2-435d-9698-dd64906e92dd" class="rules_svg_anchor rules_svg_shape"   href="/lms/chart?onclick=b3BlbkNoYXJ0Q29udGV4dE1lbnUoZXZlbnQsJ3cxMTJkNTIzNTk2NWMxNjg1N3Y0MDY4JywxNjE0MCwgMSwgMSwgdGhpcywgd2luZG93LmZyYW1lRWxlbWVudCk=&amp;navigate=true&amp;details=Description">
			<g id="shape21-80" transform="translate(612,-903.375)">
				
				<desc>20 Case to resolution</desc>
				<rect x="0" y="1125" width="78.75" height="63" class="st3" />
				<text x="14" y="1152.9" class="st2">20 Case to <tspan x="14.55" dy="1.2em" class="st4">resolution</tspan>
				</text>
			</g>
		</a>
		<a id="3d35edc6-7325-4a5a-a9cb-e1546eab03bb" class="rules_svg_anchor rules_svg_shape"   href="/lms/chart?onclick=b3BlbkNoYXJ0Q29udGV4dE1lbnUoZXZlbnQsJ3cxMTJkNTIzNTk2NWMxNzA5M3Y0MDY4JywxNjMyNywgMSwgMSwgdGhpcywgd2luZG93LmZyYW1lRWxlbWVudCk=&amp;navigate=true&amp;details=Description">
			<g id="shape22-84" transform="translate(612,-984.937)">
				
				<desc>60 Inventory to deliver</desc>
				<rect x="0" y="1125" width="78.75" height="63" class="st3" />
				<text x="8.44" y="1152.9" class="st2">60 Inventory <tspan x="16.17" dy="1.2em" class="st4">to deliver</tspan>
				</text>
			</g>
		</a>
		<a id="67f18a4a-2cf2-473d-8844-a48fd9798139" class="rules_svg_anchor rules_svg_shape"   href="/lms/chart?onclick=b3BlbkNoYXJ0Q29udGV4dE1lbnUoZXZlbnQsJ3cxMTJkNTIzNTk2NWMxNzAyMHY0MDY4JywxNjI2MywgMSwgMSwgdGhpcywgd2luZG93LmZyYW1lRWxlbWVudCk=&amp;navigate=true&amp;details=Description">
			<g id="shape23-88" transform="translate(612,-1066.5)">
				
				<desc>55 Hire to retire</desc>
				<rect x="0" y="1125" width="78.75" height="63" class="st3" />
				<text x="15.21" y="1152.9" class="st2">55 Hire to <tspan x="25.83" dy="1.2em" class="st4">retire</tspan>
				</text>
			</g>
		</a>
		<a id="7cac3db5-0f19-4fb2-ae0a-5638615cd8df" class="rules_svg_anchor rules_svg_shape"   href="/lms/chart?onclick=b3BlbkNoYXJ0Q29udGV4dE1lbnUoZXZlbnQsJ3cxMTJkNTIzNTk2NWMxNzE1NXY0MDY4JywxNjM3NiwgMSwgMSwgdGhpcywgd2luZG93LmZyYW1lRWxlbWVudCk=&amp;navigate=true&amp;details=Description">
			<g id="shape24-92" transform="translate(612,-493.313)">
				
				<desc>65 Order to cash</desc>
				<rect x="0" y="1125" width="78.75" height="63" class="st3" />
				<text x="11.11" y="1152.9" class="st2">65 Order to <tspan x="28.46" dy="1.2em" class="st4">cash</tspan>
				</text>
			</g>
		</a>
		<g id="shape25-96" transform="translate(45,-1134)">
			
			<path d="M9 1188 L-8.66 1188 L-8.66 1714.5 L-0.81 1714.5" class="st9" />
		</g>
		<g id="shape26-102" transform="translate(45,-1134)">
			
			<path d="M9 1188 L-8.66 1188 L-8.66 1624.5 L-0.81 1624.5" class="st9" />
		</g>
		<g id="shape27-107" transform="translate(45,-1134)">
			
			<path d="M9 1188 L-8.66 1188 L-8.66 1534.5 L-0.81 1534.5" class="st9" />
		</g>
		<g id="shape28-112" transform="translate(45,-1134)">
			
			<path d="M9 1188 L-8.66 1188 L-8.66 1444.5 L-0.81 1444.5" class="st9" />
		</g>
		<g id="shape29-117" transform="translate(45,-1134)">
			
			<path d="M9 1188 L-8.66 1188 L-8.66 1354.5 L-0.81 1354.5" class="st9" />
		</g>
		<g id="shape30-122" transform="translate(45,-1134)">
			
			<path d="M9 1188 L-8.66 1188 L-8.66 1264.5 L-0.81 1264.5" class="st9" />
		</g>
		<g id="shape31-127" transform="translate(132.75,-1125)">
			
			<path d="M0 1179 L163.44 1179" class="st9" />
		</g>
		<g id="shape32-132" transform="translate(346.5,-1102.5)">
			
			<path d="M9 1188 L9 1227.69" class="st9" />
		</g>
		<g id="shape33-137" transform="translate(364.5,-990)">
			
			<path d="M-9 1188 L-9 1215.6" class="st9" />
		</g>
		<g id="shape34-142" transform="translate(346.5,-889.594)">
			
			<path d="M9 1188 L9 1205.19" class="st9" />
		</g>
		<g id="shape36-147" transform="translate(355.5,-889.594)">
			
			<path d="M0 1188 L0 1196.83 L121.5 1196.83 L121.5 1205.19" class="st9" />
		</g>
		<g id="shape38-152" transform="translate(346.5,-799.594)">
			
			<path d="M9 1188 L9 1209.69" class="st9" />
		</g>
		<g id="shape39-157" transform="translate(477,-799.594)">
			
			<path d="M0 1188 L0 1200.09 L-57.75 1200.09 A3 3 -180 0 0 -63.75 1200.09 L-121.5 1200.09 L-121.5 1209.69" class="st9" />
		</g>
		<g id="shape40-162" transform="translate(93.375,-576)">
			
			<path d="M0 1188 L-0 1205.66 L259.12 1205.66 A3 3 0 0 1 265.12 1205.66 L383.62 1205.66 L383.62 974.22" class="st9" />
		</g>
		<g id="shape41-167" transform="translate(132.75,-697.5)">
			
			<path d="M0 1188 L86.62 1188 L86.62 964.41 L163.44 964.41" class="st9" />
		</g>
		<g id="shape42-172" transform="translate(132.75,-787.5)">
			
			<path d="M0 1188 L83.62 1188 A3 3 0 0 1 89.62 1188 L219.75 1188 A3 3 0 0 1 225.75 1188 L283.5 1188 L283.5 1095.25 L344.25        1095.25 L344.25 1103.1" class="st9" />
		</g>
		<g id="shape47-177" transform="translate(405,-831.094)">
			
			<path d="M0 1188 L11.25 1188 L11.25 1412.72 L69 1412.72 A3 3 0 0 1 75 1412.72 L197.19 1412.72" class="st9" />
		</g>
		<g id="shape48-182" transform="translate(405,-736.594)">
			
			<path d="M0 1188 L8.25 1188 A3 3 0 1 1 14.25 1188 L72 1188 L72 1399.78 L197.19 1399.78" class="st9" />
		</g>
		<g id="shape49-187" transform="translate(346.5,-705.094)">
			
			<path d="M9 1188 L9 1206.88" class="st9" />
		</g>
		<g id="shape50-192" transform="translate(526.5,-831.094)">
			
			<path d="M0 1188 L17.66 1188 L17.66 1331.16 L75.69 1331.16" class="st9" />
		</g>
		<g id="shape51-197" transform="translate(526.5,-831.094)">
			
			<path d="M0 1188 L17.66 1188 L17.66 1249.59 L75.69 1249.59" class="st9" />
		</g>
		<g id="shape53-202" transform="translate(526.5,-831.094)">
			
			<path d="M0 1188 L17.66 1188 L17.66 1165.78 L75.69 1165.78" class="st9" />
		</g>
		<g id="shape54-207" transform="translate(526.5,-831.094)">
			
			<path d="M0 1188 L17.66 1188 L17.66 1084.22 L75.69 1084.22" class="st9" />
		</g>
		<g id="shape55-212" transform="translate(405,-921.094)">
			
			<path d="M0 1188 L99 1188 L99 1092.66 L197.19 1092.66" class="st9" />
		</g>
		<g id="shape57-217" transform="translate(681.75,-1098)">
			
			<path d="M9 1188 L26.66 1188 L26.66 1864.69 L18.81 1864.69" class="st9" />
		</g>
		<g id="shape58-222" transform="translate(681.75,-1016.44)">
			
			<path d="M9 1188 L26.66 1188 L26.66 1783.12 L18.81 1783.12" class="st9" />
		</g>
		<g id="shape59-227" transform="translate(681.75,-934.875)">
			
			<path d="M9 1188 L26.66 1188 L26.66 1701.56 L18.81 1701.56" class="st9" />
		</g>
		<g id="shape60-232" transform="translate(681.75,-853.312)">
			
			<path d="M9 1188 L26.66 1188 L26.66 1620 L18.81 1620" class="st9" />
		</g>
		<g id="shape62-237" transform="translate(681.75,-769.5)">
			
			<path d="M9 1188 L26.66 1188 L26.66 1536.19 L18.81 1536.19" class="st9" />
		</g>
		<g id="shape63-242" transform="translate(681.75,-687.938)">
			
			<path d="M9 1188 L26.66 1188 L26.66 1454.62 L18.81 1454.62" class="st9" />
		</g>
		<g id="shape64-247" transform="translate(681.75,-606.375)">
			
			<path d="M9 1188 L26.66 1188 L26.66 1373.06 L18.81 1373.06" class="st9" />
		</g>
		<g id="shape65-252" transform="translate(681.75,-524.813)">
			
			<path d="M9 1188 L26.66 1188 L26.66 1291.5 L18.81 1291.5" class="st9" />
		</g>
		<a id="a11afee6-bef6-4d64-94d1-e47d164eabf2" class="rules_svg_anchor rules_svg_shape"   href="/lms/chart?onclick=b3BlbkNoYXJ0Q29udGV4dE1lbnUoZXZlbnQsJ3cxMTJkNTIzNTk2NWMzMDY1NHY0MDY4JywxNjA5MiwgMSwgMSwgdGhpcywgd2luZG93LmZyYW1lRWxlbWVudCk=&amp;navigate=true&amp;details=Description">
			<g id="shape66-257" transform="translate(306,-990)">
				
				<desc>10.05 Define asset strategy</desc>
				<path d="M0 1188 L99 1188 L99 1125 L0 1125 L0 1188 Z" class="st7" />
				<path d="M0 1188 L99 1188 L99 1125 L0 1125 L0 1188" class="st8" />
				<path d="M9 1188 L9 1125" class="st8" />
				<path d="M90 1188 L90 1125" class="st8" />
				<text x="18.44" y="1152.9" class="st2">10.05 Define <tspan x="15.72" dy="1.2em" class="st4">asset strategy</tspan>
				</text>
			</g>
		</a>
		<a id="72fad568-dca5-4c81-b37b-de02de4e87c8" class="rules_svg_anchor rules_svg_shape"   href="/lms/chart?onclick=b3BlbkNoYXJ0Q29udGV4dE1lbnUoZXZlbnQsJ3cxMTJkNTIzNTk2NWMzMDY1NXY0MDY4JywxNjEzMiwgMSwgMSwgdGhpcywgd2luZG93LmZyYW1lRWxlbWVudCk=&amp;navigate=true&amp;details=Description">
			<g id="shape68-264" transform="translate(306,-613.406)">
				
				<desc>10.70 Analyze assets</desc>
				<path d="M0 1188 L99 1188 L99 1125 L0 1125 L0 1188 Z" class="st7" />
				<path d="M0 1188 L99 1188 L99 1125 L0 1125 L0 1188" class="st8" />
				<path d="M9 1188 L9 1125" class="st8" />
				<path d="M90 1188 L90 1125" class="st8" />
				<text x="15.52" y="1152.9" class="st2">10.70 Analyze <tspan x="34.59" dy="1.2em" class="st4">assets</tspan>
				</text>
			</g>
		</a>
		<g id="shape69-271" transform="translate(355.5,-613.406)">
			
			<path d="M0 1188 L0 1380.09 L246.69 1380.09" class="st9" />
		</g>
	</g>
</svg>
