<?xml version="1.0"?>
<svg xmlns="http://www.w3.org/2000/svg" xmlns:xlink="http://www.w3.org/1999/xlink" xmlns:ev="http://www.w3.org/2001/xml-events"    viewBox="10 18 694 1017"    xml:space="preserve" color-interpolation-filters="sRGB" class="st14" width="1735" height="2543">
<rect x="0" y="0" width="1735" height="2543" fill="#ffffff" />
	<style type="text/css"><![CDATA[
		.st1 {fill:#f2f2f2;stroke:#a5a5a5;stroke-linecap:round;stroke-linejoin:round;stroke-width:0.75}
		.st2 {fill:#ffffff;stroke:#0078d4;stroke-linecap:round;stroke-linejoin:round;stroke-width:0.24}
		.st3 {fill:#000000;font-family:Calibri;font-size:1.00001em}
		.st4 {fill:#a0a0a0;stroke:none;stroke-linecap:round;stroke-linejoin:round;stroke-width:0.24}
		.st5 {font-size:1em}
		.st6 {fill:#0078d4;stroke:none;stroke-linecap:round;stroke-linejoin:round;stroke-width:0.24}
		.st7 {fill:#ffffff;font-family:Calibri;font-size:1.00001em}
		.st8 {fill:#ffffff}
		.st9 {stroke:#0078d4;stroke-linecap:round;stroke-linejoin:round;stroke-width:0.24}
		.st10 {marker-end:url(#mrkr13-144);stroke:#0078d4;stroke-linecap:round;stroke-linejoin:round;stroke-width:0.75}
		.st11 {fill:#0078d4;fill-opacity:1;stroke:#0078d4;stroke-opacity:1;stroke-width:0.22935779816514}
		.st12 {fill:none;stroke:none;stroke-linecap:round;stroke-linejoin:round;stroke-width:0.75}
		.st13 {fill:#0078d4;font-family:Calibri;font-size:1.00001em;font-weight:bold}
		.st14 {fill:none;fill-rule:evenodd;font-size:12px;overflow:visible;stroke-linecap:square;stroke-miterlimit:3}
	]]></style><style> a { pointer-events: none; } </style><style>a.rules_svg_anchor g:hover { opacity:0.8; cursor:pointer; }</style>
	<defs id="Markers">
		<g id="lend13">
			<path d="M 3 1 L 0 0 L 3 -1 L 3 1 " style="stroke:none" />
		</g>
		<marker id="mrkr13-144" class="st11" refX="-13.08" orient="auto" markerUnits="strokeWidth" overflow="visible">
			<use xlink:href="#lend13" transform="scale(-4.36,-4.36) " />
		</marker>
	</defs>
	<g>
		
		<g id="shape70-1" transform="translate(234,-154.125)">
			
			<rect x="0" y="172.125" width="234" height="1015.87" class="st1" />
		</g>
		<g id="shape1-3" transform="translate(54,-1116)">
			
			<desc>Start</desc>
			<path d="M18 1188 L67.5 1188 A18 18 -180 0 0 67.5 1152 L18 1152 A18 18 -180 1 0 18 1188 Z" class="st2" />
			<text x="31.01" y="1173.6" class="st3">Start</text>
		</g>
		<a id="a738ab3c-da53-4b6a-8c0d-1b3607ba73f6" class="rules_svg_anchor rules_svg_shape"   href="/lms/chart?onclick=b3BlbkNoYXJ0Q29udGV4dE1lbnUoZXZlbnQsJ3cxMTVkNTIzNTk2NWMxNzUyOXY0MDcwJywxNzg5MywgMSwgMSwgdGhpcywgd2luZG93LmZyYW1lRWxlbWVudCk=&amp;navigate=true&amp;details=Description">
			<g id="shape2-6" transform="translate(47.25,-1026)">
				
				<desc>99 Administer to operate</desc>
				<rect x="0" y="1125" width="99" height="63" class="st4" />
				<text x="8.77" y="1152.9" class="st3">99 Administer to <tspan x="30.24" dy="1.2em" class="st5">operate</tspan>
				</text>
			</g>
		</a>
		<a id="42261abe-42a9-4219-9a8b-e0963ad1fedb" class="rules_svg_anchor rules_svg_shape"   href="/lms/chart?onclick=b3BlbkNoYXJ0Q29udGV4dE1lbnUoZXZlbnQsJ3cxMTVkNTIzNTk2NWMxNzU2OHY0MDcwJywxNzg5OCwgMSwgMSwgdGhpcywgd2luZG93LmZyYW1lRWxlbWVudCk=&amp;navigate=true&amp;details=Description">
			<g id="shape3-10" transform="translate(47.25,-936)">
				
				<desc>99.25 Manage system access and security</desc>
				<rect x="0" y="1125" width="99" height="63" class="st6" />
				<text x="14.62" y="1145.7" class="st7">99.25 Manage <tspan x="4.78" dy="1.2em" class="st5">system access and </tspan>
					<tspan x="30.28" dy="1.2em" class="st5">security</tspan>
				</text>
			</g>
		</a>
		<a id="e46067bf-6e1c-4d14-967c-88ff742b14b2" class="rules_svg_anchor rules_svg_shape"   href="/lms/chart?onclick=b3BlbkNoYXJ0Q29udGV4dE1lbnUoZXZlbnQsJ3cxMTVkNTIzNTk2NWMxNzYxOXY0MDcwJywxNzkwMywgMSwgMSwgdGhpcywgd2luZG93LmZyYW1lRWxlbWVudCk=&amp;navigate=true&amp;details=Description">
			<g id="shape4-15" transform="translate(47.25,-846)">
				
				<desc>99.50 Uptake software releases</desc>
				<rect x="0" y="1125" width="99" height="63" class="st6" />
				<text x="16.87" y="1152.9" class="st7">99.50 Uptake <tspan x="6.56" dy="1.2em" class="st5">software releases</tspan>
				</text>
			</g>
		</a>
		<a id="af5b1796-5d54-452e-8f76-bb5846cda9c6" class="rules_svg_anchor rules_svg_shape"   href="/lms/chart?onclick=b3BlbkNoYXJ0Q29udGV4dE1lbnUoZXZlbnQsJ3cxMTVkNTIzNTk2NWMxNzY0MHY0MDcwJywxNzkwNiwgMSwgMSwgdGhpcywgd2luZG93LmZyYW1lRWxlbWVudCk=&amp;navigate=true&amp;details=Description">
			<g id="shape5-19" transform="translate(47.25,-756)">
				
				<desc>99.65 Support systems</desc>
				<rect x="0" y="1125" width="99" height="63" class="st6" />
				<text x="14.99" y="1152.9" class="st7">99.65 Support <tspan x="29.96" dy="1.2em" class="st5">systems</tspan>
				</text>
			</g>
		</a>
		<a id="c9ceeacd-b111-4bd6-9c75-3d9690d44abd" class="rules_svg_anchor rules_svg_shape"   href="/lms/chart?onclick=b3BlbkNoYXJ0Q29udGV4dE1lbnUoZXZlbnQsJ3cxMTVkNTIzNTk2NWMxNjk5MnY0MDcwJywxNzQ5OCwgMSwgMSwgdGhpcywgd2luZG93LmZyYW1lRWxlbWVudCk=&amp;navigate=true&amp;details=Description">
			<g id="shape6-23" transform="translate(47.25,-666)">
				
				<desc>50 Forecast to plan</desc>
				<rect x="0" y="1125" width="99" height="63" class="st4" />
				<text x="2.85" y="1160.1" class="st3">50 Forecast to plan</text>
			</g>
		</a>
		<g id="shape7-26" transform="translate(47.25,-576)">
			
			<desc>50.10 Define strategic and operational plans</desc>
			<rect x="0" y="1125" width="99" height="63" class="st6" />
			<text x="18.44" y="1145.7" class="st7">50.10 Define <tspan x="17.91" dy="1.2em" class="st5">strategic and </tspan>
				<tspan x="7.02" dy="1.2em" class="st5">operational plans</tspan>
			</text>
		</g>
		<a id="e016dfd1-f3b1-4917-b531-eab3d8e851e2" class="rules_svg_anchor rules_svg_shape"   href="/lms/chart?onclick=b3BlbkNoYXJ0Q29udGV4dE1lbnUoZXZlbnQsJ3cxMTVkNTIzNTk2NWMxNzAyMHY0MDcwJywxNzUwNCwgMSwgMSwgdGhpcywgd2luZG93LmZyYW1lRWxlbWVudCk=&amp;navigate=true&amp;details=Description">
			<g id="shape8-31" transform="translate(47.25,-486)">
				
				<desc>55 Hire to retire</desc>
				<rect x="0" y="1125" width="99" height="63" class="st4" />
				<text x="10.44" y="1160.1" class="st3">55 Hire to retire</text>
			</g>
		</a>
		<g id="shape9-34" transform="translate(47.25,-396)">
			
			<desc>55.20 Onboard and manage the employee lifecylce</desc>
			<rect x="0" y="1125" width="99" height="63" class="st6" />
			<text x="2.37" y="1145.7" class="st7">55.20 Onboard and <tspan x="20.49" dy="1.2em" class="st5">manage the </tspan>
				<tspan x="4.26" dy="1.2em" class="st5">employee lifecylce</tspan>
			</text>
		</g>
		<a id="632c58e8-9b14-46c9-aa75-9f7d9ad29cfb" class="rules_svg_anchor rules_svg_shape"   href="/lms/chart?onclick=b3BlbkNoYXJ0Q29udGV4dE1lbnUoZXZlbnQsJ3cxMTVkNTIzNTk2NWMxNzA1NHY0MDcwJywxNzUyOCwgMSwgMSwgdGhpcywgd2luZG93LmZyYW1lRWxlbWVudCk=&amp;navigate=true&amp;details=Description">
			<g id="shape10-39" transform="translate(47.25,-306)">
				
				<desc>55.40 Manage performance and growth</desc>
				<rect x="0" y="1125" width="99" height="63" class="st6" />
				<text x="14.62" y="1145.7" class="st7">55.40 Manage <tspan x="7.31" dy="1.2em" class="st5">performance and </tspan>
					<tspan x="31.97" dy="1.2em" class="st5">growth</tspan>
				</text>
			</g>
		</a>
		<a id="dc2bb397-47ed-4eb1-9ef8-5c6597e0165b" class="rules_svg_anchor rules_svg_shape"   href="/lms/chart?onclick=b3BlbkNoYXJ0Q29udGV4dE1lbnUoZXZlbnQsJ3cxMTVkNTIzNTk2NWMxNzU4MXY0MDcwJywxNzg5OSwgMSwgMSwgdGhpcywgd2luZG93LmZyYW1lRWxlbWVudCk=&amp;navigate=true&amp;details=Description">
			<g id="shape11-44" transform="translate(279,-1089)">
				
				<desc>99.30 Train users and increase adoption</desc>
				<rect x="0" y="1125" width="126" height="63" class="st6" />
				<text x="10.73" y="1152.9" class="st7">99.30 Train users and <tspan x="19.25" dy="1.2em" class="st5">increase adoption</tspan>
				</text>
			</g>
		</a>
		<a id="7ef89bf9-d0a0-4ede-a6b0-70764b782ef2" class="rules_svg_anchor rules_svg_shape"   href="/lms/chart?onclick=b25DaGFydFNoYXBlQ2xpY2soZXZlbnQsJ3cxMTVkNTIzNTk2NWMzMDkyMXY0MDcwJywnLTEnKQ==&amp;navigate=true&amp;details=Description">
			<g id="shape12-48" transform="translate(279,-976.5)">
				
				<desc>99.30.001 Develop training strategy</desc>
				<path d="M0 1188 L126 1188 L126 1125 L0 1125 L0 1188 Z" class="st8" />
				<path d="M0 1188 L126 1188 L126 1125 L0 1125 L0 1188" class="st9" />
				<path d="M9 1188 L9 1125" class="st9" />
				<path d="M117 1188 L117 1125" class="st9" />
				<text x="17.26" y="1152.9" class="st3">99.30.001 Develop <tspan x="22.93" dy="1.2em" class="st5">training strategy</tspan>
				</text>
			</g>
		</a>
		<a id="36f3e25f-9bc3-48d0-b05e-1f5dddb6ece5" class="rules_svg_anchor rules_svg_shape"   href="/lms/chart?onclick=b25DaGFydFNoYXBlQ2xpY2soZXZlbnQsJ3cxMTVkNTIzNTk2NWMxNzU4MnY0MDcwJywnLTEnKQ==&amp;navigate=true&amp;details=Description">
			<g id="shape13-55" transform="translate(279,-864)">
				
				<desc>99.30.010 Identify training needs</desc>
				<path d="M0 1188 L126 1188 L126 1125 L0 1125 L0 1188 Z" class="st8" />
				<path d="M0 1188 L126 1188 L126 1125 L0 1125 L0 1188" class="st9" />
				<path d="M9 1188 L9 1125" class="st9" />
				<path d="M117 1188 L117 1125" class="st9" />
				<text x="18.59" y="1152.9" class="st3">99.30.010 Identify <tspan x="28.16" dy="1.2em" class="st5">training needs</tspan>
				</text>
			</g>
		</a>
		<a id="36c620d1-d76d-453a-b951-80cf62d5f921" class="rules_svg_anchor rules_svg_shape"   href="/lms/chart?onclick=b25DaGFydFNoYXBlQ2xpY2soZXZlbnQsJ3cxMTVkNTIzNTk2NWMxNzU4M3Y0MDcwJywnLTEnKQ==&amp;navigate=true&amp;details=Description">
			<g id="shape14-62" transform="translate(279,-756)">
				
				<desc>99.30.020 Develop training materials</desc>
				<path d="M0 1188 L126 1188 L126 1125 L0 1125 L0 1188 Z" class="st8" />
				<path d="M0 1188 L126 1188 L126 1125 L0 1125 L0 1188" class="st9" />
				<path d="M9 1188 L9 1125" class="st9" />
				<path d="M117 1188 L117 1125" class="st9" />
				<text x="17.26" y="1152.9" class="st3">99.30.020 Develop <tspan x="20.06" dy="1.2em" class="st5">training materials</tspan>
				</text>
			</g>
		</a>
		<a id="15ea7316-f6cb-455c-96d6-d77c6d640e3a" class="rules_svg_anchor rules_svg_shape"   href="/lms/chart?onclick=b25DaGFydFNoYXBlQ2xpY2soZXZlbnQsJ3cxMTVkNTIzNTk2NWMxNzU4NHY0MDcwJywnLTEnKQ==&amp;navigate=true&amp;details=Description">
			<g id="shape15-69" transform="translate(279,-648)">
				
				<desc>99.30.030 Plan training delivery</desc>
				<path d="M0 1188 L126 1188 L126 1125 L0 1125 L0 1188 Z" class="st8" />
				<path d="M0 1188 L126 1188 L126 1125 L0 1125 L0 1188" class="st9" />
				<path d="M9 1188 L9 1125" class="st9" />
				<path d="M117 1188 L117 1125" class="st9" />
				<text x="26.82" y="1152.9" class="st3">99.30.030 Plan <tspan x="23.39" dy="1.2em" class="st5">training delivery</tspan>
				</text>
			</g>
		</a>
		<a id="10700624-7003-4eb9-aa2c-2db8fae0597d" class="rules_svg_anchor rules_svg_shape"   href="/lms/chart?onclick=b25DaGFydFNoYXBlQ2xpY2soZXZlbnQsJ3cxMTVkNTIzNTk2NWMxNzU4NXY0MDcwJywnLTEnKQ==&amp;navigate=true&amp;details=Description">
			<g id="shape16-76" transform="translate(279,-540)">
				
				<desc>99.30.040 Conduct training</desc>
				<path d="M0 1188 L126 1188 L126 1125 L0 1125 L0 1188 Z" class="st8" />
				<path d="M0 1188 L126 1188 L126 1125 L0 1125 L0 1188" class="st9" />
				<path d="M9 1188 L9 1125" class="st9" />
				<path d="M117 1188 L117 1125" class="st9" />
				<text x="16.96" y="1152.9" class="st3">99.30.040 Conduct <tspan x="44.14" dy="1.2em" class="st5">training</tspan>
				</text>
			</g>
		</a>
		<a id="0693688b-8bcb-4723-987f-7859aee7838e" class="rules_svg_anchor rules_svg_shape"   href="/lms/chart?onclick=b25DaGFydFNoYXBlQ2xpY2soZXZlbnQsJ3cxMTVkNTIzNTk2NWMxNzU4NnY0MDcwJywnLTEnKQ==&amp;navigate=true&amp;details=Description">
			<g id="shape17-83" transform="translate(279,-432)">
				
				<desc>99.30.050 Provide ongoing support</desc>
				<path d="M0 1188 L126 1188 L126 1125 L0 1125 L0 1188 Z" class="st8" />
				<path d="M0 1188 L126 1188 L126 1125 L0 1125 L0 1188" class="st9" />
				<path d="M9 1188 L9 1125" class="st9" />
				<path d="M117 1188 L117 1125" class="st9" />
				<text x="18.75" y="1152.9" class="st3">99.30.050 Provide <tspan x="22.92" dy="1.2em" class="st5">ongoing support</tspan>
				</text>
			</g>
		</a>
		<a id="2f790b2f-a193-41f4-8675-e61497781e69" class="rules_svg_anchor rules_svg_shape"   href="/lms/chart?onclick=b25DaGFydFNoYXBlQ2xpY2soZXZlbnQsJ3cxMTVkNTIzNTk2NWMxNzU4N3Y0MDcwJywnLTEnKQ==&amp;navigate=true&amp;details=Description">
			<g id="shape18-90" transform="translate(279,-324)">
				
				<desc>99.30.060 Measure adoption and success</desc>
				<path d="M0 1188 L126 1188 L126 1125 L0 1125 L0 1188 Z" class="st8" />
				<path d="M0 1188 L126 1188 L126 1125 L0 1125 L0 1188" class="st9" />
				<path d="M9 1188 L9 1125" class="st9" />
				<path d="M117 1188 L117 1125" class="st9" />
				<text x="15.76" y="1145.7" class="st3">99.30.060 Measure <tspan x="30.42" dy="1.2em" class="st5">adoption and </tspan>
					<tspan x="44.75" dy="1.2em" class="st5">success</tspan>
				</text>
			</g>
		</a>
		<a id="461be91e-442d-4c95-bee7-ee272f34b0ed" class="rules_svg_anchor rules_svg_shape"   href="/lms/chart?onclick=b3BlbkNoYXJ0Q29udGV4dE1lbnUoZXZlbnQsJ3cxMTVkNTIzNTk2NWMxNzUyOXY0MDcwJywxNzg5MywgMSwgMSwgdGhpcywgd2luZG93LmZyYW1lRWxlbWVudCk=&amp;navigate=true&amp;details=Description">
			<g id="shape19-98" transform="translate(567,-954)">
				
				<desc>99 Administer to operate</desc>
				<rect x="0" y="1125" width="99" height="63" class="st4" />
				<text x="8.77" y="1152.9" class="st3">99 Administer to <tspan x="30.24" dy="1.2em" class="st5">operate</tspan>
				</text>
			</g>
		</a>
		<a id="1da45329-2f15-45f0-aacf-5408b4de1c7a" class="rules_svg_anchor rules_svg_shape"   href="/lms/chart?onclick=b3BlbkNoYXJ0Q29udGV4dE1lbnUoZXZlbnQsJ3cxMTVkNTIzNTk2NWMxNzU4OXY0MDcwJywxNzkwMCwgMSwgMSwgdGhpcywgd2luZG93LmZyYW1lRWxlbWVudCk=&amp;navigate=true&amp;details=Description">
			<g id="shape20-102" transform="translate(567,-864)">
				
				<desc>99.35 Monitor systems, environments, and capacity</desc>
				<rect x="0" y="1125" width="99" height="63" class="st6" />
				<text x="14.38" y="1138.5" class="st7">99.35 Monitor <tspan x="28.46" dy="1.2em" class="st5">systems, </tspan>
					<tspan x="3.55" dy="1.2em" class="st5">environments, and </tspan>
					<tspan x="29.42" dy="1.2em" class="st5">capacity</tspan>
				</text>
			</g>
		</a>
		<a id="205f9071-6ea5-48c3-b34f-3db4305bda0f" class="rules_svg_anchor rules_svg_shape"   href="/lms/chart?onclick=b3BlbkNoYXJ0Q29udGV4dE1lbnUoZXZlbnQsJ3cxMTVkNTIzNTk2NWMxNzYzMnY0MDcwJywxNzkwNSwgMSwgMSwgdGhpcywgd2luZG93LmZyYW1lRWxlbWVudCk=&amp;navigate=true&amp;details=Description">
			<g id="shape21-108" transform="translate(567,-774)">
				
				<desc>99.60 Manage system compliance</desc>
				<rect x="0" y="1125" width="99" height="63" class="st6" />
				<text x="14.62" y="1152.9" class="st7">99.60 Manage <tspan x="3" dy="1.2em" class="st5">system compliance</tspan>
				</text>
			</g>
		</a>
		<a id="84921983-9d14-4fd1-9b9b-ba7ac6b473e4" class="rules_svg_anchor rules_svg_shape"   href="/lms/chart?onclick=b3BlbkNoYXJ0Q29udGV4dE1lbnUoZXZlbnQsJ3cxMTVkNTIzNTk2NWMxNzY0MHY0MDcwJywxNzkwNiwgMSwgMSwgdGhpcywgd2luZG93LmZyYW1lRWxlbWVudCk=&amp;navigate=true&amp;details=Description">
			<g id="shape22-112" transform="translate(567,-684)">
				
				<desc>99.65 Support systems</desc>
				<rect x="0" y="1125" width="99" height="63" class="st6" />
				<text x="14.99" y="1152.9" class="st7">99.65 Support <tspan x="29.96" dy="1.2em" class="st5">systems</tspan>
				</text>
			</g>
		</a>
		<a id="47202ce0-812c-44bf-81ce-8033dc6ce384" class="rules_svg_anchor rules_svg_shape"   href="/lms/chart?onclick=b3BlbkNoYXJ0Q29udGV4dE1lbnUoZXZlbnQsJ3cxMTVkNTIzNTk2NWMxNzAyMHY0MDcwJywxNzUwNCwgMSwgMSwgdGhpcywgd2luZG93LmZyYW1lRWxlbWVudCk=&amp;navigate=true&amp;details=Description">
			<g id="shape23-116" transform="translate(567,-594)">
				
				<desc>55 Hire to retire</desc>
				<rect x="0" y="1125" width="99" height="63" class="st4" />
				<text x="10.44" y="1160.1" class="st3">55 Hire to retire</text>
			</g>
		</a>
		<g id="shape24-119" transform="translate(567,-504)">
			
			<desc>55.20 Onboard and manage the employee lifecylce</desc>
			<rect x="0" y="1125" width="99" height="63" class="st6" />
			<text x="2.37" y="1145.7" class="st7">55.20 Onboard and <tspan x="20.49" dy="1.2em" class="st5">manage the </tspan>
				<tspan x="4.26" dy="1.2em" class="st5">employee lifecylce</tspan>
			</text>
		</g>
		<a id="6823fe6d-a6a0-4559-9466-91871b974ded" class="rules_svg_anchor rules_svg_shape"   href="/lms/chart?onclick=b3BlbkNoYXJ0Q29udGV4dE1lbnUoZXZlbnQsJ3cxMTVkNTIzNTk2NWMxNzA1NHY0MDcwJywxNzUyOCwgMSwgMSwgdGhpcywgd2luZG93LmZyYW1lRWxlbWVudCk=&amp;navigate=true&amp;details=Description">
			<g id="shape25-124" transform="translate(567,-414)">
				
				<desc>55.40 Manage performance and growth</desc>
				<rect x="0" y="1125" width="99" height="63" class="st6" />
				<text x="14.62" y="1145.7" class="st7">55.40 Manage <tspan x="7.31" dy="1.2em" class="st5">performance and </tspan>
					<tspan x="31.97" dy="1.2em" class="st5">growth</tspan>
				</text>
			</g>
		</a>
		<a id="3986645e-a635-43ca-a453-9d06e8c9ff99" class="rules_svg_anchor rules_svg_shape"   href="/lms/chart?onclick=b25DaGFydFNoYXBlQ2xpY2soZXZlbnQsJ3cxMTVkNTIzNTk2NWMxNzU4OHY0MDcwJywnLTEnKQ==&amp;navigate=true&amp;details=Description">
			<g id="shape26-129" transform="translate(279,-216)">
				
				<desc>99.30.070 Refine the training program</desc>
				<path d="M0 1188 L126 1188 L126 1125 L0 1125 L0 1188 Z" class="st8" />
				<path d="M0 1188 L126 1188 L126 1125 L0 1125 L0 1188" class="st9" />
				<path d="M9 1188 L9 1125" class="st9" />
				<path d="M117 1188 L117 1125" class="st9" />
				<text x="12.23" y="1152.9" class="st3">99.30.070 Refine the <tspan x="21.79" dy="1.2em" class="st5">training program</tspan>
				</text>
			</g>
		</a>
		<g id="shape27-136" transform="translate(567,-229.5)">
			
			<desc>End</desc>
			<path d="M18 1188 L67.5 1188 A18 18 -180 0 0 67.5 1152 L18 1152 A18 18 -180 1 0 18 1188 Z" class="st2" />
			<text x="33.52" y="1173.6" class="st3">End</text>
		</g>
		<g id="shape28-139" transform="translate(87.75,-1116)">
			
			<path d="M9 1188 L9 1205.19" class="st10" />
		</g>
		<g id="shape29-145" transform="translate(87.75,-1026)">
			
			<path d="M9 1188 L9 1205.19" class="st10" />
		</g>
		<g id="shape30-150" transform="translate(87.75,-936)">
			
			<path d="M9 1188 L9 1205.19" class="st10" />
		</g>
		<g id="shape31-155" transform="translate(87.75,-846)">
			
			<path d="M9 1188 L9 1205.19" class="st10" />
		</g>
		<g id="shape32-160" transform="translate(146.25,-967.5)">
			
			<path d="M0 1188 L36 1188 L36 1035 L122.94 1035" class="st10" />
		</g>
		<g id="shape33-165" transform="translate(146.25,-877.5)">
			
			<path d="M0 1188 L60.75 1188 L60.75 1057.5 L122.94 1057.5" class="st10" />
		</g>
		<g id="shape34-170" transform="translate(146.25,-787.5)">
			
			<path d="M0 1188 L60.75 1188 L60.75 967.5 L122.94 967.5" class="st10" />
		</g>
		<g id="shape35-175" transform="translate(146.25,-607.5)">
			
			<path d="M0 1188 L60.75 1188 L60.75 787.5 L122.94 787.5" class="st10" />
		</g>
		<g id="shape36-180" transform="translate(87.75,-666)">
			
			<path d="M9 1188 L9 1205.19" class="st10" />
		</g>
		<g id="shape37-185" transform="translate(87.75,-486)">
			
			<path d="M9 1188 L9 1205.19" class="st10" />
		</g>
		<g id="shape38-190" transform="translate(59.625,-1134)">
			
			<path d="M-5.62 1188 L-30.03 1188 L-30.03 1624.5 L-22.19 1624.5" class="st10" />
		</g>
		<g id="shape39-195" transform="translate(59.625,-1134)">
			
			<path d="M-5.62 1188 L-30.03 1188 L-30.03 1804.5 L-22.19 1804.5" class="st10" />
		</g>
		<g id="shape40-200" transform="translate(87.75,-396)">
			
			<path d="M9 1188 L9 1205.19" class="st10" />
		</g>
		<g id="shape41-205" transform="translate(146.25,-440.438)">
			
			<path d="M0 1188 L36 1188 L36 1056.94 L122.94 1056.94" class="st10" />
		</g>
		<g id="shape43-210" transform="translate(146.25,-337.5)">
			
			<path d="M0 1188 L36 1188 L36 954 L122.94 954" class="st10" />
		</g>
		<g id="shape44-215" transform="translate(146.25,-337.5)">
			
			<path d="M0 1188 L36 1188 L36 1062 L122.94 1062" class="st10" />
		</g>
		<g id="shape45-220" transform="translate(146.25,-337.5)">
			
			<path d="M0 1188 L36 1188 L36 954 L122.94 954" class="st10" />
		</g>
		<g id="shape46-225" transform="translate(405,-256.5)">
			
			<path d="M0 1197 L152.19 1197" class="st10" />
		</g>
		<g id="shape47-230" transform="translate(405,-355.5)">
			
			<path d="M0 1188 L14.66 1188 A3 3 0 0 1 20.66 1188 L36 1188 L36 1098 L152.19 1098" class="st10" />
		</g>
		<g id="shape48-235" transform="translate(405,-571.5)">
			
			<path d="M0 1188 L14.66 1188 A3 3 0 0 1 20.66 1188 L36 1188 L36 1224 L152.19 1224" class="st10" />
		</g>
		<g id="shape49-240" transform="translate(333,-1089)">
			
			<path d="M9 1188 L9 1227.69" class="st10" />
		</g>
		<g id="shape50-245" transform="translate(333,-976.5)">
			
			<path d="M9 1188 L9 1227.69" class="st10" />
		</g>
		<g id="shape51-250" transform="translate(333,-864)">
			
			<path d="M9 1188 L9 1223.19" class="st10" />
		</g>
		<g id="shape52-255" transform="translate(333,-756)">
			
			<path d="M9 1188 L9 1223.19" class="st10" />
		</g>
		<g id="shape53-260" transform="translate(333,-648)">
			
			<path d="M9 1188 L9 1223.19" class="st10" />
		</g>
		<g id="shape54-265" transform="translate(333,-540)">
			
			<path d="M9 1188 L9 1223.19" class="st10" />
		</g>
		<g id="shape55-270" transform="translate(333,-432)">
			
			<path d="M9 1188 L9 1223.19" class="st10" />
		</g>
		<g id="shape56-275" transform="translate(333,-324)">
			
			<path d="M9 1188 L9 1223.19" class="st10" />
		</g>
		<g id="shape57-280" transform="translate(607.5,-954)">
			
			<path d="M9 1188 L9 1205.19" class="st10" />
		</g>
		<g id="shape58-285" transform="translate(607.5,-864)">
			
			<path d="M9 1188 L9 1205.19" class="st10" />
		</g>
		<g id="shape59-290" transform="translate(607.5,-774)">
			
			<path d="M9 1188 L9 1205.19" class="st10" />
		</g>
		<g id="shape60-295" transform="translate(607.5,-594)">
			
			<path d="M9 1188 L9 1205.19" class="st10" />
		</g>
		<g id="shape61-300" transform="translate(607.5,-504)">
			
			<path d="M9 1188 L9 1205.19" class="st10" />
		</g>
		<g id="shape62-305" transform="translate(668.25,-895.5)">
			
			<path d="M-2.25 1188 L15.41 1188 L15.41 1836 L-5.94 1836" class="st10" />
		</g>
		<g id="shape63-310" transform="translate(668.25,-805.5)">
			
			<path d="M-2.25 1188 L15.41 1188 L15.41 1746 L-5.94 1746" class="st10" />
		</g>
		<g id="shape64-315" transform="translate(668.25,-715.5)">
			
			<path d="M-2.25 1188 L15.41 1188 L15.41 1656 L-5.94 1656" class="st10" />
		</g>
		<g id="shape65-320" transform="translate(668.25,-535.5)">
			
			<path d="M-2.25 1188 L15.41 1188 L15.41 1476 L-5.94 1476" class="st10" />
		</g>
		<g id="shape66-325" transform="translate(668.25,-445.5)">
			
			<path d="M-2.25 1188 L15.41 1188 L15.41 1386 L-5.94 1386" class="st10" />
		</g>
		<g id="shape67-330" transform="translate(405,-247.5)">
			
			<path d="M0 1188 L17.66 1188 L17.66 540 L152.19 540" class="st10" />
		</g>
		<g id="shape68-335" transform="translate(405,-247.5)">
			
			<path d="M0 1188 L17.66 1188 L17.66 630 L152.19 630" class="st10" />
		</g>
		<g id="shape69-340" transform="translate(405,-247.5)">
			
			<path d="M0 1188 L17.66 1188 L17.66 720 L152.19 720" class="st10" />
		</g>
		<g id="shape71-345" transform="translate(234,-154.125)">
			
			<desc>Business Process Area</desc>
			<rect x="0" y="1161" width="180" height="27" class="st12" />
			<text x="4" y="1178.1" class="st13">Business Process Area</text>
		</g>
	</g>
</svg>
