<?xml version="1.0"?>
<svg xmlns="http://www.w3.org/2000/svg" xmlns:xlink="http://www.w3.org/1999/xlink" xmlns:ev="http://www.w3.org/2001/xml-events"    viewBox="47 18 675 701"    xml:space="preserve" color-interpolation-filters="sRGB" class="st14" width="1688" height="1753">
<rect x="0" y="0" width="1688" height="1753" fill="#ffffff" />
	<style type="text/css"><![CDATA[
		.st1 {fill:#f2f2f2;stroke:#a5a5a5;stroke-linecap:round;stroke-linejoin:round;stroke-width:0.75}
		.st2 {fill:#ffffff;stroke:#0078d4;stroke-linecap:round;stroke-linejoin:round;stroke-width:0.24}
		.st3 {fill:#000000;font-family:Calibri;font-size:1.00001em}
		.st4 {fill:#a0a0a0;stroke:none;stroke-linecap:round;stroke-linejoin:round;stroke-width:0.24}
		.st5 {font-size:1em}
		.st6 {fill:#0078d4;stroke:none;stroke-linecap:round;stroke-linejoin:round;stroke-width:0.24}
		.st7 {fill:#ffffff;font-family:Calibri;font-size:1.00001em}
		.st8 {fill:#ffffff}
		.st9 {stroke:#0078d4;stroke-linecap:round;stroke-linejoin:round;stroke-width:0.24}
		.st10 {marker-end:url(#mrkr13-103);stroke:#0078d4;stroke-linecap:round;stroke-linejoin:round;stroke-width:0.75}
		.st11 {fill:#0078d4;fill-opacity:1;stroke:#0078d4;stroke-opacity:1;stroke-width:0.22935779816514}
		.st12 {fill:none;stroke:none;stroke-linecap:round;stroke-linejoin:round;stroke-width:0.75}
		.st13 {fill:#0078d4;font-family:Calibri;font-size:1.00001em;font-weight:bold}
		.st14 {fill:none;fill-rule:evenodd;font-size:12px;overflow:visible;stroke-linecap:square;stroke-miterlimit:3}
	]]></style><style> a { pointer-events: none; } </style><style>a.rules_svg_anchor g:hover { opacity:0.8; cursor:pointer; }</style>
	<defs id="Markers">
		<g id="lend13">
			<path d="M 3 1 L 0 0 L 3 -1 L 3 1 " style="stroke:none" />
		</g>
		<marker id="mrkr13-103" class="st11" refX="-13.08" orient="auto" markerUnits="strokeWidth" overflow="visible">
			<use xlink:href="#lend13" transform="scale(-4.36,-4.36) " />
		</marker>
	</defs>
	<g>
		
		<g id="shape42-1" transform="translate(234,-469.125)">
			
			<rect x="0" y="496.125" width="288" height="691.875" class="st1" />
		</g>
		<g id="shape1-3" transform="translate(54,-1134)">
			
			<desc>Start</desc>
			<path d="M18 1188 L67.5 1188 A18 18 -180 0 0 67.5 1152 L18 1152 A18 18 -180 1 0 18 1188 Z" class="st2" />
			<text x="31.01" y="1173.6" class="st3">Start</text>
		</g>
		<a id="dcf6d279-56ba-4a94-8c2c-04b7ccfe30e5" class="rules_svg_anchor rules_svg_shape"   href="/lms/chart?onclick=b3BlbkNoYXJ0Q29udGV4dE1lbnUoZXZlbnQsJ3cxMTVkNTIzNTk2NWMxNzUyOXY0MDcwJywxNzg5MywgMSwgMSwgdGhpcywgd2luZG93LmZyYW1lRWxlbWVudCk=&amp;navigate=true&amp;details=Description">
			<g id="shape2-6" transform="translate(47.25,-1044)">
				
				<desc>99 Administer to operate</desc>
				<rect x="0" y="1125" width="99" height="63" class="st4" />
				<text x="8.77" y="1152.9" class="st3">99 Administer to <tspan x="30.24" dy="1.2em" class="st5">operate</tspan>
				</text>
			</g>
		</a>
		<a id="fac4813b-de15-4e03-8d34-8563afef699a" class="rules_svg_anchor rules_svg_shape"   href="/lms/chart?onclick=b3BlbkNoYXJ0Q29udGV4dE1lbnUoZXZlbnQsJ3cxMTVkNTIzNTk2NWMxNzYxOXY0MDcwJywxNzkwMywgMSwgMSwgdGhpcywgd2luZG93LmZyYW1lRWxlbWVudCk=&amp;navigate=true&amp;details=Description">
			<g id="shape3-10" transform="translate(47.25,-954)">
				
				<desc>99.50 Uptake software releases</desc>
				<rect x="0" y="1125" width="99" height="63" class="st6" />
				<text x="16.87" y="1152.9" class="st7">99.50 Uptake <tspan x="6.56" dy="1.2em" class="st5">software releases</tspan>
				</text>
			</g>
		</a>
		<a id="d9a24759-7b47-4087-a4c8-9957de3ab9f4" class="rules_svg_anchor rules_svg_shape"   href="/lms/chart?onclick=b3BlbkNoYXJ0Q29udGV4dE1lbnUoZXZlbnQsJ3cxMTVkNTIzNTk2NWMxNzUzMHY0MDcwJywxNzg5NSwgMSwgMSwgdGhpcywgd2luZG93LmZyYW1lRWxlbWVudCk=&amp;navigate=true&amp;details=Description">
			<g id="shape4-14" transform="translate(47.25,-864)">
				
				<desc>99.10 Define business continuity plan</desc>
				<rect x="0" y="1125" width="99" height="63" class="st6" />
				<text x="18.44" y="1145.7" class="st7">99.10 Define <tspan x="2.64" dy="1.2em" class="st5">business continuity </tspan>
					<tspan x="38.94" dy="1.2em" class="st5">plan</tspan>
				</text>
			</g>
		</a>
		<a id="4bfc4c4b-9240-4219-bf1e-708e03813a35" class="rules_svg_anchor rules_svg_shape"   href="/lms/chart?onclick=b3BlbkNoYXJ0Q29udGV4dE1lbnUoZXZlbnQsJ3cxMTVkNTIzNTk2NWMxNzU4OXY0MDcwJywxNzkwMCwgMSwgMSwgdGhpcywgd2luZG93LmZyYW1lRWxlbWVudCk=&amp;navigate=true&amp;details=Description">
			<g id="shape5-19" transform="translate(47.25,-774)">
				
				<desc>99.35 Monitor systems, environments, and capacity</desc>
				<rect x="0" y="1125" width="99" height="63" class="st6" />
				<text x="14.38" y="1138.5" class="st7">99.35 Monitor <tspan x="28.46" dy="1.2em" class="st5">systems, </tspan>
					<tspan x="3.55" dy="1.2em" class="st5">environments, and </tspan>
					<tspan x="29.42" dy="1.2em" class="st5">capacity</tspan>
				</text>
			</g>
		</a>
		<a id="693089f6-7647-493c-b046-dc4c89c92a1e" class="rules_svg_anchor rules_svg_shape"   href="/lms/chart?onclick=b3BlbkNoYXJ0Q29udGV4dE1lbnUoZXZlbnQsJ3cxMTVkNTIzNTk2NWMxNjk5MnY0MDcwJywxNzQ5OCwgMSwgMSwgdGhpcywgd2luZG93LmZyYW1lRWxlbWVudCk=&amp;navigate=true&amp;details=Description">
			<g id="shape6-25" transform="translate(47.25,-684)">
				
				<desc>50 Forecast to plan</desc>
				<rect x="0" y="1125" width="99" height="63" class="st4" />
				<text x="2.85" y="1160.1" class="st3">50 Forecast to plan</text>
			</g>
		</a>
		<g id="shape7-28" transform="translate(47.25,-594)">
			
			<desc>50.10 Define strategic and operational plans</desc>
			<rect x="0" y="1125" width="99" height="63" class="st6" />
			<text x="18.44" y="1145.7" class="st7">50.10 Define <tspan x="17.91" dy="1.2em" class="st5">strategic and </tspan>
				<tspan x="7.02" dy="1.2em" class="st5">operational plans</tspan>
			</text>
		</g>
		<a id="4c40d035-b9e7-460a-99bf-279a7dde782a" class="rules_svg_anchor rules_svg_shape"   href="/lms/chart?onclick=b3BlbkNoYXJ0Q29udGV4dE1lbnUoZXZlbnQsJ3cxMTVkNTIzNTk2NWMxNzY0MHY0MDcwJywxNzkwNiwgMSwgMSwgdGhpcywgd2luZG93LmZyYW1lRWxlbWVudCk=&amp;navigate=true&amp;details=Description">
			<g id="shape8-33" transform="translate(279,-1044)">
				
				<desc>99.65 Support systems</desc>
				<rect x="0" y="1125" width="126" height="63" class="st6" />
				<text x="7.58" y="1160.1" class="st7">99.65 Support systems</text>
			</g>
		</a>
		<a id="68aab05d-57c2-42f2-953c-1f95b8b25a38" class="rules_svg_anchor rules_svg_shape"   href="/lms/chart?onclick=b25DaGFydFNoYXBlQ2xpY2soZXZlbnQsJ3cxMTVkNTIzNTk2NWMxNzY0MXY0MDcwJywnLTEnKQ==&amp;navigate=true&amp;details=Description">
			<g id="shape9-36" transform="translate(279,-954)">
				
				<desc>99.65.010 Establish support procedures and policies</desc>
				<path d="M0 1188 L126 1188 L126 1125 L0 1125 L0 1188 Z" class="st8" />
				<path d="M0 1188 L126 1188 L126 1125 L0 1125 L0 1188" class="st9" />
				<path d="M9 1188 L9 1125" class="st9" />
				<path d="M117 1188 L117 1125" class="st9" />
				<text x="15.76" y="1145.7" class="st3">99.65.010 Establish <tspan x="14.91" dy="1.2em" class="st5">support procedures </tspan>
					<tspan x="34.15" dy="1.2em" class="st5">and policies</tspan>
				</text>
			</g>
		</a>
		<a id="69f99b37-9657-4072-b182-c2f967b5c4b5" class="rules_svg_anchor rules_svg_shape"   href="/lms/chart?onclick=b25DaGFydFNoYXBlQ2xpY2soZXZlbnQsJ3cxMTVkNTIzNTk2NWMxNzY0MnY0MDcwJywnLTEnKQ==&amp;navigate=true&amp;details=Description">
			<g id="shape10-44" transform="translate(279,-864)">
				
				<desc>99.65.020 Establish support subscription</desc>
				<path d="M0 1188 L126 1188 L126 1125 L0 1125 L0 1188 Z" class="st8" />
				<path d="M0 1188 L126 1188 L126 1125 L0 1125 L0 1188" class="st9" />
				<path d="M9 1188 L9 1125" class="st9" />
				<path d="M117 1188 L117 1125" class="st9" />
				<text x="15.76" y="1152.9" class="st3">99.65.020 Establish <tspan x="12.71" dy="1.2em" class="st5">support subscription</tspan>
				</text>
			</g>
		</a>
		<a id="d0cd22f4-079d-4846-8ee5-35f3e91504df" class="rules_svg_anchor rules_svg_shape"   href="/lms/chart?onclick=b25DaGFydFNoYXBlQ2xpY2soZXZlbnQsJ3cxMTVkNTIzNTk2NWMzMDkyNHY0MDcwJywnLTEnKQ==&amp;navigate=true&amp;details=Description">
			<g id="shape11-51" transform="translate(279,-774)">
				
				<desc>99.65.025 Develop support transition strategy</desc>
				<path d="M0 1188 L126 1188 L126 1125 L0 1125 L0 1188 Z" class="st8" />
				<path d="M0 1188 L126 1188 L126 1125 L0 1125 L0 1188" class="st9" />
				<path d="M9 1188 L9 1125" class="st9" />
				<path d="M117 1188 L117 1125" class="st9" />
				<text x="17.26" y="1145.7" class="st3">99.65.025 Develop <tspan x="19.02" dy="1.2em" class="st5">support transition </tspan>
					<tspan x="43.14" dy="1.2em" class="st5">strategy</tspan>
				</text>
			</g>
		</a>
		<a id="a6d286f8-8553-403a-81ba-1e54dddd750a" class="rules_svg_anchor rules_svg_shape"   href="/lms/chart?onclick=b25DaGFydFNoYXBlQ2xpY2soZXZlbnQsJ3cxMTVkNTIzNTk2NWMxNzY0M3Y0MDcwJywnLTEnKQ==&amp;navigate=true&amp;details=Description">
			<g id="shape12-59" transform="translate(279,-684)">
				
				<desc>99.65.030 Manage support incidents</desc>
				<path d="M0 1188 L126 1188 L126 1125 L0 1125 L0 1188 Z" class="st8" />
				<path d="M0 1188 L126 1188 L126 1125 L0 1125 L0 1188" class="st9" />
				<path d="M9 1188 L9 1125" class="st9" />
				<path d="M117 1188 L117 1125" class="st9" />
				<text x="17.49" y="1152.9" class="st3">99.65.030 Manage <tspan x="20.48" dy="1.2em" class="st5">support incidents</tspan>
				</text>
			</g>
		</a>
		<a id="9d803f0b-57ab-4b0c-8496-270762179349" class="rules_svg_anchor rules_svg_shape"   href="/lms/chart?onclick=b25DaGFydFNoYXBlQ2xpY2soZXZlbnQsJ3cxMTVkNTIzNTk2NWMxNzY0NHY0MDcwJywnLTEnKQ==&amp;navigate=true&amp;details=Description">
			<g id="shape13-66" transform="translate(279,-594)">
				
				<desc>99.65.040 Troubleshoot reported incidents</desc>
				<path d="M0 1188 L126 1188 L126 1125 L0 1125 L0 1188 Z" class="st8" />
				<path d="M0 1188 L126 1188 L126 1125 L0 1125 L0 1188" class="st9" />
				<path d="M9 1188 L9 1125" class="st9" />
				<path d="M117 1188 L117 1125" class="st9" />
				<text x="38.68" y="1145.7" class="st3">99.65.040 <tspan x="30.32" dy="1.2em" class="st5">Troubleshoot </tspan>
					<tspan x="17.92" dy="1.2em" class="st5">reported incidents</tspan>
				</text>
			</g>
		</a>
		<a id="d3bb728e-d5f2-4bfe-9dc0-4ce5d88b04ae" class="rules_svg_anchor rules_svg_shape"   href="/lms/chart?onclick=b25DaGFydFNoYXBlQ2xpY2soZXZlbnQsJ3cxMTVkNTIzNTk2NWMxNzY0NXY0MDcwJywnLTEnKQ==&amp;navigate=true&amp;details=Description">
			<g id="shape14-74" transform="translate(279,-504)">
				
				<desc>99.65.050 Conduct root cause analysis</desc>
				<path d="M0 1188 L126 1188 L126 1125 L0 1125 L0 1188 Z" class="st8" />
				<path d="M0 1188 L126 1188 L126 1125 L0 1125 L0 1188" class="st9" />
				<path d="M9 1188 L9 1125" class="st9" />
				<path d="M117 1188 L117 1125" class="st9" />
				<text x="16.96" y="1152.9" class="st3">99.65.050 Conduct <tspan x="16.9" dy="1.2em" class="st5">root cause analysis</tspan>
				</text>
			</g>
		</a>
		<a id="b433c968-546e-4251-b40f-ac03f6c8044d" class="rules_svg_anchor rules_svg_shape"   href="/lms/chart?onclick=b3BlbkNoYXJ0Q29udGV4dE1lbnUoZXZlbnQsJ3cxMTVkNTIzNTk2NWMxNzUyOXY0MDcwJywxNzg5MywgMSwgMSwgdGhpcywgd2luZG93LmZyYW1lRWxlbWVudCk=&amp;navigate=true&amp;details=Description">
			<g id="shape15-81" transform="translate(585,-954)">
				
				<desc>99 Administer to operate</desc>
				<rect x="0" y="1125" width="99" height="63" class="st4" />
				<text x="8.77" y="1152.9" class="st3">99 Administer to <tspan x="30.24" dy="1.2em" class="st5">operate</tspan>
				</text>
			</g>
		</a>
		<a id="08108f71-1018-4ff8-a1a6-78bf82492ae6" class="rules_svg_anchor rules_svg_shape"   href="/lms/chart?onclick=b3BlbkNoYXJ0Q29udGV4dE1lbnUoZXZlbnQsJ3cxMTVkNTIzNTk2NWMxNzU4MXY0MDcwJywxNzg5OSwgMSwgMSwgdGhpcywgd2luZG93LmZyYW1lRWxlbWVudCk=&amp;navigate=true&amp;details=Description">
			<g id="shape16-85" transform="translate(585,-864)">
				
				<desc>99.30 Train users and increase adoption</desc>
				<rect x="0" y="1125" width="99" height="63" class="st6" />
				<text x="7.77" y="1145.7" class="st7">99.30 Train users <tspan x="18.61" dy="1.2em" class="st5">and increase </tspan>
					<tspan x="27.45" dy="1.2em" class="st5">adoption</tspan>
				</text>
			</g>
		</a>
		<a id="a4272fc1-4477-4173-a751-2c22dd0b7944" class="rules_svg_anchor rules_svg_shape"   href="/lms/chart?onclick=b3BlbkNoYXJ0Q29udGV4dE1lbnUoZXZlbnQsJ3cxMTVkNTIzNTk2NWMxNzUzMHY0MDcwJywxNzg5NSwgMSwgMSwgdGhpcywgd2luZG93LmZyYW1lRWxlbWVudCk=&amp;navigate=true&amp;details=Description">
			<g id="shape17-90" transform="translate(585,-774)">
				
				<desc>99.10 Define business continuity plan</desc>
				<rect x="0" y="1125" width="99" height="63" class="st6" />
				<text x="18.44" y="1145.7" class="st7">99.10 Define <tspan x="2.64" dy="1.2em" class="st5">business continuity </tspan>
					<tspan x="38.94" dy="1.2em" class="st5">plan</tspan>
				</text>
			</g>
		</a>
		<g id="shape18-95" transform="translate(591.75,-517.5)">
			
			<desc>End</desc>
			<path d="M18 1188 L67.5 1188 A18 18 -180 0 0 67.5 1152 L18 1152 A18 18 -180 1 0 18 1188 Z" class="st2" />
			<text x="33.52" y="1173.6" class="st3">End</text>
		</g>
		<g id="shape19-98" transform="translate(87.75,-1134)">
			
			<path d="M9 1188 L9 1205.19" class="st10" />
		</g>
		<g id="shape20-104" transform="translate(87.75,-1044)">
			
			<path d="M9 1188 L9 1205.19" class="st10" />
		</g>
		<g id="shape21-109" transform="translate(87.75,-954)">
			
			<path d="M9 1188 L9 1205.19" class="st10" />
		</g>
		<g id="shape22-114" transform="translate(87.75,-864)">
			
			<path d="M9 1188 L9 1205.19" class="st10" />
		</g>
		<g id="shape23-119" transform="translate(87.75,-684)">
			
			<path d="M9 1188 L9 1205.19" class="st10" />
		</g>
		<g id="shape24-124" transform="translate(333,-1044)">
			
			<path d="M9 1188 L9 1205.19" class="st10" />
		</g>
		<g id="shape25-129" transform="translate(333,-954)">
			
			<path d="M9 1188 L9 1205.19" class="st10" />
		</g>
		<g id="shape26-134" transform="translate(333,-864)">
			
			<path d="M9 1188 L9 1205.19" class="st10" />
		</g>
		<g id="shape27-139" transform="translate(333,-774)">
			
			<path d="M9 1188 L9 1205.19" class="st10" />
		</g>
		<g id="shape28-144" transform="translate(333,-684)">
			
			<path d="M9 1188 L9 1205.19" class="st10" />
		</g>
		<g id="shape29-149" transform="translate(333,-594)">
			
			<path d="M9 1188 L9 1205.19" class="st10" />
		</g>
		<g id="shape30-154" transform="translate(643.5,-774)">
			
			<path d="M-9 1188 L-9 1398.69" class="st10" />
		</g>
		<g id="shape31-159" transform="translate(625.5,-864)">
			
			<path d="M9 1188 L9 1205.19" class="st10" />
		</g>
		<g id="shape32-164" transform="translate(625.5,-954)">
			
			<path d="M9 1188 L9 1205.19" class="st10" />
		</g>
		<g id="shape33-169" transform="translate(405,-535.5)">
			
			<path d="M0 1188 L90 1188 L90 828 L170.19 828" class="st10" />
		</g>
		<g id="shape34-174" transform="translate(405,-985.5)">
			
			<path d="M0 1188 L17.66 1188 L17.66 1368 L87 1368 A3 3 0 0 1 93 1368 L170.19 1368" class="st10" />
		</g>
		<g id="shape35-179" transform="translate(146.25,-625.5)">
			
			<path d="M0 1188 L17.66 1188 L17.66 828 L122.94 828" class="st10" />
		</g>
		<g id="shape36-184" transform="translate(146.25,-805.5)">
			
			<path d="M0 1188 L17.66 1188 L17.66 1008 L122.94 1008" class="st10" />
		</g>
		<g id="shape37-189" transform="translate(146.25,-895.5)">
			
			<path d="M0 1188 L17.66 1188 L17.66 1098 L122.94 1098" class="st10" />
		</g>
		<g id="shape38-194" transform="translate(146.25,-976.5)">
			
			<path d="M0 1179 L122.94 1179" class="st10" />
		</g>
		<g id="shape39-199" transform="translate(689.625,-985.5)">
			
			<path d="M-5.62 1188 L12.03 1188 L12.03 1638 L-2.57 1638" class="st10" />
		</g>
		<g id="shape40-204" transform="translate(689.625,-895.5)">
			
			<path d="M-5.62 1188 L12.03 1188 L12.03 1548 L-2.57 1548" class="st10" />
		</g>
		<g id="shape41-209" transform="translate(689.625,-805.5)">
			
			<path d="M-5.62 1188 L12.03 1188 L12.03 1458 L-2.57 1458" class="st10" />
		</g>
		<g id="shape43-214" transform="translate(234,-1134)">
			
			<desc>Business Process area</desc>
			<rect x="0" y="1161" width="198" height="27" class="st12" />
			<text x="4" y="1178.1" class="st13">Business Process area</text>
		</g>
	</g>
</svg>
