<?xml version="1.0"?>
<svg xmlns="http://www.w3.org/2000/svg" xmlns:xlink="http://www.w3.org/1999/xlink" xmlns:ev="http://www.w3.org/2001/xml-events"    viewBox="40 31 527 707"    xml:space="preserve" color-interpolation-filters="sRGB" class="st10" width="1318" height="1768">
<rect x="0" y="0" width="1318" height="1768" fill="#ffffff" />
	<style type="text/css"><![CDATA[
		.st1 {fill:#ffffff;stroke:#0078d4;stroke-linecap:round;stroke-linejoin:round;stroke-width:0.24}
		.st2 {fill:#000000;font-family:Calibri;font-size:1.00001em}
		.st3 {fill:#0078d4;stroke:none;stroke-linecap:round;stroke-linejoin:round;stroke-width:0.24}
		.st4 {fill:#ffffff;font-family:Calibri;font-size:1.00001em}
		.st5 {font-size:1em}
		.st6 {fill:#ffffff}
		.st7 {stroke:#0078d4;stroke-linecap:round;stroke-linejoin:round;stroke-width:0.24}
		.st8 {marker-end:url(#mrkr13-162);stroke:#0078d4;stroke-linecap:round;stroke-linejoin:round;stroke-width:0.75}
		.st9 {fill:#0078d4;fill-opacity:1;stroke:#0078d4;stroke-opacity:1;stroke-width:0.22935779816514}
		.st10 {fill:none;fill-rule:evenodd;font-size:12px;overflow:visible;stroke-linecap:square;stroke-miterlimit:3}
	]]></style><style> a { pointer-events: none; } </style><style>a.rules_svg_anchor g:hover { opacity:0.8; cursor:pointer; }</style>
	<defs id="Markers">
		<g id="lend13">
			<path d="M 3 1 L 0 0 L 3 -1 L 3 1 " style="stroke:none" />
		</g>
		<marker id="mrkr13-162" class="st9" refX="-13.08" orient="auto" markerUnits="strokeWidth" overflow="visible">
			<use xlink:href="#lend13" transform="scale(-4.36,-4.36) " />
		</marker>
	</defs>
	<g>
		
		<g id="shape1-1" transform="translate(40.5,-711)">
			
			<desc>Start</desc>
			<path d="M18 792 L67.5 792 A18 18 -180 0 0 67.5 756 L18 756 A18 18 -180 1 0 18 792 Z" class="st1" />
			<text x="31.01" y="777.6" class="st2">Start</text>
		</g>
		<a id="63d72f21-53ef-495e-b753-0070301fa7fb" class="rules_svg_anchor rules_svg_shape"   href="/lms/chart?onclick=b3BlbkNoYXJ0Q29udGV4dE1lbnUoZXZlbnQsJ3cxMTVkNTIzNTk2NWMxNzU1NHY0MDcwJywxNzg5NywgMSwgMSwgdGhpcywgd2luZG93LmZyYW1lRWxlbWVudCk=&amp;navigate=true&amp;details=Description">
			<g id="shape2-4" transform="translate(180,-697.5)">
				
				<desc>99.20 Administer system features</desc>
				<rect x="0" y="729" width="126" height="63" class="st3" />
				<text x="2.65" y="756.9" class="st4">99.20 Administer system <tspan x="42.72" dy="1.2em" class="st5">features</tspan>
				</text>
			</g>
		</a>
		<a id="32250615-ad2f-42cf-9c54-c28a5e18d8d9" class="rules_svg_anchor rules_svg_shape"   href="/lms/chart?onclick=b25DaGFydFNoYXBlQ2xpY2soZXZlbnQsJ3cxMTVkNTIzNTk2NWMxNzU1NXY0MDcwJywnLTEnKQ==&amp;navigate=true&amp;details=Description">
			<g id="shape3-8" transform="translate(72,-585)">
				
				<desc>99.20.010 Configure and administer workflows</desc>
				<path d="M0 792 L126 792 L126 729 L0 729 L0 792 Z" class="st6" />
				<path d="M0 792 L126 792 L126 729 L0 729 L0 792" class="st7" />
				<path d="M9 792 L9 729" class="st7" />
				<path d="M117 792 L117 729" class="st7" />
				<text x="13.55" y="749.7" class="st2">99.20.010 Configure <tspan x="26.31" dy="1.2em" class="st5">and administer </tspan>
					<tspan x="37.72" dy="1.2em" class="st5">workflows</tspan>
				</text>
			</g>
		</a>
		<a id="670e8f7d-0a60-4cab-b8ef-4d1d61642d6f" class="rules_svg_anchor rules_svg_shape"   href="/lms/chart?onclick=b25DaGFydFNoYXBlQ2xpY2soZXZlbnQsJ3cxMTVkNTIzNTk2NWMxNzU1NnY0MDcwJywnLTEnKQ==&amp;navigate=true&amp;details=Description">
			<g id="shape4-16" transform="translate(72,-495)">
				
				<desc>99.20.020 Configure, monitor, and send emails</desc>
				<path d="M0 792 L126 792 L126 729 L0 729 L0 792 Z" class="st6" />
				<path d="M0 792 L126 792 L126 729 L0 729 L0 792" class="st7" />
				<path d="M9 792 L9 729" class="st7" />
				<path d="M117 792 L117 729" class="st7" />
				<text x="12.05" y="749.7" class="st2">99.20.020 Configure, <tspan x="18.22" dy="1.2em" class="st5">monitor, and send </tspan>
					<tspan x="47.25" dy="1.2em" class="st5">emails</tspan>
				</text>
			</g>
		</a>
		<a id="081b3e2b-d4ff-427c-9ca6-9487b8f21c08" class="rules_svg_anchor rules_svg_shape"   href="/lms/chart?onclick=b25DaGFydFNoYXBlQ2xpY2soZXZlbnQsJ3cxMTVkNTIzNTk2NWMxNzU1N3Y0MDcwJywnLTEnKQ==&amp;navigate=true&amp;details=Description">
			<g id="shape5-24" transform="translate(72,-405)">
				
				<desc>99.20.030 Manage file storage</desc>
				<path d="M0 792 L126 792 L126 729 L0 729 L0 792 Z" class="st6" />
				<path d="M0 792 L126 792 L126 729 L0 729 L0 792" class="st7" />
				<path d="M9 792 L9 729" class="st7" />
				<path d="M117 792 L117 729" class="st7" />
				<text x="17.49" y="756.9" class="st2">99.20.030 Manage <tspan x="35.78" dy="1.2em" class="st5">file storage</tspan>
				</text>
			</g>
		</a>
		<a id="5a788f84-8e64-444f-913a-a13ba0b77d27" class="rules_svg_anchor rules_svg_shape"   href="/lms/chart?onclick=b25DaGFydFNoYXBlQ2xpY2soZXZlbnQsJ3cxMTVkNTIzNTk2NWMxNzU1OHY0MDcwJywnLTEnKQ==&amp;navigate=true&amp;details=Description">
			<g id="shape6-31" transform="translate(72,-315)">
				
				<desc>99.20.040 Configure and monitor system generated numbers</desc>
				<path d="M0 792 L126 792 L126 729 L0 729 L0 792 Z" class="st6" />
				<path d="M0 792 L126 792 L126 729 L0 729 L0 792" class="st7" />
				<path d="M9 792 L9 729" class="st7" />
				<path d="M117 792 L117 729" class="st7" />
				<text x="13.55" y="749.7" class="st2">99.20.040 Configure <tspan x="14.16" dy="1.2em" class="st5">and monitor system </tspan>
					<tspan x="14.91" dy="1.2em" class="st5">generated numbers</tspan>
				</text>
			</g>
		</a>
		<a id="884992a8-627c-400f-8ee4-c6f67fa9d755" class="rules_svg_anchor rules_svg_shape"   href="/lms/chart?onclick=b25DaGFydFNoYXBlQ2xpY2soZXZlbnQsJ3cxMTVkNTIzNTk2NWMxNzU1OXY0MDcwJywnLTEnKQ==&amp;navigate=true&amp;details=Description">
			<g id="shape7-39" transform="translate(72,-225)">
				
				<desc>99.20.050 Configure and maintain cloud-based printing</desc>
				<path d="M0 792 L126 792 L126 729 L0 729 L0 792 Z" class="st6" />
				<path d="M0 792 L126 792 L126 729 L0 729 L0 792" class="st7" />
				<path d="M9 792 L9 729" class="st7" />
				<path d="M117 792 L117 729" class="st7" />
				<text x="13.55" y="749.7" class="st2">99.20.050 Configure <tspan x="14.28" dy="1.2em" class="st5">and maintain cloud</tspan>-<tspan x="28" dy="1.2em" class="st5">based printing</tspan>
				</text>
			</g>
		</a>
		<a id="5d8737cd-8056-47e5-9819-fea9b8eadf36" class="rules_svg_anchor rules_svg_shape"   href="/lms/chart?onclick=b25DaGFydFNoYXBlQ2xpY2soZXZlbnQsJ3cxMTVkNTIzNTk2NWMxNzU2MHY0MDcwJywnLTEnKQ==&amp;navigate=true&amp;details=Description">
			<g id="shape8-47" transform="translate(72,-135)">
				
				<desc>99.20.060 Configure and maintain electronically generated doc...</desc>
				<path d="M0 792 L126 792 L126 729 L0 729 L0 792 Z" class="st6" />
				<path d="M0 792 L126 792 L126 729 L0 729 L0 792" class="st7" />
				<path d="M9 792 L9 729" class="st7" />
				<path d="M117 792 L117 729" class="st7" />
				<text x="13.55" y="735.3" class="st2">99.20.060 Configure <tspan x="30.86" dy="1.2em" class="st5">and maintain </tspan>
					<tspan x="30.44" dy="1.2em" class="st5">electronically </tspan>
					<tspan x="37.94" dy="1.2em" class="st5">generated </tspan>
					<tspan x="35.71" dy="1.2em" class="st5">documents</tspan>
				</text>
			</g>
		</a>
		<a id="192e0202-36b6-44ae-9f5f-f9bac323eb76" class="rules_svg_anchor rules_svg_shape"   href="/lms/chart?onclick=b25DaGFydFNoYXBlQ2xpY2soZXZlbnQsJ3cxMTVkNTIzNTk2NWMxNzU2MXY0MDcwJywnLTEnKQ==&amp;navigate=true&amp;details=Description">
			<g id="shape9-57" transform="translate(261,-585)">
				
				<desc>99.20.070 Configure and manage offline mode for apps</desc>
				<path d="M0 792 L126 792 L126 729 L0 729 L0 792 Z" class="st6" />
				<path d="M0 792 L126 792 L126 729 L0 729 L0 792" class="st7" />
				<path d="M9 792 L9 729" class="st7" />
				<path d="M117 792 L117 729" class="st7" />
				<text x="13.55" y="749.7" class="st2">99.20.070 Configure <tspan x="15.89" dy="1.2em" class="st5">and manage offline </tspan>
					<tspan x="27.58" dy="1.2em" class="st5">mode for apps</tspan>
				</text>
			</g>
		</a>
		<a id="405d2d0d-5b0c-4c70-a4e0-935ec459f26d" class="rules_svg_anchor rules_svg_shape"   href="/lms/chart?onclick=b25DaGFydFNoYXBlQ2xpY2soZXZlbnQsJ3cxMTVkNTIzNTk2NWMxNzU2MnY0MDcwJywnLTEnKQ==&amp;navigate=true&amp;details=Description">
			<g id="shape10-65" transform="translate(261,-495)">
				
				<desc>99.20.080 Configure and manage mobile apps and devices</desc>
				<path d="M0 792 L126 792 L126 729 L0 729 L0 792 Z" class="st6" />
				<path d="M0 792 L126 792 L126 729 L0 729 L0 792" class="st7" />
				<path d="M9 792 L9 729" class="st7" />
				<path d="M117 792 L117 729" class="st7" />
				<text x="13.55" y="749.7" class="st2">99.20.080 Configure <tspan x="14.76" dy="1.2em" class="st5">and manage mobile </tspan>
					<tspan x="21.49" dy="1.2em" class="st5">apps and devices</tspan>
				</text>
			</g>
		</a>
		<a id="6f47fc02-622c-40af-a72a-468f078b3d0a" class="rules_svg_anchor rules_svg_shape"   href="/lms/chart?onclick=b25DaGFydFNoYXBlQ2xpY2soZXZlbnQsJ3cxMTVkNTIzNTk2NWMxNzU2M3Y0MDcwJywnLTEnKQ==&amp;navigate=true&amp;details=Description">
			<g id="shape11-73" transform="translate(261,-405)">
				
				<desc>99.20.090 Configure and management office apps and add-ins</desc>
				<path d="M0 792 L126 792 L126 729 L0 729 L0 792 Z" class="st6" />
				<path d="M0 792 L126 792 L126 729 L0 729 L0 792" class="st7" />
				<path d="M9 792 L9 729" class="st7" />
				<path d="M117 792 L117 729" class="st7" />
				<text x="13.55" y="742.5" class="st2">99.20.090 Configure <tspan x="20.02" dy="1.2em" class="st5">and management </tspan>
					<tspan x="13.49" dy="1.2em" class="st5">office apps and add</tspan>-<tspan x="56.12" dy="1.2em" class="st5">ins</tspan>
				</text>
			</g>
		</a>
		<a id="f276d984-a9f6-4068-8a16-0745683a9d36" class="rules_svg_anchor rules_svg_shape"   href="/lms/chart?onclick=b25DaGFydFNoYXBlQ2xpY2soZXZlbnQsJ3cxMTVkNTIzNTk2NWMxNzU2NHY0MDcwJywnLTEnKQ==&amp;navigate=true&amp;details=Description">
			<g id="shape12-82" transform="translate(261,-315)">
				
				<desc>99.20.100 Configure and manage reporting and analytics</desc>
				<path d="M0 792 L126 792 L126 729 L0 729 L0 792 Z" class="st6" />
				<path d="M0 792 L126 792 L126 729 L0 729 L0 792" class="st7" />
				<path d="M9 792 L9 729" class="st7" />
				<path d="M117 792 L117 729" class="st7" />
				<text x="13.55" y="742.5" class="st2">99.20.100 Configure <tspan x="32.96" dy="1.2em" class="st5">and manage </tspan>
					<tspan x="29.62" dy="1.2em" class="st5">reporting and </tspan>
					<tspan x="41.74" dy="1.2em" class="st5">analytics</tspan>
				</text>
			</g>
		</a>
		<a id="da1f689f-722b-4bb5-b9d4-8c63cbe31ae0" class="rules_svg_anchor rules_svg_shape"   href="/lms/chart?onclick=b25DaGFydFNoYXBlQ2xpY2soZXZlbnQsJ3cxMTVkNTIzNTk2NWMxNzU2NXY0MDcwJywnLTEnKQ==&amp;navigate=true&amp;details=Description">
			<g id="shape13-91" transform="translate(261,-225)">
				
				<desc>99.20.110 Configure and manage search</desc>
				<path d="M0 792 L126 792 L126 729 L0 729 L0 792 Z" class="st6" />
				<path d="M0 792 L126 792 L126 729 L0 729 L0 792" class="st7" />
				<path d="M9 792 L9 729" class="st7" />
				<path d="M117 792 L117 729" class="st7" />
				<text x="13.55" y="756.9" class="st2">99.20.110 Configure <tspan x="15.62" dy="1.2em" class="st5">and manage search</tspan>
				</text>
			</g>
		</a>
		<a id="d23c6809-6163-4e3e-b41a-f752b9030785" class="rules_svg_anchor rules_svg_shape"   href="/lms/chart?onclick=b25DaGFydFNoYXBlQ2xpY2soZXZlbnQsJ3cxMTVkNTIzNTk2NWMxNzU2NnY0MDcwJywnLTEnKQ==&amp;navigate=true&amp;details=Description">
			<g id="shape14-98" transform="translate(261,-135)">
				
				<desc>99.20.120 Configure and manage portals</desc>
				<path d="M0 792 L126 792 L126 729 L0 729 L0 792 Z" class="st6" />
				<path d="M0 792 L126 792 L126 729 L0 729 L0 792" class="st7" />
				<path d="M9 792 L9 729" class="st7" />
				<path d="M117 792 L117 729" class="st7" />
				<text x="13.55" y="756.9" class="st2">99.20.120 Configure <tspan x="14.59" dy="1.2em" class="st5">and manage portals</tspan>
				</text>
			</g>
		</a>
		<a id="216d3c2a-3ce1-42b8-8d67-e75306ee9606" class="rules_svg_anchor rules_svg_shape"   href="/lms/chart?onclick=b25DaGFydFNoYXBlQ2xpY2soZXZlbnQsJ3cxMTVkNTIzNTk2NWMxNzU2N3Y0MDcwJywnLTEnKQ==&amp;navigate=true&amp;details=Description">
			<g id="shape15-105" transform="translate(441,-585)">
				
				<desc>99.20.130 Manage organizational structure</desc>
				<path d="M0 792 L126 792 L126 729 L0 729 L0 792 Z" class="st6" />
				<path d="M0 792 L126 792 L126 729 L0 729 L0 792" class="st7" />
				<path d="M9 792 L9 729" class="st7" />
				<path d="M117 792 L117 729" class="st7" />
				<text x="17.49" y="749.7" class="st2">99.20.130 Manage <tspan x="28.32" dy="1.2em" class="st5">organizational </tspan>
					<tspan x="40.62" dy="1.2em" class="st5">structure</tspan>
				</text>
			</g>
		</a>
		<a id="091867e3-adb4-4b6b-b8f7-da6a362cf61e" class="rules_svg_anchor rules_svg_shape"   href="/lms/chart?onclick=b25DaGFydFNoYXBlQ2xpY2soZXZlbnQsJ3cxMTVkNTIzNTk2NWMyMDEwMXY0MDcwJywnLTEnKQ==&amp;navigate=true&amp;details=Description">
			<g id="shape16-113" transform="translate(441,-495)">
				
				<desc>99.20.140 Configure and manage surveys</desc>
				<path d="M0 792 L126 792 L126 729 L0 729 L0 792 Z" class="st6" />
				<path d="M0 792 L126 792 L126 729 L0 729 L0 792" class="st7" />
				<path d="M9 792 L9 729" class="st7" />
				<path d="M117 792 L117 729" class="st7" />
				<text x="13.55" y="756.9" class="st2">99.20.140 Configure <tspan x="13.26" dy="1.2em" class="st5">and manage surveys</tspan>
				</text>
			</g>
		</a>
		<a id="a4d702ba-f666-4916-8b54-d024a7a88a63" class="rules_svg_anchor rules_svg_shape"   href="/lms/chart?onclick=b25DaGFydFNoYXBlQ2xpY2soZXZlbnQsJ3cxMTVkNTIzNTk2NWM1NDcwOHY0MDcwJywnLTEnKQ==&amp;navigate=true&amp;details=Description">
			<g id="shape17-120" transform="translate(441,-405)">
				
				<desc>99.20.150 Configure and manage IoT devices</desc>
				<path d="M0 792 L126 792 L126 729 L0 729 L0 792 Z" class="st6" />
				<path d="M0 792 L126 792 L126 729 L0 729 L0 792" class="st7" />
				<path d="M9 792 L9 729" class="st7" />
				<path d="M117 792 L117 729" class="st7" />
				<text x="13.55" y="749.7" class="st2">99.20.150 Configure <tspan x="24.01" dy="1.2em" class="st5">and manage IoT </tspan>
					<tspan x="44.91" dy="1.2em" class="st5">devices</tspan>
				</text>
			</g>
		</a>
		<a id="a86deeb8-0605-4881-a8e2-835a127dbdf6" class="rules_svg_anchor rules_svg_shape"   href="/lms/chart?onclick=b25DaGFydFNoYXBlQ2xpY2soZXZlbnQsJ3cxMTVkNTIzNTk2NWM1NDcwOXY0MDcwJywnLTEnKQ==&amp;navigate=true&amp;details=Description">
			<g id="shape18-128" transform="translate(441,-315)">
				
				<desc>99.20.200 Configure and manage copilot capabilities</desc>
				<path d="M0 792 L126 792 L126 729 L0 729 L0 792 Z" class="st6" />
				<path d="M0 792 L126 792 L126 729 L0 729 L0 792" class="st7" />
				<path d="M9 792 L9 729" class="st7" />
				<path d="M117 792 L117 729" class="st7" />
				<text x="13.55" y="749.7" class="st2">99.20.200 Configure <tspan x="14.82" dy="1.2em" class="st5">and manage copilot </tspan>
					<tspan x="35.56" dy="1.2em" class="st5">capabilities</tspan>
				</text>
			</g>
		</a>
		<a id="246d5b4f-34bc-430b-b3ac-6488f257d8ac" class="rules_svg_anchor rules_svg_shape"   href="/lms/chart?onclick=b25DaGFydFNoYXBlQ2xpY2soZXZlbnQsJ3cxMTVkNTIzNTk2NWM1NDcxMHY0MDcwJywnLTEnKQ==&amp;navigate=true&amp;details=Description">
			<g id="shape19-136" transform="translate(441,-225)">
				
				<desc>99.20.210 Configure and manage Microsoft Teams integrations</desc>
				<path d="M0 792 L126 792 L126 729 L0 729 L0 792 Z" class="st6" />
				<path d="M0 792 L126 792 L126 729 L0 729 L0 792" class="st7" />
				<path d="M9 792 L9 729" class="st7" />
				<path d="M117 792 L117 729" class="st7" />
				<text x="13.55" y="742.5" class="st2">99.20.210 Configure <tspan x="32.96" dy="1.2em" class="st5">and manage </tspan>
					<tspan x="22.07" dy="1.2em" class="st5">Microsoft Teams </tspan>
					<tspan x="33.64" dy="1.2em" class="st5">integrations</tspan>
				</text>
			</g>
		</a>
		<a id="a0766927-44fe-4c35-aaa0-51e660420169" class="rules_svg_anchor rules_svg_shape"   href="/lms/chart?onclick=b25DaGFydFNoYXBlQ2xpY2soZXZlbnQsJ3cxMTVkNTIzNTk2NWM1NDcxMXY0MDcwJywnLTEnKQ==&amp;navigate=true&amp;details=Description">
			<g id="shape20-145" transform="translate(441,-135)">
				
				<desc>99.20.220 Configure and manage geofencing and geolocation set...</desc>
				<path d="M0 792 L126 792 L126 729 L0 729 L0 792 Z" class="st6" />
				<path d="M0 792 L126 792 L126 729 L0 729 L0 792" class="st7" />
				<path d="M9 792 L9 729" class="st7" />
				<path d="M117 792 L117 729" class="st7" />
				<text x="13.55" y="742.5" class="st2">99.20.220 Configure <tspan x="32.96" dy="1.2em" class="st5">and manage </tspan>
					<tspan x="25.63" dy="1.2em" class="st5">geofencing and </tspan>
					<tspan x="13.96" dy="1.2em" class="st5">geolocation settings</tspan>
				</text>
			</g>
		</a>
		<g id="shape21-154" transform="translate(461.25,-54)">
			
			<desc>End</desc>
			<path d="M18 792 L67.5 792 A18 18 -180 0 0 67.5 756 L18 756 A18 18 -180 1 0 18 792 Z" class="st1" />
			<text x="33.52" y="777.6" class="st2">End</text>
		</g>
		<g id="shape22-157" transform="translate(126,-720)">
			
			<path d="M0 783 L44.19 783" class="st8" />
		</g>
		<g id="shape23-163" transform="translate(126,-585)">
			
			<path d="M9 792 L9 809.19" class="st8" />
		</g>
		<g id="shape24-168" transform="translate(243,-697.5)">
			
			<path d="M0 792 L0 809.66 L-108 809.66 L-108 831.69" class="st8" />
		</g>
		<g id="shape25-173" transform="translate(126,-495)">
			
			<path d="M9 792 L9 809.19" class="st8" />
		</g>
		<g id="shape26-178" transform="translate(126,-405)">
			
			<path d="M9 792 L9 809.19" class="st8" />
		</g>
		<g id="shape27-183" transform="translate(126,-315)">
			
			<path d="M9 792 L9 809.19" class="st8" />
		</g>
		<g id="shape28-188" transform="translate(126,-225)">
			
			<path d="M9 792 L9 809.19" class="st8" />
		</g>
		<g id="shape29-193" transform="translate(315,-585)">
			
			<path d="M9 792 L9 809.19" class="st8" />
		</g>
		<g id="shape30-198" transform="translate(315,-495)">
			
			<path d="M9 792 L9 809.19" class="st8" />
		</g>
		<g id="shape31-203" transform="translate(315,-405)">
			
			<path d="M9 792 L9 809.19" class="st8" />
		</g>
		<g id="shape32-208" transform="translate(315,-315)">
			
			<path d="M9 792 L9 809.19" class="st8" />
		</g>
		<g id="shape33-213" transform="translate(315,-225)">
			
			<path d="M9 792 L9 809.19" class="st8" />
		</g>
		<g id="shape34-218" transform="translate(495,-585)">
			
			<path d="M9 792 L9 809.19" class="st8" />
		</g>
		<g id="shape35-223" transform="translate(495,-495)">
			
			<path d="M9 792 L9 809.19" class="st8" />
		</g>
		<g id="shape36-228" transform="translate(495,-405)">
			
			<path d="M9 792 L9 809.19" class="st8" />
		</g>
		<g id="shape37-233" transform="translate(495,-315)">
			
			<path d="M9 792 L9 809.19" class="st8" />
		</g>
		<g id="shape38-238" transform="translate(495,-225)">
			
			<path d="M9 792 L9 809.19" class="st8" />
		</g>
		<g id="shape39-243" transform="translate(198,-166.5)">
			
			<path d="M0 792 L34.71 792 L34.71 342 L53.19 342" class="st8" />
		</g>
		<g id="shape40-248" transform="translate(387,-166.5)">
			
			<path d="M0 792 L34.71 792 L34.71 342 L44.19 342" class="st8" />
		</g>
		<g id="shape41-253" transform="translate(495,-135)">
			
			<path d="M9 792 L9 827.19" class="st8" />
		</g>
	</g>
</svg>
