<?xml version="1.0"?>
<svg xmlns="http://www.w3.org/2000/svg" xmlns:xlink="http://www.w3.org/1999/xlink" xmlns:ev="http://www.w3.org/2001/xml-events"    viewBox="25 18 723 811"    xml:space="preserve" color-interpolation-filters="sRGB" class="st14" width="1808" height="2028">
<rect x="0" y="0" width="1808" height="2028" fill="#ffffff" />
	<style type="text/css"><![CDATA[
		.st1 {fill:#f2f2f2;stroke:#a5a5a5;stroke-linecap:round;stroke-linejoin:round;stroke-width:0.75}
		.st2 {fill:#a0a0a0;stroke:none;stroke-linecap:round;stroke-linejoin:round;stroke-width:0.24}
		.st3 {fill:#000000;font-family:Calibri;font-size:1.00001em}
		.st4 {font-size:1em}
		.st5 {fill:#ffffff;stroke:#0078d4;stroke-linecap:round;stroke-linejoin:round;stroke-width:0.24}
		.st6 {fill:#0078d4;stroke:none;stroke-linecap:round;stroke-linejoin:round;stroke-width:0.24}
		.st7 {fill:#ffffff;font-family:Calibri;font-size:1.00001em}
		.st8 {fill:#ffffff}
		.st9 {stroke:#0078d4;stroke-linecap:round;stroke-linejoin:round;stroke-width:0.24}
		.st10 {marker-end:url(#mrkr13-182);stroke:#0078d4;stroke-linecap:round;stroke-linejoin:round;stroke-width:0.75}
		.st11 {fill:#0078d4;fill-opacity:1;stroke:#0078d4;stroke-opacity:1;stroke-width:0.22935779816514}
		.st12 {fill:none;stroke:none;stroke-linecap:round;stroke-linejoin:round;stroke-width:0.75}
		.st13 {fill:#0078d4;font-family:Calibri;font-size:1.00001em;font-weight:bold}
		.st14 {fill:none;fill-rule:evenodd;font-size:12px;overflow:visible;stroke-linecap:square;stroke-miterlimit:3}
	]]></style><style> a { pointer-events: none; } </style><style>a.rules_svg_anchor g:hover { opacity:0.8; cursor:pointer; }</style>
	<defs id="Markers">
		<g id="lend13">
			<path d="M 3 1 L 0 0 L 3 -1 L 3 1 " style="stroke:none" />
		</g>
		<marker id="mrkr13-182" class="st11" refX="-13.08" orient="auto" markerUnits="strokeWidth" overflow="visible">
			<use xlink:href="#lend13" transform="scale(-4.36,-4.36) " />
		</marker>
	</defs>
	<g>
		
		<g id="shape72-1" transform="translate(207,-362.25)">
			
			<rect x="0" y="398.25" width="315" height="789.75" class="st1" />
		</g>
		<a id="e9114417-2bdf-4757-9daa-8896494d7d6d" class="rules_svg_anchor rules_svg_shape"   href="/lms/chart?onclick=b3BlbkNoYXJ0Q29udGV4dE1lbnUoZXZlbnQsJ3cxMTVkNTIzNTk2NWMxNzUyOXY0MDcwJywxNzg5MywgMSwgMSwgdGhpcywgd2luZG93LmZyYW1lRWxlbWVudCk=&amp;navigate=true&amp;details=Description">
			<g id="shape1-3" transform="translate(63,-1044)">
				
				<desc>99 Administer to operate</desc>
				<rect x="0" y="1125" width="99" height="63" class="st2" />
				<text x="8.77" y="1152.9" class="st3">99 Administer to <tspan x="30.24" dy="1.2em" class="st4">operate</tspan>
				</text>
			</g>
		</a>
		<g id="shape2-7" transform="translate(69.75,-1134)">
			
			<desc>Start</desc>
			<path d="M18 1188 L67.5 1188 A18 18 -180 0 0 67.5 1152 L18 1152 A18 18 -180 1 0 18 1188 Z" class="st5" />
			<text x="31.01" y="1173.6" class="st3">Start</text>
		</g>
		<a id="e5ebf909-660e-4481-a3d4-71b49d10f30a" class="rules_svg_anchor rules_svg_shape"   href="/lms/chart?onclick=b3BlbkNoYXJ0Q29udGV4dE1lbnUoZXZlbnQsJ3cxMTVkNTIzNTk2NWMxNzUzMHY0MDcwJywxNzg5NSwgMSwgMSwgdGhpcywgd2luZG93LmZyYW1lRWxlbWVudCk=&amp;navigate=true&amp;details=Description">
			<g id="shape3-10" transform="translate(225,-1044)">
				
				<desc>99.10 Define business continuity plan</desc>
				<rect x="0" y="1125" width="126" height="63" class="st6" />
				<text x="9.73" y="1152.9" class="st7">99.10 Define business <tspan x="26.44" dy="1.2em" class="st4">continuity plan</tspan>
				</text>
			</g>
		</a>
		<a id="6e194032-54ac-4a7a-9bfa-1d877fcce635" class="rules_svg_anchor rules_svg_shape"   href="/lms/chart?onclick=b25DaGFydFNoYXBlQ2xpY2soZXZlbnQsJ3cxMTVkNTIzNTk2NWMxNzUzMXY0MDcwJywnLTEnKQ==&amp;navigate=true&amp;details=Description">
			<g id="shape4-14" transform="translate(225,-954)">
				
				<desc>99.10.010 Define business continuity objectives</desc>
				<path d="M0 1188 L126 1188 L126 1125 L0 1125 L0 1188 Z" class="st8" />
				<path d="M0 1188 L126 1188 L126 1125 L0 1125 L0 1188" class="st9" />
				<path d="M9 1188 L9 1125" class="st9" />
				<path d="M117 1188 L117 1125" class="st9" />
				<text x="21.3" y="1145.7" class="st3">99.10.010 Define <tspan x="16.14" dy="1.2em" class="st4">business continuity </tspan>
					<tspan x="38.3" dy="1.2em" class="st4">objectives</tspan>
				</text>
			</g>
		</a>
		<a id="2cadbbe2-c1bc-4835-a178-8a426577f756" class="rules_svg_anchor rules_svg_shape"   href="/lms/chart?onclick=b25DaGFydFNoYXBlQ2xpY2soZXZlbnQsJ3cxMTVkNTIzNTk2NWMxNzUzMnY0MDcwJywnLTEnKQ==&amp;navigate=true&amp;details=Description">
			<g id="shape5-22" transform="translate(396,-954)">
				
				<desc>99.10.020 Conduct a business impact analysis</desc>
				<path d="M0 1188 L126 1188 L126 1125 L0 1125 L0 1188 Z" class="st8" />
				<path d="M0 1188 L126 1188 L126 1125 L0 1125 L0 1188" class="st9" />
				<path d="M9 1188 L9 1125" class="st9" />
				<path d="M117 1188 L117 1125" class="st9" />
				<text x="12.73" y="1145.7" class="st3">99.10.020 Conduct a <tspan x="24.04" dy="1.2em" class="st4">business impact </tspan>
					<tspan x="43.94" dy="1.2em" class="st4">analysis</tspan>
				</text>
			</g>
		</a>
		<a id="a197bc3d-0165-4b98-b7fc-6f3102a8c7d2" class="rules_svg_anchor rules_svg_shape"   href="/lms/chart?onclick=b3BlbkNoYXJ0Q29udGV4dE1lbnUoZXZlbnQsJ3cxMTVkNTIzNTk2NWMxNzU4OXY0MDcwJywxNzkwMCwgMSwgMSwgdGhpcywgd2luZG93LmZyYW1lRWxlbWVudCk=&amp;navigate=true&amp;details=Description">
			<g id="shape6-30" transform="translate(63,-954)">
				
				<desc>99.35 Monitor systems, environments, and capacity</desc>
				<rect x="0" y="1125" width="99" height="63" class="st6" />
				<text x="14.38" y="1138.5" class="st7">99.35 Monitor <tspan x="28.46" dy="1.2em" class="st4">systems, </tspan>
					<tspan x="3.55" dy="1.2em" class="st4">environments, and </tspan>
					<tspan x="29.42" dy="1.2em" class="st4">capacity</tspan>
				</text>
			</g>
		</a>
		<a id="2446432b-0fc3-443b-bd0e-1326e09998c5" class="rules_svg_anchor rules_svg_shape"   href="/lms/chart?onclick=b3BlbkNoYXJ0Q29udGV4dE1lbnUoZXZlbnQsJ3cxMTVkNTIzNTk2NWMxNzUyOXY0MDcwJywxNzg5MywgMSwgMSwgdGhpcywgd2luZG93LmZyYW1lRWxlbWVudCk=&amp;navigate=true&amp;details=Description">
			<g id="shape7-36" transform="translate(612,-954)">
				
				<desc>99 Administer to operate</desc>
				<rect x="0" y="1125" width="99" height="63" class="st2" />
				<text x="8.77" y="1152.9" class="st3">99 Administer to <tspan x="30.24" dy="1.2em" class="st4">operate</tspan>
				</text>
			</g>
		</a>
		<a id="1c8585a0-2844-4940-877e-0e6f42e479f9" class="rules_svg_anchor rules_svg_shape"   href="/lms/chart?onclick=b25DaGFydFNoYXBlQ2xpY2soZXZlbnQsJ3cxMTVkNTIzNTk2NWMxNzUzOXY0MDcwJywnLTEnKQ==&amp;navigate=true&amp;details=Description">
			<g id="shape8-40" transform="translate(225,-868.5)">
				
				<desc>99.10.090 Conduct a disaster risk assessment</desc>
				<path d="M0 1188 L126 1188 L126 1125 L0 1125 L0 1188 Z" class="st8" />
				<path d="M0 1188 L126 1188 L126 1125 L0 1125 L0 1188" class="st9" />
				<path d="M9 1188 L9 1125" class="st9" />
				<path d="M117 1188 L117 1125" class="st9" />
				<text x="12.73" y="1145.7" class="st3">99.10.090 Conduct a <tspan x="33.92" dy="1.2em" class="st4">disaster risk </tspan>
					<tspan x="34.81" dy="1.2em" class="st4">assessment</tspan>
				</text>
			</g>
		</a>
		<a id="e2e22eff-9266-4152-bb8e-a0ea93b15dc4" class="rules_svg_anchor rules_svg_shape"   href="/lms/chart?onclick=b25DaGFydFNoYXBlQ2xpY2soZXZlbnQsJ3cxMTVkNTIzNTk2NWMxNzUzOHY0MDcwJywnLTEnKQ==&amp;navigate=true&amp;details=Description">
			<g id="shape9-48" transform="translate(396,-868.5)">
				
				<desc>99.10.080 Identify critical system and data</desc>
				<path d="M0 1188 L126 1188 L126 1125 L0 1125 L0 1188 Z" class="st8" />
				<path d="M0 1188 L126 1188 L126 1125 L0 1125 L0 1188" class="st9" />
				<path d="M9 1188 L9 1125" class="st9" />
				<path d="M117 1188 L117 1125" class="st9" />
				<text x="18.59" y="1145.7" class="st3">99.10.080 Identify <tspan x="17.73" dy="1.2em" class="st4">critical system and </tspan>
					<tspan x="52.09" dy="1.2em" class="st4">data</tspan>
				</text>
			</g>
		</a>
		<a id="cca3aa6a-c5ba-4f1c-bc10-e65079e24391" class="rules_svg_anchor rules_svg_shape"   href="/lms/chart?onclick=b3BlbkNoYXJ0Q29udGV4dE1lbnUoZXZlbnQsJ3cxMTVkNTIzNTk2NWMxNzYzMnY0MDcwJywxNzkwNSwgMSwgMSwgdGhpcywgd2luZG93LmZyYW1lRWxlbWVudCk=&amp;navigate=true&amp;details=Description">
			<g id="shape10-56" transform="translate(63,-868.5)">
				
				<desc>99.60 Manage system compliance</desc>
				<rect x="0" y="1125" width="99" height="63" class="st6" />
				<text x="14.62" y="1152.9" class="st7">99.60 Manage <tspan x="3" dy="1.2em" class="st4">system compliance</tspan>
				</text>
			</g>
		</a>
		<a id="9ba6de26-627d-4aef-98a3-929e8ec5921b" class="rules_svg_anchor rules_svg_shape"   href="/lms/chart?onclick=b3BlbkNoYXJ0Q29udGV4dE1lbnUoZXZlbnQsJ3cxMTVkNTIzNTk2NWMxNzU4MXY0MDcwJywxNzg5OSwgMSwgMSwgdGhpcywgd2luZG93LmZyYW1lRWxlbWVudCk=&amp;navigate=true&amp;details=Description">
			<g id="shape11-60" transform="translate(612,-868.5)">
				
				<desc>99.30 Train users and increase adoption</desc>
				<rect x="0" y="1125" width="99" height="63" class="st6" />
				<text x="7.77" y="1145.7" class="st7">99.30 Train users <tspan x="18.61" dy="1.2em" class="st4">and increase </tspan>
					<tspan x="27.45" dy="1.2em" class="st4">adoption</tspan>
				</text>
			</g>
		</a>
		<a id="42f9a4a1-854b-4a89-afbe-6bdc17ca46c7" class="rules_svg_anchor rules_svg_shape"   href="/lms/chart?onclick=b25DaGFydFNoYXBlQ2xpY2soZXZlbnQsJ3cxMTVkNTIzNTk2NWMxNzUzM3Y0MDcwJywnLTEnKQ==&amp;navigate=true&amp;details=Description">
			<g id="shape12-65" transform="translate(225,-774)">
				
				<desc>99.10.030 Identify business continuity risks</desc>
				<path d="M0 1188 L126 1188 L126 1125 L0 1125 L0 1188 Z" class="st8" />
				<path d="M0 1188 L126 1188 L126 1125 L0 1125 L0 1188" class="st9" />
				<path d="M9 1188 L9 1125" class="st9" />
				<path d="M117 1188 L117 1125" class="st9" />
				<text x="18.59" y="1145.7" class="st3">99.10.030 Identify <tspan x="16.14" dy="1.2em" class="st4">business continuity </tspan>
					<tspan x="52.11" dy="1.2em" class="st4">risks</tspan>
				</text>
			</g>
		</a>
		<a id="c85318ba-7603-4511-a223-9c3e2f392ee6" class="rules_svg_anchor rules_svg_shape"   href="/lms/chart?onclick=b25DaGFydFNoYXBlQ2xpY2soZXZlbnQsJ3cxMTVkNTIzNTk2NWMxNzU0MHY0MDcwJywnLTEnKQ==&amp;navigate=true&amp;details=Description">
			<g id="shape13-73" transform="translate(396,-774)">
				
				<desc>99.10.100 Define recovery objectives</desc>
				<path d="M0 1188 L126 1188 L126 1125 L0 1125 L0 1188 Z" class="st8" />
				<path d="M0 1188 L126 1188 L126 1125 L0 1125 L0 1188" class="st9" />
				<path d="M9 1188 L9 1125" class="st9" />
				<path d="M117 1188 L117 1125" class="st9" />
				<text x="21.3" y="1152.9" class="st3">99.10.100 Define <tspan x="15.66" dy="1.2em" class="st4">recovery objectives</tspan>
				</text>
			</g>
		</a>
		<a id="79df2b57-28dd-4bd2-ad02-52c71f32f180" class="rules_svg_anchor rules_svg_shape"   href="/lms/chart?onclick=b3BlbkNoYXJ0Q29udGV4dE1lbnUoZXZlbnQsJ3cxMTVkNTIzNTk2NWMxNzY0MHY0MDcwJywxNzkwNiwgMSwgMSwgdGhpcywgd2luZG93LmZyYW1lRWxlbWVudCk=&amp;navigate=true&amp;details=Description">
			<g id="shape14-80" transform="translate(63,-774)">
				
				<desc>99.65 Support systems</desc>
				<rect x="0" y="1125" width="99" height="63" class="st6" />
				<text x="14.99" y="1152.9" class="st7">99.65 Support <tspan x="29.96" dy="1.2em" class="st4">systems</tspan>
				</text>
			</g>
		</a>
		<a id="fa25dd26-5e2e-48c1-b947-f2fdc3997658" class="rules_svg_anchor rules_svg_shape"   href="/lms/chart?onclick=b3BlbkNoYXJ0Q29udGV4dE1lbnUoZXZlbnQsJ3cxMTVkNTIzNTk2NWMxNzU4OXY0MDcwJywxNzkwMCwgMSwgMSwgdGhpcywgd2luZG93LmZyYW1lRWxlbWVudCk=&amp;navigate=true&amp;details=Description">
			<g id="shape15-84" transform="translate(612,-774)">
				
				<desc>99.35 Monitor systems, environments, and capacity</desc>
				<rect x="0" y="1125" width="99" height="63" class="st6" />
				<text x="14.38" y="1138.5" class="st7">99.35 Monitor <tspan x="28.46" dy="1.2em" class="st4">systems, </tspan>
					<tspan x="3.55" dy="1.2em" class="st4">environments, and </tspan>
					<tspan x="29.42" dy="1.2em" class="st4">capacity</tspan>
				</text>
			</g>
		</a>
		<a id="75e377ae-8fca-4542-a9c5-9fe54bf3001d" class="rules_svg_anchor rules_svg_shape"   href="/lms/chart?onclick=b25DaGFydFNoYXBlQ2xpY2soZXZlbnQsJ3cxMTVkNTIzNTk2NWMxNzUzNHY0MDcwJywnLTEnKQ==&amp;navigate=true&amp;details=Description">
			<g id="shape16-90" transform="translate(225,-675)">
				
				<desc>99.10.040 Develop a business continuity plan</desc>
				<path d="M0 1188 L126 1188 L126 1125 L0 1125 L0 1188 Z" class="st8" />
				<path d="M0 1188 L126 1188 L126 1125 L0 1125 L0 1188" class="st9" />
				<path d="M9 1188 L9 1125" class="st9" />
				<path d="M117 1188 L117 1125" class="st9" />
				<text x="13.03" y="1145.7" class="st3">99.10.040 Develop a <tspan x="16.14" dy="1.2em" class="st4">business continuity </tspan>
					<tspan x="52.44" dy="1.2em" class="st4">plan</tspan>
				</text>
			</g>
		</a>
		<a id="dc98b05e-c6a1-430e-a0ca-f17c45672a6d" class="rules_svg_anchor rules_svg_shape"   href="/lms/chart?onclick=b25DaGFydFNoYXBlQ2xpY2soZXZlbnQsJ3cxMTVkNTIzNTk2NWMxNzU0MXY0MDcwJywnLTEnKQ==&amp;navigate=true&amp;details=Description">
			<g id="shape17-98" transform="translate(396,-675)">
				
				<desc>99.10.110 Develop a disaster recovery plan</desc>
				<path d="M0 1188 L126 1188 L126 1125 L0 1125 L0 1188 Z" class="st8" />
				<path d="M0 1188 L126 1188 L126 1125 L0 1125 L0 1188" class="st9" />
				<path d="M9 1188 L9 1125" class="st9" />
				<path d="M117 1188 L117 1125" class="st9" />
				<text x="13.03" y="1145.7" class="st3">99.10.110 Develop a <tspan x="21.18" dy="1.2em" class="st4">disaster recovery </tspan>
					<tspan x="52.44" dy="1.2em" class="st4">plan</tspan>
				</text>
			</g>
		</a>
		<a id="17113373-3dd1-4b48-a35e-d2cc556c293e" class="rules_svg_anchor rules_svg_shape"   href="/lms/chart?onclick=b3BlbkNoYXJ0Q29udGV4dE1lbnUoZXZlbnQsJ3cxMTVkNTIzNTk2NWMxNjk5MnY0MDcwJywxNzQ5OCwgMSwgMSwgdGhpcywgd2luZG93LmZyYW1lRWxlbWVudCk=&amp;navigate=true&amp;details=Description">
			<g id="shape18-106" transform="translate(63,-675)">
				
				<desc>50 Forecast to plan</desc>
				<rect x="0" y="1125" width="99" height="63" class="st2" />
				<text x="2.85" y="1160.1" class="st3">50 Forecast to plan</text>
			</g>
		</a>
		<a id="d795c19b-1df2-49bf-806c-4983e44b2987" class="rules_svg_anchor rules_svg_shape"   href="/lms/chart?onclick=b3BlbkNoYXJ0Q29udGV4dE1lbnUoZXZlbnQsJ3cxMTVkNTIzNTk2NWMxNzYzMnY0MDcwJywxNzkwNSwgMSwgMSwgdGhpcywgd2luZG93LmZyYW1lRWxlbWVudCk=&amp;navigate=true&amp;details=Description">
			<g id="shape19-109" transform="translate(612,-675)">
				
				<desc>99.60 Manage system compliance</desc>
				<rect x="0" y="1125" width="99" height="63" class="st6" />
				<text x="14.62" y="1152.9" class="st7">99.60 Manage <tspan x="3" dy="1.2em" class="st4">system compliance</tspan>
				</text>
			</g>
		</a>
		<a id="7cee068c-5a9f-473f-9210-899613a8bfca" class="rules_svg_anchor rules_svg_shape"   href="/lms/chart?onclick=b25DaGFydFNoYXBlQ2xpY2soZXZlbnQsJ3cxMTVkNTIzNTk2NWMxNzUzNXY0MDcwJywnLTEnKQ==&amp;navigate=true&amp;details=Description">
			<g id="shape20-113" transform="translate(225,-585)">
				
				<desc>99.10.050 Implement a business continuty plan</desc>
				<path d="M0 1188 L126 1188 L126 1125 L0 1125 L0 1188 Z" class="st8" />
				<path d="M0 1188 L126 1188 L126 1125 L0 1125 L0 1188" class="st9" />
				<path d="M9 1188 L9 1125" class="st9" />
				<path d="M117 1188 L117 1125" class="st9" />
				<text x="38.68" y="1138.5" class="st3">99.10.050 <tspan x="32.01" dy="1.2em" class="st4">Implement a </tspan>
					<tspan x="17.51" dy="1.2em" class="st4">business continuty </tspan>
					<tspan x="52.44" dy="1.2em" class="st4">plan</tspan>
				</text>
			</g>
		</a>
		<a id="948dc3cf-cae6-4931-a70f-fe78620e46da" class="rules_svg_anchor rules_svg_shape"   href="/lms/chart?onclick=b25DaGFydFNoYXBlQ2xpY2soZXZlbnQsJ3cxMTVkNTIzNTk2NWMxNzU0MnY0MDcwJywnLTEnKQ==&amp;navigate=true&amp;details=Description">
			<g id="shape21-122" transform="translate(396,-585)">
				
				<desc>99.10.120 Implement the disaster recovery plan</desc>
				<path d="M0 1188 L126 1188 L126 1125 L0 1125 L0 1188 Z" class="st8" />
				<path d="M0 1188 L126 1188 L126 1125 L0 1125 L0 1188" class="st9" />
				<path d="M9 1188 L9 1125" class="st9" />
				<path d="M117 1188 L117 1125" class="st9" />
				<text x="38.68" y="1138.5" class="st3">99.10.120 <tspan x="26.74" dy="1.2em" class="st4">Implement the </tspan>
					<tspan x="21.18" dy="1.2em" class="st4">disaster recovery </tspan>
					<tspan x="52.44" dy="1.2em" class="st4">plan</tspan>
				</text>
			</g>
		</a>
		<g id="shape22-131" transform="translate(63,-585)">
			
			<desc>50.10 Define strategic and operational plans</desc>
			<rect x="0" y="1125" width="99" height="63" class="st6" />
			<text x="18.44" y="1145.7" class="st7">50.10 Define <tspan x="17.91" dy="1.2em" class="st4">strategic and </tspan>
				<tspan x="7.02" dy="1.2em" class="st4">operational plans</tspan>
			</text>
		</g>
		<a id="a8e52993-ab20-4c6d-bbc7-0c8df8d880ab" class="rules_svg_anchor rules_svg_shape"   href="/lms/chart?onclick=b3BlbkNoYXJ0Q29udGV4dE1lbnUoZXZlbnQsJ3cxMTVkNTIzNTk2NWMxNzY0MHY0MDcwJywxNzkwNiwgMSwgMSwgdGhpcywgd2luZG93LmZyYW1lRWxlbWVudCk=&amp;navigate=true&amp;details=Description">
			<g id="shape23-136" transform="translate(612,-585)">
				
				<desc>99.65 Support systems</desc>
				<rect x="0" y="1125" width="99" height="63" class="st6" />
				<text x="14.99" y="1152.9" class="st7">99.65 Support <tspan x="29.96" dy="1.2em" class="st4">systems</tspan>
				</text>
			</g>
		</a>
		<a id="6a15d871-a079-44cc-8d8f-55e9924961de" class="rules_svg_anchor rules_svg_shape"   href="/lms/chart?onclick=b25DaGFydFNoYXBlQ2xpY2soZXZlbnQsJ3cxMTVkNTIzNTk2NWMxNzUzNnY0MDcwJywnLTEnKQ==&amp;navigate=true&amp;details=Description">
			<g id="shape24-140" transform="translate(225,-486)">
				
				<desc>99.10.060 Test and validate the business continuity plan</desc>
				<path d="M0 1188 L126 1188 L126 1125 L0 1125 L0 1188 Z" class="st8" />
				<path d="M0 1188 L126 1188 L126 1125 L0 1125 L0 1188" class="st9" />
				<path d="M9 1188 L9 1125" class="st9" />
				<path d="M117 1188 L117 1125" class="st9" />
				<text x="16.53" y="1145.7" class="st3">99.10.060 Test and <tspan x="11.92" dy="1.2em" class="st4">validate the business </tspan>
					<tspan x="26.44" dy="1.2em" class="st4">continuity plan</tspan>
				</text>
			</g>
		</a>
		<a id="14557666-734f-4520-a88b-f28c7c6c153c" class="rules_svg_anchor rules_svg_shape"   href="/lms/chart?onclick=b25DaGFydFNoYXBlQ2xpY2soZXZlbnQsJ3cxMTVkNTIzNTk2NWMxNzU0M3Y0MDcwJywnLTEnKQ==&amp;navigate=true&amp;details=Description">
			<g id="shape25-148" transform="translate(396,-486)">
				
				<desc>99.10.130 Test and validate the disaster recovery plan</desc>
				<path d="M0 1188 L126 1188 L126 1125 L0 1125 L0 1188 Z" class="st8" />
				<path d="M0 1188 L126 1188 L126 1125 L0 1125 L0 1188" class="st9" />
				<path d="M9 1188 L9 1125" class="st9" />
				<path d="M117 1188 L117 1125" class="st9" />
				<text x="16.53" y="1145.7" class="st3">99.10.130 Test and <tspan x="13.6" dy="1.2em" class="st4">validate the disaster </tspan>
					<tspan x="29.81" dy="1.2em" class="st4">recovery plan</tspan>
				</text>
			</g>
		</a>
		<a id="22fa66db-1be3-4b6a-b815-bc4c3e094653" class="rules_svg_anchor rules_svg_shape"   href="/lms/chart?onclick=b25DaGFydFNoYXBlQ2xpY2soZXZlbnQsJ3cxMTVkNTIzNTk2NWMxNzUzN3Y0MDcwJywnLTEnKQ==&amp;navigate=true&amp;details=Description">
			<g id="shape28-156" transform="translate(225,-387)">
				
				<desc>99.10.070 Maintain and update the business continuty plan</desc>
				<path d="M0 1188 L126 1188 L126 1125 L0 1125 L0 1188 Z" class="st8" />
				<path d="M0 1188 L126 1188 L126 1125 L0 1125 L0 1188" class="st9" />
				<path d="M9 1188 L9 1125" class="st9" />
				<path d="M117 1188 L117 1125" class="st9" />
				<text x="15.38" y="1138.5" class="st3">99.10.070 Maintain <tspan x="25.63" dy="1.2em" class="st4">and update the </tspan>
					<tspan x="17.51" dy="1.2em" class="st4">business continuty </tspan>
					<tspan x="52.44" dy="1.2em" class="st4">plan</tspan>
				</text>
			</g>
		</a>
		<a id="083b9905-929c-4ce9-b9c6-f897682e97af" class="rules_svg_anchor rules_svg_shape"   href="/lms/chart?onclick=b25DaGFydFNoYXBlQ2xpY2soZXZlbnQsJ3cxMTVkNTIzNTk2NWMxNzU0NHY0MDcwJywnLTEnKQ==&amp;navigate=true&amp;details=Description">
			<g id="shape29-165" transform="translate(396,-387)">
				
				<desc>99.10.140 Mitigate and update the disaster recovery plan</desc>
				<path d="M0 1188 L126 1188 L126 1125 L0 1125 L0 1188 Z" class="st8" />
				<path d="M0 1188 L126 1188 L126 1125 L0 1125 L0 1188" class="st9" />
				<path d="M9 1188 L9 1125" class="st9" />
				<path d="M117 1188 L117 1125" class="st9" />
				<text x="16.74" y="1138.5" class="st3">99.10.140 Mitigate <tspan x="25.63" dy="1.2em" class="st4">and update the </tspan>
					<tspan x="21.18" dy="1.2em" class="st4">disaster recovery </tspan>
					<tspan x="52.44" dy="1.2em" class="st4">plan</tspan>
				</text>
			</g>
		</a>
		<g id="shape32-174" transform="translate(618.75,-400.5)">
			
			<desc>End</desc>
			<path d="M18 1188 L67.5 1188 A18 18 -180 0 0 67.5 1152 L18 1152 A18 18 -180 1 0 18 1188 Z" class="st5" />
			<text x="33.52" y="1173.6" class="st3">End</text>
		</g>
		<g id="shape33-177" transform="translate(162,-1066.5)">
			
			<path d="M0 1179 L53.19 1179" class="st10" />
		</g>
		<g id="shape34-183" transform="translate(103.5,-1044)">
			
			<path d="M9 1188 L9 1205.19" class="st10" />
		</g>
		<g id="shape35-188" transform="translate(103.5,-954)">
			
			<path d="M9 1188 L9 1200.69" class="st10" />
		</g>
		<g id="shape36-193" transform="translate(103.5,-868.5)">
			
			<path d="M9 1188 L9 1209.69" class="st10" />
		</g>
		<g id="shape37-198" transform="translate(63,-985.5)">
			
			<path d="M0 1188 L-17.66 1188 L-17.66 1656 L152.19 1656" class="st10" />
		</g>
		<g id="shape38-203" transform="translate(63,-900)">
			
			<path d="M0 1188 L-17.66 1188 L-17.66 1570.5 L152.19 1570.5" class="st10" />
		</g>
		<g id="shape39-208" transform="translate(63,-805.5)">
			
			<path d="M0 1188 L-17.66 1188 L-17.66 1476 L152.19 1476" class="st10" />
		</g>
		<g id="shape40-213" transform="translate(103.5,-675)">
			
			<path d="M9 1188 L9 1205.19" class="st10" />
		</g>
		<g id="shape41-218" transform="translate(162,-616.5)">
			
			<path d="M0 1188 L17.66 1188 L17.66 819 L53.19 819" class="st10" />
		</g>
		<g id="shape42-223" transform="translate(279,-1044)">
			
			<path d="M9 1188 L9 1205.19" class="st10" />
		</g>
		<g id="shape43-228" transform="translate(351,-976.5)">
			
			<path d="M0 1179 L35.19 1179" class="st10" />
		</g>
		<g id="shape44-233" transform="translate(459,-954)">
			
			<path d="M0 1188 L0 1196.83 L-171 1196.83 L-171 1200.69" class="st10" />
		</g>
		<g id="shape45-238" transform="translate(351,-891)">
			
			<path d="M0 1179 L35.19 1179" class="st10" />
		</g>
		<g id="shape46-243" transform="translate(459,-868.5)">
			
			<path d="M0 1188 L0 1205.66 L-171 1205.66 L-171 1209.69" class="st10" />
		</g>
		<g id="shape47-248" transform="translate(450,-868.5)">
			
			<path d="M9 1188 L9 1209.69" class="st10" />
		</g>
		<g id="shape48-253" transform="translate(279,-774)">
			
			<path d="M9 1188 L9 1214.19" class="st10" />
		</g>
		<g id="shape49-258" transform="translate(450,-774)">
			
			<path d="M9 1188 L9 1214.19" class="st10" />
		</g>
		<g id="shape50-263" transform="translate(279,-675)">
			
			<path d="M9 1188 L9 1205.19" class="st10" />
		</g>
		<g id="shape51-268" transform="translate(450,-675)">
			
			<path d="M9 1188 L9 1205.19" class="st10" />
		</g>
		<g id="shape52-273" transform="translate(279,-585)">
			
			<path d="M9 1188 L9 1214.19" class="st10" />
		</g>
		<g id="shape53-278" transform="translate(450,-585)">
			
			<path d="M9 1188 L9 1214.19" class="st10" />
		</g>
		<g id="shape54-283" transform="translate(279,-486)">
			
			<path d="M9 1188 L9 1214.19" class="st10" />
		</g>
		<g id="shape55-288" transform="translate(450,-486)">
			
			<path d="M9 1188 L9 1214.19" class="st10" />
		</g>
		<g id="shape56-293" transform="translate(351,-508.5)">
			
			<path d="M0 1179 L35.19 1179" class="st10" />
		</g>
		<g id="shape57-298" transform="translate(351,-409.5)">
			
			<path d="M0 1179 L35.19 1179" class="st10" />
		</g>
		<g id="shape58-303" transform="translate(522,-409.5)">
			
			<path d="M0 1179 L86.94 1179" class="st10" />
		</g>
		<g id="shape59-308" transform="translate(652.5,-954)">
			
			<path d="M9 1188 L9 1200.69" class="st10" />
		</g>
		<g id="shape60-313" transform="translate(652.5,-868.5)">
			
			<path d="M9 1188 L9 1209.69" class="st10" />
		</g>
		<g id="shape61-318" transform="translate(652.5,-774)">
			
			<path d="M9 1188 L9 1214.19" class="st10" />
		</g>
		<g id="shape62-323" transform="translate(652.5,-675)">
			
			<path d="M9 1188 L9 1205.19" class="st10" />
		</g>
		<g id="shape63-328" transform="translate(522,-616.5)">
			
			<path d="M0 1188 L17.66 1188 L17.66 904.5 L80.19 904.5" class="st10" />
		</g>
		<g id="shape64-333" transform="translate(522,-517.5)">
			
			<path d="M0 1188 L39 1188 L39 900 L80.19 900" class="st10" />
		</g>
		<g id="shape65-338" transform="translate(522,-517.5)">
			
			<path d="M0 1188 L39 1188 L39 999 L80.19 999" class="st10" />
		</g>
		<g id="shape66-343" transform="translate(522,-517.5)">
			
			<path d="M0 1188 L39 1188 L39 1089 L80.19 1089" class="st10" />
		</g>
		<g id="shape67-348" transform="translate(670.5,-585)">
			
			<path d="M-9 1188 L-9 1326.69" class="st10" />
		</g>
		<g id="shape68-353" transform="translate(459,-387)">
			
			<path d="M0 1188 L0 1205.66 L269.66 1205.66 L269.66 675 L261.81 675" class="st10" />
		</g>
		<g id="shape69-358" transform="translate(459,-387)">
			
			<path d="M0 1188 L0 1205.66 L269.66 1205.66 L269.66 769.5 L261.81 769.5" class="st10" />
		</g>
		<g id="shape70-363" transform="translate(459,-387)">
			
			<path d="M0 1188 L0 1205.66 L269.66 1205.66 L269.66 868.5 L261.81 868.5" class="st10" />
		</g>
		<g id="shape71-368" transform="translate(459,-387)">
			
			<path d="M0 1188 L0 1205.66 L269.66 1205.66 L269.66 958.5 L261.81 958.5" class="st10" />
		</g>
		<g id="shape73-373" transform="translate(207,-1116)">
			
			<desc>Business process area</desc>
			<rect x="0" y="1152" width="279" height="36" class="st12" />
			<text x="4" y="1173.6" class="st13">Business process area</text>
		</g>
		<g id="shape74-376" transform="translate(121.5,-1134)">
			
			<path d="M-9 1188 L-9 1205.19" class="st10" />
		</g>
	</g>
</svg>
