<?xml version="1.0"?>
<svg xmlns="http://www.w3.org/2000/svg" xmlns:xlink="http://www.w3.org/1999/xlink" xmlns:ev="http://www.w3.org/2001/xml-events"    viewBox="18 18 740 756"    xml:space="preserve" color-interpolation-filters="sRGB" class="st14" width="1850" height="1890">
<rect x="0" y="0" width="1850" height="1890" fill="#ffffff" />
	<style type="text/css"><![CDATA[
		.st1 {fill:#d8d8d8;stroke:#548bd4;stroke-linecap:round;stroke-linejoin:round;stroke-width:0.24}
		.st2 {fill:#ffffff;stroke:#0078d4;stroke-linecap:round;stroke-linejoin:round;stroke-width:0.24}
		.st3 {fill:#000000;font-family:Calibri;font-size:1.00001em}
		.st4 {fill:#a0a0a0;stroke:none;stroke-linecap:round;stroke-linejoin:round;stroke-width:0.24}
		.st5 {fill:#ffffff;font-family:Calibri;font-size:1.00001em}
		.st6 {font-size:1em}
		.st7 {fill:#0078d4;stroke:none;stroke-linecap:round;stroke-linejoin:round;stroke-width:0.24}
		.st8 {fill:#ffffff}
		.st9 {stroke:#0078d4;stroke-linecap:round;stroke-linejoin:round;stroke-width:0.24}
		.st10 {marker-end:url(#mrkr13-62);stroke:#0078d4;stroke-linecap:round;stroke-linejoin:round;stroke-width:0.75}
		.st11 {fill:#0078d4;fill-opacity:1;stroke:#0078d4;stroke-opacity:1;stroke-width:0.22935779816514}
		.st12 {fill:none;stroke:none;stroke-linecap:round;stroke-linejoin:round;stroke-width:0.75}
		.st13 {fill:#0078d4;font-family:Calibri;font-size:0.833336em;font-weight:bold}
		.st14 {fill:none;fill-rule:evenodd;font-size:12px;overflow:visible;stroke-linecap:square;stroke-miterlimit:3}
	]]></style><style> a { pointer-events: none; } </style><style>a.rules_svg_anchor g:hover { opacity:0.8; cursor:pointer; }</style>
	<defs id="Markers">
		<g id="lend13">
			<path d="M 3 1 L 0 0 L 3 -1 L 3 1 " style="stroke:none" />
		</g>
		<marker id="mrkr13-62" class="st11" refX="-13.08" orient="auto" markerUnits="strokeWidth" overflow="visible">
			<use xlink:href="#lend13" transform="scale(-4.36,-4.36) " />
		</marker>
	</defs>
	<g>
		
		<g id="shape15-1" transform="translate(153,-414)">
			
			<rect x="0" y="432" width="414" height="756" class="st1" />
		</g>
		<g id="shape1-3" transform="translate(24.75,-1134)">
			
			<desc>Start</desc>
			<path d="M18 1188 L67.5 1188 A18 18 -180 0 0 67.5 1152 L18 1152 A18 18 -180 1 0 18 1188 Z" class="st2" />
			<text x="31.01" y="1173.6" class="st3">Start</text>
		</g>
		<a id="5bf9999b-4142-45ae-989e-bc1caa9c24b1" class="rules_svg_anchor rules_svg_shape"   href="/lms/chart?onclick=b3BlbkNoYXJ0Q29udGV4dE1lbnUoZXZlbnQsJ3cxMTJkNTIzNTk2NWMxNjgwMnY0MDY4JywxNjA4OCwgMSwgNCwgdGhpcywgd2luZG93LmZyYW1lRWxlbWVudCk=&amp;navigate=true&amp;details=Description">
			<g id="shape2-6" transform="translate(18,-1044)">
				
				<desc>10 Acquire to dispose</desc>
				<rect x="0" y="1125" width="99" height="63" class="st4" />
				<text x="16.76" y="1152.9" class="st5">10 Acquire to <tspan x="30.98" dy="1.2em" class="st6">dispose</tspan>
				</text>
			</g>
		</a>
		<a id="20d7117d-20b5-4a82-986f-e130844ee593" class="rules_svg_anchor rules_svg_shape"   href="/lms/chart?onclick=b3BlbkNoYXJ0Q29udGV4dE1lbnUoZXZlbnQsJ3cxMTJkNTIzNTk2NWMxNjg1MnY0MDY4JywxNjEyNiwgMSwgMSwgdGhpcywgd2luZG93LmZyYW1lRWxlbWVudCk=&amp;navigate=true&amp;details=Description">
			<g id="shape3-10" transform="translate(211.5,-1044)">
				
				<desc>10.60 Dispose of assets</desc>
				<rect x="0" y="1125" width="126" height="63" class="st7" />
				<text x="6.28" y="1160.1" class="st5">10.60 Dispose of assets</text>
			</g>
		</a>
		<g id="shape5-13" transform="translate(225,-936)">
			
			<desc>Scrap asset?</desc>
			<path d="M0 1156.5 L49.5 1125 L99 1156.5 L49.5 1188 L0 1156.5 Z" class="st7" />
			<text x="19.39" y="1160.1" class="st5">Scrap asset?</text>
		</g>
		<g id="shape6-16" transform="translate(225,-828)">
			
			<desc>Sell asset?</desc>
			<path d="M0 1156.5 L49.5 1125 L99 1156.5 L49.5 1188 L0 1156.5 Z" class="st7" />
			<text x="24.3" y="1160.1" class="st5">Sell asset?</text>
		</g>
		<g id="shape7-19" transform="translate(225,-720)">
			
			<desc>Replace asset?</desc>
			<path d="M0 1156.5 L49.5 1125 L99 1156.5 L49.5 1188 L0 1156.5 Z" class="st7" />
			<text x="13.63" y="1160.1" class="st5">Replace asset?</text>
		</g>
		<a id="60d48d68-cd86-42bd-8532-7d2045748bd2" class="rules_svg_anchor rules_svg_shape"   href="/lms/chart?onclick=b3BlbkNoYXJ0Q29udGV4dE1lbnUoZXZlbnQsJ3cxMTJkNTIzNTk2NWMxNjg1NHY0MDY4JywxNjEyNywgMSwgMSwgdGhpcywgd2luZG93LmZyYW1lRWxlbWVudCk=&amp;navigate=true&amp;details=Description">
			<g id="shape8-22" transform="translate(382.5,-936)">
				
				<desc>10.60.020 Scrap an asset</desc>
				<path d="M0 1188 L126 1188 L126 1125 L0 1125 L0 1188 Z" class="st8" />
				<path d="M0 1188 L126 1188 L126 1125 L0 1125 L0 1188" class="st9" />
				<path d="M9 1188 L9 1125" class="st9" />
				<path d="M117 1188 L117 1125" class="st9" />
				<text x="16.53" y="1152.9" class="st3">10.60.020 Scrap an <tspan x="50.44" dy="1.2em" class="st6">asset</tspan>
				</text>
			</g>
		</a>
		<a id="dab9336f-adc0-48e3-92e0-65313fac1327" class="rules_svg_anchor rules_svg_shape"   href="/lms/chart?onclick=b3BlbkNoYXJ0Q29udGV4dE1lbnUoZXZlbnQsJ3cxMTJkNTIzNTk2NWMxNjg1NXY0MDY4JywxNjEyOCwgMSwgMSwgdGhpcywgd2luZG93LmZyYW1lRWxlbWVudCk=&amp;navigate=true&amp;details=Description">
			<g id="shape9-29" transform="translate(382.5,-828)">
				
				<desc>10.60.030 Sell an asset</desc>
				<path d="M0 1188 L126 1188 L126 1125 L0 1125 L0 1188 Z" class="st8" />
				<path d="M0 1188 L126 1188 L126 1125 L0 1125 L0 1188" class="st9" />
				<path d="M9 1188 L9 1125" class="st9" />
				<path d="M117 1188 L117 1125" class="st9" />
				<text x="21.45" y="1152.9" class="st3">10.60.030 Sell an <tspan x="50.44" dy="1.2em" class="st6">asset</tspan>
				</text>
			</g>
		</a>
		<a id="040f0329-6104-419f-8ba7-f7961e5d9300" class="rules_svg_anchor rules_svg_shape"   href="/lms/chart?onclick=b3BlbkNoYXJ0Q29udGV4dE1lbnUoZXZlbnQsJ3cxMTJkNTIzNTk2NWMxNjg1NnY0MDY4JywxNjEyOSwgMSwgMSwgdGhpcywgd2luZG93LmZyYW1lRWxlbWVudCk=&amp;navigate=true&amp;details=Description">
			<g id="shape10-36" transform="translate(382.5,-720)">
				
				<desc>10.60.040 Replace an asset</desc>
				<path d="M0 1188 L126 1188 L126 1125 L0 1125 L0 1188 Z" class="st8" />
				<path d="M0 1188 L126 1188 L126 1125 L0 1125 L0 1188" class="st9" />
				<path d="M9 1188 L9 1125" class="st9" />
				<path d="M117 1188 L117 1125" class="st9" />
				<text x="18.16" y="1152.9" class="st3">10.60.040 Replace <tspan x="43.05" dy="1.2em" class="st6">an asset</tspan>
				</text>
			</g>
		</a>
		<a id="12aa8ac9-0ee1-4537-b236-6ca766d28153" class="rules_svg_anchor rules_svg_shape"   href="/lms/chart?onclick=b3BlbkNoYXJ0Q29udGV4dE1lbnUoZXZlbnQsJ3cxMTJkNTIzNTk2NWMxNzQxMnY0MDY4JywxNjU1NywgMSwgMSwgdGhpcywgd2luZG93LmZyYW1lRWxlbWVudCk=&amp;navigate=true&amp;details=Description">
			<g id="shape11-43" transform="translate(621,-936)">
				
				<desc>90 Record to report</desc>
				<rect x="0" y="1125" width="99" height="63" class="st4" />
				<text x="18.34" y="1152.9" class="st5">90 Record to <tspan x="34" dy="1.2em" class="st6">report</tspan>
				</text>
			</g>
		</a>
		<a id="4908d49f-5971-4b4b-9f06-b8682f360988" class="rules_svg_anchor rules_svg_shape"   href="/lms/chart?onclick=b3BlbkNoYXJ0Q29udGV4dE1lbnUoZXZlbnQsJ3cxMTJkNTIzNTk2NWMxNzE1NXY0MDY4JywxNjM3NiwgMSwgMSwgdGhpcywgd2luZG93LmZyYW1lRWxlbWVudCk=&amp;navigate=true&amp;details=Description">
			<g id="shape12-47" transform="translate(621,-828)">
				
				<desc>65 Order to cash</desc>
				<rect x="0" y="1125" width="99" height="63" class="st4" />
				<text x="8.97" y="1160.1" class="st5">65 Order to cash</text>
			</g>
		</a>
		<a id="03cbf19f-b473-49f5-8cdd-8c3f30462203" class="rules_svg_anchor rules_svg_shape"   href="/lms/chart?onclick=b3BlbkNoYXJ0Q29udGV4dE1lbnUoZXZlbnQsJ3cxMTJkNTIzNTk2NWMxNzA5M3Y0MDY4JywxNjMyNywgMSwgMSwgdGhpcywgd2luZG93LmZyYW1lRWxlbWVudCk=&amp;navigate=true&amp;details=Description">
			<g id="shape13-50" transform="translate(621,-720)">
				
				<desc>60 Inventory to deliver</desc>
				<rect x="0" y="1125" width="99" height="63" class="st4" />
				<text x="12.04" y="1152.9" class="st5">60 Inventory to <tspan x="32.82" dy="1.2em" class="st6">deliver</tspan>
				</text>
			</g>
		</a>
		<g id="shape14-54" transform="translate(407.25,-450)">
			
			<desc>End</desc>
			<path d="M18 1188 L67.5 1188 A18 18 -180 0 0 67.5 1152 L18 1152 A18 18 -180 1 0 18 1188 Z" class="st2" />
			<text x="33.52" y="1173.6" class="st3">End</text>
		</g>
		<g id="shape16-57" transform="translate(265.5,-1044)">
			
			<path d="M9 1188 L9 1223.19" class="st10" />
		</g>
		<g id="shape18-63" transform="translate(265.5,-936)">
			
			<path d="M9 1188 L9 1223.19" class="st10" />
		</g>
		<g id="shape19-68" transform="translate(265.5,-828)">
			
			<path d="M9 1188 L9 1223.19" class="st10" />
		</g>
		<g id="shape22-73" transform="translate(324,-958.5)">
			
			<path d="M0 1179 L48.69 1179" class="st10" />
		</g>
		<g id="shape23-78" transform="translate(324,-850.5)">
			
			<path d="M0 1179 L48.69 1179" class="st10" />
		</g>
		<g id="shape25-83" transform="translate(324,-742.5)">
			
			<path d="M0 1179 L48.69 1179" class="st10" />
		</g>
		<g id="shape26-88" transform="translate(58.5,-1134)">
			
			<path d="M9 1188 L9 1205.19" class="st10" />
		</g>
		<g id="shape27-93" transform="translate(117,-1066.5)">
			
			<path d="M0 1179 L84.69 1179" class="st10" />
		</g>
		<g id="shape29-98" transform="translate(508.5,-958.5)">
			
			<path d="M0 1179 L102.69 1179" class="st10" />
		</g>
		<g id="shape30-103" transform="translate(508.5,-850.5)">
			
			<path d="M0 1179 L102.69 1179" class="st10" />
		</g>
		<g id="shape33-108" transform="translate(508.5,-742.5)">
			
			<path d="M0 1179 L102.69 1179" class="st10" />
		</g>
		<g id="shape34-113" transform="translate(153,-1134)">
			
			<desc>Business process area</desc>
			<rect x="0" y="1152" width="306" height="36" class="st12" />
			<text x="4" y="1173" class="st13">Business process area</text>
		</g>
		<g id="shape36-116" transform="translate(720,-967.5)">
			
			<path d="M0 1188 L17.66 1188 L17.66 1687.5 L-217.44 1687.5" class="st10" />
		</g>
		<g id="shape37-121" transform="translate(720,-859.5)">
			
			<path d="M0 1188 L17.66 1188 L17.66 1579.5 L-217.44 1579.5" class="st10" />
		</g>
		<g id="shape38-126" transform="translate(720,-751.5)">
			
			<path d="M0 1188 L17.66 1188 L17.66 1471.5 L-217.44 1471.5" class="st10" />
		</g>
		<g id="shape39-131" transform="translate(227.25,-612)">
			
			<desc>Retire asset?</desc>
			<path d="M0 1156.5 L49.5 1125 L99 1156.5 L49.5 1188 L0 1156.5 Z" class="st7" />
			<text x="18.09" y="1160.1" class="st5">Retire asset?</text>
		</g>
		<a id="3c307275-8750-4c62-a2a8-41368fc93183" class="rules_svg_anchor rules_svg_shape"   href="/lms/chart?onclick=b3BlbkNoYXJ0Q29udGV4dE1lbnUoZXZlbnQsJ3cxMTJkNTIzNTk2NWMxMDUzMjd2NDA2OCcsMTYxMzAsIDEsIDEsIHRoaXMsIHdpbmRvdy5mcmFtZUVsZW1lbnQp&amp;navigate=true&amp;details=Description">
			<g id="shape40-134" transform="translate(384.75,-612)">
				
				<desc>10.60.050 Retire assets</desc>
				<path d="M0 1188 L126 1188 L126 1125 L0 1125 L0 1188 Z" class="st8" />
				<path d="M0 1188 L126 1188 L126 1125 L0 1125 L0 1188" class="st9" />
				<path d="M9 1188 L9 1125" class="st9" />
				<path d="M117 1188 L117 1125" class="st9" />
				<text x="22.62" y="1152.9" class="st3">10.60.050 Retire <tspan x="48.09" dy="1.2em" class="st6">assets</tspan>
				</text>
			</g>
		</a>
		<g id="shape41-141" transform="translate(326.25,-634.5)">
			
			<path d="M0 1179 L48.69 1179" class="st10" />
		</g>
		<g id="shape42-146" transform="translate(225,-517.5)">
			
			<desc>Decommission asset?</desc>
			<path d="M0 1156.5 L49.5 1125 L99 1156.5 L49.5 1188 L0 1156.5 Z" class="st7" />
			<text x="13.77" y="1152.9" class="st5">Decommission <tspan x="34.16" dy="1.2em" class="st6">asset?</tspan>
			</text>
		</g>
		<a id="cc3b347f-3adc-4470-808b-12e9f5ac86c6" class="rules_svg_anchor rules_svg_shape"   href="/lms/chart?onclick=b3BlbkNoYXJ0Q29udGV4dE1lbnUoZXZlbnQsJ3cxMTJkNTIzNTk2NWMxMDUzMjh2NDA2OCcsMTYxMzEsIDEsIDEsIHRoaXMsIHdpbmRvdy5mcmFtZUVsZW1lbnQp&amp;navigate=true&amp;details=Description">
			<g id="shape43-150" transform="translate(382.5,-517.5)">
				
				<desc>10.60.060 Decommission assets</desc>
				<path d="M0 1188 L126 1188 L126 1125 L0 1125 L0 1188 Z" class="st8" />
				<path d="M0 1188 L126 1188 L126 1125 L0 1125 L0 1188" class="st9" />
				<path d="M9 1188 L9 1125" class="st9" />
				<path d="M117 1188 L117 1125" class="st9" />
				<text x="38.68" y="1152.9" class="st3">10.60.060 <tspan x="11.01" dy="1.2em" class="st6">Decommission assets</tspan>
				</text>
			</g>
		</a>
		<g id="shape44-157" transform="translate(324,-540)">
			
			<path d="M0 1179 L48.69 1179" class="st10" />
		</g>
		<g id="shape45-162" transform="translate(266.625,-720.716)">
			
			<path d="M9 1188 L9 1224.62" class="st10" />
		</g>
		<g id="shape46-167" transform="translate(266.625,-612.716)">
			
			<path d="M9 1188 L9 1211.12" class="st10" />
		</g>
		<g id="shape47-172" transform="translate(274.5,-517.5)">
			
			<path d="M0 1188 L0 1237.5 L122.94 1237.5" class="st10" />
		</g>
	</g>
</svg>
