<?xml version="1.0" encoding="UTF-8" standalone="no"?>
<svg
   width="1712.4829"
   height="1536.7478"
   overflow="hidden"
   version="1.1"
   id="svg154"
   sodipodi:docname="aquire-to-dispose-manage-internal-assets.svg"
   inkscape:version="1.2.2 (732a01da63, 2022-12-09)"
   xmlns:inkscape="http://www.inkscape.org/namespaces/inkscape"
   xmlns:sodipodi="http://sodipodi.sourceforge.net/DTD/sodipodi-0.dtd"
   xmlns="http://www.w3.org/2000/svg"
   xmlns:svg="http://www.w3.org/2000/svg">
  <defs
     id="defs158" />
  <sodipodi:namedview
     id="namedview156"
     pagecolor="#ffffff"
     bordercolor="#000000"
     borderopacity="0.25"
     inkscape:showpageshadow="2"
     inkscape:pageopacity="0.0"
     inkscape:pagecheckerboard="0"
     inkscape:deskcolor="#d1d1d1"
     showgrid="false"
     inkscape:zoom="0.53489583"
     inkscape:cx="747.80915"
     inkscape:cy="945.97858"
     inkscape:window-width="3840"
     inkscape:window-height="2054"
     inkscape:window-x="2725"
     inkscape:window-y="-11"
     inkscape:window-maximized="1"
     inkscape:current-layer="svg154" />
  <g
     id="g152"
     transform="translate(-166.38754,-13.08666)">
    <rect
       x="166.38754"
       y="13.08666"
       width="1712.4829"
       height="1536.7478"
       fill="#ffffff"
       id="rect2"
       style="stroke-width:0.844915" />
    <rect
       x="525"
       y="26"
       width="1048"
       height="1441"
       stroke="#0078d4"
       stroke-width="2"
       stroke-linejoin="round"
       stroke-miterlimit="10"
       fill="#d9d9d9"
       id="rect4" />
    <text
       fill="#0078d4"
       font-family="'Segoe UI', 'Segoe UI_MSFontService', sans-serif"
       font-weight="700"
       font-size="24px"
       transform="translate(554.274,72)"
       id="text6">Business process area</text>
    <path
       d="M 188,68.5 C 188,48.3416 204.342,32 224.5,32 h 138 c 20.158,0 36.5,16.3416 36.5,36.5 v 0 c 0,20.1584 -16.342,36.5 -36.5,36.5 h -138 C 204.342,105 188,88.6584 188,68.5 Z"
       stroke="#0078d4"
       stroke-width="2"
       stroke-linejoin="round"
       stroke-miterlimit="10"
       fill="none"
       fill-rule="evenodd"
       id="path8" />
    <text
       font-family="'Segoe UI', 'Segoe UI_MSFontService', sans-serif"
       font-weight="400"
       font-size="24px"
       transform="translate(268.796,77)"
       id="text10">Start</text>
    <rect
       x="188"
       y="152"
       width="211"
       height="153"
       stroke="#000000"
       stroke-width="2"
       stroke-linejoin="round"
       stroke-miterlimit="10"
       fill="#a0a0a0"
       id="rect12" />
    <text
       fill="#ffffff"
       font-family="'Segoe UI', 'Segoe UI_MSFontService', sans-serif"
       font-weight="400"
       font-size="24px"
       transform="translate(239.005,223)"
       id="text14">Acquire to</text>
    <text
       fill="#ffffff"
       font-family="'Segoe UI', 'Segoe UI_MSFontService', sans-serif"
       font-weight="400"
       font-size="24px"
       transform="translate(253.092,252)"
       id="text16">dispose</text>
    <path
       d="M 1,-4.48434e-6 1.00018,40.1571 h -2 L -1,4.48434e-6 Z M 4.00017,38.8237 l -3.999960026,8 -4.000039974,-8 z"
       fill="#0078d4"
       transform="matrix(-1,0,0,1,294,105)"
       id="path18" />
    <rect
       x="956"
       y="384"
       width="252"
       height="153"
       fill="#ffffff"
       id="rect20" />
    <path
       d="m 987.5,384 v 153 m 189,-153 v 153"
       stroke="#0078d4"
       stroke-width="2"
       stroke-linejoin="round"
       stroke-miterlimit="10"
       fill="none"
       fill-rule="evenodd"
       id="path22" />
    <rect
       x="956"
       y="384"
       width="252"
       height="153"
       stroke="#0078d4"
       stroke-width="2"
       stroke-linejoin="round"
       stroke-miterlimit="10"
       fill="none"
       id="rect24" />
    <text
       font-family="'Segoe UI', 'Segoe UI_MSFontService', sans-serif"
       font-weight="400"
       font-size="24px"
       transform="translate(1024.47,440)"
       id="text26">Create and</text>
    <text
       font-family="'Segoe UI', 'Segoe UI_MSFontService', sans-serif"
       font-weight="400"
       font-size="24px"
       transform="translate(1035.71,469)"
       id="text28">maintain</text>
    <text
       font-family="'Segoe UI', 'Segoe UI_MSFontService', sans-serif"
       font-weight="400"
       font-size="24px"
       transform="translate(1021.31,498)"
       id="text30">fixed assets</text>
    <rect
       x="956"
       y="152"
       width="252"
       height="153"
       stroke="#00569b"
       stroke-width="2"
       stroke-linejoin="round"
       stroke-miterlimit="10"
       fill="#0078d4"
       id="rect32" />
    <text
       fill="#ffffff"
       font-family="'Segoe UI', 'Segoe UI_MSFontService', sans-serif"
       font-weight="400"
       font-size="24px"
       transform="translate(995.58,222)"
       id="text34">Manage internal</text>
    <text
       fill="#ffffff"
       font-family="'Segoe UI', 'Segoe UI_MSFontService', sans-serif"
       font-weight="400"
       font-size="24px"
       transform="translate(1055.05,251)"
       id="text36">asset</text>
    <rect
       x="956"
       y="1121"
       width="252"
       height="153"
       fill="#ffffff"
       id="rect38" />
    <path
       d="m 987.5,1121 v 153 m 189,-153 v 153"
       stroke="#0078d4"
       stroke-width="2"
       stroke-linejoin="round"
       stroke-miterlimit="10"
       fill="none"
       fill-rule="evenodd"
       id="path40" />
    <rect
       x="956"
       y="1121"
       width="252"
       height="153"
       stroke="#0078d4"
       stroke-width="2"
       stroke-linejoin="round"
       stroke-miterlimit="10"
       fill="none"
       id="rect42" />
    <text
       font-family="'Segoe UI', 'Segoe UI_MSFontService', sans-serif"
       font-weight="400"
       font-size="24px"
       transform="translate(1042.82,1163)"
       id="text44">Update</text>
    <text
       font-family="'Segoe UI', 'Segoe UI_MSFontService', sans-serif"
       font-weight="400"
       font-size="24px"
       transform="translate(1054.97,1192)"
       id="text46">asset</text>
    <text
       font-family="'Segoe UI', 'Segoe UI_MSFontService', sans-serif"
       font-weight="400"
       font-size="24px"
       transform="translate(1021.23,1221)"
       id="text48">operational</text>
    <text
       font-family="'Segoe UI', 'Segoe UI_MSFontService', sans-serif"
       font-weight="400"
       font-size="24px"
       transform="translate(1019.83,1250)"
       id="text50">information</text>
    <rect
       x="956"
       y="854"
       width="252"
       height="153"
       fill="#ffffff"
       id="rect52" />
    <path
       d="m 987.5,854 v 153 m 189,-153 v 153"
       stroke="#0078d4"
       stroke-width="2"
       stroke-linejoin="round"
       stroke-miterlimit="10"
       fill="none"
       fill-rule="evenodd"
       id="path54" />
    <rect
       x="956"
       y="854"
       width="252"
       height="153"
       stroke="#0078d4"
       stroke-width="2"
       stroke-linejoin="round"
       stroke-miterlimit="10"
       fill="none"
       id="rect56" />
    <text
       font-family="'Segoe UI', 'Segoe UI_MSFontService', sans-serif"
       font-weight="400"
       font-size="24px"
       transform="translate(1033.47,925)"
       id="text58">Insure an</text>
    <text
       font-family="'Segoe UI', 'Segoe UI_MSFontService', sans-serif"
       font-weight="400"
       font-size="24px"
       transform="translate(1054.97,954)"
       id="text60">asset</text>
    <rect
       x="1283"
       y="1121"
       width="252"
       height="153"
       fill="#ffffff"
       id="rect62" />
    <path
       d="m 1314.5,1121 v 153 m 189,-153 v 153"
       stroke="#0078d4"
       stroke-width="2"
       stroke-linejoin="round"
       stroke-miterlimit="10"
       fill="none"
       fill-rule="evenodd"
       id="path64" />
    <rect
       x="1283"
       y="1121"
       width="252"
       height="153"
       stroke="#0078d4"
       stroke-width="2"
       stroke-linejoin="round"
       stroke-miterlimit="10"
       fill="none"
       id="rect66" />
    <text
       font-family="'Segoe UI', 'Segoe UI_MSFontService', sans-serif"
       font-weight="400"
       font-size="24px"
       transform="translate(1367.5,1192)"
       id="text68">Transfer</text>
    <text
       font-family="'Segoe UI', 'Segoe UI_MSFontService', sans-serif"
       font-weight="400"
       font-size="24px"
       transform="translate(1377.3,1221)"
       id="text70">assets</text>
    <rect
       x="956"
       y="645"
       width="252"
       height="153"
       fill="#ffffff"
       id="rect72" />
    <path
       d="m 987.5,645 v 153 m 189,-153 v 153"
       stroke="#0078d4"
       stroke-width="2"
       stroke-linejoin="round"
       stroke-miterlimit="10"
       fill="none"
       fill-rule="evenodd"
       id="path74" />
    <rect
       x="956"
       y="645"
       width="252"
       height="153"
       stroke="#0078d4"
       stroke-width="2"
       stroke-linejoin="round"
       stroke-miterlimit="10"
       fill="none"
       id="rect76" />
    <text
       font-family="'Segoe UI', 'Segoe UI_MSFontService', sans-serif"
       font-weight="400"
       font-size="24px"
       transform="translate(1042.89,716)"
       id="text78">Update</text>
    <text
       font-family="'Segoe UI', 'Segoe UI_MSFontService', sans-serif"
       font-weight="400"
       font-size="24px"
       transform="translate(1017.38,745)"
       id="text80">asset details</text>
    <path
       d="M 3.20793e-5,-1 549.698,-0.982366 549.697,1.01763 -3.20793e-5,1 Z M 548.365,-3.98241 l 8,4.0002578 -8.001,3.9997422 z"
       fill="#0078d4"
       transform="matrix(1,0,0,-1,399,228.018)"
       id="path82" />
    <path
       d="m 0,-1 h 39.5369 c 0.5523,0 1,0.447715 1,1 v 4.19947e-4 l -1,-0.999999947 H 72.407 v 2 H 39.5369 c -0.5523,0 -1,-0.447715 -1,-1.000000053 V 0 l 1,1 H 0 Z m 71.0737,-2.99958 8,3.999999947 -8,4.000000053 z"
       transform="matrix(0,1,1,0,1082,305)"
       id="path84" />
    <rect
       x="1661"
       y="847"
       width="211"
       height="154"
       stroke="#000000"
       stroke-width="2"
       stroke-linejoin="round"
       stroke-miterlimit="10"
       fill="#a0a0a0"
       id="rect86" />
    <text
       fill="#ffffff"
       font-family="'Segoe UI', 'Segoe UI_MSFontService', sans-serif"
       font-weight="400"
       font-size="24px"
       transform="translate(1727.64,918)"
       id="text88">Case to</text>
    <text
       fill="#ffffff"
       font-family="'Segoe UI', 'Segoe UI_MSFontService', sans-serif"
       font-weight="400"
       font-size="24px"
       transform="translate(1713.96,947)"
       id="text90">resolution</text>
    <rect
       x="1651"
       y="152"
       width="212"
       height="153"
       stroke="#000000"
       stroke-width="2"
       stroke-linejoin="round"
       stroke-miterlimit="10"
       fill="#a0a0a0"
       id="rect92" />
    <text
       fill="#ffffff"
       font-family="'Segoe UI', 'Segoe UI_MSFontService', sans-serif"
       font-weight="400"
       font-size="24px"
       transform="translate(1690.38,237)"
       id="text94">Hire to retire</text>
    <path
       d="m 1083,798 v 49.385 h -2 V 798 Z m 3,48.051 -4,8 -4,-8 z"
       fill="#0078d4"
       id="path96" />
    <path
       d="m 1208,1196 h 68.73 v 2 H 1208 Z m 67.4,-3 8,4 -8,4 z"
       fill="#0078d4"
       id="path98" />
    <rect
       x="1657"
       y="498"
       width="212"
       height="153"
       stroke="#000000"
       stroke-width="2"
       stroke-linejoin="round"
       stroke-miterlimit="10"
       fill="#a0a0a0"
       id="rect100" />
    <text
       fill="#ffffff"
       font-family="'Segoe UI', 'Segoe UI_MSFontService', sans-serif"
       font-weight="400"
       font-size="24px"
       transform="translate(1712.13,569)"
       id="text102">Record to</text>
    <text
       fill="#ffffff"
       font-family="'Segoe UI', 'Segoe UI_MSFontService', sans-serif"
       font-weight="400"
       font-size="24px"
       transform="translate(1730.19,598)"
       id="text104">report</text>
    <path
       d="m 976,1396 c 0,-19.88 16.118,-36 36,-36 h 139 c 19.88,0 36,16.12 36,36 v 0 c 0,19.88 -16.12,36 -36,36 h -139 c -19.882,0 -36,-16.12 -36,-36 z"
       stroke="#0078d4"
       stroke-width="2"
       stroke-linejoin="round"
       stroke-miterlimit="10"
       fill="#ffffff"
       fill-rule="evenodd"
       id="path106" />
    <text
       font-family="'Segoe UI', 'Segoe UI_MSFontService', sans-serif"
       font-weight="400"
       font-size="24px"
       transform="translate(1061.64,1405)"
       id="text108">End</text>
    <path
       d="M 1,-7.81407e-6 1.00079,100.818 H -0.999212 L -1,7.81407e-6 Z M 4.00078,99.4849 8.39895e-4,107.485 -3.99922,99.485 Z"
       fill="#0078d4"
       transform="matrix(-1,0,0,1,1082,537)"
       id="path110" />
    <path
       d="m 1083,1007 v 106.58 h -2 V 1007 Z m 3,105.25 -4,8 -4,-8 z"
       fill="#0078d4"
       id="path112" />
    <path
       d="m 1208.5,931 h 201.4 c 0.28,0 0.5,0.224 0.5,0.5 v 183.22 h -1 V 931.5 l 0.5,0.5 h -201.4 z m 205.4,182.39 -4,8 -4,-8 z"
       fill="#0078d4"
       id="path114" />
    <path
       d="m 1083,1274 v 79.03 h -2 V 1274 Z m 3,77.69 -4,8 -4,-8 z"
       fill="#0078d4"
       id="path116" />
    <path
       d="m 1409.72,1274.5 v 122.08 c 0,0.28 -0.22,0.5 -0.5,0.5 h -215.05 v -1 h 215.05 l -0.5,0.5 V 1274.5 Z m -214.22,126.08 -8,-4 8,-4 z"
       fill="#0078d4"
       id="path118" />
    <rect
       x="188"
       y="948"
       width="211"
       height="154"
       stroke="#000000"
       stroke-width="2"
       stroke-linejoin="round"
       stroke-miterlimit="10"
       fill="#a0a0a0"
       id="rect120" />
    <text
       fill="#ffffff"
       font-family="'Segoe UI', 'Segoe UI_MSFontService', sans-serif"
       font-weight="400"
       font-size="24px"
       transform="translate(235.344,1019)"
       id="text122">Forecast to</text>
    <text
       fill="#ffffff"
       font-family="'Segoe UI', 'Segoe UI_MSFontService', sans-serif"
       font-weight="400"
       font-size="24px"
       transform="translate(270.678,1048)"
       id="text124">plan</text>
    <rect
       x="188"
       y="669"
       width="211"
       height="154"
       stroke="#000000"
       stroke-width="2"
       stroke-linejoin="round"
       stroke-miterlimit="10"
       fill="#a0a0a0"
       id="rect126" />
    <text
       fill="#ffffff"
       font-family="'Segoe UI', 'Segoe UI_MSFontService', sans-serif"
       font-weight="400"
       font-size="24px"
       transform="translate(242.678,740)"
       id="text128">Project to</text>
    <text
       fill="#ffffff"
       font-family="'Segoe UI', 'Segoe UI_MSFontService', sans-serif"
       font-weight="400"
       font-size="24px"
       transform="translate(264.884,769)"
       id="text130">profit</text>
    <rect
       x="188"
       y="382"
       width="211"
       height="153"
       stroke="#000000"
       stroke-width="2"
       stroke-linejoin="round"
       stroke-miterlimit="10"
       fill="#a0a0a0"
       id="rect132" />
    <text
       fill="#ffffff"
       font-family="'Segoe UI', 'Segoe UI_MSFontService', sans-serif"
       font-weight="400"
       font-size="24px"
       transform="translate(216.825,467)"
       id="text134">Procure to pay</text>
    <path
       d="m 956.5,1198 h -23.999 l 0.5,-0.5 v 338.67 l -0.5,-0.5 h 673.559 v 1 H 932.501 c -0.276,0 -0.5,-0.22 -0.5,-0.5 V 1197.5 c 0,-0.28 0.224,-0.5 0.5,-0.5 H 956.5 Z m 648.23,334.17 8,4 -8,4 z"
       fill="#0078d4"
       id="path136" />
    <path
       d="M 1610,1538.17 V 576.5 c 0,-0.276 0.22,-0.5 0.5,-0.5 h 38.91 v 1 h -38.91 l 0.5,-0.5 v 961.67 z m 38.08,-965.67 8,4 -8,4 z"
       fill="#0078d4"
       id="path138" />
    <path
       d="m 1610,923 h 44.19 v 2 H 1610 Z m 42.85,-3 8,4 -8,4 z"
       fill="#0078d4"
       id="path140" />
    <path
       d="M 1610,576.182 V 228.5 c 0,-0.276 0.22,-0.5 0.5,-0.5 h 34.54 v 1 h -34.54 l 0.5,-0.5 v 347.682 z m 33.71,-351.682 8,4 -8,4 z"
       fill="#0078d4"
       id="path142" />
    <path
       d="m 0,-0.5 h 61.2056 c 0.2762,0 0.5,0.223858 0.5,0.5 v 623.002 l -0.5,-0.5 h 54.5384 v 1 H 61.2056 c -0.2761,0 -0.5,-0.224 -0.5,-0.5 V 0 l 0.5,0.5 H 0 Z m 114.411,619.502 8,4 -8,4 z"
       fill="#0078d4"
       transform="matrix(1,0,0,-1,1535.5,1199.5)"
       id="path144" />
    <path
       d="m 399.004,457 549.698,2.399 -0.009,2 L 398.996,459 Z m 548.378,-0.606 7.983,4.034 -8.018,3.965 z"
       fill="#0078d4"
       id="path146" />
    <path
       d="M 955.793,1198.2 H 677.647 c -0.277,0 -0.5,-0.23 -0.5,-0.5 V 746.5 l 0.5,0.5 h -271.48 v -1 h 271.48 c 0.276,0 0.5,0.224 0.5,0.5 v 451.2 l -0.5,-0.5 H 955.793 Z M 407.5,750.5 l -8,-4 8,-4 z"
       fill="#0078d4"
       id="path148" />
    <path
       d="M 943.595,1198.33 H 678.283 c -0.276,0 -0.5,-0.23 -0.5,-0.5 V 1025.5 l 0.5,0.5 H 406.167 v -1 h 272.116 c 0.276,0 0.5,0.22 0.5,0.5 v 172.33 l -0.5,-0.5 H 943.595 Z M 407.5,1029.5 l -8,-4 8,-4 z"
       fill="#0078d4"
       id="path150" />
  </g>
</svg>
