<svg width="1920" height="1920" xmlns="http://www.w3.org/2000/svg" xmlns:xlink="http://www.w3.org/1999/xlink" overflow="hidden"><g><rect x="0" y="0" width="1920" height="1920" fill="#FFFFFF"/><rect x="367" y="126" width="1205" height="1757" stroke="#0078D4" stroke-width="2" stroke-linejoin="round" stroke-miterlimit="10" fill="#D9D9D9"/><text fill="#0078D4" font-family="Segoe UI,Segoe UI_MSFontService,sans-serif" font-weight="700" font-size="27" transform="translate(396.276 175)">Business process area</text><path d="M124 83.5C124 63.3416 140.342 47 160.5 47L299.5 47C319.658 47 336 63.3416 336 83.5L336 83.5C336 103.658 319.658 120 299.5 120L160.5 120C140.342 120 124 103.658 124 83.5Z" stroke="#0078D4" stroke-width="2" stroke-linejoin="round" stroke-miterlimit="10" fill="none" fill-rule="evenodd"/><text font-family="Segoe UI,Segoe UI_MSFontService,sans-serif" font-weight="400" font-size="19" transform="translate(210.765 90)">Start</text><rect x="124" y="153" width="212" height="86" stroke="#000000" stroke-width="2" stroke-linejoin="round" stroke-miterlimit="10" fill="#A0A0A0"/><text fill="#FFFFFF" font-family="Segoe UI,Segoe UI_MSFontService,sans-serif" font-weight="400" font-size="19" transform="translate(153.265 203)">Acquire to dispose</text><path d="M1-3.18055e-06 1.00008 26.3424-0.999916 26.3424-1 3.18055e-06ZM4.00008 25.009 0.000104987 33.009-3.99992 25.009Z" fill="#0078D4" transform="matrix(-1 0 0 1 230 120)"/><rect x="844" y="273" width="252" height="130" fill="#FFFFFF"/><path d="M875.5 273 875.5 403M1064.5 273 1064.5 403" stroke="#0078D4" stroke-width="2" stroke-linejoin="round" stroke-miterlimit="10" fill="none" fill-rule="evenodd"/><rect x="844" y="273" width="252" height="130" stroke="#0078D4" stroke-width="2" stroke-linejoin="round" stroke-miterlimit="10" fill="none"/><text font-family="Segoe UI,Segoe UI_MSFontService,sans-serif" font-weight="400" font-size="19" transform="translate(919.468 323)">Define asset</text><text font-family="Segoe UI,Segoe UI_MSFontService,sans-serif" font-weight="400" font-size="19" transform="translate(924.135 346)">accounting</text><text font-family="Segoe UI,Segoe UI_MSFontService,sans-serif" font-weight="400" font-size="19" transform="translate(944.555 368)">books</text><rect x="844" y="141" width="252" height="105" stroke="#00569B" stroke-width="2" stroke-linejoin="round" stroke-miterlimit="10" fill="#0078D4"/><text fill="#FFFFFF" font-family="Segoe UI,Segoe UI_MSFontService,sans-serif" font-weight="400" font-size="19" transform="translate(876.404 189)">Manage and report on</text><text fill="#FFFFFF" font-family="Segoe UI,Segoe UI_MSFontService,sans-serif" font-weight="400" font-size="19" transform="translate(908.297 212)">asset financials</text><path d="M0.00512081-0.999987 501.31 1.56713 501.3 3.56711-0.00512081 0.999987ZM499.993-1.43965 507.972 2.60126 499.952 6.56024Z" fill="#0078D4" transform="matrix(1 0 0 -1 336 195.601)"/><path d="M0-1 13.8322-1C14.3845-1 14.8322-0.552285 14.8322 0L14.8322 0.00125984 13.8322-0.99874 20.9977-0.99874 20.9977 1.00126 13.8322 1.00126C13.2799 1.00126 12.8322 0.553545 12.8322 0.00125984L12.8322 0 13.8322 1 0 1ZM19.6644-3.99874 27.6644 0.00125984 19.6644 4.00126Z" fill="#0078D4" transform="matrix(1.83697e-16 1 1 -1.83697e-16 970 246)"/><path d="M913 1764.5C913 1747.66 926.655 1734 943.5 1734L1011.5 1734C1028.34 1734 1042 1747.66 1042 1764.5L1042 1764.5C1042 1781.34 1028.34 1795 1011.5 1795L943.5 1795C926.655 1795 913 1781.34 913 1764.5Z" stroke="#0078D4" stroke-width="2" stroke-linejoin="round" stroke-miterlimit="10" fill="#FFFFFF" fill-rule="evenodd"/><text font-family="Segoe UI,Segoe UI_MSFontService,sans-serif" font-weight="400" font-size="19" transform="translate(962.195 1771)">End</text><rect x="844" y="427" width="252" height="130" fill="#FFFFFF"/><path d="M875.5 427 875.5 557M1064.5 427 1064.5 557" stroke="#0078D4" stroke-width="2" stroke-linejoin="round" stroke-miterlimit="10" fill="none" fill-rule="evenodd"/><rect x="844" y="427" width="252" height="130" stroke="#0078D4" stroke-width="2" stroke-linejoin="round" stroke-miterlimit="10" fill="none"/><text font-family="Segoe UI,Segoe UI_MSFontService,sans-serif" font-weight="400" font-size="19" transform="translate(942.884 454)">Define</text><text font-family="Segoe UI,Segoe UI_MSFontService,sans-serif" font-weight="400" font-size="19" transform="translate(918.258 477)">depreciation</text><text font-family="Segoe UI,Segoe UI_MSFontService,sans-serif" font-weight="400" font-size="19" transform="translate(954.217 499)">and</text><text font-family="Segoe UI,Segoe UI_MSFontService,sans-serif" font-weight="400" font-size="19" transform="translate(917.364 521)">amortization</text><text font-family="Segoe UI,Segoe UI_MSFontService,sans-serif" font-weight="400" font-size="19" transform="translate(938.717 544)">policies</text><rect x="553" y="720" width="252" height="130" fill="#FFFFFF"/><path d="M584.5 720 584.5 850M773.5 720 773.5 850" stroke="#0078D4" stroke-width="2" stroke-linejoin="round" stroke-miterlimit="10" fill="none" fill-rule="evenodd"/><rect x="553" y="720" width="252" height="130" stroke="#0078D4" stroke-width="2" stroke-linejoin="round" stroke-miterlimit="10" fill="none"/><text font-family="Segoe UI,Segoe UI_MSFontService,sans-serif" font-weight="400" font-size="19" transform="translate(634.211 781)">Define and</text><text font-family="Segoe UI,Segoe UI_MSFontService,sans-serif" font-weight="400" font-size="19" transform="translate(629.544 804)">Adjust lease</text><path d="M971.001 403 971.001 414.957C971.001 415.509 970.553 415.957 970.001 415.957L970 415.957 971 414.957 971 420.247 969 420.247 969 414.957C969 414.405 969.448 413.957 970 413.957L970.001 413.957 969.001 414.957 969.001 403ZM974 418.914 970 426.914 966 418.914Z" fill="#0078D4"/><rect x="1146" y="752" width="252" height="130" fill="#FFFFFF"/><path d="M1177.5 752 1177.5 882M1366.5 752 1366.5 882" stroke="#0078D4" stroke-width="2" stroke-linejoin="round" stroke-miterlimit="10" fill="none" fill-rule="evenodd"/><rect x="1146" y="752" width="252" height="130" stroke="#0078D4" stroke-width="2" stroke-linejoin="round" stroke-miterlimit="10" fill="none"/><text font-family="Segoe UI,Segoe UI_MSFontService,sans-serif" font-weight="400" font-size="19" transform="translate(1222.48 812)">Revalue and</text><text font-family="Segoe UI,Segoe UI_MSFontService,sans-serif" font-weight="400" font-size="19" transform="translate(1219.97 835)">adjust assets</text><rect x="553" y="860" width="252" height="129" fill="#FFFFFF"/><path d="M584.5 860 584.5 989M773.5 860 773.5 989" stroke="#0078D4" stroke-width="2" stroke-linejoin="round" stroke-miterlimit="10" fill="none" fill-rule="evenodd"/><rect x="553" y="860" width="252" height="129" stroke="#0078D4" stroke-width="2" stroke-linejoin="round" stroke-miterlimit="10" fill="none"/><text font-family="Segoe UI,Segoe UI_MSFontService,sans-serif" font-weight="400" font-size="19" transform="translate(627.01 920)">Record lease</text><text font-family="Segoe UI,Segoe UI_MSFontService,sans-serif" font-weight="400" font-size="19" transform="translate(641.377 943)">expenses</text><rect x="553" y="999" width="252" height="130" fill="#FFFFFF"/><path d="M584.5 999 584.5 1129M773.5 999 773.5 1129" stroke="#0078D4" stroke-width="2" stroke-linejoin="round" stroke-miterlimit="10" fill="none" fill-rule="evenodd"/><rect x="553" y="999" width="252" height="130" stroke="#0078D4" stroke-width="2" stroke-linejoin="round" stroke-miterlimit="10" fill="none"/><text font-family="Segoe UI,Segoe UI_MSFontService,sans-serif" font-weight="400" font-size="19" transform="translate(627.627 1059)">Accrue lease</text><text font-family="Segoe UI,Segoe UI_MSFontService,sans-serif" font-weight="400" font-size="19" transform="translate(639.167 1082)">payments</text><rect x="1146" y="951" width="252" height="129" fill="#FFFFFF"/><path d="M1177.5 951 1177.5 1080M1366.5 951 1366.5 1080" stroke="#0078D4" stroke-width="2" stroke-linejoin="round" stroke-miterlimit="10" fill="none" fill-rule="evenodd"/><rect x="1146" y="951" width="252" height="129" stroke="#0078D4" stroke-width="2" stroke-linejoin="round" stroke-miterlimit="10" fill="none"/><text font-family="Segoe UI,Segoe UI_MSFontService,sans-serif" font-weight="400" font-size="19" transform="translate(1234.79 978)">Generate</text><text font-family="Segoe UI,Segoe UI_MSFontService,sans-serif" font-weight="400" font-size="19" transform="translate(1220.84 1001)">depreciation</text><text font-family="Segoe UI,Segoe UI_MSFontService,sans-serif" font-weight="400" font-size="19" transform="translate(1256.8 1023)">and</text><text font-family="Segoe UI,Segoe UI_MSFontService,sans-serif" font-weight="400" font-size="19" transform="translate(1219.95 1045)">amortization</text><text font-family="Segoe UI,Segoe UI_MSFontService,sans-serif" font-weight="400" font-size="19" transform="translate(1244.55 1068)">entries</text><rect x="1146" y="1149" width="252" height="130" fill="#FFFFFF"/><path d="M1177.5 1149 1177.5 1279M1366.5 1149 1366.5 1279" stroke="#0078D4" stroke-width="2" stroke-linejoin="round" stroke-miterlimit="10" fill="none" fill-rule="evenodd"/><rect x="1146" y="1149" width="252" height="130" stroke="#0078D4" stroke-width="2" stroke-linejoin="round" stroke-miterlimit="10" fill="none"/><text font-family="Segoe UI,Segoe UI_MSFontService,sans-serif" font-weight="400" font-size="19" transform="translate(1224.18 1176)">Correct and</text><text font-family="Segoe UI,Segoe UI_MSFontService,sans-serif" font-weight="400" font-size="19" transform="translate(1247.38 1199)">adjust</text><text font-family="Segoe UI,Segoe UI_MSFontService,sans-serif" font-weight="400" font-size="19" transform="translate(1220.84 1221)">depreciation</text><text font-family="Segoe UI,Segoe UI_MSFontService,sans-serif" font-weight="400" font-size="19" transform="translate(1256.8 1243)">and</text><text font-family="Segoe UI,Segoe UI_MSFontService,sans-serif" font-weight="400" font-size="19" transform="translate(1219.95 1266)">amortization</text><path d="M971.939 700 971.939 709.997C971.939 710.549 971.491 710.997 970.939 710.997L679 710.997 680 709.997 680 713.327 678 713.327 678 709.997C678 709.444 678.448 708.997 679 708.997L970.939 708.997 969.939 709.997 969.939 700ZM683 711.993 679 719.993 675 711.993Z" fill="#0078D4"/><path d="M0-1 25.8688-1C26.4211-1 26.8688-0.552285 26.8688 0L26.8688 301.237 25.8688 300.237 45.071 300.237 45.071 302.237 25.8688 302.237C25.3165 302.237 24.8688 301.789 24.8688 301.237L24.8688 0 25.8688 1 0 1ZM43.7376 297.237 51.7376 301.237 43.7376 305.237Z" fill="#0078D4" transform="matrix(1.83697e-16 1 1 -1.83697e-16 971 700)"/><path d="M680 850.5 680 853.428 679 853.428 679 850.5ZM683.5 852.095 679.5 860.095 675.5 852.095Z" fill="#0078D4"/><path d="M680 989.5 680 992.428 679 992.428 679 989.5ZM683.5 991.095 679.5 999.095 675.5 991.095Z" fill="#0078D4"/><rect x="108" y="1715" width="211" height="91" stroke="#000000" stroke-width="2" stroke-linejoin="round" stroke-miterlimit="10" fill="#A0A0A0"/><text fill="#FFFFFF" font-family="Segoe UI,Segoe UI_MSFontService,sans-serif" font-weight="400" font-size="19" transform="translate(145.211 1767)">Record to report</text><path d="M1273 882.5 1273 944.742 1272 944.742 1272 882.5ZM1276.5 943.409 1272.5 951.409 1268.5 943.409Z" fill="#0078D4"/><path d="M1273 1080.5 1273 1142.74 1272 1142.74 1272 1080.5ZM1276.5 1141.41 1272.5 1149.41 1268.5 1141.41Z" fill="#0078D4"/><path d="M214 1806.45 214 1859.02 213 1858.02 977.294 1858.02 976.294 1859.02 976.294 1801.67 978.294 1801.67 978.294 1859.02C978.294 1859.57 977.846 1860.02 977.294 1860.02L213 1860.02C212.448 1860.02 212 1859.57 212 1859.02L212 1806.45ZM973.294 1803 977.294 1795 981.294 1803Z" fill="#0078D4"/><path d="M805.517 1761 907.122 1764.46 907.088 1765.46 805.483 1762ZM905.908 1760.92 913.767 1765.19 905.636 1768.91Z" fill="#0078D4"/><rect x="1642" y="1743" width="212" height="91" stroke="#000000" stroke-width="2" stroke-linejoin="round" stroke-miterlimit="10" fill="#A0A0A0"/><text fill="#FFFFFF" font-family="Segoe UI,Segoe UI_MSFontService,sans-serif" font-weight="400" font-size="19" transform="translate(1679.74 1795)">Record to report</text><path d="M0 1-24.0004 1-23.0004 0-23.0004 770.239-24.0004 769.239 32.3344 769.239 32.3344 771.239-24.0004 771.239C-24.5527 771.239-25.0004 770.792-25.0004 770.239L-25.0004 0C-25.0004-0.552285-24.5527-1-24.0004-1L0-1ZM31.001 766.239 39.001 770.239 31.001 774.239Z" fill="#0078D4" transform="matrix(-6.12323e-17 -1 -1 6.12323e-17 1748.24 1834)"/><rect x="845" y="570" width="252" height="130" fill="#FFFFFF"/><path d="M876.5 570 876.5 700M1065.5 570 1065.5 700" stroke="#0078D4" stroke-width="2" stroke-linejoin="round" stroke-miterlimit="10" fill="none" fill-rule="evenodd"/><rect x="845" y="570" width="252" height="130" stroke="#0078D4" stroke-width="2" stroke-linejoin="round" stroke-miterlimit="10" fill="none"/><text font-family="Segoe UI,Segoe UI_MSFontService,sans-serif" font-weight="400" font-size="19" transform="translate(944.233 597)">Define</text><text font-family="Segoe UI,Segoe UI_MSFontService,sans-serif" font-weight="400" font-size="19" transform="translate(919.606 620)">depreciation</text><text font-family="Segoe UI,Segoe UI_MSFontService,sans-serif" font-weight="400" font-size="19" transform="translate(955.566 642)">and</text><text font-family="Segoe UI,Segoe UI_MSFontService,sans-serif" font-weight="400" font-size="19" transform="translate(918.713 664)">amortization</text><text font-family="Segoe UI,Segoe UI_MSFontService,sans-serif" font-weight="400" font-size="19" transform="translate(930.646 687)">schedules</text><path d="M0.0311785-0.999514 7.23758-0.77472 7.17522 1.22431-0.0311785 0.999514ZM6.56654-3.94274 13.7776 1.34877 5.21777 3.94274Z" fill="#0078D4" transform="matrix(1.83697e-16 1 1 -1.83697e-16 970 557)"/><rect x="553" y="1138" width="252" height="130" fill="#FFFFFF"/><path d="M584.5 1138 584.5 1268M773.5 1138 773.5 1268" stroke="#0078D4" stroke-width="2" stroke-linejoin="round" stroke-miterlimit="10" fill="none" fill-rule="evenodd"/><rect x="553" y="1138" width="252" height="130" stroke="#0078D4" stroke-width="2" stroke-linejoin="round" stroke-miterlimit="10" fill="none"/><text font-family="Segoe UI,Segoe UI_MSFontService,sans-serif" font-weight="400" font-size="19" transform="translate(633.151 1199)">Make asset</text><text font-family="Segoe UI,Segoe UI_MSFontService,sans-serif" font-weight="400" font-size="19" transform="translate(615.75 1222)">lease payments</text><rect x="553" y="1278" width="252" height="129" fill="#FFFFFF"/><path d="M584.5 1278 584.5 1407M773.5 1278 773.5 1407" stroke="#0078D4" stroke-width="2" stroke-linejoin="round" stroke-miterlimit="10" fill="none" fill-rule="evenodd"/><rect x="553" y="1278" width="252" height="129" stroke="#0078D4" stroke-width="2" stroke-linejoin="round" stroke-miterlimit="10" fill="none"/><text font-family="Segoe UI,Segoe UI_MSFontService,sans-serif" font-weight="400" font-size="19" transform="translate(621.984 1316)">Make variable</text><text font-family="Segoe UI,Segoe UI_MSFontService,sans-serif" font-weight="400" font-size="19" transform="translate(621.084 1339)">payments and</text><text font-family="Segoe UI,Segoe UI_MSFontService,sans-serif" font-weight="400" font-size="19" transform="translate(620.884 1361)">perform index</text><text font-family="Segoe UI,Segoe UI_MSFontService,sans-serif" font-weight="400" font-size="19" transform="translate(633.591 1383)">revaluation</text><rect x="553" y="1417" width="252" height="130" fill="#FFFFFF"/><path d="M584.5 1417 584.5 1547M773.5 1417 773.5 1547" stroke="#0078D4" stroke-width="2" stroke-linejoin="round" stroke-miterlimit="10" fill="none" fill-rule="evenodd"/><rect x="553" y="1417" width="252" height="130" stroke="#0078D4" stroke-width="2" stroke-linejoin="round" stroke-miterlimit="10" fill="none"/><text font-family="Segoe UI,Segoe UI_MSFontService,sans-serif" font-weight="400" font-size="19" transform="translate(634.744 1477)">Depreciate</text><text font-family="Segoe UI,Segoe UI_MSFontService,sans-serif" font-weight="400" font-size="19" transform="translate(630.877 1500)">asset leases</text><rect x="553" y="1556" width="252" height="130" fill="#FFFFFF"/><path d="M584.5 1556 584.5 1686M773.5 1556 773.5 1686" stroke="#0078D4" stroke-width="2" stroke-linejoin="round" stroke-miterlimit="10" fill="none" fill-rule="evenodd"/><rect x="553" y="1556" width="252" height="130" stroke="#0078D4" stroke-width="2" stroke-linejoin="round" stroke-miterlimit="10" fill="none"/><text font-family="Segoe UI,Segoe UI_MSFontService,sans-serif" font-weight="400" font-size="19" transform="translate(618.107 1594)">Amortize lease</text><text font-family="Segoe UI,Segoe UI_MSFontService,sans-serif" font-weight="400" font-size="19" transform="translate(631.874 1617)">liability and</text><text font-family="Segoe UI,Segoe UI_MSFontService,sans-serif" font-weight="400" font-size="19" transform="translate(619.32 1639)">record interest</text><text font-family="Segoe UI,Segoe UI_MSFontService,sans-serif" font-weight="400" font-size="19" transform="translate(645.374 1661)">expense</text><rect x="553" y="1696" width="252" height="129" fill="#FFFFFF"/><path d="M584.5 1696 584.5 1825M773.5 1696 773.5 1825" stroke="#0078D4" stroke-width="2" stroke-linejoin="round" stroke-miterlimit="10" fill="none" fill-rule="evenodd"/><rect x="553" y="1696" width="252" height="129" stroke="#0078D4" stroke-width="2" stroke-linejoin="round" stroke-miterlimit="10" fill="none"/><text font-family="Segoe UI,Segoe UI_MSFontService,sans-serif" font-weight="400" font-size="19" transform="translate(622.25 1756)">Impair a lease</text><text font-family="Segoe UI,Segoe UI_MSFontService,sans-serif" font-weight="400" font-size="19" transform="translate(634.584 1779)">agreement</text><rect x="1146" y="1348" width="252" height="198" fill="#FFFFFF"/><path d="M1177.5 1348 1177.5 1546M1366.5 1348 1366.5 1546" stroke="#0078D4" stroke-width="2" stroke-linejoin="round" stroke-miterlimit="10" fill="none" fill-rule="evenodd"/><rect x="1146" y="1348" width="252" height="198" stroke="#0078D4" stroke-width="2" stroke-linejoin="round" stroke-miterlimit="10" fill="none"/><text font-family="Segoe UI,Segoe UI_MSFontService,sans-serif" font-weight="400" font-size="19" transform="translate(1225.56 1398)">Review and</text><text font-family="Segoe UI,Segoe UI_MSFontService,sans-serif" font-weight="400" font-size="19" transform="translate(1238.56 1421)">approve</text><text font-family="Segoe UI,Segoe UI_MSFontService,sans-serif" font-weight="400" font-size="19" transform="translate(1220.84 1443)">depreciation</text><text font-family="Segoe UI,Segoe UI_MSFontService,sans-serif" font-weight="400" font-size="19" transform="translate(1256.8 1465)">and</text><text font-family="Segoe UI,Segoe UI_MSFontService,sans-serif" font-weight="400" font-size="19" transform="translate(1219.95 1488)">amortization</text><text font-family="Segoe UI,Segoe UI_MSFontService,sans-serif" font-weight="400" font-size="19" transform="translate(1244.55 1510)">entries</text><path d="M1273 1279.5 1273 1341.74 1272 1341.74 1272 1279.5ZM1276.5 1340.41 1272.5 1348.41 1268.5 1340.41Z" fill="#0078D4"/><path d="M1273.31 1546 1273.31 1764.05C1273.31 1764.6 1272.86 1765.05 1272.31 1765.05L1048.67 1765.05 1048.67 1763.05 1272.31 1763.05 1271.31 1764.05 1271.31 1546ZM1050 1768.05 1042 1764.05 1050 1760.05Z" fill="#0078D4"/><path d="M680 1129.5 680 1132.43 679 1132.43 679 1129.5ZM683.5 1131.09 679.5 1139.09 675.5 1131.09Z" fill="#0078D4"/><path d="M680 1268.5 680 1271.43 679 1271.43 679 1268.5ZM683.5 1270.09 679.5 1278.09 675.5 1270.09Z" fill="#0078D4"/><path d="M680 1407.5 680 1410.43 679 1410.43 679 1407.5ZM683.5 1409.09 679.5 1417.09 675.5 1409.09Z" fill="#0078D4"/><path d="M680 1547.5 680 1550.43 679 1550.43 679 1547.5ZM683.5 1549.09 679.5 1557.09 675.5 1549.09Z" fill="#0078D4"/><path d="M680 1686.5 680 1689.43 679 1689.43 679 1686.5ZM683.5 1688.09 679.5 1696.09 675.5 1688.09Z" fill="#0078D4"/><path d="M0-1 339.726-1C340.278-1 340.726-0.552285 340.726 0L340.726 923.285 338.726 923.285 338.726 0 339.726 1 0 1ZM343.726 921.951 339.726 929.951 335.726 921.951Z" fill="#0078D4" transform="matrix(-1 1.22465e-16 1.22465e-16 1 552.726 785)"/><path d="M1398 816 1747.63 816C1748.18 816 1748.63 816.448 1748.63 817L1748.63 1736.1 1746.63 1736.1 1746.63 817 1747.63 818 1398 818ZM1751.63 1734.76 1747.63 1742.76 1743.63 1734.76Z" fill="#0078D4"/><path d="M0.00469649-0.499978 334.328 2.64045 334.318 3.64041-0.00469649 0.499978ZM333.027-0.871923 340.989 3.20304 332.952 7.12772Z" fill="#0078D4" transform="matrix(-1 0 0 1 553.489 924.5)"/><path d="M0.00749987-0.499944 333.066 4.49641 333.051 5.4963-0.00749987 0.499944ZM331.787 0.97683 339.726 5.09638 331.667 8.97593Z" fill="#0078D4" transform="matrix(-1 0 0 1 553.226 1064.5)"/><path d="M553.225 1203.71 220.165 1203.01 220.167 1202.01 553.227 1202.71ZM221.492 1206.52 213.5 1202.5 221.508 1198.52Z" fill="#0078D4"/><path d="M0.0074454-0.499945 335.554 4.49717 335.539 5.49705-0.0074454 0.499945ZM334.273 0.977695 342.212 5.09638 334.153 8.97681Z" fill="#0078D4" transform="matrix(-1 0 0 1 553.712 1343.5)"/><path d="M553.226 1483 220.166 1483 220.166 1482 553.226 1482ZM221.5 1486.5 213.5 1482.5 221.5 1478.5Z" fill="#0078D4"/><path d="M1.53394e-07-0.5 335.546-0.499897 335.546 0.500103-1.53394e-07 0.5ZM334.212-3.9999 342.212 0.000104987 334.212 4.0001Z" fill="#0078D4" transform="matrix(-1 0 0 1 553.712 1610.5)"/><path d="M552.971 1762 435.986 1762C435.433 1762 434.986 1761.55 434.986 1761L434.986 1761 435.986 1762 325.667 1762 325.667 1760 435.986 1760C436.538 1760 436.986 1760.45 436.986 1761L436.986 1761 435.986 1760 552.971 1760ZM327 1765 319 1761 327 1757Z" fill="#0078D4"/><path d="M1398.5 1016 1742.73 1016 1742.73 1017 1398.5 1017ZM1741.39 1012.5 1749.39 1016.5 1741.39 1020.5Z" fill="#0078D4"/><path d="M1398.5 1220 1742.73 1220 1742.73 1221 1398.5 1221ZM1741.39 1216.5 1749.39 1220.5 1741.39 1224.5Z" fill="#0078D4"/><path d="M1395.5 1445 1739.73 1445 1739.73 1446 1395.5 1446ZM1738.39 1441.5 1746.39 1445.5 1738.39 1449.5Z" fill="#0078D4"/></g></svg>