<svg width="1920" height="1920" xmlns="http://www.w3.org/2000/svg" xmlns:xlink="http://www.w3.org/1999/xlink" overflow="hidden"><defs><clipPath id="clip0"><rect x="0" y="0" width="1920" height="1920"/></clipPath></defs><g clip-path="url(#clip0)"><rect x="0" y="0" width="1920" height="1920" fill="#FFFFFF"/><path d="M41 93.7008C41 61.2812 67.2812 35 99.7008 35L569.299 35C601.719 35 628 61.2812 628 93.7008L628 1755.3C628 1787.72 601.719 1814 569.299 1814L99.7008 1814C67.2812 1814 41 1787.72 41 1755.3Z" fill="#CBCBCB" fill-rule="evenodd"/><text font-family="Segoe UI,Segoe UI_MSFontService,sans-serif" font-weight="400" font-size="87" transform="translate(150.005 280)">Upstream</text><text font-family="Segoe UI,Segoe UI_MSFontService,sans-serif" font-weight="400" font-size="87" transform="translate(148.992 384)">processes</text><path d="M100.5 578.7C100.5 573.619 104.619 569.5 109.7 569.5L561.3 569.5C566.381 569.5 570.5 573.619 570.5 578.7L570.5 652.3C570.5 657.381 566.381 661.5 561.3 661.5L109.7 661.5C104.619 661.5 100.5 657.381 100.5 652.3Z" stroke="#000000" stroke-width="1.13333" stroke-linejoin="round" stroke-miterlimit="10" fill="#FFFFFF" fill-rule="evenodd"/><text font-family="Segoe UI,Segoe UI_MSFontService,sans-serif" font-weight="400" font-size="32" transform="translate(203.599 626)">Acquire to dispose</text><path d="M100.5 684.7C100.5 679.619 104.619 675.5 109.7 675.5L561.3 675.5C566.381 675.5 570.5 679.619 570.5 684.7L570.5 758.3C570.5 763.381 566.381 767.5 561.3 767.5L109.7 767.5C104.619 767.5 100.5 763.381 100.5 758.3Z" stroke="#000000" stroke-width="1.13333" stroke-linejoin="round" stroke-miterlimit="10" fill="#FFFFFF" fill-rule="evenodd"/><text font-family="Segoe UI,Segoe UI_MSFontService,sans-serif" font-weight="400" font-size="32" transform="translate(245.715 732)">Hire to retire</text><path d="M100.5 790.8C100.5 785.664 104.664 781.5 109.8 781.5L561.2 781.5C566.336 781.5 570.5 785.664 570.5 790.8L570.5 865.2C570.5 870.336 566.336 874.5 561.2 874.5L109.8 874.5C104.664 874.5 100.5 870.336 100.5 865.2Z" stroke="#000000" stroke-width="1.13333" stroke-linejoin="round" stroke-miterlimit="10" fill="#FFFFFF" fill-rule="evenodd"/><text font-family="Segoe UI,Segoe UI_MSFontService,sans-serif" font-weight="400" font-size="32" transform="translate(197.449 838)">Inventory to deliver</text><path d="M100.5 897.7C100.5 892.619 104.619 888.5 109.7 888.5L561.3 888.5C566.381 888.5 570.5 892.619 570.5 897.7L570.5 971.3C570.5 976.381 566.381 980.5 561.3 980.5L109.7 980.5C104.619 980.5 100.5 976.381 100.5 971.3Z" stroke="#000000" stroke-width="1.13333" stroke-linejoin="round" stroke-miterlimit="10" fill="#FFFFFF" fill-rule="evenodd"/><text font-family="Segoe UI,Segoe UI_MSFontService,sans-serif" font-weight="400" font-size="32" transform="translate(239.269 945)">Order to cash</text><path d="M100.5 1003.7C100.5 998.619 104.619 994.5 109.7 994.5L561.3 994.5C566.381 994.5 570.5 998.619 570.5 1003.7L570.5 1077.3C570.5 1082.38 566.381 1086.5 561.3 1086.5L109.7 1086.5C104.619 1086.5 100.5 1082.38 100.5 1077.3Z" stroke="#000000" stroke-width="1.13333" stroke-linejoin="round" stroke-miterlimit="10" fill="#FFFFFF" fill-rule="evenodd"/><text font-family="Segoe UI,Segoe UI_MSFontService,sans-serif" font-weight="400" font-size="32" transform="translate(223.012 1051)">Plan to produce</text><path d="M100.5 1109.8C100.5 1104.66 104.664 1100.5 109.8 1100.5L561.2 1100.5C566.336 1100.5 570.5 1104.66 570.5 1109.8L570.5 1184.2C570.5 1189.34 566.336 1193.5 561.2 1193.5L109.8 1193.5C104.664 1193.5 100.5 1189.34 100.5 1184.2Z" stroke="#000000" stroke-width="1.13333" stroke-linejoin="round" stroke-miterlimit="10" fill="#FFFFFF" fill-rule="evenodd"/><text font-family="Segoe UI,Segoe UI_MSFontService,sans-serif" font-weight="400" font-size="32" transform="translate(232.479 1157)">Procure to pay</text><path d="M100.5 1216.7C100.5 1211.62 104.619 1207.5 109.7 1207.5L561.3 1207.5C566.381 1207.5 570.5 1211.62 570.5 1216.7L570.5 1290.3C570.5 1295.38 566.381 1299.5 561.3 1299.5L109.7 1299.5C104.619 1299.5 100.5 1295.38 100.5 1290.3Z" stroke="#000000" stroke-width="1.13333" stroke-linejoin="round" stroke-miterlimit="10" fill="#FFFFFF" fill-rule="evenodd"/><text font-family="Segoe UI,Segoe UI_MSFontService,sans-serif" font-weight="400" font-size="32" transform="translate(135.632 1244)">Product and service lifecycle</text><text font-family="Segoe UI,Segoe UI_MSFontService,sans-serif" font-weight="400" font-size="32" transform="translate(241.325 1283)">management</text><path d="M100.5 1322.7C100.5 1317.62 104.619 1313.5 109.7 1313.5L561.3 1313.5C566.381 1313.5 570.5 1317.62 570.5 1322.7L570.5 1396.3C570.5 1401.38 566.381 1405.5 561.3 1405.5L109.7 1405.5C104.619 1405.5 100.5 1401.38 100.5 1396.3Z" stroke="#000000" stroke-width="1.13333" stroke-linejoin="round" stroke-miterlimit="10" fill="#FFFFFF" fill-rule="evenodd"/><text font-family="Segoe UI,Segoe UI_MSFontService,sans-serif" font-weight="400" font-size="32" transform="translate(224.512 1370)">Project to profit</text><path d="M100.5 1428.8C100.5 1423.66 104.664 1419.5 109.8 1419.5L561.2 1419.5C566.336 1419.5 570.5 1423.66 570.5 1428.8L570.5 1503.2C570.5 1508.34 566.336 1512.5 561.2 1512.5L109.8 1512.5C104.664 1512.5 100.5 1508.34 100.5 1503.2Z" stroke="#000000" stroke-width="1.13333" stroke-linejoin="round" stroke-miterlimit="10" fill="#FFFFFF" fill-rule="evenodd"/><text font-family="Segoe UI,Segoe UI_MSFontService,sans-serif" font-weight="400" font-size="32" transform="translate(208.829 1476)">Prospect to quote</text><path d="M100.5 1535.7C100.5 1530.62 104.619 1526.5 109.7 1526.5L561.3 1526.5C566.381 1526.5 570.5 1530.62 570.5 1535.7L570.5 1609.3C570.5 1614.38 566.381 1618.5 561.3 1618.5L109.7 1618.5C104.619 1618.5 100.5 1614.38 100.5 1609.3Z" stroke="#000000" stroke-width="1.13333" stroke-linejoin="round" stroke-miterlimit="10" fill="#FFFFFF" fill-rule="evenodd"/><text font-family="Segoe UI,Segoe UI_MSFontService,sans-serif" font-weight="400" font-size="32" transform="translate(218.429 1583)">Record to report</text><path d="M100.5 1641.7C100.5 1636.62 104.619 1632.5 109.7 1632.5L561.3 1632.5C566.381 1632.5 570.5 1636.62 570.5 1641.7L570.5 1715.3C570.5 1720.38 566.381 1724.5 561.3 1724.5L109.7 1724.5C104.619 1724.5 100.5 1720.38 100.5 1715.3Z" stroke="#000000" stroke-width="1.13333" stroke-linejoin="round" stroke-miterlimit="10" fill="#FFFFFF" fill-rule="evenodd"/><text font-family="Segoe UI,Segoe UI_MSFontService,sans-serif" font-weight="400" font-size="32" transform="translate(229.672 1689)">Service to cash</text><path d="M672 93.7008C672 61.2812 698.281 35 730.701 35L1200.3 35C1232.72 35 1259 61.2812 1259 93.7008L1259 1755.3C1259 1787.72 1232.72 1814 1200.3 1814L730.701 1814C698.281 1814 672 1787.72 672 1755.3Z" fill="#CBCBCB" fill-rule="evenodd"/><text font-family="Segoe UI,Segoe UI_MSFontService,sans-serif" font-weight="400" font-size="87" transform="translate(824.366 280)">Case to</text><text font-family="Segoe UI,Segoe UI_MSFontService,sans-serif" font-weight="400" font-size="87" transform="translate(774.853 384)">resolution</text><path d="M731.5 579.6C731.5 574.022 736.022 569.5 741.6 569.5L1191.4 569.5C1196.98 569.5 1201.5 574.022 1201.5 579.6L1201.5 660.4C1201.5 665.978 1196.98 670.5 1191.4 670.5L741.6 670.5C736.022 670.5 731.5 665.978 731.5 660.4Z" stroke="#000000" stroke-width="1.13333" stroke-linejoin="round" stroke-miterlimit="10" fill="#FFFFFF" fill-rule="evenodd"/><text font-family="Segoe UI,Segoe UI_MSFontService,sans-serif" font-weight="400" font-size="32" transform="translate(796.963 611)">Define customer service</text><text font-family="Segoe UI,Segoe UI_MSFontService,sans-serif" font-weight="400" font-size="32" transform="translate(890.523 650)">operations</text><path d="M731.5 696.6C731.5 691.022 736.022 686.5 741.6 686.5L1191.4 686.5C1196.98 686.5 1201.5 691.022 1201.5 696.6L1201.5 777.4C1201.5 782.978 1196.98 787.5 1191.4 787.5L741.6 787.5C736.022 787.5 731.5 782.978 731.5 777.4Z" stroke="#000000" stroke-width="1.13333" stroke-linejoin="round" stroke-miterlimit="10" fill="#FFFFFF" fill-rule="evenodd"/><text font-family="Segoe UI,Segoe UI_MSFontService,sans-serif" font-weight="400" font-size="32" transform="translate(773.256 747)">Establish a knowledge base</text><path d="M731.5 813.6C731.5 808.022 736.022 803.5 741.6 803.5L1191.4 803.5C1196.98 803.5 1201.5 808.022 1201.5 813.6L1201.5 894.4C1201.5 899.978 1196.98 904.5 1191.4 904.5L741.6 904.5C736.022 904.5 731.5 899.978 731.5 894.4Z" stroke="#000000" stroke-width="1.13333" stroke-linejoin="round" stroke-miterlimit="10" fill="#FFFFFF" fill-rule="evenodd"/><text font-family="Segoe UI,Segoe UI_MSFontService,sans-serif" font-weight="400" font-size="32" transform="translate(802.193 865)">Engage with customers</text><path d="M731.5 930.7C731.5 925.067 736.067 920.5 741.7 920.5L1191.3 920.5C1196.93 920.5 1201.5 925.067 1201.5 930.7L1201.5 1012.3C1201.5 1017.93 1196.93 1022.5 1191.3 1022.5L741.7 1022.5C736.067 1022.5 731.5 1017.93 731.5 1012.3Z" stroke="#000000" stroke-width="1.13333" stroke-linejoin="round" stroke-miterlimit="10" fill="#FFFFFF" fill-rule="evenodd"/><text font-family="Segoe UI,Segoe UI_MSFontService,sans-serif" font-weight="400" font-size="32" transform="translate(878.603 982)">Create cases</text><path d="M731.5 1047.7C731.5 1042.07 736.067 1037.5 741.7 1037.5L1191.3 1037.5C1196.93 1037.5 1201.5 1042.07 1201.5 1047.7L1201.5 1129.3C1201.5 1134.93 1196.93 1139.5 1191.3 1139.5L741.7 1139.5C736.067 1139.5 731.5 1134.93 731.5 1129.3Z" stroke="#000000" stroke-width="1.13333" stroke-linejoin="round" stroke-miterlimit="10" fill="#FFFFFF" fill-rule="evenodd"/><text font-family="Segoe UI,Segoe UI_MSFontService,sans-serif" font-weight="400" font-size="32" transform="translate(866.543 1099)">Manage cases</text><path d="M731.5 1164.7C731.5 1159.07 736.067 1154.5 741.7 1154.5L1191.3 1154.5C1196.93 1154.5 1201.5 1159.07 1201.5 1164.7L1201.5 1246.3C1201.5 1251.93 1196.93 1256.5 1191.3 1256.5L741.7 1256.5C736.067 1256.5 731.5 1251.93 731.5 1246.3Z" stroke="#000000" stroke-width="1.13333" stroke-linejoin="round" stroke-miterlimit="10" fill="#FFFFFF" fill-rule="evenodd"/><text font-family="Segoe UI,Segoe UI_MSFontService,sans-serif" font-weight="400" font-size="32" transform="translate(858.029 1216)">Work on a case</text><path d="M731.5 1281.7C731.5 1276.07 736.067 1271.5 741.7 1271.5L1191.3 1271.5C1196.93 1271.5 1201.5 1276.07 1201.5 1281.7L1201.5 1363.3C1201.5 1368.93 1196.93 1373.5 1191.3 1373.5L741.7 1373.5C736.067 1373.5 731.5 1368.93 731.5 1363.3Z" stroke="#000000" stroke-width="1.13333" stroke-linejoin="round" stroke-miterlimit="10" fill="#FFFFFF" fill-rule="evenodd"/><text font-family="Segoe UI,Segoe UI_MSFontService,sans-serif" font-weight="400" font-size="32" transform="translate(864.829 1333)">Resolve a case</text><path d="M731.5 1398.7C731.5 1393.07 736.067 1388.5 741.7 1388.5L1191.3 1388.5C1196.93 1388.5 1201.5 1393.07 1201.5 1398.7L1201.5 1480.3C1201.5 1485.93 1196.93 1490.5 1191.3 1490.5L741.7 1490.5C736.067 1490.5 731.5 1485.93 731.5 1480.3Z" stroke="#000000" stroke-width="1.13333" stroke-linejoin="round" stroke-miterlimit="10" fill="#FFFFFF" fill-rule="evenodd"/><text font-family="Segoe UI,Segoe UI_MSFontService,sans-serif" font-weight="400" font-size="32" transform="translate(781.419 1450)">Analyze case performance</text><path d="M731.5 1516.6C731.5 1511.02 736.022 1506.5 741.6 1506.5L1191.4 1506.5C1196.98 1506.5 1201.5 1511.02 1201.5 1516.6L1201.5 1597.4C1201.5 1602.98 1196.98 1607.5 1191.4 1607.5L741.6 1607.5C736.022 1607.5 731.5 1602.98 731.5 1597.4Z" stroke="#000000" stroke-width="1.13333" stroke-linejoin="round" stroke-miterlimit="10" fill="#FFFFFF" fill-rule="evenodd"/><text font-family="Segoe UI,Segoe UI_MSFontService,sans-serif" font-weight="400" font-size="32" transform="translate(774.889 1548)">Process product return and</text><text font-family="Segoe UI,Segoe UI_MSFontService,sans-serif" font-weight="400" font-size="32" transform="translate(892.096 1587)">exchanges</text><path d="M731.5 1633.6C731.5 1628.02 736.022 1623.5 741.6 1623.5L1191.4 1623.5C1196.98 1623.5 1201.5 1628.02 1201.5 1633.6L1201.5 1714.4C1201.5 1719.98 1196.98 1724.5 1191.4 1724.5L741.6 1724.5C736.022 1724.5 731.5 1719.98 731.5 1714.4Z" stroke="#000000" stroke-width="1.13333" stroke-linejoin="round" stroke-miterlimit="10" fill="#FFFFFF" fill-rule="evenodd"/><text font-family="Segoe UI,Segoe UI_MSFontService,sans-serif" font-weight="400" font-size="32" transform="translate(804.879 1684)">Process product recalls</text><path d="M1303 93.7008C1303 61.2812 1329.28 35 1361.7 35L1831.3 35C1863.72 35 1890 61.2812 1890 93.7008L1890 1755.3C1890 1787.72 1863.72 1814 1831.3 1814L1361.7 1814C1329.28 1814 1303 1787.72 1303 1755.3Z" fill="#CBCBCB" fill-rule="evenodd"/><text font-family="Segoe UI,Segoe UI_MSFontService,sans-serif" font-weight="400" font-size="87" transform="translate(1355.72 280)">Downstream</text><text font-family="Segoe UI,Segoe UI_MSFontService,sans-serif" font-weight="400" font-size="87" transform="translate(1411.08 384)">processes</text><path d="M1362.5 578.7C1362.5 573.619 1366.62 569.5 1371.7 569.5L1823.3 569.5C1828.38 569.5 1832.5 573.619 1832.5 578.7L1832.5 652.3C1832.5 657.381 1828.38 661.5 1823.3 661.5L1371.7 661.5C1366.62 661.5 1362.5 657.381 1362.5 652.3Z" stroke="#000000" stroke-width="1.13333" stroke-linejoin="round" stroke-miterlimit="10" fill="#FFFFFF" fill-rule="evenodd"/><text font-family="Segoe UI,Segoe UI_MSFontService,sans-serif" font-weight="400" font-size="32" transform="translate(1465.68 626)">Acquire to dispose</text><path d="M1362.5 684.7C1362.5 679.619 1366.62 675.5 1371.7 675.5L1823.3 675.5C1828.38 675.5 1832.5 679.619 1832.5 684.7L1832.5 758.3C1832.5 763.381 1828.38 767.5 1823.3 767.5L1371.7 767.5C1366.62 767.5 1362.5 763.381 1362.5 758.3Z" stroke="#000000" stroke-width="1.13333" stroke-linejoin="round" stroke-miterlimit="10" fill="#FFFFFF" fill-rule="evenodd"/><text font-family="Segoe UI,Segoe UI_MSFontService,sans-serif" font-weight="400" font-size="32" transform="translate(1507.8 732)">Hire to retire</text><path d="M1362.5 790.8C1362.5 785.664 1366.66 781.5 1371.8 781.5L1823.2 781.5C1828.34 781.5 1832.5 785.664 1832.5 790.8L1832.5 865.2C1832.5 870.336 1828.34 874.5 1823.2 874.5L1371.8 874.5C1366.66 874.5 1362.5 870.336 1362.5 865.2Z" stroke="#000000" stroke-width="1.13333" stroke-linejoin="round" stroke-miterlimit="10" fill="#FFFFFF" fill-rule="evenodd"/><text font-family="Segoe UI,Segoe UI_MSFontService,sans-serif" font-weight="400" font-size="32" transform="translate(1459.53 838)">Inventory to deliver</text><path d="M1362.5 897.7C1362.5 892.619 1366.62 888.5 1371.7 888.5L1823.3 888.5C1828.38 888.5 1832.5 892.619 1832.5 897.7L1832.5 971.3C1832.5 976.381 1828.38 980.5 1823.3 980.5L1371.7 980.5C1366.62 980.5 1362.5 976.381 1362.5 971.3Z" stroke="#000000" stroke-width="1.13333" stroke-linejoin="round" stroke-miterlimit="10" fill="#FFFFFF" fill-rule="evenodd"/><text font-family="Segoe UI,Segoe UI_MSFontService,sans-serif" font-weight="400" font-size="32" transform="translate(1501.35 945)">Order to cash</text><path d="M1362.5 1003.7C1362.5 998.619 1366.62 994.5 1371.7 994.5L1823.3 994.5C1828.38 994.5 1832.5 998.619 1832.5 1003.7L1832.5 1077.3C1832.5 1082.38 1828.38 1086.5 1823.3 1086.5L1371.7 1086.5C1366.62 1086.5 1362.5 1082.38 1362.5 1077.3Z" stroke="#000000" stroke-width="1.13333" stroke-linejoin="round" stroke-miterlimit="10" fill="#FFFFFF" fill-rule="evenodd"/><text font-family="Segoe UI,Segoe UI_MSFontService,sans-serif" font-weight="400" font-size="32" transform="translate(1485.09 1051)">Plan to produce</text><path d="M1362.5 1109.8C1362.5 1104.66 1366.66 1100.5 1371.8 1100.5L1823.2 1100.5C1828.34 1100.5 1832.5 1104.66 1832.5 1109.8L1832.5 1184.2C1832.5 1189.34 1828.34 1193.5 1823.2 1193.5L1371.8 1193.5C1366.66 1193.5 1362.5 1189.34 1362.5 1184.2Z" stroke="#000000" stroke-width="1.13333" stroke-linejoin="round" stroke-miterlimit="10" fill="#FFFFFF" fill-rule="evenodd"/><text font-family="Segoe UI,Segoe UI_MSFontService,sans-serif" font-weight="400" font-size="32" transform="translate(1494.56 1157)">Procure to pay</text><path d="M1362.5 1216.7C1362.5 1211.62 1366.62 1207.5 1371.7 1207.5L1823.3 1207.5C1828.38 1207.5 1832.5 1211.62 1832.5 1216.7L1832.5 1290.3C1832.5 1295.38 1828.38 1299.5 1823.3 1299.5L1371.7 1299.5C1366.62 1299.5 1362.5 1295.38 1362.5 1290.3Z" stroke="#000000" stroke-width="1.13333" stroke-linejoin="round" stroke-miterlimit="10" fill="#FFFFFF" fill-rule="evenodd"/><text font-family="Segoe UI,Segoe UI_MSFontService,sans-serif" font-weight="400" font-size="32" transform="translate(1397.71 1244)">Product and service lifecycle</text><text font-family="Segoe UI,Segoe UI_MSFontService,sans-serif" font-weight="400" font-size="32" transform="translate(1503.41 1283)">management</text><path d="M1362.5 1322.7C1362.5 1317.62 1366.62 1313.5 1371.7 1313.5L1823.3 1313.5C1828.38 1313.5 1832.5 1317.62 1832.5 1322.7L1832.5 1396.3C1832.5 1401.38 1828.38 1405.5 1823.3 1405.5L1371.7 1405.5C1366.62 1405.5 1362.5 1401.38 1362.5 1396.3Z" stroke="#000000" stroke-width="1.13333" stroke-linejoin="round" stroke-miterlimit="10" fill="#FFFFFF" fill-rule="evenodd"/><text font-family="Segoe UI,Segoe UI_MSFontService,sans-serif" font-weight="400" font-size="32" transform="translate(1486.59 1370)">Project to profit</text><path d="M1362.5 1428.8C1362.5 1423.66 1366.66 1419.5 1371.8 1419.5L1823.2 1419.5C1828.34 1419.5 1832.5 1423.66 1832.5 1428.8L1832.5 1503.2C1832.5 1508.34 1828.34 1512.5 1823.2 1512.5L1371.8 1512.5C1366.66 1512.5 1362.5 1508.34 1362.5 1503.2Z" stroke="#000000" stroke-width="1.13333" stroke-linejoin="round" stroke-miterlimit="10" fill="#FFFFFF" fill-rule="evenodd"/><text font-family="Segoe UI,Segoe UI_MSFontService,sans-serif" font-weight="400" font-size="32" transform="translate(1470.91 1476)">Prospect to quote</text><path d="M1362.5 1535.7C1362.5 1530.62 1366.62 1526.5 1371.7 1526.5L1823.3 1526.5C1828.38 1526.5 1832.5 1530.62 1832.5 1535.7L1832.5 1609.3C1832.5 1614.38 1828.38 1618.5 1823.3 1618.5L1371.7 1618.5C1366.62 1618.5 1362.5 1614.38 1362.5 1609.3Z" stroke="#000000" stroke-width="1.13333" stroke-linejoin="round" stroke-miterlimit="10" fill="#FFFFFF" fill-rule="evenodd"/><text font-family="Segoe UI,Segoe UI_MSFontService,sans-serif" font-weight="400" font-size="32" transform="translate(1480.51 1583)">Record to report</text><path d="M1362.5 1641.7C1362.5 1636.62 1366.62 1632.5 1371.7 1632.5L1823.3 1632.5C1828.38 1632.5 1832.5 1636.62 1832.5 1641.7L1832.5 1715.3C1832.5 1720.38 1828.38 1724.5 1823.3 1724.5L1371.7 1724.5C1366.62 1724.5 1362.5 1720.38 1362.5 1715.3Z" stroke="#000000" stroke-width="1.13333" stroke-linejoin="round" stroke-miterlimit="10" fill="#FFFFFF" fill-rule="evenodd"/><text font-family="Segoe UI,Segoe UI_MSFontService,sans-serif" font-weight="400" font-size="32" transform="translate(1491.75 1689)">Service to cash</text></g></svg>