<svg width="1920" height="1920" xmlns="http://www.w3.org/2000/svg" xmlns:xlink="http://www.w3.org/1999/xlink" overflow="hidden"><defs><clipPath id="clip0"><rect x="0" y="0" width="1920" height="1920"/></clipPath></defs><g clip-path="url(#clip0)"><rect x="0" y="0" width="1920" height="1920" fill="#FFFFFF"/><path d="M1672.99 1617.63 1603.72 1617.63C1603.45 1617.63 1603.22 1617.4 1603.22 1617.13L1603.22 1177.5 1603.72 1178 925.166 1178 925.166 1177 1603.72 1177C1604 1177 1604.22 1177.22 1604.22 1177.5L1604.22 1617.13 1603.72 1616.63 1672.99 1616.63ZM926.5 1181.5 918.5 1177.5 926.5 1173.5Z" fill="#0078D4"/><path d="M0-0.5 69.5566-0.5C69.8328-0.5 70.0566-0.276142 70.0566 0L70.0566 964.698 69.5566 964.198 747.827 964.198 747.827 965.198 69.5566 965.198C69.2805 965.198 69.0566 964.974 69.0566 964.698L69.0566 0 69.5566 0.5 0 0.5ZM746.492 960.698 754.492 964.698 746.492 968.698Z" fill="#0078D4" transform="matrix(-1 1.22465e-16 1.22465e-16 1 1672.99 212.5)"/><path d="M0-0.5 69.2699-0.5C69.546-0.5 69.7699-0.276142 69.7699 0L69.7699 438.076 69.2699 437.576 747.827 437.576 747.827 438.576 69.2699 438.576C68.9938 438.576 68.7699 438.352 68.7699 438.076L68.7699 0 69.2699 0.5 0 0.5ZM746.492 434.076 754.492 438.076 746.492 442.076Z" fill="#0078D4" transform="matrix(-1 1.22465e-16 1.22465e-16 1 1672.99 739.5)"/><path d="M0-0.5 69.2699-0.5C69.546-0.5 69.7699-0.276142 69.7699 0L69.7699 613.617 69.2699 613.117 747.827 613.117 747.827 614.117 69.2699 614.117C68.9938 614.117 68.7699 613.893 68.7699 613.617L68.7699 0 69.2699 0.5 0 0.5ZM746.492 609.617 754.492 613.617 746.492 617.617Z" fill="#0078D4" transform="matrix(-1 1.22465e-16 1.22465e-16 1 1672.99 563.5)"/><path d="M0-0.5 69.5571-0.5C69.8332-0.5 70.0571-0.276142 70.0571 0L70.0571 789.157 69.5571 788.657 747.831 788.657 747.831 789.657 69.5571 789.657C69.2809 789.657 69.0571 789.433 69.0571 789.157L69.0571 0 69.5571 0.5 0 0.5ZM746.492 785.157 754.492 789.157 746.492 793.157Z" fill="#0078D4" transform="matrix(-1 1.22465e-16 1.22465e-16 1 1672.99 388.5)"/><path d="M293 82.0001C293 64.3269 307.327 50 325 50L472 50C489.673 50 504 64.3269 504 82.0001L504 82.0001C504 99.6733 489.673 114 472 114L325 114C307.327 114 293 99.6731 293 81.9999Z" stroke="#0078D4" stroke-width="2" stroke-linejoin="round" stroke-miterlimit="10" fill="#FFFFFF" fill-rule="evenodd"/><text font-family="Segoe UI,Segoe UI_MSFontService,sans-serif" font-weight="400" font-size="24" transform="translate(373.612 91)">Start</text><rect x="36" y="523" width="212" height="135" stroke="#A6A6A6" stroke-width="2" stroke-linejoin="round" stroke-miterlimit="10" fill="#A0A0A0"/><text font-family="Segoe UI,Segoe UI_MSFontService,sans-serif" font-weight="400" font-size="24" transform="translate(77.5696 556)">Product and</text><text font-family="Segoe UI,Segoe UI_MSFontService,sans-serif" font-weight="400" font-size="24" transform="translate(105.516 585)">service</text><text font-family="Segoe UI,Segoe UI_MSFontService,sans-serif" font-weight="400" font-size="24" transform="translate(100.056 614)">lifecycle</text><text font-family="Segoe UI,Segoe UI_MSFontService,sans-serif" font-weight="400" font-size="24" transform="translate(71.9963 643)">management</text><rect x="639" y="927" width="279" height="135" fill="#FFFFFF"/><path d="M673.875 927 673.875 1062M883.125 927 883.125 1062" stroke="#0078D4" stroke-width="2" stroke-linejoin="round" stroke-miterlimit="10" fill="none" fill-rule="evenodd"/><rect x="639" y="927" width="279" height="135" stroke="#0078D4" stroke-width="2" stroke-linejoin="round" stroke-miterlimit="10" fill="none"/><text font-family="Segoe UI,Segoe UI_MSFontService,sans-serif" font-weight="400" font-size="24" transform="translate(718.074 1003)">Create case</text><rect x="639" y="1665" width="279" height="135" fill="#FFFFFF"/><path d="M673.875 1665 673.875 1800M883.125 1665 883.125 1800" stroke="#0078D4" stroke-width="2" stroke-linejoin="round" stroke-miterlimit="10" fill="none" fill-rule="evenodd"/><rect x="639" y="1665" width="279" height="135" stroke="#0078D4" stroke-width="2" stroke-linejoin="round" stroke-miterlimit="10" fill="none"/><text font-family="Segoe UI,Segoe UI_MSFontService,sans-serif" font-weight="400" font-size="24" transform="translate(711.074 1727)">Analyze case</text><text font-family="Segoe UI,Segoe UI_MSFontService,sans-serif" font-weight="400" font-size="24" transform="translate(710.701 1756)">performance</text><rect x="983" y="1208" width="279" height="135" fill="#FFFFFF"/><path d="M1017.88 1208 1017.88 1343M1227.12 1208 1227.12 1343" stroke="#0078D4" stroke-width="2" stroke-linejoin="round" stroke-miterlimit="10" fill="none" fill-rule="evenodd"/><rect x="983" y="1208" width="279" height="135" stroke="#0078D4" stroke-width="2" stroke-linejoin="round" stroke-miterlimit="10" fill="none"/><text font-family="Segoe UI,Segoe UI_MSFontService,sans-serif" font-weight="400" font-size="24" transform="translate(1082.4 1241)">Process</text><text font-family="Segoe UI,Segoe UI_MSFontService,sans-serif" font-weight="400" font-size="24" transform="translate(1080.56 1270)">product</text><text font-family="Segoe UI,Segoe UI_MSFontService,sans-serif" font-weight="400" font-size="24" transform="translate(1067 1299)">return and</text><text font-family="Segoe UI,Segoe UI_MSFontService,sans-serif" font-weight="400" font-size="24" transform="translate(1066.92 1328)">exchanges</text><rect x="984" y="1378" width="278" height="136" fill="#FFFFFF"/><path d="M1018.75 1378 1018.75 1514M1227.25 1378 1227.25 1514" stroke="#0078D4" stroke-width="2" stroke-linejoin="round" stroke-miterlimit="10" fill="none" fill-rule="evenodd"/><rect x="984" y="1378" width="278" height="136" stroke="#0078D4" stroke-width="2" stroke-linejoin="round" stroke-miterlimit="10" fill="none"/><text font-family="Segoe UI,Segoe UI_MSFontService,sans-serif" font-weight="400" font-size="24" transform="translate(1083.32 1426)">Process</text><text font-family="Segoe UI,Segoe UI_MSFontService,sans-serif" font-weight="400" font-size="24" transform="translate(1081.49 1455)">product</text><text font-family="Segoe UI,Segoe UI_MSFontService,sans-serif" font-weight="400" font-size="24" transform="translate(1090.24 1484)">recalls</text><rect x="36" y="1049" width="212" height="135" stroke="#A6A6A6" stroke-width="2" stroke-linejoin="round" stroke-miterlimit="10" fill="#A6A6A6"/><text font-family="Segoe UI,Segoe UI_MSFontService,sans-serif" font-weight="400" font-size="24" transform="translate(70.3355 1125)">Order to cash</text><rect x="638" y="359" width="279" height="135" fill="#FFFFFF"/><path d="M672.875 359 672.875 494M882.125 359 882.125 494" stroke="#0078D4" stroke-width="2" stroke-linejoin="round" stroke-miterlimit="10" fill="none" fill-rule="evenodd"/><rect x="638" y="359" width="279" height="135" stroke="#0078D4" stroke-width="2" stroke-linejoin="round" stroke-miterlimit="10" fill="none"/><text font-family="Segoe UI,Segoe UI_MSFontService,sans-serif" font-weight="400" font-size="24" transform="translate(742.802 392)">Define</text><text font-family="Segoe UI,Segoe UI_MSFontService,sans-serif" font-weight="400" font-size="24" transform="translate(727.982 421)">customer</text><text font-family="Segoe UI,Segoe UI_MSFontService,sans-serif" font-weight="400" font-size="24" transform="translate(740.656 450)">service</text><text font-family="Segoe UI,Segoe UI_MSFontService,sans-serif" font-weight="400" font-size="24" transform="translate(720.722 479)">operations</text><path d="M673 1876.5C673 1858.55 687.551 1844 705.5 1844L852.5 1844C870.449 1844 885 1858.55 885 1876.5L885 1876.5C885 1894.45 870.449 1909 852.5 1909L705.5 1909C687.551 1909 673 1894.45 673 1876.5Z" stroke="#0078D4" stroke-width="2" stroke-linejoin="round" stroke-miterlimit="10" fill="#FFFFFF" fill-rule="evenodd"/><text font-family="Segoe UI,Segoe UI_MSFontService,sans-serif" font-weight="400" font-size="24" transform="translate(759.219 1885)">End</text><rect x="636" y="153" width="281" height="136" stroke="#0078D4" stroke-width="2" stroke-linejoin="round" stroke-miterlimit="10" fill="#0078D4"/><text font-family="Segoe UI,Segoe UI_MSFontService,sans-serif" font-weight="400" font-size="24" transform="translate(681.381 230)">Case to resolution</text><rect x="36" y="1576" width="212" height="135" stroke="#A6A6A6" stroke-width="2" stroke-linejoin="round" stroke-miterlimit="10" fill="#A0A0A0"/><text font-family="Segoe UI,Segoe UI_MSFontService,sans-serif" font-weight="400" font-size="24" transform="translate(90.9963 1638)">Record to</text><text font-family="Segoe UI,Segoe UI_MSFontService,sans-serif" font-weight="400" font-size="24" transform="translate(109.056 1667)">report</text><rect x="36" y="1225" width="212" height="135" stroke="#A6A6A6" stroke-width="2" stroke-linejoin="round" stroke-miterlimit="10" fill="#A0A0A0"/><text font-family="Segoe UI,Segoe UI_MSFontService,sans-serif" font-weight="400" font-size="24" transform="translate(81.913 1287)">Prospect to</text><text font-family="Segoe UI,Segoe UI_MSFontService,sans-serif" font-weight="400" font-size="24" transform="translate(110.926 1316)">quote</text><rect x="36" y="698" width="212" height="135" stroke="#A6A6A6" stroke-width="2" stroke-linejoin="round" stroke-miterlimit="10" fill="#A0A0A0"/><text font-family="Segoe UI,Segoe UI_MSFontService,sans-serif" font-weight="400" font-size="24" transform="translate(65.3097 774)">Procure to pay</text><rect x="36" y="874" width="212" height="135" stroke="#A6A6A6" stroke-width="2" stroke-linejoin="round" stroke-miterlimit="10" fill="#A0A0A0"/><text font-family="Segoe UI,Segoe UI_MSFontService,sans-serif" font-weight="400" font-size="24" transform="translate(105.256 936)">Plan to</text><text font-family="Segoe UI,Segoe UI_MSFontService,sans-serif" font-weight="400" font-size="24" transform="translate(98.2363 965)">produce</text><rect x="639" y="1109" width="279" height="135" fill="#FFFFFF"/><path d="M673.875 1109 673.875 1244M883.125 1109 883.125 1244" stroke="#0078D4" stroke-width="2" stroke-linejoin="round" stroke-miterlimit="10" fill="none" fill-rule="evenodd"/><rect x="639" y="1109" width="279" height="135" stroke="#0078D4" stroke-width="2" stroke-linejoin="round" stroke-miterlimit="10" fill="none"/><text font-family="Segoe UI,Segoe UI_MSFontService,sans-serif" font-weight="400" font-size="24" transform="translate(703.991 1185)">Manage cases</text><rect x="639" y="1294" width="278" height="135" fill="#FFFFFF"/><path d="M673.75 1294 673.75 1429M882.25 1294 882.25 1429" stroke="#0078D4" stroke-width="2" stroke-linejoin="round" stroke-miterlimit="10" fill="none" fill-rule="evenodd"/><rect x="639" y="1294" width="278" height="135" stroke="#0078D4" stroke-width="2" stroke-linejoin="round" stroke-miterlimit="10" fill="none"/><text font-family="Segoe UI,Segoe UI_MSFontService,sans-serif" font-weight="400" font-size="24" transform="translate(723.335 1355)">Work on a</text><text font-family="Segoe UI,Segoe UI_MSFontService,sans-serif" font-weight="400" font-size="24" transform="translate(754.802 1384)">case</text><rect x="639" y="1478" width="279" height="136" fill="#FFFFFF"/><path d="M673.875 1478 673.875 1614M883.125 1478 883.125 1614" stroke="#0078D4" stroke-width="2" stroke-linejoin="round" stroke-miterlimit="10" fill="none" fill-rule="evenodd"/><rect x="639" y="1478" width="279" height="136" stroke="#0078D4" stroke-width="2" stroke-linejoin="round" stroke-miterlimit="10" fill="none"/><text font-family="Segoe UI,Segoe UI_MSFontService,sans-serif" font-weight="400" font-size="24" transform="translate(702.728 1555)">Resolve a case</text><path d="M777 289.495 777.61 353.175 776.611 353.185 776 289.505ZM781.098 351.808 777.174 359.846 773.098 351.885Z" fill="#0078D4"/><rect x="36" y="1400" width="212" height="136" stroke="#A6A6A6" stroke-width="2" stroke-linejoin="round" stroke-miterlimit="10" fill="#A6A6A6"/><text font-family="Segoe UI,Segoe UI_MSFontService,sans-serif" font-weight="400" font-size="24" transform="translate(89.8655 1462)">Service to</text><text font-family="Segoe UI,Segoe UI_MSFontService,sans-serif" font-weight="400" font-size="24" transform="translate(118.419 1491)">cash</text><rect x="36" y="1751" width="212" height="136" stroke="#A6A6A6" stroke-width="2" stroke-linejoin="round" stroke-miterlimit="10" fill="#A0A0A0"/><text font-family="Segoe UI,Segoe UI_MSFontService,sans-serif" font-weight="400" font-size="24" transform="translate(91.163 1813)">Project to</text><text font-family="Segoe UI,Segoe UI_MSFontService,sans-serif" font-weight="400" font-size="24" transform="translate(113.37 1842)">profit</text><rect x="36" y="347" width="212" height="135" stroke="#A6A6A6" stroke-width="2" stroke-linejoin="round" stroke-miterlimit="10" fill="#A0A0A0"/><text font-family="Segoe UI,Segoe UI_MSFontService,sans-serif" font-weight="400" font-size="24" transform="translate(75.3097 423)">Hire to retire</text><rect x="36" y="172" width="212" height="135" stroke="#A6A6A6" stroke-width="2" stroke-linejoin="round" stroke-miterlimit="10" fill="#A0A0A0"/><text font-family="Segoe UI,Segoe UI_MSFontService,sans-serif" font-weight="400" font-size="24" transform="translate(87.413 233)">Acquire to</text><text font-family="Segoe UI,Segoe UI_MSFontService,sans-serif" font-weight="400" font-size="24" transform="translate(101.5 262)">dispose</text><path d="M504.5 82.0001 776.882 82.0001C777.158 82.0001 777.382 82.2239 777.382 82.5001L777.382 146.817 776.382 146.817 776.382 82.5001 776.882 83.0001 504.5 83.0001ZM780.882 145.484 776.882 153.484 772.882 145.484Z" fill="#0078D4"/><path d="M0-0.5 280.409-0.5C280.685-0.5 280.909-0.276142 280.909 0L280.909 507.856C280.909 508.132 280.685 508.356 280.409 508.356L263.076 508.356 263.076 507.356 280.409 507.356 279.909 507.856 279.909 0 280.409 0.5 0 0.5ZM264.409 511.856 256.409 507.856 264.409 503.856Z" fill="#0078D4" transform="matrix(-1 1.22465e-16 1.22465e-16 1 292.909 82.5001)"/><path d="M0-0.5 280.409-0.5C280.685-0.5 280.909-0.276142 280.909 0L280.909 156.775C280.909 157.051 280.685 157.275 280.409 157.275L263.076 157.275 263.076 156.275 280.409 156.275 279.909 156.775 279.909 0 280.409 0.5 0 0.5ZM264.409 160.775 256.409 156.775 264.409 152.775Z" fill="#0078D4" transform="matrix(-1 1.22465e-16 1.22465e-16 1 292.909 82.5001)"/><path d="M0-0.5 280.408-0.5C280.685-0.5 280.908-0.276142 280.908 0L280.908 1210.02C280.908 1210.29 280.685 1210.52 280.408 1210.52L263.076 1210.52 263.076 1209.52 280.408 1209.52 279.908 1210.02 279.908 0 280.408 0.5 0 0.5ZM264.409 1214.02 256.409 1210.02 264.409 1206.02Z" fill="#0078D4" transform="matrix(-1 1.22465e-16 1.22465e-16 1 292.909 82.5001)"/><path d="M0-0.5 280.409-0.5C280.685-0.5 280.909-0.276142 280.909 0L280.909 332.316C280.909 332.592 280.685 332.816 280.409 332.816L263.076 332.816 263.076 331.816 280.409 331.816 279.909 332.316 279.909 0 280.409 0.5 0 0.5ZM264.409 336.316 256.409 332.316 264.409 328.316Z" fill="#0078D4" transform="matrix(-1 1.22465e-16 1.22465e-16 1 292.909 82.5001)"/><path d="M0-0.5 280.409-0.5C280.685-0.5 280.909-0.276142 280.909 0L280.909 683.396C280.909 683.673 280.685 683.896 280.409 683.896L263.076 683.896 263.076 682.896 280.409 682.896 279.909 683.396 279.909 0 280.409 0.5 0 0.5ZM264.409 687.396 256.409 683.396 264.409 679.396Z" fill="#0078D4" transform="matrix(-1 1.22465e-16 1.22465e-16 1 292.909 82.5001)"/><path d="M0-0.5 280.409-0.5C280.686-0.5 280.909-0.276142 280.909 0L280.909 858.937C280.909 859.213 280.686 859.437 280.409 859.437L263.076 859.437 263.076 858.437 280.409 858.437 279.909 858.937 279.909 0 280.409 0.5 0 0.5ZM264.409 862.937 256.409 858.937 264.409 854.937Z" fill="#0078D4" transform="matrix(-1 1.22465e-16 1.22465e-16 1 292.909 82.5001)"/><path d="M0-0.5 280.409-0.5C280.685-0.5 280.909-0.276142 280.909 0L280.909 1034.48C280.909 1034.75 280.685 1034.98 280.409 1034.98L263.076 1034.98 263.076 1033.98 280.409 1033.98 279.909 1034.48 279.909 0 280.409 0.5 0 0.5ZM264.409 1038.48 256.409 1034.48 264.409 1030.48Z" fill="#0078D4" transform="matrix(-1 1.22465e-16 1.22465e-16 1 292.909 82.5001)"/><path d="M0-0.5 280.41-0.5C280.686-0.5 280.91-0.276142 280.91 0L280.91 1385.56C280.91 1385.83 280.686 1386.06 280.41 1386.06L263.076 1386.06 263.076 1385.06 280.41 1385.06 279.91 1385.56 279.91 0 280.41 0.5 0 0.5ZM264.409 1389.56 256.409 1385.56 264.409 1381.56Z" fill="#0078D4" transform="matrix(-1 1.22465e-16 1.22465e-16 1 292.909 82.5001)"/><path d="M0-0.5 280.41-0.5C280.686-0.5 280.91-0.276142 280.91 0L280.91 1561.1C280.91 1561.38 280.686 1561.6 280.41 1561.6L263.076 1561.6 263.076 1560.6 280.41 1560.6 279.91 1561.1 279.91 0 280.41 0.5 0 0.5ZM264.409 1565.1 256.409 1561.1 264.409 1557.1Z" fill="#0078D4" transform="matrix(-1 1.22465e-16 1.22465e-16 1 292.909 82.5001)"/><path d="M0-0.5 280.41-0.5C280.686-0.5 280.91-0.276142 280.91 0L280.91 1736.64C280.91 1736.92 280.686 1737.14 280.41 1737.14L263.076 1737.14 263.076 1736.14 280.41 1736.14 279.91 1736.64 279.91 0 280.41 0.5 0 0.5ZM264.409 1740.64 256.409 1736.64 264.409 1732.64Z" fill="#0078D4" transform="matrix(-1 1.22465e-16 1.22465e-16 1 292.909 82.5001)"/><path d="M779 1062.5 779 1102.77 778 1102.77 778 1062.5ZM782.5 1101.44 778.5 1109.44 774.5 1101.44Z" fill="#0078D4"/><path d="M0.499971-0.00534186 0.954521 42.5382-0.045422 42.5489-0.499971 0.00534186ZM4.44008 41.1676 0.525774 49.2099-3.55947 41.2531Z" fill="#0078D4" transform="matrix(-1 0 0 1 779.026 1244.5)"/><path d="M779 1429.49 779.455 1472.24 778.455 1472.25 778 1429.51ZM782.94 1470.87 779.026 1478.91 774.941 1470.95Z" fill="#0078D4"/><path d="M779 1614.5 779 1659.51 778 1659.51 778 1614.5ZM782.5 1658.18 778.5 1666.18 774.5 1658.18Z" fill="#0078D4"/><path d="M0-0.5 32.969-0.5C33.2452-0.5 33.469-0.276142 33.469 0L33.469 85.9003 32.969 85.4003 59.2713 85.4003 59.2713 86.4003 32.969 86.4003C32.6929 86.4003 32.469 86.1764 32.469 85.9003L32.469 0 32.969 0.5 0 0.5ZM57.938 81.9003 65.938 85.9003 57.938 89.9003Z" fill="#0078D4" transform="matrix(1 0 0 -1 917.5 1361.4)"/><path d="M917.5 1361 951.23 1361C951.506 1361 951.73 1361.22 951.73 1361.5L951.73 1446.15 951.23 1445.65 978.294 1445.65 978.294 1446.65 951.23 1446.65C950.954 1446.65 950.73 1446.43 950.73 1446.15L950.73 1361.5 951.23 1362 917.5 1362ZM976.96 1442.15 984.96 1446.15 976.96 1450.15Z" fill="#0078D4"/><path d="M248.5 239 301.285 239C301.561 239 301.785 239.224 301.785 239.5L301.785 995.04 301.285 994.54 632.975 994.54 632.975 995.54 301.285 995.54C301.008 995.54 300.785 995.316 300.785 995.04L300.785 239.5 301.285 240 248.5 240ZM631.641 991.04 639.641 995.04 631.641 999.04Z" fill="#0078D4"/><path d="M248.5 415 301.284 415C301.56 415 301.784 415.224 301.784 415.5L301.784 995.5 301.284 995 632.975 995 632.975 996 301.284 996C301.008 996 300.784 995.776 300.784 995.5L300.784 415.5 301.284 416 248.5 416ZM631.641 991.5 639.641 995.5 631.641 999.5Z" fill="#0078D4"/><path d="M248.5 590 301.285 590C301.561 590 301.785 590.224 301.785 590.5L301.785 994.959 301.285 994.459 632.975 994.459 632.975 995.459 301.285 995.459C301.008 995.459 300.785 995.235 300.785 994.959L300.785 590.5 301.285 591 248.5 591ZM631.641 990.959 639.641 994.959 631.641 998.959Z" fill="#0078D4"/><path d="M248.5 766 300.678 766C300.954 766 301.178 766.224 301.178 766.5L301.178 995.419 300.678 994.919 632.975 994.919 632.975 995.919 300.678 995.919C300.402 995.919 300.178 995.695 300.178 995.419L300.178 766.5 300.678 767 248.5 767ZM631.641 991.419 639.641 995.419 631.641 999.419Z" fill="#0078D4"/><path d="M248.5 941 301.284 941C301.561 941 301.784 941.224 301.784 941.5L301.784 994.878 301.284 994.378 632.975 994.378 632.975 995.378 301.284 995.378C301.008 995.378 300.784 995.154 300.784 994.878L300.784 941.5 301.284 942 248.5 942ZM631.641 990.878 639.641 994.878 631.641 998.878Z" fill="#0078D4"/><path d="M0-0.5 52.8639-0.5C53.14-0.5 53.3639-0.276142 53.3639 0L53.3639 122.162 52.8639 121.662 384.63 121.662 384.63 122.662 52.8639 122.662C52.5877 122.662 52.3639 122.438 52.3639 122.162L52.3639 0 52.8639 0.5 0 0.5ZM383.296 118.162 391.296 122.162 383.296 126.162Z" fill="#0078D4" transform="matrix(1 0 0 -1 248.5 1117.66)"/><path d="M0-0.5 52.4832-0.5C52.7594-0.5 52.9832-0.276142 52.9832 0L52.9832 297.703 52.4832 297.203 384.475 297.203 384.475 298.203 52.4832 298.203C52.2071 298.203 51.9832 297.979 51.9832 297.703L51.9832 0 52.4832 0.5 0 0.5ZM383.141 293.703 391.141 297.703 383.141 301.703Z" fill="#0078D4" transform="matrix(1 0 0 -1 248.5 1293.2)"/><path d="M0-0.5 52.5588-0.5C52.835-0.5 53.0588-0.276142 53.0588 0L53.0588 473.243 52.5588 472.743 384.63 472.743 384.63 473.743 52.5588 473.743C52.2827 473.743 52.0588 473.519 52.0588 473.243L52.0588 0 52.5588 0.5 0 0.5ZM383.296 469.243 391.296 473.243 383.296 477.243Z" fill="#0078D4" transform="matrix(1 0 0 -1 248.5 1468.74)"/><path d="M0-0.5 52.7847-0.5C53.0608-0.5 53.2847-0.276142 53.2847 0L53.2847 648.784 52.7847 648.284 384.475 648.284 384.475 649.284 52.7847 649.284C52.5085 649.284 52.2847 649.06 52.2847 648.784L52.2847 0 52.7847 0.5 0 0.5ZM383.141 644.784 391.141 648.784 383.141 652.784Z" fill="#0078D4" transform="matrix(1 0 0 -1 248.5 1644.28)"/><path d="M0-0.5 52.483-0.5C52.7592-0.5 52.983-0.276142 52.983 0L52.983 824.324 52.483 823.824 384.475 823.824 384.475 824.824 52.483 824.824C52.2069 824.824 51.983 824.6 51.983 824.324L51.983 0 52.483 0.5 0 0.5ZM383.141 820.324 391.141 824.324 383.141 828.324Z" fill="#0078D4" transform="matrix(1 0 0 -1 248.5 1819.82)"/><rect x="1672" y="496" width="212" height="135" stroke="#A6A6A6" stroke-width="2" stroke-linejoin="round" stroke-miterlimit="10" fill="#A0A0A0"/><text font-family="Segoe UI,Segoe UI_MSFontService,sans-serif" font-weight="400" font-size="24" transform="translate(1713.58 529)">Product and</text><text font-family="Segoe UI,Segoe UI_MSFontService,sans-serif" font-weight="400" font-size="24" transform="translate(1741.52 558)">service</text><text font-family="Segoe UI,Segoe UI_MSFontService,sans-serif" font-weight="400" font-size="24" transform="translate(1736.06 587)">lifecycle</text><text font-family="Segoe UI,Segoe UI_MSFontService,sans-serif" font-weight="400" font-size="24" transform="translate(1708 616)">management</text><rect x="1672" y="1022" width="212" height="135" stroke="#A6A6A6" stroke-width="2" stroke-linejoin="round" stroke-miterlimit="10" fill="#A6A6A6"/><text font-family="Segoe UI,Segoe UI_MSFontService,sans-serif" font-weight="400" font-size="24" transform="translate(1706.34 1098)">Order to cash</text><rect x="1672" y="1549" width="212" height="135" stroke="#A6A6A6" stroke-width="2" stroke-linejoin="round" stroke-miterlimit="10" fill="#A0A0A0"/><text font-family="Segoe UI,Segoe UI_MSFontService,sans-serif" font-weight="400" font-size="24" transform="translate(1727 1611)">Record to</text><text font-family="Segoe UI,Segoe UI_MSFontService,sans-serif" font-weight="400" font-size="24" transform="translate(1745.06 1640)">report</text><rect x="1672" y="1198" width="212" height="135" stroke="#A6A6A6" stroke-width="2" stroke-linejoin="round" stroke-miterlimit="10" fill="#A0A0A0"/><text font-family="Segoe UI,Segoe UI_MSFontService,sans-serif" font-weight="400" font-size="24" transform="translate(1717.92 1260)">Prospect to</text><text font-family="Segoe UI,Segoe UI_MSFontService,sans-serif" font-weight="400" font-size="24" transform="translate(1746.93 1289)">quote</text><rect x="1672" y="671" width="212" height="135" stroke="#A6A6A6" stroke-width="2" stroke-linejoin="round" stroke-miterlimit="10" fill="#A0A0A0"/><text font-family="Segoe UI,Segoe UI_MSFontService,sans-serif" font-weight="400" font-size="24" transform="translate(1701.32 747)">Procure to pay</text><rect x="1672" y="847" width="212" height="135" stroke="#A6A6A6" stroke-width="2" stroke-linejoin="round" stroke-miterlimit="10" fill="#A0A0A0"/><text font-family="Segoe UI,Segoe UI_MSFontService,sans-serif" font-weight="400" font-size="24" transform="translate(1741.26 909)">Plan to</text><text font-family="Segoe UI,Segoe UI_MSFontService,sans-serif" font-weight="400" font-size="24" transform="translate(1734.24 938)">produce</text><rect x="1672" y="1373" width="212" height="136" stroke="#A6A6A6" stroke-width="2" stroke-linejoin="round" stroke-miterlimit="10" fill="#A6A6A6"/><text font-family="Segoe UI,Segoe UI_MSFontService,sans-serif" font-weight="400" font-size="24" transform="translate(1725.87 1435)">Service to</text><text font-family="Segoe UI,Segoe UI_MSFontService,sans-serif" font-weight="400" font-size="24" transform="translate(1754.43 1464)">cash</text><rect x="1672" y="1724" width="212" height="136" stroke="#A6A6A6" stroke-width="2" stroke-linejoin="round" stroke-miterlimit="10" fill="#A0A0A0"/><text font-family="Segoe UI,Segoe UI_MSFontService,sans-serif" font-weight="400" font-size="24" transform="translate(1727.17 1786)">Project to</text><text font-family="Segoe UI,Segoe UI_MSFontService,sans-serif" font-weight="400" font-size="24" transform="translate(1749.38 1815)">profit</text><rect x="1672" y="320" width="212" height="135" stroke="#A6A6A6" stroke-width="2" stroke-linejoin="round" stroke-miterlimit="10" fill="#A0A0A0"/><text font-family="Segoe UI,Segoe UI_MSFontService,sans-serif" font-weight="400" font-size="24" transform="translate(1711.32 396)">Hire to retire</text><rect x="1672" y="145" width="212" height="135" stroke="#A6A6A6" stroke-width="2" stroke-linejoin="round" stroke-miterlimit="10" fill="#A0A0A0"/><text font-family="Segoe UI,Segoe UI_MSFontService,sans-serif" font-weight="400" font-size="24" transform="translate(1723.42 206)">Acquire to</text><text font-family="Segoe UI,Segoe UI_MSFontService,sans-serif" font-weight="400" font-size="24" transform="translate(1737.51 235)">dispose</text><rect x="1331" y="1292" width="212" height="135" stroke="#A6A6A6" stroke-width="2" stroke-linejoin="round" stroke-miterlimit="10" fill="#A0A0A0"/><text font-family="Segoe UI,Segoe UI_MSFontService,sans-serif" font-weight="400" font-size="24" transform="translate(1372.69 1354)">Inventory to</text><text font-family="Segoe UI,Segoe UI_MSFontService,sans-serif" font-weight="400" font-size="24" transform="translate(1401.73 1383)">deliver</text><path d="M0-0.5 684.996-0.5C685.273-0.5 685.496-0.276142 685.496 0L685.496 782.544 684.996 782.044 747.826 782.044 747.826 783.044 684.996 783.044C684.72 783.044 684.496 782.82 684.496 782.544L684.496 0 684.996 0.5 0 0.5ZM746.492 778.544 754.492 782.544 746.492 786.544Z" fill="#0078D4" transform="matrix(1 0 0 -1 918.5 995.044)"/><path d="M0-0.5 684.935-0.5C685.212-0.5 685.435-0.276142 685.435 0L685.435 607.003 684.935 606.503 747.826 606.503 747.826 607.503 684.935 607.503C684.659 607.503 684.435 607.279 684.435 607.003L684.435 0 684.935 0.5 0 0.5ZM746.492 603.003 754.492 607.003 746.492 611.003Z" fill="#0078D4" transform="matrix(1 0 0 -1 918.5 995.503)"/><path d="M0-0.5 685.223-0.5C685.499-0.5 685.723-0.276142 685.723 0L685.723 431.463 685.223 430.963 747.826 430.963 747.826 431.963 685.223 431.963C684.946 431.963 684.723 431.739 684.723 431.463L684.723 0 685.223 0.5 0 0.5ZM746.492 427.463 754.492 431.463 746.492 435.463Z" fill="#0078D4" transform="matrix(1 0 0 -1 918.5 994.963)"/><path d="M0-0.5 686.317-0.5C686.593-0.5 686.817-0.276142 686.817 0L686.817 255.922 686.317 255.422 747.826 255.422 747.826 256.422 686.317 256.422C686.041 256.422 685.817 256.198 685.817 255.922L685.817 0 686.317 0.5 0 0.5ZM746.492 251.922 754.492 255.922 746.492 259.922Z" fill="#0078D4" transform="matrix(1 0 0 -1 918.5 995.422)"/><path d="M918.5 995 1603.72 995C1604 995 1604.22 995.224 1604.22 995.5L1604.22 1090.66 1603.72 1090.16 1666.33 1090.16 1666.33 1091.16 1603.72 1091.16C1603.45 1091.16 1603.22 1090.93 1603.22 1090.66L1603.22 995.5 1603.72 996 918.5 996ZM1664.99 1086.66 1672.99 1090.66 1664.99 1094.66Z" fill="#0078D4"/><path d="M918.5 995 1603.44 995C1603.71 995 1603.94 995.224 1603.94 995.5L1603.94 1266.2 1603.44 1265.7 1666.33 1265.7 1666.33 1266.7 1603.44 1266.7C1603.16 1266.7 1602.94 1266.48 1602.94 1266.2L1602.94 995.5 1603.44 996 918.5 996ZM1664.99 1262.2 1672.99 1266.2 1664.99 1270.2Z" fill="#0078D4"/><path d="M0-0.5 685.223-0.5C685.499-0.5 685.723-0.276142 685.723 0L685.723 80.3818 685.223 79.8818 747.826 79.8818 747.826 80.8818 685.223 80.8818C684.946 80.8818 684.723 80.658 684.723 80.3818L684.723 0 685.223 0.5 0 0.5ZM746.492 76.3818 754.492 80.3818 746.492 84.3818Z" fill="#0078D4" transform="matrix(1 0 0 -1 918.5 994.882)"/><path d="M918.5 995 1603.72 995C1604 995 1604.22 995.224 1604.22 995.5L1604.22 1441.74 1603.72 1441.24 1666.33 1441.24 1666.33 1442.24 1603.72 1442.24C1603.45 1442.24 1603.22 1442.02 1603.22 1441.74L1603.22 995.5 1603.72 996 918.5 996ZM1664.99 1437.74 1672.99 1441.74 1664.99 1445.74Z" fill="#0078D4"/><path d="M918.5 995 1603.72 995C1604 995 1604.22 995.224 1604.22 995.5L1604.22 1617.28 1603.72 1616.78 1666.33 1616.78 1666.33 1617.78 1603.72 1617.78C1603.45 1617.78 1603.22 1617.56 1603.22 1617.28L1603.22 995.5 1603.72 996 918.5 996ZM1664.99 1613.28 1672.99 1617.28 1664.99 1621.28Z" fill="#0078D4"/><path d="M918.5 995 1603.41 995C1603.68 995 1603.91 995.224 1603.91 995.5L1603.91 1792.82 1603.41 1792.32 1666.33 1792.32 1666.33 1793.32 1603.41 1793.32C1603.13 1793.32 1602.91 1793.1 1602.91 1792.82L1602.91 995.5 1603.41 996 918.5 996ZM1664.99 1788.82 1672.99 1792.82 1664.99 1796.82Z" fill="#0078D4"/><path d="M1262.5 1275 1297.33 1275C1297.6 1275 1297.83 1275.22 1297.83 1275.5L1297.83 1359.81 1297.33 1359.31 1325.48 1359.31 1325.48 1360.31 1297.33 1360.31C1297.05 1360.31 1296.83 1360.09 1296.83 1359.81L1296.83 1275.5 1297.33 1276 1262.5 1276ZM1324.15 1355.81 1332.15 1359.81 1324.15 1363.81Z" fill="#0078D4"/><path d="M0-0.5 34.6619-0.5C34.938-0.5 35.1619-0.276142 35.1619 0L35.1619 86.2397 34.6619 85.7397 62.657 85.7397 62.657 86.7397 34.6619 86.7397C34.3857 86.7397 34.1619 86.5158 34.1619 86.2397L34.1619 0 34.6619 0.5 0 0.5ZM61.3237 82.2397 69.3237 86.2397 61.3237 90.2397Z" fill="#0078D4" transform="matrix(1 0 0 -1 1262.5 1446.74)"/><path d="M1438.16 1427.5 1438.16 1546.1C1438.16 1546.38 1437.94 1546.6 1437.66 1546.6L925.167 1546.6 925.167 1545.6 1437.66 1545.6 1437.16 1546.1 1437.16 1427.5ZM926.5 1550.1 918.5 1546.1 926.5 1542.1Z" fill="#0078D4"/><path d="M0-0.5 69.557-0.5C69.8332-0.5 70.057-0.276142 70.057 0L70.057 262.536 69.557 262.036 747.831 262.036 747.831 263.036 69.557 263.036C69.2809 263.036 69.057 262.812 69.057 262.536L69.057 0 69.557 0.5 0 0.5ZM746.492 258.536 754.492 262.536 746.492 266.536Z" fill="#0078D4" transform="matrix(-1 1.22465e-16 1.22465e-16 1 1672.99 914.5)"/><path d="M0-0.5 69.2699-0.5C69.546-0.5 69.7699-0.276142 69.7699 0L69.7699 86.9953 69.2699 86.4953 747.827 86.4953 747.827 87.4953 69.2699 87.4953C68.9938 87.4953 68.7699 87.2714 68.7699 86.9953L68.7699 0 69.2699 0.5 0 0.5ZM746.492 82.9953 754.492 86.9953 746.492 90.9953Z" fill="#0078D4" transform="matrix(-1 1.22465e-16 1.22465e-16 1 1672.99 1090.5)"/><path d="M1672.99 1266.55 1603.44 1266.55C1603.16 1266.55 1602.94 1266.32 1602.94 1266.05L1602.94 1177.5 1603.44 1178 925.161 1178 925.161 1177 1603.44 1177C1603.71 1177 1603.94 1177.22 1603.94 1177.5L1603.94 1266.05 1603.44 1265.55 1672.99 1265.55ZM926.5 1181.5 918.5 1177.5 926.5 1173.5Z" fill="#0078D4"/><path d="M1672.99 1442.09 1603.72 1442.09C1603.45 1442.09 1603.22 1441.86 1603.22 1441.59L1603.22 1177.5 1603.72 1178 925.166 1178 925.166 1177 1603.72 1177C1604 1177 1604.22 1177.22 1604.22 1177.5L1604.22 1441.59 1603.72 1441.09 1672.99 1441.09ZM926.5 1181.5 918.5 1177.5 926.5 1173.5Z" fill="#0078D4"/><path d="M779 1800.49 779.689 1837.91 778.689 1837.93 778 1800.51ZM783.164 1836.51 779.312 1844.59 775.165 1836.66Z" fill="#0078D4"/><rect x="638" y="554" width="279" height="135" fill="#FFFFFF"/><path d="M672.875 554 672.875 689M882.125 554 882.125 689" stroke="#0078D4" stroke-width="2" stroke-linejoin="round" stroke-miterlimit="10" fill="none" fill-rule="evenodd"/><rect x="638" y="554" width="279" height="135" stroke="#0078D4" stroke-width="2" stroke-linejoin="round" stroke-miterlimit="10" fill="none"/><text font-family="Segoe UI,Segoe UI_MSFontService,sans-serif" font-weight="400" font-size="24" transform="translate(722.078 601)">Establish a</text><text font-family="Segoe UI,Segoe UI_MSFontService,sans-serif" font-weight="400" font-size="24" transform="translate(719.492 630)">knowledge</text><text font-family="Segoe UI,Segoe UI_MSFontService,sans-serif" font-weight="400" font-size="24" transform="translate(753.151 659)">base</text><path d="M1672.99 1793.17 1603.72 1793.17C1603.44 1793.17 1603.22 1792.94 1603.22 1792.67L1603.22 1177.5 1603.72 1178 925.166 1178 925.166 1177 1603.72 1177C1603.99 1177 1604.22 1177.22 1604.22 1177.5L1604.22 1792.67 1603.72 1792.17 1672.99 1792.17ZM926.5 1181.5 918.5 1177.5 926.5 1173.5Z" fill="#0078D4"/><path d="M0-0.5 29.686-0.5C29.9621-0.5 30.186-0.276142 30.186 0L30.186 0.352441 29.686-0.147559 52.7053-0.147559 52.7053 0.852441 29.686 0.852441C29.4098 0.852441 29.186 0.628583 29.186 0.352441L29.186 0 29.686 0.5 0 0.5ZM51.372-3.64756 59.372 0.352441 51.372 4.35244Z" fill="#0078D4" transform="matrix(1.83697e-16 1 1 -1.83697e-16 777.5 494.5)"/><path d="M0-0.5 27.5155-0.5C27.7916-0.5 28.0155-0.276142 28.0155 0L28.0155 0.127454 27.5155-0.372546 48.3643-0.372546 48.3643 0.627454 27.5155 0.627454C27.2393 0.627454 27.0155 0.403596 27.0155 0.127454L27.0155 0 27.5155 0.5 0 0.5ZM47.031-3.87255 55.031 0.127454 47.031 4.12745Z" fill="#0078D4" transform="matrix(1.83697e-16 1 1 -1.83697e-16 777.5 689.5)"/><rect x="638" y="744" width="279" height="135" fill="#FFFFFF"/><path d="M672.875 744 672.875 879M882.125 744 882.125 879" stroke="#0078D4" stroke-width="2" stroke-linejoin="round" stroke-miterlimit="10" fill="none" fill-rule="evenodd"/><rect x="638" y="744" width="279" height="135" stroke="#0078D4" stroke-width="2" stroke-linejoin="round" stroke-miterlimit="10" fill="none"/><text font-family="Segoe UI,Segoe UI_MSFontService,sans-serif" font-weight="400" font-size="24" transform="translate(712.619 806)">Engage with</text><text font-family="Segoe UI,Segoe UI_MSFontService,sans-serif" font-weight="400" font-size="24" transform="translate(723.299 835)">customers</text><path d="M0-0.5 24.0561-0.5C24.3322-0.5 24.5561-0.276142 24.5561 0L24.5561 0.705302 24.0561 0.205302 41.4455 0.205302 41.4455 1.2053 24.0561 1.2053C23.7799 1.2053 23.5561 0.981444 23.5561 0.705302L23.5561 0 24.0561 0.5 0 0.5ZM40.1121-3.2947 48.1121 0.705302 40.1121 4.7053Z" fill="#0078D4" transform="matrix(1.83697e-16 1 1 -1.83697e-16 778.5 879.5)"/></g></svg>