<?xml version="1.0" encoding="UTF-8" standalone="no"?>
<svg
   width="1362.8822"
   height="1013.2814"
   overflow="hidden"
   version="1.1"
   id="svg382"
   sodipodi:docname="concept-to-market-define-service-costing-flow.svg"
   inkscape:version="1.2.2 (732a01da63, 2022-12-09)"
   xmlns:inkscape="http://www.inkscape.org/namespaces/inkscape"
   xmlns:sodipodi="http://sodipodi.sourceforge.net/DTD/sodipodi-0.dtd"
   xmlns="http://www.w3.org/2000/svg"
   xmlns:svg="http://www.w3.org/2000/svg">
  <defs
     id="defs386" />
  <sodipodi:namedview
     id="namedview384"
     pagecolor="#ffffff"
     bordercolor="#000000"
     borderopacity="0.25"
     inkscape:showpageshadow="2"
     inkscape:pageopacity="0.0"
     inkscape:pagecheckerboard="0"
     inkscape:deskcolor="#d1d1d1"
     showgrid="false"
     inkscape:zoom="0.53489583"
     inkscape:cx="599.18208"
     inkscape:cy="1350.7303"
     inkscape:window-width="1649"
     inkscape:window-height="1259"
     inkscape:window-x="3040"
     inkscape:window-y="304"
     inkscape:window-maximized="0"
     inkscape:current-layer="svg382" />
  <g
     id="g380"
     transform="translate(-358.94839,-57.955208)">
    <rect
       x="358.94839"
       y="57.955208"
       width="1362.8822"
       height="1013.2814"
       fill="#ffffff"
       id="rect244"
       style="stroke-width:0.612058" />
    <rect
       x="701"
       y="69"
       width="357"
       height="935"
       stroke="#0078d4"
       stroke-width="2"
       stroke-linejoin="round"
       stroke-miterlimit="10"
       fill="#d9d9d9"
       id="rect246" />
    <text
       fill="#0078d4"
       font-family="'Segoe UI', 'Segoe UI_MSFontService', sans-serif"
       font-weight="700"
       font-size="27px"
       transform="translate(730.03,118)"
       id="text248">Business process area</text>
    <path
       d="M 399,105.5 C 399,85.3417 415.342,69 435.5,69 h 182 c 20.159,0 36.5,16.3417 36.5,36.5 v 0 c 0,20.159 -16.342,36.5 -36.5,36.5 h -182 C 415.342,142 399,125.658 399,105.5 Z"
       stroke="#0078d4"
       stroke-width="2"
       stroke-linejoin="round"
       stroke-miterlimit="10"
       fill="#ffffff"
       fill-rule="evenodd"
       id="path250" />
    <text
       font-family="'Segoe UI', 'Segoe UI_MSFontService', sans-serif"
       font-weight="400"
       font-size="21px"
       transform="translate(504.487,114)"
       id="text252">Start</text>
    <rect
       x="1430"
       y="379"
       width="255"
       height="153"
       stroke="#000000"
       stroke-width="2"
       stroke-linejoin="round"
       stroke-miterlimit="10"
       fill="#a0a0a0"
       id="rect254" />
    <text
       font-family="'Segoe UI', 'Segoe UI_MSFontService', sans-serif"
       font-weight="400"
       font-size="21px"
       transform="translate(1493.73,464)"
       id="text256">Order to cash</text>
    <rect
       x="399"
       y="179"
       width="255"
       height="154"
       stroke="#000000"
       stroke-width="2"
       stroke-linejoin="round"
       stroke-miterlimit="10"
       fill="#a0a0a0"
       id="rect258" />
    <text
       font-family="'Segoe UI', 'Segoe UI_MSFontService', sans-serif"
       font-weight="400"
       font-size="21px"
       transform="translate(439.08,264)"
       id="text260">Concept to market</text>
    <rect
       x="751"
       y="379"
       width="255"
       height="153"
       fill="#ffffff"
       id="rect262" />
    <path
       d="M 782.875,379 V 532 M 974.125,379 V 532"
       stroke="#0078d4"
       stroke-width="2"
       stroke-linejoin="round"
       stroke-miterlimit="10"
       fill="none"
       fill-rule="evenodd"
       id="path264" />
    <rect
       x="751"
       y="379"
       width="255"
       height="153"
       stroke="#0078d4"
       stroke-width="2"
       stroke-linejoin="round"
       stroke-miterlimit="10"
       fill="none"
       id="rect266" />
    <text
       font-family="'Segoe UI', 'Segoe UI_MSFontService', sans-serif"
       font-weight="400"
       font-size="21px"
       transform="translate(812.483,438)"
       id="text268">Define service</text>
    <text
       font-family="'Segoe UI', 'Segoe UI_MSFontService', sans-serif"
       font-weight="400"
       font-size="21px"
       transform="translate(844.329,463)"
       id="text270">costing</text>
    <text
       font-family="'Segoe UI', 'Segoe UI_MSFontService', sans-serif"
       font-weight="400"
       font-size="21px"
       transform="translate(840.663,489)"
       id="text272">strategy</text>
    <rect
       x="1108"
       y="379"
       width="254"
       height="153"
       fill="#0078d4"
       id="rect274" />
    <path
       d="m 1139.75,379 v 153 m 190.5,-153 v 153"
       stroke="#0078d4"
       stroke-width="2"
       stroke-linejoin="round"
       stroke-miterlimit="10"
       fill="none"
       fill-rule="evenodd"
       id="path276" />
    <rect
       x="1108"
       y="379"
       width="254"
       height="153"
       stroke="#0078d4"
       stroke-width="2"
       stroke-linejoin="round"
       stroke-miterlimit="10"
       fill="none"
       id="rect278" />
    <text
       fill="#ffffff"
       font-family="'Segoe UI', 'Segoe UI_MSFontService', sans-serif"
       font-weight="400"
       font-size="21px"
       transform="translate(1196.78,438)"
       id="text280">Manage</text>
    <text
       fill="#ffffff"
       font-family="'Segoe UI', 'Segoe UI_MSFontService', sans-serif"
       font-weight="400"
       font-size="21px"
       transform="translate(1198.1,463)"
       id="text282">services</text>
    <text
       fill="#ffffff"
       font-family="'Segoe UI', 'Segoe UI_MSFontService', sans-serif"
       font-weight="400"
       font-size="21px"
       transform="translate(1202.69,489)"
       id="text284">pricing</text>
    <rect
       x="399"
       y="379"
       width="255"
       height="153"
       fill="#0078d4"
       id="rect286" />
    <path
       d="M 430.875,379 V 532 M 622.125,379 V 532"
       stroke="#0078d4"
       stroke-width="2"
       stroke-linejoin="round"
       stroke-miterlimit="10"
       fill="none"
       fill-rule="evenodd"
       id="path288" />
    <rect
       x="399"
       y="379"
       width="255"
       height="153"
       stroke="#0078d4"
       stroke-width="2"
       stroke-linejoin="round"
       stroke-miterlimit="10"
       fill="none"
       id="rect290" />
    <text
       fill="#ffffff"
       font-family="'Segoe UI', 'Segoe UI_MSFontService', sans-serif"
       font-weight="400"
       font-size="21px"
       transform="translate(481.42,451)"
       id="text292">Introduce</text>
    <text
       fill="#ffffff"
       font-family="'Segoe UI', 'Segoe UI_MSFontService', sans-serif"
       font-weight="400"
       font-size="21px"
       transform="translate(467.273,476)"
       id="text294">new services</text>
    <rect
       x="751"
       y="179"
       width="255"
       height="154"
       stroke="#00569b"
       stroke-width="2"
       stroke-linejoin="round"
       stroke-miterlimit="10"
       fill="#0078d4"
       id="rect296" />
    <text
       fill="#ffffff"
       font-family="'Segoe UI', 'Segoe UI_MSFontService', sans-serif"
       font-weight="400"
       font-size="21px"
       transform="translate(812.483,251)"
       id="text298">Define service</text>
    <text
       fill="#ffffff"
       font-family="'Segoe UI', 'Segoe UI_MSFontService', sans-serif"
       font-weight="400"
       font-size="21px"
       transform="translate(844.323,276)"
       id="text300">costing</text>
    <rect
       x="751"
       y="587"
       width="255"
       height="153"
       fill="#ffffff"
       id="rect302" />
    <path
       d="M 782.875,587 V 740 M 974.125,587 V 740"
       stroke="#0078d4"
       stroke-width="2"
       stroke-linejoin="round"
       stroke-miterlimit="10"
       fill="none"
       fill-rule="evenodd"
       id="path304" />
    <rect
       x="751"
       y="587"
       width="255"
       height="153"
       stroke="#0078d4"
       stroke-width="2"
       stroke-linejoin="round"
       stroke-miterlimit="10"
       fill="none"
       id="rect306" />
    <text
       font-family="'Segoe UI', 'Segoe UI_MSFontService', sans-serif"
       font-weight="400"
       font-size="21px"
       transform="translate(837.242,659)"
       id="text308">Maintain</text>
    <text
       font-family="'Segoe UI', 'Segoe UI_MSFontService', sans-serif"
       font-weight="400"
       font-size="21px"
       transform="translate(819.316,684)"
       id="text310">service costs</text>
    <rect
       x="751"
       y="786"
       width="255"
       height="154"
       fill="#ffffff"
       id="rect312" />
    <path
       d="M 782.875,786 V 940 M 974.125,786 V 940"
       stroke="#0078d4"
       stroke-width="2"
       stroke-linejoin="round"
       stroke-miterlimit="10"
       fill="none"
       fill-rule="evenodd"
       id="path314" />
    <rect
       x="751"
       y="786"
       width="255"
       height="154"
       stroke="#0078d4"
       stroke-width="2"
       stroke-linejoin="round"
       stroke-miterlimit="10"
       fill="none"
       id="rect316" />
    <text
       font-family="'Segoe UI', 'Segoe UI_MSFontService', sans-serif"
       font-weight="400"
       font-size="21px"
       transform="translate(841.909,858)"
       id="text318">Analyze</text>
    <text
       font-family="'Segoe UI', 'Segoe UI_MSFontService', sans-serif"
       font-weight="400"
       font-size="21px"
       transform="translate(819.316,883)"
       id="text320">service costs</text>
    <path
       d="m 1430,1024 c 0,-19.88 16.12,-36 36,-36 h 183 c 19.88,0 36,16.12 36,36 v 0 c 0,19.88 -16.12,36 -36,36 h -183 c -19.88,0 -36,-16.12 -36,-36 z"
       stroke="#0078d4"
       stroke-width="2"
       stroke-linejoin="round"
       stroke-miterlimit="10"
       fill="#ffffff"
       fill-rule="evenodd"
       id="path322" />
    <text
       font-family="'Segoe UI', 'Segoe UI_MSFontService', sans-serif"
       font-weight="400"
       font-size="21px"
       transform="translate(1539.75,1032)"
       id="text324">End</text>
    <path
       d="m 654.5,255 h 90.06 v 3 H 654.5 Z m 88.56,-3 9,4.5 -9,4.5 z"
       fill="#0078d4"
       id="path326" />
    <rect
       x="1430"
       y="587"
       width="255"
       height="153"
       stroke="#000000"
       stroke-width="2"
       stroke-linejoin="round"
       stroke-miterlimit="10"
       fill="#a0a0a0"
       id="rect328" />
    <text
       font-family="'Segoe UI', 'Segoe UI_MSFontService', sans-serif"
       font-weight="400"
       font-size="21px"
       transform="translate(1489.17,671)"
       id="text330">Procure to pay</text>
    <rect
       x="1430"
       y="785"
       width="255"
       height="154"
       stroke="#000000"
       stroke-width="2"
       stroke-linejoin="round"
       stroke-miterlimit="10"
       fill="#a0a0a0"
       id="rect332" />
    <text
       font-family="'Segoe UI', 'Segoe UI_MSFontService', sans-serif"
       font-weight="400"
       font-size="21px"
       transform="translate(1479.77,870)"
       id="text334">Record to report</text>
    <rect
       x="399"
       y="786"
       width="255"
       height="154"
       stroke="#000000"
       stroke-width="2"
       stroke-linejoin="round"
       stroke-miterlimit="10"
       fill="#a0a0a0"
       id="rect336" />
    <text
       font-family="'Segoe UI', 'Segoe UI_MSFontService', sans-serif"
       font-weight="400"
       font-size="21px"
       transform="translate(458.203,871)"
       id="text338">Procure to pay</text>
    <path
       d="m 654.5,862 h 90.06 v 3 H 654.5 Z m 88.56,-3 9,4.5 -9,4.5 z"
       fill="#0078d4"
       id="path340" />
    <path
       d="M 1.5,-2.71299e-5 1.5007,38.9375 h -3 L -1.5,2.71299e-5 Z M 4.50068,37.4374 8.39895e-4,46.4375 -4.49932,37.4376 Z"
       fill="#0078d4"
       transform="matrix(-1,0,0,1,878.501,333.5)"
       id="path342" />
    <path
       d="m 528,333.5 v 23.219 c 0,0.828 -0.671,1.5 -1.5,1.5 v 0 l 1.5,-1.5 v 15.718 h -3 v -15.718 c 0,-0.829 0.672,-1.5 1.5,-1.5 v 0 l -1.5,1.5 V 333.5 Z m 3,37.437 -4.5,9 -4.5,-9 z"
       fill="#0078d4"
       id="path344" />
    <path
       d="m 654.5,455 h 90.06 v 3 H 654.5 Z m 88.56,-3 9,4.5 -9,4.5 z"
       fill="#0078d4"
       id="path346" />
    <path
       d="m 1003.5,455 h 97.12 v 3 h -97.12 z m 95.62,-3 9,4.5 -9,4.5 z"
       fill="#0078d4"
       id="path348" />
    <path
       d="m 880,532.5 v 46.666 h -3 V 532.5 Z m 3,45.166 -4.5,9 -4.5,-9 z"
       fill="#0078d4"
       id="path350" />
    <path
       d="m 880,740.5 v 38.938 h -3 V 740.5 Z m 3,37.438 -4.5,9 -4.5,-9 z"
       fill="#0078d4"
       id="path352" />
    <path
       d="m 1234,379.5 v -24 c 0,-0.828 0.67,-1.5 1.5,-1.5 h 322.39 c 0.83,0 1.5,0.672 1.5,1.5 V 372 h -3 v -16.5 l 1.5,1.5 H 1235.5 l 1.5,-1.5 v 24 z m 328.39,-9 -4.5,9 -4.5,-9 z"
       fill="#0078d4"
       id="path354" />
    <path
       d="m 0,-1.5 h 387.241 c 0.828,0 1.5,0.671573 1.5,1.5 v 207.456 l -1.5,-1.5 h 29.87 v 3 h -29.87 c -0.828,0 -1.5,-0.672 -1.5,-1.5 V 0 l 1.5,1.5 H 0 Z m 415.611,204.456 9,4.5 -9,4.5 z"
       fill="#0078d4"
       transform="matrix(1,0,0,-1,1006.5,663.956)"
       id="path356" />
    <path
       d="M 3.70881e-7,-1.5 417.112,-1.4999 v 3 L -3.70881e-7,1.5 Z M 415.611,-4.4999 l 9,4.500004987 -9,4.499995013 z"
       fill="#0078d4"
       transform="matrix(1,0,0,-1,1006.5,663.5)"
       id="path358" />
    <path
       d="M 0.00353152,-1.5 417.114,-0.517969 417.107,2.48202 -0.00353152,1.5 Z M 415.622,-3.52149 424.611,0.999685 415.6,5.47848 Z"
       fill="#0078d4"
       transform="matrix(1,0,0,-1,1006.5,863.5)"
       id="path360" />
    <path
       d="m 1685.5,455 h 24 c 0.83,0 1.5,0.672 1.5,1.5 v 406.184 c 0,0.829 -0.67,1.5 -1.5,1.5 h -15.17 v -3 h 15.17 l -1.5,1.5 V 456.5 l 1.5,1.5 h -24 z m 10.33,412.184 -9,-4.5 9,-4.5 z"
       fill="#0078d4"
       id="path362" />
    <path
       d="m 1685.5,662 h 24 c 0.83,0 1.5,0.672 1.5,1.5 v 198.728 c 0,0.829 -0.67,1.5 -1.5,1.5 h -15.17 v -3 h 15.17 l -1.5,1.5 V 663.5 l 1.5,1.5 h -24 z m 10.33,204.728 -9,-4.5 9,-4.5 z"
       fill="#0078d4"
       id="path364" />
    <path
       d="M 1.5,-3.20392e-6 1.50009,41.6524 l -3,1e-4 L -1.5,3.20392e-6 Z M 4.50009,40.1524 1.04987e-4,49.1524 -4.49991,40.1525 Z"
       fill="#0078d4"
       transform="matrix(-1,0,0,1,1557.5,939.5)"
       id="path366" />
    <path
       d="m 528,142.5 v 29.784 h -3 V 142.5 Z m 3,28.284 -4.5,9 -4.5,-9 z"
       fill="#0078d4"
       id="path368" />
    <path
       d="m 0,-1.5 h 24.0002 c 0.8284,0 1.5,0.671573 1.5,1.5 v 757.228 c 0,0.828 -0.6716,1.5 -1.5,1.5 H 7.50021 v -3 H 24.0002 l -1.5,1.5 V 0 l 1.5,1.5 H 0 Z m 9.00021,763.228 -9.000000026,-4.5 9.000000026,-4.5 z"
       fill="#0078d4"
       transform="matrix(-1,0,0,1,399.5,106.5)"
       id="path370" />
    <rect
       x="1430"
       y="172"
       width="255"
       height="153"
       stroke="#000000"
       stroke-width="2"
       stroke-linejoin="round"
       stroke-miterlimit="10"
       fill="#a0a0a0"
       id="rect372" />
    <text
       font-family="'Segoe UI', 'Segoe UI_MSFontService', sans-serif"
       font-weight="400"
       font-size="21px"
       transform="translate(1487.41,256)"
       id="text374">Service to cash</text>
    <path
       d="M 1234,379.311 V 248.5 c 0,-0.828 0.67,-1.5 1.5,-1.5 h 187.69 v 3 H 1235.5 l 1.5,-1.5 V 379.311 Z M 1421.69,244 l 9,4.5 -9,4.5 z"
       fill="#0078d4"
       id="path376" />
    <path
       d="m 1685.5,247 h 24 c 0.83,0 1.5,0.672 1.5,1.5 v 613.64 c 0,0.829 -0.67,1.5 -1.5,1.5 H 1693 v -3 h 16.5 l -1.5,1.5 V 248.5 l 1.5,1.5 h -24 z m 9,619.64 -9,-4.5 9,-4.5 z"
       fill="#0078d4"
       id="path378" />
  </g>
</svg>
