<?xml version="1.0"?>
<svg xmlns="http://www.w3.org/2000/svg" xmlns:xlink="http://www.w3.org/1999/xlink" xmlns:ev="http://www.w3.org/2001/xml-events"    viewBox="7 22 699 815"    xml:space="preserve" color-interpolation-filters="sRGB" class="st11" width="1748" height="2038">
<rect x="0" y="0" width="1748" height="2038" fill="#ffffff" />
	<style type="text/css"><![CDATA[
		.st1 {fill:#ffffff;stroke:#0078d4;stroke-linecap:round;stroke-linejoin:round;stroke-width:0.24}
		.st2 {fill:#000000;font-family:Calibri;font-size:1.00001em}
		.st3 {fill:#a0a0a0;stroke:none;stroke-linecap:round;stroke-linejoin:round;stroke-width:0.24}
		.st4 {fill:#0078d4;stroke:none;stroke-linecap:round;stroke-linejoin:round;stroke-width:0.24}
		.st5 {fill:#ffffff;font-family:Calibri;font-size:1.00001em}
		.st6 {fill:#ffffff}
		.st7 {stroke:#0078d4;stroke-linecap:round;stroke-linejoin:round;stroke-width:0.24}
		.st8 {font-size:1em}
		.st9 {marker-end:url(#mrkr13-97);stroke:#0078d4;stroke-linecap:round;stroke-linejoin:round;stroke-width:0.75}
		.st10 {fill:#0078d4;fill-opacity:1;stroke:#0078d4;stroke-opacity:1;stroke-width:0.22935779816514}
		.st11 {fill:none;fill-rule:evenodd;font-size:12px;overflow:visible;stroke-linecap:square;stroke-miterlimit:3}
	]]></style><style> a { pointer-events: none; } </style><style>a.rules_svg_anchor g:hover { opacity:0.8; cursor:pointer; }</style>
	<defs id="Markers">
		<g id="lend13">
			<path d="M 3 1 L 0 0 L 3 -1 L 3 1 " style="stroke:none" />
		</g>
		<marker id="mrkr13-97" class="st10" refX="-13.08" orient="auto" markerUnits="strokeWidth" overflow="visible">
			<use xlink:href="#lend13" transform="scale(-4.36,-4.36) " />
		</marker>
	</defs>
	<g>
		
		<g id="shape1-1" transform="translate(45,-1116)">
			
			<desc>Start</desc>
			<path d="M18 1188 L67.5 1188 A18 18 -180 0 0 67.5 1152 L18 1152 A18 18 -180 1 0 18 1188 Z" class="st1" />
			<text x="31.01" y="1173.6" class="st2">Start</text>
		</g>
		<a id="28697bbd-a113-4c4d-b6b3-6ba368266db3" class="rules_svg_anchor rules_svg_shape"   href="/lms/chart?onclick=b3BlbkNoYXJ0Q29udGV4dE1lbnUoZXZlbnQsJ3cxMTVkNTIzNTk2NWMxNjk5MnY0MDcwJywxNzQ5OCwgMSwgMSwgdGhpcywgd2luZG93LmZyYW1lRWxlbWVudCk=&amp;navigate=true&amp;details=Description">
			<g id="shape2-4" transform="translate(76.5,-1008)">
				
				<desc>50 Forecast to plan</desc>
				<rect x="0" y="1125" width="99" height="63" class="st3" />
				<text x="2.85" y="1160.1" class="st2">50 Forecast to plan</text>
			</g>
		</a>
		<a id="6f1148c0-06ce-4d2d-be12-a9bad81df2a8" class="rules_svg_anchor rules_svg_shape"   href="/lms/chart?onclick=b3BlbkNoYXJ0Q29udGV4dE1lbnUoZXZlbnQsJ3cxMTVkNTIzNTk2NWMxNjkxM3Y0MDcwJywxNzQyNCwgMSwgMSwgdGhpcywgd2luZG93LmZyYW1lRWxlbWVudCk=&amp;navigate=true&amp;details=Description">
			<g id="shape3-7" transform="translate(292.5,-1102.5)">
				
				<desc>30 Concept to market</desc>
				<rect x="0" y="1125" width="126" height="63" class="st4" />
				<text x="9.99" y="1160.1" class="st5">30 Concept to market</text>
			</g>
		</a>
		<a id="45282b56-ef2c-48ed-9579-3bf73a5e9207" class="rules_svg_anchor rules_svg_shape"   href="/lms/chart?onclick=b3BlbkNoYXJ0Q29udGV4dE1lbnUoZXZlbnQsJ3cxMTVkNTIzNTk2NWMxMjIxMDd2NDA3MCcsMTc0MjUsIDEsIDEsIHRoaXMsIHdpbmRvdy5mcmFtZUVsZW1lbnQp&amp;navigate=true&amp;details=Description">
			<g id="shape4-10" transform="translate(292.5,-1008)">
				
				<desc>30.05 Develop marketing strategy</desc>
				<path d="M0 1188 L126 1188 L126 1125 L0 1125 L0 1188 Z" class="st6" />
				<path d="M0 1188 L126 1188 L126 1125 L0 1125 L0 1188" class="st7" />
				<path d="M9 1188 L9 1125" class="st7" />
				<path d="M117 1188 L117 1125" class="st7" />
				<text x="27.9" y="1152.9" class="st2">30.05 Develop <tspan x="16.95" dy="1.2em" class="st8">marketing strategy</tspan>
				</text>
			</g>
		</a>
		<a id="9a0af6b1-26fd-408b-b7e0-410e293c2f6a" class="rules_svg_anchor rules_svg_shape"   href="/lms/chart?onclick=b3BlbkNoYXJ0Q29udGV4dE1lbnUoZXZlbnQsJ3cxMTVkNTIzNTk2NWMxMjIxMDh2NDA3MCcsMTc0MzEsIDEsIDEsIHRoaXMsIHdpbmRvdy5mcmFtZUVsZW1lbnQp&amp;navigate=true&amp;details=Description">
			<g id="shape5-17" transform="translate(292.5,-913.5)">
				
				<desc>30.15 Research and develop offerings</desc>
				<path d="M0 1188 L126 1188 L126 1125 L0 1125 L0 1188 Z" class="st6" />
				<path d="M0 1188 L126 1188 L126 1125 L0 1125 L0 1188" class="st7" />
				<path d="M9 1188 L9 1125" class="st7" />
				<path d="M117 1188 L117 1125" class="st7" />
				<text x="15.2" y="1152.9" class="st2">30.15 Research and <tspan x="20.51" dy="1.2em" class="st8">develop offerings</tspan>
				</text>
			</g>
		</a>
		<a id="806c44c6-931e-4459-8a04-27cd1646c209" class="rules_svg_anchor rules_svg_shape"   href="/lms/chart?onclick=b3BlbkNoYXJ0Q29udGV4dE1lbnUoZXZlbnQsJ3cxMTVkNTIzNTk2NWMxMjIxMDl2NDA3MCcsMTc0MzgsIDEsIDEsIHRoaXMsIHdpbmRvdy5mcmFtZUVsZW1lbnQp&amp;navigate=true&amp;details=Description">
			<g id="shape6-24" transform="translate(292.5,-832.5)">
				
				<desc>30.25 Manage service offerings</desc>
				<path d="M0 1188 L126 1188 L126 1125 L0 1125 L0 1188 Z" class="st6" />
				<path d="M0 1188 L126 1188 L126 1125 L0 1125 L0 1188" class="st7" />
				<path d="M9 1188 L9 1125" class="st7" />
				<path d="M117 1188 L117 1125" class="st7" />
				<text x="28.12" y="1152.9" class="st2">30.25 Manage <tspan x="23.01" dy="1.2em" class="st8">service offerings</tspan>
				</text>
			</g>
		</a>
		<a id="b8933cd0-93a0-428f-855b-2e355f7045b2" class="rules_svg_anchor rules_svg_shape"   href="/lms/chart?onclick=b3BlbkNoYXJ0Q29udGV4dE1lbnUoZXZlbnQsJ3cxMTVkNTIzNTk2NWMxMjIxMTB2NDA3MCcsMTc0NDMsIDEsIDEsIHRoaXMsIHdpbmRvdy5mcmFtZUVsZW1lbnQp&amp;navigate=true&amp;details=Description">
			<g id="shape7-31" transform="translate(292.5,-747)">
				
				<desc>30.35 Launch marketing campaigns</desc>
				<path d="M0 1188 L126 1188 L126 1125 L0 1125 L0 1188 Z" class="st6" />
				<path d="M0 1188 L126 1188 L126 1125 L0 1125 L0 1188" class="st7" />
				<path d="M9 1188 L9 1125" class="st7" />
				<path d="M117 1188 L117 1125" class="st7" />
				<text x="30.57" y="1145.7" class="st2">30.35 Launch <tspan x="38.16" dy="1.2em" class="st8">marketing </tspan>
					<tspan x="37.07" dy="1.2em" class="st8">campaigns</tspan>
				</text>
			</g>
		</a>
		<a id="b3f11a76-8b90-4074-895f-e3526f8f5465" class="rules_svg_anchor rules_svg_shape"   href="/lms/chart?onclick=b3BlbkNoYXJ0Q29udGV4dE1lbnUoZXZlbnQsJ3cxMTVkNTIzNTk2NWMxMjIxMTF2NDA3MCcsMTc0NTAsIDEsIDEsIHRoaXMsIHdpbmRvdy5mcmFtZUVsZW1lbnQp&amp;navigate=true&amp;details=Description">
			<g id="shape8-39" transform="translate(292.5,-657)">
				
				<desc>30.45 Manage marketing campaigns</desc>
				<path d="M0 1188 L126 1188 L126 1125 L0 1125 L0 1188 Z" class="st6" />
				<path d="M0 1188 L126 1188 L126 1125 L0 1125 L0 1188" class="st7" />
				<path d="M9 1188 L9 1125" class="st7" />
				<path d="M117 1188 L117 1125" class="st7" />
				<text x="28.12" y="1145.7" class="st2">30.45 Manage <tspan x="38.16" dy="1.2em" class="st8">marketing </tspan>
					<tspan x="37.07" dy="1.2em" class="st8">campaigns</tspan>
				</text>
			</g>
		</a>
		<a id="27d3a74a-9bf4-496b-8100-8eb29f333f90" class="rules_svg_anchor rules_svg_shape"   href="/lms/chart?onclick=b3BlbkNoYXJ0Q29udGV4dE1lbnUoZXZlbnQsJ3cxMTVkNTIzNTk2NWMxNzM3NnY0MDcwJywxNzc5MSwgMSwgMSwgdGhpcywgd2luZG93LmZyYW1lRWxlbWVudCk=&amp;navigate=true&amp;details=Description">
			<g id="shape9-47" transform="translate(76.5,-913.5)">
				
				<desc>85 Prospect to quote</desc>
				<rect x="0" y="1125" width="99" height="63" class="st3" />
				<text x="14.14" y="1152.9" class="st2">85 Prospect to <tspan x="35.04" dy="1.2em" class="st8">quote</tspan>
				</text>
			</g>
		</a>
		<a id="a171d4e0-485c-4afb-9d27-e56915074ec8" class="rules_svg_anchor rules_svg_shape"   href="/lms/chart?onclick=b3BlbkNoYXJ0Q29udGV4dE1lbnUoZXZlbnQsJ3cxMTVkNTIzNTk2NWMxNzE1NXY0MDcwJywxNzYxNywgMSwgMSwgdGhpcywgd2luZG93LmZyYW1lRWxlbWVudCk=&amp;navigate=true&amp;details=Description">
			<g id="shape10-51" transform="translate(76.5,-819)">
				
				<desc>65 Order to cash</desc>
				<rect x="0" y="1125" width="99" height="63" class="st3" />
				<text x="8.97" y="1160.1" class="st2">65 Order to cash</text>
			</g>
		</a>
		<a id="515d44b9-20ce-428d-9e20-be6f21917063" class="rules_svg_anchor rules_svg_shape"   href="/lms/chart?onclick=b3BlbkNoYXJ0Q29udGV4dE1lbnUoZXZlbnQsJ3cxMTVkNTIzNTk2NWMxNzQ5NnY0MDcwJywxNzg1MywgMSwgMSwgdGhpcywgd2luZG93LmZyYW1lRWxlbWVudCk=&amp;navigate=true&amp;details=Description">
			<g id="shape11-54" transform="translate(76.5,-724.5)">
				
				<desc>95 Service to deliver</desc>
				<rect x="0" y="1125" width="99" height="63" class="st3" />
				<text x="18.09" y="1152.9" class="st2">95 Service to <tspan x="32.82" dy="1.2em" class="st8">deliver</tspan>
				</text>
			</g>
		</a>
		<a id="3b81de21-ad78-467c-899a-4c7aea7aa32e" class="rules_svg_anchor rules_svg_shape"   href="/lms/chart?onclick=b3BlbkNoYXJ0Q29udGV4dE1lbnUoZXZlbnQsJ3cxMTVkNTIzNTk2NWMxNzMxOXY0MDcwJywxNzc0OCwgMSwgMSwgdGhpcywgd2luZG93LmZyYW1lRWxlbWVudCk=&amp;navigate=true&amp;details=Description">
			<g id="shape12-58" transform="translate(76.5,-630)">
				
				<desc>80 Project to profit</desc>
				<rect x="0" y="1125" width="99" height="63" class="st3" />
				<text x="3.23" y="1160.1" class="st2">80 Project to profit</text>
			</g>
		</a>
		<a id="316367d4-0a54-46dd-8289-6ee461f90b6a" class="rules_svg_anchor rules_svg_shape"   href="/lms/chart?onclick=b3BlbkNoYXJ0Q29udGV4dE1lbnUoZXZlbnQsJ3cxMTVkNTIzNTk2NWMxNzI2OXY0MDcwJywxNzY5OSwgMSwgMSwgdGhpcywgd2luZG93LmZyYW1lRWxlbWVudCk=&amp;navigate=true&amp;details=Description">
			<g id="shape13-61" transform="translate(607.5,-1055.25)">
				
				<desc>75 Source to pay</desc>
				<rect x="0" y="1125" width="99" height="63" class="st3" />
				<text x="8.74" y="1160.1" class="st2">75 Source to pay</text>
			</g>
		</a>
		<a id="6c7e4801-d34e-4638-aa76-cc031d8e9f03" class="rules_svg_anchor rules_svg_shape"   href="/lms/chart?onclick=b3BlbkNoYXJ0Q29udGV4dE1lbnUoZXZlbnQsJ3cxMTVkNTIzNTk2NWMxNzM3NnY0MDcwJywxNzc5MSwgMSwgMSwgdGhpcywgd2luZG93LmZyYW1lRWxlbWVudCk=&amp;navigate=true&amp;details=Description">
			<g id="shape14-64" transform="translate(607.5,-965.25)">
				
				<desc>85 Prospect to quote</desc>
				<rect x="0" y="1125" width="99" height="63" class="st3" />
				<text x="14.14" y="1152.9" class="st2">85 Prospect to <tspan x="35.04" dy="1.2em" class="st8">quote</tspan>
				</text>
			</g>
		</a>
		<a id="c89b42c7-2715-439c-99e8-8b3fa64e6e6b" class="rules_svg_anchor rules_svg_shape"   href="/lms/chart?onclick=b3BlbkNoYXJ0Q29udGV4dE1lbnUoZXZlbnQsJ3cxMTVkNTIzNTk2NWMxNzE1NXY0MDcwJywxNzYxNywgMSwgMSwgdGhpcywgd2luZG93LmZyYW1lRWxlbWVudCk=&amp;navigate=true&amp;details=Description">
			<g id="shape15-68" transform="translate(607.5,-875.25)">
				
				<desc>65 Order to cash</desc>
				<rect x="0" y="1125" width="99" height="63" class="st3" />
				<text x="8.97" y="1160.1" class="st2">65 Order to cash</text>
			</g>
		</a>
		<a id="968536d3-ba0b-4fcc-a01f-f0541f877b48" class="rules_svg_anchor rules_svg_shape"   href="/lms/chart?onclick=b3BlbkNoYXJ0Q29udGV4dE1lbnUoZXZlbnQsJ3cxMTVkNTIzNTk2NWMxNzIzMHY0MDcwJywxNzY2MywgMSwgMSwgdGhpcywgd2luZG93LmZyYW1lRWxlbWVudCk=&amp;navigate=true&amp;details=Description">
			<g id="shape16-71" transform="translate(607.5,-785.25)">
				
				<desc>70 Plan to produce</desc>
				<rect x="0" y="1125" width="99" height="63" class="st3" />
				<text x="3.44" y="1160.1" class="st2">70 Plan to produce</text>
			</g>
		</a>
		<a id="165257c2-e878-4871-8254-df6a540df27a" class="rules_svg_anchor rules_svg_shape"   href="/lms/chart?onclick=b3BlbkNoYXJ0Q29udGV4dE1lbnUoZXZlbnQsJ3cxMTVkNTIzNTk2NWMxNzMxOXY0MDcwJywxNzc0OCwgMSwgMSwgdGhpcywgd2luZG93LmZyYW1lRWxlbWVudCk=&amp;navigate=true&amp;details=Description">
			<g id="shape17-74" transform="translate(607.5,-693)">
				
				<desc>80 Project to profit</desc>
				<rect x="0" y="1125" width="99" height="63" class="st3" />
				<text x="3.23" y="1160.1" class="st2">80 Project to profit</text>
			</g>
		</a>
		<a id="3f766307-5bda-43ed-bf06-ef53978453c7" class="rules_svg_anchor rules_svg_shape"   href="/lms/chart?onclick=b3BlbkNoYXJ0Q29udGV4dE1lbnUoZXZlbnQsJ3cxMTVkNTIzNTk2NWMxNjg1N3Y0MDcwJywxNzM4MSwgMSwgMSwgdGhpcywgd2luZG93LmZyYW1lRWxlbWVudCk=&amp;navigate=true&amp;details=Description">
			<g id="shape18-77" transform="translate(607.5,-600.75)">
				
				<desc>20 Case to resolution</desc>
				<rect x="0" y="1125" width="99" height="63" class="st3" />
				<text x="24.13" y="1152.9" class="st2">20 Case to <tspan x="24.68" dy="1.2em" class="st8">resolution</tspan>
				</text>
			</g>
		</a>
		<a id="bf336433-c873-4529-becd-ae8f5476b872" class="rules_svg_anchor rules_svg_shape"   href="/lms/chart?onclick=b3BlbkNoYXJ0Q29udGV4dE1lbnUoZXZlbnQsJ3cxMTVkNTIzNTk2NWMxNzQ5NnY0MDcwJywxNzg1MywgMSwgMSwgdGhpcywgd2luZG93LmZyYW1lRWxlbWVudCk=&amp;navigate=true&amp;details=Description">
			<g id="shape19-81" transform="translate(607.5,-508.5)">
				
				<desc>95 Service to deliver</desc>
				<rect x="0" y="1125" width="99" height="63" class="st3" />
				<text x="18.09" y="1152.9" class="st2">95 Service to <tspan x="32.82" dy="1.2em" class="st8">deliver</tspan>
				</text>
			</g>
		</a>
		<a id="63dc3827-636c-4cb8-ab77-1f92cefb2e7a" class="rules_svg_anchor rules_svg_shape"   href="/lms/chart?onclick=b3BlbkNoYXJ0Q29udGV4dE1lbnUoZXZlbnQsJ3cxMTVkNTIzNTk2NWMxNzQxMnY0MDcwJywxNzc5OCwgMSwgMSwgdGhpcywgd2luZG93LmZyYW1lRWxlbWVudCk=&amp;navigate=true&amp;details=Description">
			<g id="shape20-85" transform="translate(607.5,-416.25)">
				
				<desc>90 Record to report</desc>
				<rect x="0" y="1125" width="99" height="63" class="st3" />
				<text x="18.34" y="1152.9" class="st2">90 Record to <tspan x="34" dy="1.2em" class="st8">report</tspan>
				</text>
			</g>
		</a>
		<g id="shape21-89" transform="translate(614.25,-351)">
			
			<desc>End</desc>
			<path d="M18 1188 L67.5 1188 A18 18 -180 0 0 67.5 1152 L18 1152 A18 18 -180 1 0 18 1188 Z" class="st1" />
			<text x="33.52" y="1173.6" class="st2">End</text>
		</g>
		<g id="shape22-92" transform="translate(45,-1134)">
			
			<path d="M0 1188 L-17.66 1188 L-17.66 1282.5 L21.69 1282.5" class="st9" />
		</g>
		<g id="shape23-98" transform="translate(45,-1134)">
			
			<path d="M0 1188 L-17.66 1188 L-17.66 1377 L21.69 1377" class="st9" />
		</g>
		<g id="shape24-103" transform="translate(45,-1134)">
			
			<path d="M0 1188 L-17.66 1188 L-17.66 1471.5 L21.69 1471.5" class="st9" />
		</g>
		<g id="shape25-108" transform="translate(45,-1134)">
			
			<path d="M0 1188 L-17.66 1188 L-17.66 1566 L21.69 1566" class="st9" />
		</g>
		<g id="shape26-113" transform="translate(45,-1134)">
			
			<path d="M0 1188 L-17.66 1188 L-17.66 1660.5 L21.69 1660.5" class="st9" />
		</g>
		<g id="shape27-118" transform="translate(175.5,-1039.5)">
			
			<path d="M0 1188 L17.66 1188 L17.66 1282.5 L107.19 1282.5" class="st9" />
		</g>
		<g id="shape28-123" transform="translate(175.5,-936)">
			
			<path d="M0 1179 L107.19 1179" class="st9" />
		</g>
		<g id="shape29-128" transform="translate(175.5,-850.5)">
			
			<path d="M0 1188 L17.66 1188 L17.66 1093.5 L107.19 1093.5" class="st9" />
		</g>
		<g id="shape30-133" transform="translate(175.5,-756)">
			
			<path d="M0 1188 L17.66 1188 L17.66 999 L107.19 999" class="st9" />
		</g>
		<g id="shape31-138" transform="translate(175.5,-661.5)">
			
			<path d="M0 1188 L17.66 1188 L17.66 904.5 L107.19 904.5" class="st9" />
		</g>
		<g id="shape32-143" transform="translate(346.5,-1102.5)">
			
			<path d="M9 1188 L9 1209.69" class="st9" />
		</g>
		<g id="shape33-148" transform="translate(346.5,-1008)">
			
			<path d="M9 1188 L9 1209.69" class="st9" />
		</g>
		<g id="shape34-153" transform="translate(346.5,-913.5)">
			
			<path d="M9 1188 L9 1196.19" class="st9" />
		</g>
		<g id="shape37-158" transform="translate(346.5,-747)">
			
			<path d="M9 1188 L9 1205.19" class="st9" />
		</g>
		<g id="shape38-163" transform="translate(418.5,-688.5)">
			
			<path d="M0 1188 L17.66 1188 L17.66 789.75 L179.19 789.75" class="st9" />
		</g>
		<g id="shape39-168" transform="translate(418.5,-688.5)">
			
			<path d="M0 1188 L17.66 1188 L17.66 879.75 L179.19 879.75" class="st9" />
		</g>
		<g id="shape40-173" transform="translate(418.5,-688.5)">
			
			<path d="M0 1188 L17.66 1188 L17.66 969.75 L179.19 969.75" class="st9" />
		</g>
		<g id="shape41-178" transform="translate(418.5,-688.5)">
			
			<path d="M0 1188 L17.66 1188 L17.66 1059.75 L179.19 1059.75" class="st9" />
		</g>
		<g id="shape42-183" transform="translate(418.5,-688.5)">
			
			<path d="M0 1188 L171 1188 L171 1152 L179.19 1152" class="st9" />
		</g>
		<g id="shape43-188" transform="translate(418.5,-688.5)">
			
			<path d="M0 1188 L171 1188 L171 1244.25 L179.19 1244.25" class="st9" />
		</g>
		<g id="shape44-193" transform="translate(418.5,-688.5)">
			
			<path d="M0 1188 L171 1188 L171 1336.5 L179.19 1336.5" class="st9" />
		</g>
		<g id="shape45-198" transform="translate(418.5,-688.5)">
			
			<path d="M0 1188 L171 1188 L171 1428.75 L179.19 1428.75" class="st9" />
		</g>
		<a id="2a0526e7-67b1-4ee0-a66a-df0b67c2e957" class="rules_svg_anchor rules_svg_shape"   href="/lms/chart?onclick=b3BlbkNoYXJ0Q29udGV4dE1lbnUoZXZlbnQsJ3cxMTVkNTIzNTk2NWMxMjIxMTJ2NDA3MCcsMTc0NTUsIDEsIDEsIHRoaXMsIHdpbmRvdy5mcmFtZUVsZW1lbnQp&amp;navigate=true&amp;details=Description">
			<g id="shape46-203" transform="translate(292.5,-567)">
				
				<desc>30.55 Analyze marketing operations</desc>
				<path d="M0 1188 L126 1188 L126 1125 L0 1125 L0 1188 Z" class="st6" />
				<path d="M0 1188 L126 1188 L126 1125 L0 1125 L0 1188" class="st7" />
				<path d="M9 1188 L9 1125" class="st7" />
				<path d="M117 1188 L117 1125" class="st7" />
				<text x="29.02" y="1145.7" class="st2">30.55 Analyze <tspan x="38.16" dy="1.2em" class="st8">marketing </tspan>
					<tspan x="36.68" dy="1.2em" class="st8">operations</tspan>
				</text>
			</g>
		</a>
		<g id="shape47-211" transform="translate(346.5,-832.5)">
			
			<path d="M9 1188 L9 1200.69" class="st9" />
		</g>
		<g id="shape48-216" transform="translate(346.5,-657)">
			
			<path d="M9 1188 L9 1205.19" class="st9" />
		</g>
		<g id="shape49-221" transform="translate(355.5,-567)">
			
			<path d="M0 1188 L0 1386 L248.94 1386" class="st9" />
		</g>
	</g>
</svg>
