<?xml version="1.0" encoding="UTF-8" standalone="no"?>
<svg
   width="1682.5706"
   height="1819.0458"
   overflow="hidden"
   version="1.1"
   id="svg860"
   sodipodi:docname="concept-to-market-flow.svg"
   inkscape:version="1.2.2 (732a01da63, 2022-12-09)"
   xmlns:inkscape="http://www.inkscape.org/namespaces/inkscape"
   xmlns:sodipodi="http://sodipodi.sourceforge.net/DTD/sodipodi-0.dtd"
   xmlns="http://www.w3.org/2000/svg"
   xmlns:svg="http://www.w3.org/2000/svg">
  <defs
     id="defs864" />
  <sodipodi:namedview
     id="namedview862"
     pagecolor="#ffffff"
     bordercolor="#000000"
     borderopacity="0.25"
     inkscape:showpageshadow="2"
     inkscape:pageopacity="0.0"
     inkscape:pagecheckerboard="0"
     inkscape:deskcolor="#d1d1d1"
     showgrid="false"
     inkscape:zoom="0.53489583"
     inkscape:cx="848.76339"
     inkscape:cy="959.06524"
     inkscape:window-width="3840"
     inkscape:window-height="2054"
     inkscape:window-x="2725"
     inkscape:window-y="-11"
     inkscape:window-maximized="1"
     inkscape:current-layer="svg860" />
  <g
     id="g858"
     transform="translate(-110.30185)">
    <rect
       x="110.30185"
       y="0"
       width="1682.5706"
       height="1819.0458"
       fill="#ffffff"
       id="rect664"
       style="stroke-width:0.911187" />
    <path
       d="M 156,92.5 C 156,72.3416 172.342,56 192.5,56 h 138 c 20.158,0 36.5,16.3416 36.5,36.5 v 0 c 0,20.158 -16.342,36.5 -36.5,36.5 h -138 C 172.342,129 156,112.658 156,92.5 Z"
       stroke="#0078d4"
       stroke-width="2"
       stroke-linejoin="round"
       stroke-miterlimit="10"
       fill="#ffffff"
       fill-rule="evenodd"
       id="path666" />
    <text
       font-family="'Segoe UI', 'Segoe UI_MSFontService', sans-serif"
       font-weight="400"
       font-size="24px"
       transform="translate(236.531,101)"
       id="text668">Start</text>
    <rect
       x="1565"
       y="121"
       width="212"
       height="154"
       stroke="#a6a6a6"
       stroke-width="2"
       stroke-linejoin="round"
       stroke-miterlimit="10"
       fill="#a0a0a0"
       id="rect670" />
    <text
       font-family="'Segoe UI', 'Segoe UI_MSFontService', sans-serif"
       font-weight="400"
       font-size="24px"
       transform="translate(1594.46,206)"
       id="text672">Procure to pay</text>
    <rect
       x="654"
       y="676"
       width="279"
       height="153"
       fill="#ffffff"
       id="rect674" />
    <path
       d="M 688.875,676 V 829 M 898.125,676 V 829"
       stroke="#0078d4"
       stroke-width="2"
       stroke-linejoin="round"
       stroke-miterlimit="10"
       fill="none"
       fill-rule="evenodd"
       id="path676" />
    <rect
       x="654"
       y="676"
       width="279"
       height="153"
       stroke="#0078d4"
       stroke-width="2"
       stroke-linejoin="round"
       stroke-miterlimit="10"
       fill="none"
       id="rect678" />
    <text
       font-family="'Segoe UI', 'Segoe UI_MSFontService', sans-serif"
       font-weight="400"
       font-size="24px"
       transform="translate(750.819,732)"
       id="text680">Manage</text>
    <text
       font-family="'Segoe UI', 'Segoe UI_MSFontService', sans-serif"
       font-weight="400"
       font-size="24px"
       transform="translate(757.339,761)"
       id="text682">service</text>
    <text
       font-family="'Segoe UI', 'Segoe UI_MSFontService', sans-serif"
       font-weight="400"
       font-size="24px"
       transform="translate(757.319,790)"
       id="text684">pricing</text>
    <rect
       x="984"
       y="676"
       width="279"
       height="154"
       fill="#ffffff"
       id="rect686" />
    <path
       d="M 1018.88,676 V 830 M 1228.12,676 V 830"
       stroke="#0078d4"
       stroke-width="2"
       stroke-linejoin="round"
       stroke-miterlimit="10"
       fill="none"
       fill-rule="evenodd"
       id="path688" />
    <rect
       x="984"
       y="676"
       width="279"
       height="154"
       stroke="#0078d4"
       stroke-width="2"
       stroke-linejoin="round"
       stroke-miterlimit="10"
       fill="none"
       id="rect690" />
    <text
       font-family="'Segoe UI', 'Segoe UI_MSFontService', sans-serif"
       font-weight="400"
       font-size="24px"
       transform="translate(1049.53,747)"
       id="text692">Define service</text>
    <text
       font-family="'Segoe UI', 'Segoe UI_MSFontService', sans-serif"
       font-weight="400"
       font-size="24px"
       transform="translate(1085.09,776)"
       id="text694">costing</text>
    <rect
       x="205"
       y="671"
       width="211"
       height="154"
       stroke="#a6a6a6"
       stroke-width="2"
       stroke-linejoin="round"
       stroke-miterlimit="10"
       fill="#a6a6a6"
       id="rect696" />
    <text
       font-family="'Segoe UI', 'Segoe UI_MSFontService', sans-serif"
       font-weight="400"
       font-size="24px"
       transform="translate(238.583,757)"
       id="text698">Order to cash</text>
    <rect
       x="819"
       y="232"
       width="279"
       height="154"
       fill="#ffffff"
       id="rect700" />
    <path
       d="M 853.875,232 V 386 M 1063.12,232 v 154"
       stroke="#0078d4"
       stroke-width="2"
       stroke-linejoin="round"
       stroke-miterlimit="10"
       fill="none"
       fill-rule="evenodd"
       id="path702" />
    <rect
       x="819"
       y="232"
       width="279"
       height="154"
       stroke="#0078d4"
       stroke-width="2"
       stroke-linejoin="round"
       stroke-miterlimit="10"
       fill="none"
       id="rect704" />
    <text
       font-family="'Segoe UI', 'Segoe UI_MSFontService', sans-serif"
       font-weight="400"
       font-size="24px"
       transform="translate(884.504,289)"
       id="text706">Define service</text>
    <text
       font-family="'Segoe UI', 'Segoe UI_MSFontService', sans-serif"
       font-weight="400"
       font-size="24px"
       transform="translate(888.864,318)"
       id="text708">offerings and</text>
    <text
       font-family="'Segoe UI', 'Segoe UI_MSFontService', sans-serif"
       font-weight="400"
       font-size="24px"
       transform="translate(915.99,347)"
       id="text710">strategy</text>
    <path
       d="m 1565,1777.5 c 0,-20.16 16.34,-36.5 36.5,-36.5 h 138 c 20.16,0 36.5,16.34 36.5,36.5 v 0 c 0,20.16 -16.34,36.5 -36.5,36.5 h -138 c -20.16,0 -36.5,-16.34 -36.5,-36.5 z"
       stroke="#0078d4"
       stroke-width="2"
       stroke-linejoin="round"
       stroke-miterlimit="10"
       fill="#ffffff"
       fill-rule="evenodd"
       id="path712" />
    <text
       font-family="'Segoe UI', 'Segoe UI_MSFontService', sans-serif"
       font-weight="400"
       font-size="24px"
       transform="translate(1650.73,1786)"
       id="text714">End</text>
    <rect
       x="819"
       y="16"
       width="279"
       height="153"
       stroke="#0078d4"
       stroke-width="2"
       stroke-linejoin="round"
       stroke-miterlimit="10"
       fill="#0078d4"
       id="rect716" />
    <text
       fill="#ffffff"
       font-family="'Segoe UI', 'Segoe UI_MSFontService', sans-serif"
       font-weight="400"
       font-size="24px"
       transform="translate(860.234,101)"
       id="text718">Concept to market</text>
    <rect
       x="1565"
       y="315"
       width="212"
       height="153"
       stroke="#a6a6a6"
       stroke-width="2"
       stroke-linejoin="round"
       stroke-miterlimit="10"
       fill="#a0a0a0"
       id="rect720" />
    <text
       font-family="'Segoe UI', 'Segoe UI_MSFontService', sans-serif"
       font-weight="400"
       font-size="24px"
       transform="translate(1611.06,385)"
       id="text722">Prospect to</text>
    <text
       font-family="'Segoe UI', 'Segoe UI_MSFontService', sans-serif"
       font-weight="400"
       font-size="24px"
       transform="translate(1640.08,414)"
       id="text724">quote</text>
    <rect
       x="1565"
       y="1511"
       width="211"
       height="153"
       stroke="#a6a6a6"
       stroke-width="2"
       stroke-linejoin="round"
       stroke-miterlimit="10"
       fill="#a0a0a0"
       id="rect726" />
    <text
       font-family="'Segoe UI', 'Segoe UI_MSFontService', sans-serif"
       font-weight="400"
       font-size="24px"
       transform="translate(1619.65,1582)"
       id="text728">Record to</text>
    <text
       font-family="'Segoe UI', 'Segoe UI_MSFontService', sans-serif"
       font-weight="400"
       font-size="24px"
       transform="translate(1637.71,1611)"
       id="text730">report</text>
    <rect
       x="208"
       y="286"
       width="211"
       height="153"
       stroke="#a6a6a6"
       stroke-width="2"
       stroke-linejoin="round"
       stroke-miterlimit="10"
       fill="#a0a0a0"
       id="rect732" />
    <text
       font-family="'Segoe UI', 'Segoe UI_MSFontService', sans-serif"
       font-weight="400"
       font-size="24px"
       transform="translate(255.083,356)"
       id="text734">Forecast to</text>
    <text
       font-family="'Segoe UI', 'Segoe UI_MSFontService', sans-serif"
       font-weight="400"
       font-size="24px"
       transform="translate(290.417,385)"
       id="text736">plan</text>
    <rect
       x="1565"
       y="508"
       width="212"
       height="153"
       stroke="#a6a6a6"
       stroke-width="2"
       stroke-linejoin="round"
       stroke-miterlimit="10"
       fill="#a0a0a0"
       id="rect738" />
    <text
       font-family="'Segoe UI', 'Segoe UI_MSFontService', sans-serif"
       font-weight="400"
       font-size="24px"
       transform="translate(1599.56,593)"
       id="text740">Order to cash</text>
    <rect
       x="819"
       y="452"
       width="279"
       height="154"
       fill="#ffffff"
       id="rect742" />
    <path
       d="M 853.875,452 V 606 M 1063.12,452 v 154"
       stroke="#0078d4"
       stroke-width="2"
       stroke-linejoin="round"
       stroke-miterlimit="10"
       fill="none"
       fill-rule="evenodd"
       id="path744" />
    <rect
       x="819"
       y="452"
       width="279"
       height="154"
       stroke="#0078d4"
       stroke-width="2"
       stroke-linejoin="round"
       stroke-miterlimit="10"
       fill="none"
       id="rect746" />
    <text
       font-family="'Segoe UI', 'Segoe UI_MSFontService', sans-serif"
       font-weight="400"
       font-size="24px"
       transform="translate(882.974,523)"
       id="text748">Introduce new</text>
    <text
       font-family="'Segoe UI', 'Segoe UI_MSFontService', sans-serif"
       font-weight="400"
       font-size="24px"
       transform="translate(917.007,552)"
       id="text750">services</text>
    <rect
       x="208"
       y="863"
       width="211"
       height="153"
       stroke="#a6a6a6"
       stroke-width="2"
       stroke-linejoin="round"
       stroke-miterlimit="10"
       fill="#a6a6a6"
       id="rect752" />
    <text
       font-family="'Segoe UI', 'Segoe UI_MSFontService', sans-serif"
       font-weight="400"
       font-size="24px"
       transform="translate(261.197,934)"
       id="text754">Service to</text>
    <text
       font-family="'Segoe UI', 'Segoe UI_MSFontService', sans-serif"
       font-weight="400"
       font-size="24px"
       transform="translate(289.75,963)"
       id="text756">cash</text>
    <rect
       x="204"
       y="1059"
       width="212"
       height="153"
       stroke="#a6a6a6"
       stroke-width="2"
       stroke-linejoin="round"
       stroke-miterlimit="10"
       fill="#a0a0a0"
       id="rect758" />
    <text
       font-family="'Segoe UI', 'Segoe UI_MSFontService', sans-serif"
       font-weight="400"
       font-size="24px"
       transform="translate(259.255,1130)"
       id="text760">Project to</text>
    <text
       font-family="'Segoe UI', 'Segoe UI_MSFontService', sans-serif"
       font-weight="400"
       font-size="24px"
       transform="translate(281.462,1159)"
       id="text762">profit</text>
    <path
       d="m 367.5,91.0001 444.611,1e-4 v 3 L 367.5,94.0001 Z m 443.111,-2.9999 9,4.5 -9,4.5 z"
       fill="#0078d4"
       id="path764" />
    <rect
       x="208"
       y="478"
       width="211"
       height="153"
       stroke="#a6a6a6"
       stroke-width="2"
       stroke-linejoin="round"
       stroke-miterlimit="10"
       fill="#a0a0a0"
       id="rect766" />
    <text
       font-family="'Segoe UI', 'Segoe UI_MSFontService', sans-serif"
       font-weight="400"
       font-size="24px"
       transform="translate(253.167,549)"
       id="text768">Prospect to</text>
    <text
       font-family="'Segoe UI', 'Segoe UI_MSFontService', sans-serif"
       font-weight="400"
       font-size="24px"
       transform="translate(282.18,578)"
       id="text770">quote</text>
    <rect
       x="820"
       y="904"
       width="278"
       height="153"
       fill="#ffffff"
       id="rect772" />
    <path
       d="m 854.75,904 v 153 m 208.5,-153 v 153"
       stroke="#0078d4"
       stroke-width="2"
       stroke-linejoin="round"
       stroke-miterlimit="10"
       fill="none"
       fill-rule="evenodd"
       id="path774" />
    <rect
       x="820"
       y="904"
       width="278"
       height="153"
       stroke="#0078d4"
       stroke-width="2"
       stroke-linejoin="round"
       stroke-miterlimit="10"
       fill="none"
       id="rect776" />
    <text
       font-family="'Segoe UI', 'Segoe UI_MSFontService', sans-serif"
       font-weight="400"
       font-size="24px"
       transform="translate(915.67,960)"
       id="text778">Manage</text>
    <text
       font-family="'Segoe UI', 'Segoe UI_MSFontService', sans-serif"
       font-weight="400"
       font-size="24px"
       transform="translate(922.19,989)"
       id="text780">service</text>
    <text
       font-family="'Segoe UI', 'Segoe UI_MSFontService', sans-serif"
       font-weight="400"
       font-size="24px"
       transform="translate(916.73,1018)"
       id="text782">lifecycle</text>
    <rect
       x="1565"
       y="701"
       width="212"
       height="153"
       stroke="#a6a6a6"
       stroke-width="2"
       stroke-linejoin="round"
       stroke-miterlimit="10"
       fill="#a0a0a0"
       id="rect784" />
    <text
       font-family="'Segoe UI', 'Segoe UI_MSFontService', sans-serif"
       font-weight="400"
       font-size="24px"
       transform="translate(1634.41,772)"
       id="text786">Plan to</text>
    <text
       font-family="'Segoe UI', 'Segoe UI_MSFontService', sans-serif"
       font-weight="400"
       font-size="24px"
       transform="translate(1627.39,801)"
       id="text788">produce</text>
    <rect
       x="1565"
       y="1299"
       width="211"
       height="154"
       stroke="#a6a6a6"
       stroke-width="2"
       stroke-linejoin="round"
       stroke-miterlimit="10"
       fill="#a0a0a0"
       id="rect790" />
    <text
       font-family="'Segoe UI', 'Segoe UI_MSFontService', sans-serif"
       font-weight="400"
       font-size="24px"
       transform="translate(1618.59,1370)"
       id="text792">Service to</text>
    <text
       font-family="'Segoe UI', 'Segoe UI_MSFontService', sans-serif"
       font-weight="400"
       font-size="24px"
       transform="translate(1647.15,1399)"
       id="text794">cash</text>
    <rect
       x="1565"
       y="894"
       width="211"
       height="154"
       stroke="#a6a6a6"
       stroke-width="2"
       stroke-linejoin="round"
       stroke-miterlimit="10"
       fill="#a0a0a0"
       id="rect796" />
    <text
       font-family="'Segoe UI', 'Segoe UI_MSFontService', sans-serif"
       font-weight="400"
       font-size="24px"
       transform="translate(1619.81,965)"
       id="text798">Project to</text>
    <text
       font-family="'Segoe UI', 'Segoe UI_MSFontService', sans-serif"
       font-weight="400"
       font-size="24px"
       transform="translate(1642.02,994)"
       id="text800">profit</text>
    <rect
       x="1565"
       y="1088"
       width="211"
       height="153"
       stroke="#a6a6a6"
       stroke-width="2"
       stroke-linejoin="round"
       stroke-miterlimit="10"
       fill="#a0a0a0"
       id="rect802" />
    <text
       font-family="'Segoe UI', 'Segoe UI_MSFontService', sans-serif"
       font-weight="400"
       font-size="24px"
       transform="translate(1631.57,1159)"
       id="text804">Case to</text>
    <text
       font-family="'Segoe UI', 'Segoe UI_MSFontService', sans-serif"
       font-weight="400"
       font-size="24px"
       transform="translate(1617.89,1188)"
       id="text806">resolution</text>
    <path
       d="m 419.5,361 h 200.093 c 0.828,0 1.5,0.672 1.5,1.5 v 166.878 l -1.5,-1.5 h 192.592 v 3 H 619.593 c -0.829,0 -1.5,-0.672 -1.5,-1.5 V 362.5 l 1.5,1.5 H 419.5 Z m 391.185,163.878 9,4.5 -9,4.5 z"
       fill="#0078d4"
       id="path808" />
    <path
       d="m 0,-1.5 h 200.093 c 0.828,0 1.5,0.671573 1.5,1.5 v 25.7866 l -1.5,-1.5 h 192.592 v 3 H 200.093 c -0.829,0 -1.5,-0.6716 -1.5,-1.5 V 0 l 1.5,1.5 H 0 Z m 391.185,22.7866 9,4.5 -9,4.5 z"
       fill="#0078d4"
       transform="matrix(1,0,0,-1,419.5,555.287)"
       id="path810" />
    <path
       d="m 0,-1.5 h 201.673 c 0.829,0 1.5,0.671573 1.5,1.5 v 218.953 l -1.5,-1.5 h 194.174 v 3 H 201.673 c -0.828,0 -1.5,-0.672 -1.5,-1.5 V 0 l 1.5,1.5 H 0 Z m 394.347,215.953 9,4.5 -9,4.5 z"
       fill="#0078d4"
       transform="matrix(1,0,0,-1,416.5,748.453)"
       id="path812" />
    <path
       d="m 0,-1.5 h 200.131 c 0.829,0 1.5,0.671573 1.5,1.5 v 410.753 l -1.5,-1.5 h 192.632 v 3 H 200.131 c -0.828,0 -1.5,-0.672 -1.5,-1.5 V 0 l 1.5,1.5 H 0 Z m 391.263,407.753 9,4.5 -9,4.5 z"
       fill="#0078d4"
       transform="matrix(1,0,0,-1,419.5,940.253)"
       id="path814" />
    <path
       d="m 0,-1.5 h 201.674 c 0.828,0 1.5,0.671573 1.5,1.5 v 606.512 l -1.5,-1.5 h 194.173 v 3 H 201.674 c -0.829,0 -1.5,-0.671 -1.5,-1.5 V 0 l 1.5,1.5 H 0 Z m 394.347,603.512 9,4.5 -9,4.5 z"
       fill="#0078d4"
       transform="matrix(1,0,0,-1,416.5,1136.01)"
       id="path816" />
    <path
       d="m 156.5,94.0001 h -24 l 1.5,-1.5 V 362.437 l -1.5,-1.5 h 68.426 v 3 H 132.5 c -0.828,0 -1.5,-0.672 -1.5,-1.5 V 92.5001 c 0,-0.8285 0.672,-1.5 1.5,-1.5 h 24 z m 42.926,263.9369 9,4.5 -9,4.5 z"
       fill="#0078d4"
       id="path818" />
    <path
       d="m 156.5,94.0001 h -24 l 1.5,-1.5 V 555.101 l -1.5,-1.5 h 68.426 v 3 H 132.5 c -0.828,0 -1.5,-0.672 -1.5,-1.5 V 92.5001 c 0,-0.8285 0.672,-1.5 1.5,-1.5 h 24 z m 42.926,456.6009 9,4.5 -9,4.5 z"
       fill="#0078d4"
       id="path820" />
    <path
       d="m 156.5,94.0001 h -24 l 1.5,-1.5 V 748.267 l -1.5,-1.5 h 65.419 v 3 H 132.5 c -0.828,0 -1.5,-0.671 -1.5,-1.5 V 92.5001 c 0,-0.8285 0.672,-1.5 1.5,-1.5 h 24 z m 39.919,649.7669 9,4.5 -9,4.5 z"
       fill="#0078d4"
       id="path822" />
    <path
       d="m 156.5,94.0001 h -24 l 1.5,-1.5 V 940.067 l -1.5,-1.5 h 68.503 v 3 H 132.5 c -0.828,0 -1.5,-0.671 -1.5,-1.5 V 92.5001 c 0,-0.8285 0.672,-1.5 1.5,-1.5 h 24 z m 43.003,841.5669 9,4.5 -9,4.5 z"
       fill="#0078d4"
       id="path824" />
    <path
       d="m 156.5,94.0001 h -24 l 1.5,-1.5 V 1135.83 l -1.5,-1.5 h 65.264 v 3 H 132.5 c -0.828,0 -1.5,-0.67 -1.5,-1.5 V 92.5001 c 0,-0.8285 0.672,-1.5 1.5,-1.5 h 24 z m 39.764,1037.3299 9,4.5 -9,4.5 z"
       fill="#0078d4"
       id="path826" />
    <path
       d="M 1.5,-2.48447e-6 1.50009,55.8859 h -3 L -1.5,2.48447e-6 Z M 4.50009,54.3859 l -4.499985013,9 -4.500014987,-9 z"
       fill="#0078d4"
       transform="matrix(-1,0,0,1,959.5,169.5)"
       id="path828" />
    <path
       d="m 961,386.5 v 59.347 h -3 V 386.5 Z m 3,57.847 -4.5,9 -4.5,-9 z"
       fill="#0078d4"
       id="path830" />
    <path
       d="m 960.748,606.5 v 34.923 c 0,0.828 -0.671,1.5 -1.5,1.5 H 794.5 l 1.5,-1.5 v 27.422 h -3 v -27.422 c 0,-0.829 0.672,-1.5 1.5,-1.5 h 164.748 l -1.5,1.5 V 606.5 Z M 799,667.345 l -4.5,9 -4.5,-9 z"
       fill="#0078d4"
       id="path832" />
    <path
       d="m 0,-1.5 h 37.5412 c 0.8284,0 1.5,0.671573 1.5,1.5 v 164.851 l -1.5,-1.5 h 30.0412 v 3 H 37.5412 c -0.8284,0 -1.5,-0.671 -1.5,-1.5 V 0 l 1.5,1.5 H 0 Z m 66.0824,161.851 9,4.5 -9,4.5 z"
       fill="#0078d4"
       transform="matrix(0,1,1,0,794.5,829.5)"
       id="path834" />
    <path
       d="m 0,-1.5 h 35.3409 c 0.8284,0 1.5,0.671573 1.5,1.5 v 165.022 l -1.5,-1.5 h 27.8407 v 3 H 35.3409 c -0.8284,0 -1.5,-0.672 -1.5,-1.5 V 0 l 1.5,1.5 H 0 Z m 61.6816,162.022 9,4.5 -9,4.5 z"
       fill="#0078d4"
       transform="matrix(0,1,1,0,959.5,606.5)"
       id="path836" />
    <path
       d="m 1098.5,980 h 233.72 c 0.83,0 1.5,0.672 1.5,1.5 v 395.52 l -1.5,-1.5 h 226.22 v 3 h -226.22 c -0.83,0 -1.5,-0.67 -1.5,-1.5 V 981.5 l 1.5,1.5 H 1098.5 Z m 458.44,392.52 9,4.5 -9,4.5 z"
       fill="#0078d4"
       id="path838" />
    <path
       d="m 0,-1.5 h 233.972 c 0.828,0 1.5,0.671573 1.5,1.5 v 782.652 l -1.5,-1.5 h 226.471 v 3 H 233.972 c -0.829,0 -1.5,-0.671 -1.5,-1.5 V 0 l 1.5,1.5 H 0 Z m 458.943,779.652 9,4.5 -9,4.5 z"
       fill="#0078d4"
       transform="matrix(1,0,0,-1,1098.5,981.153)"
       id="path840" />
    <path
       d="m 0,-1.5 h 233.972 c 0.828,0 1.5,0.671573 1.5,1.5 v 589.361 l -1.5,-1.5 h 226.471 v 3 H 233.972 c -0.828,0 -1.5,-0.672 -1.5,-1.5 V 0 l 1.5,1.5 H 0 Z m 458.943,586.361 9,4.5 -9,4.5 z"
       fill="#0078d4"
       transform="matrix(1,0,0,-1,1098.5,980.861)"
       id="path842" />
    <path
       d="m 0,-1.5 h 233.972 c 0.828,0 1.5,0.671573 1.5,1.5 v 396.07 l -1.5,-1.5 h 226.471 v 3 H 233.972 c -0.829,0 -1.5,-0.672 -1.5,-1.5 V 0 l 1.5,1.5 H 0 Z m 458.943,393.07 9,4.5 -9,4.5 z"
       fill="#0078d4"
       transform="matrix(1,0,0,-1,1098.5,980.57)"
       id="path844" />
    <path
       d="m 0,-1.5 h 233.972 c 0.828,0 1.5,0.671573 1.5,1.5 v 202.778 l -1.5,-1.5 h 226.471 v 3 H 233.972 c -0.829,0 -1.5,-0.671 -1.5,-1.5 V 0 l 1.5,1.5 H 0 Z m 458.943,199.778 9,4.5 -9,4.5 z"
       fill="#0078d4"
       transform="matrix(1,0,0,-1,1098.5,981.278)"
       id="path846" />
    <path
       d="m 0,-1.5 h 233.721 c 0.829,0 1.5,0.671573 1.5,1.5 v 9.48672 l -1.5,-1.5 H 459.942 V 10.9867 H 233.721 c -0.828,0 -1.5,-0.6716 -1.5,-1.49998 V 0 l 1.5,1.5 H 0 Z m 458.442,6.48672 9,4.5 -9,4.49998 z"
       fill="#0078d4"
       transform="matrix(1,0,0,-1,1098.5,980.987)"
       id="path848" />
    <path
       d="m 1098.5,980 h 233.72 c 0.83,0 1.5,0.672 1.5,1.5 v 183.8 l -1.5,-1.5 h 226.22 v 3 h -226.22 c -0.83,0 -1.5,-0.67 -1.5,-1.5 V 981.5 l 1.5,1.5 H 1098.5 Z m 458.44,180.8 9,4.5 -9,4.5 z"
       fill="#0078d4"
       id="path850" />
    <path
       d="m 1673,1664.5 v 69.46 h -3 v -69.46 z m 3,67.96 -4.5,9 -4.5,-9 z"
       fill="#0078d4"
       id="path852" />
    <path
       d="m 1125.92,830.5 v 37.123 c 0,0.828 -0.67,1.5 -1.5,1.5 H 959.5 l 1.5,-1.5 v 29.623 h -3 v -29.623 c 0,-0.828 0.672,-1.5 1.5,-1.5 h 164.92 l -1.5,1.5 V 830.5 Z M 964,895.746 l -4.5,9 -4.5,-9 z"
       fill="#0078d4"
       id="path854" />
    <path
       d="m 1098.5,980 h 233.72 c 0.83,0 1.5,0.672 1.5,1.5 v 607.24 l -1.5,-1.5 h 226.22 v 3 h -226.22 c -0.83,0 -1.5,-0.67 -1.5,-1.5 V 981.5 l 1.5,1.5 H 1098.5 Z m 458.44,604.24 9,4.5 -9,4.5 z"
       fill="#0078d4"
       id="path856" />
  </g>
</svg>
