<?xml version="1.0" encoding="UTF-8" standalone="no"?>
<svg
   width="1734.9172"
   height="1516.183"
   overflow="hidden"
   version="1.1"
   id="svg310"
   sodipodi:docname="concept-to-market-introduce-new-services-flow.svg"
   inkscape:version="1.2.2 (732a01da63, 2022-12-09)"
   xmlns:inkscape="http://www.inkscape.org/namespaces/inkscape"
   xmlns:sodipodi="http://sodipodi.sourceforge.net/DTD/sodipodi-0.dtd"
   xmlns="http://www.w3.org/2000/svg"
   xmlns:svg="http://www.w3.org/2000/svg">
  <defs
     id="defs314" />
  <sodipodi:namedview
     id="namedview312"
     pagecolor="#ffffff"
     bordercolor="#000000"
     borderopacity="0.25"
     inkscape:showpageshadow="2"
     inkscape:pageopacity="0.0"
     inkscape:pagecheckerboard="0"
     inkscape:deskcolor="#d1d1d1"
     showgrid="false"
     inkscape:zoom="0.53489583"
     inkscape:cx="865.58909"
     inkscape:cy="822.59007"
     inkscape:window-width="3840"
     inkscape:window-height="2054"
     inkscape:window-x="2725"
     inkscape:window-y="-11"
     inkscape:window-maximized="1"
     inkscape:current-layer="svg310" />
  <g
     id="g308"
     transform="translate(-93.476143,-136.47517)">
    <rect
       x="93.476143"
       y="136.47517"
       width="1734.9172"
       height="1516.183"
       fill="#ffffff"
       id="rect2"
       style="stroke-width:0.844722" />
    <rect
       x="489"
       y="382"
       width="936"
       height="1137"
       stroke="#0078d4"
       stroke-width="2"
       stroke-linejoin="round"
       stroke-miterlimit="10"
       fill="#d9d9d9"
       id="rect4" />
    <text
       fill="#0078d4"
       font-family="'Segoe UI', 'Segoe UI_MSFontService', sans-serif"
       font-weight="700"
       font-size="27px"
       transform="translate(517.333,431)"
       id="text6">Business process area</text>
    <path
       d="m 133,188.5 c 0,-21.263 17.237,-38.5 38.5,-38.5 h 176 c 21.263,0 38.5,17.237 38.5,38.5 v 0 c 0,21.263 -17.237,38.5 -38.5,38.5 h -176 C 150.237,227 133,209.763 133,188.5 Z"
       stroke="#0078d4"
       stroke-width="2"
       stroke-linejoin="round"
       stroke-miterlimit="10"
       fill="#ffffff"
       fill-rule="evenodd"
       id="path8" />
    <text
       font-family="'Segoe UI', 'Segoe UI_MSFontService', sans-serif"
       font-weight="400"
       font-size="24px"
       transform="translate(234.755,197)"
       id="text10">Start</text>
    <rect
       x="1530"
       y="282"
       width="257"
       height="153"
       fill="#a0a0a0"
       id="rect12" />
    <text
       font-family="'Segoe UI', 'Segoe UI_MSFontService', sans-serif"
       font-weight="400"
       font-size="24px"
       transform="translate(1560.05,367)"
       id="text14">Concept to market</text>
    <rect
       x="133"
       y="275"
       width="253"
       height="153"
       fill="#a0a0a0"
       id="rect16" />
    <text
       font-family="'Segoe UI', 'Segoe UI_MSFontService', sans-serif"
       font-weight="400"
       font-size="24px"
       transform="translate(201.142,345)"
       id="text18">Concept to</text>
    <text
       font-family="'Segoe UI', 'Segoe UI_MSFontService', sans-serif"
       font-weight="400"
       font-size="24px"
       transform="translate(222.875,374)"
       id="text20">market</text>
    <rect
       x="522"
       y="669"
       width="252"
       height="154"
       fill="#ffffff"
       id="rect22" />
    <path
       d="m 553.5,669 v 154 m 189,-154 v 154"
       stroke="#0078d4"
       stroke-width="2"
       stroke-linejoin="round"
       stroke-miterlimit="10"
       fill="none"
       fill-rule="evenodd"
       id="path24" />
    <rect
       x="522"
       y="669"
       width="252"
       height="154"
       stroke="#0078d4"
       stroke-width="2"
       stroke-linejoin="round"
       stroke-miterlimit="10"
       fill="none"
       id="rect26" />
    <text
       font-family="'Segoe UI', 'Segoe UI_MSFontService', sans-serif"
       font-weight="400"
       font-size="24px"
       transform="translate(600.174,711)"
       id="text28">Generate</text>
    <text
       font-family="'Segoe UI', 'Segoe UI_MSFontService', sans-serif"
       font-weight="400"
       font-size="24px"
       transform="translate(606.714,740)"
       id="text30">offering</text>
    <text
       font-family="'Segoe UI', 'Segoe UI_MSFontService', sans-serif"
       font-weight="400"
       font-size="24px"
       transform="translate(597.581,769)"
       id="text32">ideas and</text>
    <text
       font-family="'Segoe UI', 'Segoe UI_MSFontService', sans-serif"
       font-weight="400"
       font-size="24px"
       transform="translate(600.748,798)"
       id="text34">concepts</text>
    <rect
       x="133"
       y="469"
       width="255"
       height="154"
       fill="#0078d4"
       id="rect36" />
    <path
       d="M 164.875,469 V 623 M 356.125,469 V 623"
       stroke="#0078d4"
       stroke-width="2"
       stroke-linejoin="round"
       stroke-miterlimit="10"
       fill="none"
       fill-rule="evenodd"
       id="path38" />
    <rect
       x="133"
       y="469"
       width="255"
       height="154"
       stroke="#0078d4"
       stroke-width="2"
       stroke-linejoin="round"
       stroke-miterlimit="10"
       fill="none"
       id="rect40" />
    <text
       fill="#ffffff"
       font-family="'Segoe UI', 'Segoe UI_MSFontService', sans-serif"
       font-weight="400"
       font-size="24px"
       transform="translate(204.256,540)"
       id="text42">Categorize</text>
    <text
       fill="#ffffff"
       font-family="'Segoe UI', 'Segoe UI_MSFontService', sans-serif"
       font-weight="400"
       font-size="24px"
       transform="translate(219.27,569)"
       id="text44">services</text>
    <rect
       x="522"
       y="470"
       width="252"
       height="153"
       fill="#0078d4"
       id="rect46" />
    <text
       fill="#ffffff"
       font-family="'Segoe UI', 'Segoe UI_MSFontService', sans-serif"
       font-weight="400"
       font-size="24px"
       transform="translate(572.571,541)"
       id="text48">Introduce new</text>
    <text
       fill="#ffffff"
       font-family="'Segoe UI', 'Segoe UI_MSFontService', sans-serif"
       font-weight="400"
       font-size="24px"
       transform="translate(606.598,570)"
       id="text50">services</text>
    <rect
       x="831"
       y="669"
       width="252"
       height="154"
       fill="#ffffff"
       id="rect52" />
    <path
       d="m 862.5,669 v 154 m 189,-154 v 154"
       stroke="#0078d4"
       stroke-width="2"
       stroke-linejoin="round"
       stroke-miterlimit="10"
       fill="none"
       fill-rule="evenodd"
       id="path54" />
    <rect
       x="831"
       y="669"
       width="252"
       height="154"
       stroke="#0078d4"
       stroke-width="2"
       stroke-linejoin="round"
       stroke-miterlimit="10"
       fill="none"
       id="rect56" />
    <text
       font-family="'Segoe UI', 'Segoe UI_MSFontService', sans-serif"
       font-weight="400"
       font-size="24px"
       transform="translate(922.975,711)"
       id="text58">Assess</text>
    <text
       font-family="'Segoe UI', 'Segoe UI_MSFontService', sans-serif"
       font-weight="400"
       font-size="24px"
       transform="translate(915.855,740)"
       id="text60">offering</text>
    <text
       font-family="'Segoe UI', 'Segoe UI_MSFontService', sans-serif"
       font-weight="400"
       font-size="24px"
       transform="translate(907.475,769)"
       id="text62">feasibility</text>
    <text
       font-family="'Segoe UI', 'Segoe UI_MSFontService', sans-serif"
       font-weight="400"
       font-size="24px"
       transform="translate(893.642,798)"
       id="text64">and viability</text>
    <rect
       x="1140"
       y="669"
       width="267"
       height="154"
       fill="#ffffff"
       id="rect66" />
    <path
       d="M 1173.38,669 V 823 M 1373.62,669 V 823"
       stroke="#0078d4"
       stroke-width="2"
       stroke-linejoin="round"
       stroke-miterlimit="10"
       fill="none"
       fill-rule="evenodd"
       id="path68" />
    <rect
       x="1140"
       y="669"
       width="267"
       height="154"
       stroke="#0078d4"
       stroke-width="2"
       stroke-linejoin="round"
       stroke-miterlimit="10"
       fill="none"
       id="rect70" />
    <text
       font-family="'Segoe UI', 'Segoe UI_MSFontService', sans-serif"
       font-weight="400"
       font-size="24px"
       transform="translate(1239.43,726)"
       id="text72">Define</text>
    <text
       font-family="'Segoe UI', 'Segoe UI_MSFontService', sans-serif"
       font-weight="400"
       font-size="24px"
       transform="translate(1232.31,755)"
       id="text74">offering</text>
    <text
       font-family="'Segoe UI', 'Segoe UI_MSFontService', sans-serif"
       font-weight="400"
       font-size="24px"
       transform="translate(1203.99,784)"
       id="text76">requirements</text>
    <rect
       x="522"
       y="892"
       width="252"
       height="153"
       fill="#ffffff"
       id="rect78" />
    <path
       d="m 553.5,892 v 153 m 189,-153 v 153"
       stroke="#0078d4"
       stroke-width="2"
       stroke-linejoin="round"
       stroke-miterlimit="10"
       fill="none"
       fill-rule="evenodd"
       id="path80" />
    <rect
       x="522"
       y="892"
       width="252"
       height="153"
       stroke="#0078d4"
       stroke-width="2"
       stroke-linejoin="round"
       stroke-miterlimit="10"
       fill="none"
       id="rect82" />
    <text
       font-family="'Segoe UI', 'Segoe UI_MSFontService', sans-serif"
       font-weight="400"
       font-size="24px"
       transform="translate(596.164,949)"
       id="text84">Prototype</text>
    <text
       font-family="'Segoe UI', 'Segoe UI_MSFontService', sans-serif"
       font-weight="400"
       font-size="24px"
       transform="translate(605.591,978)"
       id="text86">and test</text>
    <text
       font-family="'Segoe UI', 'Segoe UI_MSFontService', sans-serif"
       font-weight="400"
       font-size="24px"
       transform="translate(601.631,1007)"
       id="text88">offerings</text>
    <path
       d="m 1530,1610 c 0,-19.88 16.12,-36 36,-36 h 183 c 19.88,0 36,16.12 36,36 v 0 c 0,19.88 -16.12,36 -36,36 h -183 c -19.88,0 -36,-16.12 -36,-36 z"
       stroke="#0078d4"
       stroke-width="2"
       stroke-linejoin="round"
       stroke-miterlimit="10"
       fill="#ffffff"
       fill-rule="evenodd"
       id="path90" />
    <text
       font-family="'Segoe UI', 'Segoe UI_MSFontService', sans-serif"
       font-weight="400"
       font-size="24px"
       transform="translate(1637.68,1618)"
       id="text92">End</text>
    <rect
       x="1530"
       y="1209"
       width="257"
       height="153"
       fill="#a0a0a0"
       id="rect94" />
    <text
       font-family="'Segoe UI', 'Segoe UI_MSFontService', sans-serif"
       font-weight="400"
       font-size="24px"
       transform="translate(1563.98,1294)"
       id="text96">Prospect to quote</text>
    <rect
       x="135"
       y="788"
       width="251"
       height="154"
       fill="#a0a0a0"
       id="rect98" />
    <text
       font-family="'Segoe UI', 'Segoe UI_MSFontService', sans-serif"
       font-weight="400"
       font-size="24px"
       transform="translate(176.585,874)"
       id="text100">Plan to produce</text>
    <rect
       x="135"
       y="988"
       width="251"
       height="153"
       fill="#a0a0a0"
       id="rect102" />
    <text
       font-family="'Segoe UI', 'Segoe UI_MSFontService', sans-serif"
       font-weight="400"
       font-size="24px"
       transform="translate(183.648,1073)"
       id="text104">Procure to pay</text>
    <path
       d="m 386.5,864 h 68.116 c 0.828,0 1.5,0.672 1.5,1.5 v 103.812 l -1.5,-1.5 h 60.615 v 3 h -60.615 c -0.829,0 -1.5,-0.672 -1.5,-1.5 V 865.5 l 1.5,1.5 H 386.5 Z m 127.231,100.812 9,4.5 -9,4.5 z"
       fill="#0078d4"
       id="path106" />
    <path
       d="m 0,-1.5 h 68.1155 c 0.8284,0 1.5,0.671573 1.5,1.5 v 95.9163 l -1.5,-1.5 h 60.6155 v 3 H 68.1155 c -0.8284,0 -1.5,-0.6715 -1.5,-1.5 V 0 l 1.5,1.5 H 0 Z m 127.231,92.9163 9,4.5 -9,4.4997 z"
       fill="#0078d4"
       transform="matrix(1,0,0,-1,386.5,1065.42)"
       id="path108" />
    <path
       d="M 1.5,-1.35649e-5 1.50035,38.9375 h -3 L -1.5,1.35649e-5 Z M 4.50034,37.4374 4.19947e-4,46.4375 -4.49966,37.4375 Z"
       fill="#0078d4"
       transform="matrix(-1,0,0,1,648.5,623.5)"
       id="path110" />
    <path
       d="m 261.999,428.454 1.05,33.909 -2.999,0.093 -1.049,-33.91 z m 4.002,32.317 -4.22,9.135 -4.776,-8.857 z"
       fill="#0078d4"
       id="path112" />
    <path
       d="m 388.505,545 126.169,0.379 -0.009,3 L 388.496,548 Z m 124.678,-2.626 8.986,4.527 -9.013,4.473 z"
       fill="#0078d4"
       id="path114" />
    <path
       d="m 776.5,745 h 47.316 v 3 H 776.5 Z m 45.816,-3 9,4.5 -9,4.5 z"
       fill="#0078d4"
       id="path116" />
    <path
       d="m 1083.5,745 h 49.87 v 3 h -49.87 z m 48.37,-3 9,4.5 -9,4.5 z"
       fill="#0078d4"
       id="path118" />
    <path
       d="m 1275.59,823.5 v 34.704 c 0,0.829 -0.67,1.5 -1.5,1.5 H 648.5 l 1.5,-1.5 v 27.204 h -3 v -27.204 c 0,-0.828 0.672,-1.5 1.5,-1.5 h 625.59 l -1.5,1.5 V 823.5 Z M 653,883.908 l -4.5,9 -4.5,-9 z"
       fill="#0078d4"
       id="path120" />
    <path
       d="m 1660,1362.5 v 21.6 h -3 v -21.6 z m 3,20.1 -4.5,9 -4.5,-9 z"
       fill="#0078d4"
       id="path122" />
    <path
       d="m 262,227.5 v 40.175 h -3 V 227.5 Z m 3,38.675 -4.5,9 -4.5,-9 z"
       fill="#0078d4"
       id="path124" />
    <path
       d="m 133.5,191 h -24 l 1.5,-1.5 v 676.419 l -1.5,-1.5 h 18.072 v 3 H 109.5 c -0.828,0 -1.5,-0.672 -1.5,-1.5 V 189.5 c 0,-0.828 0.672,-1.5 1.5,-1.5 h 24 z m -7.428,670.419 9,4.5 -9,4.5 z"
       fill="#0078d4"
       id="path126" />
    <path
       d="m 133.5,191 h -24 l 1.5,-1.5 v 876.15 l -1.5,-1.5 h 18.072 v 3 H 109.5 c -0.828,0 -1.5,-0.68 -1.5,-1.5 V 189.5 c 0,-0.828 0.672,-1.5 1.5,-1.5 h 24 z m -7.428,870.15 9,4.5 -9,4.5 z"
       fill="#0078d4"
       id="path128" />
    <rect
       x="531"
       y="1106"
       width="252"
       height="154"
       fill="#ffffff"
       id="rect130" />
    <path
       d="m 562.5,1106 v 154 m 189,-154 v 154"
       stroke="#0078d4"
       stroke-width="2"
       stroke-linejoin="round"
       stroke-miterlimit="10"
       fill="none"
       fill-rule="evenodd"
       id="path132" />
    <rect
       x="531"
       y="1106"
       width="252"
       height="154"
       stroke="#0078d4"
       stroke-width="2"
       stroke-linejoin="round"
       stroke-miterlimit="10"
       fill="none"
       id="rect134" />
    <text
       font-family="'Segoe UI', 'Segoe UI_MSFontService', sans-serif"
       font-weight="400"
       font-size="24px"
       transform="translate(621.582,1148)"
       id="text136">Ensure</text>
    <text
       font-family="'Segoe UI', 'Segoe UI_MSFontService', sans-serif"
       font-weight="400"
       font-size="24px"
       transform="translate(601.942,1177)"
       id="text138">regulatory</text>
    <text
       font-family="'Segoe UI', 'Segoe UI_MSFontService', sans-serif"
       font-weight="400"
       font-size="24px"
       transform="translate(596.009,1206)"
       id="text140">compliance</text>
    <text
       font-family="'Segoe UI', 'Segoe UI_MSFontService', sans-serif"
       font-weight="400"
       font-size="24px"
       transform="translate(596.189,1235)"
       id="text142">of offerings</text>
    <rect
       x="827"
       y="1106"
       width="252"
       height="154"
       fill="#ffffff"
       id="rect144" />
    <path
       d="m 858.5,1106 v 154 m 189,-154 v 154"
       stroke="#0078d4"
       stroke-width="2"
       stroke-linejoin="round"
       stroke-miterlimit="10"
       fill="none"
       fill-rule="evenodd"
       id="path146" />
    <rect
       x="827"
       y="1106"
       width="252"
       height="154"
       stroke="#0078d4"
       stroke-width="2"
       stroke-linejoin="round"
       stroke-miterlimit="10"
       fill="none"
       id="rect148" />
    <text
       font-family="'Segoe UI', 'Segoe UI_MSFontService', sans-serif"
       font-weight="400"
       font-size="24px"
       transform="translate(892.461,1148)"
       id="text150">Secure final</text>
    <text
       font-family="'Segoe UI', 'Segoe UI_MSFontService', sans-serif"
       font-weight="400"
       font-size="24px"
       transform="translate(911.934,1177)"
       id="text152">offering</text>
    <text
       font-family="'Segoe UI', 'Segoe UI_MSFontService', sans-serif"
       font-weight="400"
       font-size="24px"
       transform="translate(918.221,1206)"
       id="text154">design</text>
    <text
       font-family="'Segoe UI', 'Segoe UI_MSFontService', sans-serif"
       font-weight="400"
       font-size="24px"
       transform="translate(907.594,1235)"
       id="text156">approval</text>
    <rect
       x="529"
       y="1322"
       width="252"
       height="153"
       fill="#ffffff"
       id="rect158" />
    <path
       d="m 560.5,1322 v 153 m 189,-153 v 153"
       stroke="#0078d4"
       stroke-width="2"
       stroke-linejoin="round"
       stroke-miterlimit="10"
       fill="none"
       fill-rule="evenodd"
       id="path160" />
    <rect
       x="529"
       y="1322"
       width="252"
       height="153"
       stroke="#0078d4"
       stroke-width="2"
       stroke-linejoin="round"
       stroke-miterlimit="10"
       fill="none"
       id="rect162" />
    <text
       font-family="'Segoe UI', 'Segoe UI_MSFontService', sans-serif"
       font-weight="400"
       font-size="24px"
       transform="translate(614.389,1378)"
       id="text164">Prepare</text>
    <text
       font-family="'Segoe UI', 'Segoe UI_MSFontService', sans-serif"
       font-weight="400"
       font-size="24px"
       transform="translate(589.969,1407)"
       id="text166">offerings for</text>
    <text
       font-family="'Segoe UI', 'Segoe UI_MSFontService', sans-serif"
       font-weight="400"
       font-size="24px"
       transform="translate(619.836,1436)"
       id="text168">launch</text>
    <rect
       x="844"
       y="1322"
       width="252"
       height="154"
       fill="#ffffff"
       id="rect170" />
    <path
       d="m 875.5,1322 v 154 m 189,-154 v 154"
       stroke="#0078d4"
       stroke-width="2"
       stroke-linejoin="round"
       stroke-miterlimit="10"
       fill="none"
       fill-rule="evenodd"
       id="path172" />
    <rect
       x="844"
       y="1322"
       width="252"
       height="154"
       stroke="#0078d4"
       stroke-width="2"
       stroke-linejoin="round"
       stroke-miterlimit="10"
       fill="none"
       id="rect174" />
    <text
       font-family="'Segoe UI', 'Segoe UI_MSFontService', sans-serif"
       font-weight="400"
       font-size="24px"
       transform="translate(930.672,1379)"
       id="text176">Release</text>
    <text
       font-family="'Segoe UI', 'Segoe UI_MSFontService', sans-serif"
       font-weight="400"
       font-size="24px"
       transform="translate(909.565,1408)"
       id="text178">offerings to</text>
    <text
       font-family="'Segoe UI', 'Segoe UI_MSFontService', sans-serif"
       font-weight="400"
       font-size="24px"
       transform="translate(933.659,1437)"
       id="text180">market</text>
    <rect
       x="1134"
       y="1325"
       width="267"
       height="153"
       fill="#ffffff"
       id="rect182" />
    <path
       d="m 1167.38,1325 v 153 m 200.24,-153 v 153"
       stroke="#0078d4"
       stroke-width="2"
       stroke-linejoin="round"
       stroke-miterlimit="10"
       fill="none"
       fill-rule="evenodd"
       id="path184" />
    <rect
       x="1134"
       y="1325"
       width="267"
       height="153"
       stroke="#0078d4"
       stroke-width="2"
       stroke-linejoin="round"
       stroke-miterlimit="10"
       fill="none"
       id="rect186" />
    <text
       font-family="'Segoe UI', 'Segoe UI_MSFontService', sans-serif"
       font-weight="400"
       font-size="24px"
       transform="translate(1200.92,1367)"
       id="text188">Evaluate and</text>
    <text
       font-family="'Segoe UI', 'Segoe UI_MSFontService', sans-serif"
       font-weight="400"
       font-size="24px"
       transform="translate(1225.61,1396)"
       id="text190">monitor</text>
    <text
       font-family="'Segoe UI', 'Segoe UI_MSFontService', sans-serif"
       font-weight="400"
       font-size="24px"
       transform="translate(1226.32,1425)"
       id="text192">offering</text>
    <text
       font-family="'Segoe UI', 'Segoe UI_MSFontService', sans-serif"
       font-weight="400"
       font-size="24px"
       transform="translate(1200.15,1454)"
       id="text194">performance</text>
    <rect
       x="1530"
       y="1391"
       width="257"
       height="153"
       fill="#0078d4"
       id="rect196" />
    <path
       d="m 1562.12,1391 v 153 m 192.76,-153 v 153"
       stroke="#0078d4"
       stroke-width="2"
       stroke-linejoin="round"
       stroke-miterlimit="10"
       fill="none"
       fill-rule="evenodd"
       id="path198" />
    <rect
       x="1530"
       y="1391"
       width="257"
       height="153"
       stroke="#0078d4"
       stroke-width="2"
       stroke-linejoin="round"
       stroke-miterlimit="10"
       fill="none"
       id="rect200" />
    <text
       fill="#ffffff"
       font-family="'Segoe UI', 'Segoe UI_MSFontService', sans-serif"
       font-weight="400"
       font-size="24px"
       transform="translate(1637.72,1448)"
       id="text202">Run</text>
    <text
       fill="#ffffff"
       font-family="'Segoe UI', 'Segoe UI_MSFontService', sans-serif"
       font-weight="400"
       font-size="24px"
       transform="translate(1604.96,1477)"
       id="text204">marketing</text>
    <text
       fill="#ffffff"
       font-family="'Segoe UI', 'Segoe UI_MSFontService', sans-serif"
       font-weight="400"
       font-size="24px"
       transform="translate(1601.54,1506)"
       id="text206">campaigns</text>
    <path
       d="m 774.5,968 h 50.202 v 3 H 774.5 Z m 48.702,-3 9,4.5 -9,4.5 z"
       fill="#0078d4"
       id="path208" />
    <path
       d="m 988.651,1045.5 v 30.46 c 0,0.83 -0.672,1.5 -1.5,1.5 H 657.5 l 1.5,-1.5 v 22.96 h -3 v -22.96 c 0,-0.83 0.672,-1.5 1.5,-1.5 h 329.651 l -1.5,1.5 V 1045.5 Z M 662,1097.42 l -4.5,9 -4.5,-9 z"
       fill="#0078d4"
       id="path210" />
    <path
       d="m 1248.06,1260.5 v 30.97 c 0,0.83 -0.67,1.5 -1.5,1.5 H 655.5 l 1.5,-1.5 v 23.47 h -3 v -23.47 c 0,-0.83 0.672,-1.5 1.5,-1.5 h 591.06 l -1.5,1.5 v -30.97 z m -588.06,52.94 -4.5,9 -4.5,-9 z"
       fill="#0078d4"
       id="path212" />
    <path
       d="m 1103.5,1183.5 142.5,-77 142.5,77 -142.5,77 z"
       stroke="#0078d4"
       stroke-linejoin="round"
       stroke-miterlimit="10"
       fill="#ffffff"
       fill-rule="evenodd"
       id="path214" />
    <text
       font-family="'Segoe UI', 'Segoe UI_MSFontService', sans-serif"
       font-weight="400"
       font-size="24px"
       transform="translate(1237.47,1163)"
       id="text216">Is</text>
    <text
       font-family="'Segoe UI', 'Segoe UI_MSFontService', sans-serif"
       font-weight="400"
       font-size="24px"
       transform="translate(1195.45,1192)"
       id="text218">approved</text>
    <text
       font-family="'Segoe UI', 'Segoe UI_MSFontService', sans-serif"
       font-weight="400"
       font-size="24px"
       transform="translate(1240.31,1221)"
       id="text220">?</text>
    <path
       d="m 0,-1.5 h 137.553 c 0.828,0 1.5,0.671573 1.5,1.5 v 97.7741 h -3 V 0 l 1.5,1.5 H 0 Z m 142.053,97.774 -4.5,9 -4.5,-9 z"
       fill="#0078d4"
       transform="matrix(0,-1,-1,0,1245.77,1107.05)"
       id="path222" />
    <path
       d="m 781.519,1397 56.17,0.73 -0.038,3 -56.17,-0.73 z m 54.709,-2.29 8.941,4.61 -9.057,4.39 z"
       fill="#0078d4"
       id="path224" />
    <path
       d="M 0.0173014,-1.4999 27.3131,-1.18504 27.2785,1.81476 -0.0173014,1.4999 Z M 25.8478,-4.20214 34.7953,0.401365 25.744,4.79726 Z"
       fill="#0078d4"
       transform="matrix(1,0,0,-1,1100.5,1401.9)"
       id="path226" />
    <rect
       x="1530"
       y="479"
       width="257"
       height="154"
       fill="#0078d4"
       id="rect228" />
    <path
       d="M 1562.12,479 V 633 M 1754.88,479 V 633"
       stroke="#0078d4"
       stroke-width="2"
       stroke-linejoin="round"
       stroke-miterlimit="10"
       fill="none"
       fill-rule="evenodd"
       id="path230" />
    <rect
       x="1530"
       y="479"
       width="257"
       height="154"
       stroke="#0078d4"
       stroke-width="2"
       stroke-linejoin="round"
       stroke-miterlimit="10"
       fill="none"
       id="rect232" />
    <text
       fill="#ffffff"
       font-family="'Segoe UI', 'Segoe UI_MSFontService', sans-serif"
       font-weight="400"
       font-size="24px"
       transform="translate(1624.05,536)"
       id="text234">Define</text>
    <text
       fill="#ffffff"
       font-family="'Segoe UI', 'Segoe UI_MSFontService', sans-serif"
       font-weight="400"
       font-size="24px"
       transform="translate(1621.9,565)"
       id="text236">service</text>
    <text
       fill="#ffffff"
       font-family="'Segoe UI', 'Segoe UI_MSFontService', sans-serif"
       font-weight="400"
       font-size="24px"
       transform="translate(1619.88,594)"
       id="text238">costing</text>
    <rect
       x="1530"
       y="662"
       width="257"
       height="153"
       fill="#0078d4"
       id="rect240" />
    <path
       d="M 1562.12,662 V 815 M 1754.88,662 V 815"
       stroke="#0078d4"
       stroke-width="2"
       stroke-linejoin="round"
       stroke-miterlimit="10"
       fill="none"
       fill-rule="evenodd"
       id="path242" />
    <rect
       x="1530"
       y="662"
       width="257"
       height="153"
       stroke="#0078d4"
       stroke-width="2"
       stroke-linejoin="round"
       stroke-miterlimit="10"
       fill="none"
       id="rect244" />
    <text
       fill="#ffffff"
       font-family="'Segoe UI', 'Segoe UI_MSFontService', sans-serif"
       font-weight="400"
       font-size="24px"
       transform="translate(1615.38,718)"
       id="text246">Manage</text>
    <text
       fill="#ffffff"
       font-family="'Segoe UI', 'Segoe UI_MSFontService', sans-serif"
       font-weight="400"
       font-size="24px"
       transform="translate(1621.9,747)"
       id="text248">service</text>
    <text
       fill="#ffffff"
       font-family="'Segoe UI', 'Segoe UI_MSFontService', sans-serif"
       font-weight="400"
       font-size="24px"
       transform="translate(1621.88,776)"
       id="text250">pricing</text>
    <rect
       x="1530"
       y="844"
       width="257"
       height="153"
       fill="#a0a0a0"
       id="rect252" />
    <text
       font-family="'Segoe UI', 'Segoe UI_MSFontService', sans-serif"
       font-weight="400"
       font-size="24px"
       transform="translate(1581.7,929)"
       id="text254">Procure to pay</text>
    <path
       d="m 1660,997.5 v 21.6 h -3 v -21.6 z m 3,20.1 -4.5,9 -4.5,-9 z"
       fill="#0078d4"
       id="path256" />
    <rect
       x="1530"
       y="1026"
       width="257"
       height="154"
       fill="#0078d4"
       id="rect258" />
    <path
       d="m 1562.12,1026 v 154 m 192.76,-154 v 154"
       stroke="#0078d4"
       stroke-width="2"
       stroke-linejoin="round"
       stroke-miterlimit="10"
       fill="none"
       fill-rule="evenodd"
       id="path260" />
    <rect
       x="1530"
       y="1026"
       width="257"
       height="154"
       stroke="#0078d4"
       stroke-width="2"
       stroke-linejoin="round"
       stroke-miterlimit="10"
       fill="none"
       id="rect262" />
    <text
       fill="#ffffff"
       font-family="'Segoe UI', 'Segoe UI_MSFontService', sans-serif"
       font-weight="400"
       font-size="24px"
       transform="translate(1615.38,1083)"
       id="text264">Manage</text>
    <text
       fill="#ffffff"
       font-family="'Segoe UI', 'Segoe UI_MSFontService', sans-serif"
       font-weight="400"
       font-size="24px"
       transform="translate(1621.45,1112)"
       id="text266">vendor</text>
    <text
       fill="#ffffff"
       font-family="'Segoe UI', 'Segoe UI_MSFontService', sans-serif"
       font-weight="400"
       font-size="24px"
       transform="translate(1591.46,1141)"
       id="text268">relationships</text>
    <path
       d="m 0,-1.5 h 309.385 c 0.828,0 1.5,0.671573 1.5,1.5 v 389.328 l -1.5,-1.5 h 73.152 v 3 h -73.152 c -0.829,0 -1.5,-0.672 -1.5,-1.5 V 0 l 1.5,1.5 H 0 Z m 381.037,386.328 9,4.5 -9,4.5 z"
       fill="#0078d4"
       transform="matrix(1,0,0,-1,1140.5,945.828)"
       id="path270" />
    <path
       d="m 1142.5,948 h 194.18 c 0.83,0 1.5,0.672 1.5,1.5 v 153.95 l -1.5,-1.5 h 186.68 v 3 h -186.68 c -0.83,0 -1.5,-0.67 -1.5,-1.5 V 949.5 l 1.5,1.5 H 1142.5 Z m 379.36,150.95 9,4.5 -9,4.5 z"
       fill="#0078d4"
       id="path272" />
    <path
       d="m 0,-1.5 h 407.52 c 0.829,0 1.5,0.671573 1.5,1.5 v 209.998 l -1.5,-1.5 h 31.045 v 3 H 407.52 c -0.828,0 -1.5,-0.671 -1.5,-1.5 V 0 l 1.5,1.5 H 0 Z m 437.065,206.998 9,4.5 -9,4.5 z"
       fill="#0078d4"
       transform="matrix(1,0,0,-1,1084.5,948.498)"
       id="path274" />
    <path
       d="m 972,1476.33 v 89.36 l -1.5,-1.5 h 516.41 l -1.5,1.5 v -97.19 c 0,-0.83 0.68,-1.5 1.5,-1.5 h 35.68 v 3 h -35.68 l 1.5,-1.5 v 97.19 c 0,0.83 -0.67,1.5 -1.5,1.5 H 970.5 c -0.828,0 -1.5,-0.67 -1.5,-1.5 v -89.36 z m 549.09,-12.33 9,4.5 -9,4.5 z"
       fill="#0078d4"
       id="path276" />
    <path
       d="m 0,-1.5 h 131.522 c 0.829,0 1.5,0.671573 1.5,1.5 v 254.66 h -3 V 0 l 1.5,1.5 H 0 Z m 136.022,254.66 -4.5,9 -4.5,-9 z"
       fill="#0078d4"
       transform="matrix(0,1,1,0,1268.5,1478.5)"
       id="path278" />
    <path
       d="M 0,1.5 H -24 L -22.5,0 v 1053.72 l -1.5,-1.5 h 18.07239 v 3 H -24 c -0.8284,0 -1.5,-0.67 -1.5,-1.5 V 0 c 0,-0.828427 0.6716,-1.5 1.5,-1.5 H 0 Z m -7.42761,1047.72 9,4.5 -9,4.5 z"
       fill="#0078d4"
       transform="matrix(-1,0,0,1,1787.07,556.5)"
       id="path280" />
    <path
       d="M 0,1.5 H -24 L -22.5,0 v 871.332 l -1.5,-1.5 h 18.07239 v 3 H -24 c -0.8284,0 -1.5,-0.672 -1.5,-1.5 V 0 c 0,-0.828427 0.6716,-1.5 1.5,-1.5 H 0 Z m -7.42761,865.332 9,4.5 -9,4.5 z"
       fill="#0078d4"
       transform="matrix(-1,0,0,1,1787.07,738.5)"
       id="path282" />
    <path
       d="M 0,1.5 H -24 L -22.5,0 v 506.558 l -1.5,-1.5 h 18.07239 v 3 H -24 c -0.8284,0 -1.5,-0.671 -1.5,-1.5 V 0 c 0,-0.828427 0.6716,-1.5 1.5,-1.5 H 0 Z m -7.42761,500.558 9,4.5 -9,4.5 z"
       fill="#0078d4"
       transform="matrix(-1,0,0,1,1787.07,1103.5)"
       id="path284" />
    <path
       d="M 0,1.5 H -24 L -22.5,0 v 141.785 l -1.5,-1.5 h 18.07239 v 3 H -24 c -0.8284,0 -1.5,-0.671 -1.5,-1.5 V 0 c 0,-0.828427 0.6716,-1.5 1.5,-1.5 H 0 Z m -7.42761,135.785 9,4.5 -9,4.5 z"
       fill="#0078d4"
       transform="matrix(-1,0,0,1,1787.07,1468.5)"
       id="path286" />
    <path
       d="m 1660,435.5 v 36.671 h -3 V 435.5 Z m 3,35.171 -4.5,9 -4.5,-9 z"
       fill="#0078d4"
       id="path288" />
    <path
       d="m 783.5,1182 h 37.378 v 3 H 783.5 Z m 35.878,-3 9,4.5 -9,4.5 z"
       fill="#0078d4"
       id="path290" />
    <path
       d="m 0.001102,-1.5 16.079198,0.01181 -0.0022,3 L -0.001102,1.5 Z M 14.5825,-4.48929 23.5792,0.0173228 14.5759,4.51071 Z"
       fill="#0078d4"
       transform="matrix(1,0,0,-1,1079.5,1183.52)"
       id="path292" />
    <text
       font-family="'Segoe UI', 'Segoe UI_MSFontService', sans-serif"
       font-weight="400"
       font-size="21px"
       transform="translate(1253.59,1026)"
       id="text294">No</text>
    <text
       font-family="'Segoe UI', 'Segoe UI_MSFontService', sans-serif"
       font-weight="400"
       font-size="21px"
       transform="translate(1133.97,1283)"
       id="text296">Yes</text>
    <rect
       x="832"
       y="892"
       width="308"
       height="153"
       fill="#ffffff"
       id="rect298" />
    <path
       d="m 870.5,892 v 153 m 231,-153 v 153"
       stroke="#0078d4"
       stroke-width="2"
       stroke-linejoin="round"
       stroke-miterlimit="10"
       fill="none"
       fill-rule="evenodd"
       id="path300" />
    <rect
       x="832"
       y="892"
       width="308"
       height="153"
       stroke="#0078d4"
       stroke-width="2"
       stroke-linejoin="round"
       stroke-miterlimit="10"
       fill="none"
       id="rect302" />
    <text
       font-family="'Segoe UI', 'Segoe UI_MSFontService', sans-serif"
       font-weight="400"
       font-size="24px"
       transform="translate(913.876,963)"
       id="text304">Plan offerings</text>
    <text
       font-family="'Segoe UI', 'Segoe UI_MSFontService', sans-serif"
       font-weight="400"
       font-size="24px"
       transform="translate(902.41,992)"
       id="text306">implementation</text>
  </g>
</svg>
