<?xml version="1.0" encoding="UTF-8" standalone="no"?>
<svg
   width="979.62994"
   height="975.89099"
   overflow="hidden"
   version="1.1"
   id="svg52"
   sodipodi:docname="concept-to-market-cost-types.svg"
   inkscape:version="1.2.2 (732a01da63, 2022-12-09)"
   xmlns:inkscape="http://www.inkscape.org/namespaces/inkscape"
   xmlns:sodipodi="http://sodipodi.sourceforge.net/DTD/sodipodi-0.dtd"
   xmlns="http://www.w3.org/2000/svg"
   xmlns:svg="http://www.w3.org/2000/svg">
  <defs
     id="defs56" />
  <sodipodi:namedview
     id="namedview54"
     pagecolor="#ffffff"
     bordercolor="#000000"
     borderopacity="0.25"
     inkscape:showpageshadow="2"
     inkscape:pageopacity="0.0"
     inkscape:pagecheckerboard="0"
     inkscape:deskcolor="#d1d1d1"
     showgrid="false"
     inkscape:zoom="0.53489583"
     inkscape:cx="542.16164"
     inkscape:cy="544.03116"
     inkscape:window-width="3840"
     inkscape:window-height="2054"
     inkscape:window-x="2725"
     inkscape:window-y="-11"
     inkscape:window-maximized="1"
     inkscape:current-layer="svg52" />
  <g
     id="g50"
     transform="translate(-416.90359,-415.03409)">
    <rect
       x="416.90359"
       y="415.03409"
       width="979.62994"
       height="975.89099"
       fill="#ffffff"
       id="rect2"
       style="stroke-width:0.509249" />
    <path
       d="m 533,960 42.7,-34.16 v 25.62 H 951.46 V 575.7 H 925.84 L 960,533 994.16,575.7 H 968.54 V 951.46 H 1344.3 V 925.84 L 1387,960 1344.3,994.16 V 968.54 H 968.54 v 375.76 h 25.62 L 960,1387 925.84,1344.3 h 25.62 V 968.54 H 575.7 v 25.62 z"
       fill="#d6cbd8"
       fill-rule="evenodd"
       id="path4" />
    <path
       d="m 589.5,646.335 c 0,-31.389 25.446,-56.835 56.835,-56.835 h 227.331 c 31.388,0 56.834,25.446 56.834,56.835 v 227.331 c 0,31.388 -25.446,56.834 -56.834,56.834 H 646.335 c -31.389,0 -56.835,-25.446 -56.835,-56.834 z"
       stroke="#ffffff"
       stroke-width="1.13333"
       stroke-linejoin="round"
       stroke-miterlimit="10"
       fill="#770180"
       fill-rule="evenodd"
       id="path6" />
    <text
       fill="#ffffff"
       font-family="'Segoe UI', 'Segoe UI_MSFontService', sans-serif"
       font-weight="400"
       font-size="48px"
       transform="translate(706.307,747)"
       id="text8">Rent,</text>
    <text
       fill="#ffffff"
       font-family="'Segoe UI', 'Segoe UI_MSFontService', sans-serif"
       font-weight="400"
       font-size="48px"
       transform="translate(624.7,805)"
       id="text10">Depreciation</text>
    <path
       d="m 990.5,646.335 c 0,-31.389 25.45,-56.835 56.83,-56.835 h 227.34 c 31.38,0 56.83,25.446 56.83,56.835 v 227.331 c 0,31.388 -25.45,56.834 -56.83,56.834 h -227.34 c -31.38,0 -56.83,-25.446 -56.83,-56.834 z"
       stroke="#ffffff"
       stroke-width="1.13333"
       stroke-linejoin="round"
       stroke-miterlimit="10"
       fill="#380693"
       fill-rule="evenodd"
       id="path12" />
    <text
       fill="#ffffff"
       font-family="'Segoe UI', 'Segoe UI_MSFontService', sans-serif"
       font-weight="400"
       font-size="48px"
       transform="translate(1116.62,718)"
       id="text14">Raw</text>
    <text
       fill="#ffffff"
       font-family="'Segoe UI', 'Segoe UI_MSFontService', sans-serif"
       font-weight="400"
       font-size="48px"
       transform="translate(1059.58,776)"
       id="text16">materials,</text>
    <text
       fill="#ffffff"
       font-family="'Segoe UI', 'Segoe UI_MSFontService', sans-serif"
       font-weight="400"
       font-size="48px"
       transform="translate(1036.98,833)"
       id="text18">Direct labor</text>
    <path
       d="m 589.5,1047.33 c 0,-31.38 25.446,-56.83 56.835,-56.83 h 227.331 c 31.388,0 56.834,25.45 56.834,56.83 v 227.34 c 0,31.38 -25.446,56.83 -56.834,56.83 H 646.335 c -31.389,0 -56.835,-25.45 -56.835,-56.83 z"
       stroke="#ffffff"
       stroke-width="1.13333"
       stroke-linejoin="round"
       stroke-miterlimit="10"
       fill="#0c2da4"
       fill-rule="evenodd"
       id="path20" />
    <text
       fill="#ffffff"
       font-family="'Segoe UI', 'Segoe UI_MSFontService', sans-serif"
       font-weight="400"
       font-size="48px"
       transform="translate(674.39,1119)"
       id="text22">Salaries,</text>
    <text
       fill="#ffffff"
       font-family="'Segoe UI', 'Segoe UI_MSFontService', sans-serif"
       font-weight="400"
       font-size="48px"
       transform="translate(668.497,1177)"
       id="text24">Property</text>
    <text
       fill="#ffffff"
       font-family="'Segoe UI', 'Segoe UI_MSFontService', sans-serif"
       font-weight="400"
       font-size="48px"
       transform="translate(705.557,1234)"
       id="text26">taxes</text>
    <path
       d="m 990.5,1047.33 c 0,-31.38 25.45,-56.83 56.83,-56.83 h 227.34 c 31.38,0 56.83,25.45 56.83,56.83 v 227.34 c 0,31.38 -25.45,56.83 -56.83,56.83 h -227.34 c -31.38,0 -56.83,-25.45 -56.83,-56.83 z"
       stroke="#ffffff"
       stroke-width="1.13333"
       stroke-linejoin="round"
       stroke-miterlimit="10"
       fill="#1392b4"
       fill-rule="evenodd"
       id="path28" />
    <text
       fill="#ffffff"
       font-family="'Segoe UI', 'Segoe UI_MSFontService', sans-serif"
       font-weight="400"
       font-size="48px"
       transform="translate(1076.59,1148)"
       id="text30">Utilities,</text>
    <text
       fill="#ffffff"
       font-family="'Segoe UI', 'Segoe UI_MSFontService', sans-serif"
       font-weight="400"
       font-size="48px"
       transform="translate(1023.87,1206)"
       id="text32">Maintenance</text>
    <rect
       x="597"
       y="429"
       width="334"
       height="82"
       fill="#0078d4"
       id="rect34" />
    <text
       fill="#ffffff"
       font-family="'Segoe UI', 'Segoe UI_MSFontService', sans-serif"
       font-weight="400"
       font-size="37px"
       transform="translate(721.23,480)"
       id="text36">Fixed</text>
    <rect
       x="989"
       y="429"
       width="334"
       height="82"
       fill="#0078d4"
       id="rect38" />
    <text
       fill="#ffffff"
       font-family="'Segoe UI', 'Segoe UI_MSFontService', sans-serif"
       font-weight="400"
       font-size="37px"
       transform="translate(1090.51,480)"
       id="text40">Variable</text>
    <rect
       x="435"
       y="585"
       width="82"
       height="334"
       fill="#0078d4"
       id="rect42" />
    <text
       fill="#ffffff"
       font-family="'Segoe UI', 'Segoe UI_MSFontService', sans-serif"
       font-weight="400"
       font-size="37px"
       transform="rotate(-90,643.1465,156.8535)"
       id="text44">Direct</text>
    <rect
       x="435"
       y="1001"
       width="82"
       height="334"
       fill="#0078d4"
       id="rect46" />
    <text
       fill="#ffffff"
       font-family="'Segoe UI', 'Segoe UI_MSFontService', sans-serif"
       font-weight="400"
       font-size="37px"
       transform="rotate(-90,858.1465,371.8535)"
       id="text48">Indirect</text>
  </g>
</svg>
