<?xml version="1.0"?>
<svg xmlns="http://www.w3.org/2000/svg" xmlns:xlink="http://www.w3.org/1999/xlink" xmlns:ev="http://www.w3.org/2001/xml-events"    viewBox="72 31 590 563"    xml:space="preserve" color-interpolation-filters="sRGB" class="st13" width="1475" height="1408">
<rect x="0" y="0" width="1475" height="1408" fill="#ffffff" />
	<style type="text/css"><![CDATA[
		.st1 {fill:#f2f2f2;stroke:#0078d4;stroke-linecap:round;stroke-linejoin:round;stroke-width:0.24}
		.st2 {fill:#ffffff;stroke:#0078d4;stroke-linecap:round;stroke-linejoin:round;stroke-width:0.24}
		.st3 {fill:#000000;font-family:Calibri;font-size:1.00001em}
		.st4 {fill:#0078d4;stroke:none;stroke-linecap:round;stroke-linejoin:round;stroke-width:0.24}
		.st5 {fill:#ffffff;font-family:Calibri;font-size:1.00001em}
		.st6 {font-size:1em}
		.st7 {fill:#ffffff}
		.st8 {stroke:#0078d4;stroke-linecap:round;stroke-linejoin:round;stroke-width:0.24}
		.st9 {marker-end:url(#mrkr13-53);stroke:#0078d4;stroke-linecap:round;stroke-linejoin:round;stroke-width:0.75}
		.st10 {fill:#0078d4;fill-opacity:1;stroke:#0078d4;stroke-opacity:1;stroke-width:0.22935779816514}
		.st11 {fill:none;stroke:none;stroke-linecap:round;stroke-linejoin:round;stroke-width:0.75}
		.st12 {fill:#0078d4;font-family:Calibri;font-size:0.833336em;font-weight:bold}
		.st13 {fill:none;fill-rule:evenodd;font-size:12px;overflow:visible;stroke-linecap:square;stroke-miterlimit:3}
	]]></style><style> a { pointer-events: none; } </style><style>a.rules_svg_anchor g:hover { opacity:0.8; cursor:pointer; }</style>
	<defs id="Markers">
		<g id="lend13">
			<path d="M 3 1 L 0 0 L 3 -1 L 3 1 " style="stroke:none" />
		</g>
		<marker id="mrkr13-53" class="st10" refX="-13.08" orient="auto" markerUnits="strokeWidth" overflow="visible">
			<use xlink:href="#lend13" transform="scale(-4.36,-4.36) " />
		</marker>
	</defs>
	<g>
		
		<g id="shape75-1" transform="translate(220.5,-18)">
			
			<rect x="0" y="49.5" width="328.5" height="562.5" class="st1" />
		</g>
		<g id="shape1-3" transform="translate(72,-481.5)">
			
			<desc>Start</desc>
			<path d="M18 612 L67.5 612 A18 18 -180 0 0 67.5 576 L18 576 A18 18 -180 1 0 18 612 Z" class="st2" />
			<text x="31.01" y="597.6" class="st3">Start</text>
		</g>
		<a id="0ea4500b-abcd-4454-b179-1afaf9361fa3" class="rules_svg_anchor rules_svg_shape"   href="/lms/chart?onclick=b3BlbkNoYXJ0Q29udGV4dE1lbnUoZXZlbnQsJ3cxMTZkNTIzNTk2NWMxNjk4M3Y0MDcxJywxODA5OCwgMSwgMSwgdGhpcywgd2luZG93LmZyYW1lRWxlbWVudCk=&amp;navigate=true&amp;details=Description">
			<g id="shape11-6" transform="translate(234,-468)">
				
				<desc>40.50 Manage active products</desc>
				<rect x="0" y="549" width="126" height="63" class="st4" />
				<text x="12.28" y="576.9" class="st5">40.50 Manage active <tspan x="41.39" dy="1.2em" class="st6">products</tspan>
				</text>
			</g>
		</a>
		<a id="56f7cfc4-9270-4d0f-b778-4ee1a12331c6" class="rules_svg_anchor rules_svg_shape"   href="/lms/chart?onclick=b3BlbkNoYXJ0Q29udGV4dE1lbnUoZXZlbnQsJ3cxMTZkNTIzNTk2NWMxNjk4OXY0MDcxJywxODA5OSwgMSwgMSwgdGhpcywgd2luZG93LmZyYW1lRWxlbWVudCk=&amp;navigate=true&amp;details=Description">
			<g id="shape12-10" transform="translate(234,-378)">
				
				<desc>40.50.055 Process change requests</desc>
				<path d="M0 612 L126 612 L126 549 L0 549 L0 612 Z" class="st7" />
				<path d="M0 612 L126 612 L126 549 L0 549 L0 612" class="st8" />
				<path d="M9 612 L9 549" class="st8" />
				<path d="M117 612 L117 549" class="st8" />
				<text x="18.76" y="576.9" class="st3">40.50.055 Process <tspan x="23.05" dy="1.2em" class="st6">change requests</tspan>
				</text>
			</g>
		</a>
		<a id="67e9ce1a-4bab-4d30-a1cd-b1e2b0cb171e" class="rules_svg_anchor rules_svg_shape"   href="/lms/chart?onclick=b3BlbkNoYXJ0Q29udGV4dE1lbnUoZXZlbnQsJ3cxMTZkNTIzNTk2NWM3OTg3M3Y0MDcxJywxODEwMiwgMSwgMSwgdGhpcywgd2luZG93LmZyYW1lRWxlbWVudCk=&amp;navigate=true&amp;details=Description">
			<g id="shape13-17" transform="translate(234,-288)">
				
				<desc>40.50.200 Manage formulas</desc>
				<path d="M0 612 L126 612 L126 549 L0 549 L0 612 Z" class="st7" />
				<path d="M0 612 L126 612 L126 549 L0 549 L0 612" class="st8" />
				<path d="M9 612 L9 549" class="st8" />
				<path d="M117 612 L117 549" class="st8" />
				<text x="17.49" y="576.9" class="st3">40.50.200 Manage <tspan x="41.37" dy="1.2em" class="st6">formulas</tspan>
				</text>
			</g>
		</a>
		<a id="b91617f0-4acb-4412-a6ef-73ebe9da0bfe" class="rules_svg_anchor rules_svg_shape"   href="/lms/chart?onclick=b3BlbkNoYXJ0Q29udGV4dE1lbnUoZXZlbnQsJ3cxMTZkNTIzNTk2NWM3OTg3NXY0MDcxJywxODEwMywgMSwgMSwgdGhpcywgd2luZG93LmZyYW1lRWxlbWVudCk=&amp;navigate=true&amp;details=Description">
			<g id="shape14-24" transform="translate(234,-198)">
				
				<desc>40.50.300 Maintain product costs</desc>
				<path d="M0 612 L126 612 L126 549 L0 549 L0 612 Z" class="st7" />
				<path d="M0 612 L126 612 L126 549 L0 549 L0 612" class="st8" />
				<path d="M9 612 L9 549" class="st8" />
				<path d="M117 612 L117 549" class="st8" />
				<text x="15.38" y="576.9" class="st3">40.50.300 Maintain <tspan x="29.98" dy="1.2em" class="st6">product costs</tspan>
				</text>
			</g>
		</a>
		<a id="e09e71cc-e147-438a-8712-dc69aa066cb8" class="rules_svg_anchor rules_svg_shape"   href="/lms/chart?onclick=b3BlbkNoYXJ0Q29udGV4dE1lbnUoZXZlbnQsJ3cxMTZkNTIzNTk2NWM3OTkyMnY0MDcxJywxODEwNiwgMSwgMSwgdGhpcywgd2luZG93LmZyYW1lRWxlbWVudCk=&amp;navigate=true&amp;details=Description">
			<g id="shape15-31" transform="translate(234,-108)">
				
				<desc>40.50.600 Update product assortments</desc>
				<path d="M0 612 L126 612 L126 549 L0 549 L0 612 Z" class="st7" />
				<path d="M0 612 L126 612 L126 549 L0 549 L0 612" class="st8" />
				<path d="M9 612 L9 549" class="st8" />
				<path d="M117 612 L117 549" class="st8" />
				<text x="19.3" y="576.9" class="st3">40.50.600 Update <tspan x="12.26" dy="1.2em" class="st6">product assortments</tspan>
				</text>
			</g>
		</a>
		<a id="f024df05-b89d-4462-8e34-4ba0e9eb528f" class="rules_svg_anchor rules_svg_shape"   href="/lms/chart?onclick=b3BlbkNoYXJ0Q29udGV4dE1lbnUoZXZlbnQsJ3cxMTZkNTIzNTk2NWM3OTkxOHY0MDcxJywxODEwNSwgMSwgMSwgdGhpcywgd2luZG93LmZyYW1lRWxlbWVudCk=&amp;navigate=true&amp;details=Description">
			<g id="shape20-38" transform="translate(396,-108)">
				
				<desc>40.50.500 Manage product compliance</desc>
				<path d="M0 612 L126 612 L126 549 L0 549 L0 612 Z" class="st7" />
				<path d="M0 612 L126 612 L126 549 L0 549 L0 612" class="st8" />
				<path d="M9 612 L9 549" class="st8" />
				<path d="M117 612 L117 549" class="st8" />
				<text x="17.49" y="576.9" class="st3">40.50.500 Manage <tspan x="14.43" dy="1.2em" class="st6">product compliance</tspan>
				</text>
			</g>
		</a>
		<g id="shape22-45" transform="translate(576,-45)">
			
			<desc>End</desc>
			<path d="M18 612 L67.5 612 A18 18 -180 0 0 67.5 576 L18 576 A18 18 -180 1 0 18 612 Z" class="st2" />
			<text x="33.52" y="597.6" class="st3">End</text>
		</g>
		<g id="shape28-48" transform="translate(157.5,-490.5)">
			
			<path d="M0 603 L66.69 603" class="st9" />
		</g>
		<g id="shape52-54" transform="translate(288,-468)">
			
			<path d="M9 612 L9 629.19" class="st9" />
		</g>
		<g id="shape53-59" transform="translate(360,-400.5)">
			
			<path d="M0 603 L26.19 603" class="st9" />
		</g>
		<g id="shape54-64" transform="translate(288,-288)">
			
			<path d="M9 612 L9 629.19" class="st9" />
		</g>
		<g id="shape57-69" transform="translate(297,-108)">
			
			<path d="M0 612 L0 657 L269.19 657" class="st9" />
		</g>
		<g id="shape76-74" transform="translate(220.5,-540)">
			
			<desc>Business process area</desc>
			<rect x="0" y="571.5" width="283.5" height="40.5" class="st11" />
			<text x="4" y="594.75" class="st12">Business process area</text>
		</g>
		<a id="cf72ebfd-3d08-44d2-911d-3d2aaa3da722" class="rules_svg_anchor rules_svg_shape"   href="/lms/chart?onclick=b3BlbkNoYXJ0Q29udGV4dE1lbnUoZXZlbnQsJ3cxMTZkNTIzNTk2NWMxNjk5MHY0MDcxJywxODEwMCwgMSwgMSwgdGhpcywgd2luZG93LmZyYW1lRWxlbWVudCk=&amp;navigate=true&amp;details=Description">
			<g id="shape77-77" transform="translate(396,-378)">
				
				<desc>40.50.060 Process change orders</desc>
				<path d="M0 612 L126 612 L126 549 L0 549 L0 612 Z" class="st7" />
				<path d="M0 612 L126 612 L126 549 L0 549 L0 612" class="st8" />
				<path d="M9 612 L9 549" class="st8" />
				<path d="M117 612 L117 549" class="st8" />
				<text x="18.76" y="576.9" class="st3">40.50.060 Process <tspan x="28.29" dy="1.2em" class="st6">change orders</tspan>
				</text>
			</g>
		</a>
		<a id="86a9342c-9b27-46e3-97cb-5855f4a1f4c6" class="rules_svg_anchor rules_svg_shape"   href="/lms/chart?onclick=b3BlbkNoYXJ0Q29udGV4dE1lbnUoZXZlbnQsJ3cxMTZkNTIzNTk2NWM3OTg3MHY0MDcxJywxODEwMSwgMSwgMSwgdGhpcywgd2luZG93LmZyYW1lRWxlbWVudCk=&amp;navigate=true&amp;details=Description">
			<g id="shape78-84" transform="translate(396,-288)">
				
				<desc>40.50.100 Manage bills of materials</desc>
				<path d="M0 612 L126 612 L126 549 L0 549 L0 612 Z" class="st7" />
				<path d="M0 612 L126 612 L126 549 L0 549 L0 612" class="st8" />
				<path d="M9 612 L9 549" class="st8" />
				<path d="M117 612 L117 549" class="st8" />
				<text x="17.49" y="576.9" class="st3">40.50.100 Manage <tspan x="22.93" dy="1.2em" class="st6">bills of materials</tspan>
				</text>
			</g>
		</a>
		<a id="ecdc8b5a-0607-44a8-a98e-b2e79dfbdc51" class="rules_svg_anchor rules_svg_shape"   href="/lms/chart?onclick=b3BlbkNoYXJ0Q29udGV4dE1lbnUoZXZlbnQsJ3cxMTZkNTIzNTk2NWM3OTkxMHY0MDcxJywxODEwNCwgMSwgMSwgdGhpcywgd2luZG93LmZyYW1lRWxlbWVudCk=&amp;navigate=true&amp;details=Description">
			<g id="shape79-91" transform="translate(396,-198)">
				
				<desc>40.50.400 Manage product pricing</desc>
				<path d="M0 612 L126 612 L126 549 L0 549 L0 612 Z" class="st7" />
				<path d="M0 612 L126 612 L126 549 L0 549 L0 612" class="st8" />
				<path d="M9 612 L9 549" class="st8" />
				<path d="M117 612 L117 549" class="st8" />
				<text x="17.49" y="576.9" class="st3">40.50.400 Manage <tspan x="25.87" dy="1.2em" class="st6">product pricing</tspan>
				</text>
			</g>
		</a>
		<g id="shape80-98" transform="translate(450,-378)">
			
			<path d="M9 612 L9 629.19" class="st9" />
		</g>
		<g id="shape81-103" transform="translate(450,-198)">
			
			<path d="M9 612 L9 629.19" class="st9" />
		</g>
		<g id="shape82-108" transform="translate(396,-310.5)">
			
			<path d="M0 603 L-26.19 603" class="st9" />
		</g>
		<g id="shape83-113" transform="translate(360,-220.5)">
			
			<path d="M0 603 L26.19 603" class="st9" />
		</g>
		<g id="shape84-118" transform="translate(396,-130.5)">
			
			<path d="M0 603 L-26.19 603" class="st9" />
		</g>
	</g>
</svg>
