<?xml version="1.0"?>
<svg xmlns="http://www.w3.org/2000/svg" xmlns:xlink="http://www.w3.org/1999/xlink" xmlns:ev="http://www.w3.org/2001/xml-events"    viewBox="18 18 771 810"    xml:space="preserve" color-interpolation-filters="sRGB" class="st14" width="1928" height="2025">
<rect x="0" y="0" width="1928" height="2025" fill="#ffffff" />
	<style type="text/css"><![CDATA[
		.st1 {fill:#f2f2f2;stroke:#0078d4;stroke-linecap:round;stroke-linejoin:round;stroke-width:0.24}
		.st2 {fill:#ffffff;stroke:#0078d4;stroke-linecap:round;stroke-linejoin:round;stroke-width:0.24}
		.st3 {fill:#000000;font-family:Calibri;font-size:1.00001em}
		.st4 {fill:#a0a0a0;stroke:none;stroke-linecap:round;stroke-linejoin:round;stroke-width:0.24}
		.st5 {fill:#0078d4;stroke:none;stroke-linecap:round;stroke-linejoin:round;stroke-width:0.24}
		.st6 {fill:#ffffff;font-family:Calibri;font-size:1.00001em}
		.st7 {font-size:1em}
		.st8 {fill:#ffffff}
		.st9 {stroke:#0078d4;stroke-linecap:round;stroke-linejoin:round;stroke-width:0.24}
		.st10 {marker-end:url(#mrkr13-82);stroke:#0078d4;stroke-linecap:round;stroke-linejoin:round;stroke-width:0.75}
		.st11 {fill:#0078d4;fill-opacity:1;stroke:#0078d4;stroke-opacity:1;stroke-width:0.22935779816514}
		.st12 {fill:none;stroke:none;stroke-linecap:round;stroke-linejoin:round;stroke-width:0.75}
		.st13 {fill:#0078d4;font-family:Calibri;font-size:0.833336em;font-weight:bold}
		.st14 {fill:none;fill-rule:evenodd;font-size:12px;overflow:visible;stroke-linecap:square;stroke-miterlimit:3}
	]]></style><style> a { pointer-events: none; } </style><style>a.rules_svg_anchor g:hover { opacity:0.8; cursor:pointer; }</style>
	<defs id="Markers">
		<g id="lend13">
			<path d="M 3 1 L 0 0 L 3 -1 L 3 1 " style="stroke:none" />
		</g>
		<marker id="mrkr13-82" class="st11" refX="-13.08" orient="auto" markerUnits="strokeWidth" overflow="visible">
			<use xlink:href="#lend13" transform="scale(-4.36,-4.36) " />
		</marker>
	</defs>
	<g>
		
		<g id="shape51-1" transform="translate(137.25,-387)">
			
			<rect x="0" y="432" width="366.75" height="756" class="st1" />
		</g>
		<g id="shape1-3" transform="translate(24.75,-1134)">
			
			<desc>Start</desc>
			<path d="M18 1188 L67.5 1188 A18 18 -180 0 0 67.5 1152 L18 1152 A18 18 -180 1 0 18 1188 Z" class="st2" />
			<text x="31.01" y="1173.6" class="st3">Start</text>
		</g>
		<a id="c0a16b20-7701-4bfc-bca9-9e9e6d064337" class="rules_svg_anchor rules_svg_shape"   href="/lms/chart?onclick=b3BlbkNoYXJ0Q29udGV4dE1lbnUoZXZlbnQsJ3cxMTZkNTIzNTk2NWMxNjk0NHY0MDcxJywxODA4MSwgMSwgMSwgdGhpcywgd2luZG93LmZyYW1lRWxlbWVudCk=&amp;navigate=true&amp;details=Description">
			<g id="shape2-6" transform="translate(18,-1026)">
				
				<desc>40 Design to retire</desc>
				<rect x="0" y="1125" width="99" height="63" class="st4" />
				<text x="4.26" y="1160.1" class="st3">40 Design to retire</text>
			</g>
		</a>
		<a id="69b2b5c5-7c82-4d44-9e5e-ba6e5b110d8b" class="rules_svg_anchor rules_svg_shape"   href="/lms/chart?onclick=b3BlbkNoYXJ0Q29udGV4dE1lbnUoZXZlbnQsJ3cxMTZkNTIzNTk2NWMxNjk0NXY0MDcxJywxODA4MiwgMSwgMSwgdGhpcywgd2luZG93LmZyYW1lRWxlbWVudCk=&amp;navigate=true&amp;details=Description">
			<g id="shape3-9" transform="translate(166.5,-1026)">
				
				<desc>40.10 Develop product strategy</desc>
				<rect x="0" y="1125" width="126" height="63" class="st5" />
				<text x="7.28" y="1152.9" class="st6">40.10 Develop product <tspan x="43.14" dy="1.2em" class="st7">strategy</tspan>
				</text>
			</g>
		</a>
		<a id="141a24d4-b435-489b-ad1b-c0665ea71929" class="rules_svg_anchor rules_svg_shape"   href="/lms/chart?onclick=b3BlbkNoYXJ0Q29udGV4dE1lbnUoZXZlbnQsJ3cxMTZkNTIzNTk2NWMxNjk0NnY0MDcxJywxODA4MywgMSwgMSwgdGhpcywgd2luZG93LmZyYW1lRWxlbWVudCk=&amp;navigate=true&amp;details=Description">
			<g id="shape4-13" transform="translate(166.5,-936)">
				
				<desc>40.10.010 Define product policies</desc>
				<path d="M0 1188 L126 1188 L126 1125 L0 1125 L0 1188 Z" class="st8" />
				<path d="M0 1188 L126 1188 L126 1125 L0 1125 L0 1188" class="st9" />
				<path d="M9 1188 L9 1125" class="st9" />
				<path d="M117 1188 L117 1125" class="st9" />
				<text x="21.3" y="1152.9" class="st3">40.10.010 Define <tspan x="24.07" dy="1.2em" class="st7">product policies</tspan>
				</text>
			</g>
		</a>
		<a id="ab6bbb23-9f65-42ae-9bbf-7f751c92e56e" class="rules_svg_anchor rules_svg_shape"   href="/lms/chart?onclick=b3BlbkNoYXJ0Q29udGV4dE1lbnUoZXZlbnQsJ3cxMTZkNTIzNTk2NWM3OTg1MHY0MDcxJywxODA4NCwgMSwgMSwgdGhpcywgd2luZG93LmZyYW1lRWxlbWVudCk=&amp;navigate=true&amp;details=Description">
			<g id="shape5-20" transform="translate(337.5,-936)">
				
				<desc>40.10.015 Develop product portfolio</desc>
				<path d="M0 1188 L126 1188 L126 1125 L0 1125 L0 1188 Z" class="st8" />
				<path d="M0 1188 L126 1188 L126 1125 L0 1125 L0 1188" class="st9" />
				<path d="M9 1188 L9 1125" class="st9" />
				<path d="M117 1188 L117 1125" class="st9" />
				<text x="17.26" y="1152.9" class="st3">40.10.015 Develop <tspan x="21.05" dy="1.2em" class="st7">product portfolio</tspan>
				</text>
			</g>
		</a>
		<a id="9f34600c-9c40-4291-be07-405d7bcde13d" class="rules_svg_anchor rules_svg_shape"   href="/lms/chart?onclick=b3BlbkNoYXJ0Q29udGV4dE1lbnUoZXZlbnQsJ3cxMTZkNTIzNTk2NWMxNjk0N3Y0MDcxJywxODA4NiwgMSwgMSwgdGhpcywgd2luZG93LmZyYW1lRWxlbWVudCk=&amp;navigate=true&amp;details=Description">
			<g id="shape6-27" transform="translate(166.5,-846)">
				
				<desc>40.10.020 Define product categories</desc>
				<path d="M0 1188 L126 1188 L126 1125 L0 1125 L0 1188 Z" class="st8" />
				<path d="M0 1188 L126 1188 L126 1125 L0 1125 L0 1188" class="st9" />
				<path d="M9 1188 L9 1125" class="st9" />
				<path d="M117 1188 L117 1125" class="st9" />
				<text x="21.3" y="1152.9" class="st3">40.10.020 Define <tspan x="17.19" dy="1.2em" class="st7">product categories</tspan>
				</text>
			</g>
		</a>
		<a id="715e49eb-4d74-46e7-9a36-83d317761f47" class="rules_svg_anchor rules_svg_shape"   href="/lms/chart?onclick=b3BlbkNoYXJ0Q29udGV4dE1lbnUoZXZlbnQsJ3cxMTZkNTIzNTk2NWMxNjk1MnY0MDcxJywxODA4OCwgMSwgMSwgdGhpcywgd2luZG93LmZyYW1lRWxlbWVudCk=&amp;navigate=true&amp;details=Description">
			<g id="shape11-34" transform="translate(337.5,-756)">
				
				<desc>40.10.070 Develop product catalogs</desc>
				<path d="M0 1188 L126 1188 L126 1125 L0 1125 L0 1188 Z" class="st8" />
				<path d="M0 1188 L126 1188 L126 1125 L0 1125 L0 1188" class="st9" />
				<path d="M9 1188 L9 1125" class="st9" />
				<path d="M117 1188 L117 1125" class="st9" />
				<text x="17.26" y="1152.9" class="st3">40.10.070 Develop <tspan x="22.38" dy="1.2em" class="st7">product catalogs</tspan>
				</text>
			</g>
		</a>
		<a id="2c8223de-1ca2-4890-974a-05ff6a8b10d6" class="rules_svg_anchor rules_svg_shape"   href="/lms/chart?onclick=b3BlbkNoYXJ0Q29udGV4dE1lbnUoZXZlbnQsJ3cxMTZkNTIzNTk2NWMxNjk1M3Y0MDcxJywxODA4OSwgMSwgMSwgdGhpcywgd2luZG93LmZyYW1lRWxlbWVudCk=&amp;navigate=true&amp;details=Description">
			<g id="shape12-41" transform="translate(337.5,-666)">
				
				<desc>40.10.080 Develop merchandise and assortment plans</desc>
				<path d="M0 1188 L126 1188 L126 1125 L0 1125 L0 1188 Z" class="st8" />
				<path d="M0 1188 L126 1188 L126 1125 L0 1125 L0 1188" class="st9" />
				<path d="M9 1188 L9 1125" class="st9" />
				<path d="M117 1188 L117 1125" class="st9" />
				<text x="17.26" y="1145.7" class="st3">40.10.080 Develop <tspan x="21.02" dy="1.2em" class="st7">merchandise and </tspan>
					<tspan x="20.97" dy="1.2em" class="st7">assortment plans</tspan>
				</text>
			</g>
		</a>
		<a id="f9baf74a-8d7c-4055-84ed-39a134ef57f2" class="rules_svg_anchor rules_svg_shape"   href="/lms/chart?onclick=b3BlbkNoYXJ0Q29udGV4dE1lbnUoZXZlbnQsJ3cxMTZkNTIzNTk2NWMxNjk1NnY0MDcxJywxODA5MCwgMSwgMSwgdGhpcywgd2luZG93LmZyYW1lRWxlbWVudCk=&amp;navigate=true&amp;details=Description">
			<g id="shape16-49" transform="translate(526.5,-756)">
				
				<desc>40.20 Introduce products</desc>
				<rect x="0" y="1125" width="99" height="63" class="st5" />
				<text x="10.71" y="1152.9" class="st6">40.20 Introduce <tspan x="27.89" dy="1.2em" class="st7">products</tspan>
				</text>
			</g>
		</a>
		<a id="95c26df6-70fc-4693-bf9a-7660a8f16474" class="rules_svg_anchor rules_svg_shape"   href="/lms/chart?onclick=b3BlbkNoYXJ0Q29udGV4dE1lbnUoZXZlbnQsJ3cxMTZkNTIzNTk2NWMxNzE1NXY0MDcxJywxODI4MSwgMSwgMSwgdGhpcywgd2luZG93LmZyYW1lRWxlbWVudCk=&amp;navigate=true&amp;details=Description">
			<g id="shape17-53" transform="translate(652.5,-810)">
				
				<desc>65 Order to cash</desc>
				<rect x="0" y="1125" width="99" height="63" class="st4" />
				<text x="8.97" y="1160.1" class="st3">65 Order to cash</text>
			</g>
		</a>
		<a id="41e68212-d1d2-4ce0-881c-4784dca7f580" class="rules_svg_anchor rules_svg_shape"   href="/lms/chart?onclick=b3BlbkNoYXJ0Q29udGV4dE1lbnUoZXZlbnQsJ3cxMTZkNTIzNTk2NWMxNzIzMHY0MDcxJywxODMyNywgMSwgMSwgdGhpcywgd2luZG93LmZyYW1lRWxlbWVudCk=&amp;navigate=true&amp;details=Description">
			<g id="shape18-56" transform="translate(652.5,-720)">
				
				<desc>70 Plan to produce</desc>
				<rect x="0" y="1125" width="99" height="63" class="st4" />
				<text x="3.44" y="1160.1" class="st3">70 Plan to produce</text>
			</g>
		</a>
		<a id="afbe05ce-7834-4516-ac4b-a4c77b26f674" class="rules_svg_anchor rules_svg_shape"   href="/lms/chart?onclick=b3BlbkNoYXJ0Q29udGV4dE1lbnUoZXZlbnQsJ3cxMTZkNTIzNTk2NWMxNzI2OXY0MDcxJywxODM2MywgMSwgMSwgdGhpcywgd2luZG93LmZyYW1lRWxlbWVudCk=&amp;navigate=true&amp;details=Description">
			<g id="shape19-59" transform="translate(652.5,-630)">
				
				<desc>75 Source to pay</desc>
				<rect x="0" y="1125" width="99" height="63" class="st4" />
				<text x="8.74" y="1160.1" class="st3">75 Source to pay</text>
			</g>
		</a>
		<a id="cbbdae98-b8df-41b8-810d-efa187ecdf9c" class="rules_svg_anchor rules_svg_shape"   href="/lms/chart?onclick=b3BlbkNoYXJ0Q29udGV4dE1lbnUoZXZlbnQsJ3cxMTZkNTIzNTk2NWMxNzA5M3Y0MDcxJywxODIzMiwgMSwgMSwgdGhpcywgd2luZG93LmZyYW1lRWxlbWVudCk=&amp;navigate=true&amp;details=Description">
			<g id="shape20-62" transform="translate(652.5,-540)">
				
				<desc>60 Inventory to deliver</desc>
				<rect x="0" y="1125" width="99" height="63" class="st4" />
				<text x="12.04" y="1152.9" class="st3">60 Inventory to <tspan x="32.82" dy="1.2em" class="st7">deliver</tspan>
				</text>
			</g>
		</a>
		<a id="693271c4-c354-4241-a8a4-0c2786bf1acc" class="rules_svg_anchor rules_svg_shape"   href="/lms/chart?onclick=b3BlbkNoYXJ0Q29udGV4dE1lbnUoZXZlbnQsJ3cxMTZkNTIzNTk2NWMxNzQxMnY0MDcxJywxODQ2MSwgMSwgMSwgdGhpcywgd2luZG93LmZyYW1lRWxlbWVudCk=&amp;navigate=true&amp;details=Description">
			<g id="shape21-66" transform="translate(652.5,-450)">
				
				<desc>90 Record to report</desc>
				<rect x="0" y="1125" width="99" height="63" class="st4" />
				<text x="18.34" y="1152.9" class="st3">90 Record to <tspan x="34" dy="1.2em" class="st7">report</tspan>
				</text>
			</g>
		</a>
		<g id="shape22-70" transform="translate(652.5,-360)">
			
			<desc>End</desc>
			<path d="M18 1188 L67.5 1188 A18 18 -180 0 0 67.5 1152 L18 1152 A18 18 -180 1 0 18 1188 Z" class="st2" />
			<text x="33.52" y="1173.6" class="st3">End</text>
		</g>
		<a id="fc0e728b-5ff9-47cc-bec2-08e546d2d696" class="rules_svg_anchor rules_svg_shape"   href="/lms/chart?onclick=b3BlbkNoYXJ0Q29udGV4dE1lbnUoZXZlbnQsJ3cxMTZkNTIzNTk2NWMxNjk1NnY0MDcxJywxODA5MCwgMSwgMSwgdGhpcywgd2luZG93LmZyYW1lRWxlbWVudCk=&amp;navigate=true&amp;details=Description">
			<g id="shape23-73" transform="translate(18,-756)">
				
				<desc>40.20 Introduce products</desc>
				<rect x="0" y="1125" width="99" height="63" class="st5" />
				<text x="10.71" y="1152.9" class="st6">40.20 Introduce <tspan x="27.89" dy="1.2em" class="st7">products</tspan>
				</text>
			</g>
		</a>
		<g id="shape24-77" transform="translate(58.5,-1134)">
			
			<path d="M9 1188 L9 1223.19" class="st10" />
		</g>
		<g id="shape25-83" transform="translate(117,-1048.5)">
			
			<path d="M0 1179 L39.69 1179" class="st10" />
		</g>
		<g id="shape26-88" transform="translate(220.5,-1026)">
			
			<path d="M9 1188 L9 1205.19" class="st10" />
		</g>
		<g id="shape27-93" transform="translate(292.5,-958.5)">
			
			<path d="M0 1179 L35.19 1179" class="st10" />
		</g>
		<g id="shape28-98" transform="translate(337.5,-868.5)">
			
			<path d="M0 1179 L-35.19 1179" class="st10" />
		</g>
		<g id="shape29-103" transform="translate(391.5,-936)">
			
			<path d="M9 1188 L9 1205.19" class="st10" />
		</g>
		<g id="shape30-108" transform="translate(220.5,-846)">
			
			<path d="M9 1188 L9 1205.19" class="st10" />
		</g>
		<g id="shape31-113" transform="translate(391.5,-846)">
			
			<path d="M9 1188 L9 1205.19" class="st10" />
		</g>
		<g id="shape32-118" transform="translate(292.5,-778.5)">
			
			<path d="M0 1179 L35.19 1179" class="st10" />
		</g>
		<g id="shape34-123" transform="translate(391.5,-756)">
			
			<path d="M9 1188 L9 1205.19" class="st10" />
		</g>
		<g id="shape35-128" transform="translate(400.5,-666)">
			
			<path d="M0 1188 L0 1476 L242.19 1476" class="st10" />
		</g>
		<g id="shape41-133" transform="translate(463.5,-778.5)">
			
			<path d="M0 1179 L53.19 1179" class="st10" />
		</g>
		<g id="shape42-138" transform="translate(625.5,-787.5)">
			
			<path d="M0 1188 L8.83 1188 L8.83 1134 L17.19 1134" class="st10" />
		</g>
		<g id="shape43-143" transform="translate(625.5,-787.5)">
			
			<path d="M0 1188 L8.83 1188 L8.83 1224 L17.19 1224" class="st10" />
		</g>
		<g id="shape44-148" transform="translate(625.5,-787.5)">
			
			<path d="M0 1188 L8.83 1188 L8.83 1314 L17.19 1314" class="st10" />
		</g>
		<g id="shape45-153" transform="translate(625.5,-787.5)">
			
			<path d="M0 1188 L8.83 1188 L8.83 1404 L17.19 1404" class="st10" />
		</g>
		<g id="shape46-158" transform="translate(742.5,-841.5)">
			
			<path d="M9 1188 L26.66 1188 L26.66 1548 L18.81 1548" class="st10" />
		</g>
		<g id="shape47-163" transform="translate(742.5,-751.5)">
			
			<path d="M9 1188 L26.66 1188 L26.66 1458 L18.81 1458" class="st10" />
		</g>
		<g id="shape48-168" transform="translate(742.5,-661.5)">
			
			<path d="M9 1188 L26.66 1188 L26.66 1368 L18.81 1368" class="st10" />
		</g>
		<g id="shape49-173" transform="translate(742.5,-571.5)">
			
			<path d="M9 1188 L26.66 1188 L26.66 1278 L18.81 1278" class="st10" />
		</g>
		<g id="shape50-178" transform="translate(689.625,-450)">
			
			<path d="M9 1188 L9 1232.19" class="st10" />
		</g>
		<g id="shape52-183" transform="translate(137.25,-1107)">
			
			<desc>Business process area</desc>
			<rect x="0" y="1152" width="276.75" height="36" class="st12" />
			<text x="4" y="1173" class="st13">Business process area</text>
		</g>
		<a id="e21635c5-634a-4322-bae1-530a208be98e" class="rules_svg_anchor rules_svg_shape"   href="/lms/chart?onclick=b3BlbkNoYXJ0Q29udGV4dE1lbnUoZXZlbnQsJ3cxMTZkNTIzNTk2NWM3OTg1MXY0MDcxJywxODA4NSwgMSwgMSwgdGhpcywgd2luZG93LmZyYW1lRWxlbWVudCk=&amp;navigate=true&amp;details=Description">
			<g id="shape53-186" transform="translate(337.5,-846)">
				
				<desc>40.10.018 Develop product roadmap</desc>
				<path d="M0 1188 L126 1188 L126 1125 L0 1125 L0 1188 Z" class="st8" />
				<path d="M0 1188 L126 1188 L126 1125 L0 1125 L0 1188" class="st9" />
				<path d="M9 1188 L9 1125" class="st9" />
				<path d="M117 1188 L117 1125" class="st9" />
				<text x="17.26" y="1152.9" class="st3">40.10.018 Develop <tspan x="20.28" dy="1.2em" class="st7">product roadmap</tspan>
				</text>
			</g>
		</a>
		<a id="229fdef9-79aa-401b-ba2a-8f233b787eb6" class="rules_svg_anchor rules_svg_shape"   href="/lms/chart?onclick=b3BlbkNoYXJ0Q29udGV4dE1lbnUoZXZlbnQsJ3cxMTZkNTIzNTk2NWMxNjk0OXY0MDcxJywxODA4NywgMSwgMSwgdGhpcywgd2luZG93LmZyYW1lRWxlbWVudCk=&amp;navigate=true&amp;details=Description">
			<g id="shape54-193" transform="translate(166.5,-756)">
				
				<desc>40.10.040 Define product attributes</desc>
				<path d="M0 1188 L126 1188 L126 1125 L0 1125 L0 1188 Z" class="st8" />
				<path d="M0 1188 L126 1188 L126 1125 L0 1125 L0 1188" class="st9" />
				<path d="M9 1188 L9 1125" class="st9" />
				<path d="M117 1188 L117 1125" class="st9" />
				<text x="21.3" y="1152.9" class="st3">40.10.040 Define <tspan x="18.37" dy="1.2em" class="st7">product attributes</tspan>
				</text>
			</g>
		</a>
	</g>
</svg>
