<?xml version="1.0" encoding="UTF-8" standalone="no"?>
<svg
   width="1734.9172"
   height="1762.9601"
   overflow="hidden"
   version="1.1"
   id="svg1441"
   sodipodi:docname="design-to-retire-introduce-new-products.svg"
   inkscape:version="1.2.2 (732a01da63, 2022-12-09)"
   xmlns:inkscape="http://www.inkscape.org/namespaces/inkscape"
   xmlns:sodipodi="http://sodipodi.sourceforge.net/DTD/sodipodi-0.dtd"
   xmlns="http://www.w3.org/2000/svg"
   xmlns:svg="http://www.w3.org/2000/svg">
  <defs
     id="defs1445" />
  <sodipodi:namedview
     id="namedview1443"
     pagecolor="#ffffff"
     bordercolor="#000000"
     borderopacity="0.25"
     inkscape:showpageshadow="2"
     inkscape:pageopacity="0.0"
     inkscape:pagecheckerboard="0"
     inkscape:deskcolor="#d1d1d1"
     showgrid="false"
     inkscape:zoom="0.53489583"
     inkscape:cx="867.45862"
     inkscape:cy="818.85102"
     inkscape:window-width="3840"
     inkscape:window-height="2054"
     inkscape:window-x="2725"
     inkscape:window-y="-11"
     inkscape:window-maximized="1"
     inkscape:current-layer="svg1441" />
  <g
     id="g1439"
     transform="translate(-91.606621,-140.21422)">
    <rect
       x="91.606621"
       y="140.21422"
       width="1734.9172"
       height="1762.9601"
       fill="#ffffff"
       id="rect1099"
       style="stroke-width:0.910876" />
    <rect
       x="489"
       y="382"
       width="936"
       height="1137"
       stroke="#0078d4"
       stroke-width="2"
       stroke-linejoin="round"
       stroke-miterlimit="10"
       fill="#d9d9d9"
       id="rect1101" />
    <text
       fill="#0078d4"
       font-family="'Segoe UI', 'Segoe UI_MSFontService', sans-serif"
       font-weight="700"
       font-size="27px"
       transform="translate(517.333,431)"
       id="text1103">Business process area</text>
    <path
       d="m 133,188.5 c 0,-21.263 17.237,-38.5 38.5,-38.5 h 176 c 21.263,0 38.5,17.237 38.5,38.5 v 0 c 0,21.263 -17.237,38.5 -38.5,38.5 h -176 C 150.237,227 133,209.763 133,188.5 Z"
       stroke="#0078d4"
       stroke-width="2"
       stroke-linejoin="round"
       stroke-miterlimit="10"
       fill="#ffffff"
       fill-rule="evenodd"
       id="path1105" />
    <text
       font-family="'Segoe UI', 'Segoe UI_MSFontService', sans-serif"
       font-weight="400"
       font-size="21px"
       transform="translate(237.585,197)"
       id="text1107">Start</text>
    <rect
       x="1530"
       y="178"
       width="255"
       height="153"
       stroke="#000000"
       stroke-width="2"
       stroke-linejoin="round"
       stroke-miterlimit="10"
       fill="#a0a0a0"
       id="rect1109" />
    <text
       font-family="'Segoe UI', 'Segoe UI_MSFontService', sans-serif"
       font-weight="400"
       font-size="21px"
       transform="translate(1565.06,237)"
       id="text1111">Product and service</text>
    <text
       font-family="'Segoe UI', 'Segoe UI_MSFontService', sans-serif"
       font-weight="400"
       font-size="21px"
       transform="translate(1620.4,262)"
       id="text1113">lifecycle</text>
    <text
       font-family="'Segoe UI', 'Segoe UI_MSFontService', sans-serif"
       font-weight="400"
       font-size="21px"
       transform="translate(1595.43,288)"
       id="text1115">management</text>
    <rect
       x="133"
       y="275"
       width="253"
       height="153"
       stroke="#000000"
       stroke-width="2"
       stroke-linejoin="round"
       stroke-miterlimit="10"
       fill="#a0a0a0"
       id="rect1117" />
    <text
       font-family="'Segoe UI', 'Segoe UI_MSFontService', sans-serif"
       font-weight="400"
       font-size="21px"
       transform="translate(186.995,359)"
       id="text1119">Design to retire</text>
    <rect
       x="522"
       y="669"
       width="252"
       height="154"
       fill="#ffffff"
       id="rect1121" />
    <path
       d="m 553.5,669 v 154 m 189,-154 v 154"
       stroke="#0078d4"
       stroke-width="2"
       stroke-linejoin="round"
       stroke-miterlimit="10"
       fill="none"
       fill-rule="evenodd"
       id="path1123" />
    <rect
       x="522"
       y="669"
       width="252"
       height="154"
       stroke="#0078d4"
       stroke-width="2"
       stroke-linejoin="round"
       stroke-miterlimit="10"
       fill="none"
       id="rect1125" />
    <text
       font-family="'Segoe UI', 'Segoe UI_MSFontService', sans-serif"
       font-weight="400"
       font-size="21px"
       transform="translate(605.411,729)"
       id="text1127">Generate</text>
    <text
       font-family="'Segoe UI', 'Segoe UI_MSFontService', sans-serif"
       font-weight="400"
       font-size="21px"
       transform="translate(584.024,754)"
       id="text1129">offering ideas</text>
    <text
       font-family="'Segoe UI', 'Segoe UI_MSFontService', sans-serif"
       font-weight="400"
       font-size="21px"
       transform="translate(585.578,780)"
       id="text1131">and concepts</text>
    <rect
       x="133"
       y="469"
       width="255"
       height="154"
       fill="#0078d4"
       id="rect1133" />
    <path
       d="M 164.875,469 V 623 M 356.125,469 V 623"
       stroke="#0078d4"
       stroke-width="2"
       stroke-linejoin="round"
       stroke-miterlimit="10"
       fill="none"
       fill-rule="evenodd"
       id="path1135" />
    <rect
       x="133"
       y="469"
       width="255"
       height="154"
       stroke="#0078d4"
       stroke-width="2"
       stroke-linejoin="round"
       stroke-miterlimit="10"
       fill="none"
       id="rect1137" />
    <text
       fill="#ffffff"
       font-family="'Segoe UI', 'Segoe UI_MSFontService', sans-serif"
       font-weight="400"
       font-size="21px"
       transform="translate(210.496,541)"
       id="text1139">Categorize</text>
    <text
       fill="#ffffff"
       font-family="'Segoe UI', 'Segoe UI_MSFontService', sans-serif"
       font-weight="400"
       font-size="21px"
       transform="translate(219.47,566)"
       id="text1141">products</text>
    <rect
       x="522"
       y="470"
       width="252"
       height="153"
       stroke="#00569b"
       stroke-width="2"
       stroke-linejoin="round"
       stroke-miterlimit="10"
       fill="#0078d4"
       id="rect1143" />
    <text
       fill="#ffffff"
       font-family="'Segoe UI', 'Segoe UI_MSFontService', sans-serif"
       font-weight="400"
       font-size="21px"
       transform="translate(580.888,542)"
       id="text1145">Introduce new</text>
    <text
       fill="#ffffff"
       font-family="'Segoe UI', 'Segoe UI_MSFontService', sans-serif"
       font-weight="400"
       font-size="21px"
       transform="translate(606.808,567)"
       id="text1147">products</text>
    <rect
       x="831"
       y="669"
       width="252"
       height="154"
       fill="#ffffff"
       id="rect1149" />
    <path
       d="m 862.5,669 v 154 m 189,-154 v 154"
       stroke="#0078d4"
       stroke-width="2"
       stroke-linejoin="round"
       stroke-miterlimit="10"
       fill="none"
       fill-rule="evenodd"
       id="path1151" />
    <rect
       x="831"
       y="669"
       width="252"
       height="154"
       stroke="#0078d4"
       stroke-width="2"
       stroke-linejoin="round"
       stroke-miterlimit="10"
       fill="none"
       id="rect1153" />
    <text
       font-family="'Segoe UI', 'Segoe UI_MSFontService', sans-serif"
       font-weight="400"
       font-size="21px"
       transform="translate(926.812,716)"
       id="text1155">Assess</text>
    <text
       font-family="'Segoe UI', 'Segoe UI_MSFontService', sans-serif"
       font-weight="400"
       font-size="21px"
       transform="translate(920.419,741)"
       id="text1157">offering</text>
    <text
       font-family="'Segoe UI', 'Segoe UI_MSFontService', sans-serif"
       font-weight="400"
       font-size="21px"
       transform="translate(892.559,767)"
       id="text1159">feasibility and</text>
    <text
       font-family="'Segoe UI', 'Segoe UI_MSFontService', sans-serif"
       font-weight="400"
       font-size="21px"
       transform="translate(921.479,793)"
       id="text1161">viability</text>
    <rect
       x="1140"
       y="669"
       width="252"
       height="154"
       fill="#ffffff"
       id="rect1163" />
    <path
       d="m 1171.5,669 v 154 m 189,-154 v 154"
       stroke="#0078d4"
       stroke-width="2"
       stroke-linejoin="round"
       stroke-miterlimit="10"
       fill="none"
       fill-rule="evenodd"
       id="path1165" />
    <rect
       x="1140"
       y="669"
       width="252"
       height="154"
       stroke="#0078d4"
       stroke-width="2"
       stroke-linejoin="round"
       stroke-miterlimit="10"
       fill="none"
       id="rect1167" />
    <text
       font-family="'Segoe UI', 'Segoe UI_MSFontService', sans-serif"
       font-weight="400"
       font-size="21px"
       transform="translate(1235.87,729)"
       id="text1169">Define</text>
    <text
       font-family="'Segoe UI', 'Segoe UI_MSFontService', sans-serif"
       font-weight="400"
       font-size="21px"
       transform="translate(1229.56,754)"
       id="text1171">offering</text>
    <text
       font-family="'Segoe UI', 'Segoe UI_MSFontService', sans-serif"
       font-weight="400"
       font-size="21px"
       transform="translate(1204.4,780)"
       id="text1173">requirements</text>
    <rect
       x="522"
       y="892"
       width="252"
       height="153"
       fill="#ffffff"
       id="rect1175" />
    <path
       d="m 553.5,892 v 153 m 189,-153 v 153"
       stroke="#0078d4"
       stroke-width="2"
       stroke-linejoin="round"
       stroke-miterlimit="10"
       fill="none"
       fill-rule="evenodd"
       id="path1177" />
    <rect
       x="522"
       y="892"
       width="252"
       height="153"
       stroke="#0078d4"
       stroke-width="2"
       stroke-linejoin="round"
       stroke-miterlimit="10"
       fill="none"
       id="rect1179" />
    <text
       font-family="'Segoe UI', 'Segoe UI_MSFontService', sans-serif"
       font-weight="400"
       font-size="21px"
       transform="translate(601.971,951)"
       id="text1181">Prototype</text>
    <text
       font-family="'Segoe UI', 'Segoe UI_MSFontService', sans-serif"
       font-weight="400"
       font-size="21px"
       transform="translate(610.411,976)"
       id="text1183">and test</text>
    <text
       font-family="'Segoe UI', 'Segoe UI_MSFontService', sans-serif"
       font-weight="400"
       font-size="21px"
       transform="translate(606.771,1002)"
       id="text1185">offerings</text>
    <path
       d="m 1530,1855 c 0,-19.88 16.12,-36 36,-36 h 183 c 19.88,0 36,16.12 36,36 v 0 c 0,19.88 -16.12,36 -36,36 h -183 c -19.88,0 -36,-16.12 -36,-36 z"
       stroke="#0078d4"
       stroke-width="2"
       stroke-linejoin="round"
       stroke-miterlimit="10"
       fill="#ffffff"
       fill-rule="evenodd"
       id="path1187" />
    <text
       font-family="'Segoe UI', 'Segoe UI_MSFontService', sans-serif"
       font-weight="400"
       font-size="21px"
       transform="translate(1639.93,1863)"
       id="text1189">End</text>
    <rect
       x="1530"
       y="1454"
       width="255"
       height="154"
       stroke="#000000"
       stroke-width="2"
       stroke-linejoin="round"
       stroke-miterlimit="10"
       fill="#a0a0a0"
       id="rect1191" />
    <text
       font-family="'Segoe UI', 'Segoe UI_MSFontService', sans-serif"
       font-weight="400"
       font-size="21px"
       transform="translate(1573.74,1539)"
       id="text1193">Prospect to quote</text>
    <rect
       x="135"
       y="788"
       width="251"
       height="154"
       stroke="#000000"
       stroke-width="2"
       stroke-linejoin="round"
       stroke-miterlimit="10"
       fill="#a0a0a0"
       id="rect1195" />
    <text
       font-family="'Segoe UI', 'Segoe UI_MSFontService', sans-serif"
       font-weight="400"
       font-size="21px"
       transform="translate(185.891,873)"
       id="text1197">Plan to produce</text>
    <rect
       x="135"
       y="988"
       width="251"
       height="153"
       stroke="#000000"
       stroke-width="2"
       stroke-linejoin="round"
       stroke-miterlimit="10"
       fill="#a0a0a0"
       id="rect1199" />
    <text
       font-family="'Segoe UI', 'Segoe UI_MSFontService', sans-serif"
       font-weight="400"
       font-size="21px"
       transform="translate(192.088,1073)"
       id="text1201">Procure to pay</text>
    <path
       d="m 386.5,864 h 68.116 c 0.828,0 1.5,0.672 1.5,1.5 v 103.812 l -1.5,-1.5 h 60.615 v 3 h -60.615 c -0.829,0 -1.5,-0.672 -1.5,-1.5 V 865.5 l 1.5,1.5 H 386.5 Z m 127.231,100.812 9,4.5 -9,4.5 z"
       fill="#0078d4"
       id="path1203" />
    <path
       d="m 0,-1.5 h 68.1155 c 0.8284,0 1.5,0.671573 1.5,1.5 v 95.9163 l -1.5,-1.5 h 60.6155 v 3 H 68.1155 c -0.8284,0 -1.5,-0.6715 -1.5,-1.5 V 0 l 1.5,1.5 H 0 Z m 127.231,92.9163 9,4.5 -9,4.4997 z"
       fill="#0078d4"
       transform="matrix(1,0,0,-1,386.5,1065.42)"
       id="path1205" />
    <path
       d="M 1.5,-1.35649e-5 1.50035,38.9375 h -3 L -1.5,1.35649e-5 Z M 4.50034,37.4374 4.19947e-4,46.4375 -4.49966,37.4375 Z"
       fill="#0078d4"
       transform="matrix(-1,0,0,1,648.5,623.5)"
       id="path1207" />
    <path
       d="m 261.999,428.454 1.05,33.909 -2.999,0.093 -1.049,-33.91 z m 4.002,32.317 -4.22,9.135 -4.776,-8.857 z"
       fill="#0078d4"
       id="path1209" />
    <path
       d="m 388.505,545 126.169,0.379 -0.009,3 L 388.496,548 Z m 124.678,-2.626 8.986,4.527 -9.013,4.473 z"
       fill="#0078d4"
       id="path1211" />
    <path
       d="m 776.5,745 h 47.316 v 3 H 776.5 Z m 45.816,-3 9,4.5 -9,4.5 z"
       fill="#0078d4"
       id="path1213" />
    <path
       d="m 1083.5,745 h 49.87 v 3 h -49.87 z m 48.37,-3 9,4.5 -9,4.5 z"
       fill="#0078d4"
       id="path1215" />
    <path
       d="m 1268.29,823.5 v 34.705 c 0,0.828 -0.67,1.5 -1.5,1.5 H 648.5 l 1.5,-1.5 v 27.203 h -3 v -27.203 c 0,-0.829 0.672,-1.5 1.5,-1.5 h 618.29 l -1.5,1.5 V 823.5 Z M 653,883.908 l -4.5,9 -4.5,-9 z"
       fill="#0078d4"
       id="path1217" />
    <path
       d="m 1660,1608.5 v 21.6 h -3 v -21.6 z m 3,20.1 -4.5,9 -4.5,-9 z"
       fill="#0078d4"
       id="path1219" />
    <path
       d="m 262,227.5 v 40.175 h -3 V 227.5 Z m 3,38.675 -4.5,9 -4.5,-9 z"
       fill="#0078d4"
       id="path1221" />
    <path
       d="m 133.5,191 h -24 l 1.5,-1.5 v 676.419 l -1.5,-1.5 h 18.072 v 3 H 109.5 c -0.828,0 -1.5,-0.672 -1.5,-1.5 V 189.5 c 0,-0.828 0.672,-1.5 1.5,-1.5 h 24 z m -7.428,670.419 9,4.5 -9,4.5 z"
       fill="#0078d4"
       id="path1223" />
    <path
       d="m 133.5,191 h -24 l 1.5,-1.5 v 876.15 l -1.5,-1.5 h 18.072 v 3 H 109.5 c -0.828,0 -1.5,-0.68 -1.5,-1.5 V 189.5 c 0,-0.828 0.672,-1.5 1.5,-1.5 h 24 z m -7.428,870.15 9,4.5 -9,4.5 z"
       fill="#0078d4"
       id="path1225" />
    <rect
       x="531"
       y="1106"
       width="252"
       height="154"
       fill="#ffffff"
       id="rect1227" />
    <path
       d="m 562.5,1106 v 154 m 189,-154 v 154"
       stroke="#0078d4"
       stroke-width="2"
       stroke-linejoin="round"
       stroke-miterlimit="10"
       fill="none"
       fill-rule="evenodd"
       id="path1229" />
    <rect
       x="531"
       y="1106"
       width="252"
       height="154"
       stroke="#0078d4"
       stroke-width="2"
       stroke-linejoin="round"
       stroke-miterlimit="10"
       fill="none"
       id="rect1231" />
    <text
       font-family="'Segoe UI', 'Segoe UI_MSFontService', sans-serif"
       font-weight="400"
       font-size="21px"
       transform="translate(625.399,1153)"
       id="text1233">Ensure</text>
    <text
       font-family="'Segoe UI', 'Segoe UI_MSFontService', sans-serif"
       font-weight="400"
       font-size="21px"
       transform="translate(607.972,1178)"
       id="text1235">regulatory</text>
    <text
       font-family="'Segoe UI', 'Segoe UI_MSFontService', sans-serif"
       font-weight="400"
       font-size="21px"
       transform="translate(602.846,1204)"
       id="text1237">compliance</text>
    <text
       font-family="'Segoe UI', 'Segoe UI_MSFontService', sans-serif"
       font-weight="400"
       font-size="21px"
       transform="translate(602.812,1230)"
       id="text1239">of offerings</text>
    <rect
       x="827"
       y="1106"
       width="252"
       height="154"
       fill="#ffffff"
       id="rect1241" />
    <path
       d="m 858.5,1106 v 154 m 189,-154 v 154"
       stroke="#0078d4"
       stroke-width="2"
       stroke-linejoin="round"
       stroke-miterlimit="10"
       fill="none"
       fill-rule="evenodd"
       id="path1243" />
    <rect
       x="827"
       y="1106"
       width="252"
       height="154"
       stroke="#0078d4"
       stroke-width="2"
       stroke-linejoin="round"
       stroke-miterlimit="10"
       fill="none"
       id="rect1245" />
    <text
       font-family="'Segoe UI', 'Segoe UI_MSFontService', sans-serif"
       font-weight="400"
       font-size="21px"
       transform="translate(899.194,1153)"
       id="text1247">Secure final</text>
    <text
       font-family="'Segoe UI', 'Segoe UI_MSFontService', sans-serif"
       font-weight="400"
       font-size="21px"
       transform="translate(916.494,1178)"
       id="text1249">offering</text>
    <text
       font-family="'Segoe UI', 'Segoe UI_MSFontService', sans-serif"
       font-weight="400"
       font-size="21px"
       transform="translate(922.221,1204)"
       id="text1251">design</text>
    <text
       font-family="'Segoe UI', 'Segoe UI_MSFontService', sans-serif"
       font-weight="400"
       font-size="21px"
       transform="translate(912.721,1230)"
       id="text1253">approval</text>
    <rect
       x="529"
       y="1322"
       width="252"
       height="153"
       fill="#ffffff"
       id="rect1255" />
    <path
       d="m 560.5,1322 v 153 m 189,-153 v 153"
       stroke="#0078d4"
       stroke-width="2"
       stroke-linejoin="round"
       stroke-miterlimit="10"
       fill="none"
       fill-rule="evenodd"
       id="path1257" />
    <rect
       x="529"
       y="1322"
       width="252"
       height="153"
       stroke="#0078d4"
       stroke-width="2"
       stroke-linejoin="round"
       stroke-miterlimit="10"
       fill="none"
       id="rect1259" />
    <text
       font-family="'Segoe UI', 'Segoe UI_MSFontService', sans-serif"
       font-weight="400"
       font-size="21px"
       transform="translate(618.756,1381)"
       id="text1261">Prepare</text>
    <text
       font-family="'Segoe UI', 'Segoe UI_MSFontService', sans-serif"
       font-weight="400"
       font-size="21px"
       transform="translate(597.029,1406)"
       id="text1263">offerings for</text>
    <text
       font-family="'Segoe UI', 'Segoe UI_MSFontService', sans-serif"
       font-weight="400"
       font-size="21px"
       transform="translate(623.749,1432)"
       id="text1265">launch</text>
    <rect
       x="844"
       y="1322"
       width="252"
       height="154"
       fill="#ffffff"
       id="rect1267" />
    <path
       d="m 875.5,1322 v 154 m 189,-154 v 154"
       stroke="#0078d4"
       stroke-width="2"
       stroke-linejoin="round"
       stroke-miterlimit="10"
       fill="none"
       fill-rule="evenodd"
       id="path1269" />
    <rect
       x="844"
       y="1322"
       width="252"
       height="154"
       stroke="#0078d4"
       stroke-width="2"
       stroke-linejoin="round"
       stroke-miterlimit="10"
       fill="none"
       id="rect1271" />
    <text
       font-family="'Segoe UI', 'Segoe UI_MSFontService', sans-serif"
       font-weight="400"
       font-size="21px"
       transform="translate(934.969,1382)"
       id="text1273">Release</text>
    <text
       font-family="'Segoe UI', 'Segoe UI_MSFontService', sans-serif"
       font-weight="400"
       font-size="21px"
       transform="translate(916.282,1407)"
       id="text1275">offerings to</text>
    <text
       font-family="'Segoe UI', 'Segoe UI_MSFontService', sans-serif"
       font-weight="400"
       font-size="21px"
       transform="translate(937.722,1433)"
       id="text1277">market</text>
    <rect
       x="1134"
       y="1325"
       width="252"
       height="153"
       fill="#ffffff"
       id="rect1279" />
    <path
       d="m 1165.5,1325 v 153 m 189,-153 v 153"
       stroke="#0078d4"
       stroke-width="2"
       stroke-linejoin="round"
       stroke-miterlimit="10"
       fill="none"
       fill-rule="evenodd"
       id="path1281" />
    <rect
       x="1134"
       y="1325"
       width="252"
       height="153"
       stroke="#0078d4"
       stroke-width="2"
       stroke-linejoin="round"
       stroke-miterlimit="10"
       fill="none"
       id="rect1283" />
    <text
       font-family="'Segoe UI', 'Segoe UI_MSFontService', sans-serif"
       font-weight="400"
       font-size="21px"
       transform="translate(1201.08,1371)"
       id="text1285">Evaluate and</text>
    <text
       font-family="'Segoe UI', 'Segoe UI_MSFontService', sans-serif"
       font-weight="400"
       font-size="21px"
       transform="translate(1222.97,1396)"
       id="text1287">monitor</text>
    <text
       font-family="'Segoe UI', 'Segoe UI_MSFontService', sans-serif"
       font-weight="400"
       font-size="21px"
       transform="translate(1223.58,1422)"
       id="text1289">offering</text>
    <text
       font-family="'Segoe UI', 'Segoe UI_MSFontService', sans-serif"
       font-weight="400"
       font-size="21px"
       transform="translate(1200.28,1448)"
       id="text1291">performance</text>
    <rect
       x="1530"
       y="1637"
       width="255"
       height="153"
       fill="#0078d4"
       id="rect1293" />
    <path
       d="m 1561.88,1637 v 153 m 191.24,-153 v 153"
       stroke="#0078d4"
       stroke-width="2"
       stroke-linejoin="round"
       stroke-miterlimit="10"
       fill="none"
       fill-rule="evenodd"
       id="path1295" />
    <rect
       x="1530"
       y="1637"
       width="255"
       height="153"
       stroke="#0078d4"
       stroke-width="2"
       stroke-linejoin="round"
       stroke-miterlimit="10"
       fill="none"
       id="rect1297" />
    <text
       fill="#ffffff"
       font-family="'Segoe UI', 'Segoe UI_MSFontService', sans-serif"
       font-weight="400"
       font-size="21px"
       transform="translate(1639.18,1696)"
       id="text1299">Run</text>
    <text
       fill="#ffffff"
       font-family="'Segoe UI', 'Segoe UI_MSFontService', sans-serif"
       font-weight="400"
       font-size="21px"
       transform="translate(1610.14,1721)"
       id="text1301">marketing</text>
    <text
       fill="#ffffff"
       font-family="'Segoe UI', 'Segoe UI_MSFontService', sans-serif"
       font-weight="400"
       font-size="21px"
       transform="translate(1607.24,1747)"
       id="text1303">campaigns</text>
    <path
       d="m 774.5,968 h 50.202 v 3 H 774.5 Z m 48.702,-3 9,4.5 -9,4.5 z"
       fill="#0078d4"
       id="path1305" />
    <path
       d="m 981.384,1045.5 v 30.46 c 0,0.83 -0.671,1.5 -1.5,1.5 H 657.5 l 1.5,-1.5 v 22.96 h -3 v -22.96 c 0,-0.83 0.672,-1.5 1.5,-1.5 h 322.384 l -1.5,1.5 V 1045.5 Z M 662,1097.42 l -4.5,9 -4.5,-9 z"
       fill="#0078d4"
       id="path1307" />
    <path
       d="m 1248.06,1260.5 v 30.97 c 0,0.83 -0.67,1.5 -1.5,1.5 H 655.5 l 1.5,-1.5 v 23.47 h -3 v -23.47 c 0,-0.83 0.672,-1.5 1.5,-1.5 h 591.06 l -1.5,1.5 v -30.97 z m -588.06,52.94 -4.5,9 -4.5,-9 z"
       fill="#0078d4"
       id="path1309" />
    <path
       d="m 1103.5,1183.5 142.5,-77 142.5,77 -142.5,77 z"
       stroke="#0078d4"
       stroke-linejoin="round"
       stroke-miterlimit="10"
       fill="#ffffff"
       fill-rule="evenodd"
       id="path1311" />
    <text
       font-family="'Segoe UI', 'Segoe UI_MSFontService', sans-serif"
       font-weight="400"
       font-size="21px"
       transform="translate(1238.39,1178)"
       id="text1313">Is</text>
    <text
       font-family="'Segoe UI', 'Segoe UI_MSFontService', sans-serif"
       font-weight="400"
       font-size="21px"
       transform="translate(1196.35,1203)"
       id="text1315">a</text>
    <text
       font-family="'Segoe UI', 'Segoe UI_MSFontService', sans-serif"
       font-weight="400"
       font-size="21px"
       transform="translate(1207.18,1203)"
       id="text1317">pproved</text>
    <text
       font-family="'Segoe UI', 'Segoe UI_MSFontService', sans-serif"
       font-weight="400"
       font-size="21px"
       transform="translate(1285.61,1203)"
       id="text1319">?</text>
    <path
       d="m 0,-1.5 h 137.553 c 0.828,0 1.5,0.671573 1.5,1.5 v 112.307 h -3 V 0 l 1.5,1.5 H 0 Z m 142.053,112.307 -4.5,9 -4.5,-9 z"
       fill="#0078d4"
       transform="matrix(0,-1,-1,0,1246.31,1107.05)"
       id="path1321" />
    <path
       d="m 781.519,1397 56.17,0.73 -0.038,3 -56.17,-0.73 z m 54.709,-2.29 8.941,4.61 -9.057,4.39 z"
       fill="#0078d4"
       id="path1323" />
    <path
       d="M 0.0173014,-1.4999 27.3132,-1.18504 27.2786,1.81476 -0.0173014,1.4999 Z M 25.8479,-4.20214 34.7954,0.401365 25.7441,4.79726 Z"
       fill="#0078d4"
       transform="matrix(1,0,0,-1,1100.5,1401.9)"
       id="path1325" />
    <rect
       x="1530"
       y="360"
       width="255"
       height="153"
       fill="#0078d4"
       id="rect1327" />
    <path
       d="M 1561.88,360 V 513 M 1753.12,360 V 513"
       stroke="#0078d4"
       stroke-width="2"
       stroke-linejoin="round"
       stroke-miterlimit="10"
       fill="none"
       fill-rule="evenodd"
       id="path1329" />
    <rect
       x="1530"
       y="360"
       width="255"
       height="153"
       stroke="#0078d4"
       stroke-width="2"
       stroke-linejoin="round"
       stroke-miterlimit="10"
       fill="none"
       id="rect1331" />
    <text
       fill="#ffffff"
       font-family="'Segoe UI', 'Segoe UI_MSFontService', sans-serif"
       font-weight="400"
       font-size="21px"
       transform="translate(1616.43,432)"
       id="text1333">Maintain</text>
    <text
       fill="#ffffff"
       font-family="'Segoe UI', 'Segoe UI_MSFontService', sans-serif"
       font-weight="400"
       font-size="21px"
       transform="translate(1597.15,457)"
       id="text1335">product data</text>
    <rect
       x="1530"
       y="542"
       width="255"
       height="154"
       fill="#0078d4"
       id="rect1337" />
    <path
       d="M 1561.88,542 V 696 M 1753.12,542 V 696"
       stroke="#0078d4"
       stroke-width="2"
       stroke-linejoin="round"
       stroke-miterlimit="10"
       fill="none"
       fill-rule="evenodd"
       id="path1339" />
    <rect
       x="1530"
       y="542"
       width="255"
       height="154"
       stroke="#0078d4"
       stroke-width="2"
       stroke-linejoin="round"
       stroke-miterlimit="10"
       fill="none"
       id="rect1341" />
    <text
       fill="#ffffff"
       font-family="'Segoe UI', 'Segoe UI_MSFontService', sans-serif"
       font-weight="400"
       font-size="21px"
       transform="translate(1604.59,589)"
       id="text1343">Design and</text>
    <text
       fill="#ffffff"
       font-family="'Segoe UI', 'Segoe UI_MSFontService', sans-serif"
       font-weight="400"
       font-size="21px"
       transform="translate(1613.07,614)"
       id="text1345">configure</text>
    <text
       fill="#ffffff"
       font-family="'Segoe UI', 'Segoe UI_MSFontService', sans-serif"
       font-weight="400"
       font-size="21px"
       transform="translate(1592.32,640)"
       id="text1347">manufactured</text>
    <text
       fill="#ffffff"
       font-family="'Segoe UI', 'Segoe UI_MSFontService', sans-serif"
       font-weight="400"
       font-size="21px"
       transform="translate(1616.23,666)"
       id="text1349">products</text>
    <rect
       x="1530"
       y="725"
       width="255"
       height="153"
       fill="#0078d4"
       id="rect1351" />
    <path
       d="M 1561.88,725 V 878 M 1753.12,725 V 878"
       stroke="#0078d4"
       stroke-width="2"
       stroke-linejoin="round"
       stroke-miterlimit="10"
       fill="none"
       fill-rule="evenodd"
       id="path1353" />
    <rect
       x="1530"
       y="725"
       width="255"
       height="153"
       stroke="#0078d4"
       stroke-width="2"
       stroke-linejoin="round"
       stroke-miterlimit="10"
       fill="none"
       id="rect1355" />
    <text
       fill="#ffffff"
       font-family="'Segoe UI', 'Segoe UI_MSFontService', sans-serif"
       font-weight="400"
       font-size="21px"
       transform="translate(1627.02,784)"
       id="text1357">Define</text>
    <text
       fill="#ffffff"
       font-family="'Segoe UI', 'Segoe UI_MSFontService', sans-serif"
       font-weight="400"
       font-size="21px"
       transform="translate(1620.74,809)"
       id="text1359">product</text>
    <text
       fill="#ffffff"
       font-family="'Segoe UI', 'Segoe UI_MSFontService', sans-serif"
       font-weight="400"
       font-size="21px"
       transform="translate(1623.52,835)"
       id="text1361">costing</text>
    <rect
       x="1530"
       y="907"
       width="255"
       height="153"
       fill="#0078d4"
       id="rect1363" />
    <path
       d="m 1561.88,907 v 153 m 191.24,-153 v 153"
       stroke="#0078d4"
       stroke-width="2"
       stroke-linejoin="round"
       stroke-miterlimit="10"
       fill="none"
       fill-rule="evenodd"
       id="path1365" />
    <rect
       x="1530"
       y="907"
       width="255"
       height="153"
       stroke="#0078d4"
       stroke-width="2"
       stroke-linejoin="round"
       stroke-miterlimit="10"
       fill="none"
       id="rect1367" />
    <text
       fill="#ffffff"
       font-family="'Segoe UI', 'Segoe UI_MSFontService', sans-serif"
       font-weight="400"
       font-size="21px"
       transform="translate(1627.02,966)"
       id="text1369">Define</text>
    <text
       fill="#ffffff"
       font-family="'Segoe UI', 'Segoe UI_MSFontService', sans-serif"
       font-weight="400"
       font-size="21px"
       transform="translate(1620.74,991)"
       id="text1371">product</text>
    <text
       fill="#ffffff"
       font-family="'Segoe UI', 'Segoe UI_MSFontService', sans-serif"
       font-weight="400"
       font-size="21px"
       transform="translate(1625.26,1017)"
       id="text1373">pricing</text>
    <path
       d="m 0,-1.5 h 68.7395 c 0.8285,0 1.5,0.671573 1.5,1.5 v 309.492 l -1.5,-1.5 h 61.2395 v 3 H 68.7395 c -0.8284,0 -1.5,-0.671 -1.5,-1.5 V 0 l 1.5,1.5 H 0 Z m 128.479,306.492 9,4.5 -9,4.5 z"
       fill="#0078d4"
       transform="matrix(1,0,0,-1,1392.5,746.992)"
       id="path1375" />
    <rect
       x="1530"
       y="1089"
       width="255"
       height="154"
       stroke="#000000"
       stroke-width="2"
       stroke-linejoin="round"
       stroke-miterlimit="10"
       fill="#a0a0a0"
       id="rect1377" />
    <text
       font-family="'Segoe UI', 'Segoe UI_MSFontService', sans-serif"
       font-weight="400"
       font-size="21px"
       transform="translate(1589.35,1174)"
       id="text1379">Procure to pay</text>
    <path
       d="m 1660,1243.5 v 21.6 h -3 v -21.6 z m 3,20.1 -4.5,9 -4.5,-9 z"
       fill="#0078d4"
       id="path1381" />
    <rect
       x="1530"
       y="1272"
       width="255"
       height="153"
       fill="#0078d4"
       id="rect1383" />
    <path
       d="m 1561.88,1272 v 153 m 191.24,-153 v 153"
       stroke="#0078d4"
       stroke-width="2"
       stroke-linejoin="round"
       stroke-miterlimit="10"
       fill="none"
       fill-rule="evenodd"
       id="path1385" />
    <rect
       x="1530"
       y="1272"
       width="255"
       height="153"
       stroke="#0078d4"
       stroke-width="2"
       stroke-linejoin="round"
       stroke-miterlimit="10"
       fill="none"
       id="rect1387" />
    <text
       fill="#ffffff"
       font-family="'Segoe UI', 'Segoe UI_MSFontService', sans-serif"
       font-weight="400"
       font-size="21px"
       transform="translate(1619.35,1331)"
       id="text1389">Manage</text>
    <text
       fill="#ffffff"
       font-family="'Segoe UI', 'Segoe UI_MSFontService', sans-serif"
       font-weight="400"
       font-size="21px"
       transform="translate(1624.74,1356)"
       id="text1391">vendor</text>
    <text
       fill="#ffffff"
       font-family="'Segoe UI', 'Segoe UI_MSFontService', sans-serif"
       font-weight="400"
       font-size="21px"
       transform="translate(1598.15,1382)"
       id="text1393">relationships</text>
    <path
       d="m 0,-1.5 h 415.032 c 0.828,0 1.5,0.671573 1.5,1.5 v 349.805 l -1.5,-1.5 h 23.533 v 3 h -23.533 c -0.828,0 -1.5,-0.672 -1.5,-1.5 V 0 l 1.5,1.5 H 0 Z m 437.065,346.805 9,4.5 -9,4.5 z"
       fill="#0078d4"
       transform="matrix(1,0,0,-1,1084.5,948.305)"
       id="path1395" />
    <path
       d="m 0,-1.5 h 411.524 c 0.828,0 1.5,0.671573 1.5,1.5 v 167.418 l -1.5,-1.5 h 23.661 v 3 h -23.661 c -0.829,0 -1.5,-0.672 -1.5,-1.5 V 0 l 1.5,1.5 H 0 Z m 433.685,164.418 9,4.5 -9,4.5 z"
       fill="#0078d4"
       transform="matrix(1,0,0,-1,1087.5,948.918)"
       id="path1397" />
    <path
       d="m 1087.5,947 h 411.85 c 0.83,0 1.5,0.672 1.5,1.5 v 388.03 l -1.5,-1.5 h 23.33 v 3 h -23.33 c -0.83,0 -1.5,-0.67 -1.5,-1.5 V 948.5 l 1.5,1.5 H 1087.5 Z m 433.68,385.03 9,4.5 -9,4.5 z"
       fill="#0078d4"
       id="path1399" />
    <path
       d="m 1084.5,947 h 415.23 c 0.83,0 1.5,0.672 1.5,1.5 v 14.969 l -1.5,-1.5 h 23.33 v 3 h -23.33 c -0.83,0 -1.5,-0.672 -1.5,-1.5 V 948.5 l 1.5,1.5 H 1084.5 Z m 437.06,11.969 9,4.5 -9,4.5 z"
       fill="#0078d4"
       id="path1401" />
    <path
       d="m 0,-1.5 h 237.62 c 0.829,0 1.5,0.671573 1.5,1.5 v 552.093 h -3 V 0 l 1.5,1.5 H 0 Z m 242.12,552.093 -4.5,9 -4.5,-9 z"
       fill="#0078d4"
       transform="matrix(0,1,1,0,970.5,1476.5)"
       id="path1403" />
    <path
       d="m 0,-1.5 h 376.969 c 0.828,0 1.5,0.671573 1.5,1.5 v 261.964 h -3 V 0 l 1.5,1.5 H 0 Z m 381.469,261.964 -4.5,9 -4.5,-9 z"
       fill="#0078d4"
       transform="matrix(0,1,1,0,1260.5,1478.5)"
       id="path1405" />
    <path
       d="M 0,1.5 H -24 L -22.5,0 v 1418.49 l -1.5,-1.5 h 16.50011 v 3 H -24 c -0.8284,0 -1.5,-0.67 -1.5,-1.5 V 0 c 0,-0.828427 0.6716,-1.5 1.5,-1.5 H 0 Z m -8.9999,1412.49 9.000004987,4.5 -9.000004987,4.5 z"
       fill="#0078d4"
       transform="matrix(-1,0,0,1,1785.5,437.5)"
       id="path1407" />
    <path
       d="M 0,1.5 H -24 L -22.5,0 v 1236.1 l -1.5,-1.5 h 16.50011 v 3 H -24 c -0.8284,0 -1.5,-0.67 -1.5,-1.5 V 0 c 0,-0.828427 0.6716,-1.5 1.5,-1.5 H 0 Z m -8.9999,1230.1 9.000004987,4.5 -9.000004987,4.5 z"
       fill="#0078d4"
       transform="matrix(-1,0,0,1,1785.5,619.5)"
       id="path1409" />
    <path
       d="M 0,1.5 H -24 L -22.5,0 v 1053.72 l -1.5,-1.5 h 16.50011 v 3 H -24 c -0.8284,0 -1.5,-0.67 -1.5,-1.5 V 0 c 0,-0.828427 0.6716,-1.5 1.5,-1.5 H 0 Z m -8.9999,1047.72 9.000004987,4.5 -9.000004987,4.5 z"
       fill="#0078d4"
       transform="matrix(-1,0,0,1,1785.5,801.5)"
       id="path1411" />
    <path
       d="M 0,1.5 H -24 L -22.5,0 v 871.332 l -1.5,-1.5 h 16.50011 v 3 H -24 c -0.8284,0 -1.5,-0.672 -1.5,-1.5 V 0 c 0,-0.828427 0.6716,-1.5 1.5,-1.5 H 0 Z m -8.9999,865.332 9.000004987,4.5 -9.000004987,4.5 z"
       fill="#0078d4"
       transform="matrix(-1,0,0,1,1785.5,984.5)"
       id="path1413" />
    <path
       d="M 0,1.5 H -24 L -22.5,0 v 506.558 l -1.5,-1.5 h 16.50011 v 3 H -24 c -0.8284,0 -1.5,-0.671 -1.5,-1.5 V 0 c 0,-0.828427 0.6716,-1.5 1.5,-1.5 H 0 Z m -8.9999,500.558 9.000004987,4.5 -9.000004987,4.5 z"
       fill="#0078d4"
       transform="matrix(-1,0,0,1,1785.5,1349.5)"
       id="path1415" />
    <path
       d="M 0,1.5 H -24 L -22.5,0 v 141.785 l -1.5,-1.5 h 16.50011 v 3 H -24 c -0.8284,0 -1.5,-0.671 -1.5,-1.5 V 0 c 0,-0.828427 0.6716,-1.5 1.5,-1.5 H 0 Z m -8.9999,135.785 9.000004987,4.5 -9.000004987,4.5 z"
       fill="#0078d4"
       transform="matrix(-1,0,0,1,1785.5,1713.5)"
       id="path1417" />
    <path
       d="m 1660,331.5 v 21.596 h -3 V 331.5 Z m 3,20.096 -4.5,9 -4.5,-9 z"
       fill="#0078d4"
       id="path1419" />
    <path
       d="m 783.5,1182 h 37.378 v 3 H 783.5 Z m 35.878,-3 9,4.5 -9,4.5 z"
       fill="#0078d4"
       id="path1421" />
    <path
       d="m 0.001102,-1.5 16.079198,0.01181 -0.0022,3 L -0.001102,1.5 Z M 14.5825,-4.48929 23.5792,0.0173228 14.5759,4.51071 Z"
       fill="#0078d4"
       transform="matrix(1,0,0,-1,1079.5,1183.52)"
       id="path1423" />
    <text
       font-family="'Segoe UI', 'Segoe UI_MSFontService', sans-serif"
       font-weight="400"
       font-size="21px"
       transform="translate(1253.59,1026)"
       id="text1425">No</text>
    <text
       font-family="'Segoe UI', 'Segoe UI_MSFontService', sans-serif"
       font-weight="400"
       font-size="21px"
       transform="translate(1133.97,1283)"
       id="text1427">Yes</text>
    <rect
       x="832"
       y="892"
       width="294"
       height="153"
       fill="#ffffff"
       id="rect1429" />
    <path
       d="m 868.75,892 v 153 m 220.5,-153 v 153"
       stroke="#0078d4"
       stroke-width="2"
       stroke-linejoin="round"
       stroke-miterlimit="10"
       fill="none"
       fill-rule="evenodd"
       id="path1431" />
    <rect
       x="832"
       y="892"
       width="294"
       height="153"
       stroke="#0078d4"
       stroke-width="2"
       stroke-linejoin="round"
       stroke-miterlimit="10"
       fill="none"
       id="rect1433" />
    <text
       font-family="'Segoe UI', 'Segoe UI_MSFontService', sans-serif"
       font-weight="400"
       font-size="21px"
       transform="translate(914.586,964)"
       id="text1435">Plan offerings</text>
    <text
       font-family="'Segoe UI', 'Segoe UI_MSFontService', sans-serif"
       font-weight="400"
       font-size="21px"
       transform="translate(904.56,989)"
       id="text1437">implementation</text>
  </g>
</svg>
