<?xml version="1.0" encoding="UTF-8" standalone="no"?>
<svg
   width="1791.0029"
   height="1418.9679"
   overflow="hidden"
   version="1.1"
   id="svg992"
   sodipodi:docname="design-to-retire-flow.svg"
   inkscape:version="1.2.2 (732a01da63, 2022-12-09)"
   xmlns:inkscape="http://www.inkscape.org/namespaces/inkscape"
   xmlns:sodipodi="http://sodipodi.sourceforge.net/DTD/sodipodi-0.dtd"
   xmlns="http://www.w3.org/2000/svg"
   xmlns:svg="http://www.w3.org/2000/svg">
  <defs
     id="defs996" />
  <sodipodi:namedview
     id="namedview994"
     pagecolor="#ffffff"
     bordercolor="#000000"
     borderopacity="0.25"
     inkscape:showpageshadow="2"
     inkscape:pageopacity="0.0"
     inkscape:pagecheckerboard="0"
     inkscape:deskcolor="#d1d1d1"
     showgrid="false"
     inkscape:zoom="0.53489583"
     inkscape:cx="878.67575"
     inkscape:cy="1508.705"
     inkscape:window-width="3840"
     inkscape:window-height="2054"
     inkscape:window-x="2725"
     inkscape:window-y="-11"
     inkscape:window-maximized="1"
     inkscape:current-layer="svg992" />
  <g
     id="g990"
     transform="translate(-80.389481,-41.129505)">
    <rect
       x="80.389481"
       y="41.129505"
       width="1791.0029"
       height="1418.9679"
       fill="#ffffff"
       id="rect796"
       style="stroke-width:0.830297" />
    <path
       d="M 124,128.5 C 124,108.342 140.342,92 160.5,92 h 138 c 20.158,0 36.5,16.342 36.5,36.5 v 0 c 0,20.158 -16.342,36.5 -36.5,36.5 h -138 C 140.342,165 124,148.658 124,128.5 Z"
       stroke="#0078d4"
       stroke-width="2"
       stroke-linejoin="round"
       stroke-miterlimit="10"
       fill="#ffffff"
       fill-rule="evenodd"
       id="path798" />
    <text
       font-family="'Segoe UI', 'Segoe UI_MSFontService', sans-serif"
       font-weight="400"
       font-size="24px"
       transform="translate(205.024,137)"
       id="text800">Start</text>
    <rect
       x="1357"
       y="322"
       width="211"
       height="153"
       stroke="#a6a6a6"
       stroke-width="2"
       stroke-linejoin="round"
       stroke-miterlimit="10"
       fill="#a0a0a0"
       id="rect802" />
    <text
       font-family="'Segoe UI', 'Segoe UI_MSFontService', sans-serif"
       font-weight="400"
       font-size="24px"
       transform="translate(1385.9,407)"
       id="text804">Procure to pay</text>
    <rect
       x="530"
       y="776"
       width="279"
       height="154"
       fill="#ffffff"
       id="rect806" />
    <path
       d="M 564.875,776 V 930 M 774.125,776 V 930"
       stroke="#0078d4"
       stroke-width="2"
       stroke-linejoin="round"
       stroke-miterlimit="10"
       fill="none"
       fill-rule="evenodd"
       id="path808" />
    <rect
       x="530"
       y="776"
       width="279"
       height="154"
       stroke="#0078d4"
       stroke-width="2"
       stroke-linejoin="round"
       stroke-miterlimit="10"
       fill="none"
       id="rect810" />
    <text
       font-family="'Segoe UI', 'Segoe UI_MSFontService', sans-serif"
       font-weight="400"
       font-size="24px"
       transform="translate(626.345,833)"
       id="text812">Manage</text>
    <text
       font-family="'Segoe UI', 'Segoe UI_MSFontService', sans-serif"
       font-weight="400"
       font-size="24px"
       transform="translate(627.751,862)"
       id="text814">product</text>
    <text
       font-family="'Segoe UI', 'Segoe UI_MSFontService', sans-serif"
       font-weight="400"
       font-size="24px"
       transform="translate(632.845,891)"
       id="text816">pricing</text>
    <rect
       x="854"
       y="777"
       width="279"
       height="154"
       fill="#ffffff"
       id="rect818" />
    <path
       d="M 888.875,777 V 931 M 1098.12,777 v 154"
       stroke="#0078d4"
       stroke-width="2"
       stroke-linejoin="round"
       stroke-miterlimit="10"
       fill="none"
       fill-rule="evenodd"
       id="path820" />
    <rect
       x="854"
       y="777"
       width="279"
       height="154"
       stroke="#0078d4"
       stroke-width="2"
       stroke-linejoin="round"
       stroke-miterlimit="10"
       fill="none"
       id="rect822" />
    <text
       font-family="'Segoe UI', 'Segoe UI_MSFontService', sans-serif"
       font-weight="400"
       font-size="24px"
       transform="translate(958.873,834)"
       id="text824">Define</text>
    <text
       font-family="'Segoe UI', 'Segoe UI_MSFontService', sans-serif"
       font-weight="400"
       font-size="24px"
       transform="translate(951.613,863)"
       id="text826">product</text>
    <text
       font-family="'Segoe UI', 'Segoe UI_MSFontService', sans-serif"
       font-weight="400"
       font-size="24px"
       transform="translate(954.706,892)"
       id="text828">costing</text>
    <rect
       x="177"
       y="786"
       width="212"
       height="154"
       stroke="#a6a6a6"
       stroke-width="2"
       stroke-linejoin="round"
       stroke-miterlimit="10"
       fill="#a6a6a6"
       id="rect830" />
    <text
       font-family="'Segoe UI', 'Segoe UI_MSFontService', sans-serif"
       font-weight="400"
       font-size="24px"
       transform="translate(211.48,872)"
       id="text832">Order to cash</text>
    <rect
       x="711"
       y="269"
       width="279"
       height="153"
       fill="#ffffff"
       id="rect834" />
    <path
       d="M 745.875,269 V 422 M 955.125,269 V 422"
       stroke="#0078d4"
       stroke-width="2"
       stroke-linejoin="round"
       stroke-miterlimit="10"
       fill="none"
       fill-rule="evenodd"
       id="path836" />
    <rect
       x="711"
       y="269"
       width="279"
       height="153"
       stroke="#0078d4"
       stroke-width="2"
       stroke-linejoin="round"
       stroke-miterlimit="10"
       fill="none"
       id="rect838" />
    <text
       font-family="'Segoe UI', 'Segoe UI_MSFontService', sans-serif"
       font-weight="400"
       font-size="24px"
       transform="translate(815.927,311)"
       id="text840">Define</text>
    <text
       font-family="'Segoe UI', 'Segoe UI_MSFontService', sans-serif"
       font-weight="400"
       font-size="24px"
       transform="translate(808.667,340)"
       id="text842">product</text>
    <text
       font-family="'Segoe UI', 'Segoe UI_MSFontService', sans-serif"
       font-weight="400"
       font-size="24px"
       transform="translate(788.26,369)"
       id="text844">catalog and</text>
    <text
       font-family="'Segoe UI', 'Segoe UI_MSFontService', sans-serif"
       font-weight="400"
       font-size="24px"
       transform="translate(807.687,398)"
       id="text846">strategy</text>
    <path
       d="m 1621,1360.5 c 0,-20.16 16.34,-36.5 36.5,-36.5 h 138 c 20.16,0 36.5,16.34 36.5,36.5 v 0 c 0,20.16 -16.34,36.5 -36.5,36.5 h -138 c -20.16,0 -36.5,-16.34 -36.5,-36.5 z"
       stroke="#0078d4"
       stroke-width="2"
       stroke-linejoin="round"
       stroke-miterlimit="10"
       fill="#ffffff"
       fill-rule="evenodd"
       id="path848" />
    <text
       font-family="'Segoe UI', 'Segoe UI_MSFontService', sans-serif"
       font-weight="400"
       font-size="24px"
       transform="translate(1706.54,1369)"
       id="text850">End</text>
    <rect
       x="711"
       y="52"
       width="279"
       height="153"
       stroke="#0078d4"
       stroke-width="2"
       stroke-linejoin="round"
       stroke-miterlimit="10"
       fill="#0078d4"
       id="rect852" />
    <text
       fill="#ffffff"
       font-family="'Segoe UI', 'Segoe UI_MSFontService', sans-serif"
       font-weight="400"
       font-size="24px"
       transform="translate(768.75,137)"
       id="text854">Design to retire</text>
    <rect
       x="1357"
       y="515"
       width="211"
       height="153"
       stroke="#a6a6a6"
       stroke-width="2"
       stroke-linejoin="round"
       stroke-miterlimit="10"
       fill="#a0a0a0"
       id="rect856" />
    <text
       font-family="'Segoe UI', 'Segoe UI_MSFontService', sans-serif"
       font-weight="400"
       font-size="24px"
       transform="translate(1402.5,586)"
       id="text858">Prospect to</text>
    <text
       font-family="'Segoe UI', 'Segoe UI_MSFontService', sans-serif"
       font-weight="400"
       font-size="24px"
       transform="translate(1431.52,615)"
       id="text860">quote</text>
    <rect
       x="1621"
       y="1094"
       width="211"
       height="154"
       stroke="#a6a6a6"
       stroke-width="2"
       stroke-linejoin="round"
       stroke-miterlimit="10"
       fill="#a0a0a0"
       id="rect862" />
    <text
       font-family="'Segoe UI', 'Segoe UI_MSFontService', sans-serif"
       font-weight="400"
       font-size="24px"
       transform="translate(1675.46,1165)"
       id="text864">Record to</text>
    <text
       font-family="'Segoe UI', 'Segoe UI_MSFontService', sans-serif"
       font-weight="400"
       font-size="24px"
       transform="translate(1693.52,1194)"
       id="text866">report</text>
    <rect
       x="182"
       y="322"
       width="212"
       height="153"
       stroke="#a6a6a6"
       stroke-width="2"
       stroke-linejoin="round"
       stroke-miterlimit="10"
       fill="#a0a0a0"
       id="rect868" />
    <text
       font-family="'Segoe UI', 'Segoe UI_MSFontService', sans-serif"
       font-weight="400"
       font-size="24px"
       transform="translate(229.695,393)"
       id="text870">Forecast to</text>
    <text
       font-family="'Segoe UI', 'Segoe UI_MSFontService', sans-serif"
       font-weight="400"
       font-size="24px"
       transform="translate(265.028,422)"
       id="text872">plan</text>
    <rect
       x="1357"
       y="708"
       width="211"
       height="154"
       stroke="#a6a6a6"
       stroke-width="2"
       stroke-linejoin="round"
       stroke-miterlimit="10"
       fill="#a0a0a0"
       id="rect874" />
    <text
       font-family="'Segoe UI', 'Segoe UI_MSFontService', sans-serif"
       font-weight="400"
       font-size="24px"
       transform="translate(1391,794)"
       id="text876">Order to cash</text>
    <rect
       x="711"
       y="489"
       width="279"
       height="153"
       fill="#ffffff"
       id="rect878" />
    <path
       d="M 745.875,489 V 642 M 955.125,489 V 642"
       stroke="#0078d4"
       stroke-width="2"
       stroke-linejoin="round"
       stroke-miterlimit="10"
       fill="none"
       fill-rule="evenodd"
       id="path880" />
    <rect
       x="711"
       y="489"
       width="279"
       height="153"
       stroke="#0078d4"
       stroke-width="2"
       stroke-linejoin="round"
       stroke-miterlimit="10"
       fill="none"
       id="rect882" />
    <text
       font-family="'Segoe UI', 'Segoe UI_MSFontService', sans-serif"
       font-weight="400"
       font-size="24px"
       transform="translate(774.667,559)"
       id="text884">Introduce new</text>
    <text
       font-family="'Segoe UI', 'Segoe UI_MSFontService', sans-serif"
       font-weight="400"
       font-size="24px"
       transform="translate(803.587,588)"
       id="text886">products</text>
    <rect
       x="176"
       y="1012"
       width="211"
       height="153"
       stroke="#a6a6a6"
       stroke-width="2"
       stroke-linejoin="round"
       stroke-miterlimit="10"
       fill="#a0a0a0"
       id="rect888" />
    <text
       font-family="'Segoe UI', 'Segoe UI_MSFontService', sans-serif"
       font-weight="400"
       font-size="24px"
       transform="translate(230.433,1083)"
       id="text890">Project to</text>
    <text
       font-family="'Segoe UI', 'Segoe UI_MSFontService', sans-serif"
       font-weight="400"
       font-size="24px"
       transform="translate(252.64,1112)"
       id="text892">profit</text>
    <path
       d="m 335.5,127 h 367.811 v 3 H 335.5 Z m 366.311,-3 9,4.5 -9,4.5 z"
       fill="#0078d4"
       id="path894" />
    <rect
       x="182"
       y="557"
       width="212"
       height="153"
       stroke="#a6a6a6"
       stroke-width="2"
       stroke-linejoin="round"
       stroke-miterlimit="10"
       fill="#a0a0a0"
       id="rect896" />
    <text
       font-family="'Segoe UI', 'Segoe UI_MSFontService', sans-serif"
       font-weight="400"
       font-size="24px"
       transform="translate(227.778,627)"
       id="text898">Prospect to</text>
    <text
       font-family="'Segoe UI', 'Segoe UI_MSFontService', sans-serif"
       font-weight="400"
       font-size="24px"
       transform="translate(256.792,656)"
       id="text900">quote</text>
    <rect
       x="711"
       y="1116"
       width="278"
       height="153"
       fill="#ffffff"
       id="rect902" />
    <path
       d="m 745.75,1116 v 153 m 208.5,-153 v 153"
       stroke="#0078d4"
       stroke-width="2"
       stroke-linejoin="round"
       stroke-miterlimit="10"
       fill="none"
       fill-rule="evenodd"
       id="path904" />
    <rect
       x="711"
       y="1116"
       width="278"
       height="153"
       stroke="#0078d4"
       stroke-width="2"
       stroke-linejoin="round"
       stroke-miterlimit="10"
       fill="none"
       id="rect906" />
    <text
       font-family="'Segoe UI', 'Segoe UI_MSFontService', sans-serif"
       font-weight="400"
       font-size="24px"
       transform="translate(806.897,1172)"
       id="text908">Manage</text>
    <text
       font-family="'Segoe UI', 'Segoe UI_MSFontService', sans-serif"
       font-weight="400"
       font-size="24px"
       transform="translate(808.304,1201)"
       id="text910">product</text>
    <text
       font-family="'Segoe UI', 'Segoe UI_MSFontService', sans-serif"
       font-weight="400"
       font-size="24px"
       transform="translate(807.957,1230)"
       id="text912">lifecycle</text>
    <rect
       x="1357"
       y="898"
       width="212"
       height="153"
       stroke="#a6a6a6"
       stroke-width="2"
       stroke-linejoin="round"
       stroke-miterlimit="10"
       fill="#a0a0a0"
       id="rect914" />
    <text
       font-family="'Segoe UI', 'Segoe UI_MSFontService', sans-serif"
       font-weight="400"
       font-size="24px"
       transform="translate(1426.42,969)"
       id="text916">Plan to</text>
    <text
       font-family="'Segoe UI', 'Segoe UI_MSFontService', sans-serif"
       font-weight="400"
       font-size="24px"
       transform="translate(1419.4,998)"
       id="text918">produce</text>
    <rect
       x="1356"
       y="1095"
       width="212"
       height="153"
       stroke="#a6a6a6"
       stroke-width="2"
       stroke-linejoin="round"
       stroke-miterlimit="10"
       fill="#a0a0a0"
       id="rect920" />
    <text
       font-family="'Segoe UI', 'Segoe UI_MSFontService', sans-serif"
       font-weight="400"
       font-size="24px"
       transform="translate(1411.25,1166)"
       id="text922">Project to</text>
    <text
       font-family="'Segoe UI', 'Segoe UI_MSFontService', sans-serif"
       font-weight="400"
       font-size="24px"
       transform="translate(1433.46,1195)"
       id="text924">profit</text>
    <rect
       x="1356"
       y="1288"
       width="212"
       height="154"
       stroke="#a6a6a6"
       stroke-width="2"
       stroke-linejoin="round"
       stroke-miterlimit="10"
       fill="#a0a0a0"
       id="rect926" />
    <text
       font-family="'Segoe UI', 'Segoe UI_MSFontService', sans-serif"
       font-weight="400"
       font-size="24px"
       transform="translate(1423.01,1359)"
       id="text928">Case to</text>
    <text
       font-family="'Segoe UI', 'Segoe UI_MSFontService', sans-serif"
       font-weight="400"
       font-size="24px"
       transform="translate(1409.33,1388)"
       id="text930">resolution</text>
    <rect
       x="1621"
       y="515"
       width="211"
       height="153"
       stroke="#a6a6a6"
       stroke-width="2"
       stroke-linejoin="round"
       stroke-miterlimit="10"
       fill="#a0a0a0"
       id="rect932" />
    <text
       font-family="'Segoe UI', 'Segoe UI_MSFontService', sans-serif"
       font-weight="400"
       font-size="24px"
       transform="translate(1662.22,586)"
       id="text934">Inventory to</text>
    <text
       font-family="'Segoe UI', 'Segoe UI_MSFontService', sans-serif"
       font-weight="400"
       font-size="24px"
       transform="translate(1691.26,615)"
       id="text936">deliver</text>
    <path
       d="m 394.5,397 h 60.106 c 0.829,0 1.5,0.672 1.5,1.5 v 166.878 l -1.5,-1.5 h 249.66 v 3 h -249.66 c -0.828,0 -1.5,-0.672 -1.5,-1.5 V 398.5 l 1.5,1.5 H 394.5 Z m 308.266,163.878 9,4.5 -9,4.5 z"
       fill="#0078d4"
       id="path938" />
    <path
       d="m 0,-1.5 h 61.3687 c 0.8284,0 1.5,0.671573 1.5,1.5 v 67.9742 l -1.5,-1.5 H 309.766 v 3 H 61.3687 c -0.8284,0 -1.5,-0.6716 -1.5,-1.5 V 0 l 1.5,1.5 H 0 Z m 308.266,64.9742 9,4.5 -9,4.5 z"
       fill="#0078d4"
       transform="matrix(1,0,0,-1,394.5,633.474)"
       id="path940" />
    <path
       d="m 0,-1.5 h 65.0728 c 0.8285,0 1.5,0.671573 1.5,1.5 v 297.647 l -1.5,-1.5 H 314.642 v 3 H 65.0728 c -0.8284,0 -1.5,-0.671 -1.5,-1.5 V 0 l 1.5,1.5 H 0 Z m 313.142,294.647 9,4.5 -9,4.5 z"
       fill="#0078d4"
       transform="matrix(1,0,0,-1,389.5,863.147)"
       id="path942" />
    <path
       d="m 0,-1.5 h 67.195 c 0.8284,0 1.5,0.671573 1.5,1.5 v 523.213 l -1.5,-1.5 h 249.166 v 3 H 67.195 c -0.8285,0 -1.5,-0.671 -1.5,-1.5 V 0 l 1.5,1.5 H 0 Z m 314.862,520.213 9,4.5 -9,4.5 z"
       fill="#0078d4"
       transform="matrix(1,0,0,-1,387.5,1088.71)"
       id="path944" />
    <path
       d="m 124.5,130 h -24 l 1.5,-1.5 v 269.937 l -1.5,-1.5 h 74.544 v 3 H 100.5 c -0.8287,0 -1.5002,-0.672 -1.5002,-1.5 V 128.5 c 0,-0.828 0.6715,-1.5 1.5002,-1.5 h 24 z m 49.044,263.937 9,4.5 -9,4.5 z"
       fill="#0078d4"
       id="path946" />
    <path
       d="m 124.5,130 h -24 l 1.5,-1.5 v 504.788 l -1.5,-1.5 h 74.544 v 3 H 100.5 c -0.8286,0 -1.5002,-0.671 -1.5002,-1.5 V 128.5 c 0,-0.828 0.6716,-1.5 1.5002,-1.5 h 24 z m 49.044,498.788 9,4.5 -9,4.5 z"
       fill="#0078d4"
       id="path948" />
    <path
       d="m 124.5,130 h -24 l 1.5,-1.5 v 734.461 l -1.5,-1.5 h 69.823 v 3 H 100.5 c -0.8285,0 -1.5001,-0.671 -1.5001,-1.5 V 128.5 c 0,-0.828 0.6716,-1.5 1.5001,-1.5 h 24 z m 44.323,728.461 9,4.5 -9,4.5 z"
       fill="#0078d4"
       id="path950" />
    <path
       d="m 124.5,130 h -24 l 1.5,-1.5 v 960.03 l -1.5,-1.5 h 67.949 v 3 H 100.5 c -0.8285,0 -1.5001,-0.67 -1.5001,-1.5 V 128.5 c 0,-0.828 0.6716,-1.5 1.5001,-1.5 h 24 z m 42.449,954.03 9,4.5 -9,4.5 z"
       fill="#0078d4"
       id="path952" />
    <path
       d="M 1.5,-2.48447e-6 1.50009,55.8859 h -3 L -1.5,2.48447e-6 Z M 4.50009,54.3859 l -4.499985013,9 -4.500014987,-9 z"
       fill="#0078d4"
       transform="matrix(-1,0,0,1,850.5,205.5)"
       id="path954" />
    <path
       d="m 852,422.5 v 59.347 h -3 V 422.5 Z m 3,57.847 -4.5,9 -4.5,-9 z"
       fill="#0078d4"
       id="path956" />
    <path
       d="m 851.916,642.5 v 67.265 c 0,0.828 -0.672,1.5 -1.5,1.5 H 669.5 l 1.5,-1.5 v 59.764 h -3 v -59.764 c 0,-0.829 0.672,-1.5 1.5,-1.5 h 180.916 l -1.5,1.5 V 642.5 Z M 674,768.029 l -4.5,9 -4.5,-9 z"
       fill="#0078d4"
       id="path958" />
    <path
       d="m 0,-1.5 h 92.9879 c 0.8284,0 1.5,0.671573 1.5,1.5 v 180.553 l -1.5,-1.5 h 85.4881 v 3 H 92.9879 c -0.8285,0 -1.5,-0.672 -1.5,-1.5 V 0 l 1.5,1.5 H 0 Z m 176.976,177.553 9,4.5 -9,4.5 z"
       fill="#0078d4"
       transform="matrix(0,1,1,0,669.5,930.5)"
       id="path960" />
    <path
       d="m 0,-1.5 h 67.6503 c 0.8284,0 1.5,0.671573 1.5,1.5 v 142.946 l -1.5,-1.5 H 127.8 v 3 H 67.6503 c -0.8284,0 -1.5,-0.672 -1.5,-1.5 V 0 l 1.5,1.5 H 0 Z m 126.3,139.946 9,4.5 -9,4.5 z"
       fill="#0078d4"
       transform="matrix(0,1,1,0,850.5,642.5)"
       id="path962" />
    <path
       d="m 0,-1.5 h 184.364 c 0.828,0 1.5,0.671573 1.5,1.5 v 217.701 l -1.5,-1.5 h 176.863 v 3 H 184.364 c -0.829,0 -1.5,-0.672 -1.5,-1.5 V 0 l 1.5,1.5 H 0 Z m 359.727,214.701 9,4.5 -9,4.5 z"
       fill="#0078d4"
       transform="matrix(1,0,0,-1,989.5,1193.2)"
       id="path964" />
    <path
       d="m 0,-1.5 h 184.077 c 0.829,0 1.5,0.671573 1.5,1.5 v 793.963 l -1.5,-1.5 h 176.578 v 3 H 184.077 c -0.828,0 -1.5,-0.671 -1.5,-1.5 V 0 l 1.5,1.5 H 0 Z m 359.155,790.963 9,4.5 -9,4.5 z"
       fill="#0078d4"
       transform="matrix(1,0,0,-1,989.5,1192.46)"
       id="path966" />
    <path
       d="m 0,-1.5 h 184.077 c 0.829,0 1.5,0.671573 1.5,1.5 v 600.672 l -1.5,-1.5 h 176.578 v 3 H 184.077 c -0.828,0 -1.5,-0.672 -1.5,-1.5 V 0 l 1.5,1.5 H 0 Z m 359.155,597.672 9,4.5 -9,4.5 z"
       fill="#0078d4"
       transform="matrix(1,0,0,-1,989.5,1193.17)"
       id="path968" />
    <path
       d="m 0,-1.5 h 184.077 c 0.829,0 1.5,0.671573 1.5,1.5 v 407.38 l -1.5,-1.5 h 176.578 v 3 H 184.077 c -0.828,0 -1.5,-0.671 -1.5,-1.5 V 0 l 1.5,1.5 H 0 Z m 359.155,404.38 9,4.5 -9,4.5 z"
       fill="#0078d4"
       transform="matrix(1,0,0,-1,989.5,1192.88)"
       id="path970" />
    <path
       d="m 995.309,931.5 v 92.6 c 0,0.83 -0.671,1.5 -1.5,1.5 H 850.5 l 1.5,-1.5 v 85.1 h -3 v -85.1 c 0,-0.83 0.672,-1.5 1.5,-1.5 h 143.309 l -1.5,1.5 V 931.5 Z M 855,1107.7 l -4.5,9 -4.5,-9 z"
       fill="#0078d4"
       id="path972" />
    <path
       d="m 0,-1.5 h 142.142 c 0.829,0 1.5,0.671573 1.5,1.5 v 20.7975 l -1.5,-1.5 h 218.012 v 3 H 142.142 c -0.828,0 -1.5,-0.6716 -1.5,-1.5 V 0 l 1.5,1.5 H 0 Z m 358.654,17.7975 9,4.5 -9,4.5 z"
       fill="#0078d4"
       transform="matrix(1,0,0,-1,989.5,1193.3)"
       id="path974" />
    <path
       d="m 989.5,1191 h 140.88 c 0.83,0 1.5,0.67 1.5,1.5 v 172.49 l -1.5,-1.5 h 219.27 v 3 h -219.27 c -0.83,0 -1.5,-0.67 -1.5,-1.5 V 1192.5 l 1.5,1.5 H 989.5 Z m 358.65,169.49 9,4.5 -9,4.5 z"
       fill="#0078d4"
       id="path976" />
    <path
       d="m 1568.5,397 h 158.26 c 0.83,0 1.5,0.672 1.5,1.5 v 109.146 h -3 V 398.5 l 1.5,1.5 H 1568.5 Z m 162.76,109.146 -4.5,9 -4.5,-9 z"
       fill="#0078d4"
       id="path978" />
    <path
       d="m 0,-1.5 h 158.26 c 0.829,0 1.5,0.671573 1.5,1.5 v 109.146 h -3 V 0 l 1.5,1.5 H 0 Z m 162.76,109.146 -4.5,9 -4.5,-9 z"
       fill="#0078d4"
       transform="matrix(1,0,0,-1,1568.5,785.146)"
       id="path980" />
    <path
       d="m 0,-1.5 h 157.688 c 0.828,0 1.5,0.671573 1.5,1.5 v 298.825 h -3 V 0 l 1.5,1.5 H 0 Z m 162.188,298.826 -4.5,9 -4.5,-9 z"
       fill="#0078d4"
       transform="matrix(1,0,0,-1,1569.5,974.826)"
       id="path982" />
    <path
       d="M 0,1.5 H -24 L -22.5,0 v 579.393 l -1.5,-1.5 h 16.56562 v 3 H -24 c -0.8284,0 -1.5,-0.672 -1.5,-1.5 V 0 c 0,-0.828427 0.6716,-1.5 1.5,-1.5 H 0 Z m -8.93438,573.393 8.9999968,4.5 -8.9999968,4.5 z"
       fill="#0078d4"
       transform="matrix(-1,0,0,1,1832.57,592.5)"
       id="path984" />
    <path
       d="m 1728,1248.5 v 69.15 h -3 v -69.15 z m 3,67.65 -4.5,9 -4.5,-9 z"
       fill="#0078d4"
       id="path986" />
    <path
       d="m 1568.5,591 h 45.08 v 3 h -45.08 z m 43.58,-3 9,4.5 -9,4.5 z"
       fill="#0078d4"
       id="path988" />
  </g>
</svg>
