<?xml version="1.0" encoding="UTF-8" standalone="no"?>
<svg
   width="1076.5378"
   height="1670.2014"
   overflow="hidden"
   version="1.1"
   id="svg61"
   sodipodi:docname="design-to-retire-manage-product-pricing-overview.svg"
   inkscape:version="1.3.2 (091e20e, 2023-11-25, custom)"
   xmlns:inkscape="http://www.inkscape.org/namespaces/inkscape"
   xmlns:sodipodi="http://sodipodi.sourceforge.net/DTD/sodipodi-0.dtd"
   xmlns="http://www.w3.org/2000/svg"
   xmlns:svg="http://www.w3.org/2000/svg">
  <defs
     id="defs61" />
  <sodipodi:namedview
     id="namedview61"
     pagecolor="#ffffff"
     bordercolor="#000000"
     borderopacity="0.25"
     inkscape:showpageshadow="2"
     inkscape:pageopacity="0.0"
     inkscape:pagecheckerboard="0"
     inkscape:deskcolor="#d1d1d1"
     inkscape:zoom="0.95677083"
     inkscape:cx="842.93958"
     inkscape:cy="819.94557"
     inkscape:window-width="3840"
     inkscape:window-height="2054"
     inkscape:window-x="2869"
     inkscape:window-y="-11"
     inkscape:window-maximized="1"
     inkscape:current-layer="svg61" />
  <g
     id="g61"
     transform="translate(-117.06042,-140.05444)">
    <rect
       x="117.06042"
       y="140.05444"
       width="1076.5378"
       height="1670.2014"
       fill="#ffffff"
       id="rect1"
       style="stroke-width:0.698389" />
    <rect
       x="489"
       y="348"
       width="374"
       height="1386"
       stroke="#0078d4"
       stroke-width="2"
       stroke-linejoin="round"
       stroke-miterlimit="10"
       fill="#d9d9d9"
       id="rect2" />
    <text
       fill="#0078d4"
       font-family="'Segoe UI', 'Segoe UI_MSFontService', sans-serif"
       font-weight="700"
       font-size="27px"
       transform="translate(517.333,397)"
       id="text2">Business process area</text>
    <path
       d="m 133,188.5 c 0,-21.263 17.237,-38.5 38.5,-38.5 h 176 c 21.263,0 38.5,17.237 38.5,38.5 v 0 c 0,21.263 -17.237,38.5 -38.5,38.5 h -176 C 150.237,227 133,209.763 133,188.5 Z"
       stroke="#0078d4"
       stroke-width="2"
       stroke-linejoin="round"
       stroke-miterlimit="10"
       fill="#ffffff"
       fill-rule="evenodd"
       id="path2" />
    <text
       font-family="'Segoe UI', 'Segoe UI_MSFontService', sans-serif"
       font-weight="400"
       font-size="21px"
       transform="translate(237.585,197)"
       id="text3">Start</text>
    <rect
       x="902"
       y="271"
       width="256"
       height="154"
       fill="#a0a0a0"
       id="rect3" />
    <text
       font-family="'Segoe UI', 'Segoe UI_MSFontService', sans-serif"
       font-weight="400"
       font-size="21px"
       transform="translate(957.285,356)"
       id="text4">Design to retire</text>
    <rect
       x="133"
       y="271"
       width="253"
       height="154"
       fill="#a0a0a0"
       id="rect4" />
    <text
       font-family="'Segoe UI', 'Segoe UI_MSFontService', sans-serif"
       font-weight="400"
       font-size="21px"
       transform="translate(186.995,356)"
       id="text5">Design to retire</text>
    <rect
       x="522"
       y="669"
       width="264"
       height="154"
       fill="#ffffff"
       id="rect5" />
    <path
       d="M 555,669 V 823 M 753,669 v 154"
       stroke="#0078d4"
       stroke-width="2"
       stroke-linejoin="round"
       stroke-miterlimit="10"
       fill="none"
       fill-rule="evenodd"
       id="path5" />
    <rect
       x="522"
       y="669"
       width="264"
       height="154"
       stroke="#0078d4"
       stroke-width="2"
       stroke-linejoin="round"
       stroke-miterlimit="10"
       fill="none"
       id="rect6" />
    <text
       font-family="'Segoe UI', 'Segoe UI_MSFontService', sans-serif"
       font-weight="400"
       font-size="21px"
       transform="translate(604.931,716)"
       id="text6">Determine</text>
    <text
       font-family="'Segoe UI', 'Segoe UI_MSFontService', sans-serif"
       font-weight="400"
       font-size="21px"
       transform="translate(591.304,741)"
       id="text7">product price</text>
    <text
       font-family="'Segoe UI', 'Segoe UI_MSFontService', sans-serif"
       font-weight="400"
       font-size="21px"
       transform="translate(593.498,767)"
       id="text8">and discount</text>
    <text
       font-family="'Segoe UI', 'Segoe UI_MSFontService', sans-serif"
       font-weight="400"
       font-size="21px"
       transform="translate(611.831,793)"
       id="text9">eligibility</text>
    <rect
       x="133"
       y="469"
       width="255"
       height="154"
       fill="#0078d4"
       id="rect9" />
    <path
       d="M 164.875,469 V 623 M 356.125,469 V 623"
       stroke="#0078d4"
       stroke-width="2"
       stroke-linejoin="round"
       stroke-miterlimit="10"
       fill="none"
       fill-rule="evenodd"
       id="path9" />
    <rect
       x="133"
       y="469"
       width="255"
       height="154"
       stroke="#0078d4"
       stroke-width="2"
       stroke-linejoin="round"
       stroke-miterlimit="10"
       fill="none"
       id="rect10" />
    <text
       fill="#ffffff"
       font-family="'Segoe UI', 'Segoe UI_MSFontService', sans-serif"
       font-weight="400"
       font-size="21px"
       transform="translate(215.8,541)"
       id="text10">Introduce</text>
    <text
       fill="#ffffff"
       font-family="'Segoe UI', 'Segoe UI_MSFontService', sans-serif"
       font-weight="400"
       font-size="21px"
       transform="translate(197.22,566)"
       id="text11">new products</text>
    <rect
       x="522"
       y="469"
       width="264"
       height="154"
       fill="#0078d4"
       id="rect11" />
    <text
       fill="#ffffff"
       font-family="'Segoe UI', 'Segoe UI_MSFontService', sans-serif"
       font-weight="400"
       font-size="21px"
       transform="translate(576.138,541)"
       id="text12">Manage product</text>
    <text
       fill="#ffffff"
       font-family="'Segoe UI', 'Segoe UI_MSFontService', sans-serif"
       font-weight="400"
       font-size="21px"
       transform="translate(621.831,566)"
       id="text13">pricing</text>
    <rect
       x="522"
       y="892"
       width="264"
       height="153"
       fill="#ffffff"
       id="rect13" />
    <path
       d="m 555,892 v 153 M 753,892 v 153"
       stroke="#0078d4"
       stroke-width="2"
       stroke-linejoin="round"
       stroke-miterlimit="10"
       fill="none"
       fill-rule="evenodd"
       id="path13" />
    <rect
       x="522"
       y="892"
       width="264"
       height="153"
       stroke="#0078d4"
       stroke-width="2"
       stroke-linejoin="round"
       stroke-miterlimit="10"
       fill="none"
       id="rect14" />
    <text
       font-family="'Segoe UI', 'Segoe UI_MSFontService', sans-serif"
       font-weight="400"
       font-size="21px"
       transform="translate(603.308,951)"
       id="text14">Create and</text>
    <text
       font-family="'Segoe UI', 'Segoe UI_MSFontService', sans-serif"
       font-weight="400"
       font-size="21px"
       transform="translate(613.414,976)"
       id="text15">maintain</text>
    <text
       font-family="'Segoe UI', 'Segoe UI_MSFontService', sans-serif"
       font-weight="400"
       font-size="21px"
       transform="translate(595.388,1002)"
       id="text16">product fees</text>
    <path
       d="m 901,1767 c 0,-19.88 16.118,-36 36,-36 h 183 c 19.88,0 36,16.12 36,36 v 0 c 0,19.88 -16.12,36 -36,36 H 937 c -19.882,0 -36,-16.12 -36,-36 z"
       stroke="#0078d4"
       stroke-width="2"
       stroke-linejoin="round"
       stroke-miterlimit="10"
       fill="#ffffff"
       fill-rule="evenodd"
       id="path16" />
    <text
       font-family="'Segoe UI', 'Segoe UI_MSFontService', sans-serif"
       font-weight="400"
       font-size="21px"
       transform="translate(1010.84,1775)"
       id="text17">End</text>
    <rect
       x="902"
       y="1106"
       width="256"
       height="154"
       fill="#a0a0a0"
       id="rect17" />
    <text
       font-family="'Segoe UI', 'Segoe UI_MSFontService', sans-serif"
       font-weight="400"
       font-size="21px"
       transform="translate(945.979,1191)"
       id="text18">Prospect to quote</text>
    <path
       d="m 656,623.5 v 39.339 h -3 V 623.5 Z m 3,37.839 -4.5,9 -4.5,-9 z"
       fill="#0078d4"
       id="path18" />
    <path
       d="m 261.999,425.457 1.067,37.155 -2.999,0.086 -1.066,-37.155 z m 4.022,35.569 -4.24,9.125 -4.756,-8.867 z"
       fill="#0078d4"
       id="path19" />
    <path
       d="m 388.5,545 h 126.168 v 3 H 388.5 Z m 124.668,-3 9,4.5 -9,4.5 z"
       fill="#0078d4"
       id="path20" />
    <path
       d="M 1.49966,-0.0318735 2.67384,55.2136 -0.325485,55.2773 -1.49966,0.0318735 Z M 5.64129,53.6501 1.33354,62.7437 -3.35668,53.8414 Z"
       fill="#0078d4"
       transform="matrix(-1,0,0,1,1030.83,1260.5)"
       id="path21" />
    <path
       d="m 262,227.5 v 36.929 h -3 V 227.5 Z m 3,35.429 -4.5,9 -4.5,-9 z"
       fill="#0078d4"
       id="path22" />
    <rect
       x="522"
       y="1106"
       width="264"
       height="154"
       fill="#ffffff"
       id="rect22" />
    <path
       d="m 555,1106 v 154 m 198,-154 v 154"
       stroke="#0078d4"
       stroke-width="2"
       stroke-linejoin="round"
       stroke-miterlimit="10"
       fill="none"
       fill-rule="evenodd"
       id="path23" />
    <rect
       x="522"
       y="1106"
       width="264"
       height="154"
       stroke="#0078d4"
       stroke-width="2"
       stroke-linejoin="round"
       stroke-miterlimit="10"
       fill="none"
       id="rect23" />
    <text
       font-family="'Segoe UI', 'Segoe UI_MSFontService', sans-serif"
       font-weight="400"
       font-size="21px"
       transform="translate(603.308,1140)"
       id="text23">Create and</text>
    <text
       font-family="'Segoe UI', 'Segoe UI_MSFontService', sans-serif"
       font-weight="400"
       font-size="21px"
       transform="translate(613.414,1165)"
       id="text24">maintain</text>
    <text
       font-family="'Segoe UI', 'Segoe UI_MSFontService', sans-serif"
       font-weight="400"
       font-size="21px"
       transform="translate(617.308,1191)"
       id="text25">product</text>
    <text
       font-family="'Segoe UI', 'Segoe UI_MSFontService', sans-serif"
       font-weight="400"
       font-size="21px"
       transform="translate(621.834,1217)"
       id="text26">pricing</text>
    <text
       font-family="'Segoe UI', 'Segoe UI_MSFontService', sans-serif"
       font-weight="400"
       font-size="21px"
       transform="translate(598.888,1242)"
       id="text27">agreements</text>
    <rect
       x="522"
       y="1322"
       width="264"
       height="153"
       fill="#ffffff"
       id="rect27" />
    <path
       d="m 555,1322 v 153 m 198,-153 v 153"
       stroke="#0078d4"
       stroke-width="2"
       stroke-linejoin="round"
       stroke-miterlimit="10"
       fill="none"
       fill-rule="evenodd"
       id="path27" />
    <rect
       x="522"
       y="1322"
       width="264"
       height="153"
       stroke="#0078d4"
       stroke-width="2"
       stroke-linejoin="round"
       stroke-miterlimit="10"
       fill="none"
       id="rect28" />
    <text
       font-family="'Segoe UI', 'Segoe UI_MSFontService', sans-serif"
       font-weight="400"
       font-size="21px"
       transform="translate(603.308,1342)"
       id="text28">Create and</text>
    <text
       font-family="'Segoe UI', 'Segoe UI_MSFontService', sans-serif"
       font-weight="400"
       font-size="21px"
       transform="translate(613.414,1367)"
       id="text29">maintain</text>
    <text
       font-family="'Segoe UI', 'Segoe UI_MSFontService', sans-serif"
       font-weight="400"
       font-size="21px"
       transform="translate(617.308,1393)"
       id="text30">product</text>
    <text
       font-family="'Segoe UI', 'Segoe UI_MSFontService', sans-serif"
       font-weight="400"
       font-size="21px"
       transform="translate(596.221,1419)"
       id="text31">promotional</text>
    <text
       font-family="'Segoe UI', 'Segoe UI_MSFontService', sans-serif"
       font-weight="400"
       font-size="21px"
       transform="translate(601.248,1444)"
       id="text32">pricing and</text>
    <text
       font-family="'Segoe UI', 'Segoe UI_MSFontService', sans-serif"
       font-weight="400"
       font-size="21px"
       transform="translate(609.581,1470)"
       id="text33">discounts</text>
    <rect
       x="522"
       y="1537"
       width="264"
       height="153"
       fill="#ffffff"
       id="rect33" />
    <path
       d="m 555,1537 v 153 m 198,-153 v 153"
       stroke="#0078d4"
       stroke-width="2"
       stroke-linejoin="round"
       stroke-miterlimit="10"
       fill="none"
       fill-rule="evenodd"
       id="path33" />
    <rect
       x="522"
       y="1537"
       width="264"
       height="153"
       stroke="#0078d4"
       stroke-width="2"
       stroke-linejoin="round"
       stroke-miterlimit="10"
       fill="none"
       id="rect34" />
    <text
       font-family="'Segoe UI', 'Segoe UI_MSFontService', sans-serif"
       font-weight="400"
       font-size="21px"
       transform="translate(621.461,1570)"
       id="text34">Review</text>
    <text
       font-family="'Segoe UI', 'Segoe UI_MSFontService', sans-serif"
       font-weight="400"
       font-size="21px"
       transform="translate(617.308,1595)"
       id="text35">product</text>
    <text
       font-family="'Segoe UI', 'Segoe UI_MSFontService', sans-serif"
       font-weight="400"
       font-size="21px"
       transform="translate(601.248,1621)"
       id="text36">pricing and</text>
    <text
       font-family="'Segoe UI', 'Segoe UI_MSFontService', sans-serif"
       font-weight="400"
       font-size="21px"
       transform="translate(614.081,1647)"
       id="text37">discount</text>
    <text
       font-family="'Segoe UI', 'Segoe UI_MSFontService', sans-serif"
       font-weight="400"
       font-size="21px"
       transform="translate(598.888,1672)"
       id="text38">agreements</text>
    <rect
       x="901"
       y="1535"
       width="255"
       height="153"
       fill="#0078d4"
       id="rect38" />
    <path
       d="m 932.875,1535 v 153 m 191.245,-153 v 153"
       stroke="#0078d4"
       stroke-width="2"
       stroke-linejoin="round"
       stroke-miterlimit="10"
       fill="none"
       fill-rule="evenodd"
       id="path38" />
    <rect
       x="901"
       y="1535"
       width="255"
       height="153"
       stroke="#0078d4"
       stroke-width="2"
       stroke-linejoin="round"
       stroke-miterlimit="10"
       fill="none"
       id="rect39" />
    <text
       fill="#ffffff"
       font-family="'Segoe UI', 'Segoe UI_MSFontService', sans-serif"
       font-weight="400"
       font-size="21px"
       transform="translate(1010.09,1594)"
       id="text39">Run</text>
    <text
       fill="#ffffff"
       font-family="'Segoe UI', 'Segoe UI_MSFontService', sans-serif"
       font-weight="400"
       font-size="21px"
       transform="translate(981.052,1619)"
       id="text40">marketing</text>
    <text
       fill="#ffffff"
       font-family="'Segoe UI', 'Segoe UI_MSFontService', sans-serif"
       font-weight="400"
       font-size="21px"
       transform="translate(978.145,1645)"
       id="text41">campaigns</text>
    <path
       d="m 656,1475.5 v 54.42 h -3 v -54.42 z m 3,52.92 -4.5,9 -4.5,-9 z"
       fill="#0078d4"
       id="path41" />
    <path
       d="m 656,1260.5 v 54.42 h -3 v -54.42 z m 3,52.92 -4.5,9 -4.5,-9 z"
       fill="#0078d4"
       id="path42" />
    <rect
       x="901"
       y="469"
       width="255"
       height="154"
       fill="#0078d4"
       id="rect42" />
    <path
       d="M 932.875,469 V 623 M 1124.12,469 v 154"
       stroke="#0078d4"
       stroke-width="2"
       stroke-linejoin="round"
       stroke-miterlimit="10"
       fill="none"
       fill-rule="evenodd"
       id="path43" />
    <rect
       x="901"
       y="469"
       width="255"
       height="154"
       stroke="#0078d4"
       stroke-width="2"
       stroke-linejoin="round"
       stroke-miterlimit="10"
       fill="none"
       id="rect43" />
    <text
       fill="#ffffff"
       font-family="'Segoe UI', 'Segoe UI_MSFontService', sans-serif"
       font-weight="400"
       font-size="21px"
       transform="translate(990.255,529)"
       id="text43">Manage</text>
    <text
       fill="#ffffff"
       font-family="'Segoe UI', 'Segoe UI_MSFontService', sans-serif"
       font-weight="400"
       font-size="21px"
       transform="translate(991.642,554)"
       id="text44">product</text>
    <text
       fill="#ffffff"
       font-family="'Segoe UI', 'Segoe UI_MSFontService', sans-serif"
       font-weight="400"
       font-size="21px"
       transform="translate(991.309,580)"
       id="text45">lifecycle</text>
    <rect
       x="901"
       y="670"
       width="255"
       height="153"
       fill="#a0a0a0"
       id="rect45" />
    <text
       font-family="'Segoe UI', 'Segoe UI_MSFontService', sans-serif"
       font-weight="400"
       font-size="21px"
       transform="translate(960.259,755)"
       id="text46"
       style="-inkscape-font-specification:'Segoe UI, Segoe UI_MSFontService, sans-serif, Normal';font-family:'Segoe UI', 'Segoe UI_MSFontService', sans-serif;font-weight:normal;font-style:normal;font-stretch:normal;font-variant:normal;font-size:21px;font-variant-ligatures:normal;font-variant-caps:normal;font-variant-numeric:normal;font-variant-east-asian:normal"><tspan
         sodipodi:role="line"
         id="tspan1">Source to pay</tspan></text>
    <path
       d="m 1031,823.5 v 61.285 h -3 V 823.5 Z m 3,59.785 -4.5,9 -4.5,-9 z"
       fill="#0078d4"
       id="path46" />
    <rect
       x="901"
       y="892"
       width="255"
       height="153"
       fill="#0078d4"
       id="rect46" />
    <path
       d="m 932.875,892 v 153 M 1124.12,892 v 153"
       stroke="#0078d4"
       stroke-width="2"
       stroke-linejoin="round"
       stroke-miterlimit="10"
       fill="none"
       fill-rule="evenodd"
       id="path47" />
    <rect
       x="901"
       y="892"
       width="255"
       height="153"
       stroke="#0078d4"
       stroke-width="2"
       stroke-linejoin="round"
       stroke-miterlimit="10"
       fill="none"
       id="rect47" />
    <text
       fill="#ffffff"
       font-family="'Segoe UI', 'Segoe UI_MSFontService', sans-serif"
       font-weight="400"
       font-size="21px"
       transform="translate(990.255,951)"
       id="text47">Manage</text>
    <text
       fill="#ffffff"
       font-family="'Segoe UI', 'Segoe UI_MSFontService', sans-serif"
       font-weight="400"
       font-size="21px"
       transform="translate(995.649,976)"
       id="text48">vendor</text>
    <text
       fill="#ffffff"
       font-family="'Segoe UI', 'Segoe UI_MSFontService', sans-serif"
       font-weight="400"
       font-size="21px"
       transform="translate(969.062,1002)"
       id="text49">relationships</text>
    <path
       d="M 0.0260513,-1.49977 107.202,0.361885 107.15,3.36143 -0.0260513,1.49977 Z M 105.754,-2.66371 l 8.921,4.65563 -9.077,4.34301 z"
       fill="#0078d4"
       transform="matrix(1,0,0,-1,786.5,1613.49)"
       id="path49" />
    <path
       d="m 1156.5,545 h 24 c 0.83,0 1.5,0.672 1.5,1.5 v 1221.16 c 0,0.83 -0.67,1.5 -1.5,1.5 h -15.17 v -3 h 15.17 l -1.5,1.5 V 546.5 l 1.5,1.5 h -24 z m 10.33,1227.16 -9,-4.5 9,-4.5 z"
       fill="#0078d4"
       id="path50" />
    <path
       d="m 1156.5,968 h 24 c 0.83,0 1.5,0.672 1.5,1.5 v 798.33 c 0,0.83 -0.67,1.5 -1.5,1.5 h -15.17 v -3 h 15.17 l -1.5,1.5 V 969.5 l 1.5,1.5 h -24 z m 10.33,804.33 -9,-4.5 9,-4.5 z"
       fill="#0078d4"
       id="path51" />
    <path
       d="M 0,1.5 H -24 L -22.5,0 v 155.684 l -1.5,-1.5 h 16.50011 v 3 H -24 c -0.8284,0 -1.5,-0.672 -1.5,-1.5 V 0 c 0,-0.828427 0.6716,-1.5 1.5,-1.5 H 0 Z m -8.9999,149.684 9.000004987,4.5 -9.000004987,4.5 z"
       fill="#0078d4"
       transform="matrix(-1,0,0,1,1156.5,1611.5)"
       id="path52" />
    <path
       d="M 1.49933,-0.0447749 2.60889,37.11 -0.389768,37.1996 -1.49933,0.0447749 Z M 5.56278,35.5211 1.33344,44.6514 -3.43321,35.7898 Z"
       fill="#0078d4"
       transform="matrix(-1,0,0,1,1030.83,425.5)"
       id="path53" />
    <path
       d="m 656,823.5 v 61.908 h -3 V 823.5 Z m 3,60.408 -4.5,9 -4.5,-9 z"
       fill="#0078d4"
       id="path54" />
    <path
       d="m 656,1045.5 v 53.42 h -3 v -53.42 z m 3,51.92 -4.5,9 -4.5,-9 z"
       fill="#0078d4"
       id="path55" />
    <rect
       x="901"
       y="1322"
       width="255"
       height="154"
       fill="#0078d4"
       id="rect55" />
    <path
       d="m 932.875,1322 v 154 m 191.245,-154 v 154"
       stroke="#0078d4"
       stroke-width="2"
       stroke-linejoin="round"
       stroke-miterlimit="10"
       fill="none"
       fill-rule="evenodd"
       id="path56" />
    <rect
       x="901"
       y="1322"
       width="255"
       height="154"
       stroke="#0078d4"
       stroke-width="2"
       stroke-linejoin="round"
       stroke-miterlimit="10"
       fill="none"
       id="rect56" />
    <text
       fill="#ffffff"
       font-family="'Segoe UI', 'Segoe UI_MSFontService', sans-serif"
       font-weight="400"
       font-size="21px"
       transform="translate(990.255,1382)"
       id="text56">Manage</text>
    <text
       fill="#ffffff"
       font-family="'Segoe UI', 'Segoe UI_MSFontService', sans-serif"
       font-weight="400"
       font-size="21px"
       transform="translate(984.835,1407)"
       id="text57">customer</text>
    <text
       fill="#ffffff"
       font-family="'Segoe UI', 'Segoe UI_MSFontService', sans-serif"
       font-weight="400"
       font-size="21px"
       transform="translate(969.062,1433)"
       id="text58">relationships</text>
    <path
       d="m 786.5,1182 h 57.337 c 0.829,0 1.5,0.67 1.5,1.5 v 216.03 l -1.5,-1.5 h 49.837 v 3 h -49.837 c -0.828,0 -1.5,-0.67 -1.5,-1.5 V 1183.5 l 1.5,1.5 H 786.5 Z m 105.674,213.03 9,4.5 -9,4.5 z"
       fill="#0078d4"
       id="path58" />
    <path
       d="m 0,-1.5 h 57.3374 c 0.8284,0 1.5,0.671573 1.5,1.5 v 214.215 l -1.5,-1.5 h 49.8376 v 3 H 57.3374 c -0.8284,0 -1.5,-0.671 -1.5,-1.5 V 0 l 1.5,1.5 H 0 Z m 105.675,211.215 9,4.5 -9,4.5 z"
       fill="#0078d4"
       transform="matrix(1,0,0,-1,786.5,1183.72)"
       id="path59" />
    <path
       d="m 0,-1.5 h 35.3369 c 0.8285,0 1.5,0.671573 1.5,1.5 v 422.828 l -1.5,-1.5 h 71.8381 v 3 H 35.3369 c -0.8284,0 -1.5,-0.672 -1.5,-1.5 V 0 l 1.5,1.5 H 0 Z m 105.675,419.828 9,4.5 -9,4.5 z"
       fill="#0078d4"
       transform="matrix(1,0,0,-1,786.5,969.328)"
       id="path60" />
    <path
       d="m 1156.5,1398 h 24 c 0.83,0 1.5,0.67 1.5,1.5 v 368.08 c 0,0.83 -0.67,1.5 -1.5,1.5 H 1164 v -3 h 16.5 l -1.5,1.5 V 1399.5 l 1.5,1.5 h -24 z m 9,374.08 -9,-4.5 9,-4.5 z"
       fill="#0078d4"
       id="path61" />
  </g>
</svg>
