<?xml version="1.0"?>
<svg xmlns="http://www.w3.org/2000/svg" xmlns:xlink="http://www.w3.org/1999/xlink" xmlns:ev="http://www.w3.org/2001/xml-events"    viewBox="16 54 856 631"    xml:space="preserve" color-interpolation-filters="sRGB" class="st11" width="2140" height="1578">
<rect x="0" y="0" width="2140" height="1578" fill="#ffffff" />
	<style type="text/css"><![CDATA[
		.st1 {fill:#0078d4;stroke:none;stroke-linecap:round;stroke-linejoin:round;stroke-width:0.24}
		.st2 {fill:#ffffff;font-family:Calibri;font-size:1.00001em}
		.st3 {fill:#ffffff}
		.st4 {stroke:#0078d4;stroke-linecap:round;stroke-linejoin:round;stroke-width:0.24}
		.st5 {fill:#000000;font-family:Calibri;font-size:1.00001em}
		.st6 {font-size:1em}
		.st7 {fill:#ffffff;stroke:#0078d4;stroke-linecap:round;stroke-linejoin:round;stroke-width:0.24}
		.st8 {fill:#a0a0a0;stroke:none;stroke-linecap:round;stroke-linejoin:round;stroke-width:0.24}
		.st9 {marker-end:url(#mrkr13-92);stroke:#0078d4;stroke-linecap:round;stroke-linejoin:round;stroke-width:0.75}
		.st10 {fill:#0078d4;fill-opacity:1;stroke:#0078d4;stroke-opacity:1;stroke-width:0.22935779816514}
		.st11 {fill:none;fill-rule:evenodd;font-size:12px;overflow:visible;stroke-linecap:square;stroke-miterlimit:3}
	]]></style><style> a { pointer-events: none; } </style><style>a.rules_svg_anchor g:hover { opacity:0.8; cursor:pointer; }</style>
	<defs id="Markers">
		<g id="lend13">
			<path d="M 3 1 L 0 0 L 3 -1 L 3 1 " style="stroke:none" />
		</g>
		<marker id="mrkr13-92" class="st10" refX="-13.08" orient="auto" markerUnits="strokeWidth" overflow="visible">
			<use xlink:href="#lend13" transform="scale(-4.36,-4.36) " />
		</marker>
	</defs>
	<g>
		
		<a id="0f8beaa6-3be7-4ec4-80da-448f9d5dafa5" class="rules_svg_anchor rules_svg_shape"   href="/lms/chart?onclick=b3BlbkNoYXJ0Q29udGV4dE1lbnUoZXZlbnQsJ3cxMTZkNTIzNTk2NWMxNjk0NHY0MDcxJywxODA4MSwgMSwgMSwgdGhpcywgd2luZG93LmZyYW1lRWxlbWVudCk=&amp;navigate=true&amp;details=Description">
			<g id="shape1-1" transform="translate(294.75,-1071)">
				
				<desc>40 Design to retire</desc>
				<rect x="0" y="1125" width="126" height="63" class="st1" />
				<text x="17.76" y="1160.1" class="st2">40 Design to retire</text>
			</g>
		</a>
		<a id="518c283a-fd42-4b87-869f-5195ac425b72" class="rules_svg_anchor rules_svg_shape"   href="/lms/chart?onclick=b3BlbkNoYXJ0Q29udGV4dE1lbnUoZXZlbnQsJ3cxMTZkNTIzNTk2NWMxNjk0NXY0MDcxJywxODA4MiwgMSwgMSwgdGhpcywgd2luZG93LmZyYW1lRWxlbWVudCk=&amp;navigate=true&amp;details=Description">
			<g id="shape2-4" transform="translate(294.75,-981)">
				
				<desc>40.10 Develop product strategy</desc>
				<path d="M0 1188 L126 1188 L126 1125 L0 1125 L0 1188 Z" class="st3" />
				<path d="M0 1188 L126 1188 L126 1125 L0 1125 L0 1188" class="st4" />
				<path d="M9 1188 L9 1125" class="st4" />
				<path d="M117 1188 L117 1125" class="st4" />
				<text x="27.9" y="1152.9" class="st5">40.10 Develop <tspan x="22.53" dy="1.2em" class="st6">product strategy</tspan>
				</text>
			</g>
		</a>
		<g id="shape3-11" transform="translate(54,-1084.5)">
			
			<desc>Start</desc>
			<path d="M18 1188 L67.5 1188 A18 18 -180 0 0 67.5 1152 L18 1152 A18 18 -180 1 0 18 1188 Z" class="st7" />
			<text x="31.01" y="1173.6" class="st5">Start</text>
		</g>
		<a id="2cd529ad-2e11-40e8-9f3a-9cad62e92c0d" class="rules_svg_anchor rules_svg_shape"   href="/lms/chart?onclick=b3BlbkNoYXJ0Q29udGV4dE1lbnUoZXZlbnQsJ3cxMTZkNTIzNTk2NWMxNjk5MnY0MDcxJywxODExOCwgMSwgMSwgdGhpcywgd2luZG93LmZyYW1lRWxlbWVudCk=&amp;navigate=true&amp;details=Description">
			<g id="shape4-14" transform="translate(73.125,-972)">
				
				<desc>50 Forecast to plan</desc>
				<rect x="0" y="1125" width="99" height="63" class="st8" />
				<text x="2.85" y="1160.1" class="st5">50 Forecast to plan</text>
			</g>
		</a>
		<a id="626195b7-5c82-4dde-8bbd-979fddbfaaf4" class="rules_svg_anchor rules_svg_shape"   href="/lms/chart?onclick=b3BlbkNoYXJ0Q29udGV4dE1lbnUoZXZlbnQsJ3cxMTZkNTIzNTk2NWMxNjk1NnY0MDcxJywxODA5MCwgMSwgMSwgdGhpcywgd2luZG93LmZyYW1lRWxlbWVudCk=&amp;navigate=true&amp;details=Description">
			<g id="shape5-17" transform="translate(294.75,-891)">
				
				<desc>40.20 Introduce products</desc>
				<path d="M0 1188 L126 1188 L126 1125 L0 1125 L0 1188 Z" class="st3" />
				<path d="M0 1188 L126 1188 L126 1125 L0 1125 L0 1188" class="st4" />
				<path d="M9 1188 L9 1125" class="st4" />
				<path d="M117 1188 L117 1125" class="st4" />
				<text x="24.21" y="1152.9" class="st5">40.20 Introduce <tspan x="41.39" dy="1.2em" class="st6">products</tspan>
				</text>
			</g>
		</a>
		<a id="a70d78e9-6ebc-422d-9ce2-40bfb031f521" class="rules_svg_anchor rules_svg_shape"   href="/lms/chart?onclick=b3BlbkNoYXJ0Q29udGV4dE1lbnUoZXZlbnQsJ3cxMTZkNTIzNTk2NWM3OTkzMHY0MDcxJywxODEwNywgMSwgMSwgdGhpcywgd2luZG93LmZyYW1lRWxlbWVudCk=&amp;navigate=true&amp;details=Description">
			<g id="shape6-24" transform="translate(294.75,-711)">
				
				<desc>40.60 Retire products</desc>
				<path d="M0 1188 L126 1188 L126 1125 L0 1125 L0 1188 Z" class="st3" />
				<path d="M0 1188 L126 1188 L126 1125 L0 1125 L0 1188" class="st4" />
				<path d="M9 1188 L9 1125" class="st4" />
				<path d="M117 1188 L117 1125" class="st4" />
				<text x="33.26" y="1152.9" class="st5">40.60 Retire <tspan x="41.39" dy="1.2em" class="st6">products</tspan>
				</text>
			</g>
		</a>
		<a id="a9ae477c-df31-4fa8-ac97-a32b6a44488d" class="rules_svg_anchor rules_svg_shape"   href="/lms/chart?onclick=b3BlbkNoYXJ0Q29udGV4dE1lbnUoZXZlbnQsJ3cxMTZkNTIzNTk2NWM3OTk1NXY0MDcxJywxODExMywgMSwgMSwgdGhpcywgd2luZG93LmZyYW1lRWxlbWVudCk=&amp;navigate=true&amp;details=Description">
			<g id="shape7-31" transform="translate(294.75,-621)">
				
				<desc>40.90 Analyze product performance</desc>
				<path d="M0 1188 L126 1188 L126 1125 L0 1125 L0 1188 Z" class="st3" />
				<path d="M0 1188 L126 1188 L126 1125 L0 1125 L0 1188" class="st4" />
				<path d="M9 1188 L9 1125" class="st4" />
				<path d="M117 1188 L117 1125" class="st4" />
				<text x="29.02" y="1145.7" class="st5">40.90 Analyze <tspan x="43.74" dy="1.2em" class="st6">product </tspan>
					<tspan x="31.34" dy="1.2em" class="st6">performance</tspan>
				</text>
			</g>
		</a>
		<a id="7998c358-3910-4cc4-9b05-96ff9b1bcd11" class="rules_svg_anchor rules_svg_shape"   href="/lms/chart?onclick=b3BlbkNoYXJ0Q29udGV4dE1lbnUoZXZlbnQsJ3cxMTZkNTIzNTk2NWMxNzM3NnY0MDcxJywxODQ1NSwgMSwgMSwgdGhpcywgd2luZG93LmZyYW1lRWxlbWVudCk=&amp;navigate=true&amp;details=Description">
			<g id="shape8-39" transform="translate(75.375,-868.5)">
				
				<desc>85 Prospect to quote</desc>
				<rect x="0" y="1125" width="99" height="63" class="st8" />
				<text x="14.14" y="1152.9" class="st5">85 Prospect to <tspan x="35.04" dy="1.2em" class="st6">quote</tspan>
				</text>
			</g>
		</a>
		<a id="cfab3e53-b230-405c-bf8c-ae7031ecea53" class="rules_svg_anchor rules_svg_shape"   href="/lms/chart?onclick=b3BlbkNoYXJ0Q29udGV4dE1lbnUoZXZlbnQsJ3cxMTZkNTIzNTk2NWMxNzE1NXY0MDcxJywxODI4MSwgMSwgMSwgdGhpcywgd2luZG93LmZyYW1lRWxlbWVudCk=&amp;navigate=true&amp;details=Description">
			<g id="shape9-43" transform="translate(75.375,-765)">
				
				<desc>65 Order to cash</desc>
				<rect x="0" y="1125" width="99" height="63" class="st8" />
				<text x="8.97" y="1160.1" class="st5">65 Order to cash</text>
			</g>
		</a>
		<a id="a9fd7cfb-55e7-441f-bccf-6e51fff9319f" class="rules_svg_anchor rules_svg_shape"   href="/lms/chart?onclick=b3BlbkNoYXJ0Q29udGV4dE1lbnUoZXZlbnQsJ3cxMTZkNTIzNTk2NWMxNzMxOXY0MDcxJywxODQxMiwgMSwgMSwgdGhpcywgd2luZG93LmZyYW1lRWxlbWVudCk=&amp;navigate=true&amp;details=Description">
			<g id="shape10-46" transform="translate(75.375,-661.5)">
				
				<desc>80 Project to profit</desc>
				<rect x="0" y="1125" width="99" height="63" class="st8" />
				<text x="3.23" y="1160.1" class="st5">80 Project to profit</text>
			</g>
		</a>
		<a id="506ce64d-aea2-4a86-8a8a-a9551e0b6532" class="rules_svg_anchor rules_svg_shape"   href="/lms/chart?onclick=b3BlbkNoYXJ0Q29udGV4dE1lbnUoZXZlbnQsJ3cxMTZkNTIzNTk2NWMxNjk4M3Y0MDcxJywxODA5OCwgMSwgMSwgdGhpcywgd2luZG93LmZyYW1lRWxlbWVudCk=&amp;navigate=true&amp;details=Description">
			<g id="shape11-49" transform="translate(294.75,-801)">
				
				<desc>40.50 Manage active products</desc>
				<path d="M0 1188 L126 1188 L126 1125 L0 1125 L0 1188 Z" class="st3" />
				<path d="M0 1188 L126 1188 L126 1125 L0 1125 L0 1188" class="st4" />
				<path d="M9 1188 L9 1125" class="st4" />
				<path d="M117 1188 L117 1125" class="st4" />
				<text x="12.28" y="1152.9" class="st5">40.50 Manage active <tspan x="41.39" dy="1.2em" class="st6">products</tspan>
				</text>
			</g>
		</a>
		<a id="b63d9c81-66b7-488e-a4d3-3e29dbaf6fc0" class="rules_svg_anchor rules_svg_shape"   href="/lms/chart?onclick=b3BlbkNoYXJ0Q29udGV4dE1lbnUoZXZlbnQsJ3cxMTZkNTIzNTk2NWMxNzI2OXY0MDcxJywxODM2MywgMSwgMSwgdGhpcywgd2luZG93LmZyYW1lRWxlbWVudCk=&amp;navigate=true&amp;details=Description">
			<g id="shape12-56" transform="translate(587.25,-981)">
				
				<desc>75 Source to pay</desc>
				<rect x="0" y="1125" width="99" height="63" class="st8" />
				<text x="8.74" y="1160.1" class="st5">75 Source to pay</text>
			</g>
		</a>
		<a id="115dd1e6-efe8-49ae-b05a-71071f578665" class="rules_svg_anchor rules_svg_shape"   href="/lms/chart?onclick=b3BlbkNoYXJ0Q29udGV4dE1lbnUoZXZlbnQsJ3cxMTZkNTIzNTk2NWMxNzM3NnY0MDcxJywxODQ1NSwgMSwgMSwgdGhpcywgd2luZG93LmZyYW1lRWxlbWVudCk=&amp;navigate=true&amp;details=Description">
			<g id="shape13-59" transform="translate(587.25,-891)">
				
				<desc>85 Prospect to quote</desc>
				<rect x="0" y="1125" width="99" height="63" class="st8" />
				<text x="14.14" y="1152.9" class="st5">85 Prospect to <tspan x="35.04" dy="1.2em" class="st6">quote</tspan>
				</text>
			</g>
		</a>
		<a id="a32fcf64-1025-4c9a-af6a-d60e38a29e32" class="rules_svg_anchor rules_svg_shape"   href="/lms/chart?onclick=b3BlbkNoYXJ0Q29udGV4dE1lbnUoZXZlbnQsJ3cxMTZkNTIzNTk2NWMxNzE1NXY0MDcxJywxODI4MSwgMSwgMSwgdGhpcywgd2luZG93LmZyYW1lRWxlbWVudCk=&amp;navigate=true&amp;details=Description">
			<g id="shape14-63" transform="translate(587.25,-801)">
				
				<desc>65 Order to cash</desc>
				<rect x="0" y="1125" width="99" height="63" class="st8" />
				<text x="8.97" y="1160.1" class="st5">65 Order to cash</text>
			</g>
		</a>
		<a id="db46aa11-c14b-4269-90b4-148ba155f194" class="rules_svg_anchor rules_svg_shape"   href="/lms/chart?onclick=b3BlbkNoYXJ0Q29udGV4dE1lbnUoZXZlbnQsJ3cxMTZkNTIzNTk2NWMxNzIzMHY0MDcxJywxODMyNywgMSwgMSwgdGhpcywgd2luZG93LmZyYW1lRWxlbWVudCk=&amp;navigate=true&amp;details=Description">
			<g id="shape15-66" transform="translate(587.25,-711)">
				
				<desc>70 Plan to produce</desc>
				<rect x="0" y="1125" width="99" height="63" class="st8" />
				<text x="3.44" y="1160.1" class="st5">70 Plan to produce</text>
			</g>
		</a>
		<a id="c8a530ca-231e-4c8e-871e-c7ea3e25fb6a" class="rules_svg_anchor rules_svg_shape"   href="/lms/chart?onclick=b3BlbkNoYXJ0Q29udGV4dE1lbnUoZXZlbnQsJ3cxMTZkNTIzNTk2NWMxNzMxOXY0MDcxJywxODQxMiwgMSwgMSwgdGhpcywgd2luZG93LmZyYW1lRWxlbWVudCk=&amp;navigate=true&amp;details=Description">
			<g id="shape16-69" transform="translate(587.25,-621)">
				
				<desc>80 Project to profit</desc>
				<rect x="0" y="1125" width="99" height="63" class="st8" />
				<text x="3.23" y="1160.1" class="st5">80 Project to profit</text>
			</g>
		</a>
		<a id="bf3e3754-d327-4805-a7bf-301370080652" class="rules_svg_anchor rules_svg_shape"   href="/lms/chart?onclick=b3BlbkNoYXJ0Q29udGV4dE1lbnUoZXZlbnQsJ3cxMTZkNTIzNTk2NWMxNjg1N3Y0MDcxJywxODAwMSwgMSwgMSwgdGhpcywgd2luZG93LmZyYW1lRWxlbWVudCk=&amp;navigate=true&amp;details=Description">
			<g id="shape17-72" transform="translate(587.25,-531)">
				
				<desc>20 Case to resolution</desc>
				<rect x="0" y="1125" width="99" height="63" class="st8" />
				<text x="24.13" y="1152.9" class="st5">20 Case to <tspan x="24.68" dy="1.2em" class="st6">resolution</tspan>
				</text>
			</g>
		</a>
		<a id="82905a19-e766-4b10-a485-3d36483c5a8e" class="rules_svg_anchor rules_svg_shape"   href="/lms/chart?onclick=b3BlbkNoYXJ0Q29udGV4dE1lbnUoZXZlbnQsJ3cxMTZkNTIzNTk2NWMxNzA5M3Y0MDcxJywxODIzMiwgMSwgMSwgdGhpcywgd2luZG93LmZyYW1lRWxlbWVudCk=&amp;navigate=true&amp;details=Description">
			<g id="shape18-76" transform="translate(735.75,-891)">
				
				<desc>60 Inventory to deliver</desc>
				<rect x="0" y="1125" width="99" height="63" class="st8" />
				<text x="12.04" y="1152.9" class="st5">60 Inventory to <tspan x="32.82" dy="1.2em" class="st6">deliver</tspan>
				</text>
			</g>
		</a>
		<a id="a8543266-52d9-4e7b-8a43-09abce22b42e" class="rules_svg_anchor rules_svg_shape"   href="/lms/chart?onclick=b3BlbkNoYXJ0Q29udGV4dE1lbnUoZXZlbnQsJ3cxMTZkNTIzNTk2NWMxNzQxMnY0MDcxJywxODQ2MSwgMSwgMSwgdGhpcywgd2luZG93LmZyYW1lRWxlbWVudCk=&amp;navigate=true&amp;details=Description">
			<g id="shape19-80" transform="translate(735.75,-621)">
				
				<desc>90 Record to report</desc>
				<rect x="0" y="1125" width="99" height="63" class="st8" />
				<text x="18.34" y="1152.9" class="st5">90 Record to <tspan x="34" dy="1.2em" class="st6">report</tspan>
				</text>
			</g>
		</a>
		<g id="shape20-84" transform="translate(742.5,-544.5)">
			
			<desc>End</desc>
			<path d="M18 1188 L67.5 1188 A18 18 -180 0 0 67.5 1152 L18 1152 A18 18 -180 1 0 18 1188 Z" class="st7" />
			<text x="33.52" y="1173.6" class="st5">End</text>
		</g>
		<g id="shape21-87" transform="translate(54,-1102.5)">
			
			<path d="M0 1188 L-17.66 1188 L-17.66 1287 L9.32 1287" class="st9" />
		</g>
		<g id="shape22-93" transform="translate(54,-1102.5)">
			
			<path d="M0 1188 L-17.66 1188 L-17.66 1390.5 L11.56 1390.5" class="st9" />
		</g>
		<g id="shape23-98" transform="translate(54,-1102.5)">
			
			<path d="M0 1188 L-17.66 1188 L-17.66 1494 L11.57 1494" class="st9" />
		</g>
		<g id="shape24-103" transform="translate(54,-1102.5)">
			
			<path d="M0 1188 L-17.66 1188 L-17.66 1597.5 L11.57 1597.5" class="st9" />
		</g>
		<g id="shape25-108" transform="translate(348.75,-1071)">
			
			<path d="M9 1188 L9 1205.19" class="st9" />
		</g>
		<g id="shape26-113" transform="translate(348.75,-981)">
			
			<path d="M9 1188 L9 1205.19" class="st9" />
		</g>
		<g id="shape27-118" transform="translate(348.75,-801)">
			
			<path d="M9 1188 L9 1205.19" class="st9" />
		</g>
		<g id="shape28-123" transform="translate(348.75,-711)">
			
			<path d="M9 1188 L9 1205.19" class="st9" />
		</g>
		<g id="shape30-128" transform="translate(357.75,-621)">
			
			<path d="M0 1188 L0 1295.66 L367.09 1295.66 L367.09 1246.5 L374.94 1246.5" class="st9" />
		</g>
		<g id="shape31-133" transform="translate(420.75,-832.5)">
			
			<path d="M0 1188 L17.66 1188 L17.66 1008 L156.69 1008" class="st9" />
		</g>
		<g id="shape32-138" transform="translate(420.75,-832.5)">
			
			<path d="M0 1188 L17.66 1188 L17.66 1098 L156.69 1098" class="st9" />
		</g>
		<g id="shape33-143" transform="translate(420.75,-823.5)">
			
			<path d="M0 1179 L156.69 1179" class="st9" />
		</g>
		<g id="shape34-148" transform="translate(420.75,-832.5)">
			
			<path d="M0 1188 L148.84 1188 L148.84 1278 L156.69 1278" class="st9" />
		</g>
		<g id="shape35-153" transform="translate(420.75,-832.5)">
			
			<path d="M0 1188 L148.5 1188 L148.5 1368 L156.69 1368" class="st9" />
		</g>
		<g id="shape36-158" transform="translate(420.75,-832.5)">
			
			<path d="M0 1188 L148.41 1188 L148.41 1458 L156.69 1458" class="st9" />
		</g>
		<g id="shape37-163" transform="translate(686.25,-1012.5)">
			
			<path d="M0 1188 L99 1188 L99 1236.69" class="st9" />
		</g>
		<g id="shape38-168" transform="translate(686.25,-913.5)">
			
			<path d="M0 1179 L39.69 1179" class="st9" />
		</g>
		<g id="shape39-173" transform="translate(686.25,-832.5)">
			
			<path d="M0 1188 L99 1188 L99 1139.31" class="st9" />
		</g>
		<g id="shape40-178" transform="translate(686.25,-742.5)">
			
			<path d="M0 1188 L99 1188 L99 1049.31" class="st9" />
		</g>
		<g id="shape41-183" transform="translate(825.75,-922.5)">
			
			<path d="M9 1188 L26.66 1188 L26.66 1458 L18.81 1458" class="st9" />
		</g>
		<g id="shape42-188" transform="translate(776.25,-621)">
			
			<path d="M9 1188 L9 1218.69" class="st9" />
		</g>
		<g id="shape43-193" transform="translate(172.125,-1003.5)">
			
			<path d="M0 1188 L20 1188 L20 1269 L112.81 1269" class="st9" />
		</g>
		<g id="shape44-198" transform="translate(174.375,-900)">
			
			<path d="M0 1188 L17.66 1188 L17.66 1165.5 L110.57 1165.5" class="st9" />
		</g>
		<g id="shape45-203" transform="translate(174.375,-796.5)">
			
			<path d="M0 1188 L17.66 1188 L17.66 1062 L110.56 1062" class="st9" />
		</g>
		<g id="shape46-208" transform="translate(174.375,-693)">
			
			<path d="M0 1188 L17.66 1188 L17.66 958.5 L110.56 958.5" class="st9" />
		</g>
		<g id="shape47-213" transform="translate(139.5,-1093.5)">
			
			<path d="M0 1179 L145.44 1179" class="st9" />
		</g>
	</g>
</svg>
