<?xml version="1.0"?>
<svg xmlns="http://www.w3.org/2000/svg" xmlns:xlink="http://www.w3.org/1999/xlink" xmlns:ev="http://www.w3.org/2001/xml-events"    viewBox="10 18 870 756"    xml:space="preserve" color-interpolation-filters="sRGB" class="st17" width="2175" height="1890">
<rect x="0" y="0" width="2175" height="1890" fill="#ffffff" />
	<style type="text/css"><![CDATA[
		.st1 {fill:#f2f2f2;stroke:#0078d4;stroke-linecap:round;stroke-linejoin:round;stroke-width:0.24}
		.st2 {fill:#ffffff;stroke:#0078d4;stroke-linecap:round;stroke-linejoin:round;stroke-width:0.24}
		.st3 {fill:#000000;font-family:Calibri;font-size:1.00001em}
		.st4 {fill:#a0a0a0;stroke:none;stroke-linecap:round;stroke-linejoin:round;stroke-width:0.24}
		.st5 {fill:#0078d4;stroke:none;stroke-linecap:round;stroke-linejoin:round;stroke-width:0.24}
		.st6 {fill:#ffffff;font-family:Calibri;font-size:1.00001em}
		.st7 {font-size:1em}
		.st8 {fill:#ffffff}
		.st9 {stroke:#0078d4;stroke-linecap:round;stroke-linejoin:round;stroke-width:0.24}
		.st10 {marker-end:url(#mrkr13-111);stroke:#0078d4;stroke-linecap:round;stroke-linejoin:round;stroke-width:0.75}
		.st11 {fill:#0078d4;fill-opacity:1;stroke:#0078d4;stroke-opacity:1;stroke-width:0.22935779816514}
		.st12 {fill:#ffffff;stroke:none;stroke-linecap:butt;stroke-width:7.2}
		.st13 {fill:#000000;font-family:Calibri;font-size:0.666664em}
		.st14 {fill:#ffffff;stroke:none;stroke-linecap:butt}
		.st15 {fill:none;stroke:none;stroke-linecap:round;stroke-linejoin:round;stroke-width:0.75}
		.st16 {fill:#0078d4;font-family:Calibri;font-size:0.833336em;font-weight:bold}
		.st17 {fill:none;fill-rule:evenodd;font-size:12px;overflow:visible;stroke-linecap:square;stroke-miterlimit:3}
	]]></style><style> a { pointer-events: none; } </style><style>a.rules_svg_anchor g:hover { opacity:0.8; cursor:pointer; }</style>
	<defs id="Markers">
		<g id="lend13">
			<path d="M 3 1 L 0 0 L 3 -1 L 3 1 " style="stroke:none" />
		</g>
		<marker id="mrkr13-111" class="st11" refX="-13.08" orient="auto" markerUnits="strokeWidth" overflow="visible">
			<use xlink:href="#lend13" transform="scale(-4.36,-4.36) " />
		</marker>
	</defs>
	<g>
		
		<g id="shape65-1" transform="translate(171,-441)">
			
			<rect x="0" y="481.5" width="531" height="706.5" class="st1" />
		</g>
		<g id="shape1-3" transform="translate(54,-1134)">
			
			<desc>Start</desc>
			<path d="M18 1188 L67.5 1188 A18 18 -180 0 0 67.5 1152 L18 1152 A18 18 -180 1 0 18 1188 Z" class="st2" />
			<text x="31.01" y="1173.6" class="st3">Start</text>
		</g>
		<a id="a935412d-7647-4543-9400-ca789b8b212d" class="rules_svg_anchor rules_svg_shape"   href="/lms/chart?onclick=b3BlbkNoYXJ0Q29udGV4dE1lbnUoZXZlbnQsJ3cxMTZkNTIzNTk2NWMxNjk0NHY0MDcxJywxODA4MSwgMSwgMSwgdGhpcywgd2luZG93LmZyYW1lRWxlbWVudCk=&amp;navigate=true&amp;details=Description">
			<g id="shape2-6" transform="translate(47.25,-1044)">
				
				<desc>40 Design to retire</desc>
				<rect x="0" y="1125" width="99" height="63" class="st4" />
				<text x="4.26" y="1160.1" class="st3">40 Design to retire</text>
			</g>
		</a>
		<a id="83a6d623-ddb6-42f1-9bac-349ff3147f5f" class="rules_svg_anchor rules_svg_shape"   href="/lms/chart?onclick=b3BlbkNoYXJ0Q29udGV4dE1lbnUoZXZlbnQsJ3cxMTZkNTIzNTk2NWMxNjk1NnY0MDcxJywxODA5MCwgMSwgMSwgdGhpcywgd2luZG93LmZyYW1lRWxlbWVudCk=&amp;navigate=true&amp;details=Description">
			<g id="shape3-9" transform="translate(189,-1044)">
				
				<desc>40.20 Introduce products</desc>
				<rect x="0" y="1125" width="126" height="63" class="st5" />
				<text x="24.21" y="1152.9" class="st6">40.20 Introduce <tspan x="41.39" dy="1.2em" class="st7">products</tspan>
				</text>
			</g>
		</a>
		<a id="cd2eb178-c841-4530-8184-34b2713140dd" class="rules_svg_anchor rules_svg_shape"   href="/lms/chart?onclick=b3BlbkNoYXJ0Q29udGV4dE1lbnUoZXZlbnQsJ3cxMTZkNTIzNTk2NWMxNjk0NXY0MDcxJywxODA4MiwgMSwgMSwgdGhpcywgd2luZG93LmZyYW1lRWxlbWVudCk=&amp;navigate=true&amp;details=Description">
			<g id="shape5-13" transform="translate(47.25,-954)">
				
				<desc>40.10 Develop product strategy</desc>
				<rect x="0" y="1125" width="99" height="63" class="st5" />
				<text x="14.4" y="1152.9" class="st6">40.10 Develop <tspan x="9.03" dy="1.2em" class="st7">product strategy</tspan>
				</text>
			</g>
		</a>
		<a id="2506d33f-810e-4eb5-9ec6-6e66b4d81175" class="rules_svg_anchor rules_svg_shape"   href="/lms/chart?onclick=b3BlbkNoYXJ0Q29udGV4dE1lbnUoZXZlbnQsJ3cxMTZkNTIzNTk2NWMxNjk2MHY0MDcxJywxODA5MiwgMSwgMSwgdGhpcywgd2luZG93LmZyYW1lRWxlbWVudCk=&amp;navigate=true&amp;details=Description">
			<g id="shape6-17" transform="translate(189,-864)">
				
				<desc>40.20.040 Develop new products</desc>
				<path d="M0 1188 L126 1188 L126 1125 L0 1125 L0 1188 Z" class="st8" />
				<path d="M0 1188 L126 1188 L126 1125 L0 1125 L0 1188" class="st9" />
				<path d="M9 1188 L9 1125" class="st9" />
				<path d="M117 1188 L117 1125" class="st9" />
				<text x="17.26" y="1152.9" class="st3">40.20.040 Develop <tspan x="29.61" dy="1.2em" class="st7">new products</tspan>
				</text>
			</g>
		</a>
		<g id="shape7-24" transform="translate(202.5,-774)">
			
			<desc>Is manufactured?</desc>
			<path d="M0 1156.5 L49.5 1125 L99 1156.5 L49.5 1188 L0 1156.5 Z" class="st5" />
			<text x="45.64" y="1152.9" class="st6">Is <tspan x="12.11" dy="1.2em" class="st7">manufactured?</tspan>
			</text>
		</g>
		<g id="shape8-28" transform="translate(202.5,-684)">
			
			<desc>Is discrete?</desc>
			<path d="M0 1156.5 L49.5 1125 L99 1156.5 L49.5 1188 L0 1156.5 Z" class="st5" />
			<text x="22.02" y="1160.1" class="st6">Is discrete?</text>
		</g>
		<a id="ff7f7f1e-6ef0-42c2-a0c0-cead2f07aa43" class="rules_svg_anchor rules_svg_shape"   href="/lms/chart?onclick=b3BlbkNoYXJ0Q29udGV4dE1lbnUoZXZlbnQsJ3cxMTZkNTIzNTk2NWMxNjk2N3Y0MDcxJywxODA5NiwgMSwgMSwgdGhpcywgd2luZG93LmZyYW1lRWxlbWVudCk=&amp;navigate=true&amp;details=Description">
			<g id="shape9-31" transform="translate(189,-576)">
				
				<desc>40.20.110 Market test new products</desc>
				<path d="M0 1188 L126 1188 L126 1125 L0 1125 L0 1188 Z" class="st8" />
				<path d="M0 1188 L126 1188 L126 1125 L0 1125 L0 1188" class="st9" />
				<path d="M9 1188 L9 1125" class="st9" />
				<path d="M117 1188 L117 1125" class="st9" />
				<text x="19.51" y="1152.9" class="st3">40.20.110 Market <tspan x="18.9" dy="1.2em" class="st7">test new products</tspan>
				</text>
			</g>
		</a>
		<a id="095aa898-f077-4413-ae50-a70c87534025" class="rules_svg_anchor rules_svg_shape"   href="/lms/chart?onclick=b3BlbkNoYXJ0Q29udGV4dE1lbnUoZXZlbnQsJ3cxMTZkNTIzNTk2NWMxNjk1OHY0MDcxJywxODA5MSwgMSwgMSwgdGhpcywgd2luZG93LmZyYW1lRWxlbWVudCk=&amp;navigate=true&amp;details=Description">
			<g id="shape11-38" transform="translate(189,-954)">
				
				<desc>40.20.020 Research new products</desc>
				<path d="M0 1188 L126 1188 L126 1125 L0 1125 L0 1188 Z" class="st8" />
				<path d="M0 1188 L126 1188 L126 1125 L0 1125 L0 1188" class="st9" />
				<path d="M9 1188 L9 1125" class="st9" />
				<path d="M117 1188 L117 1125" class="st9" />
				<text x="15.1" y="1152.9" class="st3">40.20.020 Research <tspan x="29.61" dy="1.2em" class="st7">new products</tspan>
				</text>
			</g>
		</a>
		<a id="a2e3ec24-1fe6-4c33-ae1d-8fa58ebc7227" class="rules_svg_anchor rules_svg_shape"   href="/lms/chart?onclick=b3BlbkNoYXJ0Q29udGV4dE1lbnUoZXZlbnQsJ3cxMTZkNTIzNTk2NWM3OTg1MnY0MDcxJywxODA5MywgMSwgMSwgdGhpcywgd2luZG93LmZyYW1lRWxlbWVudCk=&amp;navigate=true&amp;details=Description">
			<g id="shape13-45" transform="translate(357.75,-864)">
				
				<desc>40.20.050 Set product prices</desc>
				<path d="M0 1188 L126 1188 L126 1125 L0 1125 L0 1188 Z" class="st8" />
				<path d="M0 1188 L126 1188 L126 1125 L0 1125 L0 1188" class="st9" />
				<path d="M9 1188 L9 1125" class="st9" />
				<path d="M117 1188 L117 1125" class="st9" />
				<text x="29.58" y="1152.9" class="st3">40.20.050 Set <tspan x="27.89" dy="1.2em" class="st7">product prices</tspan>
				</text>
			</g>
		</a>
		<a id="a51aed64-f7b6-4959-a169-bf76fba4e2da" class="rules_svg_anchor rules_svg_shape"   href="/lms/chart?onclick=b3BlbkNoYXJ0Q29udGV4dE1lbnUoZXZlbnQsJ3cxMTZkNTIzNTk2NWMxNjk2NXY0MDcxJywxODA5NSwgMSwgMSwgdGhpcywgd2luZG93LmZyYW1lRWxlbWVudCk=&amp;navigate=true&amp;details=Description">
			<g id="shape15-52" transform="translate(387,-774)">
				
				<desc>40.20.090 Design formulas</desc>
				<path d="M0 1188 L126 1188 L126 1125 L0 1125 L0 1188 Z" class="st8" />
				<path d="M0 1188 L126 1188 L126 1125 L0 1125 L0 1188" class="st9" />
				<path d="M9 1188 L9 1125" class="st9" />
				<path d="M117 1188 L117 1125" class="st9" />
				<text x="20.95" y="1152.9" class="st3">40.20.090 Design <tspan x="41.37" dy="1.2em" class="st7">formulas</tspan>
				</text>
			</g>
		</a>
		<a id="87e1067a-af9d-4df6-8352-3d9413e6ad11" class="rules_svg_anchor rules_svg_shape"   href="/lms/chart?onclick=b3BlbkNoYXJ0Q29udGV4dE1lbnUoZXZlbnQsJ3cxMTZkNTIzNTk2NWMxNjk2NHY0MDcxJywxODA5NCwgMSwgMSwgdGhpcywgd2luZG93LmZyYW1lRWxlbWVudCk=&amp;navigate=true&amp;details=Description">
			<g id="shape16-59" transform="translate(387,-684)">
				
				<desc>40.20.080 Design bills of materials</desc>
				<path d="M0 1188 L126 1188 L126 1125 L0 1125 L0 1188 Z" class="st8" />
				<path d="M0 1188 L126 1188 L126 1125 L0 1125 L0 1188" class="st9" />
				<path d="M9 1188 L9 1125" class="st9" />
				<path d="M117 1188 L117 1125" class="st9" />
				<text x="20.95" y="1152.9" class="st3">40.20.080 Design <tspan x="22.93" dy="1.2em" class="st7">bills of materials</tspan>
				</text>
			</g>
		</a>
		<a id="60a549f6-26e2-4cf9-b880-50ac18ab71d6" class="rules_svg_anchor rules_svg_shape"   href="/lms/chart?onclick=b3BlbkNoYXJ0Q29udGV4dE1lbnUoZXZlbnQsJ3cxMTZkNTIzNTk2NWMxNjk2OHY0MDcxJywxODA5NywgMSwgMSwgdGhpcywgd2luZG93LmZyYW1lRWxlbWVudCk=&amp;navigate=true&amp;details=Description">
			<g id="shape18-66" transform="translate(360,-576)">
				
				<desc>40.20.115 Launch new products</desc>
				<path d="M0 1188 L126 1188 L126 1125 L0 1125 L0 1188 Z" class="st8" />
				<path d="M0 1188 L126 1188 L126 1125 L0 1125 L0 1188" class="st9" />
				<path d="M9 1188 L9 1125" class="st9" />
				<path d="M117 1188 L117 1125" class="st9" />
				<text x="19.94" y="1152.9" class="st3">40.20.115 Launch <tspan x="29.61" dy="1.2em" class="st7">new products</tspan>
				</text>
			</g>
		</a>
		<g id="shape22-73" transform="translate(742.5,-477)">
			
			<desc>85.10 Run marketing campaigns</desc>
			<rect x="0" y="1125" width="99" height="63" class="st5" />
			<text x="24.9" y="1145.7" class="st6">85.10 Run <tspan x="24.66" dy="1.2em" class="st7">marketing </tspan>
				<tspan x="23.57" dy="1.2em" class="st7">campaigns</tspan>
			</text>
		</g>
		<a id="6d0f5828-f33b-41f1-b870-d442ffd3c416" class="rules_svg_anchor rules_svg_shape"   href="/lms/chart?onclick=b3BlbkNoYXJ0Q29udGV4dE1lbnUoZXZlbnQsJ3cxMTZkNTIzNTk2NWMxNzM3NnY0MDcxJywxODQ1NSwgMSwgMSwgdGhpcywgd2luZG93LmZyYW1lRWxlbWVudCk=&amp;navigate=true&amp;details=Description">
			<g id="shape23-78" transform="translate(742.5,-567)">
				
				<desc>85 Prospect to quote</desc>
				<rect x="0" y="1125" width="99" height="63" class="st4" />
				<text x="14.14" y="1152.9" class="st3">85 Prospect to <tspan x="35.04" dy="1.2em" class="st7">quote</tspan>
				</text>
			</g>
		</a>
		<a id="d557a78f-2bec-46a7-bbab-c2d34a86d072" class="rules_svg_anchor rules_svg_shape"   href="/lms/chart?onclick=b3BlbkNoYXJ0Q29udGV4dE1lbnUoZXZlbnQsJ3cxMTZkNTIzNTk2NWMxNjk4M3Y0MDcxJywxODA5OCwgMSwgMSwgdGhpcywgd2luZG93LmZyYW1lRWxlbWVudCk=&amp;navigate=true&amp;details=Description">
			<g id="shape24-82" transform="translate(742.5,-657)">
				
				<desc>40.50 Manage active products</desc>
				<rect x="0" y="1125" width="99" height="63" class="st5" />
				<text x="14.62" y="1152.9" class="st6">40.50 Manage <tspan x="12.04" dy="1.2em" class="st7">active products</tspan>
				</text>
			</g>
		</a>
		<g id="shape25-86" transform="translate(742.5,-747)">
			
			<desc>40.30 Manage product pricing</desc>
			<rect x="0" y="1125" width="99" height="63" class="st5" />
			<text x="14.62" y="1152.9" class="st6">40.30 Manage <tspan x="12.37" dy="1.2em" class="st7">product pricing</tspan>
			</text>
		</g>
		<g id="shape26-90" transform="translate(742.5,-837)">
			
			<desc>40.40 Define product costing</desc>
			<rect x="0" y="1125" width="99" height="63" class="st5" />
			<text x="18.44" y="1152.9" class="st6">40.40 Define <tspan x="11.47" dy="1.2em" class="st7">product costing</tspan>
			</text>
		</g>
		<a id="48611792-b337-4e6f-94f8-8eb783ea28c6" class="rules_svg_anchor rules_svg_shape"   href="/lms/chart?onclick=b3BlbkNoYXJ0Q29udGV4dE1lbnUoZXZlbnQsJ3cxMTZkNTIzNTk2NWMxNjk0NHY0MDcxJywxODA4MSwgMSwgMSwgdGhpcywgd2luZG93LmZyYW1lRWxlbWVudCk=&amp;navigate=true&amp;details=Description">
			<g id="shape27-94" transform="translate(742.5,-927)">
				
				<desc>40 Design to retire</desc>
				<rect x="0" y="1125" width="99" height="63" class="st4" />
				<text x="4.26" y="1160.1" class="st3">40 Design to retire</text>
			</g>
		</a>
		<g id="shape28-97" transform="translate(749.25,-414)">
			
			<desc>End</desc>
			<path d="M18 1188 L67.5 1188 A18 18 -180 0 0 67.5 1152 L18 1152 A18 18 -180 1 0 18 1188 Z" class="st2" />
			<text x="33.52" y="1173.6" class="st3">End</text>
		</g>
		<a id="3655b40d-9e69-4796-a4e6-a9cb514c4278" class="rules_svg_anchor rules_svg_shape"   href="/lms/chart?onclick=b3BlbkNoYXJ0Q29udGV4dE1lbnUoZXZlbnQsJ3cxMTZkNTIzNTk2NWMxNzIzMHY0MDcxJywxODMyNywgMSwgMSwgdGhpcywgd2luZG93LmZyYW1lRWxlbWVudCk=&amp;navigate=true&amp;details=Description">
			<g id="shape29-100" transform="translate(47.25,-612)">
				
				<desc>70 Plan to produce</desc>
				<rect x="0" y="1125" width="99" height="63" class="st4" />
				<text x="3.44" y="1160.1" class="st3">70 Plan to produce</text>
			</g>
		</a>
		<a id="1ea9d617-54b3-4cdf-b18b-d22c4dc9aa89" class="rules_svg_anchor rules_svg_shape"   href="/lms/chart?onclick=b3BlbkNoYXJ0Q29udGV4dE1lbnUoZXZlbnQsJ3cxMTZkNTIzNTk2NWMxNzI2OXY0MDcxJywxODM2MywgMSwgMSwgdGhpcywgd2luZG93LmZyYW1lRWxlbWVudCk=&amp;navigate=true&amp;details=Description">
			<g id="shape30-103" transform="translate(47.25,-522)">
				
				<desc>75 Source to pay</desc>
				<rect x="0" y="1125" width="99" height="63" class="st4" />
				<text x="8.74" y="1160.1" class="st3">75 Source to pay</text>
			</g>
		</a>
		<g id="shape31-106" transform="translate(87.75,-1134)">
			
			<path d="M9 1188 L9 1205.19" class="st10" />
		</g>
		<g id="shape32-112" transform="translate(87.75,-1044)">
			
			<path d="M9 1188 L9 1205.19" class="st10" />
		</g>
		<g id="shape33-117" transform="translate(146.25,-985.5)">
			
			<path d="M0 1188 L17.66 1188 L17.66 1098 L32.94 1098" class="st10" />
		</g>
		<g id="shape34-122" transform="translate(59.625,-1152)">
			
			<path d="M-5.62 1188 L-30.03 1188 L-30.03 1696.5 L-22.19 1696.5" class="st10" />
		</g>
		<g id="shape35-127" transform="translate(59.625,-1152)">
			
			<path d="M-5.62 1188 L-30.03 1188 L-30.03 1786.5 L-22.19 1786.5" class="st10" />
		</g>
		<g id="shape36-132" transform="translate(243,-1044)">
			
			<path d="M9 1188 L9 1205.19" class="st10" />
		</g>
		<g id="shape39-137" transform="translate(243,-954)">
			
			<path d="M9 1188 L9 1205.19" class="st10" />
		</g>
		<g id="shape40-142" transform="translate(315,-886.5)">
			
			<path d="M0 1179 L32.94 1179" class="st10" />
		</g>
		<g id="shape42-147" transform="translate(420.75,-864)">
			
			<path d="M0 1188 L0 1196.83 L-168.75 1196.83 L-168.75 1205.19" class="st10" />
		</g>
		<g id="shape43-152" transform="translate(243,-774)">
			
			<desc>Yes</desc>
			<path d="M9 1188 L9 1205.19" class="st10" />
			<rect x="3.49619" y="1196.7" width="11.0078" height="9.59985" class="st12" />
			<text x="3.5" y="1203.9" class="st13">Yes</text>
		</g>
		<g id="shape44-159" transform="translate(301.5,-715.5)">
			
			<desc>No</desc>
			<path d="M0 1188 L17.66 1188 L17.66 1098 L75.69 1098" class="st10" />
			<rect x="12.9666" y="1113.11" width="9.38287" height="9.59985" class="st12" />
			<text x="12.97" y="1120.31" class="st13">No</text>
		</g>
		<g id="shape45-166" transform="translate(301.5,-724.5)">
			
			<desc>Yes</desc>
			<path d="M0 1197 L75.69 1197" class="st10" />
			<rect x="37.2462" y="1192.2" width="11.0078" height="9.59985" class="st12" />
			<text x="37.25" y="1199.4" class="st13">Yes</text>
		</g>
		<g id="shape46-173" transform="translate(513,-805.5)">
			
			<path d="M0 1188 L17.66 1188 L17.66 1336.84 L-261 1336.84 L-261 1344.69" class="st10" />
		</g>
		<g id="shape47-178" transform="translate(513,-715.5)">
			
			<path d="M0 1188 L17.66 1188 L17.66 1246.84 L-261 1246.84 L-261 1254.69" class="st10" />
		</g>
		<g id="shape49-183" transform="translate(202.5,-805.5)">
			
			<desc>No</desc>
			<path d="M0 1188 L-22.5 1188 L-22.5 1336.5 L49.5 1336.5 L49.5 1344.69" class="st10" />
			<rect x="-27.1914" y="1291.2" width="9.38287" height="9.59985" class="st14" />
			<text x="-27.19" y="1298.4" class="st13">No</text>
		</g>
		<g id="shape50-190" transform="translate(315,-598.5)">
			
			<path d="M0 1179 L35.19 1179" class="st10" />
		</g>
		<g id="shape56-195" transform="translate(423,-576)">
			
			<path d="M0 1188 L0 1332 L316.44 1332" class="st10" />
		</g>
		<g id="shape57-200" transform="translate(783,-567)">
			
			<path d="M9 1188 L9 1205.19" class="st10" />
		</g>
		<g id="shape58-205" transform="translate(783,-927)">
			
			<path d="M9 1188 L9 1205.19" class="st10" />
		</g>
		<g id="shape59-210" transform="translate(783,-837)">
			
			<path d="M9 1188 L9 1205.19" class="st10" />
		</g>
		<g id="shape60-215" transform="translate(783,-747)">
			
			<path d="M9 1188 L9 1205.19" class="st10" />
		</g>
		<g id="shape61-220" transform="translate(847.125,-868.5)">
			
			<path d="M-5.62 1188 L12.03 1188 L12.03 1624.5 L-2.57 1624.5" class="st10" />
		</g>
		<g id="shape62-225" transform="translate(847.125,-778.5)">
			
			<path d="M-5.62 1188 L12.03 1188 L12.03 1534.5 L-2.57 1534.5" class="st10" />
		</g>
		<g id="shape63-230" transform="translate(847.125,-688.5)">
			
			<path d="M-5.62 1188 L12.03 1188 L12.03 1444.5 L-2.57 1444.5" class="st10" />
		</g>
		<g id="shape64-235" transform="translate(847.125,-508.5)">
			
			<path d="M-5.62 1188 L12.03 1188 L12.03 1264.5 L-2.57 1264.5" class="st10" />
		</g>
		<g id="shape66-240" transform="translate(171,-1107)">
			
			<desc>Business process area</desc>
			<rect x="0" y="1147.5" width="297" height="40.5" class="st15" />
			<text x="4" y="1170.75" class="st16">Business process area</text>
		</g>
		<g id="shape67-243" transform="translate(146.25,-643.5)">
			
			<path d="M0 1188 L17.66 1188 L17.66 1224 L32.94 1224" class="st10" />
		</g>
		<g id="shape68-248" transform="translate(146.25,-553.5)">
			
			<path d="M0 1188 L17.66 1188 L17.66 1134 L32.94 1134" class="st10" />
		</g>
	</g>
</svg>
