<?xml version="1.0"?>
<svg xmlns="http://www.w3.org/2000/svg" xmlns:xlink="http://www.w3.org/1999/xlink" xmlns:ev="http://www.w3.org/2001/xml-events"    viewBox="1 45 747 638"    xml:space="preserve" color-interpolation-filters="sRGB" class="st15" width="1868" height="1595">
<rect x="0" y="0" width="1868" height="1595" fill="#ffffff" />
	<style type="text/css"><![CDATA[
		.st1 {fill:#f2f2f2;stroke:none;stroke-linecap:round;stroke-linejoin:round;stroke-width:0.75}
		.st2 {fill:#ffffff;stroke:#0078d4;stroke-linecap:round;stroke-linejoin:round;stroke-width:0.24}
		.st3 {fill:#000000;font-family:Calibri;font-size:1.00001em}
		.st4 {fill:#a0a0a0;stroke:none;stroke-linecap:round;stroke-linejoin:round;stroke-width:0.24}
		.st5 {font-size:1em}
		.st6 {fill:#ffffff}
		.st7 {stroke:#0078d4;stroke-linecap:round;stroke-linejoin:round;stroke-width:0.24}
		.st8 {fill:#0078d4;stroke:none;stroke-linecap:round;stroke-linejoin:round;stroke-width:0.24}
		.st9 {fill:#ffffff;font-family:Calibri;font-size:1.00001em}
		.st10 {marker-end:url(#mrkr13-95);stroke:#0078d4;stroke-linecap:round;stroke-linejoin:round;stroke-width:0.75}
		.st11 {fill:#0078d4;fill-opacity:1;stroke:#0078d4;stroke-opacity:1;stroke-width:0.22935779816514}
		.st12 {marker-end:url(#mrkr13-109);stroke:#0078d4;stroke-linecap:round;stroke-linejoin:round;stroke-width:0.75}
		.st13 {fill:none;stroke:none;stroke-linecap:round;stroke-linejoin:round;stroke-width:0.75}
		.st14 {fill:#0070c0;font-family:Calibri;font-size:1.00001em;font-weight:bold}
		.st15 {fill:none;fill-rule:evenodd;font-size:12px;overflow:visible;stroke-linecap:square;stroke-miterlimit:3}
	]]></style><style> a { pointer-events: none; } </style><style>a.rules_svg_anchor g:hover { opacity:0.8; cursor:pointer; }</style>
	<defs id="Markers">
		<g id="lend13">
			<path d="M 3 1 L 0 0 L 3 -1 L 3 1 " style="stroke:none" />
		</g>
		<marker id="mrkr13-95" class="st11" refX="-0" orient="auto" markerUnits="strokeWidth" overflow="visible">
			<use xlink:href="#lend13" transform="scale(-4.36,-4.36) " />
		</marker>
		<marker id="mrkr13-109" class="st11" refX="-13.08" orient="auto" markerUnits="strokeWidth" overflow="visible">
			<use xlink:href="#lend13" transform="scale(-4.36,-4.36) " />
		</marker>
	</defs>
	<g>
		
		<g id="shape34-1" transform="translate(288,-505.125)">
			
			<rect x="0" y="559.125" width="315" height="628.875" class="st1" />
		</g>
		<g id="shape1-3" transform="translate(45,-1107)">
			
			<desc>Start</desc>
			<path d="M18 1188 L67.5 1188 A18 18 -180 0 0 67.5 1152 L18 1152 A18 18 -180 1 0 18 1188 Z" class="st2" />
			<text x="31.01" y="1173.6" class="st3">Start</text>
		</g>
		<a id="0c1c5adc-4c52-4225-b072-495befbbec8f" class="rules_svg_anchor rules_svg_shape"   href="/lms/chart?onclick=b3BlbkNoYXJ0Q29udGV4dE1lbnUoZXZlbnQsJ3cxMTZkNTIzNTk2NWMxNzIzMHY0MDcxJywxODMyNywgMSwgMSwgdGhpcywgd2luZG93LmZyYW1lRWxlbWVudCk=&amp;navigate=true&amp;details=Description">
			<g id="shape2-6" transform="translate(38.25,-1017)">
				
				<desc>70 Plan to produce</desc>
				<rect x="0" y="1125" width="99" height="63" class="st4" />
				<text x="3.44" y="1160.1" class="st3">70 Plan to produce</text>
			</g>
		</a>
		<a id="2effbc45-060f-4ee9-948e-6f26883b79d5" class="rules_svg_anchor rules_svg_shape"   href="/lms/chart?onclick=b3BlbkNoYXJ0Q29udGV4dE1lbnUoZXZlbnQsJ3cxMTZkNTIzNTk2NWMxNzA5M3Y0MDcxJywxODIzMiwgMSwgMSwgdGhpcywgd2luZG93LmZyYW1lRWxlbWVudCk=&amp;navigate=true&amp;details=Description">
			<g id="shape3-9" transform="translate(38.25,-742.5)">
				
				<desc>60 Inventory to deliver</desc>
				<rect x="0" y="1125" width="99" height="63" class="st4" />
				<text x="12.04" y="1152.9" class="st3">60 Inventory to <tspan x="32.82" dy="1.2em" class="st5">deliver</tspan>
				</text>
			</g>
		</a>
		<a id="795d33bd-055f-4f7d-9689-698ce16eb7d0" class="rules_svg_anchor rules_svg_shape"   href="/lms/chart?onclick=b3BlbkNoYXJ0Q29udGV4dE1lbnUoZXZlbnQsJ3cxMTZkNTIzNTk2NWMxNzIzOHY0MDcxJywxODMzNCwgMSwgMSwgdGhpcywgd2luZG93LmZyYW1lRWxlbWVudCk=&amp;navigate=true&amp;details=Description">
			<g id="shape4-13" transform="translate(150.75,-1017)">
				
				<desc>70.20 Plan production operations</desc>
				<path d="M0 1188 L99 1188 L99 1125 L0 1125 L0 1188 Z" class="st6" />
				<path d="M0 1188 L99 1188 L99 1125 L0 1125 L0 1188" class="st7" />
				<path d="M9 1188 L9 1125" class="st7" />
				<path d="M90 1188 L90 1125" class="st7" />
				<text x="23.96" y="1145.7" class="st3">70.20 Plan <tspan x="22.55" dy="1.2em" class="st5">production </tspan>
					<tspan x="23.18" dy="1.2em" class="st5">operations</tspan>
				</text>
			</g>
		</a>
		<a id="90543547-36dc-446a-878a-ee8b224ad6f9" class="rules_svg_anchor rules_svg_shape"   href="/lms/chart?onclick=b3BlbkNoYXJ0Q29udGV4dE1lbnUoZXZlbnQsJ3cxMTZkNTIzNTk2NWMxNzI0M3Y0MDcxJywxODM0MCwgMSwgMSwgdGhpcywgd2luZG93LmZyYW1lRWxlbWVudCk=&amp;navigate=true&amp;details=Description">
			<g id="shape6-21" transform="translate(310.5,-1017)">
				
				<desc>70.30 Run production operations</desc>
				<rect x="0" y="1125" width="126" height="63" class="st8" />
				<text x="10.09" y="1152.9" class="st9">70.30 Run production <tspan x="36.68" dy="1.2em" class="st5">operations</tspan>
				</text>
			</g>
		</a>
		<a id="18d04626-a183-4e45-9575-cd86ddee9424" class="rules_svg_anchor rules_svg_shape"   href="/lms/chart?onclick=b3BlbkNoYXJ0Q29udGV4dE1lbnUoZXZlbnQsJ3cxMTZkNTIzNTk2NWMxNzI0NHY0MDcxJywxODM0MSwgMSwgMSwgdGhpcywgd2luZG93LmZyYW1lRWxlbWVudCk=&amp;navigate=true&amp;details=Description">
			<g id="shape7-25" transform="translate(310.5,-927)">
				
				<desc>70.30.010 Start production</desc>
				<path d="M0 1188 L126 1188 L126 1125 L0 1125 L0 1188 Z" class="st6" />
				<path d="M0 1188 L126 1188 L126 1125 L0 1125 L0 1188" class="st7" />
				<path d="M9 1188 L9 1125" class="st7" />
				<path d="M117 1188 L117 1125" class="st7" />
				<text x="25.58" y="1152.9" class="st3">70.30.010 Start <tspan x="36.05" dy="1.2em" class="st5">production</tspan>
				</text>
			</g>
		</a>
		<a id="5a421233-4600-4a33-af12-ba612ef4912b" class="rules_svg_anchor rules_svg_shape"   href="/lms/chart?onclick=b3BlbkNoYXJ0Q29udGV4dE1lbnUoZXZlbnQsJ3cxMTZkNTIzNTk2NWMxNzI0NXY0MDcxJywxODM0MiwgMSwgMSwgdGhpcywgd2luZG93LmZyYW1lRWxlbWVudCk=&amp;navigate=true&amp;details=Description">
			<g id="shape8-32" transform="translate(463.5,-927)">
				
				<desc>70.30.020 Adjust production plan</desc>
				<path d="M0 1188 L126 1188 L126 1125 L0 1125 L0 1188 Z" class="st6" />
				<path d="M0 1188 L126 1188 L126 1125 L0 1125 L0 1188" class="st7" />
				<path d="M9 1188 L9 1125" class="st7" />
				<path d="M117 1188 L117 1125" class="st7" />
				<text x="21.76" y="1152.9" class="st3">70.30.020 Adjust <tspan x="24.13" dy="1.2em" class="st5">production plan</tspan>
				</text>
			</g>
		</a>
		<a id="68386402-d35b-48a8-a249-e306a14c338a" class="rules_svg_anchor rules_svg_shape"   href="/lms/chart?onclick=b3BlbkNoYXJ0Q29udGV4dE1lbnUoZXZlbnQsJ3cxMTZkNTIzNTk2NWMxNzI0NnY0MDcxJywxODM0MywgMSwgMSwgdGhpcywgd2luZG93LmZyYW1lRWxlbWVudCk=&amp;navigate=true&amp;details=Description">
			<g id="shape9-39" transform="translate(310.5,-837)">
				
				<desc>70.30.030 Consume materials</desc>
				<path d="M0 1188 L126 1188 L126 1125 L0 1125 L0 1188 Z" class="st6" />
				<path d="M0 1188 L126 1188 L126 1125 L0 1125 L0 1188" class="st7" />
				<path d="M9 1188 L9 1125" class="st7" />
				<path d="M117 1188 L117 1125" class="st7" />
				<text x="14.53" y="1152.9" class="st3">70.30.030 Consume <tspan x="40.27" dy="1.2em" class="st5">materials</tspan>
				</text>
			</g>
		</a>
		<a id="f3eb923e-2c70-49e8-8939-92c8820ed45f" class="rules_svg_anchor rules_svg_shape"   href="/lms/chart?onclick=b3BlbkNoYXJ0Q29udGV4dE1lbnUoZXZlbnQsJ3cxMTZkNTIzNTk2NWMxNzI0N3Y0MDcxJywxODM0NCwgMSwgMSwgdGhpcywgd2luZG93LmZyYW1lRWxlbWVudCk=&amp;navigate=true&amp;details=Description">
			<g id="shape10-46" transform="translate(310.5,-742.5)">
				
				<desc>70.30.040 Consume resources</desc>
				<path d="M0 1188 L126 1188 L126 1125 L0 1125 L0 1188 Z" class="st6" />
				<path d="M0 1188 L126 1188 L126 1125 L0 1125 L0 1188" class="st7" />
				<path d="M9 1188 L9 1125" class="st7" />
				<path d="M117 1188 L117 1125" class="st7" />
				<text x="14.53" y="1152.9" class="st3">70.30.040 Consume <tspan x="39.3" dy="1.2em" class="st5">resources</tspan>
				</text>
			</g>
		</a>
		<a id="fa0a09c9-1300-4cb8-bc4c-ace9e72ccd80" class="rules_svg_anchor rules_svg_shape"   href="/lms/chart?onclick=b3BlbkNoYXJ0Q29udGV4dE1lbnUoZXZlbnQsJ3cxMTZkNTIzNTk2NWMxNzI0OHY0MDcxJywxODM0NSwgMSwgMSwgdGhpcywgd2luZG93LmZyYW1lRWxlbWVudCk=&amp;navigate=true&amp;details=Description">
			<g id="shape11-53" transform="translate(310.5,-648)">
				
				<desc>70.30.050 Report production output</desc>
				<path d="M0 1188 L126 1188 L126 1125 L0 1125 L0 1188 Z" class="st6" />
				<path d="M0 1188 L126 1188 L126 1125 L0 1125 L0 1188" class="st7" />
				<path d="M9 1188 L9 1125" class="st7" />
				<path d="M117 1188 L117 1125" class="st7" />
				<text x="20.67" y="1152.9" class="st3">70.30.050 Report <tspan x="18.05" dy="1.2em" class="st5">production output</tspan>
				</text>
			</g>
		</a>
		<a id="2240d5af-43aa-4248-aaf6-66b206f884b9" class="rules_svg_anchor rules_svg_shape"   href="/lms/chart?onclick=b3BlbkNoYXJ0Q29udGV4dE1lbnUoZXZlbnQsJ3cxMTZkNTIzNTk2NWM1NDU4NXY0MDcxJywxODM0NiwgMSwgMSwgdGhpcywgd2luZG93LmZyYW1lRWxlbWVudCk=&amp;navigate=true&amp;details=Description">
			<g id="shape12-60" transform="translate(310.5,-553.5)">
				
				<desc>70.30.060 Subcontract production</desc>
				<path d="M0 1188 L126 1188 L126 1125 L0 1125 L0 1188 Z" class="st6" />
				<path d="M0 1188 L126 1188 L126 1125 L0 1125 L0 1188" class="st7" />
				<path d="M9 1188 L9 1125" class="st7" />
				<path d="M117 1188 L117 1125" class="st7" />
				<text x="38.68" y="1145.7" class="st3">70.30.060 <tspan x="33.56" dy="1.2em" class="st5">Subcontract </tspan>
					<tspan x="36.05" dy="1.2em" class="st5">production</tspan>
				</text>
			</g>
		</a>
		<a id="a59c4c84-c28b-4220-9b13-cfc01e78c399" class="rules_svg_anchor rules_svg_shape"   href="/lms/chart?onclick=b3BlbkNoYXJ0Q29udGV4dE1lbnUoZXZlbnQsJ3cxMTZkNTIzNTk2NWM1NDY3N3Y0MDcxJywxODM0NywgMSwgMSwgdGhpcywgd2luZG93LmZyYW1lRWxlbWVudCk=&amp;navigate=true&amp;details=Description">
			<g id="shape13-68" transform="translate(463.5,-742.5)">
				
				<desc>70.30.070 Record production costs</desc>
				<path d="M0 1188 L126 1188 L126 1125 L0 1125 L0 1188 Z" class="st6" />
				<path d="M0 1188 L126 1188 L126 1125 L0 1125 L0 1188" class="st7" />
				<path d="M9 1188 L9 1125" class="st7" />
				<path d="M117 1188 L117 1125" class="st7" />
				<text x="20.14" y="1152.9" class="st3">70.30.070 Record <tspan x="22.29" dy="1.2em" class="st5">production costs</tspan>
				</text>
			</g>
		</a>
		<a id="3cbddd1b-510c-47a1-a04a-6f23a11c1d52" class="rules_svg_anchor rules_svg_shape"   href="/lms/chart?onclick=b3BlbkNoYXJ0Q29udGV4dE1lbnUoZXZlbnQsJ3cxMTZkNTIzNTk2NWMxNzExNHY0MDcxJywxODI1MSwgMSwgMSwgdGhpcywgd2luZG93LmZyYW1lRWxlbWVudCk=&amp;navigate=true&amp;details=Description">
			<g id="shape14-75" transform="translate(150.75,-693)">
				
				<desc>60.40 Process outbound goods</desc>
				<path d="M0 1188 L99 1188 L99 1125 L0 1125 L0 1188 Z" class="st6" />
				<path d="M0 1188 L99 1188 L99 1125 L0 1125 L0 1188" class="st7" />
				<path d="M9 1188 L9 1125" class="st7" />
				<path d="M90 1188 L90 1125" class="st7" />
				<text x="15.89" y="1145.7" class="st3">60.40 Process <tspan x="25.4" dy="1.2em" class="st5">outbound </tspan>
					<tspan x="34.85" dy="1.2em" class="st5">goods</tspan>
				</text>
			</g>
		</a>
		<a id="2c7cdcc2-804e-44dc-b513-a5e85a329ae7" class="rules_svg_anchor rules_svg_shape"   href="/lms/chart?onclick=b3BlbkNoYXJ0Q29udGV4dE1lbnUoZXZlbnQsJ3cxMTZkNTIzNTk2NWMxNzEwOHY0MDcxJywxODI0NSwgMSwgMSwgdGhpcywgd2luZG93LmZyYW1lRWxlbWVudCk=&amp;navigate=true&amp;details=Description">
			<g id="shape15-83" transform="translate(150.75,-792)">
				
				<desc>60.30 Process inbound goods</desc>
				<path d="M0 1188 L99 1188 L99 1125 L0 1125 L0 1188 Z" class="st6" />
				<path d="M0 1188 L99 1188 L99 1125 L0 1125 L0 1188" class="st7" />
				<path d="M9 1188 L9 1125" class="st7" />
				<path d="M90 1188 L90 1125" class="st7" />
				<text x="15.89" y="1152.9" class="st3">60.30 Process <tspan x="13.19" dy="1.2em" class="st5">inbound goods</tspan>
				</text>
			</g>
		</a>
		<g id="shape16-90" transform="translate(135,-774)">
			
			<path d="M2.25 1188 L6.66 1188 L6.66 1138.5 L15.75 1138.5" class="st10" />
		</g>
		<g id="shape17-96" transform="translate(135,-774)">
			
			<path d="M2.25 1188 L6.66 1188 L6.66 1237.5 L15.75 1237.5" class="st10" />
		</g>
		<g id="shape18-101" transform="translate(483.75,-567)">
			
			<desc>End</desc>
			<path d="M18 1188 L67.5 1188 A18 18 -180 0 0 67.5 1152 L18 1152 A18 18 -180 1 0 18 1188 Z" class="st2" />
			<text x="33.52" y="1173.6" class="st3">End</text>
		</g>
		<g id="shape19-104" transform="translate(135,-1039.5)">
			
			<path d="M2.25 1179 L5.94 1179" class="st12" />
		</g>
		<g id="shape20-110" transform="translate(50.625,-1125)">
			
			<path d="M-5.62 1188 L-30.03 1188 L-30.03 1539 L-22.19 1539" class="st12" />
		</g>
		<g id="shape21-115" transform="translate(78.75,-1107)">
			
			<path d="M9 1188 L9 1205.19" class="st12" />
		</g>
		<g id="shape22-120" transform="translate(249.75,-1039.5)">
			
			<path d="M0 1179 L50.94 1179" class="st12" />
		</g>
		<g id="shape23-125" transform="translate(526.5,-990)">
			
			<path d="M0 1188 L0 1080.34 L-326.25 1080.34 L-326.25 1088.19" class="st12" />
		</g>
		<g id="shape25-130" transform="translate(382.5,-1017)">
			
			<path d="M-9 1188 L-9 1205.19" class="st12" />
		</g>
		<g id="shape26-135" transform="translate(364.5,-927)">
			
			<path d="M9 1188 L9 1205.19" class="st12" />
		</g>
		<g id="shape27-140" transform="translate(364.5,-837)">
			
			<path d="M9 1188 L9 1209.69" class="st12" />
		</g>
		<g id="shape28-145" transform="translate(364.5,-742.5)">
			
			<path d="M9 1188 L9 1209.69" class="st12" />
		</g>
		<g id="shape29-150" transform="translate(436.5,-949.5)">
			
			<path d="M0 1179 L17.19 1179" class="st12" />
		</g>
		<g id="shape30-155" transform="translate(436.5,-868.5)">
			
			<path d="M0 1188 L8.83 1188 L8.83 1282.5 L17.19 1282.5" class="st12" />
		</g>
		<g id="shape31-160" transform="translate(364.5,-648)">
			
			<path d="M9 1188 L9 1209.69" class="st12" />
		</g>
		<g id="shape32-165" transform="translate(436.5,-576)">
			
			<path d="M0 1179 L37.44 1179" class="st12" />
		</g>
		<g id="shape33-170" transform="translate(589.5,-774)">
			
			<path d="M0 1188 L17.66 1188 L17.66 1377 L-10.44 1377" class="st12" />
		</g>
		<g id="shape35-175" transform="translate(288,-1107)">
			
			<desc>Business Process area</desc>
			<rect x="0" y="1161" width="252" height="27" class="st13" />
			<text x="4" y="1178.1" class="st14">Business Process area</text>
		</g>
		<g id="shape36-178" transform="translate(249.75,-823.5)">
			
			<path d="M0 1188 L17.66 1188 L17.66 1143 L50.94 1143" class="st12" />
		</g>
		<g id="shape37-183" transform="translate(310.5,-679.5)">
			
			<path d="M0 1188 L-17.66 1188 L-17.66 1143 L-50.94 1143" class="st12" />
		</g>
		<g id="shape38-188" transform="translate(200.25,-693)">
			
			<path d="M0 1188 L0 1359 L326.25 1359 L326.25 1323.81" class="st12" />
		</g>
		<a id="62efe62f-ec7f-4d46-90f3-85c4825e8580" class="rules_svg_anchor rules_svg_shape"   href="/lms/chart?onclick=b3BlbkNoYXJ0Q29udGV4dE1lbnUoZXZlbnQsJ3cxMTZkNTIzNTk2NWMxNzI2MHY0MDcxJywxODM0OCwgMSwgMSwgdGhpcywgd2luZG93LmZyYW1lRWxlbWVudCk=&amp;navigate=true&amp;details=Description">
			<g id="shape39-193" transform="translate(621,-837)">
				
				<desc>70.60 Control production quality</desc>
				<rect x="0" y="1125" width="126" height="63" class="st8" />
				<text x="29.81" y="1152.9" class="st9">70.60 Control <tspan x="18.03" dy="1.2em" class="st5">production quality</tspan>
				</text>
			</g>
		</a>
		<g id="shape40-197" transform="translate(436.5,-877.5)">
			
			<path d="M0 1197 L174.69 1197" class="st12" />
		</g>
		<g id="shape42-202" transform="translate(436.5,-783)">
			
			<path d="M0 1197 L17.19 1197" class="st12" />
		</g>
		<g id="shape44-207" transform="translate(436.5,-783)">
			
			<path d="M0 1197 L17.19 1197" class="st12" />
		</g>
		<g id="shape45-212" transform="translate(436.5,-679.5)">
			
			<path d="M0 1188 L8.83 1188 L8.83 1093.5 L17.19 1093.5" class="st12" />
		</g>
		<g id="shape46-217" transform="translate(526.5,-805.5)">
			
			<path d="M0 1188 L0 1125 L84.69 1125" class="st12" />
		</g>
	</g>
</svg>
