<?xml version="1.0" encoding="UTF-8" standalone="no"?>
<svg
   width="1424.3667"
   height="1667.5513"
   overflow="hidden"
   version="1.1"
   id="svg1093"
   sodipodi:docname="forecast-to-plan-establish-stock-policies-flow.SVG"
   inkscape:version="1.2.2 (732a01da63, 2022-12-09)"
   xmlns:inkscape="http://www.inkscape.org/namespaces/inkscape"
   xmlns:sodipodi="http://sodipodi.sourceforge.net/DTD/sodipodi-0.dtd"
   xmlns="http://www.w3.org/2000/svg"
   xmlns:svg="http://www.w3.org/2000/svg">
  <defs
     id="defs1097" />
  <sodipodi:namedview
     id="namedview1095"
     pagecolor="#ffffff"
     bordercolor="#000000"
     borderopacity="0.25"
     inkscape:showpageshadow="2"
     inkscape:pageopacity="0.0"
     inkscape:pagecheckerboard="0"
     inkscape:deskcolor="#d1d1d1"
     showgrid="false"
     inkscape:zoom="0.43177083"
     inkscape:cx="575.53679"
     inkscape:cy="934.52352"
     inkscape:window-width="1920"
     inkscape:window-height="1010"
     inkscape:window-x="-6"
     inkscape:window-y="-6"
     inkscape:window-maximized="1"
     inkscape:current-layer="svg1093" />
  <g
     id="g1091"
     transform="translate(-384.4632,-13.89626)">
    <rect
       x="384.4632"
       y="13.89626"
       width="1424.3667"
       height="1667.5513"
       fill="#ffffff"
       id="rect913"
       style="stroke-width:0.802693" />
    <rect
       x="742"
       y="518"
       width="715"
       height="1153"
       stroke="#0078d4"
       stroke-width="2"
       stroke-linejoin="round"
       stroke-miterlimit="10"
       fill="#d9d9d9"
       id="rect915" />
    <text
       fill="#0078d4"
       font-family="'Segoe UI', 'Segoe UI_MSFontService', sans-serif"
       font-weight="700"
       font-size="43px"
       transform="translate(770.509,1638)"
       id="text917">Business process area</text>
    <path
       d="M 995,56.5 C 995,36.3416 1011.34,20 1031.5,20 h 138 c 20.16,0 36.5,16.3416 36.5,36.5 v 0 c 0,20.1584 -16.34,36.5 -36.5,36.5 h -138 C 1011.34,93 995,76.6584 995,56.5 Z"
       stroke="#0078d4"
       stroke-width="2"
       stroke-linejoin="round"
       stroke-miterlimit="10"
       fill="#ffffff"
       fill-rule="evenodd"
       id="path919" />
    <text
       font-family="'Segoe UI', 'Segoe UI_MSFontService', sans-serif"
       font-weight="400"
       font-size="24px"
       transform="translate(1075.64,65)"
       id="text921">Start</text>
    <rect
       x="966"
       y="123"
       width="271"
       height="153"
       stroke="#000000"
       stroke-width="2"
       stroke-linejoin="round"
       stroke-miterlimit="10"
       fill="#a0a0a0"
       id="rect923" />
    <text
       font-family="'Segoe UI', 'Segoe UI_MSFontService', sans-serif"
       font-weight="400"
       font-size="24px"
       transform="translate(1017,208)"
       id="text925">Forecast to plan</text>
    <path
       d="m 1102,93.459 0.61,22.415 -3,0.082 -0.61,-22.4149 z m 3.57,20.834 -4.25,9.12 -4.75,-8.874 z"
       fill="#0078d4"
       id="path927" />
    <rect
       x="966"
       y="776"
       width="270"
       height="153"
       fill="#ffffff"
       id="rect929" />
    <path
       d="m 999.75,776 v 153 m 202.5,-153 v 153"
       stroke="#0078d4"
       stroke-width="2"
       stroke-linejoin="round"
       stroke-miterlimit="10"
       fill="none"
       fill-rule="evenodd"
       id="path931" />
    <rect
       x="966"
       y="776"
       width="270"
       height="153"
       stroke="#0078d4"
       stroke-width="2"
       stroke-linejoin="round"
       stroke-miterlimit="10"
       fill="none"
       id="rect933" />
    <text
       font-family="'Segoe UI', 'Segoe UI_MSFontService', sans-serif"
       font-weight="400"
       font-size="24px"
       transform="translate(1066.84,833)"
       id="text935">Define</text>
    <text
       font-family="'Segoe UI', 'Segoe UI_MSFontService', sans-serif"
       font-weight="400"
       font-size="24px"
       transform="translate(1054.84,862)"
       id="text937">planning</text>
    <text
       font-family="'Segoe UI', 'Segoe UI_MSFontService', sans-serif"
       font-weight="400"
       font-size="24px"
       transform="translate(1061.43,891)"
       id="text939">policies</text>
    <rect
       x="966"
       y="572"
       width="271"
       height="154"
       stroke="#00569b"
       stroke-width="2"
       stroke-linejoin="round"
       stroke-miterlimit="10"
       fill="#0078d4"
       id="rect941" />
    <text
       fill="#ffffff"
       font-family="'Segoe UI', 'Segoe UI_MSFontService', sans-serif"
       font-weight="400"
       font-size="24px"
       transform="translate(1007.51,643)"
       id="text943">Establish stocking</text>
    <text
       fill="#ffffff"
       font-family="'Segoe UI', 'Segoe UI_MSFontService', sans-serif"
       font-weight="400"
       font-size="24px"
       transform="translate(1061.5,672)"
       id="text945">policies</text>
    <rect
       x="966"
       y="978"
       width="270"
       height="153"
       fill="#ffffff"
       id="rect947" />
    <path
       d="m 999.75,978 v 153 m 202.5,-153 v 153"
       stroke="#0078d4"
       stroke-width="2"
       stroke-linejoin="round"
       stroke-miterlimit="10"
       fill="none"
       fill-rule="evenodd"
       id="path949" />
    <rect
       x="966"
       y="978"
       width="270"
       height="153"
       stroke="#0078d4"
       stroke-width="2"
       stroke-linejoin="round"
       stroke-miterlimit="10"
       fill="none"
       id="rect951" />
    <text
       font-family="'Segoe UI', 'Segoe UI_MSFontService', sans-serif"
       font-weight="400"
       font-size="24px"
       transform="translate(1066.84,1020)"
       id="text953">Define</text>
    <text
       font-family="'Segoe UI', 'Segoe UI_MSFontService', sans-serif"
       font-weight="400"
       font-size="24px"
       transform="translate(1051.36,1049)"
       id="text955">inventory</text>
    <text
       font-family="'Segoe UI', 'Segoe UI_MSFontService', sans-serif"
       font-weight="400"
       font-size="24px"
       transform="translate(1054.84,1078)"
       id="text957">planning</text>
    <text
       font-family="'Segoe UI', 'Segoe UI_MSFontService', sans-serif"
       font-weight="400"
       font-size="24px"
       transform="translate(1061.42,1107)"
       id="text959">policies</text>
    <rect
       x="781"
       y="1222"
       width="270"
       height="153"
       fill="#ffffff"
       id="rect961" />
    <path
       d="m 814.75,1222 v 153 m 202.5,-153 v 153"
       stroke="#0078d4"
       stroke-width="2"
       stroke-linejoin="round"
       stroke-miterlimit="10"
       fill="none"
       fill-rule="evenodd"
       id="path963" />
    <rect
       x="781"
       y="1222"
       width="270"
       height="153"
       stroke="#0078d4"
       stroke-width="2"
       stroke-linejoin="round"
       stroke-miterlimit="10"
       fill="none"
       id="rect965" />
    <text
       font-family="'Segoe UI', 'Segoe UI_MSFontService', sans-serif"
       font-weight="400"
       font-size="24px"
       transform="translate(881.763,1264)"
       id="text967">Define</text>
    <text
       font-family="'Segoe UI', 'Segoe UI_MSFontService', sans-serif"
       font-weight="400"
       font-size="24px"
       transform="translate(857.837,1293)"
       id="text969">production</text>
    <text
       font-family="'Segoe UI', 'Segoe UI_MSFontService', sans-serif"
       font-weight="400"
       font-size="24px"
       transform="translate(869.763,1322)"
       id="text971">planning</text>
    <text
       font-family="'Segoe UI', 'Segoe UI_MSFontService', sans-serif"
       font-weight="400"
       font-size="24px"
       transform="translate(876.35,1351)"
       id="text973">policies</text>
    <rect
       x="1144"
       y="1222"
       width="271"
       height="153"
       fill="#ffffff"
       id="rect975" />
    <path
       d="m 1177.88,1222 v 153 m 203.24,-153 v 153"
       stroke="#0078d4"
       stroke-width="2"
       stroke-linejoin="round"
       stroke-miterlimit="10"
       fill="none"
       fill-rule="evenodd"
       id="path977" />
    <rect
       x="1144"
       y="1222"
       width="271"
       height="153"
       stroke="#0078d4"
       stroke-width="2"
       stroke-linejoin="round"
       stroke-miterlimit="10"
       fill="none"
       id="rect979" />
    <text
       font-family="'Segoe UI', 'Segoe UI_MSFontService', sans-serif"
       font-weight="400"
       font-size="24px"
       transform="translate(1245.32,1264)"
       id="text981">Define</text>
    <text
       font-family="'Segoe UI', 'Segoe UI_MSFontService', sans-serif"
       font-weight="400"
       font-size="24px"
       transform="translate(1211.56,1293)"
       id="text983">procurement</text>
    <text
       font-family="'Segoe UI', 'Segoe UI_MSFontService', sans-serif"
       font-weight="400"
       font-size="24px"
       transform="translate(1233.32,1322)"
       id="text985">planning</text>
    <text
       font-family="'Segoe UI', 'Segoe UI_MSFontService', sans-serif"
       font-weight="400"
       font-size="24px"
       transform="translate(1239.91,1351)"
       id="text987">policies</text>
    <path
       d="m 995,1508.5 c 0,-20.16 16.34,-36.5 36.5,-36.5 h 139 c 20.16,0 36.5,16.34 36.5,36.5 v 0 c 0,20.16 -16.34,36.5 -36.5,36.5 h -139 c -20.16,0 -36.5,-16.34 -36.5,-36.5 z"
       stroke="#0078d4"
       stroke-width="2"
       stroke-linejoin="round"
       stroke-miterlimit="10"
       fill="#ffffff"
       fill-rule="evenodd"
       id="path989" />
    <text
       font-family="'Segoe UI', 'Segoe UI_MSFontService', sans-serif"
       font-weight="400"
       font-size="24px"
       transform="translate(1081.26,1517)"
       id="text991">End</text>
    <path
       d="m 0,-1 h 590.97 c 0.553,0 1,0.447715 1,1 v 592.314 c 0,0.553 -0.447,1 -1,1 h -17.333 v -2 h 17.333 l -1,1 V 0 l 1,1 H 0 Z m 574.971,597.314 -8,-4 8,-4 z"
       fill="#0078d4"
       transform="matrix(-1,0,0,1,994.971,57)"
       id="path993" />
    <path
       d="m 0,-1.5 h 590.97 c 0.829,0 1.5,0.671573 1.5,1.5 v 997.778 c 0,0.829 -0.671,1.501 -1.5,1.501 h -16.499 v -3.001 h 16.499 l -1.5,1.5 V 0 l 1.5,1.5 H 0 Z m 575.971,1003.78 -9,-4.502 9,-4.499 z"
       fill="#0078d4"
       transform="matrix(-1,0,0,1,995.471,57.5001)"
       id="path995" />
    <path
       d="m 1206.5,56.0001 h 588.35 c 0.83,0 1.5,0.6715 1.5,1.5 V 1055.28 c 0,0.83 -0.67,1.5 -1.5,1.5 h -16.5 v -3 h 16.5 l -1.5,1.5 V 57.5001 l 1.5,1.5 H 1206.5 Z m 573.35,1003.7799 -9,-4.5 9,-4.5 z"
       fill="#0078d4"
       id="path997" />
    <path
       d="M 1.5,-0.00187028 1.5675,54.1336 l -3,0.0037 L -1.5,0.00187028 Z M 4.56562,52.6299 0.0768504,61.6355 -4.43437,52.6411 Z"
       fill="#0078d4"
       transform="matrix(-1,0,0,1,1101.58,276.5)"
       id="path999" />
    <path
       d="m 1103,929.5 v 40.881 h -3 V 929.5 Z m 3,39.381 -4.5,9 -4.5,-9 z"
       fill="#0078d4"
       id="path1001" />
    <path
       d="M 1.5,-0.00228259 1.56544,42.9998 l -3,0.0045 L -1.5,0.00228259 Z M 4.56315,41.4952 0.0768504,50.502 -4.43684,41.5089 Z"
       fill="#0078d4"
       transform="matrix(-1,0,0,1,1101.58,726.5)"
       id="path1003" />
    <path
       d="m 0,-1.5 h 48.5433 c 0.8284,0 1.5,0.671573 1.5,1.5 v 185.075 l -1.5,-1.5 h 41.0431 v 3 H 48.5433 c -0.8284,0 -1.5,-0.671 -1.5,-1.5 V 0 l 1.5,1.5 H 0 Z m 88.0864,182.075 9,4.5 -9,4.5 z"
       fill="#0078d4"
       transform="matrix(0,1,1,0,916.5,1375.5)"
       id="path1005" />
    <path
       d="m 1281.49,1375.5 v 48.54 c 0,0.83 -0.67,1.5 -1.5,1.5 H 1101.5 l 1.5,-1.5 v 41.05 h -3 v -41.05 c 0,-0.83 0.67,-1.5 1.5,-1.5 h 178.49 l -1.5,1.5 v -48.54 z m -175.49,88.09 -4.5,9 -4.5,-9 z"
       fill="#0078d4"
       id="path1007" />
    <rect
       x="966"
       y="338"
       width="270"
       height="153"
       fill="#ffffff"
       id="rect1009" />
    <path
       d="m 999.75,338 v 153 m 202.5,-153 v 153"
       stroke="#0078d4"
       stroke-width="2"
       stroke-linejoin="round"
       stroke-miterlimit="10"
       fill="none"
       fill-rule="evenodd"
       id="path1011" />
    <rect
       x="966"
       y="338"
       width="270"
       height="153"
       stroke="#0078d4"
       stroke-width="2"
       stroke-linejoin="round"
       stroke-miterlimit="10"
       fill="none"
       id="rect1013" />
    <text
       font-family="'Segoe UI', 'Segoe UI_MSFontService', sans-serif"
       font-weight="400"
       font-size="24px"
       transform="translate(1066.84,380)"
       id="text1015">Define</text>
    <text
       font-family="'Segoe UI', 'Segoe UI_MSFontService', sans-serif"
       font-weight="400"
       font-size="24px"
       transform="translate(1032.77,409)"
       id="text1017">strategic and</text>
    <text
       font-family="'Segoe UI', 'Segoe UI_MSFontService', sans-serif"
       font-weight="400"
       font-size="24px"
       transform="translate(1040.84,438)"
       id="text1019">operational</text>
    <text
       font-family="'Segoe UI', 'Segoe UI_MSFontService', sans-serif"
       font-weight="400"
       font-size="24px"
       transform="translate(1073.26,467)"
       id="text1021">plans</text>
    <path
       d="m 1103,491.499 0.07,73.652 -3,0.003 -0.07,-73.653 z m 3.07,72.15 -4.49,9.004 -4.51,-8.996 z"
       fill="#0078d4"
       id="path1023" />
    <rect
       x="428"
       y="978"
       width="271"
       height="153"
       stroke="#000000"
       stroke-width="2"
       stroke-linejoin="round"
       stroke-miterlimit="10"
       fill="#a0a0a0"
       id="rect1025" />
    <text
       font-family="'Segoe UI', 'Segoe UI_MSFontService', sans-serif"
       font-weight="400"
       font-size="24px"
       transform="translate(479.392,1063)"
       id="text1027">Plan to produce</text>
    <rect
       x="428"
       y="572"
       width="271"
       height="154"
       stroke="#000000"
       stroke-width="2"
       stroke-linejoin="round"
       stroke-miterlimit="10"
       fill="#a0a0a0"
       id="rect1029" />
    <text
       font-family="'Segoe UI', 'Segoe UI_MSFontService', sans-serif"
       font-weight="400"
       font-size="24px"
       transform="translate(460.322,658)"
       id="text1031">Inventory to deliver</text>
    <rect
       x="1500"
       y="978"
       width="270"
       height="153"
       stroke="#000000"
       stroke-width="2"
       stroke-linejoin="round"
       stroke-miterlimit="10"
       fill="#a0a0a0"
       id="rect1033" />
    <text
       font-family="'Segoe UI', 'Segoe UI_MSFontService', sans-serif"
       font-weight="400"
       font-size="24px"
       transform="translate(1558.41,1063)"
       id="text1035">Procure to pay</text>
    <rect
       x="428"
       y="788"
       width="271"
       height="153"
       fill="#ffffff"
       id="rect1037" />
    <path
       d="M 461.875,788 V 941 M 665.125,788 V 941"
       stroke="#0078d4"
       stroke-width="2"
       stroke-linejoin="round"
       stroke-miterlimit="10"
       fill="none"
       fill-rule="evenodd"
       id="path1039" />
    <rect
       x="428"
       y="788"
       width="271"
       height="153"
       stroke="#0078d4"
       stroke-width="2"
       stroke-linejoin="round"
       stroke-miterlimit="10"
       fill="none"
       id="rect1041" />
    <text
       font-family="'Segoe UI', 'Segoe UI_MSFontService', sans-serif"
       font-weight="400"
       font-size="24px"
       transform="translate(505.719,830)"
       id="text1043">Define and</text>
    <text
       font-family="'Segoe UI', 'Segoe UI_MSFontService', sans-serif"
       font-weight="400"
       font-size="24px"
       transform="translate(520.639,859)"
       id="text1045">manage</text>
    <text
       font-family="'Segoe UI', 'Segoe UI_MSFontService', sans-serif"
       font-weight="400"
       font-size="24px"
       transform="translate(506.379,888)"
       id="text1047">warehouse</text>
    <text
       font-family="'Segoe UI', 'Segoe UI_MSFontService', sans-serif"
       font-weight="400"
       font-size="24px"
       transform="translate(506.806,917)"
       id="text1049">operations</text>
    <rect
       x="428"
       y="1222"
       width="271"
       height="153"
       fill="#ffffff"
       id="rect1051" />
    <path
       d="m 461.875,1222 v 153 m 203.25,-153 v 153"
       stroke="#0078d4"
       stroke-width="2"
       stroke-linejoin="round"
       stroke-miterlimit="10"
       fill="none"
       fill-rule="evenodd"
       id="path1053" />
    <rect
       x="428"
       y="1222"
       width="271"
       height="153"
       stroke="#0078d4"
       stroke-width="2"
       stroke-linejoin="round"
       stroke-miterlimit="10"
       fill="none"
       id="rect1055" />
    <text
       font-family="'Segoe UI', 'Segoe UI_MSFontService', sans-serif"
       font-weight="400"
       font-size="24px"
       transform="translate(528.886,1279)"
       id="text1057">Define</text>
    <text
       font-family="'Segoe UI', 'Segoe UI_MSFontService', sans-serif"
       font-weight="400"
       font-size="24px"
       transform="translate(504.959,1308)"
       id="text1059">production</text>
    <text
       font-family="'Segoe UI', 'Segoe UI_MSFontService', sans-serif"
       font-weight="400"
       font-size="24px"
       transform="translate(512.233,1337)"
       id="text1061">strategies</text>
    <rect
       x="1500"
       y="1222"
       width="270"
       height="153"
       fill="#ffffff"
       id="rect1063" />
    <path
       d="m 1533.75,1222 v 153 m 202.5,-153 v 153"
       stroke="#0078d4"
       stroke-width="2"
       stroke-linejoin="round"
       stroke-miterlimit="10"
       fill="none"
       fill-rule="evenodd"
       id="path1065" />
    <rect
       x="1500"
       y="1222"
       width="270"
       height="153"
       stroke="#0078d4"
       stroke-width="2"
       stroke-linejoin="round"
       stroke-miterlimit="10"
       fill="none"
       id="rect1067" />
    <text
       font-family="'Segoe UI', 'Segoe UI_MSFontService', sans-serif"
       font-weight="400"
       font-size="24px"
       transform="translate(1591.43,1279)"
       id="text1069">Develop</text>
    <text
       font-family="'Segoe UI', 'Segoe UI_MSFontService', sans-serif"
       font-weight="400"
       font-size="24px"
       transform="translate(1589.85,1308)"
       id="text1071">sourcing</text>
    <text
       font-family="'Segoe UI', 'Segoe UI_MSFontService', sans-serif"
       font-weight="400"
       font-size="24px"
       transform="translate(1584.03,1337)"
       id="text1073">strategies</text>
    <path
       d="m 1103.08,1131.5 v 45.51 c 0,0.83 -0.68,1.5 -1.5,1.5 H 916.5 l 1.5,-1.5 v 38.02 h -3 v -38.02 c 0,-0.83 0.672,-1.5 1.5,-1.5 h 185.08 l -1.5,1.5 v -45.51 z m -182.08,82.03 -4.5,9 -4.5,-9 z"
       fill="#0078d4"
       id="path1075" />
    <path
       d="m 0,-1.5 h 45.513 c 0.8284,0 1.5,0.671573 1.5,1.5 v 178.489 l -1.5,-1.5 h 38.0128 v 3 H 45.513 c -0.8284,0 -1.5,-0.671 -1.5,-1.5 V 0 l 1.5,1.5 H 0 Z m 82.0258,175.489 9,4.5 -9,4.5 z"
       fill="#0078d4"
       transform="matrix(0,1,1,0,1101.5,1131.5)"
       id="path1077" />
    <path
       d="m 565,726.498 0.068,54.64 -3,0.003 L 562,726.502 Z m 3.066,53.136 -4.489,9.005 -4.511,-8.994 z"
       fill="#0078d4"
       id="path1079" />
    <path
       d="m 565,1131.5 0.071,83.52 -3,0.01 L 562,1131.5 Z m 3.069,82.02 -4.492,9.01 -4.508,-9 z"
       fill="#0078d4"
       id="path1081" />
    <path
       d="M 1.5,-0.0012664 1.57052,83.5247 l -3,0.0025 L -1.5,0.0012664 Z M 4.56925,82.0221 0.0768504,91.0259 -4.43075,82.0297 Z"
       fill="#0078d4"
       transform="matrix(-1,0,0,1,1635.58,1131.5)"
       id="path1083" />
    <path
       d="M 1.85716e-6,-1.5 77.2962,-1.4999 v 3 L -1.85716e-6,1.5 Z M 75.7962,-4.49991 l 9,4.500014987 -9,4.499985013 z"
       fill="#0078d4"
       transform="matrix(-1,0,0,1,1500.3,1299.5)"
       id="path1085" />
    <path
       d="m 699.5,1298 h 74.811 v 3 H 699.5 Z m 73.311,-3 9,4.5 -9,4.5 z"
       fill="#0078d4"
       id="path1087" />
    <path
       d="m 699.5,863 h 133.693 c 0.829,0 1.5,0.672 1.5,1.5 v 190.03 l -1.5,-1.5 h 126.194 v 3 H 833.193 c -0.828,0 -1.5,-0.67 -1.5,-1.5 V 864.5 l 1.5,1.5 H 699.5 Z m 258.387,187.03 9,4.5 -9,4.5 z"
       fill="#0078d4"
       id="path1089" />
  </g>
</svg>
