<svg width="1920" height="1920" xmlns="http://www.w3.org/2000/svg" xmlns:xlink="http://www.w3.org/1999/xlink" overflow="hidden"><defs><clipPath id="clip0"><rect x="0" y="0" width="1920" height="1920"/></clipPath></defs><g clip-path="url(#clip0)"><rect x="0" y="0" width="1920" height="1920" fill="#FFFFFF"/><path d="M0 60.9995C-7.63881e-15 27.3104 27.3104-1.52776e-14 60.9996-1.52776e-14L549 0C582.69-1.52776e-14 610 27.3104 610 60.9995L610 1859C610 1892.69 582.69 1920 549 1920L60.9996 1920C27.3104 1920-7.63881e-15 1892.69 0 1859Z" fill="#CBCBCB" fill-rule="evenodd"/><text font-family="Segoe UI,Segoe UI_MSFontService,sans-serif" font-weight="400" font-size="107" transform="translate(77.4251 261)">Upstream</text><text font-family="Segoe UI,Segoe UI_MSFontService,sans-serif" font-weight="400" font-size="107" transform="translate(76.1718 389)">processes</text><path d="M61.5001 587.5C61.5001 581.425 66.4248 576.5 72.4998 576.5L538.5 576.5C544.575 576.5 549.5 581.425 549.5 587.5L549.5 675.5C549.5 681.575 544.575 686.5 538.5 686.5L72.4998 686.5C66.4248 686.5 61.5001 681.575 61.5001 675.5Z" stroke="#000000" stroke-width="1.13333" stroke-linejoin="round" stroke-miterlimit="10" fill="#FFFFFF" fill-rule="evenodd"/><text font-family="Segoe UI,Segoe UI_MSFontService,sans-serif" font-weight="400" font-size="32" transform="translate(173.668 642)">Acquire to dispose</text><path d="M61.5001 714.4C61.5001 708.38 66.3801 703.5 72.4 703.5L538.6 703.5C544.62 703.5 549.5 708.38 549.5 714.4L549.5 801.6C549.5 807.62 544.62 812.5 538.6 812.5L72.4 812.5C66.3801 812.5 61.5001 807.62 61.5001 801.6Z" stroke="#000000" stroke-width="1.13333" stroke-linejoin="round" stroke-miterlimit="10" fill="#FFFFFF" fill-rule="evenodd"/><text font-family="Segoe UI,Segoe UI_MSFontService,sans-serif" font-weight="400" font-size="32" transform="translate(177.732 768)">Case to resolution</text><path d="M61.5001 840.5C61.5001 834.425 66.4248 829.5 72.4998 829.5L538.5 829.5C544.575 829.5 549.5 834.425 549.5 840.5L549.5 928.5C549.5 934.575 544.575 939.5 538.5 939.5L72.4998 939.5C66.4248 939.5 61.5001 934.575 61.5001 928.5Z" stroke="#000000" stroke-width="1.13333" stroke-linejoin="round" stroke-miterlimit="10" fill="#FFFFFF" fill-rule="evenodd"/><text font-family="Segoe UI,Segoe UI_MSFontService,sans-serif" font-weight="400" font-size="32" transform="translate(173.652 895)">Concept to market</text><path d="M61.5001 967.4C61.5001 961.38 66.3801 956.5 72.4 956.5L538.6 956.5C544.62 956.5 549.5 961.38 549.5 967.4L549.5 1054.6C549.5 1060.62 544.62 1065.5 538.6 1065.5L72.4 1065.5C66.3801 1065.5 61.5001 1060.62 61.5001 1054.6Z" stroke="#000000" stroke-width="1.13333" stroke-linejoin="round" stroke-miterlimit="10" fill="#FFFFFF" fill-rule="evenodd"/><text font-family="Segoe UI,Segoe UI_MSFontService,sans-serif" font-weight="400" font-size="32" transform="translate(192.352 1021)">Forecast to plan</text><path d="M61.5001 1093.5C61.5001 1087.42 66.4248 1082.5 72.4998 1082.5L538.5 1082.5C544.575 1082.5 549.5 1087.42 549.5 1093.5L549.5 1181.5C549.5 1187.58 544.575 1192.5 538.5 1192.5L72.4998 1192.5C66.4248 1192.5 61.5001 1187.58 61.5001 1181.5Z" stroke="#000000" stroke-width="1.13333" stroke-linejoin="round" stroke-miterlimit="10" fill="#FFFFFF" fill-rule="evenodd"/><text font-family="Segoe UI,Segoe UI_MSFontService,sans-serif" font-weight="400" font-size="32" transform="translate(209.338 1148)">Order to cash</text><path d="M61.5001 1219.5C61.5001 1213.42 66.4248 1208.5 72.4998 1208.5L538.5 1208.5C544.575 1208.5 549.5 1213.42 549.5 1219.5L549.5 1307.5C549.5 1313.58 544.575 1318.5 538.5 1318.5L72.4998 1318.5C66.4248 1318.5 61.5001 1313.58 61.5001 1307.5Z" stroke="#000000" stroke-width="1.13333" stroke-linejoin="round" stroke-miterlimit="10" fill="#FFFFFF" fill-rule="evenodd"/><text font-family="Segoe UI,Segoe UI_MSFontService,sans-serif" font-weight="400" font-size="32" transform="translate(193.082 1274)">Plan to produce</text><path d="M61.5001 1346.4C61.5001 1340.38 66.3801 1335.5 72.4 1335.5L538.6 1335.5C544.62 1335.5 549.5 1340.38 549.5 1346.4L549.5 1433.6C549.5 1439.62 544.62 1444.5 538.6 1444.5L72.4 1444.5C66.3801 1444.5 61.5001 1439.62 61.5001 1433.6Z" stroke="#000000" stroke-width="1.13333" stroke-linejoin="round" stroke-miterlimit="10" fill="#FFFFFF" fill-rule="evenodd"/><text font-family="Segoe UI,Segoe UI_MSFontService,sans-serif" font-weight="400" font-size="32" transform="translate(202.548 1400)">Procure to pay</text><path d="M61.5001 1472.5C61.5001 1466.42 66.4248 1461.5 72.4998 1461.5L538.5 1461.5C544.575 1461.5 549.5 1466.42 549.5 1472.5L549.5 1560.5C549.5 1566.58 544.575 1571.5 538.5 1571.5L72.4998 1571.5C66.4248 1571.5 61.5001 1566.58 61.5001 1560.5Z" stroke="#000000" stroke-width="1.13333" stroke-linejoin="round" stroke-miterlimit="10" fill="#FFFFFF" fill-rule="evenodd"/><text font-family="Segoe UI,Segoe UI_MSFontService,sans-serif" font-weight="400" font-size="32" transform="translate(194.582 1527)">Project to profit</text><path d="M61.5001 1599.4C61.5001 1593.38 66.3801 1588.5 72.4 1588.5L538.6 1588.5C544.62 1588.5 549.5 1593.38 549.5 1599.4L549.5 1686.6C549.5 1692.62 544.62 1697.5 538.6 1697.5L72.4 1697.5C66.3801 1697.5 61.5001 1692.62 61.5001 1686.6Z" stroke="#000000" stroke-width="1.13333" stroke-linejoin="round" stroke-miterlimit="10" fill="#FFFFFF" fill-rule="evenodd"/><text font-family="Segoe UI,Segoe UI_MSFontService,sans-serif" font-weight="400" font-size="32" transform="translate(188.498 1653)">Record to report</text><path d="M61.5001 1725.5C61.5001 1719.42 66.4248 1714.5 72.4998 1714.5L538.5 1714.5C544.575 1714.5 549.5 1719.42 549.5 1725.5L549.5 1813.5C549.5 1819.58 544.575 1824.5 538.5 1824.5L72.4998 1824.5C66.4248 1824.5 61.5001 1819.58 61.5001 1813.5Z" stroke="#000000" stroke-width="1.13333" stroke-linejoin="round" stroke-miterlimit="10" fill="#FFFFFF" fill-rule="evenodd"/><text font-family="Segoe UI,Segoe UI_MSFontService,sans-serif" font-weight="400" font-size="32" transform="translate(199.742 1780)">Service to cash</text><path d="M655 60.9995C655 27.3104 682.31-1.52776e-14 716-1.52776e-14L1204 0C1237.69-1.52776e-14 1265 27.3104 1265 60.9995L1265 1859C1265 1892.69 1237.69 1920 1204 1920L716 1920C682.31 1920 655 1892.69 655 1859Z" fill="#CBCBCB" fill-rule="evenodd"/><text font-family="Segoe UI,Segoe UI_MSFontService,sans-serif" font-weight="400" font-size="96" transform="translate(692.627 322)">Hire to retire</text><path d="M716.5 593.2C716.5 584.529 723.529 577.5 732.2 577.5L1188.8 577.5C1197.47 577.5 1204.5 584.529 1204.5 593.2L1204.5 718.8C1204.5 727.471 1197.47 734.5 1188.8 734.5L732.2 734.5C723.529 734.5 716.5 727.471 716.5 718.8Z" stroke="#000000" stroke-width="1.13333" stroke-linejoin="round" stroke-miterlimit="10" fill="#FFFFFF" fill-rule="evenodd"/><text font-family="Segoe UI,Segoe UI_MSFontService,sans-serif" font-weight="400" font-size="32" transform="translate(739.23 667)">Plan and recruit your workforce</text><path d="M716.5 775.2C716.5 766.529 723.529 759.5 732.2 759.5L1188.8 759.5C1197.47 759.5 1204.5 766.529 1204.5 775.2L1204.5 900.8C1204.5 909.471 1197.47 916.5 1188.8 916.5L732.2 916.5C723.529 916.5 716.5 909.471 716.5 900.8Z" stroke="#000000" stroke-width="1.13333" stroke-linejoin="round" stroke-miterlimit="10" fill="#FFFFFF" fill-rule="evenodd"/><text font-family="Segoe UI,Segoe UI_MSFontService,sans-serif" font-weight="400" font-size="32" transform="translate(777.88 829)">Onboard and manage the</text><text font-family="Segoe UI,Segoe UI_MSFontService,sans-serif" font-weight="400" font-size="32" transform="translate(830.593 868)">employee lifecycle</text><path d="M716.5 956.2C716.5 947.529 723.529 940.5 732.2 940.5L1188.8 940.5C1197.47 940.5 1204.5 947.529 1204.5 956.2L1204.5 1081.8C1204.5 1090.47 1197.47 1097.5 1188.8 1097.5L732.2 1097.5C723.529 1097.5 716.5 1090.47 716.5 1081.8Z" stroke="#000000" stroke-width="1.13333" stroke-linejoin="round" stroke-miterlimit="10" fill="#FFFFFF" fill-rule="evenodd"/><text font-family="Segoe UI,Segoe UI_MSFontService,sans-serif" font-weight="400" font-size="32" transform="translate(734.25 1010)">Manage employee performance</text><text font-family="Segoe UI,Segoe UI_MSFontService,sans-serif" font-weight="400" font-size="32" transform="translate(878.81 1049)">and growth</text><path d="M716.5 1137.3C716.5 1128.57 723.574 1121.5 732.3 1121.5L1188.7 1121.5C1197.43 1121.5 1204.5 1128.57 1204.5 1137.3L1204.5 1263.7C1204.5 1272.43 1197.43 1279.5 1188.7 1279.5L732.3 1279.5C723.574 1279.5 716.5 1272.43 716.5 1263.7Z" stroke="#000000" stroke-width="1.13333" stroke-linejoin="round" stroke-miterlimit="10" fill="#FFFFFF" fill-rule="evenodd"/><text font-family="Segoe UI,Segoe UI_MSFontService,sans-serif" font-weight="400" font-size="32" transform="translate(728.537 1192)">Manage occupational health and</text><text font-family="Segoe UI,Segoe UI_MSFontService,sans-serif" font-weight="400" font-size="32" transform="translate(918.53 1231)">safety</text><path d="M716.5 1319.2C716.5 1310.53 723.529 1303.5 732.2 1303.5L1188.8 1303.5C1197.47 1303.5 1204.5 1310.53 1204.5 1319.2L1204.5 1444.8C1204.5 1453.47 1197.47 1460.5 1188.8 1460.5L732.2 1460.5C723.529 1460.5 716.5 1453.47 716.5 1444.8Z" stroke="#000000" stroke-width="1.13333" stroke-linejoin="round" stroke-miterlimit="10" fill="#FFFFFF" fill-rule="evenodd"/><text font-family="Segoe UI,Segoe UI_MSFontService,sans-serif" font-weight="400" font-size="32" transform="translate(764.777 1373)">Manage employee benefits,</text><text font-family="Segoe UI,Segoe UI_MSFontService,sans-serif" font-weight="400" font-size="32" transform="translate(796.037 1412)">compensation, and pay</text><path d="M716.5 1500.2C716.5 1491.53 723.529 1484.5 732.2 1484.5L1188.8 1484.5C1197.47 1484.5 1204.5 1491.53 1204.5 1500.2L1204.5 1625.8C1204.5 1634.47 1197.47 1641.5 1188.8 1641.5L732.2 1641.5C723.529 1641.5 716.5 1634.47 716.5 1625.8Z" stroke="#000000" stroke-width="1.13333" stroke-linejoin="round" stroke-miterlimit="10" fill="#FFFFFF" fill-rule="evenodd"/><text font-family="Segoe UI,Segoe UI_MSFontService,sans-serif" font-weight="400" font-size="32" transform="translate(762.09 1554)">Manage employee time and</text><text font-family="Segoe UI,Segoe UI_MSFontService,sans-serif" font-weight="400" font-size="32" transform="translate(881.35 1593)">attendance</text><path d="M716.5 1682.2C716.5 1673.53 723.529 1666.5 732.2 1666.5L1188.8 1666.5C1197.47 1666.5 1204.5 1673.53 1204.5 1682.2L1204.5 1807.8C1204.5 1816.47 1197.47 1823.5 1188.8 1823.5L732.2 1823.5C723.529 1823.5 716.5 1816.47 716.5 1807.8Z" stroke="#000000" stroke-width="1.13333" stroke-linejoin="round" stroke-miterlimit="10" fill="#FFFFFF" fill-rule="evenodd"/><text font-family="Segoe UI,Segoe UI_MSFontService,sans-serif" font-weight="400" font-size="32" transform="translate(754.937 1755)">Manage travel and expenses</text><path d="M1310 60.9995C1310 27.3104 1337.31-1.52776e-14 1371-1.52776e-14L1859 0C1892.69-1.52776e-14 1920 27.3104 1920 60.9995L1920 1859C1920 1892.69 1892.69 1920 1859 1920L1371 1920C1337.31 1920 1310 1892.69 1310 1859Z" fill="#CBCBCB" fill-rule="evenodd"/><text font-family="Segoe UI,Segoe UI_MSFontService,sans-serif" font-weight="400" font-size="96" transform="translate(1347.89 264)">Downstream</text><text font-family="Segoe UI,Segoe UI_MSFontService,sans-serif" font-weight="400" font-size="96" transform="translate(1409.2 379)">processes</text><path d="M1371.5 586.5C1371.5 580.977 1375.98 576.5 1381.5 576.5L1849.5 576.5C1855.02 576.5 1859.5 580.977 1859.5 586.5L1859.5 666.5C1859.5 672.023 1855.02 676.5 1849.5 676.5L1381.5 676.5C1375.98 676.5 1371.5 672.023 1371.5 666.5Z" stroke="#000000" stroke-width="1.13333" stroke-linejoin="round" stroke-miterlimit="10" fill="#FFFFFF" fill-rule="evenodd"/><text font-family="Segoe UI,Segoe UI_MSFontService,sans-serif" font-weight="400" font-size="32" transform="translate(1483.82 637)">Acquire to dispose</text><path d="M1371.5 701.5C1371.5 695.977 1375.98 691.5 1381.5 691.5L1849.5 691.5C1855.02 691.5 1859.5 695.977 1859.5 701.5L1859.5 781.5C1859.5 787.023 1855.02 791.5 1849.5 791.5L1381.5 791.5C1375.98 791.5 1371.5 787.023 1371.5 781.5Z" stroke="#000000" stroke-width="1.13333" stroke-linejoin="round" stroke-miterlimit="10" fill="#FFFFFF" fill-rule="evenodd"/><text font-family="Segoe UI,Segoe UI_MSFontService,sans-serif" font-weight="400" font-size="32" transform="translate(1487.89 752)">Case to resolution</text><path d="M1371.5 816.4C1371.5 810.932 1375.93 806.5 1381.4 806.5L1849.6 806.5C1855.07 806.5 1859.5 810.932 1859.5 816.4L1859.5 895.6C1859.5 901.068 1855.07 905.5 1849.6 905.5L1381.4 905.5C1375.93 905.5 1371.5 901.068 1371.5 895.6Z" stroke="#000000" stroke-width="1.13333" stroke-linejoin="round" stroke-miterlimit="10" fill="#FFFFFF" fill-rule="evenodd"/><text font-family="Segoe UI,Segoe UI_MSFontService,sans-serif" font-weight="400" font-size="32" transform="translate(1483.81 866)">Concept to market</text><path d="M1371.5 931.4C1371.5 925.932 1375.93 921.5 1381.4 921.5L1849.6 921.5C1855.07 921.5 1859.5 925.932 1859.5 931.4L1859.5 1010.6C1859.5 1016.07 1855.07 1020.5 1849.6 1020.5L1381.4 1020.5C1375.93 1020.5 1371.5 1016.07 1371.5 1010.6Z" stroke="#000000" stroke-width="1.13333" stroke-linejoin="round" stroke-miterlimit="10" fill="#FFFFFF" fill-rule="evenodd"/><text font-family="Segoe UI,Segoe UI_MSFontService,sans-serif" font-weight="400" font-size="32" transform="translate(1502.51 981)">Forecast to plan</text><path d="M1371.5 1045.5C1371.5 1039.98 1375.98 1035.5 1381.5 1035.5L1849.5 1035.5C1855.02 1035.5 1859.5 1039.98 1859.5 1045.5L1859.5 1125.5C1859.5 1131.02 1855.02 1135.5 1849.5 1135.5L1381.5 1135.5C1375.98 1135.5 1371.5 1131.02 1371.5 1125.5Z" stroke="#000000" stroke-width="1.13333" stroke-linejoin="round" stroke-miterlimit="10" fill="#FFFFFF" fill-rule="evenodd"/><text font-family="Segoe UI,Segoe UI_MSFontService,sans-serif" font-weight="400" font-size="32" transform="translate(1477.67 1096)">Inventory to deliver</text><path d="M1371.5 1160.5C1371.5 1154.98 1375.98 1150.5 1381.5 1150.5L1849.5 1150.5C1855.02 1150.5 1859.5 1154.98 1859.5 1160.5L1859.5 1240.5C1859.5 1246.02 1855.02 1250.5 1849.5 1250.5L1381.5 1250.5C1375.98 1250.5 1371.5 1246.02 1371.5 1240.5Z" stroke="#000000" stroke-width="1.13333" stroke-linejoin="round" stroke-miterlimit="10" fill="#FFFFFF" fill-rule="evenodd"/><text font-family="Segoe UI,Segoe UI_MSFontService,sans-serif" font-weight="400" font-size="32" transform="translate(1519.49 1211)">Order to cash</text><path d="M1371.5 1275.5C1371.5 1269.98 1375.98 1265.5 1381.5 1265.5L1849.5 1265.5C1855.02 1265.5 1859.5 1269.98 1859.5 1275.5L1859.5 1355.5C1859.5 1361.02 1855.02 1365.5 1849.5 1365.5L1381.5 1365.5C1375.98 1365.5 1371.5 1361.02 1371.5 1355.5Z" stroke="#000000" stroke-width="1.13333" stroke-linejoin="round" stroke-miterlimit="10" fill="#FFFFFF" fill-rule="evenodd"/><text font-family="Segoe UI,Segoe UI_MSFontService,sans-serif" font-weight="400" font-size="32" transform="translate(1503.24 1326)">Plan to produce</text><path d="M1371.5 1390.4C1371.5 1384.93 1375.93 1380.5 1381.4 1380.5L1849.6 1380.5C1855.07 1380.5 1859.5 1384.93 1859.5 1390.4L1859.5 1469.6C1859.5 1475.07 1855.07 1479.5 1849.6 1479.5L1381.4 1479.5C1375.93 1479.5 1371.5 1475.07 1371.5 1469.6Z" stroke="#000000" stroke-width="1.13333" stroke-linejoin="round" stroke-miterlimit="10" fill="#FFFFFF" fill-rule="evenodd"/><text font-family="Segoe UI,Segoe UI_MSFontService,sans-serif" font-weight="400" font-size="32" transform="translate(1512.7 1440)">Procure to pay</text><path d="M1371.5 1505.4C1371.5 1499.93 1375.93 1495.5 1381.4 1495.5L1849.6 1495.5C1855.07 1495.5 1859.5 1499.93 1859.5 1505.4L1859.5 1584.6C1859.5 1590.07 1855.07 1594.5 1849.6 1594.5L1381.4 1594.5C1375.93 1594.5 1371.5 1590.07 1371.5 1584.6Z" stroke="#000000" stroke-width="1.13333" stroke-linejoin="round" stroke-miterlimit="10" fill="#FFFFFF" fill-rule="evenodd"/><text font-family="Segoe UI,Segoe UI_MSFontService,sans-serif" font-weight="400" font-size="32" transform="translate(1504.74 1555)">Project to profit</text><path d="M1371.5 1619.5C1371.5 1613.98 1375.98 1609.5 1381.5 1609.5L1849.5 1609.5C1855.02 1609.5 1859.5 1613.98 1859.5 1619.5L1859.5 1699.5C1859.5 1705.02 1855.02 1709.5 1849.5 1709.5L1381.5 1709.5C1375.98 1709.5 1371.5 1705.02 1371.5 1699.5Z" stroke="#000000" stroke-width="1.13333" stroke-linejoin="round" stroke-miterlimit="10" fill="#FFFFFF" fill-rule="evenodd"/><text font-family="Segoe UI,Segoe UI_MSFontService,sans-serif" font-weight="400" font-size="32" transform="translate(1498.65 1670)">Record to report</text><path d="M1371.5 1734.5C1371.5 1728.98 1375.98 1724.5 1381.5 1724.5L1849.5 1724.5C1855.02 1724.5 1859.5 1728.98 1859.5 1734.5L1859.5 1814.5C1859.5 1820.02 1855.02 1824.5 1849.5 1824.5L1381.5 1824.5C1375.98 1824.5 1371.5 1820.02 1371.5 1814.5Z" stroke="#000000" stroke-width="1.13333" stroke-linejoin="round" stroke-miterlimit="10" fill="#FFFFFF" fill-rule="evenodd"/><text font-family="Segoe UI,Segoe UI_MSFontService,sans-serif" font-weight="400" font-size="32" transform="translate(1509.9 1785)">Service to cash</text></g></svg>