<?xml version="1.0"?>
<svg xmlns="http://www.w3.org/2000/svg" xmlns:xlink="http://www.w3.org/1999/xlink" xmlns:ev="http://www.w3.org/2001/xml-events"    viewBox="14 22 969 1004"    xml:space="preserve" color-interpolation-filters="sRGB" class="st14" width="2423" height="2510">
<rect x="0" y="0" width="2423" height="2510" fill="#ffffff" />
	<style type="text/css"><![CDATA[
		.st1 {fill:#f2f2f2;stroke:#548bd4;stroke-linecap:round;stroke-linejoin:round;stroke-width:0.75}
		.st2 {fill:#ffffff;stroke:#0078d4;stroke-linecap:round;stroke-linejoin:round;stroke-width:0.24}
		.st3 {fill:#000000;font-family:Calibri;font-size:1.00001em}
		.st4 {fill:#0078d4;stroke:none;stroke-linecap:round;stroke-linejoin:round;stroke-width:0.24}
		.st5 {fill:#ffffff;font-family:Calibri;font-size:1.00001em}
		.st6 {font-size:1em}
		.st7 {fill:#a0a0a0;stroke:none;stroke-linecap:round;stroke-linejoin:round;stroke-width:0.24}
		.st8 {fill:#ffffff}
		.st9 {stroke:#0078d4;stroke-linecap:round;stroke-linejoin:round;stroke-width:0.24}
		.st10 {marker-end:url(#mrkr13-160);stroke:#0078d4;stroke-linecap:round;stroke-linejoin:round;stroke-width:0.75}
		.st11 {fill:#0078d4;fill-opacity:1;stroke:#0078d4;stroke-opacity:1;stroke-width:0.22935779816514}
		.st12 {fill:none;stroke:none;stroke-linecap:round;stroke-linejoin:round;stroke-width:0.75}
		.st13 {fill:#0078d4;font-family:Calibri;font-size:1.00001em;font-weight:bold}
		.st14 {fill:none;fill-rule:evenodd;font-size:12px;overflow:visible;stroke-linecap:square;stroke-miterlimit:3}
	]]></style><style> a { pointer-events: none; } </style><style>a.rules_svg_anchor g:hover { opacity:0.8; cursor:pointer; }</style>
	<defs id="Markers">
		<g id="lend13">
			<path d="M 3 1 L 0 0 L 3 -1 L 3 1 " style="stroke:none" />
		</g>
		<marker id="mrkr13-160" class="st11" refX="-13.08" orient="auto" markerUnits="strokeWidth" overflow="visible">
			<use xlink:href="#lend13" transform="scale(-4.36,-4.36) " />
		</marker>
	</defs>
	<g>
		
		<g id="shape83-1" transform="translate(333,-236.25)">
			
			<rect x="0" y="326.25" width="378" height="861.75" class="st1" />
		</g>
		<g id="shape1-3" transform="translate(65.25,-1116)">
			
			<desc>Start</desc>
			<path d="M18 1188 L67.5 1188 A18 18 -180 0 0 67.5 1152 L18 1152 A18 18 -180 1 0 18 1188 Z" class="st2" />
			<text x="31.01" y="1173.6" class="st3">Start</text>
		</g>
		<a id="b67b62bf-53ad-4980-a7e1-39e8c3688047" class="rules_svg_anchor rules_svg_shape"   href="/lms/chart?onclick=b3BlbkNoYXJ0Q29udGV4dE1lbnUoZXZlbnQsJ3cxMTZkNTIzNTk2NWMxNzAyMXY0MDcxJywxODE3NywgMSwgMSwgdGhpcywgd2luZG93LmZyYW1lRWxlbWVudCk=&amp;navigate=true&amp;details=Description">
			<g id="shape2-6" transform="translate(441,-1102.5)">
				
				<desc>55.10 Recruit and onboard talent</desc>
				<rect x="0" y="1125" width="126" height="63" class="st4" />
				<text x="20.02" y="1152.9" class="st5">55.10 Recruit and <tspan x="26.48" dy="1.2em" class="st6">onboard talent</tspan>
				</text>
			</g>
		</a>
		<a id="05dc1296-e2bc-4ddc-9ed4-aa3d2aa885b1" class="rules_svg_anchor rules_svg_shape"   href="/lms/chart?onclick=b3BlbkNoYXJ0Q29udGV4dE1lbnUoZXZlbnQsJ3cxMTZkNTIzNTk2NWMxNzAyMHY0MDcxJywxODE2OCwgMSwgMSwgdGhpcywgd2luZG93LmZyYW1lRWxlbWVudCk=&amp;navigate=true&amp;details=Description">
			<g id="shape3-10" transform="translate(51.75,-1026)">
				
				<desc>55 Hire to retire</desc>
				<rect x="0" y="1125" width="99" height="63" class="st7" />
				<text x="10.44" y="1160.1" class="st3">55 Hire to retire</text>
			</g>
		</a>
		<a id="2d73193a-ba05-421d-b4a0-354c26934403" class="rules_svg_anchor rules_svg_shape"   href="/lms/chart?onclick=b3BlbkNoYXJ0Q29udGV4dE1lbnUoZXZlbnQsJ3cxMTZkNTIzNTk2NWMxNzQxMnY0MDcxJywxODQ2MSwgMSwgMSwgdGhpcywgd2luZG93LmZyYW1lRWxlbWVudCk=&amp;navigate=true&amp;details=Description">
			<g id="shape4-13" transform="translate(51.75,-945)">
				
				<desc>90 Record to report</desc>
				<rect x="0" y="1125" width="99" height="63" class="st7" />
				<text x="18.34" y="1152.9" class="st3">90 Record to <tspan x="34" dy="1.2em" class="st6">report</tspan>
				</text>
			</g>
		</a>
		<a id="0c09463d-2619-4e2a-9de5-0a353f9781df" class="rules_svg_anchor rules_svg_shape"   href="/lms/chart?onclick=b3BlbkNoYXJ0Q29udGV4dE1lbnUoZXZlbnQsJ3cxMTZkNTIzNTk2NWMxNjk5MnY0MDcxJywxODExOCwgMSwgMSwgdGhpcywgd2luZG93LmZyYW1lRWxlbWVudCk=&amp;navigate=true&amp;details=Description">
			<g id="shape5-17" transform="translate(51.75,-864)">
				
				<desc>50 Forecast to plan</desc>
				<rect x="0" y="1125" width="99" height="63" class="st7" />
				<text x="2.85" y="1160.1" class="st3">50 Forecast to plan</text>
			</g>
		</a>
		<a id="fcb47637-5c6c-4580-beef-45ba1f9d20ac" class="rules_svg_anchor rules_svg_shape"   href="/lms/chart?onclick=b3BlbkNoYXJ0Q29udGV4dE1lbnUoZXZlbnQsJ3cxMTZkNTIzNTk2NWMxNjgwMnY0MDcxJywxNzk0OSwgMSwgNCwgdGhpcywgd2luZG93LmZyYW1lRWxlbWVudCk=&amp;navigate=true&amp;details=Description">
			<g id="shape6-20" transform="translate(51.75,-783)">
				
				<desc>10 Acquire to dispose</desc>
				<rect x="0" y="1125" width="99" height="63" class="st7" />
				<text x="16.76" y="1152.9" class="st3">10 Acquire to <tspan x="30.98" dy="1.2em" class="st6">dispose</tspan>
				</text>
			</g>
		</a>
		<a id="16ea8253-6230-4bdb-9ebd-68df3f1625e2" class="rules_svg_anchor rules_svg_shape"   href="/lms/chart?onclick=b3BlbkNoYXJ0Q29udGV4dE1lbnUoZXZlbnQsJ3cxMTZkNTIzNTk2NWMxNzQxNHY0MDcxJywxODQ2MywgMSwgMSwgdGhpcywgd2luZG93LmZyYW1lRWxlbWVudCk=&amp;navigate=true&amp;details=Description">
			<g id="shape9-24" transform="translate(180,-945)">
				
				<desc>90.10.010 Develop company structure</desc>
				<path d="M0 1188 L126 1188 L126 1125 L0 1125 L0 1188 Z" class="st8" />
				<path d="M0 1188 L126 1188 L126 1125 L0 1125 L0 1188" class="st9" />
				<path d="M9 1188 L9 1125" class="st9" />
				<path d="M117 1188 L117 1125" class="st9" />
				<text x="17.26" y="1152.9" class="st3">90.10.010 Develop <tspan x="16.88" dy="1.2em" class="st6">company structure</tspan>
				</text>
			</g>
		</a>
		<a id="36433bb2-bcff-40bd-816b-a78220bb77c5" class="rules_svg_anchor rules_svg_shape"   href="/lms/chart?onclick=b3BlbkNoYXJ0Q29udGV4dE1lbnUoZXZlbnQsJ3cxMTZkNTIzNTk2NWMxNzQzOHY0MDcxJywxODQ4MCwgMSwgMSwgdGhpcywgd2luZG93LmZyYW1lRWxlbWVudCk=&amp;navigate=true&amp;details=Description">
			<g id="shape10-31" transform="translate(177.75,-864)">
				
				<desc>90.30 Manage budgets</desc>
				<path d="M0 1188 L126 1188 L126 1125 L0 1125 L0 1188 Z" class="st8" />
				<path d="M0 1188 L126 1188 L126 1125 L0 1125 L0 1188" class="st9" />
				<path d="M9 1188 L9 1125" class="st9" />
				<path d="M117 1188 L117 1125" class="st9" />
				<text x="28.12" y="1152.9" class="st3">90.30 Manage <tspan x="43.38" dy="1.2em" class="st6">budgets</tspan>
				</text>
			</g>
		</a>
		<g id="shape12-38" transform="translate(177.75,-783)">
			
			<desc>10.10 Plan and budget assets</desc>
			<path d="M0 1188 L126 1188 L126 1125 L0 1125 L0 1188 Z" class="st8" />
			<path d="M0 1188 L126 1188 L126 1125 L0 1125 L0 1188" class="st9" />
			<path d="M9 1188 L9 1125" class="st9" />
			<path d="M117 1188 L117 1125" class="st9" />
			<text x="26.93" y="1152.9" class="st3">10.10 Plan and <tspan x="29.46" dy="1.2em" class="st6">budget assets</tspan>
			</text>
		</g>
		<a id="5f1e479b-6529-467f-8892-014885d481f1" class="rules_svg_anchor rules_svg_shape"   href="/lms/chart?onclick=b3BlbkNoYXJ0Q29udGV4dE1lbnUoZXZlbnQsJ3cxMTZkNTIzNTk2NWMxNzMxOXY0MDcxJywxODQxMiwgMSwgMSwgdGhpcywgd2luZG93LmZyYW1lRWxlbWVudCk=&amp;navigate=true&amp;details=Description">
			<g id="shape13-45" transform="translate(54,-702)">
				
				<desc>80 Project to profit</desc>
				<rect x="0" y="1125" width="99" height="63" class="st7" />
				<text x="3.23" y="1160.1" class="st3">80 Project to profit</text>
			</g>
		</a>
		<a id="5d0ec02c-8948-4955-85d0-9e7a600ce615" class="rules_svg_anchor rules_svg_shape"   href="/lms/chart?onclick=b3BlbkNoYXJ0Q29udGV4dE1lbnUoZXZlbnQsJ3cxMTZkNTIzNTk2NWMxNjk0NHY0MDcxJywxODA4MSwgMSwgMSwgdGhpcywgd2luZG93LmZyYW1lRWxlbWVudCk=&amp;navigate=true&amp;details=Description">
			<g id="shape14-48" transform="translate(54,-621)">
				
				<desc>40 Design to retire</desc>
				<rect x="0" y="1125" width="99" height="63" class="st7" />
				<text x="4.26" y="1160.1" class="st3">40 Design to retire</text>
			</g>
		</a>
		<a id="19e2d978-9ca2-402f-b240-cffd6988280d" class="rules_svg_anchor rules_svg_shape"   href="/lms/chart?onclick=b3BlbkNoYXJ0Q29udGV4dE1lbnUoZXZlbnQsJ3cxMTZkNTIzNTk2NWMxNzQ5NnY0MDcxJywxODUxNiwgMSwgMSwgdGhpcywgd2luZG93LmZyYW1lRWxlbWVudCk=&amp;navigate=true&amp;details=Description">
			<g id="shape15-51" transform="translate(54,-540)">
				
				<desc>95 Service to deliver</desc>
				<rect x="0" y="1125" width="99" height="63" class="st7" />
				<text x="18.09" y="1152.9" class="st3">95 Service to <tspan x="32.82" dy="1.2em" class="st6">deliver</tspan>
				</text>
			</g>
		</a>
		<a id="71fdeaa8-eb0b-4035-945d-80a120fefde4" class="rules_svg_anchor rules_svg_shape"   href="/lms/chart?onclick=b3BlbkNoYXJ0Q29udGV4dE1lbnUoZXZlbnQsJ3cxMTZkNTIzNTk2NWMxNzE1NXY0MDcxJywxODI4MSwgMSwgMSwgdGhpcywgd2luZG93LmZyYW1lRWxlbWVudCk=&amp;navigate=true&amp;details=Description">
			<g id="shape16-55" transform="translate(54,-459)">
				
				<desc>65 Order to cash</desc>
				<rect x="0" y="1125" width="99" height="63" class="st7" />
				<text x="8.97" y="1160.1" class="st3">65 Order to cash</text>
			</g>
		</a>
		<a id="c8c1969a-5e43-48b6-8d87-1aa3aa7b68b9" class="rules_svg_anchor rules_svg_shape"   href="/lms/chart?onclick=b3BlbkNoYXJ0Q29udGV4dE1lbnUoZXZlbnQsJ3cxMTZkNTIzNTk2NWMxNzMzNnY0MDcxJywxODQyNSwgMSwgMSwgdGhpcywgd2luZG93LmZyYW1lRWxlbWVudCk=&amp;navigate=true&amp;details=Description">
			<g id="shape17-58" transform="translate(180,-702)">
				
				<desc>80.30 Plan projects</desc>
				<path d="M0 1188 L126 1188 L126 1125 L0 1125 L0 1188 Z" class="st8" />
				<path d="M0 1188 L126 1188 L126 1125 L0 1125 L0 1188" class="st9" />
				<path d="M9 1188 L9 1125" class="st9" />
				<path d="M117 1188 L117 1125" class="st9" />
				<text x="16.38" y="1160.1" class="st3">80.30 Plan projects</text>
			</g>
		</a>
		<a id="faf12052-ef37-4bb5-a8ce-09223f1481a9" class="rules_svg_anchor rules_svg_shape"   href="/lms/chart?onclick=b3BlbkNoYXJ0Q29udGV4dE1lbnUoZXZlbnQsJ3cxMTZkNTIzNTk2NWMxNjk4M3Y0MDcxJywxODA5OCwgMSwgMSwgdGhpcywgd2luZG93LmZyYW1lRWxlbWVudCk=&amp;navigate=true&amp;details=Description">
			<g id="shape18-64" transform="translate(180,-621)">
				
				<desc>40.50 Manage active products</desc>
				<path d="M0 1188 L126 1188 L126 1125 L0 1125 L0 1188 Z" class="st8" />
				<path d="M0 1188 L126 1188 L126 1125 L0 1125 L0 1188" class="st9" />
				<path d="M9 1188 L9 1125" class="st9" />
				<path d="M117 1188 L117 1125" class="st9" />
				<text x="12.28" y="1152.9" class="st3">40.50 Manage active <tspan x="41.39" dy="1.2em" class="st6">products</tspan>
				</text>
			</g>
		</a>
		<g id="shape19-71" transform="translate(180,-540)">
			
			<desc>95.10 Manage service assets</desc>
			<path d="M0 1188 L126 1188 L126 1125 L0 1125 L0 1188 Z" class="st8" />
			<path d="M0 1188 L126 1188 L126 1125 L0 1125 L0 1188" class="st9" />
			<path d="M9 1188 L9 1125" class="st9" />
			<path d="M117 1188 L117 1125" class="st9" />
			<text x="28.12" y="1152.9" class="st3">95.10 Manage <tspan x="29.7" dy="1.2em" class="st6">service assets</tspan>
			</text>
		</g>
		<a id="dcb2a505-0eb6-40fa-99e2-dc76cbf81041" class="rules_svg_anchor rules_svg_shape"   href="/lms/chart?onclick=b3BlbkNoYXJ0Q29udGV4dE1lbnUoZXZlbnQsJ3cxMTZkNTIzNTk2NWMxNzIzMHY0MDcxJywxODMyNywgMSwgMSwgdGhpcywgd2luZG93LmZyYW1lRWxlbWVudCk=&amp;navigate=true&amp;details=Description">
			<g id="shape21-78" transform="translate(54,-378)">
				
				<desc>70 Plan to produce</desc>
				<rect x="0" y="1125" width="99" height="63" class="st7" />
				<text x="3.44" y="1160.1" class="st3">70 Plan to produce</text>
			</g>
		</a>
		<a id="87ef870c-ded9-4a34-9f8a-b6e654180339" class="rules_svg_anchor rules_svg_shape"   href="/lms/chart?onclick=b3BlbkNoYXJ0Q29udGV4dE1lbnUoZXZlbnQsJ3cxMTZkNTIzNTk2NWMxNzI2OXY0MDcxJywxODM2MywgMSwgMSwgdGhpcywgd2luZG93LmZyYW1lRWxlbWVudCk=&amp;navigate=true&amp;details=Description">
			<g id="shape22-81" transform="translate(54,-297)">
				
				<desc>75 Source to pay</desc>
				<rect x="0" y="1125" width="99" height="63" class="st7" />
				<text x="8.74" y="1160.1" class="st3">75 Source to pay</text>
			</g>
		</a>
		<a id="35f05292-f321-4b53-9f96-2cff95c1cf90" class="rules_svg_anchor rules_svg_shape"   href="/lms/chart?onclick=b3BlbkNoYXJ0Q29udGV4dE1lbnUoZXZlbnQsJ3cxMTZkNTIzNTk2NWMxNzIzOHY0MDcxJywxODMzNCwgMSwgMSwgdGhpcywgd2luZG93LmZyYW1lRWxlbWVudCk=&amp;navigate=true&amp;details=Description">
			<g id="shape25-84" transform="translate(180,-378)">
				
				<desc>70.20 Plan production operations</desc>
				<path d="M0 1188 L126 1188 L126 1125 L0 1125 L0 1188 Z" class="st8" />
				<path d="M0 1188 L126 1188 L126 1125 L0 1125 L0 1188" class="st9" />
				<path d="M9 1188 L9 1125" class="st9" />
				<path d="M117 1188 L117 1125" class="st9" />
				<text x="37.46" y="1145.7" class="st3">70.20 Plan <tspan x="36.05" dy="1.2em" class="st6">production </tspan>
					<tspan x="36.68" dy="1.2em" class="st6">operations</tspan>
				</text>
			</g>
		</a>
		<a id="19ec4f7a-6249-44b0-aafb-eea683d742bf" class="rules_svg_anchor rules_svg_shape"   href="/lms/chart?onclick=b3BlbkNoYXJ0Q29udGV4dE1lbnUoZXZlbnQsJ3cxMTZkNTIzNTk2NWMxNzI4N3Y0MDcxJywxODM4OCwgMSwgMSwgdGhpcywgd2luZG93LmZyYW1lRWxlbWVudCk=&amp;navigate=true&amp;details=Description">
			<g id="shape26-92" transform="translate(180,-297)">
				
				<desc>75.40 Procure goods and services</desc>
				<path d="M0 1188 L126 1188 L126 1125 L0 1125 L0 1188 Z" class="st8" />
				<path d="M0 1188 L126 1188 L126 1125 L0 1125 L0 1188" class="st9" />
				<path d="M9 1188 L9 1125" class="st9" />
				<path d="M117 1188 L117 1125" class="st9" />
				<text x="12.83" y="1152.9" class="st3">75.40 Procure goods <tspan x="33.08" dy="1.2em" class="st6">and services</tspan>
				</text>
			</g>
		</a>
		<a id="22d159d9-682e-4019-8dc6-2bc3c23df732" class="rules_svg_anchor rules_svg_shape"   href="/lms/chart?onclick=b3BlbkNoYXJ0Q29udGV4dE1lbnUoZXZlbnQsJ3cxMTZkNTIzNTk2NWMxNzAyNXY0MDcxJywxODE3OCwgMSwgMSwgdGhpcywgd2luZG93LmZyYW1lRWxlbWVudCk=&amp;navigate=true&amp;details=Description">
			<g id="shape34-99" transform="translate(441,-864)">
				
				<desc>55.10.040 Budget workforce</desc>
				<path d="M0 1188 L126 1188 L126 1125 L0 1125 L0 1188 Z" class="st8" />
				<path d="M0 1188 L126 1188 L126 1125 L0 1125 L0 1188" class="st9" />
				<path d="M9 1188 L9 1125" class="st9" />
				<path d="M117 1188 L117 1125" class="st9" />
				<text x="19.94" y="1152.9" class="st3">55.10.040 Budget <tspan x="38.12" dy="1.2em" class="st6">workforce</tspan>
				</text>
			</g>
		</a>
		<a id="6c620a9e-8d20-485c-965c-18bc53fd2727" class="rules_svg_anchor rules_svg_shape"   href="/lms/chart?onclick=b3BlbkNoYXJ0Q29udGV4dE1lbnUoZXZlbnQsJ3cxMTZkNTIzNTk2NWMxNzAyNnY0MDcxJywxODE3OSwgMSwgMSwgdGhpcywgd2luZG93LmZyYW1lRWxlbWVudCk=&amp;navigate=true&amp;details=Description">
			<g id="shape36-106" transform="translate(531,-738)">
				
				<desc>55.10.045 List open positions</desc>
				<path d="M0 1188 L126 1188 L126 1125 L0 1125 L0 1188 Z" class="st8" />
				<path d="M0 1188 L126 1188 L126 1125 L0 1125 L0 1188" class="st9" />
				<path d="M9 1188 L9 1125" class="st9" />
				<path d="M117 1188 L117 1125" class="st9" />
				<text x="15.26" y="1152.9" class="st3">55.10.045 List open <tspan x="40.91" dy="1.2em" class="st6">positions</tspan>
				</text>
			</g>
		</a>
		<a id="7c938c04-72c7-4852-b77b-19dec87ea28d" class="rules_svg_anchor rules_svg_shape"   href="/lms/chart?onclick=b3BlbkNoYXJ0Q29udGV4dE1lbnUoZXZlbnQsJ3cxMTZkNTIzNTk2NWMxNzAyN3Y0MDcxJywxODE4MCwgMSwgMSwgdGhpcywgd2luZG93LmZyYW1lRWxlbWVudCk=&amp;navigate=true&amp;details=Description">
			<g id="shape40-113" transform="translate(531,-639)">
				
				<desc>55.10.050 Recruit new talent</desc>
				<path d="M0 1188 L126 1188 L126 1125 L0 1125 L0 1188 Z" class="st8" />
				<path d="M0 1188 L126 1188 L126 1125 L0 1125 L0 1188" class="st9" />
				<path d="M9 1188 L9 1125" class="st9" />
				<path d="M117 1188 L117 1125" class="st9" />
				<text x="19.92" y="1152.9" class="st3">55.10.050 Recruit <tspan x="36.81" dy="1.2em" class="st6">new talent</tspan>
				</text>
			</g>
		</a>
		<a id="27c1d5de-8db9-421b-8992-8c79789d83d3" class="rules_svg_anchor rules_svg_shape"   href="/lms/chart?onclick=b3BlbkNoYXJ0Q29udGV4dE1lbnUoZXZlbnQsJ3cxMTZkNTIzNTk2NWMxNzIzMHY0MDcxJywxODMyNywgMSwgMSwgdGhpcywgd2luZG93LmZyYW1lRWxlbWVudCk=&amp;navigate=true&amp;details=Description">
			<g id="shape42-120" transform="translate(846,-342)">
				
				<desc>70 Plan to produce</desc>
				<rect x="0" y="1125" width="99" height="63" class="st7" />
				<text x="3.44" y="1160.1" class="st3">70 Plan to produce</text>
			</g>
		</a>
		<a id="e59ddf96-c68f-4dda-a412-5d2d6dda160d" class="rules_svg_anchor rules_svg_shape"   href="/lms/chart?onclick=b3BlbkNoYXJ0Q29udGV4dE1lbnUoZXZlbnQsJ3cxMTZkNTIzNTk2NWMxNzIzMXY0MDcxJywxODMyOCwgMSwgMSwgdGhpcywgd2luZG93LmZyYW1lRWxlbWVudCk=&amp;navigate=true&amp;details=Description">
			<g id="shape43-123" transform="translate(756,-441)">
				
				<desc>70.10 Develop production strategies</desc>
				<path d="M0 1188 L126 1188 L126 1125 L0 1125 L0 1188 Z" class="st8" />
				<path d="M0 1188 L126 1188 L126 1125 L0 1125 L0 1188" class="st9" />
				<path d="M9 1188 L9 1125" class="st9" />
				<path d="M117 1188 L117 1125" class="st9" />
				<text x="27.9" y="1145.7" class="st3">70.10 Develop <tspan x="36.05" dy="1.2em" class="st6">production </tspan>
					<tspan x="39.15" dy="1.2em" class="st6">strategies</tspan>
				</text>
			</g>
		</a>
		<a id="230d7fd9-5fd6-4b96-9535-1d9bf3b53c61" class="rules_svg_anchor rules_svg_shape"   href="/lms/chart?onclick=b3BlbkNoYXJ0Q29udGV4dE1lbnUoZXZlbnQsJ3cxMTZkNTIzNTk2NWMxNzMxOXY0MDcxJywxODQxMiwgMSwgMSwgdGhpcywgd2luZG93LmZyYW1lRWxlbWVudCk=&amp;navigate=true&amp;details=Description">
			<g id="shape44-131" transform="translate(846,-540)">
				
				<desc>80 Project to profit</desc>
				<rect x="0" y="1125" width="99" height="63" class="st7" />
				<text x="3.23" y="1160.1" class="st3">80 Project to profit</text>
			</g>
		</a>
		<a id="b7a15c3b-84ac-46d5-90d5-5b2963dd6249" class="rules_svg_anchor rules_svg_shape"   href="/lms/chart?onclick=b3BlbkNoYXJ0Q29udGV4dE1lbnUoZXZlbnQsJ3cxMTZkNTIzNTk2NWMxNzM2MnY0MDcxJywxODQ0MywgMSwgMSwgdGhpcywgd2luZG93LmZyYW1lRWxlbWVudCk=&amp;navigate=true&amp;details=Description">
			<g id="shape45-134" transform="translate(756,-639)">
				
				<desc>80.50 Manage project financials</desc>
				<path d="M0 1188 L126 1188 L126 1125 L0 1125 L0 1188 Z" class="st8" />
				<path d="M0 1188 L126 1188 L126 1125 L0 1125 L0 1188" class="st9" />
				<path d="M9 1188 L9 1125" class="st9" />
				<path d="M117 1188 L117 1125" class="st9" />
				<text x="28.12" y="1152.9" class="st3">80.50 Manage <tspan x="21.37" dy="1.2em" class="st6">project financials</tspan>
				</text>
			</g>
		</a>
		<a id="18cc1b80-88d5-456a-b18c-17f62b5621a3" class="rules_svg_anchor rules_svg_shape"   href="/lms/chart?onclick=b3BlbkNoYXJ0Q29udGV4dE1lbnUoZXZlbnQsJ3cxMTZkNTIzNTk2NWMxNjk5MnY0MDcxJywxODExOCwgMSwgMSwgdGhpcywgd2luZG93LmZyYW1lRWxlbWVudCk=&amp;navigate=true&amp;details=Description">
			<g id="shape46-141" transform="translate(846,-738)">
				
				<desc>50 Forecast to plan</desc>
				<rect x="0" y="1125" width="99" height="63" class="st7" />
				<text x="2.85" y="1160.1" class="st3">50 Forecast to plan</text>
			</g>
		</a>
		<a id="eea38bcb-91fa-433e-8972-8e035b34ceaa" class="rules_svg_anchor rules_svg_shape"   href="/lms/chart?onclick=b3BlbkNoYXJ0Q29udGV4dE1lbnUoZXZlbnQsJ3cxMTZkNTIzNTk2NWM1NDI4MHY0MDcxJywxODEzMCwgMSwgMSwgdGhpcywgd2luZG93LmZyYW1lRWxlbWVudCk=&amp;navigate=true&amp;details=Description">
			<g id="shape47-144" transform="translate(756,-814.5)">
				
				<desc>50.25 Conduct sales and operations planning</desc>
				<path d="M0 1188 L126 1188 L126 1125 L0 1125 L0 1188 Z" class="st8" />
				<path d="M0 1188 L126 1188 L126 1125 L0 1125 L0 1188" class="st9" />
				<path d="M9 1188 L9 1125" class="st9" />
				<path d="M117 1188 L117 1125" class="st9" />
				<text x="14.31" y="1145.7" class="st3">50.25 Conduct sales <tspan x="26.15" dy="1.2em" class="st6">and operations </tspan>
					<tspan x="41.94" dy="1.2em" class="st6">planning</tspan>
				</text>
			</g>
		</a>
		<g id="shape48-152" transform="translate(846,-162)">
			
			<desc>Ènd</desc>
			<path d="M18 1188 L67.5 1188 A18 18 -180 0 0 67.5 1152 L18 1152 A18 18 -180 1 0 18 1188 Z" class="st2" />
			<text x="33.52" y="1173.6" class="st3">Ènd</text>
		</g>
		<g id="shape49-155" transform="translate(150.75,-1057.5)">
			
			<path d="M0 1188 L8.83 1188 L8.83 1161 L19.44 1161" class="st10" />
		</g>
		<g id="shape50-161" transform="translate(67.5,-1134)">
			
			<path d="M-2.25 1188 L-33.41 1188 L-33.41 1264.5 L-25.56 1264.5" class="st10" />
		</g>
		<g id="shape51-166" transform="translate(150.75,-967.5)">
			
			<path d="M0 1179 L14.25 1179 L19.44 1179" class="st10" />
		</g>
		<g id="shape53-171" transform="translate(150.75,-976.5)">
			
			<path d="M0 1188 L8.83 1188 L8.83 1269 L17.19 1269" class="st10" />
		</g>
		<g id="shape54-176" transform="translate(150.75,-805.5)">
			
			<path d="M0 1179 L17.19 1179" class="st10" />
		</g>
		<g id="shape55-181" transform="translate(153,-724.5)">
			
			<path d="M0 1179 L17.19 1179" class="st10" />
		</g>
		<g id="shape56-186" transform="translate(153,-643.5)">
			
			<path d="M0 1179 L17.19 1179" class="st10" />
		</g>
		<g id="shape57-191" transform="translate(153,-562.5)">
			
			<path d="M0 1179 L17.19 1179" class="st10" />
		</g>
		<g id="shape59-196" transform="translate(153,-400.5)">
			
			<path d="M0 1179 L17.19 1179" class="st10" />
		</g>
		<g id="shape60-201" transform="translate(153,-319.5)">
			
			<path d="M0 1179 L17.19 1179" class="st10" />
		</g>
		<g id="shape61-206" transform="translate(495,-1102.5)">
			
			<path d="M9 1188 L9 1353.69" class="st10" />
		</g>
		<g id="shape65-211" transform="translate(567,-895.5)">
			
			<path d="M0 1188 L27 1188 L27 1272.69" class="st10" />
		</g>
		<g id="shape66-216" transform="translate(504,-864)">
			
			<path d="M0 1188 L0 1205.66 L-81 1205.66 L-81 1277.19" class="st10" />
		</g>
		<g id="shape69-221" transform="translate(657,-670.5)">
			
			<path d="M0 1188 L17.66 1188 L17.66 1485 L179.19 1485" class="st10" />
		</g>
		<g id="shape71-226" transform="translate(522,-418.5)">
			
			<path d="M0 1188 L0 1318.84 L366.75 1318.84 L366.75 1398.69" class="st10" />
		</g>
		<g id="shape72-231" transform="translate(879.75,-472.5)">
			
			<path d="M2.25 1188 L15.75 1188 L15.75 1245.69" class="st10" />
		</g>
		<g id="shape74-236" transform="translate(879.75,-670.5)">
			
			<path d="M2.25 1188 L15.75 1188 L15.75 1245.69" class="st10" />
		</g>
		<g id="shape76-241" transform="translate(648,-769.5)">
			
			<path d="M9 1188 L26.66 1188 L26.66 1287 L18.81 1287" class="st10" />
		</g>
		<g id="shape77-246" transform="translate(504,-864)">
			
			<path d="M0 1188 L0 1206 L87 1206 A3 3 0 1 1 93 1206 L242.19 1206" class="st10" />
		</g>
		<g id="shape78-251" transform="translate(879.75,-846)">
			
			<path d="M2.25 1188 L15.75 1188 L15.75 1223.19" class="st10" />
		</g>
		<g id="shape79-256" transform="translate(567,-1134)">
			
			<path d="M0 1188 L395.66 1188 L395.66 1552.5 L387.81 1552.5" class="st10" />
		</g>
		<g id="shape80-261" transform="translate(567,-1134)">
			
			<path d="M0 1188 L395.66 1188 L395.66 1750.5 L387.81 1750.5" class="st10" />
		</g>
		<g id="shape81-266" transform="translate(567,-1134)">
			
			<path d="M0 1188 L395.66 1188 L395.66 1948.5 L387.81 1948.5" class="st10" />
		</g>
		<g id="shape82-271" transform="translate(947.25,-373.5)">
			
			<path d="M-2.25 1188 L15.41 1188 L15.41 1381.5 L-5.94 1381.5" class="st10" />
		</g>
		<g id="shape84-276" transform="translate(333,-236.25)">
			
			<desc>Business process area</desc>
			<rect x="0" y="1154.25" width="225" height="33.75" class="st12" />
			<text x="4" y="1174.73" class="st13">Business process area</text>
		</g>
		<a id="6eb37e64-740d-4a26-a81a-7e729c5cef0b" class="rules_svg_anchor rules_svg_shape"   href="/lms/chart?onclick=b3BlbkNoYXJ0Q29udGV4dE1lbnUoZXZlbnQsJ3cxMTZkNTIzNTk2NWMzMDg5NXY0MDcxJywxODE2OSwgMSwgMSwgdGhpcywgd2luZG93LmZyYW1lRWxlbWVudCk=&amp;navigate=true&amp;details=Description">
			<g id="shape85-279" transform="translate(180,-1053)">
				
				<desc>55.05 Develop people strategy</desc>
				<path d="M0 1188 L126 1188 L126 1125 L0 1125 L0 1188 Z" class="st8" />
				<path d="M0 1188 L126 1188 L126 1125 L0 1125 L0 1188" class="st9" />
				<path d="M9 1188 L9 1125" class="st9" />
				<path d="M117 1188 L117 1125" class="st9" />
				<text x="27.9" y="1152.9" class="st3">55.05 Develop <tspan x="24.97" dy="1.2em" class="st6">people strategy</tspan>
				</text>
			</g>
		</a>
		<g id="shape86-286" transform="translate(306,-1084.5)">
			
			<path d="M0 1188 L8.83 1188 L8.83 1138.5 L125.19 1138.5" class="st10" />
		</g>
		<a id="107dae1a-a895-44e7-ae49-f7d46492b458" class="rules_svg_anchor rules_svg_shape"   href="/lms/chart?onclick=b3BlbkNoYXJ0Q29udGV4dE1lbnUoZXZlbnQsJ3cxMTZkNTIzNTk2NWM4MDM3NHY0MDcxJywxODE4MSwgMSwgMSwgdGhpcywgd2luZG93LmZyYW1lRWxlbWVudCk=&amp;navigate=true&amp;details=Description">
			<g id="shape87-291" transform="translate(360,-702)">
				
				<desc>55.10.060 Hire for open positions</desc>
				<path d="M0 1188 L126 1188 L126 1125 L0 1125 L0 1188 Z" class="st8" />
				<path d="M0 1188 L126 1188 L126 1125 L0 1125 L0 1188" class="st9" />
				<path d="M9 1188 L9 1125" class="st9" />
				<path d="M117 1188 L117 1125" class="st9" />
				<text x="18.69" y="1152.9" class="st3">55.10.060 Hire for <tspan x="27.1" dy="1.2em" class="st6">open positions</tspan>
				</text>
			</g>
		</a>
		<a id="814a3fe0-5fc7-442d-8e67-70153d3fe094" class="rules_svg_anchor rules_svg_shape"   href="/lms/chart?onclick=b3BlbkNoYXJ0Q29udGV4dE1lbnUoZXZlbnQsJ3cxMTZkNTIzNTk2NWM4MDM3NXY0MDcxJywxODE4MiwgMSwgMSwgdGhpcywgd2luZG93LmZyYW1lRWxlbWVudCk=&amp;navigate=true&amp;details=Description">
			<g id="shape88-298" transform="translate(459,-513)">
				
				<desc>55.10.070 Onboard new employees</desc>
				<path d="M0 1188 L126 1188 L126 1125 L0 1125 L0 1188 Z" class="st8" />
				<path d="M0 1188 L126 1188 L126 1125 L0 1125 L0 1188" class="st9" />
				<path d="M9 1188 L9 1125" class="st9" />
				<path d="M117 1188 L117 1125" class="st9" />
				<text x="15.77" y="1152.9" class="st3">55.10.070 Onboard <tspan x="24.71" dy="1.2em" class="st6">new employees</tspan>
				</text>
			</g>
		</a>
		<a id="3e8214ec-155d-4d3a-94fa-6bbaf46c3aec" class="rules_svg_anchor rules_svg_shape"   href="/lms/chart?onclick=b3BlbkNoYXJ0Q29udGV4dE1lbnUoZXZlbnQsJ3cxMTZkNTIzNTk2NWM4MDM3NnY0MDcxJywxODE4MywgMSwgMSwgdGhpcywgd2luZG93LmZyYW1lRWxlbWVudCk=&amp;navigate=true&amp;details=Description">
			<g id="shape89-305" transform="translate(459,-418.5)">
				
				<desc>55.10.080 Onboard new contractors</desc>
				<path d="M0 1188 L126 1188 L126 1125 L0 1125 L0 1188 Z" class="st8" />
				<path d="M0 1188 L126 1188 L126 1125 L0 1125 L0 1188" class="st9" />
				<path d="M9 1188 L9 1125" class="st9" />
				<path d="M117 1188 L117 1125" class="st9" />
				<text x="15.77" y="1152.9" class="st3">55.10.080 Onboard <tspan x="23.24" dy="1.2em" class="st6">new contractors</tspan>
				</text>
			</g>
		</a>
		<g id="shape90-312" transform="translate(513,-513)">
			
			<path d="M9 1188 L9 1209.69" class="st10" />
		</g>
		<g id="shape91-317" transform="translate(423,-702)">
			
			<path d="M0 1188 L0 1278 L99 1278 L99 1304.19" class="st10" />
		</g>
		<g id="shape92-322" transform="translate(594,-639)">
			
			<path d="M0 1188 L0 1215.37 L-72 1215.37 L-72 1241.19" class="st10" />
		</g>
	</g>
</svg>
