<?xml version="1.0" encoding="UTF-8" standalone="no"?>
<svg
   width="855.99213"
   height="330.83636"
   overflow="hidden"
   version="1.1"
   id="svg63"
   sodipodi:docname="hire-to-retire-onboard-terminate-employment.svg"
   inkscape:version="1.3.2 (091e20e, 2023-11-25, custom)"
   xmlns:inkscape="http://www.inkscape.org/namespaces/inkscape"
   xmlns:sodipodi="http://sodipodi.sourceforge.net/DTD/sodipodi-0.dtd"
   xmlns="http://www.w3.org/2000/svg"
   xmlns:svg="http://www.w3.org/2000/svg">
  <defs
     id="defs63" />
  <sodipodi:namedview
     id="namedview63"
     pagecolor="#ffffff"
     bordercolor="#000000"
     borderopacity="0.25"
     inkscape:showpageshadow="2"
     inkscape:pageopacity="0.0"
     inkscape:pagecheckerboard="0"
     inkscape:deskcolor="#d1d1d1"
     inkscape:zoom="2.3820312"
     inkscape:cx="422.53854"
     inkscape:cy="139.58675"
     inkscape:window-width="3840"
     inkscape:window-height="2054"
     inkscape:window-x="2869"
     inkscape:window-y="-11"
     inkscape:window-maximized="1"
     inkscape:current-layer="svg63" />
  <g
     id="g63"
     transform="translate(-217.46146,-220.40013)">
    <rect
       x="217.46146"
       y="220.40013"
       width="855.99213"
       height="330.83636"
       fill="#ffffff"
       id="rect1"
       style="stroke-width:0.554333" />
    <path
       d="m 224.5,281.6 c 0,-9.996 8.104,-18.1 18.1,-18.1 h 144.8 c 9.997,0 18.1,8.104 18.1,18.1 v 157.8 c 0,9.997 -8.104,18.1 -18.1,18.1 H 242.6 c -9.996,0 -18.1,-8.104 -18.1,-18.1 z"
       stroke="#0078d4"
       stroke-width="1.13333"
       stroke-linejoin="round"
       stroke-miterlimit="10"
       fill="#ffffff"
       fill-rule="evenodd"
       fill-opacity="0.901961"
       id="path1" />
    <text
       font-family="'Segoe UI', 'Segoe UI_MSFontService', sans-serif"
       font-weight="400"
       font-size="15px"
       transform="translate(241.546,295)"
       id="text1">•</text>
    <text
       font-family="'Segoe UI', 'Segoe UI_MSFontService', sans-serif"
       font-weight="400"
       font-size="15px"
       transform="translate(247.546,295)"
       id="text2">Define</text>
    <text
       font-family="'Segoe UI', 'Segoe UI_MSFontService', sans-serif"
       font-weight="400"
       font-size="15px"
       transform="translate(293.633,295)"
       id="text3">offbo</text>
    <text
       font-family="'Segoe UI', 'Segoe UI_MSFontService', sans-serif"
       font-weight="400"
       font-size="15px"
       transform="translate(328.626,295)"
       id="text4">a</text>
    <text
       font-family="'Segoe UI', 'Segoe UI_MSFontService', sans-serif"
       font-weight="400"
       font-size="15px"
       transform="translate(336.086,295)"
       id="text5">rding</text>
    <text
       font-family="'Segoe UI', 'Segoe UI_MSFontService', sans-serif"
       font-weight="400"
       font-size="15px"
       transform="translate(247.546,312)"
       id="text6">setups</text>
    <text
       font-family="'Segoe UI', 'Segoe UI_MSFontService', sans-serif"
       font-weight="400"
       font-size="15px"
       transform="translate(241.546,333)"
       id="text7">•</text>
    <text
       font-family="'Segoe UI', 'Segoe UI_MSFontService', sans-serif"
       font-weight="400"
       font-size="15px"
       transform="translate(247.546,333)"
       id="text8">Define checklist for</text>
    <text
       font-family="'Segoe UI', 'Segoe UI_MSFontService', sans-serif"
       font-weight="400"
       font-size="15px"
       transform="translate(247.546,350)"
       id="text9">offboarding</text>
    <text
       font-family="'Segoe UI', 'Segoe UI_MSFontService', sans-serif"
       font-weight="400"
       font-size="15px"
       transform="translate(241.546,371)"
       id="text10">•</text>
    <text
       font-family="'Segoe UI', 'Segoe UI_MSFontService', sans-serif"
       font-weight="400"
       font-size="15px"
       transform="translate(247.546,371)"
       id="text11">Define reason codes</text>
    <text
       font-family="'Segoe UI', 'Segoe UI_MSFontService', sans-serif"
       font-weight="400"
       font-size="15px"
       transform="translate(247.546,388)"
       id="text12">for termination</text>
    <text
       font-family="'Segoe UI', 'Segoe UI_MSFontService', sans-serif"
       font-weight="400"
       font-size="15px"
       transform="translate(241.546,409)"
       id="text13">•</text>
    <text
       font-family="'Segoe UI', 'Segoe UI_MSFontService', sans-serif"
       font-weight="400"
       font-size="15px"
       transform="translate(247.546,409)"
       id="text14">Configure</text>
    <text
       font-family="'Segoe UI', 'Segoe UI_MSFontService', sans-serif"
       font-weight="400"
       font-size="15px"
       transform="translate(315.392,409)"
       id="text15">p</text>
    <text
       font-family="'Segoe UI', 'Segoe UI_MSFontService', sans-serif"
       font-weight="400"
       font-size="15px"
       transform="translate(324.012,409)"
       id="text16">ersonnel</text>
    <text
       font-family="'Segoe UI', 'Segoe UI_MSFontService', sans-serif"
       font-weight="400"
       font-size="15px"
       transform="translate(247.546,427)"
       id="text17">action types</text>
    <path
       d="m 345.373,505.328 3.395,-3.005 c 29.449,33.266 80.29,36.359 113.555,6.909 8.958,-7.93 16.034,-17.757 20.713,-28.768 l -2.871,-0.914 7.646,-5.45 2.433,8.66 -2.87,-0.914 c -18.141,43.284 -67.935,63.668 -111.22,45.528 -11.788,-4.941 -22.309,-12.476 -30.781,-22.046 z"
       fill="#aabee6"
       fill-rule="evenodd"
       id="path17" />
    <path
       d="m 271.5,449.6 c 0,-3.369 2.731,-6.1 6.1,-6.1 h 139.8 c 3.369,0 6.1,2.731 6.1,6.1 v 48.8 c 0,3.369 -2.731,6.1 -6.1,6.1 H 277.6 c -3.369,0 -6.1,-2.731 -6.1,-6.1 z"
       stroke="#ffffff"
       stroke-width="1.13333"
       stroke-linejoin="round"
       stroke-miterlimit="10"
       fill="#0078d4"
       fill-rule="evenodd"
       id="path18" />
    <text
       fill="#ffffff"
       font-family="'Segoe UI', 'Segoe UI_MSFontService', sans-serif"
       font-weight="400"
       font-size="15px"
       transform="translate(294.54,461)"
       id="text18">Prerequisites for</text>
    <text
       fill="#ffffff"
       font-family="'Segoe UI', 'Segoe UI_MSFontService', sans-serif"
       font-weight="400"
       font-size="15px"
       transform="translate(299.66,478)"
       id="text19">terminating an</text>
    <text
       fill="#ffffff"
       font-family="'Segoe UI', 'Segoe UI_MSFontService', sans-serif"
       font-weight="400"
       font-size="15px"
       transform="translate(306.26,496)"
       id="text20">employment</text>
    <path
       d="m 439.5,293.8 c 0,-9.554 7.746,-17.3 17.3,-17.3 h 138.4 c 9.555,0 17.3,7.746 17.3,17.3 v 159.4 c 0,9.555 -7.745,17.3 -17.3,17.3 H 456.8 c -9.554,0 -17.3,-7.745 -17.3,-17.3 z"
       stroke="#0078d4"
       stroke-width="1.13333"
       stroke-linejoin="round"
       stroke-miterlimit="10"
       fill="#ffffff"
       fill-rule="evenodd"
       fill-opacity="0.901961"
       id="path20" />
    <text
       font-family="'Segoe UI', 'Segoe UI_MSFontService', sans-serif"
       font-weight="400"
       font-size="15px"
       transform="translate(456.301,349)"
       id="text21">•</text>
    <text
       font-family="'Segoe UI', 'Segoe UI_MSFontService', sans-serif"
       font-weight="400"
       font-size="15px"
       transform="translate(462.301,349)"
       id="text22">Define and setup</text>
    <text
       font-family="'Segoe UI', 'Segoe UI_MSFontService', sans-serif"
       font-weight="400"
       font-size="15px"
       transform="translate(462.301,366)"
       id="text23">the approval based</text>
    <text
       font-family="'Segoe UI', 'Segoe UI_MSFontService', sans-serif"
       font-weight="400"
       font-size="15px"
       transform="translate(462.301,384)"
       id="text24">on business policy</text>
    <text
       font-family="'Segoe UI', 'Segoe UI_MSFontService', sans-serif"
       font-weight="400"
       font-size="15px"
       transform="translate(456.301,404)"
       id="text25">•</text>
    <text
       font-family="'Segoe UI', 'Segoe UI_MSFontService', sans-serif"
       font-weight="400"
       font-size="15px"
       transform="translate(462.301,404)"
       id="text26">Define checklists for</text>
    <text
       font-family="'Segoe UI', 'Segoe UI_MSFontService', sans-serif"
       font-weight="400"
       font-size="15px"
       transform="translate(462.301,422)"
       id="text27">offboarding</text>
    <path
       d="m 547.356,261.099 c 47.68,-30.835 121.766,-28.565 165.476,5.07 3.763,2.896 7.229,5.977 10.37,9.221 l 2.1,-0.832 1.611,7.675 -9.355,-4.607 2.094,-0.83 C 683.791,240.98 613.014,232.185 561.567,257.15 c -3.934,1.909 -7.691,3.99 -11.247,6.23 z"
       fill="#aabee6"
       fill-rule="evenodd"
       id="path27" />
    <path
       d="m 469.5,265.6 c 0,-3.369 2.731,-6.1 6.1,-6.1 h 139.8 c 3.369,0 6.1,2.731 6.1,6.1 v 48.8 c 0,3.369 -2.731,6.1 -6.1,6.1 H 475.6 c -3.369,0 -6.1,-2.731 -6.1,-6.1 z"
       stroke="#ffffff"
       stroke-width="1.13333"
       stroke-linejoin="round"
       stroke-miterlimit="10"
       fill="#0078d4"
       fill-rule="evenodd"
       id="path28" />
    <text
       fill="#ffffff"
       font-family="'Segoe UI', 'Segoe UI_MSFontService', sans-serif"
       font-weight="400"
       font-size="15px"
       transform="translate(479.311,286)"
       id="text28">Define approval and</text>
    <text
       fill="#ffffff"
       font-family="'Segoe UI', 'Segoe UI_MSFontService', sans-serif"
       font-weight="400"
       font-size="15px"
       transform="translate(514.118,303)"
       id="text29">checklists</text>
    <path
       d="m 638.5,295.9 c 0,-11.267 9.133,-20.4 20.4,-20.4 h 163.2 c 11.267,0 20.4,9.133 20.4,20.4 v 179.2 c 0,11.267 -9.133,20.4 -20.4,20.4 H 658.9 c -11.267,0 -20.4,-9.133 -20.4,-20.4 z"
       stroke="#0078d4"
       stroke-width="1.13333"
       stroke-linejoin="round"
       stroke-miterlimit="10"
       fill="#ffffff"
       fill-rule="evenodd"
       fill-opacity="0.901961"
       id="path29" />
    <text
       font-family="'Segoe UI', 'Segoe UI_MSFontService', sans-serif"
       font-weight="400"
       font-size="15px"
       transform="translate(655.632,307)"
       id="text30">•</text>
    <text
       font-family="'Segoe UI', 'Segoe UI_MSFontService', sans-serif"
       font-weight="400"
       font-size="15px"
       transform="translate(661.632,307)"
       id="text31">Provide termination</text>
    <text
       font-family="'Segoe UI', 'Segoe UI_MSFontService', sans-serif"
       font-weight="400"
       font-size="15px"
       transform="translate(661.632,324)"
       id="text32">date, reason and</text>
    <text
       font-family="'Segoe UI', 'Segoe UI_MSFontService', sans-serif"
       font-weight="400"
       font-size="15px"
       transform="translate(661.632,342)"
       id="text33">additional comments</text>
    <text
       font-family="'Segoe UI', 'Segoe UI_MSFontService', sans-serif"
       font-weight="400"
       font-size="15px"
       transform="translate(655.632,362)"
       id="text34">•</text>
    <text
       font-family="'Segoe UI', 'Segoe UI_MSFontService', sans-serif"
       font-weight="400"
       font-size="15px"
       transform="translate(661.632,362)"
       id="text35">Termination of an</text>
    <text
       font-family="'Segoe UI', 'Segoe UI_MSFontService', sans-serif"
       font-weight="400"
       font-size="15px"
       transform="translate(661.632,380)"
       id="text36">employee</text>
    <text
       font-family="'Segoe UI', 'Segoe UI_MSFontService', sans-serif"
       font-weight="400"
       font-size="15px"
       transform="translate(655.632,400)"
       id="text37">•</text>
    <text
       font-family="'Segoe UI', 'Segoe UI_MSFontService', sans-serif"
       font-weight="400"
       font-size="15px"
       transform="translate(661.632,400)"
       id="text38">Expire</text>
    <text
       font-family="'Segoe UI', 'Segoe UI_MSFontService', sans-serif"
       font-weight="400"
       font-size="15px"
       transform="translate(704.745,400)"
       id="text39">b</text>
    <text
       font-family="'Segoe UI', 'Segoe UI_MSFontService', sans-serif"
       font-weight="400"
       font-size="15px"
       transform="translate(713.365,400)"
       id="text40">enefits</text>
    <text
       font-family="'Segoe UI', 'Segoe UI_MSFontService', sans-serif"
       font-weight="400"
       font-size="15px"
       transform="translate(655.632,421)"
       id="text41">•</text>
    <text
       font-family="'Segoe UI', 'Segoe UI_MSFontService', sans-serif"
       font-weight="400"
       font-size="15px"
       transform="translate(661.632,421)"
       id="text42">End</text>
    <text
       font-family="'Segoe UI', 'Segoe UI_MSFontService', sans-serif"
       font-weight="400"
       font-size="15px"
       transform="translate(690.012,421)"
       id="text43">f</text>
    <text
       font-family="'Segoe UI', 'Segoe UI_MSFontService', sans-serif"
       font-weight="400"
       font-size="15px"
       transform="translate(694.605,421)"
       id="text44">ixed</text>
    <text
       font-family="'Segoe UI', 'Segoe UI_MSFontService', sans-serif"
       font-weight="400"
       font-size="15px"
       transform="translate(725.219,421)"
       id="text45">and variable</text>
    <text
       font-family="'Segoe UI', 'Segoe UI_MSFontService', sans-serif"
       font-weight="400"
       font-size="15px"
       transform="translate(661.632,439)"
       id="text46">c</text>
    <text
       font-family="'Segoe UI', 'Segoe UI_MSFontService', sans-serif"
       font-weight="400"
       font-size="15px"
       transform="translate(668.405,439)"
       id="text47">ompensation</text>
    <text
       font-family="'Segoe UI', 'Segoe UI_MSFontService', sans-serif"
       font-weight="400"
       font-size="15px"
       transform="translate(655.632,459)"
       id="text48">•</text>
    <text
       font-family="'Segoe UI', 'Segoe UI_MSFontService', sans-serif"
       font-weight="400"
       font-size="15px"
       transform="translate(661.632,459)"
       id="text49">End leave</text>
    <text
       font-family="'Segoe UI', 'Segoe UI_MSFontService', sans-serif"
       font-weight="400"
       font-size="15px"
       transform="translate(727.405,459)"
       id="text50">enrollments</text>
    <path
       d="m 767.791,534.093 2.081,-3.996 c 48.686,25.605 108.807,6.694 134.283,-42.237 7.179,-13.789 11.057,-29.071 11.324,-44.632 l -2.99,0.173 5.089,-7.78 5.401,7.173 -2.991,0.173 c -0.806,57.708 -48.017,103.832 -105.448,103.021 -16.295,-0.23 -32.309,-4.304 -46.749,-11.895 z"
       fill="#aabee6"
       fill-rule="evenodd"
       id="path50" />
    <path
       d="m 693.5,478.5 c 0,-3.314 2.686,-6 6,-6 h 139 c 3.314,0 6,2.686 6,6 v 48 c 0,3.314 -2.686,6 -6,6 h -139 c -3.314,0 -6,-2.686 -6,-6 z"
       stroke="#ffffff"
       stroke-width="1.13333"
       stroke-linejoin="round"
       stroke-miterlimit="10"
       fill="#0078d4"
       fill-rule="evenodd"
       id="path51" />
    <text
       fill="#ffffff"
       font-family="'Segoe UI', 'Segoe UI_MSFontService', sans-serif"
       font-weight="400"
       font-size="15px"
       transform="translate(735.974,490)"
       id="text51">Terminate</text>
    <text
       fill="#ffffff"
       font-family="'Segoe UI', 'Segoe UI_MSFontService', sans-serif"
       font-weight="400"
       font-size="15px"
       transform="translate(706.581,507)"
       id="text52">employment for an</text>
    <text
       fill="#ffffff"
       font-family="'Segoe UI', 'Segoe UI_MSFontService', sans-serif"
       font-weight="400"
       font-size="15px"
       transform="translate(736.748,525)"
       id="text53">employee</text>
    <path
       d="m 863.5,259.9 c 0,-10.162 8.238,-18.4 18.4,-18.4 h 147.2 c 10.16,0 18.4,8.238 18.4,18.4 v 150.2 c 0,10.162 -8.24,18.4 -18.4,18.4 H 881.9 c -10.162,0 -18.4,-8.238 -18.4,-18.4 z"
       stroke="#0078d4"
       stroke-width="1.13333"
       stroke-linejoin="round"
       stroke-miterlimit="10"
       fill="#ffffff"
       fill-rule="evenodd"
       fill-opacity="0.901961"
       id="path53" />
    <text
       font-family="'Segoe UI', 'Segoe UI_MSFontService', sans-serif"
       font-weight="400"
       font-size="15px"
       transform="translate(880.682,313)"
       id="text54">•</text>
    <text
       font-family="'Segoe UI', 'Segoe UI_MSFontService', sans-serif"
       font-weight="400"
       font-size="15px"
       transform="translate(886.682,313)"
       id="text55">End all position</text>
    <text
       font-family="'Segoe UI', 'Segoe UI_MSFontService', sans-serif"
       font-weight="400"
       font-size="15px"
       transform="translate(886.682,330)"
       id="text56">assignments and</text>
    <text
       font-family="'Segoe UI', 'Segoe UI_MSFontService', sans-serif"
       font-weight="400"
       font-size="15px"
       transform="translate(886.682,348)"
       id="text57">relevant affiliations</text>
    <text
       font-family="'Segoe UI', 'Segoe UI_MSFontService', sans-serif"
       font-weight="400"
       font-size="15px"
       transform="translate(880.682,368)"
       id="text58">•</text>
    <text
       font-family="'Segoe UI', 'Segoe UI_MSFontService', sans-serif"
       font-weight="400"
       font-size="15px"
       transform="translate(886.682,368)"
       id="text59">Terminate or keep the</text>
    <text
       font-family="'Segoe UI', 'Segoe UI_MSFontService', sans-serif"
       font-weight="400"
       font-size="15px"
       transform="translate(886.682,386)"
       id="text60">position for the</text>
    <text
       font-family="'Segoe UI', 'Segoe UI_MSFontService', sans-serif"
       font-weight="400"
       font-size="15px"
       transform="translate(886.682,404)"
       id="text61">organization</text>
    <path
       d="m 915.5,234.5 c 0,-3.314 2.686,-6 6,-6 h 140 c 3.31,0 6,2.686 6,6 v 48 c 0,3.314 -2.69,6 -6,6 h -140 c -3.314,0 -6,-2.686 -6,-6 z"
       stroke="#ffffff"
       stroke-width="1.13333"
       stroke-linejoin="round"
       stroke-miterlimit="10"
       fill="#0078d4"
       fill-rule="evenodd"
       id="path61" />
    <text
       fill="#ffffff"
       font-family="'Segoe UI', 'Segoe UI_MSFontService', sans-serif"
       font-weight="400"
       font-size="15px"
       transform="translate(938.798,254)"
       id="text62">Worker position</text>
    <text
       fill="#ffffff"
       font-family="'Segoe UI', 'Segoe UI_MSFontService', sans-serif"
       font-weight="400"
       font-size="15px"
       transform="translate(953.758,271)"
       id="text63">assignment</text>
  </g>
</svg>
