<svg width="1920" height="1920" xmlns="http://www.w3.org/2000/svg" xmlns:xlink="http://www.w3.org/1999/xlink" overflow="hidden"><defs><clipPath id="clip0"><rect x="0" y="0" width="1920" height="1920"/></clipPath></defs><g clip-path="url(#clip0)"><rect x="0" y="0" width="1920" height="1920" fill="#FFFFFF"/><path d="M90 77.5C90 57.3416 106.342 41 126.5 41L265.5 41C285.658 41 302 57.3416 302 77.5L302 77.5C302 97.6584 285.658 114 265.5 114L126.5 114C106.342 114 90 97.6584 90 77.5Z" stroke="#0078D4" stroke-width="2" stroke-linejoin="round" stroke-miterlimit="10" fill="none" fill-rule="evenodd"/><text font-family="Segoe UI,Segoe UI_MSFontService,sans-serif" font-weight="400" font-size="20" transform="translate(175.336 85)">Start</text><rect x="90" y="152" width="212" height="144" stroke="#A6A6A6" stroke-width="2" stroke-linejoin="round" stroke-miterlimit="10" fill="#A0A0A0"/><text font-family="Segoe UI,Segoe UI_MSFontService,sans-serif" font-weight="400" font-size="20" transform="translate(150.51 219)">Acquire to</text><text font-family="Segoe UI,Segoe UI_MSFontService,sans-serif" font-weight="400" font-size="20" transform="translate(162.216 243)">dispose</text><rect x="823" y="205" width="252" height="153" fill="#FFFFFF"/><path d="M854.5 205 854.5 358M1043.5 205 1043.5 358" stroke="#0078D4" stroke-width="2" stroke-linejoin="round" stroke-miterlimit="10" fill="none" fill-rule="evenodd"/><rect x="823" y="205" width="252" height="153" stroke="#0078D4" stroke-width="2" stroke-linejoin="round" stroke-miterlimit="10" fill="none"/><text font-family="Segoe UI,Segoe UI_MSFontService,sans-serif" font-weight="400" font-size="20" transform="translate(911.005 265)">Plan and</text><text font-family="Segoe UI,Segoe UI_MSFontService,sans-serif" font-weight="400" font-size="20" transform="translate(898.439 289)">recruit your</text><text font-family="Segoe UI,Segoe UI_MSFontService,sans-serif" font-weight="400" font-size="20" transform="translate(905.419 313)">workforce</text><rect x="90" y="331" width="212" height="144" stroke="#A6A6A6" stroke-width="2" stroke-linejoin="round" stroke-miterlimit="10" fill="#A0A0A0"/><text font-family="Segoe UI,Segoe UI_MSFontService,sans-serif" font-weight="400" font-size="20" transform="translate(163.38 398)">Case to</text><text font-family="Segoe UI,Segoe UI_MSFontService,sans-serif" font-weight="400" font-size="20" transform="translate(151.933 422)">resolution</text><rect x="823" y="1718" width="252" height="153" fill="#FFFFFF"/><path d="M854.5 1718 854.5 1871M1043.5 1718 1043.5 1871" stroke="#0078D4" stroke-width="2" stroke-linejoin="round" stroke-miterlimit="10" fill="none" fill-rule="evenodd"/><rect x="823" y="1718" width="252" height="153" stroke="#0078D4" stroke-width="2" stroke-linejoin="round" stroke-miterlimit="10" fill="none"/><text font-family="Segoe UI,Segoe UI_MSFontService,sans-serif" font-weight="400" font-size="20" transform="translate(933.995 1790)">Pay</text><text font-family="Segoe UI,Segoe UI_MSFontService,sans-serif" font-weight="400" font-size="20" transform="translate(898.889 1812)">employees</text><rect x="823" y="583" width="252" height="154" fill="#FFFFFF"/><path d="M854.5 583 854.5 737M1043.5 583 1043.5 737" stroke="#0078D4" stroke-width="2" stroke-linejoin="round" stroke-miterlimit="10" fill="none" fill-rule="evenodd"/><rect x="823" y="583" width="252" height="154" stroke="#0078D4" stroke-width="2" stroke-linejoin="round" stroke-miterlimit="10" fill="none"/><text font-family="Segoe UI,Segoe UI_MSFontService,sans-serif" font-weight="400" font-size="20" transform="translate(913.175 631)">Manage</text><text font-family="Segoe UI,Segoe UI_MSFontService,sans-serif" font-weight="400" font-size="20" transform="translate(905.889 655)">employee</text><text font-family="Segoe UI,Segoe UI_MSFontService,sans-serif" font-weight="400" font-size="20" transform="translate(892.669 679)">performance</text><text font-family="Segoe UI,Segoe UI_MSFontService,sans-serif" font-weight="400" font-size="20" transform="translate(898.309 703)">and growth</text><rect x="844" y="-1" width="211" height="153" stroke="#0078D4" stroke-width="2" stroke-linejoin="round" stroke-miterlimit="10" fill="#0078D4"/><text font-family="Segoe UI,Segoe UI_MSFontService,sans-serif" font-weight="400" font-size="20" transform="translate(893.315 82)">Hire to retire</text><rect x="823" y="772" width="252" height="154" fill="#FFFFFF"/><path d="M854.5 772 854.5 926M1043.5 772 1043.5 926" stroke="#0078D4" stroke-width="2" stroke-linejoin="round" stroke-miterlimit="10" fill="none" fill-rule="evenodd"/><rect x="823" y="772" width="252" height="154" stroke="#0078D4" stroke-width="2" stroke-linejoin="round" stroke-miterlimit="10" fill="none"/><text font-family="Segoe UI,Segoe UI_MSFontService,sans-serif" font-weight="400" font-size="20" transform="translate(913.172 823)">Manage</text><text font-family="Segoe UI,Segoe UI_MSFontService,sans-serif" font-weight="400" font-size="20" transform="translate(892.805 845)">occupational</text><text font-family="Segoe UI,Segoe UI_MSFontService,sans-serif" font-weight="400" font-size="20" transform="translate(902.252 866)">health and</text><text font-family="Segoe UI,Segoe UI_MSFontService,sans-serif" font-weight="400" font-size="20" transform="translate(920.419 888)">safety</text><path d="M1613 1871.5C1613 1851.34 1629.34 1835 1649.5 1835L1787.5 1835C1807.66 1835 1824 1851.34 1824 1871.5L1824 1871.5C1824 1891.66 1807.66 1908 1787.5 1908L1649.5 1908C1629.34 1908 1613 1891.66 1613 1871.5Z" stroke="#0078D4" stroke-width="2" stroke-linejoin="round" stroke-miterlimit="10" fill="none" fill-rule="evenodd"/><text font-family="Segoe UI,Segoe UI_MSFontService,sans-serif" font-weight="400" font-size="20" transform="translate(1701.64 1878)">End</text><rect x="823" y="962" width="252" height="153" fill="#FFFFFF"/><path d="M854.5 962 854.5 1115M1043.5 962 1043.5 1115" stroke="#0078D4" stroke-width="2" stroke-linejoin="round" stroke-miterlimit="10" fill="none" fill-rule="evenodd"/><rect x="823" y="962" width="252" height="153" stroke="#0078D4" stroke-width="2" stroke-linejoin="round" stroke-miterlimit="10" fill="none"/><text font-family="Segoe UI,Segoe UI_MSFontService,sans-serif" font-weight="400" font-size="20" transform="translate(901.412 1012)">Administer</text><text font-family="Segoe UI,Segoe UI_MSFontService,sans-serif" font-weight="400" font-size="20" transform="translate(886.472 1034)">employee and</text><text font-family="Segoe UI,Segoe UI_MSFontService,sans-serif" font-weight="400" font-size="20" transform="translate(910.085 1055)">manager</text><text font-family="Segoe UI,Segoe UI_MSFontService,sans-serif" font-weight="400" font-size="20" transform="translate(909.052 1077)">requests</text><rect x="823" y="1151" width="252" height="153" fill="#FFFFFF"/><path d="M854.5 1151 854.5 1304M1043.5 1151 1043.5 1304" stroke="#0078D4" stroke-width="2" stroke-linejoin="round" stroke-miterlimit="10" fill="none" fill-rule="evenodd"/><rect x="823" y="1151" width="252" height="153" stroke="#0078D4" stroke-width="2" stroke-linejoin="round" stroke-miterlimit="10" fill="none"/><text font-family="Segoe UI,Segoe UI_MSFontService,sans-serif" font-weight="400" font-size="20" transform="translate(913.175 1201)">Manage</text><text font-family="Segoe UI,Segoe UI_MSFontService,sans-serif" font-weight="400" font-size="20" transform="translate(905.889 1223)">employee</text><text font-family="Segoe UI,Segoe UI_MSFontService,sans-serif" font-weight="400" font-size="20" transform="translate(894.422 1244)">benefits and</text><text font-family="Segoe UI,Segoe UI_MSFontService,sans-serif" font-weight="400" font-size="20" transform="translate(883.922 1266)">compensation</text><rect x="823" y="394" width="252" height="154" fill="#FFFFFF"/><path d="M854.5 394 854.5 548M1043.5 394 1043.5 548" stroke="#0078D4" stroke-width="2" stroke-linejoin="round" stroke-miterlimit="10" fill="none" fill-rule="evenodd"/><rect x="823" y="394" width="252" height="154" stroke="#0078D4" stroke-width="2" stroke-linejoin="round" stroke-miterlimit="10" fill="none"/><text font-family="Segoe UI,Segoe UI_MSFontService,sans-serif" font-weight="400" font-size="20" transform="translate(890.605 445)">Onboard and</text><text font-family="Segoe UI,Segoe UI_MSFontService,sans-serif" font-weight="400" font-size="20" transform="translate(896.505 467)">manage the</text><text font-family="Segoe UI,Segoe UI_MSFontService,sans-serif" font-weight="400" font-size="20" transform="translate(905.885 488)">employee</text><text font-family="Segoe UI,Segoe UI_MSFontService,sans-serif" font-weight="400" font-size="20" transform="translate(914.305 510)">lifecycle</text><rect x="823" y="1529" width="252" height="153" fill="#FFFFFF"/><path d="M854.5 1529 854.5 1682M1043.5 1529 1043.5 1682" stroke="#0078D4" stroke-width="2" stroke-linejoin="round" stroke-miterlimit="10" fill="none" fill-rule="evenodd"/><rect x="823" y="1529" width="252" height="153" stroke="#0078D4" stroke-width="2" stroke-linejoin="round" stroke-miterlimit="10" fill="none"/><text font-family="Segoe UI,Segoe UI_MSFontService,sans-serif" font-weight="400" font-size="20" transform="translate(886.065 1601)">Manage travel</text><text font-family="Segoe UI,Segoe UI_MSFontService,sans-serif" font-weight="400" font-size="20" transform="translate(889.339 1623)">and expenses</text><rect x="90" y="511" width="212" height="144" stroke="#A6A6A6" stroke-width="2" stroke-linejoin="round" stroke-miterlimit="10" fill="#A0A0A0"/><text font-family="Segoe UI,Segoe UI_MSFontService,sans-serif" font-weight="400" font-size="20" transform="translate(125.593 590)">Forecast to plan</text><rect x="90" y="691" width="212" height="144" stroke="#A6A6A6" stroke-width="2" stroke-linejoin="round" stroke-miterlimit="10" fill="#A0A0A0"/><text font-family="Segoe UI,Segoe UI_MSFontService,sans-serif" font-weight="400" font-size="20" transform="translate(136.26 770)">Order to cash</text><rect x="90" y="870" width="212" height="144" stroke="#A6A6A6" stroke-width="2" stroke-linejoin="round" stroke-miterlimit="10" fill="#A0A0A0"/><text font-family="Segoe UI,Segoe UI_MSFontService,sans-serif" font-weight="400" font-size="20" transform="translate(126.093 949)">Plan to produce</text><rect x="90" y="1050" width="212" height="144" stroke="#A6A6A6" stroke-width="2" stroke-linejoin="round" stroke-miterlimit="10" fill="#A0A0A0"/><text font-family="Segoe UI,Segoe UI_MSFontService,sans-serif" font-weight="400" font-size="20" transform="translate(132.026 1129)">Procure to pay</text><rect x="90" y="1229" width="212" height="144" stroke="#A6A6A6" stroke-width="2" stroke-linejoin="round" stroke-miterlimit="10" fill="#A0A0A0"/><text font-family="Segoe UI,Segoe UI_MSFontService,sans-serif" font-weight="400" font-size="20" transform="translate(142.266 1284)">Product and</text><text font-family="Segoe UI,Segoe UI_MSFontService,sans-serif" font-weight="400" font-size="20" transform="translate(128.033 1308)">service lifecycle</text><text font-family="Segoe UI,Segoe UI_MSFontService,sans-serif" font-weight="400" font-size="20" transform="translate(137.553 1332)">management</text><rect x="90" y="1409" width="212" height="144" stroke="#A6A6A6" stroke-width="2" stroke-linejoin="round" stroke-miterlimit="10" fill="#A0A0A0"/><text font-family="Segoe UI,Segoe UI_MSFontService,sans-serif" font-weight="400" font-size="20" transform="translate(126.99 1488)">Project to profit</text><rect x="90" y="1589" width="212" height="144" stroke="#A6A6A6" stroke-width="2" stroke-linejoin="round" stroke-miterlimit="10" fill="#A0A0A0"/><text font-family="Segoe UI,Segoe UI_MSFontService,sans-serif" font-weight="400" font-size="20" transform="translate(123.133 1668)">Record to report</text><rect x="90" y="1768" width="212" height="144" stroke="#A6A6A6" stroke-width="2" stroke-linejoin="round" stroke-miterlimit="10" fill="#A0A0A0"/><text font-family="Segoe UI,Segoe UI_MSFontService,sans-serif" font-weight="400" font-size="20" transform="translate(130.31 1847)">Service to cash</text><rect x="1613" y="41" width="211" height="144" stroke="#A6A6A6" stroke-width="2" stroke-linejoin="round" stroke-miterlimit="10" fill="#A0A0A0"/><text font-family="Segoe UI,Segoe UI_MSFontService,sans-serif" font-weight="400" font-size="20" transform="translate(1672.76 108)">Acquire to</text><text font-family="Segoe UI,Segoe UI_MSFontService,sans-serif" font-weight="400" font-size="20" transform="translate(1684.47 132)">dispose</text><rect x="1613" y="203" width="211" height="144" stroke="#A6A6A6" stroke-width="2" stroke-linejoin="round" stroke-miterlimit="10" fill="#A0A0A0"/><text font-family="Segoe UI,Segoe UI_MSFontService,sans-serif" font-weight="400" font-size="20" transform="translate(1685.63 270)">Case to</text><text font-family="Segoe UI,Segoe UI_MSFontService,sans-serif" font-weight="400" font-size="20" transform="translate(1674.19 294)">resolution</text><rect x="1613" y="365" width="211" height="144" stroke="#A6A6A6" stroke-width="2" stroke-linejoin="round" stroke-miterlimit="10" fill="#A0A0A0"/><text font-family="Segoe UI,Segoe UI_MSFontService,sans-serif" font-weight="400" font-size="20" transform="translate(1647.85 444)">Forecast to plan</text><rect x="1613" y="526" width="211" height="144" stroke="#A6A6A6" stroke-width="2" stroke-linejoin="round" stroke-miterlimit="10" fill="#A0A0A0"/><text font-family="Segoe UI,Segoe UI_MSFontService,sans-serif" font-weight="400" font-size="20" transform="translate(1664.53 593)">Inventory to</text><text font-family="Segoe UI,Segoe UI_MSFontService,sans-serif" font-weight="400" font-size="20" transform="translate(1688.87 617)">deliver</text><rect x="1613" y="688" width="211" height="144" stroke="#A6A6A6" stroke-width="2" stroke-linejoin="round" stroke-miterlimit="10" fill="#A0A0A0"/><text font-family="Segoe UI,Segoe UI_MSFontService,sans-serif" font-weight="400" font-size="20" transform="translate(1658.51 767)">Order to cash</text><rect x="1613" y="849" width="211" height="144" stroke="#A6A6A6" stroke-width="2" stroke-linejoin="round" stroke-miterlimit="10" fill="#A0A0A0"/><text font-family="Segoe UI,Segoe UI_MSFontService,sans-serif" font-weight="400" font-size="20" transform="translate(1648.35 928)">Plan to produce</text><rect x="1613" y="1011" width="211" height="144" stroke="#A6A6A6" stroke-width="2" stroke-linejoin="round" stroke-miterlimit="10" fill="#A0A0A0"/><text font-family="Segoe UI,Segoe UI_MSFontService,sans-serif" font-weight="400" font-size="20" transform="translate(1654.28 1090)">Procure to pay</text><rect x="1613" y="1173" width="211" height="144" stroke="#A6A6A6" stroke-width="2" stroke-linejoin="round" stroke-miterlimit="10" fill="#A0A0A0"/><text font-family="Segoe UI,Segoe UI_MSFontService,sans-serif" font-weight="400" font-size="20" transform="translate(1664.52 1228)">Product and</text><text font-family="Segoe UI,Segoe UI_MSFontService,sans-serif" font-weight="400" font-size="20" transform="translate(1650.29 1252)">service lifecycle</text><text font-family="Segoe UI,Segoe UI_MSFontService,sans-serif" font-weight="400" font-size="20" transform="translate(1659.81 1276)">management</text><rect x="1613" y="1334" width="211" height="144" stroke="#A6A6A6" stroke-width="2" stroke-linejoin="round" stroke-miterlimit="10" fill="#A0A0A0"/><text font-family="Segoe UI,Segoe UI_MSFontService,sans-serif" font-weight="400" font-size="20" transform="translate(1649.24 1413)">Project to profit</text><rect x="1613" y="1496" width="211" height="144" stroke="#A6A6A6" stroke-width="2" stroke-linejoin="round" stroke-miterlimit="10" fill="#A0A0A0"/><text font-family="Segoe UI,Segoe UI_MSFontService,sans-serif" font-weight="400" font-size="20" transform="translate(1645.39 1575)">Record to report</text><rect x="1613" y="1658" width="211" height="144" stroke="#A6A6A6" stroke-width="2" stroke-linejoin="round" stroke-miterlimit="10" fill="#A0A0A0"/><text font-family="Segoe UI,Segoe UI_MSFontService,sans-serif" font-weight="400" font-size="20" transform="translate(1652.56 1737)">Service to cash</text><path d="M0.00680055-1.49998 534.352 0.922601 534.338 3.92257-0.00680055 1.49998ZM532.865-2.08417 541.845 2.45659 532.825 6.91574Z" fill="#0078D4" transform="matrix(1 0 0 -1 302.5 77.9566)"/><path d="M951 152.5 951 198.227 948 198.227 948 152.5ZM954 196.727 949.5 205.727 945 196.727Z" fill="#0078D4"/><path d="M0-1.5 24-1.5C24.8284-1.5 25.5-0.828427 25.5 0L25.5 146.174C25.5 147.002 24.8284 147.674 24 147.674L8.83333 147.674 8.83333 144.674 24 144.674 22.5 146.174 22.5 0 24 1.5 0 1.5ZM10.3333 150.674 1.33333 146.174 10.3333 141.674Z" fill="#0078D4" transform="matrix(-1 1.22465e-16 1.22465e-16 1 91.8334 78.5001)"/><path d="M0-1.5 24-1.5C24.8284-1.5 25.5-0.828427 25.5 0L25.5 325.761C25.5 326.589 24.8284 327.261 24 327.261L8.83333 327.261 8.83333 324.261 24 324.261 22.5 325.761 22.5 0 24 1.5 0 1.5ZM10.3333 330.261 1.33333 325.761 10.3333 321.261Z" fill="#0078D4" transform="matrix(-1 1.22465e-16 1.22465e-16 1 91.8334 78.5001)"/><path d="M0-1.5 24-1.5C24.8284-1.5 25.5-0.828427 25.5 0L25.5 505.348C25.5 506.177 24.8284 506.848 24 506.848L8.83333 506.848 8.83333 503.848 24 503.848 22.5 505.348 22.5 0 24 1.5 0 1.5ZM10.3333 509.848 1.33333 505.348 10.3333 500.848Z" fill="#0078D4" transform="matrix(-1 1.22465e-16 1.22465e-16 1 91.8334 78.5001)"/><path d="M0-1.5 24-1.5C24.8284-1.5 25.5-0.828427 25.5 0L25.5 684.936C25.5 685.764 24.8284 686.436 24 686.436L8.83333 686.436 8.83333 683.436 24 683.436 22.5 684.936 22.5 0 24 1.5 0 1.5ZM10.3333 689.436 1.33333 684.936 10.3333 680.436Z" fill="#0078D4" transform="matrix(-1 1.22465e-16 1.22465e-16 1 91.8334 78.5001)"/><path d="M0-1.5 24-1.5C24.8284-1.5 25.5-0.828427 25.5 0L25.5 864.523C25.5 865.351 24.8284 866.023 24 866.023L8.83333 866.023 8.83333 863.023 24 863.023 22.5 864.523 22.5 0 24 1.5 0 1.5ZM10.3333 869.023 1.33333 864.523 10.3333 860.023Z" fill="#0078D4" transform="matrix(-1 1.22465e-16 1.22465e-16 1 91.8334 78.5001)"/><path d="M0-1.5 24-1.5C24.8284-1.5 25.5-0.828427 25.5 0L25.5 1044.11C25.5 1044.94 24.8284 1045.61 24 1045.61L8.83333 1045.61 8.83333 1042.61 24 1042.61 22.5 1044.11 22.5 0 24 1.5 0 1.5ZM10.3333 1048.61 1.33333 1044.11 10.3333 1039.61Z" fill="#0078D4" transform="matrix(-1 1.22465e-16 1.22465e-16 1 91.8334 78.5001)"/><path d="M0-1.5 24-1.5C24.8284-1.5 25.5-0.828427 25.5 0L25.5 1223.7C25.5 1224.53 24.8284 1225.2 24 1225.2L8.83333 1225.2 8.83333 1222.2 24 1222.2 22.5 1223.7 22.5 0 24 1.5 0 1.5ZM10.3333 1228.2 1.33333 1223.7 10.3333 1219.2Z" fill="#0078D4" transform="matrix(-1 1.22465e-16 1.22465e-16 1 91.8334 78.5001)"/><path d="M0-1.5 24-1.5C24.8284-1.5 25.5-0.828427 25.5 0L25.5 1403.28C25.5 1404.11 24.8284 1404.78 24 1404.78L8.83333 1404.78 8.83333 1401.78 24 1401.78 22.5 1403.28 22.5 0 24 1.5 0 1.5ZM10.3333 1407.78 1.33333 1403.28 10.3333 1398.78Z" fill="#0078D4" transform="matrix(-1 1.22465e-16 1.22465e-16 1 91.8334 78.5001)"/><path d="M0-1.5 24-1.5C24.8284-1.5 25.5-0.828427 25.5 0L25.5 1582.87C25.5 1583.7 24.8284 1584.37 24 1584.37L8.83333 1584.37 8.83333 1581.37 24 1581.37 22.5 1582.87 22.5 0 24 1.5 0 1.5ZM10.3333 1587.37 1.33333 1582.87 10.3333 1578.37Z" fill="#0078D4" transform="matrix(-1 1.22465e-16 1.22465e-16 1 91.8334 78.5001)"/><path d="M0-1.5 24-1.5C24.8284-1.5 25.5-0.828427 25.5 0L25.5 1762.46C25.5 1763.29 24.8284 1763.96 24 1763.96L8.83333 1763.96 8.83333 1760.96 24 1760.96 22.5 1762.46 22.5 0 24 1.5 0 1.5ZM10.3333 1766.96 1.33333 1762.46 10.3333 1757.96Z" fill="#0078D4" transform="matrix(-1 1.22465e-16 1.22465e-16 1 91.8334 78.5001)"/><path d="M1720 1802.5 1720 1828.41 1717 1828.41 1717 1802.5ZM1723 1826.91 1718.5 1835.91 1714 1826.91Z" fill="#0078D4"/><path d="M1824.5 112 1848.5 112C1849.33 112 1850 112.672 1850 113.5L1850 1871.58C1850 1872.41 1849.33 1873.08 1848.5 1873.08L1833.33 1873.08 1833.33 1870.08 1848.5 1870.08 1847 1871.58 1847 113.5 1848.5 115 1824.5 115ZM1834.83 1876.08 1825.83 1871.58 1834.83 1867.08Z" fill="#0078D4"/><path d="M1824.5 274 1848.5 274C1849.33 274 1850 274.672 1850 275.5L1850 1871.96C1850 1872.78 1849.33 1873.46 1848.5 1873.46L1833.33 1873.46 1833.33 1870.46 1848.5 1870.46 1847 1871.96 1847 275.5 1848.5 277 1824.5 277ZM1834.83 1876.46 1825.83 1871.96 1834.83 1867.46Z" fill="#0078D4"/><path d="M1824.5 436 1848.5 436C1849.33 436 1850 436.672 1850 437.5L1850 1872.33C1850 1873.16 1849.33 1873.83 1848.5 1873.83L1833.33 1873.83 1833.33 1870.83 1848.5 1870.83 1847 1872.33 1847 437.5 1848.5 439 1824.5 439ZM1834.83 1876.83 1825.83 1872.33 1834.83 1867.83Z" fill="#0078D4"/><path d="M1824.5 597 1848.5 597C1849.33 597 1850 597.672 1850 598.5L1850 1871.7C1850 1872.53 1849.33 1873.2 1848.5 1873.2L1833.33 1873.2 1833.33 1870.2 1848.5 1870.2 1847 1871.7 1847 598.5 1848.5 600 1824.5 600ZM1834.83 1876.2 1825.83 1871.7 1834.83 1867.2Z" fill="#0078D4"/><path d="M1824.5 759 1848.5 759C1849.33 759 1850 759.672 1850 760.5L1850 1872.07C1850 1872.9 1849.33 1873.57 1848.5 1873.57L1833.33 1873.57 1833.33 1870.57 1848.5 1870.57 1847 1872.07 1847 760.5 1848.5 762 1824.5 762ZM1834.83 1876.57 1825.83 1872.07 1834.83 1867.57Z" fill="#0078D4"/><path d="M1824.5 920 1848.5 920C1849.33 920 1850 920.672 1850 921.5L1850 1871.44C1850 1872.27 1849.33 1872.94 1848.5 1872.94L1833.33 1872.94 1833.33 1869.94 1848.5 1869.94 1847 1871.44 1847 921.5 1848.5 923 1824.5 923ZM1834.83 1875.94 1825.83 1871.44 1834.83 1866.94Z" fill="#0078D4"/><path d="M1824.5 1082 1848.5 1082C1849.33 1082 1850 1082.67 1850 1083.5L1850 1871.81C1850 1872.64 1849.33 1873.31 1848.5 1873.31L1833.33 1873.31 1833.33 1870.31 1848.5 1870.31 1847 1871.81 1847 1083.5 1848.5 1085 1824.5 1085ZM1834.83 1876.31 1825.83 1871.81 1834.83 1867.31Z" fill="#0078D4"/><path d="M1824.5 1244 1848.5 1244C1849.33 1244 1850 1244.67 1850 1245.5L1850 1872.18C1850 1873.01 1849.33 1873.68 1848.5 1873.68L1833.33 1873.68 1833.33 1870.68 1848.5 1870.68 1847 1872.18 1847 1245.5 1848.5 1247 1824.5 1247ZM1834.83 1876.68 1825.83 1872.18 1834.83 1867.68Z" fill="#0078D4"/><path d="M1824.5 1405 1848.5 1405C1849.33 1405 1850 1405.67 1850 1406.5L1850 1871.56C1850 1872.38 1849.33 1873.06 1848.5 1873.06L1833.33 1873.06 1833.33 1870.06 1848.5 1870.06 1847 1871.56 1847 1406.5 1848.5 1408 1824.5 1408ZM1834.83 1876.06 1825.83 1871.56 1834.83 1867.06Z" fill="#0078D4"/><path d="M1824.5 1567 1848.5 1567C1849.33 1567 1850 1567.67 1850 1568.5L1850 1871.93C1850 1872.76 1849.33 1873.43 1848.5 1873.43L1833.33 1873.43 1833.33 1870.43 1848.5 1870.43 1847 1871.93 1847 1568.5 1848.5 1570 1824.5 1570ZM1834.83 1876.43 1825.83 1871.93 1834.83 1867.43Z" fill="#0078D4"/><rect x="823" y="1340" width="252" height="153" fill="#FFFFFF"/><path d="M854.5 1340 854.5 1493M1043.5 1340 1043.5 1493" stroke="#0078D4" stroke-width="2" stroke-linejoin="round" stroke-miterlimit="10" fill="none" fill-rule="evenodd"/><rect x="823" y="1340" width="252" height="153" stroke="#0078D4" stroke-width="2" stroke-linejoin="round" stroke-miterlimit="10" fill="none"/><text font-family="Segoe UI,Segoe UI_MSFontService,sans-serif" font-weight="400" font-size="20" transform="translate(913.175 1390)">Manage</text><text font-family="Segoe UI,Segoe UI_MSFontService,sans-serif" font-weight="400" font-size="20" transform="translate(905.889 1412)">employee</text><text font-family="Segoe UI,Segoe UI_MSFontService,sans-serif" font-weight="400" font-size="20" transform="translate(910.089 1433)">time and</text><text font-family="Segoe UI,Segoe UI_MSFontService,sans-serif" font-weight="400" font-size="20" transform="translate(899.915 1455)">attendance</text><path d="M951 358.5 951 386.834 948 386.834 948 358.5ZM954 385.334 949.5 394.334 945 385.334Z" fill="#0078D4"/><path d="M0-1.5 24-1.5C24.8284-1.5 25.5-0.828427 25.5 0L25.5 189.124C25.5 189.952 24.8284 190.624 24 190.624L8.83333 190.624 8.83333 187.624 24 187.624 22.5 189.124 22.5 0 24 1.5 0 1.5ZM10.3333 193.624 1.33333 189.124 10.3333 184.624Z" fill="#0078D4" transform="matrix(-1 1.22465e-16 1.22465e-16 1 824.833 471.5)"/><path d="M0-1.5 24-1.5C24.8284-1.5 25.5-0.828427 25.5 0L25.5 756.496C25.5 757.324 24.8284 757.996 24 757.996L8.83333 757.996 8.83333 754.996 24 754.996 22.5 756.496 22.5 0 24 1.5 0 1.5ZM10.3333 760.996 1.33333 756.496 10.3333 751.996Z" fill="#0078D4" transform="matrix(-1 1.22465e-16 1.22465e-16 1 824.833 471.5)"/><path d="M0-1.5 24-1.5C24.8284-1.5 25.5-0.828427 25.5 0L25.5 945.62C25.5 946.448 24.8284 947.12 24 947.12L8.83333 947.12 8.83333 944.12 24 944.12 22.5 945.62 22.5 0 24 1.5 0 1.5ZM10.3333 950.12 1.33333 945.62 10.3333 941.12Z" fill="#0078D4" transform="matrix(-1 1.22465e-16 1.22465e-16 1 824.833 471.5)"/><path d="M0-1.5 24-1.5C24.8284-1.5 25.5-0.828427 25.5 0L25.5 567.372C25.5 568.2 24.8284 568.872 24 568.872L8.83333 568.872 8.83333 565.872 24 565.872 22.5 567.372 22.5 0 24 1.5 0 1.5ZM10.3333 571.872 1.33333 567.372 10.3333 562.872Z" fill="#0078D4" transform="matrix(-1 1.22465e-16 1.22465e-16 1 824.833 471.5)"/><path d="M0-1.5 24-1.5C24.8284-1.5 25.5-0.828427 25.5 0L25.5 1134.74C25.5 1135.57 24.8284 1136.24 24 1136.24L8.83333 1136.24 8.83333 1133.24 24 1133.24 22.5 1134.74 22.5 0 24 1.5 0 1.5ZM10.3333 1139.24 1.33333 1134.74 10.3333 1130.24Z" fill="#0078D4" transform="matrix(-1 1.22465e-16 1.22465e-16 1 824.833 471.5)"/><path d="M0-1.5 24-1.5C24.8284-1.5 25.5-0.828427 25.5 0L25.5 378.248C25.5 379.076 24.8284 379.748 24 379.748L8.83333 379.748 8.83333 376.748 24 376.748 22.5 378.248 22.5 0 24 1.5 0 1.5ZM10.3333 382.748 1.33333 378.248 10.3333 373.748Z" fill="#0078D4" transform="matrix(-1 1.22465e-16 1.22465e-16 1 824.833 471.5)"/><path d="M1075.5 1226 1099.5 1226C1100.33 1226 1101 1226.67 1101 1227.5L1101 1794.87C1101 1795.7 1100.33 1796.37 1099.5 1796.37L1084.33 1796.37 1084.33 1793.37 1099.5 1793.37 1098 1794.87 1098 1227.5 1099.5 1229 1075.5 1229ZM1085.83 1799.37 1076.83 1794.87 1085.83 1790.37Z" fill="#0078D4"/><path d="M1075.5 1415 1099.5 1415C1100.33 1415 1101 1415.67 1101 1416.5L1101 1794.75C1101 1795.58 1100.33 1796.25 1099.5 1796.25L1084.33 1796.25 1084.33 1793.25 1099.5 1793.25 1098 1794.75 1098 1416.5 1099.5 1418 1075.5 1418ZM1085.83 1799.25 1076.83 1794.75 1085.83 1790.25Z" fill="#0078D4"/><path d="M1075.5 1605 1099.5 1605C1100.33 1605 1101 1605.67 1101 1606.5L1101 1795.62C1101 1796.45 1100.33 1797.12 1099.5 1797.12L1084.33 1797.12 1084.33 1794.12 1099.5 1794.12 1098 1795.62 1098 1606.5 1099.5 1608 1075.5 1608ZM1085.83 1800.12 1076.83 1795.62 1085.83 1791.12Z" fill="#0078D4"/><path d="M951 1871.93 951 1895.93 949.5 1894.43 1344.23 1894.43 1342.73 1895.93 1342.73 1568.5C1342.73 1567.67 1343.4 1567 1344.23 1567L1605.45 1567 1605.45 1570 1344.23 1570 1345.73 1568.5 1345.73 1895.93C1345.73 1896.76 1345.06 1897.43 1344.23 1897.43L949.5 1897.43C948.672 1897.43 948 1896.76 948 1895.93L948 1871.93ZM1603.95 1564 1612.95 1568.5 1603.95 1573Z" fill="#0078D4"/><path d="M0-1.5 268.727-1.5C269.555-1.5 270.227-0.828427 270.227 0L270.227 37.6586 268.727 36.1586 529.953 36.1586 529.953 39.1586 268.727 39.1586C267.898 39.1586 267.227 38.487 267.227 37.6586L267.227 0 268.727 1.5 0 1.5ZM528.454 33.1586 537.454 37.6586 528.454 42.1586Z" fill="#0078D4" transform="matrix(1 0 0 -1 1075.5 1606.16)"/><path d="M0-1.5 268.727-1.5C269.555-1.5 270.227-0.828427 270.227 0L270.227 10.1631 268.727 8.66315 529.953 8.66315 529.953 11.6631 268.727 11.6631C267.898 11.6631 267.227 10.9916 267.227 10.1631L267.227 0 268.727 1.5 0 1.5ZM528.454 5.66315 537.454 10.1631 528.454 14.6631Z" fill="#0078D4" transform="matrix(1 0 0 -1 1075.5 1416.66)"/><path d="M0-1.5 268.727-1.5C269.555-1.5 270.227-0.828427 270.227 0L270.227 495.049 268.727 493.549 529.953 493.549 529.953 496.549 268.727 496.549C267.898 496.549 267.227 495.877 267.227 495.049L267.227 0 268.727 1.5 0 1.5ZM528.454 490.549 537.454 495.049 528.454 499.549Z" fill="#0078D4" transform="matrix(1 0 0 -1 1075.5 1416.55)"/><path d="M0-1.5 268.727-1.5C269.556-1.5 270.227-0.828427 270.227 0L270.227 763.315 268.727 761.815 529.953 761.815 529.953 764.815 268.727 764.815C267.899 764.815 267.227 764.143 267.227 763.315L267.227 0 268.727 1.5 0 1.5ZM528.454 758.815 537.454 763.315 528.454 767.815Z" fill="#0078D4" transform="matrix(1 0 0 -1 1075.5 1038.82)"/><path d="M1075.5 281 1344.23 281C1345.06 281 1345.73 281.672 1345.73 282.5L1345.73 437.31 1344.23 435.81 1605.45 435.81 1605.45 438.81 1344.23 438.81C1343.4 438.81 1342.73 438.138 1342.73 437.31L1342.73 282.5 1344.23 284 1075.5 284ZM1603.95 432.81 1612.95 437.31 1603.95 441.81Z" fill="#0078D4"/><path d="M1075.5 281 1344.23 281C1345.06 281 1345.73 281.672 1345.73 282.5L1345.73 922.195 1344.23 920.695 1605.45 920.695 1605.45 923.695 1344.23 923.695C1343.4 923.695 1342.73 923.024 1342.73 922.195L1342.73 282.5 1344.23 284 1075.5 284ZM1603.95 917.695 1612.95 922.195 1603.95 926.695Z" fill="#0078D4"/><path d="M0-1.5 268.06-1.5C268.889-1.5 269.56-0.828427 269.56 0L269.56 363.09 268.06 361.59 528.62 361.59 528.62 364.59 268.06 364.59C267.232 364.59 266.56 363.918 266.56 363.09L266.56 0 268.06 1.5 0 1.5ZM527.12 358.59 536.12 363.09 527.12 367.59Z" fill="#0078D4" transform="matrix(1 0 0 -1 1077.5 476.59)"/><path d="M0-1.5 268.727-1.5C269.555-1.5 270.227-0.828427 270.227 0L270.227 385.067 268.727 383.567 529.953 383.567 529.953 386.567 268.727 386.567C267.898 386.567 267.227 385.896 267.227 385.067L267.227 0 268.727 1.5 0 1.5ZM528.454 380.567 537.454 385.067 528.454 389.567Z" fill="#0078D4" transform="matrix(1 0 0 -1 1075.5 660.567)"/><path d="M0-1.5 268.727-1.5C269.556-1.5 270.227-0.828427 270.227 0L270.227 574.191 268.727 572.691 529.954 572.691 529.954 575.691 268.727 575.691C267.899 575.691 267.227 575.02 267.227 574.191L267.227 0 268.727 1.5 0 1.5ZM528.454 569.691 537.454 574.191 528.454 578.691Z" fill="#0078D4" transform="matrix(1 0 0 -1 1075.5 849.691)"/><path d="M0-1.5 268.727-1.5C269.555-1.5 270.227-0.828427 270.227 0L270.227 522.544 268.727 521.044 529.953 521.044 529.953 524.044 268.727 524.044C267.898 524.044 267.227 523.373 267.227 522.544L267.227 0 268.727 1.5 0 1.5ZM528.454 518.044 537.454 522.544 528.454 527.044Z" fill="#0078D4" transform="matrix(1 0 0 -1 1075.5 1606.04)"/><path d="M0-1.5 268.727-1.5C269.555-1.5 270.227-0.828427 270.227 0L270.227 144.296 268.727 142.796 529.953 142.796 529.953 145.796 268.727 145.796C267.898 145.796 267.227 145.125 267.227 144.296L267.227 0 268.727 1.5 0 1.5ZM528.454 139.796 537.454 144.296 528.454 148.796Z" fill="#0078D4" transform="matrix(1 0 0 -1 1075.5 1227.8)"/><path d="M0-1.5 268.727-1.5C269.555-1.5 270.227-0.828427 270.227 0L270.227 250.934 268.727 249.434 529.953 249.434 529.953 252.434 268.727 252.434C267.898 252.434 267.227 251.762 267.227 250.934L267.227 0 268.727 1.5 0 1.5ZM528.454 246.434 537.454 250.934 528.454 255.434Z" fill="#0078D4" transform="matrix(1 0 0 -1 1075.5 849.434)"/><path d="M1075.5 848 1344.23 848C1345.06 848 1345.73 848.672 1345.73 849.5L1345.73 921.823 1344.23 920.323 1605.45 920.323 1605.45 923.323 1344.23 923.323C1343.4 923.323 1342.73 922.652 1342.73 921.823L1342.73 849.5 1344.23 851 1075.5 851ZM1603.95 917.323 1612.95 921.823 1603.95 926.323Z" fill="#0078D4"/><path d="M1075.5 848 1344.23 848C1345.06 848 1345.73 848.672 1345.73 849.5L1345.73 1245.08 1344.23 1243.58 1605.45 1243.58 1605.45 1246.58 1344.23 1246.58C1343.4 1246.58 1342.73 1245.91 1342.73 1245.08L1342.73 849.5 1344.23 851 1075.5 851ZM1603.95 1240.58 1612.95 1245.08 1603.95 1249.58Z" fill="#0078D4"/><path d="M1075.5 848 1344.23 848C1345.06 848 1345.73 848.672 1345.73 849.5L1345.73 1406.71 1344.23 1405.21 1605.45 1405.21 1605.45 1408.21 1344.23 1408.21C1343.4 1408.21 1342.73 1407.54 1342.73 1406.71L1342.73 849.5 1344.23 851 1075.5 851ZM1603.95 1402.21 1612.95 1406.71 1603.95 1411.21Z" fill="#0078D4"/><path d="M1075.5 848 1344.23 848C1345.06 848 1345.73 848.672 1345.73 849.5L1345.73 1568.34 1344.23 1566.84 1605.45 1566.84 1605.45 1569.84 1344.23 1569.84C1343.4 1569.84 1342.73 1569.17 1342.73 1568.34L1342.73 849.5 1344.23 851 1075.5 851ZM1603.95 1563.84 1612.95 1568.34 1603.95 1572.84Z" fill="#0078D4"/><path d="M0 1.5-24.0006 1.5-22.5006 0-22.5006 281.359-24.0006 279.859 126 279.859C126.828 279.859 127.5 280.531 127.5 281.359L127.5 294.103 124.5 294.103 124.5 281.359 126 282.859-24.0006 282.859C-24.829 282.859-25.5006 282.187-25.5006 281.359L-25.5006 0C-25.5006-0.828427-24.829-1.5-24.0006-1.5L0-1.5ZM130.5 292.603 126 301.603 121.5 292.603Z" fill="#0078D4" transform="matrix(-1 0 0 1 1075.5 849.5)"/><path d="M0-1.5 268.727-1.5C269.555-1.5 270.227-0.828427 270.227 0L270.227 467.553 268.727 466.053 529.953 466.053 529.953 469.053 268.727 469.053C267.898 469.053 267.227 468.382 267.227 467.553L267.227 0 268.727 1.5 0 1.5ZM528.454 463.053 537.454 467.553 528.454 472.053Z" fill="#0078D4" transform="matrix(1 0 0 -1 1075.5 1228.05)"/><path d="M1075.5 1226 1344.23 1226C1345.06 1226 1345.73 1226.67 1345.73 1227.5L1345.73 1729.72 1344.23 1728.22 1605.45 1728.22 1605.45 1731.22 1344.23 1731.22C1343.4 1731.22 1342.73 1730.55 1342.73 1729.72L1342.73 1227.5 1344.23 1229 1075.5 1229ZM1603.95 1725.22 1612.95 1729.72 1603.95 1734.22Z" fill="#0078D4"/><path d="M0-1.5 268.727-1.5C269.555-1.5 270.227-0.828427 270.227 0L270.227 305.925 268.727 304.425 529.953 304.425 529.953 307.425 268.727 307.425C267.898 307.425 267.227 306.753 267.227 305.925L267.227 0 268.727 1.5 0 1.5ZM528.454 301.425 537.454 305.925 528.454 310.425Z" fill="#0078D4" transform="matrix(1 0 0 -1 1075.5 1227.42)"/><path d="M1075.5 1226 1344.23 1226C1345.06 1226 1345.73 1226.67 1345.73 1227.5L1345.73 1406.46 1344.23 1404.96 1605.45 1404.96 1605.45 1407.96 1344.23 1407.96C1343.4 1407.96 1342.73 1407.29 1342.73 1406.46L1342.73 1227.5 1344.23 1229 1075.5 1229ZM1603.95 1401.96 1612.95 1406.46 1603.95 1410.96Z" fill="#0078D4"/><path d="M302.5 223 613.067 223C613.895 223 614.567 223.672 614.567 224.5L614.567 282.387 613.067 280.887 816.445 280.887 816.445 283.887 613.067 283.887C612.239 283.887 611.567 283.215 611.567 282.387L611.567 224.5 613.067 226 302.5 226ZM814.945 277.887 823.945 282.387 814.945 286.887Z" fill="#0078D4"/><path d="M0-1.5 260.722-1.5C261.551-1.5 262.222-0.828427 262.222 0L262.222 121.7 260.722 120.2 513.945 120.2 513.945 123.2 260.722 123.2C259.894 123.2 259.222 122.529 259.222 121.7L259.222 0 260.722 1.5 0 1.5ZM512.445 117.2 521.445 121.7 512.445 126.2Z" fill="#0078D4" transform="matrix(1 0 0 -1 302.5 404.201)"/><path d="M0-1.5 260.722-1.5C261.551-1.5 262.222-0.828427 262.222 0L262.222 301.288 260.722 299.788 513.945 299.788 513.945 302.788 260.722 302.788C259.894 302.788 259.222 302.116 259.222 301.288L259.222 0 260.722 1.5 0 1.5ZM512.445 296.788 521.445 301.288 512.445 305.788Z" fill="#0078D4" transform="matrix(1 0 0 -1 302.5 583.788)"/><path d="M0-1.5 260.722-1.5C261.551-1.5 262.222-0.828427 262.222 0L262.222 480.875 260.722 479.375 513.945 479.375 513.945 482.375 260.722 482.375C259.894 482.375 259.222 481.703 259.222 480.875L259.222 0 260.722 1.5 0 1.5ZM512.445 476.375 521.445 480.875 512.445 485.375Z" fill="#0078D4" transform="matrix(1 0 0 -1 302.5 763.375)"/><path d="M0-1.5 260.722-1.5C261.551-1.5 262.222-0.828427 262.222 0L262.222 660.462 260.722 658.962 513.945 658.962 513.945 661.962 260.722 661.962C259.894 661.962 259.222 661.291 259.222 660.462L259.222 0 260.722 1.5 0 1.5ZM512.445 655.962 521.445 660.462 512.445 664.962Z" fill="#0078D4" transform="matrix(1 0 0 -1 302.5 942.962)"/><path d="M0-1.5 260.722-1.5C261.551-1.5 262.222-0.828427 262.222 0L262.222 840.05 260.722 838.55 513.945 838.55 513.945 841.55 260.722 841.55C259.894 841.55 259.222 840.878 259.222 840.05L259.222 0 260.722 1.5 0 1.5ZM512.445 835.55 521.445 840.05 512.445 844.55Z" fill="#0078D4" transform="matrix(1 0 0 -1 302.5 1122.55)"/><path d="M0-1.5 260.722-1.5C261.551-1.5 262.222-0.828427 262.222 0L262.222 1019.64 260.722 1018.14 513.945 1018.14 513.945 1021.14 260.722 1021.14C259.894 1021.14 259.222 1020.47 259.222 1019.64L259.222 0 260.722 1.5 0 1.5ZM512.445 1015.14 521.445 1019.64 512.445 1024.14Z" fill="#0078D4" transform="matrix(1 0 0 -1 302.5 1302.14)"/><path d="M0-1.5 260.723-1.5C261.551-1.5 262.223-0.828427 262.223 0L262.223 1199.22 260.723 1197.72 513.945 1197.72 513.945 1200.72 260.723 1200.72C259.895 1200.72 259.223 1200.05 259.223 1199.22L259.223 0 260.723 1.5 0 1.5ZM512.445 1194.72 521.445 1199.22 512.445 1203.72Z" fill="#0078D4" transform="matrix(1 0 0 -1 302.5 1481.72)"/><path d="M0-1.5 260.723-1.5C261.552-1.5 262.223-0.828427 262.223 0L262.223 1378.81 260.723 1377.31 513.945 1377.31 513.945 1380.31 260.723 1380.31C259.895 1380.31 259.223 1379.64 259.223 1378.81L259.223 0 260.723 1.5 0 1.5ZM512.445 1374.31 521.445 1378.81 512.445 1383.31Z" fill="#0078D4" transform="matrix(1 0 0 -1 302.5 1661.31)"/><path d="M0-1.5 260.722-1.5C261.551-1.5 262.222-0.828427 262.222 0L262.222 1558.4 260.722 1556.9 513.945 1556.9 513.945 1559.9 260.722 1559.9C259.894 1559.9 259.222 1559.23 259.222 1558.4L259.222 0 260.722 1.5 0 1.5ZM512.445 1553.9 521.445 1558.4 512.445 1562.9Z" fill="#0078D4" transform="matrix(1 0 0 -1 302.5 1840.9)"/><path d="M0-1.5 295.524-1.5C296.352-1.5 297.024-0.828427 297.024 0L297.024 282.214 295.524 280.714 513.945 280.714 513.945 283.714 295.524 283.714C294.695 283.714 294.024 283.043 294.024 282.214L294.024 0 295.524 1.5 0 1.5ZM512.445 277.714 521.445 282.214 512.445 286.714Z" fill="#0078D4" transform="matrix(1 0 0 -1 302.5 942.714)"/><path d="M302.5 941 597.33 941C598.158 941 598.83 941.672 598.83 942.5L598.83 1795.03 597.33 1793.53 816.445 1793.53 816.445 1796.53 597.33 1796.53C596.501 1796.53 595.83 1795.86 595.83 1795.03L595.83 942.5 597.33 944 302.5 944ZM814.945 1790.53 823.945 1795.03 814.945 1799.53Z" fill="#0078D4"/><path d="M302.5 760 620.821 760C621.65 760 622.321 760.672 622.321 761.5L622.321 1226.24 620.821 1224.74 816.445 1224.74 816.445 1227.74 620.821 1227.74C619.993 1227.74 619.321 1227.07 619.321 1226.24L619.321 761.5 620.821 763 302.5 763ZM814.945 1221.74 823.945 1226.24 814.945 1230.74Z" fill="#0078D4"/><path d="M302.5 1480 563.222 1480C564.051 1480 564.722 1480.67 564.722 1481.5L564.722 1606.14 563.222 1604.64 816.445 1604.64 816.445 1607.64 563.222 1607.64C562.394 1607.64 561.722 1606.97 561.722 1606.14L561.722 1481.5 563.222 1483 302.5 1483ZM814.945 1601.64 823.945 1606.14 814.945 1610.64Z" fill="#0078D4"/><path d="M0-1.5 349.191-1.5C350.019-1.5 350.691-0.828427 350.691 0L350.691 234.531 349.191 233.031 513.945 233.031 513.945 236.031 349.191 236.031C348.362 236.031 347.691 235.359 347.691 234.531L347.691 0 349.191 1.5 0 1.5ZM512.445 230.031 521.445 234.531 512.445 239.031Z" fill="#0078D4" transform="matrix(1 0 0 -1 302.5 1841.03)"/><path d="M302.5 223 613.067 223C613.895 223 614.567 223.672 614.567 224.5L614.567 471.511 613.067 470.011 816.445 470.011 816.445 473.011 613.067 473.011C612.239 473.011 611.567 472.339 611.567 471.511L611.567 224.5 613.067 226 302.5 226ZM814.945 467.011 823.945 471.511 814.945 476.011Z" fill="#0078D4"/><path d="M0-1.5 25.0613-1.5C25.8897-1.5 26.5613-0.828427 26.5613 0L26.5613 393.926C26.5613 394.754 25.8897 395.426 25.0613 395.426L1.33333 395.426 2.83333 393.926 2.83333 655.954-0.166667 655.954-0.166667 393.926C-0.166667 393.097 0.504906 392.426 1.33333 392.426L25.0613 392.426 23.5613 393.926 23.5613 0 25.0613 1.5 0 1.5ZM5.83333 654.454 1.33333 663.454-3.16667 654.454Z" fill="#0078D4" transform="matrix(1.83697e-16 1 1 -1.83697e-16 950.5 1871.5)"/></g></svg>