<?xml version="1.0" encoding="UTF-8" standalone="no"?>
<svg
   width="704.45288"
   height="257.11487"
   overflow="hidden"
   version="1.1"
   id="svg50"
   sodipodi:docname="hire-to-retire-onboard-new-hires-flow.svg"
   inkscape:version="1.3.2 (091e20e, 2023-11-25, custom)"
   xmlns:inkscape="http://www.inkscape.org/namespaces/inkscape"
   xmlns:sodipodi="http://sodipodi.sourceforge.net/DTD/sodipodi-0.dtd"
   xmlns="http://www.w3.org/2000/svg"
   xmlns:svg="http://www.w3.org/2000/svg">
  <defs
     id="defs50" />
  <sodipodi:namedview
     id="namedview50"
     pagecolor="#ffffff"
     bordercolor="#000000"
     borderopacity="0.25"
     inkscape:showpageshadow="2"
     inkscape:pageopacity="0.0"
     inkscape:pagecheckerboard="0"
     inkscape:deskcolor="#d1d1d1"
     inkscape:zoom="2.5513889"
     inkscape:cx="413.10833"
     inkscape:cy="84.071856"
     inkscape:window-width="3840"
     inkscape:window-height="2054"
     inkscape:window-x="2869"
     inkscape:window-y="-11"
     inkscape:window-maximized="1"
     inkscape:current-layer="svg50" />
  <g
     id="g50"
     transform="translate(-67.022316,-275.92813)">
    <rect
       x="67.022316"
       y="275.92813"
       width="704.45288"
       height="257.11487"
       fill="#ffffff"
       id="rect1"
       style="stroke-width:0.511903" />
    <path
       d="m 71.5001,359.4 c 0,-6.572 5.3277,-11.9 11.8999,-11.9 h 119.2 c 6.572,0 11.9,5.328 11.9,11.9 v 95.2 c 0,6.572 -5.328,11.9 -11.9,11.9 H 83.4 c -6.5722,0 -11.8999,-5.328 -11.8999,-11.9 z"
       stroke="#4472c4"
       stroke-width="1.33333"
       stroke-miterlimit="8"
       fill="#ffffff"
       fill-rule="evenodd"
       fill-opacity="0.901961"
       id="path1" />
    <text
       font-family="Calibri, Calibri_MSFontService, sans-serif"
       font-weight="400"
       font-size="12px"
       transform="translate(75.1002,362)"
       id="text1">•</text>
    <text
       font-family="Calibri, Calibri_MSFontService, sans-serif"
       font-weight="400"
       font-size="12px"
       transform="translate(81.1002,362)"
       id="text2">Employee start date</text>
    <text
       font-family="Calibri, Calibri_MSFontService, sans-serif"
       font-weight="400"
       font-size="12px"
       transform="translate(75.1002,377)"
       id="text3">•</text>
    <text
       font-family="Calibri, Calibri_MSFontService, sans-serif"
       font-weight="400"
       font-size="12px"
       transform="translate(81.1002,377)"
       id="text4">Checklist selected during</text>
    <text
       font-family="Calibri, Calibri_MSFontService, sans-serif"
       font-weight="400"
       font-size="12px"
       transform="translate(81.1002,391)"
       id="text5">hire</text>
    <text
       font-family="Calibri, Calibri_MSFontService, sans-serif"
       font-weight="400"
       font-size="12px"
       transform="translate(75.1002,406)"
       id="text6">•</text>
    <text
       font-family="Calibri, Calibri_MSFontService, sans-serif"
       font-weight="400"
       font-size="12px"
       transform="translate(81.1002,406)"
       id="text7">Checklists tasks triggered</text>
    <text
       font-family="Calibri, Calibri_MSFontService, sans-serif"
       font-weight="400"
       font-size="12px"
       transform="translate(81.1002,419)"
       id="text8">along with the due dates</text>
    <path
       d="m 165.122,491.991 3.571,-2.027 c 18.622,33.271 60.495,45.037 93.526,26.279 8.911,-5.061 16.587,-12.063 22.466,-20.496 l -2.372,-1.347 7.779,-3.422 0.551,8.152 -2.373,-1.347 c -22.919,33.236 -68.258,41.473 -101.268,18.397 -9.011,-6.299 -16.49,-14.568 -21.88,-24.189 z"
       fill="#b0bcde"
       fill-rule="evenodd"
       id="path8" />
    <path
       d="m 102.5,445.6 c 0,-2.817 2.283,-5.1 5.1,-5.1 h 117.8 c 2.817,0 5.1,2.283 5.1,5.1 v 40.8 c 0,2.817 -2.283,5.1 -5.1,5.1 H 107.6 c -2.817,0 -5.1,-2.283 -5.1,-5.1 z"
       stroke="#ffffff"
       stroke-width="1.33333"
       stroke-miterlimit="8"
       fill="#4472c4"
       fill-rule="evenodd"
       id="path9" />
    <text
       fill="#ffffff"
       font-family="Calibri, Calibri_MSFontService, sans-serif"
       font-weight="400"
       font-size="15px"
       transform="translate(134.311,462)"
       id="text9">Hire a new</text>
    <text
       fill="#ffffff"
       font-family="Calibri, Calibri_MSFontService, sans-serif"
       font-weight="400"
       font-size="15px"
       transform="translate(136.811,478)"
       id="text10">employee</text>
    <path
       d="m 250.5,359.4 c 0,-6.572 5.328,-11.9 11.9,-11.9 h 119.2 c 6.572,0 11.9,5.328 11.9,11.9 v 95.2 c 0,6.572 -5.328,11.9 -11.9,11.9 H 262.4 c -6.572,0 -11.9,-5.328 -11.9,-11.9 z"
       stroke="#4472c4"
       stroke-width="1.33333"
       stroke-miterlimit="8"
       fill="#ffffff"
       fill-rule="evenodd"
       fill-opacity="0.901961"
       id="path10" />
    <text
       font-family="Calibri, Calibri_MSFontService, sans-serif"
       font-weight="400"
       font-size="12px"
       transform="translate(254.368,387)"
       id="text11">•</text>
    <text
       font-family="Calibri, Calibri_MSFontService, sans-serif"
       font-weight="400"
       font-size="12px"
       transform="translate(260.368,387)"
       id="text12">Checklists assigned to</text>
    <text
       font-family="Calibri, Calibri_MSFontService, sans-serif"
       font-weight="400"
       font-size="12px"
       transform="translate(260.368,400)"
       id="text13">employees on self</text>
    <text
       font-family="Calibri, Calibri_MSFontService, sans-serif"
       font-weight="400"
       font-size="12px"
       transform="translate(348.528,400)"
       id="text14">-</text>
    <text
       font-family="Calibri, Calibri_MSFontService, sans-serif"
       font-weight="400"
       font-size="12px"
       transform="translate(352.201,400)"
       id="text15">service</text>
    <text
       font-family="Calibri, Calibri_MSFontService, sans-serif"
       font-weight="400"
       font-size="12px"
       transform="translate(254.368,416)"
       id="text16">•</text>
    <text
       font-family="Calibri, Calibri_MSFontService, sans-serif"
       font-weight="400"
       font-size="12px"
       transform="translate(260.368,416)"
       id="text17">Checklists assigned to</text>
    <text
       font-family="Calibri, Calibri_MSFontService, sans-serif"
       font-weight="400"
       font-size="12px"
       transform="translate(260.368,429)"
       id="text18">task groups</text>
    <text
       font-family="Calibri, Calibri_MSFontService, sans-serif"
       font-weight="400"
       font-size="12px"
       transform="translate(254.368,444)"
       id="text19">•</text>
    <text
       font-family="Calibri, Calibri_MSFontService, sans-serif"
       font-weight="400"
       font-size="12px"
       transform="translate(260.368,444)"
       id="text20">Checklists assigned to</text>
    <text
       font-family="Calibri, Calibri_MSFontService, sans-serif"
       font-weight="400"
       font-size="12px"
       transform="translate(260.368,457)"
       id="text21">group assignments</text>
    <path
       d="m 344.478,321.383 c 22.432,-39.5 72.638,-53.337 112.139,-30.905 10.885,6.182 20.216,14.767 27.281,25.101 l 2.385,-1.354 -0.553,8.176 -7.814,-3.425 2.384,-1.354 C 455.791,282.11 407.134,273.19 371.622,297.699 c -9.691,6.689 -17.744,15.481 -23.559,25.72 z"
       fill="#b0bcde"
       fill-rule="evenodd"
       id="path21" />
    <path
       d="m 282.5,327.6 c 0,-2.817 2.283,-5.1 5.1,-5.1 h 116.8 c 2.817,0 5.1,2.283 5.1,5.1 v 40.8 c 0,2.817 -2.283,5.1 -5.1,5.1 H 287.6 c -2.817,0 -5.1,-2.283 -5.1,-5.1 z"
       stroke="#ffffff"
       stroke-width="1.33333"
       stroke-miterlimit="8"
       fill="#4472c4"
       fill-rule="evenodd"
       id="path22" />
    <text
       fill="#ffffff"
       font-family="Calibri, Calibri_MSFontService, sans-serif"
       font-weight="400"
       font-size="15px"
       transform="translate(319.643,343)"
       id="text22">Start the</text>
    <text
       fill="#ffffff"
       font-family="Calibri, Calibri_MSFontService, sans-serif"
       font-weight="400"
       font-size="15px"
       transform="translate(286.843,359)"
       id="text23">o</text>
    <text
       fill="#ffffff"
       font-family="Calibri, Calibri_MSFontService, sans-serif"
       font-weight="400"
       font-size="15px"
       transform="translate(294.576,359)"
       id="text24">nboarding process</text>
    <path
       d="m 429.5,359.4 c 0,-6.572 5.328,-11.9 11.9,-11.9 h 120.2 c 6.572,0 11.9,5.328 11.9,11.9 v 95.2 c 0,6.572 -5.328,11.9 -11.9,11.9 H 441.4 c -6.572,0 -11.9,-5.328 -11.9,-11.9 z"
       stroke="#4472c4"
       stroke-width="1.33333"
       stroke-miterlimit="8"
       fill="#ffffff"
       fill-rule="evenodd"
       fill-opacity="0.901961"
       id="path24" />
    <text
       font-family="Calibri, Calibri_MSFontService, sans-serif"
       font-weight="400"
       font-size="12px"
       transform="translate(433.636,362)"
       id="text25">•</text>
    <text
       font-family="Calibri, Calibri_MSFontService, sans-serif"
       font-weight="400"
       font-size="12px"
       transform="translate(439.636,362)"
       id="text26">Update checklists and</text>
    <text
       font-family="Calibri, Calibri_MSFontService, sans-serif"
       font-weight="400"
       font-size="12px"
       transform="translate(439.636,375)"
       id="text27">complete tasks</text>
    <text
       font-family="Calibri, Calibri_MSFontService, sans-serif"
       font-weight="400"
       font-size="12px"
       transform="translate(433.636,391)"
       id="text28">•</text>
    <text
       font-family="Calibri, Calibri_MSFontService, sans-serif"
       font-weight="400"
       font-size="12px"
       transform="translate(439.636,391)"
       id="text29">Follow up on due dates</text>
    <text
       font-family="Calibri, Calibri_MSFontService, sans-serif"
       font-weight="400"
       font-size="12px"
       transform="translate(433.636,406)"
       id="text30">•</text>
    <text
       font-family="Calibri, Calibri_MSFontService, sans-serif"
       font-weight="400"
       font-size="12px"
       transform="translate(439.636,406)"
       id="text31">Add additional checklist</text>
    <text
       font-family="Calibri, Calibri_MSFontService, sans-serif"
       font-weight="400"
       font-size="12px"
       transform="translate(439.636,419)"
       id="text32">tasks if necessary</text>
    <path
       d="m 523.309,492.17 3.593,-2.041 c 18.849,33.191 61.036,44.817 94.227,25.969 8.822,-5.01 16.433,-11.901 22.292,-20.184 l -2.387,-1.355 7.86,-3.41 0.525,8.172 -2.388,-1.356 c -23.176,33.154 -68.841,41.243 -101.996,18.066 -8.926,-6.239 -16.348,-14.391 -21.726,-23.861 z"
       fill="#b0bcde"
       fill-rule="evenodd"
       id="path32" />
    <path
       d="m 461.5,445.6 c 0,-2.817 2.283,-5.1 5.1,-5.1 h 117.8 c 2.817,0 5.1,2.283 5.1,5.1 v 40.8 c 0,2.817 -2.283,5.1 -5.1,5.1 H 466.6 c -2.817,0 -5.1,-2.283 -5.1,-5.1 z"
       stroke="#ffffff"
       stroke-width="1.33333"
       stroke-miterlimit="8"
       fill="#4472c4"
       fill-rule="evenodd"
       id="path33" />
    <text
       fill="#ffffff"
       font-family="Calibri, Calibri_MSFontService, sans-serif"
       font-weight="400"
       font-size="15px"
       transform="translate(490.567,462)"
       id="text33">Process</text>
    <text
       fill="#ffffff"
       font-family="Calibri, Calibri_MSFontService, sans-serif"
       font-weight="400"
       font-size="15px"
       transform="translate(539.274,462)"
       id="text34">the</text>
    <text
       fill="#ffffff"
       font-family="Calibri, Calibri_MSFontService, sans-serif"
       font-weight="400"
       font-size="15px"
       transform="translate(490.527,478)"
       id="text35">o</text>
    <text
       fill="#ffffff"
       font-family="Calibri, Calibri_MSFontService, sans-serif"
       font-weight="400"
       font-size="15px"
       transform="translate(498.26,478)"
       id="text36">nboarding</text>
    <path
       d="m 608.5,359.4 c 0,-6.572 5.328,-11.9 11.9,-11.9 h 120.2 c 6.572,0 11.9,5.328 11.9,11.9 v 95.2 c 0,6.572 -5.328,11.9 -11.9,11.9 H 620.4 c -6.572,0 -11.9,-5.328 -11.9,-11.9 z"
       stroke="#4472c4"
       stroke-width="1.33333"
       stroke-miterlimit="8"
       fill="#ffffff"
       fill-rule="evenodd"
       fill-opacity="0.901961"
       id="path36" />
    <text
       font-family="Calibri, Calibri_MSFontService, sans-serif"
       font-weight="400"
       font-size="12px"
       transform="translate(612.904,387)"
       id="text37">•</text>
    <text
       font-family="Calibri, Calibri_MSFontService, sans-serif"
       font-weight="400"
       font-size="12px"
       transform="translate(618.904,387)"
       id="text38">Define the responsible</text>
    <text
       font-family="Calibri, Calibri_MSFontService, sans-serif"
       font-weight="400"
       font-size="12px"
       transform="translate(618.904,400)"
       id="text39">process owners</text>
    <text
       font-family="Calibri, Calibri_MSFontService, sans-serif"
       font-weight="400"
       font-size="12px"
       transform="translate(612.904,416)"
       id="text40">•</text>
    <text
       font-family="Calibri, Calibri_MSFontService, sans-serif"
       font-weight="400"
       font-size="12px"
       transform="translate(618.904,416)"
       id="text41">Define the timeline of</text>
    <text
       font-family="Calibri, Calibri_MSFontService, sans-serif"
       font-weight="400"
       font-size="12px"
       transform="translate(618.904,429)"
       id="text42">processing tasks</text>
    <text
       font-family="Calibri, Calibri_MSFontService, sans-serif"
       font-weight="400"
       font-size="12px"
       transform="translate(612.904,444)"
       id="text43">•</text>
    <text
       font-family="Calibri, Calibri_MSFontService, sans-serif"
       font-weight="400"
       font-size="12px"
       transform="translate(618.904,444)"
       id="text44">Define checklists per</text>
    <text
       font-family="Calibri, Calibri_MSFontService, sans-serif"
       font-weight="400"
       font-size="12px"
       transform="translate(618.904,457)"
       id="text45">group of the organization</text>
    <path
       d="m 640.5,327.6 c 0,-2.817 2.283,-5.1 5.1,-5.1 h 117.8 c 2.817,0 5.1,2.283 5.1,5.1 v 40.8 c 0,2.817 -2.283,5.1 -5.1,5.1 H 645.6 c -2.817,0 -5.1,-2.283 -5.1,-5.1 z"
       stroke="#ffffff"
       stroke-width="1.33333"
       stroke-miterlimit="8"
       fill="#4472c4"
       fill-rule="evenodd"
       id="path45" />
    <text
       fill="#ffffff"
       font-family="Calibri, Calibri_MSFontService, sans-serif"
       font-weight="400"
       font-size="15px"
       transform="translate(668.279,343)"
       id="text46">Manage</text>
    <text
       fill="#ffffff"
       font-family="Calibri, Calibri_MSFontService, sans-serif"
       font-weight="400"
       font-size="15px"
       transform="translate(720.099,343)"
       id="text47">the</text>
    <text
       fill="#ffffff"
       font-family="Calibri, Calibri_MSFontService, sans-serif"
       font-weight="400"
       font-size="15px"
       transform="translate(645.379,359)"
       id="text48">o</text>
    <text
       fill="#ffffff"
       font-family="Calibri, Calibri_MSFontService, sans-serif"
       font-weight="400"
       font-size="15px"
       transform="translate(653.112,359)"
       id="text49">nboarding</text>
    <text
       fill="#ffffff"
       font-family="Calibri, Calibri_MSFontService, sans-serif"
       font-weight="400"
       font-size="15px"
       transform="translate(717.399,359)"
       id="text50">process</text>
  </g>
</svg>
