<?xml version="1.0"?>
<svg xmlns="http://www.w3.org/2000/svg" xmlns:xlink="http://www.w3.org/1999/xlink" xmlns:ev="http://www.w3.org/2001/xml-events"    viewBox="28 22 658 1013"    xml:space="preserve" color-interpolation-filters="sRGB" class="st11" width="1645" height="2533">
<rect x="0" y="0" width="1645" height="2533" fill="#ffffff" />
	<style type="text/css"><![CDATA[
		.st1 {fill:#ffffff;stroke:#0078d4;stroke-linecap:round;stroke-linejoin:round;stroke-width:0.24}
		.st2 {fill:#000000;font-family:Calibri;font-size:1.00001em}
		.st3 {fill:#0078d4;stroke:none;stroke-linecap:round;stroke-linejoin:round;stroke-width:0.24}
		.st4 {fill:#ffffff;font-family:Calibri;font-size:1.00001em}
		.st5 {fill:#ffffff}
		.st6 {stroke:#0078d4;stroke-linecap:round;stroke-linejoin:round;stroke-width:0.24}
		.st7 {font-size:1em}
		.st8 {fill:#a0a0a0;stroke:none;stroke-linecap:round;stroke-linejoin:round;stroke-width:0.24}
		.st9 {marker-end:url(#mrkr13-139);stroke:#0078d4;stroke-linecap:round;stroke-linejoin:round;stroke-width:0.75}
		.st10 {fill:#0078d4;fill-opacity:1;stroke:#0078d4;stroke-opacity:1;stroke-width:0.22935779816514}
		.st11 {fill:none;fill-rule:evenodd;font-size:12px;overflow:visible;stroke-linecap:square;stroke-miterlimit:3}
	]]></style><style> a { pointer-events: none; } </style><style>a.rules_svg_anchor g:hover { opacity:0.8; cursor:pointer; }</style>
	<defs id="Markers">
		<g id="lend13">
			<path d="M 3 1 L 0 0 L 3 -1 L 3 1 " style="stroke:none" />
		</g>
		<marker id="mrkr13-139" class="st10" refX="-13.08" orient="auto" markerUnits="strokeWidth" overflow="visible">
			<use xlink:href="#lend13" transform="scale(-4.36,-4.36) " />
		</marker>
	</defs>
	<g>
		
		<g id="shape1-1" transform="translate(65.25,-1008)">
			
			<desc>Start</desc>
			<path d="M18 1080 L60.75 1080 A18 18 -180 0 0 60.75 1044 L18 1044 A18 18 -180 1 0 18 1080 Z" class="st1" />
			<text x="27.63" y="1065.6" class="st2">Start</text>
		</g>
		<a id="f2988396-b696-496c-9889-fbcd58b8d002" class="rules_svg_anchor rules_svg_shape"   href="/lms/chart?onclick=b3BlbkNoYXJ0Q29udGV4dE1lbnUoZXZlbnQsJ3cxMTZkNTIzNTk2NWMxNzAyMHY0MDcxJywxODE2OCwgMSwgMSwgdGhpcywgd2luZG93LmZyYW1lRWxlbWVudCk=&amp;navigate=true&amp;details=Description">
			<g id="shape2-4" transform="translate(270,-994.5)">
				
				<desc>55 Hire to retire</desc>
				<rect x="0" y="1017" width="99" height="63" class="st3" />
				<text x="10.44" y="1052.1" class="st4">55 Hire to retire</text>
			</g>
		</a>
		<a id="338f8749-d4c8-495d-8dfb-c4243cec5347" class="rules_svg_anchor rules_svg_shape"   href="/lms/chart?onclick=b3BlbkNoYXJ0Q29udGV4dE1lbnUoZXZlbnQsJ3cxMTZkNTIzNTk2NWMxNzAyMXY0MDcxJywxODE3NywgMSwgMSwgdGhpcywgd2luZG93LmZyYW1lRWxlbWVudCk=&amp;navigate=true&amp;details=Description">
			<g id="shape3-7" transform="translate(270,-832.5)">
				
				<desc>55.10 Recruit and onboard talent</desc>
				<path d="M0 1080 L99 1080 L99 1017 L0 1017 L0 1080 Z" class="st5" />
				<path d="M0 1080 L99 1080 L99 1017 L0 1017 L0 1080" class="st6" />
				<path d="M9 1080 L9 1017" class="st6" />
				<path d="M90 1080 L90 1017" class="st6" />
				<text x="17.05" y="1037.7" class="st2">55.10 Recruit <tspan x="18.21" dy="1.2em" class="st7">and onboard </tspan>
					<tspan x="35.09" dy="1.2em" class="st7">talent</tspan>
				</text>
			</g>
		</a>
		<a id="5629038a-fd8d-482f-a0fc-296d45f92b4b" class="rules_svg_anchor rules_svg_shape"   href="/lms/chart?onclick=b3BlbkNoYXJ0Q29udGV4dE1lbnUoZXZlbnQsJ3cxMTZkNTIzNTk2NWMxNzA1NHY0MDcxJywxODE5MiwgMSwgMSwgdGhpcywgd2luZG93LmZyYW1lRWxlbWVudCk=&amp;navigate=true&amp;details=Description">
			<g id="shape5-15" transform="translate(270,-751.5)">
				
				<desc>55.40 Manage performance and growth</desc>
				<path d="M0 1080 L99 1080 L99 1017 L0 1017 L0 1080 Z" class="st5" />
				<path d="M0 1080 L99 1080 L99 1017 L0 1017 L0 1080" class="st6" />
				<path d="M9 1080 L9 1017" class="st6" />
				<path d="M90 1080 L90 1017" class="st6" />
				<text x="14.62" y="1037.7" class="st2">55.40 Manage <tspan x="17.84" dy="1.2em" class="st7">performance </tspan>
					<tspan x="21.43" dy="1.2em" class="st7">and growth</tspan>
				</text>
			</g>
		</a>
		<a id="aafbae61-dfde-4f03-83d8-fb4e8b6024d7" class="rules_svg_anchor rules_svg_shape"   href="/lms/chart?onclick=b3BlbkNoYXJ0Q29udGV4dE1lbnUoZXZlbnQsJ3cxMTZkNTIzNTk2NWMxNzAzOHY0MDcxJywxODE4NCwgMSwgMSwgdGhpcywgd2luZG93LmZyYW1lRWxlbWVudCk=&amp;navigate=true&amp;details=Description">
			<g id="shape6-23" transform="translate(270,-670.5)">
				
				<desc>55.30 Manage workplace compliance</desc>
				<path d="M0 1080 L99 1080 L99 1017 L0 1017 L0 1080 Z" class="st5" />
				<path d="M0 1080 L99 1080 L99 1017 L0 1017 L0 1080" class="st6" />
				<path d="M9 1080 L9 1017" class="st6" />
				<path d="M90 1080 L90 1017" class="st6" />
				<text x="14.62" y="1037.7" class="st2">55.30 Manage <tspan x="24.3" dy="1.2em" class="st7">workplace </tspan>
					<tspan x="21.55" dy="1.2em" class="st7">compliance</tspan>
				</text>
			</g>
		</a>
		<a id="40291afe-8a32-496a-8c53-0ba1498a7a09" class="rules_svg_anchor rules_svg_shape"   href="/lms/chart?onclick=b3BlbkNoYXJ0Q29udGV4dE1lbnUoZXZlbnQsJ3cxMTZkNTIzNTk2NWMxNzA4NHY0MDcxJywxODIxMSwgMSwgMSwgdGhpcywgd2luZG93LmZyYW1lRWxlbWVudCk=&amp;navigate=true&amp;details=Description">
			<g id="shape8-31" transform="translate(270,-589.5)">
				
				<desc>55.70 Manage compensation and benefits</desc>
				<path d="M0 1080 L99 1080 L99 1017 L0 1017 L0 1080 Z" class="st5" />
				<path d="M0 1080 L99 1080 L99 1017 L0 1017 L0 1080" class="st6" />
				<path d="M9 1080 L9 1017" class="st6" />
				<path d="M90 1080 L90 1017" class="st6" />
				<text x="14.62" y="1037.7" class="st2">55.70 Manage <tspan x="14.79" dy="1.2em" class="st7">compensation </tspan>
					<tspan x="19.12" dy="1.2em" class="st7">and benefits</tspan>
				</text>
			</g>
		</a>
		<a id="b3bb97e2-a550-4e62-af45-97de2beda8c5" class="rules_svg_anchor rules_svg_shape"   href="/lms/chart?onclick=b3BlbkNoYXJ0Q29udGV4dE1lbnUoZXZlbnQsJ3cxMTZkNTIzNTk2NWMxNzA2OHY0MDcxJywxODIwMywgMSwgMSwgdGhpcywgd2luZG93LmZyYW1lRWxlbWVudCk=&amp;navigate=true&amp;details=Description">
			<g id="shape9-39" transform="translate(270,-508.5)">
				
				<desc>55.50 Manage time and attendance</desc>
				<path d="M0 1080 L99 1080 L99 1017 L0 1017 L0 1080 Z" class="st5" />
				<path d="M0 1080 L99 1080 L99 1017 L0 1017 L0 1080" class="st6" />
				<path d="M9 1080 L9 1017" class="st6" />
				<path d="M90 1080 L90 1017" class="st6" />
				<text x="14.62" y="1037.7" class="st2">55.50 Manage <tspan x="27.8" dy="1.2em" class="st7">time and </tspan>
					<tspan x="21.77" dy="1.2em" class="st7">attendance</tspan>
				</text>
			</g>
		</a>
		<a id="9e8d5250-6734-4ee1-8571-62466e85eaf1" class="rules_svg_anchor rules_svg_shape"   href="/lms/chart?onclick=b3BlbkNoYXJ0Q29udGV4dE1lbnUoZXZlbnQsJ3cxMTZkNTIzNTk2NWMxNjgwMnY0MDcxJywxNzk0OSwgMSwgNCwgdGhpcywgd2luZG93LmZyYW1lRWxlbWVudCk=&amp;navigate=true&amp;details=Description">
			<g id="shape12-47" transform="translate(65.25,-918)">
				
				<desc>10 Acquire to dispose</desc>
				<rect x="0" y="1017" width="78.75" height="63" class="st8" />
				<text x="6.64" y="1044.9" class="st2">10 Acquire to <tspan x="20.85" dy="1.2em" class="st7">dispose</tspan>
				</text>
			</g>
		</a>
		<a id="4daa6b98-022c-4c57-b9a5-f9a569836c56" class="rules_svg_anchor rules_svg_shape"   href="/lms/chart?onclick=b3BlbkNoYXJ0Q29udGV4dE1lbnUoZXZlbnQsJ3cxMTZkNTIzNTk2NWMxNjg1N3Y0MDcxJywxODAwMSwgMSwgMSwgdGhpcywgd2luZG93LmZyYW1lRWxlbWVudCk=&amp;navigate=true&amp;details=Description">
			<g id="shape13-51" transform="translate(65.25,-837)">
				
				<desc>20 Case to resolution</desc>
				<rect x="0" y="1017" width="78.75" height="63" class="st8" />
				<text x="14" y="1044.9" class="st2">20 Case to <tspan x="14.55" dy="1.2em" class="st7">resolution</tspan>
				</text>
			</g>
		</a>
		<a id="e6fbb758-7ea4-4f95-9e69-726ad7ad664d" class="rules_svg_anchor rules_svg_shape"   href="/lms/chart?onclick=b3BlbkNoYXJ0Q29udGV4dE1lbnUoZXZlbnQsJ3cxMTZkNTIzNTk2NWMxNjk5MnY0MDcxJywxODExOCwgMSwgMSwgdGhpcywgd2luZG93LmZyYW1lRWxlbWVudCk=&amp;navigate=true&amp;details=Description">
			<g id="shape14-55" transform="translate(65.25,-756)">
				
				<desc>50 Forecast to plan</desc>
				<rect x="0" y="1017" width="78.75" height="63" class="st8" />
				<text x="4.64" y="1044.9" class="st2">50 Forecast to <tspan x="28.82" dy="1.2em" class="st7">plan</tspan>
				</text>
			</g>
		</a>
		<a id="da1b6ab6-3313-409d-b761-7e1abce96e22" class="rules_svg_anchor rules_svg_shape"   href="/lms/chart?onclick=b3BlbkNoYXJ0Q29udGV4dE1lbnUoZXZlbnQsJ3cxMTZkNTIzNTk2NWMxNzE1NXY0MDcxJywxODI4MSwgMSwgMSwgdGhpcywgd2luZG93LmZyYW1lRWxlbWVudCk=&amp;navigate=true&amp;details=Description">
			<g id="shape15-59" transform="translate(65.25,-675)">
				
				<desc>65 Order to cash</desc>
				<rect x="0" y="1017" width="78.75" height="63" class="st8" />
				<text x="11.11" y="1044.9" class="st2">65 Order to <tspan x="28.46" dy="1.2em" class="st7">cash</tspan>
				</text>
			</g>
		</a>
		<a id="f78a4e26-e97c-4880-89b0-2211cb37ae04" class="rules_svg_anchor rules_svg_shape"   href="/lms/chart?onclick=b3BlbkNoYXJ0Q29udGV4dE1lbnUoZXZlbnQsJ3cxMTZkNTIzNTk2NWMxNzIzMHY0MDcxJywxODMyNywgMSwgMSwgdGhpcywgd2luZG93LmZyYW1lRWxlbWVudCk=&amp;navigate=true&amp;details=Description">
			<g id="shape16-63" transform="translate(65.25,-594)">
				
				<desc>70 Plan to produce</desc>
				<rect x="0" y="1017" width="78.75" height="63" class="st8" />
				<text x="14.9" y="1044.9" class="st2">70 Plan to <tspan x="19.14" dy="1.2em" class="st7">produce</tspan>
				</text>
			</g>
		</a>
		<a id="1926d361-9c80-4d8f-a9f2-59e40a79329d" class="rules_svg_anchor rules_svg_shape"   href="/lms/chart?onclick=b3BlbkNoYXJ0Q29udGV4dE1lbnUoZXZlbnQsJ3cxMTZkNTIzNTk2NWMxNzI2OXY0MDcxJywxODM2MywgMSwgMSwgdGhpcywgd2luZG93LmZyYW1lRWxlbWVudCk=&amp;navigate=true&amp;details=Description">
			<g id="shape17-67" transform="translate(65.25,-513)">
				
				<desc>75 Source to pay</desc>
				<rect x="0" y="1017" width="78.75" height="63" class="st8" />
				<text x="8.72" y="1044.9" class="st2">75 Source to <tspan x="30.63" dy="1.2em" class="st7">pay</tspan>
				</text>
			</g>
		</a>
		<a id="4653deb1-5a80-426f-866a-270c642dfe26" class="rules_svg_anchor rules_svg_shape"   href="/lms/chart?onclick=b3BlbkNoYXJ0Q29udGV4dE1lbnUoZXZlbnQsJ3cxMTZkNTIzNTk2NWMxNjk0NHY0MDcxJywxODA4MSwgMSwgMSwgdGhpcywgd2luZG93LmZyYW1lRWxlbWVudCk=&amp;navigate=true&amp;details=Description">
			<g id="shape18-71" transform="translate(65.25,-432)">
				
				<desc>40 Design to retire</desc>
				<rect x="0" y="1017" width="78.75" height="63" class="st8" />
				<text x="9.03" y="1044.9" class="st2">40 Design to <tspan x="25.83" dy="1.2em" class="st7">retire</tspan>
				</text>
			</g>
		</a>
		<a id="50245c8b-60d9-4781-86ae-466500e3213a" class="rules_svg_anchor rules_svg_shape"   href="/lms/chart?onclick=b3BlbkNoYXJ0Q29udGV4dE1lbnUoZXZlbnQsJ3cxMTZkNTIzNTk2NWMxNzMxOXY0MDcxJywxODQxMiwgMSwgMSwgdGhpcywgd2luZG93LmZyYW1lRWxlbWVudCk=&amp;navigate=true&amp;details=Description">
			<g id="shape19-75" transform="translate(65.25,-351)">
				
				<desc>80 Project to profit</desc>
				<rect x="0" y="1017" width="78.75" height="63" class="st8" />
				<text x="8.08" y="1044.9" class="st2">80 Project to <tspan x="25.75" dy="1.2em" class="st7">profit</tspan>
				</text>
			</g>
		</a>
		<a id="9810bf62-8641-43aa-889b-503feed89a90" class="rules_svg_anchor rules_svg_shape"   href="/lms/chart?onclick=b3BlbkNoYXJ0Q29udGV4dE1lbnUoZXZlbnQsJ3cxMTZkNTIzNTk2NWMxNzQxMnY0MDcxJywxODQ2MSwgMSwgMSwgdGhpcywgd2luZG93LmZyYW1lRWxlbWVudCk=&amp;navigate=true&amp;details=Description">
			<g id="shape20-79" transform="translate(65.25,-270)">
				
				<desc>90 Record to report</desc>
				<rect x="0" y="1017" width="78.75" height="63" class="st8" />
				<text x="8.22" y="1044.9" class="st2">90 Record to <tspan x="23.88" dy="1.2em" class="st7">report</tspan>
				</text>
			</g>
		</a>
		<a id="46cdac9a-9419-49a3-bf66-1abaec2514ec" class="rules_svg_anchor rules_svg_shape"   href="/lms/chart?onclick=b3BlbkNoYXJ0Q29udGV4dE1lbnUoZXZlbnQsJ3cxMTZkNTIzNTk2NWMxNzQ5NnY0MDcxJywxODUxNiwgMSwgMSwgdGhpcywgd2luZG93LmZyYW1lRWxlbWVudCk=&amp;navigate=true&amp;details=Description">
			<g id="shape21-83" transform="translate(65.25,-189)">
				
				<desc>95 Service to deliver</desc>
				<rect x="0" y="1017" width="78.75" height="63" class="st8" />
				<text x="7.96" y="1044.9" class="st2">95 Service to <tspan x="22.7" dy="1.2em" class="st7">deliver</tspan>
				</text>
			</g>
		</a>
		<a id="aab4ce8c-ef58-44da-b97d-1acea0d920db" class="rules_svg_anchor rules_svg_shape"   href="/lms/chart?onclick=b3BlbkNoYXJ0Q29udGV4dE1lbnUoZXZlbnQsJ3cxMTZkNTIzNTk2NWMxNjgwMnY0MDcxJywxNzk0OSwgMSwgNCwgdGhpcywgd2luZG93LmZyYW1lRWxlbWVudCk=&amp;navigate=true&amp;details=Description">
			<g id="shape22-87" transform="translate(569.25,-963)">
				
				<desc>10 Acquire to dispose</desc>
				<rect x="0" y="1017" width="78.75" height="63" class="st8" />
				<text x="6.64" y="1044.9" class="st2">10 Acquire to <tspan x="20.85" dy="1.2em" class="st7">dispose</tspan>
				</text>
			</g>
		</a>
		<a id="55ae5a6e-e415-4cb7-bf86-3c389b9c213a" class="rules_svg_anchor rules_svg_shape"   href="/lms/chart?onclick=b3BlbkNoYXJ0Q29udGV4dE1lbnUoZXZlbnQsJ3cxMTZkNTIzNTk2NWMxNjg1N3Y0MDcxJywxODAwMSwgMSwgMSwgdGhpcywgd2luZG93LmZyYW1lRWxlbWVudCk=&amp;navigate=true&amp;details=Description">
			<g id="shape23-91" transform="translate(569.25,-882)">
				
				<desc>20 Case to resolution</desc>
				<rect x="0" y="1017" width="78.75" height="63" class="st8" />
				<text x="14" y="1044.9" class="st2">20 Case to <tspan x="14.55" dy="1.2em" class="st7">resolution</tspan>
				</text>
			</g>
		</a>
		<a id="7e82143b-30eb-4eb6-8de4-a17f4b3cfe58" class="rules_svg_anchor rules_svg_shape"   href="/lms/chart?onclick=b3BlbkNoYXJ0Q29udGV4dE1lbnUoZXZlbnQsJ3cxMTZkNTIzNTk2NWMxNjk5MnY0MDcxJywxODExOCwgMSwgMSwgdGhpcywgd2luZG93LmZyYW1lRWxlbWVudCk=&amp;navigate=true&amp;details=Description">
			<g id="shape24-95" transform="translate(569.25,-801)">
				
				<desc>50 Forecast to plan</desc>
				<rect x="0" y="1017" width="78.75" height="63" class="st8" />
				<text x="4.64" y="1044.9" class="st2">50 Forecast to <tspan x="28.82" dy="1.2em" class="st7">plan</tspan>
				</text>
			</g>
		</a>
		<a id="81d42016-60b5-4ae8-9f7b-7579ae05a92c" class="rules_svg_anchor rules_svg_shape"   href="/lms/chart?onclick=b3BlbkNoYXJ0Q29udGV4dE1lbnUoZXZlbnQsJ3cxMTZkNTIzNTk2NWMxNzA5M3Y0MDcxJywxODIzMiwgMSwgMSwgdGhpcywgd2luZG93LmZyYW1lRWxlbWVudCk=&amp;navigate=true&amp;details=Description">
			<g id="shape25-99" transform="translate(569.25,-720)">
				
				<desc>60 Inventory to deliver</desc>
				<rect x="0" y="1017" width="78.75" height="63" class="st8" />
				<text x="8.44" y="1044.9" class="st2">60 Inventory <tspan x="16.17" dy="1.2em" class="st7">to deliver</tspan>
				</text>
			</g>
		</a>
		<a id="7e2e8440-5fd3-434a-951d-30db825038ef" class="rules_svg_anchor rules_svg_shape"   href="/lms/chart?onclick=b3BlbkNoYXJ0Q29udGV4dE1lbnUoZXZlbnQsJ3cxMTZkNTIzNTk2NWMxNzE1NXY0MDcxJywxODI4MSwgMSwgMSwgdGhpcywgd2luZG93LmZyYW1lRWxlbWVudCk=&amp;navigate=true&amp;details=Description">
			<g id="shape26-103" transform="translate(569.25,-639)">
				
				<desc>65 Order to cash</desc>
				<rect x="0" y="1017" width="78.75" height="63" class="st8" />
				<text x="11.11" y="1044.9" class="st2">65 Order to <tspan x="28.46" dy="1.2em" class="st7">cash</tspan>
				</text>
			</g>
		</a>
		<a id="887bca56-4d7e-46a4-abcb-6b96f6b6de0d" class="rules_svg_anchor rules_svg_shape"   href="/lms/chart?onclick=b3BlbkNoYXJ0Q29udGV4dE1lbnUoZXZlbnQsJ3cxMTZkNTIzNTk2NWMxNzIzMHY0MDcxJywxODMyNywgMSwgMSwgdGhpcywgd2luZG93LmZyYW1lRWxlbWVudCk=&amp;navigate=true&amp;details=Description">
			<g id="shape27-107" transform="translate(569.25,-558)">
				
				<desc>70 Plan to produce</desc>
				<rect x="0" y="1017" width="78.75" height="63" class="st8" />
				<text x="14.9" y="1044.9" class="st2">70 Plan to <tspan x="19.14" dy="1.2em" class="st7">produce</tspan>
				</text>
			</g>
		</a>
		<a id="28f26511-c37b-4313-a4d0-1f33d2d610c4" class="rules_svg_anchor rules_svg_shape"   href="/lms/chart?onclick=b3BlbkNoYXJ0Q29udGV4dE1lbnUoZXZlbnQsJ3cxMTZkNTIzNTk2NWMxNzI2OXY0MDcxJywxODM2MywgMSwgMSwgdGhpcywgd2luZG93LmZyYW1lRWxlbWVudCk=&amp;navigate=true&amp;details=Description">
			<g id="shape28-111" transform="translate(569.25,-477)">
				
				<desc>75 Source to pay</desc>
				<rect x="0" y="1017" width="78.75" height="63" class="st8" />
				<text x="8.72" y="1044.9" class="st2">75 Source to <tspan x="30.63" dy="1.2em" class="st7">pay</tspan>
				</text>
			</g>
		</a>
		<a id="701f386b-59e3-4a9a-b02f-c3438fb52a7d" class="rules_svg_anchor rules_svg_shape"   href="/lms/chart?onclick=b3BlbkNoYXJ0Q29udGV4dE1lbnUoZXZlbnQsJ3cxMTZkNTIzNTk2NWMxNjk0NHY0MDcxJywxODA4MSwgMSwgMSwgdGhpcywgd2luZG93LmZyYW1lRWxlbWVudCk=&amp;navigate=true&amp;details=Description">
			<g id="shape29-115" transform="translate(569.25,-396)">
				
				<desc>40 Design to retire</desc>
				<rect x="0" y="1017" width="78.75" height="63" class="st8" />
				<text x="9.03" y="1044.9" class="st2">40 Design to <tspan x="25.83" dy="1.2em" class="st7">retire</tspan>
				</text>
			</g>
		</a>
		<a id="86e4acf2-4171-4456-8e77-e31607cc1202" class="rules_svg_anchor rules_svg_shape"   href="/lms/chart?onclick=b3BlbkNoYXJ0Q29udGV4dE1lbnUoZXZlbnQsJ3cxMTZkNTIzNTk2NWMxNzMxOXY0MDcxJywxODQxMiwgMSwgMSwgdGhpcywgd2luZG93LmZyYW1lRWxlbWVudCk=&amp;navigate=true&amp;details=Description">
			<g id="shape30-119" transform="translate(569.25,-315)">
				
				<desc>80 Project to profit</desc>
				<rect x="0" y="1017" width="78.75" height="63" class="st8" />
				<text x="8.08" y="1044.9" class="st2">80 Project to <tspan x="25.75" dy="1.2em" class="st7">profit</tspan>
				</text>
			</g>
		</a>
		<a id="0e8fc086-ebad-42f4-82ae-d22c06769ce7" class="rules_svg_anchor rules_svg_shape"   href="/lms/chart?onclick=b3BlbkNoYXJ0Q29udGV4dE1lbnUoZXZlbnQsJ3cxMTZkNTIzNTk2NWMxNzQxMnY0MDcxJywxODQ2MSwgMSwgMSwgdGhpcywgd2luZG93LmZyYW1lRWxlbWVudCk=&amp;navigate=true&amp;details=Description">
			<g id="shape31-123" transform="translate(569.25,-234)">
				
				<desc>90 Record to report</desc>
				<rect x="0" y="1017" width="78.75" height="63" class="st8" />
				<text x="8.22" y="1044.9" class="st2">90 Record to <tspan x="23.88" dy="1.2em" class="st7">report</tspan>
				</text>
			</g>
		</a>
		<a id="ed25c4e2-31c5-485e-874e-689b261d484a" class="rules_svg_anchor rules_svg_shape"   href="/lms/chart?onclick=b3BlbkNoYXJ0Q29udGV4dE1lbnUoZXZlbnQsJ3cxMTZkNTIzNTk2NWMxNzQ5NnY0MDcxJywxODUxNiwgMSwgMSwgdGhpcywgd2luZG93LmZyYW1lRWxlbWVudCk=&amp;navigate=true&amp;details=Description">
			<g id="shape32-127" transform="translate(569.25,-153)">
				
				<desc>95 Service to deliver</desc>
				<rect x="0" y="1017" width="78.75" height="63" class="st8" />
				<text x="7.96" y="1044.9" class="st2">95 Service to <tspan x="22.7" dy="1.2em" class="st7">deliver</tspan>
				</text>
			</g>
		</a>
		<g id="shape33-131" transform="translate(569.25,-99)">
			
			<desc>End</desc>
			<path d="M18 1080 L60.75 1080 A18 18 -180 0 0 60.75 1044 L18 1044 A18 18 -180 1 0 18 1080 Z" class="st1" />
			<text x="30.14" y="1065.6" class="st2">End</text>
		</g>
		<g id="shape34-134" transform="translate(56.25,-1026)">
			
			<path d="M9 1080 L-8.66 1080 L-8.66 1885.5 L-0.81 1885.5" class="st9" />
		</g>
		<g id="shape35-140" transform="translate(56.25,-1026)">
			
			<path d="M9 1080 L-8.66 1080 L-8.66 1804.5 L-0.81 1804.5" class="st9" />
		</g>
		<g id="shape36-145" transform="translate(56.25,-1026)">
			
			<path d="M9 1080 L-8.66 1080 L-8.66 1723.5 L-0.81 1723.5" class="st9" />
		</g>
		<g id="shape37-150" transform="translate(56.25,-1026)">
			
			<path d="M9 1080 L-8.66 1080 L-8.66 1642.5 L-0.81 1642.5" class="st9" />
		</g>
		<g id="shape38-155" transform="translate(56.25,-1026)">
			
			<path d="M9 1080 L-8.66 1080 L-8.66 1561.5 L-0.81 1561.5" class="st9" />
		</g>
		<g id="shape39-160" transform="translate(74.25,-1026)">
			
			<path d="M-9 1080 L-26.66 1080 L-26.66 1480.5 L-18.81 1480.5" class="st9" />
		</g>
		<g id="shape40-165" transform="translate(74.25,-1026)">
			
			<path d="M-9 1080 L-26.66 1080 L-26.66 1399.5 L-18.81 1399.5" class="st9" />
		</g>
		<g id="shape41-170" transform="translate(74.25,-1026)">
			
			<path d="M-9 1080 L-26.66 1080 L-26.66 1318.5 L-18.81 1318.5" class="st9" />
		</g>
		<g id="shape42-175" transform="translate(74.25,-1026)">
			
			<path d="M-9 1080 L-26.66 1080 L-26.66 1237.5 L-18.81 1237.5" class="st9" />
		</g>
		<g id="shape43-180" transform="translate(74.25,-1026)">
			
			<path d="M-9 1080 L-26.66 1080 L-26.66 1156.5 L-18.81 1156.5" class="st9" />
		</g>
		<g id="shape44-185" transform="translate(144,-1017)">
			
			<path d="M0 1071 L116.19 1071" class="st9" />
		</g>
		<g id="shape45-190" transform="translate(144,-220.5)">
			
			<path d="M0 1080 L26.66 1080 L26.66 436.5 L116.19 436.5" class="st9" />
		</g>
		<g id="shape46-195" transform="translate(144,-301.5)">
			
			<path d="M0 1080 L26.66 1080 L26.66 517.5 L116.19 517.5" class="st9" />
		</g>
		<g id="shape47-200" transform="translate(144,-382.5)">
			
			<path d="M0 1080 L26.66 1080 L26.66 598.5 L116.19 598.5" class="st9" />
		</g>
		<g id="shape48-205" transform="translate(144,-463.5)">
			
			<path d="M0 1080 L26.66 1080 L26.66 679.5 L116.19 679.5" class="st9" />
		</g>
		<g id="shape49-210" transform="translate(144,-544.5)">
			
			<path d="M0 1080 L26.66 1080 L26.66 760.5 L116.19 760.5" class="st9" />
		</g>
		<g id="shape50-215" transform="translate(144,-625.5)">
			
			<path d="M0 1080 L26.66 1080 L26.66 841.5 L116.19 841.5" class="st9" />
		</g>
		<g id="shape51-220" transform="translate(144,-706.5)">
			
			<path d="M0 1080 L26.66 1080 L26.66 922.5 L116.19 922.5" class="st9" />
		</g>
		<g id="shape52-225" transform="translate(144,-787.5)">
			
			<path d="M0 1080 L26.66 1080 L26.66 1003.5 L116.19 1003.5" class="st9" />
		</g>
		<g id="shape53-230" transform="translate(144,-875.25)">
			
			<path d="M0 1086.75 L26.66 1086.75 L26.66 1091.25 L116.19 1091.25" class="st9" />
		</g>
		<g id="shape55-235" transform="translate(144,-625.5)">
			
			<path d="M0 1080 L26.66 1080 L26.66 1246.5 L116.19 1246.5" class="st9" />
		</g>
		<g id="shape62-240" transform="translate(144,-706.5)">
			
			<path d="M0 1080 L26.66 1080 L26.66 1165.5 L116.19 1165.5" class="st9" />
		</g>
		<g id="shape63-245" transform="translate(144,-625.5)">
			
			<path d="M0 1080 L26.66 1080 L26.66 922.5 L116.19 922.5" class="st9" />
		</g>
		<g id="shape64-250" transform="translate(369,-864)">
			
			<path d="M0 1080 L72 1080 L72 1354.5 L190.44 1354.5" class="st9" />
		</g>
		<g id="shape66-255" transform="translate(369,-864)">
			
			<path d="M0 1080 L72 1080 L72 1111.5 L190.44 1111.5" class="st9" />
		</g>
		<g id="shape67-260" transform="translate(369,-702)">
			
			<path d="M0 1080 L72 1080 L72 1030.5 L190.44 1030.5" class="st9" />
		</g>
		<g id="shape69-265" transform="translate(369,-621)">
			
			<path d="M0 1080 L72 1080 L72 1354.5 L190.44 1354.5" class="st9" />
		</g>
		<g id="shape70-270" transform="translate(369,-702)">
			
			<path d="M0 1080 L72 1080 L72 1354.5 L190.44 1354.5" class="st9" />
		</g>
		<g id="shape71-275" transform="translate(369,-621)">
			
			<path d="M0 1080 L72 1080 L72 1192.5 L190.44 1192.5" class="st9" />
		</g>
		<g id="shape72-280" transform="translate(369,-783)">
			
			<path d="M0 1080 L72 1080 L72 1597.5 L190.44 1597.5" class="st9" />
		</g>
		<g id="shape74-285" transform="translate(360,-540)">
			
			<path d="M9 1080 L42.41 1080 L42.41 1161 L18.81 1161" class="st9" />
		</g>
		<g id="shape75-290" transform="translate(360,-621)">
			
			<path d="M9 1080 L42.41 1080 L42.41 1242 L18.81 1242" class="st9" />
		</g>
		<g id="shape76-295" transform="translate(369,-459)">
			
			<path d="M0 1080 L33.41 1080 L33.41 1273.5 L190.44 1273.5" class="st9" />
		</g>
		<g id="shape77-300" transform="translate(310.5,-508.5)">
			
			<path d="M9 1080 L9 1088.19" class="st9" />
		</g>
		<g id="shape78-305" transform="translate(639,-994.5)">
			
			<path d="M9 1080 L26.66 1080 L26.66 1957.5 L18.81 1957.5" class="st9" />
		</g>
		<g id="shape79-310" transform="translate(639,-913.5)">
			
			<path d="M9 1080 L26.66 1080 L26.66 1876.5 L18.81 1876.5" class="st9" />
		</g>
		<g id="shape80-315" transform="translate(639,-832.5)">
			
			<path d="M9 1080 L26.66 1080 L26.66 1795.5 L18.81 1795.5" class="st9" />
		</g>
		<g id="shape81-320" transform="translate(639,-751.5)">
			
			<path d="M9 1080 L26.66 1080 L26.66 1714.5 L18.81 1714.5" class="st9" />
		</g>
		<g id="shape82-325" transform="translate(639,-670.5)">
			
			<path d="M9 1080 L26.66 1080 L26.66 1633.5 L18.81 1633.5" class="st9" />
		</g>
		<g id="shape83-330" transform="translate(639,-589.5)">
			
			<path d="M9 1080 L26.66 1080 L26.66 1552.5 L18.81 1552.5" class="st9" />
		</g>
		<g id="shape84-335" transform="translate(639,-508.5)">
			
			<path d="M9 1080 L26.66 1080 L26.66 1471.5 L18.81 1471.5" class="st9" />
		</g>
		<g id="shape85-340" transform="translate(639,-427.5)">
			
			<path d="M9 1080 L26.66 1080 L26.66 1390.5 L18.81 1390.5" class="st9" />
		</g>
		<g id="shape86-345" transform="translate(639,-346.5)">
			
			<path d="M9 1080 L26.66 1080 L26.66 1309.5 L18.81 1309.5" class="st9" />
		</g>
		<g id="shape87-350" transform="translate(639,-265.5)">
			
			<path d="M9 1080 L26.66 1080 L26.66 1228.5 L18.81 1228.5" class="st9" />
		</g>
		<g id="shape88-355" transform="translate(639,-184.5)">
			
			<path d="M9 1080 L26.66 1080 L26.66 1147.5 L18.81 1147.5" class="st9" />
		</g>
		<a id="128aa99b-a9c1-4ea4-91e1-e0cee46d7c60" class="rules_svg_anchor rules_svg_shape"   href="/lms/chart?onclick=b3BlbkNoYXJ0Q29udGV4dE1lbnUoZXZlbnQsJ3cxMTZkNTIzNTk2NWMzMDY3NXY0MDcxJywxODYwMywgMSwgMiwgdGhpcywgd2luZG93LmZyYW1lRWxlbWVudCk=&amp;navigate=true&amp;details=Description">
			<g id="shape89-360" transform="translate(63,-45)">
				
				<desc>55 Hire to Retire Taxonomy View</desc>
				<path d="M18 1080 L567 1080 A18 18 -180 1 0 567 1044 L18 1044 A18 18 -180 1 0 18 1080 Z" class="st1" />
				<text x="212.12" y="1065.6" class="st2">55 Hire to Retire Taxonomy View</text>
			</g>
		</a>
		<a id="d7cc89b7-3833-4298-8cee-724756885bee" class="rules_svg_anchor rules_svg_shape"   href="/lms/chart?onclick=b3BlbkNoYXJ0Q29udGV4dE1lbnUoZXZlbnQsJ3cxMTZkNTIzNTk2NWMzMDg5NXY0MDcxJywxODE2OSwgMSwgMSwgdGhpcywgd2luZG93LmZyYW1lRWxlbWVudCk=&amp;navigate=true&amp;details=Description">
			<g id="shape90-363" transform="translate(270,-913.5)">
				
				<desc>55.05 Develop people strategy</desc>
				<path d="M0 1080 L99 1080 L99 1017 L0 1017 L0 1080 Z" class="st5" />
				<path d="M0 1080 L99 1080 L99 1017 L0 1017 L0 1080" class="st6" />
				<path d="M9 1080 L9 1017" class="st6" />
				<path d="M90 1080 L90 1017" class="st6" />
				<text x="14.4" y="1044.9" class="st2">55.05 Develop <tspan x="11.47" dy="1.2em" class="st7">people strategy</tspan>
				</text>
			</g>
		</a>
		<g id="shape91-370" transform="translate(310.5,-994.5)">
			
			<path d="M9 1080 L9 1088.19" class="st9" />
		</g>
		<g id="shape92-375" transform="translate(310.5,-913.5)">
			
			<path d="M9 1080 L9 1088.19" class="st9" />
		</g>
		<a id="f59ae97b-d645-4b4b-b6c1-ca6c0ef19830" class="rules_svg_anchor rules_svg_shape"   href="/lms/chart?onclick=b3BlbkNoYXJ0Q29udGV4dE1lbnUoZXZlbnQsJ3cxMTZkNTIzNTk2NWM4MDM4NHY0MDcxJywxODIxOSwgMSwgMSwgdGhpcywgd2luZG93LmZyYW1lRWxlbWVudCk=&amp;navigate=true&amp;details=Description">
			<g id="shape93-380" transform="translate(270,-427.5)">
				
				<desc>55.80 Offboard talent</desc>
				<path d="M0 1080 L99 1080 L99 1017 L0 1017 L0 1080 Z" class="st5" />
				<path d="M0 1080 L99 1080 L99 1017 L0 1017 L0 1080" class="st6" />
				<path d="M9 1080 L9 1017" class="st6" />
				<path d="M90 1080 L90 1017" class="st6" />
				<text x="12.4" y="1044.9" class="st2">55.80 Offboard <tspan x="35.09" dy="1.2em" class="st7">talent</tspan>
				</text>
			</g>
		</a>
		<g id="shape94-387" transform="translate(319.5,-346.5)">
			
			<path d="M0 1080 L0 1309.5 L239.94 1309.5" class="st9" />
		</g>
		<a id="185d982c-4f50-47ba-bc16-eb7c4b11230a" class="rules_svg_anchor rules_svg_shape"   href="/lms/chart?onclick=b3BlbkNoYXJ0Q29udGV4dE1lbnUoZXZlbnQsJ3cxMTZkNTIzNTk2NWM4MDM5NXY0MDcxJywxODIyNSwgMSwgMSwgdGhpcywgd2luZG93LmZyYW1lRWxlbWVudCk=&amp;navigate=true&amp;details=Description">
			<g id="shape95-392" transform="translate(270,-346.5)">
				
				<desc>55.90 Analyze HR programs</desc>
				<path d="M0 1080 L99 1080 L99 1017 L0 1017 L0 1080 Z" class="st5" />
				<path d="M0 1080 L99 1080 L99 1017 L0 1017 L0 1080" class="st6" />
				<path d="M9 1080 L9 1017" class="st6" />
				<path d="M90 1080 L90 1017" class="st6" />
				<text x="15.52" y="1044.9" class="st2">55.90 Analyze <tspan x="17.81" dy="1.2em" class="st7">HR programs</tspan>
				</text>
			</g>
		</a>
		<g id="shape96-399" transform="translate(310.5,-427.5)">
			
			<path d="M9 1080 L9 1088.19" class="st9" />
		</g>
	</g>
</svg>
