<?xml version="1.0" encoding="UTF-8" standalone="no"?>
<!DOCTYPE svg PUBLIC "-//W3C//DTD SVG 1.1//EN" "http://www.w3.org/Graphics/SVG/1.1/DTD/svg11.dtd">
<!-- Generated by Microsoft Visio, SVG Export hire-to-retire-communicate-issue-changes-with-hr-process-flow.svg Page-1 -->
<svg xmlns="http://www.w3.org/2000/svg" xmlns:xlink="http://www.w3.org/1999/xlink" xmlns:ev="http://www.w3.org/2001/xml-events"
		xmlns:v="http://schemas.microsoft.com/visio/2003/SVGExtensions/" width="19.5033in" height="7.50333in"
		viewBox="0 0 1404.24 540.24" xml:space="preserve" color-interpolation-filters="sRGB" class="st8">
	<v:documentProperties v:langID="4105" v:metric="true" v:viewMarkup="false"/>

	<style type="text/css">
	<![CDATA[
		.st1 {fill:#ffffff;stroke:none;stroke-linecap:round;stroke-linejoin:round;stroke-width:0.24}
		.st2 {fill:#ffffff;fill-opacity:0.9;stroke:#4472c4;stroke-linecap:butt;stroke-width:3.4375}
		.st3 {fill:none;stroke:none;stroke-linecap:butt;stroke-width:0.749999}
		.st4 {fill:#000000;font-family:Calibri;font-size:1.99999em}
		.st5 {fill:#b0bcde;stroke:none;stroke-linecap:butt;stroke-width:0.749999}
		.st6 {fill:#4472c4;stroke:#ffffff;stroke-linecap:butt;stroke-width:3.4375}
		.st7 {fill:#ffffff;font-family:Calibri;font-size:1.99999em}
		.st8 {fill:none;fill-rule:evenodd;font-size:12px;overflow:visible;stroke-linecap:square;stroke-miterlimit:3}
	]]>
	</style>

	<g v:mID="0" v:index="1" v:groupContext="foregroundPage">
		<title>Page-1</title>
		<v:pageProperties v:drawingScale="1" v:pageScale="1" v:drawingUnits="19" v:shadowOffsetX="8.99999"
				v:shadowOffsetY="-8.99999"/>
		<v:layer v:name="Flowchart" v:index="0"/>
		<g id="shape51-1" v:mID="51" v:groupContext="shape" v:layerMember="0" transform="translate(0.12,-0.12)">
			<title>Process</title>
			<v:custProps>
				<v:cp v:nameU="Cost" v:lbl="Cost" v:prompt="" v:type="7" v:format="@" v:sortKey="" v:invis="false" v:ask="false"
						v:langID="1033" v:cal="0"/>
				<v:cp v:nameU="ProcessNumber" v:lbl="Process Number" v:prompt="" v:type="2" v:format="" v:sortKey=""
						v:invis="false" v:ask="false" v:langID="1033" v:cal="0"/>
				<v:cp v:nameU="Owner" v:lbl="Owner" v:prompt="" v:type="0" v:format="" v:sortKey="" v:invis="false" v:ask="false"
						v:langID="1033" v:cal="0"/>
				<v:cp v:nameU="Function" v:lbl="Function" v:prompt="" v:type="0" v:format="" v:sortKey="" v:invis="false"
						v:ask="false" v:langID="1033" v:cal="0" v:val="VT4()"/>
				<v:cp v:nameU="StartDate" v:lbl="Start Date" v:prompt="" v:type="5" v:format="" v:sortKey="" v:invis="false"
						v:ask="false" v:langID="1033" v:cal="0"/>
				<v:cp v:nameU="EndDate" v:lbl="End Date" v:prompt="" v:type="5" v:format="" v:sortKey="" v:invis="false"
						v:ask="false" v:langID="1033" v:cal="0"/>
				<v:cp v:nameU="Status" v:lbl="Status" v:prompt="" v:type="4"
						v:format=";Not Started;In Progress;Completed;Deferred;Waiting on Input" v:sortKey="" v:invis="false"
						v:ask="false" v:langID="1033" v:cal="0" v:val="VT4()"/>
			</v:custProps>
			<v:userDefs>
				<v:ud v:nameU="visVersion" v:prompt="" v:val="VT0(15):26"/>
				<v:ud v:nameU="DefaultWidth" v:prompt="" v:val="VT0(1):0"/>
				<v:ud v:nameU="DefaultHeight" v:prompt="" v:val="VT0(0.75):0"/>
				<v:ud v:nameU="ResizeTxtHeight" v:prompt="" v:val="VT0(0.75):0"/>
			</v:userDefs>
			<rect x="0" y="0.240013" width="1404" height="540" class="st1"/>
		</g>
		<g id="shape1-3" v:mID="1" v:groupContext="shape" transform="translate(21.5614,-171.333)">
			<title>Sheet.1</title>
			<path d="M0 315.79 C0 302.02 11.17 290.86 24.94 290.86 L240.52 290.86 C254.29 290.86 265.46 302.02 265.46 315.79 L265.46
						 515.31 C265.46 529.08 254.29 540.24 240.52 540.24 L24.94 540.24 C11.17 540.24 0 529.08 0 515.31 L0 315.79
						 Z" class="st2"/>
		</g>
		<g id="shape2-5" v:mID="2" v:groupContext="shape" transform="translate(53.5915,-357.448)">
			<title>Sheet.2</title>
			<desc>•</desc>
			<v:userDefs/>
			<v:textBlock v:margins="rect(0,0,0,0)"/>
			<v:textRect cx="13.6857" cy="523.812" width="27.38" height="32.855"/>
			<rect x="0" y="507.385" width="27.3791" height="32.855" class="st3"/>
			<text x="-0" y="531.01" class="st4" v:langID="4105"><v:paragraph/><v:tabList/>•</text>		</g>
		<g id="shape3-8" v:mID="3" v:groupContext="shape" transform="translate(67.1769,-357.448)">
			<title>Sheet.3</title>
			<desc>Define Case</desc>
			<v:userDefs/>
			<v:textBlock v:margins="rect(0,0,0,0)"/>
			<v:textRect cx="164.271" cy="523.812" width="328.55" height="32.855"/>
			<rect x="0" y="507.385" width="328.55" height="32.855" class="st3"/>
			<text x="-0" y="531.01" class="st4" v:langID="4105"><v:paragraph/><v:tabList/>Define Case    </text>		</g>
		<g id="shape4-11" v:mID="4" v:groupContext="shape" transform="translate(65.8674,-327.688)">
			<title>Sheet.4</title>
			<desc>categories</desc>
			<v:userDefs/>
			<v:textBlock v:margins="rect(0,0,0,0)"/>
			<v:textRect cx="136.892" cy="523.812" width="273.8" height="32.855"/>
			<rect x="0" y="507.385" width="273.791" height="32.855" class="st3"/>
			<text x="-0.01" y="531.01" class="st4" v:langID="4105"><v:paragraph/><v:tabList/>categories</text>		</g>
		<g id="shape5-14" v:mID="5" v:groupContext="shape" transform="translate(53.5915,-292.571)">
			<title>Sheet.5</title>
			<desc>•</desc>
			<v:userDefs/>
			<v:textBlock v:margins="rect(0,0,0,0)"/>
			<v:textRect cx="13.6857" cy="523.812" width="27.38" height="32.855"/>
			<rect x="0" y="507.385" width="27.3791" height="32.855" class="st3"/>
			<text x="-0" y="531.01" class="st4" v:langID="4105"><v:paragraph/><v:tabList/>•</text>		</g>
		<g id="shape6-17" v:mID="6" v:groupContext="shape" transform="translate(67.1769,-292.571)">
			<title>Sheet.6</title>
			<desc>Define Case</desc>
			<v:userDefs/>
			<v:textBlock v:margins="rect(0,0,0,0)"/>
			<v:textRect cx="164.271" cy="523.812" width="328.55" height="32.855"/>
			<rect x="0" y="507.385" width="328.55" height="32.855" class="st3"/>
			<text x="-0" y="531.01" class="st4" v:langID="4105"><v:paragraph/><v:tabList/>Define Case    </text>		</g>
		<g id="shape7-20" v:mID="7" v:groupContext="shape" transform="translate(65.8674,-262.811)">
			<title>Sheet.7</title>
			<desc>processes</desc>
			<v:userDefs/>
			<v:textBlock v:margins="rect(0,0,0,0)"/>
			<v:textRect cx="123.202" cy="523.812" width="246.42" height="32.855"/>
			<rect x="0" y="507.385" width="246.412" height="32.855" class="st3"/>
			<text x="-0.01" y="531.01" class="st4" v:langID="4105"><v:paragraph/><v:tabList/>processes</text>		</g>
		<g id="shape8-23" v:mID="8" v:groupContext="shape" transform="translate(194.78,-15.9563)">
			<title>Sheet.8</title>
			<path d="M0 451.07 L7.06 447.06 C42.73 509.88 122.56 531.89 185.38 496.23 C201.93 486.84 216.24 473.94 227.29 458.45
						 L222.6 455.78 L238.07 449.1 L239.08 465.15 L234.39 462.48 C190.21 525.21 103.54 540.24 40.82 496.06 C24.06
						 484.26 10.12 468.9 0 451.07 Z" class="st5"/>
		</g>
		<g id="shape9-25" v:mID="9" v:groupContext="shape" transform="translate(81.6766,-106.456)">
			<title>Sheet.9</title>
			<path d="M0 456.68 C0 451.55 4.16 447.39 9.29 447.39 L224.03 447.39 C229.16 447.39 233.32 451.55 233.32 456.68 L233.32
						 530.96 C233.32 536.09 229.16 540.24 224.03 540.24 L9.29 540.24 C4.16 540.24 0 536.09 0 530.96 L0 456.68
						 Z" class="st6"/>
		</g>
		<g id="shape10-27" v:mID="10" v:groupContext="shape" transform="translate(115.153,-166.091)">
			<title>Sheet.10</title>
			<desc>Prerequisites for</desc>
			<v:userDefs/>
			<v:textBlock v:margins="rect(0,0,0,0)"/>
			<v:textRect cx="219.624" cy="525.598" width="439.26" height="29.2838"/>
			<rect x="0" y="510.956" width="439.257" height="29.2838" class="st3"/>
			<text x="-0.01" y="532.8" class="st7" v:langID="4105"><v:paragraph/><v:tabList/>Prerequisites for    </text>		</g>
		<g id="shape11-30" v:mID="11" v:groupContext="shape" transform="translate(96.5893,-138.712)">
			<title>Sheet.11</title>
			<desc>Comunicating issues</desc>
			<v:userDefs/>
			<v:textBlock v:margins="rect(0,0,0,0)"/>
			<v:textRect cx="244.027" cy="525.598" width="488.07" height="29.2838"/>
			<rect x="0" y="510.956" width="488.063" height="29.2838" class="st3"/>
			<text x="-0.01" y="532.8" class="st7" v:langID="4105"><v:paragraph/><v:tabList/>Comunicating issues    </text>		</g>
		<g id="shape12-33" v:mID="12" v:groupContext="shape" transform="translate(135.695,-111.928)">
			<title>Sheet.12</title>
			<desc>and changes</desc>
			<v:userDefs/>
			<v:textBlock v:margins="rect(0,0,0,0)"/>
			<v:textRect cx="134.213" cy="525.598" width="268.44" height="29.2838"/>
			<rect x="0" y="510.956" width="268.435" height="29.2838" class="st3"/>
			<text x="-0.01" y="532.8" class="st7" v:langID="4105"><v:paragraph/><v:tabList/>and changes</text>		</g>
		<g id="shape13-36" v:mID="13" v:groupContext="shape" transform="translate(353.682,-132.645)">
			<title>Sheet.13</title>
			<path d="M0 307.76 C0 293.49 11.57 281.93 25.83 281.93 L247.96 281.93 C262.23 281.93 273.79 293.49 273.79 307.76 L273.79
						 514.41 C273.79 528.68 262.23 540.24 247.96 540.24 L25.83 540.24 C11.57 540.24 0 528.68 0 514.41 L0 307.76
						 Z" class="st2"/>
		</g>
		<g id="shape14-38" v:mID="14" v:groupContext="shape" transform="translate(385.949,-275.608)">
			<title>Sheet.14</title>
			<desc>•</desc>
			<v:userDefs/>
			<v:textBlock v:margins="rect(0,0,0,0)"/>
			<v:textRect cx="12.1977" cy="525.598" width="24.41" height="29.2838"/>
			<rect x="0" y="510.956" width="24.4031" height="29.2838" class="st3"/>
			<text x="-0.01" y="532.8" class="st4" v:langID="4105"><v:paragraph/><v:tabList/>•</text>		</g>
		<g id="shape15-41" v:mID="15" v:groupContext="shape" transform="translate(398.225,-275.608)">
			<title>Sheet.15</title>
			<desc>Define Case</desc>
			<v:userDefs/>
			<v:textBlock v:margins="rect(0,0,0,0)"/>
			<v:textRect cx="146.415" cy="525.598" width="292.84" height="29.2838"/>
			<rect x="0" y="510.956" width="292.838" height="29.2838" class="st3"/>
			<text x="-0" y="532.8" class="st4" v:langID="4105"><v:paragraph/><v:tabList/>Define Case    </text>		</g>
		<g id="shape16-44" v:mID="16" v:groupContext="shape" transform="translate(398.225,-248.229)">
			<title>Sheet.16</title>
			<desc>category security</desc>
			<v:userDefs/>
			<v:textBlock v:margins="rect(0,0,0,0)"/>
			<v:textRect cx="219.624" cy="525.598" width="439.26" height="29.2838"/>
			<rect x="0" y="510.956" width="439.257" height="29.2838" class="st3"/>
			<text x="-0.01" y="532.8" class="st4" v:langID="4105"><v:paragraph/><v:tabList/>category security    </text>		</g>
		<g id="shape17-47" v:mID="17" v:groupContext="shape" transform="translate(398.225,-221.445)">
			<title>Sheet.17</title>
			<desc>by role</desc>
			<v:userDefs/>
			<v:textBlock v:margins="rect(0,0,0,0)"/>
			<v:textRect cx="85.407" cy="525.598" width="170.83" height="29.2838"/>
			<rect x="0" y="510.956" width="170.822" height="29.2838" class="st3"/>
			<text x="-0.01" y="532.8" class="st4" v:langID="4105"><v:paragraph/><v:tabList/>by role</text>		</g>
		<g id="shape18-50" v:mID="18" v:groupContext="shape" transform="translate(385.949,-189.899)">
			<title>Sheet.18</title>
			<desc>•</desc>
			<v:userDefs/>
			<v:textBlock v:margins="rect(0,0,0,0)"/>
			<v:textRect cx="12.1977" cy="525.598" width="24.41" height="29.2838"/>
			<rect x="0" y="510.956" width="24.4031" height="29.2838" class="st3"/>
			<text x="-0.01" y="532.8" class="st4" v:langID="4105"><v:paragraph/><v:tabList/>•</text>		</g>
		<g id="shape19-53" v:mID="19" v:groupContext="shape" transform="translate(398.225,-189.899)">
			<title>Sheet.19</title>
			<desc>Define workflows</desc>
			<v:userDefs/>
			<v:textBlock v:margins="rect(0,0,0,0)"/>
			<v:textRect cx="207.423" cy="525.598" width="414.86" height="29.2838"/>
			<rect x="0" y="510.956" width="414.853" height="29.2838" class="st3"/>
			<text x="-0.01" y="532.8" class="st4" v:langID="4105"><v:paragraph/><v:tabList/>Define workflows    </text>		</g>
		<g id="shape20-56" v:mID="20" v:groupContext="shape" transform="translate(398.225,-163.115)">
			<title>Sheet.20</title>
			<desc>for approval of</desc>
			<v:userDefs/>
			<v:textBlock v:margins="rect(0,0,0,0)"/>
			<v:textRect cx="195.221" cy="525.598" width="390.46" height="29.2838"/>
			<rect x="0" y="510.956" width="390.45" height="29.2838" class="st3"/>
			<text x="-0.01" y="532.8" class="st4" v:langID="4105"><v:paragraph/><v:tabList/>for approval of    </text>		</g>
		<g id="shape21-59" v:mID="21" v:groupContext="shape" transform="translate(398.225,-136.331)">
			<title>Sheet.21</title>
			<desc>issues and changes</desc>
			<v:userDefs/>
			<v:textBlock v:margins="rect(0,0,0,0)"/>
			<v:textRect cx="219.624" cy="525.598" width="439.26" height="29.2838"/>
			<rect x="0" y="510.956" width="439.257" height="29.2838" class="st3"/>
			<text x="-0.01" y="532.8" class="st4" v:langID="4105"><v:paragraph/><v:tabList/>issues and changes</text>		</g>
		<g id="shape22-62" v:mID="22" v:groupContext="shape" transform="translate(531.447,-414.755)">
			<title>Sheet.22</title>
			<path d="M0 536.87 C37.85 454.09 135.64 417.66 218.43 455.51 C241.31 465.98 261.5 481.54 277.44 501.02 L281.88 497.96
						 L282.2 514.09 L266.29 508.71 L270.74 505.65 C215.64 438.91 116.88 429.46 50.14 484.56 C31.86 499.65 17.24
						 518.69 7.38 540.24 L0 536.87 Z" class="st5"/>
		</g>
		<g id="shape23-64" v:mID="23" v:groupContext="shape" transform="translate(417.964,-323.704)">
			<title>Sheet.23</title>
			<path d="M0 456.68 C0 451.55 4.16 447.39 9.29 447.39 L224.03 447.39 C229.16 447.39 233.32 451.55 233.32 456.68 L233.32
						 530.96 C233.32 536.09 229.16 540.24 224.03 540.24 L9.29 540.24 C4.16 540.24 0 536.09 0 530.96 L0 456.68
						 Z" class="st6"/>
		</g>
		<g id="shape24-66" v:mID="24" v:groupContext="shape" transform="translate(437.804,-383.339)">
			<title>Sheet.24</title>
			<desc>Define security and</desc>
			<v:userDefs/>
			<v:textBlock v:margins="rect(0,0,0,0)"/>
			<v:textRect cx="244.027" cy="525.598" width="488.07" height="29.2838"/>
			<rect x="0" y="510.956" width="488.063" height="29.2838" class="st3"/>
			<text x="-0.01" y="532.8" class="st7" v:langID="4105"><v:paragraph/><v:tabList/>Define security and    </text>		</g>
		<g id="shape25-69" v:mID="25" v:groupContext="shape" transform="translate(437.859,-355.96)">
			<title>Sheet.25</title>
			<desc>approval for issues</desc>
			<v:userDefs/>
			<v:textBlock v:margins="rect(0,0,0,0)"/>
			<v:textRect cx="256.229" cy="525.598" width="512.47" height="29.2838"/>
			<rect x="0" y="510.956" width="512.466" height="29.2838" class="st3"/>
			<text x="-0.01" y="532.8" class="st7" v:langID="4105"><v:paragraph/><v:tabList/>approval  for issues    </text>		</g>
		<g id="shape26-72" v:mID="26" v:groupContext="shape" transform="translate(472.027,-329.176)">
			<title>Sheet.26</title>
			<desc>and changes</desc>
			<v:userDefs/>
			<v:textBlock v:margins="rect(0,0,0,0)"/>
			<v:textRect cx="134.213" cy="525.598" width="268.44" height="29.2838"/>
			<rect x="0" y="510.956" width="268.435" height="29.2838" class="st3"/>
			<text x="-0.01" y="532.8" class="st7" v:langID="4105"><v:paragraph/><v:tabList/>and changes</text>		</g>
		<g id="shape27-75" v:mID="27" v:groupContext="shape" transform="translate(688.778,-145.739)">
			<title>Sheet.27</title>
			<path d="M0 287.94 C0 272.46 12.55 259.91 28.03 259.91 L278.49 259.91 C293.97 259.91 306.53 272.46 306.53 287.94 L306.53
						 512.21 C306.53 527.69 293.97 540.24 278.49 540.24 L28.03 540.24 C12.55 540.24 0 527.69 0 512.21 L0 287.94
						 Z" class="st2"/>
		</g>
		<g id="shape28-77" v:mID="28" v:groupContext="shape" transform="translate(721.336,-362.209)">
			<title>Sheet.28</title>
			<desc>•</desc>
			<v:userDefs/>
			<v:textBlock v:margins="rect(0,0,0,0)"/>
			<v:textRect cx="13.6857" cy="523.812" width="27.38" height="32.855"/>
			<rect x="0" y="507.385" width="27.3791" height="32.855" class="st3"/>
			<text x="-0" y="531.01" class="st4" v:langID="4105"><v:paragraph/><v:tabList/>•</text>		</g>
		<g id="shape29-80" v:mID="29" v:groupContext="shape" transform="translate(734.924,-362.209)">
			<title>Sheet.29</title>
			<desc>Ask questions about</desc>
			<v:userDefs/>
			<v:textBlock v:margins="rect(0,0,0,0)"/>
			<v:textRect cx="273.787" cy="523.812" width="547.59" height="32.855"/>
			<rect x="0" y="507.385" width="547.583" height="32.855" class="st3"/>
			<text x="-0.01" y="531.01" class="st4" v:langID="4105"><v:paragraph/><v:tabList/>Ask questions about    </text>		</g>
		<g id="shape30-83" v:mID="30" v:groupContext="shape" transform="translate(733.615,-332.449)">
			<title>Sheet.30</title>
			<desc>benefits</desc>
			<v:userDefs/>
			<v:textBlock v:margins="rect(0,0,0,0)"/>
			<v:textRect cx="109.513" cy="523.812" width="219.04" height="32.855"/>
			<rect x="0" y="507.385" width="219.033" height="32.855" class="st3"/>
			<text x="-0.01" y="531.01" class="st4" v:langID="4105"><v:paragraph/><v:tabList/>benefits</text>		</g>
		<g id="shape31-86" v:mID="31" v:groupContext="shape" transform="translate(721.336,-297.332)">
			<title>Sheet.31</title>
			<desc>•</desc>
			<v:userDefs/>
			<v:textBlock v:margins="rect(0,0,0,0)"/>
			<v:textRect cx="13.6857" cy="523.812" width="27.38" height="32.855"/>
			<rect x="0" y="507.385" width="27.3791" height="32.855" class="st3"/>
			<text x="-0" y="531.01" class="st4" v:langID="4105"><v:paragraph/><v:tabList/>•</text>		</g>
		<g id="shape32-89" v:mID="32" v:groupContext="shape" transform="translate(734.924,-297.332)">
			<title>Sheet.32</title>
			<desc>Ask questions about</desc>
			<v:userDefs/>
			<v:textBlock v:margins="rect(0,0,0,0)"/>
			<v:textRect cx="273.787" cy="523.812" width="547.59" height="32.855"/>
			<rect x="0" y="507.385" width="547.583" height="32.855" class="st3"/>
			<text x="-0.01" y="531.01" class="st4" v:langID="4105"><v:paragraph/><v:tabList/>Ask questions about    </text>		</g>
		<g id="shape33-92" v:mID="33" v:groupContext="shape" transform="translate(733.615,-267.573)">
			<title>Sheet.33</title>
			<desc>compensation</desc>
			<v:userDefs/>
			<v:textBlock v:margins="rect(0,0,0,0)"/>
			<v:textRect cx="164.271" cy="523.812" width="328.55" height="32.855"/>
			<rect x="0" y="507.385" width="328.55" height="32.855" class="st3"/>
			<text x="-0" y="531.01" class="st4" v:langID="4105"><v:paragraph/><v:tabList/>compensation</text>		</g>
		<g id="shape34-95" v:mID="34" v:groupContext="shape" transform="translate(721.336,-232.456)">
			<title>Sheet.34</title>
			<desc>•</desc>
			<v:userDefs/>
			<v:textBlock v:margins="rect(0,0,0,0)"/>
			<v:textRect cx="13.6857" cy="523.812" width="27.38" height="32.855"/>
			<rect x="0" y="507.385" width="27.3791" height="32.855" class="st3"/>
			<text x="-0" y="531.01" class="st4" v:langID="4105"><v:paragraph/><v:tabList/>•</text>		</g>
		<g id="shape35-98" v:mID="35" v:groupContext="shape" transform="translate(734.924,-232.456)">
			<title>Sheet.35</title>
			<desc>Ask questions about</desc>
			<v:userDefs/>
			<v:textBlock v:margins="rect(0,0,0,0)"/>
			<v:textRect cx="273.787" cy="523.812" width="547.59" height="32.855"/>
			<rect x="0" y="507.385" width="547.583" height="32.855" class="st3"/>
			<text x="-0.01" y="531.01" class="st4" v:langID="4105"><v:paragraph/><v:tabList/>Ask questions about    </text>		</g>
		<g id="shape36-101" v:mID="36" v:groupContext="shape" transform="translate(733.615,-202.101)">
			<title>Sheet.36</title>
			<desc>leave and absence</desc>
			<v:userDefs/>
			<v:textBlock v:margins="rect(0,0,0,0)"/>
			<v:textRect cx="232.719" cy="523.812" width="465.45" height="32.855"/>
			<rect x="0" y="507.385" width="465.445" height="32.855" class="st3"/>
			<text x="-0.01" y="531.01" class="st4" v:langID="4105"><v:paragraph/><v:tabList/>leave and absence</text>		</g>
		<g id="shape37-104" v:mID="37" v:groupContext="shape" transform="translate(895.949,-0.124)">
			<title>Sheet.37</title>
			<path d="M0 453.3 L6.75 448.8 C49.4 513.07 135.96 530.52 200.09 487.78 C217.32 476.3 231.78 461.12 242.43 443.34 L237.57
						 441.02 L252.44 433.22 L254.64 449.17 L249.78 446.85 C208.2 517.08 117.68 540.24 47.59 498.59 C28.53 487.26
						 12.27 471.78 0 453.3 Z" class="st5"/>
		</g>
		<g id="shape38-106" v:mID="38" v:groupContext="shape" transform="translate(782.225,-88.6002)">
			<title>Sheet.38</title>
			<path d="M0 456.68 C0 451.55 4.15 447.39 9.29 447.39 L224.63 447.39 C229.76 447.39 233.91 451.55 233.91 456.68 L233.91
						 530.96 C233.91 536.09 229.76 540.24 224.63 540.24 L9.29 540.24 C4.15 540.24 0 536.09 0 530.96 L0 456.68
						 Z" class="st6"/>
		</g>
		<g id="shape39-108" v:mID="39" v:groupContext="shape" transform="translate(830.025,-121.451)">
			<title>Sheet.39</title>
			<desc>Ask questions</desc>
			<v:userDefs/>
			<v:textBlock v:margins="rect(0,0,0,0)"/>
			<v:textRect cx="158.616" cy="525.598" width="317.25" height="29.2838"/>
			<rect x="0" y="510.956" width="317.241" height="29.2838" class="st3"/>
			<text x="-0.01" y="532.8" class="st7" v:langID="4105"><v:paragraph/><v:tabList/>Ask questions</text>		</g>
		<g id="shape40-111" v:mID="40" v:groupContext="shape" transform="translate(1042.92,-124.907)">
			<title>Sheet.40</title>
			<path d="M0 293.83 C0 278.71 12.26 266.45 27.38 266.45 L299.38 266.45 C314.51 266.45 326.76 278.71 326.76 293.83 L326.76
						 512.86 C326.76 527.99 314.51 540.24 299.38 540.24 L27.38 540.24 C12.26 540.24 0 527.99 0 512.86 L0 293.83
						 Z" class="st2"/>
		</g>
		<g id="shape41-113" v:mID="41" v:groupContext="shape" transform="translate(1075.37,-282.869)">
			<title>Sheet.41</title>
			<desc>•</desc>
			<v:userDefs/>
			<v:textBlock v:margins="rect(0,0,0,0)"/>
			<v:textRect cx="11.0073" cy="527.026" width="22.03" height="26.4268"/>
			<rect x="0" y="513.813" width="22.0224" height="26.4268" class="st3"/>
			<text x="-0.01" y="534.23" class="st4" v:langID="4105"><v:paragraph/><v:tabList/>•</text>		</g>
		<g id="shape42-116" v:mID="42" v:groupContext="shape" transform="translate(1087.65,-282.869)">
			<title>Sheet.42</title>
			<desc>Communicate about</desc>
			<v:userDefs/>
			<v:textBlock v:margins="rect(0,0,0,0)"/>
			<v:textRect cx="130.449" cy="527.026" width="260.91" height="26.4268"/>
			<rect x="0" y="513.813" width="260.905" height="26.4268" class="st3"/>
			<text x="-0.01" y="534.23" class="st4" v:langID="4105"><v:paragraph/><v:tabList/>Communicate about    </text>		</g>
		<g id="shape43-119" v:mID="43" v:groupContext="shape" transform="translate(1087.65,-258.466)">
			<title>Sheet.43</title>
			<desc>harassment issues to HR</desc>
			<v:userDefs/>
			<v:textBlock v:margins="rect(0,0,0,0)"/>
			<v:textRect cx="130.449" cy="527.026" width="260.91" height="26.4268"/>
			<rect x="0" y="513.813" width="260.905" height="26.4268" class="st3"/>
			<text x="-0.01" y="534.23" class="st4" v:langID="4105"><v:paragraph/><v:tabList/>harassment issues to HR</text>		</g>
		<g id="shape44-122" v:mID="44" v:groupContext="shape" transform="translate(1075.37,-230.492)">
			<title>Sheet.44</title>
			<desc>•</desc>
			<v:userDefs/>
			<v:textBlock v:margins="rect(0,0,0,0)"/>
			<v:textRect cx="11.0073" cy="527.026" width="22.03" height="26.4268"/>
			<rect x="0" y="513.813" width="22.0224" height="26.4268" class="st3"/>
			<text x="-0.01" y="534.23" class="st4" v:langID="4105"><v:paragraph/><v:tabList/>•</text>		</g>
		<g id="shape45-125" v:mID="45" v:groupContext="shape" transform="translate(1087.65,-230.492)">
			<title>Sheet.45</title>
			<desc>Communicate safety issues</desc>
			<v:userDefs/>
			<v:textBlock v:margins="rect(0,0,0,0)"/>
			<v:textRect cx="134.02" cy="527.026" width="268.05" height="26.4268"/>
			<rect x="0" y="513.813" width="268.048" height="26.4268" class="st3"/>
			<text x="-0" y="534.23" class="st4" v:langID="4105"><v:paragraph/><v:tabList/>Communicate safety issues    </text>		</g>
		<g id="shape46-128" v:mID="46" v:groupContext="shape" transform="translate(1091.62,-204.907)">
			<title>Sheet.46</title>
			<desc>with HR</desc>
			<v:userDefs/>
			<v:textBlock v:margins="rect(0,0,0,0)"/>
			<v:textRect cx="77.0742" cy="527.026" width="154.16" height="26.4268"/>
			<rect x="0" y="513.813" width="154.156" height="26.4268" class="st3"/>
			<text x="-0.01" y="534.23" class="st4" v:langID="4105"><v:paragraph/><v:tabList/>with HR</text>		</g>
		<g id="shape47-131" v:mID="47" v:groupContext="shape" transform="translate(1154.66,-323.704)">
			<title>Sheet.47</title>
			<path d="M0 456.68 C0 451.55 4.15 447.39 9.29 447.39 L224.63 447.39 C229.76 447.39 233.91 451.55 233.91 456.68 L233.91
						 530.96 C233.91 536.09 229.76 540.24 224.63 540.24 L9.29 540.24 C4.15 540.24 0 536.09 0 530.96 L0 456.68
						 Z" class="st6"/>
		</g>
		<g id="shape48-133" v:mID="48" v:groupContext="shape" transform="translate(1201.51,-383.339)">
			<title>Sheet.48</title>
			<desc>Communicate</desc>
			<v:userDefs/>
			<v:textBlock v:margins="rect(0,0,0,0)"/>
			<v:textRect cx="77.0147" cy="525.598" width="154.04" height="29.2838"/>
			<rect x="0" y="510.956" width="154.037" height="29.2838" class="st3"/>
			<text x="-0.01" y="532.8" class="st7" v:langID="4105"><v:paragraph/><v:tabList/>Communicate    </text>		</g>
		<g id="shape49-136" v:mID="49" v:groupContext="shape" transform="translate(1191.02,-355.96)">
			<title>Sheet.49</title>
			<desc>harassment and</desc>
			<v:userDefs/>
			<v:textBlock v:margins="rect(0,0,0,0)"/>
			<v:textRect cx="89.4008" cy="525.598" width="178.81" height="29.2838"/>
			<rect x="0" y="510.956" width="178.81" height="29.2838" class="st3"/>
			<text x="-0" y="532.8" class="st7" v:langID="4105"><v:paragraph/><v:tabList/>harassment and    </text>		</g>
		<g id="shape50-139" v:mID="50" v:groupContext="shape" transform="translate(1241.36,-329.176)">
			<title>Sheet.50</title>
			<desc>issues</desc>
			<v:userDefs/>
			<v:textBlock v:margins="rect(0,0,0,0)"/>
			<v:textRect cx="73.2054" cy="525.598" width="146.42" height="29.2838"/>
			<rect x="0" y="510.956" width="146.419" height="29.2838" class="st3"/>
			<text x="-0" y="532.8" class="st7" v:langID="4105"><v:paragraph/><v:tabList/>issues</text>		</g>
	</g>
</svg>
