<?xml version="1.0" encoding="UTF-8" standalone="no"?>
<svg
   width="718.56287"
   height="660.42462"
   overflow="hidden"
   version="1.1"
   id="svg77"
   sodipodi:docname="onboard-and-manage-the-employee-lifecycle.svg"
   inkscape:version="1.3.2 (091e20e, 2023-11-25, custom)"
   xmlns:inkscape="http://www.inkscape.org/namespaces/inkscape"
   xmlns:sodipodi="http://sodipodi.sourceforge.net/DTD/sodipodi-0.dtd"
   xmlns="http://www.w3.org/2000/svg"
   xmlns:svg="http://www.w3.org/2000/svg">
  <sodipodi:namedview
     id="namedview77"
     pagecolor="#ffffff"
     bordercolor="#000000"
     borderopacity="0.25"
     inkscape:showpageshadow="2"
     inkscape:pageopacity="0.0"
     inkscape:pagecheckerboard="0"
     inkscape:deskcolor="#d1d1d1"
     inkscape:zoom="2.5513889"
     inkscape:cx="360.19597"
     inkscape:cy="338.83506"
     inkscape:window-width="3840"
     inkscape:window-height="2054"
     inkscape:window-x="2869"
     inkscape:window-y="-11"
     inkscape:window-maximized="1"
     inkscape:current-layer="svg77" />
  <defs
     id="defs3">
    <linearGradient
       x1="185.5"
       y1="173"
       x2="185.5"
       y2="229"
       gradientUnits="userSpaceOnUse"
       spreadMethod="reflect"
       id="fill0">
      <stop
         offset="0"
         stop-color="#9B9B9B"
         id="stop1" />
      <stop
         offset="0.5"
         stop-color="#8E8E8E"
         id="stop2" />
      <stop
         offset="1"
         stop-color="#797979"
         id="stop3" />
    </linearGradient>
  </defs>
  <g
     id="g77"
     transform="translate(-119.93468,-21.164944)">
    <rect
       x="119.93468"
       y="21.164944"
       width="718.56287"
       height="660.42462"
       fill="#ffffff"
       id="rect3"
       style="stroke-width:0.828594" />
    <rect
       x="264"
       y="29"
       width="395"
       height="646"
       stroke="#4472c4"
       stroke-width="2"
       stroke-miterlimit="8"
       fill="#c5c3c3"
       id="rect4" />
    <text
       fill="#4472c4"
       font-family="Calibri, Calibri_MSFontService, sans-serif"
       font-weight="700"
       font-size="13px"
       transform="translate(271.888,47)"
       id="text4">Business process area</text>
    <rect
       x="400"
       y="69"
       width="129"
       height="67"
       stroke="#2f528f"
       stroke-width="2"
       stroke-miterlimit="8"
       fill="#4472c4"
       id="rect5" />
    <text
       fill="#ffffff"
       font-family="Calibri, Calibri_MSFontService, sans-serif"
       font-weight="400"
       font-size="13px"
       transform="translate(428.579,90)"
       id="text5">Onboard and</text>
    <text
       fill="#ffffff"
       font-family="Calibri, Calibri_MSFontService, sans-serif"
       font-weight="400"
       font-size="13px"
       transform="translate(431.912,106)"
       id="text6">manage the</text>
    <text
       fill="#ffffff"
       font-family="Calibri, Calibri_MSFontService, sans-serif"
       font-weight="400"
       font-size="13px"
       transform="translate(413.992,122)"
       id="text7">employee lifecycle</text>
    <rect
       x="327"
       y="173"
       width="132"
       height="72"
       fill="#ffffff"
       id="rect7" />
    <path
       d="m 343.5,173 v 72 m 99,-72 v 72"
       stroke="#4472c4"
       stroke-width="2"
       stroke-miterlimit="8"
       fill="none"
       fill-rule="evenodd"
       id="path7" />
    <rect
       x="327"
       y="173"
       width="132"
       height="72"
       stroke="#4472c4"
       stroke-width="2"
       stroke-miterlimit="8"
       fill="none"
       id="rect8" />
    <text
       font-family="Calibri, Calibri_MSFontService, sans-serif"
       font-weight="400"
       font-size="13px"
       transform="translate(375.119,197)"
       id="text8">Create</text>
    <text
       font-family="Calibri, Calibri_MSFontService, sans-serif"
       font-weight="400"
       font-size="13px"
       transform="translate(361.953,213)"
       id="text9">onboarding</text>
    <text
       font-family="Calibri, Calibri_MSFontService, sans-serif"
       font-weight="400"
       font-size="13px"
       transform="translate(369.786,229)"
       id="text10">checklist</text>
    <rect
       x="328"
       y="259"
       width="130"
       height="63"
       fill="#ffffff"
       id="rect10" />
    <path
       d="m 344.25,259 v 63 m 97.5,-63 v 63"
       stroke="#4472c4"
       stroke-width="2"
       stroke-miterlimit="8"
       fill="none"
       fill-rule="evenodd"
       id="path10" />
    <rect
       x="328"
       y="259"
       width="130"
       height="63"
       stroke="#4472c4"
       stroke-width="2"
       stroke-miterlimit="8"
       fill="none"
       id="rect11" />
    <text
       font-family="Calibri, Calibri_MSFontService, sans-serif"
       font-weight="400"
       font-size="13px"
       transform="translate(352.619,295)"
       id="text11">Assign position</text>
    <rect
       x="327"
       y="337"
       width="132"
       height="59"
       fill="#ffffff"
       id="rect12" />
    <path
       d="m 343.5,337 v 59 m 99,-59 v 59"
       stroke="#4472c4"
       stroke-width="2"
       stroke-miterlimit="8"
       fill="none"
       fill-rule="evenodd"
       id="path12" />
    <rect
       x="327"
       y="337"
       width="132"
       height="59"
       stroke="#4472c4"
       stroke-width="2"
       stroke-miterlimit="8"
       fill="none"
       id="rect13" />
    <text
       font-family="Calibri, Calibri_MSFontService, sans-serif"
       font-weight="400"
       font-size="13px"
       transform="translate(357.703,363)"
       id="text13">Enter worker</text>
    <text
       font-family="Calibri, Calibri_MSFontService, sans-serif"
       font-weight="400"
       font-size="13px"
       transform="translate(375.289,379)"
       id="text14">details</text>
    <rect
       x="326"
       y="411"
       width="134"
       height="61"
       fill="#ffffff"
       id="rect14" />
    <path
       d="m 342.75,411 v 61 m 100.5,-61 v 61"
       stroke="#4472c4"
       stroke-width="2"
       stroke-miterlimit="8"
       fill="none"
       fill-rule="evenodd"
       id="path14" />
    <rect
       x="326"
       y="411"
       width="134"
       height="61"
       stroke="#4472c4"
       stroke-width="2"
       stroke-miterlimit="8"
       fill="none"
       id="rect15" />
    <text
       font-family="Calibri, Calibri_MSFontService, sans-serif"
       font-weight="400"
       font-size="13px"
       transform="translate(371.119,430)"
       id="text15">Manage</text>
    <text
       font-family="Calibri, Calibri_MSFontService, sans-serif"
       font-weight="400"
       font-size="13px"
       transform="translate(354.619,446)"
       id="text16">compensation</text>
    <text
       font-family="Calibri, Calibri_MSFontService, sans-serif"
       font-weight="400"
       font-size="13px"
       transform="translate(359.453,462)"
       id="text17">and benefits</text>
    <rect
       x="325"
       y="488"
       width="135"
       height="66"
       fill="#ffffff"
       id="rect17" />
    <path
       d="m 341.875,488 v 66 m 101.25,-66 v 66"
       stroke="#4472c4"
       stroke-width="2"
       stroke-miterlimit="8"
       fill="none"
       fill-rule="evenodd"
       id="path17" />
    <rect
       x="325"
       y="488"
       width="135"
       height="66"
       stroke="#4472c4"
       stroke-width="2"
       stroke-miterlimit="8"
       fill="none"
       id="rect18" />
    <text
       font-family="Calibri, Calibri_MSFontService, sans-serif"
       font-weight="400"
       font-size="13px"
       transform="translate(370.877,501)"
       id="text18">Manage</text>
    <text
       font-family="Calibri, Calibri_MSFontService, sans-serif"
       font-weight="400"
       font-size="13px"
       transform="translate(366.044,517)"
       id="text19">employee</text>
    <text
       font-family="Calibri, Calibri_MSFontService, sans-serif"
       font-weight="400"
       font-size="13px"
       transform="translate(357.71,533)"
       id="text20">performance</text>
    <text
       font-family="Calibri, Calibri_MSFontService, sans-serif"
       font-weight="400"
       font-size="13px"
       transform="translate(361.71,549)"
       id="text21">and growth</text>
    <rect
       x="326"
       y="567"
       width="134"
       height="64"
       fill="#ffffff"
       id="rect21" />
    <path
       d="m 342.75,567 v 64 m 100.5,-64 v 64"
       stroke="#4472c4"
       stroke-width="2"
       stroke-miterlimit="8"
       fill="none"
       fill-rule="evenodd"
       id="path21" />
    <rect
       x="326"
       y="567"
       width="134"
       height="64"
       stroke="#4472c4"
       stroke-width="2"
       stroke-miterlimit="8"
       fill="none"
       id="rect22" />
    <text
       font-family="Calibri, Calibri_MSFontService, sans-serif"
       font-weight="400"
       font-size="13px"
       transform="translate(377.536,587)"
       id="text22">Enroll</text>
    <text
       font-family="Calibri, Calibri_MSFontService, sans-serif"
       font-weight="400"
       font-size="13px"
       transform="translate(378.783,603)"
       id="text23">leave</text>
    <text
       font-family="Calibri, Calibri_MSFontService, sans-serif"
       font-weight="400"
       font-size="13px"
       transform="translate(380.369,619)"
       id="text24">plans</text>
    <rect
       x="505"
       y="259"
       width="138"
       height="64"
       fill="#ffffff"
       id="rect24" />
    <path
       d="m 522.25,259 v 64 m 103.5,-64 v 64"
       stroke="#4472c4"
       stroke-width="2"
       stroke-miterlimit="8"
       fill="none"
       fill-rule="evenodd"
       id="path24" />
    <rect
       x="505"
       y="259"
       width="138"
       height="64"
       stroke="#4472c4"
       stroke-width="2"
       stroke-miterlimit="8"
       fill="none"
       id="rect25" />
    <text
       font-family="Calibri, Calibri_MSFontService, sans-serif"
       font-weight="400"
       font-size="13px"
       transform="translate(530.851,279)"
       id="text25">Manage worker</text>
    <text
       font-family="Calibri, Calibri_MSFontService, sans-serif"
       font-weight="400"
       font-size="13px"
       transform="translate(551.771,295)"
       id="text26">position</text>
    <text
       font-family="Calibri, Calibri_MSFontService, sans-serif"
       font-weight="400"
       font-size="13px"
       transform="translate(542.684,311)"
       id="text27">assignment</text>
    <rect
       x="505"
       y="338"
       width="139"
       height="59"
       fill="#ffffff"
       id="rect27" />
    <path
       d="m 522.375,338 v 59 m 104.25,-59 v 59"
       stroke="#4472c4"
       stroke-width="2"
       stroke-miterlimit="8"
       fill="none"
       fill-rule="evenodd"
       id="path27" />
    <rect
       x="505"
       y="338"
       width="139"
       height="59"
       stroke="#4472c4"
       stroke-width="2"
       stroke-miterlimit="8"
       fill="none"
       id="rect28" />
    <text
       font-family="Calibri, Calibri_MSFontService, sans-serif"
       font-weight="400"
       font-size="13px"
       transform="translate(550.078,363)"
       id="text28">Maintain</text>
    <text
       font-family="Calibri, Calibri_MSFontService, sans-serif"
       font-weight="400"
       font-size="13px"
       transform="translate(535.745,379)"
       id="text29">worker details</text>
    <rect
       x="505"
       y="174"
       width="138"
       height="70"
       fill="#ffffff"
       id="rect29" />
    <path
       d="m 522.25,174 v 70 m 103.5,-70 v 70"
       stroke="#4472c4"
       stroke-width="2"
       stroke-miterlimit="8"
       fill="none"
       fill-rule="evenodd"
       id="path29" />
    <rect
       x="505"
       y="174"
       width="138"
       height="70"
       stroke="#4472c4"
       stroke-width="2"
       stroke-miterlimit="8"
       fill="none"
       id="rect30" />
    <text
       font-family="Calibri, Calibri_MSFontService, sans-serif"
       font-weight="400"
       font-size="13px"
       transform="translate(557.161,189)"
       id="text30">Assign</text>
    <text
       font-family="Calibri, Calibri_MSFontService, sans-serif"
       font-weight="400"
       font-size="13px"
       transform="translate(543.161,205)"
       id="text31">onboarding</text>
    <text
       font-family="Calibri, Calibri_MSFontService, sans-serif"
       font-weight="400"
       font-size="13px"
       transform="translate(543.741,221)"
       id="text32">checklist to</text>
    <text
       font-family="Calibri, Calibri_MSFontService, sans-serif"
       font-weight="400"
       font-size="13px"
       transform="translate(555.075,237)"
       id="text33">worker</text>
    <rect
       x="506"
       y="410"
       width="137"
       height="62"
       fill="#ffffff"
       id="rect33" />
    <path
       d="m 523.125,410 v 62 m 102.75,-62 v 62"
       stroke="#4472c4"
       stroke-width="2"
       stroke-miterlimit="8"
       fill="none"
       fill-rule="evenodd"
       id="path33" />
    <rect
       x="506"
       y="410"
       width="137"
       height="62"
       stroke="#4472c4"
       stroke-width="2"
       stroke-miterlimit="8"
       fill="none"
       id="rect34" />
    <text
       font-family="Calibri, Calibri_MSFontService, sans-serif"
       font-weight="400"
       font-size="13px"
       transform="translate(550.075,429)"
       id="text34">Maintain</text>
    <text
       font-family="Calibri, Calibri_MSFontService, sans-serif"
       font-weight="400"
       font-size="13px"
       transform="translate(535.828,445)"
       id="text35">compensation</text>
    <text
       font-family="Calibri, Calibri_MSFontService, sans-serif"
       font-weight="400"
       font-size="13px"
       transform="translate(540.661,461)"
       id="text36">and benefits</text>
    <rect
       x="506"
       y="488"
       width="137"
       height="68"
       fill="#ffffff"
       id="rect36" />
    <path
       d="m 523.125,488 v 68 m 102.75,-68 v 68"
       stroke="#4472c4"
       stroke-width="2"
       stroke-miterlimit="8"
       fill="none"
       fill-rule="evenodd"
       id="path36" />
    <rect
       x="506"
       y="488"
       width="137"
       height="68"
       stroke="#4472c4"
       stroke-width="2"
       stroke-miterlimit="8"
       fill="none"
       id="rect37" />
    <text
       font-family="Calibri, Calibri_MSFontService, sans-serif"
       font-weight="400"
       font-size="13px"
       transform="translate(550.075,502)"
       id="text37">Maintain</text>
    <text
       font-family="Calibri, Calibri_MSFontService, sans-serif"
       font-weight="400"
       font-size="13px"
       transform="translate(547.495,518)"
       id="text38">employee</text>
    <text
       font-family="Calibri, Calibri_MSFontService, sans-serif"
       font-weight="400"
       font-size="13px"
       transform="translate(539.161,534)"
       id="text39">performance</text>
    <text
       font-family="Calibri, Calibri_MSFontService, sans-serif"
       font-weight="400"
       font-size="13px"
       transform="translate(543.161,550)"
       id="text40">and growth</text>
    <rect
       x="504"
       y="567"
       width="140"
       height="64"
       fill="#ffffff"
       id="rect40" />
    <path
       d="m 521.5,567 v 64 m 105,-64 v 64"
       stroke="#4472c4"
       stroke-width="2"
       stroke-miterlimit="8"
       fill="none"
       fill-rule="evenodd"
       id="path40" />
    <rect
       x="504"
       y="567"
       width="140"
       height="64"
       stroke="#4472c4"
       stroke-width="2"
       stroke-miterlimit="8"
       fill="none"
       id="rect41" />
    <text
       font-family="Calibri, Calibri_MSFontService, sans-serif"
       font-weight="400"
       font-size="13px"
       transform="translate(536.491,587)"
       id="text41">Manage leave</text>
    <text
       font-family="Calibri, Calibri_MSFontService, sans-serif"
       font-weight="400"
       font-size="13px"
       transform="translate(532.578,603)"
       id="text42">enrollment and</text>
    <text
       font-family="Calibri, Calibri_MSFontService, sans-serif"
       font-weight="400"
       font-size="13px"
       transform="translate(550.745,619)"
       id="text43">balances</text>
    <path
       d="m 125,108.5 c 0,-7.456 6.044,-13.5 13.5,-13.5 h 95 c 7.456,0 13.5,6.044 13.5,13.5 v 0 c 0,7.456 -6.044,13.5 -13.5,13.5 h -95 c -7.456,0 -13.5,-6.044 -13.5,-13.5 z"
       stroke="#4472c4"
       stroke-width="2"
       stroke-miterlimit="8"
       fill="#ffffff"
       fill-rule="evenodd"
       id="path43" />
    <text
       font-family="Calibri, Calibri_MSFontService, sans-serif"
       font-weight="400"
       font-size="13px"
       transform="translate(172.703,112)"
       id="text44">Start</text>
    <rect
       x="133"
       y="173"
       width="105"
       height="56"
       stroke="#000000"
       stroke-width="2"
       stroke-miterlimit="8"
       fill="url(#fill0)"
       id="rect44"
       style="fill:url(#fill0)" />
    <text
       font-family="Calibri, Calibri_MSFontService, sans-serif"
       font-weight="400"
       font-size="13px"
       transform="translate(150.62,205)"
       id="text45">Hire to retire</text>
    <rect
       x="133"
       y="252"
       width="105"
       height="56"
       stroke="#2f528f"
       stroke-width="2"
       stroke-miterlimit="8"
       fill="#4472c4"
       id="rect45" />
    <text
       fill="#ffffff"
       font-family="Calibri, Calibri_MSFontService, sans-serif"
       font-weight="400"
       font-size="13px"
       transform="translate(142.953,276)"
       id="text46">Plan and recruit</text>
    <text
       fill="#ffffff"
       font-family="Calibri, Calibri_MSFontService, sans-serif"
       font-weight="400"
       font-size="13px"
       transform="translate(144.373,292)"
       id="text47">your workforce</text>
    <path
       d="m 186.833,122.5 v 45.109 h -0.666 V 122.5 Z m 3.667,43.775 -4,8 -4,-8 z"
       fill="#4472c4"
       id="path47" />
    <path
       d="m 186.833,229.5 v 16.647 h -0.666 V 229.5 Z m 3.667,15.313 -4,8 -4,-8 z"
       fill="#4472c4"
       id="path48" />
    <path
       d="M 0,-0.333333 H 81.0415 V 177.516 l -0.3334,-0.334 h 74.0409 v 0.667 H 80.3748 V 0 l 0.3333,0.333333 H 0 Z M 153.416,173.516 l 8,4 -8,4 z"
       fill="#4472c4"
       transform="matrix(1,0,0,-1,238.5,280.016)"
       id="path49" />
    <path
       d="m 464.873,136.5 v 18.937 H 393.5 l 0.333,-0.333 v 11.937 h -0.666 v -12.27 h 71.373 l -0.334,0.333 V 136.5 Z m -67.373,29.208 -4,8 -4,-8 z"
       fill="#4472c4"
       id="path50" />
    <path
       d="M 0.333333,-2.39924e-6 0.33339,7.91947 -0.333276,7.91948 -0.333333,2.39924e-6 Z M 4.00005,6.58611 1.04987e-4,14.5861 -3.99995,6.58617 Z"
       fill="#4472c4"
       transform="matrix(-1,0,0,1,393.5,245.5)"
       id="path51" />
    <path
       d="m 393.833,322.5 v 8.404 h -0.666 V 322.5 Z m 3.667,7.071 -4,8 -4,-8 z"
       fill="#4472c4"
       id="path52" />
    <path
       d="M 0.333333,-2.39924e-6 0.33339,7.91947 -0.333276,7.91948 -0.333333,2.39924e-6 Z M 4.00005,6.58611 1.04987e-4,14.5861 -3.99995,6.58617 Z"
       fill="#4472c4"
       transform="matrix(-1,0,0,1,393.5,396.5)"
       id="path53" />
    <path
       d="M 0.33329,-0.00535861 0.468428,8.39981 -0.198153,8.41052 -0.33329,0.00535861 Z M 4.11319,7.0077 0.24231,15.071 -3.88578,7.13631 Z"
       fill="#4472c4"
       transform="matrix(-1,0,0,1,393.742,472.5)"
       id="path54" />
    <path
       d="M 0.327493,-0.0621257 1.02419,3.61049 0.369206,3.73474 -0.327493,0.0621257 Z M 4.37811,1.61713 1.93921,10.2225 -3.48172,3.10815 Z"
       fill="#4472c4"
       transform="matrix(-1,0,0,1,394.439,557.5)"
       id="path55" />
    <path
       d="M 0.00198384,-0.333327 39.4994,-0.0982535 39.4955,0.568401 -0.00198384,0.333327 Z M 38.1879,-3.77279 46.164,0.274751 38.1403,4.22707 Z"
       fill="#4472c4"
       transform="matrix(1,0,0,-1,459.5,209.775)"
       id="path56" />
    <path
       d="m 460.508,295.167 36.59,0.82 -0.015,0.667 -36.59,-0.821 z m 35.339,-2.876 7.908,4.179 -8.087,3.819 z"
       fill="#4472c4"
       id="path57" />
    <path
       d="m 459.506,367.167 39.255,0.646 -0.011,0.667 -39.255,-0.647 z m 37.983,-3.042 7.933,4.131 -8.065,3.868 z"
       fill="#4472c4"
       id="path58" />
    <path
       d="m 458.504,436.167 39.982,0.415 -0.007,0.667 -39.982,-0.416 z m 38.687,-3.265 7.958,4.083 -8.041,3.917 z"
       fill="#4472c4"
       id="path59" />
    <path
       d="m 460.508,521.167 38.772,0.904 -0.016,0.667 -38.772,-0.905 z m 37.524,-2.792 7.905,4.185 -8.091,3.812 z"
       fill="#4472c4"
       id="path60" />
    <path
       d="m 460.5,599.167 h 37.316 v 0.666 H 460.5 Z m 35.982,-3.667 8,4 -8,4 z"
       fill="#4472c4"
       id="path61" />
    <path
       d="M 0,-0.333333 H 33.5682 V 139.826 l -0.3333,-0.334 H 59.803 v 0.667 H 32.9015 V 0 l 0.3334,0.333333 H 0 Z M 58.4696,135.826 l 8,4 -8,4 z"
       fill="#4472c4"
       transform="matrix(1,0,0,-1,643.5,441.326)"
       id="path62" />
    <path
       d="M 0,-0.333333 H 33.5681 V 134.736 l -0.3333,-0.334 h 26.5681 v 0.667 H 32.9015 V 0 l 0.3333,0.333333 H 0 Z M 58.4696,130.736 l 8,4 -8,4 z"
       fill="#4472c4"
       transform="matrix(1,0,0,-1,643.5,522.236)"
       id="path63" />
    <rect
       x="709"
       y="267"
       width="120"
       height="68"
       stroke="#2f528f"
       stroke-width="2"
       stroke-miterlimit="8"
       fill="#4472c4"
       id="rect63" />
    <text
       fill="#ffffff"
       font-family="Calibri, Calibri_MSFontService, sans-serif"
       font-weight="400"
       font-size="13px"
       transform="translate(747.299,289)"
       id="text63">Manage</text>
    <text
       fill="#ffffff"
       font-family="Calibri, Calibri_MSFontService, sans-serif"
       font-weight="400"
       font-size="13px"
       transform="translate(719.132,305)"
       id="text64">compensation and</text>
    <text
       fill="#ffffff"
       font-family="Calibri, Calibri_MSFontService, sans-serif"
       font-weight="400"
       font-size="13px"
       transform="translate(747.299,321)"
       id="text65">benefits</text>
    <rect
       x="709"
       y="352"
       width="118"
       height="70"
       stroke="#2f528f"
       stroke-width="2"
       stroke-miterlimit="8"
       fill="#4472c4"
       id="rect65" />
    <text
       fill="#ffffff"
       font-family="Calibri, Calibri_MSFontService, sans-serif"
       font-weight="400"
       font-size="13px"
       transform="translate(717.753,375)"
       id="text66">Manage employee</text>
    <text
       fill="#ffffff"
       font-family="Calibri, Calibri_MSFontService, sans-serif"
       font-weight="400"
       font-size="13px"
       transform="translate(721.253,391)"
       id="text67">performance and</text>
    <text
       fill="#ffffff"
       font-family="Calibri, Calibri_MSFontService, sans-serif"
       font-weight="400"
       font-size="13px"
       transform="translate(748.587,407)"
       id="text68">growth</text>
    <rect
       x="709"
       y="439"
       width="116"
       height="61"
       stroke="#2f528f"
       stroke-width="2"
       stroke-miterlimit="8"
       fill="#4472c4"
       id="rect68" />
    <text
       fill="#ffffff"
       font-family="Calibri, Calibri_MSFontService, sans-serif"
       font-weight="400"
       font-size="13px"
       transform="translate(745.359,458)"
       id="text69">Manage</text>
    <text
       fill="#ffffff"
       font-family="Calibri, Calibri_MSFontService, sans-serif"
       font-weight="400"
       font-size="13px"
       transform="translate(726.606,474)"
       id="text70">employee time</text>
    <text
       fill="#ffffff"
       font-family="Calibri, Calibri_MSFontService, sans-serif"
       font-weight="400"
       font-size="13px"
       transform="translate(724.859,490)"
       id="text71">and attendance</text>
    <rect
       x="709"
       y="525"
       width="116"
       height="61"
       stroke="#2f528f"
       stroke-width="2"
       stroke-miterlimit="8"
       fill="#4472c4"
       id="rect71" />
    <text
       fill="#ffffff"
       font-family="Calibri, Calibri_MSFontService, sans-serif"
       font-weight="400"
       font-size="13px"
       transform="translate(728.276,551)"
       id="text72">Manage travel</text>
    <text
       fill="#ffffff"
       font-family="Calibri, Calibri_MSFontService, sans-serif"
       font-weight="400"
       font-size="13px"
       transform="translate(729.109,567)"
       id="text73">and expenses</text>
    <path
       d="m 700,641.5 c 0,-6.351 5.149,-11.5 11.5,-11.5 h 112 c 6.351,0 11.5,5.149 11.5,11.5 v 0 c 0,6.351 -5.149,11.5 -11.5,11.5 h -112 c -6.351,0 -11.5,-5.149 -11.5,-11.5 z"
       stroke="#4472c4"
       stroke-width="2"
       stroke-miterlimit="8"
       fill="#ffffff"
       fill-rule="evenodd"
       id="path73" />
    <text
       font-family="Calibri, Calibri_MSFontService, sans-serif"
       font-weight="400"
       font-size="13px"
       transform="translate(757.11,645)"
       id="text74">End</text>
    <path
       d="M 0.332508,-0.0234388 1.07591,10.5226 0.410893,10.5695 -0.332508,0.0234388 Z M 4.63975,8.93476 1.21218,17.1962 -3.34045,9.49729 Z"
       fill="#4472c4"
       transform="matrix(-1,0,0,1,769.712,335.5)"
       id="path74" />
    <path
       d="M 0.333036,-0.0140846 0.778589,10.5212 0.112517,10.5494 -0.333036,0.0140846 Z M 4.38564,9.03414 0.727244,17.196 -3.60721,9.37217 Z"
       fill="#4472c4"
       transform="matrix(-1,0,0,1,768.227,422.5)"
       id="path75" />
    <path
       d="m 767.833,500.5 v 18.772 h -0.666 V 500.5 Z m 3.667,17.438 -4,8 -4,-8 z"
       fill="#4472c4"
       id="path76" />
    <path
       d="m 767.833,586.5 10e-4,37.16 h -0.667 V 586.5 Z m 3.667,35.827 -4,8 -4,-8 z"
       fill="#4472c4"
       id="path77" />
  </g>
</svg>
