<?xml version="1.0" encoding="UTF-8" standalone="no"?>
<svg
   width="659.77136"
   height="244.9646"
   overflow="hidden"
   version="1.1"
   id="svg39"
   sodipodi:docname="hire-to-retire-update-employee-records-flow.svg"
   inkscape:version="1.3.2 (091e20e, 2023-11-25, custom)"
   xmlns:inkscape="http://www.inkscape.org/namespaces/inkscape"
   xmlns:sodipodi="http://sodipodi.sourceforge.net/DTD/sodipodi-0.dtd"
   xmlns="http://www.w3.org/2000/svg"
   xmlns:svg="http://www.w3.org/2000/svg">
  <defs
     id="defs39" />
  <sodipodi:namedview
     id="namedview39"
     pagecolor="#ffffff"
     bordercolor="#000000"
     borderopacity="0.25"
     inkscape:showpageshadow="2"
     inkscape:pageopacity="0.0"
     inkscape:pagecheckerboard="0"
     inkscape:deskcolor="#d1d1d1"
     inkscape:zoom="2.5513889"
     inkscape:cx="334.71965"
     inkscape:cy="122.87425"
     inkscape:window-width="3840"
     inkscape:window-height="2054"
     inkscape:window-x="2869"
     inkscape:window-y="-11"
     inkscape:window-maximized="1"
     inkscape:current-layer="svg39" />
  <g
     id="g39"
     transform="translate(-145.411,-237.12575)">
    <rect
       x="145.411"
       y="237.12575"
       width="659.77136"
       height="244.9646"
       fill="#ffffff"
       id="rect1"
       style="stroke-width:0.483555" />
    <path
       d="m 151.5,315.7 c 0,-6.186 5.014,-11.2 11.2,-11.2 h 111.6 c 6.186,0 11.2,5.014 11.2,11.2 v 89.6 c 0,6.186 -5.014,11.2 -11.2,11.2 H 162.7 c -6.186,0 -11.2,-5.014 -11.2,-11.2 z"
       stroke="#4472c4"
       stroke-width="1.33333"
       stroke-miterlimit="8"
       fill="#ffffff"
       fill-rule="evenodd"
       fill-opacity="0.901961"
       id="path1" />
    <text
       font-family="Calibri, Calibri_MSFontService, sans-serif"
       font-weight="400"
       font-size="11px"
       transform="translate(154.802,318)"
       id="text1">•</text>
    <text
       font-family="Calibri, Calibri_MSFontService, sans-serif"
       font-weight="400"
       font-size="11px"
       transform="translate(160.802,318)"
       id="text2">Complete and capture</text>
    <text
       font-family="Calibri, Calibri_MSFontService, sans-serif"
       font-weight="400"
       font-size="11px"
       transform="translate(160.802,330)"
       id="text3">address information</text>
    <text
       font-family="Calibri, Calibri_MSFontService, sans-serif"
       font-weight="400"
       font-size="11px"
       transform="translate(154.802,343)"
       id="text4">•</text>
    <text
       font-family="Calibri, Calibri_MSFontService, sans-serif"
       font-weight="400"
       font-size="11px"
       transform="translate(160.802,343)"
       id="text5">Complete and capture</text>
    <text
       font-family="Calibri, Calibri_MSFontService, sans-serif"
       font-weight="400"
       font-size="11px"
       transform="translate(160.802,355)"
       id="text6">contact information</text>
    <text
       font-family="Calibri, Calibri_MSFontService, sans-serif"
       font-weight="400"
       font-size="11px"
       transform="translate(154.802,369)"
       id="text7">•</text>
    <text
       font-family="Calibri, Calibri_MSFontService, sans-serif"
       font-weight="400"
       font-size="11px"
       transform="translate(160.802,369)"
       id="text8">Add and maintain</text>
    <text
       font-family="Calibri, Calibri_MSFontService, sans-serif"
       font-weight="400"
       font-size="11px"
       transform="translate(160.802,380)"
       id="text9">identification numbers</text>
    <path
       d="m 238.966,440.377 3.604,-2.047 c 17.993,31.202 58.067,42.021 89.508,24.166 8.102,-4.601 15.121,-10.865 20.588,-18.373 l -2.392,-1.358 7.958,-3.412 0.451,8.188 -2.392,-1.359 c -22.352,31.14 -65.898,38.394 -97.263,16.202 -8.211,-5.81 -15.056,-13.318 -20.062,-22.007 z"
       fill="#b0bcde"
       fill-rule="evenodd"
       id="path9" />
    <path
       d="m 181.5,397.2 c 0,-2.596 2.104,-4.7 4.7,-4.7 h 109.6 c 2.596,0 4.7,2.104 4.7,4.7 v 37.6 c 0,2.596 -2.104,4.7 -4.7,4.7 H 186.2 c -2.596,0 -4.7,-2.104 -4.7,-4.7 z"
       stroke="#ffffff"
       stroke-width="1.33333"
       stroke-miterlimit="8"
       fill="#4472c4"
       fill-rule="evenodd"
       id="path10" />
    <text
       fill="#ffffff"
       font-family="Calibri, Calibri_MSFontService, sans-serif"
       font-weight="400"
       font-size="13px"
       transform="translate(192.152,412)"
       id="text10">Update employee</text>
    <text
       fill="#ffffff"
       font-family="Calibri, Calibri_MSFontService, sans-serif"
       font-weight="400"
       font-size="13px"
       transform="translate(220.119,427)"
       id="text11">records</text>
    <path
       d="m 320.5,315.7 c 0,-6.186 5.014,-11.2 11.2,-11.2 h 112.6 c 6.186,0 11.2,5.014 11.2,11.2 v 89.6 c 0,6.186 -5.014,11.2 -11.2,11.2 H 331.7 c -6.186,0 -11.2,-5.014 -11.2,-11.2 z"
       stroke="#4472c4"
       stroke-width="1.33333"
       stroke-miterlimit="8"
       fill="#ffffff"
       fill-rule="evenodd"
       fill-opacity="0.901961"
       id="path11" />
    <text
       font-family="Calibri, Calibri_MSFontService, sans-serif"
       font-weight="400"
       font-size="11px"
       transform="translate(324.437,341)"
       id="text12">•</text>
    <text
       font-family="Calibri, Calibri_MSFontService, sans-serif"
       font-weight="400"
       font-size="11px"
       transform="translate(330.437,341)"
       id="text13">Update employment</text>
    <text
       font-family="Calibri, Calibri_MSFontService, sans-serif"
       font-weight="400"
       font-size="11px"
       transform="translate(330.437,353)"
       id="text14">effective dates</text>
    <text
       font-family="Calibri, Calibri_MSFontService, sans-serif"
       font-weight="400"
       font-size="11px"
       transform="translate(324.437,366)"
       id="text15">•</text>
    <text
       font-family="Calibri, Calibri_MSFontService, sans-serif"
       font-weight="400"
       font-size="11px"
       transform="translate(330.437,366)"
       id="text16">Update probation period</text>
    <text
       font-family="Calibri, Calibri_MSFontService, sans-serif"
       font-weight="400"
       font-size="11px"
       transform="translate(324.437,380)"
       id="text17">•</text>
    <text
       font-family="Calibri, Calibri_MSFontService, sans-serif"
       font-weight="400"
       font-size="11px"
       transform="translate(330.437,380)"
       id="text18">Add and maintain financial</text>
    <text
       font-family="Calibri, Calibri_MSFontService, sans-serif"
       font-weight="400"
       font-size="11px"
       transform="translate(330.437,392)"
       id="text19">dimensions (optional)</text>
    <path
       d="m 408.98,279.372 c 21.333,-37.567 69.081,-50.726 106.648,-29.392 10.234,5.811 19.024,13.857 25.717,23.538 l 2.407,-1.367 -0.543,8.25 -7.909,-3.45 2.407,-1.367 c -23.426,-33.527 -69.595,-41.716 -103.123,-18.291 -9.031,6.31 -16.541,14.556 -21.981,24.136 z"
       fill="#b0bcde"
       fill-rule="evenodd"
       id="path19" />
    <path
       d="m 350.5,286.2 c 0,-2.596 2.104,-4.7 4.7,-4.7 h 110.6 c 2.596,0 4.7,2.104 4.7,4.7 v 37.6 c 0,2.596 -2.104,4.7 -4.7,4.7 H 355.2 c -2.596,0 -4.7,-2.104 -4.7,-4.7 z"
       stroke="#ffffff"
       stroke-width="1.33333"
       stroke-miterlimit="8"
       fill="#4472c4"
       fill-rule="evenodd"
       id="path20" />
    <text
       fill="#ffffff"
       font-family="Calibri, Calibri_MSFontService, sans-serif"
       font-weight="400"
       font-size="13px"
       transform="translate(354.04,301)"
       id="text20">Update employment</text>
    <text
       fill="#ffffff"
       font-family="Calibri, Calibri_MSFontService, sans-serif"
       font-weight="400"
       font-size="13px"
       transform="translate(389.753,316)"
       id="text21">records</text>
    <path
       d="m 490.5,315.7 c 0,-6.186 5.014,-11.2 11.2,-11.2 h 112.6 c 6.186,0 11.2,5.014 11.2,11.2 v 89.6 c 0,6.186 -5.014,11.2 -11.2,11.2 H 501.7 c -6.186,0 -11.2,-5.014 -11.2,-11.2 z"
       stroke="#4472c4"
       stroke-width="1.33333"
       stroke-miterlimit="8"
       fill="#ffffff"
       fill-rule="evenodd"
       fill-opacity="0.901961"
       id="path21" />
    <text
       font-family="Calibri, Calibri_MSFontService, sans-serif"
       font-weight="400"
       font-size="11px"
       transform="translate(494.072,318)"
       id="text22">•</text>
    <text
       font-family="Calibri, Calibri_MSFontService, sans-serif"
       font-weight="400"
       font-size="11px"
       transform="translate(500.072,318)"
       id="text23">Update worker position</text>
    <text
       font-family="Calibri, Calibri_MSFontService, sans-serif"
       font-weight="400"
       font-size="11px"
       transform="translate(500.072,330)"
       id="text24">assignment</text>
    <text
       font-family="Calibri, Calibri_MSFontService, sans-serif"
       font-weight="400"
       font-size="11px"
       transform="translate(494.072,343)"
       id="text25">•</text>
    <text
       font-family="Calibri, Calibri_MSFontService, sans-serif"
       font-weight="400"
       font-size="11px"
       transform="translate(500.072,343)"
       id="text26">Add new worker position</text>
    <text
       font-family="Calibri, Calibri_MSFontService, sans-serif"
       font-weight="400"
       font-size="11px"
       transform="translate(500.072,355)"
       id="text27">assignment and define</text>
    <text
       font-family="Calibri, Calibri_MSFontService, sans-serif"
       font-weight="400"
       font-size="11px"
       transform="translate(500.072,367)"
       id="text28">primary position</text>
    <path
       d="m 577.966,440.377 3.604,-2.047 c 17.993,31.202 58.067,42.021 89.508,24.166 8.102,-4.601 15.121,-10.865 20.588,-18.373 l -2.392,-1.358 7.958,-3.412 0.451,8.188 -2.392,-1.359 c -22.352,31.14 -65.898,38.394 -97.263,16.202 -8.211,-5.81 -15.056,-13.318 -20.062,-22.007 z"
       fill="#b0bcde"
       fill-rule="evenodd"
       id="path28" />
    <path
       d="m 520.5,397.2 c 0,-2.596 2.104,-4.7 4.7,-4.7 h 110.6 c 2.596,0 4.7,2.104 4.7,4.7 v 37.6 c 0,2.596 -2.104,4.7 -4.7,4.7 H 525.2 c -2.596,0 -4.7,-2.104 -4.7,-4.7 z"
       stroke="#ffffff"
       stroke-width="1.33333"
       stroke-miterlimit="8"
       fill="#4472c4"
       fill-rule="evenodd"
       id="path29" />
    <text
       fill="#ffffff"
       font-family="Calibri, Calibri_MSFontService, sans-serif"
       font-weight="400"
       font-size="13px"
       transform="translate(538.988,412)"
       id="text29">Update worker</text>
    <text
       fill="#ffffff"
       font-family="Calibri, Calibri_MSFontService, sans-serif"
       font-weight="400"
       font-size="13px"
       transform="translate(525.395,427)"
       id="text30">position assignment</text>
    <path
       d="m 660.5,315.7 c 0,-6.186 5.014,-11.2 11.2,-11.2 h 111.6 c 6.186,0 11.2,5.014 11.2,11.2 v 89.6 c 0,6.186 -5.014,11.2 -11.2,11.2 H 671.7 c -6.186,0 -11.2,-5.014 -11.2,-11.2 z"
       stroke="#4472c4"
       stroke-width="1.33333"
       stroke-miterlimit="8"
       fill="#ffffff"
       fill-rule="evenodd"
       fill-opacity="0.901961"
       id="path30" />
    <text
       font-family="Calibri, Calibri_MSFontService, sans-serif"
       font-weight="400"
       font-size="9px"
       transform="translate(663.707,340)"
       id="text31">•</text>
    <text
       font-family="Calibri, Calibri_MSFontService, sans-serif"
       font-weight="400"
       font-size="9px"
       transform="translate(669.707,340)"
       id="text32">Update personal information</text>
    <text
       font-family="Calibri, Calibri_MSFontService, sans-serif"
       font-weight="400"
       font-size="9px"
       transform="translate(663.707,352)"
       id="text33">•</text>
    <text
       font-family="Calibri, Calibri_MSFontService, sans-serif"
       font-weight="400"
       font-size="9px"
       transform="translate(669.707,352)"
       id="text34">Add and maintain family</text>
    <text
       font-family="Calibri, Calibri_MSFontService, sans-serif"
       font-weight="400"
       font-size="9px"
       transform="translate(669.707,362)"
       id="text35">information</text>
    <text
       font-family="Calibri, Calibri_MSFontService, sans-serif"
       font-weight="400"
       font-size="9px"
       transform="translate(663.707,374)"
       id="text36">•</text>
    <text
       font-family="Calibri, Calibri_MSFontService, sans-serif"
       font-weight="400"
       font-size="9px"
       transform="translate(669.707,374)"
       id="text37">Add and maintain name details</text>
    <path
       d="m 680.5,274.2 c 0,-2.596 2.104,-4.7 4.7,-4.7 h 110.6 c 2.596,0 4.7,2.104 4.7,4.7 v 37.6 c 0,2.596 -2.104,4.7 -4.7,4.7 H 685.2 c -2.596,0 -4.7,-2.104 -4.7,-4.7 z"
       stroke="#ffffff"
       stroke-width="1.33333"
       stroke-miterlimit="8"
       fill="#4472c4"
       fill-rule="evenodd"
       id="path37" />
    <text
       fill="#ffffff"
       font-family="Calibri, Calibri_MSFontService, sans-serif"
       font-weight="400"
       font-size="13px"
       transform="translate(695.246,289)"
       id="text38">Update personal</text>
    <text
       fill="#ffffff"
       font-family="Calibri, Calibri_MSFontService, sans-serif"
       font-weight="400"
       font-size="13px"
       transform="translate(728.146,304)"
       id="text39">data</text>
  </g>
</svg>
