<?xml version="1.0" encoding="UTF-8" standalone="no"?>
<svg
   width="1792.6176"
   height="1642.0748"
   overflow="hidden"
   version="1.1"
   id="svg430"
   sodipodi:docname="hire-to-retire-flow.svg"
   inkscape:version="1.2.2 (732a01da63, 2022-12-09)"
   xmlns:inkscape="http://www.inkscape.org/namespaces/inkscape"
   xmlns:sodipodi="http://sodipodi.sourceforge.net/DTD/sodipodi-0.dtd"
   xmlns="http://www.w3.org/2000/svg"
   xmlns:svg="http://www.w3.org/2000/svg">
  <defs
     id="defs434" />
  <sodipodi:namedview
     id="namedview432"
     pagecolor="#ffffff"
     bordercolor="#000000"
     borderopacity="0.25"
     inkscape:showpageshadow="2"
     inkscape:pageopacity="0.0"
     inkscape:pagecheckerboard="0"
     inkscape:deskcolor="#d1d1d1"
     showgrid="false"
     inkscape:zoom="0.43177083"
     inkscape:cx="898.62485"
     inkscape:cy="1476.4777"
     inkscape:window-width="1920"
     inkscape:window-height="1010"
     inkscape:window-x="-6"
     inkscape:window-y="-6"
     inkscape:window-maximized="1"
     inkscape:current-layer="svg430" />
  <g
     id="g428"
     transform="translate(-60.217129,-41.688782)">
    <rect
       x="60.217129"
       y="41.688782"
       width="1792.6176"
       height="1642.0748"
       fill="#ffffff"
       id="rect2"
       style="stroke-width:0.893591" />
    <path
       d="M 118,130.5 C 118,110.342 134.342,94 154.5,94 h 138 c 20.158,0 36.5,16.342 36.5,36.5 v 0 c 0,20.158 -16.342,36.5 -36.5,36.5 h -138 C 134.342,167 118,150.658 118,130.5 Z"
       stroke="#0078d4"
       stroke-width="2"
       stroke-linejoin="round"
       stroke-miterlimit="10"
       fill="none"
       fill-rule="evenodd"
       id="path4" />
    <text
       font-family="'Segoe UI', 'Segoe UI_MSFontService', sans-serif"
       font-weight="400"
       font-size="20px"
       transform="translate(202.658,137)"
       id="text6">Start</text>
    <rect
       x="97"
       y="257"
       width="253"
       height="154"
       stroke="#a6a6a6"
       stroke-width="2"
       stroke-linejoin="round"
       stroke-miterlimit="10"
       fill="#a0a0a0"
       id="rect8" />
    <text
       font-family="'Segoe UI', 'Segoe UI_MSFontService', sans-serif"
       font-weight="400"
       font-size="20px"
       transform="translate(141.249,341)"
       id="text10">Acquire to dispose</text>
    <rect
       x="834"
       y="261"
       width="252"
       height="151"
       fill="#ffffff"
       id="rect12" />
    <path
       d="m 865.5,261 v 151 m 189,-151 v 151"
       stroke="#0078d4"
       stroke-width="2"
       stroke-linejoin="round"
       stroke-miterlimit="10"
       fill="none"
       fill-rule="evenodd"
       id="path14" />
    <rect
       x="834"
       y="261"
       width="252"
       height="151"
       stroke="#0078d4"
       stroke-width="2"
       stroke-linejoin="round"
       stroke-miterlimit="10"
       fill="none"
       id="rect16" />
    <text
       font-family="'Segoe UI', 'Segoe UI_MSFontService', sans-serif"
       font-weight="400"
       font-size="20px"
       transform="translate(921.833,319)"
       id="text18">Plan and</text>
    <text
       font-family="'Segoe UI', 'Segoe UI_MSFontService', sans-serif"
       font-weight="400"
       font-size="20px"
       transform="translate(909.267,343)"
       id="text20">recruit your</text>
    <text
       font-family="'Segoe UI', 'Segoe UI_MSFontService', sans-serif"
       font-weight="400"
       font-size="20px"
       transform="translate(916.247,367)"
       id="text22">workforce</text>
    <rect
       x="834"
       y="650"
       width="252"
       height="154"
       fill="#ffffff"
       id="rect24" />
    <path
       d="m 865.5,650 v 154 m 189,-154 v 154"
       stroke="#0078d4"
       stroke-width="2"
       stroke-linejoin="round"
       stroke-miterlimit="10"
       fill="none"
       fill-rule="evenodd"
       id="path26" />
    <rect
       x="834"
       y="650"
       width="252"
       height="154"
       stroke="#0078d4"
       stroke-width="2"
       stroke-linejoin="round"
       stroke-miterlimit="10"
       fill="none"
       id="rect28" />
    <text
       font-family="'Segoe UI', 'Segoe UI_MSFontService', sans-serif"
       font-weight="400"
       font-size="20px"
       transform="translate(924.003,698)"
       id="text30">Manage</text>
    <text
       font-family="'Segoe UI', 'Segoe UI_MSFontService', sans-serif"
       font-weight="400"
       font-size="20px"
       transform="translate(916.717,722)"
       id="text32">employee</text>
    <text
       font-family="'Segoe UI', 'Segoe UI_MSFontService', sans-serif"
       font-weight="400"
       font-size="20px"
       transform="translate(903.497,746)"
       id="text34">performance</text>
    <text
       font-family="'Segoe UI', 'Segoe UI_MSFontService', sans-serif"
       font-weight="400"
       font-size="20px"
       transform="translate(909.137,770)"
       id="text36">and growth</text>
    <rect
       x="854"
       y="54"
       width="212"
       height="154"
       stroke="#0078d4"
       stroke-width="2"
       stroke-linejoin="round"
       stroke-miterlimit="10"
       fill="#0078d4"
       id="rect38" />
    <text
       fill="#ffffff"
       font-family="'Segoe UI', 'Segoe UI_MSFontService', sans-serif"
       font-weight="400"
       font-size="20px"
       transform="translate(904.143,138)"
       id="text40">Hire to retire</text>
    <rect
       x="834"
       y="845"
       width="252"
       height="153"
       fill="#ffffff"
       id="rect42" />
    <path
       d="m 865.5,845 v 153 m 189,-153 v 153"
       stroke="#0078d4"
       stroke-width="2"
       stroke-linejoin="round"
       stroke-miterlimit="10"
       fill="none"
       fill-rule="evenodd"
       id="path44" />
    <rect
       x="834"
       y="845"
       width="252"
       height="153"
       stroke="#0078d4"
       stroke-width="2"
       stroke-linejoin="round"
       stroke-miterlimit="10"
       fill="none"
       id="rect46" />
    <text
       font-family="'Segoe UI', 'Segoe UI_MSFontService', sans-serif"
       font-weight="400"
       font-size="20px"
       transform="translate(924,895)"
       id="text48">Manage</text>
    <text
       font-family="'Segoe UI', 'Segoe UI_MSFontService', sans-serif"
       font-weight="400"
       font-size="20px"
       transform="translate(903.633,917)"
       id="text50">occupational</text>
    <text
       font-family="'Segoe UI', 'Segoe UI_MSFontService', sans-serif"
       font-weight="400"
       font-size="20px"
       transform="translate(913.08,938)"
       id="text52">health and</text>
    <text
       font-family="'Segoe UI', 'Segoe UI_MSFontService', sans-serif"
       font-weight="400"
       font-size="20px"
       transform="translate(931.247,960)"
       id="text54">safety</text>
    <path
       d="m 1429,1641.5 c 0,-20.16 16.34,-36.5 36.5,-36.5 h 138 c 20.16,0 36.5,16.34 36.5,36.5 v 0 c 0,20.16 -16.34,36.5 -36.5,36.5 h -138 c -20.16,0 -36.5,-16.34 -36.5,-36.5 z"
       stroke="#0078d4"
       stroke-width="2"
       stroke-linejoin="round"
       stroke-miterlimit="10"
       fill="none"
       fill-rule="evenodd"
       id="path56" />
    <text
       font-family="'Segoe UI', 'Segoe UI_MSFontService', sans-serif"
       font-weight="400"
       font-size="20px"
       transform="translate(1518.01,1649)"
       id="text58">End</text>
    <rect
       x="834"
       y="1040"
       width="252"
       height="153"
       fill="#ffffff"
       id="rect60" />
    <path
       d="m 865.5,1040 v 153 m 189,-153 v 153"
       stroke="#0078d4"
       stroke-width="2"
       stroke-linejoin="round"
       stroke-miterlimit="10"
       fill="none"
       fill-rule="evenodd"
       id="path62" />
    <rect
       x="834"
       y="1040"
       width="252"
       height="153"
       stroke="#0078d4"
       stroke-width="2"
       stroke-linejoin="round"
       stroke-miterlimit="10"
       fill="none"
       id="rect64" />
    <text
       font-family="'Segoe UI', 'Segoe UI_MSFontService', sans-serif"
       font-weight="400"
       font-size="20px"
       transform="translate(924.003,1079)"
       id="text66">Manage</text>
    <text
       font-family="'Segoe UI', 'Segoe UI_MSFontService', sans-serif"
       font-weight="400"
       font-size="20px"
       transform="translate(916.717,1101)"
       id="text68">employee</text>
    <text
       font-family="'Segoe UI', 'Segoe UI_MSFontService', sans-serif"
       font-weight="400"
       font-size="20px"
       transform="translate(922.503,1122)"
       id="text70">benefits,</text>
    <text
       font-family="'Segoe UI', 'Segoe UI_MSFontService', sans-serif"
       font-weight="400"
       font-size="20px"
       transform="translate(894.75,1144)"
       id="text72">compensation</text>
    <text
       font-family="'Segoe UI', 'Segoe UI_MSFontService', sans-serif"
       font-weight="400"
       font-size="20px"
       transform="translate(910.85,1165)"
       id="text74">and payroll</text>
    <rect
       x="834"
       y="469"
       width="252"
       height="153"
       fill="#ffffff"
       id="rect76" />
    <path
       d="m 865.5,469 v 153 m 189,-153 v 153"
       stroke="#0078d4"
       stroke-width="2"
       stroke-linejoin="round"
       stroke-miterlimit="10"
       fill="none"
       fill-rule="evenodd"
       id="path78" />
    <rect
       x="834"
       y="469"
       width="252"
       height="153"
       stroke="#0078d4"
       stroke-width="2"
       stroke-linejoin="round"
       stroke-miterlimit="10"
       fill="none"
       id="rect80" />
    <text
       font-family="'Segoe UI', 'Segoe UI_MSFontService', sans-serif"
       font-weight="400"
       font-size="20px"
       transform="translate(901.433,520)"
       id="text82">Onboard and</text>
    <text
       font-family="'Segoe UI', 'Segoe UI_MSFontService', sans-serif"
       font-weight="400"
       font-size="20px"
       transform="translate(907.333,542)"
       id="text84">manage the</text>
    <text
       font-family="'Segoe UI', 'Segoe UI_MSFontService', sans-serif"
       font-weight="400"
       font-size="20px"
       transform="translate(916.713,563)"
       id="text86">employee</text>
    <text
       font-family="'Segoe UI', 'Segoe UI_MSFontService', sans-serif"
       font-weight="400"
       font-size="20px"
       transform="translate(925.133,585)"
       id="text88">lifecycle</text>
    <rect
       x="834"
       y="1429"
       width="252"
       height="153"
       fill="#ffffff"
       id="rect90" />
    <path
       d="m 865.5,1429 v 153 m 189,-153 v 153"
       stroke="#0078d4"
       stroke-width="2"
       stroke-linejoin="round"
       stroke-miterlimit="10"
       fill="none"
       fill-rule="evenodd"
       id="path92" />
    <rect
       x="834"
       y="1429"
       width="252"
       height="153"
       stroke="#0078d4"
       stroke-width="2"
       stroke-linejoin="round"
       stroke-miterlimit="10"
       fill="none"
       id="rect94" />
    <text
       font-family="'Segoe UI', 'Segoe UI_MSFontService', sans-serif"
       font-weight="400"
       font-size="20px"
       transform="translate(896.893,1501)"
       id="text96">Manage travel</text>
    <text
       font-family="'Segoe UI', 'Segoe UI_MSFontService', sans-serif"
       font-weight="400"
       font-size="20px"
       transform="translate(900.167,1523)"
       id="text98">and expenses</text>
    <rect
       x="439"
       y="259"
       width="253"
       height="153"
       stroke="#a6a6a6"
       stroke-width="2"
       stroke-linejoin="round"
       stroke-miterlimit="10"
       fill="#a0a0a0"
       id="rect100" />
    <text
       font-family="'Segoe UI', 'Segoe UI_MSFontService', sans-serif"
       font-weight="400"
       font-size="20px"
       transform="translate(495.764,342)"
       id="text102">Plan to produce</text>
    <rect
       x="439"
       y="470"
       width="253"
       height="153"
       stroke="#a6a6a6"
       stroke-width="2"
       stroke-linejoin="round"
       stroke-miterlimit="10"
       fill="#a0a0a0"
       id="rect104" />
    <text
       font-family="'Segoe UI', 'Segoe UI_MSFontService', sans-serif"
       font-weight="400"
       font-size="20px"
       transform="translate(501.697,554)"
       id="text106">Procure to pay</text>
    <rect
       x="439"
       y="650"
       width="253"
       height="154"
       stroke="#a6a6a6"
       stroke-width="2"
       stroke-linejoin="round"
       stroke-miterlimit="10"
       fill="#a0a0a0"
       id="rect108" />
    <text
       font-family="'Segoe UI', 'Segoe UI_MSFontService', sans-serif"
       font-weight="400"
       font-size="20px"
       transform="translate(496.66,734)"
       id="text110">Project to profit</text>
    <rect
       x="439"
       y="845"
       width="253"
       height="154"
       stroke="#a6a6a6"
       stroke-width="2"
       stroke-linejoin="round"
       stroke-miterlimit="10"
       fill="#a0a0a0"
       id="rect112" />
    <text
       font-family="'Segoe UI', 'Segoe UI_MSFontService', sans-serif"
       font-weight="400"
       font-size="20px"
       transform="translate(492.804,929)"
       id="text114">Record to report</text>
    <rect
       x="439"
       y="1039"
       width="253"
       height="154"
       stroke="#a6a6a6"
       stroke-width="2"
       stroke-linejoin="round"
       stroke-miterlimit="10"
       fill="#a0a0a0"
       id="rect116" />
    <text
       font-family="'Segoe UI', 'Segoe UI_MSFontService', sans-serif"
       font-weight="400"
       font-size="20px"
       transform="translate(499.98,1123)"
       id="text118">Service to cash</text>
    <rect
       x="1208"
       y="257"
       width="252"
       height="154"
       stroke="#a6a6a6"
       stroke-width="2"
       stroke-linejoin="round"
       stroke-miterlimit="10"
       fill="#a0a0a0"
       id="rect120" />
    <text
       font-family="'Segoe UI', 'Segoe UI_MSFontService', sans-serif"
       font-weight="400"
       font-size="20px"
       transform="translate(1252.04,341)"
       id="text122">Acquire to dispose</text>
    <rect
       x="1208"
       y="470"
       width="252"
       height="153"
       stroke="#a6a6a6"
       stroke-width="2"
       stroke-linejoin="round"
       stroke-miterlimit="10"
       fill="#a0a0a0"
       id="rect124" />
    <text
       font-family="'Segoe UI', 'Segoe UI_MSFontService', sans-serif"
       font-weight="400"
       font-size="20px"
       transform="translate(1254.63,554)"
       id="text126">Case to resolution</text>
    <rect
       x="1206"
       y="1039"
       width="253"
       height="154"
       stroke="#a6a6a6"
       stroke-width="2"
       stroke-linejoin="round"
       stroke-miterlimit="10"
       fill="#a0a0a0"
       id="rect128" />
    <text
       font-family="'Segoe UI', 'Segoe UI_MSFontService', sans-serif"
       font-weight="400"
       font-size="20px"
       transform="translate(1262.22,1123)"
       id="text130">Forecast to plan</text>
    <rect
       x="1208"
       y="1234"
       width="252"
       height="153"
       stroke="#a6a6a6"
       stroke-width="2"
       stroke-linejoin="round"
       stroke-miterlimit="10"
       fill="#a0a0a0"
       id="rect132" />
    <text
       font-family="'Segoe UI', 'Segoe UI_MSFontService', sans-serif"
       font-weight="400"
       font-size="20px"
       transform="translate(1248.21,1317)"
       id="text134">Inventory to deliver</text>
    <rect
       x="1593"
       y="255"
       width="252"
       height="154"
       stroke="#a6a6a6"
       stroke-width="2"
       stroke-linejoin="round"
       stroke-miterlimit="10"
       fill="#a0a0a0"
       id="rect136" />
    <text
       font-family="'Segoe UI', 'Segoe UI_MSFontService', sans-serif"
       font-weight="400"
       font-size="20px"
       transform="translate(1659.16,339)"
       id="text138">Order to cash</text>
    <rect
       x="1594"
       y="470"
       width="253"
       height="153"
       stroke="#a6a6a6"
       stroke-width="2"
       stroke-linejoin="round"
       stroke-miterlimit="10"
       fill="#a0a0a0"
       id="rect140" />
    <text
       font-family="'Segoe UI', 'Segoe UI_MSFontService', sans-serif"
       font-weight="400"
       font-size="20px"
       transform="translate(1650.33,554)"
       id="text142">Plan to produce</text>
    <rect
       x="1593"
       y="645"
       width="252"
       height="159"
       stroke="#a6a6a6"
       stroke-width="2"
       stroke-linejoin="round"
       stroke-miterlimit="10"
       fill="#a0a0a0"
       id="rect144" />
    <text
       font-family="'Segoe UI', 'Segoe UI_MSFontService', sans-serif"
       font-weight="400"
       font-size="20px"
       transform="translate(1654.93,732)"
       id="text146">Procure to pay</text>
    <rect
       x="1208"
       y="845"
       width="252"
       height="151"
       stroke="#a6a6a6"
       stroke-width="2"
       stroke-linejoin="round"
       stroke-miterlimit="10"
       fill="#a0a0a0"
       id="rect148" />
    <text
       font-family="'Segoe UI', 'Segoe UI_MSFontService', sans-serif"
       font-weight="400"
       font-size="20px"
       transform="translate(1265.93,928)"
       id="text150">Design to retire</text>
    <rect
       x="1593"
       y="845"
       width="252"
       height="153"
       stroke="#a6a6a6"
       stroke-width="2"
       stroke-linejoin="round"
       stroke-miterlimit="10"
       fill="#a0a0a0"
       id="rect152" />
    <text
       font-family="'Segoe UI', 'Segoe UI_MSFontService', sans-serif"
       font-weight="400"
       font-size="20px"
       transform="translate(1649.89,929)"
       id="text154">Project to profit</text>
    <rect
       x="1591"
       y="1040"
       width="252"
       height="153"
       stroke="#a6a6a6"
       stroke-width="2"
       stroke-linejoin="round"
       stroke-miterlimit="10"
       fill="#a0a0a0"
       id="rect156" />
    <text
       font-family="'Segoe UI', 'Segoe UI_MSFontService', sans-serif"
       font-weight="400"
       font-size="20px"
       transform="translate(1644.27,1124)"
       id="text158">Record to report</text>
    <rect
       x="1593"
       y="1234"
       width="252"
       height="154"
       stroke="#a6a6a6"
       stroke-width="2"
       stroke-linejoin="round"
       stroke-miterlimit="10"
       fill="#a0a0a0"
       id="rect160" />
    <text
       font-family="'Segoe UI', 'Segoe UI_MSFontService', sans-serif"
       font-weight="400"
       font-size="20px"
       transform="translate(1653.21,1318)"
       id="text162">Service to cash</text>
    <path
       d="m 329.502,129 517.851,0.69 -0.004,3 L 329.498,132 Z m 516.355,-2.312 8.994,4.512 -9.006,4.488 z"
       fill="#0078d4"
       id="path164" />
    <path
       d="m 962,208.5 v 45.727 h -3 V 208.5 Z m 3,44.227 -4.5,9 -4.5,-9 z"
       fill="#0078d4"
       id="path166" />
    <path
       d="m 0,-1.5 h 44.5624 c 0.8285,0 1.5,0.671573 1.5,1.5 v 204.007 c 0,0.829 -0.6715,1.5 -1.5,1.5 H 28.0625 v -3 h 16.4999 l -1.5,1.5 V 0 l 1.5,1.5 H 0 Z m 29.5625,210.007 -9,-4.5 9,-4.5 z"
       fill="#0078d4"
       transform="matrix(-1,0,0,1,118.063,130.5)"
       id="path168" />
    <path
       d="m 0,-1.5 h 44.5623 c 0.8284,0 1.5,0.671573 1.5,1.5 v 415.63 c 0,0.828 -0.6716,1.5 -1.5,1.5 H 28.0625 v -3 h 16.4998 l -1.5,1.5 V 0 l 1.5,1.5 H 0 Z m 29.5625,421.63 -9,-4.5 9,-4.5 z"
       fill="#0078d4"
       transform="matrix(-1,0,0,1,118.063,130.5)"
       id="path170" />
    <path
       d="m 0,-1.5 h 44.562 c 0.8284,0 1.5,0.671573 1.5,1.5 v 986.39 c 0,0.829 -0.6716,1.5 -1.5,1.5 H 28.0625 v -3 H 44.562 l -1.5,1.5 V 0 l 1.5,1.5 H 0 Z m 29.5625,992.39 -9,-4.5 9,-4.5 z"
       fill="#0078d4"
       transform="matrix(-1,0,0,1,118.063,130.5)"
       id="path172" />
    <path
       d="m 0,-1.5 h 44.562 c 0.8285,0 1.5,0.671573 1.5,1.5 v 1181.04 c 0,0.83 -0.6715,1.5 -1.5,1.5 H 28.0625 v -3 H 44.562 l -1.5,1.5 V 0 l 1.5,1.5 H 0 Z m 29.5625,1187.04 -9,-4.5 9,-4.5 z"
       fill="#0078d4"
       transform="matrix(-1,0,0,1,118.063,130.5)"
       id="path174" />
    <path
       d="m 329.5,129 h 55.216 c 0.828,0 1.5,0.672 1.5,1.5 v 205.044 l -1.5,-1.5 h 47.715 v 3 h -47.715 c -0.829,0 -1.5,-0.672 -1.5,-1.5 V 130.5 l 1.5,1.5 H 329.5 Z m 101.431,202.044 9,4.5 -9,4.5 z"
       fill="#0078d4"
       id="path176" />
    <path
       d="m 329.5,129 h 55.216 c 0.828,0 1.5,0.672 1.5,1.5 v 416.395 l -1.5,-1.5 h 47.715 v 3 h -47.715 c -0.829,0 -1.5,-0.671 -1.5,-1.5 V 130.5 l 1.5,1.5 H 329.5 Z m 101.431,413.395 9,4.5 -9,4.5 z"
       fill="#0078d4"
       id="path178" />
    <path
       d="m 0,-1.5 h 44.5625 c 0.8284,0 1.5,0.671573 1.5,1.5 v 791.714 c 0,0.829 -0.6716,1.5 -1.5,1.5 h -16.5 v -3 h 16.5 l -1.5,1.5 V 0 l 1.5,1.5 H 0 Z m 29.5625,797.714 -9,-4.5 9,-4.5 z"
       fill="#0078d4"
       transform="matrix(-1,0,0,1,118.063,130.5)"
       id="path180" />
    <path
       d="m 329.5,129 h 55.216 c 0.828,0 1.5,0.672 1.5,1.5 v 596.529 l -1.5,-1.5 h 47.715 v 3 h -47.715 c -0.829,0 -1.5,-0.671 -1.5,-1.5 V 130.5 l 1.5,1.5 H 329.5 Z m 101.431,593.529 9,4.5 -9,4.5 z"
       fill="#0078d4"
       id="path182" />
    <path
       d="m 329.5,129 h 55.216 c 0.828,0 1.5,0.672 1.5,1.5 v 791.572 l -1.5,-1.5 h 47.715 v 3 h -47.715 c -0.829,0 -1.5,-0.672 -1.5,-1.5 V 130.5 l 1.5,1.5 H 329.5 Z m 101.431,788.572 9,4.5 -9,4.5 z"
       fill="#0078d4"
       id="path184" />
    <path
       d="m 329.5,129 h 55.216 c 0.829,0 1.5,0.672 1.5,1.5 v 985.72 l -1.5,-1.5 h 47.715 v 3 h -47.715 c -0.828,0 -1.5,-0.67 -1.5,-1.5 V 130.5 l 1.5,1.5 H 329.5 Z m 101.431,982.72 9,4.5 -9,4.5 z"
       fill="#0078d4"
       id="path186" />
    <rect
       x="835"
       y="1234"
       width="252"
       height="154"
       fill="#ffffff"
       id="rect188" />
    <path
       d="m 866.5,1234 v 154 m 189,-154 v 154"
       stroke="#0078d4"
       stroke-width="2"
       stroke-linejoin="round"
       stroke-miterlimit="10"
       fill="none"
       fill-rule="evenodd"
       id="path190" />
    <rect
       x="835"
       y="1234"
       width="252"
       height="154"
       stroke="#0078d4"
       stroke-width="2"
       stroke-linejoin="round"
       stroke-miterlimit="10"
       fill="none"
       id="rect192" />
    <text
       font-family="'Segoe UI', 'Segoe UI_MSFontService', sans-serif"
       font-weight="400"
       font-size="20px"
       transform="translate(925.337,1285)"
       id="text194">Manage</text>
    <text
       font-family="'Segoe UI', 'Segoe UI_MSFontService', sans-serif"
       font-weight="400"
       font-size="20px"
       transform="translate(918.05,1307)"
       id="text196">employee</text>
    <text
       font-family="'Segoe UI', 'Segoe UI_MSFontService', sans-serif"
       font-weight="400"
       font-size="20px"
       transform="translate(922.25,1328)"
       id="text198">time and</text>
    <text
       font-family="'Segoe UI', 'Segoe UI_MSFontService', sans-serif"
       font-weight="400"
       font-size="20px"
       transform="translate(912.077,1350)"
       id="text200">attendance</text>
    <path
       d="m 962,412.5 v 49.796 h -3 V 412.5 Z m 3,48.296 -4.5,9 -4.5,-9 z"
       fill="#0078d4"
       id="path202" />
    <path
       d="m 0,-1.5 h 24 c 0.8284,0 1.5,0.671573 1.5,1.5 v 181.054 c 0,0.828 -0.6716,1.5 -1.5,1.5 H 8.83333 v -3 H 24 l -1.5,1.5 V 0 L 24,1.5 H 0 Z m 10.3333,187.054 -8.99997,-4.5 8.99997,-4.5 z"
       fill="#0078d4"
       transform="matrix(-1,0,0,1,835.833,546.5)"
       id="path204" />
    <path
       d="m 0,-1.5 h 24 c 0.8284,0 1.5,0.671573 1.5,1.5 v 570.52 c 0,0.829 -0.6716,1.5 -1.5,1.5 H 8.83333 v -3 H 24 l -1.5,1.5 V 0 L 24,1.5 H 0 Z m 10.3333,576.52 -8.99997,-4.5 8.99997,-4.5 z"
       fill="#0078d4"
       transform="matrix(-1,0,0,1,835.833,546.5)"
       id="path206" />
    <path
       d="m 834.5,548 h -24 l 1.5,-1.5 v 765.25 l -1.5,-1.5 h 17.833 v 3 H 810.5 c -0.828,0 -1.5,-0.67 -1.5,-1.5 V 546.5 c 0,-0.828 0.672,-1.5 1.5,-1.5 h 24 z m -7.667,759.25 9,4.5 -9,4.5 z"
       fill="#0078d4"
       id="path208" />
    <path
       d="m 0,-1.5 h 24 c 0.8284,0 1.5,0.671573 1.5,1.5 v 375.787 c 0,0.829 -0.6716,1.5 -1.5,1.5 H 8.83333 v -3 H 24 l -1.5,1.5 V 0 L 24,1.5 H 0 Z m 10.3333,381.787 -8.99997,-4.5 8.99997,-4.5 z"
       fill="#0078d4"
       transform="matrix(-1,0,0,1,835.833,546.5)"
       id="path210" />
    <path
       d="m 962,998.5 v 33.94 h -3 V 998.5 Z m 3,32.44 -4.5,9 -4.5,-9 z"
       fill="#0078d4"
       id="path212" />
    <path
       d="m 97,387 c 0,-13.255 10.745,-24 24,-24 13.255,0 24,10.745 24,24 0,13.255 -10.745,24 -24,24 -13.255,0 -24,-10.745 -24,-24 z"
       fill="#0078d4"
       fill-rule="evenodd"
       id="path214" />
    <text
       fill="#ffffff"
       font-family="'Segoe UI', 'Segoe UI_MSFontService', sans-serif"
       font-weight="400"
       font-size="27px"
       transform="translate(113.785,397)"
       id="text216">1</text>
    <path
       d="m 835,387 c 0,-13.255 10.745,-24 24,-24 13.255,0 24,10.745 24,24 0,13.255 -10.745,24 -24,24 -13.255,0 -24,-10.745 -24,-24 z"
       fill="#0078d4"
       fill-rule="evenodd"
       id="path218" />
    <text
       fill="#ffffff"
       font-family="'Segoe UI', 'Segoe UI_MSFontService', sans-serif"
       font-weight="400"
       font-size="27px"
       transform="translate(851.987,397)"
       id="text220">1</text>
    <path
       d="m 146,387 c 0,-13.255 10.745,-24 24,-24 13.255,0 24,10.745 24,24 0,13.255 -10.745,24 -24,24 -13.255,0 -24,-10.745 -24,-24 z"
       fill="#0078d4"
       fill-rule="evenodd"
       id="path222" />
    <text
       fill="#ffffff"
       font-family="'Segoe UI', 'Segoe UI_MSFontService', sans-serif"
       font-weight="400"
       font-size="27px"
       transform="translate(162.759,397)"
       id="text224">2</text>
    <rect
       x="97"
       y="469"
       width="253"
       height="154"
       stroke="#a6a6a6"
       stroke-width="2"
       stroke-linejoin="round"
       stroke-miterlimit="10"
       fill="#a0a0a0"
       id="rect226" />
    <text
       font-family="'Segoe UI', 'Segoe UI_MSFontService', sans-serif"
       font-weight="400"
       font-size="20px"
       transform="translate(143.832,553)"
       id="text228">Case to resolution</text>
    <path
       d="m 97,599 c 0,-13.255 10.745,-24 24,-24 13.255,0 24,10.745 24,24 0,13.255 -10.745,24 -24,24 -13.255,0 -24,-10.745 -24,-24 z"
       fill="#0078d4"
       fill-rule="evenodd"
       id="path230" />
    <text
       fill="#ffffff"
       font-family="'Segoe UI', 'Segoe UI_MSFontService', sans-serif"
       font-weight="400"
       font-size="27px"
       transform="translate(113.785,609)"
       id="text232">1</text>
    <path
       d="m 835,1169 c 0,-13.25 10.745,-24 24,-24 13.255,0 24,10.75 24,24 0,13.25 -10.745,24 -24,24 -13.255,0 -24,-10.75 -24,-24 z"
       fill="#0078d4"
       fill-rule="evenodd"
       id="path234" />
    <text
       fill="#ffffff"
       font-family="'Segoe UI', 'Segoe UI_MSFontService', sans-serif"
       font-weight="400"
       font-size="27px"
       transform="translate(851.987,1179)"
       id="text236">5</text>
    <path
       d="m 489,387 c 0,-13.255 10.521,-24 23.5,-24 12.979,0 23.5,10.745 23.5,24 0,13.255 -10.521,24 -23.5,24 -12.979,0 -23.5,-10.745 -23.5,-24 z"
       fill="#0078d4"
       fill-rule="evenodd"
       id="path238" />
    <text
       fill="#ffffff"
       font-family="'Segoe UI', 'Segoe UI_MSFontService', sans-serif"
       font-weight="400"
       font-size="27px"
       transform="translate(505.205,397)"
       id="text240">3</text>
    <path
       d="m 835,780 c 0,-13.255 10.745,-24 24,-24 13.255,0 24,10.745 24,24 0,13.255 -10.745,24 -24,24 -13.255,0 -24,-10.745 -24,-24 z"
       fill="#0078d4"
       fill-rule="evenodd"
       id="path242" />
    <text
       fill="#ffffff"
       font-family="'Segoe UI', 'Segoe UI_MSFontService', sans-serif"
       font-weight="400"
       font-size="27px"
       transform="translate(851.987,790)"
       id="text244">3</text>
    <path
       d="m 835,599 c 0,-13.255 10.745,-24 24,-24 13.255,0 24,10.745 24,24 0,13.255 -10.745,24 -24,24 -13.255,0 -24,-10.745 -24,-24 z"
       fill="#0078d4"
       fill-rule="evenodd"
       id="path246" />
    <text
       fill="#ffffff"
       font-family="'Segoe UI', 'Segoe UI_MSFontService', sans-serif"
       font-weight="400"
       font-size="27px"
       transform="translate(851.987,609)"
       id="text248">2</text>
    <rect
       x="97"
       y="1040"
       width="253"
       height="153"
       stroke="#a6a6a6"
       stroke-width="2"
       stroke-linejoin="round"
       stroke-miterlimit="10"
       fill="#a0a0a0"
       id="rect250" />
    <text
       font-family="'Segoe UI', 'Segoe UI_MSFontService', sans-serif"
       font-weight="400"
       font-size="20px"
       transform="translate(152.915,1124)"
       id="text252">Forecast to plan</text>
    <path
       d="m 146,1169 c 0,-13.25 10.745,-24 24,-24 13.255,0 24,10.75 24,24 0,13.25 -10.745,24 -24,24 -13.255,0 -24,-10.75 -24,-24 z"
       fill="#0078d4"
       fill-rule="evenodd"
       id="path254" />
    <text
       fill="#ffffff"
       font-family="'Segoe UI', 'Segoe UI_MSFontService', sans-serif"
       font-weight="400"
       font-size="27px"
       transform="translate(162.759,1179)"
       id="text256">3</text>
    <path
       d="m 97,1169 c 0,-13.25 10.745,-24 24,-24 13.255,0 24,10.75 24,24 0,13.25 -10.745,24 -24,24 -13.255,0 -24,-10.75 -24,-24 z"
       fill="#0078d4"
       fill-rule="evenodd"
       id="path258" />
    <text
       fill="#ffffff"
       font-family="'Segoe UI', 'Segoe UI_MSFontService', sans-serif"
       font-weight="400"
       font-size="27px"
       transform="translate(113.785,1179)"
       id="text260">1</text>
    <rect
       x="97"
       y="1234"
       width="253"
       height="154"
       stroke="#a6a6a6"
       stroke-width="2"
       stroke-linejoin="round"
       stroke-miterlimit="10"
       fill="#a0a0a0"
       id="rect262" />
    <text
       font-family="'Segoe UI', 'Segoe UI_MSFontService', sans-serif"
       font-weight="400"
       font-size="20px"
       transform="translate(163.582,1318)"
       id="text264">Order to cash</text>
    <path
       d="m 146,1364 c 0,-13.25 10.745,-24 24,-24 13.255,0 24,10.75 24,24 0,13.25 -10.745,24 -24,24 -13.255,0 -24,-10.75 -24,-24 z"
       fill="#0078d4"
       fill-rule="evenodd"
       id="path266" />
    <text
       fill="#ffffff"
       font-family="'Segoe UI', 'Segoe UI_MSFontService', sans-serif"
       font-weight="400"
       font-size="27px"
       transform="translate(162.759,1374)"
       id="text268">5</text>
    <path
       d="m 97,1364 c 0,-13.25 10.745,-24 24,-24 13.255,0 24,10.75 24,24 0,13.25 -10.745,24 -24,24 -13.255,0 -24,-10.75 -24,-24 z"
       fill="#0078d4"
       fill-rule="evenodd"
       id="path270" />
    <text
       fill="#ffffff"
       font-family="'Segoe UI', 'Segoe UI_MSFontService', sans-serif"
       font-weight="400"
       font-size="27px"
       transform="translate(113.785,1374)"
       id="text272">1</text>
    <path
       d="m 439,387 c 0,-13.255 10.745,-24 24,-24 13.255,0 24,10.745 24,24 0,13.255 -10.745,24 -24,24 -13.255,0 -24,-10.745 -24,-24 z"
       fill="#0078d4"
       fill-rule="evenodd"
       id="path274" />
    <text
       fill="#ffffff"
       font-family="'Segoe UI', 'Segoe UI_MSFontService', sans-serif"
       font-weight="400"
       font-size="27px"
       transform="translate(456.134,397)"
       id="text276">1</text>
    <path
       d="m 439,599 c 0,-13.255 10.745,-24 24,-24 13.255,0 24,10.745 24,24 0,13.255 -10.745,24 -24,24 -13.255,0 -24,-10.745 -24,-24 z"
       fill="#0078d4"
       fill-rule="evenodd"
       id="path278" />
    <text
       fill="#ffffff"
       font-family="'Segoe UI', 'Segoe UI_MSFontService', sans-serif"
       font-weight="400"
       font-size="27px"
       transform="translate(456.134,609)"
       id="text280">1</text>
    <rect
       x="97"
       y="845"
       width="253"
       height="154"
       stroke="#a6a6a6"
       stroke-width="2"
       stroke-linejoin="round"
       stroke-miterlimit="10"
       fill="#a0a0a0"
       id="rect282" />
    <text
       font-family="'Segoe UI', 'Segoe UI_MSFontService', sans-serif"
       font-weight="400"
       font-size="20px"
       transform="translate(155.132,929)"
       id="text284">Design to retire</text>
    <path
       d="m 97,974 c 0,-13.255 10.745,-24 24,-24 13.255,0 24,10.745 24,24 0,13.255 -10.745,24 -24,24 -13.255,0 -24,-10.745 -24,-24 z"
       fill="#0078d4"
       fill-rule="evenodd"
       id="path286" />
    <text
       fill="#ffffff"
       font-family="'Segoe UI', 'Segoe UI_MSFontService', sans-serif"
       font-weight="400"
       font-size="27px"
       transform="translate(113.785,984)"
       id="text288">1</text>
    <path
       d="m 439,780 c 0,-13.255 10.745,-24 24,-24 13.255,0 24,10.745 24,24 0,13.255 -10.745,24 -24,24 -13.255,0 -24,-10.745 -24,-24 z"
       fill="#0078d4"
       fill-rule="evenodd"
       id="path290" />
    <text
       fill="#ffffff"
       font-family="'Segoe UI', 'Segoe UI_MSFontService', sans-serif"
       font-weight="400"
       font-size="27px"
       transform="translate(456.134,790)"
       id="text292">1</text>
    <path
       d="m 439,974 c 0,-13.255 10.745,-24 24,-24 13.255,0 24,10.745 24,24 0,13.255 -10.745,24 -24,24 -13.255,0 -24,-10.745 -24,-24 z"
       fill="#0078d4"
       fill-rule="evenodd"
       id="path294" />
    <text
       fill="#ffffff"
       font-family="'Segoe UI', 'Segoe UI_MSFontService', sans-serif"
       font-weight="400"
       font-size="27px"
       transform="translate(456.134,984)"
       id="text296">1</text>
    <path
       d="m 439,1169 c 0,-13.25 10.745,-24 24,-24 13.255,0 24,10.75 24,24 0,13.25 -10.745,24 -24,24 -13.255,0 -24,-10.75 -24,-24 z"
       fill="#0078d4"
       fill-rule="evenodd"
       id="path298" />
    <text
       fill="#ffffff"
       font-family="'Segoe UI', 'Segoe UI_MSFontService', sans-serif"
       font-weight="400"
       font-size="27px"
       transform="translate(456.134,1179)"
       id="text300">1</text>
    <path
       d="m 834,1558 c 0,-13.25 10.745,-24 24,-24 13.255,0 24,10.75 24,24 0,13.25 -10.745,24 -24,24 -13.255,0 -24,-10.75 -24,-24 z"
       fill="#0078d4"
       fill-rule="evenodd"
       id="path302" />
    <text
       fill="#ffffff"
       font-family="'Segoe UI', 'Segoe UI_MSFontService', sans-serif"
       font-weight="400"
       font-size="27px"
       transform="translate(850.654,1568)"
       id="text304">7</text>
    <path
       d="m 489,780 c 0,-13.255 10.521,-24 23.5,-24 12.979,0 23.5,10.745 23.5,24 0,13.255 -10.521,24 -23.5,24 -12.979,0 -23.5,-10.745 -23.5,-24 z"
       fill="#0078d4"
       fill-rule="evenodd"
       id="path306" />
    <text
       fill="#ffffff"
       font-family="'Segoe UI', 'Segoe UI_MSFontService', sans-serif"
       font-weight="400"
       font-size="27px"
       transform="translate(505.205,790)"
       id="text308">7</text>
    <path
       d="m 489,1169 c 0,-13.25 10.521,-24 23.5,-24 12.979,0 23.5,10.75 23.5,24 0,13.25 -10.521,24 -23.5,24 -12.979,0 -23.5,-10.75 -23.5,-24 z"
       fill="#0078d4"
       fill-rule="evenodd"
       id="path310" />
    <text
       fill="#ffffff"
       font-family="'Segoe UI', 'Segoe UI_MSFontService', sans-serif"
       font-weight="400"
       font-size="27px"
       transform="translate(505.205,1179)"
       id="text312">7</text>
    <rect
       x="97"
       y="650"
       width="253"
       height="154"
       stroke="#a6a6a6"
       stroke-width="2"
       stroke-linejoin="round"
       stroke-miterlimit="10"
       fill="#a0a0a0"
       id="rect314" />
    <text
       font-family="'Segoe UI', 'Segoe UI_MSFontService', sans-serif"
       font-weight="400"
       font-size="20px"
       transform="translate(141.232,734)"
       id="text316">Concept to market</text>
    <path
       d="m 97,780 c 0,-13.255 10.745,-24 24,-24 13.255,0 24,10.745 24,24 0,13.255 -10.745,24 -24,24 -13.255,0 -24,-10.745 -24,-24 z"
       fill="#0078d4"
       fill-rule="evenodd"
       id="path318" />
    <text
       fill="#ffffff"
       font-family="'Segoe UI', 'Segoe UI_MSFontService', sans-serif"
       font-weight="400"
       font-size="27px"
       transform="translate(113.785,790)"
       id="text320">1</text>
    <path
       d="m 0,-1.5 h 44.5626 c 0.8284,0 1.5,0.671573 1.5,1.5 v 597.01 c 0,0.828 -0.6716,1.5 -1.5,1.5 H 28.0625 v -3 h 16.5001 l -1.5,1.5 V 0 l 1.5,1.5 H 0 Z m 29.5625,603.01 -9,-4.5 9,-4.5 z"
       fill="#0078d4"
       transform="matrix(-1,0,0,1,118.063,130.5)"
       id="path322" />
    <path
       d="m 1594,599 c 0,-13.255 10.75,-24 24,-24 13.25,0 24,10.745 24,24 0,13.255 -10.75,24 -24,24 -13.25,0 -24,-10.745 -24,-24 z"
       fill="#0078d4"
       fill-rule="evenodd"
       id="path324" />
    <text
       fill="#ffffff"
       font-family="'Segoe UI', 'Segoe UI_MSFontService', sans-serif"
       font-weight="400"
       font-size="27px"
       transform="translate(1610.7,609)"
       id="text326">1</text>
    <rect
       x="1207"
       y="644"
       width="253"
       height="159"
       stroke="#a6a6a6"
       stroke-width="2"
       stroke-linejoin="round"
       stroke-miterlimit="10"
       fill="#a0a0a0"
       id="rect328" />
    <text
       font-family="'Segoe UI', 'Segoe UI_MSFontService', sans-serif"
       font-weight="400"
       font-size="20px"
       transform="translate(1251.32,730)"
       id="text330">Concept to market</text>
    <path
       d="m 1208,1169 c 0,-13.25 10.75,-24 24,-24 13.25,0 24,10.75 24,24 0,13.25 -10.75,24 -24,24 -13.25,0 -24,-10.75 -24,-24 z"
       fill="#0078d4"
       fill-rule="evenodd"
       id="path332" />
    <text
       fill="#ffffff"
       font-family="'Segoe UI', 'Segoe UI_MSFontService', sans-serif"
       font-weight="400"
       font-size="27px"
       transform="translate(1224.58,1179)"
       id="text334">1</text>
    <path
       d="m 1210,387 c 0,-13.255 10.52,-24 23.5,-24 12.98,0 23.5,10.745 23.5,24 0,13.255 -10.52,24 -23.5,24 -12.98,0 -23.5,-10.745 -23.5,-24 z"
       fill="#0078d4"
       fill-rule="evenodd"
       id="path336" />
    <text
       fill="#ffffff"
       font-family="'Segoe UI', 'Segoe UI_MSFontService', sans-serif"
       font-weight="400"
       font-size="27px"
       transform="translate(1226.39,397)"
       id="text338">2</text>
    <path
       d="m 1208,599 c 0,-13.255 10.75,-24 24,-24 13.25,0 24,10.745 24,24 0,13.255 -10.75,24 -24,24 -13.25,0 -24,-10.745 -24,-24 z"
       fill="#0078d4"
       fill-rule="evenodd"
       id="path340" />
    <text
       fill="#ffffff"
       font-family="'Segoe UI', 'Segoe UI_MSFontService', sans-serif"
       font-weight="400"
       font-size="27px"
       transform="translate(1224.58,609)"
       id="text342">3</text>
    <path
       d="m 835,974 c 0,-13.255 10.745,-24 24,-24 13.255,0 24,10.745 24,24 0,13.255 -10.745,24 -24,24 -13.255,0 -24,-10.745 -24,-24 z"
       fill="#0078d4"
       fill-rule="evenodd"
       id="path344" />
    <text
       fill="#ffffff"
       font-family="'Segoe UI', 'Segoe UI_MSFontService', sans-serif"
       font-weight="400"
       font-size="27px"
       transform="translate(851.987,984)"
       id="text346">4</text>
    <path
       d="m 835,1364 c 0,-13.25 10.745,-24 24,-24 13.255,0 24,10.75 24,24 0,13.25 -10.745,24 -24,24 -13.255,0 -24,-10.75 -24,-24 z"
       fill="#0078d4"
       fill-rule="evenodd"
       id="path348" />
    <text
       fill="#ffffff"
       font-family="'Segoe UI', 'Segoe UI_MSFontService', sans-serif"
       font-weight="400"
       font-size="27px"
       transform="translate(851.987,1374)"
       id="text350">6</text>
    <path
       d="m 1593,1169 c 0,-13.25 10.52,-24 23.5,-24 12.98,0 23.5,10.75 23.5,24 0,13.25 -10.52,24 -23.5,24 -12.98,0 -23.5,-10.75 -23.5,-24 z"
       fill="#0078d4"
       fill-rule="evenodd"
       id="path352" />
    <text
       fill="#ffffff"
       font-family="'Segoe UI', 'Segoe UI_MSFontService', sans-serif"
       font-weight="400"
       font-size="27px"
       transform="translate(1609.37,1179)"
       id="text354">4</text>
    <path
       d="m 1593,974 c 0,-13.255 10.52,-24 23.5,-24 12.98,0 23.5,10.745 23.5,24 0,13.255 -10.52,24 -23.5,24 -12.98,0 -23.5,-10.745 -23.5,-24 z"
       fill="#0078d4"
       fill-rule="evenodd"
       id="path356" />
    <text
       fill="#ffffff"
       font-family="'Segoe UI', 'Segoe UI_MSFontService', sans-serif"
       font-weight="400"
       font-size="27px"
       transform="translate(1609.37,984)"
       id="text358">4</text>
    <path
       d="m 1209,974 c 0,-13.255 10.75,-24 24,-24 13.25,0 24,10.745 24,24 0,13.255 -10.75,24 -24,24 -13.25,0 -24,-10.745 -24,-24 z"
       fill="#0078d4"
       fill-rule="evenodd"
       id="path360" />
    <text
       fill="#ffffff"
       font-family="'Segoe UI', 'Segoe UI_MSFontService', sans-serif"
       font-weight="400"
       font-size="27px"
       transform="translate(1225.91,984)"
       id="text362">4</text>
    <path
       d="m 1642,599 c 0,-13.255 10.52,-24 23.5,-24 12.98,0 23.5,10.745 23.5,24 0,13.255 -10.52,24 -23.5,24 -12.98,0 -23.5,-10.745 -23.5,-24 z"
       fill="#0078d4"
       fill-rule="evenodd"
       id="path364" />
    <text
       fill="#ffffff"
       font-family="'Segoe UI', 'Segoe UI_MSFontService', sans-serif"
       font-weight="400"
       font-size="27px"
       transform="translate(1658.34,609)"
       id="text366">4</text>
    <path
       d="m 1207,1364 c 0,-13.25 10.52,-24 23.5,-24 12.98,0 23.5,10.75 23.5,24 0,13.25 -10.52,24 -23.5,24 -12.98,0 -23.5,-10.75 -23.5,-24 z"
       fill="#0078d4"
       fill-rule="evenodd"
       id="path368" />
    <text
       fill="#ffffff"
       font-family="'Segoe UI', 'Segoe UI_MSFontService', sans-serif"
       font-weight="400"
       font-size="27px"
       transform="translate(1223.16,1374)"
       id="text370">4</text>
    <path
       d="m 1256,599 c 0,-13.255 10.52,-24 23.5,-24 12.98,0 23.5,10.745 23.5,24 0,13.255 -10.52,24 -23.5,24 -12.98,0 -23.5,-10.745 -23.5,-24 z"
       fill="#0078d4"
       fill-rule="evenodd"
       id="path372" />
    <text
       fill="#ffffff"
       font-family="'Segoe UI', 'Segoe UI_MSFontService', sans-serif"
       font-weight="400"
       font-size="27px"
       transform="translate(1272.22,609)"
       id="text374">4</text>
    <path
       d="m 1642,974 c 0,-13.255 10.52,-24 23.5,-24 12.98,0 23.5,10.745 23.5,24 0,13.255 -10.52,24 -23.5,24 -12.98,0 -23.5,-10.745 -23.5,-24 z"
       fill="#0078d4"
       fill-rule="evenodd"
       id="path376" />
    <text
       fill="#ffffff"
       font-family="'Segoe UI', 'Segoe UI_MSFontService', sans-serif"
       font-weight="400"
       font-size="27px"
       transform="translate(1658.34,984)"
       id="text378">5</text>
    <path
       d="m 1691,599 c 0,-13.255 10.52,-24 23.5,-24 12.98,0 23.5,10.745 23.5,24 0,13.255 -10.52,24 -23.5,24 -12.98,0 -23.5,-10.745 -23.5,-24 z"
       fill="#0078d4"
       fill-rule="evenodd"
       id="path380" />
    <text
       fill="#ffffff"
       font-family="'Segoe UI', 'Segoe UI_MSFontService', sans-serif"
       font-weight="400"
       font-size="27px"
       transform="translate(1707.3,609)"
       id="text382">5</text>
    <path
       d="m 1594,1364 c 0,-13.25 10.75,-24 24,-24 13.25,0 24,10.75 24,24 0,13.25 -10.75,24 -24,24 -13.25,0 -24,-10.75 -24,-24 z"
       fill="#0078d4"
       fill-rule="evenodd"
       id="path384" />
    <text
       fill="#ffffff"
       font-family="'Segoe UI', 'Segoe UI_MSFontService', sans-serif"
       font-weight="400"
       font-size="27px"
       transform="translate(1611.07,1374)"
       id="text386">5</text>
    <path
       d="m 1593,387 c 0,-13.255 10.52,-24 23.5,-24 12.98,0 23.5,10.745 23.5,24 0,13.255 -10.52,24 -23.5,24 -12.98,0 -23.5,-10.745 -23.5,-24 z"
       fill="#0078d4"
       fill-rule="evenodd"
       id="path388" />
    <text
       fill="#ffffff"
       font-family="'Segoe UI', 'Segoe UI_MSFontService', sans-serif"
       font-weight="400"
       font-size="27px"
       transform="translate(1609.37,397)"
       id="text390">5</text>
    <path
       d="m 1593,780 c 0,-13.255 10.75,-24 24,-24 13.25,0 24,10.745 24,24 0,13.255 -10.75,24 -24,24 -13.25,0 -24,-10.745 -24,-24 z"
       fill="#0078d4"
       fill-rule="evenodd"
       id="path392" />
    <text
       fill="#ffffff"
       font-family="'Segoe UI', 'Segoe UI_MSFontService', sans-serif"
       font-weight="400"
       font-size="27px"
       transform="translate(1609.84,790)"
       id="text394">5</text>
    <path
       d="m 1738,599 c 0,-13.255 10.75,-24 24,-24 13.25,0 24,10.745 24,24 0,13.255 -10.75,24 -24,24 -13.25,0 -24,-10.745 -24,-24 z"
       fill="#0078d4"
       fill-rule="evenodd"
       id="path396" />
    <text
       fill="#ffffff"
       font-family="'Segoe UI', 'Segoe UI_MSFontService', sans-serif"
       font-weight="400"
       font-size="27px"
       transform="translate(1754.82,609)"
       id="text398">6</text>
    <path
       d="m 1642,1169 c 0,-13.25 10.52,-24 23.5,-24 12.98,0 23.5,10.75 23.5,24 0,13.25 -10.52,24 -23.5,24 -12.98,0 -23.5,-10.75 -23.5,-24 z"
       fill="#0078d4"
       fill-rule="evenodd"
       id="path400" />
    <text
       fill="#ffffff"
       font-family="'Segoe UI', 'Segoe UI_MSFontService', sans-serif"
       font-weight="400"
       font-size="27px"
       transform="translate(1658.34,1179)"
       id="text402">6</text>
    <path
       d="m 1691,974 c 0,-13.255 10.52,-24 23.5,-24 12.98,0 23.5,10.745 23.5,24 0,13.255 -10.52,24 -23.5,24 -12.98,0 -23.5,-10.745 -23.5,-24 z"
       fill="#0078d4"
       fill-rule="evenodd"
       id="path404" />
    <text
       fill="#ffffff"
       font-family="'Segoe UI', 'Segoe UI_MSFontService', sans-serif"
       font-weight="400"
       font-size="27px"
       transform="translate(1707.3,984)"
       id="text406">6</text>
    <path
       d="m 1642,780 c 0,-13.255 10.52,-24 23.5,-24 12.98,0 23.5,10.745 23.5,24 0,13.255 -10.52,24 -23.5,24 -12.98,0 -23.5,-10.745 -23.5,-24 z"
       fill="#0078d4"
       fill-rule="evenodd"
       id="path408" />
    <text
       fill="#ffffff"
       font-family="'Segoe UI', 'Segoe UI_MSFontService', sans-serif"
       font-weight="400"
       font-size="27px"
       transform="translate(1658.34,790)"
       id="text410">7</text>
    <path
       d="m 1691,1169 c 0,-13.25 10.52,-24 23.5,-24 12.98,0 23.5,10.75 23.5,24 0,13.25 -10.52,24 -23.5,24 -12.98,0 -23.5,-10.75 -23.5,-24 z"
       fill="#0078d4"
       fill-rule="evenodd"
       id="path412" />
    <text
       fill="#ffffff"
       font-family="'Segoe UI', 'Segoe UI_MSFontService', sans-serif"
       font-weight="400"
       font-size="27px"
       transform="translate(1707.3,1179)"
       id="text414">7</text>
    <path
       d="m 0,-1.5 h 24 c 0.8284,0 1.5,0.671573 1.5,1.5 v 959.987 c 0,0.828 -0.6716,1.5 -1.5,1.5 H 8.83333 v -3.001 H 24 l -1.5,1.501 V 0 L 24,1.5 H 0 Z m 10.3333,965.986 -8.99997,-4.499 8.99997,-4.5 z"
       fill="#0078d4"
       transform="matrix(-1,0,0,1,835.833,546.5)"
       id="path416" />
    <path
       d="m 1087.83,1309.73 h 24 l -1.5,1.5 V 1116.5 l 1.5,1.5 H 1094 v -3 h 17.83 c 0.83,0 1.5,0.67 1.5,1.5 v 194.73 c 0,0.83 -0.67,1.5 -1.5,1.5 h -24 z m 7.67,-188.73 -9,-4.5 9,-4.5 z"
       fill="#0078d4"
       id="path418" />
    <path
       d="m 0,-1.5 h 24 c 0.8284,0 1.5,0.671573 1.5,1.5 v 389.466 c 0,0.829 -0.6716,1.5 -1.5,1.5 H 8.83333 v -3 H 24 l -1.5,1.5 V 0 L 24,1.5 H 0 Z m 10.3333,395.466 -8.99997,-4.5 8.99997,-4.5 z"
       fill="#0078d4"
       transform="matrix(1,0,0,-1,1086.5,1505.97)"
       id="path420" />
    <path
       d="m 0,-1.5 h 59.1935 c 0.8284,0 1.5,0.671573 1.5,1.5 v 461.499 h -3 V 0 l 1.5,1.5 H 0 Z m 63.6935,461.499 -4.5,9 -4.5,-9 z"
       fill="#0078d4"
       transform="matrix(0,1,1,0,960.5,1582.5)"
       id="path422" />
    <path
       d="m 1207,780 c 0,-13.255 10.52,-24 23.5,-24 12.98,0 23.5,10.745 23.5,24 0,13.255 -10.52,24 -23.5,24 -12.98,0 -23.5,-10.745 -23.5,-24 z"
       fill="#0078d4"
       fill-rule="evenodd"
       id="path424" />
    <text
       fill="#ffffff"
       font-family="'Segoe UI', 'Segoe UI_MSFontService', sans-serif"
       font-weight="400"
       font-size="27px"
       transform="translate(1223.16,790)"
       id="text426">2</text>
  </g>
</svg>
