<?xml version="1.0" encoding="UTF-8" standalone="no"?>
<svg
   width="867.32703"
   height="325.37878"
   overflow="hidden"
   version="1.1"
   id="svg44"
   sodipodi:docname="transfer.svg"
   inkscape:version="1.3.2 (091e20e, 2023-11-25, custom)"
   xmlns:inkscape="http://www.inkscape.org/namespaces/inkscape"
   xmlns:sodipodi="http://sodipodi.sourceforge.net/DTD/sodipodi-0.dtd"
   xmlns="http://www.w3.org/2000/svg"
   xmlns:svg="http://www.w3.org/2000/svg">
  <defs
     id="defs44" />
  <sodipodi:namedview
     id="namedview44"
     pagecolor="#ffffff"
     bordercolor="#000000"
     borderopacity="0.25"
     inkscape:showpageshadow="2"
     inkscape:pageopacity="0.0"
     inkscape:pagecheckerboard="0"
     inkscape:deskcolor="#d1d1d1"
     inkscape:zoom="2.3820312"
     inkscape:cx="435.13283"
     inkscape:cy="165.61496"
     inkscape:window-width="3840"
     inkscape:window-height="2054"
     inkscape:window-x="2869"
     inkscape:window-y="-11"
     inkscape:window-maximized="1"
     inkscape:current-layer="svg44" />
  <g
     id="g44"
     transform="translate(-204.86717,-194.37192)">
    <rect
       x="204.86717"
       y="194.37192"
       width="867.32703"
       height="325.37878"
       fill="#ffffff"
       id="rect1"
       style="stroke-width:0.553369" />
    <path
       d="m 213.5,273.7 c 0,-8.947 7.253,-16.2 16.2,-16.2 h 140.6 c 8.947,0 16.2,7.253 16.2,16.2 v 129.6 c 0,8.947 -7.253,16.2 -16.2,16.2 H 229.7 c -8.947,0 -16.2,-7.253 -16.2,-16.2 z"
       stroke="#0078d4"
       stroke-width="1.13333"
       stroke-linejoin="round"
       stroke-miterlimit="10"
       fill="#ffffff"
       fill-rule="evenodd"
       fill-opacity="0.901961"
       id="path1" />
    <text
       font-family="'Segoe UI', 'Segoe UI_MSFontService', sans-serif"
       font-weight="400"
       font-size="13px"
       transform="translate(219.06,275)"
       id="text1">•</text>
    <text
       font-family="'Segoe UI', 'Segoe UI_MSFontService', sans-serif"
       font-weight="400"
       font-size="13px"
       transform="translate(225.06,275)"
       id="text2">Define the compensation</text>
    <text
       font-family="'Segoe UI', 'Segoe UI_MSFontService', sans-serif"
       font-weight="400"
       font-size="13px"
       transform="translate(225.06,291)"
       id="text3">structure that applies to</text>
    <text
       font-family="'Segoe UI', 'Segoe UI_MSFontService', sans-serif"
       font-weight="400"
       font-size="13px"
       transform="translate(225.06,307)"
       id="text4">this position</text>
    <text
       font-family="'Segoe UI', 'Segoe UI_MSFontService', sans-serif"
       font-weight="400"
       font-size="13px"
       transform="translate(219.06,325)"
       id="text5">•</text>
    <text
       font-family="'Segoe UI', 'Segoe UI_MSFontService', sans-serif"
       font-weight="400"
       font-size="13px"
       transform="translate(225.06,325)"
       id="text6">Define relevant reason</text>
    <text
       font-family="'Segoe UI', 'Segoe UI_MSFontService', sans-serif"
       font-weight="400"
       font-size="13px"
       transform="translate(225.06,341)"
       id="text7">codes that might apply to</text>
    <text
       font-family="'Segoe UI', 'Segoe UI_MSFontService', sans-serif"
       font-weight="400"
       font-size="13px"
       transform="translate(225.06,357)"
       id="text8">the transfer</text>
    <path
       d="m 326.492,461.433 3.944,-2.239 c 22.751,40.076 73.682,54.121 113.758,31.37 10.873,-6.173 20.22,-14.709 27.35,-24.98 l -2.621,-1.488 8.601,-3.76 0.6,8.986 -2.622,-1.489 c -27.522,40.042 -82.293,50.192 -122.335,22.669 -10.978,-7.545 -20.099,-17.484 -26.675,-29.069 z"
       fill="#aabee6"
       fill-rule="evenodd"
       id="path8" />
    <path
       d="m 252.5,406.6 c 0,-3.369 2.731,-6.1 6.1,-6.1 h 139.8 c 3.369,0 6.1,2.731 6.1,6.1 v 48.8 c 0,3.369 -2.731,6.1 -6.1,6.1 H 258.6 c -3.369,0 -6.1,-2.731 -6.1,-6.1 z"
       stroke="#ffffff"
       stroke-width="1.13333"
       stroke-linejoin="round"
       stroke-miterlimit="10"
       fill="#0078d4"
       fill-rule="evenodd"
       id="path9" />
    <text
       fill="#ffffff"
       font-family="'Segoe UI', 'Segoe UI_MSFontService', sans-serif"
       font-weight="400"
       font-size="15px"
       transform="translate(256.708,418)"
       id="text9">Fulfil</text>
    <text
       fill="#ffffff"
       font-family="'Segoe UI', 'Segoe UI_MSFontService', sans-serif"
       font-weight="400"
       font-size="15px"
       transform="translate(291.442,418)"
       id="text10">the p</text>
    <text
       fill="#ffffff"
       font-family="'Segoe UI', 'Segoe UI_MSFontService', sans-serif"
       font-weight="400"
       font-size="15px"
       transform="translate(325.022,418)"
       id="text11">rerequisites</text>
    <text
       fill="#ffffff"
       font-family="'Segoe UI', 'Segoe UI_MSFontService', sans-serif"
       font-weight="400"
       font-size="15px"
       transform="translate(269.648,435)"
       id="text12">for transferring an</text>
    <text
       fill="#ffffff"
       font-family="'Segoe UI', 'Segoe UI_MSFontService', sans-serif"
       font-weight="400"
       font-size="15px"
       transform="translate(296.442,453)"
       id="text13">employee</text>
    <path
       d="m 426.5,293.3 c 0,-9.278 7.522,-16.8 16.8,-16.8 h 144.4 c 9.278,0 16.8,7.522 16.8,16.8 v 134.4 c 0,9.278 -7.522,16.8 -16.8,16.8 H 443.3 c -9.278,0 -16.8,-7.522 -16.8,-16.8 z"
       stroke="#0078d4"
       stroke-width="1.13333"
       stroke-linejoin="round"
       stroke-miterlimit="10"
       fill="#ffffff"
       fill-rule="evenodd"
       fill-opacity="0.901961"
       id="path13" />
    <text
       font-family="'Segoe UI', 'Segoe UI_MSFontService', sans-serif"
       font-weight="400"
       font-size="13px"
       transform="translate(431.63,331)"
       id="text14">•</text>
    <text
       font-family="'Segoe UI', 'Segoe UI_MSFontService', sans-serif"
       font-weight="400"
       font-size="13px"
       transform="translate(437.63,331)"
       id="text15">Define and set up the</text>
    <text
       font-family="'Segoe UI', 'Segoe UI_MSFontService', sans-serif"
       font-weight="400"
       font-size="13px"
       transform="translate(437.63,347)"
       id="text16">approval based on the</text>
    <text
       font-family="'Segoe UI', 'Segoe UI_MSFontService', sans-serif"
       font-weight="400"
       font-size="13px"
       transform="translate(437.63,363)"
       id="text17">business policy</text>
    <text
       font-family="'Segoe UI', 'Segoe UI_MSFontService', sans-serif"
       font-weight="400"
       font-size="13px"
       transform="translate(431.63,381)"
       id="text18">•</text>
    <text
       font-family="'Segoe UI', 'Segoe UI_MSFontService', sans-serif"
       font-weight="400"
       font-size="13px"
       transform="translate(437.63,381)"
       id="text19">Define task management</text>
    <text
       font-family="'Segoe UI', 'Segoe UI_MSFontService', sans-serif"
       font-weight="400"
       font-size="13px"
       transform="translate(437.63,397)"
       id="text20">for transitions</text>
    <path
       d="m 541.517,258.705 c 21.978,-49.144 79.634,-71.166 128.778,-49.188 13.722,6.137 25.839,15.364 35.403,26.96 l 2.469,-1.734 0.238,9.027 -8.899,-2.942 2.468,-1.734 c -32.809,-39.475 -91.406,-44.878 -130.881,-12.068 -10.931,9.085 -19.632,20.556 -25.435,33.532 z"
       fill="#aabee6"
       fill-rule="evenodd"
       id="path20" />
    <path
       d="m 467.5,265.6 c 0,-3.369 2.731,-6.1 6.1,-6.1 h 139.8 c 3.369,0 6.1,2.731 6.1,6.1 v 48.8 c 0,3.369 -2.731,6.1 -6.1,6.1 H 473.6 c -3.369,0 -6.1,-2.731 -6.1,-6.1 z"
       stroke="#ffffff"
       stroke-width="1.13333"
       stroke-linejoin="round"
       stroke-miterlimit="10"
       fill="#0078d4"
       fill-rule="evenodd"
       id="path21" />
    <text
       fill="#ffffff"
       font-family="'Segoe UI', 'Segoe UI_MSFontService', sans-serif"
       font-weight="400"
       font-size="15px"
       transform="translate(477.908,286)"
       id="text21">Define approval and</text>
    <text
       fill="#ffffff"
       font-family="'Segoe UI', 'Segoe UI_MSFontService', sans-serif"
       font-weight="400"
       font-size="15px"
       transform="translate(512.715,303)"
       id="text22">checklists</text>
    <path
       d="m 640.5,279.7 c 0,-8.947 7.253,-16.2 16.2,-16.2 h 141.6 c 8.947,0 16.2,7.253 16.2,16.2 v 129.6 c 0,8.947 -7.253,16.2 -16.2,16.2 H 656.7 c -8.947,0 -16.2,-7.253 -16.2,-16.2 z"
       stroke="#0078d4"
       stroke-width="1.13333"
       stroke-linejoin="round"
       stroke-miterlimit="10"
       fill="#ffffff"
       fill-rule="evenodd"
       fill-opacity="0.901961"
       id="path22" />
    <text
       font-family="'Segoe UI', 'Segoe UI_MSFontService', sans-serif"
       font-weight="400"
       font-size="13px"
       transform="translate(645.75,282)"
       id="text23">•</text>
    <text
       font-family="'Segoe UI', 'Segoe UI_MSFontService', sans-serif"
       font-weight="400"
       font-size="13px"
       transform="translate(651.75,282)"
       id="text24">Transfer an employee by</text>
    <text
       font-family="'Segoe UI', 'Segoe UI_MSFontService', sans-serif"
       font-weight="400"
       font-size="13px"
       transform="translate(651.75,298)"
       id="text25">maintaning directly on the</text>
    <text
       font-family="'Segoe UI', 'Segoe UI_MSFontService', sans-serif"
       font-weight="400"
       font-size="13px"
       transform="translate(651.75,314)"
       id="text26">employee</text>
    <text
       font-family="'Segoe UI', 'Segoe UI_MSFontService', sans-serif"
       font-weight="400"
       font-size="13px"
       transform="translate(645.75,332)"
       id="text27">•</text>
    <text
       font-family="'Segoe UI', 'Segoe UI_MSFontService', sans-serif"
       font-weight="400"
       font-size="13px"
       transform="translate(651.75,332)"
       id="text28">Transfer an employee by</text>
    <text
       font-family="'Segoe UI', 'Segoe UI_MSFontService', sans-serif"
       font-weight="400"
       font-size="13px"
       transform="translate(651.75,348)"
       id="text29">maintaining directly on</text>
    <text
       font-family="'Segoe UI', 'Segoe UI_MSFontService', sans-serif"
       font-weight="400"
       font-size="13px"
       transform="translate(651.75,364)"
       id="text30">the position</text>
    <path
       d="m 760.732,476.146 3.732,-2.574 c 28.206,40.889 84.219,51.17 125.108,22.964 11.256,-7.765 20.594,-17.994 27.302,-29.91 l -2.742,-1.254 8.219,-4.509 1.403,8.911 -2.743,-1.255 c -25.415,45.569 -82.96,61.908 -128.53,36.492 -12.657,-7.059 -23.52,-16.935 -31.749,-28.865 z"
       fill="#aabee6"
       fill-rule="evenodd"
       id="path30" />
    <path
       d="m 687.5,420.6 c 0,-3.369 2.731,-6.1 6.1,-6.1 h 139.8 c 3.369,0 6.1,2.731 6.1,6.1 v 48.8 c 0,3.369 -2.731,6.1 -6.1,6.1 H 693.6 c -3.369,0 -6.1,-2.731 -6.1,-6.1 z"
       stroke="#ffffff"
       stroke-width="1.13333"
       stroke-linejoin="round"
       stroke-miterlimit="10"
       fill="#0078d4"
       fill-rule="evenodd"
       id="path31" />
    <text
       fill="#ffffff"
       font-family="'Segoe UI', 'Segoe UI_MSFontService', sans-serif"
       font-weight="400"
       font-size="15px"
       transform="translate(693.062,441)"
       id="text31">Transfer</text>
    <text
       fill="#ffffff"
       font-family="'Segoe UI', 'Segoe UI_MSFontService', sans-serif"
       font-weight="400"
       font-size="15px"
       transform="translate(749.209,441)"
       id="text32">an employee</text>
    <text
       fill="#ffffff"
       font-family="'Segoe UI', 'Segoe UI_MSFontService', sans-serif"
       font-weight="400"
       font-size="15px"
       transform="translate(702.836,458)"
       id="text33">from legal entity A</text>
    <path
       d="m 854.5,294 c 0,-9.113 7.387,-16.5 16.5,-16.5 h 180 c 9.11,0 16.5,7.387 16.5,16.5 v 132 c 0,9.113 -7.39,16.5 -16.5,16.5 H 871 c -9.113,0 -16.5,-7.387 -16.5,-16.5 z"
       stroke="#0078d4"
       stroke-width="1.13333"
       stroke-linejoin="round"
       stroke-miterlimit="10"
       fill="#ffffff"
       fill-rule="evenodd"
       fill-opacity="0.901961"
       id="path33" />
    <text
       font-family="'Segoe UI', 'Segoe UI_MSFontService', sans-serif"
       font-weight="400"
       font-size="13px"
       transform="translate(859.577,332)"
       id="text34">•</text>
    <text
       font-family="'Segoe UI', 'Segoe UI_MSFontService', sans-serif"
       font-weight="400"
       font-size="13px"
       transform="translate(865.577,332)"
       id="text35">Terminate the employment</text>
    <text
       font-family="'Segoe UI', 'Segoe UI_MSFontService', sans-serif"
       font-weight="400"
       font-size="13px"
       transform="translate(1029.03,332)"
       id="text36">and</text>
    <text
       font-family="'Segoe UI', 'Segoe UI_MSFontService', sans-serif"
       font-weight="400"
       font-size="13px"
       transform="translate(865.577,348)"
       id="text37">worker position assignment in</text>
    <text
       font-family="'Segoe UI', 'Segoe UI_MSFontService', sans-serif"
       font-weight="400"
       font-size="13px"
       transform="translate(865.577,364)"
       id="text38">legal entity A</text>
    <text
       font-family="'Segoe UI', 'Segoe UI_MSFontService', sans-serif"
       font-weight="400"
       font-size="13px"
       transform="translate(859.577,382)"
       id="text39">•</text>
    <text
       font-family="'Segoe UI', 'Segoe UI_MSFontService', sans-serif"
       font-weight="400"
       font-size="13px"
       transform="translate(865.577,382)"
       id="text40">Hire and add a worker position</text>
    <text
       font-family="'Segoe UI', 'Segoe UI_MSFontService', sans-serif"
       font-weight="400"
       font-size="13px"
       transform="translate(865.577,398)"
       id="text41">assignment in legal entity B</text>
    <path
       d="m 913.5,265.6 c 0,-3.369 2.731,-6.1 6.1,-6.1 h 139.8 c 3.37,0 6.1,2.731 6.1,6.1 v 48.8 c 0,3.369 -2.73,6.1 -6.1,6.1 H 919.6 c -3.369,0 -6.1,-2.731 -6.1,-6.1 z"
       stroke="#ffffff"
       stroke-width="1.13333"
       stroke-linejoin="round"
       stroke-miterlimit="10"
       fill="#0078d4"
       fill-rule="evenodd"
       id="path41" />
    <text
       fill="#ffffff"
       font-family="'Segoe UI', 'Segoe UI_MSFontService', sans-serif"
       font-weight="400"
       font-size="15px"
       transform="translate(918.961,286)"
       id="text42">Transfer an employee</text>
    <text
       fill="#ffffff"
       font-family="'Segoe UI', 'Segoe UI_MSFontService', sans-serif"
       font-weight="400"
       font-size="15px"
       transform="translate(937.934,303)"
       id="text43">to legal entity</text>
    <text
       fill="#ffffff"
       font-family="'Segoe UI', 'Segoe UI_MSFontService', sans-serif"
       font-weight="400"
       font-size="15px"
       transform="translate(1031,303)"
       id="text44">B</text>
  </g>
</svg>
