<?xml version="1.0" encoding="UTF-8" standalone="no"?>
<svg
   width="1621.2303"
   height="1544.801"
   overflow="hidden"
   version="1.1"
   id="svg216"
   sodipodi:docname="hire-to-retire-manage-health-safety-flow.svg"
   inkscape:version="1.2.2 (732a01da63, 2022-12-09)"
   xmlns:inkscape="http://www.inkscape.org/namespaces/inkscape"
   xmlns:sodipodi="http://sodipodi.sourceforge.net/DTD/sodipodi-0.dtd"
   xmlns="http://www.w3.org/2000/svg"
   xmlns:svg="http://www.w3.org/2000/svg">
  <defs
     id="defs220" />
  <sodipodi:namedview
     id="namedview218"
     pagecolor="#ffffff"
     bordercolor="#000000"
     borderopacity="0.25"
     inkscape:showpageshadow="2"
     inkscape:pageopacity="0.0"
     inkscape:pagecheckerboard="0"
     inkscape:deskcolor="#d1d1d1"
     showgrid="false"
     inkscape:zoom="0.43177083"
     inkscape:cx="958.84198"
     inkscape:cy="1687.2376"
     inkscape:window-width="1920"
     inkscape:window-height="1010"
     inkscape:window-x="-6"
     inkscape:window-y="-6"
     inkscape:window-maximized="1"
     inkscape:current-layer="svg216" />
  <g
     id="g214"
     transform="translate(0,-16.212303)">
    <rect
       x="0"
       y="16.212303"
       width="1621.2303"
       height="1544.801"
       fill="#ffffff"
       id="rect2"
       style="stroke-width:0.824246" />
    <rect
       x="369"
       y="26"
       width="886"
       height="1523"
       stroke="#0078d4"
       stroke-width="2"
       stroke-linejoin="round"
       stroke-miterlimit="10"
       fill="#d9d9d9"
       id="rect4" />
    <text
       fill="#0078d4"
       font-family="'Segoe UI', 'Segoe UI_MSFontService', sans-serif"
       font-weight="700"
       font-size="43px"
       transform="translate(397.31,91)"
       id="text6">Business process area</text>
    <path
       d="m 33,286 c 0,-19.882 16.1177,-36 36,-36 h 216 c 19.882,0 36,16.118 36,36 v 0 c 0,19.882 -16.118,36 -36,36 H 69 C 49.1177,322 33,305.882 33,286 Z"
       stroke="#0078d4"
       stroke-width="2"
       stroke-linejoin="round"
       stroke-miterlimit="10"
       fill="#ffffff"
       fill-rule="evenodd"
       id="path8" />
    <text
       font-family="'Segoe UI', 'Segoe UI_MSFontService', sans-serif"
       font-weight="400"
       font-size="24px"
       transform="translate(152.008,295)"
       id="text10">Start</text>
    <rect
       x="33"
       y="389"
       width="288"
       height="168"
       stroke="#000000"
       stroke-width="2"
       stroke-linejoin="round"
       stroke-miterlimit="10"
       fill="#a0a0a0"
       id="rect12" />
    <text
       font-family="'Segoe UI', 'Segoe UI_MSFontService', sans-serif"
       font-weight="400"
       font-size="24px"
       transform="translate(110.114,481)"
       id="text14">Hire to retire</text>
    <rect
       x="719"
       y="137"
       width="288"
       height="168"
       stroke="#00569b"
       stroke-width="2"
       stroke-linejoin="round"
       stroke-miterlimit="10"
       fill="#0078d4"
       id="rect16" />
    <text
       fill="#ffffff"
       font-family="'Segoe UI', 'Segoe UI_MSFontService', sans-serif"
       font-weight="400"
       font-size="24px"
       transform="translate(749.294,215)"
       id="text18">Manage occupational</text>
    <text
       fill="#ffffff"
       font-family="'Segoe UI', 'Segoe UI_MSFontService', sans-serif"
       font-weight="400"
       font-size="24px"
       transform="translate(772.888,244)"
       id="text20">health and safety</text>
    <rect
       x="542"
       y="852"
       width="288"
       height="168"
       fill="#ffffff"
       id="rect22" />
    <path
       d="m 578,852 v 168 M 794,852 v 168"
       stroke="#0078d4"
       stroke-width="2"
       stroke-linejoin="round"
       stroke-miterlimit="10"
       fill="none"
       fill-rule="evenodd"
       id="path24" />
    <rect
       x="542"
       y="852"
       width="288"
       height="168"
       stroke="#0078d4"
       stroke-width="2"
       stroke-linejoin="round"
       stroke-miterlimit="10"
       fill="none"
       id="rect26" />
    <text
       font-family="'Segoe UI', 'Segoe UI_MSFontService', sans-serif"
       font-weight="400"
       font-size="24px"
       transform="translate(610.194,930)"
       id="text28">Analyze safety</text>
    <text
       font-family="'Segoe UI', 'Segoe UI_MSFontService', sans-serif"
       font-weight="400"
       font-size="24px"
       transform="translate(630.361,959)"
       id="text30">conditions</text>
    <rect
       x="542"
       y="618"
       width="288"
       height="168"
       fill="#ffffff"
       id="rect32" />
    <path
       d="M 578,618 V 786 M 794,618 v 168"
       stroke="#0078d4"
       stroke-width="2"
       stroke-linejoin="round"
       stroke-miterlimit="10"
       fill="none"
       fill-rule="evenodd"
       id="path34" />
    <rect
       x="542"
       y="618"
       width="288"
       height="168"
       stroke="#0078d4"
       stroke-width="2"
       stroke-linejoin="round"
       stroke-miterlimit="10"
       fill="none"
       id="rect36" />
    <text
       font-family="'Segoe UI', 'Segoe UI_MSFontService', sans-serif"
       font-weight="400"
       font-size="24px"
       transform="translate(631.003,653)"
       id="text38">Document</text>
    <text
       font-family="'Segoe UI', 'Segoe UI_MSFontService', sans-serif"
       font-weight="400"
       font-size="24px"
       transform="translate(655.083,682)"
       id="text40">safety</text>
    <text
       font-family="'Segoe UI', 'Segoe UI_MSFontService', sans-serif"
       font-weight="400"
       font-size="24px"
       transform="translate(633.917,711)"
       id="text42">protocols,</text>
    <text
       font-family="'Segoe UI', 'Segoe UI_MSFontService', sans-serif"
       font-weight="400"
       font-size="24px"
       transform="translate(620.67,740)"
       id="text44">policies, and</text>
    <text
       font-family="'Segoe UI', 'Segoe UI_MSFontService', sans-serif"
       font-weight="400"
       font-size="24px"
       transform="translate(627.063,769)"
       id="text46">procedures</text>
    <path
       d="m 1323,1414 c 0,-19.88 16.12,-36 36,-36 h 216 c 19.88,0 36,16.12 36,36 v 0 c 0,19.88 -16.12,36 -36,36 h -216 c -19.88,0 -36,-16.12 -36,-36 z"
       stroke="#0078d4"
       stroke-width="2"
       stroke-linejoin="round"
       stroke-miterlimit="10"
       fill="#ffffff"
       fill-rule="evenodd"
       id="path48" />
    <text
       font-family="'Segoe UI', 'Segoe UI_MSFontService', sans-serif"
       font-weight="400"
       font-size="24px"
       transform="translate(1447.16,1423)"
       id="text50">End</text>
    <path
       d="m 179,557.5 v 53.548 h -3 V 557.5 Z m 3,52.048 -4.5,9 -4.5,-9 z"
       fill="#0078d4"
       id="path52" />
    <rect
       x="542"
       y="389"
       width="288"
       height="168"
       fill="#ffffff"
       id="rect54" />
    <path
       d="M 578,389 V 557 M 794,389 v 168"
       stroke="#0078d4"
       stroke-width="2"
       stroke-linejoin="round"
       stroke-miterlimit="10"
       fill="none"
       fill-rule="evenodd"
       id="path56" />
    <rect
       x="542"
       y="389"
       width="288"
       height="168"
       stroke="#0078d4"
       stroke-width="2"
       stroke-linejoin="round"
       stroke-miterlimit="10"
       fill="none"
       id="rect58" />
    <text
       font-family="'Segoe UI', 'Segoe UI_MSFontService', sans-serif"
       font-weight="400"
       font-size="24px"
       transform="translate(646.143,452)"
       id="text60">Identify</text>
    <text
       font-family="'Segoe UI', 'Segoe UI_MSFontService', sans-serif"
       font-weight="400"
       font-size="24px"
       transform="translate(632.457,481)"
       id="text62">workplace</text>
    <text
       font-family="'Segoe UI', 'Segoe UI_MSFontService', sans-serif"
       font-weight="400"
       font-size="24px"
       transform="translate(645.657,510)"
       id="text64">hazards</text>
    <rect
       x="33"
       y="618"
       width="288"
       height="168"
       stroke="#00569b"
       stroke-width="2"
       stroke-linejoin="round"
       stroke-miterlimit="10"
       fill="#0078d4"
       id="rect66" />
    <text
       fill="#ffffff"
       font-family="'Segoe UI', 'Segoe UI_MSFontService', sans-serif"
       font-weight="400"
       font-size="24px"
       transform="translate(106.694,681)"
       id="text68">Onboard and</text>
    <text
       fill="#ffffff"
       font-family="'Segoe UI', 'Segoe UI_MSFontService', sans-serif"
       font-weight="400"
       font-size="24px"
       transform="translate(113.881,710)"
       id="text70">manage the</text>
    <text
       fill="#ffffff"
       font-family="'Segoe UI', 'Segoe UI_MSFontService', sans-serif"
       font-weight="400"
       font-size="24px"
       transform="translate(79.7545,739)"
       id="text72">employee lifecycle</text>
    <path
       d="m 865.051,305.5 v 41.655 c 0,0.829 -0.671,1.5 -1.5,1.5 H 686.5 l 1.5,-1.5 v 34.155 h -3 v -34.155 c 0,-0.828 0.672,-1.5 1.5,-1.5 h 177.051 l -1.5,1.5 V 305.5 Z M 691,379.81 l -4.5,9 -4.5,-9 z"
       fill="#0078d4"
       id="path74" />
    <path
       d="m 688,557.5 v 53.548 h -3 V 557.5 Z m 3,52.048 -4.5,9 -4.5,-9 z"
       fill="#0078d4"
       id="path76" />
    <rect
       x="1311"
       y="852"
       width="288"
       height="168"
       stroke="#000000"
       stroke-width="2"
       stroke-linejoin="round"
       stroke-miterlimit="10"
       fill="#a0a0a0"
       id="rect78" />
    <text
       font-family="'Segoe UI', 'Segoe UI_MSFontService', sans-serif"
       font-weight="400"
       font-size="24px"
       transform="translate(1368.01,944)"
       id="text80">Record to report</text>
    <path
       d="m 0,-1.5 h 83.1182 c 0.8285,0 1.5,0.671573 1.5,1.5 v 480.358 l -1.5,-1.5 H 390.92 v 3 H 83.1182 c -0.8284,0 -1.5,-0.671 -1.5,-1.5 V 0 l 1.5,1.5 H 0 Z m 389.42,477.358 9,4.5 -9,4.5 z"
       fill="#0078d4"
       transform="matrix(1,0,0,-1,321.5,701.858)"
       id="path82" />
    <path
       d="m 0,-1.5 h 161.026 c 0.829,0 1.5,0.671573 1.5,1.5 v 272.009 h -3 V 0 l 1.5,1.5 H 0 Z m 165.526,272.009 -4.5,9 -4.5,-9 z"
       fill="#0078d4"
       transform="matrix(0,1,1,0,1044.5,1253.5)"
       id="path84" />
    <path
       d="m 688,1020.5 v 58.44 h -3 v -58.44 z m 3,56.94 -4.5,9 -4.5,-9 z"
       fill="#0078d4"
       id="path86" />
    <rect
       x="542"
       y="1085"
       width="288"
       height="168"
       fill="#ffffff"
       id="rect88" />
    <path
       d="m 578,1085 v 168 m 216,-168 v 168"
       stroke="#0078d4"
       stroke-width="2"
       stroke-linejoin="round"
       stroke-miterlimit="10"
       fill="none"
       fill-rule="evenodd"
       id="path90" />
    <rect
       x="542"
       y="1085"
       width="288"
       height="168"
       stroke="#0078d4"
       stroke-width="2"
       stroke-linejoin="round"
       stroke-miterlimit="10"
       fill="none"
       id="rect92" />
    <text
       font-family="'Segoe UI', 'Segoe UI_MSFontService', sans-serif"
       font-weight="400"
       font-size="24px"
       transform="translate(631.531,1164)"
       id="text94">Conduct a</text>
    <text
       font-family="'Segoe UI', 'Segoe UI_MSFontService', sans-serif"
       font-weight="400"
       font-size="24px"
       transform="translate(624.278,1193)"
       id="text96">safety audit</text>
    <rect
       x="542"
       y="1331"
       width="288"
       height="167"
       fill="#ffffff"
       id="rect98" />
    <path
       d="m 578,1331 v 167 m 216,-167 v 167"
       stroke="#0078d4"
       stroke-width="2"
       stroke-linejoin="round"
       stroke-miterlimit="10"
       fill="none"
       fill-rule="evenodd"
       id="path100" />
    <rect
       x="542"
       y="1331"
       width="288"
       height="167"
       stroke="#0078d4"
       stroke-width="2"
       stroke-linejoin="round"
       stroke-miterlimit="10"
       fill="none"
       id="rect102" />
    <text
       font-family="'Segoe UI', 'Segoe UI_MSFontService', sans-serif"
       font-weight="400"
       font-size="24px"
       transform="translate(617.822,1394)"
       id="text104">Train staff on</text>
    <text
       font-family="'Segoe UI', 'Segoe UI_MSFontService', sans-serif"
       font-weight="400"
       font-size="24px"
       transform="translate(654.862,1423)"
       id="text106">safety</text>
    <text
       font-family="'Segoe UI', 'Segoe UI_MSFontService', sans-serif"
       font-weight="400"
       font-size="24px"
       transform="translate(636.282,1452)"
       id="text108">protocols</text>
    <rect
       x="900"
       y="852"
       width="288"
       height="168"
       fill="#ffffff"
       id="rect110" />
    <path
       d="m 936,852 v 168 m 216,-168 v 168"
       stroke="#0078d4"
       stroke-width="2"
       stroke-linejoin="round"
       stroke-miterlimit="10"
       fill="none"
       fill-rule="evenodd"
       id="path112" />
    <rect
       x="900"
       y="852"
       width="288"
       height="168"
       stroke="#0078d4"
       stroke-width="2"
       stroke-linejoin="round"
       stroke-miterlimit="10"
       fill="none"
       id="rect114" />
    <text
       font-family="'Segoe UI', 'Segoe UI_MSFontService', sans-serif"
       font-weight="400"
       font-size="24px"
       transform="translate(967.935,901)"
       id="text116">Determine the</text>
    <text
       font-family="'Segoe UI', 'Segoe UI_MSFontService', sans-serif"
       font-weight="400"
       font-size="24px"
       transform="translate(964.688,930)"
       id="text118">cost of care for</text>
    <text
       font-family="'Segoe UI', 'Segoe UI_MSFontService', sans-serif"
       font-weight="400"
       font-size="24px"
       transform="translate(999.335,959)"
       id="text120">injury or</text>
    <text
       font-family="'Segoe UI', 'Segoe UI_MSFontService', sans-serif"
       font-weight="400"
       font-size="24px"
       transform="translate(1011.65,988)"
       id="text122">illness</text>
    <rect
       x="900"
       y="389"
       width="288"
       height="168"
       fill="#ffffff"
       id="rect124" />
    <path
       d="M 936,389 V 557 M 1152,389 V 557"
       stroke="#0078d4"
       stroke-width="2"
       stroke-linejoin="round"
       stroke-miterlimit="10"
       fill="none"
       fill-rule="evenodd"
       id="path126" />
    <rect
       x="900"
       y="389"
       width="288"
       height="168"
       stroke="#0078d4"
       stroke-width="2"
       stroke-linejoin="round"
       stroke-miterlimit="10"
       fill="none"
       id="rect128" />
    <text
       font-family="'Segoe UI', 'Segoe UI_MSFontService', sans-serif"
       font-weight="400"
       font-size="24px"
       transform="translate(991.718,452)"
       id="text130">Report an</text>
    <text
       font-family="'Segoe UI', 'Segoe UI_MSFontService', sans-serif"
       font-weight="400"
       font-size="24px"
       transform="translate(999.332,481)"
       id="text132">injury or</text>
    <text
       font-family="'Segoe UI', 'Segoe UI_MSFontService', sans-serif"
       font-weight="400"
       font-size="24px"
       transform="translate(1011.65,510)"
       id="text134">illness</text>
    <rect
       x="900"
       y="1085"
       width="288"
       height="168"
       fill="#ffffff"
       id="rect136" />
    <path
       d="m 936,1085 v 168 m 216,-168 v 168"
       stroke="#0078d4"
       stroke-width="2"
       stroke-linejoin="round"
       stroke-miterlimit="10"
       fill="none"
       fill-rule="evenodd"
       id="path138" />
    <rect
       x="900"
       y="1085"
       width="288"
       height="168"
       stroke="#0078d4"
       stroke-width="2"
       stroke-linejoin="round"
       stroke-miterlimit="10"
       fill="none"
       id="rect140" />
    <text
       font-family="'Segoe UI', 'Segoe UI_MSFontService', sans-serif"
       font-weight="400"
       font-size="24px"
       transform="translate(979.398,1149)"
       id="text142">Analyze and</text>
    <text
       font-family="'Segoe UI', 'Segoe UI_MSFontService', sans-serif"
       font-weight="400"
       font-size="24px"
       transform="translate(971.992,1178)"
       id="text144">communicate</text>
    <text
       font-family="'Segoe UI', 'Segoe UI_MSFontService', sans-serif"
       font-weight="400"
       font-size="24px"
       transform="translate(978.232,1207)"
       id="text146">about safety</text>
    <rect
       x="900"
       y="618"
       width="288"
       height="168"
       fill="#ffffff"
       id="rect148" />
    <path
       d="M 936,618 V 786 M 1152,618 V 786"
       stroke="#0078d4"
       stroke-width="2"
       stroke-linejoin="round"
       stroke-miterlimit="10"
       fill="none"
       fill-rule="evenodd"
       id="path150" />
    <rect
       x="900"
       y="618"
       width="288"
       height="168"
       stroke="#0078d4"
       stroke-width="2"
       stroke-linejoin="round"
       stroke-miterlimit="10"
       fill="none"
       id="rect152" />
    <text
       font-family="'Segoe UI', 'Segoe UI_MSFontService', sans-serif"
       font-weight="400"
       font-size="24px"
       transform="translate(1018.64,667)"
       id="text154">Seek</text>
    <text
       font-family="'Segoe UI', 'Segoe UI_MSFontService', sans-serif"
       font-weight="400"
       font-size="24px"
       transform="translate(973.472,696)"
       id="text156">treatment for</text>
    <text
       font-family="'Segoe UI', 'Segoe UI_MSFontService', sans-serif"
       font-weight="400"
       font-size="24px"
       transform="translate(983.252,725)"
       id="text158">an injury or</text>
    <text
       font-family="'Segoe UI', 'Segoe UI_MSFontService', sans-serif"
       font-weight="400"
       font-size="24px"
       transform="translate(1011.64,754)"
       id="text160">illness</text>
    <path
       d="M 1.49993,-0.0146043 2.0689,58.4215 -0.930956,58.4507 -1.49993,0.0146043 Z M 5.05416,56.8924 0.641995,65.9357 -3.94542,56.98 Z"
       fill="#0078d4"
       transform="matrix(-1,0,0,1,687.142,786.5)"
       id="path162" />
    <path
       d="m 688,1253.49 0.377,70.11 -3,0.02 -0.377,-70.11 z m 3.369,68.6 -4.452,9.02 -4.548,-8.97 z"
       fill="#0078d4"
       id="path164" />
    <path
       d="m 0,-1.5 h 41.6551 c 0.8284,0 1.5,0.671573 1.5,1.5 v 180.344 l -1.5,-1.5 h 34.1548 v 3 H 41.6551 c -0.8285,0 -1.5,-0.672 -1.5,-1.5 V 0 l 1.5,1.5 H 0 Z m 74.3099,177.344 9,4.5 -9,4.5 z"
       fill="#0078d4"
       transform="matrix(0,1,1,0,863.5,305.5)"
       id="path166" />
    <rect
       x="33"
       y="852"
       width="288"
       height="168"
       stroke="#00569b"
       stroke-width="2"
       stroke-linejoin="round"
       stroke-miterlimit="10"
       fill="#0078d4"
       id="rect168" />
    <text
       fill="#ffffff"
       font-family="'Segoe UI', 'Segoe UI_MSFontService', sans-serif"
       font-weight="400"
       font-size="24px"
       transform="translate(78.6944,915)"
       id="text170">Manage employee</text>
    <text
       fill="#ffffff"
       font-family="'Segoe UI', 'Segoe UI_MSFontService', sans-serif"
       font-weight="400"
       font-size="24px"
       transform="translate(86.0078,944)"
       id="text172">performance and</text>
    <text
       fill="#ffffff"
       font-family="'Segoe UI', 'Segoe UI_MSFontService', sans-serif"
       font-weight="400"
       font-size="24px"
       transform="translate(139.208,973)"
       id="text174">growth</text>
    <rect
       x="33"
       y="1085"
       width="288"
       height="168"
       stroke="#000000"
       stroke-width="2"
       stroke-linejoin="round"
       stroke-miterlimit="10"
       fill="#a0a0a0"
       id="rect176" />
    <text
       font-family="'Segoe UI', 'Segoe UI_MSFontService', sans-serif"
       font-weight="400"
       font-size="24px"
       transform="translate(95.2911,1178)"
       id="text178">Design to retire</text>
    <rect
       x="33"
       y="1331"
       width="288"
       height="168"
       stroke="#00569b"
       stroke-width="2"
       stroke-linejoin="round"
       stroke-miterlimit="10"
       fill="#0078d4"
       id="rect180" />
    <text
       fill="#ffffff"
       font-family="'Segoe UI', 'Segoe UI_MSFontService', sans-serif"
       font-weight="400"
       font-size="24px"
       transform="translate(101.208,1409)"
       id="text182">Introduce new</text>
    <text
       fill="#ffffff"
       font-family="'Segoe UI', 'Segoe UI_MSFontService', sans-serif"
       font-weight="400"
       font-size="24px"
       transform="translate(130.121,1438)"
       id="text184">products</text>
    <path
       d="m 179,786.5 v 58.436 h -3 V 786.5 Z m 3,56.936 -4.5,9 -4.5,-9 z"
       fill="#0078d4"
       id="path186" />
    <path
       d="m 0,-1.5 h 110.684 c 0.829,0 1.5,0.671573 1.5,1.5 v 233.936 l -1.5,-1.5 h 103.185 v 3 H 110.684 c -0.828,0 -1.5,-0.672 -1.5,-1.5 V 0 l 1.5,1.5 H 0 Z m 212.369,230.936 9,4.5 -9,4.5 z"
       fill="#0078d4"
       transform="matrix(1,0,0,-1,321.5,936.436)"
       id="path188" />
    <path
       d="m 0,-1.5 h 110.685 c 0.828,0 1.5,0.671573 1.5,1.5 v 713.484 l -1.5,-1.5 h 103.184 v 3 H 110.685 c -0.829,0 -1.5,-0.671 -1.5,-1.5 V 0 l 1.5,1.5 H 0 Z m 212.369,710.484 9,4.5 -9,4.5 z"
       fill="#0078d4"
       transform="matrix(1,0,0,-1,321.5,1415.98)"
       id="path190" />
    <path
       d="m 0,-1.5 h 24 c 0.8284,0 1.5,0.671573 1.5,1.5 v 883.053 c 0,0.829 -0.6716,1.5 -1.5,1.5 H 8.83333 v -3 H 24 l -1.5,1.5 V 0 L 24,1.5 H 0 Z m 10.3333,889.053 -8.99997,-4.5 8.99997,-4.5 z"
       fill="#0078d4"
       transform="matrix(-1,0,0,1,34.8334,286.5)"
       id="path192" />
    <path
       d="m 0,-1.5 h 24 c 0.8284,0 1.5,0.671573 1.5,1.5 v 186.134 c 0,0.828 -0.6716,1.5 -1.5,1.5 H 8.83333 v -3 H 24 l -1.5,1.5 V 0 L 24,1.5 H 0 Z m 10.3333,192.134 -8.99997,-4.5 8.99997,-4.5 z"
       fill="#0078d4"
       transform="matrix(-1,0,0,1,34.8334,286.5)"
       id="path194" />
    <path
       d="m 1046,557.5 v 53.548 h -3 V 557.5 Z m 3,52.048 -4.5,9 -4.5,-9 z"
       fill="#0078d4"
       id="path196" />
    <rect
       x="1311"
       y="1085"
       width="288"
       height="168"
       stroke="#00569b"
       stroke-width="2"
       stroke-linejoin="round"
       stroke-miterlimit="10"
       fill="#0078d4"
       id="rect198" />
    <text
       fill="#ffffff"
       font-family="'Segoe UI', 'Segoe UI_MSFontService', sans-serif"
       font-weight="400"
       font-size="24px"
       transform="translate(1371.44,1164)"
       id="text200">Record financial</text>
    <text
       fill="#ffffff"
       font-family="'Segoe UI', 'Segoe UI_MSFontService', sans-serif"
       font-weight="400"
       font-size="24px"
       transform="translate(1391.53,1193)"
       id="text202">transactions</text>
    <path
       d="m 1046,786.5 v 58.436 h -3 V 786.5 Z m 3,56.936 -4.5,9 -4.5,-9 z"
       fill="#0078d4"
       id="path204" />
    <path
       d="m 1046,1020.5 v 58.44 h -3 v -58.44 z m 3,56.94 -4.5,9 -4.5,-9 z"
       fill="#0078d4"
       id="path206" />
    <path
       d="m 1188.5,935 h 116.13 v 3 H 1188.5 Z m 114.63,-3 9,4.5 -9,4.5 z"
       fill="#0078d4"
       id="path208" />
    <path
       d="m 1457,1020.5 v 58.44 h -3 v -58.44 z m 3,56.94 -4.5,9 -4.5,-9 z"
       fill="#0078d4"
       id="path210" />
    <path
       d="M 1.49993,-0.0149189 2.6689,117.512 -0.330951,117.542 -1.49993,0.0149189 Z M 5.65383,115.982 l -4.41026,9.044 -4.58929,-8.954 z"
       fill="#0078d4"
       transform="matrix(-1,0,0,1,1468.74,1253.5)"
       id="path212" />
  </g>
</svg>
