<?xml version="1.0"?>
<svg xmlns="http://www.w3.org/2000/svg" xmlns:xlink="http://www.w3.org/1999/xlink" xmlns:ev="http://www.w3.org/2001/xml-events"    viewBox="36 36 722 621"    xml:space="preserve" color-interpolation-filters="sRGB" class="st14" width="1805" height="1553">
<rect x="0" y="0" width="1805" height="1553" fill="#ffffff" />
	<style type="text/css"><![CDATA[
		.st1 {fill:#f2f2f2;stroke:#000000;stroke-linecap:round;stroke-linejoin:round;stroke-width:0.75}
		.st2 {fill:#ffffff;stroke:#0078d4;stroke-linecap:round;stroke-linejoin:round;stroke-width:0.24}
		.st3 {fill:#000000;font-family:Calibri;font-size:1.00001em}
		.st4 {fill:#a0a0a0;stroke:none;stroke-linecap:round;stroke-linejoin:round;stroke-width:0.24}
		.st5 {fill:#0078d4;stroke:none;stroke-linecap:round;stroke-linejoin:round;stroke-width:0.24}
		.st6 {fill:#ffffff;font-family:Calibri;font-size:1.00001em}
		.st7 {font-size:1em}
		.st8 {fill:#ffffff}
		.st9 {stroke:#0078d4;stroke-linecap:round;stroke-linejoin:round;stroke-width:0.24}
		.st10 {marker-end:url(#mrkr13-101);stroke:#0078d4;stroke-linecap:round;stroke-linejoin:round;stroke-width:0.75}
		.st11 {fill:#0078d4;fill-opacity:1;stroke:#0078d4;stroke-opacity:1;stroke-width:0.22935779816514}
		.st12 {fill:none;stroke:none;stroke-linecap:round;stroke-linejoin:round;stroke-width:0.75}
		.st13 {fill:#0078d4;font-family:Calibri;font-size:1.00001em;font-weight:bold}
		.st14 {fill:none;fill-rule:evenodd;font-size:12px;overflow:visible;stroke-linecap:square;stroke-miterlimit:3}
	]]></style><style> a { pointer-events: none; } </style><style>a.rules_svg_anchor g:hover { opacity:0.8; cursor:pointer; }</style>
	<defs id="Markers">
		<g id="lend13">
			<path d="M 3 1 L 0 0 L 3 -1 L 3 1 " style="stroke:none" />
		</g>
		<marker id="mrkr13-101" class="st11" refX="-13.08" orient="auto" markerUnits="strokeWidth" overflow="visible">
			<use xlink:href="#lend13" transform="scale(-4.36,-4.36) " />
		</marker>
	</defs>
	<g>
		
		<g id="shape48-1" transform="translate(216,-541.125)">
			
			<rect x="0" y="586.125" width="360" height="601.875" class="st1" />
		</g>
		<g id="shape1-3" transform="translate(42.75,-1116)">
			
			<desc>Start</desc>
			<path d="M18 1188 L67.5 1188 A18 18 -180 0 0 67.5 1152 L18 1152 A18 18 -180 1 0 18 1188 Z" class="st2" />
			<text x="31.01" y="1173.6" class="st3">Start</text>
		</g>
		<a id="c32362f6-6f34-486d-b419-972ef41c1681" class="rules_svg_anchor rules_svg_shape"   href="/lms/chart?onclick=b3BlbkNoYXJ0Q29udGV4dE1lbnUoZXZlbnQsJ3cxMTZkNTIzNTk2NWMxNzAyMHY0MDcxJywxODE2OCwgMSwgMSwgdGhpcywgd2luZG93LmZyYW1lRWxlbWVudCk=&amp;navigate=true&amp;details=Description">
			<g id="shape2-6" transform="translate(36,-1026)">
				
				<desc>55 Hire to retire</desc>
				<rect x="0" y="1125" width="99" height="63" class="st4" />
				<text x="10.44" y="1160.1" class="st3">55 Hire to retire</text>
			</g>
		</a>
		<a id="bdaa203c-c362-4491-8de5-1db7c7a5db7c" class="rules_svg_anchor rules_svg_shape"   href="/lms/chart?onclick=b3BlbkNoYXJ0Q29udGV4dE1lbnUoZXZlbnQsJ3cxMTZkNTIzNTk2NWMxNzA2OHY0MDcxJywxODIwMywgMSwgMSwgdGhpcywgd2luZG93LmZyYW1lRWxlbWVudCk=&amp;navigate=true&amp;details=Description">
			<g id="shape3-9" transform="translate(328.5,-1026)">
				
				<desc>55.50 Manage time and attendance</desc>
				<rect x="0" y="1125" width="126" height="63" class="st5" />
				<text x="5.07" y="1152.9" class="st6">55.50 Manage time and <tspan x="35.27" dy="1.2em" class="st7">attendance</tspan>
				</text>
			</g>
		</a>
		<a id="e61146b4-f4d4-4aec-8715-9ad43a4bb92f" class="rules_svg_anchor rules_svg_shape"   href="/lms/chart?onclick=b3BlbkNoYXJ0Q29udGV4dE1lbnUoZXZlbnQsJ3cxMTZkNTIzNTk2NWMxNzA2OXY0MDcxJywxODIwNCwgMSwgMSwgdGhpcywgd2luZG93LmZyYW1lRWxlbWVudCk=&amp;navigate=true&amp;details=Description">
			<g id="shape4-13" transform="translate(234,-936)">
				
				<desc>55.50.010 Develop leave and absence policies</desc>
				<path d="M0 1188 L126 1188 L126 1125 L0 1125 L0 1188 Z" class="st8" />
				<path d="M0 1188 L126 1188 L126 1125 L0 1125 L0 1188" class="st9" />
				<path d="M9 1188 L9 1125" class="st9" />
				<path d="M117 1188 L117 1125" class="st9" />
				<text x="17.26" y="1145.7" class="st3">55.50.010 Develop <tspan x="18.14" dy="1.2em" class="st7">leave and absence </tspan>
					<tspan x="44.68" dy="1.2em" class="st7">policies</tspan>
				</text>
			</g>
		</a>
		<a id="07235508-2af7-4c37-abb3-e12400c40a1f" class="rules_svg_anchor rules_svg_shape"   href="/lms/chart?onclick=b3BlbkNoYXJ0Q29udGV4dE1lbnUoZXZlbnQsJ3cxMTZkNTIzNTk2NWMxNzA3MHY0MDcxJywxODIwNSwgMSwgMSwgdGhpcywgd2luZG93LmZyYW1lRWxlbWVudCk=&amp;navigate=true&amp;details=Description">
			<g id="shape5-21" transform="translate(234,-846)">
				
				<desc>55.50.020 Record employee absences</desc>
				<path d="M0 1188 L126 1188 L126 1125 L0 1125 L0 1188 Z" class="st8" />
				<path d="M0 1188 L126 1188 L126 1125 L0 1125 L0 1188" class="st9" />
				<path d="M9 1188 L9 1125" class="st9" />
				<path d="M117 1188 L117 1125" class="st9" />
				<text x="20.14" y="1152.9" class="st3">55.50.020 Record <tspan x="15.1" dy="1.2em" class="st7">employee absences</tspan>
				</text>
			</g>
		</a>
		<a id="c62a21a4-ddd0-45a1-b4e0-08cda53b54e7" class="rules_svg_anchor rules_svg_shape"   href="/lms/chart?onclick=b3BlbkNoYXJ0Q29udGV4dE1lbnUoZXZlbnQsJ3cxMTZkNTIzNTk2NWMxNzA3MnY0MDcxJywxODIwNywgMSwgMSwgdGhpcywgd2luZG93LmZyYW1lRWxlbWVudCk=&amp;navigate=true&amp;details=Description">
			<g id="shape6-28" transform="translate(234,-666)">
				
				<desc>55.50.040 Request time off</desc>
				<path d="M0 1188 L126 1188 L126 1125 L0 1125 L0 1188 Z" class="st8" />
				<path d="M0 1188 L126 1188 L126 1125 L0 1125 L0 1188" class="st9" />
				<path d="M9 1188 L9 1125" class="st9" />
				<path d="M117 1188 L117 1125" class="st9" />
				<text x="17.44" y="1152.9" class="st3">55.50.040 Request <tspan x="43.65" dy="1.2em" class="st7">time off</tspan>
				</text>
			</g>
		</a>
		<a id="b2cf4691-c9dc-452f-b938-72f094a41901" class="rules_svg_anchor rules_svg_shape"   href="/lms/chart?onclick=b3BlbkNoYXJ0Q29udGV4dE1lbnUoZXZlbnQsJ3cxMTZkNTIzNTk2NWMxNzA3M3Y0MDcxJywxODIwOCwgMSwgMSwgdGhpcywgd2luZG93LmZyYW1lRWxlbWVudCk=&amp;navigate=true&amp;details=Description">
			<g id="shape7-35" transform="translate(234,-576)">
				
				<desc>55.50.050 Record employee time</desc>
				<path d="M0 1188 L126 1188 L126 1125 L0 1125 L0 1188 Z" class="st8" />
				<path d="M0 1188 L126 1188 L126 1125 L0 1125 L0 1188" class="st9" />
				<path d="M9 1188 L9 1125" class="st9" />
				<path d="M117 1188 L117 1125" class="st9" />
				<text x="20.14" y="1152.9" class="st3">55.50.050 Record <tspan x="26.32" dy="1.2em" class="st7">employee time</tspan>
				</text>
			</g>
		</a>
		<a id="1b89ff8d-7ca5-460d-9da8-483dc013a0e1" class="rules_svg_anchor rules_svg_shape"   href="/lms/chart?onclick=b3BlbkNoYXJ0Q29udGV4dE1lbnUoZXZlbnQsJ3cxMTZkNTIzNTk2NWMxNzA3MXY0MDcxJywxODIwNiwgMSwgMSwgdGhpcywgd2luZG93LmZyYW1lRWxlbWVudCk=&amp;navigate=true&amp;details=Description">
			<g id="shape8-42" transform="translate(234,-756)">
				
				<desc>55.50.030 Manage shifts</desc>
				<path d="M0 1188 L126 1188 L126 1125 L0 1125 L0 1188 Z" class="st8" />
				<path d="M0 1188 L126 1188 L126 1125 L0 1125 L0 1188" class="st9" />
				<path d="M9 1188 L9 1125" class="st9" />
				<path d="M117 1188 L117 1125" class="st9" />
				<text x="17.49" y="1152.9" class="st3">55.50.030 Manage <tspan x="49.94" dy="1.2em" class="st7">shifts</tspan>
				</text>
			</g>
		</a>
		<a id="ead8e96e-4604-475a-b51a-5411bf3ed082" class="rules_svg_anchor rules_svg_shape"   href="/lms/chart?onclick=b3BlbkNoYXJ0Q29udGV4dE1lbnUoZXZlbnQsJ3cxMTZkNTIzNTk2NWMxMDMzNTR2NDA3MScsMTgyMDksIDEsIDEsIHRoaXMsIHdpbmRvdy5mcmFtZUVsZW1lbnQp&amp;navigate=true&amp;details=Description">
			<g id="shape9-49" transform="translate(423,-801)">
				
				<desc>55.50.100 Request travel</desc>
				<path d="M0 1188 L126 1188 L126 1125 L0 1125 L0 1188 Z" class="st8" />
				<path d="M0 1188 L126 1188 L126 1125 L0 1125 L0 1188" class="st9" />
				<path d="M9 1188 L9 1125" class="st9" />
				<path d="M117 1188 L117 1125" class="st9" />
				<text x="17.44" y="1152.9" class="st3">55.50.100 Request <tspan x="48.95" dy="1.2em" class="st7">travel</tspan>
				</text>
			</g>
		</a>
		<a id="b93be526-5894-4c03-94e8-22d9fce838c3" class="rules_svg_anchor rules_svg_shape"   href="/lms/chart?onclick=b3BlbkNoYXJ0Q29udGV4dE1lbnUoZXZlbnQsJ3cxMTZkNTIzNTk2NWMxMDMzNTV2NDA3MScsMTgyMTAsIDEsIDEsIHRoaXMsIHdpbmRvdy5mcmFtZUVsZW1lbnQp&amp;navigate=true&amp;details=Description">
			<g id="shape10-56" transform="translate(423,-706.5)">
				
				<desc>55.50.200 Manage employee travel</desc>
				<path d="M0 1188 L126 1188 L126 1125 L0 1125 L0 1188 Z" class="st8" />
				<path d="M0 1188 L126 1188 L126 1125 L0 1125 L0 1188" class="st9" />
				<path d="M9 1188 L9 1125" class="st9" />
				<path d="M117 1188 L117 1125" class="st9" />
				<text x="17.49" y="1152.9" class="st3">55.50.200 Manage <tspan x="23.44" dy="1.2em" class="st7">employee travel</tspan>
				</text>
			</g>
		</a>
		<a id="c10dede5-0a44-44c4-b26a-580e02668ec0" class="rules_svg_anchor rules_svg_shape"   href="/lms/chart?onclick=b3BlbkNoYXJ0Q29udGV4dE1lbnUoZXZlbnQsJ3cxMTZkNTIzNTk2NWMxNzE1NXY0MDcxJywxODI4MSwgMSwgMSwgdGhpcywgd2luZG93LmZyYW1lRWxlbWVudCk=&amp;navigate=true&amp;details=Description">
			<g id="shape12-63" transform="translate(36,-846)">
				
				<desc>65 Order to cash</desc>
				<rect x="0" y="1125" width="99" height="63" class="st4" />
				<text x="8.97" y="1160.1" class="st3">65 Order to cash</text>
			</g>
		</a>
		<a id="03a7b818-b88a-411e-aa32-fe7131743f72" class="rules_svg_anchor rules_svg_shape"   href="/lms/chart?onclick=b3BlbkNoYXJ0Q29udGV4dE1lbnUoZXZlbnQsJ3cxMTZkNTIzNTk2NWMxNzIzMHY0MDcxJywxODMyNywgMSwgMSwgdGhpcywgd2luZG93LmZyYW1lRWxlbWVudCk=&amp;navigate=true&amp;details=Description">
			<g id="shape13-66" transform="translate(36,-756)">
				
				<desc>70 Plan to produce</desc>
				<rect x="0" y="1125" width="99" height="63" class="st4" />
				<text x="3.44" y="1160.1" class="st3">70 Plan to produce</text>
			</g>
		</a>
		<a id="defe03bc-7fc6-4d69-a212-e191f38df4a7" class="rules_svg_anchor rules_svg_shape"   href="/lms/chart?onclick=b3BlbkNoYXJ0Q29udGV4dE1lbnUoZXZlbnQsJ3cxMTZkNTIzNTk2NWMxNzMxOXY0MDcxJywxODQxMiwgMSwgMSwgdGhpcywgd2luZG93LmZyYW1lRWxlbWVudCk=&amp;navigate=true&amp;details=Description">
			<g id="shape14-69" transform="translate(36,-666)">
				
				<desc>80 Project to profit</desc>
				<rect x="0" y="1125" width="99" height="63" class="st4" />
				<text x="3.23" y="1160.1" class="st3">80 Project to profit</text>
			</g>
		</a>
		<a id="38d53afb-77ee-4c70-b0c4-813d9b716679" class="rules_svg_anchor rules_svg_shape"   href="/lms/chart?onclick=b3BlbkNoYXJ0Q29udGV4dE1lbnUoZXZlbnQsJ3cxMTZkNTIzNTk2NWMxNzQ5NnY0MDcxJywxODUxNiwgMSwgMSwgdGhpcywgd2luZG93LmZyYW1lRWxlbWVudCk=&amp;navigate=true&amp;details=Description">
			<g id="shape15-72" transform="translate(36,-576)">
				
				<desc>95 Service to deliver</desc>
				<rect x="0" y="1125" width="99" height="63" class="st4" />
				<text x="18.09" y="1152.9" class="st3">95 Service to <tspan x="32.82" dy="1.2em" class="st7">deliver</tspan>
				</text>
			</g>
		</a>
		<a id="d7d14e5e-5659-4b91-8117-124a2fc44982" class="rules_svg_anchor rules_svg_shape"   href="/lms/chart?onclick=b3BlbkNoYXJ0Q29udGV4dE1lbnUoZXZlbnQsJ3cxMTZkNTIzNTk2NWMxNzE1NXY0MDcxJywxODI4MSwgMSwgMSwgdGhpcywgd2luZG93LmZyYW1lRWxlbWVudCk=&amp;navigate=true&amp;details=Description">
			<g id="shape16-76" transform="translate(621,-985.5)">
				
				<desc>65 Order to cash</desc>
				<rect x="0" y="1125" width="99" height="63" class="st4" />
				<text x="8.97" y="1160.1" class="st3">65 Order to cash</text>
			</g>
		</a>
		<a id="49a72871-aeb0-4513-a37e-1f5c582a7bd2" class="rules_svg_anchor rules_svg_shape"   href="/lms/chart?onclick=b3BlbkNoYXJ0Q29udGV4dE1lbnUoZXZlbnQsJ3cxMTZkNTIzNTk2NWMxNzIzMHY0MDcxJywxODMyNywgMSwgMSwgdGhpcywgd2luZG93LmZyYW1lRWxlbWVudCk=&amp;navigate=true&amp;details=Description">
			<g id="shape17-79" transform="translate(621,-895.5)">
				
				<desc>70 Plan to produce</desc>
				<rect x="0" y="1125" width="99" height="63" class="st4" />
				<text x="3.44" y="1160.1" class="st3">70 Plan to produce</text>
			</g>
		</a>
		<a id="80e4e535-aad8-492a-972f-ad074a86261b" class="rules_svg_anchor rules_svg_shape"   href="/lms/chart?onclick=b3BlbkNoYXJ0Q29udGV4dE1lbnUoZXZlbnQsJ3cxMTZkNTIzNTk2NWMxNzMxOXY0MDcxJywxODQxMiwgMSwgMSwgdGhpcywgd2luZG93LmZyYW1lRWxlbWVudCk=&amp;navigate=true&amp;details=Description">
			<g id="shape18-82" transform="translate(621,-805.5)">
				
				<desc>80 Project to profit</desc>
				<rect x="0" y="1125" width="99" height="63" class="st4" />
				<text x="3.23" y="1160.1" class="st3">80 Project to profit</text>
			</g>
		</a>
		<a id="5cc80076-2a47-4568-b20c-ac64442143ee" class="rules_svg_anchor rules_svg_shape"   href="/lms/chart?onclick=b3BlbkNoYXJ0Q29udGV4dE1lbnUoZXZlbnQsJ3cxMTZkNTIzNTk2NWMxNzQ5NnY0MDcxJywxODUxNiwgMSwgMSwgdGhpcywgd2luZG93LmZyYW1lRWxlbWVudCk=&amp;navigate=true&amp;details=Description">
			<g id="shape19-85" transform="translate(621,-715.5)">
				
				<desc>95 Service to deliver</desc>
				<rect x="0" y="1125" width="99" height="63" class="st4" />
				<text x="18.09" y="1152.9" class="st3">95 Service to <tspan x="32.82" dy="1.2em" class="st7">deliver</tspan>
				</text>
			</g>
		</a>
		<a id="343cc5b7-27b8-4b53-9e60-c493f2844b7d" class="rules_svg_anchor rules_svg_shape"   href="/lms/chart?onclick=b3BlbkNoYXJ0Q29udGV4dE1lbnUoZXZlbnQsJ3cxMTZkNTIzNTk2NWMxNzQxMnY0MDcxJywxODQ2MSwgMSwgMSwgdGhpcywgd2luZG93LmZyYW1lRWxlbWVudCk=&amp;navigate=true&amp;details=Description">
			<g id="shape20-89" transform="translate(621,-625.5)">
				
				<desc>90 Record to report</desc>
				<rect x="0" y="1125" width="99" height="63" class="st4" />
				<text x="18.34" y="1152.9" class="st3">90 Record to <tspan x="34" dy="1.2em" class="st7">report</tspan>
				</text>
			</g>
		</a>
		<g id="shape21-93" transform="translate(634.5,-531)">
			
			<desc>End</desc>
			<path d="M18 1188 L67.5 1188 A18 18 -180 0 0 67.5 1152 L18 1152 A18 18 -180 1 0 18 1188 Z" class="st2" />
			<text x="33.52" y="1173.6" class="st3">End</text>
		</g>
		<g id="shape23-96" transform="translate(76.5,-1116)">
			
			<path d="M9 1188 L9 1205.19" class="st10" />
		</g>
		<g id="shape24-102" transform="translate(76.5,-1026)">
			
			<path d="M9 1188 L9 1295.19" class="st10" />
		</g>
		<g id="shape25-107" transform="translate(135,-1048.5)">
			
			<path d="M0 1179 L183.69 1179" class="st10" />
		</g>
		<g id="shape26-112" transform="translate(135,-877.5)">
			
			<path d="M0 1188 L17.66 1188 L17.66 1458 L89.19 1458" class="st10" />
		</g>
		<g id="shape27-117" transform="translate(135,-787.5)">
			
			<path d="M0 1188 L17.66 1188 L17.66 1368 L89.19 1368" class="st10" />
		</g>
		<g id="shape28-122" transform="translate(135,-697.5)">
			
			<path d="M0 1188 L17.66 1188 L17.66 1278 L89.19 1278" class="st10" />
		</g>
		<g id="shape29-127" transform="translate(135,-616.5)">
			
			<path d="M0 1197 L89.19 1197" class="st10" />
		</g>
		<g id="shape30-132" transform="translate(391.5,-1026)">
			
			<path d="M0 1188 L0 1196.83 L-94.5 1196.83 L-94.5 1205.19" class="st10" />
		</g>
		<g id="shape31-137" transform="translate(288,-936)">
			
			<path d="M9 1188 L9 1205.19" class="st10" />
		</g>
		<g id="shape32-142" transform="translate(288,-846)">
			
			<path d="M9 1188 L9 1205.19" class="st10" />
		</g>
		<g id="shape33-147" transform="translate(288,-756)">
			
			<path d="M9 1188 L9 1205.19" class="st10" />
		</g>
		<g id="shape34-152" transform="translate(288,-666)">
			
			<path d="M9 1188 L9 1205.19" class="st10" />
		</g>
		<g id="shape35-157" transform="translate(360,-607.5)">
			
			<path d="M0 1188 L17.66 1188 L17.66 963 L53.19 963" class="st10" />
		</g>
		<g id="shape36-162" transform="translate(477,-801)">
			
			<path d="M9 1188 L9 1209.69" class="st10" />
		</g>
		<g id="shape37-167" transform="translate(486,-706.5)">
			
			<path d="M0 1188 L-0 1345.5 L138.69 1345.5" class="st10" />
		</g>
		<g id="shape38-172" transform="translate(297,-576)">
			
			<path d="M0 1188 L0 1205.66 L186 1205.66 A3 3 0 0 1 192 1205.66 L306.34 1205.66 L306.34 747 L314.19 747" class="st10" />
		</g>
		<g id="shape39-177" transform="translate(297,-576)">
			
			<path d="M0 1188 L0 1205.66 L186 1205.66 A3 3 0 0 1 192 1205.66 L306.34 1205.66 L306.34 837 L314.19 837" class="st10" />
		</g>
		<g id="shape40-182" transform="translate(297,-576)">
			
			<path d="M0 1188 L0 1205.66 L186 1205.66 A3 3 0 0 1 192 1205.66 L306.34 1205.66 L306.34 927 L314.19 927" class="st10" />
		</g>
		<g id="shape41-187" transform="translate(297,-576)">
			
			<path d="M0 1188 L0 1205.66 L186 1205.66 A3 3 0 0 1 192 1205.66 L306.34 1205.66 L306.34 1017 L314.19 1017" class="st10" />
		</g>
		<g id="shape42-192" transform="translate(297,-576)">
			
			<path d="M0 1188 L0 1205.66 L186 1205.66 A3 3 0 0 1 192 1205.66 L306.34 1205.66 L306.34 1107 L314.19 1107" class="st10" />
		</g>
		<g id="shape43-197" transform="translate(711,-1017)">
			
			<path d="M9 1188 L26.66 1188 L26.66 1656 L18.81 1656" class="st10" />
		</g>
		<g id="shape44-202" transform="translate(711,-927)">
			
			<path d="M9 1188 L26.66 1188 L26.66 1566 L18.81 1566" class="st10" />
		</g>
		<g id="shape45-207" transform="translate(711,-837)">
			
			<path d="M9 1188 L26.66 1188 L26.66 1476 L18.81 1476" class="st10" />
		</g>
		<g id="shape46-212" transform="translate(711,-747)">
			
			<path d="M9 1188 L26.66 1188 L26.66 1386 L18.81 1386" class="st10" />
		</g>
		<g id="shape47-217" transform="translate(711,-657)">
			
			<path d="M9 1188 L26.66 1188 L26.66 1296 L18.81 1296" class="st10" />
		</g>
		<g id="shape49-222" transform="translate(225,-1102.5)">
			
			<desc>Business process area</desc>
			<rect x="0" y="1143" width="243" height="45" class="st12" />
			<text x="4" y="1169.1" class="st13">Business process area</text>
		</g>
	</g>
</svg>
