<?xml version="1.0" encoding="UTF-8" standalone="no"?>
<svg
   width="1883.4186"
   height="1814.4366"
   overflow="hidden"
   version="1.1"
   id="svg39"
   sodipodi:docname="inventory-to-deliver-relationship.svg"
   inkscape:version="1.3.2 (091e20e, 2023-11-25, custom)"
   xmlns:inkscape="http://www.inkscape.org/namespaces/inkscape"
   xmlns:sodipodi="http://sodipodi.sourceforge.net/DTD/sodipodi-0.dtd"
   xmlns="http://www.w3.org/2000/svg"
   xmlns:svg="http://www.w3.org/2000/svg">
  <defs
     id="defs39" />
  <sodipodi:namedview
     id="namedview39"
     pagecolor="#ffffff"
     bordercolor="#000000"
     borderopacity="0.25"
     inkscape:showpageshadow="2"
     inkscape:pageopacity="0.0"
     inkscape:pagecheckerboard="0"
     inkscape:deskcolor="#d1d1d1"
     inkscape:zoom="0.95677083"
     inkscape:cx="938.05117"
     inkscape:cy="781.27382"
     inkscape:window-width="3840"
     inkscape:window-height="2054"
     inkscape:window-x="2869"
     inkscape:window-y="-11"
     inkscape:window-maximized="1"
     inkscape:current-layer="svg39" />
  <g
     id="g39"
     transform="translate(-21.94883,-11.497006)">
    <rect
       x="21.94883"
       y="11.497006"
       width="1883.4186"
       height="1814.4366"
       fill="#ffffff"
       id="rect1"
       style="stroke-width:0.962815" />
    <path
       d="M 41,93.7008 C 41,61.2812 67.2812,35 99.7008,35 H 569.299 C 601.719,35 628,61.2812 628,93.7008 V 1755.3 c 0,32.42 -26.281,58.7 -58.701,58.7 H 99.7008 C 67.2812,1814 41,1787.72 41,1755.3 Z"
       fill="#cbcbcb"
       fill-rule="evenodd"
       id="path1" />
    <text
       font-family="'Segoe UI', 'Segoe UI_MSFontService', sans-serif"
       font-weight="400"
       font-size="87px"
       transform="translate(150.005,280)"
       id="text1">Upstream</text>
    <text
       font-family="'Segoe UI', 'Segoe UI_MSFontService', sans-serif"
       font-weight="400"
       font-size="87px"
       transform="translate(148.992,384)"
       id="text2">processes</text>
    <path
       d="m 100.5,585.6 c 0,-9.444 7.656,-17.1 17.1,-17.1 h 435.8 c 9.445,0 17.101,7.656 17.101,17.1 L 570.5,722.4 c 0,9.445 -7.656,17.101 -17.1,17.101 L 117.6,739.5 c -9.444,0 -17.1,-7.656 -17.1,-17.1 z"
       stroke="#000000"
       stroke-width="1.13333"
       stroke-linejoin="round"
       stroke-miterlimit="10"
       fill="#ffffff"
       fill-rule="evenodd"
       id="path2" />
    <text
       font-family="'Segoe UI', 'Segoe UI_MSFontService', sans-serif"
       font-weight="400"
       font-size="44px"
       transform="translate(185.119,669)"
       id="text3">Design to retire</text>
    <path
       d="m 100.5,782.6 c 0,-9.444 7.656,-17.1 17.1,-17.1 h 435.8 c 9.445,0 17.101,7.656 17.101,17.1 L 570.5,919.4 c 0,9.445 -7.656,17.101 -17.1,17.101 L 117.6,936.5 c -9.444,0 -17.1,-7.656 -17.1,-17.1 z"
       stroke="#000000"
       stroke-width="1.13333"
       stroke-linejoin="round"
       stroke-miterlimit="10"
       fill="#ffffff"
       fill-rule="evenodd"
       id="path3" />
    <text
       font-family="'Segoe UI', 'Segoe UI_MSFontService', sans-serif"
       font-weight="400"
       font-size="44px"
       transform="translate(202.089,867)"
       id="text4">Source</text>
    <text
       font-family="'Segoe UI', 'Segoe UI_MSFontService', sans-serif"
       font-weight="400"
       font-size="44px"
       transform="translate(346.249,867)"
       id="text5">to pay</text>
    <path
       d="m 100.5,980.5 c 0,-9.389 7.611,-17 17,-17 h 436 c 9.389,0 17,7.611 17,17 v 136 c 0,9.39 -7.611,17 -17,17 h -436 c -9.389,0 -17,-7.61 -17,-17 z"
       stroke="#000000"
       stroke-width="1.13333"
       stroke-linejoin="round"
       stroke-miterlimit="10"
       fill="#ffffff"
       fill-rule="evenodd"
       id="path5" />
    <text
       font-family="'Segoe UI', 'Segoe UI_MSFontService', sans-serif"
       font-weight="400"
       font-size="44px"
       transform="translate(203.429,1064)"
       id="text6">Order to cash</text>
    <path
       d="m 100.5,1177.5 c 0,-9.39 7.611,-17 17,-17 h 436 c 9.389,0 17,7.61 17,17 v 136 c 0,9.39 -7.611,17 -17,17 h -436 c -9.389,0 -17,-7.61 -17,-17 z"
       stroke="#000000"
       stroke-width="1.13333"
       stroke-linejoin="round"
       stroke-miterlimit="10"
       fill="#ffffff"
       fill-rule="evenodd"
       id="path6" />
    <text
       font-family="'Segoe UI', 'Segoe UI_MSFontService', sans-serif"
       font-weight="400"
       font-size="44px"
       transform="translate(190.235,1261)"
       id="text7">Service to cash</text>
    <path
       d="m 100.5,1374.5 c 0,-9.39 7.611,-17 17,-17 h 436 c 9.389,0 17,7.61 17,17 v 136 c 0,9.39 -7.611,17 -17,17 h -436 c -9.389,0 -17,-7.61 -17,-17 z"
       stroke="#000000"
       stroke-width="1.13333"
       stroke-linejoin="round"
       stroke-miterlimit="10"
       fill="#ffffff"
       fill-rule="evenodd"
       id="path7" />
    <text
       font-family="'Segoe UI', 'Segoe UI_MSFontService', sans-serif"
       font-weight="400"
       font-size="44px"
       transform="translate(181.079,1458)"
       id="text8">Plan to produce</text>
    <path
       d="m 100.5,1571.5 c 0,-9.39 7.611,-17 17,-17 h 436 c 9.389,0 17,7.61 17,17 v 136 c 0,9.39 -7.611,17 -17,17 h -436 c -9.389,0 -17,-7.61 -17,-17 z"
       stroke="#000000"
       stroke-width="1.13333"
       stroke-linejoin="round"
       stroke-miterlimit="10"
       fill="#ffffff"
       fill-rule="evenodd"
       id="path8" />
    <text
       font-family="'Segoe UI', 'Segoe UI_MSFontService', sans-serif"
       font-weight="400"
       font-size="44px"
       transform="translate(183.149,1655)"
       id="text9">Project to profit</text>
    <path
       d="M 672,93.7008 C 672,61.2812 698.281,35 730.701,35 H 1200.3 c 32.42,0 58.7,26.2812 58.7,58.7008 V 1755.3 c 0,32.42 -26.28,58.7 -58.7,58.7 H 730.701 C 698.281,1814 672,1787.72 672,1755.3 Z"
       fill="#cbcbcb"
       fill-rule="evenodd"
       id="path9" />
    <text
       font-family="'Segoe UI', 'Segoe UI_MSFontService', sans-serif"
       font-weight="400"
       font-size="87px"
       transform="translate(733.043,280)"
       id="text10">Inventory to</text>
    <text
       font-family="'Segoe UI', 'Segoe UI_MSFontService', sans-serif"
       font-weight="400"
       font-size="87px"
       transform="translate(838.503,384)"
       id="text11">deliver</text>
    <path
       d="m 731.5,582.2 c 0,-7.014 5.686,-12.7 12.7,-12.7 h 444.6 c 7.01,0 12.7,5.686 12.7,12.7 v 101.6 c 0,7.014 -5.69,12.7 -12.7,12.7 H 744.2 c -7.014,0 -12.7,-5.686 -12.7,-12.7 z"
       stroke="#000000"
       stroke-width="1.13333"
       stroke-linejoin="round"
       stroke-miterlimit="10"
       fill="#ffffff"
       fill-rule="evenodd"
       id="path11" />
    <text
       font-family="'Segoe UI', 'Segoe UI_MSFontService', sans-serif"
       font-weight="400"
       font-size="44px"
       transform="translate(776.233,622)"
       id="text12">M</text>
    <text
       font-family="'Segoe UI', 'Segoe UI_MSFontService', sans-serif"
       font-weight="400"
       font-size="44px"
       transform="translate(815.739,622)"
       id="text13">anage</text>
    <text
       font-family="'Segoe UI', 'Segoe UI_MSFontService', sans-serif"
       font-weight="400"
       font-size="44px"
       transform="translate(946.386,622)"
       id="text14">warehouse</text>
    <text
       font-family="'Segoe UI', 'Segoe UI_MSFontService', sans-serif"
       font-weight="400"
       font-size="44px"
       transform="translate(862.266,674)"
       id="text15">operations</text>
    <path
       d="m 731.5,729.2 c 0,-7.014 5.686,-12.7 12.7,-12.7 h 444.6 c 7.01,0 12.7,5.686 12.7,12.7 v 101.6 c 0,7.014 -5.69,12.7 -12.7,12.7 H 744.2 c -7.014,0 -12.7,-5.686 -12.7,-12.7 z"
       stroke="#000000"
       stroke-width="1.13333"
       stroke-linejoin="round"
       stroke-miterlimit="10"
       fill="#ffffff"
       fill-rule="evenodd"
       id="path15" />
    <text
       font-family="'Segoe UI', 'Segoe UI_MSFontService', sans-serif"
       font-weight="400"
       font-size="44px"
       transform="translate(783.229,769)"
       id="text16">Maintain inventory</text>
    <text
       font-family="'Segoe UI', 'Segoe UI_MSFontService', sans-serif"
       font-weight="400"
       font-size="44px"
       transform="translate(912.489,821)"
       id="text17">levels</text>
    <path
       d="m 731.5,875.3 c 0,-7.069 5.731,-12.8 12.8,-12.8 h 444.4 c 7.07,0 12.8,5.731 12.8,12.8 v 102.4 c 0,7.069 -5.73,12.8 -12.8,12.8 H 744.3 c -7.069,0 -12.8,-5.731 -12.8,-12.8 z"
       stroke="#000000"
       stroke-width="1.13333"
       stroke-linejoin="round"
       stroke-miterlimit="10"
       fill="#ffffff"
       fill-rule="evenodd"
       id="path17" />
    <text
       font-family="'Segoe UI', 'Segoe UI_MSFontService', sans-serif"
       font-weight="400"
       font-size="44px"
       transform="translate(805.506,915)"
       id="text18">Process inbound</text>
    <text
       font-family="'Segoe UI', 'Segoe UI_MSFontService', sans-serif"
       font-weight="400"
       font-size="44px"
       transform="translate(904.866,967)"
       id="text19">goods</text>
    <path
       d="m 731.5,1022.3 c 0,-7.07 5.731,-12.8 12.8,-12.8 h 444.4 c 7.07,0 12.8,5.73 12.8,12.8 v 102.4 c 0,7.07 -5.73,12.8 -12.8,12.8 H 744.3 c -7.069,0 -12.8,-5.73 -12.8,-12.8 z"
       stroke="#000000"
       stroke-width="1.13333"
       stroke-linejoin="round"
       stroke-miterlimit="10"
       fill="#ffffff"
       fill-rule="evenodd"
       id="path19" />
    <text
       font-family="'Segoe UI', 'Segoe UI_MSFontService', sans-serif"
       font-weight="400"
       font-size="44px"
       transform="translate(790.486,1062)"
       id="text20">Process outbound</text>
    <text
       font-family="'Segoe UI', 'Segoe UI_MSFontService', sans-serif"
       font-weight="400"
       font-size="44px"
       transform="translate(904.866,1114)"
       id="text21">goods</text>
    <path
       d="m 731.5,1169.3 c 0,-7.07 5.731,-12.8 12.8,-12.8 h 444.4 c 7.07,0 12.8,5.73 12.8,12.8 v 102.4 c 0,7.07 -5.73,12.8 -12.8,12.8 H 744.3 c -7.069,0 -12.8,-5.73 -12.8,-12.8 z"
       stroke="#000000"
       stroke-width="1.13333"
       stroke-linejoin="round"
       stroke-miterlimit="10"
       fill="#ffffff"
       fill-rule="evenodd"
       id="path21" />
    <text
       font-family="'Segoe UI', 'Segoe UI_MSFontService', sans-serif"
       font-weight="400"
       font-size="44px"
       transform="translate(789.329,1209)"
       id="text22">Manage inventory</text>
    <text
       font-family="'Segoe UI', 'Segoe UI_MSFontService', sans-serif"
       font-weight="400"
       font-size="44px"
       transform="translate(900.536,1261)"
       id="text23">quality</text>
    <path
       d="m 731.5,1316.2 c 0,-7.01 5.686,-12.7 12.7,-12.7 h 444.6 c 7.01,0 12.7,5.69 12.7,12.7 v 101.6 c 0,7.01 -5.69,12.7 -12.7,12.7 H 744.2 c -7.014,0 -12.7,-5.69 -12.7,-12.7 z"
       stroke="#000000"
       stroke-width="1.13333"
       stroke-linejoin="round"
       stroke-miterlimit="10"
       fill="#ffffff"
       fill-rule="evenodd"
       id="path23" />
    <text
       font-family="'Segoe UI', 'Segoe UI_MSFontService', sans-serif"
       font-weight="400"
       font-size="44px"
       transform="translate(774.249,1356)"
       id="text24">Manage freight and</text>
    <text
       font-family="'Segoe UI', 'Segoe UI_MSFontService', sans-serif"
       font-weight="400"
       font-size="44px"
       transform="translate(826.929,1408)"
       id="text25">transportation</text>
    <path
       d="m 731.5,1463.2 c 0,-7.01 5.686,-12.7 12.7,-12.7 h 444.6 c 7.01,0 12.7,5.69 12.7,12.7 v 101.6 c 0,7.01 -5.69,12.7 -12.7,12.7 H 744.2 c -7.014,0 -12.7,-5.69 -12.7,-12.7 z"
       stroke="#000000"
       stroke-width="1.13333"
       stroke-linejoin="round"
       stroke-miterlimit="10"
       fill="#ffffff"
       fill-rule="evenodd"
       id="path25" />
    <text
       font-family="'Segoe UI', 'Segoe UI_MSFontService', sans-serif"
       font-weight="400"
       font-size="44px"
       transform="translate(771.573,1503)"
       id="text26">Record and manage</text>
    <text
       font-family="'Segoe UI', 'Segoe UI_MSFontService', sans-serif"
       font-weight="400"
       font-size="44px"
       transform="translate(819.206,1555)"
       id="text27">inventory costs</text>
    <path
       d="m 731.5,1610.2 c 0,-7.01 5.686,-12.7 12.7,-12.7 h 444.6 c 7.01,0 12.7,5.69 12.7,12.7 v 101.6 c 0,7.01 -5.69,12.7 -12.7,12.7 H 744.2 c -7.014,0 -12.7,-5.69 -12.7,-12.7 z"
       stroke="#000000"
       stroke-width="1.13333"
       stroke-linejoin="round"
       stroke-miterlimit="10"
       fill="#ffffff"
       fill-rule="evenodd"
       id="path27" />
    <text
       font-family="'Segoe UI', 'Segoe UI_MSFontService', sans-serif"
       font-weight="400"
       font-size="44px"
       transform="translate(780.026,1650)"
       id="text28">Analyze warehouse</text>
    <text
       font-family="'Segoe UI', 'Segoe UI_MSFontService', sans-serif"
       font-weight="400"
       font-size="44px"
       transform="translate(862.266,1702)"
       id="text29">operations</text>
    <path
       d="M 1303,93.7008 C 1303,61.2812 1329.28,35 1361.7,35 h 469.6 c 32.42,0 58.7,26.2812 58.7,58.7008 V 1755.3 c 0,32.42 -26.28,58.7 -58.7,58.7 h -469.6 c -32.42,0 -58.7,-26.28 -58.7,-58.7 z"
       fill="#cbcbcb"
       fill-rule="evenodd"
       id="path29" />
    <text
       font-family="'Segoe UI', 'Segoe UI_MSFontService', sans-serif"
       font-weight="400"
       font-size="87px"
       transform="translate(1355.72,280)"
       id="text30">Downstream</text>
    <text
       font-family="'Segoe UI', 'Segoe UI_MSFontService', sans-serif"
       font-weight="400"
       font-size="87px"
       transform="translate(1411.08,384)"
       id="text31">processes</text>
    <path
       d="m 1362.5,584.1 c 0,-8.063 6.54,-14.6 14.6,-14.6 h 440.8 c 8.06,0 14.6,6.537 14.6,14.6 v 116.8 c 0,8.063 -6.54,14.6 -14.6,14.6 h -440.8 c -8.06,0 -14.6,-6.537 -14.6,-14.6 z"
       stroke="#000000"
       stroke-width="1.13333"
       stroke-linejoin="round"
       stroke-miterlimit="10"
       fill="#ffffff"
       fill-rule="evenodd"
       id="path31" />
    <text
       font-family="'Segoe UI', 'Segoe UI_MSFontService', sans-serif"
       font-weight="400"
       font-size="44px"
       transform="translate(1464.17,658)"
       id="text32">Source</text>
    <text
       font-family="'Segoe UI', 'Segoe UI_MSFontService', sans-serif"
       font-weight="400"
       font-size="44px"
       transform="translate(1608.33,658)"
       id="text33">to pay</text>
    <path
       d="m 1362.5,752.1 c 0,-8.063 6.54,-14.6 14.6,-14.6 h 440.8 c 8.06,0 14.6,6.537 14.6,14.6 v 116.8 c 0,8.063 -6.54,14.6 -14.6,14.6 h -440.8 c -8.06,0 -14.6,-6.537 -14.6,-14.6 z"
       stroke="#000000"
       stroke-width="1.13333"
       stroke-linejoin="round"
       stroke-miterlimit="10"
       fill="#ffffff"
       fill-rule="evenodd"
       id="path33" />
    <text
       font-family="'Segoe UI', 'Segoe UI_MSFontService', sans-serif"
       font-weight="400"
       font-size="44px"
       transform="translate(1465.51,826)"
       id="text34">Order to cash</text>
    <path
       d="m 1362.5,921 c 0,-8.008 6.49,-14.5 14.5,-14.5 h 441 c 8.01,0 14.5,6.492 14.5,14.5 v 116 c 0,8.01 -6.49,14.5 -14.5,14.5 h -441 c -8.01,0 -14.5,-6.49 -14.5,-14.5 z"
       stroke="#000000"
       stroke-width="1.13333"
       stroke-linejoin="round"
       stroke-miterlimit="10"
       fill="#ffffff"
       fill-rule="evenodd"
       id="path34" />
    <text
       font-family="'Segoe UI', 'Segoe UI_MSFontService', sans-serif"
       font-weight="400"
       font-size="44px"
       transform="translate(1452.32,994)"
       id="text35">Service to cash</text>
    <path
       d="m 1362.5,1089 c 0,-8.01 6.49,-14.5 14.5,-14.5 h 441 c 8.01,0 14.5,6.49 14.5,14.5 v 116 c 0,8.01 -6.49,14.5 -14.5,14.5 h -441 c -8.01,0 -14.5,-6.49 -14.5,-14.5 z"
       stroke="#000000"
       stroke-width="1.13333"
       stroke-linejoin="round"
       stroke-miterlimit="10"
       fill="#ffffff"
       fill-rule="evenodd"
       id="path35" />
    <text
       font-family="'Segoe UI', 'Segoe UI_MSFontService', sans-serif"
       font-weight="400"
       font-size="44px"
       transform="translate(1443.16,1162)"
       id="text36">Plan to produce</text>
    <path
       d="m 1362.5,1257 c 0,-8.01 6.49,-14.5 14.5,-14.5 h 441 c 8.01,0 14.5,6.49 14.5,14.5 v 116 c 0,8.01 -6.49,14.5 -14.5,14.5 h -441 c -8.01,0 -14.5,-6.49 -14.5,-14.5 z"
       stroke="#000000"
       stroke-width="1.13333"
       stroke-linejoin="round"
       stroke-miterlimit="10"
       fill="#ffffff"
       fill-rule="evenodd"
       id="path36" />
    <text
       font-family="'Segoe UI', 'Segoe UI_MSFontService', sans-serif"
       font-weight="400"
       font-size="44px"
       transform="translate(1445.23,1330)"
       id="text37">Project to profit</text>
    <path
       d="m 1362.5,1425 c 0,-8.01 6.49,-14.5 14.5,-14.5 h 441 c 8.01,0 14.5,6.49 14.5,14.5 v 116 c 0,8.01 -6.49,14.5 -14.5,14.5 h -441 c -8.01,0 -14.5,-6.49 -14.5,-14.5 z"
       stroke="#000000"
       stroke-width="1.13333"
       stroke-linejoin="round"
       stroke-miterlimit="10"
       fill="#ffffff"
       fill-rule="evenodd"
       id="path37" />
    <text
       font-family="'Segoe UI', 'Segoe UI_MSFontService', sans-serif"
       font-weight="400"
       font-size="44px"
       transform="translate(1422.07,1498)"
       id="text38">Case to resolution</text>
    <path
       d="m 1362.5,1593 c 0,-8.01 6.49,-14.5 14.5,-14.5 h 441 c 8.01,0 14.5,6.49 14.5,14.5 v 116 c 0,8.01 -6.49,14.5 -14.5,14.5 h -441 c -8.01,0 -14.5,-6.49 -14.5,-14.5 z"
       stroke="#000000"
       stroke-width="1.13333"
       stroke-linejoin="round"
       stroke-miterlimit="10"
       fill="#ffffff"
       fill-rule="evenodd"
       id="path38" />
    <text
       font-family="'Segoe UI', 'Segoe UI_MSFontService', sans-serif"
       font-weight="400"
       font-size="44px"
       transform="translate(1436.86,1666)"
       id="text39">Record to report</text>
  </g>
</svg>
