<?xml version="1.0" encoding="UTF-8" standalone="no"?>
<svg
   width="1594.9482"
   height="1070.2667"
   overflow="hidden"
   version="1.1"
   id="svg37"
   sodipodi:docname="inventory-to-deliver-manage-warehouse-ops-flow.svg"
   inkscape:version="1.3.2 (091e20e, 2023-11-25, custom)"
   xmlns:inkscape="http://www.inkscape.org/namespaces/inkscape"
   xmlns:sodipodi="http://sodipodi.sourceforge.net/DTD/sodipodi-0.dtd"
   xmlns="http://www.w3.org/2000/svg"
   xmlns:svg="http://www.w3.org/2000/svg">
  <defs
     id="defs37" />
  <sodipodi:namedview
     id="namedview37"
     pagecolor="#ffffff"
     bordercolor="#000000"
     borderopacity="0.25"
     inkscape:showpageshadow="2"
     inkscape:pageopacity="0.0"
     inkscape:pagecheckerboard="0"
     inkscape:deskcolor="#d1d1d1"
     inkscape:zoom="0.95677083"
     inkscape:cx="868.02395"
     inkscape:cy="633.9031"
     inkscape:window-width="3840"
     inkscape:window-height="2054"
     inkscape:window-x="2869"
     inkscape:window-y="-11"
     inkscape:window-maximized="1"
     inkscape:current-layer="svg37" />
  <g
     id="g37"
     transform="translate(-91.976051,-326.09689)">
    <rect
       x="91.976051"
       y="326.09689"
       width="1594.9482"
       height="1070.2667"
       fill="#ffffff"
       id="rect1"
       style="stroke-width:0.680484" />
    <rect
       x="402"
       y="343"
       width="785"
       height="1041"
       stroke="#0078d4"
       stroke-width="2"
       stroke-linejoin="round"
       stroke-miterlimit="10"
       fill="#d9d9d9"
       id="rect2" />
    <text
       fill="#0078d4"
       font-family="'Segoe UI', 'Segoe UI_MSFontService', sans-serif"
       font-weight="700"
       font-size="37px"
       transform="translate(430.635,402)"
       id="text2">Business process area</text>
    <path
       d="m 104,379.5 c 0,-20.158 16.342,-36.5 36.5,-36.5 h 139 c 20.158,0 36.5,16.342 36.5,36.5 v 0 c 0,20.158 -16.342,36.5 -36.5,36.5 h -139 C 120.342,416 104,399.658 104,379.5 Z"
       stroke="#0078d4"
       stroke-width="2"
       stroke-linejoin="round"
       stroke-miterlimit="10"
       fill="none"
       fill-rule="evenodd"
       id="path2" />
    <text
       font-family="'Segoe UI', 'Segoe UI_MSFontService', sans-serif"
       font-weight="400"
       font-size="24px"
       transform="translate(185.12,388)"
       id="text3">Start</text>
    <rect
       x="104"
       y="476"
       width="212"
       height="153"
       stroke="#0078d4"
       stroke-width="2"
       stroke-linejoin="round"
       stroke-miterlimit="10"
       fill="#a6a6a6"
       id="rect3" />
    <text
       font-family="'Segoe UI', 'Segoe UI_MSFontService', sans-serif"
       font-weight="400"
       font-size="24px"
       transform="translate(145.684,547)"
       id="text4">Inventory to</text>
    <text
       font-family="'Segoe UI', 'Segoe UI_MSFontService', sans-serif"
       font-weight="400"
       font-size="24px"
       transform="translate(174.731,576)"
       id="text5">deliver</text>
    <path
       d="m 1444,1307.5 c 0,-20.16 16.34,-36.5 36.5,-36.5 h 138 c 20.16,0 36.5,16.34 36.5,36.5 v 0 c 0,20.16 -16.34,36.5 -36.5,36.5 h -138 c -20.16,0 -36.5,-16.34 -36.5,-36.5 z"
       stroke="#0078d4"
       stroke-width="2"
       stroke-linejoin="round"
       stroke-miterlimit="10"
       fill="none"
       fill-rule="evenodd"
       id="path5" />
    <text
       font-family="'Segoe UI', 'Segoe UI_MSFontService', sans-serif"
       font-weight="400"
       font-size="24px"
       transform="translate(1529.36,1316)"
       id="text6">End</text>
    <rect
       x="1395"
       y="769"
       width="278"
       height="153"
       stroke="#0078d4"
       stroke-width="2"
       stroke-linejoin="round"
       stroke-miterlimit="10"
       fill="#0078d4"
       id="rect6" />
    <text
       fill="#ffffff"
       font-family="'Segoe UI', 'Segoe UI_MSFontService', sans-serif"
       font-weight="400"
       font-size="24px"
       transform="translate(1429.7,839)"
       id="text7">Manage freight and</text>
    <text
       fill="#ffffff"
       font-family="'Segoe UI', 'Segoe UI_MSFontService', sans-serif"
       font-weight="400"
       font-size="24px"
       transform="translate(1458.28,868)"
       id="text8">transportation</text>
    <rect
       x="1210"
       y="1231"
       width="211"
       height="153"
       stroke="#0078d4"
       stroke-width="2"
       stroke-linejoin="round"
       stroke-miterlimit="10"
       fill="#a0a0a0"
       id="rect8" />
    <text
       font-family="'Segoe UI', 'Segoe UI_MSFontService', sans-serif"
       font-weight="400"
       font-size="24px"
       transform="translate(1276.48,1301)"
       id="text9">Case to</text>
    <text
       font-family="'Segoe UI', 'Segoe UI_MSFontService', sans-serif"
       font-weight="400"
       font-size="24px"
       transform="translate(1262.79,1330)"
       id="text10">resolution</text>
    <path
       d="m 1421,1306 h 15.71 v 2 H 1421 Z m 14.37,-3 8,4 -8,4 z"
       fill="#0078d4"
       id="path10" />
    <path
       d="m 211,415.999 0.069,53.143 -2,0.003 L 209,416.001 Z m 3.067,51.806 -3.99,8.005 -4.01,-7.994 z"
       fill="#0078d4"
       id="path11" />
    <rect
       x="656"
       y="476"
       width="278"
       height="153"
       fill="#0078d4"
       id="rect11" />
    <path
       d="M 690.75,476 V 629 M 899.25,476 V 629"
       stroke="#0078d4"
       stroke-width="2"
       stroke-linejoin="round"
       stroke-miterlimit="10"
       fill="none"
       fill-rule="evenodd"
       id="path12" />
    <rect
       x="656"
       y="476"
       width="278"
       height="153"
       stroke="#0078d4"
       stroke-width="2"
       stroke-linejoin="round"
       stroke-miterlimit="10"
       fill="none"
       id="rect12" />
    <text
       fill="#ffffff"
       font-family="'Segoe UI', 'Segoe UI_MSFontService', sans-serif"
       font-weight="400"
       font-size="24px"
       transform="translate(751.67,532)"
       id="text12">M</text>
    <text
       fill="#ffffff"
       font-family="'Segoe UI', 'Segoe UI_MSFontService', sans-serif"
       font-weight="400"
       font-size="24px"
       transform="translate(773.17,532)"
       id="text13">anage</text>
    <text
       fill="#ffffff"
       font-family="'Segoe UI', 'Segoe UI_MSFontService', sans-serif"
       font-weight="400"
       font-size="24px"
       transform="translate(737.823,561)"
       id="text14">warehouse</text>
    <text
       fill="#ffffff"
       font-family="'Segoe UI', 'Segoe UI_MSFontService', sans-serif"
       font-weight="400"
       font-size="24px"
       transform="translate(738.25,590)"
       id="text15">operations</text>
    <path
       d="M 1.23435e-6,-1 333.552,-0.999588 V 1.00041 L -1.23435e-6,1 Z M 332.218,-3.99959 l 8,4.000009947 -8,3.999990053 z"
       fill="#0078d4"
       transform="matrix(1,0,0,-1,316,553)"
       id="path15" />
    <rect
       x="1395"
       y="553"
       width="278"
       height="153"
       fill="#0078d4"
       id="rect15" />
    <path
       d="m 1429.75,553 v 153 m 208.5,-153 v 153"
       stroke="#0078d4"
       stroke-width="2"
       stroke-linejoin="round"
       stroke-miterlimit="10"
       fill="none"
       fill-rule="evenodd"
       id="path16" />
    <rect
       x="1395"
       y="553"
       width="278"
       height="153"
       stroke="#0078d4"
       stroke-width="2"
       stroke-linejoin="round"
       stroke-miterlimit="10"
       fill="none"
       id="rect16" />
    <text
       fill="#ffffff"
       font-family="'Segoe UI', 'Segoe UI_MSFontService', sans-serif"
       font-weight="400"
       font-size="24px"
       transform="translate(1487.63,609)"
       id="text16">Maintain</text>
    <text
       fill="#ffffff"
       font-family="'Segoe UI', 'Segoe UI_MSFontService', sans-serif"
       font-weight="400"
       font-size="24px"
       transform="translate(1484.14,638)"
       id="text17">inventory</text>
    <text
       fill="#ffffff"
       font-family="'Segoe UI', 'Segoe UI_MSFontService', sans-serif"
       font-weight="400"
       font-size="24px"
       transform="translate(1504.86,667)"
       id="text18">levels</text>
    <rect
       x="472"
       y="757"
       width="252"
       height="153"
       fill="#ffffff"
       id="rect18" />
    <path
       d="m 503.5,757 v 153 m 189,-153 v 153"
       stroke="#0078d4"
       stroke-width="2"
       stroke-linejoin="round"
       stroke-miterlimit="10"
       fill="none"
       fill-rule="evenodd"
       id="path18" />
    <rect
       x="472"
       y="757"
       width="252"
       height="153"
       stroke="#0078d4"
       stroke-width="2"
       stroke-linejoin="round"
       stroke-miterlimit="10"
       fill="none"
       id="rect19" />
    <text
       font-family="'Segoe UI', 'Segoe UI_MSFontService', sans-serif"
       font-weight="400"
       font-size="24px"
       transform="translate(563.765,813)"
       id="text19">Define</text>
    <text
       font-family="'Segoe UI', 'Segoe UI_MSFontService', sans-serif"
       font-weight="400"
       font-size="24px"
       transform="translate(541.252,842)"
       id="text20">warehouse</text>
    <text
       font-family="'Segoe UI', 'Segoe UI_MSFontService', sans-serif"
       font-weight="400"
       font-size="24px"
       transform="translate(546.672,871)"
       id="text21">processes</text>
    <rect
       x="472"
       y="1025"
       width="252"
       height="153"
       fill="#ffffff"
       id="rect21" />
    <path
       d="m 503.5,1025 v 153 m 189,-153 v 153"
       stroke="#0078d4"
       stroke-width="2"
       stroke-linejoin="round"
       stroke-miterlimit="10"
       fill="none"
       fill-rule="evenodd"
       id="path21" />
    <rect
       x="472"
       y="1025"
       width="252"
       height="153"
       stroke="#0078d4"
       stroke-width="2"
       stroke-linejoin="round"
       stroke-miterlimit="10"
       fill="none"
       id="rect22" />
    <text
       font-family="'Segoe UI', 'Segoe UI_MSFontService', sans-serif"
       font-weight="400"
       font-size="24px"
       transform="translate(542.932,1081)"
       id="text22">Document</text>
    <text
       font-family="'Segoe UI', 'Segoe UI_MSFontService', sans-serif"
       font-weight="400"
       font-size="24px"
       transform="translate(541.252,1110)"
       id="text23">warehouse</text>
    <text
       font-family="'Segoe UI', 'Segoe UI_MSFontService', sans-serif"
       font-weight="400"
       font-size="24px"
       transform="translate(558.345,1139)"
       id="text24">policies</text>
    <rect
       x="863"
       y="757"
       width="252"
       height="153"
       fill="#ffffff"
       id="rect24" />
    <path
       d="m 894.5,757 v 153 m 189,-153 v 153"
       stroke="#0078d4"
       stroke-width="2"
       stroke-linejoin="round"
       stroke-miterlimit="10"
       fill="none"
       fill-rule="evenodd"
       id="path24" />
    <rect
       x="863"
       y="757"
       width="252"
       height="153"
       stroke="#0078d4"
       stroke-width="2"
       stroke-linejoin="round"
       stroke-miterlimit="10"
       fill="none"
       id="rect25" />
    <text
       font-family="'Segoe UI', 'Segoe UI_MSFontService', sans-serif"
       font-weight="400"
       font-size="24px"
       transform="translate(952.455,813)"
       id="text25">Design</text>
    <text
       font-family="'Segoe UI', 'Segoe UI_MSFontService', sans-serif"
       font-weight="400"
       font-size="24px"
       transform="translate(932.109,842)"
       id="text26">warehouse</text>
    <text
       font-family="'Segoe UI', 'Segoe UI_MSFontService', sans-serif"
       font-weight="400"
       font-size="24px"
       transform="translate(956.349,871)"
       id="text27">layout</text>
    <rect
       x="863"
       y="1025"
       width="252"
       height="153"
       fill="#ffffff"
       id="rect27" />
    <path
       d="m 894.5,1025 v 153 m 189,-153 v 153"
       stroke="#0078d4"
       stroke-width="2"
       stroke-linejoin="round"
       stroke-miterlimit="10"
       fill="none"
       fill-rule="evenodd"
       id="path27" />
    <rect
       x="863"
       y="1025"
       width="252"
       height="153"
       stroke="#0078d4"
       stroke-width="2"
       stroke-linejoin="round"
       stroke-miterlimit="10"
       fill="none"
       id="rect28" />
    <text
       font-family="'Segoe UI', 'Segoe UI_MSFontService', sans-serif"
       font-weight="400"
       font-size="24px"
       transform="translate(945.952,1081)"
       id="text28">Manage</text>
    <text
       font-family="'Segoe UI', 'Segoe UI_MSFontService', sans-serif"
       font-weight="400"
       font-size="24px"
       transform="translate(963.152,1110)"
       id="text29">work</text>
    <text
       font-family="'Segoe UI', 'Segoe UI_MSFontService', sans-serif"
       font-weight="400"
       font-size="24px"
       transform="translate(923.452,1139)"
       id="text30">assignments</text>
    <path
       d="m 795.571,629 v 63.734 c 0,0.552 -0.447,1 -1,1 H 598 l 1,-1 v 57.067 h -2 v -57.067 c 0,-0.553 0.448,-1 1,-1 h 196.571 l -1,1 V 629 Z M 602,748.467 l -4,8 -4,-8 z"
       fill="#0078d4"
       id="path30" />
    <path
       d="m 724,832 h 132.191 v 2 H 724 Z m 130.857,-3 8,4 -8,4 z"
       fill="#0078d4"
       id="path31" />
    <path
       d="m 724,1100 h 132.191 v 2 H 724 Z m 130.857,-3 8,4 -8,4 z"
       fill="#0078d4"
       id="path32" />
    <path
       d="m 989.857,910 v 57.339 c 0,0.552 -0.448,1 -1,1 H 598 l 1,-1 v 50.671 h -2 v -50.671 c 0,-0.552 0.448,-1 1,-1 h 390.857 l -1,1 V 910 Z M 602,1016.68 l -4,8 -4,-8 z"
       fill="#0078d4"
       id="path33" />
    <path
       d="m 990,1177.73 v 24 l -1,-1 h 266.07 l -1,1 V 629 c 0,-0.552 0.45,-1 1,-1 h 133.41 v 2 h -133.41 l 1,-1 v 572.73 c 0,0.55 -0.44,1 -1,1 H 989 c -0.552,0 -1,-0.45 -1,-1 v -24 z M 1387.15,625 l 8,4 -8,4 z"
       fill="#0078d4"
       id="path34" />
    <path
       d="m 1535,706 v 56.116 h -2 V 706 Z m 3,54.783 -4,8 -4,-8 z"
       fill="#0078d4"
       id="path35" />
    <rect
       x="1394"
       y="998"
       width="279"
       height="153"
       stroke="#0078d4"
       stroke-width="2"
       stroke-linejoin="round"
       stroke-miterlimit="10"
       fill="#0078d4"
       id="rect35" />
    <text
       fill="#ffffff"
       font-family="'Segoe UI', 'Segoe UI_MSFontService', sans-serif"
       font-weight="400"
       font-size="24px"
       transform="translate(1432.27,1069)"
       id="text35">Analyze warehouse</text>
    <text
       fill="#ffffff"
       font-family="'Segoe UI', 'Segoe UI_MSFontService', sans-serif"
       font-weight="400"
       font-size="24px"
       transform="translate(1476.95,1098)"
       id="text36">operations</text>
    <path
       d="M 0.999969,-0.00783756 1.54509,69.5429 -0.454844,69.5586 -0.999969,0.00783756 Z M 4.53455,68.1861 0.597375,76.2172 -3.4652,68.2488 Z"
       fill="#0078d4"
       transform="matrix(-1,0,0,1,1533.6,922)"
       id="path36" />
    <path
       d="m 1534.81,1151 v 39.58 c 0,0.55 -0.44,1 -1,1 H 1316 l 1,-1 v 32.91 h -2 v -32.91 c 0,-0.55 0.45,-1 1,-1 h 217.81 l -1,1 V 1151 Z m -214.81,71.16 -4,8 -4,-8 z"
       fill="#0078d4"
       id="path37" />
  </g>
</svg>
