<?xml version="1.0" encoding="UTF-8" standalone="no"?>
<svg
   width="1813.8462"
   height="1495.3845"
   overflow="hidden"
   version="1.1"
   id="svg57"
   sodipodi:docname="inventory-to-deliver-graphics-wip.svg"
   inkscape:version="1.3.2 (091e20e, 2023-11-25, custom)"
   xmlns:inkscape="http://www.inkscape.org/namespaces/inkscape"
   xmlns:sodipodi="http://sodipodi.sourceforge.net/DTD/sodipodi-0.dtd"
   xmlns="http://www.w3.org/2000/svg"
   xmlns:svg="http://www.w3.org/2000/svg">
  <defs
     id="defs57" />
  <sodipodi:namedview
     id="namedview57"
     pagecolor="#ffffff"
     bordercolor="#000000"
     borderopacity="0.25"
     inkscape:showpageshadow="2"
     inkscape:pageopacity="0.0"
     inkscape:pagecheckerboard="0"
     inkscape:deskcolor="#d1d1d1"
     inkscape:zoom="0.43333333"
     inkscape:cx="895.38462"
     inkscape:cy="676.15385"
     inkscape:window-width="1920"
     inkscape:window-height="1010"
     inkscape:window-x="-6"
     inkscape:window-y="-6"
     inkscape:window-maximized="1"
     inkscape:current-layer="svg57" />
  <g
     id="g57"
     transform="translate(-64.615387,-283.84616)">
    <rect
       x="64.615387"
       y="283.84616"
       width="1813.8462"
       height="1495.3845"
       fill="#ffffff"
       id="rect1"
       style="stroke-width:0.857779" />
    <rect
       x="367"
       y="291"
       width="785"
       height="1480"
       stroke="#0078d4"
       stroke-width="2"
       stroke-linejoin="round"
       stroke-miterlimit="10"
       fill="#d9d9d9"
       id="rect3" />
    <text
       fill="#0078d4"
       font-family="'Segoe UI', 'Segoe UI_MSFontService', sans-serif"
       font-weight="700"
       font-size="37px"
       transform="translate(395.538,350)"
       id="text3">Business process area</text>
    <path
       d="m 69,327 c 0,-19.882 16.1177,-36 36,-36 h 139 c 19.882,0 36,16.118 36,36 v 0 c 0,19.882 -16.118,36 -36,36 H 105 C 85.1177,363 69,346.882 69,327 Z"
       stroke="#0078d4"
       stroke-width="2"
       stroke-linejoin="round"
       stroke-miterlimit="10"
       fill="none"
       fill-rule="evenodd"
       id="path3" />
    <text
       font-family="'Segoe UI', 'Segoe UI_MSFontService', sans-serif"
       font-weight="400"
       font-size="24px"
       transform="translate(150.023,336)"
       id="text4">Start</text>
    <rect
       x="69"
       y="423"
       width="211"
       height="154"
       stroke="#0078d4"
       stroke-width="2"
       stroke-linejoin="round"
       stroke-miterlimit="10"
       fill="#a6a6a6"
       id="rect4" />
    <text
       font-family="'Segoe UI', 'Segoe UI_MSFontService', sans-serif"
       font-weight="400"
       font-size="24px"
       transform="translate(110.587,494)"
       id="text5">Inventory to</text>
    <text
       font-family="'Segoe UI', 'Segoe UI_MSFontService', sans-serif"
       font-weight="400"
       font-size="24px"
       transform="translate(139.634,523)"
       id="text6">deliver</text>
    <path
       d="m 1629,1617.5 c 0,-20.16 16.34,-36.5 36.5,-36.5 h 138 c 20.16,0 36.5,16.34 36.5,36.5 v 0 c 0,20.16 -16.34,36.5 -36.5,36.5 h -138 c -20.16,0 -36.5,-16.34 -36.5,-36.5 z"
       stroke="#0078d4"
       stroke-width="2"
       stroke-linejoin="round"
       stroke-miterlimit="10"
       fill="none"
       fill-rule="evenodd"
       id="path6" />
    <text
       font-family="'Segoe UI', 'Segoe UI_MSFontService', sans-serif"
       font-weight="400"
       font-size="24px"
       transform="translate(1714.84,1626)"
       id="text7">End</text>
    <rect
       x="1431"
       y="1146"
       width="279"
       height="154"
       stroke="#0078d4"
       stroke-width="2"
       stroke-linejoin="round"
       stroke-miterlimit="10"
       fill="#0078d4"
       id="rect7" />
    <text
       fill="#ffffff"
       font-family="'Segoe UI', 'Segoe UI_MSFontService', sans-serif"
       font-weight="400"
       font-size="24px"
       transform="translate(1466.01,1217)"
       id="text8">Manage freight and</text>
    <text
       fill="#ffffff"
       font-family="'Segoe UI', 'Segoe UI_MSFontService', sans-serif"
       font-weight="400"
       font-size="24px"
       transform="translate(1494.59,1246)"
       id="text9">transportation</text>
    <rect
       x="1298"
       y="1541"
       width="212"
       height="154"
       stroke="#0078d4"
       stroke-width="2"
       stroke-linejoin="round"
       stroke-miterlimit="10"
       fill="#a0a0a0"
       id="rect9" />
    <text
       font-family="'Segoe UI', 'Segoe UI_MSFontService', sans-serif"
       font-weight="400"
       font-size="24px"
       transform="translate(1364.76,1612)"
       id="text10">Case to</text>
    <text
       font-family="'Segoe UI', 'Segoe UI_MSFontService', sans-serif"
       font-weight="400"
       font-size="24px"
       transform="translate(1351.08,1641)"
       id="text11">resolution</text>
    <path
       d="M 0.0036755,-0.999993 112.905,-0.585021 112.898,1.41497 -0.0036755,0.999993 Z M 111.583,-3.5899 l 7.985,4.029375 -8.015,3.970565 z"
       fill="#0078d4"
       transform="matrix(1,0,0,-1,1510,1618.44)"
       id="path11" />
    <path
       d="m 176,362.999 0.069,53.143 -2,0.003 L 174,363.001 Z m 3.067,51.806 -3.99,8.005 -4.01,-7.994 z"
       fill="#0078d4"
       id="path12" />
    <rect
       x="1596"
       y="828"
       width="278"
       height="154"
       fill="#0078d4"
       id="rect12" />
    <path
       d="m 1630.75,828 v 154 m 208.5,-154 v 154"
       stroke="#0078d4"
       stroke-width="2"
       stroke-linejoin="round"
       stroke-miterlimit="10"
       fill="none"
       fill-rule="evenodd"
       id="path13" />
    <rect
       x="1596"
       y="828"
       width="278"
       height="154"
       stroke="#0078d4"
       stroke-width="2"
       stroke-linejoin="round"
       stroke-miterlimit="10"
       fill="none"
       id="rect13" />
    <text
       fill="#ffffff"
       font-family="'Segoe UI', 'Segoe UI_MSFontService', sans-serif"
       font-weight="400"
       font-size="24px"
       transform="translate(1695,885)"
       id="text13">Process</text>
    <text
       fill="#ffffff"
       font-family="'Segoe UI', 'Segoe UI_MSFontService', sans-serif"
       font-weight="400"
       font-size="24px"
       transform="translate(1690.43,914)"
       id="text14">inbound</text>
    <text
       fill="#ffffff"
       font-family="'Segoe UI', 'Segoe UI_MSFontService', sans-serif"
       font-weight="400"
       font-size="24px"
       transform="translate(1701.51,943)"
       id="text15">goods</text>
    <rect
       x="621"
       y="423"
       width="277"
       height="154"
       fill="#0078d4"
       id="rect15" />
    <path
       d="M 655.625,423 V 577 M 863.375,423 V 577"
       stroke="#0078d4"
       stroke-width="2"
       stroke-linejoin="round"
       stroke-miterlimit="10"
       fill="none"
       fill-rule="evenodd"
       id="path15" />
    <rect
       x="621"
       y="423"
       width="277"
       height="154"
       stroke="#0078d4"
       stroke-width="2"
       stroke-linejoin="round"
       stroke-miterlimit="10"
       fill="none"
       id="rect16" />
    <text
       fill="#ffffff"
       font-family="'Segoe UI', 'Segoe UI_MSFontService', sans-serif"
       font-weight="400"
       font-size="24px"
       transform="translate(702.069,465)"
       id="text16">Define and</text>
    <text
       fill="#ffffff"
       font-family="'Segoe UI', 'Segoe UI_MSFontService', sans-serif"
       font-weight="400"
       font-size="24px"
       transform="translate(716.983,494)"
       id="text17">manage</text>
    <text
       fill="#ffffff"
       font-family="'Segoe UI', 'Segoe UI_MSFontService', sans-serif"
       font-weight="400"
       font-size="24px"
       transform="translate(702.723,523)"
       id="text18">warehouse</text>
    <text
       fill="#ffffff"
       font-family="'Segoe UI', 'Segoe UI_MSFontService', sans-serif"
       font-weight="400"
       font-size="24px"
       transform="translate(703.149,552)"
       id="text19">operations</text>
    <rect
       x="1265"
       y="828"
       width="278"
       height="154"
       fill="#0078d4"
       id="rect19" />
    <path
       d="m 1299.75,828 v 154 m 208.5,-154 v 154"
       stroke="#0078d4"
       stroke-width="2"
       stroke-linejoin="round"
       stroke-miterlimit="10"
       fill="none"
       fill-rule="evenodd"
       id="path19" />
    <rect
       x="1265"
       y="828"
       width="278"
       height="154"
       stroke="#0078d4"
       stroke-width="2"
       stroke-linejoin="round"
       stroke-miterlimit="10"
       fill="none"
       id="rect20" />
    <text
       fill="#ffffff"
       font-family="'Segoe UI', 'Segoe UI_MSFontService', sans-serif"
       font-weight="400"
       font-size="24px"
       transform="translate(1364.08,885)"
       id="text20">Process</text>
    <text
       fill="#ffffff"
       font-family="'Segoe UI', 'Segoe UI_MSFontService', sans-serif"
       font-weight="400"
       font-size="24px"
       transform="translate(1351.34,914)"
       id="text21">outbound</text>
    <text
       fill="#ffffff"
       font-family="'Segoe UI', 'Segoe UI_MSFontService', sans-serif"
       font-weight="400"
       font-size="24px"
       transform="translate(1370.58,943)"
       id="text22">goods</text>
    <path
       d="M 1.23435e-6,-1 333.552,-0.999588 V 1.00041 L -1.23435e-6,1 Z M 332.218,-3.99959 l 8,4.000009947 -8,3.999990053 z"
       fill="#0078d4"
       transform="matrix(1,0,0,-1,280,500)"
       id="path22" />
    <path
       d="m 0,-1 h 82.3799 c 0.5523,0 1,0.447715 1,1 v 166.427 l -1,-1 h 75.7131 v 2 H 82.3799 c -0.5523,0 -1,-0.448 -1,-1 V 0 l 1,1 H 0 Z m 156.76,163.427 8,4 -8,4 z"
       fill="#0078d4"
       transform="matrix(0,1,1,0,1404,982)"
       id="path23" />
    <path
       d="m 1571.7,1300 v 178.3 c 0,0.55 -0.45,1 -1,1 H 760 l 1,-1 v 56.44 h -2 v -56.44 c 0,-0.55 0.448,-1 1,-1 h 810.7 l -1,1 V 1300 Z m -807.7,233.4 -4,8 -4,-8 z"
       fill="#0078d4"
       id="path24" />
    <path
       d="m 1735.5,982 v 82.38 c 0,0.55 -0.45,1 -1,1 H 1570 l 1,-1 v 75.71 h -2 v -75.71 c 0,-0.55 0.45,-1 1,-1 h 164.5 l -1,1 V 982 Z m -161.5,156.76 -4,8 -4,-8 z"
       fill="#0078d4"
       id="path25" />
    <rect
       x="1432"
       y="494"
       width="278"
       height="154"
       fill="#0078d4"
       id="rect25" />
    <path
       d="m 1466.75,494 v 154 m 208.5,-154 v 154"
       stroke="#0078d4"
       stroke-width="2"
       stroke-linejoin="round"
       stroke-miterlimit="10"
       fill="none"
       fill-rule="evenodd"
       id="path26" />
    <rect
       x="1432"
       y="494"
       width="278"
       height="154"
       stroke="#0078d4"
       stroke-width="2"
       stroke-linejoin="round"
       stroke-miterlimit="10"
       fill="none"
       id="rect26" />
    <text
       fill="#ffffff"
       font-family="'Segoe UI', 'Segoe UI_MSFontService', sans-serif"
       font-weight="400"
       font-size="24px"
       transform="translate(1524.53,551)"
       id="text26">Maintain</text>
    <text
       fill="#ffffff"
       font-family="'Segoe UI', 'Segoe UI_MSFontService', sans-serif"
       font-weight="400"
       font-size="24px"
       transform="translate(1521.05,580)"
       id="text27">inventory</text>
    <text
       fill="#ffffff"
       font-family="'Segoe UI', 'Segoe UI_MSFontService', sans-serif"
       font-weight="400"
       font-size="24px"
       transform="translate(1541.77,609)"
       id="text28">levels</text>
    <path
       d="m 1572.02,648 v 90.33 c 0,0.553 -0.44,1 -1,1 H 1404 l 1,-1 v 83.664 h -2 V 738.33 c 0,-0.552 0.45,-1 1,-1 h 167.02 l -1,1 V 648 Z M 1408,820.661 l -4,8 -4,-8 z"
       fill="#0078d4"
       id="path28" />
    <path
       d="m 0,-1 h 90.3304 c 0.5523,0 1,0.447715 1,1 v 163.898 l -1,-1 h 83.6636 v 2 H 90.3304 c -0.5522,0 -1,-0.447 -1,-1 V 0 l 1,1 H 0 Z m 172.661,160.898 8,4 -8,4 z"
       fill="#0078d4"
       transform="matrix(0,1,1,0,1571,648)"
       id="path29" />
    <rect
       x="437"
       y="704"
       width="252"
       height="153"
       fill="#ffffff"
       id="rect29" />
    <path
       d="m 468.5,704 v 153 m 189,-153 v 153"
       stroke="#0078d4"
       stroke-width="2"
       stroke-linejoin="round"
       stroke-miterlimit="10"
       fill="none"
       fill-rule="evenodd"
       id="path30" />
    <rect
       x="437"
       y="704"
       width="252"
       height="153"
       stroke="#0078d4"
       stroke-width="2"
       stroke-linejoin="round"
       stroke-miterlimit="10"
       fill="none"
       id="rect30" />
    <text
       font-family="'Segoe UI', 'Segoe UI_MSFontService', sans-serif"
       font-weight="400"
       font-size="24px"
       transform="translate(528.668,746)"
       id="text30">Define</text>
    <text
       font-family="'Segoe UI', 'Segoe UI_MSFontService', sans-serif"
       font-weight="400"
       font-size="24px"
       transform="translate(506.155,775)"
       id="text31">warehouse</text>
    <text
       font-family="'Segoe UI', 'Segoe UI_MSFontService', sans-serif"
       font-weight="400"
       font-size="24px"
       transform="translate(506.581,804)"
       id="text32">operations</text>
    <text
       font-family="'Segoe UI', 'Segoe UI_MSFontService', sans-serif"
       font-weight="400"
       font-size="24px"
       transform="translate(511.575,833)"
       id="text33">processes</text>
    <rect
       x="437"
       y="972"
       width="252"
       height="153"
       fill="#ffffff"
       id="rect33" />
    <path
       d="m 468.5,972 v 153 m 189,-153 v 153"
       stroke="#0078d4"
       stroke-width="2"
       stroke-linejoin="round"
       stroke-miterlimit="10"
       fill="none"
       fill-rule="evenodd"
       id="path33" />
    <rect
       x="437"
       y="972"
       width="252"
       height="153"
       stroke="#0078d4"
       stroke-width="2"
       stroke-linejoin="round"
       stroke-miterlimit="10"
       fill="none"
       id="rect34" />
    <text
       font-family="'Segoe UI', 'Segoe UI_MSFontService', sans-serif"
       font-weight="400"
       font-size="24px"
       transform="translate(507.835,1028)"
       id="text34">Document</text>
    <text
       font-family="'Segoe UI', 'Segoe UI_MSFontService', sans-serif"
       font-weight="400"
       font-size="24px"
       transform="translate(506.155,1057)"
       id="text35">warehouse</text>
    <text
       font-family="'Segoe UI', 'Segoe UI_MSFontService', sans-serif"
       font-weight="400"
       font-size="24px"
       transform="translate(523.248,1086)"
       id="text36">policies</text>
    <rect
       x="621"
       y="1270"
       width="277"
       height="153"
       fill="#ffffff"
       id="rect36" />
    <path
       d="m 655.625,1270 v 153 m 207.75,-153 v 153"
       stroke="#0078d4"
       stroke-width="2"
       stroke-linejoin="round"
       stroke-miterlimit="10"
       fill="none"
       fill-rule="evenodd"
       id="path36" />
    <rect
       x="621"
       y="1270"
       width="277"
       height="153"
       stroke="#0078d4"
       stroke-width="2"
       stroke-linejoin="round"
       stroke-miterlimit="10"
       fill="none"
       id="rect37" />
    <text
       font-family="'Segoe UI', 'Segoe UI_MSFontService', sans-serif"
       font-weight="400"
       font-size="24px"
       transform="translate(704.146,1298)"
       id="text37">Define key</text>
    <text
       font-family="'Segoe UI', 'Segoe UI_MSFontService', sans-serif"
       font-weight="400"
       font-size="24px"
       transform="translate(691.946,1327)"
       id="text38">performance</text>
    <text
       font-family="'Segoe UI', 'Segoe UI_MSFontService', sans-serif"
       font-weight="400"
       font-size="24px"
       transform="translate(689.746,1356)"
       id="text39">indicators for</text>
    <text
       font-family="'Segoe UI', 'Segoe UI_MSFontService', sans-serif"
       font-weight="400"
       font-size="24px"
       transform="translate(702.726,1385)"
       id="text40">warehouse</text>
    <text
       font-family="'Segoe UI', 'Segoe UI_MSFontService', sans-serif"
       font-weight="400"
       font-size="24px"
       transform="translate(703.153,1414)"
       id="text41">operations</text>
    <rect
       x="828"
       y="704"
       width="252"
       height="153"
       fill="#ffffff"
       id="rect41" />
    <path
       d="m 859.5,704 v 153 m 189,-153 v 153"
       stroke="#0078d4"
       stroke-width="2"
       stroke-linejoin="round"
       stroke-miterlimit="10"
       fill="none"
       fill-rule="evenodd"
       id="path41" />
    <rect
       x="828"
       y="704"
       width="252"
       height="153"
       stroke="#0078d4"
       stroke-width="2"
       stroke-linejoin="round"
       stroke-miterlimit="10"
       fill="none"
       id="rect42" />
    <text
       font-family="'Segoe UI', 'Segoe UI_MSFontService', sans-serif"
       font-weight="400"
       font-size="24px"
       transform="translate(898.692,760)"
       id="text42">Document</text>
    <text
       font-family="'Segoe UI', 'Segoe UI_MSFontService', sans-serif"
       font-weight="400"
       font-size="24px"
       transform="translate(897.012,789)"
       id="text43">warehouse</text>
    <text
       font-family="'Segoe UI', 'Segoe UI_MSFontService', sans-serif"
       font-weight="400"
       font-size="24px"
       transform="translate(921.252,818)"
       id="text44">layout</text>
    <rect
       x="828"
       y="972"
       width="252"
       height="153"
       fill="#ffffff"
       id="rect44" />
    <path
       d="m 859.5,972 v 153 m 189,-153 v 153"
       stroke="#0078d4"
       stroke-width="2"
       stroke-linejoin="round"
       stroke-miterlimit="10"
       fill="none"
       fill-rule="evenodd"
       id="path44" />
    <rect
       x="828"
       y="972"
       width="252"
       height="153"
       stroke="#0078d4"
       stroke-width="2"
       stroke-linejoin="round"
       stroke-miterlimit="10"
       fill="none"
       id="rect45" />
    <text
       font-family="'Segoe UI', 'Segoe UI_MSFontService', sans-serif"
       font-weight="400"
       font-size="24px"
       transform="translate(913.832,1014)"
       id="text45">Identify</text>
    <text
       font-family="'Segoe UI', 'Segoe UI_MSFontService', sans-serif"
       font-weight="400"
       font-size="24px"
       transform="translate(897.012,1043)"
       id="text46">warehouse</text>
    <text
       font-family="'Segoe UI', 'Segoe UI_MSFontService', sans-serif"
       font-weight="400"
       font-size="24px"
       transform="translate(917.885,1072)"
       id="text47">worker</text>
    <text
       font-family="'Segoe UI', 'Segoe UI_MSFontService', sans-serif"
       font-weight="400"
       font-size="24px"
       transform="translate(920.192,1101)"
       id="text48">access</text>
    <rect
       x="628"
       y="1541"
       width="263"
       height="153"
       fill="#ffffff"
       id="rect48" />
    <path
       d="m 660.875,1541 v 153 m 197.25,-153 v 153"
       stroke="#0078d4"
       stroke-width="2"
       stroke-linejoin="round"
       stroke-miterlimit="10"
       fill="none"
       fill-rule="evenodd"
       id="path48" />
    <rect
       x="628"
       y="1541"
       width="263"
       height="153"
       stroke="#0078d4"
       stroke-width="2"
       stroke-linejoin="round"
       stroke-miterlimit="10"
       fill="none"
       id="rect49" />
    <text
       font-family="'Segoe UI', 'Segoe UI_MSFontService', sans-serif"
       font-weight="400"
       font-size="24px"
       transform="translate(718.566,1597)"
       id="text49">Analyze</text>
    <text
       font-family="'Segoe UI', 'Segoe UI_MSFontService', sans-serif"
       font-weight="400"
       font-size="24px"
       transform="translate(702.726,1626)"
       id="text50">warehouse</text>
    <text
       font-family="'Segoe UI', 'Segoe UI_MSFontService', sans-serif"
       font-weight="400"
       font-size="24px"
       transform="translate(691.946,1655)"
       id="text51">performance</text>
    <path
       d="m 760.571,577 v 63.734 c 0,0.552 -0.447,1 -1,1 H 563 l 1,-1 v 57.067 h -2 v -57.067 c 0,-0.553 0.448,-1 1,-1 h 196.571 l -1,1 V 577 Z M 567,696.467 l -4,8 -4,-8 z"
       fill="#0078d4"
       id="path51" />
    <path
       d="m 689,780 h 132.191 v 2 H 689 Z m 130.857,-3 8,4 -8,4 z"
       fill="#0078d4"
       id="path52" />
    <path
       d="m 689,1048 h 132.191 v 2 H 689 Z m 130.857,-3 8,4 -8,4 z"
       fill="#0078d4"
       id="path53" />
    <path
       d="m 0,-1 h 305.191 c 0.552,0 1,0.447715 1,1 v 775.572 l -1,-1 h 221.721 v 2 H 305.191 c -0.552,0 -1,-0.448 -1,-1 V 0 l 1,1 H 0 Z m 525.579,772.572 8,4 -8,4 z"
       fill="#0078d4"
       transform="matrix(1,0,0,-1,898,1346.57)"
       id="path54" />
    <path
       d="m 954.857,857 v 57.339 c 0,0.552 -0.448,1 -1,1 H 563 l 1,-1 v 50.672 h -2 v -50.672 c 0,-0.552 0.448,-1 1,-1 h 390.857 l -1,1 V 857 Z M 567,963.678 l -4,8 -4,-8 z"
       fill="#0078d4"
       id="path55" />
    <path
       d="m 955.286,1125 v 72.32 c 0,0.55 -0.448,1 -1,1 H 760 l 1,-1 v 65.65 h -2 v -65.65 c 0,-0.55 0.448,-1 1,-1 h 194.286 l -1,1 V 1125 Z M 764,1261.64 l -4,8 -4,-8 z"
       fill="#0078d4"
       id="path56" />
    <path
       d="m 891.001,1617 400.019,0.43 -0.01,2 -400.011,-0.43 z m 398.689,-2.57 7.99,4.01 -8,3.99 z"
       fill="#0078d4"
       id="path57" />
  </g>
</svg>
