<?xml version="1.0" encoding="UTF-8" standalone="no"?>
<svg
   width="1911.6385"
   height="1184.1917"
   overflow="hidden"
   version="1.1"
   id="svg83"
   sodipodi:docname="inventory-to-deliver-record-manage-inventory-costs-flow.svg"
   inkscape:version="1.3.2 (091e20e, 2023-11-25, custom)"
   xmlns:inkscape="http://www.inkscape.org/namespaces/inkscape"
   xmlns:sodipodi="http://sodipodi.sourceforge.net/DTD/sodipodi-0.dtd"
   xmlns="http://www.w3.org/2000/svg"
   xmlns:svg="http://www.w3.org/2000/svg">
  <defs
     id="defs83" />
  <sodipodi:namedview
     id="namedview83"
     pagecolor="#ffffff"
     bordercolor="#000000"
     borderopacity="0.25"
     inkscape:showpageshadow="2"
     inkscape:pageopacity="0.0"
     inkscape:pagecheckerboard="0"
     inkscape:deskcolor="#d1d1d1"
     inkscape:zoom="0.95677083"
     inkscape:cx="960"
     inkscape:cy="943.27708"
     inkscape:window-width="3840"
     inkscape:window-height="2054"
     inkscape:window-x="2869"
     inkscape:window-y="-11"
     inkscape:window-maximized="1"
     inkscape:current-layer="svg83" />
  <g
     id="g83"
     transform="translate(0,-16.722918)">
    <rect
       x="0"
       y="16.722918"
       width="1911.6385"
       height="1184.1917"
       fill="#ffffff"
       id="rect1"
       style="stroke-width:0.783633" />
    <rect
       x="274"
       y="32"
       width="1386"
       height="1150"
       stroke="#0078d4"
       stroke-width="2"
       stroke-linejoin="round"
       stroke-miterlimit="10"
       fill="#d9d9d9"
       id="rect2" />
    <text
       fill="#0078d4"
       font-family="'Segoe UI', 'Segoe UI_MSFontService', sans-serif"
       font-weight="700"
       font-size="24px"
       transform="translate(302.771,78)"
       id="text2">Business process area</text>
    <path
       d="M 31,68.5001 C 31,48.3417 47.3416,32 67.5001,32 H 220.5 c 20.159,0 36.5,16.3417 36.5,36.5001 v 0 C 257,88.6586 240.658,105 220.5,105 H 67.5001 C 47.3416,105 31,88.6583 31,68.4999 Z"
       stroke="#0078d4"
       stroke-width="2"
       stroke-linejoin="round"
       stroke-miterlimit="10"
       fill="#ffffff"
       fill-rule="evenodd"
       id="path2" />
    <text
       font-family="'Segoe UI', 'Segoe UI_MSFontService', sans-serif"
       font-weight="400"
       font-size="24px"
       transform="translate(119.359,77)"
       id="text3">Start</text>
    <rect
       x="31"
       y="147"
       width="226"
       height="153"
       stroke="#000000"
       stroke-width="2"
       stroke-linejoin="round"
       stroke-miterlimit="10"
       fill="#a0a0a0"
       id="rect3" />
    <text
       font-family="'Segoe UI', 'Segoe UI_MSFontService', sans-serif"
       font-weight="400"
       font-size="24px"
       transform="translate(62.6428,232)"
       id="text4">Design to retire</text>
    <path
       d="m 146,105.5 v 34.352 h -3 V 105.5 Z m 3,32.852 -4.5,9 -4.5,-9 z"
       fill="#0078d4"
       id="path4" />
    <rect
       x="31"
       y="732"
       width="224"
       height="153"
       stroke="#000000"
       stroke-width="2"
       stroke-linejoin="round"
       stroke-miterlimit="10"
       fill="#a0a0a0"
       id="rect4" />
    <text
       font-family="'Segoe UI', 'Segoe UI_MSFontService', sans-serif"
       font-weight="400"
       font-size="24px"
       transform="translate(78.6466,803)"
       id="text5">Inventory to</text>
    <text
       font-family="'Segoe UI', 'Segoe UI_MSFontService', sans-serif"
       font-weight="400"
       font-size="24px"
       transform="translate(107.687,832)"
       id="text6">deliver</text>
    <rect
       x="31"
       y="537"
       width="226"
       height="153"
       fill="#0078d4"
       id="rect6" />
    <path
       d="M 59.25,537 V 690 M 228.75,537 V 690"
       stroke="#0078d4"
       stroke-width="2"
       stroke-linejoin="round"
       stroke-miterlimit="10"
       fill="none"
       fill-rule="evenodd"
       id="path6" />
    <rect
       x="31"
       y="537"
       width="226"
       height="153"
       stroke="#0078d4"
       stroke-width="2"
       stroke-linejoin="round"
       stroke-miterlimit="10"
       fill="none"
       id="rect7" />
    <text
       fill="#ffffff"
       font-family="'Segoe UI', 'Segoe UI_MSFontService', sans-serif"
       font-weight="400"
       font-size="24px"
       transform="translate(109.82,593)"
       id="text7">Define</text>
    <text
       fill="#ffffff"
       font-family="'Segoe UI', 'Segoe UI_MSFontService', sans-serif"
       font-weight="400"
       font-size="24px"
       transform="translate(102.56,622)"
       id="text8">product</text>
    <text
       fill="#ffffff"
       font-family="'Segoe UI', 'Segoe UI_MSFontService', sans-serif"
       font-weight="400"
       font-size="24px"
       transform="translate(105.653,651)"
       id="text9">costing</text>
    <rect
       x="1053"
       y="908"
       width="252"
       height="154"
       fill="#ffffff"
       id="rect9" />
    <path
       d="m 1084.5,908 v 154 m 189,-154 v 154"
       stroke="#0078d4"
       stroke-width="2"
       stroke-linejoin="round"
       stroke-miterlimit="10"
       fill="none"
       fill-rule="evenodd"
       id="path9" />
    <rect
       x="1053"
       y="908"
       width="252"
       height="154"
       stroke="#0078d4"
       stroke-width="2"
       stroke-linejoin="round"
       stroke-miterlimit="10"
       fill="none"
       id="rect10" />
    <text
       font-family="'Segoe UI', 'Segoe UI_MSFontService', sans-serif"
       font-weight="400"
       font-size="24px"
       transform="translate(1140.25,965)"
       id="text10">Finalize</text>
    <text
       font-family="'Segoe UI', 'Segoe UI_MSFontService', sans-serif"
       font-weight="400"
       font-size="24px"
       transform="translate(1129.52,994)"
       id="text11">inventory</text>
    <text
       font-family="'Segoe UI', 'Segoe UI_MSFontService', sans-serif"
       font-weight="400"
       font-size="24px"
       transform="translate(1152.5,1023)"
       id="text12">costs</text>
    <rect
       x="372"
       y="147"
       width="252"
       height="153"
       stroke="#00569b"
       stroke-width="2"
       stroke-linejoin="round"
       stroke-miterlimit="10"
       fill="#0078d4"
       id="rect12" />
    <text
       fill="#ffffff"
       font-family="'Segoe UI', 'Segoe UI_MSFontService', sans-serif"
       font-weight="400"
       font-size="24px"
       transform="translate(437.878,203)"
       id="text13">Record and</text>
    <text
       fill="#ffffff"
       font-family="'Segoe UI', 'Segoe UI_MSFontService', sans-serif"
       font-weight="400"
       font-size="24px"
       transform="translate(402.151,232)"
       id="text14">manage inventory</text>
    <text
       fill="#ffffff"
       font-family="'Segoe UI', 'Segoe UI_MSFontService', sans-serif"
       font-weight="400"
       font-size="24px"
       transform="translate(470.971,261)"
       id="text15">costs</text>
    <rect
       x="423"
       y="910"
       width="252"
       height="153"
       fill="#ffffff"
       id="rect15" />
    <path
       d="m 454.5,910 v 153 m 189,-153 v 153"
       stroke="#0078d4"
       stroke-width="2"
       stroke-linejoin="round"
       stroke-miterlimit="10"
       fill="none"
       fill-rule="evenodd"
       id="path15" />
    <rect
       x="423"
       y="910"
       width="252"
       height="153"
       stroke="#0078d4"
       stroke-width="2"
       stroke-linejoin="round"
       stroke-miterlimit="10"
       fill="none"
       id="rect16" />
    <text
       font-family="'Segoe UI', 'Segoe UI_MSFontService', sans-serif"
       font-weight="400"
       font-size="24px"
       transform="translate(508.101,966)"
       id="text16">Analyze</text>
    <text
       font-family="'Segoe UI', 'Segoe UI_MSFontService', sans-serif"
       font-weight="400"
       font-size="24px"
       transform="translate(490.514,995)"
       id="text17">transaction</text>
    <text
       font-family="'Segoe UI', 'Segoe UI_MSFontService', sans-serif"
       font-weight="400"
       font-size="24px"
       transform="translate(522.267,1024)"
       id="text18">costs</text>
    <rect
       x="740"
       y="1000"
       width="252"
       height="154"
       fill="#ffffff"
       id="rect18" />
    <path
       d="m 771.5,1000 v 154 m 189,-154 v 154"
       stroke="#0078d4"
       stroke-width="2"
       stroke-linejoin="round"
       stroke-miterlimit="10"
       fill="none"
       fill-rule="evenodd"
       id="path18" />
    <rect
       x="740"
       y="1000"
       width="252"
       height="154"
       stroke="#0078d4"
       stroke-width="2"
       stroke-linejoin="round"
       stroke-miterlimit="10"
       fill="none"
       id="rect19" />
    <text
       font-family="'Segoe UI', 'Segoe UI_MSFontService', sans-serif"
       font-weight="400"
       font-size="24px"
       transform="translate(806.175,1042)"
       id="text19">Review and</text>
    <text
       font-family="'Segoe UI', 'Segoe UI_MSFontService', sans-serif"
       font-weight="400"
       font-size="24px"
       transform="translate(834.009,1071)"
       id="text20">adjust</text>
    <text
       font-family="'Segoe UI', 'Segoe UI_MSFontService', sans-serif"
       font-weight="400"
       font-size="24px"
       transform="translate(824.415,1100)"
       id="text21">product</text>
    <text
       font-family="'Segoe UI', 'Segoe UI_MSFontService', sans-serif"
       font-weight="400"
       font-size="24px"
       transform="translate(811.582,1129)"
       id="text22">base costs</text>
    <path
       d="m 1681,1153.5 c 0,-20.16 16.34,-36.5 36.5,-36.5 h 150 c 20.16,0 36.5,16.34 36.5,36.5 v 0 c 0,20.16 -16.34,36.5 -36.5,36.5 h -150 c -20.16,0 -36.5,-16.34 -36.5,-36.5 z"
       stroke="#0078d4"
       stroke-width="2"
       stroke-linejoin="round"
       stroke-miterlimit="10"
       fill="#ffffff"
       fill-rule="evenodd"
       id="path22" />
    <text
       font-family="'Segoe UI', 'Segoe UI_MSFontService', sans-serif"
       font-weight="400"
       font-size="24px"
       transform="translate(1772.37,1162)"
       id="text23">End</text>
    <path
       d="m 144.999,885.457 0.985,34.355 -2.998,0.086 -0.985,-34.355 z m 3.941,32.77 -4.24,9.125 -4.756,-8.867 z"
       fill="#0078d4"
       id="path23" />
    <path
       d="m 0,-1.5 h 57.3875 c 0.8284,0 1.5,0.671573 1.5,1.5 v 390.286 l -1.5,-1.5 h 49.8875 v 3 H 57.3875 c -0.8284,0 -1.5,-0.672 -1.5,-1.5 V 0 l 1.5,1.5 H 0 Z m 105.775,387.286 9,4.5 -9,4.5 z"
       fill="#0078d4"
       transform="matrix(1,0,0,-1,257.5,613.786)"
       id="path24" />
    <rect
       x="740"
       y="815"
       width="252"
       height="153"
       fill="#ffffff"
       id="rect24" />
    <path
       d="m 771.5,815 v 153 m 189,-153 v 153"
       stroke="#0078d4"
       stroke-width="2"
       stroke-linejoin="round"
       stroke-miterlimit="10"
       fill="none"
       fill-rule="evenodd"
       id="path25" />
    <rect
       x="740"
       y="815"
       width="252"
       height="153"
       stroke="#0078d4"
       stroke-width="2"
       stroke-linejoin="round"
       stroke-miterlimit="10"
       fill="none"
       id="rect25" />
    <text
       font-family="'Segoe UI', 'Segoe UI_MSFontService', sans-serif"
       font-weight="400"
       font-size="24px"
       transform="translate(810.509,857)"
       id="text25">Adjust on</text>
    <text
       font-family="'Segoe UI', 'Segoe UI_MSFontService', sans-serif"
       font-weight="400"
       font-size="24px"
       transform="translate(911.842,857)"
       id="text26">-</text>
    <text
       font-family="'Segoe UI', 'Segoe UI_MSFontService', sans-serif"
       font-weight="400"
       font-size="24px"
       transform="translate(839.342,886)"
       id="text27">hand</text>
    <text
       font-family="'Segoe UI', 'Segoe UI_MSFontService', sans-serif"
       font-weight="400"
       font-size="24px"
       transform="translate(816.189,915)"
       id="text28">inventory</text>
    <text
       font-family="'Segoe UI', 'Segoe UI_MSFontService', sans-serif"
       font-weight="400"
       font-size="24px"
       transform="translate(839.175,944)"
       id="text29">costs</text>
    <path
       d="m 0,-1.5 h 24 c 0.8284,0 1.5,0.671573 1.5,1.5 v 740.313 c 0,0.828 -0.6716,1.5 -1.5,1.5 H 8.83333 v -3 H 24 l -1.5,1.5 V 0 L 24,1.5 H 0 Z m 10.3333,746.313 -8.99997,-4.5 8.99997,-4.5 z"
       fill="#0078d4"
       transform="matrix(-1,0,0,1,32.8334,68.5001)"
       id="path29" />
    <path
       d="m 0,-1.5 h 83.9383 c 0.8284,0 1.5,0.671573 1.5,1.5 v 311.986 l -1.5,-1.5 h 76.4387 v 3 H 83.9383 c -0.8284,0 -1.5,-0.672 -1.5,-1.5 V 0 l 1.5,1.5 H 0 Z m 158.877,308.986 9,4.5 -9,4.5 z"
       fill="#0078d4"
       transform="matrix(1,0,0,-1,257.5,1004.49)"
       id="path30" />
    <rect
       x="31"
       y="342"
       width="226"
       height="153"
       fill="#0078d4"
       id="rect30" />
    <path
       d="M 59.25,342 V 495 M 228.75,342 V 495"
       stroke="#0078d4"
       stroke-width="2"
       stroke-linejoin="round"
       stroke-miterlimit="10"
       fill="none"
       fill-rule="evenodd"
       id="path31" />
    <rect
       x="31"
       y="342"
       width="226"
       height="153"
       stroke="#0078d4"
       stroke-width="2"
       stroke-linejoin="round"
       stroke-miterlimit="10"
       fill="none"
       id="rect31" />
    <text
       fill="#ffffff"
       font-family="'Segoe UI', 'Segoe UI_MSFontService', sans-serif"
       font-weight="400"
       font-size="24px"
       transform="translate(93.4764,398)"
       id="text31">Introduce</text>
    <text
       fill="#ffffff"
       font-family="'Segoe UI', 'Segoe UI_MSFontService', sans-serif"
       font-weight="400"
       font-size="24px"
       transform="translate(122.49,427)"
       id="text32">new</text>
    <text
       fill="#ffffff"
       font-family="'Segoe UI', 'Segoe UI_MSFontService', sans-serif"
       font-weight="400"
       font-size="24px"
       transform="translate(97.4764,456)"
       id="text33">products</text>
    <rect
       x="418"
       y="363"
       width="252"
       height="154"
       fill="#ffffff"
       id="rect33" />
    <path
       d="m 449.5,363 v 154 m 189,-154 v 154"
       stroke="#0078d4"
       stroke-width="2"
       stroke-linejoin="round"
       stroke-miterlimit="10"
       fill="none"
       fill-rule="evenodd"
       id="path33" />
    <rect
       x="418"
       y="363"
       width="252"
       height="154"
       stroke="#0078d4"
       stroke-width="2"
       stroke-linejoin="round"
       stroke-miterlimit="10"
       fill="none"
       id="rect34" />
    <text
       font-family="'Segoe UI', 'Segoe UI_MSFontService', sans-serif"
       font-weight="400"
       font-size="24px"
       transform="translate(484.182,420)"
       id="text34">Define cost</text>
    <text
       font-family="'Segoe UI', 'Segoe UI_MSFontService', sans-serif"
       font-weight="400"
       font-size="24px"
       transform="translate(484.928,449)"
       id="text35">accounting</text>
    <text
       font-family="'Segoe UI', 'Segoe UI_MSFontService', sans-serif"
       font-weight="400"
       font-size="24px"
       transform="translate(503.762,478)"
       id="text36">policies</text>
    <rect
       x="740"
       y="363"
       width="252"
       height="154"
       fill="#ffffff"
       id="rect36" />
    <path
       d="m 771.5,363 v 154 m 189,-154 v 154"
       stroke="#0078d4"
       stroke-width="2"
       stroke-linejoin="round"
       stroke-miterlimit="10"
       fill="none"
       fill-rule="evenodd"
       id="path36" />
    <rect
       x="740"
       y="363"
       width="252"
       height="154"
       stroke="#0078d4"
       stroke-width="2"
       stroke-linejoin="round"
       stroke-miterlimit="10"
       fill="none"
       id="rect37" />
    <text
       font-family="'Segoe UI', 'Segoe UI_MSFontService', sans-serif"
       font-weight="400"
       font-size="24px"
       transform="translate(806.318,405)"
       id="text37">Define cost</text>
    <text
       font-family="'Segoe UI', 'Segoe UI_MSFontService', sans-serif"
       font-weight="400"
       font-size="24px"
       transform="translate(807.065,434)"
       id="text38">accounting</text>
    <text
       font-family="'Segoe UI', 'Segoe UI_MSFontService', sans-serif"
       font-weight="400"
       font-size="24px"
       transform="translate(815.958,463)"
       id="text39">reporting</text>
    <text
       font-family="'Segoe UI', 'Segoe UI_MSFontService', sans-serif"
       font-weight="400"
       font-size="24px"
       transform="translate(818.891,492)"
       id="text40">structure</text>
    <rect
       x="1055"
       y="363"
       width="252"
       height="154"
       fill="#ffffff"
       id="rect40" />
    <path
       d="m 1086.5,363 v 154 m 189,-154 v 154"
       stroke="#0078d4"
       stroke-width="2"
       stroke-linejoin="round"
       stroke-miterlimit="10"
       fill="none"
       fill-rule="evenodd"
       id="path40" />
    <rect
       x="1055"
       y="363"
       width="252"
       height="154"
       stroke="#0078d4"
       stroke-width="2"
       stroke-linejoin="round"
       stroke-miterlimit="10"
       fill="none"
       id="rect41" />
    <text
       font-family="'Segoe UI', 'Segoe UI_MSFontService', sans-serif"
       font-weight="400"
       font-size="24px"
       transform="translate(1121.4,420)"
       id="text41">Define cost</text>
    <text
       font-family="'Segoe UI', 'Segoe UI_MSFontService', sans-serif"
       font-weight="400"
       font-size="24px"
       transform="translate(1122.15,449)"
       id="text42">accounting</text>
    <text
       font-family="'Segoe UI', 'Segoe UI_MSFontService', sans-serif"
       font-weight="400"
       font-size="24px"
       transform="translate(1146.98,478)"
       id="text43">ledger</text>
    <rect
       x="425"
       y="615"
       width="252"
       height="154"
       fill="#ffffff"
       id="rect43" />
    <path
       d="m 456.5,615 v 154 m 189,-154 v 154"
       stroke="#0078d4"
       stroke-width="2"
       stroke-linejoin="round"
       stroke-miterlimit="10"
       fill="none"
       fill-rule="evenodd"
       id="path43" />
    <rect
       x="425"
       y="615"
       width="252"
       height="154"
       stroke="#0078d4"
       stroke-width="2"
       stroke-linejoin="round"
       stroke-miterlimit="10"
       fill="none"
       id="rect44" />
    <text
       font-family="'Segoe UI', 'Segoe UI_MSFontService', sans-serif"
       font-weight="400"
       font-size="24px"
       transform="translate(511.143,657)"
       id="text44">Process</text>
    <text
       font-family="'Segoe UI', 'Segoe UI_MSFontService', sans-serif"
       font-weight="400"
       font-size="24px"
       transform="translate(489.643,686)"
       id="text45">source data</text>
    <text
       font-family="'Segoe UI', 'Segoe UI_MSFontService', sans-serif"
       font-weight="400"
       font-size="24px"
       transform="translate(510.983,715)"
       id="text46">for cost</text>
    <text
       font-family="'Segoe UI', 'Segoe UI_MSFontService', sans-serif"
       font-weight="400"
       font-size="24px"
       transform="translate(492.316,744)"
       id="text47">accounting</text>
    <rect
       x="1375"
       y="615"
       width="252"
       height="154"
       fill="#ffffff"
       id="rect47" />
    <path
       d="m 1406.5,615 v 154 m 189,-154 v 154"
       stroke="#0078d4"
       stroke-width="2"
       stroke-linejoin="round"
       stroke-miterlimit="10"
       fill="none"
       fill-rule="evenodd"
       id="path47" />
    <rect
       x="1375"
       y="615"
       width="252"
       height="154"
       stroke="#0078d4"
       stroke-width="2"
       stroke-linejoin="round"
       stroke-miterlimit="10"
       fill="none"
       id="rect48" />
    <text
       font-family="'Segoe UI', 'Segoe UI_MSFontService', sans-serif"
       font-weight="400"
       font-size="24px"
       transform="translate(1460.07,657)"
       id="text48">Analyze</text>
    <text
       font-family="'Segoe UI', 'Segoe UI_MSFontService', sans-serif"
       font-weight="400"
       font-size="24px"
       transform="translate(1479.32,686)"
       id="text49">cost</text>
    <text
       font-family="'Segoe UI', 'Segoe UI_MSFontService', sans-serif"
       font-weight="400"
       font-size="24px"
       transform="translate(1442.49,715)"
       id="text50">accounting</text>
    <text
       font-family="'Segoe UI', 'Segoe UI_MSFontService', sans-serif"
       font-weight="400"
       font-size="24px"
       transform="translate(1477.74,744)"
       id="text51">data</text>
    <rect
       x="745"
       y="615"
       width="252"
       height="154"
       fill="#ffffff"
       id="rect51" />
    <path
       d="m 776.5,615 v 154 m 189,-154 v 154"
       stroke="#0078d4"
       stroke-width="2"
       stroke-linejoin="round"
       stroke-miterlimit="10"
       fill="none"
       fill-rule="evenodd"
       id="path51" />
    <rect
       x="745"
       y="615"
       width="252"
       height="154"
       stroke="#0078d4"
       stroke-width="2"
       stroke-linejoin="round"
       stroke-miterlimit="10"
       fill="none"
       id="rect52" />
    <text
       font-family="'Segoe UI', 'Segoe UI_MSFontService', sans-serif"
       font-weight="400"
       font-size="24px"
       transform="translate(822.584,657)"
       id="text52">Calculate</text>
    <text
       font-family="'Segoe UI', 'Segoe UI_MSFontService', sans-serif"
       font-weight="400"
       font-size="24px"
       transform="translate(816.231,686)"
       id="text53">overheads</text>
    <text
       font-family="'Segoe UI', 'Segoe UI_MSFontService', sans-serif"
       font-weight="400"
       font-size="24px"
       transform="translate(830.658,715)"
       id="text54">for cost</text>
    <text
       font-family="'Segoe UI', 'Segoe UI_MSFontService', sans-serif"
       font-weight="400"
       font-size="24px"
       transform="translate(811.991,744)"
       id="text55">accounting</text>
    <rect
       x="1060"
       y="615"
       width="252"
       height="154"
       fill="#ffffff"
       id="rect55" />
    <path
       d="m 1091.5,615 v 154 m 189,-154 v 154"
       stroke="#0078d4"
       stroke-width="2"
       stroke-linejoin="round"
       stroke-miterlimit="10"
       fill="none"
       fill-rule="evenodd"
       id="path55" />
    <rect
       x="1060"
       y="615"
       width="252"
       height="154"
       stroke="#0078d4"
       stroke-width="2"
       stroke-linejoin="round"
       stroke-miterlimit="10"
       fill="none"
       id="rect56" />
    <text
       font-family="'Segoe UI', 'Segoe UI_MSFontService', sans-serif"
       font-weight="400"
       font-size="24px"
       transform="translate(1126.33,657)"
       id="text56">Define cost</text>
    <text
       font-family="'Segoe UI', 'Segoe UI_MSFontService', sans-serif"
       font-weight="400"
       font-size="24px"
       transform="translate(1127.07,686)"
       id="text57">accounting</text>
    <text
       font-family="'Segoe UI', 'Segoe UI_MSFontService', sans-serif"
       font-weight="400"
       font-size="24px"
       transform="translate(1134.33,715)"
       id="text58">allocation</text>
    <text
       font-family="'Segoe UI', 'Segoe UI_MSFontService', sans-serif"
       font-weight="400"
       font-size="24px"
       transform="translate(1160.49,744)"
       id="text59">rules</text>
    <rect
       x="1681"
       y="908"
       width="223"
       height="153"
       stroke="#000000"
       stroke-width="2"
       stroke-linejoin="round"
       stroke-miterlimit="10"
       fill="#a0a0a0"
       id="rect59" />
    <text
       font-family="'Segoe UI', 'Segoe UI_MSFontService', sans-serif"
       font-weight="400"
       font-size="24px"
       transform="translate(1741.29,979)"
       id="text60">Record to</text>
    <text
       font-family="'Segoe UI', 'Segoe UI_MSFontService', sans-serif"
       font-weight="400"
       font-size="24px"
       transform="translate(1759.35,1008)"
       id="text61">report</text>
    <rect
       x="31"
       y="927"
       width="226"
       height="154"
       fill="#0078d4"
       id="rect61" />
    <path
       d="m 59.25,927 v 154 m 169.5,-154 v 154"
       stroke="#0078d4"
       stroke-width="2"
       stroke-linejoin="round"
       stroke-miterlimit="10"
       fill="none"
       fill-rule="evenodd"
       id="path61" />
    <rect
       x="31"
       y="927"
       width="226"
       height="154"
       stroke="#0078d4"
       stroke-width="2"
       stroke-linejoin="round"
       stroke-miterlimit="10"
       fill="none"
       id="rect62" />
    <text
       fill="#ffffff"
       font-family="'Segoe UI', 'Segoe UI_MSFontService', sans-serif"
       font-weight="400"
       font-size="24px"
       transform="translate(97.823,984)"
       id="text62">Maintain</text>
    <text
       fill="#ffffff"
       font-family="'Segoe UI', 'Segoe UI_MSFontService', sans-serif"
       font-weight="400"
       font-size="24px"
       transform="translate(94.3364,1013)"
       id="text63">inventory</text>
    <text
       fill="#ffffff"
       font-family="'Segoe UI', 'Segoe UI_MSFontService', sans-serif"
       font-weight="400"
       font-size="24px"
       transform="translate(115.056,1042)"
       id="text64">levels</text>
    <path
       d="m 0,-1.5 h 31.6902 c 0.8284,0 1.5,0.671573 1.5,1.5 v 45.7138 l -1.5,-1.5 h 24.1902 v 3 H 31.6902 c -0.8284,0 -1.5,-0.6716 -1.5,-1.5 V 0 l 1.5,1.5 H 0 Z m 54.3804,42.7138 9,4.5 -9,4.5 z"
       fill="#0078d4"
       transform="matrix(0,1,1,0,498.5,300.5)"
       id="path64" />
    <path
       d="m 670.5,439 h 62.636 v 3 H 670.5 Z m 61.136,-3 9,4.5 -9,4.5 z"
       fill="#0078d4"
       id="path65" />
    <path
       d="m 992.5,439 h 55.59 v 3 H 992.5 Z m 54.09,-3 9,4.5 -9,4.5 z"
       fill="#0078d4"
       id="path66" />
    <path
       d="m 1182.83,517.5 v 49.312 c 0,0.829 -0.67,1.5 -1.5,1.5 H 551.5 l 1.5,-1.5 v 41.812 h -3 v -41.812 c 0,-0.828 0.672,-1.5 1.5,-1.5 h 629.83 l -1.5,1.5 V 517.5 Z M 556,607.124 l -4.5,9 -4.5,-9 z"
       fill="#0078d4"
       id="path67" />
    <path
       d="m 677.5,691 h 60.171 v 3 H 677.5 Z m 58.671,-3 9,4.5 -9,4.5 z"
       fill="#0078d4"
       id="path68" />
    <path
       d="m 146,300.5 v 34.352 h -3 V 300.5 Z m 3,32.852 -4.5,9 -4.5,-9 z"
       fill="#0078d4"
       id="path69" />
    <path
       d="m 146,495.5 v 34.352 h -3 V 495.5 Z m 3,32.852 -4.5,9 -4.5,-9 z"
       fill="#0078d4"
       id="path70" />
    <path
       d="m 997.5,691 h 55.59 v 3 H 997.5 Z m 54.09,-3 9,4.5 -9,4.5 z"
       fill="#0078d4"
       id="path71" />
    <path
       d="m 1312.5,691 h 55.91 v 3 h -55.91 z m 54.41,-3 9,4.5 -9,4.5 z"
       fill="#0078d4"
       id="path72" />
    <path
       d="M 0.00174106,-1.5 367.783,-1.07311 367.779,1.92688 -0.00174106,1.5 Z M 366.286,-4.07485 l 8.995,4.510441 -9.005,4.489549 z"
       fill="#0078d4"
       transform="matrix(1,0,0,-1,1305.5,985.936)"
       id="path73" />
    <path
       d="m 0,-1.5 h 83.0355 c 0.8284,0 1.5,0.671573 1.5,1.5 v 17.3045 l -1.5,-1.5 h 75.5355 v 3 H 83.0355 c -0.8284,0 -1.5,-0.6716 -1.5,-1.5 V 0 l 1.5,1.5 H 0 Z m 157.071,14.3045 9,4.5 -9,4.5 z"
       fill="#0078d4"
       transform="matrix(1,0,0,-1,257.5,1004.8)"
       id="path74" />
    <path
       d="m 0,-1.5 h 32.4557 c 0.8285,0 1.5,0.671573 1.5,1.5 v 94.894 l -1.5,-1.5 h 24.9557 v 3 H 32.4557 c -0.8284,0 -1.5,-0.6716 -1.5,-1.5 V 0 l 1.5,1.5 H 0 Z m 55.9114,91.894 9,4.5 -9,4.5 z"
       fill="#0078d4"
       transform="matrix(1,0,0,-1,675.5,987.394)"
       id="path75" />
    <path
       d="m 675.5,986 h 32.456 c 0.828,0 1.5,0.672 1.5,1.5 v 90.45 l -1.5,-1.5 h 24.955 v 3 h -24.955 c -0.829,0 -1.5,-0.67 -1.5,-1.5 V 987.5 l 1.5,1.5 H 675.5 Z m 55.911,87.45 9,4.5 -9,4.5 z"
       fill="#0078d4"
       id="path76" />
    <path
       d="m 992.5,891 h 30.66 c 0.83,0 1.5,0.672 1.5,1.5 v 93.408 l -1.5,-1.5 h 23.16 v 3 h -23.16 c -0.83,0 -1.5,-0.672 -1.5,-1.5 V 892.5 l 1.5,1.5 H 992.5 Z m 52.32,90.408 9,4.5 -9,4.5 z"
       fill="#0078d4"
       id="path77" />
    <path
       d="m 0,-1.5 h 30.6618 c 0.8284,0 1.5,0.671573 1.5,1.5 v 91.9365 l -1.5,-1.5 h 23.1617 v 3 H 30.6618 c -0.8284,0 -1.5,-0.6716 -1.5,-1.5 V 0 l 1.5,1.5 H 0 Z m 52.3235,88.9365 9,4.5 -9,4.5 z"
       fill="#0078d4"
       transform="matrix(1,0,0,-1,992.5,1077.44)"
       id="path78" />
    <path
       d="m 1794,1061.5 v 48.48 h -3 v -48.48 z m 3,46.98 -4.5,9 -4.5,-9 z"
       fill="#0078d4"
       id="path79" />
    <path
       d="m 1627.5,691 h 165.22 c 0.82,0 1.5,0.672 1.5,1.5 v 208.615 h -3 V 692.5 l 1.5,1.5 H 1627.5 Z m 169.72,208.615 -4.5,9 -4.5,-9 z"
       fill="#0078d4"
       id="path80" />
    <path
       d="m 0,-1.5 h 109.845 c 0.829,0 1.5,0.671573 1.5,1.5 v 168.47 l -1.5,-1.5 h 102.346 v 3 H 109.845 c -0.828,0 -1.5,-0.671 -1.5,-1.5 V 0 l 1.5,1.5 H 0 Z m 210.69,165.47 9,4.5 -9,4.5 z"
       fill="#0078d4"
       transform="matrix(0,1,1,0,381.5,690.5)"
       id="path81" />
    <path
       d="M 0,0 1.04987e-4,360.595"
       stroke="#0078d4"
       stroke-width="3"
       stroke-linejoin="round"
       stroke-miterlimit="10"
       fill="none"
       fill-rule="evenodd"
       transform="matrix(1,0,0,-1,381.5,692.095)"
       id="path82" />
    <path
       d="M 379.5,332.5 H 498.551"
       stroke="#0078d4"
       stroke-width="3"
       stroke-linejoin="round"
       stroke-miterlimit="10"
       fill="none"
       fill-rule="evenodd"
       id="path83" />
  </g>
</svg>
