<?xml version="1.0"?>
<svg xmlns="http://www.w3.org/2000/svg" xmlns:xlink="http://www.w3.org/1999/xlink" xmlns:ev="http://www.w3.org/2001/xml-events"    viewBox="18 22 765 518"    xml:space="preserve" color-interpolation-filters="sRGB" class="st11" width="1913" height="1295">
<rect x="0" y="0" width="1913" height="1295" fill="#ffffff" />
	<style type="text/css"><![CDATA[
		.st1 {fill:#ffffff;stroke:#0078d4;stroke-linecap:round;stroke-linejoin:round;stroke-width:0.24}
		.st2 {fill:#000000;font-family:Calibri;font-size:1.00001em}
		.st3 {fill:#a0a0a0;stroke:none;stroke-linecap:round;stroke-linejoin:round;stroke-width:0.24}
		.st4 {font-size:1em}
		.st5 {fill:#0078d4;stroke:none;stroke-linecap:round;stroke-linejoin:round;stroke-width:0.24}
		.st6 {fill:#ffffff;font-family:Calibri;font-size:1.00001em}
		.st7 {fill:#ffffff}
		.st8 {stroke:#0078d4;stroke-linecap:round;stroke-linejoin:round;stroke-width:0.24}
		.st9 {marker-end:url(#mrkr13-112);stroke:#0078d4;stroke-linecap:round;stroke-linejoin:round;stroke-width:0.75}
		.st10 {fill:#0078d4;fill-opacity:1;stroke:#0078d4;stroke-opacity:1;stroke-width:0.22935779816514}
		.st11 {fill:none;fill-rule:evenodd;font-size:12px;overflow:visible;stroke-linecap:square;stroke-miterlimit:3}
	]]></style><style> a { pointer-events: none; } </style><style>a.rules_svg_anchor g:hover { opacity:0.8; cursor:pointer; }</style>
	<defs id="Markers">
		<g id="lend13">
			<path d="M 3 1 L 0 0 L 3 -1 L 3 1 " style="stroke:none" />
		</g>
		<marker id="mrkr13-112" class="st10" refX="-13.08" orient="auto" markerUnits="strokeWidth" overflow="visible">
			<use xlink:href="#lend13" transform="scale(-4.36,-4.36) " />
		</marker>
	</defs>
	<g>
		
		<g id="shape1-1" transform="translate(137.25,-540)">
			
			<desc>Start</desc>
			<path d="M18 612 L60.75 612 A18 18 -180 0 0 60.75 576 L18 576 A18 18 -180 1 0 18 612 Z" class="st1" />
			<text x="27.63" y="597.6" class="st2">Start</text>
		</g>
		<a id="2a3a1e9e-6c0f-4cba-a09b-4b1b5033cd9d" class="rules_svg_anchor rules_svg_shape"   href="/lms/chart?onclick=b3BlbkNoYXJ0Q29udGV4dE1lbnUoZXZlbnQsJ3cxMTZkNTIzNTk2NWMxNjk0NHY0MDcxJywxODA4MSwgMSwgMSwgdGhpcywgd2luZG93LmZyYW1lRWxlbWVudCk=&amp;navigate=true&amp;details=Description">
			<g id="shape2-4" transform="translate(137.25,-432)">
				
				<desc>40 Design to retire</desc>
				<rect x="0" y="549" width="78.75" height="63" class="st3" />
				<text x="9.03" y="576.9" class="st2">40 Design to <tspan x="25.83" dy="1.2em" class="st4">retire</tspan>
				</text>
			</g>
		</a>
		<a id="265ede0b-98c5-484b-b418-e5b8fedecebd" class="rules_svg_anchor rules_svg_shape"   href="/lms/chart?onclick=b3BlbkNoYXJ0Q29udGV4dE1lbnUoZXZlbnQsJ3cxMTZkNTIzNTk2NWMxNzI2OXY0MDcxJywxODM2MywgMSwgMSwgdGhpcywgd2luZG93LmZyYW1lRWxlbWVudCk=&amp;navigate=true&amp;details=Description">
			<g id="shape3-8" transform="translate(137.25,-342)">
				
				<desc>75 Source to pay</desc>
				<rect x="0" y="549" width="78.75" height="63" class="st3" />
				<text x="8.72" y="576.9" class="st2">75 Source to <tspan x="30.63" dy="1.2em" class="st4">pay</tspan>
				</text>
			</g>
		</a>
		<a id="cd96c7bc-7d55-4654-b82f-d53cd113c0c2" class="rules_svg_anchor rules_svg_shape"   href="/lms/chart?onclick=b3BlbkNoYXJ0Q29udGV4dE1lbnUoZXZlbnQsJ3cxMTZkNTIzNTk2NWMxNzIzMHY0MDcxJywxODMyNywgMSwgMSwgdGhpcywgd2luZG93LmZyYW1lRWxlbWVudCk=&amp;navigate=true&amp;details=Description">
			<g id="shape4-12" transform="translate(137.25,-252)">
				
				<desc>70 Plan to produce</desc>
				<rect x="0" y="549" width="78.75" height="63" class="st3" />
				<text x="14.9" y="576.9" class="st2">70 Plan to <tspan x="19.14" dy="1.2em" class="st4">produce</tspan>
				</text>
			</g>
		</a>
		<a id="7d0b5dd0-0388-4d81-8803-1b442e4310ab" class="rules_svg_anchor rules_svg_shape"   href="/lms/chart?onclick=b3BlbkNoYXJ0Q29udGV4dE1lbnUoZXZlbnQsJ3cxMTZkNTIzNTk2NWMxNzE1NXY0MDcxJywxODI4MSwgMSwgMSwgdGhpcywgd2luZG93LmZyYW1lRWxlbWVudCk=&amp;navigate=true&amp;details=Description">
			<g id="shape5-16" transform="translate(137.25,-162)">
				
				<desc>65 Order to cash</desc>
				<rect x="0" y="549" width="78.75" height="63" class="st3" />
				<text x="11.11" y="576.9" class="st2">65 Order to <tspan x="28.46" dy="1.2em" class="st4">cash</tspan>
				</text>
			</g>
		</a>
		<a id="fc1e682a-2561-4fd8-b990-61e2b2934646" class="rules_svg_anchor rules_svg_shape"   href="/lms/chart?onclick=b3BlbkNoYXJ0Q29udGV4dE1lbnUoZXZlbnQsJ3cxMTZkNTIzNTk2NWMxNzQ5NnY0MDcxJywxODUxNiwgMSwgMSwgdGhpcywgd2luZG93LmZyYW1lRWxlbWVudCk=&amp;navigate=true&amp;details=Description">
			<g id="shape6-20" transform="translate(137.25,-72)">
				
				<desc>95 Service to deliver</desc>
				<rect x="0" y="549" width="78.75" height="63" class="st3" />
				<text x="7.96" y="576.9" class="st2">95 Service to <tspan x="22.7" dy="1.2em" class="st4">deliver</tspan>
				</text>
			</g>
		</a>
		<a id="9814bd4f-1207-488d-a07a-f0118dbf91a8" class="rules_svg_anchor rules_svg_shape"   href="/lms/chart?onclick=b3BlbkNoYXJ0Q29udGV4dE1lbnUoZXZlbnQsJ3cxMTZkNTIzNTk2NWMxNzMxOXY0MDcxJywxODQxMiwgMSwgMSwgdGhpcywgd2luZG93LmZyYW1lRWxlbWVudCk=&amp;navigate=true&amp;details=Description">
			<g id="shape7-24" transform="translate(18,-252)">
				
				<desc>80 Project to profit</desc>
				<rect x="0" y="549" width="78.75" height="63" class="st3" />
				<text x="8.08" y="576.9" class="st2">80 Project to <tspan x="25.75" dy="1.2em" class="st4">profit</tspan>
				</text>
			</g>
		</a>
		<a id="3a0a1fbb-32e6-4359-aa8a-2997156612fb" class="rules_svg_anchor rules_svg_shape"   href="/lms/chart?onclick=b3BlbkNoYXJ0Q29udGV4dE1lbnUoZXZlbnQsJ3cxMTZkNTIzNTk2NWMxNzA5M3Y0MDcxJywxODIzMiwgMSwgMSwgdGhpcywgd2luZG93LmZyYW1lRWxlbWVudCk=&amp;navigate=true&amp;details=Description">
			<g id="shape8-28" transform="translate(261,-526.5)">
				
				<desc>60 Inventory to deliver</desc>
				<rect x="0" y="549" width="99" height="63" class="st5" />
				<text x="12.04" y="576.9" class="st6">60 Inventory to <tspan x="32.82" dy="1.2em" class="st4">deliver</tspan>
				</text>
			</g>
		</a>
		<a id="c77ccb35-a3bd-46d8-a06c-f884986ebef4" class="rules_svg_anchor rules_svg_shape"   href="/lms/chart?onclick=b3BlbkNoYXJ0Q29udGV4dE1lbnUoZXZlbnQsJ3cxMTZkNTIzNTk2NWMxNzA5NHY0MDcxJywxODIzMywgMSwgMSwgdGhpcywgd2luZG93LmZyYW1lRWxlbWVudCk=&amp;navigate=true&amp;details=Description">
			<g id="shape9-32" transform="translate(261,-432)">
				
				<desc>60.10 Manage warehouse operations</desc>
				<path d="M0 612 L99 612 L99 549 L0 549 L0 612 Z" class="st7" />
				<path d="M0 612 L99 612 L99 549 L0 549 L0 612" class="st8" />
				<path d="M9 612 L9 549" class="st8" />
				<path d="M90 612 L90 549" class="st8" />
				<text x="14.62" y="569.7" class="st2">60.10 Manage <tspan x="22.46" dy="1.2em" class="st4">warehouse </tspan>
					<tspan x="23.18" dy="1.2em" class="st4">operations</tspan>
				</text>
			</g>
		</a>
		<a id="4070c8a3-f84a-4f09-8822-2a4162f949a2" class="rules_svg_anchor rules_svg_shape"   href="/lms/chart?onclick=b3BlbkNoYXJ0Q29udGV4dE1lbnUoZXZlbnQsJ3cxMTZkNTIzNTk2NWMxNzEwMXY0MDcxJywxODIzOCwgMSwgMSwgdGhpcywgd2luZG93LmZyYW1lRWxlbWVudCk=&amp;navigate=true&amp;details=Description">
			<g id="shape10-40" transform="translate(261,-342)">
				
				<desc>60.20 Maintain inventory levels</desc>
				<path d="M0 612 L99 612 L99 549 L0 549 L0 612 Z" class="st7" />
				<path d="M0 612 L99 612 L99 549 L0 549 L0 612" class="st8" />
				<path d="M9 612 L9 549" class="st8" />
				<path d="M90 612 L90 549" class="st8" />
				<text x="12.52" y="576.9" class="st2">60.20 Maintain <tspan x="11" dy="1.2em" class="st4">inventory levels</tspan>
				</text>
			</g>
		</a>
		<a id="6519c625-67ee-4294-a9d5-67c5441741e3" class="rules_svg_anchor rules_svg_shape"   href="/lms/chart?onclick=b3BlbkNoYXJ0Q29udGV4dE1lbnUoZXZlbnQsJ3cxMTZkNTIzNTk2NWMxNzEwOHY0MDcxJywxODI0NSwgMSwgMSwgdGhpcywgd2luZG93LmZyYW1lRWxlbWVudCk=&amp;navigate=true&amp;details=Description">
			<g id="shape11-47" transform="translate(261,-252)">
				
				<desc>60.30 Process inbound goods</desc>
				<path d="M0 612 L99 612 L99 549 L0 549 L0 612 Z" class="st7" />
				<path d="M0 612 L99 612 L99 549 L0 549 L0 612" class="st8" />
				<path d="M9 612 L9 549" class="st8" />
				<path d="M90 612 L90 549" class="st8" />
				<text x="15.89" y="576.9" class="st2">60.30 Process <tspan x="13.19" dy="1.2em" class="st4">inbound goods</tspan>
				</text>
			</g>
		</a>
		<a id="d5dc2147-c606-4283-97a5-d27d97e011f5" class="rules_svg_anchor rules_svg_shape"   href="/lms/chart?onclick=b3BlbkNoYXJ0Q29udGV4dE1lbnUoZXZlbnQsJ3cxMTZkNTIzNTk2NWMxNzExNHY0MDcxJywxODI1MSwgMSwgMSwgdGhpcywgd2luZG93LmZyYW1lRWxlbWVudCk=&amp;navigate=true&amp;details=Description">
			<g id="shape12-54" transform="translate(261,-162)">
				
				<desc>60.40 Process outbound goods</desc>
				<path d="M0 612 L99 612 L99 549 L0 549 L0 612 Z" class="st7" />
				<path d="M0 612 L99 612 L99 549 L0 549 L0 612" class="st8" />
				<path d="M9 612 L9 549" class="st8" />
				<path d="M90 612 L90 549" class="st8" />
				<text x="15.89" y="569.7" class="st2">60.40 Process <tspan x="25.4" dy="1.2em" class="st4">outbound </tspan>
					<tspan x="34.85" dy="1.2em" class="st4">goods</tspan>
				</text>
			</g>
		</a>
		<a id="63ac0d77-aa1a-4d5d-9b3c-3fd1d8d4fb0d" class="rules_svg_anchor rules_svg_shape"   href="/lms/chart?onclick=b3BlbkNoYXJ0Q29udGV4dE1lbnUoZXZlbnQsJ3cxMTZkNTIzNTk2NWMxNzEwMnY0MDcxJywxODIzOSwgMSwgMSwgdGhpcywgd2luZG93LmZyYW1lRWxlbWVudCk=&amp;navigate=true&amp;details=Description">
			<g id="shape13-62" transform="translate(405,-342)">
				
				<desc>60.20.010 Track supplier managed and consignment inventory</desc>
				<path d="M0 612 L99 612 L99 549 L0 549 L0 612 Z" class="st7" />
				<path d="M0 612 L99 612 L99 549 L0 549 L0 612" class="st8" />
				<path d="M9 612 L9 549" class="st8" />
				<path d="M90 612 L90 549" class="st8" />
				<text x="25.18" y="555.3" class="st2">60.20.010 <tspan x="15.35" dy="1.2em" class="st4">Track supplier </tspan>
					<tspan x="16.31" dy="1.2em" class="st4">managed and </tspan>
					<tspan x="18.01" dy="1.2em" class="st4">consignment </tspan>
					<tspan x="26.14" dy="1.2em" class="st4">inventory</tspan>
				</text>
			</g>
		</a>
		<a id="f70635fa-3810-430c-8a91-cf0089cfa7ca" class="rules_svg_anchor rules_svg_shape"   href="/lms/chart?onclick=b3BlbkNoYXJ0Q29udGV4dE1lbnUoZXZlbnQsJ3cxMTZkNTIzNTk2NWMxNzEyNHY0MDcxJywxODI1OSwgMSwgMSwgdGhpcywgd2luZG93LmZyYW1lRWxlbWVudCk=&amp;navigate=true&amp;details=Description">
			<g id="shape14-72" transform="translate(549,-342)">
				
				<desc>60.50 Manage inventory quality</desc>
				<path d="M0 612 L99 612 L99 549 L0 549 L0 612 Z" class="st7" />
				<path d="M0 612 L99 612 L99 549 L0 549 L0 612" class="st8" />
				<path d="M9 612 L9 549" class="st8" />
				<path d="M90 612 L90 549" class="st8" />
				<text x="14.62" y="569.7" class="st2">60.50 Manage <tspan x="26.14" dy="1.2em" class="st4">inventory </tspan>
					<tspan x="32.84" dy="1.2em" class="st4">quality</tspan>
				</text>
			</g>
		</a>
		<a id="1881ba28-2c14-4b72-92e8-8c89b6bf0c33" class="rules_svg_anchor rules_svg_shape"   href="/lms/chart?onclick=b3BlbkNoYXJ0Q29udGV4dE1lbnUoZXZlbnQsJ3cxMTZkNTIzNTk2NWMxNjg1N3Y0MDcxJywxODAwMSwgMSwgMSwgdGhpcywgd2luZG93LmZyYW1lRWxlbWVudCk=&amp;navigate=true&amp;details=Description">
			<g id="shape15-80" transform="translate(666,-342)">
				
				<desc>20 Case to resolution</desc>
				<rect x="0" y="549" width="78.75" height="63" class="st3" />
				<text x="14" y="576.9" class="st2">20 Case to <tspan x="14.55" dy="1.2em" class="st4">resolution</tspan>
				</text>
			</g>
		</a>
		<a id="f8f497d3-0e8f-4204-99f6-62585e437084" class="rules_svg_anchor rules_svg_shape"   href="/lms/chart?onclick=b3BlbkNoYXJ0Q29udGV4dE1lbnUoZXZlbnQsJ3cxMTZkNTIzNTk2NWMxNzEzNXY0MDcxJywxODI2OCwgMSwgMSwgdGhpcywgd2luZG93LmZyYW1lRWxlbWVudCk=&amp;navigate=true&amp;details=Description">
			<g id="shape16-84" transform="translate(405,-216)">
				
				<desc>60.60 Manage freight and transportation</desc>
				<path d="M0 612 L99 612 L99 549 L0 549 L0 612 Z" class="st7" />
				<path d="M0 612 L99 612 L99 549 L0 549 L0 612" class="st8" />
				<path d="M9 612 L9 549" class="st8" />
				<path d="M90 612 L90 549" class="st8" />
				<text x="14.62" y="569.7" class="st2">60.60 Manage <tspan x="22.69" dy="1.2em" class="st4">freight and </tspan>
					<tspan x="14.03" dy="1.2em" class="st4">transportation</tspan>
				</text>
			</g>
		</a>
		<a id="9c97ffdb-a60c-4d44-9788-1e79cba9e51e" class="rules_svg_anchor rules_svg_shape"   href="/lms/chart?onclick=b3BlbkNoYXJ0Q29udGV4dE1lbnUoZXZlbnQsJ3cxMTZkNTIzNTk2NWM1NDU2MnY0MDcxJywxODI3NiwgMSwgMSwgdGhpcywgd2luZG93LmZyYW1lRWxlbWVudCk=&amp;navigate=true&amp;details=Description">
			<g id="shape17-92" transform="translate(549,-216)">
				
				<desc>60.80 Analyze warehouse operations</desc>
				<path d="M0 612 L99 612 L99 549 L0 549 L0 612 Z" class="st7" />
				<path d="M0 612 L99 612 L99 549 L0 549 L0 612" class="st8" />
				<path d="M9 612 L9 549" class="st8" />
				<path d="M90 612 L90 549" class="st8" />
				<text x="15.52" y="569.7" class="st2">60.80 Analyze <tspan x="22.46" dy="1.2em" class="st4">warehouse </tspan>
					<tspan x="23.18" dy="1.2em" class="st4">operations</tspan>
				</text>
			</g>
		</a>
		<a id="e36366a7-5d91-4d9c-8b58-ddff42c338fc" class="rules_svg_anchor rules_svg_shape"   href="/lms/chart?onclick=b3BlbkNoYXJ0Q29udGV4dE1lbnUoZXZlbnQsJ3cxMTZkNTIzNTk2NWMxNzQxMnY0MDcxJywxODQ2MSwgMSwgMSwgdGhpcywgd2luZG93LmZyYW1lRWxlbWVudCk=&amp;navigate=true&amp;details=Description">
			<g id="shape19-100" transform="translate(666,-162)">
				
				<desc>90 Record to report</desc>
				<rect x="0" y="549" width="78.75" height="63" class="st3" />
				<text x="8.22" y="576.9" class="st2">90 Record to <tspan x="23.88" dy="1.2em" class="st4">report</tspan>
				</text>
			</g>
		</a>
		<g id="shape20-104" transform="translate(666,-72)">
			
			<desc>End</desc>
			<path d="M18 612 L60.75 612 A18 18 -180 0 0 60.75 576 L18 576 A18 18 -180 1 0 18 612 Z" class="st1" />
			<text x="30.14" y="597.6" class="st2">End</text>
		</g>
		<g id="shape21-107" transform="translate(216,-549)">
			
			<path d="M0 603 L35.19 603" class="st9" />
		</g>
		<g id="shape22-113" transform="translate(137.25,-558)">
			
			<path d="M0 612 L-79.87 612 L-79.87 845.19" class="st9" />
		</g>
		<g id="shape23-118" transform="translate(146.25,-558)">
			
			<path d="M-9 612 L-26.66 612 L-26.66 706.5 L-18.81 706.5" class="st9" />
		</g>
		<g id="shape24-123" transform="translate(146.25,-558)">
			
			<path d="M-9 612 L-26.66 612 L-26.66 796.5 L-18.81 796.5" class="st9" />
		</g>
		<g id="shape25-128" transform="translate(146.25,-558)">
			
			<path d="M-9 612 L-26.66 612 L-26.66 886.5 L-18.81 886.5" class="st9" />
		</g>
		<g id="shape26-133" transform="translate(146.25,-558)">
			
			<path d="M-9 612 L-26.66 612 L-26.66 1066.5 L-18.81 1066.5" class="st9" />
		</g>
		<g id="shape27-138" transform="translate(96.75,-274.5)">
			
			<path d="M0 603 L19.84 603 A3 3 0 1 1 25.84 603 L30.69 603" class="st9" />
		</g>
		<g id="shape28-143" transform="translate(96.75,-283.5)">
			
			<path d="M0 612 L22.5 612 L22.5 792 L30.69 792" class="st9" />
		</g>
		<g id="shape29-148" transform="translate(96.75,-283.5)">
			
			<path d="M0 612 L22.5 612 L22.5 702 L30.69 702" class="st9" />
		</g>
		<g id="shape30-153" transform="translate(96.75,-283.5)">
			
			<path d="M0 612 L22.84 612 L22.84 522 L30.69 522" class="st9" />
		</g>
		<g id="shape31-158" transform="translate(216,-292.5)">
			
			<path d="M0 621 L35.19 621" class="st9" />
		</g>
		<g id="shape32-163" transform="translate(216,-202.5)">
			
			<path d="M0 621 L35.19 621" class="st9" />
		</g>
		<g id="shape33-168" transform="translate(216,-283.5)">
			
			<path d="M0 612 L17.66 612 L17.66 702 L35.19 702" class="st9" />
		</g>
		<g id="shape34-173" transform="translate(216,-382.5)">
			
			<path d="M0 621 L35.19 621" class="st9" />
		</g>
		<g id="shape35-178" transform="translate(301.5,-526.5)">
			
			<path d="M9 612 L9 627.75 L9 633.69" class="st9" />
		</g>
		<g id="shape36-183" transform="translate(360,-463.5)">
			
			<path d="M0 612 L238.5 612 L238.5 660.69" class="st9" />
		</g>
		<g id="shape37-188" transform="translate(360,-364.5)">
			
			<path d="M0 603 L35.19 603" class="st9" />
		</g>
		<g id="shape38-193" transform="translate(504,-364.5)">
			
			<path d="M0 603 L35.19 603" class="st9" />
		</g>
		<g id="shape39-198" transform="translate(216,-103.5)">
			
			<path d="M0 612 L94.5 612 L94.5 563.31" class="st9" />
		</g>
		<g id="shape40-203" transform="translate(360,-193.5)">
			
			<path d="M0 612 L94.5 612 L94.5 599.31" class="st9" />
		</g>
		<g id="shape41-208" transform="translate(504,-247.5)">
			
			<path d="M0 612 L17.66 612 L17.66 486 L35.19 486" class="st9" />
		</g>
		<g id="shape42-213" transform="translate(589.5,-342)">
			
			<path d="M9 612 L9 665.19" class="st9" />
		</g>
		<g id="shape43-218" transform="translate(598.5,-216)">
			
			<path d="M0 612 L0 634.5 L57.69 634.5" class="st9" />
		</g>
		<g id="shape44-223" transform="translate(648,-364.5)">
			
			<path d="M0 603 L8.19 603" class="st9" />
		</g>
		<g id="shape45-228" transform="translate(735.75,-373.5)">
			
			<path d="M9 612 L26.66 612 L26.66 895.5 L18.81 895.5" class="st9" />
		</g>
		<g id="shape46-233" transform="translate(696.375,-162)">
			
			<path d="M9 612 L9 656.19" class="st9" />
		</g>
	</g>
</svg>
