<?xml version="1.0" encoding="UTF-8" standalone="no"?>
<svg
   width="1920"
   height="1301.1879"
   overflow="hidden"
   version="1.1"
   id="svg238"
   sodipodi:docname="inventory-to-deliver-flow.svg"
   inkscape:version="1.2.2 (732a01da63, 2022-12-09)"
   xmlns:inkscape="http://www.inkscape.org/namespaces/inkscape"
   xmlns:sodipodi="http://sodipodi.sourceforge.net/DTD/sodipodi-0.dtd"
   xmlns="http://www.w3.org/2000/svg"
   xmlns:svg="http://www.w3.org/2000/svg">
  <defs
     id="defs242" />
  <sodipodi:namedview
     id="namedview240"
     pagecolor="#ffffff"
     bordercolor="#000000"
     borderopacity="0.25"
     inkscape:showpageshadow="2"
     inkscape:pageopacity="0.0"
     inkscape:pagecheckerboard="0"
     inkscape:deskcolor="#d1d1d1"
     showgrid="false"
     inkscape:zoom="0.53489583"
     inkscape:cx="959.06524"
     inkscape:cy="807.63389"
     inkscape:window-width="3840"
     inkscape:window-height="2054"
     inkscape:window-x="2725"
     inkscape:window-y="-11"
     inkscape:window-maximized="1"
     inkscape:current-layer="svg238" />
  <g
     id="g236"
     transform="translate(0,-151.43135)">
    <rect
       x="0"
       y="151.43135"
       width="1920"
       height="1301.1879"
       fill="#ffffff"
       id="rect2"
       style="stroke-width:0.823227" />
    <path
       d="m 314,241.5 c 0,-20.158 16.342,-36.5 36.5,-36.5 h 138 c 20.158,0 36.5,16.342 36.5,36.5 v 0 c 0,20.158 -16.342,36.5 -36.5,36.5 h -138 C 330.342,278 314,261.658 314,241.5 Z"
       stroke="#0078d4"
       stroke-width="2"
       stroke-linejoin="round"
       stroke-miterlimit="10"
       fill="none"
       fill-rule="evenodd"
       id="path4" />
    <text
       font-family="'Segoe UI', 'Segoe UI_MSFontService', sans-serif"
       font-weight="400"
       font-size="24px"
       transform="translate(394.64,250)"
       id="text6">Start</text>
    <rect
       x="314"
       y="376"
       width="211"
       height="154"
       stroke="#a6a6a6"
       stroke-width="2"
       stroke-linejoin="round"
       stroke-miterlimit="10"
       fill="#a0a0a0"
       id="rect8" />
    <text
       font-family="'Segoe UI', 'Segoe UI_MSFontService', sans-serif"
       font-weight="400"
       font-size="24px"
       transform="translate(368.694,447)"
       id="text10">Design to</text>
    <text
       font-family="'Segoe UI', 'Segoe UI_MSFontService', sans-serif"
       font-weight="400"
       font-size="24px"
       transform="translate(391.914,476)"
       id="text12">retire</text>
    <rect
       x="631"
       y="822"
       width="279"
       height="153"
       fill="#ffffff"
       id="rect14" />
    <path
       d="M 665.875,822 V 975 M 875.125,822 V 975"
       stroke="#0078d4"
       stroke-width="2"
       stroke-linejoin="round"
       stroke-miterlimit="10"
       fill="none"
       fill-rule="evenodd"
       id="path16" />
    <rect
       x="631"
       y="822"
       width="279"
       height="153"
       stroke="#0078d4"
       stroke-width="2"
       stroke-linejoin="round"
       stroke-miterlimit="10"
       fill="none"
       id="rect18" />
    <text
       font-family="'Segoe UI', 'Segoe UI_MSFontService', sans-serif"
       font-weight="400"
       font-size="24px"
       transform="translate(730.754,878)"
       id="text20">Process</text>
    <text
       font-family="'Segoe UI', 'Segoe UI_MSFontService', sans-serif"
       font-weight="400"
       font-size="24px"
       transform="translate(726.181,907)"
       id="text22">inbound</text>
    <text
       font-family="'Segoe UI', 'Segoe UI_MSFontService', sans-serif"
       font-weight="400"
       font-size="24px"
       transform="translate(737.267,936)"
       id="text24">goods</text>
    <rect
       x="1319"
       y="592"
       width="279"
       height="153"
       fill="#ffffff"
       id="rect26" />
    <path
       d="M 1353.88,592 V 745 M 1563.12,592 V 745"
       stroke="#0078d4"
       stroke-width="2"
       stroke-linejoin="round"
       stroke-miterlimit="10"
       fill="none"
       fill-rule="evenodd"
       id="path28" />
    <rect
       x="1319"
       y="592"
       width="279"
       height="153"
       stroke="#0078d4"
       stroke-width="2"
       stroke-linejoin="round"
       stroke-miterlimit="10"
       fill="none"
       id="rect30" />
    <text
       font-family="'Segoe UI', 'Segoe UI_MSFontService', sans-serif"
       font-weight="400"
       font-size="24px"
       transform="translate(1415.73,649)"
       id="text32">Manage</text>
    <text
       font-family="'Segoe UI', 'Segoe UI_MSFontService', sans-serif"
       font-weight="400"
       font-size="24px"
       transform="translate(1408.92,678)"
       id="text34">inventory</text>
    <text
       font-family="'Segoe UI', 'Segoe UI_MSFontService', sans-serif"
       font-weight="400"
       font-size="24px"
       transform="translate(1423.07,707)"
       id="text36">quality</text>
    <rect
       x="1320"
       y="822"
       width="279"
       height="153"
       fill="#ffffff"
       id="rect38" />
    <path
       d="M 1354.88,822 V 975 M 1564.12,822 V 975"
       stroke="#0078d4"
       stroke-width="2"
       stroke-linejoin="round"
       stroke-miterlimit="10"
       fill="none"
       fill-rule="evenodd"
       id="path40" />
    <rect
       x="1320"
       y="822"
       width="279"
       height="153"
       stroke="#0078d4"
       stroke-width="2"
       stroke-linejoin="round"
       stroke-miterlimit="10"
       fill="none"
       id="rect42" />
    <text
       font-family="'Segoe UI', 'Segoe UI_MSFontService', sans-serif"
       font-weight="400"
       font-size="24px"
       transform="translate(1416.93,878)"
       id="text44">Manage</text>
    <text
       font-family="'Segoe UI', 'Segoe UI_MSFontService', sans-serif"
       font-weight="400"
       font-size="24px"
       transform="translate(1410.12,907)"
       id="text46">inventory</text>
    <text
       font-family="'Segoe UI', 'Segoe UI_MSFontService', sans-serif"
       font-weight="400"
       font-size="24px"
       transform="translate(1433.1,936)"
       id="text48">costs</text>
    <rect
       x="1319"
       y="1052"
       width="278"
       height="153"
       fill="#ffffff"
       id="rect50" />
    <path
       d="m 1353.75,1052 v 153 m 208.5,-153 v 153"
       stroke="#0078d4"
       stroke-width="2"
       stroke-linejoin="round"
       stroke-miterlimit="10"
       fill="none"
       fill-rule="evenodd"
       id="path52" />
    <rect
       x="1319"
       y="1052"
       width="278"
       height="153"
       stroke="#0078d4"
       stroke-width="2"
       stroke-linejoin="round"
       stroke-miterlimit="10"
       fill="none"
       id="rect54" />
    <text
       font-family="'Segoe UI', 'Segoe UI_MSFontService', sans-serif"
       font-weight="400"
       font-size="24px"
       transform="translate(1398.21,1122)"
       id="text56">Record and</text>
    <text
       font-family="'Segoe UI', 'Segoe UI_MSFontService', sans-serif"
       font-weight="400"
       font-size="24px"
       transform="translate(1390.71,1151)"
       id="text58">control costs</text>
    <rect
       x="314"
       y="1057"
       width="211"
       height="153"
       stroke="#a6a6a6"
       stroke-width="2"
       stroke-linejoin="round"
       stroke-miterlimit="10"
       fill="#a6a6a6"
       id="rect60" />
    <text
       font-family="'Segoe UI', 'Segoe UI_MSFontService', sans-serif"
       font-weight="400"
       font-size="24px"
       transform="translate(347.773,1142)"
       id="text62">Order to cash</text>
    <rect
       x="631"
       y="376"
       width="279"
       height="154"
       fill="#ffffff"
       id="rect64" />
    <path
       d="M 665.875,376 V 530 M 875.125,376 V 530"
       stroke="#0078d4"
       stroke-width="2"
       stroke-linejoin="round"
       stroke-miterlimit="10"
       fill="none"
       fill-rule="evenodd"
       id="path66" />
    <rect
       x="631"
       y="376"
       width="279"
       height="154"
       stroke="#0078d4"
       stroke-width="2"
       stroke-linejoin="round"
       stroke-miterlimit="10"
       fill="none"
       id="rect68" />
    <text
       font-family="'Segoe UI', 'Segoe UI_MSFontService', sans-serif"
       font-weight="400"
       font-size="24px"
       transform="translate(713.014,418)"
       id="text70">Define and</text>
    <text
       font-family="'Segoe UI', 'Segoe UI_MSFontService', sans-serif"
       font-weight="400"
       font-size="24px"
       transform="translate(727.934,447)"
       id="text72">manage</text>
    <text
       font-family="'Segoe UI', 'Segoe UI_MSFontService', sans-serif"
       font-weight="400"
       font-size="24px"
       transform="translate(713.674,476)"
       id="text74">warehouse</text>
    <text
       font-family="'Segoe UI', 'Segoe UI_MSFontService', sans-serif"
       font-weight="400"
       font-size="24px"
       transform="translate(714.101,505)"
       id="text76">operations</text>
    <path
       d="m 1664,1322 c 0,-19.88 16.12,-36 36,-36 h 139 c 19.88,0 36,16.12 36,36 v 0 c 0,19.88 -16.12,36 -36,36 h -139 c -19.88,0 -36,-16.12 -36,-36 z"
       stroke="#0078d4"
       stroke-width="2"
       stroke-linejoin="round"
       stroke-miterlimit="10"
       fill="none"
       fill-rule="evenodd"
       id="path78" />
    <text
       font-family="'Segoe UI', 'Segoe UI_MSFontService', sans-serif"
       font-weight="400"
       font-size="24px"
       transform="translate(1749.75,1331)"
       id="text80">End</text>
    <rect
       x="633"
       y="165"
       width="279"
       height="153"
       stroke="#0078d4"
       stroke-width="2"
       stroke-linejoin="round"
       stroke-miterlimit="10"
       fill="#0078d4"
       id="rect82" />
    <text
       fill="#ffffff"
       font-family="'Segoe UI', 'Segoe UI_MSFontService', sans-serif"
       font-weight="400"
       font-size="24px"
       transform="translate(669.548,250)"
       id="text84">Inventory to deliver</text>
    <rect
       x="1664"
       y="592"
       width="211"
       height="153"
       stroke="#a6a6a6"
       stroke-width="2"
       stroke-linejoin="round"
       stroke-miterlimit="10"
       fill="#a0a0a0"
       id="rect86" />
    <text
       font-family="'Segoe UI', 'Segoe UI_MSFontService', sans-serif"
       font-weight="400"
       font-size="24px"
       transform="translate(1730.6,663)"
       id="text88">Case to</text>
    <text
       font-family="'Segoe UI', 'Segoe UI_MSFontService', sans-serif"
       font-weight="400"
       font-size="24px"
       transform="translate(1716.91,692)"
       id="text90">resolution</text>
    <rect
       x="1665"
       y="1052"
       width="212"
       height="153"
       stroke="#a6a6a6"
       stroke-width="2"
       stroke-linejoin="round"
       stroke-miterlimit="10"
       fill="#a0a0a0"
       id="rect92" />
    <text
       font-family="'Segoe UI', 'Segoe UI_MSFontService', sans-serif"
       font-weight="400"
       font-size="24px"
       transform="translate(1719.87,1123)"
       id="text94">Record to</text>
    <text
       font-family="'Segoe UI', 'Segoe UI_MSFontService', sans-serif"
       font-weight="400"
       font-size="24px"
       transform="translate(1737.93,1152)"
       id="text96">report</text>
    <rect
       x="314"
       y="592"
       width="211"
       height="153"
       stroke="#a6a6a6"
       stroke-width="2"
       stroke-linejoin="round"
       stroke-miterlimit="10"
       fill="#a0a0a0"
       id="rect98" />
    <text
       font-family="'Segoe UI', 'Segoe UI_MSFontService', sans-serif"
       font-weight="400"
       font-size="24px"
       transform="translate(342.592,677)"
       id="text100">Procure to pay</text>
    <rect
       x="314"
       y="822"
       width="211"
       height="153"
       stroke="#a6a6a6"
       stroke-width="2"
       stroke-linejoin="round"
       stroke-miterlimit="10"
       fill="#a0a0a0"
       id="rect102" />
    <text
       font-family="'Segoe UI', 'Segoe UI_MSFontService', sans-serif"
       font-weight="400"
       font-size="24px"
       transform="translate(382.539,893)"
       id="text104">Plan to</text>
    <text
       font-family="'Segoe UI', 'Segoe UI_MSFontService', sans-serif"
       font-weight="400"
       font-size="24px"
       transform="translate(375.519,922)"
       id="text106">produce</text>
    <rect
       x="631"
       y="1057"
       width="279"
       height="153"
       fill="#ffffff"
       id="rect108" />
    <path
       d="m 665.875,1057 v 153 m 209.25,-153 v 153"
       stroke="#0078d4"
       stroke-width="2"
       stroke-linejoin="round"
       stroke-miterlimit="10"
       fill="none"
       fill-rule="evenodd"
       id="path110" />
    <rect
       x="631"
       y="1057"
       width="279"
       height="153"
       stroke="#0078d4"
       stroke-width="2"
       stroke-linejoin="round"
       stroke-miterlimit="10"
       fill="none"
       id="rect112" />
    <text
       font-family="'Segoe UI', 'Segoe UI_MSFontService', sans-serif"
       font-weight="400"
       font-size="24px"
       transform="translate(730.754,1113)"
       id="text114">Process</text>
    <text
       font-family="'Segoe UI', 'Segoe UI_MSFontService', sans-serif"
       font-weight="400"
       font-size="24px"
       transform="translate(718.014,1142)"
       id="text116">outbound</text>
    <text
       font-family="'Segoe UI', 'Segoe UI_MSFontService', sans-serif"
       font-weight="400"
       font-size="24px"
       transform="translate(737.267,1171)"
       id="text118">goods</text>
    <rect
       x="631"
       y="592"
       width="279"
       height="154"
       fill="#ffffff"
       id="rect120" />
    <path
       d="M 665.875,592 V 746 M 875.125,592 V 746"
       stroke="#0078d4"
       stroke-width="2"
       stroke-linejoin="round"
       stroke-miterlimit="10"
       fill="none"
       fill-rule="evenodd"
       id="path122" />
    <rect
       x="631"
       y="592"
       width="279"
       height="154"
       stroke="#0078d4"
       stroke-width="2"
       stroke-linejoin="round"
       stroke-miterlimit="10"
       fill="none"
       id="rect124" />
    <text
       font-family="'Segoe UI', 'Segoe UI_MSFontService', sans-serif"
       font-weight="400"
       font-size="24px"
       transform="translate(727.514,634)"
       id="text126">Manage</text>
    <text
       font-family="'Segoe UI', 'Segoe UI_MSFontService', sans-serif"
       font-weight="400"
       font-size="24px"
       transform="translate(726.181,663)"
       id="text128">inbound</text>
    <text
       font-family="'Segoe UI', 'Segoe UI_MSFontService', sans-serif"
       font-weight="400"
       font-size="24px"
       transform="translate(712.507,692)"
       id="text130">freight and</text>
    <text
       font-family="'Segoe UI', 'Segoe UI_MSFontService', sans-serif"
       font-weight="400"
       font-size="24px"
       transform="translate(694.834,721)"
       id="text132">transportation</text>
    <rect
       x="976"
       y="592"
       width="277"
       height="153"
       fill="#ffffff"
       id="rect134" />
    <path
       d="M 1010.62,592 V 745 M 1218.38,592 V 745"
       stroke="#0078d4"
       stroke-width="2"
       stroke-linejoin="round"
       stroke-miterlimit="10"
       fill="none"
       fill-rule="evenodd"
       id="path136" />
    <rect
       x="976"
       y="592"
       width="277"
       height="153"
       stroke="#0078d4"
       stroke-width="2"
       stroke-linejoin="round"
       stroke-miterlimit="10"
       fill="none"
       id="rect138" />
    <text
       font-family="'Segoe UI', 'Segoe UI_MSFontService', sans-serif"
       font-weight="400"
       font-size="24px"
       transform="translate(1075.45,620)"
       id="text140">Control</text>
    <text
       font-family="'Segoe UI', 'Segoe UI_MSFontService', sans-serif"
       font-weight="400"
       font-size="24px"
       transform="translate(1077.7,649)"
       id="text142">vendor</text>
    <text
       font-family="'Segoe UI', 'Segoe UI_MSFontService', sans-serif"
       font-weight="400"
       font-size="24px"
       transform="translate(1064.96,678)"
       id="text144">managed</text>
    <text
       font-family="'Segoe UI', 'Segoe UI_MSFontService', sans-serif"
       font-weight="400"
       font-size="24px"
       transform="translate(1041.64,707)"
       id="text146">inventory and</text>
    <text
       font-family="'Segoe UI', 'Segoe UI_MSFontService', sans-serif"
       font-weight="400"
       font-size="24px"
       transform="translate(1046.04,736)"
       id="text148">consignment</text>
    <path
       d="m 525.003,668 99.436,0.246 -0.005,2 L 524.997,670 Z m 98.11,-2.757 7.99,4.02 -8.01,3.98 z"
       fill="#0078d4"
       id="path150" />
    <path
       d="m 525,897 h 99.436 v 2 H 525 Z m 98.103,-3 8,4 -8,4 z"
       fill="#0078d4"
       id="path152" />
    <path
       d="m 772,746 v 69.453 h -2 V 746 Z m 3,68.12 -4,8 -4,-8 z"
       fill="#0078d4"
       id="path154" />
    <path
       d="m 525,1132 h 99.436 v 2 H 525 Z m 98.103,-3 8,4 -8,4 z"
       fill="#0078d4"
       id="path156" />
    <path
       d="m 1460,745.492 1.09,69.717 -1,0.016 -1.09,-69.717 z m 4.57,68.329 -3.88,8.062 -4.12,-7.937 z"
       fill="#0078d4"
       id="path158" />
    <rect
       x="976"
       y="936"
       width="279"
       height="153"
       fill="#ffffff"
       id="rect160" />
    <path
       d="m 1010.88,936 v 153 m 209.24,-153 v 153"
       stroke="#0078d4"
       stroke-width="2"
       stroke-linejoin="round"
       stroke-miterlimit="10"
       fill="none"
       fill-rule="evenodd"
       id="path162" />
    <rect
       x="976"
       y="936"
       width="279"
       height="153"
       stroke="#0078d4"
       stroke-width="2"
       stroke-linejoin="round"
       stroke-miterlimit="10"
       fill="none"
       id="rect164" />
    <text
       font-family="'Segoe UI', 'Segoe UI_MSFontService', sans-serif"
       font-weight="400"
       font-size="24px"
       transform="translate(1072.22,978)"
       id="text166">Manage</text>
    <text
       font-family="'Segoe UI', 'Segoe UI_MSFontService', sans-serif"
       font-weight="400"
       font-size="24px"
       transform="translate(1062.72,1007)"
       id="text168">outbound</text>
    <text
       font-family="'Segoe UI', 'Segoe UI_MSFontService', sans-serif"
       font-weight="400"
       font-size="24px"
       transform="translate(1057.22,1036)"
       id="text170">freight and</text>
    <text
       font-family="'Segoe UI', 'Segoe UI_MSFontService', sans-serif"
       font-weight="400"
       font-size="24px"
       transform="translate(1039.54,1065)"
       id="text172">transportation</text>
    <path
       d="m 0,-0.5 h 205.255 c 0.276,0 0.5,0.223858 0.5,0.5 v 37.2206 h -1 V 0 l 0.5,0.5 H 0 Z m 209.255,36.3872 -4,8 -4,-8 z"
       fill="#0078d4"
       transform="matrix(1,0,0,-1,910.5,1133.39)"
       id="path174" />
    <path
       d="m 1253.5,669 h 59.13 v 1 h -59.13 z m 57.8,-3.5 8,4 -8,4 z"
       fill="#0078d4"
       id="path176" />
    <path
       d="m 0,-0.5 h 32.3028 c 0.2761,0 0.5,0.223858 0.5,0.5 v 343.992 l -0.5,-0.5 h 25.6361 v 1 H 32.3028 c -0.2762,0 -0.5,-0.224 -0.5,-0.5 V 0 l 0.5,0.5 H 0 Z m 56.6056,340.492 8,4 -8,4 z"
       fill="#0078d4"
       transform="matrix(1,0,0,-1,1255.5,1013.49)"
       id="path178" />
    <path
       d="M 0.499862,-0.0117287 2.13571,69.706 1.13599,69.7295 -0.499862,0.0117287 Z M 5.60347,68.2909 1.79223,76.3826 -2.39433,68.4786 Z"
       fill="#0078d4"
       transform="matrix(-1,0,0,1,1460.29,975.5)"
       id="path180" />
    <path
       d="m 1598.5,669 h 59.13 v 1 h -59.13 z m 57.8,-3.5 8,4 -8,4 z"
       fill="#0078d4"
       id="path182" />
    <path
       d="m 1597.5,1128 61.53,0.45 -0.01,1 -61.52,-0.45 z m 60.22,-3.06 7.97,4.06 -8.03,3.94 z"
       fill="#0078d4"
       id="path184" />
    <path
       d="M 0.499945,-0.00744344 1.59555,73.58 0.595664,73.5949 -0.499945,0.00744344 Z M 5.07532,72.1948 1.19486,80.2534 -2.9238,72.3139 Z"
       fill="#0078d4"
       transform="matrix(-1,0,0,1,1771.69,1205.5)"
       id="path186" />
    <path
       d="M 0,0.5 H -24 L -23.5,0 v 653.129 l -0.5,-0.5 h 17.33344 v 1 H -24 c -0.2761,0 -0.5,-0.224 -0.5,-0.5 V 0 c 0,-0.276142 0.2239,-0.5 0.5,-0.5 H 0 Z m -7.99989,648.629 7.999994987,4 -7.999994987,4 z"
       fill="#0078d4"
       transform="matrix(-1,0,0,1,1875.5,669.5)"
       id="path188" />
    <path
       d="m 314.5,243 h -24 l 0.5,-0.5 v 211.488 l -0.5,-0.5 h 17.333 v 1 H 290.5 c -0.276,0 -0.5,-0.224 -0.5,-0.5 V 242.5 c 0,-0.276 0.224,-0.5 0.5,-0.5 h 24 z m -8,206.988 8,4 -8,4 z"
       fill="#0078d4"
       id="path190" />
    <path
       d="m 0,-0.5 h 24.1549 c 0.2761,0 0.5,0.223858 0.5,0.5 v 427.3 c 0,0.276 -0.2239,0.5 -0.5,0.5 H 6.82152 v -1 H 24.1549 l -0.5,0.5 V 0 l 0.5,0.5 H 0 Z m 8.15486,431.8 -8.000004,-4 8.000004,-4 z"
       fill="#0078d4"
       transform="matrix(-1,0,0,1,314.655,242.5)"
       id="path192" />
    <path
       d="m 0,-0.5 h 24.1549 c 0.2761,0 0.5,0.223858 0.5,0.5 v 656.973 c 0,0.276 -0.2239,0.5 -0.5,0.5 H 6.82152 v -1 H 24.1549 l -0.5,0.5 V 0 l 0.5,0.5 H 0 Z m 8.15486,661.473 -8.000004,-4 8.000004,-4 z"
       fill="#0078d4"
       transform="matrix(-1,0,0,1,314.655,242.5)"
       id="path194" />
    <path
       d="m 314.5,243 h -24 l 0.5,-0.5 v 891.82 l -0.5,-0.5 h 17.333 v 1.01 H 290.5 c -0.276,0 -0.5,-0.23 -0.5,-0.51 V 242.5 c 0,-0.276 0.224,-0.5 0.5,-0.5 h 24 z m -8,887.32 8,4 -8,4 z"
       fill="#0078d4"
       id="path196" />
    <path
       d="m 772,318.5 v 51.531 h -1 V 318.5 Z m 3.5,50.197 -4,8 -4,-8 z"
       fill="#0078d4"
       id="path198" />
    <path
       d="M 0.001996,-0.499996 59.1358,-0.263932 59.1318,0.73606 -0.001996,0.499996 Z M 57.8164,-3.76923 65.8004,0.262677 57.7845,4.23071 Z"
       fill="#0078d4"
       transform="matrix(1,0,0,-1,910.5,669.763)"
       id="path200" />
    <path
       d="m 1599.5,898 h 171.48 c 0.27,0 0.5,0.224 0.5,0.5 v 146.86 h -1 V 898.5 l 0.5,0.5 H 1599.5 Z m 175.48,146.02 -4,8 -4,-8 z"
       fill="#0078d4"
       id="path202" />
    <path
       d="m 910.5,453 h 548.77 c 0.28,0 0.5,0.224 0.5,0.5 V 586 h -1 V 453.5 l 0.5,0.5 H 910.5 Z m 552.77,131.667 -4,8 -4,-8 z"
       fill="#0078d4"
       id="path204" />
    <path
       d="m 525.5,898 h 53.052 c 0.276,0 0.5,0.224 0.5,0.5 v 234.85 l -0.5,-0.5 h 46.384 v 1 h -46.384 c -0.277,0 -0.5,-0.22 -0.5,-0.5 V 898.5 l 0.5,0.5 H 525.5 Z m 98.103,231.35 8,4 -8,4 z"
       fill="#0078d4"
       id="path206" />
    <rect
       x="314"
       y="1273"
       width="211"
       height="153"
       stroke="#a6a6a6"
       stroke-width="2"
       stroke-linejoin="round"
       stroke-miterlimit="10"
       fill="#a6a6a6"
       id="rect208" />
    <text
       font-family="'Segoe UI', 'Segoe UI_MSFontService', sans-serif"
       font-weight="400"
       font-size="24px"
       transform="translate(367.226,1343)"
       id="text210">Service to</text>
    <text
       font-family="'Segoe UI', 'Segoe UI_MSFontService', sans-serif"
       font-weight="400"
       font-size="24px"
       transform="translate(395.779,1372)"
       id="text212">cash</text>
    <path
       d="m 0,-0.5 h 24.0774 c 0.2761,0 0.5,0.223858 0.5,0.5 v 1107.64 c 0,0.27 -0.2239,0.5 -0.5,0.5 H 6.74404 v -1 H 24.0774 l -0.5,0.5 V 0 l 0.5,0.5 H 0 Z m 8.07738,1112.14 -8.0000047,-4 8.0000047,-4 z"
       fill="#0078d4"
       transform="matrix(-1,0,0,1,314.577,242.5)"
       id="path214" />
    <path
       d="m 0,-0.5 h 245.635 c 0.276,0 0.5,0.223858 0.5,0.5 v 132.5 h -1 V 0 l 0.5,0.5 H 0 Z m 249.635,131.667 -4,8 -4,-8 z"
       fill="#0078d4"
       transform="matrix(1,0,0,-1,525.5,1349.67)"
       id="path216" />
    <rect
       x="17"
       y="822"
       width="212"
       height="153"
       stroke="#a6a6a6"
       stroke-width="2"
       stroke-linejoin="round"
       stroke-miterlimit="10"
       fill="#a0a0a0"
       id="rect218" />
    <text
       font-family="'Segoe UI', 'Segoe UI_MSFontService', sans-serif"
       font-weight="400"
       font-size="24px"
       transform="translate(72.2988,893)"
       id="text220">Project to</text>
    <text
       font-family="'Segoe UI', 'Segoe UI_MSFontService', sans-serif"
       font-weight="400"
       font-size="24px"
       transform="translate(94.5055,922)"
       id="text222">profit</text>
    <path
       d="m 0,-0.5 h 198.12 c 0.276,0 0.5,0.223858 0.5,0.5 v 573.661 h -1 V 0 l 0.5,0.5 H 0 Z m 202.12,572.828 -4,8 -4,-8 z"
       fill="#0078d4"
       transform="matrix(-1,0,0,1,314.62,242.5)"
       id="path224" />
    <path
       d="m 0,-0.5 h 42.3959 c 0.2761,0 0.5,0.223858 0.5,0.5 v 229.673 l -0.5,-0.5 h 35.7292 v 1 H 42.3959 c -0.2761,0 -0.5,-0.224 -0.5,-0.5 V 0 l 0.5,0.5 H 0 Z m 76.7918,226.173 8,4 -8,4 z"
       fill="#0078d4"
       transform="matrix(1,0,0,-1,229.5,899.173)"
       id="path226" />
    <path
       d="m 229.5,898 h 78.125 v 1 H 229.5 Z m 76.792,-3.5 8,4 -8,4 z"
       fill="#0078d4"
       id="path228" />
    <path
       d="m 229.5,898 h 42.474 c 0.276,0 0.5,0.224 0.5,0.5 v 234.85 l -0.5,-0.5 h 35.806 v 1 h -35.806 c -0.277,0 -0.5,-0.22 -0.5,-0.5 V 898.5 l 0.5,0.5 H 229.5 Z m 76.947,231.35 8,4 -8,4 z"
       fill="#0078d4"
       id="path230" />
    <path
       d="m 229.5,898 h 42.435 c 0.276,0 0.5,0.224 0.5,0.5 v 450.66 l -0.5,-0.5 h 35.768 v 1 h -35.768 c -0.276,0 -0.5,-0.22 -0.5,-0.5 V 898.5 l 0.5,0.5 H 229.5 Z m 76.869,447.16 8,4 -8,4 z"
       fill="#0078d4"
       id="path232" />
    <path
       d="m 525,241 h 101.136 v 2 H 525 Z m 99.803,-3 8,4 -8,4 z"
       fill="#0078d4"
       id="path234" />
  </g>
</svg>
