<?xml version="1.0" encoding="UTF-8" standalone="no"?>
<svg
   width="1920"
   height="1463.8364"
   overflow="hidden"
   version="1.1"
   id="svg1369"
   sodipodi:docname="inventory-to-deliver-4.svg"
   inkscape:version="1.2.2 (732a01da63, 2022-12-09)"
   xmlns:inkscape="http://www.inkscape.org/namespaces/inkscape"
   xmlns:sodipodi="http://sodipodi.sourceforge.net/DTD/sodipodi-0.dtd"
   xmlns="http://www.w3.org/2000/svg"
   xmlns:svg="http://www.w3.org/2000/svg">
  <defs
     id="defs1373" />
  <sodipodi:namedview
     id="namedview1371"
     pagecolor="#ffffff"
     bordercolor="#000000"
     borderopacity="0.25"
     inkscape:showpageshadow="2"
     inkscape:pageopacity="0.0"
     inkscape:pagecheckerboard="0"
     inkscape:deskcolor="#d1d1d1"
     showgrid="false"
     inkscape:zoom="0.53489583"
     inkscape:cx="959.06524"
     inkscape:cy="932.89192"
     inkscape:window-width="3840"
     inkscape:window-height="2054"
     inkscape:window-x="2725"
     inkscape:window-y="-11"
     inkscape:window-maximized="1"
     inkscape:current-layer="svg1369" />
  <g
     id="g1367"
     transform="translate(0,-26.173321)">
    <rect
       x="0"
       y="26.173321"
       width="1920"
       height="1463.8364"
       fill="#ffffff"
       id="rect1057"
       style="stroke-width:0.873164" />
    <rect
       x="274"
       y="32"
       width="1386"
       height="1150"
       stroke="#0078d4"
       stroke-width="2"
       stroke-linejoin="round"
       stroke-miterlimit="10"
       fill="#d9d9d9"
       id="rect1059" />
    <text
       fill="#0078d4"
       font-family="'Segoe UI', 'Segoe UI_MSFontService', sans-serif"
       font-weight="700"
       font-size="24px"
       transform="translate(302.771,78)"
       id="text1061">Business process area</text>
    <path
       d="M 31,68.5001 C 31,48.3417 47.3416,32 67.5001,32 H 220.5 c 20.159,0 36.5,16.3417 36.5,36.5001 v 0 C 257,88.6586 240.658,105 220.5,105 H 67.5001 C 47.3416,105 31,88.6583 31,68.4999 Z"
       stroke="#0078d4"
       stroke-width="2"
       stroke-linejoin="round"
       stroke-miterlimit="10"
       fill="#ffffff"
       fill-rule="evenodd"
       id="path1063" />
    <text
       font-family="'Segoe UI', 'Segoe UI_MSFontService', sans-serif"
       font-weight="400"
       font-size="24px"
       transform="translate(119.359,77)"
       id="text1065">Start</text>
    <rect
       x="31"
       y="147"
       width="226"
       height="153"
       stroke="#000000"
       stroke-width="2"
       stroke-linejoin="round"
       stroke-miterlimit="10"
       fill="#a0a0a0"
       id="rect1067" />
    <text
       font-family="'Segoe UI', 'Segoe UI_MSFontService', sans-serif"
       font-weight="400"
       font-size="24px"
       transform="translate(62.6428,232)"
       id="text1069">Design to retire</text>
    <path
       d="m 146,105.5 v 34.352 h -3 V 105.5 Z m 3,32.852 -4.5,9 -4.5,-9 z"
       fill="#0078d4"
       id="path1071" />
    <rect
       x="31"
       y="732"
       width="224"
       height="153"
       stroke="#000000"
       stroke-width="2"
       stroke-linejoin="round"
       stroke-miterlimit="10"
       fill="#a0a0a0"
       id="rect1073" />
    <text
       font-family="'Segoe UI', 'Segoe UI_MSFontService', sans-serif"
       font-weight="400"
       font-size="24px"
       transform="translate(78.6466,803)"
       id="text1075">Inventory to</text>
    <text
       font-family="'Segoe UI', 'Segoe UI_MSFontService', sans-serif"
       font-weight="400"
       font-size="24px"
       transform="translate(107.687,832)"
       id="text1077">deliver</text>
    <rect
       x="31"
       y="537"
       width="226"
       height="153"
       fill="#0078d4"
       id="rect1079" />
    <path
       d="M 59.25,537 V 690 M 228.75,537 V 690"
       stroke="#0078d4"
       stroke-width="2"
       stroke-linejoin="round"
       stroke-miterlimit="10"
       fill="none"
       fill-rule="evenodd"
       id="path1081" />
    <rect
       x="31"
       y="537"
       width="226"
       height="153"
       stroke="#0078d4"
       stroke-width="2"
       stroke-linejoin="round"
       stroke-miterlimit="10"
       fill="none"
       id="rect1083" />
    <text
       fill="#ffffff"
       font-family="'Segoe UI', 'Segoe UI_MSFontService', sans-serif"
       font-weight="400"
       font-size="24px"
       transform="translate(109.82,593)"
       id="text1085">Define</text>
    <text
       fill="#ffffff"
       font-family="'Segoe UI', 'Segoe UI_MSFontService', sans-serif"
       font-weight="400"
       font-size="24px"
       transform="translate(102.56,622)"
       id="text1087">product</text>
    <text
       fill="#ffffff"
       font-family="'Segoe UI', 'Segoe UI_MSFontService', sans-serif"
       font-weight="400"
       font-size="24px"
       transform="translate(105.653,651)"
       id="text1089">costing</text>
    <rect
       x="1053"
       y="908"
       width="252"
       height="154"
       fill="#ffffff"
       id="rect1091" />
    <path
       d="m 1084.5,908 v 154 m 189,-154 v 154"
       stroke="#0078d4"
       stroke-width="2"
       stroke-linejoin="round"
       stroke-miterlimit="10"
       fill="none"
       fill-rule="evenodd"
       id="path1093" />
    <rect
       x="1053"
       y="908"
       width="252"
       height="154"
       stroke="#0078d4"
       stroke-width="2"
       stroke-linejoin="round"
       stroke-miterlimit="10"
       fill="none"
       id="rect1095" />
    <text
       font-family="'Segoe UI', 'Segoe UI_MSFontService', sans-serif"
       font-weight="400"
       font-size="24px"
       transform="translate(1140.25,965)"
       id="text1097">Finalize</text>
    <text
       font-family="'Segoe UI', 'Segoe UI_MSFontService', sans-serif"
       font-weight="400"
       font-size="24px"
       transform="translate(1129.52,994)"
       id="text1099">inventory</text>
    <text
       font-family="'Segoe UI', 'Segoe UI_MSFontService', sans-serif"
       font-weight="400"
       font-size="24px"
       transform="translate(1152.5,1023)"
       id="text1101">costs</text>
    <rect
       x="372"
       y="147"
       width="252"
       height="153"
       stroke="#00569b"
       stroke-width="2"
       stroke-linejoin="round"
       stroke-miterlimit="10"
       fill="#0078d4"
       id="rect1103" />
    <text
       fill="#ffffff"
       font-family="'Segoe UI', 'Segoe UI_MSFontService', sans-serif"
       font-weight="400"
       font-size="24px"
       transform="translate(437.878,203)"
       id="text1105">Record and</text>
    <text
       fill="#ffffff"
       font-family="'Segoe UI', 'Segoe UI_MSFontService', sans-serif"
       font-weight="400"
       font-size="24px"
       transform="translate(402.151,232)"
       id="text1107">manage inventory</text>
    <text
       fill="#ffffff"
       font-family="'Segoe UI', 'Segoe UI_MSFontService', sans-serif"
       font-weight="400"
       font-size="24px"
       transform="translate(470.971,261)"
       id="text1109">costs</text>
    <rect
       x="423"
       y="910"
       width="252"
       height="153"
       fill="#ffffff"
       id="rect1111" />
    <path
       d="m 454.5,910 v 153 m 189,-153 v 153"
       stroke="#0078d4"
       stroke-width="2"
       stroke-linejoin="round"
       stroke-miterlimit="10"
       fill="none"
       fill-rule="evenodd"
       id="path1113" />
    <rect
       x="423"
       y="910"
       width="252"
       height="153"
       stroke="#0078d4"
       stroke-width="2"
       stroke-linejoin="round"
       stroke-miterlimit="10"
       fill="none"
       id="rect1115" />
    <text
       font-family="'Segoe UI', 'Segoe UI_MSFontService', sans-serif"
       font-weight="400"
       font-size="24px"
       transform="translate(508.101,966)"
       id="text1117">Analyze</text>
    <text
       font-family="'Segoe UI', 'Segoe UI_MSFontService', sans-serif"
       font-weight="400"
       font-size="24px"
       transform="translate(490.514,995)"
       id="text1119">transaction</text>
    <text
       font-family="'Segoe UI', 'Segoe UI_MSFontService', sans-serif"
       font-weight="400"
       font-size="24px"
       transform="translate(522.267,1024)"
       id="text1121">costs</text>
    <rect
       x="740"
       y="1000"
       width="252"
       height="154"
       fill="#ffffff"
       id="rect1123" />
    <path
       d="m 771.5,1000 v 154 m 189,-154 v 154"
       stroke="#0078d4"
       stroke-width="2"
       stroke-linejoin="round"
       stroke-miterlimit="10"
       fill="none"
       fill-rule="evenodd"
       id="path1125" />
    <rect
       x="740"
       y="1000"
       width="252"
       height="154"
       stroke="#0078d4"
       stroke-width="2"
       stroke-linejoin="round"
       stroke-miterlimit="10"
       fill="none"
       id="rect1127" />
    <text
       font-family="'Segoe UI', 'Segoe UI_MSFontService', sans-serif"
       font-weight="400"
       font-size="24px"
       transform="translate(806.175,1042)"
       id="text1129">Review and</text>
    <text
       font-family="'Segoe UI', 'Segoe UI_MSFontService', sans-serif"
       font-weight="400"
       font-size="24px"
       transform="translate(834.009,1071)"
       id="text1131">adjust</text>
    <text
       font-family="'Segoe UI', 'Segoe UI_MSFontService', sans-serif"
       font-weight="400"
       font-size="24px"
       transform="translate(824.415,1100)"
       id="text1133">product</text>
    <text
       font-family="'Segoe UI', 'Segoe UI_MSFontService', sans-serif"
       font-weight="400"
       font-size="24px"
       transform="translate(811.582,1129)"
       id="text1135">base costs</text>
    <path
       d="m 1681,1153.5 c 0,-20.16 16.34,-36.5 36.5,-36.5 h 150 c 20.16,0 36.5,16.34 36.5,36.5 v 0 c 0,20.16 -16.34,36.5 -36.5,36.5 h -150 c -20.16,0 -36.5,-16.34 -36.5,-36.5 z"
       stroke="#0078d4"
       stroke-width="2"
       stroke-linejoin="round"
       stroke-miterlimit="10"
       fill="#ffffff"
       fill-rule="evenodd"
       id="path1137" />
    <text
       font-family="'Segoe UI', 'Segoe UI_MSFontService', sans-serif"
       font-weight="400"
       font-size="24px"
       transform="translate(1772.37,1162)"
       id="text1139">End</text>
    <path
       d="m 144.999,885.457 0.985,34.355 -2.998,0.086 -0.985,-34.355 z m 3.941,32.77 -4.24,9.125 -4.756,-8.867 z"
       fill="#0078d4"
       id="path1141" />
    <path
       d="m 0,-1.5 h 57.3875 c 0.8284,0 1.5,0.671573 1.5,1.5 v 390.286 l -1.5,-1.5 h 49.8875 v 3 H 57.3875 c -0.8284,0 -1.5,-0.672 -1.5,-1.5 V 0 l 1.5,1.5 H 0 Z m 105.775,387.286 9,4.5 -9,4.5 z"
       fill="#0078d4"
       transform="matrix(1,0,0,-1,257.5,613.786)"
       id="path1143" />
    <rect
       x="740"
       y="815"
       width="252"
       height="153"
       fill="#ffffff"
       id="rect1147" />
    <path
       d="m 771.5,815 v 153 m 189,-153 v 153"
       stroke="#0078d4"
       stroke-width="2"
       stroke-linejoin="round"
       stroke-miterlimit="10"
       fill="none"
       fill-rule="evenodd"
       id="path1149" />
    <rect
       x="740"
       y="815"
       width="252"
       height="153"
       stroke="#0078d4"
       stroke-width="2"
       stroke-linejoin="round"
       stroke-miterlimit="10"
       fill="none"
       id="rect1151" />
    <text
       font-family="'Segoe UI', 'Segoe UI_MSFontService', sans-serif"
       font-weight="400"
       font-size="24px"
       transform="translate(810.509,857)"
       id="text1153">Adjust on</text>
    <text
       font-family="'Segoe UI', 'Segoe UI_MSFontService', sans-serif"
       font-weight="400"
       font-size="24px"
       transform="translate(911.842,857)"
       id="text1155">-</text>
    <text
       font-family="'Segoe UI', 'Segoe UI_MSFontService', sans-serif"
       font-weight="400"
       font-size="24px"
       transform="translate(839.342,886)"
       id="text1157">hand</text>
    <text
       font-family="'Segoe UI', 'Segoe UI_MSFontService', sans-serif"
       font-weight="400"
       font-size="24px"
       transform="translate(816.189,915)"
       id="text1159">inventory</text>
    <text
       font-family="'Segoe UI', 'Segoe UI_MSFontService', sans-serif"
       font-weight="400"
       font-size="24px"
       transform="translate(839.175,944)"
       id="text1161">costs</text>
    <path
       d="m 0,-1.5 h 24 c 0.8284,0 1.5,0.671573 1.5,1.5 v 740.313 c 0,0.828 -0.6716,1.5 -1.5,1.5 H 8.83333 v -3 H 24 l -1.5,1.5 V 0 L 24,1.5 H 0 Z m 10.3333,746.313 -8.99997,-4.5 8.99997,-4.5 z"
       fill="#0078d4"
       transform="matrix(-1,0,0,1,32.8334,68.5001)"
       id="path1163" />
    <path
       d="m 0,-1.5 h 83.9383 c 0.8284,0 1.5,0.671573 1.5,1.5 v 311.986 l -1.5,-1.5 h 76.4387 v 3 H 83.9383 c -0.8284,0 -1.5,-0.672 -1.5,-1.5 V 0 l 1.5,1.5 H 0 Z m 158.877,308.986 9,4.5 -9,4.5 z"
       fill="#0078d4"
       transform="matrix(1,0,0,-1,257.5,1004.49)"
       id="path1165" />
    <rect
       x="31"
       y="342"
       width="226"
       height="153"
       fill="#0078d4"
       id="rect1167" />
    <path
       d="M 59.25,342 V 495 M 228.75,342 V 495"
       stroke="#0078d4"
       stroke-width="2"
       stroke-linejoin="round"
       stroke-miterlimit="10"
       fill="none"
       fill-rule="evenodd"
       id="path1169" />
    <rect
       x="31"
       y="342"
       width="226"
       height="153"
       stroke="#0078d4"
       stroke-width="2"
       stroke-linejoin="round"
       stroke-miterlimit="10"
       fill="none"
       id="rect1171" />
    <text
       fill="#ffffff"
       font-family="'Segoe UI', 'Segoe UI_MSFontService', sans-serif"
       font-weight="400"
       font-size="24px"
       transform="translate(93.4764,398)"
       id="text1173">Introduce</text>
    <text
       fill="#ffffff"
       font-family="'Segoe UI', 'Segoe UI_MSFontService', sans-serif"
       font-weight="400"
       font-size="24px"
       transform="translate(122.49,427)"
       id="text1175">new</text>
    <text
       fill="#ffffff"
       font-family="'Segoe UI', 'Segoe UI_MSFontService', sans-serif"
       font-weight="400"
       font-size="24px"
       transform="translate(97.4764,456)"
       id="text1177">products</text>
    <rect
       x="418"
       y="363"
       width="252"
       height="154"
       fill="#ffffff"
       id="rect1179" />
    <path
       d="m 449.5,363 v 154 m 189,-154 v 154"
       stroke="#0078d4"
       stroke-width="2"
       stroke-linejoin="round"
       stroke-miterlimit="10"
       fill="none"
       fill-rule="evenodd"
       id="path1181" />
    <rect
       x="418"
       y="363"
       width="252"
       height="154"
       stroke="#0078d4"
       stroke-width="2"
       stroke-linejoin="round"
       stroke-miterlimit="10"
       fill="none"
       id="rect1183" />
    <text
       font-family="'Segoe UI', 'Segoe UI_MSFontService', sans-serif"
       font-weight="400"
       font-size="24px"
       transform="translate(484.182,420)"
       id="text1185">Define cost</text>
    <text
       font-family="'Segoe UI', 'Segoe UI_MSFontService', sans-serif"
       font-weight="400"
       font-size="24px"
       transform="translate(484.928,449)"
       id="text1187">accounting</text>
    <text
       font-family="'Segoe UI', 'Segoe UI_MSFontService', sans-serif"
       font-weight="400"
       font-size="24px"
       transform="translate(503.762,478)"
       id="text1189">policies</text>
    <rect
       x="740"
       y="363"
       width="252"
       height="154"
       fill="#ffffff"
       id="rect1191" />
    <path
       d="m 771.5,363 v 154 m 189,-154 v 154"
       stroke="#0078d4"
       stroke-width="2"
       stroke-linejoin="round"
       stroke-miterlimit="10"
       fill="none"
       fill-rule="evenodd"
       id="path1193" />
    <rect
       x="740"
       y="363"
       width="252"
       height="154"
       stroke="#0078d4"
       stroke-width="2"
       stroke-linejoin="round"
       stroke-miterlimit="10"
       fill="none"
       id="rect1195" />
    <text
       font-family="'Segoe UI', 'Segoe UI_MSFontService', sans-serif"
       font-weight="400"
       font-size="24px"
       transform="translate(806.318,405)"
       id="text1197">Define cost</text>
    <text
       font-family="'Segoe UI', 'Segoe UI_MSFontService', sans-serif"
       font-weight="400"
       font-size="24px"
       transform="translate(807.065,434)"
       id="text1199">accounting</text>
    <text
       font-family="'Segoe UI', 'Segoe UI_MSFontService', sans-serif"
       font-weight="400"
       font-size="24px"
       transform="translate(815.958,463)"
       id="text1201">reporting</text>
    <text
       font-family="'Segoe UI', 'Segoe UI_MSFontService', sans-serif"
       font-weight="400"
       font-size="24px"
       transform="translate(818.891,492)"
       id="text1203">structure</text>
    <rect
       x="1055"
       y="363"
       width="252"
       height="154"
       fill="#ffffff"
       id="rect1205" />
    <path
       d="m 1086.5,363 v 154 m 189,-154 v 154"
       stroke="#0078d4"
       stroke-width="2"
       stroke-linejoin="round"
       stroke-miterlimit="10"
       fill="none"
       fill-rule="evenodd"
       id="path1207" />
    <rect
       x="1055"
       y="363"
       width="252"
       height="154"
       stroke="#0078d4"
       stroke-width="2"
       stroke-linejoin="round"
       stroke-miterlimit="10"
       fill="none"
       id="rect1209" />
    <text
       font-family="'Segoe UI', 'Segoe UI_MSFontService', sans-serif"
       font-weight="400"
       font-size="24px"
       transform="translate(1121.4,420)"
       id="text1211">Define cost</text>
    <text
       font-family="'Segoe UI', 'Segoe UI_MSFontService', sans-serif"
       font-weight="400"
       font-size="24px"
       transform="translate(1122.15,449)"
       id="text1213">accounting</text>
    <text
       font-family="'Segoe UI', 'Segoe UI_MSFontService', sans-serif"
       font-weight="400"
       font-size="24px"
       transform="translate(1146.98,478)"
       id="text1215">ledger</text>
    <rect
       x="425"
       y="615"
       width="252"
       height="154"
       fill="#ffffff"
       id="rect1217" />
    <path
       d="m 456.5,615 v 154 m 189,-154 v 154"
       stroke="#0078d4"
       stroke-width="2"
       stroke-linejoin="round"
       stroke-miterlimit="10"
       fill="none"
       fill-rule="evenodd"
       id="path1219" />
    <rect
       x="425"
       y="615"
       width="252"
       height="154"
       stroke="#0078d4"
       stroke-width="2"
       stroke-linejoin="round"
       stroke-miterlimit="10"
       fill="none"
       id="rect1221" />
    <text
       font-family="'Segoe UI', 'Segoe UI_MSFontService', sans-serif"
       font-weight="400"
       font-size="24px"
       transform="translate(511.143,657)"
       id="text1223">Process</text>
    <text
       font-family="'Segoe UI', 'Segoe UI_MSFontService', sans-serif"
       font-weight="400"
       font-size="24px"
       transform="translate(489.643,686)"
       id="text1225">source data</text>
    <text
       font-family="'Segoe UI', 'Segoe UI_MSFontService', sans-serif"
       font-weight="400"
       font-size="24px"
       transform="translate(510.983,715)"
       id="text1227">for cost</text>
    <text
       font-family="'Segoe UI', 'Segoe UI_MSFontService', sans-serif"
       font-weight="400"
       font-size="24px"
       transform="translate(492.316,744)"
       id="text1229">accounting</text>
    <rect
       x="1375"
       y="615"
       width="252"
       height="154"
       fill="#ffffff"
       id="rect1231" />
    <path
       d="m 1406.5,615 v 154 m 189,-154 v 154"
       stroke="#0078d4"
       stroke-width="2"
       stroke-linejoin="round"
       stroke-miterlimit="10"
       fill="none"
       fill-rule="evenodd"
       id="path1233" />
    <rect
       x="1375"
       y="615"
       width="252"
       height="154"
       stroke="#0078d4"
       stroke-width="2"
       stroke-linejoin="round"
       stroke-miterlimit="10"
       fill="none"
       id="rect1235" />
    <text
       font-family="'Segoe UI', 'Segoe UI_MSFontService', sans-serif"
       font-weight="400"
       font-size="24px"
       transform="translate(1460.07,657)"
       id="text1237">Analyze</text>
    <text
       font-family="'Segoe UI', 'Segoe UI_MSFontService', sans-serif"
       font-weight="400"
       font-size="24px"
       transform="translate(1479.32,686)"
       id="text1239">cost</text>
    <text
       font-family="'Segoe UI', 'Segoe UI_MSFontService', sans-serif"
       font-weight="400"
       font-size="24px"
       transform="translate(1442.49,715)"
       id="text1241">accounting</text>
    <text
       font-family="'Segoe UI', 'Segoe UI_MSFontService', sans-serif"
       font-weight="400"
       font-size="24px"
       transform="translate(1477.74,744)"
       id="text1243">data</text>
    <rect
       x="745"
       y="615"
       width="252"
       height="154"
       fill="#ffffff"
       id="rect1245" />
    <path
       d="m 776.5,615 v 154 m 189,-154 v 154"
       stroke="#0078d4"
       stroke-width="2"
       stroke-linejoin="round"
       stroke-miterlimit="10"
       fill="none"
       fill-rule="evenodd"
       id="path1247" />
    <rect
       x="745"
       y="615"
       width="252"
       height="154"
       stroke="#0078d4"
       stroke-width="2"
       stroke-linejoin="round"
       stroke-miterlimit="10"
       fill="none"
       id="rect1249" />
    <text
       font-family="'Segoe UI', 'Segoe UI_MSFontService', sans-serif"
       font-weight="400"
       font-size="24px"
       transform="translate(822.584,657)"
       id="text1251">Calculate</text>
    <text
       font-family="'Segoe UI', 'Segoe UI_MSFontService', sans-serif"
       font-weight="400"
       font-size="24px"
       transform="translate(816.231,686)"
       id="text1253">overheads</text>
    <text
       font-family="'Segoe UI', 'Segoe UI_MSFontService', sans-serif"
       font-weight="400"
       font-size="24px"
       transform="translate(830.658,715)"
       id="text1255">for cost</text>
    <text
       font-family="'Segoe UI', 'Segoe UI_MSFontService', sans-serif"
       font-weight="400"
       font-size="24px"
       transform="translate(811.991,744)"
       id="text1257">accounting</text>
    <rect
       x="1060"
       y="615"
       width="252"
       height="154"
       fill="#ffffff"
       id="rect1259" />
    <path
       d="m 1091.5,615 v 154 m 189,-154 v 154"
       stroke="#0078d4"
       stroke-width="2"
       stroke-linejoin="round"
       stroke-miterlimit="10"
       fill="none"
       fill-rule="evenodd"
       id="path1261" />
    <rect
       x="1060"
       y="615"
       width="252"
       height="154"
       stroke="#0078d4"
       stroke-width="2"
       stroke-linejoin="round"
       stroke-miterlimit="10"
       fill="none"
       id="rect1263" />
    <text
       font-family="'Segoe UI', 'Segoe UI_MSFontService', sans-serif"
       font-weight="400"
       font-size="24px"
       transform="translate(1126.33,657)"
       id="text1265">Define cost</text>
    <text
       font-family="'Segoe UI', 'Segoe UI_MSFontService', sans-serif"
       font-weight="400"
       font-size="24px"
       transform="translate(1127.07,686)"
       id="text1267">accounting</text>
    <text
       font-family="'Segoe UI', 'Segoe UI_MSFontService', sans-serif"
       font-weight="400"
       font-size="24px"
       transform="translate(1134.33,715)"
       id="text1269">allocation</text>
    <text
       font-family="'Segoe UI', 'Segoe UI_MSFontService', sans-serif"
       font-weight="400"
       font-size="24px"
       transform="translate(1160.49,744)"
       id="text1271">rules</text>
    <rect
       x="31"
       y="1318"
       width="226"
       height="153"
       fill="#0078d4"
       id="rect1273" />
    <path
       d="m 59.25,1318 v 153 m 169.5,-153 v 153"
       stroke="#0078d4"
       stroke-width="2"
       stroke-linejoin="round"
       stroke-miterlimit="10"
       fill="none"
       fill-rule="evenodd"
       id="path1275" />
    <rect
       x="31"
       y="1318"
       width="226"
       height="153"
       stroke="#0078d4"
       stroke-width="2"
       stroke-linejoin="round"
       stroke-miterlimit="10"
       fill="none"
       id="rect1277" />
    <text
       fill="#ffffff"
       font-family="'Segoe UI', 'Segoe UI_MSFontService', sans-serif"
       font-weight="400"
       font-size="24px"
       transform="translate(104.393,1374)"
       id="text1279">Process</text>
    <text
       fill="#ffffff"
       font-family="'Segoe UI', 'Segoe UI_MSFontService', sans-serif"
       font-weight="400"
       font-size="24px"
       transform="translate(91.6531,1403)"
       id="text1281">outbound</text>
    <text
       fill="#ffffff"
       font-family="'Segoe UI', 'Segoe UI_MSFontService', sans-serif"
       font-weight="400"
       font-size="24px"
       transform="translate(110.9,1432)"
       id="text1283">goods</text>
    <rect
       x="31"
       y="1122"
       width="226"
       height="154"
       fill="#0078d4"
       id="rect1285" />
    <path
       d="m 59.25,1122 v 154 m 169.5,-154 v 154"
       stroke="#0078d4"
       stroke-width="2"
       stroke-linejoin="round"
       stroke-miterlimit="10"
       fill="none"
       fill-rule="evenodd"
       id="path1287" />
    <rect
       x="31"
       y="1122"
       width="226"
       height="154"
       stroke="#0078d4"
       stroke-width="2"
       stroke-linejoin="round"
       stroke-miterlimit="10"
       fill="none"
       id="rect1289" />
    <text
       fill="#ffffff"
       font-family="'Segoe UI', 'Segoe UI_MSFontService', sans-serif"
       font-weight="400"
       font-size="24px"
       transform="translate(104.393,1179)"
       id="text1291">Process</text>
    <text
       fill="#ffffff"
       font-family="'Segoe UI', 'Segoe UI_MSFontService', sans-serif"
       font-weight="400"
       font-size="24px"
       transform="translate(99.8197,1208)"
       id="text1293">inbound</text>
    <text
       fill="#ffffff"
       font-family="'Segoe UI', 'Segoe UI_MSFontService', sans-serif"
       font-weight="400"
       font-size="24px"
       transform="translate(110.9,1237)"
       id="text1295">goods</text>
    <rect
       x="1681"
       y="908"
       width="223"
       height="153"
       stroke="#000000"
       stroke-width="2"
       stroke-linejoin="round"
       stroke-miterlimit="10"
       fill="#a0a0a0"
       id="rect1297" />
    <text
       font-family="'Segoe UI', 'Segoe UI_MSFontService', sans-serif"
       font-weight="400"
       font-size="24px"
       transform="translate(1741.29,979)"
       id="text1299">Record to</text>
    <text
       font-family="'Segoe UI', 'Segoe UI_MSFontService', sans-serif"
       font-weight="400"
       font-size="24px"
       transform="translate(1759.35,1008)"
       id="text1301">report</text>
    <rect
       x="31"
       y="927"
       width="226"
       height="154"
       fill="#0078d4"
       id="rect1303" />
    <path
       d="m 59.25,927 v 154 m 169.5,-154 v 154"
       stroke="#0078d4"
       stroke-width="2"
       stroke-linejoin="round"
       stroke-miterlimit="10"
       fill="none"
       fill-rule="evenodd"
       id="path1305" />
    <rect
       x="31"
       y="927"
       width="226"
       height="154"
       stroke="#0078d4"
       stroke-width="2"
       stroke-linejoin="round"
       stroke-miterlimit="10"
       fill="none"
       id="rect1307" />
    <text
       fill="#ffffff"
       font-family="'Segoe UI', 'Segoe UI_MSFontService', sans-serif"
       font-weight="400"
       font-size="24px"
       transform="translate(97.823,984)"
       id="text1309">Maintain</text>
    <text
       fill="#ffffff"
       font-family="'Segoe UI', 'Segoe UI_MSFontService', sans-serif"
       font-weight="400"
       font-size="24px"
       transform="translate(94.3364,1013)"
       id="text1311">inventory</text>
    <text
       fill="#ffffff"
       font-family="'Segoe UI', 'Segoe UI_MSFontService', sans-serif"
       font-weight="400"
       font-size="24px"
       transform="translate(115.056,1042)"
       id="text1313">levels</text>
    <path
       d="m 0,-1.5 h 31.6902 c 0.8284,0 1.5,0.671573 1.5,1.5 v 45.7138 l -1.5,-1.5 h 24.1902 v 3 H 31.6902 c -0.8284,0 -1.5,-0.6716 -1.5,-1.5 V 0 l 1.5,1.5 H 0 Z m 54.3804,42.7138 9,4.5 -9,4.5 z"
       fill="#0078d4"
       transform="matrix(0,1,1,0,498.5,300.5)"
       id="path1315" />
    <path
       d="m 670.5,439 h 62.636 v 3 H 670.5 Z m 61.136,-3 9,4.5 -9,4.5 z"
       fill="#0078d4"
       id="path1317" />
    <path
       d="m 992.5,439 h 55.59 v 3 H 992.5 Z m 54.09,-3 9,4.5 -9,4.5 z"
       fill="#0078d4"
       id="path1319" />
    <path
       d="m 1182.83,517.5 v 49.312 c 0,0.829 -0.67,1.5 -1.5,1.5 H 551.5 l 1.5,-1.5 v 41.812 h -3 v -41.812 c 0,-0.828 0.672,-1.5 1.5,-1.5 h 629.83 l -1.5,1.5 V 517.5 Z M 556,607.124 l -4.5,9 -4.5,-9 z"
       fill="#0078d4"
       id="path1321" />
    <path
       d="m 677.5,691 h 60.171 v 3 H 677.5 Z m 58.671,-3 9,4.5 -9,4.5 z"
       fill="#0078d4"
       id="path1323" />
    <path
       d="m 146,300.5 v 34.352 h -3 V 300.5 Z m 3,32.852 -4.5,9 -4.5,-9 z"
       fill="#0078d4"
       id="path1325" />
    <path
       d="m 146,495.5 v 34.352 h -3 V 495.5 Z m 3,32.852 -4.5,9 -4.5,-9 z"
       fill="#0078d4"
       id="path1327" />
    <path
       d="m 997.5,691 h 55.59 v 3 H 997.5 Z m 54.09,-3 9,4.5 -9,4.5 z"
       fill="#0078d4"
       id="path1329" />
    <path
       d="m 1312.5,691 h 55.91 v 3 h -55.91 z m 54.41,-3 9,4.5 -9,4.5 z"
       fill="#0078d4"
       id="path1331" />
    <path
       d="M 0.00174106,-1.5 367.783,-1.07311 367.779,1.92688 -0.00174106,1.5 Z M 366.286,-4.07485 l 8.995,4.510441 -9.005,4.489549 z"
       fill="#0078d4"
       transform="matrix(1,0,0,-1,1305.5,985.936)"
       id="path1333" />
    <path
       d="m 0,-1.5 h 83.9386 c 0.8284,0 1.5,0.671573 1.5,1.5 v 507.128 l -1.5,-1.5 h 76.4384 v 3 H 83.9386 c -0.8284,0 -1.5,-0.671 -1.5,-1.5 V 0 l 1.5,1.5 H 0 Z m 158.877,504.128 9,4.5 -9,4.5 z"
       fill="#0078d4"
       transform="matrix(1,0,0,-1,257.5,1199.63)"
       id="path1335" />
    <path
       d="m 0,-1.5 h 83.9387 c 0.8284,0 1.5,0.671573 1.5,1.5 v 702.271 l -1.5,-1.5 h 76.4383 v 3 H 83.9387 c -0.8284,0 -1.5,-0.671 -1.5,-1.5 V 0 l 1.5,1.5 H 0 Z m 158.877,699.271 9,4.5 -9,4.5 z"
       fill="#0078d4"
       transform="matrix(1,0,0,-1,257.5,1394.77)"
       id="path1337" />
    <path
       d="m 0,-1.5 h 83.0355 c 0.8284,0 1.5,0.671573 1.5,1.5 v 407.59 l -1.5,-1.5 h 75.5355 v 3 H 83.0355 c -0.8284,0 -1.5,-0.671 -1.5,-1.5 V 0 l 1.5,1.5 H 0 Z m 157.071,404.59 9,4.5 -9,4.5 z"
       fill="#0078d4"
       transform="matrix(1,0,0,-1,257.5,1395.09)"
       id="path1339" />
    <path
       d="m 0,-1.5 h 83.0355 c 0.8284,0 1.5,0.671573 1.5,1.5 v 212.447 l -1.5,-1.5 h 75.5355 v 3 H 83.0355 c -0.8284,0 -1.5,-0.671 -1.5,-1.5 V 0 l 1.5,1.5 H 0 Z m 157.071,209.447 9,4.5 -9,4.5 z"
       fill="#0078d4"
       transform="matrix(1,0,0,-1,257.5,1199.95)"
       id="path1341" />
    <path
       d="m 0,-1.5 h 83.0355 c 0.8284,0 1.5,0.671573 1.5,1.5 v 17.3045 l -1.5,-1.5 h 75.5355 v 3 H 83.0355 c -0.8284,0 -1.5,-0.6716 -1.5,-1.5 V 0 l 1.5,1.5 H 0 Z m 157.071,14.3045 9,4.5 -9,4.5 z"
       fill="#0078d4"
       transform="matrix(1,0,0,-1,257.5,1004.8)"
       id="path1343" />
    <path
       d="m 0,-1.5 h 32.4557 c 0.8285,0 1.5,0.671573 1.5,1.5 v 94.894 l -1.5,-1.5 h 24.9557 v 3 H 32.4557 c -0.8284,0 -1.5,-0.6716 -1.5,-1.5 V 0 l 1.5,1.5 H 0 Z m 55.9114,91.894 9,4.5 -9,4.5 z"
       fill="#0078d4"
       transform="matrix(1,0,0,-1,675.5,987.394)"
       id="path1345" />
    <path
       d="m 675.5,986 h 32.456 c 0.828,0 1.5,0.672 1.5,1.5 v 90.45 l -1.5,-1.5 h 24.955 v 3 h -24.955 c -0.829,0 -1.5,-0.67 -1.5,-1.5 V 987.5 l 1.5,1.5 H 675.5 Z m 55.911,87.45 9,4.5 -9,4.5 z"
       fill="#0078d4"
       id="path1347" />
    <path
       d="m 992.5,891 h 30.66 c 0.83,0 1.5,0.672 1.5,1.5 v 93.408 l -1.5,-1.5 h 23.16 v 3 h -23.16 c -0.83,0 -1.5,-0.672 -1.5,-1.5 V 892.5 l 1.5,1.5 H 992.5 Z m 52.32,90.408 9,4.5 -9,4.5 z"
       fill="#0078d4"
       id="path1349" />
    <path
       d="m 0,-1.5 h 30.6618 c 0.8284,0 1.5,0.671573 1.5,1.5 v 91.9365 l -1.5,-1.5 h 23.1617 v 3 H 30.6618 c -0.8284,0 -1.5,-0.6716 -1.5,-1.5 V 0 l 1.5,1.5 H 0 Z m 52.3235,88.9365 9,4.5 -9,4.5 z"
       fill="#0078d4"
       transform="matrix(1,0,0,-1,992.5,1077.44)"
       id="path1351" />
    <path
       d="m 1794,1061.5 v 48.48 h -3 v -48.48 z m 3,46.98 -4.5,9 -4.5,-9 z"
       fill="#0078d4"
       id="path1353" />
    <path
       d="m 1627.5,691 h 165.22 c 0.82,0 1.5,0.672 1.5,1.5 v 208.615 h -3 V 692.5 l 1.5,1.5 H 1627.5 Z m 169.72,208.615 -4.5,9 -4.5,-9 z"
       fill="#0078d4"
       id="path1355" />
    <path
       d="m 146,1081.5 v 34.35 h -3 v -34.35 z m 3,32.85 -4.5,9 -4.5,-9 z"
       fill="#0078d4"
       id="path1357" />
    <path
       d="m 146,1276.5 v 34.35 h -3 v -34.35 z m 3,32.85 -4.5,9 -4.5,-9 z"
       fill="#0078d4"
       id="path1359" />
    <path
       d="m 0,-1.5 h 109.845 c 0.829,0 1.5,0.671573 1.5,1.5 v 168.47 l -1.5,-1.5 h 102.346 v 3 H 109.845 c -0.828,0 -1.5,-0.671 -1.5,-1.5 V 0 l 1.5,1.5 H 0 Z m 210.69,165.47 9,4.5 -9,4.5 z"
       fill="#0078d4"
       transform="matrix(0,1,1,0,381.5,690.5)"
       id="path1361" />
    <path
       d="M 0,0 1.04987e-4,360.595"
       stroke="#0078d4"
       stroke-width="3"
       stroke-linejoin="round"
       stroke-miterlimit="10"
       fill="none"
       fill-rule="evenodd"
       transform="matrix(1,0,0,-1,381.5,692.095)"
       id="path1363" />
    <path
       d="M 379.5,332.5 H 498.551"
       stroke="#0078d4"
       stroke-width="3"
       stroke-linejoin="round"
       stroke-miterlimit="10"
       fill="none"
       fill-rule="evenodd"
       id="path1365" />
  </g>
</svg>
