<?xml version="1.0"?>
<svg xmlns="http://www.w3.org/2000/svg" xmlns:xlink="http://www.w3.org/1999/xlink" xmlns:ev="http://www.w3.org/2001/xml-events"    viewBox="40 40 410 437"    xml:space="preserve" color-interpolation-filters="sRGB" class="st10" width="1025" height="1093">
<rect x="0" y="0" width="1025" height="1093" fill="#ffffff" />
	<style type="text/css"><![CDATA[
		.st1 {fill:#ffffff;stroke:#0078d4;stroke-linecap:round;stroke-linejoin:round;stroke-width:0.24}
		.st2 {fill:#000000;font-family:Calibri;font-size:1.00001em}
		.st3 {fill:#0078d4;stroke:none;stroke-linecap:round;stroke-linejoin:round;stroke-width:0.24}
		.st4 {fill:#ffffff;font-family:Calibri;font-size:1.00001em}
		.st5 {font-size:1em}
		.st6 {fill:#ffffff}
		.st7 {stroke:#0078d4;stroke-linecap:round;stroke-linejoin:round;stroke-width:0.24}
		.st8 {marker-end:url(#mrkr13-45);stroke:#0078d4;stroke-linecap:round;stroke-linejoin:round;stroke-width:0.75}
		.st9 {fill:#0078d4;fill-opacity:1;stroke:#0078d4;stroke-opacity:1;stroke-width:0.22935779816514}
		.st10 {fill:none;fill-rule:evenodd;font-size:12px;overflow:visible;stroke-linecap:square;stroke-miterlimit:3}
	]]></style><style> a { pointer-events: none; } </style><style>a.rules_svg_anchor g:hover { opacity:0.8; cursor:pointer; }</style>
	<defs id="Markers">
		<g id="lend13">
			<path d="M 3 1 L 0 0 L 3 -1 L 3 1 " style="stroke:none" />
		</g>
		<marker id="mrkr13-45" class="st9" refX="-13.08" orient="auto" markerUnits="strokeWidth" overflow="visible">
			<use xlink:href="#lend13" transform="scale(-4.36,-4.36) " />
		</marker>
	</defs>
	<g>
		
		<g id="shape1-1" transform="translate(40.5,-702)">
			
			<desc>Start</desc>
			<path d="M18 792 L67.5 792 A18 18 -180 0 0 67.5 756 L18 756 A18 18 -180 1 0 18 792 Z" class="st1" />
			<text x="31.01" y="777.6" class="st2">Start</text>
		</g>
		<a id="f6deaaf0-315d-409c-9287-826ca5325cce" class="rules_svg_anchor rules_svg_shape"   href="/lms/chart?onclick=b3BlbkNoYXJ0Q29udGV4dE1lbnUoZXZlbnQsJ3cxMTZkNTIzNTk2NWMxNzA5NHY0MDcxJywxODIzMywgMSwgMSwgdGhpcywgd2luZG93LmZyYW1lRWxlbWVudCk=&amp;navigate=true&amp;details=Description">
			<g id="shape2-4" transform="translate(216,-688.5)">
				
				<desc>60.10 Manage warehouse operations</desc>
				<rect x="0" y="729" width="126" height="63" class="st3" />
				<text x="28.12" y="756.9" class="st4">60.10 Manage <tspan x="8.28" dy="1.2em" class="st5">warehouse operations</tspan>
				</text>
			</g>
		</a>
		<a id="bcf1783c-a4fc-4fc2-ac42-31cdf9f62cb9" class="rules_svg_anchor rules_svg_shape"   href="/lms/chart?onclick=b3BlbkNoYXJ0Q29udGV4dE1lbnUoZXZlbnQsJ3cxMTZkNTIzNTk2NWMxNzA5NXY0MDcxJywxODIzNCwgMSwgMSwgdGhpcywgd2luZG93LmZyYW1lRWxlbWVudCk=&amp;navigate=true&amp;details=Description">
			<g id="shape3-8" transform="translate(135,-576)">
				
				<desc>60.10.010 Define warehouse processes</desc>
				<path d="M0 792 L126 792 L126 729 L0 729 L0 792 Z" class="st6" />
				<path d="M0 792 L126 792 L126 729 L0 729 L0 792" class="st7" />
				<path d="M9 792 L9 729" class="st7" />
				<path d="M117 792 L117 729" class="st7" />
				<text x="21.3" y="749.7" class="st2">60.10.010 Define <tspan x="35.96" dy="1.2em" class="st5">warehouse </tspan>
					<tspan x="39.04" dy="1.2em" class="st5">processes</tspan>
				</text>
			</g>
		</a>
		<a id="70ce04e7-cc7b-49ef-ba99-d6c0ce90c173" class="rules_svg_anchor rules_svg_shape"   href="/lms/chart?onclick=b3BlbkNoYXJ0Q29udGV4dE1lbnUoZXZlbnQsJ3cxMTZkNTIzNTk2NWMxNzA5NnY0MDcxJywxODIzNSwgMSwgMSwgdGhpcywgd2luZG93LmZyYW1lRWxlbWVudCk=&amp;navigate=true&amp;details=Description">
			<g id="shape4-16" transform="translate(324,-576)">
				
				<desc>60.10.020 Design warehouse layout</desc>
				<path d="M0 792 L126 792 L126 729 L0 729 L0 792 Z" class="st6" />
				<path d="M0 792 L126 792 L126 729 L0 729 L0 792" class="st7" />
				<path d="M9 792 L9 729" class="st7" />
				<path d="M117 792 L117 729" class="st7" />
				<text x="20.95" y="756.9" class="st2">60.10.020 Design <tspan x="19.31" dy="1.2em" class="st5">warehouse layout</tspan>
				</text>
			</g>
		</a>
		<a id="ddeb5ee7-c8aa-440d-8c50-7565cbeecc23" class="rules_svg_anchor rules_svg_shape"   href="/lms/chart?onclick=b3BlbkNoYXJ0Q29udGV4dE1lbnUoZXZlbnQsJ3cxMTZkNTIzNTk2NWMxNzA5N3Y0MDcxJywxODIzNiwgMSwgMSwgdGhpcywgd2luZG93LmZyYW1lRWxlbWVudCk=&amp;navigate=true&amp;details=Description">
			<g id="shape5-23" transform="translate(135,-450)">
				
				<desc>60.10.030 Document warehouse policies</desc>
				<path d="M0 792 L126 792 L126 729 L0 729 L0 792 Z" class="st6" />
				<path d="M0 792 L126 792 L126 729 L0 729 L0 792" class="st7" />
				<path d="M9 792 L9 729" class="st7" />
				<path d="M117 792 L117 729" class="st7" />
				<text x="11.84" y="756.9" class="st2">60.10.030 Document <tspan x="16.29" dy="1.2em" class="st5">warehouse policies</tspan>
				</text>
			</g>
		</a>
		<a id="bb09dc2f-9c9b-4674-8068-9cc2b059c1f0" class="rules_svg_anchor rules_svg_shape"   href="/lms/chart?onclick=b3BlbkNoYXJ0Q29udGV4dE1lbnUoZXZlbnQsJ3cxMTZkNTIzNTk2NWMxNzA5OHY0MDcxJywxODIzNywgMSwgMSwgdGhpcywgd2luZG93LmZyYW1lRWxlbWVudCk=&amp;navigate=true&amp;details=Description">
			<g id="shape6-30" transform="translate(324,-450)">
				
				<desc>60.10.040 Manage work assignments</desc>
				<path d="M0 792 L126 792 L126 729 L0 729 L0 792 Z" class="st6" />
				<path d="M0 792 L126 792 L126 729 L0 729 L0 792" class="st7" />
				<path d="M9 792 L9 729" class="st7" />
				<path d="M117 792 L117 729" class="st7" />
				<text x="17.49" y="756.9" class="st2">60.10.040 Manage <tspan x="19.16" dy="1.2em" class="st5">work assignments</tspan>
				</text>
			</g>
		</a>
		<g id="shape9-37" transform="translate(344.25,-315)">
			
			<desc>End</desc>
			<path d="M18 792 L67.5 792 A18 18 -180 0 0 67.5 756 L18 756 A18 18 -180 1 0 18 792 Z" class="st1" />
			<text x="33.52" y="777.6" class="st2">End</text>
		</g>
		<g id="shape11-40" transform="translate(126,-711)">
			
			<path d="M0 783 L80.19 783" class="st8" />
		</g>
		<g id="shape12-46" transform="translate(279,-688.5)">
			
			<path d="M0 792 L0 809.66 L-81 809.66 L-81 831.69" class="st8" />
		</g>
		<g id="shape13-51" transform="translate(261,-598.5)">
			
			<path d="M0 783 L53.19 783" class="st8" />
		</g>
		<g id="shape14-56" transform="translate(387,-576)">
			
			<path d="M0 792 L0 823.5 L-189 823.5 L-189 845.19" class="st8" />
		</g>
		<g id="shape15-61" transform="translate(261,-472.5)">
			
			<path d="M0 783 L53.19 783" class="st8" />
		</g>
		<g id="shape16-66" transform="translate(378,-450)">
			
			<path d="M9 792 L9 881.19" class="st8" />
		</g>
	</g>
</svg>
