<?xml version="1.0" encoding="UTF-8" standalone="no"?>
<svg
   width="1884.4637"
   height="1292.8906"
   overflow="hidden"
   version="1.1"
   id="svg72"
   sodipodi:docname="inventory-to-deliver-flow.svg"
   inkscape:version="1.3.2 (091e20e, 2023-11-25, custom)"
   xmlns:inkscape="http://www.inkscape.org/namespaces/inkscape"
   xmlns:sodipodi="http://sodipodi.sourceforge.net/DTD/sodipodi-0.dtd"
   xmlns="http://www.w3.org/2000/svg"
   xmlns:svg="http://www.w3.org/2000/svg">
  <defs
     id="defs72" />
  <sodipodi:namedview
     id="namedview72"
     pagecolor="#ffffff"
     bordercolor="#000000"
     borderopacity="0.25"
     inkscape:showpageshadow="2"
     inkscape:pageopacity="0.0"
     inkscape:pagecheckerboard="0"
     inkscape:deskcolor="#d1d1d1"
     inkscape:zoom="0.95677083"
     inkscape:cx="958.95482"
     inkscape:cy="724.83397"
     inkscape:window-width="3840"
     inkscape:window-height="2054"
     inkscape:window-x="2869"
     inkscape:window-y="-11"
     inkscape:window-maximized="1"
     inkscape:current-layer="svg72" />
  <g
     id="g72"
     transform="translate(-1.0451823,-151.55144)">
    <rect
       x="1.0451823"
       y="151.55144"
       width="1884.4637"
       height="1292.8906"
       fill="#ffffff"
       id="rect1"
       style="stroke-width:0.812969" />
    <path
       d="m 314,241.5 c 0,-20.158 16.342,-36.5 36.5,-36.5 h 138 c 20.158,0 36.5,16.342 36.5,36.5 v 0 c 0,20.158 -16.342,36.5 -36.5,36.5 h -138 C 330.342,278 314,261.658 314,241.5 Z"
       stroke="#0078d4"
       stroke-width="2"
       stroke-linejoin="round"
       stroke-miterlimit="10"
       fill="none"
       fill-rule="evenodd"
       id="path1" />
    <text
       font-family="'Segoe UI', 'Segoe UI_MSFontService', sans-serif"
       font-weight="400"
       font-size="24px"
       transform="translate(394.64,250)"
       id="text1">Start</text>
    <rect
       x="314"
       y="376"
       width="211"
       height="154"
       stroke="#a6a6a6"
       stroke-width="2"
       stroke-linejoin="round"
       stroke-miterlimit="10"
       fill="#a0a0a0"
       id="rect2" />
    <text
       font-family="'Segoe UI', 'Segoe UI_MSFontService', sans-serif"
       font-weight="400"
       font-size="24px"
       transform="translate(368.694,447)"
       id="text2">Design to</text>
    <text
       font-family="'Segoe UI', 'Segoe UI_MSFontService', sans-serif"
       font-weight="400"
       font-size="24px"
       transform="translate(391.914,476)"
       id="text3">retire</text>
    <rect
       x="631"
       y="822"
       width="279"
       height="153"
       fill="#ffffff"
       id="rect3" />
    <path
       d="M 665.875,822 V 975 M 875.125,822 V 975"
       stroke="#0078d4"
       stroke-width="2"
       stroke-linejoin="round"
       stroke-miterlimit="10"
       fill="none"
       fill-rule="evenodd"
       id="path3" />
    <rect
       x="631"
       y="822"
       width="279"
       height="153"
       stroke="#0078d4"
       stroke-width="2"
       stroke-linejoin="round"
       stroke-miterlimit="10"
       fill="none"
       id="rect4" />
    <text
       font-family="'Segoe UI', 'Segoe UI_MSFontService', sans-serif"
       font-weight="400"
       font-size="24px"
       transform="translate(730.754,878)"
       id="text4">Process</text>
    <text
       font-family="'Segoe UI', 'Segoe UI_MSFontService', sans-serif"
       font-weight="400"
       font-size="24px"
       transform="translate(726.181,907)"
       id="text5">inbound</text>
    <text
       font-family="'Segoe UI', 'Segoe UI_MSFontService', sans-serif"
       font-weight="400"
       font-size="24px"
       transform="translate(737.267,936)"
       id="text6">goods</text>
    <rect
       x="1319"
       y="592"
       width="279"
       height="153"
       fill="#ffffff"
       id="rect6" />
    <path
       d="M 1353.88,592 V 745 M 1563.12,592 V 745"
       stroke="#0078d4"
       stroke-width="2"
       stroke-linejoin="round"
       stroke-miterlimit="10"
       fill="none"
       fill-rule="evenodd"
       id="path6" />
    <rect
       x="1319"
       y="592"
       width="279"
       height="153"
       stroke="#0078d4"
       stroke-width="2"
       stroke-linejoin="round"
       stroke-miterlimit="10"
       fill="none"
       id="rect7" />
    <text
       font-family="'Segoe UI', 'Segoe UI_MSFontService', sans-serif"
       font-weight="400"
       font-size="24px"
       transform="translate(1415.73,649)"
       id="text7">Manage</text>
    <text
       font-family="'Segoe UI', 'Segoe UI_MSFontService', sans-serif"
       font-weight="400"
       font-size="24px"
       transform="translate(1408.92,678)"
       id="text8">inventory</text>
    <text
       font-family="'Segoe UI', 'Segoe UI_MSFontService', sans-serif"
       font-weight="400"
       font-size="24px"
       transform="translate(1423.07,707)"
       id="text9">quality</text>
    <rect
       x="1320"
       y="822"
       width="279"
       height="153"
       fill="#ffffff"
       id="rect9" />
    <path
       d="M 1354.88,822 V 975 M 1564.12,822 V 975"
       stroke="#0078d4"
       stroke-width="2"
       stroke-linejoin="round"
       stroke-miterlimit="10"
       fill="none"
       fill-rule="evenodd"
       id="path9" />
    <rect
       x="1320"
       y="822"
       width="279"
       height="153"
       stroke="#0078d4"
       stroke-width="2"
       stroke-linejoin="round"
       stroke-miterlimit="10"
       fill="none"
       id="rect10" />
    <text
       font-family="'Segoe UI', 'Segoe UI_MSFontService', sans-serif"
       font-weight="400"
       font-size="24px"
       transform="translate(1400.01,864)"
       id="text10">Record and</text>
    <text
       font-family="'Segoe UI', 'Segoe UI_MSFontService', sans-serif"
       font-weight="400"
       font-size="24px"
       transform="translate(1417.35,893)"
       id="text11">m</text>
    <text
       font-family="'Segoe UI', 'Segoe UI_MSFontService', sans-serif"
       font-weight="400"
       font-size="24px"
       transform="translate(1438.02,893)"
       id="text12">anage</text>
    <text
       font-family="'Segoe UI', 'Segoe UI_MSFontService', sans-serif"
       font-weight="400"
       font-size="24px"
       transform="translate(1410.12,922)"
       id="text13">inventory</text>
    <text
       font-family="'Segoe UI', 'Segoe UI_MSFontService', sans-serif"
       font-weight="400"
       font-size="24px"
       transform="translate(1433.1,951)"
       id="text14">costs</text>
    <rect
       x="314"
       y="1057"
       width="211"
       height="153"
       stroke="#a6a6a6"
       stroke-width="2"
       stroke-linejoin="round"
       stroke-miterlimit="10"
       fill="#a6a6a6"
       id="rect14" />
    <text
       font-family="'Segoe UI', 'Segoe UI_MSFontService', sans-serif"
       font-weight="400"
       font-size="24px"
       transform="translate(347.773,1142)"
       id="text15">Order to cash</text>
    <rect
       x="631"
       y="376"
       width="279"
       height="154"
       fill="#ffffff"
       id="rect15" />
    <path
       d="M 665.875,376 V 530 M 875.125,376 V 530"
       stroke="#0078d4"
       stroke-width="2"
       stroke-linejoin="round"
       stroke-miterlimit="10"
       fill="none"
       fill-rule="evenodd"
       id="path15" />
    <rect
       x="631"
       y="376"
       width="279"
       height="154"
       stroke="#0078d4"
       stroke-width="2"
       stroke-linejoin="round"
       stroke-miterlimit="10"
       fill="none"
       id="rect16" />
    <text
       font-family="'Segoe UI', 'Segoe UI_MSFontService', sans-serif"
       font-weight="400"
       font-size="24px"
       transform="translate(727.511,433)"
       id="text16">M</text>
    <text
       font-family="'Segoe UI', 'Segoe UI_MSFontService', sans-serif"
       font-weight="400"
       font-size="24px"
       transform="translate(749.011,433)"
       id="text17">anage</text>
    <text
       font-family="'Segoe UI', 'Segoe UI_MSFontService', sans-serif"
       font-weight="400"
       font-size="24px"
       transform="translate(713.671,462)"
       id="text18">warehouse</text>
    <text
       font-family="'Segoe UI', 'Segoe UI_MSFontService', sans-serif"
       font-weight="400"
       font-size="24px"
       transform="translate(714.097,491)"
       id="text19">operations</text>
    <path
       d="m 1353,1291.5 c 0,-20.16 16.34,-36.5 36.5,-36.5 h 138 c 20.16,0 36.5,16.34 36.5,36.5 v 0 c 0,20.16 -16.34,36.5 -36.5,36.5 h -138 c -20.16,0 -36.5,-16.34 -36.5,-36.5 z"
       stroke="#0078d4"
       stroke-width="2"
       stroke-linejoin="round"
       stroke-miterlimit="10"
       fill="none"
       fill-rule="evenodd"
       id="path19" />
    <text
       font-family="'Segoe UI', 'Segoe UI_MSFontService', sans-serif"
       font-weight="400"
       font-size="24px"
       transform="translate(1438.82,1300)"
       id="text20">End</text>
    <rect
       x="633"
       y="165"
       width="279"
       height="153"
       stroke="#0078d4"
       stroke-width="2"
       stroke-linejoin="round"
       stroke-miterlimit="10"
       fill="#0078d4"
       id="rect20" />
    <text
       fill="#ffffff"
       font-family="'Segoe UI', 'Segoe UI_MSFontService', sans-serif"
       font-weight="400"
       font-size="24px"
       transform="translate(669.548,250)"
       id="text21">Inventory to deliver</text>
    <rect
       x="1664"
       y="592"
       width="211"
       height="153"
       stroke="#a6a6a6"
       stroke-width="2"
       stroke-linejoin="round"
       stroke-miterlimit="10"
       fill="#a0a0a0"
       id="rect21" />
    <text
       font-family="'Segoe UI', 'Segoe UI_MSFontService', sans-serif"
       font-weight="400"
       font-size="24px"
       transform="translate(1730.6,663)"
       id="text22">Case to</text>
    <text
       font-family="'Segoe UI', 'Segoe UI_MSFontService', sans-serif"
       font-weight="400"
       font-size="24px"
       transform="translate(1716.91,692)"
       id="text23">resolution</text>
    <rect
       x="1354"
       y="1019"
       width="212"
       height="154"
       stroke="#a6a6a6"
       stroke-width="2"
       stroke-linejoin="round"
       stroke-miterlimit="10"
       fill="#a0a0a0"
       id="rect23" />
    <text
       font-family="'Segoe UI', 'Segoe UI_MSFontService', sans-serif"
       font-weight="400"
       font-size="24px"
       transform="translate(1408.93,1090)"
       id="text24">Record to</text>
    <text
       font-family="'Segoe UI', 'Segoe UI_MSFontService', sans-serif"
       font-weight="400"
       font-size="24px"
       transform="translate(1426.99,1119)"
       id="text25">report</text>
    <rect
       x="314"
       y="592"
       width="211"
       height="153"
       stroke="#a6a6a6"
       stroke-width="2"
       stroke-linejoin="round"
       stroke-miterlimit="10"
       fill="#a0a0a0"
       id="rect25" />
    <text
       font-family="'Segoe UI', 'Segoe UI_MSFontService', sans-serif"
       font-weight="400"
       font-size="24px"
       transform="translate(346.936,677)"
       id="text26">Source</text>
    <text
       font-family="'Segoe UI', 'Segoe UI_MSFontService', sans-serif"
       font-weight="400"
       font-size="24px"
       transform="translate(425.456,677)"
       id="text27">to pay</text>
    <rect
       x="314"
       y="822"
       width="211"
       height="153"
       stroke="#a6a6a6"
       stroke-width="2"
       stroke-linejoin="round"
       stroke-miterlimit="10"
       fill="#a0a0a0"
       id="rect27" />
    <text
       font-family="'Segoe UI', 'Segoe UI_MSFontService', sans-serif"
       font-weight="400"
       font-size="24px"
       transform="translate(382.539,893)"
       id="text28">Plan to</text>
    <text
       font-family="'Segoe UI', 'Segoe UI_MSFontService', sans-serif"
       font-weight="400"
       font-size="24px"
       transform="translate(375.519,922)"
       id="text29">produce</text>
    <rect
       x="631"
       y="1057"
       width="279"
       height="153"
       fill="#ffffff"
       id="rect29" />
    <path
       d="m 665.875,1057 v 153 m 209.25,-153 v 153"
       stroke="#0078d4"
       stroke-width="2"
       stroke-linejoin="round"
       stroke-miterlimit="10"
       fill="none"
       fill-rule="evenodd"
       id="path29" />
    <rect
       x="631"
       y="1057"
       width="279"
       height="153"
       stroke="#0078d4"
       stroke-width="2"
       stroke-linejoin="round"
       stroke-miterlimit="10"
       fill="none"
       id="rect30" />
    <text
       font-family="'Segoe UI', 'Segoe UI_MSFontService', sans-serif"
       font-weight="400"
       font-size="24px"
       transform="translate(730.754,1113)"
       id="text30">Process</text>
    <text
       font-family="'Segoe UI', 'Segoe UI_MSFontService', sans-serif"
       font-weight="400"
       font-size="24px"
       transform="translate(718.014,1142)"
       id="text31">outbound</text>
    <text
       font-family="'Segoe UI', 'Segoe UI_MSFontService', sans-serif"
       font-weight="400"
       font-size="24px"
       transform="translate(737.267,1171)"
       id="text32">goods</text>
    <rect
       x="631"
       y="592"
       width="279"
       height="154"
       fill="#ffffff"
       id="rect32" />
    <path
       d="M 665.875,592 V 746 M 875.125,592 V 746"
       stroke="#0078d4"
       stroke-width="2"
       stroke-linejoin="round"
       stroke-miterlimit="10"
       fill="none"
       fill-rule="evenodd"
       id="path32" />
    <rect
       x="631"
       y="592"
       width="279"
       height="154"
       stroke="#0078d4"
       stroke-width="2"
       stroke-linejoin="round"
       stroke-miterlimit="10"
       fill="none"
       id="rect33" />
    <text
       font-family="'Segoe UI', 'Segoe UI_MSFontService', sans-serif"
       font-weight="400"
       font-size="24px"
       transform="translate(727.514,649)"
       id="text33">Manage</text>
    <text
       font-family="'Segoe UI', 'Segoe UI_MSFontService', sans-serif"
       font-weight="400"
       font-size="24px"
       transform="translate(712.507,678)"
       id="text34">freight</text>
    <text
       font-family="'Segoe UI', 'Segoe UI_MSFontService', sans-serif"
       font-weight="400"
       font-size="24px"
       transform="translate(788.694,678)"
       id="text35">and</text>
    <text
       font-family="'Segoe UI', 'Segoe UI_MSFontService', sans-serif"
       font-weight="400"
       font-size="24px"
       transform="translate(694.834,707)"
       id="text36">transportation</text>
    <rect
       x="976"
       y="592"
       width="277"
       height="153"
       fill="#ffffff"
       id="rect36" />
    <path
       d="M 1010.62,592 V 745 M 1218.38,592 V 745"
       stroke="#0078d4"
       stroke-width="2"
       stroke-linejoin="round"
       stroke-miterlimit="10"
       fill="none"
       fill-rule="evenodd"
       id="path36" />
    <rect
       x="976"
       y="592"
       width="277"
       height="153"
       stroke="#0078d4"
       stroke-width="2"
       stroke-linejoin="round"
       stroke-miterlimit="10"
       fill="none"
       id="rect37" />
    <text
       font-family="'Segoe UI', 'Segoe UI_MSFontService', sans-serif"
       font-weight="400"
       font-size="24px"
       transform="translate(1042.09,620)"
       id="text37">Track supplier</text>
    <text
       font-family="'Segoe UI', 'Segoe UI_MSFontService', sans-serif"
       font-weight="400"
       font-size="24px"
       transform="translate(1064.96,649)"
       id="text38">managed</text>
    <text
       font-family="'Segoe UI', 'Segoe UI_MSFontService', sans-serif"
       font-weight="400"
       font-size="24px"
       transform="translate(1041.64,678)"
       id="text39">inventory and</text>
    <text
       font-family="'Segoe UI', 'Segoe UI_MSFontService', sans-serif"
       font-weight="400"
       font-size="24px"
       transform="translate(1046.04,707)"
       id="text40">consignment</text>
    <text
       font-family="'Segoe UI', 'Segoe UI_MSFontService', sans-serif"
       font-weight="400"
       font-size="24px"
       transform="translate(1064.81,736)"
       id="text41">inventory</text>
    <path
       d="m 525.003,668 99.436,0.246 -0.005,2 L 524.997,670 Z m 98.11,-2.757 7.99,4.02 -8.01,3.98 z"
       fill="#0078d4"
       id="path41" />
    <path
       d="m 525,897 h 99.436 v 2 H 525 Z m 98.103,-3 8,4 -8,4 z"
       fill="#0078d4"
       id="path42" />
    <path
       d="m 772,746 v 69.453 h -2 V 746 Z m 3,68.12 -4,8 -4,-8 z"
       fill="#0078d4"
       id="path43" />
    <path
       d="m 525,1132 h 99.436 v 2 H 525 Z m 98.103,-3 8,4 -8,4 z"
       fill="#0078d4"
       id="path44" />
    <path
       d="m 1460,745.492 1.09,69.717 -1,0.016 -1.09,-69.717 z m 4.57,68.329 -3.88,8.062 -4.12,-7.937 z"
       fill="#0078d4"
       id="path45" />
    <rect
       x="976"
       y="936"
       width="279"
       height="153"
       fill="#ffffff"
       id="rect45" />
    <path
       d="m 1010.88,936 v 153 m 209.24,-153 v 153"
       stroke="#0078d4"
       stroke-width="2"
       stroke-linejoin="round"
       stroke-miterlimit="10"
       fill="none"
       fill-rule="evenodd"
       id="path46" />
    <rect
       x="976"
       y="936"
       width="279"
       height="153"
       stroke="#0078d4"
       stroke-width="2"
       stroke-linejoin="round"
       stroke-miterlimit="10"
       fill="none"
       id="rect46" />
    <text
       font-family="'Segoe UI', 'Segoe UI_MSFontService', sans-serif"
       font-weight="400"
       font-size="24px"
       transform="translate(1072.22,993)"
       id="text46">Manage</text>
    <text
       font-family="'Segoe UI', 'Segoe UI_MSFontService', sans-serif"
       font-weight="400"
       font-size="24px"
       transform="translate(1057.22,1022)"
       id="text47">f</text>
    <text
       font-family="'Segoe UI', 'Segoe UI_MSFontService', sans-serif"
       font-weight="400"
       font-size="24px"
       transform="translate(1064.72,1022)"
       id="text48">reight</text>
    <text
       font-family="'Segoe UI', 'Segoe UI_MSFontService', sans-serif"
       font-weight="400"
       font-size="24px"
       transform="translate(1133.4,1022)"
       id="text49">and</text>
    <text
       font-family="'Segoe UI', 'Segoe UI_MSFontService', sans-serif"
       font-weight="400"
       font-size="24px"
       transform="translate(1039.54,1051)"
       id="text50">transportation</text>
    <path
       d="m 0,-0.5 h 205.255 c 0.276,0 0.5,0.223858 0.5,0.5 v 37.2206 h -1 V 0 l 0.5,0.5 H 0 Z m 209.255,36.3872 -4,8 -4,-8 z"
       fill="#0078d4"
       transform="matrix(1,0,0,-1,910.5,1133.39)"
       id="path50" />
    <path
       d="m 1253.5,669 h 59.13 v 1 h -59.13 z m 57.8,-3.5 8,4 -8,4 z"
       fill="#0078d4"
       id="path51" />
    <path
       d="m 0,-0.5 h 32.3028 c 0.2761,0 0.5,0.223858 0.5,0.5 v 343.992 l -0.5,-0.5 h 25.6361 v 1 H 32.3028 c -0.2762,0 -0.5,-0.224 -0.5,-0.5 V 0 l 0.5,0.5 H 0 Z m 56.6056,340.492 8,4 -8,4 z"
       fill="#0078d4"
       transform="matrix(1,0,0,-1,1255.5,1013.49)"
       id="path52" />
    <path
       d="m 1598.5,669 h 59.13 v 1 h -59.13 z m 57.8,-3.5 8,4 -8,4 z"
       fill="#0078d4"
       id="path53" />
    <path
       d="M 0.499947,-0.00725964 1.59801,75.6126 0.598113,75.6271 -0.499947,0.00725964 Z M 5.07828,74.2285 1.19486,82.2858 -2.92088,74.3447 Z"
       fill="#0078d4"
       transform="matrix(-1,0,0,1,1460.69,1173.5)"
       id="path54" />
    <path
       d="m 1770.26,745.5 v 545.74 c 0,0.27 -0.23,0.5 -0.5,0.5 h -198.59 v -1 h 198.59 l -0.5,0.5 V 745.5 Z m -197.76,549.74 -8,-4 8,-4 z"
       fill="#0078d4"
       id="path55" />
    <path
       d="m 314.5,243 h -24 l 0.5,-0.5 v 211.488 l -0.5,-0.5 h 17.333 v 1 H 290.5 c -0.276,0 -0.5,-0.224 -0.5,-0.5 V 242.5 c 0,-0.276 0.224,-0.5 0.5,-0.5 h 24 z m -8,206.988 8,4 -8,4 z"
       fill="#0078d4"
       id="path56" />
    <path
       d="m 0,-0.5 h 24.1549 c 0.2761,0 0.5,0.223858 0.5,0.5 v 427.3 c 0,0.276 -0.2239,0.5 -0.5,0.5 H 6.82152 v -1 H 24.1549 l -0.5,0.5 V 0 l 0.5,0.5 H 0 Z m 8.15486,431.8 -8.000004,-4 8.000004,-4 z"
       fill="#0078d4"
       transform="matrix(-1,0,0,1,314.655,242.5)"
       id="path57" />
    <path
       d="m 0,-0.5 h 24.1549 c 0.2761,0 0.5,0.223858 0.5,0.5 v 656.973 c 0,0.276 -0.2239,0.5 -0.5,0.5 H 6.82152 v -1 H 24.1549 l -0.5,0.5 V 0 l 0.5,0.5 H 0 Z m 8.15486,661.473 -8.000004,-4 8.000004,-4 z"
       fill="#0078d4"
       transform="matrix(-1,0,0,1,314.655,242.5)"
       id="path58" />
    <path
       d="m 314.5,243 h -24 l 0.5,-0.5 v 891.82 l -0.5,-0.5 h 17.333 v 1.01 H 290.5 c -0.276,0 -0.5,-0.23 -0.5,-0.51 V 242.5 c 0,-0.276 0.224,-0.5 0.5,-0.5 h 24 z m -8,887.32 8,4 -8,4 z"
       fill="#0078d4"
       id="path59" />
    <path
       d="m 772,318.5 v 51.531 h -1 V 318.5 Z m 3.5,50.197 -4,8 -4,-8 z"
       fill="#0078d4"
       id="path60" />
    <path
       d="M 0.001996,-0.499996 59.1358,-0.263932 59.1318,0.73606 -0.001996,0.499996 Z M 57.8164,-3.76923 65.8004,0.262677 57.7845,4.23071 Z"
       fill="#0078d4"
       transform="matrix(1,0,0,-1,910.5,669.763)"
       id="path61" />
    <path
       d="m 910.5,453 h 548.77 c 0.28,0 0.5,0.224 0.5,0.5 V 586 h -1 V 453.5 l 0.5,0.5 H 910.5 Z m 552.77,131.667 -4,8 -4,-8 z"
       fill="#0078d4"
       id="path62" />
    <path
       d="m 525.5,898 h 53.052 c 0.276,0 0.5,0.224 0.5,0.5 v 234.85 l -0.5,-0.5 h 46.384 v 1 h -46.384 c -0.277,0 -0.5,-0.22 -0.5,-0.5 V 898.5 l 0.5,0.5 H 525.5 Z m 98.103,231.35 8,4 -8,4 z"
       fill="#0078d4"
       id="path63" />
    <rect
       x="314"
       y="1273"
       width="211"
       height="153"
       stroke="#a6a6a6"
       stroke-width="2"
       stroke-linejoin="round"
       stroke-miterlimit="10"
       fill="#a6a6a6"
       id="rect63" />
    <text
       font-family="'Segoe UI', 'Segoe UI_MSFontService', sans-serif"
       font-weight="400"
       font-size="24px"
       transform="translate(367.226,1343)"
       id="text63">Service to</text>
    <text
       font-family="'Segoe UI', 'Segoe UI_MSFontService', sans-serif"
       font-weight="400"
       font-size="24px"
       transform="translate(395.779,1372)"
       id="text64">cash</text>
    <path
       d="m 0,-0.5 h 24.0774 c 0.2761,0 0.5,0.223858 0.5,0.5 v 1107.64 c 0,0.27 -0.2239,0.5 -0.5,0.5 H 6.74404 v -1 H 24.0774 l -0.5,0.5 V 0 l 0.5,0.5 H 0 Z m 8.07738,1112.14 -8.0000047,-4 8.0000047,-4 z"
       fill="#0078d4"
       transform="matrix(-1,0,0,1,314.577,242.5)"
       id="path64" />
    <path
       d="m 0,-0.5 h 245.635 c 0.276,0 0.5,0.223858 0.5,0.5 v 132.5 h -1 V 0 l 0.5,0.5 H 0 Z m 249.635,131.667 -4,8 -4,-8 z"
       fill="#0078d4"
       transform="matrix(1,0,0,-1,525.5,1349.67)"
       id="path65" />
    <rect
       x="17"
       y="822"
       width="212"
       height="153"
       stroke="#a6a6a6"
       stroke-width="2"
       stroke-linejoin="round"
       stroke-miterlimit="10"
       fill="#a0a0a0"
       id="rect65" />
    <text
       font-family="'Segoe UI', 'Segoe UI_MSFontService', sans-serif"
       font-weight="400"
       font-size="24px"
       transform="translate(72.2988,893)"
       id="text65">Project to</text>
    <text
       font-family="'Segoe UI', 'Segoe UI_MSFontService', sans-serif"
       font-weight="400"
       font-size="24px"
       transform="translate(94.5055,922)"
       id="text66">profit</text>
    <path
       d="m 0,-0.5 h 198.12 c 0.276,0 0.5,0.223858 0.5,0.5 v 573.661 h -1 V 0 l 0.5,0.5 H 0 Z m 202.12,572.828 -4,8 -4,-8 z"
       fill="#0078d4"
       transform="matrix(-1,0,0,1,314.62,242.5)"
       id="path66" />
    <path
       d="m 0,-0.5 h 42.3959 c 0.2761,0 0.5,0.223858 0.5,0.5 v 229.673 l -0.5,-0.5 h 35.7292 v 1 H 42.3959 c -0.2761,0 -0.5,-0.224 -0.5,-0.5 V 0 l 0.5,0.5 H 0 Z m 76.7918,226.173 8,4 -8,4 z"
       fill="#0078d4"
       transform="matrix(1,0,0,-1,229.5,899.173)"
       id="path67" />
    <path
       d="m 229.5,898 h 78.125 v 1 H 229.5 Z m 76.792,-3.5 8,4 -8,4 z"
       fill="#0078d4"
       id="path68" />
    <path
       d="m 229.5,898 h 42.474 c 0.276,0 0.5,0.224 0.5,0.5 v 234.85 l -0.5,-0.5 h 35.806 v 1 h -35.806 c -0.277,0 -0.5,-0.22 -0.5,-0.5 V 898.5 l 0.5,0.5 H 229.5 Z m 76.947,231.35 8,4 -8,4 z"
       fill="#0078d4"
       id="path69" />
    <path
       d="m 229.5,898 h 42.435 c 0.276,0 0.5,0.224 0.5,0.5 v 450.66 l -0.5,-0.5 h 35.768 v 1 h -35.768 c -0.276,0 -0.5,-0.22 -0.5,-0.5 V 898.5 l 0.5,0.5 H 229.5 Z m 76.869,447.16 8,4 -8,4 z"
       fill="#0078d4"
       id="path70" />
    <path
       d="m 525,241 h 101.136 v 2 H 525 Z m 99.803,-3 8,4 -8,4 z"
       fill="#0078d4"
       id="path71" />
    <path
       d="m 1461,975 v 37.43 h -2 V 975 Z m 3,36.1 -4,8 -4,-8 z"
       fill="#0078d4"
       id="path72" />
  </g>
</svg>
