<?xml version="1.0"?>
<svg xmlns="http://www.w3.org/2000/svg" xmlns:xlink="http://www.w3.org/1999/xlink" xmlns:ev="http://www.w3.org/2001/xml-events"    viewBox="5 18 747 718"    xml:space="preserve" color-interpolation-filters="sRGB" class="st14" width="1868" height="1795">
<rect x="0" y="0" width="1868" height="1795" fill="#ffffff" />
	<style type="text/css"><![CDATA[
		.st1 {fill:#f2f2f2;stroke:#000000;stroke-linecap:round;stroke-linejoin:round;stroke-width:0.75}
		.st2 {fill:#ffffff;stroke:#0078d4;stroke-linecap:round;stroke-linejoin:round;stroke-width:0.24}
		.st3 {fill:#000000;font-family:Calibri;font-size:1.00001em}
		.st4 {fill:#a0a0a0;stroke:none;stroke-linecap:round;stroke-linejoin:round;stroke-width:0.24}
		.st5 {font-size:1em}
		.st6 {fill:#0078d4;stroke:none;stroke-linecap:round;stroke-linejoin:round;stroke-width:0.24}
		.st7 {fill:#ffffff;font-family:Calibri;font-size:1.00001em}
		.st8 {fill:#ffffff}
		.st9 {stroke:#0078d4;stroke-linecap:round;stroke-linejoin:round;stroke-width:0.24}
		.st10 {marker-end:url(#mrkr13-109);stroke:#0078d4;stroke-linecap:round;stroke-linejoin:round;stroke-width:0.75}
		.st11 {fill:#0078d4;fill-opacity:1;stroke:#0078d4;stroke-opacity:1;stroke-width:0.22935779816514}
		.st12 {fill:none;stroke:none;stroke-linecap:round;stroke-linejoin:round;stroke-width:0.75}
		.st13 {fill:#0078d4;font-family:Calibri;font-size:1.00001em;font-weight:bold}
		.st14 {fill:none;fill-rule:evenodd;font-size:12px;overflow:visible;stroke-linecap:square;stroke-miterlimit:3}
	]]></style><style> a { pointer-events: none; } </style><style>a.rules_svg_anchor g:hover { opacity:0.8; cursor:pointer; }</style>
	<defs id="Markers">
		<g id="lend13">
			<path d="M 3 1 L 0 0 L 3 -1 L 3 1 " style="stroke:none" />
		</g>
		<marker id="mrkr13-109" class="st11" refX="-13.08" orient="auto" markerUnits="strokeWidth" overflow="visible">
			<use xlink:href="#lend13" transform="scale(-4.36,-4.36) " />
		</marker>
	</defs>
	<g>
		
		<g id="shape51-1" transform="translate(297,-452.25)">
			
			<rect x="0" y="470.25" width="342" height="717.75" class="st1" />
		</g>
		<g id="shape1-3" transform="translate(49.5,-1084.5)">
			
			<desc>Start</desc>
			<path d="M18 1188 L67.5 1188 A18 18 -180 0 0 67.5 1152 L18 1152 A18 18 -180 1 0 18 1188 Z" class="st2" />
			<text x="31.01" y="1173.6" class="st3">Start</text>
		</g>
		<a id="2f1dd476-6d7b-4c96-8ec1-e9de9b0d2c44" class="rules_svg_anchor rules_svg_shape"   href="/lms/chart?onclick=b3BlbkNoYXJ0Q29udGV4dE1lbnUoZXZlbnQsJ3cxMTZkNTIzNTk2NWMxNzA5M3Y0MDcxJywxODIzMiwgMSwgMSwgdGhpcywgd2luZG93LmZyYW1lRWxlbWVudCk=&amp;navigate=true&amp;details=Description">
			<g id="shape2-6" transform="translate(42.75,-904.5)">
				
				<desc>60 Inventory to deliver</desc>
				<rect x="0" y="1125" width="99" height="63" class="st4" />
				<text x="12.04" y="1152.9" class="st3">60 Inventory to <tspan x="32.82" dy="1.2em" class="st5">deliver</tspan>
				</text>
			</g>
		</a>
		<a id="4a709711-7417-4b7b-9268-e7ac106e5545" class="rules_svg_anchor rules_svg_shape"   href="/lms/chart?onclick=b3BlbkNoYXJ0Q29udGV4dE1lbnUoZXZlbnQsJ3cxMTZkNTIzNTk2NWMxNzExNHY0MDcxJywxODI1MSwgMSwgMSwgdGhpcywgd2luZG93LmZyYW1lRWxlbWVudCk=&amp;navigate=true&amp;details=Description">
			<g id="shape3-10" transform="translate(180,-972)">
				
				<desc>60.40 Process outbound goods</desc>
				<rect x="0" y="1125" width="99" height="63" class="st6" />
				<text x="15.89" y="1152.9" class="st7">60.40 Process <tspan x="9.39" dy="1.2em" class="st5">outbound goods</tspan>
				</text>
			</g>
		</a>
		<a id="6c4672f2-dd0a-467b-ae64-327dad0fc4f8" class="rules_svg_anchor rules_svg_shape"   href="/lms/chart?onclick=b3BlbkNoYXJ0Q29udGV4dE1lbnUoZXZlbnQsJ3cxMTZkNTIzNTk2NWMxNzA5NHY0MDcxJywxODIzMywgMSwgMSwgdGhpcywgd2luZG93LmZyYW1lRWxlbWVudCk=&amp;navigate=true&amp;details=Description">
			<g id="shape4-14" transform="translate(42.75,-774)">
				
				<desc>60.10 Manage warehouse operations</desc>
				<rect x="0" y="1125" width="99" height="63" class="st6" />
				<text x="14.62" y="1145.7" class="st7">60.10 Manage <tspan x="22.46" dy="1.2em" class="st5">warehouse </tspan>
					<tspan x="23.18" dy="1.2em" class="st5">operations</tspan>
				</text>
			</g>
		</a>
		<a id="1c8e28da-be2a-4b4a-8b53-6c58360785d9" class="rules_svg_anchor rules_svg_shape"   href="/lms/chart?onclick=b3BlbkNoYXJ0Q29udGV4dE1lbnUoZXZlbnQsJ3cxMTZkNTIzNTk2NWMxNzEwMXY0MDcxJywxODIzOCwgMSwgMSwgdGhpcywgd2luZG93LmZyYW1lRWxlbWVudCk=&amp;navigate=true&amp;details=Description">
			<g id="shape5-19" transform="translate(42.75,-666)">
				
				<desc>60.20 Maintain inventory levels</desc>
				<rect x="0" y="1125" width="99" height="63" class="st6" />
				<text x="12.52" y="1152.9" class="st7">60.20 Maintain <tspan x="11" dy="1.2em" class="st5">inventory levels</tspan>
				</text>
			</g>
		</a>
		<a id="8de0bce5-035f-42aa-a293-b2dbccb6c907" class="rules_svg_anchor rules_svg_shape"   href="/lms/chart?onclick=b3BlbkNoYXJ0Q29udGV4dE1lbnUoZXZlbnQsJ3cxMTZkNTIzNTk2NWMxNzEwOHY0MDcxJywxODI0NSwgMSwgMSwgdGhpcywgd2luZG93LmZyYW1lRWxlbWVudCk=&amp;navigate=true&amp;details=Description">
			<g id="shape6-23" transform="translate(180,-558)">
				
				<desc>60.30 Process inbound goods</desc>
				<rect x="0" y="1125" width="99" height="63" class="st6" />
				<text x="15.89" y="1152.9" class="st7">60.30 Process <tspan x="13.19" dy="1.2em" class="st5">inbound goods</tspan>
				</text>
			</g>
		</a>
		<a id="ca1b6c8d-a397-4513-b28c-a2f5c0027331" class="rules_svg_anchor rules_svg_shape"   href="/lms/chart?onclick=b3BlbkNoYXJ0Q29udGV4dE1lbnUoZXZlbnQsJ3cxMTZkNTIzNTk2NWMxNzEzNnY0MDcxJywxODI2OSwgMSwgMSwgdGhpcywgd2luZG93LmZyYW1lRWxlbWVudCk=&amp;navigate=true&amp;details=Description">
			<g id="shape7-27" transform="translate(333,-972)">
				
				<desc>60.60.010 Plan loads</desc>
				<path d="M0 1188 L126 1188 L126 1125 L0 1125 L0 1188 Z" class="st8" />
				<path d="M0 1188 L126 1188 L126 1125 L0 1125 L0 1188" class="st9" />
				<path d="M9 1188 L9 1125" class="st9" />
				<path d="M117 1188 L117 1125" class="st9" />
				<text x="12.55" y="1160.1" class="st3">60.60.010 Plan loads</text>
			</g>
		</a>
		<a id="3b02c95a-1b63-4a56-b787-e29ef15e1da8" class="rules_svg_anchor rules_svg_shape"   href="/lms/chart?onclick=b3BlbkNoYXJ0Q29udGV4dE1lbnUoZXZlbnQsJ3cxMTZkNTIzNTk2NWMxNzEzNXY0MDcxJywxODI2OCwgMSwgMSwgdGhpcywgd2luZG93LmZyYW1lRWxlbWVudCk=&amp;navigate=true&amp;details=Description">
			<g id="shape8-33" transform="translate(333,-1071)">
				
				<desc>60.60 Manage freight and transportation</desc>
				<rect x="0" y="1125" width="126" height="63" class="st6" />
				<text x="10.5" y="1152.9" class="st7">60.60 Manage freight <tspan x="16.99" dy="1.2em" class="st5">and transportation</tspan>
				</text>
			</g>
		</a>
		<g id="shape9-37" transform="translate(486,-927)">
			
			<desc>Is routing required?</desc>
			<path d="M0 1156.5 L49.5 1125 L99 1156.5 L49.5 1188 L0 1156.5 Z" class="st6" />
			<text x="26.51" y="1152.9" class="st7">Is routing <tspan x="25.73" dy="1.2em" class="st5">required?</tspan>
			</text>
		</g>
		<a id="4cac5979-376f-46bd-a3a3-1f06a5e88de1" class="rules_svg_anchor rules_svg_shape"   href="/lms/chart?onclick=b3BlbkNoYXJ0Q29udGV4dE1lbnUoZXZlbnQsJ3cxMTZkNTIzNTk2NWMxNzEzOHY0MDcxJywxODI3MSwgMSwgMSwgdGhpcywgd2luZG93LmZyYW1lRWxlbWVudCk=&amp;navigate=true&amp;details=Description">
			<g id="shape10-41" transform="translate(333,-873)">
				
				<desc>60.60.030 Route loads</desc>
				<path d="M0 1188 L126 1188 L126 1125 L0 1125 L0 1188 Z" class="st8" />
				<path d="M0 1188 L126 1188 L126 1125 L0 1125 L0 1188" class="st9" />
				<path d="M9 1188 L9 1125" class="st9" />
				<path d="M117 1188 L117 1125" class="st9" />
				<text x="22.76" y="1152.9" class="st3">60.60.030 Route <tspan x="50.09" dy="1.2em" class="st5">loads</tspan>
				</text>
			</g>
		</a>
		<a id="5d23dfc5-5f47-47fd-b5fe-acb068b8f566" class="rules_svg_anchor rules_svg_shape"   href="/lms/chart?onclick=b3BlbkNoYXJ0Q29udGV4dE1lbnUoZXZlbnQsJ3cxMTZkNTIzNTk2NWMxNzEzN3Y0MDcxJywxODI3MCwgMSwgMSwgdGhpcywgd2luZG93LmZyYW1lRWxlbWVudCk=&amp;navigate=true&amp;details=Description">
			<g id="shape11-48" transform="translate(333,-774)">
				
				<desc>60.60.020 Rate loads</desc>
				<path d="M0 1188 L126 1188 L126 1125 L0 1125 L0 1188 Z" class="st8" />
				<path d="M0 1188 L126 1188 L126 1125 L0 1125 L0 1188" class="st9" />
				<path d="M9 1188 L9 1125" class="st9" />
				<path d="M117 1188 L117 1125" class="st9" />
				<text x="11.93" y="1160.1" class="st3">60.60.020 Rate loads</text>
			</g>
		</a>
		<a id="63b3fd1f-4c4e-41ef-930e-3929c4cad97e" class="rules_svg_anchor rules_svg_shape"   href="/lms/chart?onclick=b3BlbkNoYXJ0Q29udGV4dE1lbnUoZXZlbnQsJ3cxMTZkNTIzNTk2NWMxNzEzOXY0MDcxJywxODI3MiwgMSwgMSwgdGhpcywgd2luZG93LmZyYW1lRWxlbWVudCk=&amp;navigate=true&amp;details=Description">
			<g id="shape12-54" transform="translate(333,-675)">
				
				<desc>60.60.040 Schedule dock appointments</desc>
				<path d="M0 1188 L126 1188 L126 1125 L0 1125 L0 1188 Z" class="st8" />
				<path d="M0 1188 L126 1188 L126 1125 L0 1125 L0 1188" class="st9" />
				<path d="M9 1188 L9 1125" class="st9" />
				<path d="M117 1188 L117 1125" class="st9" />
				<text x="15.23" y="1152.9" class="st3">60.60.040 Schedule <tspan x="15.89" dy="1.2em" class="st5">dock appointments</tspan>
				</text>
			</g>
		</a>
		<a id="944214d5-9402-4508-980a-f629b433e6d2" class="rules_svg_anchor rules_svg_shape"   href="/lms/chart?onclick=b3BlbkNoYXJ0Q29udGV4dE1lbnUoZXZlbnQsJ3cxMTZkNTIzNTk2NWMxNzE0MHY0MDcxJywxODI3MywgMSwgMSwgdGhpcywgd2luZG93LmZyYW1lRWxlbWVudCk=&amp;navigate=true&amp;details=Description">
			<g id="shape13-61" transform="translate(333,-571.5)">
				
				<desc>60.60.050 Print shipping documentation</desc>
				<path d="M0 1188 L126 1188 L126 1125 L0 1125 L0 1188 Z" class="st8" />
				<path d="M0 1188 L126 1188 L126 1125 L0 1125 L0 1188" class="st9" />
				<path d="M9 1188 L9 1125" class="st9" />
				<path d="M117 1188 L117 1125" class="st9" />
				<text x="25.6" y="1145.7" class="st3">60.60.050 Print <tspan x="42.47" dy="1.2em" class="st5">shipping </tspan>
					<tspan x="25.48" dy="1.2em" class="st5">documentation</tspan>
				</text>
			</g>
		</a>
		<g id="shape14-69" transform="translate(486,-821.25)">
			
			<desc>Is rating required?</desc>
			<path d="M0 1156.5 L49.5 1125 L99 1156.5 L49.5 1188 L0 1156.5 Z" class="st6" />
			<text x="29.96" y="1152.9" class="st7">Is rating <tspan x="25.73" dy="1.2em" class="st5">required?</tspan>
			</text>
		</g>
		<g id="shape15-73" transform="translate(486,-724.5)">
			
			<desc>Is dock management required?</desc>
			<path d="M0 1156.5 L49.5 1125 L99 1156.5 L49.5 1188 L0 1156.5 Z" class="st6" />
			<text x="32.7" y="1145.7" class="st7">Is dock <tspan x="17.06" dy="1.2em" class="st5">management </tspan>
				<tspan x="25.73" dy="1.2em" class="st5">required?</tspan>
			</text>
		</g>
		<a id="50937b9d-dfda-42e5-a837-797cdfab2f8e" class="rules_svg_anchor rules_svg_shape"   href="/lms/chart?onclick=b3BlbkNoYXJ0Q29udGV4dE1lbnUoZXZlbnQsJ3cxMTZkNTIzNTk2NWMxNzE0MXY0MDcxJywxODI3NCwgMSwgMSwgdGhpcywgd2luZG93LmZyYW1lRWxlbWVudCk=&amp;navigate=true&amp;details=Description">
			<g id="shape17-78" transform="translate(333,-468)">
				
				<desc>60.60.060 Process freight invoice</desc>
				<path d="M0 1188 L126 1188 L126 1125 L0 1125 L0 1188 Z" class="st8" />
				<path d="M0 1188 L126 1188 L126 1125 L0 1125 L0 1188" class="st9" />
				<path d="M9 1188 L9 1125" class="st9" />
				<path d="M117 1188 L117 1125" class="st9" />
				<text x="18.76" y="1152.9" class="st3">60.60.060 Process <tspan x="28.07" dy="1.2em" class="st5">freight invoice</tspan>
				</text>
			</g>
		</a>
		<a id="e476e22a-98d9-4dc2-abd0-43f0eed554ce" class="rules_svg_anchor rules_svg_shape"   href="/lms/chart?onclick=b3BlbkNoYXJ0Q29udGV4dE1lbnUoZXZlbnQsJ3cxMTZkNTIzNTk2NWMxNzE0MnY0MDcxJywxODI3NSwgMSwgMSwgdGhpcywgd2luZG93LmZyYW1lRWxlbWVudCk=&amp;navigate=true&amp;details=Description">
			<g id="shape18-85" transform="translate(486,-468)">
				
				<desc>60.60.070 Reconcile freight</desc>
				<path d="M0 1188 L126 1188 L126 1125 L0 1125 L0 1188 Z" class="st8" />
				<path d="M0 1188 L126 1188 L126 1125 L0 1125 L0 1188" class="st9" />
				<path d="M9 1188 L9 1125" class="st9" />
				<path d="M117 1188 L117 1125" class="st9" />
				<text x="13.95" y="1152.9" class="st3">60.60.070 Reconcile <tspan x="46.73" dy="1.2em" class="st5">freight</tspan>
				</text>
			</g>
		</a>
		<g id="shape19-92" transform="translate(659.25,-481.5)">
			
			<desc>End</desc>
			<path d="M18 1188 L67.5 1188 A18 18 -180 0 0 67.5 1152 L18 1152 A18 18 -180 1 0 18 1188 Z" class="st2" />
			<text x="33.52" y="1173.6" class="st3">End</text>
		</g>
		<a id="3e523e09-3d6d-4860-a143-ed8bc64b4592" class="rules_svg_anchor rules_svg_shape"   href="/lms/chart?onclick=b3BlbkNoYXJ0Q29udGV4dE1lbnUoZXZlbnQsJ3cxMTZkNTIzNTk2NWMxNzQxMnY0MDcxJywxODQ2MSwgMSwgMSwgdGhpcywgd2luZG93LmZyYW1lRWxlbWVudCk=&amp;navigate=true&amp;details=Description">
			<g id="shape20-95" transform="translate(652.5,-558)">
				
				<desc>90 Record to report</desc>
				<rect x="0" y="1125" width="99" height="63" class="st4" />
				<text x="18.34" y="1152.9" class="st3">90 Record to <tspan x="34" dy="1.2em" class="st5">report</tspan>
				</text>
			</g>
		</a>
		<g id="shape21-99" transform="translate(652.5,-661.5)">
			
			<desc>60.70 Record and manage inventory costs</desc>
			<rect x="0" y="1125" width="99" height="63" class="st6" />
			<text x="6.74" y="1145.7" class="st7">60.70 Record and <tspan x="5.28" dy="1.2em" class="st5">manage inventory </tspan>
				<tspan x="37.1" dy="1.2em" class="st5">costs</tspan>
			</text>
		</g>
		<g id="shape22-104" transform="translate(101.25,-1084.5)">
			
			<path d="M-9 1188 L-9 1295.19" class="st10" />
		</g>
		<g id="shape23-110" transform="translate(83.25,-904.5)">
			
			<path d="M9 1188 L9 1245.69" class="st10" />
		</g>
		<g id="shape24-115" transform="translate(33.75,-936)">
			
			<path d="M9 1188 L-8.66 1188 L-8.66 1426.5 L-0.81 1426.5" class="st10" />
		</g>
		<g id="shape25-120" transform="translate(92.25,-666)">
			
			<path d="M0 1188 L0 1264.5 L77.94 1264.5" class="st10" />
		</g>
		<g id="shape26-125" transform="translate(220.5,-621)">
			
			<path d="M9 1188 L9 846.81" class="st10" />
		</g>
		<g id="shape27-130" transform="translate(141.75,-805.5)">
			
			<path d="M0 1188 L87.75 1188 L87.75 1031.31" class="st10" />
		</g>
		<g id="shape28-135" transform="translate(229.5,-1035)">
			
			<path d="M0 1188 L0 1120.5 L93.69 1120.5" class="st10" />
		</g>
		<g id="shape29-140" transform="translate(387,-1071)">
			
			<path d="M9 1188 L9 1214.19" class="st10" />
		</g>
		<g id="shape30-145" transform="translate(459,-1005.75)">
			
			<path d="M0 1190.25 L76.5 1190.25 L76.5 1193.94" class="st10" />
		</g>
		<g id="shape31-150" transform="translate(486,-958.5)">
			
			<path d="M0 1188 L-90 1188 L-90 1200.69" class="st10" />
		</g>
		<g id="shape32-155" transform="translate(459,-904.5)">
			
			<path d="M0 1188 L76.5 1188 L76.5 1198.44" class="st10" />
		</g>
		<g id="shape33-160" transform="translate(526.5,-927)">
			
			<path d="M9 1188 L9 1220.94" class="st10" />
		</g>
		<g id="shape34-165" transform="translate(526.5,-821.25)">
			
			<path d="M9 1188 L9 1211.94" class="st10" />
		</g>
		<g id="shape35-170" transform="translate(486,-853.875)">
			
			<path d="M0 1189.13 L-90 1189.13 L-90 1195.06" class="st10" />
		</g>
		<g id="shape36-175" transform="translate(486,-756)">
			
			<path d="M0 1188 L-90 1188 L-90 1196.19" class="st10" />
		</g>
		<g id="shape37-180" transform="translate(459,-805.5)">
			
			<path d="M0 1188 L76.5 1188 L76.5 1196.19" class="st10" />
		</g>
		<g id="shape38-185" transform="translate(535.5,-724.5)">
			
			<path d="M0 1188 L0 1251.75 L-139.5 1251.75 L-139.5 1268.19" class="st10" />
		</g>
		<g id="shape39-190" transform="translate(387,-571.5)">
			
			<path d="M9 1188 L9 1218.69" class="st10" />
		</g>
		<g id="shape40-195" transform="translate(459,-490.5)">
			
			<path d="M0 1179 L17.19 1179" class="st10" />
		</g>
		<g id="shape41-200" transform="translate(459,-603)">
			
			<path d="M0 1188 L87 1188 A3 3 0 0 1 93 1188 L170.66 1188 L170.66 1291.5 L190.44 1291.5" class="st10" />
		</g>
		<g id="shape42-205" transform="translate(549,-531)">
			
			<path d="M0 1188 L0 1026 L93.69 1026" class="st10" />
		</g>
		<g id="shape43-210" transform="translate(693,-661.5)">
			
			<path d="M9 1188 L9 1218.69" class="st10" />
		</g>
		<g id="shape44-215" transform="translate(693,-558)">
			
			<path d="M9 1188 L9 1218.69" class="st10" />
		</g>
		<g id="shape45-220" transform="translate(452.25,-945)">
			
			<desc>Yes</desc>
			<rect x="0" y="1174.5" width="36" height="13.5" class="st12" />
			<text x="9.74" y="1184.85" class="st3">Yes</text>
		</g>
		<g id="shape46-223" transform="translate(535.5,-909)">
			
			<desc>No</desc>
			<rect x="0" y="1170" width="31.5" height="18" class="st12" />
			<text x="8.71" y="1182.6" class="st3">No</text>
		</g>
		<g id="shape47-226" transform="translate(533.25,-801)">
			
			<desc>No</desc>
			<rect x="0" y="1170" width="31.5" height="18" class="st12" />
			<text x="8.71" y="1182.6" class="st3">No</text>
		</g>
		<g id="shape48-229" transform="translate(535.5,-706.5)">
			
			<desc>No</desc>
			<rect x="0" y="1170" width="31.5" height="18" class="st12" />
			<text x="8.71" y="1182.6" class="st3">No</text>
		</g>
		<g id="shape49-232" transform="translate(454.5,-841.5)">
			
			<desc>Yes</desc>
			<rect x="0" y="1174.5" width="36" height="13.5" class="st12" />
			<text x="9.74" y="1184.85" class="st3">Yes</text>
		</g>
		<g id="shape50-235" transform="translate(454.5,-744.75)">
			
			<desc>Yes</desc>
			<rect x="0" y="1174.5" width="36" height="13.5" class="st12" />
			<text x="9.74" y="1184.85" class="st3">Yes</text>
		</g>
		<g id="shape52-238" transform="translate(297,-1138.5)">
			
			<desc>Business process area</desc>
			<rect x="0" y="1156.5" width="225" height="31.5" class="st12" />
			<text x="4" y="1175.85" class="st13">Business process area</text>
		</g>
	</g>
</svg>
