<?xml version="1.0" encoding="UTF-8" standalone="no"?>
<svg
   width="1920"
   height="1460.0974"
   overflow="hidden"
   version="1.1"
   id="svg1088"
   sodipodi:docname="maintain-and-repair-internal-asset-flow.svg"
   inkscape:version="1.2.2 (732a01da63, 2022-12-09)"
   xmlns:inkscape="http://www.inkscape.org/namespaces/inkscape"
   xmlns:sodipodi="http://sodipodi.sourceforge.net/DTD/sodipodi-0.dtd"
   xmlns="http://www.w3.org/2000/svg"
   xmlns:svg="http://www.w3.org/2000/svg">
  <defs
     id="defs1092" />
  <sodipodi:namedview
     id="namedview1090"
     pagecolor="#ffffff"
     bordercolor="#000000"
     borderopacity="0.25"
     inkscape:showpageshadow="2"
     inkscape:pageopacity="0.0"
     inkscape:pagecheckerboard="0"
     inkscape:deskcolor="#d1d1d1"
     showgrid="false"
     inkscape:zoom="0.53489583"
     inkscape:cx="960.93476"
     inkscape:cy="945.04382"
     inkscape:window-width="1649"
     inkscape:window-height="1259"
     inkscape:window-x="3462"
     inkscape:window-y="319"
     inkscape:window-maximized="0"
     inkscape:current-layer="svg1088" />
  <g
     id="g1086"
     transform="translate(0,-14.956183)">
    <rect
       x="0"
       y="14.956183"
       width="1920"
       height="1460.0974"
       fill="#ffffff"
       id="rect876"
       style="stroke-width:0.872048" />
    <rect
       x="933"
       y="26"
       width="640"
       height="1441"
       stroke="#0078d4"
       stroke-width="2"
       stroke-linejoin="round"
       stroke-miterlimit="10"
       fill="#d9d9d9"
       id="rect878" />
    <text
       fill="#0078d4"
       font-family="'Segoe UI', 'Segoe UI_MSFontService', sans-serif"
       font-weight="700"
       font-size="27px"
       transform="translate(961.814,75)"
       id="text880">Business process area</text>
    <path
       d="M 31,68.5 C 31,48.3416 47.3416,32 67.5,32 h 139 c 20.158,0 36.5,16.3416 36.5,36.5 v 0 C 243,88.6584 226.658,105 206.5,105 H 67.5 C 47.3416,105 31,88.6584 31,68.5 Z"
       stroke="#0078d4"
       stroke-width="2"
       stroke-linejoin="round"
       stroke-miterlimit="10"
       fill="none"
       fill-rule="evenodd"
       id="path882" />
    <text
       font-family="'Segoe UI', 'Segoe UI_MSFontService', sans-serif"
       font-weight="400"
       font-size="16px"
       transform="translate(120.401,75)"
       id="text884">Start</text>
    <rect
       x="31"
       y="152"
       width="212"
       height="153"
       stroke="#000000"
       stroke-width="2"
       stroke-linejoin="round"
       stroke-miterlimit="10"
       fill="#a0a0a0"
       id="rect886" />
    <text
       fill="#ffffff"
       font-family="'Segoe UI', 'Segoe UI_MSFontService', sans-serif"
       font-weight="400"
       font-size="16px"
       transform="translate(71.4609,235)"
       id="text888">Acquire to dispose</text>
    <path
       d="M 1,-4.48434e-6 1.00018,40.1571 h -2 L -1,4.48434e-6 Z M 4.00017,38.8237 l -3.999960026,8 -4.000039974,-8 z"
       fill="#0078d4"
       transform="matrix(-1,0,0,1,137,105)"
       id="path890" />
    <rect
       x="648"
       y="672"
       width="252"
       height="153"
       fill="#ffffff"
       id="rect892" />
    <path
       d="m 679.5,672 v 153 m 189,-153 v 153"
       stroke="#0078d4"
       stroke-width="2"
       stroke-linejoin="round"
       stroke-miterlimit="10"
       fill="none"
       fill-rule="evenodd"
       id="path894" />
    <rect
       x="648"
       y="672"
       width="252"
       height="153"
       stroke="#0078d4"
       stroke-width="2"
       stroke-linejoin="round"
       stroke-miterlimit="10"
       fill="none"
       id="rect896" />
    <text
       font-family="'Segoe UI', 'Segoe UI_MSFontService', sans-serif"
       font-weight="400"
       font-size="16px"
       transform="translate(721.421,726)"
       id="text898">Create/Process</text>
    <text
       font-family="'Segoe UI', 'Segoe UI_MSFontService', sans-serif"
       font-weight="400"
       font-size="16px"
       transform="translate(742.001,745)"
       id="text900">purchase</text>
    <text
       font-family="'Segoe UI', 'Segoe UI_MSFontService', sans-serif"
       font-weight="400"
       font-size="16px"
       transform="translate(721.001,764)"
       id="text902">requisition and</text>
    <text
       font-family="'Segoe UI', 'Segoe UI_MSFontService', sans-serif"
       font-weight="400"
       font-size="16px"
       transform="translate(720.861,783)"
       id="text904">purchase order</text>
    <rect
       x="359"
       y="672"
       width="211"
       height="153"
       stroke="#000000"
       stroke-width="2"
       stroke-linejoin="round"
       stroke-miterlimit="10"
       fill="#a0a0a0"
       id="rect906" />
    <text
       fill="#ffffff"
       font-family="'Segoe UI', 'Segoe UI_MSFontService', sans-serif"
       font-weight="400"
       font-size="16px"
       transform="translate(413.803,755)"
       id="text908">Procure to pay</text>
    <rect
       x="1287"
       y="384"
       width="252"
       height="153"
       fill="#ffffff"
       id="rect910" />
    <path
       d="m 1318.5,384 v 153 m 189,-153 v 153"
       stroke="#0078d4"
       stroke-width="2"
       stroke-linejoin="round"
       stroke-miterlimit="10"
       fill="none"
       fill-rule="evenodd"
       id="path912" />
    <rect
       x="1287"
       y="384"
       width="252"
       height="153"
       stroke="#0078d4"
       stroke-width="2"
       stroke-linejoin="round"
       stroke-miterlimit="10"
       fill="none"
       id="rect914" />
    <text
       font-family="'Segoe UI', 'Segoe UI_MSFontService', sans-serif"
       font-weight="400"
       font-size="16px"
       transform="translate(1351.07,467)"
       id="text916">Plan maintenance</text>
    <rect
       x="1287"
       y="152"
       width="252"
       height="153"
       stroke="#00569b"
       stroke-width="2"
       stroke-linejoin="round"
       stroke-miterlimit="10"
       fill="#0078d4"
       id="rect918" />
    <text
       fill="#ffffff"
       font-family="'Segoe UI', 'Segoe UI_MSFontService', sans-serif"
       font-weight="400"
       font-size="16px"
       transform="translate(1344.72,225)"
       id="text920">Maintain and repair</text>
    <text
       fill="#ffffff"
       font-family="'Segoe UI', 'Segoe UI_MSFontService', sans-serif"
       font-weight="400"
       font-size="16px"
       transform="translate(1366.92,244)"
       id="text922">internal asset</text>
    <rect
       x="961"
       y="384"
       width="252"
       height="153"
       fill="#ffffff"
       id="rect924" />
    <path
       d="m 992.5,384 v 153 m 189,-153 v 153"
       stroke="#0078d4"
       stroke-width="2"
       stroke-linejoin="round"
       stroke-miterlimit="10"
       fill="none"
       fill-rule="evenodd"
       id="path926" />
    <rect
       x="961"
       y="384"
       width="252"
       height="153"
       stroke="#0078d4"
       stroke-width="2"
       stroke-linejoin="round"
       stroke-miterlimit="10"
       fill="none"
       id="rect928" />
    <text
       font-family="'Segoe UI', 'Segoe UI_MSFontService', sans-serif"
       font-weight="400"
       font-size="16px"
       transform="translate(1039.6,457)"
       id="text930">Procure spare</text>
    <text
       font-family="'Segoe UI', 'Segoe UI_MSFontService', sans-serif"
       font-weight="400"
       font-size="16px"
       transform="translate(1024.46,476)"
       id="text932">parts/service item</text>
    <rect
       x="1288"
       y="675"
       width="252"
       height="153"
       fill="#ffffff"
       id="rect934" />
    <path
       d="m 1319.5,675 v 153 m 189,-153 v 153"
       stroke="#0078d4"
       stroke-width="2"
       stroke-linejoin="round"
       stroke-miterlimit="10"
       fill="none"
       fill-rule="evenodd"
       id="path936" />
    <rect
       x="1288"
       y="675"
       width="252"
       height="153"
       stroke="#0078d4"
       stroke-width="2"
       stroke-linejoin="round"
       stroke-miterlimit="10"
       fill="none"
       id="rect938" />
    <text
       font-family="'Segoe UI', 'Segoe UI_MSFontService', sans-serif"
       font-weight="400"
       font-size="16px"
       transform="translate(1382.12,749)"
       id="text940">Schedule</text>
    <text
       font-family="'Segoe UI', 'Segoe UI_MSFontService', sans-serif"
       font-weight="400"
       font-size="16px"
       transform="translate(1368.85,768)"
       id="text942">maintenance</text>
    <rect
       x="1289"
       y="920"
       width="252"
       height="154"
       fill="#ffffff"
       id="rect944" />
    <path
       d="m 1320.5,920 v 154 m 189,-154 v 154"
       stroke="#0078d4"
       stroke-width="2"
       stroke-linejoin="round"
       stroke-miterlimit="10"
       fill="none"
       fill-rule="evenodd"
       id="path946" />
    <rect
       x="1289"
       y="920"
       width="252"
       height="154"
       stroke="#0078d4"
       stroke-width="2"
       stroke-linejoin="round"
       stroke-miterlimit="10"
       fill="none"
       id="rect948" />
    <text
       font-family="'Segoe UI', 'Segoe UI_MSFontService', sans-serif"
       font-weight="400"
       font-size="16px"
       transform="translate(1388.05,984)"
       id="text950">Execute</text>
    <text
       font-family="'Segoe UI', 'Segoe UI_MSFontService', sans-serif"
       font-weight="400"
       font-size="16px"
       transform="translate(1369.73,1003)"
       id="text952">maintenance</text>
    <text
       font-family="'Segoe UI', 'Segoe UI_MSFontService', sans-serif"
       font-weight="400"
       font-size="16px"
       transform="translate(1384.5,1022)"
       id="text954">activities</text>
    <rect
       x="1290"
       y="1150"
       width="252"
       height="153"
       fill="#ffffff"
       id="rect956" />
    <path
       d="m 1321.5,1150 v 153 m 189,-153 v 153"
       stroke="#0078d4"
       stroke-width="2"
       stroke-linejoin="round"
       stroke-miterlimit="10"
       fill="none"
       fill-rule="evenodd"
       id="path958" />
    <rect
       x="1290"
       y="1150"
       width="252"
       height="153"
       stroke="#0078d4"
       stroke-width="2"
       stroke-linejoin="round"
       stroke-miterlimit="10"
       fill="none"
       id="rect960" />
    <text
       font-family="'Segoe UI', 'Segoe UI_MSFontService', sans-serif"
       font-weight="400"
       font-size="16px"
       transform="translate(1388.34,1204)"
       id="text962">Analyze</text>
    <text
       font-family="'Segoe UI', 'Segoe UI_MSFontService', sans-serif"
       font-weight="400"
       font-size="16px"
       transform="translate(1370.4,1223)"
       id="text964">maintenance</text>
    <text
       font-family="'Segoe UI', 'Segoe UI_MSFontService', sans-serif"
       font-weight="400"
       font-size="16px"
       transform="translate(1390.84,1242)"
       id="text966">activity</text>
    <text
       font-family="'Segoe UI', 'Segoe UI_MSFontService', sans-serif"
       font-weight="400"
       font-size="16px"
       transform="translate(1370.62,1261)"
       id="text968">performance</text>
    <path
       d="M 1.70827e-5,-1 1038.12,-0.982266 V 1.01773 L -1.70827e-5,1 Z M 1036.79,-3.98229 l 8,4.0001378 -8,3.9998622 z"
       fill="#0078d4"
       transform="matrix(1,0,0,-1,243,228.018)"
       id="path970" />
    <path
       d="m 570,747 h 70.55 v 2 H 570 Z m 69.217,-3 8,4 -8,4 z"
       fill="#0078d4"
       id="path972" />
    <path
       d="m 900.009,747 383.281,3.268 -0.02,2 L 899.991,749 Z m 381.971,0.257 7.96,4.068 -8.03,3.931 z"
       fill="#0078d4"
       id="path974" />
    <path
       d="M 0.00163676,-0.999999 311.164,-0.490702 311.16,1.5093 -0.00163676,0.999999 Z M 309.836,-3.49288 l 7.994,4.01309 -8.007,3.9869 z"
       fill="#0078d4"
       transform="matrix(-1,0,0,1,961.83,461)"
       id="path976" />
    <path
       d="m 0,-1 h 39.5369 c 0.5523,0 1,0.447715 1,1 v 4.19947e-4 l -1,-0.999999947 H 72.407 v 2 H 39.5369 c -0.5523,0 -1,-0.447715 -1,-1.000000053 V 0 l 1,1 H 0 Z m 71.0737,-2.99958 8,3.999999947 -8,4.000000053 z"
       transform="matrix(0,1,1,0,1413,305)"
       id="path978" />
    <rect
       x="35"
       y="379"
       width="211"
       height="153"
       stroke="#000000"
       stroke-width="2"
       stroke-linejoin="round"
       stroke-miterlimit="10"
       fill="#a0a0a0"
       id="rect980" />
    <text
       fill="#ffffff"
       font-family="'Segoe UI', 'Segoe UI_MSFontService', sans-serif"
       font-weight="400"
       font-size="16px"
       transform="translate(71.0042,452)"
       id="text982">Product and service</text>
    <text
       fill="#ffffff"
       font-family="'Segoe UI', 'Segoe UI_MSFontService', sans-serif"
       font-weight="400"
       font-size="16px"
       transform="translate(63.6709,471)"
       id="text984">lifecycle management</text>
    <rect
       x="1651"
       y="675"
       width="211"
       height="153"
       stroke="#000000"
       stroke-width="2"
       stroke-linejoin="round"
       stroke-miterlimit="10"
       fill="#a0a0a0"
       id="rect986" />
    <text
       fill="#ffffff"
       font-family="'Segoe UI', 'Segoe UI_MSFontService', sans-serif"
       font-weight="400"
       font-size="16px"
       transform="translate(1701.51,758)"
       id="text988">Project to profit</text>
    <rect
       x="1651"
       y="152"
       width="212"
       height="153"
       stroke="#000000"
       stroke-width="2"
       stroke-linejoin="round"
       stroke-miterlimit="10"
       fill="#a0a0a0"
       id="rect990" />
    <text
       fill="#ffffff"
       font-family="'Segoe UI', 'Segoe UI_MSFontService', sans-serif"
       font-weight="400"
       font-size="16px"
       transform="translate(1693.65,235)"
       id="text992">Case to resolution</text>
    <rect
       x="35"
       y="669"
       width="211"
       height="154"
       stroke="#000000"
       stroke-width="2"
       stroke-linejoin="round"
       stroke-miterlimit="10"
       fill="#a0a0a0"
       id="rect994" />
    <text
       fill="#ffffff"
       font-family="'Segoe UI', 'Segoe UI_MSFontService', sans-serif"
       font-weight="400"
       font-size="16px"
       transform="translate(84.6342,753)"
       id="text996">Plan to produce</text>
    <path
       d="m 1417,1303 v 49.38 h -2 V 1303 Z m 3,48.05 -4,8 -4,-8 z"
       fill="#0078d4"
       id="path998" />
    <path
       d="m 1416,1073.99 0.61,69.66 -2,0.02 -0.61,-69.66 z m 3.6,68.3 -3.93,8.03 -4.07,-7.96 z"
       fill="#0078d4"
       id="path1000" />
    <path
       d="m 1415,827.99 0.82,85.36 -2,0.019 -0.82,-85.359 z m 3.81,83.998 -3.93,8.038 -4.07,-7.961 z"
       fill="#0078d4"
       id="path1002" />
    <path
       d="m 288.5,462 178,-38.5 178,38.5 -178,38.5 z"
       stroke="#0078d4"
       stroke-linejoin="round"
       stroke-miterlimit="10"
       fill="#0078d4"
       fill-rule="evenodd"
       id="path1004" />
    <text
       fill="#ffffff"
       font-family="'Segoe UI', 'Segoe UI_MSFontService', sans-serif"
       font-weight="400"
       font-size="16px"
       transform="translate(398.482,458)"
       id="text1006">Is part/service item</text>
    <text
       fill="#ffffff"
       font-family="'Segoe UI', 'Segoe UI_MSFontService', sans-serif"
       font-weight="400"
       font-size="16px"
       transform="translate(431.675,477)"
       id="text1008">available?</text>
    <path
       d="m 0,-1 h 68.2719 c 0.5523,0 1,0.447715 1,1 v 325.398 c 0,0.552 -0.4477,1 -1,1 H 50.9386 v -2 h 17.3333 l -1,1 V 0 l 1,1 H 0 Z m 52.2719,330.398 -8,-4 8,-4 z"
       fill="#0078d4"
       transform="matrix(0,-1,-1,0,465.398,423.272)"
       id="path1010" />
    <path
       d="m 0,-1 h 198.324 c 0.552,0 1,0.447715 1,1 v 59.9492 h -2 V 0 l 1,1 H 0 Z m 202.324,59.6159 -4,8 -4,-8 z"
       fill="#0078d4"
       transform="matrix(-1,0,0,1,338.324,603)"
       id="path1012" />
    <path
       d="M 0.999864,-0.0165101 1.9636,58.3483 -0.0361246,58.3813 -0.999864,0.0165101 Z M 4.94118,56.9656 1.07381,65.0305 -3.05773,57.0977 Z"
       fill="#0078d4"
       transform="matrix(-1,0,0,1,466.074,500)"
       id="path1014" />
    <path
       d="M 0,0 H 18.722 V 642.005"
       stroke="#0078d4"
       stroke-width="2"
       stroke-linejoin="round"
       stroke-miterlimit="10"
       fill="none"
       fill-rule="evenodd"
       transform="matrix(-1,0,0,1,34.722,455)"
       id="path1016" />
    <path
       d="m 16,1098 h -0.7958 l 1,-1 v 76.65 l -1,-1 H 641 v 2 H 15.2042 c -0.5523,0 -1,-0.45 -1,-1 V 1097 c 0,-0.55 0.4477,-1 1,-1 H 16 Z m 623.666,71.65 8,4 -8,4 z"
       fill="#0078d4"
       id="path1018" />
    <text
       font-family="'Segoe UI', 'Segoe UI_MSFontService', sans-serif"
       font-weight="400"
       font-size="16px"
       transform="translate(426.239,410)"
       id="text1020">Yes</text>
    <path
       d="m 0,-1 h 215.586 c 0.552,0 1,0.447715 1,1 v 162.296 h -2 V 0 l 1,1 H 0 Z m 219.586,161.962 -4,8 -4,-8 z"
       fill="#0078d4"
       transform="matrix(1,0,0,-1,1541,996.962)"
       id="path1022" />
    <path
       d="m 0,-1 h 55.3565 c 0.5523,0 1,0.447715 1,1 v 0.291129 l -1,-1 H 104.046 V 1.29113 H 55.3565 c -0.5523,0 -1,-0.447717 -1,-1.000001 V 0 l 1,1 H 0 Z m 102.713,-2.70887 8,3.999999 -8,4.000001 z"
       fill="#0078d4"
       transform="matrix(-1,0,0,1,1650.71,751)"
       id="path1024" />
    <text
       font-family="'Segoe UI', 'Segoe UI_MSFontService', sans-serif"
       font-weight="400"
       font-size="16px"
       transform="translate(425.324,536)"
       id="text1026">No</text>
    <path
       d="m 339.5,603.5 126,-38 126,38 -126,38 z"
       stroke="#0078d4"
       stroke-linejoin="round"
       stroke-miterlimit="10"
       fill="#0078d4"
       fill-rule="evenodd"
       id="path1028" />
    <text
       fill="#ffffff"
       font-family="'Segoe UI', 'Segoe UI_MSFontService', sans-serif"
       font-weight="400"
       font-size="16px"
       transform="translate(433.625,600)"
       id="text1030">Will it be</text>
    <text
       fill="#ffffff"
       font-family="'Segoe UI', 'Segoe UI_MSFontService', sans-serif"
       font-weight="400"
       font-size="16px"
       transform="translate(429.418,619)"
       id="text1032">procured?</text>
    <text
       font-family="'Segoe UI', 'Segoe UI_MSFontService', sans-serif"
       font-weight="400"
       font-size="16px"
       transform="translate(215.54,590)"
       id="text1034">No (only for parts)</text>
    <text
       font-family="'Segoe UI', 'Segoe UI_MSFontService', sans-serif"
       font-weight="400"
       font-size="16px"
       transform="translate(426.699,661)"
       id="text1036">Yes</text>
    <path
       d="M 0.999943,-0.0106746 1.24279,22.7386 -0.757091,22.7599 -0.999943,0.0106746 Z M 4.22839,21.3733 0.314016,29.4155 -3.77115,21.4587 Z"
       fill="#0078d4"
       transform="matrix(-1,0,0,1,465.314,642)"
       id="path1038" />
    <path
       d="m 0,-1 h 133.69 c 0.552,0 1,0.447715 1,1 v 501.607 h -2 V 0 l 1,1 H 0 Z m 137.69,501.274 -4,8 -4,-8 z"
       fill="#0078d4"
       transform="matrix(0,1,1,0,140,823)"
       id="path1040" />
    <path
       d="M 1608,690.074 V 228 c 0,-0.552 0.45,-1 1,-1 h 35.39 v 2 H 1609 l 1,-1 V 690.074 Z M 1643.05,224 l 8,4 -8,4 z"
       fill="#0078d4"
       id="path1042" />
    <path
       d="M 0,0 H 0.880856 V 22.3913 H 72.4982"
       stroke="#0078d4"
       stroke-width="2"
       stroke-linejoin="round"
       stroke-miterlimit="10"
       fill="none"
       fill-rule="evenodd"
       transform="matrix(-1,0,0,1,1610.5,690)"
       id="path1044" />
    <path
       d="m 0,1 h -41.6838 l 1,-1 v 1167.72 l -1,-1 H 318.603 v 2 H -41.6838 c -0.5523,0 -1,-0.44 -1,-1 V 0 c 0,-0.552285 0.4477,-1 1,-1 H 0 Z m 317.269,1162.72 8,4 -8,4 z"
       fill="#0078d4"
       transform="matrix(-1,0,0,1,1863.27,228)"
       id="path1046" />
    <rect
       x="1655"
       y="381"
       width="212"
       height="154"
       stroke="#000000"
       stroke-width="2"
       stroke-linejoin="round"
       stroke-miterlimit="10"
       fill="#a0a0a0"
       id="rect1048" />
    <text
       fill="#ffffff"
       font-family="'Segoe UI', 'Segoe UI_MSFontService', sans-serif"
       font-weight="400"
       font-size="16px"
       transform="translate(1708.8,464)"
       id="text1050">Service to cash</text>
    <path
       d="m 1610,457 h 22.71 c 0.55,0 1,0.448 1,1 v 0 l -1,-1 h 16.04 v 2 h -16.04 c -0.55,0 -1,-0.448 -1,-1 v 0 l 1,1 H 1610 Z m 37.42,-3 8,4 -8,4 z"
       fill="#0078d4"
       id="path1052" />
    <path
       d="m 1867,457 h 33.73 v 2 H 1867 Z m 32.39,-3 8,4 -8,4 z"
       fill="#0078d4"
       id="path1054" />
    <path
       d="m 1326,1396 c 0,-19.88 16.12,-36 36,-36 h 140 c 19.88,0 36,16.12 36,36 v 0 c 0,19.88 -16.12,36 -36,36 h -140 c -19.88,0 -36,-16.12 -36,-36 z"
       stroke="#0078d4"
       stroke-width="2"
       stroke-linejoin="round"
       stroke-miterlimit="10"
       fill="#ffffff"
       fill-rule="evenodd"
       id="path1056" />
    <text
       font-family="'Segoe UI', 'Segoe UI_MSFontService', sans-serif"
       font-weight="400"
       font-size="16px"
       transform="translate(1418.54,1402)"
       id="text1058">End</text>
    <path
       d="M 1.41887e-6,-1 67.3268,-0.999904 V 1.0001 L -1.41887e-6,1 Z M 65.9934,-3.99991 l 8,4.000014987 -8,3.999985013 z"
       fill="#0078d4"
       transform="matrix(-1,0,0,1,1286.99,461)"
       id="path1060" />
    <rect
       x="649"
       y="880"
       width="252"
       height="153"
       fill="#ffffff"
       id="rect1062" />
    <path
       d="m 680.5,880 v 153 m 189,-153 v 153"
       stroke="#0078d4"
       stroke-width="2"
       stroke-linejoin="round"
       stroke-miterlimit="10"
       fill="none"
       fill-rule="evenodd"
       id="path1064" />
    <rect
       x="649"
       y="880"
       width="252"
       height="153"
       stroke="#0078d4"
       stroke-width="2"
       stroke-linejoin="round"
       stroke-miterlimit="10"
       fill="none"
       id="rect1066" />
    <text
       font-family="'Segoe UI', 'Segoe UI_MSFontService', sans-serif"
       font-weight="400"
       font-size="16px"
       transform="translate(722.432,953)"
       id="text1068">Create/Process</text>
    <text
       font-family="'Segoe UI', 'Segoe UI_MSFontService', sans-serif"
       font-weight="400"
       font-size="16px"
       transform="translate(714.785,972)"
       id="text1070">production order</text>
    <path
       d="m 0,-1 h 261.061 c 0.553,0 1,0.447715 1,1 v 204.751 l -1,-1 h 119.656 v 2 H 261.061 c -0.552,0 -1,-0.448 -1,-1 V 0 l 1,1 H 0 Z m 379.383,201.751 8,4 -8,4 z"
       fill="#0078d4"
       transform="matrix(1,0,0,-1,901,956.751)"
       id="path1072" />
    <rect
       x="648"
       y="1097"
       width="252"
       height="153"
       fill="#ffffff"
       id="rect1074" />
    <path
       d="m 679.5,1097 v 153 m 189,-153 v 153"
       stroke="#0078d4"
       stroke-width="2"
       stroke-linejoin="round"
       stroke-miterlimit="10"
       fill="none"
       fill-rule="evenodd"
       id="path1076" />
    <rect
       x="648"
       y="1097"
       width="252"
       height="153"
       stroke="#0078d4"
       stroke-width="2"
       stroke-linejoin="round"
       stroke-miterlimit="10"
       fill="none"
       id="rect1078" />
    <text
       font-family="'Segoe UI', 'Segoe UI_MSFontService', sans-serif"
       font-weight="400"
       font-size="16px"
       transform="translate(710.894,1170)"
       id="text1080">Fetch part/service</text>
    <text
       font-family="'Segoe UI', 'Segoe UI_MSFontService', sans-serif"
       font-weight="400"
       font-size="16px"
       transform="translate(757.96,1189)"
       id="text1082">item</text>
    <path
       d="m 0,-1 h 261.562 c 0.553,0 1,0.447715 1,1 v 421.605 l -1,-1 h 120.163 v 2 H 261.562 c -0.552,0 -1,-0.448 -1,-1 V 0 l 1,1 H 0 Z m 380.391,418.605 8,4 -8,4 z"
       fill="#0078d4"
       transform="matrix(1,0,0,-1,900,1173.6)"
       id="path1084" />
  </g>
</svg>
