<?xml version="1.0"?>
<svg xmlns="http://www.w3.org/2000/svg" xmlns:xlink="http://www.w3.org/1999/xlink" xmlns:ev="http://www.w3.org/2001/xml-events"    viewBox="47 40 475 698"    xml:space="preserve" color-interpolation-filters="sRGB" class="st10" width="1188" height="1745">
<rect x="0" y="0" width="1188" height="1745" fill="#ffffff" />
	<style type="text/css"><![CDATA[
		.st1 {fill:#ffffff;stroke:#0078d4;stroke-linecap:round;stroke-linejoin:round;stroke-width:0.24}
		.st2 {fill:#000000;font-family:Calibri;font-size:1.00001em}
		.st3 {fill:#0078d4;stroke:none;stroke-linecap:round;stroke-linejoin:round;stroke-width:0.24}
		.st4 {fill:#ffffff;font-family:Calibri;font-size:1.00001em}
		.st5 {font-size:1em}
		.st6 {fill:#ffffff}
		.st7 {stroke:#0078d4;stroke-linecap:round;stroke-linejoin:round;stroke-width:0.24}
		.st8 {marker-end:url(#mrkr13-74);stroke:#0078d4;stroke-linecap:round;stroke-linejoin:round;stroke-width:0.75}
		.st9 {fill:#0078d4;fill-opacity:1;stroke:#0078d4;stroke-opacity:1;stroke-width:0.22935779816514}
		.st10 {fill:none;fill-rule:evenodd;font-size:12px;overflow:visible;stroke-linecap:square;stroke-miterlimit:3}
	]]></style><style> a { pointer-events: none; } </style><style>a.rules_svg_anchor g:hover { opacity:0.8; cursor:pointer; }</style>
	<defs id="Markers">
		<g id="lend13">
			<path d="M 3 1 L 0 0 L 3 -1 L 3 1 " style="stroke:none" />
		</g>
		<marker id="mrkr13-74" class="st9" refX="-13.08" orient="auto" markerUnits="strokeWidth" overflow="visible">
			<use xlink:href="#lend13" transform="scale(-4.36,-4.36) " />
		</marker>
	</defs>
	<g>
		
		<g id="shape1-1" transform="translate(47.25,-702)">
			
			<desc>Start</desc>
			<path d="M18 792 L67.5 792 A18 18 -180 0 0 67.5 756 L18 756 A18 18 -180 1 0 18 792 Z" class="st1" />
			<text x="31.01" y="777.6" class="st2">Start</text>
		</g>
		<a id="fd93a449-5cbe-4f3a-a0e2-860aa259e143" class="rules_svg_anchor rules_svg_shape"   href="/lms/chart?onclick=b3BlbkNoYXJ0Q29udGV4dE1lbnUoZXZlbnQsJ3cxMjVkNTIzNTk2NWMxNzI5NXY0MDc4JywyMzA2NywgMSwgMSwgdGhpcywgd2luZG93LmZyYW1lRWxlbWVudCk=&amp;navigate=true&amp;details=Description">
			<g id="shape2-4" transform="translate(238.5,-688.5)">
				
				<desc>75.50 Manage accounts payable</desc>
				<rect x="0" y="729" width="126" height="63" class="st3" />
				<text x="4.99" y="756.9" class="st4">75.50 Manage accounts <tspan x="43.87" dy="1.2em" class="st5">payable</tspan>
				</text>
			</g>
		</a>
		<a id="7010f0a1-dc2d-49d8-a063-6dd90e1260bb" class="rules_svg_anchor rules_svg_shape"   href="/lms/chart?onclick=b3BlbkNoYXJ0Q29udGV4dE1lbnUoZXZlbnQsJ3cxMjVkNTIzNTk2NWMxNzI5N3Y0MDc4JywyMzA2OCwgMSwgMSwgdGhpcywgd2luZG93LmZyYW1lRWxlbWVudCk=&amp;navigate=true&amp;details=Description">
			<g id="shape3-8" transform="translate(238.5,-598.5)">
				
				<desc>75.50.020 Process supplier invoices</desc>
				<path d="M0 792 L126 792 L126 729 L0 729 L0 792 Z" class="st6" />
				<path d="M0 792 L126 792 L126 729 L0 729 L0 792" class="st7" />
				<path d="M9 792 L9 729" class="st7" />
				<path d="M117 792 L117 729" class="st7" />
				<text x="18.76" y="756.9" class="st2">75.50.020 Process <tspan x="22.36" dy="1.2em" class="st5">supplier invoices</tspan>
				</text>
			</g>
		</a>
		<a id="8fc301a6-5031-4ee2-afcd-f88e26e6cbf7" class="rules_svg_anchor rules_svg_shape"   href="/lms/chart?onclick=b3BlbkNoYXJ0Q29udGV4dE1lbnUoZXZlbnQsJ3cxMjVkNTIzNTk2NWMxNzMwMnY0MDc4JywyMzA2OSwgMSwgMSwgdGhpcywgd2luZG93LmZyYW1lRWxlbWVudCk=&amp;navigate=true&amp;details=Description">
			<g id="shape4-15" transform="translate(238.5,-508.5)">
				
				<desc>75.50.070 Dispute invoices</desc>
				<path d="M0 792 L126 792 L126 729 L0 729 L0 792 Z" class="st6" />
				<path d="M0 792 L126 792 L126 729 L0 729 L0 792" class="st7" />
				<path d="M9 792 L9 729" class="st7" />
				<path d="M117 792 L117 729" class="st7" />
				<text x="18.61" y="756.9" class="st2">75.50.070 Dispute <tspan x="43.35" dy="1.2em" class="st5">invoices</tspan>
				</text>
			</g>
		</a>
		<a id="aeab2e10-53eb-4687-aec6-5e5276d8a615" class="rules_svg_anchor rules_svg_shape"   href="/lms/chart?onclick=b3BlbkNoYXJ0Q29udGV4dE1lbnUoZXZlbnQsJ3cxMjVkNTIzNTk2NWMxNzMwM3Y0MDc4JywyMzA3MCwgMSwgMSwgdGhpcywgd2luZG93LmZyYW1lRWxlbWVudCk=&amp;navigate=true&amp;details=Description">
			<g id="shape5-22" transform="translate(238.5,-418.5)">
				
				<desc>75.50.080 Receive supplier credits</desc>
				<path d="M0 792 L126 792 L126 729 L0 729 L0 792 Z" class="st6" />
				<path d="M0 792 L126 792 L126 729 L0 729 L0 792" class="st7" />
				<path d="M9 792 L9 729" class="st7" />
				<path d="M117 792 L117 729" class="st7" />
				<text x="18.49" y="756.9" class="st2">75.50.080 Receive <tspan x="25.51" dy="1.2em" class="st5">supplier credits</tspan>
				</text>
			</g>
		</a>
		<a id="aeed3b93-9056-4232-b782-bd90b9ae1fba" class="rules_svg_anchor rules_svg_shape"   href="/lms/chart?onclick=b3BlbkNoYXJ0Q29udGV4dE1lbnUoZXZlbnQsJ3cxMjVkNTIzNTk2NWM1NTQxNXY0MDc4JywyMzA3MSwgMSwgMSwgdGhpcywgd2luZG93LmZyYW1lRWxlbWVudCk=&amp;navigate=true&amp;details=Description">
			<g id="shape6-29" transform="translate(238.5,-328.5)">
				
				<desc>75.50.090 Issue and settle supplier payments</desc>
				<path d="M0 792 L126 792 L126 729 L0 729 L0 792 Z" class="st6" />
				<path d="M0 792 L126 792 L126 729 L0 729 L0 792" class="st7" />
				<path d="M9 792 L9 729" class="st7" />
				<path d="M117 792 L117 729" class="st7" />
				<text x="14.45" y="749.7" class="st2">75.50.090 Issue and <tspan x="28.29" dy="1.2em" class="st5">settle supplier </tspan>
					<tspan x="38.97" dy="1.2em" class="st5">payments</tspan>
				</text>
			</g>
		</a>
		<a id="8ca7ea5a-d3eb-4098-af11-f0780e7da51a" class="rules_svg_anchor rules_svg_shape"   href="/lms/chart?onclick=b3BlbkNoYXJ0Q29udGV4dE1lbnUoZXZlbnQsJ3cxMjVkNTIzNTk2NWM1NTQzOHY0MDc4JywyMzA3MiwgMSwgMSwgdGhpcywgd2luZG93LmZyYW1lRWxlbWVudCk=&amp;navigate=true&amp;details=Description">
			<g id="shape7-37" transform="translate(238.5,-238.5)">
				
				<desc>75.50.100 Manage promissory notes</desc>
				<path d="M0 792 L126 792 L126 729 L0 729 L0 792 Z" class="st6" />
				<path d="M0 792 L126 792 L126 729 L0 729 L0 792" class="st7" />
				<path d="M9 792 L9 729" class="st7" />
				<path d="M117 792 L117 729" class="st7" />
				<text x="17.49" y="756.9" class="st2">75.50.100 Manage <tspan x="20.74" dy="1.2em" class="st5">promissory notes</tspan>
				</text>
			</g>
		</a>
		<a id="e6cf2693-e6d9-4ca3-a983-5ef36b51c033" class="rules_svg_anchor rules_svg_shape"   href="/lms/chart?onclick=b3BlbkNoYXJ0Q29udGV4dE1lbnUoZXZlbnQsJ3cxMjVkNTIzNTk2NWM1NjQ4M3Y0MDc4JywyMzA3MywgMSwgMSwgdGhpcywgd2luZG93LmZyYW1lRWxlbWVudCk=&amp;navigate=true&amp;details=Description">
			<g id="shape8-44" transform="translate(81,-148.5)">
				
				<desc>75.50.110 Cancel supplier payments</desc>
				<path d="M0 792 L126 792 L126 729 L0 729 L0 792 Z" class="st6" />
				<path d="M0 792 L126 792 L126 729 L0 729 L0 792" class="st7" />
				<path d="M9 792 L9 729" class="st7" />
				<path d="M117 792 L117 729" class="st7" />
				<text x="21.2" y="756.9" class="st2">75.50.110 Cancel <tspan x="17.98" dy="1.2em" class="st5">supplier payments</tspan>
				</text>
			</g>
		</a>
		<a id="e35c9928-7423-49b3-b527-51ef09bcde26" class="rules_svg_anchor rules_svg_shape"   href="/lms/chart?onclick=b3BlbkNoYXJ0Q29udGV4dE1lbnUoZXZlbnQsJ3cxMjVkNTIzNTk2NWM1NjQ4N3Y0MDc4JywyMzA3NCwgMSwgMSwgdGhpcywgd2luZG93LmZyYW1lRWxlbWVudCk=&amp;navigate=true&amp;details=Description">
			<g id="shape9-51" transform="translate(238.5,-148.5)">
				
				<desc>75.50.120 Correct supplier payments</desc>
				<path d="M0 792 L126 792 L126 729 L0 729 L0 792 Z" class="st6" />
				<path d="M0 792 L126 792 L126 729 L0 729 L0 792" class="st7" />
				<path d="M9 792 L9 729" class="st7" />
				<path d="M117 792 L117 729" class="st7" />
				<text x="19.25" y="756.9" class="st2">75.50.120 Correct <tspan x="17.98" dy="1.2em" class="st5">supplier payments</tspan>
				</text>
			</g>
		</a>
		<a id="d752caf7-c0dc-4b1f-8035-27f83e686bc6" class="rules_svg_anchor rules_svg_shape"   href="/lms/chart?onclick=b3BlbkNoYXJ0Q29udGV4dE1lbnUoZXZlbnQsJ3cxMjVkNTIzNTk2NWM1NjQ4OXY0MDc4JywyMzA3NSwgMSwgMSwgdGhpcywgd2luZG93LmZyYW1lRWxlbWVudCk=&amp;navigate=true&amp;details=Description">
			<g id="shape10-58" transform="translate(396,-148.5)">
				
				<desc>75.50.130 Process supplier rebates and incentives</desc>
				<path d="M0 792 L126 792 L126 729 L0 729 L0 792 Z" class="st6" />
				<path d="M0 792 L126 792 L126 729 L0 729 L0 792" class="st7" />
				<path d="M9 792 L9 729" class="st7" />
				<path d="M117 792 L117 729" class="st7" />
				<text x="18.76" y="749.7" class="st2">75.50.130 Process <tspan x="13.03" dy="1.2em" class="st5">supplier rebates and </tspan>
					<tspan x="38.37" dy="1.2em" class="st5">incentives</tspan>
				</text>
			</g>
		</a>
		<g id="shape11-66" transform="translate(258.75,-54)">
			
			<desc>End</desc>
			<path d="M18 792 L67.5 792 A18 18 -180 0 0 67.5 756 L18 756 A18 18 -180 1 0 18 792 Z" class="st1" />
			<text x="33.52" y="777.6" class="st2">End</text>
		</g>
		<g id="shape12-69" transform="translate(132.75,-711)">
			
			<path d="M0 783 L95.94 783" class="st8" />
		</g>
		<g id="shape13-75" transform="translate(292.5,-688.5)">
			
			<path d="M9 792 L9 809.19" class="st8" />
		</g>
		<g id="shape14-80" transform="translate(292.5,-598.5)">
			
			<path d="M9 792 L9 809.19" class="st8" />
		</g>
		<g id="shape15-85" transform="translate(292.5,-508.5)">
			
			<path d="M9 792 L9 809.19" class="st8" />
		</g>
		<g id="shape16-90" transform="translate(292.5,-418.5)">
			
			<path d="M9 792 L9 809.19" class="st8" />
		</g>
		<g id="shape17-95" transform="translate(292.5,-328.5)">
			
			<path d="M9 792 L9 809.19" class="st8" />
		</g>
		<g id="shape18-100" transform="translate(292.5,-238.5)">
			
			<path d="M9 792 L9 809.19" class="st8" />
		</g>
		<g id="shape19-105" transform="translate(301.5,-238.5)">
			
			<path d="M0 792 L0 800.83 L-157.5 800.83 L-157.5 809.19" class="st8" />
		</g>
		<g id="shape20-110" transform="translate(301.5,-238.5)">
			
			<path d="M0 792 L0 800.83 L157.5 800.83 L157.5 809.19" class="st8" />
		</g>
		<g id="shape21-115" transform="translate(459,-148.5)">
			
			<path d="M0 792 L0 819 L-157.5 819 L-157.5 840.69" class="st8" />
		</g>
		<g id="shape22-120" transform="translate(292.5,-148.5)">
			
			<path d="M9 792 L9 840.69" class="st8" />
		</g>
		<g id="shape23-125" transform="translate(144,-148.5)">
			
			<path d="M0 792 L0 819 L157.5 819 L157.5 840.69" class="st8" />
		</g>
	</g>
</svg>
