<?xml version="1.0" encoding="UTF-8" standalone="no"?>
<svg
   width="1920"
   height="1461.4235"
   overflow="hidden"
   version="1.1"
   id="svg258"
   sodipodi:docname="order-to-cash-monitor-customer-credit-collections-process-flow.svg"
   inkscape:version="1.2.2 (732a01da63, 2022-12-09)"
   xmlns:inkscape="http://www.inkscape.org/namespaces/inkscape"
   xmlns:sodipodi="http://sodipodi.sourceforge.net/DTD/sodipodi-0.dtd"
   xmlns="http://www.w3.org/2000/svg"
   xmlns:svg="http://www.w3.org/2000/svg">
  <defs
     id="defs262" />
  <sodipodi:namedview
     id="namedview260"
     pagecolor="#ffffff"
     bordercolor="#000000"
     borderopacity="0.25"
     inkscape:showpageshadow="2"
     inkscape:pageopacity="0.0"
     inkscape:pagecheckerboard="0"
     inkscape:deskcolor="#d1d1d1"
     showgrid="false"
     inkscape:zoom="0.43177083"
     inkscape:cx="960"
     inkscape:cy="573.22075"
     inkscape:window-width="1920"
     inkscape:window-height="1010"
     inkscape:window-x="-6"
     inkscape:window-y="-6"
     inkscape:window-maximized="1"
     inkscape:current-layer="svg258" />
  <g
     id="g256"
     transform="translate(0,-18.528347)">
    <rect
       x="0"
       y="18.528347"
       width="1920"
       height="1461.4235"
       fill="#ffffff"
       id="rect2"
       style="stroke-width:0.872444" />
    <rect
       x="921"
       y="32"
       width="999"
       height="1441"
       stroke="#0078d4"
       stroke-width="2"
       stroke-linejoin="round"
       stroke-miterlimit="10"
       fill="#d9d9d9"
       id="rect4" />
    <text
       fill="#0078d4"
       font-family="'Segoe UI', 'Segoe UI_MSFontService', sans-serif"
       font-weight="700"
       font-size="27px"
       transform="translate(949.844,81)"
       id="text6">Business process area</text>
    <path
       d="M 31,68.5 C 31,48.3416 47.3416,32 67.5,32 h 139 c 20.158,0 36.5,16.3416 36.5,36.5 v 0 C 243,88.6584 226.658,105 206.5,105 H 67.5 C 47.3416,105 31,88.6584 31,68.5 Z"
       stroke="#0078d4"
       stroke-width="2"
       stroke-linejoin="round"
       stroke-miterlimit="10"
       fill="none"
       fill-rule="evenodd"
       id="path8" />
    <text
       font-family="'Segoe UI', 'Segoe UI_MSFontService', sans-serif"
       font-weight="400"
       font-size="16px"
       transform="translate(120.401,75)"
       id="text10">Start</text>
    <rect
       x="31"
       y="152"
       width="212"
       height="153"
       stroke="#000000"
       stroke-width="2"
       stroke-linejoin="round"
       stroke-miterlimit="10"
       fill="#a0a0a0"
       id="rect12" />
    <text
       font-family="'Segoe UI', 'Segoe UI_MSFontService', sans-serif"
       font-weight="400"
       font-size="16px"
       transform="translate(89.2942,235)"
       id="text14">Order to cash</text>
    <path
       d="M 649,627.5 775,562 901,627.5 775,693 Z"
       stroke="#0078d4"
       stroke-width="2"
       stroke-linejoin="round"
       stroke-miterlimit="10"
       fill="none"
       fill-rule="evenodd"
       id="path16" />
    <text
       font-family="'Segoe UI', 'Segoe UI_MSFontService', sans-serif"
       font-weight="400"
       font-size="15px"
       transform="translate(750.406,624)"
       id="text18">Is order</text>
    <text
       font-family="'Segoe UI', 'Segoe UI_MSFontService', sans-serif"
       font-weight="400"
       font-size="15px"
       transform="translate(741.486,642)"
       id="text20">fraudulent</text>
    <path
       d="M 1,-4.48434e-6 1.00018,40.1571 h -2 L -1,4.48434e-6 Z M 4.00017,38.8237 l -3.999960026,8 -4.000039974,-8 z"
       fill="#0078d4"
       transform="matrix(-1,0,0,1,137,105)"
       id="path22" />
    <text
       font-family="'Segoe UI', 'Segoe UI_MSFontService', sans-serif"
       font-weight="400"
       font-size="16px"
       transform="translate(891.512,1052)"
       id="text24">Yes</text>
    <rect
       x="320"
       y="351"
       width="252"
       height="154"
       fill="#ffffff"
       id="rect26" />
    <path
       d="m 351.5,351 v 154 m 189,-154 v 154"
       stroke="#0078d4"
       stroke-width="2"
       stroke-linejoin="round"
       stroke-miterlimit="10"
       fill="none"
       fill-rule="evenodd"
       id="path28" />
    <rect
       x="320"
       y="351"
       width="252"
       height="154"
       stroke="#0078d4"
       stroke-width="2"
       stroke-linejoin="round"
       stroke-miterlimit="10"
       fill="none"
       id="rect30" />
    <text
       font-family="'Segoe UI', 'Segoe UI_MSFontService', sans-serif"
       font-weight="400"
       font-size="16px"
       transform="translate(388.252,434)"
       id="text32">Create customer</text>
    <rect
       x="31"
       y="351"
       width="212"
       height="154"
       stroke="#000000"
       stroke-width="2"
       stroke-linejoin="round"
       stroke-miterlimit="10"
       fill="#a0a0a0"
       id="rect34" />
    <text
       font-family="'Segoe UI', 'Segoe UI_MSFontService', sans-serif"
       font-weight="400"
       font-size="16px"
       transform="translate(74.0242,434)"
       id="text36">Prospect to quote</text>
    <rect
       x="649"
       y="351"
       width="252"
       height="154"
       fill="#ffffff"
       id="rect38" />
    <path
       d="m 680.5,351 v 154 m 189,-154 v 154"
       stroke="#0078d4"
       stroke-width="2"
       stroke-linejoin="round"
       stroke-miterlimit="10"
       fill="none"
       fill-rule="evenodd"
       id="path40" />
    <rect
       x="649"
       y="351"
       width="252"
       height="154"
       stroke="#0078d4"
       stroke-width="2"
       stroke-linejoin="round"
       stroke-miterlimit="10"
       fill="none"
       id="rect42" />
    <text
       font-family="'Segoe UI', 'Segoe UI_MSFontService', sans-serif"
       font-weight="400"
       font-size="16px"
       transform="translate(711.342,425)"
       id="text44">Establish payment</text>
    <text
       font-family="'Segoe UI', 'Segoe UI_MSFontService', sans-serif"
       font-weight="400"
       font-size="16px"
       transform="translate(755.149,444)"
       id="text46">terms</text>
    <rect
       x="978"
       y="351"
       width="252"
       height="154"
       fill="#ffffff"
       id="rect48" />
    <path
       d="m 1009.5,351 v 154 m 189,-154 v 154"
       stroke="#0078d4"
       stroke-width="2"
       stroke-linejoin="round"
       stroke-miterlimit="10"
       fill="none"
       fill-rule="evenodd"
       id="path50" />
    <rect
       x="978"
       y="351"
       width="252"
       height="154"
       stroke="#0078d4"
       stroke-width="2"
       stroke-linejoin="round"
       stroke-miterlimit="10"
       fill="none"
       id="rect52" />
    <text
       font-family="'Segoe UI', 'Segoe UI_MSFontService', sans-serif"
       font-weight="400"
       font-size="16px"
       transform="translate(1058.18,425)"
       id="text54">Set customer</text>
    <text
       font-family="'Segoe UI', 'Segoe UI_MSFontService', sans-serif"
       font-weight="400"
       font-size="16px"
       transform="translate(1063.4,444)"
       id="text56">credit limits</text>
    <rect
       x="1308"
       y="351"
       width="252"
       height="154"
       fill="#ffffff"
       id="rect58" />
    <path
       d="m 1339.5,351 v 154 m 189,-154 v 154"
       stroke="#0078d4"
       stroke-width="2"
       stroke-linejoin="round"
       stroke-miterlimit="10"
       fill="none"
       fill-rule="evenodd"
       id="path60" />
    <rect
       x="1308"
       y="351"
       width="252"
       height="154"
       stroke="#0078d4"
       stroke-width="2"
       stroke-linejoin="round"
       stroke-miterlimit="10"
       fill="none"
       id="rect62" />
    <text
       font-family="'Segoe UI', 'Segoe UI_MSFontService', sans-serif"
       font-weight="400"
       font-size="16px"
       transform="translate(1372.71,425)"
       id="text64">Update customer</text>
    <text
       font-family="'Segoe UI', 'Segoe UI_MSFontService', sans-serif"
       font-weight="400"
       font-size="16px"
       transform="translate(1392.61,444)"
       id="text66">credit limits</text>
    <rect
       x="1637"
       y="351"
       width="252"
       height="154"
       fill="#ffffff"
       id="rect68" />
    <path
       d="m 1668.5,351 v 154 m 189,-154 v 154"
       stroke="#0078d4"
       stroke-width="2"
       stroke-linejoin="round"
       stroke-miterlimit="10"
       fill="none"
       fill-rule="evenodd"
       id="path70" />
    <rect
       x="1637"
       y="351"
       width="252"
       height="154"
       stroke="#0078d4"
       stroke-width="2"
       stroke-linejoin="round"
       stroke-miterlimit="10"
       fill="none"
       id="rect72" />
    <text
       font-family="'Segoe UI', 'Segoe UI_MSFontService', sans-serif"
       font-weight="400"
       font-size="16px"
       transform="translate(1714.3,415)"
       id="text74">Block or close</text>
    <text
       font-family="'Segoe UI', 'Segoe UI_MSFontService', sans-serif"
       font-weight="400"
       font-size="16px"
       transform="translate(1729.95,434)"
       id="text76">customer</text>
    <text
       font-family="'Segoe UI', 'Segoe UI_MSFontService', sans-serif"
       font-weight="400"
       font-size="16px"
       transform="translate(1731.47,453)"
       id="text78">accounts</text>
    <rect
       x="320"
       y="551"
       width="252"
       height="153"
       fill="#ffffff"
       id="rect80" />
    <path
       d="m 351.5,551 v 153 m 189,-153 v 153"
       stroke="#0078d4"
       stroke-width="2"
       stroke-linejoin="round"
       stroke-miterlimit="10"
       fill="none"
       fill-rule="evenodd"
       id="path82" />
    <rect
       x="320"
       y="551"
       width="252"
       height="153"
       stroke="#0078d4"
       stroke-width="2"
       stroke-linejoin="round"
       stroke-miterlimit="10"
       fill="none"
       id="rect84" />
    <text
       font-family="'Segoe UI', 'Segoe UI_MSFontService', sans-serif"
       font-weight="400"
       font-size="16px"
       transform="translate(407.685,615)"
       id="text86">Create and</text>
    <text
       font-family="'Segoe UI', 'Segoe UI_MSFontService', sans-serif"
       font-weight="400"
       font-size="16px"
       transform="translate(398.185,634)"
       id="text88">manage sales</text>
    <text
       font-family="'Segoe UI', 'Segoe UI_MSFontService', sans-serif"
       font-weight="400"
       font-size="16px"
       transform="translate(423.405,653)"
       id="text90">orders</text>
    <rect
       x="320"
       y="751"
       width="252"
       height="153"
       fill="#ffffff"
       id="rect92" />
    <path
       d="m 351.5,751 v 153 m 189,-153 v 153"
       stroke="#0078d4"
       stroke-width="2"
       stroke-linejoin="round"
       stroke-miterlimit="10"
       fill="none"
       fill-rule="evenodd"
       id="path94" />
    <rect
       x="320"
       y="751"
       width="252"
       height="153"
       stroke="#0078d4"
       stroke-width="2"
       stroke-linejoin="round"
       stroke-miterlimit="10"
       fill="none"
       id="rect96" />
    <text
       font-family="'Segoe UI', 'Segoe UI_MSFontService', sans-serif"
       font-weight="400"
       font-size="16px"
       transform="translate(386.495,824)"
       id="text98">Record customer</text>
    <text
       font-family="'Segoe UI', 'Segoe UI_MSFontService', sans-serif"
       font-weight="400"
       font-size="16px"
       transform="translate(411.629,843)"
       id="text100">payments</text>
    <path
       d="M 649,827.5 775,762 901,827.5 775,893 Z"
       stroke="#0078d4"
       stroke-width="2"
       stroke-linejoin="round"
       stroke-miterlimit="10"
       fill="none"
       fill-rule="evenodd"
       id="path102" />
    <text
       font-family="'Segoe UI', 'Segoe UI_MSFontService', sans-serif"
       font-weight="400"
       font-size="15px"
       transform="translate(752.482,815)"
       id="text104">Is non</text>
    <text
       font-family="'Segoe UI', 'Segoe UI_MSFontService', sans-serif"
       font-weight="400"
       font-size="15px"
       transform="translate(791.816,815)"
       id="text106">-</text>
    <text
       font-family="'Segoe UI', 'Segoe UI_MSFontService', sans-serif"
       font-weight="400"
       font-size="15px"
       transform="translate(745.736,833)"
       id="text108">sufficient</text>
    <text
       font-family="'Segoe UI', 'Segoe UI_MSFontService', sans-serif"
       font-weight="400"
       font-size="15px"
       transform="translate(753.736,850)"
       id="text110">funds?</text>
    <rect
       x="320"
       y="951"
       width="252"
       height="153"
       fill="#ffffff"
       id="rect112" />
    <path
       d="m 351.5,951 v 153 m 189,-153 v 153"
       stroke="#0078d4"
       stroke-width="2"
       stroke-linejoin="round"
       stroke-miterlimit="10"
       fill="none"
       fill-rule="evenodd"
       id="path114" />
    <rect
       x="320"
       y="951"
       width="252"
       height="153"
       stroke="#0078d4"
       stroke-width="2"
       stroke-linejoin="round"
       stroke-miterlimit="10"
       fill="none"
       id="rect116" />
    <text
       font-family="'Segoe UI', 'Segoe UI_MSFontService', sans-serif"
       font-weight="400"
       font-size="16px"
       transform="translate(393.249,1024)"
       id="text118">Issue customer</text>
    <text
       font-family="'Segoe UI', 'Segoe UI_MSFontService', sans-serif"
       font-weight="400"
       font-size="16px"
       transform="translate(417.815,1043)"
       id="text120">invoices</text>
    <path
       d="M 649,1027.5 775,962 901,1027.5 775,1093 Z"
       stroke="#0078d4"
       stroke-width="2"
       stroke-linejoin="round"
       stroke-miterlimit="10"
       fill="none"
       fill-rule="evenodd"
       id="path122" />
    <text
       font-family="'Segoe UI', 'Segoe UI_MSFontService', sans-serif"
       font-weight="400"
       font-size="15px"
       transform="translate(745.319,1024)"
       id="text124">Is invoice</text>
    <text
       font-family="'Segoe UI', 'Segoe UI_MSFontService', sans-serif"
       font-weight="400"
       font-size="15px"
       transform="translate(743.486,1042)"
       id="text126">disputed?</text>
    <rect
       x="978"
       y="152"
       width="252"
       height="153"
       stroke="#00569b"
       stroke-width="2"
       stroke-linejoin="round"
       stroke-miterlimit="10"
       fill="#0078d4"
       id="rect128" />
    <text
       fill="#ffffff"
       font-family="'Segoe UI', 'Segoe UI_MSFontService', sans-serif"
       font-weight="400"
       font-size="16px"
       transform="translate(1018.94,225)"
       id="text130">Monitor customer credit</text>
    <text
       fill="#ffffff"
       font-family="'Segoe UI', 'Segoe UI_MSFontService', sans-serif"
       font-weight="400"
       font-size="16px"
       transform="translate(1051.54,244)"
       id="text132">and collections</text>
    <rect
       x="978"
       y="551"
       width="252"
       height="153"
       fill="#ffffff"
       id="rect134" />
    <path
       d="m 1009.5,551 v 153 m 189,-153 v 153"
       stroke="#0078d4"
       stroke-width="2"
       stroke-linejoin="round"
       stroke-miterlimit="10"
       fill="none"
       fill-rule="evenodd"
       id="path136" />
    <rect
       x="978"
       y="551"
       width="252"
       height="153"
       stroke="#0078d4"
       stroke-width="2"
       stroke-linejoin="round"
       stroke-miterlimit="10"
       fill="none"
       id="rect138" />
    <text
       font-family="'Segoe UI', 'Segoe UI_MSFontService', sans-serif"
       font-weight="400"
       font-size="16px"
       transform="translate(1042.68,625)"
       id="text140">Detect fraudulent</text>
    <text
       font-family="'Segoe UI', 'Segoe UI_MSFontService', sans-serif"
       font-weight="400"
       font-size="16px"
       transform="translate(1081.84,644)"
       id="text142">orders</text>
    <rect
       x="978"
       y="751"
       width="252"
       height="153"
       fill="#ffffff"
       id="rect144" />
    <path
       d="m 1009.5,751 v 153 m 189,-153 v 153"
       stroke="#0078d4"
       stroke-width="2"
       stroke-linejoin="round"
       stroke-miterlimit="10"
       fill="none"
       fill-rule="evenodd"
       id="path146" />
    <rect
       x="978"
       y="751"
       width="252"
       height="153"
       stroke="#0078d4"
       stroke-width="2"
       stroke-linejoin="round"
       stroke-miterlimit="10"
       fill="none"
       id="rect148" />
    <text
       font-family="'Segoe UI', 'Segoe UI_MSFontService', sans-serif"
       font-weight="400"
       font-size="16px"
       transform="translate(1062.87,824)"
       id="text150">Handle NSF</text>
    <text
       font-family="'Segoe UI', 'Segoe UI_MSFontService', sans-serif"
       font-weight="400"
       font-size="16px"
       transform="translate(1070.06,843)"
       id="text152">payments</text>
    <rect
       x="978"
       y="951"
       width="252"
       height="153"
       fill="#ffffff"
       id="rect154" />
    <path
       d="m 1009.5,951 v 153 m 189,-153 v 153"
       stroke="#0078d4"
       stroke-width="2"
       stroke-linejoin="round"
       stroke-miterlimit="10"
       fill="none"
       fill-rule="evenodd"
       id="path156" />
    <rect
       x="978"
       y="951"
       width="252"
       height="153"
       stroke="#0078d4"
       stroke-width="2"
       stroke-linejoin="round"
       stroke-miterlimit="10"
       fill="none"
       id="rect158" />
    <text
       font-family="'Segoe UI', 'Segoe UI_MSFontService', sans-serif"
       font-weight="400"
       font-size="16px"
       transform="translate(1061.85,1014)"
       id="text160">Dispute and</text>
    <text
       font-family="'Segoe UI', 'Segoe UI_MSFontService', sans-serif"
       font-weight="400"
       font-size="16px"
       transform="translate(1052.74,1033)"
       id="text162">resolve invoice</text>
    <text
       font-family="'Segoe UI', 'Segoe UI_MSFontService', sans-serif"
       font-weight="400"
       font-size="16px"
       transform="translate(1057.42,1052)"
       id="text164">discrepancies</text>
    <rect
       x="978"
       y="1150"
       width="252"
       height="154"
       fill="#ffffff"
       id="rect166" />
    <path
       d="m 1009.5,1150 v 154 m 189,-154 v 154"
       stroke="#0078d4"
       stroke-width="2"
       stroke-linejoin="round"
       stroke-miterlimit="10"
       fill="none"
       fill-rule="evenodd"
       id="path168" />
    <rect
       x="978"
       y="1150"
       width="252"
       height="154"
       stroke="#0078d4"
       stroke-width="2"
       stroke-linejoin="round"
       stroke-miterlimit="10"
       fill="none"
       id="rect170" />
    <text
       font-family="'Segoe UI', 'Segoe UI_MSFontService', sans-serif"
       font-weight="400"
       font-size="16px"
       transform="translate(1042.87,1214)"
       id="text172">Process customer</text>
    <text
       font-family="'Segoe UI', 'Segoe UI_MSFontService', sans-serif"
       font-weight="400"
       font-size="16px"
       transform="translate(1076.45,1233)"
       id="text174">account</text>
    <text
       font-family="'Segoe UI', 'Segoe UI_MSFontService', sans-serif"
       font-weight="400"
       font-size="16px"
       transform="translate(1065.43,1252)"
       id="text176">statements</text>
    <rect
       x="1308"
       y="1150"
       width="252"
       height="154"
       fill="#ffffff"
       id="rect178" />
    <path
       d="m 1339.5,1150 v 154 m 189,-154 v 154"
       stroke="#0078d4"
       stroke-width="2"
       stroke-linejoin="round"
       stroke-miterlimit="10"
       fill="none"
       fill-rule="evenodd"
       id="path180" />
    <rect
       x="1308"
       y="1150"
       width="252"
       height="154"
       stroke="#0078d4"
       stroke-width="2"
       stroke-linejoin="round"
       stroke-miterlimit="10"
       fill="none"
       id="rect182" />
    <text
       font-family="'Segoe UI', 'Segoe UI_MSFontService', sans-serif"
       font-weight="400"
       font-size="16px"
       transform="translate(1395.34,1214)"
       id="text184">Create and</text>
    <text
       font-family="'Segoe UI', 'Segoe UI_MSFontService', sans-serif"
       font-weight="400"
       font-size="16px"
       transform="translate(1370.86,1233)"
       id="text186">process collection</text>
    <text
       font-family="'Segoe UI', 'Segoe UI_MSFontService', sans-serif"
       font-weight="400"
       font-size="16px"
       transform="translate(1411.6,1252)"
       id="text188">letters</text>
    <rect
       x="1637"
       y="1150"
       width="252"
       height="154"
       fill="#ffffff"
       id="rect190" />
    <path
       d="m 1668.5,1150 v 154 m 189,-154 v 154"
       stroke="#0078d4"
       stroke-width="2"
       stroke-linejoin="round"
       stroke-miterlimit="10"
       fill="none"
       fill-rule="evenodd"
       id="path192" />
    <rect
       x="1637"
       y="1150"
       width="252"
       height="154"
       stroke="#0078d4"
       stroke-width="2"
       stroke-linejoin="round"
       stroke-miterlimit="10"
       fill="none"
       id="rect194" />
    <text
       font-family="'Segoe UI', 'Segoe UI_MSFontService', sans-serif"
       font-weight="400"
       font-size="16px"
       transform="translate(1724.56,1214)"
       id="text196">Create and</text>
    <text
       font-family="'Segoe UI', 'Segoe UI_MSFontService', sans-serif"
       font-weight="400"
       font-size="16px"
       transform="translate(1707.66,1233)"
       id="text198">process interest</text>
    <text
       font-family="'Segoe UI', 'Segoe UI_MSFontService', sans-serif"
       font-weight="400"
       font-size="16px"
       transform="translate(1743.28,1252)"
       id="text200">notes</text>
    <path
       d="m 1657,1408.5 c 0,-20.16 16.34,-36.5 36.5,-36.5 h 138 c 20.16,0 36.5,16.34 36.5,36.5 v 0 c 0,20.16 -16.34,36.5 -36.5,36.5 h -138 c -20.16,0 -36.5,-16.34 -36.5,-36.5 z"
       stroke="#0078d4"
       stroke-width="2"
       stroke-linejoin="round"
       stroke-miterlimit="10"
       fill="none"
       fill-rule="evenodd"
       id="path202" />
    <text
       font-family="'Segoe UI', 'Segoe UI_MSFontService', sans-serif"
       font-weight="400"
       font-size="16px"
       transform="translate(1749.39,1415)"
       id="text204">End</text>
    <path
       d="M 31,229 H 6.99943 l 1,-1 v 399.456 l -1,-1 H 312.905 v 2 H 6.99943 c -0.55229,0 -1,-0.448 -1,-1 V 228 c 0,-0.552 0.44771,-1 1,-1 H 31 Z m 280.572,394.456 8,4 -8,4 z"
       fill="#0078d4"
       id="path206" />
    <path
       d="M 31,229 H 6.99921 l 1,-1 v 599.184 l -1,-1 H 312.905 v 2 H 6.99921 c -0.55229,0 -1,-0.448 -1,-1 V 228 c 0,-0.552 0.44771,-1 1,-1 H 31 Z m 280.572,594.184 8,4 -8,4 z"
       fill="#0078d4"
       id="path208" />
    <path
       d="M 31,229 H 6.99939 l 1,-1 v 798.91 l -1,-1 H 312.905 v 2 H 6.99939 c -0.55229,0 -1,-0.45 -1,-1 V 228 c 0,-0.552 0.44771,-1 1,-1 H 31 Z m 280.572,793.91 8,4 -8,4 z"
       fill="#0078d4"
       id="path210" />
    <path
       d="m 243,227 h 728.986 v 2 H 243 Z m 727.652,-3 8,4 -8,4 z"
       fill="#0078d4"
       id="path212" />
    <path
       d="m 243,427 h 70.55 v 2 H 243 Z m 69.217,-3 8,4 -8,4 z"
       fill="#0078d4"
       id="path214" />
    <path
       d="m 572,427 h 70.551 v 2 H 572 Z m 69.217,-3 8,4 -8,4 z"
       fill="#0078d4"
       id="path216" />
    <path
       d="m 572,627 h 70.551 v 2 H 572 Z m 69.217,-3 8,4 -8,4 z"
       fill="#0078d4"
       id="path218" />
    <path
       d="m 901,627 h 70.55 v 2 H 901 Z m 69.217,-3 8,4 -8,4 z"
       fill="#0078d4"
       id="path220" />
    <path
       d="m 901,427 h 70.55 v 2 H 901 Z m 69.217,-3 8,4 -8,4 z"
       fill="#0078d4"
       id="path222" />
    <path
       d="m 1105,305 v 20.007 c 0,0.552 -0.45,1 -1,1 H 953.999 l 1,-1 v 901.983 l -1,-1 h 17.334 v 2 h -17.334 c -0.552,0 -1,-0.44 -1,-1 V 325.007 c 0,-0.553 0.448,-1 1,-1 H 1104 l -1,1 V 305 Z m -135,917.99 8,4 -8,4 z"
       id="path224" />
    <path
       d="m 1230,427 h 70.55 v 2 H 1230 Z m 69.22,-3 8,4 -8,4 z"
       fill="#0078d4"
       id="path226" />
    <path
       d="m 1560,427 h 70.55 v 2 H 1560 Z m 69.22,-3 8,4 -8,4 z"
       fill="#0078d4"
       id="path228" />
    <path
       d="m 1230,1226 h 70.55 v 2 H 1230 Z m 69.22,-3 8,4 -8,4 z"
       fill="#0078d4"
       id="path230" />
    <path
       d="m 1560,1226 h 70.55 v 2 H 1560 Z m 69.22,-3 8,4 -8,4 z"
       fill="#0078d4"
       id="path232" />
    <path
       d="m 1767,1304 v 61.62 h -2 V 1304 Z m 3,60.28 -4,8 -4,-8 z"
       fill="#0078d4"
       id="path234" />
    <path
       d="m 572,826 h 70.551 v 2 H 572 Z m 69.217,-3 8,4 -8,4 z"
       fill="#0078d4"
       id="path236" />
    <path
       d="m 572,1026 h 70.551 v 2 H 572 Z m 69.217,-3 8,4 -8,4 z"
       fill="#0078d4"
       id="path238" />
    <path
       d="m 901,1026 h 70.55 v 2 H 901 Z m 69.217,-3 8,4 -8,4 z"
       fill="#0078d4"
       id="path240" />
    <path
       d="m 901,826 h 70.55 v 2 H 901 Z m 69.217,-3 8,4 -8,4 z"
       fill="#0078d4"
       id="path242" />
    <path
       d="m 0,1 h -23.9997 l 1,-1 v 980.228 l -1,-1 H 13.656 v 2 h -37.6557 c -0.5523,0 -1,-0.447 -1,-1 V 0 c 0,-0.552285 0.4477,-1 1,-1 H 0 Z m 12.3226,975.228 8,4 -8,4 z"
       fill="#0078d4"
       transform="matrix(-1,0,0,1,1888.32,428)"
       id="path244" />
    <path
       d="m 1230,627 h 683.44 c 0.55,0 1,0.448 1,1 v 780.5 c 0,0.55 -0.45,1 -1,1 h -38.66 v -2 h 38.66 l -1,1 V 628 l 1,1 H 1230 Z m 646.11,785.5 -8,-4 8,-4 z"
       fill="#0078d4"
       id="path246" />
    <path
       d="m 1230,826 h 683.44 c 0.55,0 1,0.448 1,1 v 580.77 c 0,0.55 -0.45,1 -1,1 h -38.66 v -2 h 38.66 l -1,1 V 827 l 1,1 H 1230 Z m 646.11,585.77 -8,-4 8,-4 z"
       fill="#0078d4"
       id="path248" />
    <path
       d="m 1230,1026 h 683.44 c 0.55,0 1,0.45 1,1 v 381.04 c 0,0.56 -0.45,1 -1,1 h -38.66 v -2 h 38.66 l -1,1 V 1027 l 1,1 H 1230 Z m 646.11,386.04 -8,-4 8,-4 z"
       fill="#0078d4"
       id="path250" />
    <text
       font-family="'Segoe UI', 'Segoe UI_MSFontService', sans-serif"
       font-weight="400"
       font-size="16px"
       transform="translate(894.013,853)"
       id="text252">Yes</text>
    <text
       font-family="'Segoe UI', 'Segoe UI_MSFontService', sans-serif"
       font-weight="400"
       font-size="16px"
       transform="translate(892.629,653)"
       id="text254">Yes</text>
  </g>
</svg>
