<?xml version="1.0"?>
<svg xmlns="http://www.w3.org/2000/svg" xmlns:xlink="http://www.w3.org/1999/xlink" xmlns:ev="http://www.w3.org/2001/xml-events"    viewBox="67 18 550 770"    xml:space="preserve" color-interpolation-filters="sRGB" class="st12" width="1375" height="1925">
<rect x="0" y="0" width="1375" height="1925" fill="#ffffff" />
	<style type="text/css"><![CDATA[
		.st1 {fill:#ffffff;stroke:#0078d4;stroke-linecap:round;stroke-linejoin:round;stroke-width:0.24}
		.st2 {fill:#000000;font-family:Calibri;font-size:1.00001em}
		.st3 {fill:#0078d4;stroke:none;stroke-linecap:round;stroke-linejoin:round;stroke-width:0.24}
		.st4 {fill:#ffffff;font-family:Calibri;font-size:1.00001em}
		.st5 {fill:#a0a0a0;stroke:none;stroke-linecap:round;stroke-linejoin:round;stroke-width:0.24}
		.st6 {font-size:1em}
		.st7 {fill:#ffffff}
		.st8 {stroke:#0078d4;stroke-linecap:round;stroke-linejoin:round;stroke-width:0.24}
		.st9 {stroke:#0078d4;stroke-linecap:round;stroke-linejoin:round;stroke-width:1}
		.st10 {marker-end:url(#mrkr13-86);stroke:#0078d4;stroke-linecap:round;stroke-linejoin:round;stroke-width:0.75}
		.st11 {fill:#0078d4;fill-opacity:1;stroke:#0078d4;stroke-opacity:1;stroke-width:0.22935779816514}
		.st12 {fill:none;fill-rule:evenodd;font-size:12px;overflow:visible;stroke-linecap:square;stroke-miterlimit:3}
	]]></style><style> a { pointer-events: none; } </style><style>a.rules_svg_anchor g:hover { opacity:0.8; cursor:pointer; }</style>
	<defs id="Markers">
		<g id="lend13">
			<path d="M 3 1 L 0 0 L 3 -1 L 3 1 " style="stroke:none" />
		</g>
		<marker id="mrkr13-86" class="st11" refX="-13.08" orient="auto" markerUnits="strokeWidth" overflow="visible">
			<use xlink:href="#lend13" transform="scale(-4.36,-4.36) " />
		</marker>
	</defs>
	<g>
		
		<g id="shape1-1" transform="translate(66.9375,-1120.5)">
			
			<desc>Start</desc>
			<path d="M18 1188 L60.75 1188 A18 18 -180 0 0 60.75 1152 L18 1152 A18 18 -180 1 0 18 1188 Z" class="st1" />
			<text x="27.63" y="1173.6" class="st2">Start</text>
		</g>
		<a id="89770bb0-f224-4e95-9d25-cc5c95b0e144" class="rules_svg_anchor rules_svg_shape"   href="/lms/chart?onclick=b3BlbkNoYXJ0Q29udGV4dE1lbnUoZXZlbnQsJ3cxMTZkNTIzNTk2NWMxNzE1NXY0MDcxJywxODI4MSwgMSwgMSwgdGhpcywgd2luZG93LmZyYW1lRWxlbWVudCk=&amp;navigate=true&amp;details=Description">
			<g id="shape2-4" transform="translate(228.938,-1107)">
				
				<desc>65 Order to cash</desc>
				<rect x="0" y="1125" width="99" height="63" class="st3" />
				<text x="8.97" y="1160.1" class="st4">65 Order to cash</text>
			</g>
		</a>
		<a id="221d09bb-9eb6-4496-91df-6e096bed95a6" class="rules_svg_anchor rules_svg_shape"   href="/lms/chart?onclick=b3BlbkNoYXJ0Q29udGV4dE1lbnUoZXZlbnQsJ3cxMTZkNTIzNTk2NWMxNzQxMnY0MDcxJywxODQ2MSwgMSwgMSwgdGhpcywgd2luZG93LmZyYW1lRWxlbWVudCk=&amp;navigate=true&amp;details=Description">
			<g id="shape3-7" transform="translate(538.312,-468)">
				
				<desc>90 Record to report</desc>
				<rect x="0" y="1125" width="78.75" height="63" class="st5" />
				<text x="8.22" y="1152.9" class="st2">90 Record to <tspan x="23.88" dy="1.2em" class="st6">report</tspan>
				</text>
			</g>
		</a>
		<a id="aa6f0c1e-8a13-4253-b651-0a7e5a5142db" class="rules_svg_anchor rules_svg_shape"   href="/lms/chart?onclick=b3BlbkNoYXJ0Q29udGV4dE1lbnUoZXZlbnQsJ3cxMTZkNTIzNTk2NWMxNjg1N3Y0MDcxJywxODAwMSwgMSwgMSwgdGhpcywgd2luZG93LmZyYW1lRWxlbWVudCk=&amp;navigate=true&amp;details=Description">
			<g id="shape4-11" transform="translate(66.9375,-927)">
				
				<desc>20 Case to resolution</desc>
				<rect x="0" y="1125" width="78.75" height="63" class="st5" />
				<text x="14" y="1152.9" class="st2">20 Case to <tspan x="14.55" dy="1.2em" class="st6">resolution</tspan>
				</text>
			</g>
		</a>
		<a id="0cfddcce-7f33-4347-b691-f3b197cd07e6" class="rules_svg_anchor rules_svg_shape"   href="/lms/chart?onclick=b3BlbkNoYXJ0Q29udGV4dE1lbnUoZXZlbnQsJ3cxMTZkNTIzNTk2NWMxNjk5MnY0MDcxJywxODExOCwgMSwgMSwgdGhpcywgd2luZG93LmZyYW1lRWxlbWVudCk=&amp;navigate=true&amp;details=Description">
			<g id="shape5-15" transform="translate(66.9375,-832.5)">
				
				<desc>50 Forecast to plan</desc>
				<rect x="0" y="1125" width="78.75" height="63" class="st5" />
				<text x="4.64" y="1152.9" class="st2">50 Forecast to <tspan x="28.82" dy="1.2em" class="st6">plan</tspan>
				</text>
			</g>
		</a>
		<a id="2b35e6b7-bd2a-4a9d-a440-088cd0b98280" class="rules_svg_anchor rules_svg_shape"   href="/lms/chart?onclick=b3BlbkNoYXJ0Q29udGV4dE1lbnUoZXZlbnQsJ3cxMTZkNTIzNTk2NWMxNzIzMHY0MDcxJywxODMyNywgMSwgMSwgdGhpcywgd2luZG93LmZyYW1lRWxlbWVudCk=&amp;navigate=true&amp;details=Description">
			<g id="shape6-19" transform="translate(66.9375,-738)">
				
				<desc>70 Plan to produce</desc>
				<rect x="0" y="1125" width="78.75" height="63" class="st5" />
				<text x="14.9" y="1152.9" class="st2">70 Plan to <tspan x="19.14" dy="1.2em" class="st6">produce</tspan>
				</text>
			</g>
		</a>
		<a id="2a7f32e2-9505-46f8-968d-1d9fe6eb9f07" class="rules_svg_anchor rules_svg_shape"   href="/lms/chart?onclick=b3BlbkNoYXJ0Q29udGV4dE1lbnUoZXZlbnQsJ3cxMTZkNTIzNTk2NWMxNjk0NHY0MDcxJywxODA4MSwgMSwgMSwgdGhpcywgd2luZG93LmZyYW1lRWxlbWVudCk=&amp;navigate=true&amp;details=Description">
			<g id="shape7-23" transform="translate(66.9375,-643.5)">
				
				<desc>40 Design to retire</desc>
				<rect x="0" y="1125" width="78.75" height="63" class="st5" />
				<text x="9.03" y="1152.9" class="st2">40 Design to <tspan x="25.83" dy="1.2em" class="st6">retire</tspan>
				</text>
			</g>
		</a>
		<a id="9e484201-db4b-43e8-a5de-17fd4c2b840a" class="rules_svg_anchor rules_svg_shape"   href="/lms/chart?onclick=b3BlbkNoYXJ0Q29udGV4dE1lbnUoZXZlbnQsJ3cxMTZkNTIzNTk2NWMxNzM3NnY0MDcxJywxODQ1NSwgMSwgMSwgdGhpcywgd2luZG93LmZyYW1lRWxlbWVudCk=&amp;navigate=true&amp;details=Description">
			<g id="shape8-27" transform="translate(66.9375,-549)">
				
				<desc>85 Prospect to quote</desc>
				<rect x="0" y="1125" width="78.75" height="63" class="st5" />
				<text x="4.02" y="1152.9" class="st2">85 Prospect to <tspan x="24.91" dy="1.2em" class="st6">quote</tspan>
				</text>
			</g>
		</a>
		<a id="02a2f0f5-a456-491d-83a2-d3e76a1f506b" class="rules_svg_anchor rules_svg_shape"   href="/lms/chart?onclick=b3BlbkNoYXJ0Q29udGV4dE1lbnUoZXZlbnQsJ3cxMTZkNTIzNTk2NWMxNzE2NnY0MDcxJywxODI5MiwgMSwgMSwgdGhpcywgd2luZG93LmZyYW1lRWxlbWVudCk=&amp;navigate=true&amp;details=Description">
			<g id="shape10-31" transform="translate(228.938,-927)">
				
				<desc>65.20 Manage sales orders</desc>
				<path d="M0 1188 L99 1188 L99 1125 L0 1125 L0 1188 Z" class="st7" />
				<path d="M0 1188 L99 1188 L99 1125 L0 1125 L0 1188" class="st8" />
				<path d="M9 1188 L9 1125" class="st8" />
				<path d="M90 1188 L90 1125" class="st8" />
				<text x="14.62" y="1152.9" class="st2">65.20 Manage <tspan x="20.38" dy="1.2em" class="st6">sales orders</tspan>
				</text>
			</g>
		</a>
		<a id="cc8aa11f-5d81-4c0b-b532-298deac1ee18" class="rules_svg_anchor rules_svg_shape"   href="/lms/chart?onclick=b3BlbkNoYXJ0Q29udGV4dE1lbnUoZXZlbnQsJ3cxMTZkNTIzNTk2NWMxNzE3NHY0MDcxJywxODMwMiwgMSwgMSwgdGhpcywgd2luZG93LmZyYW1lRWxlbWVudCk=&amp;navigate=true&amp;details=Description">
			<g id="shape12-38" transform="translate(229.5,-819)">
				
				<desc>65.30 Manage accounts receivable</desc>
				<path d="M0 1188 L99 1188 L99 1125 L0 1125 L0 1188 Z" class="st7" />
				<path d="M0 1188 L99 1188 L99 1125 L0 1125 L0 1188" class="st8" />
				<path d="M9 1188 L9 1125" class="st8" />
				<path d="M90 1188 L90 1125" class="st8" />
				<text x="14.62" y="1145.7" class="st2">65.30 Manage <tspan x="27.73" dy="1.2em" class="st6">accounts </tspan>
					<tspan x="24.42" dy="1.2em" class="st6">receivable</tspan>
				</text>
			</g>
		</a>
		<a id="505c6422-0ab5-46f7-baea-6254801b7bf6" class="rules_svg_anchor rules_svg_shape"   href="/lms/chart?onclick=b3BlbkNoYXJ0Q29udGV4dE1lbnUoZXZlbnQsJ3cxMTZkNTIzNTk2NWMxNzE5NHY0MDcxJywxODMxNCwgMSwgMSwgdGhpcywgd2luZG93LmZyYW1lRWxlbWVudCk=&amp;navigate=true&amp;details=Description">
			<g id="shape15-46" transform="translate(229.5,-688.5)">
				
				<desc>65.50 Manage credit and collections</desc>
				<path d="M0 1188 L99 1188 L99 1125 L0 1125 L0 1188 Z" class="st7" />
				<path d="M0 1188 L99 1188 L99 1125 L0 1125 L0 1188" class="st9" />
				<path d="M9 1188 L9 1125" class="st9" />
				<path d="M90 1188 L90 1125" class="st9" />
				<text x="14.62" y="1145.7" class="st2">65.50 Manage <tspan x="24.81" dy="1.2em" class="st6">credit and </tspan>
					<tspan x="23.47" dy="1.2em" class="st6">collections</tspan>
				</text>
			</g>
		</a>
		<g id="shape16-54" transform="translate(538.312,-400.5)">
			
			<desc>End</desc>
			<path d="M18 1188 L60.75 1188 A18 18 -180 0 0 60.75 1152 L18 1152 A18 18 -180 1 0 18 1188 Z" class="st1" />
			<text x="30.14" y="1173.6" class="st2">End</text>
		</g>
		<a id="57f00cd5-7a54-4b9d-a34e-71b729758a7f" class="rules_svg_anchor rules_svg_shape"   href="/lms/chart?onclick=b3BlbkNoYXJ0Q29udGV4dE1lbnUoZXZlbnQsJ3cxMTZkNTIzNTk2NWMxNjg1N3Y0MDcxJywxODAwMSwgMSwgMSwgdGhpcywgd2luZG93LmZyYW1lRWxlbWVudCk=&amp;navigate=true&amp;details=Description">
			<g id="shape17-57" transform="translate(538.312,-1071)">
				
				<desc>20 Case to resolution</desc>
				<rect x="0" y="1125" width="78.75" height="63" class="st5" />
				<text x="14" y="1152.9" class="st2">20 Case to <tspan x="14.55" dy="1.2em" class="st6">resolution</tspan>
				</text>
			</g>
		</a>
		<a id="c7dc53a3-88cc-498e-ba7c-448c90f7d09c" class="rules_svg_anchor rules_svg_shape"   href="/lms/chart?onclick=b3BlbkNoYXJ0Q29udGV4dE1lbnUoZXZlbnQsJ3cxMTZkNTIzNTk2NWMxNjk5MnY0MDcxJywxODExOCwgMSwgMSwgdGhpcywgd2luZG93LmZyYW1lRWxlbWVudCk=&amp;navigate=true&amp;details=Description">
			<g id="shape18-61" transform="translate(538.312,-976.5)">
				
				<desc>50 Forecast to plan</desc>
				<rect x="0" y="1125" width="78.75" height="63" class="st5" />
				<text x="4.64" y="1152.9" class="st2">50 Forecast to <tspan x="28.82" dy="1.2em" class="st6">plan</tspan>
				</text>
			</g>
		</a>
		<a id="7242a520-10cb-4ced-995e-74ee606b89f8" class="rules_svg_anchor rules_svg_shape"   href="/lms/chart?onclick=b3BlbkNoYXJ0Q29udGV4dE1lbnUoZXZlbnQsJ3cxMTZkNTIzNTk2NWMxNzIzMHY0MDcxJywxODMyNywgMSwgMSwgdGhpcywgd2luZG93LmZyYW1lRWxlbWVudCk=&amp;navigate=true&amp;details=Description">
			<g id="shape19-65" transform="translate(538.312,-846)">
				
				<desc>70 Plan to produce</desc>
				<rect x="0" y="1125" width="78.75" height="63" class="st5" />
				<text x="14.9" y="1152.9" class="st2">70 Plan to <tspan x="19.14" dy="1.2em" class="st6">produce</tspan>
				</text>
			</g>
		</a>
		<a id="f16a213e-283a-45ac-bcd7-27145bb62771" class="rules_svg_anchor rules_svg_shape"   href="/lms/chart?onclick=b3BlbkNoYXJ0Q29udGV4dE1lbnUoZXZlbnQsJ3cxMTZkNTIzNTk2NWMxNzI2OXY0MDcxJywxODM2MywgMSwgMSwgdGhpcywgd2luZG93LmZyYW1lRWxlbWVudCk=&amp;navigate=true&amp;details=Description">
			<g id="shape20-69" transform="translate(538.312,-751.5)">
				
				<desc>75 Source to pay</desc>
				<rect x="0" y="1125" width="78.75" height="63" class="st5" />
				<text x="8.72" y="1152.9" class="st2">75 Source to <tspan x="30.63" dy="1.2em" class="st6">pay</tspan>
				</text>
			</g>
		</a>
		<a id="08411841-a530-4978-a35f-c5183d58420c" class="rules_svg_anchor rules_svg_shape"   href="/lms/chart?onclick=b3BlbkNoYXJ0Q29udGV4dE1lbnUoZXZlbnQsJ3cxMTZkNTIzNTk2NWMxNjk0NHY0MDcxJywxODA4MSwgMSwgMSwgdGhpcywgd2luZG93LmZyYW1lRWxlbWVudCk=&amp;navigate=true&amp;details=Description">
			<g id="shape21-73" transform="translate(538.312,-657)">
				
				<desc>40 Design to retire</desc>
				<rect x="0" y="1125" width="78.75" height="63" class="st5" />
				<text x="9.03" y="1152.9" class="st2">40 Design to <tspan x="25.83" dy="1.2em" class="st6">retire</tspan>
				</text>
			</g>
		</a>
		<a id="04053242-7547-4730-bafd-4b4ba8187d26" class="rules_svg_anchor rules_svg_shape"   href="/lms/chart?onclick=b3BlbkNoYXJ0Q29udGV4dE1lbnUoZXZlbnQsJ3cxMTZkNTIzNTk2NWMxNzA5M3Y0MDcxJywxODIzMiwgMSwgMSwgdGhpcywgd2luZG93LmZyYW1lRWxlbWVudCk=&amp;navigate=true&amp;details=Description">
			<g id="shape22-77" transform="translate(538.312,-562.5)">
				
				<desc>60 Inventory to deliver</desc>
				<rect x="0" y="1125" width="78.75" height="63" class="st5" />
				<text x="8.44" y="1152.9" class="st2">60 Inventory <tspan x="16.17" dy="1.2em" class="st6">to deliver</tspan>
				</text>
			</g>
		</a>
		<g id="shape23-81" transform="translate(145.688,-1129.5)">
			
			<path d="M0 1179 L73.44 1179" class="st10" />
		</g>
		<g id="shape24-87" transform="translate(145.688,-949.5)">
			
			<path d="M0 1179 L73.44 1179" class="st10" />
		</g>
		<g id="shape25-92" transform="translate(145.688,-949.5)">
			
			<path d="M0 1179 L18 1179 L73.44 1179" class="st10" />
		</g>
		<g id="shape26-97" transform="translate(145.688,-864)">
			
			<path d="M0 1188 L17.66 1188 L17.66 1093.5 L73.44 1093.5" class="st10" />
		</g>
		<g id="shape27-102" transform="translate(145.688,-769.5)">
			
			<path d="M0 1188 L17.66 1188 L17.66 999 L73.44 999" class="st10" />
		</g>
		<g id="shape28-107" transform="translate(145.688,-675)">
			
			<path d="M0 1188 L17.66 1188 L17.66 904.5 L73.44 904.5" class="st10" />
		</g>
		<g id="shape29-112" transform="translate(145.688,-580.5)">
			
			<path d="M0 1188 L17.66 1188 L17.66 810 L73.44 810" class="st10" />
		</g>
		<g id="shape30-117" transform="translate(269.438,-1107)">
			
			<path d="M9 1188 L9 1205.19" class="st10" />
		</g>
		<g id="shape31-122" transform="translate(269.438,-1017)">
			
			<path d="M9 1188 L9 1205.19" class="st10" />
		</g>
		<g id="shape32-127" transform="translate(269.719,-927)">
			
			<path d="M8.72 1188 L9.16 1223.19" class="st10" />
		</g>
		<g id="shape37-132" transform="translate(270,-819)">
			
			<path d="M9 1188 L9 1245.69" class="st10" />
		</g>
		<g id="shape38-137" transform="translate(327.938,-958.5)">
			
			<path d="M0 1188 L148.38 1188 L148.38 1044 L200.56 1044" class="st10" />
		</g>
		<g id="shape39-142" transform="translate(327.938,-958.5)">
			
			<path d="M0 1188 L148.38 1188 L148.38 1138.5 L200.56 1138.5" class="st10" />
		</g>
		<g id="shape40-147" transform="translate(327.938,-958.5)">
			
			<path d="M0 1188 L148.38 1188 L148.38 1269 L200.56 1269" class="st10" />
		</g>
		<g id="shape41-152" transform="translate(327.938,-958.5)">
			
			<path d="M0 1188 L148.38 1188 L148.38 1363.5 L200.56 1363.5" class="st10" />
		</g>
		<g id="shape42-157" transform="translate(327.938,-958.5)">
			
			<path d="M0 1188 L148.38 1188 L148.38 1458 L200.56 1458" class="st10" />
		</g>
		<g id="shape44-162" transform="translate(328.5,-850.5)">
			
			<path d="M0 1188 L147.82 1188 L147.82 1539 L200 1539" class="st10" />
		</g>
		<g id="shape45-167" transform="translate(328.5,-576)">
			
			<path d="M0 1188 L147.82 1188 L147.82 1264.5 L200 1264.5" class="st10" />
		</g>
		<g id="shape46-172" transform="translate(328.5,-720)">
			
			<path d="M0 1188 L147.82 1188 L147.82 1408.5 L200 1408.5" class="st10" />
		</g>
		<g id="shape47-177" transform="translate(328.5,-720)">
			
			<path d="M0 1188 L148.5 1188 L148.5 1489.5 L200 1489.5" class="st10" />
		</g>
		<g id="shape48-182" transform="translate(586.687,-468)">
			
			<path d="M-9 1188 L-9 1209.69" class="st10" />
		</g>
		<a id="aeda01e9-82dd-41d0-8b90-89054eab132d" class="rules_svg_anchor rules_svg_shape"   href="/lms/chart?onclick=b3BlbkNoYXJ0Q29udGV4dE1lbnUoZXZlbnQsJ3cxMTZkNTIzNTk2NWMzMDg5N3Y0MDcxJywxODI4MiwgMSwgMSwgdGhpcywgd2luZG93LmZyYW1lRWxlbWVudCk=&amp;navigate=true&amp;details=Description">
			<g id="shape49-187" transform="translate(228.938,-1017)">
				
				<desc>65.05 Develop sales policies</desc>
				<path d="M0 1188 L99 1188 L99 1125 L0 1125 L0 1188 Z" class="st7" />
				<path d="M0 1188 L99 1188 L99 1125 L0 1125 L0 1188" class="st8" />
				<path d="M9 1188 L9 1125" class="st8" />
				<path d="M90 1188 L90 1125" class="st8" />
				<text x="14.4" y="1152.9" class="st2">65.05 Develop <tspan x="17.9" dy="1.2em" class="st6">sales policies</tspan>
				</text>
			</g>
		</a>
		<a id="9137ced2-ccb7-49f3-9b72-76a1043e0217" class="rules_svg_anchor rules_svg_shape"   href="/lms/chart?onclick=b3BlbkNoYXJ0Q29udGV4dE1lbnUoZXZlbnQsJ3cxMTZkNTIzNTk2NWM3OTQ1NXY0MDcxJywxODMyMCwgMSwgMSwgdGhpcywgd2luZG93LmZyYW1lRWxlbWVudCk=&amp;navigate=true&amp;details=Description">
			<g id="shape50-194" transform="translate(229.5,-544.5)">
				
				<desc>65.60 Analyze sales performance</desc>
				<path d="M0 1188 L99 1188 L99 1125 L0 1125 L0 1188 Z" class="st7" />
				<path d="M0 1188 L99 1188 L99 1125 L0 1125 L0 1188" class="st9" />
				<path d="M9 1188 L9 1125" class="st9" />
				<path d="M90 1188 L90 1125" class="st9" />
				<text x="15.52" y="1145.7" class="st2">65.60 Analyze <tspan x="37.57" dy="1.2em" class="st6">sales </tspan>
					<tspan x="17.84" dy="1.2em" class="st6">performance</tspan>
				</text>
			</g>
		</a>
		<g id="shape51-202" transform="translate(270,-688.5)">
			
			<path d="M9 1188 L9 1259.19" class="st10" />
		</g>
	</g>
</svg>
