<?xml version="1.0" encoding="UTF-8" standalone="no"?>
<svg
   width="1871.3925"
   height="1435.7936"
   overflow="hidden"
   version="1.1"
   id="svg493"
   sodipodi:docname="order-to-cash-process-relationship.svg"
   inkscape:version="1.2.2 (732a01da63, 2022-12-09)"
   xmlns:inkscape="http://www.inkscape.org/namespaces/inkscape"
   xmlns:sodipodi="http://sodipodi.sourceforge.net/DTD/sodipodi-0.dtd"
   xmlns="http://www.w3.org/2000/svg"
   xmlns:svg="http://www.w3.org/2000/svg">
  <defs
     id="defs497" />
  <sodipodi:namedview
     id="namedview495"
     pagecolor="#ffffff"
     bordercolor="#000000"
     borderopacity="0.25"
     inkscape:showpageshadow="2"
     inkscape:pageopacity="0.0"
     inkscape:pagecheckerboard="0"
     inkscape:deskcolor="#d1d1d1"
     showgrid="false"
     inkscape:zoom="0.53489583"
     inkscape:cx="931.0224"
     inkscape:cy="931.0224"
     inkscape:window-width="3840"
     inkscape:window-height="2054"
     inkscape:window-x="2725"
     inkscape:window-y="-11"
     inkscape:window-maximized="1"
     inkscape:current-layer="svg493" />
  <g
     id="g491"
     transform="translate(-28.042843,-28.042843)">
    <rect
       x="28.042843"
       y="28.042843"
       width="1871.3925"
       height="1435.7936"
       fill="#ffffff"
       id="rect397"
       style="stroke-width:0.853743" />
    <path
       d="M 41,93.7004 C 41,61.2811 67.2811,35 99.7005,35 H 569.299 C 601.719,35 628,61.2811 628,93.7004 V 1389.3 c 0,32.42 -26.281,58.7 -58.701,58.7 H 99.7005 C 67.2811,1448 41,1421.72 41,1389.3 Z"
       fill="#cbcbcb"
       fill-rule="evenodd"
       id="path399" />
    <text
       font-family="'Segoe UI', 'Segoe UI_MSFontService', sans-serif"
       font-weight="400"
       font-size="87px"
       transform="translate(150.009,277)"
       id="text401">Upstream</text>
    <path
       d="m 100.5,475.9 c 0,-9.057 7.343,-16.4 16.4,-16.4 h 437.2 c 9.057,0 16.4,7.343 16.4,16.4 v 131.2 c 0,9.057 -7.343,16.4 -16.4,16.4 H 116.9 c -9.057,0 -16.4,-7.343 -16.4,-16.4 z"
       stroke="#000000"
       stroke-width="1.13333"
       stroke-linejoin="round"
       stroke-miterlimit="10"
       fill="#ffffff"
       fill-rule="evenodd"
       id="path403" />
    <text
       font-family="'Segoe UI', 'Segoe UI_MSFontService', sans-serif"
       font-weight="400"
       font-size="40px"
       transform="translate(175.865,555)"
       id="text405">Case to resolution</text>
    <path
       d="m 100.5,664.8 c 0,-9.002 7.298,-16.3 16.3,-16.3 h 437.4 c 9.002,0 16.3,7.298 16.3,16.3 v 130.4 c 0,9.002 -7.298,16.3 -16.3,16.3 H 116.8 c -9.002,0 -16.3,-7.298 -16.3,-16.3 z"
       stroke="#000000"
       stroke-width="1.13333"
       stroke-linejoin="round"
       stroke-miterlimit="10"
       fill="#ffffff"
       fill-rule="evenodd"
       id="path407" />
    <text
       font-family="'Segoe UI', 'Segoe UI_MSFontService', sans-serif"
       font-weight="400"
       font-size="40px"
       transform="translate(194.142,744)"
       id="text409">Forecast to plan</text>
    <path
       d="m 100.5,853.8 c 0,-9.002 7.298,-16.3 16.3,-16.3 h 437.4 c 9.002,0 16.3,7.298 16.3,16.3 v 130.4 c 0,9.002 -7.298,16.3 -16.3,16.3 H 116.8 c -9.002,0 -16.3,-7.298 -16.3,-16.3 z"
       stroke="#000000"
       stroke-width="1.13333"
       stroke-linejoin="round"
       stroke-miterlimit="10"
       fill="#ffffff"
       fill-rule="evenodd"
       id="path411" />
    <text
       font-family="'Segoe UI', 'Segoe UI_MSFontService', sans-serif"
       font-weight="400"
       font-size="40px"
       transform="translate(195.052,932)"
       id="text413">Plan to produce</text>
    <path
       d="m 100.5,1041.9 c 0,-9.06 7.343,-16.4 16.4,-16.4 h 437.2 c 9.057,0 16.4,7.34 16.4,16.4 v 131.2 c 0,9.06 -7.343,16.4 -16.4,16.4 H 116.9 c -9.057,0 -16.4,-7.34 -16.4,-16.4 z"
       stroke="#000000"
       stroke-width="1.13333"
       stroke-linejoin="round"
       stroke-miterlimit="10"
       fill="#ffffff"
       fill-rule="evenodd"
       id="path415" />
    <text
       font-family="'Segoe UI', 'Segoe UI_MSFontService', sans-serif"
       font-weight="400"
       font-size="40px"
       transform="translate(161.075,1097)"
       id="text417">Product and service</text>
    <text
       font-family="'Segoe UI', 'Segoe UI_MSFontService', sans-serif"
       font-weight="400"
       font-size="40px"
       transform="translate(142.689,1145)"
       id="text419">lifecycle management</text>
    <path
       d="m 100.5,1230.9 c 0,-9.06 7.343,-16.4 16.4,-16.4 h 437.2 c 9.057,0 16.4,7.34 16.4,16.4 v 131.2 c 0,9.06 -7.343,16.4 -16.4,16.4 H 116.9 c -9.057,0 -16.4,-7.34 -16.4,-16.4 z"
       stroke="#000000"
       stroke-width="1.13333"
       stroke-linejoin="round"
       stroke-miterlimit="10"
       fill="#ffffff"
       fill-rule="evenodd"
       id="path421" />
    <text
       font-family="'Segoe UI', 'Segoe UI_MSFontService', sans-serif"
       font-weight="400"
       font-size="40px"
       transform="translate(177.329,1310)"
       id="text423">Prospect to quote</text>
    <path
       d="M 672,93.7004 C 672,61.2811 698.281,35 730.7,35 h 469.6 c 32.42,0 58.7,26.2811 58.7,58.7004 V 1389.3 c 0,32.42 -26.28,58.7 -58.7,58.7 H 730.7 c -32.419,0 -58.7,-26.28 -58.7,-58.7 z"
       fill="#cbcbcb"
       fill-rule="evenodd"
       id="path425" />
    <text
       font-family="'Segoe UI', 'Segoe UI_MSFontService', sans-serif"
       font-weight="400"
       font-size="87px"
       transform="translate(707.036,277)"
       id="text427">Order to cash</text>
    <path
       d="m 731.5,475.9 c 0,-9.057 7.343,-16.4 16.4,-16.4 h 437.2 c 9.06,0 16.4,7.343 16.4,16.4 v 131.2 c 0,9.057 -7.34,16.4 -16.4,16.4 H 747.9 c -9.057,0 -16.4,-7.343 -16.4,-16.4 z"
       stroke="#000000"
       stroke-width="1.13333"
       stroke-linejoin="round"
       stroke-miterlimit="10"
       fill="#ffffff"
       fill-rule="evenodd"
       id="path429" />
    <text
       font-family="'Segoe UI', 'Segoe UI_MSFontService', sans-serif"
       font-weight="400"
       font-size="40px"
       transform="translate(744.873,555)"
       id="text431">Manage store operations</text>
    <path
       d="m 731.5,664.8 c 0,-9.002 7.298,-16.3 16.3,-16.3 h 437.4 c 9,0 16.3,7.298 16.3,16.3 v 130.4 c 0,9.002 -7.3,16.3 -16.3,16.3 H 747.8 c -9.002,0 -16.3,-7.298 -16.3,-16.3 z"
       stroke="#000000"
       stroke-width="1.13333"
       stroke-linejoin="round"
       stroke-miterlimit="10"
       fill="#ffffff"
       fill-rule="evenodd"
       id="path433" />
    <text
       font-family="'Segoe UI', 'Segoe UI_MSFontService', sans-serif"
       font-weight="400"
       font-size="40px"
       transform="translate(745.799,720)"
       id="text435">Create and manage sales</text>
    <text
       font-family="'Segoe UI', 'Segoe UI_MSFontService', sans-serif"
       font-weight="400"
       font-size="40px"
       transform="translate(909.673,768)"
       id="text437">orders</text>
    <path
       d="m 731.5,853.8 c 0,-9.002 7.298,-16.3 16.3,-16.3 h 437.4 c 9,0 16.3,7.298 16.3,16.3 v 130.4 c 0,9.002 -7.3,16.3 -16.3,16.3 H 747.8 c -9.002,0 -16.3,-7.298 -16.3,-16.3 z"
       stroke="#000000"
       stroke-width="1.13333"
       stroke-linejoin="round"
       stroke-miterlimit="10"
       fill="#ffffff"
       fill-rule="evenodd"
       id="path439" />
    <text
       font-family="'Segoe UI', 'Segoe UI_MSFontService', sans-serif"
       font-weight="400"
       font-size="40px"
       transform="translate(758.459,932)"
       id="text441">Issue customer invoices</text>
    <path
       d="m 731.5,1041.9 c 0,-9.06 7.343,-16.4 16.4,-16.4 h 437.2 c 9.06,0 16.4,7.34 16.4,16.4 v 131.2 c 0,9.06 -7.34,16.4 -16.4,16.4 H 747.9 c -9.057,0 -16.4,-7.34 -16.4,-16.4 z"
       stroke="#000000"
       stroke-width="1.13333"
       stroke-linejoin="round"
       stroke-miterlimit="10"
       fill="#ffffff"
       fill-rule="evenodd"
       id="path443" />
    <text
       font-family="'Segoe UI', 'Segoe UI_MSFontService', sans-serif"
       font-weight="400"
       font-size="40px"
       transform="translate(817.099,1097)"
       id="text445">Record customer</text>
    <text
       font-family="'Segoe UI', 'Segoe UI_MSFontService', sans-serif"
       font-weight="400"
       font-size="40px"
       transform="translate(880.279,1145)"
       id="text447">payments</text>
    <path
       d="m 731.5,1230.9 c 0,-9.06 7.343,-16.4 16.4,-16.4 h 437.2 c 9.06,0 16.4,7.34 16.4,16.4 v 131.2 c 0,9.06 -7.34,16.4 -16.4,16.4 H 747.9 c -9.057,0 -16.4,-7.34 -16.4,-16.4 z"
       stroke="#000000"
       stroke-width="1.13333"
       stroke-linejoin="round"
       stroke-miterlimit="10"
       fill="#ffffff"
       fill-rule="evenodd"
       id="path449" />
    <text
       font-family="'Segoe UI', 'Segoe UI_MSFontService', sans-serif"
       font-weight="400"
       font-size="40px"
       transform="translate(751.989,1286)"
       id="text451">Monitor customer credit</text>
    <text
       font-family="'Segoe UI', 'Segoe UI_MSFontService', sans-serif"
       font-weight="400"
       font-size="40px"
       transform="translate(833.649,1334)"
       id="text453">and collections</text>
    <path
       d="M 1303,93.7004 C 1303,61.2811 1329.28,35 1361.7,35 h 469.6 c 32.42,0 58.7,26.2811 58.7,58.7004 V 1389.3 c 0,32.42 -26.28,58.7 -58.7,58.7 h -469.6 c -32.42,0 -58.7,-26.28 -58.7,-58.7 z"
       fill="#cbcbcb"
       fill-rule="evenodd"
       id="path455" />
    <text
       font-family="'Segoe UI', 'Segoe UI_MSFontService', sans-serif"
       font-weight="400"
       font-size="87px"
       transform="translate(1355.72,225)"
       id="text457">Downstream</text>
    <text
       font-family="'Segoe UI', 'Segoe UI_MSFontService', sans-serif"
       font-weight="400"
       font-size="87px"
       transform="translate(1411.08,329)"
       id="text459">processes</text>
    <path
       d="m 1362.5,472 c 0,-6.351 5.15,-11.5 11.5,-11.5 h 447 c 6.35,0 11.5,5.149 11.5,11.5 v 92 c 0,6.351 -5.15,11.5 -11.5,11.5 h -447 c -6.35,0 -11.5,-5.149 -11.5,-11.5 z"
       stroke="#000000"
       stroke-width="1.13333"
       stroke-linejoin="round"
       stroke-miterlimit="10"
       fill="#ffffff"
       fill-rule="evenodd"
       id="path461" />
    <text
       font-family="'Segoe UI', 'Segoe UI_MSFontService', sans-serif"
       font-weight="400"
       font-size="40px"
       transform="translate(1437.95,532)"
       id="text463">Case to resolution</text>
    <path
       d="m 1362.5,605.1 c 0,-6.406 5.19,-11.6 11.6,-11.6 h 446.8 c 6.41,0 11.6,5.194 11.6,11.6 v 92.8 c 0,6.407 -5.19,11.6 -11.6,11.6 h -446.8 c -6.41,0 -11.6,-5.193 -11.6,-11.6 z"
       stroke="#000000"
       stroke-width="1.13333"
       stroke-linejoin="round"
       stroke-miterlimit="10"
       fill="#ffffff"
       fill-rule="evenodd"
       id="path465" />
    <text
       font-family="'Segoe UI', 'Segoe UI_MSFontService', sans-serif"
       font-weight="400"
       font-size="40px"
       transform="translate(1456.22,665)"
       id="text467">Forecast to plan</text>
    <path
       d="m 1362.5,739.1 c 0,-6.406 5.19,-11.6 11.6,-11.6 h 446.8 c 6.41,0 11.6,5.194 11.6,11.6 v 92.8 c 0,6.407 -5.19,11.6 -11.6,11.6 h -446.8 c -6.41,0 -11.6,-5.193 -11.6,-11.6 z"
       stroke="#000000"
       stroke-width="1.13333"
       stroke-linejoin="round"
       stroke-miterlimit="10"
       fill="#ffffff"
       fill-rule="evenodd"
       id="path469" />
    <text
       font-family="'Segoe UI', 'Segoe UI_MSFontService', sans-serif"
       font-weight="400"
       font-size="40px"
       transform="translate(1425.18,799)"
       id="text471">Inventory to deliver</text>
    <path
       d="m 1362.5,872.1 c 0,-6.406 5.19,-11.6 11.6,-11.6 h 446.8 c 6.41,0 11.6,5.194 11.6,11.6 v 92.8 c 0,6.407 -5.19,11.6 -11.6,11.6 h -446.8 c -6.41,0 -11.6,-5.193 -11.6,-11.6 z"
       stroke="#000000"
       stroke-width="1.13333"
       stroke-linejoin="round"
       stroke-miterlimit="10"
       fill="#ffffff"
       fill-rule="evenodd"
       id="path473" />
    <text
       font-family="'Segoe UI', 'Segoe UI_MSFontService', sans-serif"
       font-weight="400"
       font-size="40px"
       transform="translate(1457.13,932)"
       id="text475">Plan to produce</text>
    <path
       d="m 1362.5,1006.1 c 0,-6.406 5.19,-11.6 11.6,-11.6 h 446.8 c 6.41,0 11.6,5.194 11.6,11.6 v 92.8 c 0,6.41 -5.19,11.6 -11.6,11.6 h -446.8 c -6.41,0 -11.6,-5.19 -11.6,-11.6 z"
       stroke="#000000"
       stroke-width="1.13333"
       stroke-linejoin="round"
       stroke-miterlimit="10"
       fill="#ffffff"
       fill-rule="evenodd"
       id="path477" />
    <text
       font-family="'Segoe UI', 'Segoe UI_MSFontService', sans-serif"
       font-weight="400"
       font-size="40px"
       transform="translate(1468.97,1066)"
       id="text479">Procure to pay</text>
    <path
       d="m 1362.5,1140 c 0,-6.35 5.15,-11.5 11.5,-11.5 h 447 c 6.35,0 11.5,5.15 11.5,11.5 v 92 c 0,6.35 -5.15,11.5 -11.5,11.5 h -447 c -6.35,0 -11.5,-5.15 -11.5,-11.5 z"
       stroke="#000000"
       stroke-width="1.13333"
       stroke-linejoin="round"
       stroke-miterlimit="10"
       fill="#ffffff"
       fill-rule="evenodd"
       id="path481" />
    <text
       font-family="'Segoe UI', 'Segoe UI_MSFontService', sans-serif"
       font-weight="400"
       font-size="40px"
       transform="translate(1423.16,1176)"
       id="text483">Product and service</text>
    <text
       font-family="'Segoe UI', 'Segoe UI_MSFontService', sans-serif"
       font-weight="400"
       font-size="40px"
       transform="translate(1404.77,1224)"
       id="text485">lifecycle management</text>
    <path
       d="m 1362.5,1273.1 c 0,-6.41 5.19,-11.6 11.6,-11.6 h 446.8 c 6.41,0 11.6,5.19 11.6,11.6 v 92.8 c 0,6.41 -5.19,11.6 -11.6,11.6 h -446.8 c -6.41,0 -11.6,-5.19 -11.6,-11.6 z"
       stroke="#000000"
       stroke-width="1.13333"
       stroke-linejoin="round"
       stroke-miterlimit="10"
       fill="#ffffff"
       fill-rule="evenodd"
       id="path487" />
    <text
       font-family="'Segoe UI', 'Segoe UI_MSFontService', sans-serif"
       font-weight="400"
       font-size="40px"
       transform="translate(1451.41,1333)"
       id="text489">Record to report</text>
  </g>
</svg>
