<?xml version="1.0" encoding="UTF-8" standalone="no"?>
<svg
   width="1920"
   height="1476.9231"
   overflow="hidden"
   version="1.1"
   id="svg110"
   sodipodi:docname="order-to-cash-process-relationship.svg"
   inkscape:version="1.2.2 (732a01da63, 2022-12-09)"
   xmlns:inkscape="http://www.inkscape.org/namespaces/inkscape"
   xmlns:sodipodi="http://sodipodi.sourceforge.net/DTD/sodipodi-0.dtd"
   xmlns="http://www.w3.org/2000/svg"
   xmlns:svg="http://www.w3.org/2000/svg">
  <defs
     id="defs114" />
  <sodipodi:namedview
     id="namedview112"
     pagecolor="#ffffff"
     bordercolor="#000000"
     borderopacity="0.25"
     inkscape:showpageshadow="2"
     inkscape:pageopacity="0.0"
     inkscape:pagecheckerboard="0"
     inkscape:deskcolor="#d1d1d1"
     showgrid="false"
     inkscape:zoom="0.53489583"
     inkscape:cx="960"
     inkscape:cy="959.06524"
     inkscape:window-width="3840"
     inkscape:window-height="2054"
     inkscape:window-x="2725"
     inkscape:window-y="-11"
     inkscape:window-maximized="1"
     inkscape:current-layer="svg110" />
  <g
     id="g108">
    <rect
       x="0"
       y="0"
       width="1920"
       height="1476.9231"
       fill="#ffffff"
       id="rect2"
       style="stroke-width:0.877058" />
    <path
       d="M 41,93.7004 C 41,61.2811 67.2811,35 99.7005,35 H 569.299 C 601.719,35 628,61.2811 628,93.7004 V 1389.3 c 0,32.42 -26.281,58.7 -58.701,58.7 H 99.7005 C 67.2811,1448 41,1421.72 41,1389.3 Z"
       fill="#cbcbcb"
       fill-rule="evenodd"
       id="path4" />
    <text
       font-family="'Segoe UI', 'Segoe UI_MSFontService', sans-serif"
       font-weight="400"
       font-size="87px"
       transform="translate(150.009,277)"
       id="text6">Upstream</text>
    <path
       d="m 100.5,475.9 c 0,-9.057 7.343,-16.4 16.4,-16.4 h 437.2 c 9.057,0 16.4,7.343 16.4,16.4 v 131.2 c 0,9.057 -7.343,16.4 -16.4,16.4 H 116.9 c -9.057,0 -16.4,-7.343 -16.4,-16.4 z"
       stroke="#000000"
       stroke-width="1.13333"
       stroke-linejoin="round"
       stroke-miterlimit="10"
       fill="#ffffff"
       fill-rule="evenodd"
       id="path8" />
    <text
       font-family="'Segoe UI', 'Segoe UI_MSFontService', sans-serif"
       font-weight="400"
       font-size="40px"
       transform="translate(175.865,555)"
       id="text10">Case to resolution</text>
    <path
       d="m 100.5,664.8 c 0,-9.002 7.298,-16.3 16.3,-16.3 h 437.4 c 9.002,0 16.3,7.298 16.3,16.3 v 130.4 c 0,9.002 -7.298,16.3 -16.3,16.3 H 116.8 c -9.002,0 -16.3,-7.298 -16.3,-16.3 z"
       stroke="#000000"
       stroke-width="1.13333"
       stroke-linejoin="round"
       stroke-miterlimit="10"
       fill="#ffffff"
       fill-rule="evenodd"
       id="path12" />
    <text
       font-family="'Segoe UI', 'Segoe UI_MSFontService', sans-serif"
       font-weight="400"
       font-size="40px"
       transform="translate(194.142,744)"
       id="text14">Forecast to plan</text>
    <path
       d="m 100.5,853.8 c 0,-9.002 7.298,-16.3 16.3,-16.3 h 437.4 c 9.002,0 16.3,7.298 16.3,16.3 v 130.4 c 0,9.002 -7.298,16.3 -16.3,16.3 H 116.8 c -9.002,0 -16.3,-7.298 -16.3,-16.3 z"
       stroke="#000000"
       stroke-width="1.13333"
       stroke-linejoin="round"
       stroke-miterlimit="10"
       fill="#ffffff"
       fill-rule="evenodd"
       id="path16" />
    <text
       font-family="'Segoe UI', 'Segoe UI_MSFontService', sans-serif"
       font-weight="400"
       font-size="40px"
       transform="translate(195.052,932)"
       id="text18">Plan to produce</text>
    <path
       d="m 100.5,1041.9 c 0,-9.06 7.343,-16.4 16.4,-16.4 h 437.2 c 9.057,0 16.4,7.34 16.4,16.4 v 131.2 c 0,9.06 -7.343,16.4 -16.4,16.4 H 116.9 c -9.057,0 -16.4,-7.34 -16.4,-16.4 z"
       stroke="#000000"
       stroke-width="1.13333"
       stroke-linejoin="round"
       stroke-miterlimit="10"
       fill="#ffffff"
       fill-rule="evenodd"
       id="path20" />
    <text
       font-family="'Segoe UI', 'Segoe UI_MSFontService', sans-serif"
       font-weight="400"
       font-size="40px"
       transform="translate(161.075,1097)"
       id="text22">Product and service</text>
    <text
       font-family="'Segoe UI', 'Segoe UI_MSFontService', sans-serif"
       font-weight="400"
       font-size="40px"
       transform="translate(142.689,1145)"
       id="text24">lifecycle management</text>
    <path
       d="m 100.5,1230.9 c 0,-9.06 7.343,-16.4 16.4,-16.4 h 437.2 c 9.057,0 16.4,7.34 16.4,16.4 v 131.2 c 0,9.06 -7.343,16.4 -16.4,16.4 H 116.9 c -9.057,0 -16.4,-7.34 -16.4,-16.4 z"
       stroke="#000000"
       stroke-width="1.13333"
       stroke-linejoin="round"
       stroke-miterlimit="10"
       fill="#ffffff"
       fill-rule="evenodd"
       id="path26" />
    <text
       font-family="'Segoe UI', 'Segoe UI_MSFontService', sans-serif"
       font-weight="400"
       font-size="40px"
       transform="translate(177.329,1310)"
       id="text28">Prospect to quote</text>
    <path
       d="M 672,93.7004 C 672,61.2811 698.281,35 730.7,35 h 469.6 c 32.42,0 58.7,26.2811 58.7,58.7004 V 1389.3 c 0,32.42 -26.28,58.7 -58.7,58.7 H 730.7 c -32.419,0 -58.7,-26.28 -58.7,-58.7 z"
       fill="#cbcbcb"
       fill-rule="evenodd"
       id="path30" />
    <text
       font-family="'Segoe UI', 'Segoe UI_MSFontService', sans-serif"
       font-weight="400"
       font-size="87px"
       transform="translate(707.036,277)"
       id="text32">Order to cash</text>
    <path
       d="m 731.5,472 c 0,-6.351 5.149,-11.5 11.5,-11.5 h 447 c 6.35,0 11.5,5.149 11.5,11.5 v 92 c 0,6.351 -5.15,11.5 -11.5,11.5 H 743 c -6.351,0 -11.5,-5.149 -11.5,-11.5 z"
       stroke="#000000"
       stroke-width="1.13333"
       stroke-linejoin="round"
       stroke-miterlimit="10"
       fill="#ffffff"
       fill-rule="evenodd"
       id="path34" />
    <text
       font-family="'Segoe UI', 'Segoe UI_MSFontService', sans-serif"
       font-weight="400"
       font-size="40px"
       transform="translate(789.059,508)"
       id="text36">Manage pricing and</text>
    <text
       font-family="'Segoe UI', 'Segoe UI_MSFontService', sans-serif"
       font-weight="400"
       font-size="40px"
       transform="translate(885.213,556)"
       id="text38">contracts</text>
    <path
       d="m 731.5,605.1 c 0,-6.406 5.194,-11.6 11.6,-11.6 h 446.8 c 6.41,0 11.6,5.194 11.6,11.6 v 92.8 c 0,6.407 -5.19,11.6 -11.6,11.6 H 743.1 c -6.406,0 -11.6,-5.193 -11.6,-11.6 z"
       stroke="#000000"
       stroke-width="1.13333"
       stroke-linejoin="round"
       stroke-miterlimit="10"
       fill="#ffffff"
       fill-rule="evenodd"
       id="path40" />
    <text
       font-family="'Segoe UI', 'Segoe UI_MSFontService', sans-serif"
       font-weight="400"
       font-size="40px"
       transform="translate(745.799,641)"
       id="text42">Create and manage sales</text>
    <text
       font-family="'Segoe UI', 'Segoe UI_MSFontService', sans-serif"
       font-weight="400"
       font-size="40px"
       transform="translate(909.673,689)"
       id="text44">orders</text>
    <path
       d="m 731.5,739.1 c 0,-6.406 5.194,-11.6 11.6,-11.6 h 446.8 c 6.41,0 11.6,5.194 11.6,11.6 v 92.8 c 0,6.407 -5.19,11.6 -11.6,11.6 H 743.1 c -6.406,0 -11.6,-5.193 -11.6,-11.6 z"
       stroke="#000000"
       stroke-width="1.13333"
       stroke-linejoin="round"
       stroke-miterlimit="10"
       fill="#ffffff"
       fill-rule="evenodd"
       id="path46" />
    <text
       font-family="'Segoe UI', 'Segoe UI_MSFontService', sans-serif"
       font-weight="400"
       font-size="40px"
       transform="translate(757.063,799)"
       id="text48">Trade across companies</text>
    <path
       d="m 731.5,872.1 c 0,-6.406 5.194,-11.6 11.6,-11.6 h 446.8 c 6.41,0 11.6,5.194 11.6,11.6 v 92.8 c 0,6.407 -5.19,11.6 -11.6,11.6 H 743.1 c -6.406,0 -11.6,-5.193 -11.6,-11.6 z"
       stroke="#000000"
       stroke-width="1.13333"
       stroke-linejoin="round"
       stroke-miterlimit="10"
       fill="#ffffff"
       fill-rule="evenodd"
       id="path50" />
    <text
       font-family="'Segoe UI', 'Segoe UI_MSFontService', sans-serif"
       font-weight="400"
       font-size="40px"
       transform="translate(758.459,932)"
       id="text52">Issue customer invoices</text>
    <path
       d="m 731.5,1006.1 c 0,-6.406 5.194,-11.6 11.6,-11.6 h 446.8 c 6.41,0 11.6,5.194 11.6,11.6 v 92.8 c 0,6.41 -5.19,11.6 -11.6,11.6 H 743.1 c -6.406,0 -11.6,-5.19 -11.6,-11.6 z"
       stroke="#000000"
       stroke-width="1.13333"
       stroke-linejoin="round"
       stroke-miterlimit="10"
       fill="#ffffff"
       fill-rule="evenodd"
       id="path54" />
    <text
       font-family="'Segoe UI', 'Segoe UI_MSFontService', sans-serif"
       font-weight="400"
       font-size="40px"
       transform="translate(817.099,1042)"
       id="text56">Record customer</text>
    <text
       font-family="'Segoe UI', 'Segoe UI_MSFontService', sans-serif"
       font-weight="400"
       font-size="40px"
       transform="translate(880.279,1090)"
       id="text58">payments</text>
    <path
       d="m 731.5,1140 c 0,-6.35 5.149,-11.5 11.5,-11.5 h 447 c 6.35,0 11.5,5.15 11.5,11.5 v 92 c 0,6.35 -5.15,11.5 -11.5,11.5 H 743 c -6.351,0 -11.5,-5.15 -11.5,-11.5 z"
       stroke="#000000"
       stroke-width="1.13333"
       stroke-linejoin="round"
       stroke-miterlimit="10"
       fill="#ffffff"
       fill-rule="evenodd"
       id="path60" />
    <text
       font-family="'Segoe UI', 'Segoe UI_MSFontService', sans-serif"
       font-weight="400"
       font-size="40px"
       transform="translate(751.989,1176)"
       id="text62">Monitor customer credit</text>
    <text
       font-family="'Segoe UI', 'Segoe UI_MSFontService', sans-serif"
       font-weight="400"
       font-size="40px"
       transform="translate(833.649,1224)"
       id="text64">and collections</text>
    <path
       d="m 731.5,1273.1 c 0,-6.41 5.194,-11.6 11.6,-11.6 h 446.8 c 6.41,0 11.6,5.19 11.6,11.6 v 92.8 c 0,6.41 -5.19,11.6 -11.6,11.6 H 743.1 c -6.406,0 -11.6,-5.19 -11.6,-11.6 z"
       stroke="#000000"
       stroke-width="1.13333"
       stroke-linejoin="round"
       stroke-miterlimit="10"
       fill="#ffffff"
       fill-rule="evenodd"
       id="path66" />
    <text
       font-family="'Segoe UI', 'Segoe UI_MSFontService', sans-serif"
       font-weight="400"
       font-size="40px"
       transform="translate(812.109,1309)"
       id="text68">Process customer</text>
    <text
       font-family="'Segoe UI', 'Segoe UI_MSFontService', sans-serif"
       font-weight="400"
       font-size="40px"
       transform="translate(901.503,1357)"
       id="text70">rebates</text>
    <path
       d="M 1303,93.7004 C 1303,61.2811 1329.28,35 1361.7,35 h 469.6 c 32.42,0 58.7,26.2811 58.7,58.7004 V 1389.3 c 0,32.42 -26.28,58.7 -58.7,58.7 h -469.6 c -32.42,0 -58.7,-26.28 -58.7,-58.7 z"
       fill="#cbcbcb"
       fill-rule="evenodd"
       id="path72" />
    <text
       font-family="'Segoe UI', 'Segoe UI_MSFontService', sans-serif"
       font-weight="400"
       font-size="87px"
       transform="translate(1355.72,225)"
       id="text74">Downstream</text>
    <text
       font-family="'Segoe UI', 'Segoe UI_MSFontService', sans-serif"
       font-weight="400"
       font-size="87px"
       transform="translate(1411.08,329)"
       id="text76">processes</text>
    <path
       d="m 1362.5,472 c 0,-6.351 5.15,-11.5 11.5,-11.5 h 447 c 6.35,0 11.5,5.149 11.5,11.5 v 92 c 0,6.351 -5.15,11.5 -11.5,11.5 h -447 c -6.35,0 -11.5,-5.149 -11.5,-11.5 z"
       stroke="#000000"
       stroke-width="1.13333"
       stroke-linejoin="round"
       stroke-miterlimit="10"
       fill="#ffffff"
       fill-rule="evenodd"
       id="path78" />
    <text
       font-family="'Segoe UI', 'Segoe UI_MSFontService', sans-serif"
       font-weight="400"
       font-size="40px"
       transform="translate(1437.95,532)"
       id="text80">Case to resolution</text>
    <path
       d="m 1362.5,605.1 c 0,-6.406 5.19,-11.6 11.6,-11.6 h 446.8 c 6.41,0 11.6,5.194 11.6,11.6 v 92.8 c 0,6.407 -5.19,11.6 -11.6,11.6 h -446.8 c -6.41,0 -11.6,-5.193 -11.6,-11.6 z"
       stroke="#000000"
       stroke-width="1.13333"
       stroke-linejoin="round"
       stroke-miterlimit="10"
       fill="#ffffff"
       fill-rule="evenodd"
       id="path82" />
    <text
       font-family="'Segoe UI', 'Segoe UI_MSFontService', sans-serif"
       font-weight="400"
       font-size="40px"
       transform="translate(1456.22,665)"
       id="text84">Forecast to plan</text>
    <path
       d="m 1362.5,739.1 c 0,-6.406 5.19,-11.6 11.6,-11.6 h 446.8 c 6.41,0 11.6,5.194 11.6,11.6 v 92.8 c 0,6.407 -5.19,11.6 -11.6,11.6 h -446.8 c -6.41,0 -11.6,-5.193 -11.6,-11.6 z"
       stroke="#000000"
       stroke-width="1.13333"
       stroke-linejoin="round"
       stroke-miterlimit="10"
       fill="#ffffff"
       fill-rule="evenodd"
       id="path86" />
    <text
       font-family="'Segoe UI', 'Segoe UI_MSFontService', sans-serif"
       font-weight="400"
       font-size="40px"
       transform="translate(1425.18,799)"
       id="text88">Inventory to deliver</text>
    <path
       d="m 1362.5,872.1 c 0,-6.406 5.19,-11.6 11.6,-11.6 h 446.8 c 6.41,0 11.6,5.194 11.6,11.6 v 92.8 c 0,6.407 -5.19,11.6 -11.6,11.6 h -446.8 c -6.41,0 -11.6,-5.193 -11.6,-11.6 z"
       stroke="#000000"
       stroke-width="1.13333"
       stroke-linejoin="round"
       stroke-miterlimit="10"
       fill="#ffffff"
       fill-rule="evenodd"
       id="path90" />
    <text
       font-family="'Segoe UI', 'Segoe UI_MSFontService', sans-serif"
       font-weight="400"
       font-size="40px"
       transform="translate(1457.13,932)"
       id="text92">Plan to produce</text>
    <path
       d="m 1362.5,1006.1 c 0,-6.406 5.19,-11.6 11.6,-11.6 h 446.8 c 6.41,0 11.6,5.194 11.6,11.6 v 92.8 c 0,6.41 -5.19,11.6 -11.6,11.6 h -446.8 c -6.41,0 -11.6,-5.19 -11.6,-11.6 z"
       stroke="#000000"
       stroke-width="1.13333"
       stroke-linejoin="round"
       stroke-miterlimit="10"
       fill="#ffffff"
       fill-rule="evenodd"
       id="path94" />
    <text
       font-family="'Segoe UI', 'Segoe UI_MSFontService', sans-serif"
       font-weight="400"
       font-size="40px"
       transform="translate(1468.97,1066)"
       id="text96">Procure to pay</text>
    <path
       d="m 1362.5,1140 c 0,-6.35 5.15,-11.5 11.5,-11.5 h 447 c 6.35,0 11.5,5.15 11.5,11.5 v 92 c 0,6.35 -5.15,11.5 -11.5,11.5 h -447 c -6.35,0 -11.5,-5.15 -11.5,-11.5 z"
       stroke="#000000"
       stroke-width="1.13333"
       stroke-linejoin="round"
       stroke-miterlimit="10"
       fill="#ffffff"
       fill-rule="evenodd"
       id="path98" />
    <text
       font-family="'Segoe UI', 'Segoe UI_MSFontService', sans-serif"
       font-weight="400"
       font-size="40px"
       transform="translate(1423.16,1176)"
       id="text100">Product and service</text>
    <text
       font-family="'Segoe UI', 'Segoe UI_MSFontService', sans-serif"
       font-weight="400"
       font-size="40px"
       transform="translate(1404.77,1224)"
       id="text102">lifecycle management</text>
    <path
       d="m 1362.5,1273.1 c 0,-6.41 5.19,-11.6 11.6,-11.6 h 446.8 c 6.41,0 11.6,5.19 11.6,11.6 v 92.8 c 0,6.41 -5.19,11.6 -11.6,11.6 h -446.8 c -6.41,0 -11.6,-5.19 -11.6,-11.6 z"
       stroke="#000000"
       stroke-width="1.13333"
       stroke-linejoin="round"
       stroke-miterlimit="10"
       fill="#ffffff"
       fill-rule="evenodd"
       id="path104" />
    <text
       font-family="'Segoe UI', 'Segoe UI_MSFontService', sans-serif"
       font-weight="400"
       font-size="40px"
       transform="translate(1451.41,1333)"
       id="text106">Record to report</text>
  </g>
</svg>
