<?xml version="1.0"?>
<svg xmlns="http://www.w3.org/2000/svg" xmlns:xlink="http://www.w3.org/1999/xlink" xmlns:ev="http://www.w3.org/2001/xml-events"    viewBox="4 36 770 667"    xml:space="preserve" color-interpolation-filters="sRGB" class="st17" width="1925" height="1668">
<rect x="0" y="0" width="1925" height="1668" fill="#ffffff" />
	<style type="text/css"><![CDATA[
		.st1 {fill:#f2f2f2;stroke:#0078d4;stroke-linecap:round;stroke-linejoin:round;stroke-width:0.75}
		.st2 {fill:#ffffff;stroke:#0078d4;stroke-linecap:round;stroke-linejoin:round;stroke-width:0.24}
		.st3 {fill:#000000;font-family:Calibri;font-size:1.00001em}
		.st4 {fill:#a0a0a0;stroke:none;stroke-linecap:round;stroke-linejoin:round;stroke-width:0.24}
		.st5 {font-size:1em}
		.st6 {fill:#ffffff}
		.st7 {stroke:#0078d4;stroke-linecap:round;stroke-linejoin:round;stroke-width:0.24}
		.st8 {stroke:#0078d4;stroke-linecap:round;stroke-linejoin:round;stroke-width:1}
		.st9 {fill:#0078d4;stroke:none;stroke-linecap:round;stroke-linejoin:round;stroke-width:0.24}
		.st10 {fill:#ffffff;font-family:Calibri;font-size:1.00001em}
		.st11 {marker-end:url(#mrkr13-111);stroke:#0078d4;stroke-linecap:round;stroke-linejoin:round;stroke-width:0.75}
		.st12 {fill:#0078d4;fill-opacity:1;stroke:#0078d4;stroke-opacity:1;stroke-width:0.22935779816514}
		.st13 {fill:#ffffff;stroke:none;stroke-linecap:butt;stroke-width:7.2}
		.st14 {fill:#000000;font-family:Calibri;font-size:0.666664em}
		.st15 {fill:none;stroke:none;stroke-linecap:round;stroke-linejoin:round;stroke-width:0.75}
		.st16 {fill:#0078d4;font-family:Calibri;font-size:1.16666em;font-weight:bold}
		.st17 {fill:none;fill-rule:evenodd;font-size:12px;overflow:visible;stroke-linecap:square;stroke-miterlimit:3}
	]]></style><style> a { pointer-events: none; } </style><style>a.rules_svg_anchor g:hover { opacity:0.8; cursor:pointer; }</style>
	<defs id="Markers">
		<g id="lend13">
			<path d="M 3 1 L 0 0 L 3 -1 L 3 1 " style="stroke:none" />
		</g>
		<marker id="mrkr13-111" class="st12" refX="-13.08" orient="auto" markerUnits="strokeWidth" overflow="visible">
			<use xlink:href="#lend13" transform="scale(-4.36,-4.36) " />
		</marker>
	</defs>
	<g>
		
		<g id="shape49-1" transform="translate(378,-486)">
			
			<rect x="0" y="522" width="396" height="666" class="st1" />
		</g>
		<g id="shape1-3" transform="translate(41.625,-1116)">
			
			<desc>Start</desc>
			<path d="M18 1188 L60.75 1188 A18 18 -180 0 0 60.75 1152 L18 1152 A18 18 -180 1 0 18 1188 Z" class="st2" />
			<text x="27.63" y="1173.6" class="st3">Start</text>
		</g>
		<a id="3cfd3546-44b7-4692-b87b-6aaac5b20d29" class="rules_svg_anchor rules_svg_shape"   href="/lms/chart?onclick=b3BlbkNoYXJ0Q29udGV4dE1lbnUoZXZlbnQsJ3cxMTZkNTIzNTk2NWMxNzE1NXY0MDcxJywxODI4MSwgMSwgMSwgdGhpcywgd2luZG93LmZyYW1lRWxlbWVudCk=&amp;navigate=true&amp;details=Description">
			<g id="shape2-6" transform="translate(41.625,-1026)">
				
				<desc>65 Order to cash</desc>
				<rect x="0" y="1125" width="78.75" height="63" class="st4" />
				<text x="11.11" y="1152.9" class="st3">65 Order to <tspan x="28.46" dy="1.2em" class="st5">cash</tspan>
				</text>
			</g>
		</a>
		<a id="be5fe603-b86a-4d85-83f6-8a0beef17da7" class="rules_svg_anchor rules_svg_shape"   href="/lms/chart?onclick=b3BlbkNoYXJ0Q29udGV4dE1lbnUoZXZlbnQsJ3cxMTZkNTIzNTk2NWMxNzM3NnY0MDcxJywxODQ1NSwgMSwgMSwgdGhpcywgd2luZG93LmZyYW1lRWxlbWVudCk=&amp;navigate=true&amp;details=Description">
			<g id="shape3-10" transform="translate(41.625,-936)">
				
				<desc>85 Prospect to quote</desc>
				<rect x="0" y="1125" width="78.75" height="63" class="st4" />
				<text x="4.02" y="1152.9" class="st3">85 Prospect to <tspan x="24.91" dy="1.2em" class="st5">quote</tspan>
				</text>
			</g>
		</a>
		<a id="68da42c1-d1cb-4e7a-a2f0-1fdb96e7ffa0" class="rules_svg_anchor rules_svg_shape"   href="/lms/chart?onclick=b25DaGFydFNoYXBlQ2xpY2soZXZlbnQsJ3cxMTZkNTIzNTk2NWMxNzM4NHY0MDcxJywnLTEnKQ==&amp;navigate=true&amp;details=Description">
			<g id="shape4-14" transform="translate(138.375,-936)">
				
				<desc>85.20.030 Create and manage prospects and customers</desc>
				<path d="M0 1188 L99 1188 L99 1125 L0 1125 L0 1188 Z" class="st6" />
				<path d="M0 1188 L99 1188 L99 1125 L0 1125 L0 1188" class="st7" />
				<path d="M9 1188 L9 1125" class="st7" />
				<path d="M90 1188 L90 1125" class="st7" />
				<text x="25.18" y="1131.3" class="st3">85.20.030 <tspan x="22.82" dy="1.2em" class="st5">Create and </tspan>
					<tspan x="30" dy="1.2em" class="st5">manage </tspan>
					<tspan x="15.18" dy="1.2em" class="st5">prospects and </tspan>
					<tspan x="24.07" dy="1.2em" class="st5">customers</tspan>
				</text>
			</g>
		</a>
		<a id="5615f219-2e57-4fba-af4c-b8a4dc255996" class="rules_svg_anchor rules_svg_shape"   href="/lms/chart?onclick=b25DaGFydFNoYXBlQ2xpY2soZXZlbnQsJ3cxMTZkNTIzNTk2NWMxNzQxMXY0MDcxJywnLTEnKQ==&amp;navigate=true&amp;details=Description">
			<g id="shape5-24" transform="translate(264.375,-936)">
				
				<desc>85.60.050 Negotiate and finalize quotations</desc>
				<path d="M0 1188 L99 1188 L99 1125 L0 1125 L0 1188 Z" class="st6" />
				<path d="M0 1188 L99 1188 L99 1125 L0 1125 L0 1188" class="st7" />
				<path d="M9 1188 L9 1125" class="st7" />
				<path d="M90 1188 L90 1125" class="st7" />
				<text x="25.18" y="1138.5" class="st3">85.60.050 <tspan x="14.86" dy="1.2em" class="st5">Negotiate and </tspan>
					<tspan x="32.16" dy="1.2em" class="st5">finalize </tspan>
					<tspan x="23.1" dy="1.2em" class="st5">quotations</tspan>
				</text>
			</g>
		</a>
		<a id="aef96e3f-46b4-44d0-97b1-ab58120dc59b" class="rules_svg_anchor rules_svg_shape"   href="/lms/chart?onclick=b3BlbkNoYXJ0Q29udGV4dE1lbnUoZXZlbnQsJ3cxMTZkNTIzNTk2NWMxNzE5NXY0MDcxJywxODMxNSwgMSwgMSwgdGhpcywgd2luZG93LmZyYW1lRWxlbWVudCk=&amp;navigate=true&amp;details=Description">
			<g id="shape6-33" transform="translate(399.375,-936)">
				
				<desc>65.50.010 Assess customer credit risk</desc>
				<path d="M0 1188 L99 1188 L99 1125 L0 1125 L0 1188 Z" class="st6" />
				<path d="M0 1188 L99 1188 L99 1125 L0 1125 L0 1188" class="st8" />
				<path d="M9 1188 L9 1125" class="st8" />
				<path d="M90 1188 L90 1125" class="st8" />
				<text x="25.18" y="1138.5" class="st3">65.50.010 <tspan x="33.66" dy="1.2em" class="st5">Assess </tspan>
					<tspan x="26.42" dy="1.2em" class="st5">customer </tspan>
					<tspan x="25.45" dy="1.2em" class="st5">credit risk</tspan>
				</text>
			</g>
		</a>
		<a id="82671930-e5e5-456a-8f73-7c9a63e43569" class="rules_svg_anchor rules_svg_shape"   href="/lms/chart?onclick=b3BlbkNoYXJ0Q29udGV4dE1lbnUoZXZlbnQsJ3cxMTZkNTIzNTk2NWMxNzIyMnY0MDcxJywxODMxNiwgMSwgMSwgdGhpcywgd2luZG93LmZyYW1lRWxlbWVudCk=&amp;navigate=true&amp;details=Description">
			<g id="shape8-42" transform="translate(399.375,-846)">
				
				<desc>65.50.050 Manage customer account holds</desc>
				<path d="M0 1188 L99 1188 L99 1125 L0 1125 L0 1188 Z" class="st6" />
				<path d="M0 1188 L99 1188 L99 1125 L0 1125 L0 1188" class="st7" />
				<path d="M9 1188 L9 1125" class="st7" />
				<path d="M90 1188 L90 1125" class="st7" />
				<text x="25.18" y="1138.5" class="st3">65.50.050 <tspan x="29.66" dy="1.2em" class="st5">Manage </tspan>
					<tspan x="26.42" dy="1.2em" class="st5">customer </tspan>
					<tspan x="15.52" dy="1.2em" class="st5">account holds</tspan>
				</text>
			</g>
		</a>
		<a id="3ca9c9d4-8cd9-4655-b0f8-3425d2c2ff11" class="rules_svg_anchor rules_svg_shape"   href="/lms/chart?onclick=b3BlbkNoYXJ0Q29udGV4dE1lbnUoZXZlbnQsJ3cxMTZkNTIzNTk2NWMxNzE2NnY0MDcxJywxODI5MiwgMSwgMSwgdGhpcywgd2luZG93LmZyYW1lRWxlbWVudCk=&amp;navigate=true&amp;details=Description">
			<g id="shape9-51" transform="translate(138.375,-846)">
				
				<desc>65.20 Manage sales orders</desc>
				<path d="M0 1188 L99 1188 L99 1125 L0 1125 L0 1188 Z" class="st6" />
				<path d="M0 1188 L99 1188 L99 1125 L0 1125 L0 1188" class="st7" />
				<path d="M9 1188 L9 1125" class="st7" />
				<path d="M90 1188 L90 1125" class="st7" />
				<text x="14.62" y="1152.9" class="st3">65.20 Manage <tspan x="20.38" dy="1.2em" class="st5">sales orders</tspan>
				</text>
			</g>
		</a>
		<a id="738fe511-5c3a-4637-a08a-881b1ca17a04" class="rules_svg_anchor rules_svg_shape"   href="/lms/chart?onclick=b3BlbkNoYXJ0Q29udGV4dE1lbnUoZXZlbnQsJ3cxMTZkNTIzNTk2NWMxNzE3NHY0MDcxJywxODMwMiwgMSwgMSwgdGhpcywgd2luZG93LmZyYW1lRWxlbWVudCk=&amp;navigate=true&amp;details=Description">
			<g id="shape11-58" transform="translate(138.375,-747)">
				
				<desc>65.30 Manage accounts receivable</desc>
				<path d="M0 1188 L99 1188 L99 1125 L0 1125 L0 1188 Z" class="st6" />
				<path d="M0 1188 L99 1188 L99 1125 L0 1125 L0 1188" class="st7" />
				<path d="M9 1188 L9 1125" class="st7" />
				<path d="M90 1188 L90 1125" class="st7" />
				<text x="14.62" y="1145.7" class="st3">65.30 Manage <tspan x="27.73" dy="1.2em" class="st5">accounts </tspan>
					<tspan x="24.42" dy="1.2em" class="st5">receivable</tspan>
				</text>
			</g>
		</a>
		<g id="shape12-66" transform="translate(264.375,-747)">
			
			<desc>Is invoice disputed?</desc>
			<path d="M0 1156.5 L49.5 1125 L99 1156.5 L49.5 1188 L0 1156.5 Z" class="st9" />
			<text x="26.98" y="1152.9" class="st10">Is invoice <tspan x="25.39" dy="1.2em" class="st5">disputed?</tspan>
			</text>
		</g>
		<g id="shape14-70" transform="translate(264.375,-846)">
			
			<desc>Is order fraudulent</desc>
			<path d="M0 1156.5 L49.5 1125 L99 1156.5 L49.5 1188 L0 1156.5 Z" class="st9" />
			<text x="30.8" y="1152.9" class="st10">Is order <tspan x="23.72" dy="1.2em" class="st5">fraudulent</tspan>
			</text>
		</g>
		<a id="2da06507-ba49-4332-85a1-446ea3fa632d" class="rules_svg_anchor rules_svg_shape"   href="/lms/chart?onclick=b3BlbkNoYXJ0Q29udGV4dE1lbnUoZXZlbnQsJ3cxMTZkNTIzNTk2NWMxNzIyNXY0MDcxJywxODMxOSwgMSwgMSwgdGhpcywgd2luZG93LmZyYW1lRWxlbWVudCk=&amp;navigate=true&amp;details=Description">
			<g id="shape15-74" transform="translate(399.375,-747)">
				
				<desc>65.50.080 Manage customer</desc>
				<path d="M0 1188 L99 1188 L99 1125 L0 1125 L0 1188 Z" class="st6" />
				<path d="M0 1188 L99 1188 L99 1125 L0 1125 L0 1188" class="st7" />
				<path d="M9 1188 L9 1125" class="st7" />
				<path d="M90 1188 L90 1125" class="st7" />
				<text x="25.18" y="1145.7" class="st3">65.50.080 <tspan x="29.66" dy="1.2em" class="st5">Manage </tspan>
					<tspan x="26.42" dy="1.2em" class="st5">customer</tspan>
				</text>
			</g>
		</a>
		<g id="shape19-82" transform="translate(661.5,-504)">
			
			<desc>End</desc>
			<path d="M18 1188 L60.75 1188 A18 18 -180 0 0 60.75 1152 L18 1152 A18 18 -180 1 0 18 1188 Z" class="st2" />
			<text x="30.14" y="1173.6" class="st3">End</text>
		</g>
		<a id="2fd835a2-8319-40cb-9cc9-7a1d71e6828b" class="rules_svg_anchor rules_svg_shape"   href="/lms/chart?onclick=b3BlbkNoYXJ0Q29udGV4dE1lbnUoZXZlbnQsJ3cxMTZkNTIzNTk2NWMxNzIyM3Y0MDcxJywxODMxNywgMSwgMSwgdGhpcywgd2luZG93LmZyYW1lRWxlbWVudCk=&amp;navigate=true&amp;details=Description">
			<g id="shape20-85" transform="translate(400.5,-652.5)">
				
				<desc>65.50.060 Monitor customer credit</desc>
				<path d="M0 1188 L99 1188 L99 1125 L0 1125 L0 1188 Z" class="st6" />
				<path d="M0 1188 L99 1188 L99 1125 L0 1125 L0 1188" class="st7" />
				<path d="M9 1188 L9 1125" class="st7" />
				<path d="M90 1188 L90 1125" class="st7" />
				<text x="25.18" y="1138.5" class="st3">65.50.060 <tspan x="29.41" dy="1.2em" class="st5">Monitor </tspan>
					<tspan x="26.42" dy="1.2em" class="st5">customer </tspan>
					<tspan x="35.35" dy="1.2em" class="st5">credit</tspan>
				</text>
			</g>
		</a>
		<a id="f5f35fa2-90e6-4976-9f67-a193ea75c5f5" class="rules_svg_anchor rules_svg_shape"   href="/lms/chart?onclick=b3BlbkNoYXJ0Q29udGV4dE1lbnUoZXZlbnQsJ3cxMTZkNTIzNTk2NWMxNzIyNHY0MDcxJywxODMxOCwgMSwgMSwgdGhpcywgd2luZG93LmZyYW1lRWxlbWVudCk=&amp;navigate=true&amp;details=Description">
			<g id="shape21-94" transform="translate(526.5,-652.5)">
				
				<desc>65.50.070 Collect interest</desc>
				<path d="M0 1188 L99 1188 L99 1125 L0 1125 L0 1188 Z" class="st6" />
				<path d="M0 1188 L99 1188 L99 1125 L0 1125 L0 1188" class="st7" />
				<path d="M9 1188 L9 1125" class="st7" />
				<path d="M90 1188 L90 1125" class="st7" />
				<text x="25.18" y="1152.9" class="st3">65.50.070 <tspan x="12.54" dy="1.2em" class="st5">Collect interest</tspan>
				</text>
			</g>
		</a>
		<a id="58633eca-c85f-486e-ba68-a53858cf0fb4" class="rules_svg_anchor rules_svg_shape"   href="/lms/chart?onclick=b3BlbkNoYXJ0Q29udGV4dE1lbnUoZXZlbnQsJ3cxMTZkNTIzNTk2NWMxNzE5NHY0MDcxJywxODMxNCwgMSwgMSwgdGhpcywgd2luZG93LmZyYW1lRWxlbWVudCk=&amp;navigate=true&amp;details=Description">
			<g id="shape22-101" transform="translate(399.375,-1026)">
				
				<desc>65.50 Manage credit and collections</desc>
				<rect x="0" y="1125" width="99" height="63" class="st9" />
				<text x="14.62" y="1145.7" class="st10">65.50 Manage <tspan x="24.81" dy="1.2em" class="st5">credit and </tspan>
					<tspan x="23.47" dy="1.2em" class="st5">collections</tspan>
				</text>
			</g>
		</a>
		<g id="shape23-106" transform="translate(72,-1116)">
			
			<path d="M9 1188 L9 1205.19" class="st11" />
		</g>
		<g id="shape24-112" transform="translate(120.375,-958.5)">
			
			<path d="M0 1179 L8.19 1179" class="st11" />
		</g>
		<g id="shape25-117" transform="translate(237.375,-958.5)">
			
			<path d="M0 1179 L17.19 1179" class="st11" />
		</g>
		<g id="shape26-122" transform="translate(363.375,-958.5)">
			
			<path d="M0 1179 L26.19 1179" class="st11" />
		</g>
		<g id="shape27-127" transform="translate(498.375,-967.5)">
			
			<path d="M0 1188 L202.5 1188 L202.5 1605.69" class="st11" />
		</g>
		<g id="shape29-132" transform="translate(120.375,-1048.5)">
			
			<path d="M0 1179 L269.19 1179" class="st11" />
		</g>
		<g id="shape31-137" transform="translate(498.375,-877.5)">
			
			<path d="M0 1188 L202.5 1188 L202.5 1515.69" class="st11" />
		</g>
		<g id="shape33-142" transform="translate(41.625,-1057.5)">
			
			<path d="M0 1188 L-17.66 1188 L-17.66 1467 L86.94 1467" class="st11" />
		</g>
		<g id="shape34-147" transform="translate(41.625,-1057.5)">
			
			<path d="M0 1188 L-17.66 1188 L-17.66 1368 L86.94 1368" class="st11" />
		</g>
		<g id="shape35-152" transform="translate(237.375,-868.5)">
			
			<path d="M0 1179 L17.19 1179" class="st11" />
		</g>
		<g id="shape36-157" transform="translate(363.375,-868.5)">
			
			<desc>Yes</desc>
			<path d="M0 1179 L26.19 1179" class="st11" />
			<rect x="12.4962" y="1174.2" width="11.0078" height="9.59985" class="st13" />
			<text x="12.5" y="1181.4" class="st14">Yes</text>
		</g>
		<g id="shape39-164" transform="translate(237.375,-769.5)">
			
			<path d="M0 1179 L17.19 1179" class="st11" />
		</g>
		<g id="shape40-169" transform="translate(363.375,-769.5)">
			
			<desc>Yes</desc>
			<path d="M0 1179 L26.19 1179" class="st11" />
			<rect x="12.4962" y="1174.2" width="11.0078" height="9.59985" class="st13" />
			<text x="12.5" y="1181.4" class="st14">Yes</text>
		</g>
		<g id="shape42-176" transform="translate(499.5,-693)">
			
			<path d="M0 1197 L17.19 1197" class="st11" />
		</g>
		<g id="shape43-181" transform="translate(576,-652.5)">
			
			<path d="M0 1188 L0 1282.5 L124.87 1282.5 L124.87 1290.69" class="st11" />
		</g>
		<g id="shape45-186" transform="translate(498.375,-778.5)">
			
			<path d="M0 1188 L202.5 1188 L202.5 1416.69" class="st11" />
		</g>
		<g id="shape48-191" transform="translate(498.375,-877.5)">
			
			<path d="M0 1188 L202.5 1188 L202.5 1515.69" class="st11" />
		</g>
		<g id="shape50-196" transform="translate(382.5,-1116)">
			
			<desc>Business process area</desc>
			<rect x="0" y="1152" width="189" height="36" class="st15" />
			<text x="4" y="1174.2" class="st16">Business process area</text>
		</g>
	</g>
</svg>
