<?xml version="1.0" encoding="UTF-8" standalone="no"?>
<svg
   width="1447.5271"
   height="1528.5886"
   overflow="hidden"
   version="1.1"
   id="svg530"
   sodipodi:docname="plan-to-produce-plan-production-flow.svg"
   inkscape:version="1.2.2 (732a01da63, 2022-12-09)"
   xmlns:inkscape="http://www.inkscape.org/namespaces/inkscape"
   xmlns:sodipodi="http://sodipodi.sourceforge.net/DTD/sodipodi-0.dtd"
   xmlns="http://www.w3.org/2000/svg"
   xmlns:svg="http://www.w3.org/2000/svg">
  <defs
     id="defs534" />
  <sodipodi:namedview
     id="namedview532"
     pagecolor="#ffffff"
     bordercolor="#000000"
     borderopacity="0.25"
     inkscape:showpageshadow="2"
     inkscape:pageopacity="0.0"
     inkscape:pagecheckerboard="0"
     inkscape:deskcolor="#d1d1d1"
     showgrid="false"
     inkscape:zoom="0.43177083"
     inkscape:cx="640.38601"
     inkscape:cy="434.25814"
     inkscape:window-width="1920"
     inkscape:window-height="1010"
     inkscape:window-x="-6"
     inkscape:window-y="-6"
     inkscape:window-maximized="1"
     inkscape:current-layer="svg530" />
  <g
     id="g528"
     transform="translate(-319.61398,-157.49095)">
    <rect
       x="319.61398"
       y="157.49095"
       width="1447.5271"
       height="1528.5886"
       fill="#ffffff"
       id="rect376"
       style="stroke-width:0.774742" />
    <rect
       x="878"
       y="358"
       width="535"
       height="1319"
       stroke="#0078d4"
       stroke-width="2"
       stroke-linejoin="round"
       stroke-miterlimit="10"
       fill="#d9d9d9"
       id="rect378" />
    <text
       fill="#0078d4"
       font-family="'Segoe UI', 'Segoe UI_MSFontService', sans-serif"
       font-weight="700"
       font-size="37px"
       transform="translate(906.428,1645)"
       id="text380">Business process area</text>
    <path
       d="m 326,243 c 0,-19.882 16.118,-36 36,-36 h 139 c 19.882,0 36,16.118 36,36 v 0 c 0,19.882 -16.118,36 -36,36 H 362 c -19.882,0 -36,-16.118 -36,-36 z"
       stroke="#0078d4"
       stroke-width="2"
       stroke-linejoin="round"
       stroke-miterlimit="10"
       fill="#ffffff"
       fill-rule="evenodd"
       id="path382" />
    <text
       font-family="'Segoe UI', 'Segoe UI_MSFontService', sans-serif"
       font-weight="400"
       font-size="24px"
       transform="translate(406.912,252)"
       id="text384">Start</text>
    <rect
       x="594"
       y="166"
       width="253"
       height="154"
       stroke="#000000"
       stroke-width="2"
       stroke-linejoin="round"
       stroke-miterlimit="10"
       fill="#a0a0a0"
       id="rect386" />
    <text
       font-family="'Segoe UI', 'Segoe UI_MSFontService', sans-serif"
       font-weight="400"
       font-size="24px"
       transform="translate(636.369,252)"
       id="text388">Forecast to plan</text>
    <rect
       x="1012"
       y="471"
       width="252"
       height="153"
       stroke="#00569b"
       stroke-width="2"
       stroke-linejoin="round"
       stroke-miterlimit="10"
       fill="#0078d4"
       id="rect390" />
    <text
       fill="#ffffff"
       font-family="'Segoe UI', 'Segoe UI_MSFontService', sans-serif"
       font-weight="400"
       font-size="24px"
       transform="translate(1053.88,542)"
       id="text392">Plan production</text>
    <text
       fill="#ffffff"
       font-family="'Segoe UI', 'Segoe UI_MSFontService', sans-serif"
       font-weight="400"
       font-size="24px"
       transform="translate(1081.47,571)"
       id="text394">operations</text>
    <rect
       x="1012"
       y="664"
       width="252"
       height="154"
       fill="#ffffff"
       id="rect396" />
    <path
       d="m 1043.5,664 v 154 m 189,-154 v 154"
       stroke="#0078d4"
       stroke-width="2"
       stroke-linejoin="round"
       stroke-miterlimit="10"
       fill="none"
       fill-rule="evenodd"
       id="path398" />
    <rect
       x="1012"
       y="664"
       width="252"
       height="154"
       stroke="#0078d4"
       stroke-width="2"
       stroke-linejoin="round"
       stroke-miterlimit="10"
       fill="none"
       id="rect400" />
    <text
       font-family="'Segoe UI', 'Segoe UI_MSFontService', sans-serif"
       font-weight="400"
       font-size="24px"
       transform="translate(1100.12,721)"
       id="text402">Modify</text>
    <text
       font-family="'Segoe UI', 'Segoe UI_MSFontService', sans-serif"
       font-weight="400"
       font-size="24px"
       transform="translate(1079.39,750)"
       id="text404">production</text>
    <text
       font-family="'Segoe UI', 'Segoe UI_MSFontService', sans-serif"
       font-weight="400"
       font-size="24px"
       transform="translate(1114.81,779)"
       id="text406">plan</text>
    <path
       d="m 1032,1472.5 c 0,-20.16 16.34,-36.5 36.5,-36.5 h 138 c 20.16,0 36.5,16.34 36.5,36.5 v 0 c 0,20.16 -16.34,36.5 -36.5,36.5 h -138 c -20.16,0 -36.5,-16.34 -36.5,-36.5 z"
       stroke="#0078d4"
       stroke-width="2"
       stroke-linejoin="round"
       stroke-miterlimit="10"
       fill="#ffffff"
       fill-rule="evenodd"
       id="path408" />
    <text
       font-family="'Segoe UI', 'Segoe UI_MSFontService', sans-serif"
       font-weight="400"
       font-size="24px"
       transform="translate(1117.73,1481)"
       id="text410">End</text>
    <path
       d="m 1140,320.5 v 143.968 h -3 V 320.5 Z m 3,142.468 -4.5,9 -4.5,-9 z"
       fill="#0078d4"
       id="path412" />
    <path
       d="m 847.5,242 h 157.29 v 3 H 847.5 Z m 155.79,-3 9,4.5 -9,4.5 z"
       fill="#0078d4"
       id="path414" />
    <path
       d="m 1140,624.5 v 32.484 h -3 V 624.5 Z m 3,30.984 -4.5,9 -4.5,-9 z"
       fill="#0078d4"
       id="path416" />
    <rect
       x="1012"
       y="166"
       width="252"
       height="154"
       stroke="#0078d4"
       stroke-width="2"
       stroke-linejoin="round"
       stroke-miterlimit="10"
       fill="#0078d4"
       id="rect418" />
    <text
       fill="#ffffff"
       font-family="'Segoe UI', 'Segoe UI_MSFontService', sans-serif"
       font-weight="400"
       font-size="24px"
       transform="translate(1054.22,237)"
       id="text420">Plan supply and</text>
    <text
       fill="#ffffff"
       font-family="'Segoe UI', 'Segoe UI_MSFontService', sans-serif"
       font-weight="400"
       font-size="24px"
       transform="translate(1062.46,266)"
       id="text422">replenishment</text>
    <rect
       x="1012"
       y="858"
       width="252"
       height="153"
       fill="#ffffff"
       id="rect424" />
    <path
       d="m 1043.5,858 v 153 m 189,-153 v 153"
       stroke="#0078d4"
       stroke-width="2"
       stroke-linejoin="round"
       stroke-miterlimit="10"
       fill="none"
       fill-rule="evenodd"
       id="path426" />
    <rect
       x="1012"
       y="858"
       width="252"
       height="153"
       stroke="#0078d4"
       stroke-width="2"
       stroke-linejoin="round"
       stroke-miterlimit="10"
       fill="none"
       id="rect428" />
    <text
       font-family="'Segoe UI', 'Segoe UI_MSFontService', sans-serif"
       font-weight="400"
       font-size="24px"
       transform="translate(1095.33,914)"
       id="text430">Confirm</text>
    <text
       font-family="'Segoe UI', 'Segoe UI_MSFontService', sans-serif"
       font-weight="400"
       font-size="24px"
       transform="translate(1079.39,943)"
       id="text432">production</text>
    <text
       font-family="'Segoe UI', 'Segoe UI_MSFontService', sans-serif"
       font-weight="400"
       font-size="24px"
       transform="translate(1114.81,972)"
       id="text434">plan</text>
    <path
       d="m 1140,1398.5 v 31.07 h -3 v -31.07 z m 3,29.57 -4.5,9 -4.5,-9 z"
       fill="#0078d4"
       id="path436" />
    <path
       d="m 0,-1.5 h 268.408 c 0.829,0 1.5,0.671573 1.5,1.5 v 155.174 h -3 V 0 l 1.5,1.5 H 0 Z m 272.908,155.174 -4.5,9 -4.5,-9 z"
       fill="#0078d4"
       transform="matrix(0,1,1,0,432.5,279.5)"
       id="path438" />
    <rect
       x="1012"
       y="1051"
       width="252"
       height="153"
       fill="#ffffff"
       id="rect440" />
    <path
       d="m 1043.5,1051 v 153 m 189,-153 v 153"
       stroke="#0078d4"
       stroke-width="2"
       stroke-linejoin="round"
       stroke-miterlimit="10"
       fill="none"
       fill-rule="evenodd"
       id="path442" />
    <rect
       x="1012"
       y="1051"
       width="252"
       height="153"
       stroke="#0078d4"
       stroke-width="2"
       stroke-linejoin="round"
       stroke-miterlimit="10"
       fill="none"
       id="rect444" />
    <text
       font-family="'Segoe UI', 'Segoe UI_MSFontService', sans-serif"
       font-weight="400"
       font-size="24px"
       transform="translate(1089.65,1107)"
       id="text446">Schedule</text>
    <text
       font-family="'Segoe UI', 'Segoe UI_MSFontService', sans-serif"
       font-weight="400"
       font-size="24px"
       transform="translate(1079.39,1136)"
       id="text448">production</text>
    <text
       font-family="'Segoe UI', 'Segoe UI_MSFontService', sans-serif"
       font-weight="400"
       font-size="24px"
       transform="translate(1081.23,1165)"
       id="text450">operations</text>
    <rect
       x="1012"
       y="1244"
       width="252"
       height="154"
       fill="#ffffff"
       id="rect452" />
    <path
       d="m 1043.5,1244 v 154 m 189,-154 v 154"
       stroke="#0078d4"
       stroke-width="2"
       stroke-linejoin="round"
       stroke-miterlimit="10"
       fill="none"
       fill-rule="evenodd"
       id="path454" />
    <rect
       x="1012"
       y="1244"
       width="252"
       height="154"
       stroke="#0078d4"
       stroke-width="2"
       stroke-linejoin="round"
       stroke-miterlimit="10"
       fill="none"
       id="rect456" />
    <text
       font-family="'Segoe UI', 'Segoe UI_MSFontService', sans-serif"
       font-weight="400"
       font-size="24px"
       transform="translate(1097.98,1286)"
       id="text458">Release</text>
    <text
       font-family="'Segoe UI', 'Segoe UI_MSFontService', sans-serif"
       font-weight="400"
       font-size="24px"
       transform="translate(1079.39,1315)"
       id="text460">production</text>
    <text
       font-family="'Segoe UI', 'Segoe UI_MSFontService', sans-serif"
       font-weight="400"
       font-size="24px"
       transform="translate(1077.16,1344)"
       id="text462">to the shop</text>
    <text
       font-family="'Segoe UI', 'Segoe UI_MSFontService', sans-serif"
       font-weight="400"
       font-size="24px"
       transform="translate(1112.82,1373)"
       id="text464">floor</text>
    <rect
       x="594"
       y="702"
       width="253"
       height="153"
       stroke="#0078d4"
       stroke-width="2"
       stroke-linejoin="round"
       stroke-miterlimit="10"
       fill="#0078d4"
       id="rect466" />
    <text
       fill="#ffffff"
       font-family="'Segoe UI', 'Segoe UI_MSFontService', sans-serif"
       font-weight="400"
       font-size="24px"
       transform="translate(624.776,772)"
       id="text468">Define production</text>
    <text
       fill="#ffffff"
       font-family="'Segoe UI', 'Segoe UI_MSFontService', sans-serif"
       font-weight="400"
       font-size="24px"
       transform="translate(669.629,801)"
       id="text470">strategies</text>
    <path
       d="m 1264.5,1320 h 208.32 v 3 H 1264.5 Z m 206.82,-3 9,4.5 -9,4.5 z"
       fill="#0078d4"
       id="path472" />
    <path
       d="m 846.5,777 h 82.634 c 0.828,0 1.5,0.672 1.5,1.5 v 349.3 l -1.5,-1.5 h 75.136 v 3 h -75.136 c -0.829,0 -1.5,-0.67 -1.5,-1.5 V 778.5 l 1.5,1.5 H 846.5 Z m 156.27,346.3 9,4.5 -9,4.5 z"
       fill="#0078d4"
       id="path474" />
    <path
       d="M 1.49999,-0.00466136 1.71669,69.7256 -1.2833,69.7349 -1.49999,0.00466136 Z M 4.71201,68.2163 0.24,77.2302 -4.28795,68.2443 Z"
       fill="#0078d4"
       transform="matrix(-1,0,0,1,720.74,624.5)"
       id="path476" />
    <path
       d="M 1.49999,-0.00411476 1.71942,79.9856 -1.28057,79.9938 -1.49999,0.00411476 Z M 4.71529,78.4773 0.24,87.4897 -4.28467,78.502 Z"
       fill="#0078d4"
       transform="matrix(-1,0,0,1,720.74,1079.5)"
       id="path478" />
    <path
       d="m 1264.5,933 h 208.32 v 3 H 1264.5 Z m 206.82,-3 9,4.5 -9,4.5 z"
       fill="#0078d4"
       id="path480" />
    <path
       d="m 1140,818.5 v 32.484 h -3 V 818.5 Z m 3,30.984 -4.5,9 -4.5,-9 z"
       fill="#0078d4"
       id="path482" />
    <path
       d="m 1140,1012.5 v 31.39 h -3 v -31.39 z m 3,29.89 -4.5,9 -4.5,-9 z"
       fill="#0078d4"
       id="path484" />
    <path
       d="m 1140,1204.5 v 32.48 h -3 v -32.48 z m 3,30.98 -4.5,9 -4.5,-9 z"
       fill="#0078d4"
       id="path486" />
    <path
       d="m 847.5,547 h 157.29 v 3 H 847.5 Z m 155.79,-3 9,4.5 -9,4.5 z"
       fill="#0078d4"
       id="path488" />
    <path
       d="m 0,-1.5 h 82.6335 c 0.8285,0 1.5,0.671573 1.5,1.5 v 115.05 l -1.5,-1.5 h 75.1335 v 3 H 82.6335 c -0.8284,0 -1.5,-0.672 -1.5,-1.5 V 0 l 1.5,1.5 H 0 Z m 156.267,112.05 9,4.5 -9,4.5 z"
       fill="#0078d4"
       transform="matrix(1,0,0,-1,846.5,1243.55)"
       id="path490" />
    <path
       d="m 537.501,242 49.497,0.032 -0.002,3 L 537.499,245 Z m 47.999,-2.969 8.997,4.506 -9.003,4.494 z"
       fill="#0078d4"
       id="path492" />
    <rect
       x="1479"
       y="858"
       width="253"
       height="153"
       stroke="#0078d4"
       stroke-width="2"
       stroke-linejoin="round"
       stroke-miterlimit="10"
       fill="#0078d4"
       id="rect494" />
    <text
       fill="#ffffff"
       font-family="'Segoe UI', 'Segoe UI_MSFontService', sans-serif"
       font-weight="400"
       font-size="24px"
       transform="translate(1551.11,914)"
       id="text496">Outsource</text>
    <text
       fill="#ffffff"
       font-family="'Segoe UI', 'Segoe UI_MSFontService', sans-serif"
       font-weight="400"
       font-size="24px"
       transform="translate(1547.45,943)"
       id="text498">production</text>
    <text
       fill="#ffffff"
       font-family="'Segoe UI', 'Segoe UI_MSFontService', sans-serif"
       font-weight="400"
       font-size="24px"
       transform="translate(1549.29,972)"
       id="text500">operations</text>
    <rect
       x="594"
       y="925"
       width="253"
       height="154"
       stroke="#000000"
       stroke-width="2"
       stroke-linejoin="round"
       stroke-miterlimit="10"
       fill="#a0a0a0"
       id="rect502" />
    <text
       font-family="'Segoe UI', 'Segoe UI_MSFontService', sans-serif"
       font-weight="400"
       font-size="24px"
       transform="translate(653.933,1010)"
       id="text504">Hire to retire</text>
    <rect
       x="594"
       y="1166"
       width="253"
       height="153"
       stroke="#0078d4"
       stroke-width="2"
       stroke-linejoin="round"
       stroke-miterlimit="10"
       fill="#0078d4"
       id="rect506" />
    <text
       fill="#ffffff"
       font-family="'Segoe UI', 'Segoe UI_MSFontService', sans-serif"
       font-weight="400"
       font-size="24px"
       transform="translate(637.943,1237)"
       id="text508">Plan and recruit</text>
    <text
       fill="#ffffff"
       font-family="'Segoe UI', 'Segoe UI_MSFontService', sans-serif"
       font-weight="400"
       font-size="24px"
       transform="translate(641.289,1266)"
       id="text510">your workforce</text>
    <rect
       x="1479"
       y="1244"
       width="253"
       height="154"
       stroke="#0078d4"
       stroke-width="2"
       stroke-linejoin="round"
       stroke-miterlimit="10"
       fill="#0078d4"
       id="rect512" />
    <text
       fill="#ffffff"
       font-family="'Segoe UI', 'Segoe UI_MSFontService', sans-serif"
       font-weight="400"
       font-size="24px"
       transform="translate(1523.53,1315)"
       id="text514">Run production</text>
    <text
       fill="#ffffff"
       font-family="'Segoe UI', 'Segoe UI_MSFontService', sans-serif"
       font-weight="400"
       font-size="24px"
       transform="translate(1549.29,1344)"
       id="text516">operations</text>
    <rect
       x="594"
       y="471"
       width="253"
       height="153"
       stroke="#000000"
       stroke-width="2"
       stroke-linejoin="round"
       stroke-miterlimit="10"
       fill="#a0a0a0"
       id="rect518" />
    <text
       font-family="'Segoe UI', 'Segoe UI_MSFontService', sans-serif"
       font-weight="400"
       font-size="24px"
       transform="translate(636.869,556)"
       id="text520">Plan to produce</text>
    <path
       d="m 0,-1.5 h 722.502 c 0.828,0 1.5,0.671573 1.5,1.5 v 155.174 h -3 V 0 l 1.5,1.5 H 0 Z m 727.002,155.174 -4.5,9 -4.5,-9 z"
       fill="#0078d4"
       transform="matrix(0,1,1,0,432.5,279.5)"
       id="path522" />
    <path
       d="m 0,1.5 h -24.0019 l 1.5,-1.5 v 538.149 l -1.5,-1.5 H 480.644 v 3 H -24.0019 c -0.8284,0 -1.5,-0.672 -1.5,-1.5 V 0 c 0,-0.828427 0.6716,-1.5 1.5,-1.5 H 0 Z m 479.144,532.149 9,4.5 -9,4.5 z"
       fill="#0078d4"
       transform="matrix(-1,0,0,1,1731.64,934.5)"
       id="path524" />
    <path
       d="m 0,1.5 h -24.002 l 1.5,-1.5 v 151.599 l -1.5,-1.5 h 504.646 v 3 H -24.002 c -0.8285,0 -1.5,-0.671 -1.5,-1.5 V 0 c 0,-0.828427 0.6715,-1.5 1.5,-1.5 H 0 Z m 479.144,145.599 9,4.5 -9,4.5 z"
       fill="#0078d4"
       transform="matrix(-1,0,0,1,1731.64,1321.5)"
       id="path526" />
  </g>
</svg>
