<?xml version="1.0" encoding="UTF-8" standalone="no"?>
<svg
   width="1236.7672"
   height="1623.5464"
   overflow="hidden"
   version="1.1"
   id="svg176"
   sodipodi:docname="plan-to-produce-outsource-production-flow.svg"
   inkscape:version="1.2.2 (732a01da63, 2022-12-09)"
   xmlns:inkscape="http://www.inkscape.org/namespaces/inkscape"
   xmlns:sodipodi="http://sodipodi.sourceforge.net/DTD/sodipodi-0.dtd"
   xmlns="http://www.w3.org/2000/svg"
   xmlns:svg="http://www.w3.org/2000/svg">
  <defs
     id="defs180" />
  <sodipodi:namedview
     id="namedview178"
     pagecolor="#ffffff"
     bordercolor="#000000"
     borderopacity="0.25"
     inkscape:showpageshadow="2"
     inkscape:pageopacity="0.0"
     inkscape:pagecheckerboard="0"
     inkscape:deskcolor="#d1d1d1"
     showgrid="false"
     inkscape:zoom="0.43177083"
     inkscape:cx="399.51749"
     inkscape:cy="577.85283"
     inkscape:window-width="1920"
     inkscape:window-height="1010"
     inkscape:window-x="-6"
     inkscape:window-y="-6"
     inkscape:window-maximized="1"
     inkscape:current-layer="svg176" />
  <g
     id="g174"
     transform="translate(-560.48248,-64.849213)">
    <rect
       x="560.48248"
       y="64.849213"
       width="1236.7672"
       height="1623.5464"
       fill="#ffffff"
       id="rect2"
       style="stroke-width:0.738032" />
    <rect
       x="878"
       y="358"
       width="535"
       height="1319"
       stroke="#0078d4"
       stroke-width="2"
       stroke-linejoin="round"
       stroke-miterlimit="10"
       fill="#d9d9d9"
       id="rect4" />
    <text
       fill="#0078d4"
       font-family="'Segoe UI', 'Segoe UI_MSFontService', sans-serif"
       font-weight="700"
       font-size="37px"
       transform="translate(906.428,1645)"
       id="text6">Business process area</text>
    <path
       d="m 619,108 c 0,-19.8822 16.118,-36 36,-36 h 139 c 19.882,0 36,16.1178 36,36 v 0 c 0,19.882 -16.118,36 -36,36 H 655 c -19.882,0 -36,-16.118 -36,-36 z"
       stroke="#0078d4"
       stroke-width="2"
       stroke-linejoin="round"
       stroke-miterlimit="10"
       fill="#ffffff"
       fill-rule="evenodd"
       id="path8" />
    <text
       font-family="'Segoe UI', 'Segoe UI_MSFontService', sans-serif"
       font-weight="400"
       font-size="24px"
       transform="translate(699.504,117)"
       id="text10">Start</text>
    <rect
       x="1012"
       y="471"
       width="252"
       height="153"
       stroke="#00569b"
       stroke-width="2"
       stroke-linejoin="round"
       stroke-miterlimit="10"
       fill="#0078d4"
       id="rect12" />
    <text
       fill="#ffffff"
       font-family="'Segoe UI', 'Segoe UI_MSFontService', sans-serif"
       font-weight="400"
       font-size="24px"
       transform="translate(1083.29,528)"
       id="text14">Outsource</text>
    <text
       fill="#ffffff"
       font-family="'Segoe UI', 'Segoe UI_MSFontService', sans-serif"
       font-weight="400"
       font-size="24px"
       transform="translate(1079.63,557)"
       id="text16">production</text>
    <text
       fill="#ffffff"
       font-family="'Segoe UI', 'Segoe UI_MSFontService', sans-serif"
       font-weight="400"
       font-size="24px"
       transform="translate(1081.47,586)"
       id="text18">operations</text>
    <rect
       x="1012"
       y="664"
       width="252"
       height="154"
       fill="#ffffff"
       id="rect20" />
    <path
       d="m 1043.5,664 v 154 m 189,-154 v 154"
       stroke="#0078d4"
       stroke-width="2"
       stroke-linejoin="round"
       stroke-miterlimit="10"
       fill="none"
       fill-rule="evenodd"
       id="path22" />
    <rect
       x="1012"
       y="664"
       width="252"
       height="154"
       stroke="#0078d4"
       stroke-width="2"
       stroke-linejoin="round"
       stroke-miterlimit="10"
       fill="none"
       id="rect24" />
    <text
       font-family="'Segoe UI', 'Segoe UI_MSFontService', sans-serif"
       font-weight="400"
       font-size="21px"
       transform="translate(1107.06,724)"
       id="text26">Define</text>
    <text
       font-family="'Segoe UI', 'Segoe UI_MSFontService', sans-serif"
       font-weight="400"
       font-size="21px"
       transform="translate(1081.7,749)"
       id="text28">outsourcing</text>
    <text
       font-family="'Segoe UI', 'Segoe UI_MSFontService', sans-serif"
       font-weight="400"
       font-size="21px"
       transform="translate(1102.4,775)"
       id="text30">policies</text>
    <path
       d="m 1032,1472.5 c 0,-20.16 16.34,-36.5 36.5,-36.5 h 138 c 20.16,0 36.5,16.34 36.5,36.5 v 0 c 0,20.16 -16.34,36.5 -36.5,36.5 h -138 c -20.16,0 -36.5,-16.34 -36.5,-36.5 z"
       stroke="#0078d4"
       stroke-width="2"
       stroke-linejoin="round"
       stroke-miterlimit="10"
       fill="#ffffff"
       fill-rule="evenodd"
       id="path32" />
    <text
       font-family="'Segoe UI', 'Segoe UI_MSFontService', sans-serif"
       font-weight="400"
       font-size="24px"
       transform="translate(1117.73,1481)"
       id="text34">End</text>
    <path
       d="m 1140,320.5 v 143.968 h -3 V 320.5 Z m 3,142.468 -4.5,9 -4.5,-9 z"
       fill="#0078d4"
       id="path36" />
    <path
       d="m 851.5,242 153.61,0.035 v 3 L 851.5,245 Z m 152.11,-2.965 9,4.502 -9,4.498 z"
       fill="#0078d4"
       id="path38" />
    <path
       d="M 1.49997,-0.00901914 1.6953,32.4754 -1.30465,32.4934 -1.49997,0.00901914 Z M 4.68622,30.9574 0.24042,39.9842 -4.31361,31.0115 Z"
       fill="#0078d4"
       transform="matrix(-1,0,0,1,1138.74,624.5)"
       id="path40" />
    <rect
       x="1012"
       y="172"
       width="252"
       height="153"
       stroke="#0078d4"
       stroke-width="2"
       stroke-linejoin="round"
       stroke-miterlimit="10"
       fill="#0078d4"
       id="rect42" />
    <text
       fill="#ffffff"
       font-family="'Segoe UI', 'Segoe UI_MSFontService', sans-serif"
       font-weight="400"
       font-size="24px"
       transform="translate(1055.71,242)"
       id="text44">Run production</text>
    <text
       fill="#ffffff"
       font-family="'Segoe UI', 'Segoe UI_MSFontService', sans-serif"
       font-weight="400"
       font-size="24px"
       transform="translate(1081.47,271)"
       id="text46">operations</text>
    <rect
       x="1012"
       y="858"
       width="252"
       height="153"
       fill="#ffffff"
       id="rect48" />
    <path
       d="m 1043.5,858 v 153 m 189,-153 v 153"
       stroke="#0078d4"
       stroke-width="2"
       stroke-linejoin="round"
       stroke-miterlimit="10"
       fill="none"
       fill-rule="evenodd"
       id="path50" />
    <rect
       x="1012"
       y="858"
       width="252"
       height="153"
       stroke="#0078d4"
       stroke-width="2"
       stroke-linejoin="round"
       stroke-miterlimit="10"
       fill="none"
       id="rect52" />
    <text
       font-family="'Segoe UI', 'Segoe UI_MSFontService', sans-serif"
       font-weight="400"
       font-size="21px"
       transform="translate(1072.48,917)"
       id="text54">Communicate</text>
    <text
       font-family="'Segoe UI', 'Segoe UI_MSFontService', sans-serif"
       font-weight="400"
       font-size="21px"
       transform="translate(1101.93,942)"
       id="text56">work to</text>
    <text
       font-family="'Segoe UI', 'Segoe UI_MSFontService', sans-serif"
       font-weight="400"
       font-size="21px"
       transform="translate(1072.56,968)"
       id="text58">subcontractor</text>
    <path
       d="m 1140,1407.5 v 21.09 h -3 v -21.09 z m 3,19.59 -4.5,9 -4.5,-9 z"
       fill="#0078d4"
       id="path60" />
    <rect
       x="1012"
       y="1056"
       width="252"
       height="154"
       fill="#ffffff"
       id="rect62" />
    <path
       d="m 1043.5,1056 v 154 m 189,-154 v 154"
       stroke="#0078d4"
       stroke-width="2"
       stroke-linejoin="round"
       stroke-miterlimit="10"
       fill="none"
       fill-rule="evenodd"
       id="path64" />
    <rect
       x="1012"
       y="1056"
       width="252"
       height="154"
       stroke="#0078d4"
       stroke-width="2"
       stroke-linejoin="round"
       stroke-miterlimit="10"
       fill="none"
       id="rect66" />
    <text
       font-family="'Segoe UI', 'Segoe UI_MSFontService', sans-serif"
       font-weight="400"
       font-size="21px"
       transform="translate(1073.23,1116)"
       id="text68">Send material</text>
    <text
       font-family="'Segoe UI', 'Segoe UI_MSFontService', sans-serif"
       font-weight="400"
       font-size="21px"
       transform="translate(1127.9,1141)"
       id="text70">to</text>
    <text
       font-family="'Segoe UI', 'Segoe UI_MSFontService', sans-serif"
       font-weight="400"
       font-size="21px"
       transform="translate(1072.56,1167)"
       id="text72">subcontractor</text>
    <rect
       x="598"
       y="665"
       width="253"
       height="153"
       stroke="#0078d4"
       stroke-width="2"
       stroke-linejoin="round"
       stroke-miterlimit="10"
       fill="#0078d4"
       id="rect74" />
    <text
       fill="#ffffff"
       font-family="'Segoe UI', 'Segoe UI_MSFontService', sans-serif"
       font-weight="400"
       font-size="24px"
       transform="translate(628.454,735)"
       id="text76">Define production</text>
    <text
       fill="#ffffff"
       font-family="'Segoe UI', 'Segoe UI_MSFontService', sans-serif"
       font-weight="400"
       font-size="24px"
       transform="translate(673.307,764)"
       id="text78">strategies</text>
    <path
       d="M 0.00502382,-1.49999 202.809,-0.820754 202.799,2.17923 -0.00502382,1.49999 Z M 201.319,-3.82576 l 8.985,4.530117 -9.015,4.469833 z"
       fill="#0078d4"
       transform="matrix(1,0,0,-1,1264.5,1133.2)"
       id="path80" />
    <path
       d="M 0.00147403,-1.5 153.611,-1.34905 l -0.003,3 L -0.00147403,1.5 Z M 152.114,-4.35052 l 8.995,4.50884 -9.004,4.49115 z"
       fill="#0078d4"
       transform="matrix(1,0,0,-1,851.5,741.658)"
       id="path82" />
    <path
       d="m 726,320.5 v 337.438 h -3 V 320.5 Z m 3,335.938 -4.5,9 -4.5,-9 z"
       fill="#0078d4"
       id="path84" />
    <path
       d="m 1264.52,1330 202.8,2.47 -0.03,3 -202.81,-2.47 z m 201.34,-0.55 8.94,4.61 -9.05,4.39 z"
       fill="#0078d4"
       id="path86" />
    <path
       d="m 0,-1.5 h 105.152 c 0.828,0 1.5,0.671573 1.5,1.5 v 173.283 l -1.5,-1.5 h 97.652 v 3 h -97.652 c -0.828,0 -1.5,-0.672 -1.5,-1.5 V 0 l 1.5,1.5 H 0 Z m 201.304,170.283 9,4.5 -9,4.5 z"
       fill="#0078d4"
       transform="matrix(1,0,0,-1,1264.5,934.783)"
       id="path88" />
    <path
       d="m 1140,818.5 v 32.484 h -3 V 818.5 Z m 3,30.984 -4.5,9 -4.5,-9 z"
       fill="#0078d4"
       id="path90" />
    <path
       d="m 1140,1011.5 v 37.82 h -3 v -37.82 z m 3,36.32 -4.5,9 -4.5,-9 z"
       fill="#0078d4"
       id="path92" />
    <path
       d="m 0,-1.5 h 228.15 c 0.828,0 1.5,0.671573 1.5,1.5 v 279.85 h -3 V 0 l 1.5,1.5 H 0 Z m 232.65,279.85 -4.5,9 -4.5,-9 z"
       fill="#0078d4"
       transform="matrix(0,1,1,0,724.5,320.5)"
       id="path94" />
    <path
       d="m 851.5,933 h 153.61 v 3 H 851.5 Z m 152.11,-3 9,4.5 -9,4.5 z"
       fill="#0078d4"
       id="path96" />
    <path
       d="m 726,144.5 v 14.507 h -3 V 144.5 Z m 3,13.007 -4.5,9 -4.5,-9 z"
       fill="#0078d4"
       id="path98" />
    <rect
       x="1474"
       y="1450"
       width="252"
       height="154"
       stroke="#0078d4"
       stroke-width="2"
       stroke-linejoin="round"
       stroke-miterlimit="10"
       fill="#0078d4"
       id="rect100" />
    <text
       fill="#ffffff"
       font-family="'Segoe UI', 'Segoe UI_MSFontService', sans-serif"
       font-weight="400"
       font-size="24px"
       transform="translate(1520.25,1521)"
       id="text102">Process vendor</text>
    <text
       fill="#ffffff"
       font-family="'Segoe UI', 'Segoe UI_MSFontService', sans-serif"
       font-weight="400"
       font-size="24px"
       transform="translate(1558.01,1550)"
       id="text104">invoices</text>
    <rect
       x="598"
       y="166"
       width="253"
       height="154"
       stroke="#000000"
       stroke-width="2"
       stroke-linejoin="round"
       stroke-miterlimit="10"
       fill="#a0a0a0"
       id="rect106" />
    <text
       font-family="'Segoe UI', 'Segoe UI_MSFontService', sans-serif"
       font-weight="400"
       font-size="24px"
       transform="translate(640.547,252)"
       id="text108">Plan to produce</text>
    <path
       d="m 0,-1.5 h 24 c 0.8284,0 1.5,0.671573 1.5,1.5 v 691.345 c 0,0.828 -0.6716,1.5 -1.5,1.5 H 8.83333 v -3 H 24 l -1.5,1.5 V 0 L 24,1.5 H 0 Z m 10.3333,697.345 -8.99997,-4.5 8.99997,-4.5 z"
       fill="#0078d4"
       transform="matrix(-1,0,0,1,599.833,243.5)"
       id="path110" />
    <rect
       x="1012"
       y="1254"
       width="252"
       height="153"
       fill="#ffffff"
       id="rect112" />
    <path
       d="m 1043.5,1254 v 153 m 189,-153 v 153"
       stroke="#0078d4"
       stroke-width="2"
       stroke-linejoin="round"
       stroke-miterlimit="10"
       fill="none"
       fill-rule="evenodd"
       id="path114" />
    <rect
       x="1012"
       y="1254"
       width="252"
       height="153"
       stroke="#0078d4"
       stroke-width="2"
       stroke-linejoin="round"
       stroke-miterlimit="10"
       fill="none"
       id="rect116" />
    <text
       font-family="'Segoe UI', 'Segoe UI_MSFontService', sans-serif"
       font-weight="400"
       font-size="21px"
       transform="translate(1102.26,1313)"
       id="text118">Receive</text>
    <text
       font-family="'Segoe UI', 'Segoe UI_MSFontService', sans-serif"
       font-weight="400"
       font-size="21px"
       transform="translate(1074.37,1338)"
       id="text120">material from</text>
    <text
       font-family="'Segoe UI', 'Segoe UI_MSFontService', sans-serif"
       font-weight="400"
       font-size="21px"
       transform="translate(1072.56,1364)"
       id="text122">subcontractor</text>
    <rect
       x="1474"
       y="475"
       width="252"
       height="154"
       stroke="#000000"
       stroke-width="2"
       stroke-linejoin="round"
       stroke-miterlimit="10"
       fill="#a0a0a0"
       id="rect124" />
    <text
       font-family="'Segoe UI', 'Segoe UI_MSFontService', sans-serif"
       font-weight="400"
       font-size="24px"
       transform="translate(1523.5,561)"
       id="text126">Procure to pay</text>
    <path
       d="m 1140,1210.5 v 37.12 h -3 v -37.12 z m 3,35.62 -4.5,9 -4.5,-9 z"
       fill="#0078d4"
       id="path128" />
    <rect
       x="1474"
       y="684"
       width="252"
       height="154"
       stroke="#0078d4"
       stroke-width="2"
       stroke-linejoin="round"
       stroke-miterlimit="10"
       fill="#0078d4"
       id="rect130" />
    <text
       fill="#ffffff"
       font-family="'Segoe UI', 'Segoe UI_MSFontService', sans-serif"
       font-weight="400"
       font-size="24px"
       transform="translate(1508.76,755)"
       id="text132">Procure materials</text>
    <text
       fill="#ffffff"
       font-family="'Segoe UI', 'Segoe UI_MSFontService', sans-serif"
       font-weight="400"
       font-size="24px"
       transform="translate(1535.46,784)"
       id="text134">and services</text>
    <rect
       x="598"
       y="858"
       width="253"
       height="153"
       stroke="#0078d4"
       stroke-width="2"
       stroke-linejoin="round"
       stroke-miterlimit="10"
       fill="#0078d4"
       id="rect136" />
    <text
       fill="#ffffff"
       font-family="'Segoe UI', 'Segoe UI_MSFontService', sans-serif"
       font-weight="400"
       font-size="24px"
       transform="translate(640.287,929)"
       id="text138">Plan production</text>
    <text
       fill="#ffffff"
       font-family="'Segoe UI', 'Segoe UI_MSFontService', sans-serif"
       font-weight="400"
       font-size="24px"
       transform="translate(667.88,958)"
       id="text140">operations</text>
    <rect
       x="1474"
       y="1056"
       width="252"
       height="153"
       stroke="#0078d4"
       stroke-width="2"
       stroke-linejoin="round"
       stroke-miterlimit="10"
       fill="#0078d4"
       id="rect142" />
    <text
       fill="#ffffff"
       font-family="'Segoe UI', 'Segoe UI_MSFontService', sans-serif"
       font-weight="400"
       font-size="24px"
       transform="translate(1504.68,1126)"
       id="text144">Process outbound</text>
    <text
       fill="#ffffff"
       font-family="'Segoe UI', 'Segoe UI_MSFontService', sans-serif"
       font-weight="400"
       font-size="24px"
       transform="translate(1566.94,1155)"
       id="text146">goods</text>
    <rect
       x="1474"
       y="1257"
       width="252"
       height="153"
       stroke="#0078d4"
       stroke-width="2"
       stroke-linejoin="round"
       stroke-miterlimit="10"
       fill="#0078d4"
       id="rect148" />
    <text
       fill="#ffffff"
       font-family="'Segoe UI', 'Segoe UI_MSFontService', sans-serif"
       font-weight="400"
       font-size="24px"
       transform="translate(1512.85,1328)"
       id="text150">Process inbound</text>
    <text
       fill="#ffffff"
       font-family="'Segoe UI', 'Segoe UI_MSFontService', sans-serif"
       font-weight="400"
       font-size="24px"
       transform="translate(1566.94,1357)"
       id="text152">goods</text>
    <path
       d="m 1602,1410.5 v 32.75 h -3 v -32.75 z m 3,31.25 -4.5,9 -4.5,-9 z"
       fill="#0078d4"
       id="path154" />
    <rect
       x="1474"
       y="874"
       width="252"
       height="153"
       stroke="#000000"
       stroke-width="2"
       stroke-linejoin="round"
       stroke-miterlimit="10"
       fill="#a0a0a0"
       id="rect156" />
    <text
       font-family="'Segoe UI', 'Segoe UI_MSFontService', sans-serif"
       font-weight="400"
       font-size="24px"
       transform="translate(1535.88,945)"
       id="text158">Inventory to</text>
    <text
       font-family="'Segoe UI', 'Segoe UI_MSFontService', sans-serif"
       font-weight="400"
       font-size="24px"
       transform="translate(1564.93,974)"
       id="text160">deliver</text>
    <path
       d="m 1602,629.5 v 48.178 h -3 V 629.5 Z m 3,46.678 -4.5,9 -4.5,-9 z"
       fill="#0078d4"
       id="path162" />
    <path
       d="m 1602,1027.5 v 20.99 h -3 v -20.99 z m 3,19.49 -4.5,9 -4.5,-9 z"
       fill="#0078d4"
       id="path164" />
    <path
       d="m 1726.5,949 h 24 c 0.83,0 1.5,0.672 1.5,1.5 v 382.96 c 0,0.83 -0.67,1.5 -1.5,1.5 h -15.17 v -3 h 15.17 l -1.5,1.5 V 950.5 l 1.5,1.5 h -24 z m 10.33,388.96 -9,-4.5 9,-4.5 z"
       fill="#0078d4"
       id="path166" />
    <path
       d="m 1726.5,551 h 60.8 c 0.83,0 1.5,0.672 1.5,1.5 v 974.88 c 0,0.83 -0.67,1.5 -1.5,1.5 h -51.97 v -3 h 51.97 l -1.5,1.5 V 552.5 l 1.5,1.5 h -60.8 z m 10.33,980.88 -9,-4.5 9,-4.5 z"
       fill="#0078d4"
       id="path168" />
    <path
       d="m 830.5,107 h 770.22 c 0.82,0 1.5,0.672 1.5,1.5 v 359.988 h -3 V 108.5 l 1.5,1.5 H 830.5 Z m 774.72,359.988 -4.5,9 -4.5,-9 z"
       fill="#0078d4"
       id="path170" />
    <path
       d="m 1474.13,1528.48 h -115.32 c -0.83,0 -1.5,-0.67 -1.5,-1.5 v -54.48 l 1.5,1.5 H 1251 v -3 h 107.81 c 0.83,0 1.5,0.67 1.5,1.5 v 54.48 l -1.5,-1.5 h 115.32 z M 1252.5,1477 l -9,-4.5 9,-4.5 z"
       fill="#0078d4"
       id="path172" />
  </g>
</svg>
