<?xml version="1.0"?>
<svg xmlns="http://www.w3.org/2000/svg" xmlns:xlink="http://www.w3.org/1999/xlink" xmlns:ev="http://www.w3.org/2001/xml-events"    viewBox="40 40 488 603"    xml:space="preserve" color-interpolation-filters="sRGB" class="st10" width="1220" height="1508">
<rect x="0" y="0" width="1220" height="1508" fill="#ffffff" />
	<style type="text/css"><![CDATA[
		.st1 {fill:#ffffff;stroke:#0078d4;stroke-linecap:round;stroke-linejoin:round;stroke-width:0.24}
		.st2 {fill:#000000;font-family:Calibri;font-size:1.00001em}
		.st3 {fill:#0078d4;stroke:none;stroke-linecap:round;stroke-linejoin:round;stroke-width:0.24}
		.st4 {fill:#ffffff;font-family:Calibri;font-size:1.00001em}
		.st5 {font-size:1em}
		.st6 {fill:#ffffff}
		.st7 {stroke:#0078d4;stroke-linecap:round;stroke-linejoin:round;stroke-width:0.24}
		.st8 {marker-end:url(#mrkr13-55);stroke:#0078d4;stroke-linecap:round;stroke-linejoin:round;stroke-width:0.75}
		.st9 {fill:#0078d4;fill-opacity:1;stroke:#0078d4;stroke-opacity:1;stroke-width:0.22935779816514}
		.st10 {fill:none;fill-rule:evenodd;font-size:12px;overflow:visible;stroke-linecap:square;stroke-miterlimit:3}
	]]></style><style> a { pointer-events: none; } </style><style>a.rules_svg_anchor g:hover { opacity:0.8; cursor:pointer; }</style>
	<defs id="Markers">
		<g id="lend13">
			<path d="M 3 1 L 0 0 L 3 -1 L 3 1 " style="stroke:none" />
		</g>
		<marker id="mrkr13-55" class="st9" refX="-13.08" orient="auto" markerUnits="strokeWidth" overflow="visible">
			<use xlink:href="#lend13" transform="scale(-4.36,-4.36) " />
		</marker>
	</defs>
	<g>
		
		<g id="shape1-1" transform="translate(40.5,-702)">
			
			<desc>Start</desc>
			<path d="M18 792 L67.5 792 A18 18 -180 0 0 67.5 756 L18 756 A18 18 -180 1 0 18 792 Z" class="st1" />
			<text x="31.01" y="777.6" class="st2">Start</text>
		</g>
		<a id="37e8ca56-d26a-4ef7-9f05-c8e82cbbbc88" class="rules_svg_anchor rules_svg_shape"   href="/lms/chart?onclick=b3BlbkNoYXJ0Q29udGV4dE1lbnUoZXZlbnQsJ3cxMTZkNTIzNTk2NWMxNzIzMXY0MDcxJywxODMyOCwgMSwgMSwgdGhpcywgd2luZG93LmZyYW1lRWxlbWVudCk=&amp;navigate=true&amp;details=Description">
			<g id="shape2-4" transform="translate(216,-688.5)">
				
				<desc>70.10 Develop production strategies</desc>
				<rect x="0" y="729" width="126" height="63" class="st3" />
				<text x="27.9" y="756.9" class="st4">70.10 Develop <tspan x="10.84" dy="1.2em" class="st5">production strategies</tspan>
				</text>
			</g>
		</a>
		<a id="a611c698-145a-40ec-b454-ed0bd49b8a33" class="rules_svg_anchor rules_svg_shape"   href="/lms/chart?onclick=b3BlbkNoYXJ0Q29udGV4dE1lbnUoZXZlbnQsJ3cxMTZkNTIzNTk2NWMxNzIzMnY0MDcxJywxODMyOSwgMSwgMSwgdGhpcywgd2luZG93LmZyYW1lRWxlbWVudCk=&amp;navigate=true&amp;details=Description">
			<g id="shape3-8" transform="translate(216,-580.5)">
				
				<desc>70.10.010 Develop production processes</desc>
				<path d="M0 792 L126 792 L126 729 L0 729 L0 792 Z" class="st6" />
				<path d="M0 792 L126 792 L126 729 L0 729 L0 792" class="st7" />
				<path d="M9 792 L9 729" class="st7" />
				<path d="M117 792 L117 729" class="st7" />
				<text x="17.26" y="749.7" class="st2">70.10.010 Develop <tspan x="36.05" dy="1.2em" class="st5">production </tspan>
					<tspan x="39.04" dy="1.2em" class="st5">processes</tspan>
				</text>
			</g>
		</a>
		<a id="ce34a2a0-e571-4cc9-8890-7cb6d3b876cd" class="rules_svg_anchor rules_svg_shape"   href="/lms/chart?onclick=b3BlbkNoYXJ0Q29udGV4dE1lbnUoZXZlbnQsJ3cxMTZkNTIzNTk2NWMxNzIzNHY0MDcxJywxODMzMCwgMSwgMSwgdGhpcywgd2luZG93LmZyYW1lRWxlbWVudCk=&amp;navigate=true&amp;details=Description">
			<g id="shape4-16" transform="translate(216,-472.5)">
				
				<desc>70.10.030 Map value streams</desc>
				<path d="M0 792 L126 792 L126 729 L0 729 L0 792 Z" class="st6" />
				<path d="M0 792 L126 792 L126 729 L0 729 L0 792" class="st7" />
				<path d="M9 792 L9 729" class="st7" />
				<path d="M117 792 L117 729" class="st7" />
				<text x="11.72" y="756.9" class="st2">70.10.030 Map value <tspan x="43.55" dy="1.2em" class="st5">streams</tspan>
				</text>
			</g>
		</a>
		<a id="9154dfab-4361-4492-bbf4-b89c6961aedd" class="rules_svg_anchor rules_svg_shape"   href="/lms/chart?onclick=b3BlbkNoYXJ0Q29udGV4dE1lbnUoZXZlbnQsJ3cxMTZkNTIzNTk2NWMxNzIzNXY0MDcxJywxODMzMSwgMSwgMSwgdGhpcywgd2luZG93LmZyYW1lRWxlbWVudCk=&amp;navigate=true&amp;details=Description">
			<g id="shape5-23" transform="translate(216,-364.5)">
				
				<desc>70.10.040 Identify production resources</desc>
				<path d="M0 792 L126 792 L126 729 L0 729 L0 792 Z" class="st6" />
				<path d="M0 792 L126 792 L126 729 L0 729 L0 792" class="st7" />
				<path d="M9 792 L9 729" class="st7" />
				<path d="M117 792 L117 729" class="st7" />
				<text x="18.59" y="749.7" class="st2">70.10.040 Identify <tspan x="36.05" dy="1.2em" class="st5">production </tspan>
					<tspan x="39.3" dy="1.2em" class="st5">resources</tspan>
				</text>
			</g>
		</a>
		<a id="207c5c3c-eece-49c5-8d67-b6a5cbde6f13" class="rules_svg_anchor rules_svg_shape"   href="/lms/chart?onclick=b3BlbkNoYXJ0Q29udGV4dE1lbnUoZXZlbnQsJ3cxMTZkNTIzNTk2NWMxNzIzNnY0MDcxJywxODMzMiwgMSwgMSwgdGhpcywgd2luZG93LmZyYW1lRWxlbWVudCk=&amp;navigate=true&amp;details=Description">
			<g id="shape6-31" transform="translate(216,-256.5)">
				
				<desc>70.10.050 Develop subcontracting strategy</desc>
				<path d="M0 792 L126 792 L126 729 L0 729 L0 792 Z" class="st6" />
				<path d="M0 792 L126 792 L126 729 L0 729 L0 792" class="st7" />
				<path d="M9 792 L9 729" class="st7" />
				<path d="M117 792 L117 729" class="st7" />
				<text x="17.26" y="749.7" class="st2">70.10.050 Develop <tspan x="26.62" dy="1.2em" class="st5">subcontracting </tspan>
					<tspan x="43.14" dy="1.2em" class="st5">strategy</tspan>
				</text>
			</g>
		</a>
		<a id="240ac7ad-c476-46d2-84d2-549380800059" class="rules_svg_anchor rules_svg_shape"   href="/lms/chart?onclick=b3BlbkNoYXJ0Q29udGV4dE1lbnUoZXZlbnQsJ3cxMTZkNTIzNTk2NWMxNzIzN3Y0MDcxJywxODMzMywgMSwgMSwgdGhpcywgd2luZG93LmZyYW1lRWxlbWVudCk=&amp;navigate=true&amp;details=Description">
			<g id="shape7-39" transform="translate(216,-148.5)">
				
				<desc>70.10.060 Correct production processes</desc>
				<path d="M0 792 L126 792 L126 729 L0 729 L0 792 Z" class="st6" />
				<path d="M0 792 L126 792 L126 729 L0 729 L0 792" class="st7" />
				<path d="M9 792 L9 729" class="st7" />
				<path d="M117 792 L117 729" class="st7" />
				<text x="19.25" y="749.7" class="st2">70.10.060 Correct <tspan x="36.05" dy="1.2em" class="st5">production </tspan>
					<tspan x="39.04" dy="1.2em" class="st5">processes</tspan>
				</text>
			</g>
		</a>
		<g id="shape8-47" transform="translate(443.25,-162)">
			
			<desc>End</desc>
			<path d="M18 792 L67.5 792 A18 18 -180 0 0 67.5 756 L18 756 A18 18 -180 1 0 18 792 Z" class="st1" />
			<text x="33.52" y="777.6" class="st2">End</text>
		</g>
		<g id="shape10-50" transform="translate(126,-711)">
			
			<path d="M0 783 L80.19 783" class="st8" />
		</g>
		<g id="shape11-56" transform="translate(270,-688.5)">
			
			<path d="M9 792 L9 827.19" class="st8" />
		</g>
		<g id="shape12-61" transform="translate(270,-580.5)">
			
			<path d="M9 792 L9 827.19" class="st8" />
		</g>
		<g id="shape13-66" transform="translate(270,-472.5)">
			
			<path d="M9 792 L9 827.19" class="st8" />
		</g>
		<g id="shape14-71" transform="translate(270,-364.5)">
			
			<path d="M9 792 L9 827.19" class="st8" />
		</g>
		<g id="shape15-76" transform="translate(270,-256.5)">
			
			<path d="M9 792 L9 827.19" class="st8" />
		</g>
		<g id="shape16-81" transform="translate(342,-171)">
			
			<path d="M0 783 L91.44 783" class="st8" />
		</g>
	</g>
</svg>
