<?xml version="1.0"?>
<svg xmlns="http://www.w3.org/2000/svg" xmlns:xlink="http://www.w3.org/1999/xlink" xmlns:ev="http://www.w3.org/2001/xml-events"    viewBox="36 40 603 545"    xml:space="preserve" color-interpolation-filters="sRGB" class="st13" width="1508" height="1363">
<rect x="0" y="0" width="1508" height="1363" fill="#ffffff" />
	<style type="text/css"><![CDATA[
		.st1 {fill:#f2f2f2;stroke:none;stroke-linecap:round;stroke-linejoin:round;stroke-width:0.75}
		.st2 {fill:#ffffff;stroke:#0078d4;stroke-linecap:round;stroke-linejoin:round;stroke-width:0.24}
		.st3 {fill:#000000;font-family:Calibri;font-size:1.00001em}
		.st4 {fill:#a0a0a0;stroke:none;stroke-linecap:round;stroke-linejoin:round;stroke-width:0.24}
		.st5 {font-size:1em}
		.st6 {fill:#ffffff}
		.st7 {stroke:#0078d4;stroke-linecap:round;stroke-linejoin:round;stroke-width:0.24}
		.st8 {fill:#0078d4;stroke:none;stroke-linecap:round;stroke-linejoin:round;stroke-width:0.24}
		.st9 {fill:#ffffff;font-family:Calibri;font-size:1.00001em}
		.st10 {marker-end:url(#mrkr13-98);stroke:#0078d4;stroke-linecap:round;stroke-linejoin:round;stroke-width:0.75}
		.st11 {fill:#0078d4;fill-opacity:1;stroke:#0078d4;stroke-opacity:1;stroke-width:0.22935779816514}
		.st12 {marker-end:url(#mrkr13-159);stroke:#0078d4;stroke-linecap:round;stroke-linejoin:round;stroke-width:0.75}
		.st13 {fill:none;fill-rule:evenodd;font-size:12px;overflow:visible;stroke-linecap:square;stroke-miterlimit:3}
	]]></style><style> a { pointer-events: none; } </style><style>a.rules_svg_anchor g:hover { opacity:0.8; cursor:pointer; }</style>
	<defs id="Markers">
		<g id="lend13">
			<path d="M 3 1 L 0 0 L 3 -1 L 3 1 " style="stroke:none" />
		</g>
		<marker id="mrkr13-98" class="st11" refX="-13.08" orient="auto" markerUnits="strokeWidth" overflow="visible">
			<use xlink:href="#lend13" transform="scale(-4.36,-4.36) " />
		</marker>
		<marker id="mrkr13-159" class="st11" refX="-0" orient="auto" markerUnits="strokeWidth" overflow="visible">
			<use xlink:href="#lend13" transform="scale(-4.36,-4.36) " />
		</marker>
	</defs>
	<g>
		
		<g id="shape31-1" transform="translate(162,-27)">
			
			<rect x="0" y="135" width="477" height="477" class="st1" />
		</g>
		<g id="shape1-3" transform="translate(36,-522)">
			
			<desc>Start</desc>
			<path d="M18 612 L67.5 612 A18 18 -180 0 0 67.5 576 L18 576 A18 18 -180 1 0 18 612 Z" class="st2" />
			<text x="31.01" y="597.6" class="st3">Start</text>
		</g>
		<a id="358cf9b7-976c-4ded-b1a3-bf449bd578eb" class="rules_svg_anchor rules_svg_shape"   href="/lms/chart?onclick=b3BlbkNoYXJ0Q29udGV4dE1lbnUoZXZlbnQsJ3cxMTZkNTIzNTk2NWMxNzA5M3Y0MDcxJywxODIzMiwgMSwgMSwgdGhpcywgd2luZG93LmZyYW1lRWxlbWVudCk=&amp;navigate=true&amp;details=Description">
			<g id="shape2-6" transform="translate(189,-508.5)">
				
				<desc>60 Inventory to deliver</desc>
				<rect x="0" y="549" width="99" height="63" class="st4" />
				<text x="12.04" y="576.9" class="st3">60 Inventory to <tspan x="32.82" dy="1.2em" class="st5">deliver</tspan>
				</text>
			</g>
		</a>
		<a id="d98981b7-5bf4-477d-86b9-3776b7a03250" class="rules_svg_anchor rules_svg_shape"   href="/lms/chart?onclick=b3BlbkNoYXJ0Q29udGV4dE1lbnUoZXZlbnQsJ3cxMTZkNTIzNTk2NWMxNzEyNnY0MDcxJywxODI2MSwgMSwgMSwgdGhpcywgd2luZG93LmZyYW1lRWxlbWVudCk=&amp;navigate=true&amp;details=Description">
			<g id="shape3-10" transform="translate(333,-508.5)">
				
				<desc>60.50.020 Build a quality plan for a product</desc>
				<path d="M0 612 L126 612 L126 549 L0 549 L0 612 Z" class="st6" />
				<path d="M0 612 L126 612 L126 549 L0 549 L0 612" class="st7" />
				<path d="M9 612 L9 549" class="st7" />
				<path d="M117 612 L117 549" class="st7" />
				<text x="20.77" y="569.7" class="st3">60.50.020 Build a <tspan x="21.76" dy="1.2em" class="st5">quality plan for a </tspan>
					<tspan x="43.74" dy="1.2em" class="st5">product</tspan>
				</text>
			</g>
		</a>
		<a id="20bae101-ba36-4b4f-8c41-820ee9f17488" class="rules_svg_anchor rules_svg_shape"   href="/lms/chart?onclick=b3BlbkNoYXJ0Q29udGV4dE1lbnUoZXZlbnQsJ3cxMTZkNTIzNTk2NWMxNzI2MHY0MDcxJywxODM0OCwgMSwgMSwgdGhpcywgd2luZG93LmZyYW1lRWxlbWVudCk=&amp;navigate=true&amp;details=Description">
			<g id="shape4-18" transform="translate(333,-418.5)">
				
				<desc>70.60 Control production quality</desc>
				<rect x="0" y="549" width="126" height="63" class="st8" />
				<text x="29.81" y="576.9" class="st9">70.60 Control <tspan x="18.03" dy="1.2em" class="st5">production quality</tspan>
				</text>
			</g>
		</a>
		<a id="cedaab1b-2b60-4201-bf8c-234c82b2fc4e" class="rules_svg_anchor rules_svg_shape"   href="/lms/chart?onclick=b3BlbkNoYXJ0Q29udGV4dE1lbnUoZXZlbnQsJ3cxMTZkNTIzNTk2NWMxNzI2MXY0MDcxJywxODM0OSwgMSwgMSwgdGhpcywgd2luZG93LmZyYW1lRWxlbWVudCk=&amp;navigate=true&amp;details=Description">
			<g id="shape5-22" transform="translate(180,-324)">
				
				<desc>70.60.010 Quarantine manufactured goods</desc>
				<path d="M0 612 L126 612 L126 549 L0 549 L0 612 Z" class="st6" />
				<path d="M0 612 L126 612 L126 549 L0 549 L0 612" class="st7" />
				<path d="M9 612 L9 549" class="st7" />
				<path d="M117 612 L117 549" class="st7" />
				<text x="38.68" y="569.7" class="st3">70.60.010 <tspan x="35.29" dy="1.2em" class="st5">Quarantine </tspan>
					<tspan x="12.39" dy="1.2em" class="st5">manufactured goods</tspan>
				</text>
			</g>
		</a>
		<a id="ffe2d5ba-425a-4230-87ce-35f831aa0d56" class="rules_svg_anchor rules_svg_shape"   href="/lms/chart?onclick=b3BlbkNoYXJ0Q29udGV4dE1lbnUoZXZlbnQsJ3cxMTZkNTIzNTk2NWMxNzI2MnY0MDcxJywxODM1MCwgMSwgMSwgdGhpcywgd2luZG93LmZyYW1lRWxlbWVudCk=&amp;navigate=true&amp;details=Description">
			<g id="shape6-30" transform="translate(333,-324)">
				
				<desc>70.60.020 Inspect manufactured goods</desc>
				<path d="M0 612 L126 612 L126 549 L0 549 L0 612 Z" class="st6" />
				<path d="M0 612 L126 612 L126 549 L0 549 L0 612" class="st7" />
				<path d="M9 612 L9 549" class="st7" />
				<path d="M117 612 L117 549" class="st7" />
				<text x="19.63" y="576.9" class="st3">70.60.020 Inspect <tspan x="12.39" dy="1.2em" class="st5">manufactured goods</tspan>
				</text>
			</g>
		</a>
		<a id="af1cbc30-c0a3-4d1e-8a46-fff5a1c15088" class="rules_svg_anchor rules_svg_shape"   href="/lms/chart?onclick=b3BlbkNoYXJ0Q29udGV4dE1lbnUoZXZlbnQsJ3cxMTZkNTIzNTk2NWMxNzI2M3Y0MDcxJywxODM1MSwgMSwgMSwgdGhpcywgd2luZG93LmZyYW1lRWxlbWVudCk=&amp;navigate=true&amp;details=Description">
			<g id="shape7-37" transform="translate(504,-324)">
				
				<desc>70.60.030 Record cost of quality</desc>
				<path d="M0 612 L126 612 L126 549 L0 549 L0 612 Z" class="st6" />
				<path d="M0 612 L126 612 L126 549 L0 549 L0 612" class="st7" />
				<path d="M9 612 L9 549" class="st7" />
				<path d="M117 612 L117 549" class="st7" />
				<text x="20.14" y="576.9" class="st3">70.60.030 Record <tspan x="28.58" dy="1.2em" class="st5">cost of quality</tspan>
				</text>
			</g>
		</a>
		<a id="6aefc394-7498-4674-bdf3-74d3f5aff100" class="rules_svg_anchor rules_svg_shape"   href="/lms/chart?onclick=b3BlbkNoYXJ0Q29udGV4dE1lbnUoZXZlbnQsJ3cxMTZkNTIzNTk2NWMxNzI2NHY0MDcxJywxODM1MiwgMSwgMSwgdGhpcywgd2luZG93LmZyYW1lRWxlbWVudCk=&amp;navigate=true&amp;details=Description">
			<g id="shape8-44" transform="translate(333,-243)">
				
				<desc>70.60.040 Report quality test results</desc>
				<path d="M0 612 L126 612 L126 549 L0 549 L0 612 Z" class="st6" />
				<path d="M0 612 L126 612 L126 549 L0 549 L0 612" class="st7" />
				<path d="M9 612 L9 549" class="st7" />
				<path d="M117 612 L117 549" class="st7" />
				<text x="20.67" y="576.9" class="st3">70.60.040 Report <tspan x="17.97" dy="1.2em" class="st5">quality test results</tspan>
				</text>
			</g>
		</a>
		<a id="66c6c81e-cda6-440b-894c-d98a09ecf22d" class="rules_svg_anchor rules_svg_shape"   href="/lms/chart?onclick=b3BlbkNoYXJ0Q29udGV4dE1lbnUoZXZlbnQsJ3cxMTZkNTIzNTk2NWMxNzI2NnY0MDcxJywxODM1MywgMSwgMSwgdGhpcywgd2luZG93LmZyYW1lRWxlbWVudCk=&amp;navigate=true&amp;details=Description">
			<g id="shape9-51" transform="translate(243,-162)">
				
				<desc>70.60.060 Rework defective inventory</desc>
				<path d="M0 612 L126 612 L126 549 L0 549 L0 612 Z" class="st6" />
				<path d="M0 612 L126 612 L126 549 L0 549 L0 612" class="st7" />
				<path d="M9 612 L9 549" class="st7" />
				<path d="M117 612 L117 549" class="st7" />
				<text x="18.81" y="576.9" class="st3">70.60.060 Rework <tspan x="15.71" dy="1.2em" class="st5">defective inventory</tspan>
				</text>
			</g>
		</a>
		<a id="0db58796-7bec-477f-acf7-e07433e3c509" class="rules_svg_anchor rules_svg_shape"   href="/lms/chart?onclick=b3BlbkNoYXJ0Q29udGV4dE1lbnUoZXZlbnQsJ3cxMTZkNTIzNTk2NWMxNzI2N3Y0MDcxJywxODM1NSwgMSwgMSwgdGhpcywgd2luZG93LmZyYW1lRWxlbWVudCk=&amp;navigate=true&amp;details=Description">
			<g id="shape10-58" transform="translate(423,-162)">
				
				<desc>70.60.070 Report production quality non-conformance</desc>
				<path d="M0 612 L126 612 L126 549 L0 549 L0 612 Z" class="st6" />
				<path d="M0 612 L126 612 L126 549 L0 549 L0 612" class="st7" />
				<path d="M9 612 L9 549" class="st7" />
				<path d="M117 612 L117 549" class="st7" />
				<text x="20.67" y="569.7" class="st3">70.60.070 Report <tspan x="18.03" dy="1.2em" class="st5">production quality </tspan>
					<tspan x="19.41" dy="1.2em" class="st5">non</tspan>-conformance</text>
			</g>
		</a>
		<a id="d36e8700-52a9-4cb3-9146-4e8b2323c20b" class="rules_svg_anchor rules_svg_shape"   href="/lms/chart?onclick=b3BlbkNoYXJ0Q29udGV4dE1lbnUoZXZlbnQsJ3cxMTZkNTIzNTk2NWMxNzI2OHY0MDcxJywxODM1NiwgMSwgMSwgdGhpcywgd2luZG93LmZyYW1lRWxlbWVudCk=&amp;navigate=true&amp;details=Description">
			<g id="shape11-66" transform="translate(423,-81)">
				
				<desc>70.60.080 Implement corrective and preventative actions</desc>
				<path d="M0 612 L126 612 L126 549 L0 549 L0 612 Z" class="st6" />
				<path d="M0 612 L126 612 L126 549 L0 549 L0 612" class="st7" />
				<path d="M9 612 L9 549" class="st7" />
				<path d="M117 612 L117 549" class="st7" />
				<text x="38.68" y="562.5" class="st3">70.60.080 <tspan x="36.24" dy="1.2em" class="st5">Implement </tspan>
					<tspan x="27.98" dy="1.2em" class="st5">corrective and </tspan>
					<tspan x="13.14" dy="1.2em" class="st5">preventative actions</tspan>
				</text>
			</g>
		</a>
		<a id="bb86214b-705c-4a85-89ed-e48c5e525584" class="rules_svg_anchor rules_svg_shape"   href="/lms/chart?onclick=b3BlbkNoYXJ0Q29udGV4dE1lbnUoZXZlbnQsJ3cxMTZkNTIzNTk2NWMzMDg5OXY0MDcxJywxODM1NCwgMSwgMSwgdGhpcywgd2luZG93LmZyYW1lRWxlbWVudCk=&amp;navigate=true&amp;details=Description">
			<g id="shape12-75" transform="translate(243,-81)">
				
				<desc>70.60.065 Scrap defective production</desc>
				<path d="M0 612 L126 612 L126 549 L0 549 L0 612 Z" class="st6" />
				<path d="M0 612 L126 612 L126 549 L0 549 L0 612" class="st7" />
				<path d="M9 612 L9 549" class="st7" />
				<path d="M117 612 L117 549" class="st7" />
				<text x="23.92" y="576.9" class="st3">70.60.065 Scrap <tspan x="12.12" dy="1.2em" class="st5">defective production</tspan>
				</text>
			</g>
		</a>
		<g id="shape13-82" transform="translate(357.75,-27)">
			
			<desc>End</desc>
			<path d="M18 612 L67.5 612 A18 18 -180 0 0 67.5 576 L18 576 A18 18 -180 1 0 18 612 Z" class="st2" />
			<text x="33.52" y="597.6" class="st3">End</text>
		</g>
		<a id="6a1c5dbd-d6b5-4dc1-89cd-c4bde3c96d8c" class="rules_svg_anchor rules_svg_shape"   href="/lms/chart?onclick=b3BlbkNoYXJ0Q29udGV4dE1lbnUoZXZlbnQsJ3cxMTZkNTIzNTk2NWMxNzIzMHY0MDcxJywxODMyNywgMSwgMSwgdGhpcywgd2luZG93LmZyYW1lRWxlbWVudCk=&amp;navigate=true&amp;details=Description">
			<g id="shape14-85" transform="translate(36,-432)">
				
				<desc>70 Plan to produce</desc>
				<rect x="0" y="549" width="99" height="63" class="st4" />
				<text x="3.44" y="584.1" class="st3">70 Plan to produce</text>
			</g>
		</a>
		<a id="44eebfa2-c6cd-4841-b6aa-0d727acb1ab7" class="rules_svg_anchor rules_svg_shape"   href="/lms/chart?onclick=b3BlbkNoYXJ0Q29udGV4dE1lbnUoZXZlbnQsJ3cxMTZkNTIzNTk2NWMxNzI0M3Y0MDcxJywxODM0MCwgMSwgMSwgdGhpcywgd2luZG93LmZyYW1lRWxlbWVudCk=&amp;navigate=true&amp;details=Description">
			<g id="shape15-88" transform="translate(36,-342)">
				
				<desc>70.30 Run production operations</desc>
				<rect x="0" y="549" width="99" height="63" class="st8" />
				<text x="24.9" y="569.7" class="st9">70.30 Run <tspan x="22.55" dy="1.2em" class="st5">production </tspan>
					<tspan x="23.18" dy="1.2em" class="st5">operations</tspan>
				</text>
			</g>
		</a>
		<g id="shape17-93" transform="translate(121.5,-531)">
			
			<path d="M0 603 L57.69 603" class="st10" />
		</g>
		<g id="shape18-99" transform="translate(288,-531)">
			
			<path d="M0 603 L35.19 603" class="st10" />
		</g>
		<g id="shape19-104" transform="translate(387,-508.5)">
			
			<path d="M9 612 L9 629.19" class="st10" />
		</g>
		<g id="shape20-109" transform="translate(387,-418.5)">
			
			<path d="M9 612 L9 633.69" class="st10" />
		</g>
		<g id="shape21-114" transform="translate(396,-418.5)">
			
			<path d="M0 612 L0 629.66 L-153 629.66 L-153 633.69" class="st10" />
		</g>
		<g id="shape22-119" transform="translate(306,-346.5)">
			
			<path d="M0 603 L17.19 603" class="st10" />
		</g>
		<g id="shape23-124" transform="translate(459,-346.5)">
			
			<path d="M0 603 L35.19 603" class="st10" />
		</g>
		<g id="shape24-129" transform="translate(387,-324)">
			
			<path d="M9 612 L9 620.19" class="st10" />
		</g>
		<g id="shape25-134" transform="translate(396,-243)">
			
			<path d="M0 612 L0 619.22 L-90 619.22 L-90 620.19" class="st10" />
		</g>
		<g id="shape26-139" transform="translate(396,-243)">
			
			<path d="M0 612 L0 619.13 L90 619.13 L90 620.19" class="st10" />
		</g>
		<g id="shape27-144" transform="translate(297,-162)">
			
			<path d="M9 612 L9 620.19" class="st10" />
		</g>
		<g id="shape28-149" transform="translate(477,-162)">
			
			<path d="M9 612 L9 620.19" class="st10" />
		</g>
		<g id="shape29-154" transform="translate(306,-81)">
			
			<path d="M0 612 L0 639 L51.75 639 L51.75 648" class="st12" />
		</g>
		<g id="shape30-160" transform="translate(486,-81)">
			
			<path d="M0 612 L0 648 L-32.94 648" class="st10" />
		</g>
		<g id="shape32-165" transform="translate(73.125,-522)">
			
			<path d="M5.62 612 L5.62 620.83 L12.38 620.83 L12.38 629.19" class="st10" />
		</g>
		<g id="shape33-170" transform="translate(76.5,-432)">
			
			<path d="M9 612 L9 629.19" class="st10" />
		</g>
		<g id="shape35-175" transform="translate(243,-193.5)">
			
			<path d="M0 612 L-157.5 612 L-157.5 473.31" class="st10" />
		</g>
		<g id="shape36-180" transform="translate(135,-373.5)">
			
			<path d="M0 612 L17.66 612 L17.66 535.5 L188.19 535.5" class="st10" />
		</g>
	</g>
</svg>
