<?xml version="1.0"?>
<svg xmlns="http://www.w3.org/2000/svg" xmlns:xlink="http://www.w3.org/1999/xlink" xmlns:ev="http://www.w3.org/2001/xml-events"    viewBox="33 22 712 891"    xml:space="preserve" color-interpolation-filters="sRGB" class="st11" width="1780" height="2228">
<rect x="0" y="0" width="1780" height="2228" fill="#ffffff" />
	<style type="text/css"><![CDATA[
		.st1 {fill:#ffffff;stroke:#0078d4;stroke-linecap:round;stroke-linejoin:round;stroke-width:0.24}
		.st2 {fill:#000000;font-family:Calibri;font-size:1.00001em}
		.st3 {fill:#a0a0a0;stroke:none;stroke-linecap:round;stroke-linejoin:round;stroke-width:0.24}
		.st4 {font-size:1em}
		.st5 {fill:#0078d4;stroke:none;stroke-linecap:round;stroke-linejoin:round;stroke-width:0.24}
		.st6 {fill:#ffffff;font-family:Calibri;font-size:1.00001em}
		.st7 {fill:#ffffff}
		.st8 {stroke:#0078d4;stroke-linecap:round;stroke-linejoin:round;stroke-width:0.24}
		.st9 {marker-end:url(#mrkr13-131);stroke:#0078d4;stroke-linecap:round;stroke-linejoin:round;stroke-width:0.75}
		.st10 {fill:#0078d4;fill-opacity:1;stroke:#0078d4;stroke-opacity:1;stroke-width:0.22935779816514}
		.st11 {fill:none;fill-rule:evenodd;font-size:12px;overflow:visible;stroke-linecap:square;stroke-miterlimit:3}
	]]></style><style> a { pointer-events: none; } </style><style>a.rules_svg_anchor g:hover { opacity:0.8; cursor:pointer; }</style>
	<defs id="Markers">
		<g id="lend13">
			<path d="M 3 1 L 0 0 L 3 -1 L 3 1 " style="stroke:none" />
		</g>
		<marker id="mrkr13-131" class="st10" refX="-13.08" orient="auto" markerUnits="strokeWidth" overflow="visible">
			<use xlink:href="#lend13" transform="scale(-4.36,-4.36) " />
		</marker>
	</defs>
	<g>
		
		<g id="shape1-1" transform="translate(32.625,-1116)">
			
			<desc>Start</desc>
			<path d="M18 1188 L60.75 1188 A18 18 -180 0 0 60.75 1152 L18 1152 A18 18 -180 1 0 18 1188 Z" class="st1" />
			<text x="27.63" y="1173.6" class="st2">Start</text>
		</g>
		<a id="1e1dbde3-0e71-4b09-b23c-2ac76ff60250" class="rules_svg_anchor rules_svg_shape"   href="/lms/chart?onclick=b3BlbkNoYXJ0Q29udGV4dE1lbnUoZXZlbnQsJ3cxMTZkNTIzNTk2NWMxNjk0NHY0MDcxJywxODA4MSwgMSwgMSwgdGhpcywgd2luZG93LmZyYW1lRWxlbWVudCk=&amp;navigate=true&amp;details=Description">
			<g id="shape2-4" transform="translate(101.25,-1044)">
				
				<desc>40 Design to retire</desc>
				<rect x="0" y="1125" width="78.75" height="63" class="st3" />
				<text x="9.03" y="1152.9" class="st2">40 Design to <tspan x="25.83" dy="1.2em" class="st4">retire</tspan>
				</text>
			</g>
		</a>
		<a id="4dee7063-d853-4bdf-a046-0f5debd4bdf7" class="rules_svg_anchor rules_svg_shape"   href="/lms/chart?onclick=b3BlbkNoYXJ0Q29udGV4dE1lbnUoZXZlbnQsJ3cxMTZkNTIzNTk2NWMxNzM3NnY0MDcxJywxODQ1NSwgMSwgMSwgdGhpcywgd2luZG93LmZyYW1lRWxlbWVudCk=&amp;navigate=true&amp;details=Description">
			<g id="shape3-8" transform="translate(101.25,-958.5)">
				
				<desc>85 Prospect to quote</desc>
				<rect x="0" y="1125" width="78.75" height="63" class="st3" />
				<text x="4.02" y="1152.9" class="st2">85 Prospect to <tspan x="24.91" dy="1.2em" class="st4">quote</tspan>
				</text>
			</g>
		</a>
		<a id="f4bf4ea8-5d5a-40c6-ac54-1352662f8406" class="rules_svg_anchor rules_svg_shape"   href="/lms/chart?onclick=b3BlbkNoYXJ0Q29udGV4dE1lbnUoZXZlbnQsJ3cxMTZkNTIzNTk2NWMxNzMxOXY0MDcxJywxODQxMiwgMSwgMSwgdGhpcywgd2luZG93LmZyYW1lRWxlbWVudCk=&amp;navigate=true&amp;details=Description">
			<g id="shape4-12" transform="translate(101.25,-873)">
				
				<desc>80 Project to profit</desc>
				<rect x="0" y="1125" width="78.75" height="63" class="st3" />
				<text x="8.08" y="1152.9" class="st2">80 Project to <tspan x="25.75" dy="1.2em" class="st4">profit</tspan>
				</text>
			</g>
		</a>
		<a id="76a1bd0f-72f4-40b2-9a00-95120d0db49c" class="rules_svg_anchor rules_svg_shape"   href="/lms/chart?onclick=b3BlbkNoYXJ0Q29udGV4dE1lbnUoZXZlbnQsJ3cxMTZkNTIzNTk2NWMxNzAyMHY0MDcxJywxODE2OCwgMSwgMSwgdGhpcywgd2luZG93LmZyYW1lRWxlbWVudCk=&amp;navigate=true&amp;details=Description">
			<g id="shape5-16" transform="translate(101.25,-787.5)">
				
				<desc>55 Hire to retire</desc>
				<rect x="0" y="1125" width="78.75" height="63" class="st3" />
				<text x="15.21" y="1152.9" class="st2">55 Hire to <tspan x="25.83" dy="1.2em" class="st4">retire</tspan>
				</text>
			</g>
		</a>
		<a id="c9fba98d-43bb-4215-b41b-7b2963093910" class="rules_svg_anchor rules_svg_shape"   href="/lms/chart?onclick=b3BlbkNoYXJ0Q29udGV4dE1lbnUoZXZlbnQsJ3cxMTZkNTIzNTk2NWMxNzA5M3Y0MDcxJywxODIzMiwgMSwgMSwgdGhpcywgd2luZG93LmZyYW1lRWxlbWVudCk=&amp;navigate=true&amp;details=Description">
			<g id="shape6-20" transform="translate(101.25,-702)">
				
				<desc>60 Inventory to deliver</desc>
				<rect x="0" y="1125" width="78.75" height="63" class="st3" />
				<text x="8.44" y="1152.9" class="st2">60 Inventory <tspan x="16.17" dy="1.2em" class="st4">to deliver</tspan>
				</text>
			</g>
		</a>
		<a id="39611462-ef11-4225-8b3b-9e181178e845" class="rules_svg_anchor rules_svg_shape"   href="/lms/chart?onclick=b3BlbkNoYXJ0Q29udGV4dE1lbnUoZXZlbnQsJ3cxMTZkNTIzNTk2NWMxNzI2OXY0MDcxJywxODM2MywgMSwgMSwgdGhpcywgd2luZG93LmZyYW1lRWxlbWVudCk=&amp;navigate=true&amp;details=Description">
			<g id="shape7-24" transform="translate(101.25,-616.5)">
				
				<desc>75 Source to pay</desc>
				<rect x="0" y="1125" width="78.75" height="63" class="st3" />
				<text x="8.72" y="1152.9" class="st2">75 Source to <tspan x="30.63" dy="1.2em" class="st4">pay</tspan>
				</text>
			</g>
		</a>
		<a id="e99d0bf2-b03d-4975-8cd2-9783c6c62ccc" class="rules_svg_anchor rules_svg_shape"   href="/lms/chart?onclick=b3BlbkNoYXJ0Q29udGV4dE1lbnUoZXZlbnQsJ3cxMTZkNTIzNTk2NWMxNjk5MnY0MDcxJywxODExOCwgMSwgMSwgdGhpcywgd2luZG93LmZyYW1lRWxlbWVudCk=&amp;navigate=true&amp;details=Description">
			<g id="shape8-28" transform="translate(101.25,-531)">
				
				<desc>50 Forecast to plan</desc>
				<rect x="0" y="1125" width="78.75" height="63" class="st3" />
				<text x="4.64" y="1152.9" class="st2">50 Forecast to <tspan x="28.82" dy="1.2em" class="st4">plan</tspan>
				</text>
			</g>
		</a>
		<a id="fcc73d77-663d-4dd0-b50d-a968f6a893a5" class="rules_svg_anchor rules_svg_shape"   href="/lms/chart?onclick=b3BlbkNoYXJ0Q29udGV4dE1lbnUoZXZlbnQsJ3cxMTZkNTIzNTk2NWMxNzE1NXY0MDcxJywxODI4MSwgMSwgMSwgdGhpcywgd2luZG93LmZyYW1lRWxlbWVudCk=&amp;navigate=true&amp;details=Description">
			<g id="shape9-32" transform="translate(101.25,-445.5)">
				
				<desc>65 Order to cash</desc>
				<rect x="0" y="1125" width="78.75" height="63" class="st3" />
				<text x="11.11" y="1152.9" class="st2">65 Order to <tspan x="28.46" dy="1.2em" class="st4">cash</tspan>
				</text>
			</g>
		</a>
		<a id="efcbdec9-34d1-45ed-be67-7e8d9164b22f" class="rules_svg_anchor rules_svg_shape"   href="/lms/chart?onclick=b3BlbkNoYXJ0Q29udGV4dE1lbnUoZXZlbnQsJ3cxMTZkNTIzNTk2NWMxNjgwMnY0MDcxJywxNzk0OSwgMSwgNCwgdGhpcywgd2luZG93LmZyYW1lRWxlbWVudCk=&amp;navigate=true&amp;details=Description">
			<g id="shape10-36" transform="translate(101.25,-360)">
				
				<desc>10 Acquire to dispose</desc>
				<rect x="0" y="1125" width="78.75" height="63" class="st3" />
				<text x="6.64" y="1152.9" class="st2">10 Acquire to <tspan x="20.85" dy="1.2em" class="st4">dispose</tspan>
				</text>
			</g>
		</a>
		<a id="8c85f824-8d02-4f58-a4b9-dc7b2b0103a5" class="rules_svg_anchor rules_svg_shape"   href="/lms/chart?onclick=b3BlbkNoYXJ0Q29udGV4dE1lbnUoZXZlbnQsJ3cxMTZkNTIzNTk2NWMxNzQxMnY0MDcxJywxODQ2MSwgMSwgMSwgdGhpcywgd2luZG93LmZyYW1lRWxlbWVudCk=&amp;navigate=true&amp;details=Description">
			<g id="shape11-40" transform="translate(101.25,-274.5)">
				
				<desc>90 Record to report</desc>
				<rect x="0" y="1125" width="78.75" height="63" class="st3" />
				<text x="8.22" y="1152.9" class="st2">90 Record to <tspan x="23.88" dy="1.2em" class="st4">report</tspan>
				</text>
			</g>
		</a>
		<a id="cec51ecd-9f0a-4f10-9898-72491c57a396" class="rules_svg_anchor rules_svg_shape"   href="/lms/chart?onclick=b3BlbkNoYXJ0Q29udGV4dE1lbnUoZXZlbnQsJ3cxMTZkNTIzNTk2NWMxNzIzMHY0MDcxJywxODMyNywgMSwgMSwgdGhpcywgd2luZG93LmZyYW1lRWxlbWVudCk=&amp;navigate=true&amp;details=Description">
			<g id="shape12-44" transform="translate(258.75,-1102.5)">
				
				<desc>70 Plan to produce</desc>
				<rect x="0" y="1125" width="99" height="63" class="st5" />
				<text x="3.44" y="1160.1" class="st6">70 Plan to produce</text>
			</g>
		</a>
		<a id="80b7b91f-8696-4b47-82ac-687139590e0e" class="rules_svg_anchor rules_svg_shape"   href="/lms/chart?onclick=b3BlbkNoYXJ0Q29udGV4dE1lbnUoZXZlbnQsJ3cxMTZkNTIzNTk2NWMxNzIzMXY0MDcxJywxODMyOCwgMSwgMSwgdGhpcywgd2luZG93LmZyYW1lRWxlbWVudCk=&amp;navigate=true&amp;details=Description">
			<g id="shape13-47" transform="translate(258.75,-999)">
				
				<desc>70.10 Develop production strategies</desc>
				<path d="M0 1188 L99 1188 L99 1125 L0 1125 L0 1188 Z" class="st7" />
				<path d="M0 1188 L99 1188 L99 1125 L0 1125 L0 1188" class="st8" />
				<path d="M9 1188 L9 1125" class="st8" />
				<path d="M90 1188 L90 1125" class="st8" />
				<text x="14.4" y="1145.7" class="st2">70.10 Develop <tspan x="22.55" dy="1.2em" class="st4">production </tspan>
					<tspan x="25.65" dy="1.2em" class="st4">strategies</tspan>
				</text>
			</g>
		</a>
		<a id="c0d676ef-367b-4d80-a597-a2b77b19afd0" class="rules_svg_anchor rules_svg_shape"   href="/lms/chart?onclick=b3BlbkNoYXJ0Q29udGV4dE1lbnUoZXZlbnQsJ3cxMTZkNTIzNTk2NWMxNzIzOHY0MDcxJywxODMzNCwgMSwgMSwgdGhpcywgd2luZG93LmZyYW1lRWxlbWVudCk=&amp;navigate=true&amp;details=Description">
			<g id="shape14-55" transform="translate(258.75,-873)">
				
				<desc>70.20 Plan production operations</desc>
				<path d="M0 1188 L99 1188 L99 1125 L0 1125 L0 1188 Z" class="st7" />
				<path d="M0 1188 L99 1188 L99 1125 L0 1125 L0 1188" class="st8" />
				<path d="M9 1188 L9 1125" class="st8" />
				<path d="M90 1188 L90 1125" class="st8" />
				<text x="23.96" y="1145.7" class="st2">70.20 Plan <tspan x="22.55" dy="1.2em" class="st4">production </tspan>
					<tspan x="23.18" dy="1.2em" class="st4">operations</tspan>
				</text>
			</g>
		</a>
		<a id="be264eff-976d-4fc8-b80a-a0b837d4d349" class="rules_svg_anchor rules_svg_shape"   href="/lms/chart?onclick=b3BlbkNoYXJ0Q29udGV4dE1lbnUoZXZlbnQsJ3cxMTZkNTIzNTk2NWMxNzI0M3Y0MDcxJywxODM0MCwgMSwgMSwgdGhpcywgd2luZG93LmZyYW1lRWxlbWVudCk=&amp;navigate=true&amp;details=Description">
			<g id="shape15-63" transform="translate(258.75,-702)">
				
				<desc>70.30 Run production operations</desc>
				<path d="M0 1188 L99 1188 L99 1125 L0 1125 L0 1188 Z" class="st7" />
				<path d="M0 1188 L99 1188 L99 1125 L0 1125 L0 1188" class="st8" />
				<path d="M9 1188 L9 1125" class="st8" />
				<path d="M90 1188 L90 1125" class="st8" />
				<text x="24.9" y="1145.7" class="st2">70.30 Run <tspan x="22.55" dy="1.2em" class="st4">production </tspan>
					<tspan x="23.18" dy="1.2em" class="st4">operations</tspan>
				</text>
			</g>
		</a>
		<a id="7ab27c4a-937f-49e2-a70f-6ff6a04112ea" class="rules_svg_anchor rules_svg_shape"   href="/lms/chart?onclick=b3BlbkNoYXJ0Q29udGV4dE1lbnUoZXZlbnQsJ3cxMTZkNTIzNTk2NWMxNzI2MHY0MDcxJywxODM0OCwgMSwgMSwgdGhpcywgd2luZG93LmZyYW1lRWxlbWVudCk=&amp;navigate=true&amp;details=Description">
			<g id="shape17-71" transform="translate(258.75,-445.5)">
				
				<desc>70.60 Control production quality</desc>
				<path d="M0 1188 L99 1188 L99 1125 L0 1125 L0 1188 Z" class="st7" />
				<path d="M0 1188 L99 1188 L99 1125 L0 1125 L0 1188" class="st8" />
				<path d="M9 1188 L9 1125" class="st8" />
				<path d="M90 1188 L90 1125" class="st8" />
				<text x="16.31" y="1145.7" class="st2">70.60 Control <tspan x="22.55" dy="1.2em" class="st4">production </tspan>
					<tspan x="32.84" dy="1.2em" class="st4">quality</tspan>
				</text>
			</g>
		</a>
		<a id="707fe910-9547-4bd1-9fe0-d5f936c4bc97" class="rules_svg_anchor rules_svg_shape"   href="/lms/chart?onclick=b3BlbkNoYXJ0Q29udGV4dE1lbnUoZXZlbnQsJ3cxMTZkNTIzNTk2NWM1NDY5MXY0MDcxJywxODM1NywgMSwgMSwgdGhpcywgd2luZG93LmZyYW1lRWxlbWVudCk=&amp;navigate=true&amp;details=Description">
			<g id="shape18-79" transform="translate(258.75,-274.5)">
				
				<desc>70.70 Analyze production operations</desc>
				<path d="M0 1188 L99 1188 L99 1125 L0 1125 L0 1188 Z" class="st7" />
				<path d="M0 1188 L99 1188 L99 1125 L0 1125 L0 1188" class="st8" />
				<path d="M9 1188 L9 1125" class="st8" />
				<path d="M90 1188 L90 1125" class="st8" />
				<text x="15.52" y="1145.7" class="st2">70.70 Analyze <tspan x="22.55" dy="1.2em" class="st4">production </tspan>
					<tspan x="23.18" dy="1.2em" class="st4">operations</tspan>
				</text>
			</g>
		</a>
		<a id="ef1fd1af-248c-4dba-8238-e57b00e05950" class="rules_svg_anchor rules_svg_shape"   href="/lms/chart?onclick=b3BlbkNoYXJ0Q29udGV4dE1lbnUoZXZlbnQsJ3cxMTZkNTIzNTk2NWMxNzQxMnY0MDcxJywxODQ2MSwgMSwgMSwgdGhpcywgd2luZG93LmZyYW1lRWxlbWVudCk=&amp;navigate=true&amp;details=Description">
			<g id="shape19-87" transform="translate(436.5,-274.5)">
				
				<desc>90 Record to report</desc>
				<rect x="0" y="1125" width="78.75" height="63" class="st3" />
				<text x="8.22" y="1152.9" class="st2">90 Record to <tspan x="23.88" dy="1.2em" class="st4">report</tspan>
				</text>
			</g>
		</a>
		<a id="5a545f4b-3c1e-477d-9b24-11a99a480352" class="rules_svg_anchor rules_svg_shape"   href="/lms/chart?onclick=b3BlbkNoYXJ0Q29udGV4dE1lbnUoZXZlbnQsJ3cxMTZkNTIzNTk2NWMxNjg1N3Y0MDcxJywxODAwMSwgMSwgMSwgdGhpcywgd2luZG93LmZyYW1lRWxlbWVudCk=&amp;navigate=true&amp;details=Description">
			<g id="shape20-91" transform="translate(436.5,-364.5)">
				
				<desc>20 Case to resolution</desc>
				<rect x="0" y="1125" width="78.75" height="63" class="st3" />
				<text x="14" y="1152.9" class="st2">20 Case to <tspan x="14.55" dy="1.2em" class="st4">resolution</tspan>
				</text>
			</g>
		</a>
		<a id="4c13ab04-b4a3-44c6-ab65-88fd2dcbb2d2" class="rules_svg_anchor rules_svg_shape"   href="/lms/chart?onclick=b3BlbkNoYXJ0Q29udGV4dE1lbnUoZXZlbnQsJ3cxMTZkNTIzNTk2NWMxNzMxOXY0MDcxJywxODQxMiwgMSwgMSwgdGhpcywgd2luZG93LmZyYW1lRWxlbWVudCk=&amp;navigate=true&amp;details=Description">
			<g id="shape21-95" transform="translate(436.5,-472.5)">
				
				<desc>80 Project to profit</desc>
				<rect x="0" y="1125" width="78.75" height="63" class="st3" />
				<text x="8.08" y="1152.9" class="st2">80 Project to <tspan x="25.75" dy="1.2em" class="st4">profit</tspan>
				</text>
			</g>
		</a>
		<a id="ecd204fc-584c-462d-8f97-302352852e5c" class="rules_svg_anchor rules_svg_shape"   href="/lms/chart?onclick=b3BlbkNoYXJ0Q29udGV4dE1lbnUoZXZlbnQsJ3cxMTZkNTIzNTk2NWMxNzA5M3Y0MDcxJywxODIzMiwgMSwgMSwgdGhpcywgd2luZG93LmZyYW1lRWxlbWVudCk=&amp;navigate=true&amp;details=Description">
			<g id="shape22-99" transform="translate(436.5,-571.5)">
				
				<desc>60 Inventory to deliver</desc>
				<rect x="0" y="1125" width="78.75" height="63" class="st3" />
				<text x="8.44" y="1152.9" class="st2">60 Inventory <tspan x="16.17" dy="1.2em" class="st4">to deliver</tspan>
				</text>
			</g>
		</a>
		<a id="86314786-4a81-4d90-bbb6-aa10a8eea2c5" class="rules_svg_anchor rules_svg_shape"   href="/lms/chart?onclick=b3BlbkNoYXJ0Q29udGV4dE1lbnUoZXZlbnQsJ3cxMTZkNTIzNTk2NWMxNjk5MnY0MDcxJywxODExOCwgMSwgMSwgdGhpcywgd2luZG93LmZyYW1lRWxlbWVudCk=&amp;navigate=true&amp;details=Description">
			<g id="shape23-103" transform="translate(436.5,-670.5)">
				
				<desc>50 Forecast to plan</desc>
				<rect x="0" y="1125" width="78.75" height="63" class="st3" />
				<text x="4.64" y="1152.9" class="st2">50 Forecast to <tspan x="28.82" dy="1.2em" class="st4">plan</tspan>
				</text>
			</g>
		</a>
		<a id="80cefb77-a28f-4c8b-9a66-5dbc7a8414b1" class="rules_svg_anchor rules_svg_shape"   href="/lms/chart?onclick=b3BlbkNoYXJ0Q29udGV4dE1lbnUoZXZlbnQsJ3cxMTZkNTIzNTk2NWMxNzI2OXY0MDcxJywxODM2MywgMSwgMSwgdGhpcywgd2luZG93LmZyYW1lRWxlbWVudCk=&amp;navigate=true&amp;details=Description">
			<g id="shape24-107" transform="translate(436.5,-769.5)">
				
				<desc>75 Source to pay</desc>
				<rect x="0" y="1125" width="78.75" height="63" class="st3" />
				<text x="8.72" y="1152.9" class="st2">75 Source to <tspan x="30.63" dy="1.2em" class="st4">pay</tspan>
				</text>
			</g>
		</a>
		<a id="98268a66-f675-46bc-8400-0efe7ee57918" class="rules_svg_anchor rules_svg_shape"   href="/lms/chart?onclick=b3BlbkNoYXJ0Q29udGV4dE1lbnUoZXZlbnQsJ3cxMTZkNTIzNTk2NWMxNjgwMnY0MDcxJywxNzk0OSwgMSwgNCwgdGhpcywgd2luZG93LmZyYW1lRWxlbWVudCk=&amp;navigate=true&amp;details=Description">
			<g id="shape25-111" transform="translate(436.5,-873)">
				
				<desc>10 Acquire to dispose</desc>
				<rect x="0" y="1125" width="78.75" height="63" class="st3" />
				<text x="6.64" y="1152.9" class="st2">10 Acquire to <tspan x="20.85" dy="1.2em" class="st4">dispose</tspan>
				</text>
			</g>
		</a>
		<a id="44d67654-0349-4cc5-8512-aaccec217d85" class="rules_svg_anchor rules_svg_shape"   href="/lms/chart?onclick=b3BlbkNoYXJ0Q29udGV4dE1lbnUoZXZlbnQsJ3cxMTZkNTIzNTk2NWMxNzE1NXY0MDcxJywxODI4MSwgMSwgMSwgdGhpcywgd2luZG93LmZyYW1lRWxlbWVudCk=&amp;navigate=true&amp;details=Description">
			<g id="shape26-115" transform="translate(594,-612)">
				
				<desc>65 Order to cash</desc>
				<rect x="0" y="1125" width="78.75" height="63" class="st3" />
				<text x="11.11" y="1152.9" class="st2">65 Order to <tspan x="28.46" dy="1.2em" class="st4">cash</tspan>
				</text>
			</g>
		</a>
		<a id="162dc1c5-7ca2-4854-b998-6dce03530df7" class="rules_svg_anchor rules_svg_shape"   href="/lms/chart?onclick=b3BlbkNoYXJ0Q29udGV4dE1lbnUoZXZlbnQsJ3cxMTZkNTIzNTk2NWMxNzQ5NnY0MDcxJywxODUxNiwgMSwgMSwgdGhpcywgd2luZG93LmZyYW1lRWxlbWVudCk=&amp;navigate=true&amp;details=Description">
			<g id="shape27-119" transform="translate(594,-522)">
				
				<desc>95 Service to deliver</desc>
				<rect x="0" y="1125" width="78.75" height="63" class="st3" />
				<text x="7.96" y="1152.9" class="st2">95 Service to <tspan x="22.7" dy="1.2em" class="st4">deliver</tspan>
				</text>
			</g>
		</a>
		<g id="shape28-123" transform="translate(666,-288)">
			
			<desc>End</desc>
			<path d="M18 1188 L60.75 1188 A18 18 -180 0 0 60.75 1152 L18 1152 A18 18 -180 1 0 18 1188 Z" class="st1" />
			<text x="30.14" y="1173.6" class="st2">End</text>
		</g>
		<g id="shape29-126" transform="translate(111.375,-1143)">
			
			<path d="M0 1197 L67.5 1197 L137.56 1197" class="st9" />
		</g>
		<g id="shape30-132" transform="translate(72,-1116)">
			
			<path d="M0 1188 L0 1228.5 L19.44 1228.5" class="st9" />
		</g>
		<g id="shape31-137" transform="translate(72,-1116)">
			
			<path d="M0 1188 L0 1314 L19.44 1314" class="st9" />
		</g>
		<g id="shape32-142" transform="translate(72,-1116)">
			
			<path d="M0 1188 L0 1399.5 L19.44 1399.5" class="st9" />
		</g>
		<g id="shape33-147" transform="translate(72,-1116)">
			
			<path d="M0 1188 L0 1485 L19.44 1485" class="st9" />
		</g>
		<g id="shape34-152" transform="translate(72,-1116)">
			
			<path d="M0 1188 L0 1570.5 L19.44 1570.5" class="st9" />
		</g>
		<g id="shape35-157" transform="translate(72,-1116)">
			
			<path d="M0 1188 L0 1656 L19.44 1656" class="st9" />
		</g>
		<g id="shape36-162" transform="translate(72,-1116)">
			
			<path d="M0 1188 L0 1741.5 L19.44 1741.5" class="st9" />
		</g>
		<g id="shape37-167" transform="translate(72,-1116)">
			
			<path d="M0 1188 L0 1827 L19.44 1827" class="st9" />
		</g>
		<g id="shape38-172" transform="translate(72,-1116)">
			
			<path d="M0 1188 L0 1912.5 L19.44 1912.5" class="st9" />
		</g>
		<g id="shape39-177" transform="translate(72,-1116)">
			
			<path d="M0 1188 L0 1998 L19.44 1998" class="st9" />
		</g>
		<g id="shape40-182" transform="translate(180,-297)">
			
			<path d="M0 1179 L68.94 1179" class="st9" />
		</g>
		<g id="shape41-187" transform="translate(131.625,-1021.5)">
			
			<path d="M9 1188 L9 1175.31" class="st9" />
		</g>
		<g id="shape42-192" transform="translate(131.625,-958.5)">
			
			<path d="M9 1188 L9 1200.69" class="st9" />
		</g>
		<g id="shape43-197" transform="translate(180,-1075.5)">
			
			<path d="M0 1188 L17.66 1188 L17.66 1233 L68.94 1233" class="st9" />
		</g>
		<g id="shape44-202" transform="translate(180,-990)">
			
			<path d="M0 1188 L22.5 1188 L22.5 1147.5 L68.94 1147.5" class="st9" />
		</g>
		<g id="shape45-207" transform="translate(299.25,-1102.5)">
			
			<path d="M9 1188 L9 1218.69" class="st9" />
		</g>
		<g id="shape46-212" transform="translate(317.25,-999)">
			
			<path d="M-9 1188 L-9 1241.19" class="st9" />
		</g>
		<g id="shape47-217" transform="translate(180,-895.5)">
			
			<path d="M0 1179 L68.94 1179" class="st9" />
		</g>
		<g id="shape48-222" transform="translate(180,-819)">
			
			<path d="M0 1188 L5.66 1188 A3 3 0 0 1 11.66 1188 L22.5 1188 L22.5 1273.5 L68.94 1273.5" class="st9" />
		</g>
		<g id="shape49-227" transform="translate(180,-724.5)">
			
			<path d="M0 1179 L5.66 1179 A3 3 0 0 1 11.66 1179 L68.94 1179" class="st9" />
		</g>
		<g id="shape51-232" transform="translate(180,-562.5)">
			
			<path d="M0 1188 L5.66 1188 A3 3 0 0 1 11.66 1188 L17.66 1188 L17.66 1017 L68.94 1017" class="st9" />
		</g>
		<g id="shape52-237" transform="translate(180,-477)">
			
			<path d="M0 1188 L8.66 1188 L8.66 760.5 L68.94 760.5" class="st9" />
		</g>
		<g id="shape53-242" transform="translate(180,-391.5)">
			
			<path d="M0 1188 L17.66 1188 L17.66 846 L68.94 846" class="st9" />
		</g>
		<g id="shape55-247" transform="translate(299.25,-445.5)">
			
			<path d="M9 1188 L9 1286.19" class="st9" />
		</g>
		<g id="shape56-252" transform="translate(357.75,-297)">
			
			<path d="M0 1179 L68.94 1179" class="st9" />
		</g>
		<g id="shape57-257" transform="translate(308.25,-445.5)">
			
			<path d="M0 1188 L0 1237.5 L118.44 1237.5" class="st9" />
		</g>
		<g id="shape58-262" transform="translate(348.75,-733.5)">
			
			<path d="M9 1188 L26.66 1188 L26.66 1444.5 L18.81 1444.5" class="st9" />
		</g>
		<g id="shape59-267" transform="translate(357.75,-733.5)">
			
			<path d="M0 1188 L17.66 1188 L17.66 1219.5 L68.94 1219.5" class="st9" />
		</g>
		<g id="shape60-272" transform="translate(357.75,-733.5)">
			
			<path d="M0 1188 L17.66 1188 L17.66 1318.5 L68.94 1318.5" class="st9" />
		</g>
		<g id="shape61-277" transform="translate(357.75,-733.5)">
			
			<path d="M0 1188 L17.66 1188 L17.66 1417.5 L68.94 1417.5" class="st9" />
		</g>
		<g id="shape62-282" transform="translate(515.25,-603)">
			
			<path d="M0 1188 L21.38 1188 L21.38 1147.5 L68.94 1147.5" class="st9" />
		</g>
		<g id="shape63-287" transform="translate(624.375,-612)">
			
			<path d="M9 1188 L9 1205.19" class="st9" />
		</g>
		<g id="shape64-292" transform="translate(357.75,-895.5)">
			
			<path d="M0 1179 L68.94 1179" class="st9" />
		</g>
		<g id="shape65-297" transform="translate(299.25,-873)">
			
			<path d="M9 1188 L9 1286.19" class="st9" />
		</g>
		<g id="shape66-302" transform="translate(299.25,-702)">
			
			<path d="M9 1188 L9 1371.69" class="st9" />
		</g>
		<g id="shape67-307" transform="translate(308.25,-873)">
			
			<path d="M0 1188 L0 1260 L118.44 1260" class="st9" />
		</g>
		<g id="shape68-312" transform="translate(515.25,-904.5)">
			
			<path d="M0 1188 L190.12 1188 L190.12 1758.69" class="st9" />
		</g>
		<g id="shape69-317" transform="translate(515.25,-801)">
			
			<path d="M0 1188 L190.12 1188 L190.12 1655.19" class="st9" />
		</g>
		<g id="shape70-322" transform="translate(515.25,-702)">
			
			<path d="M0 1188 L190.12 1188 L190.12 1556.19" class="st9" />
		</g>
		<g id="shape71-327" transform="translate(672.75,-643.5)">
			
			<path d="M0 1188 L32.62 1188 L32.62 1497.69" class="st9" />
		</g>
		<g id="shape72-332" transform="translate(672.75,-553.5)">
			
			<path d="M0 1188 L32.62 1188 L32.62 1407.69" class="st9" />
		</g>
		<g id="shape73-337" transform="translate(515.25,-504)">
			
			<path d="M0 1188 L190.12 1188 L190.12 1358.19" class="st9" />
		</g>
		<g id="shape74-342" transform="translate(515.25,-396)">
			
			<path d="M0 1188 L190.12 1188 L190.12 1250.19" class="st9" />
		</g>
		<g id="shape75-347" transform="translate(515.25,-315)">
			
			<path d="M0 1197 L140.94 1197" class="st9" />
		</g>
	</g>
</svg>
