<?xml version="1.0"?>
<svg xmlns="http://www.w3.org/2000/svg" xmlns:xlink="http://www.w3.org/1999/xlink" xmlns:ev="http://www.w3.org/2001/xml-events"    viewBox="47 36 617 559"    xml:space="preserve" color-interpolation-filters="sRGB" class="st12" width="1543" height="1398">
<rect x="0" y="0" width="1543" height="1398" fill="#ffffff" />
	<style type="text/css"><![CDATA[
		.st1 {fill:#f2f2f2;stroke:none;stroke-linecap:round;stroke-linejoin:round;stroke-width:0.75}
		.st2 {fill:#ffffff;stroke:#0078d4;stroke-linecap:round;stroke-linejoin:round;stroke-width:0.24}
		.st3 {fill:#000000;font-family:Calibri;font-size:1.00001em}
		.st4 {fill:#0078d4;stroke:none;stroke-linecap:round;stroke-linejoin:round;stroke-width:0.24}
		.st5 {fill:#ffffff;font-family:Calibri;font-size:1.00001em}
		.st6 {font-size:1em}
		.st7 {fill:#ffffff}
		.st8 {stroke:#0078d4;stroke-linecap:round;stroke-linejoin:round;stroke-width:0.24}
		.st9 {marker-end:url(#mrkr13-55);stroke:#0078d4;stroke-linecap:round;stroke-linejoin:round;stroke-width:0.75}
		.st10 {fill:#0078d4;fill-opacity:1;stroke:#0078d4;stroke-opacity:1;stroke-width:0.22935779816514}
		.st11 {fill:#a0a0a0;stroke:none;stroke-linecap:round;stroke-linejoin:round;stroke-width:0.24}
		.st12 {fill:none;fill-rule:evenodd;font-size:12px;overflow:visible;stroke-linecap:square;stroke-miterlimit:3}
	]]></style><style> a { pointer-events: none; } </style><style>a.rules_svg_anchor g:hover { opacity:0.8; cursor:pointer; }</style>
	<defs id="Markers">
		<g id="lend13">
			<path d="M 3 1 L 0 0 L 3 -1 L 3 1 " style="stroke:none" />
		</g>
		<marker id="mrkr13-55" class="st10" refX="-13.08" orient="auto" markerUnits="strokeWidth" overflow="visible">
			<use xlink:href="#lend13" transform="scale(-4.36,-4.36) " />
		</marker>
	</defs>
	<g>
		
		<g id="shape27-1" transform="translate(324,-18)">
			
			<rect x="0" y="54" width="207" height="558" class="st1" />
		</g>
		<g id="shape1-3" transform="translate(47.25,-504)">
			
			<desc>Start</desc>
			<path d="M18 612 L67.5 612 A18 18 -180 0 0 67.5 576 L18 576 A18 18 -180 1 0 18 612 Z" class="st2" />
			<text x="31.01" y="597.6" class="st3">Start</text>
		</g>
		<a id="c7ade781-7821-4583-83c9-961d76ec273a" class="rules_svg_anchor rules_svg_shape"   href="/lms/chart?onclick=b3BlbkNoYXJ0Q29udGV4dE1lbnUoZXZlbnQsJ3cxMTZkNTIzNTk2NWMxNzIzOHY0MDcxJywxODMzNCwgMSwgMSwgdGhpcywgd2luZG93LmZyYW1lRWxlbWVudCk=&amp;navigate=true&amp;details=Description">
			<g id="shape2-6" transform="translate(342,-490.5)">
				
				<desc>70.20 Plan production operations</desc>
				<rect x="0" y="549" width="126" height="63" class="st4" />
				<text x="9.15" y="576.9" class="st5">70.20 Plan production <tspan x="36.68" dy="1.2em" class="st6">operations</tspan>
				</text>
			</g>
		</a>
		<a id="b303a65f-5f00-43a4-aca9-11eb2c3e92ad" class="rules_svg_anchor rules_svg_shape"   href="/lms/chart?onclick=b3BlbkNoYXJ0Q29udGV4dE1lbnUoZXZlbnQsJ3cxMTZkNTIzNTk2NWMxNzIzOXY0MDcxJywxODMzNSwgMSwgMSwgdGhpcywgd2luZG93LmZyYW1lRWxlbWVudCk=&amp;navigate=true&amp;details=Description">
			<g id="shape3-10" transform="translate(342,-396)">
				
				<desc>70.20.010 Modify production plan</desc>
				<path d="M0 612 L126 612 L126 549 L0 549 L0 612 Z" class="st7" />
				<path d="M0 612 L126 612 L126 549 L0 549 L0 612" class="st8" />
				<path d="M9 612 L9 549" class="st8" />
				<path d="M117 612 L117 549" class="st8" />
				<text x="19.96" y="576.9" class="st3">70.20.010 Modify <tspan x="24.13" dy="1.2em" class="st6">production plan</tspan>
				</text>
			</g>
		</a>
		<a id="10cb047d-1a2a-4621-90fe-6277f70e1d09" class="rules_svg_anchor rules_svg_shape"   href="/lms/chart?onclick=b3BlbkNoYXJ0Q29udGV4dE1lbnUoZXZlbnQsJ3cxMTZkNTIzNTk2NWMxNzI0MHY0MDcxJywxODMzNiwgMSwgMSwgdGhpcywgd2luZG93LmZyYW1lRWxlbWVudCk=&amp;navigate=true&amp;details=Description">
			<g id="shape4-17" transform="translate(342,-306)">
				
				<desc>70.20.020 Create production plan</desc>
				<path d="M0 612 L126 612 L126 549 L0 549 L0 612 Z" class="st7" />
				<path d="M0 612 L126 612 L126 549 L0 549 L0 612" class="st8" />
				<path d="M9 612 L9 549" class="st8" />
				<path d="M117 612 L117 549" class="st8" />
				<text x="21.18" y="576.9" class="st3">70.20.020 Create <tspan x="24.13" dy="1.2em" class="st6">production plan</tspan>
				</text>
			</g>
		</a>
		<a id="4b2d76b4-044f-40b1-9b87-056a6321174c" class="rules_svg_anchor rules_svg_shape"   href="/lms/chart?onclick=b3BlbkNoYXJ0Q29udGV4dE1lbnUoZXZlbnQsJ3cxMTZkNTIzNTk2NWMxNzI0MXY0MDcxJywxODMzNywgMSwgMSwgdGhpcywgd2luZG93LmZyYW1lRWxlbWVudCk=&amp;navigate=true&amp;details=Description">
			<g id="shape5-24" transform="translate(342,-216)">
				
				<desc>70.20.030 Schedule production jobs</desc>
				<path d="M0 612 L126 612 L126 549 L0 549 L0 612 Z" class="st7" />
				<path d="M0 612 L126 612 L126 549 L0 549 L0 612" class="st8" />
				<path d="M9 612 L9 549" class="st8" />
				<path d="M117 612 L117 549" class="st8" />
				<text x="15.23" y="576.9" class="st3">70.20.030 Schedule <tspan x="24.59" dy="1.2em" class="st6">production jobs</tspan>
				</text>
			</g>
		</a>
		<a id="f8465f41-3ca1-4d64-9c0d-e6b27771fb25" class="rules_svg_anchor rules_svg_shape"   href="/lms/chart?onclick=b3BlbkNoYXJ0Q29udGV4dE1lbnUoZXZlbnQsJ3cxMTZkNTIzNTk2NWMxNzI0MnY0MDcxJywxODMzOCwgMSwgMSwgdGhpcywgd2luZG93LmZyYW1lRWxlbWVudCk=&amp;navigate=true&amp;details=Description">
			<g id="shape6-31" transform="translate(342,-126)">
				
				<desc>70.20.040 Release production to the shop floor</desc>
				<path d="M0 612 L126 612 L126 549 L0 549 L0 612 Z" class="st7" />
				<path d="M0 612 L126 612 L126 549 L0 549 L0 612" class="st8" />
				<path d="M9 612 L9 549" class="st8" />
				<path d="M117 612 L117 549" class="st8" />
				<text x="18.52" y="569.7" class="st3">70.20.040 Release <tspan x="20.01" dy="1.2em" class="st6">production to the </tspan>
					<tspan x="38.2" dy="1.2em" class="st6">shop floor</tspan>
				</text>
			</g>
		</a>
		<g id="shape7-39" transform="translate(564.75,-49.5)">
			
			<desc>End</desc>
			<path d="M18 612 L67.5 612 A18 18 -180 0 0 67.5 576 L18 576 A18 18 -180 1 0 18 612 Z" class="st2" />
			<text x="33.52" y="597.6" class="st3">End</text>
		</g>
		<a id="787348a7-a289-4f41-af8a-0fdd14ae7c20" class="rules_svg_anchor rules_svg_shape"   href="/lms/chart?onclick=b3BlbkNoYXJ0Q29udGV4dE1lbnUoZXZlbnQsJ3cxMTZkNTIzNTk2NWM1NDU4MnY0MDcxJywxODMzOSwgMSwgMSwgdGhpcywgd2luZG93LmZyYW1lRWxlbWVudCk=&amp;navigate=true&amp;details=Description">
			<g id="shape8-42" transform="translate(342,-36)">
				
				<desc>70.20.050 Estimate the cost of production</desc>
				<path d="M0 612 L126 612 L126 549 L0 549 L0 612 Z" class="st7" />
				<path d="M0 612 L126 612 L126 549 L0 549 L0 612" class="st8" />
				<path d="M9 612 L9 549" class="st8" />
				<path d="M117 612 L117 549" class="st8" />
				<text x="16" y="569.7" class="st3">70.20.050 Estimate <tspan x="37.09" dy="1.2em" class="st6">the cost of </tspan>
					<tspan x="36.05" dy="1.2em" class="st6">production</tspan>
				</text>
			</g>
		</a>
		<g id="shape10-50" transform="translate(132.75,-513)">
			
			<path d="M0 603 L30.69 603" class="st9" />
		</g>
		<g id="shape12-56" transform="translate(396,-490.5)">
			
			<path d="M9 612 L9 633.69" class="st9" />
		</g>
		<g id="shape13-61" transform="translate(396,-396)">
			
			<path d="M9 612 L9 629.19" class="st9" />
		</g>
		<g id="shape14-66" transform="translate(396,-306)">
			
			<path d="M9 612 L9 629.19" class="st9" />
		</g>
		<g id="shape15-71" transform="translate(396,-216)">
			
			<path d="M9 612 L9 629.19" class="st9" />
		</g>
		<g id="shape16-76" transform="translate(396,-126)">
			
			<path d="M9 612 L9 629.19" class="st9" />
		</g>
		<g id="shape17-81" transform="translate(468,-58.5)">
			
			<path d="M0 603 L86.94 603" class="st9" />
		</g>
		<a id="4facd5f0-32e4-4f1b-9776-975dc85a96dd" class="rules_svg_anchor rules_svg_shape"   href="/lms/chart?onclick=b3BlbkNoYXJ0Q29udGV4dE1lbnUoZXZlbnQsJ3cxMTZkNTIzNTk2NWMxNzIzMHY0MDcxJywxODMyNywgMSwgMSwgdGhpcywgd2luZG93LmZyYW1lRWxlbWVudCk=&amp;navigate=true&amp;details=Description">
			<g id="shape21-86" transform="translate(173.25,-490.5)">
				
				<desc>70 Plan to produce</desc>
				<rect x="0" y="549" width="99" height="63" class="st11" />
				<text x="3.44" y="584.1" class="st3">70 Plan to produce</text>
			</g>
		</a>
		<g id="shape22-89" transform="translate(272.25,-513)">
			
			<path d="M0 603 L59.94 603" class="st9" />
		</g>
		<a id="d2d647dd-4c7a-44af-97fb-f635e8fdb0d6" class="rules_svg_anchor rules_svg_shape"   href="/lms/chart?onclick=b3BlbkNoYXJ0Q29udGV4dE1lbnUoZXZlbnQsJ3cxMTZkNTIzNTk2NWMxNzIzMXY0MDcxJywxODMyOCwgMSwgMSwgdGhpcywgd2luZG93LmZyYW1lRWxlbWVudCk=&amp;navigate=true&amp;details=Description">
			<g id="shape23-94" transform="translate(173.25,-396)">
				
				<desc>70.10 Develop production strategies</desc>
				<rect x="0" y="549" width="99" height="63" class="st4" />
				<text x="14.4" y="569.7" class="st5">70.10 Develop <tspan x="22.55" dy="1.2em" class="st6">production </tspan>
					<tspan x="25.65" dy="1.2em" class="st6">strategies</tspan>
				</text>
			</g>
		</a>
		<a id="e3aabd7d-95a0-471c-879d-7d19f1edabe8" class="rules_svg_anchor rules_svg_shape"   href="/lms/chart?onclick=b3BlbkNoYXJ0Q29udGV4dE1lbnUoZXZlbnQsJ3cxMTZkNTIzNTk2NWMxNzAyMHY0MDcxJywxODE2OCwgMSwgMSwgdGhpcywgd2luZG93LmZyYW1lRWxlbWVudCk=&amp;navigate=true&amp;details=Description">
			<g id="shape24-99" transform="translate(173.25,-279)">
				
				<desc>55 Hire to retire</desc>
				<rect x="0" y="549" width="99" height="63" class="st11" />
				<text x="10.44" y="584.1" class="st3">55 Hire to retire</text>
			</g>
		</a>
		<a id="335e887d-d1bb-46ef-8eb3-f8ff0140e80e" class="rules_svg_anchor rules_svg_shape"   href="/lms/chart?onclick=b3BlbkNoYXJ0Q29udGV4dE1lbnUoZXZlbnQsJ3cxMTZkNTIzNTk2NWMxNzAyMXY0MDcxJywxODE3NywgMSwgMSwgdGhpcywgd2luZG93LmZyYW1lRWxlbWVudCk=&amp;navigate=true&amp;details=Description">
			<g id="shape25-102" transform="translate(173.25,-162)">
				
				<desc>55.10 Recruit and onboard talent</desc>
				<rect x="0" y="549" width="99" height="63" class="st4" />
				<text x="6.52" y="576.9" class="st5">55.10 Recruit and <tspan x="12.98" dy="1.2em" class="st6">onboard talent</tspan>
				</text>
			</g>
		</a>
		<a id="02004e2a-d175-4ca8-9809-cb493ef8bbc5" class="rules_svg_anchor rules_svg_shape"   href="/lms/chart?onclick=b3BlbkNoYXJ0Q29udGV4dE1lbnUoZXZlbnQsJ3cxMTZkNTIzNTk2NWMxNzI0M3Y0MDcxJywxODM0MCwgMSwgMSwgdGhpcywgd2luZG93LmZyYW1lRWxlbWVudCk=&amp;navigate=true&amp;details=Description">
			<g id="shape26-106" transform="translate(564.75,-126)">
				
				<desc>70.30 Run production operations</desc>
				<rect x="0" y="549" width="99" height="63" class="st4" />
				<text x="24.9" y="569.7" class="st5">70.30 Run <tspan x="22.55" dy="1.2em" class="st6">production </tspan>
					<tspan x="23.18" dy="1.2em" class="st6">operations</tspan>
				</text>
			</g>
		</a>
		<g id="shape28-111" transform="translate(468,-148.5)">
			
			<path d="M0 603 L86.94 603" class="st9" />
		</g>
		<g id="shape29-116" transform="translate(90,-504)">
			
			<path d="M0 612 L0 805.5 L73.44 805.5" class="st9" />
		</g>
		<g id="shape30-121" transform="translate(213.75,-490.5)">
			
			<path d="M9 612 L9 633.69" class="st9" />
		</g>
		<g id="shape31-126" transform="translate(213.75,-279)">
			
			<path d="M9 612 L9 656.19" class="st9" />
		</g>
		<g id="shape32-131" transform="translate(272.25,-193.5)">
			
			<path d="M0 612 L17.66 612 L17.66 558 L59.94 558" class="st9" />
		</g>
		<g id="shape33-136" transform="translate(272.25,-427.5)">
			
			<path d="M0 612 L17.66 612 L17.66 792 L59.94 792" class="st9" />
		</g>
	</g>
</svg>
