<svg width="1920" height="1920" xmlns="http://www.w3.org/2000/svg" xmlns:xlink="http://www.w3.org/1999/xlink" overflow="hidden"><g><rect x="0" y="0" width="1920" height="1920" fill="#FFFFFF"/><path d="M80 94.5C80 74.3416 96.3416 58 116.5 58L254.5 58C274.658 58 291 74.3416 291 94.5L291 94.5C291 114.658 274.658 131 254.5 131L116.5 131C96.3416 131 80 114.658 80 94.5Z" stroke="#0078D4" stroke-width="2" stroke-linejoin="round" stroke-miterlimit="10" fill="none" fill-rule="evenodd"/><text font-family="Segoe UI,Segoe UI_MSFontService,sans-serif" font-weight="400" font-size="24" transform="translate(160.776 103)">Start</text><rect x="557" y="227" width="279" height="154" fill="#FFFFFF"/><path d="M591.875 227 591.875 381M801.125 227 801.125 381" stroke="#0078D4" stroke-width="2" stroke-linejoin="round" stroke-miterlimit="10" fill="none" fill-rule="evenodd"/><rect x="557" y="227" width="279" height="154" stroke="#0078D4" stroke-width="2" stroke-linejoin="round" stroke-miterlimit="10" fill="none"/><text font-family="Segoe UI,Segoe UI_MSFontService,sans-serif" font-weight="400" font-size="24" transform="translate(652.462 284)">Develop</text><text font-family="Segoe UI,Segoe UI_MSFontService,sans-serif" font-weight="400" font-size="24" transform="translate(650.882 313)">sourcing</text><text font-family="Segoe UI,Segoe UI_MSFontService,sans-serif" font-weight="400" font-size="24" transform="translate(645.069 342)">strategies</text><rect x="700" y="1074" width="279" height="154" fill="#FFFFFF"/><path d="M734.875 1074 734.875 1228M944.125 1074 944.125 1228" stroke="#0078D4" stroke-width="2" stroke-linejoin="round" stroke-miterlimit="10" fill="none" fill-rule="evenodd"/><rect x="700" y="1074" width="279" height="154" stroke="#0078D4" stroke-width="2" stroke-linejoin="round" stroke-miterlimit="10" fill="none"/><text font-family="Segoe UI,Segoe UI_MSFontService,sans-serif" font-weight="400" font-size="24" transform="translate(799.853 1131)">Process</text><text font-family="Segoe UI,Segoe UI_MSFontService,sans-serif" font-weight="400" font-size="24" transform="translate(802.686 1160)">vendor</text><text font-family="Segoe UI,Segoe UI_MSFontService,sans-serif" font-weight="400" font-size="24" transform="translate(797.433 1189)">invoices</text><rect x="700" y="1605" width="279" height="153" fill="#FFFFFF"/><path d="M734.875 1605 734.875 1758M944.125 1605 944.125 1758" stroke="#0078D4" stroke-width="2" stroke-linejoin="round" stroke-miterlimit="10" fill="none" fill-rule="evenodd"/><rect x="700" y="1605" width="279" height="153" stroke="#0078D4" stroke-width="2" stroke-linejoin="round" stroke-miterlimit="10" fill="none"/><text font-family="Segoe UI,Segoe UI_MSFontService,sans-serif" font-weight="400" font-size="24" transform="translate(790.113 1661)">Issue and</text><text font-family="Segoe UI,Segoe UI_MSFontService,sans-serif" font-weight="400" font-size="24" transform="translate(770.766 1690)">settle vendor</text><text font-family="Segoe UI,Segoe UI_MSFontService,sans-serif" font-weight="400" font-size="24" transform="translate(788.273 1719)">payments</text><rect x="992" y="1357" width="277" height="153" fill="#FFFFFF"/><path d="M1026.62 1357 1026.62 1510M1234.38 1357 1234.38 1510" stroke="#0078D4" stroke-width="2" stroke-linejoin="round" stroke-miterlimit="10" fill="none" fill-rule="evenodd"/><rect x="992" y="1357" width="277" height="153" stroke="#0078D4" stroke-width="2" stroke-linejoin="round" stroke-miterlimit="10" fill="none"/><text font-family="Segoe UI,Segoe UI_MSFontService,sans-serif" font-weight="400" font-size="24" transform="translate(1087.48 1399)">Manage</text><text font-family="Segoe UI,Segoe UI_MSFontService,sans-serif" font-weight="400" font-size="24" transform="translate(1057.8 1428)">vendor debits</text><text font-family="Segoe UI,Segoe UI_MSFontService,sans-serif" font-weight="400" font-size="24" transform="translate(1110.56 1457)">and</text><text font-family="Segoe UI,Segoe UI_MSFontService,sans-serif" font-weight="400" font-size="24" transform="translate(1065.04 1486)">chargebacks</text><rect x="698" y="828" width="279" height="154" fill="#FFFFFF"/><path d="M732.875 828 732.875 982M942.125 828 942.125 982" stroke="#0078D4" stroke-width="2" stroke-linejoin="round" stroke-miterlimit="10" fill="none" fill-rule="evenodd"/><rect x="698" y="828" width="279" height="154" stroke="#0078D4" stroke-width="2" stroke-linejoin="round" stroke-miterlimit="10" fill="none"/><text font-family="Segoe UI,Segoe UI_MSFontService,sans-serif" font-weight="400" font-size="24" transform="translate(796.843 885)">Procure</text><text font-family="Segoe UI,Segoe UI_MSFontService,sans-serif" font-weight="400" font-size="24" transform="translate(766.21 914)">materials and</text><text font-family="Segoe UI,Segoe UI_MSFontService,sans-serif" font-weight="400" font-size="24" transform="translate(795.637 943)">services</text><path d="M1629 1845.5C1629 1825.34 1645.34 1809 1665.5 1809L1804.5 1809C1824.66 1809 1841 1825.34 1841 1845.5L1841 1845.5C1841 1865.66 1824.66 1882 1804.5 1882L1665.5 1882C1645.34 1882 1629 1865.66 1629 1845.5Z" stroke="#0078D4" stroke-width="2" stroke-linejoin="round" stroke-miterlimit="10" fill="none" fill-rule="evenodd"/><text font-family="Segoe UI,Segoe UI_MSFontService,sans-serif" font-weight="400" font-size="24" transform="translate(1715.17 1854)">End</text><rect x="801" y="17" width="279" height="154" stroke="#A6A6A6" stroke-width="2" stroke-linejoin="round" stroke-miterlimit="10" fill="#0078D4"/><text font-family="Segoe UI,Segoe UI_MSFontService,sans-serif" font-weight="400" font-size="24" transform="translate(863.854 103)">Procure to pay</text><rect x="901" y="227" width="279" height="154" fill="#FFFFFF"/><path d="M935.875 227 935.875 381M1145.12 227 1145.12 381" stroke="#0078D4" stroke-width="2" stroke-linejoin="round" stroke-miterlimit="10" fill="none" fill-rule="evenodd"/><rect x="901" y="227" width="279" height="154" stroke="#0078D4" stroke-width="2" stroke-linejoin="round" stroke-miterlimit="10" fill="none"/><text font-family="Segoe UI,Segoe UI_MSFontService,sans-serif" font-weight="400" font-size="24" transform="translate(1006.4 284)">Define</text><text font-family="Segoe UI,Segoe UI_MSFontService,sans-serif" font-weight="400" font-size="24" transform="translate(972.633 313)">procurement</text><text font-family="Segoe UI,Segoe UI_MSFontService,sans-serif" font-weight="400" font-size="24" transform="translate(996.819 342)">catalogs</text><rect x="212" y="227" width="279" height="154" fill="#FFFFFF"/><path d="M246.875 227 246.875 381M456.125 227 456.125 381" stroke="#0078D4" stroke-width="2" stroke-linejoin="round" stroke-miterlimit="10" fill="none" fill-rule="evenodd"/><rect x="212" y="227" width="279" height="154" stroke="#0078D4" stroke-width="2" stroke-linejoin="round" stroke-miterlimit="10" fill="none"/><text font-family="Segoe UI,Segoe UI_MSFontService,sans-serif" font-weight="400" font-size="24" transform="translate(308.382 284)">Manage</text><text font-family="Segoe UI,Segoe UI_MSFontService,sans-serif" font-weight="400" font-size="24" transform="translate(314.455 313)">vendor</text><text font-family="Segoe UI,Segoe UI_MSFontService,sans-serif" font-weight="400" font-size="24" transform="translate(284.455 342)">relationships</text><rect x="1246" y="227" width="278" height="154" fill="#FFFFFF"/><path d="M1280.75 227 1280.75 381M1489.25 227 1489.25 381" stroke="#0078D4" stroke-width="2" stroke-linejoin="round" stroke-miterlimit="10" fill="none" fill-rule="evenodd"/><rect x="1246" y="227" width="278" height="154" stroke="#0078D4" stroke-width="2" stroke-linejoin="round" stroke-miterlimit="10" fill="none"/><text font-family="Segoe UI,Segoe UI_MSFontService,sans-serif" font-weight="400" font-size="24" transform="translate(1350.49 255)">Define</text><text font-family="Segoe UI,Segoe UI_MSFontService,sans-serif" font-weight="400" font-size="24" transform="translate(1321.9 284)">policies and</text><text font-family="Segoe UI,Segoe UI_MSFontService,sans-serif" font-weight="400" font-size="24" transform="translate(1325.71 313)">procedures</text><text font-family="Segoe UI,Segoe UI_MSFontService,sans-serif" font-weight="400" font-size="24" transform="translate(1369.9 342)">for</text><text font-family="Segoe UI,Segoe UI_MSFontService,sans-serif" font-weight="400" font-size="24" transform="translate(1316.71 371)">procurement</text><rect x="698" y="581" width="279" height="154" fill="#FFFFFF"/><path d="M732.875 581 732.875 735M942.125 581 942.125 735" stroke="#0078D4" stroke-width="2" stroke-linejoin="round" stroke-miterlimit="10" fill="none" fill-rule="evenodd"/><rect x="698" y="581" width="279" height="154" stroke="#0078D4" stroke-width="2" stroke-linejoin="round" stroke-miterlimit="10" fill="none"/><text font-family="Segoe UI,Segoe UI_MSFontService,sans-serif" font-weight="400" font-size="24" transform="translate(776.7 667)">Plan supply</text><rect x="406" y="1357" width="279" height="153" fill="#FFFFFF"/><path d="M440.875 1357 440.875 1510M650.125 1357 650.125 1510" stroke="#0078D4" stroke-width="2" stroke-linejoin="round" stroke-miterlimit="10" fill="none" fill-rule="evenodd"/><rect x="406" y="1357" width="279" height="153" stroke="#0078D4" stroke-width="2" stroke-linejoin="round" stroke-miterlimit="10" fill="none"/><text font-family="Segoe UI,Segoe UI_MSFontService,sans-serif" font-weight="400" font-size="24" transform="translate(487.89 1399)">Create and</text><text font-family="Segoe UI,Segoe UI_MSFontService,sans-serif" font-weight="400" font-size="24" transform="translate(504.964 1428)">process</text><text font-family="Segoe UI,Segoe UI_MSFontService,sans-serif" font-weight="400" font-size="24" transform="translate(486.07 1457)">promissory</text><text font-family="Segoe UI,Segoe UI_MSFontService,sans-serif" font-weight="400" font-size="24" transform="translate(515.984 1486)">notes</text><rect x="700" y="1357" width="279" height="153" fill="#FFFFFF"/><path d="M734.875 1357 734.875 1510M944.125 1357 944.125 1510" stroke="#0078D4" stroke-width="2" stroke-linejoin="round" stroke-miterlimit="10" fill="none" fill-rule="evenodd"/><rect x="700" y="1357" width="279" height="153" stroke="#0078D4" stroke-width="2" stroke-linejoin="round" stroke-miterlimit="10" fill="none"/><text font-family="Segoe UI,Segoe UI_MSFontService,sans-serif" font-weight="400" font-size="24" transform="translate(799.853 1399)">Process</text><text font-family="Segoe UI,Segoe UI_MSFontService,sans-serif" font-weight="400" font-size="24" transform="translate(802.686 1428)">vendor</text><text font-family="Segoe UI,Segoe UI_MSFontService,sans-serif" font-weight="400" font-size="24" transform="translate(777.853 1457)">rebates and</text><text font-family="Segoe UI,Segoe UI_MSFontService,sans-serif" font-weight="400" font-size="24" transform="translate(787.353 1486)">incentives</text><rect x="1043" y="938" width="279" height="154" fill="#FFFFFF"/><path d="M1077.88 938 1077.88 1092M1287.12 938 1287.12 1092" stroke="#0078D4" stroke-width="2" stroke-linejoin="round" stroke-miterlimit="10" fill="none" fill-rule="evenodd"/><rect x="1043" y="938" width="279" height="154" stroke="#0078D4" stroke-width="2" stroke-linejoin="round" stroke-miterlimit="10" fill="none"/><text font-family="Segoe UI,Segoe UI_MSFontService,sans-serif" font-weight="400" font-size="24" transform="translate(1141.24 995)">Analyze</text><text font-family="Segoe UI,Segoe UI_MSFontService,sans-serif" font-weight="400" font-size="24" transform="translate(1145.31 1024)">vendor</text><text font-family="Segoe UI,Segoe UI_MSFontService,sans-serif" font-weight="400" font-size="24" transform="translate(1114.62 1053)">performance</text><path d="M0-1.5 28.4033-1.5C29.2317-1.5 29.9033-0.828427 29.9033 0L29.9033 100.195 28.4033 98.6954 49.3066 98.6954 49.3066 101.695 28.4033 101.695C27.5749 101.695 26.9033 101.024 26.9033 100.195L26.9033 0 28.4033 1.5 0 1.5ZM47.8066 95.6954 56.8066 100.195 47.8066 104.695Z" fill="#0078D4" transform="matrix(1.83697e-16 1 1 -1.83697e-16 941.5 171.5)"/><path d="M0.00198241-1.5 502.34-0.836106 502.336 2.16389-0.00198241 1.5ZM500.845-3.83808 509.839 0.673806 500.833 5.16191Z" fill="#0078D4" transform="matrix(1 0 0 -1 291.5 95.1739)"/><path d="M839 735.5 839 821.638 836 821.638 836 735.5ZM842 820.138 837.5 829.138 833 820.138Z" fill="#0078D4"/><rect x="37" y="434" width="212" height="153" stroke="#A6A6A6" stroke-width="2" stroke-linejoin="round" stroke-miterlimit="10" fill="#A0A0A0"/><text font-family="Segoe UI,Segoe UI_MSFontService,sans-serif" font-weight="400" font-size="24" transform="translate(78.51 476)">Product and</text><text font-family="Segoe UI,Segoe UI_MSFontService,sans-serif" font-weight="400" font-size="24" transform="translate(106.457 505)">service</text><text font-family="Segoe UI,Segoe UI_MSFontService,sans-serif" font-weight="400" font-size="24" transform="translate(100.997 534)">lifecycle</text><text font-family="Segoe UI,Segoe UI_MSFontService,sans-serif" font-weight="400" font-size="24" transform="translate(72.9366 563)">management</text><rect x="37" y="632" width="211" height="154" stroke="#A6A6A6" stroke-width="2" stroke-linejoin="round" stroke-miterlimit="10" fill="#A6A6A6"/><text font-family="Segoe UI,Segoe UI_MSFontService,sans-serif" font-weight="400" font-size="24" transform="translate(82.7759 703)">Prospect to</text><text font-family="Segoe UI,Segoe UI_MSFontService,sans-serif" font-weight="400" font-size="24" transform="translate(111.783 732)">quote</text><rect x="37" y="838" width="211" height="154" stroke="#A6A6A6" stroke-width="2" stroke-linejoin="round" stroke-miterlimit="10" fill="#A6A6A6"/><text font-family="Segoe UI,Segoe UI_MSFontService,sans-serif" font-weight="400" font-size="24" transform="translate(71.2759 924)">Order to cash</text><path d="M0-1.5 66.6326-1.5C67.461-1.5 68.1326-0.828427 68.1326 0L68.1326 416.018C68.1326 416.847 67.461 417.518 66.6326 417.518L50.1326 417.518 50.1326 414.518 66.6326 414.518 65.1326 416.018 65.1326 0 66.6326 1.5 0 1.5ZM51.6326 420.518 42.6326 416.018 51.6326 411.518Z" fill="#0078D4" transform="matrix(-1 1.22465e-16 1.22465e-16 1 80.1327 95.5001)"/><path d="M0-1.5 224.643-1.5C225.472-1.5 226.143-0.828427 226.143 0L226.143 257.065 224.643 255.565 441.786 255.565 441.786 258.565 224.643 258.565C223.815 258.565 223.143 257.894 223.143 257.065L223.143 0 224.643 1.5 0 1.5ZM440.286 252.565 449.286 257.065 440.286 261.565Z" fill="#0078D4" transform="matrix(1 0 0 -1 248.5 915.565)"/><rect x="1629" y="337" width="212" height="153" stroke="#A6A6A6" stroke-width="2" stroke-linejoin="round" stroke-miterlimit="10" fill="#A0A0A0"/><text font-family="Segoe UI,Segoe UI_MSFontService,sans-serif" font-weight="400" font-size="24" transform="translate(1698.34 408)">Plan to</text><text font-family="Segoe UI,Segoe UI_MSFontService,sans-serif" font-weight="400" font-size="24" transform="translate(1691.32 437)">produce</text><rect x="1629" y="521" width="212" height="153" stroke="#A6A6A6" stroke-width="2" stroke-linejoin="round" stroke-miterlimit="10" fill="#A0A0A0"/><text font-family="Segoe UI,Segoe UI_MSFontService,sans-serif" font-weight="400" font-size="24" transform="translate(1670.78 592)">Inventory to</text><text font-family="Segoe UI,Segoe UI_MSFontService,sans-serif" font-weight="400" font-size="24" transform="translate(1699.82 621)">deliver</text><rect x="1629" y="1441" width="212" height="153" stroke="#A6A6A6" stroke-width="2" stroke-linejoin="round" stroke-miterlimit="10" fill="#A0A0A0"/><text font-family="Segoe UI,Segoe UI_MSFontService,sans-serif" font-weight="400" font-size="24" transform="translate(1684.08 1512)">Record to</text><text font-family="Segoe UI,Segoe UI_MSFontService,sans-serif" font-weight="400" font-size="24" transform="translate(1702.14 1541)">report</text><rect x="1629" y="1257" width="212" height="153" stroke="#A6A6A6" stroke-width="2" stroke-linejoin="round" stroke-miterlimit="10" fill="#A0A0A0"/><text font-family="Segoe UI,Segoe UI_MSFontService,sans-serif" font-weight="400" font-size="24" transform="translate(1684.25 1328)">Project to</text><text font-family="Segoe UI,Segoe UI_MSFontService,sans-serif" font-weight="400" font-size="24" transform="translate(1706.46 1357)">profit</text><path d="M0-1.5 576.372-1.5C577.201-1.5 577.872-0.828427 577.872 0L577.872 491.28 576.372 489.78 645.25 489.78 645.25 492.78 576.372 492.78C575.544 492.78 574.872 492.109 574.872 491.28L574.872 0 576.372 1.5 0 1.5ZM643.75 486.78 652.75 491.28 643.75 495.78Z" fill="#0078D4" transform="matrix(1 0 0 -1 977.5 905.78)"/><path d="M0-1.5 576.372-1.5C577.201-1.5 577.872-0.828427 577.872 0L577.872 307.269 576.372 305.769 645.25 305.769 645.25 308.769 576.372 308.769C575.544 308.769 574.872 308.098 574.872 307.269L574.872 0 576.372 1.5 0 1.5ZM643.75 302.769 652.75 307.269 643.75 311.769Z" fill="#0078D4" transform="matrix(1 0 0 -1 977.5 905.769)"/><path d="M839 982.461 841.217 1067.63 838.218 1067.71 836.001 982.539ZM844.177 1066.06 839.913 1075.17 835.18 1066.29Z" fill="#0078D4"/><path d="M0-1.5 325.169-1.5C325.997-1.5 326.669-0.828427 326.669 0L326.669 163.882 325.169 162.382 642.838 162.382 642.838 165.382 325.169 165.382C324.34 165.382 323.669 164.71 323.669 163.882L323.669 0 325.169 1.5 0 1.5ZM641.338 159.382 650.338 163.882 641.338 168.382Z" fill="#0078D4" transform="matrix(1 0 0 -1 979.5 1682.38)"/><rect x="37" y="1043" width="212" height="153" stroke="#A6A6A6" stroke-width="2" stroke-linejoin="round" stroke-miterlimit="10" fill="#A0A0A0"/><text font-family="Segoe UI,Segoe UI_MSFontService,sans-serif" font-weight="400" font-size="24" transform="translate(84.77 1114)">Forecast to</text><text font-family="Segoe UI,Segoe UI_MSFontService,sans-serif" font-weight="400" font-size="24" transform="translate(120.103 1143)">plan</text><path d="M0-1.5 224.566-1.5C225.394-1.5 226.066-0.828427 226.066 0L226.066 461.358 224.566 459.858 441.631 459.858 441.631 462.858 224.566 462.858C223.737 462.858 223.066 462.187 223.066 461.358L223.066 0 224.566 1.5 0 1.5ZM440.131 456.858 449.131 461.358 440.131 465.858Z" fill="#0078D4" transform="matrix(1 0 0 -1 249.5 1119.86)"/><path d="M0-1.5 66.6329-1.5C67.4613-1.5 68.1329-0.828427 68.1329 0L68.1329 614.382C68.1329 615.211 67.4613 615.882 66.6329 615.882L50.1326 615.882 50.1326 612.882 66.6329 612.882 65.1329 614.382 65.1329 0 66.6329 1.5 0 1.5ZM51.6326 618.882 42.6326 614.382 51.6326 609.882Z" fill="#0078D4" transform="matrix(-1 1.22465e-16 1.22465e-16 1 80.1327 95.5001)"/><path d="M0-1.5 66.633-1.5C67.4614-1.5 68.133-0.828427 68.133 0L68.133 820.401C68.133 821.229 67.4614 821.901 66.633 821.901L50.1326 821.901 50.1326 818.901 66.633 818.901 65.133 820.401 65.133 0 66.633 1.5 0 1.5ZM51.6326 824.901 42.6326 820.401 51.6326 815.901Z" fill="#0078D4" transform="matrix(-1 1.22465e-16 1.22465e-16 1 80.1327 95.5001)"/><path d="M0-1.5 66.6324-1.5C67.4608-1.5 68.1324-0.828427 68.1324 0L68.1324 1024.69C68.1324 1025.52 67.4608 1026.19 66.6324 1026.19L50.1326 1026.19 50.1326 1023.19 66.6324 1023.19 65.1324 1024.69 65.1324 0 66.6324 1.5 0 1.5ZM51.6326 1029.19 42.6326 1024.69 51.6326 1020.19Z" fill="#0078D4" transform="matrix(-1 1.22465e-16 1.22465e-16 1 80.1327 95.5001)"/><path d="M0-1.5 623.937-1.5C624.765-1.5 625.437-0.828427 625.437 0L625.437 206.595 623.937 205.095 645.167 205.095 645.167 208.095 623.937 208.095C623.108 208.095 622.437 207.424 622.437 206.595L622.437 0 623.937 1.5 0 1.5ZM643.667 202.095 652.667 206.595 643.667 211.095Z" fill="#0078D4" transform="matrix(1 0 0 -1 249.5 511.095)"/><path d="M0-1.5 224.643-1.5C225.472-1.5 226.143-0.828427 226.143 0L226.143 51.0468 224.643 49.5468 441.786 49.5468 441.786 52.5468 224.643 52.5468C223.815 52.5468 223.143 51.8753 223.143 51.0468L223.143 0 224.643 1.5 0 1.5ZM440.286 46.5468 449.286 51.0468 440.286 55.5468Z" fill="#0078D4" transform="matrix(1 0 0 -1 248.5 709.547)"/><rect x="1629" y="705" width="212" height="153" stroke="#A6A6A6" stroke-width="2" stroke-linejoin="round" stroke-miterlimit="10" fill="#A6A6A6"/><text font-family="Segoe UI,Segoe UI_MSFontService,sans-serif" font-weight="400" font-size="24" transform="translate(1663.42 790)">Order to cash</text><rect x="1629" y="1073" width="212" height="153" stroke="#A6A6A6" stroke-width="2" stroke-linejoin="round" stroke-miterlimit="10" fill="#A6A6A6"/><text font-family="Segoe UI,Segoe UI_MSFontService,sans-serif" font-weight="400" font-size="24" transform="translate(1682.95 1144)">Service to</text><text font-family="Segoe UI,Segoe UI_MSFontService,sans-serif" font-weight="400" font-size="24" transform="translate(1711.51 1173)">cash</text><path d="M0-1.5 569.35-1.5C570.179-1.5 570.85-0.828427 570.85 0L570.85 123.258 569.35 121.758 636.044 121.758 636.044 124.758 569.35 124.758C568.522 124.758 567.85 124.087 567.85 123.258L567.85 0 569.35 1.5 0 1.5ZM634.544 118.758 643.544 123.258 634.544 127.758Z" fill="#0078D4" transform="matrix(1 0 0 -1 986.5 905.758)"/><path d="M986.5 904 1554.27 904C1555.1 904 1555.77 904.672 1555.77 905.5L1555.77 1150.26 1554.27 1148.76 1622.54 1148.76 1622.54 1151.76 1554.27 1151.76C1553.45 1151.76 1552.77 1151.09 1552.77 1150.26L1552.77 905.5 1554.27 907 986.5 907ZM1621.04 1145.76 1630.04 1150.26 1621.04 1154.76Z" fill="#0078D4"/><path d="M977.5 904 1553.87 904C1554.7 904 1555.37 904.672 1555.37 905.5L1555.37 1334.27 1553.87 1332.77 1622.75 1332.77 1622.75 1335.77 1553.87 1335.77C1553.04 1335.77 1552.37 1335.1 1552.37 1334.27L1552.37 905.5 1553.87 907 977.5 907ZM1621.25 1329.77 1630.25 1334.27 1621.25 1338.77Z" fill="#0078D4"/><rect x="1629" y="153" width="212" height="153" stroke="#A6A6A6" stroke-width="2" stroke-linejoin="round" stroke-miterlimit="10" fill="#A0A0A0"/><text font-family="Segoe UI,Segoe UI_MSFontService,sans-serif" font-weight="400" font-size="24" transform="translate(1680.5 224)">Acquire to</text><text font-family="Segoe UI,Segoe UI_MSFontService,sans-serif" font-weight="400" font-size="24" transform="translate(1694.59 253)">dispose</text><path d="M0-1.5 576.372-1.5C577.201-1.5 577.872-0.828427 577.872 0L577.872 675.291 576.372 673.791 645.25 673.791 645.25 676.791 576.372 676.791C575.544 676.791 574.872 676.12 574.872 675.291L574.872 0 576.372 1.5 0 1.5ZM643.75 670.791 652.75 675.291 643.75 679.791Z" fill="#0078D4" transform="matrix(1 0 0 -1 977.5 905.791)"/><path d="M979.5 1150 1304.67 1150C1305.5 1150 1306.17 1150.67 1306.17 1151.5L1306.17 1518.32 1304.67 1516.82 1622.34 1516.82 1622.34 1519.82 1304.67 1519.82C1303.84 1519.82 1303.17 1519.15 1303.17 1518.32L1303.17 1151.5 1304.67 1153 979.5 1153ZM1620.84 1513.82 1629.84 1518.32 1620.84 1522.82Z" fill="#0078D4"/><path d="M1737 490.5 1737 513.721 1734 513.721 1734 490.5ZM1740 512.221 1735.5 521.221 1731 512.221Z" fill="#0078D4"/><path d="M0-1.5 203.172-1.5C204-1.5 204.672-0.828427 204.672 0L204.672 51.7087 201.672 51.7087 201.672 0 203.172 1.5 0 1.5ZM207.672 50.2087 203.172 59.2087 198.672 50.2087Z" fill="#0078D4" transform="matrix(1 0 0 -1 979.5 1151.71)"/><path d="M0 1.5-24 1.5-22.5 0-22.5 1615.84-24 1614.34-7.49989 1614.34-7.49989 1617.34-24 1617.34C-24.8284 1617.34-25.5 1616.67-25.5 1615.84L-25.5 0C-25.5-0.828427-24.8284-1.5-24-1.5L0-1.5ZM-8.9999 1611.34 0.000104987 1615.84-8.9999 1620.34Z" fill="#0078D4" transform="matrix(-1 0 0 1 1841.5 230.5)"/><path d="M942.482 171.5 942.482 199.903C942.482 200.732 941.81 201.403 940.982 201.403L696.5 201.403 698 199.903 698 220.807 695 220.807 695 199.903C695 199.075 695.672 198.403 696.5 198.403L940.982 198.403 939.482 199.903 939.482 171.5ZM701 219.307 696.5 228.307 692 219.307Z" fill="#0078D4"/><path d="M942.159 171.5 942.159 199.903C942.159 200.732 941.487 201.403 940.659 201.403L351.5 201.403 353 199.903 353 220.807 350 220.807 350 199.903C350 199.075 350.672 198.403 351.5 198.403L940.659 198.403 939.159 199.903 939.159 171.5ZM356 219.307 351.5 228.307 347 219.307Z" fill="#0078D4"/><path d="M0-1.5 28.4033-1.5C29.2317-1.5 29.9033-0.828427 29.9033 0L29.9033 444.275 28.4033 442.775 49.3066 442.775 49.3066 445.775 28.4033 445.775C27.5749 445.775 26.9033 445.104 26.9033 444.275L26.9033 0 28.4033 1.5 0 1.5ZM47.8066 439.775 56.8066 444.275 47.8066 448.775Z" fill="#0078D4" transform="matrix(1.83697e-16 1 1 -1.83697e-16 941.5 171.5)"/><path d="M0-1.5 100.311-1.5C101.14-1.5 101.811-0.828427 101.811 0L101.811 485.818 100.311 484.318 193.122 484.318 193.122 487.318 100.311 487.318C99.4827 487.318 98.8112 486.646 98.8112 485.818L98.8112 0 100.311 1.5 0 1.5ZM191.622 481.318 200.622 485.818 191.622 490.318Z" fill="#0078D4" transform="matrix(1.83697e-16 1 1 -1.83697e-16 351.5 381.5)"/><path d="M0-1.5 100.311-1.5C101.139-1.5 101.811-0.828427 101.811 0L101.811 141.141 100.311 139.641 193.122 139.641 193.122 142.641 100.311 142.641C99.4825 142.641 98.8109 141.969 98.8109 141.141L98.8109 0 100.311 1.5 0 1.5ZM191.622 136.641 200.622 141.141 191.622 145.641Z" fill="#0078D4" transform="matrix(1.83697e-16 1 1 -1.83697e-16 696.5 381.5)"/><path d="M1042.54 381.5 1042.54 481.811C1042.54 482.639 1041.86 483.311 1041.04 483.311L837.5 483.311 839 481.811 839 574.622 836 574.622 836 481.811C836 480.983 836.672 480.311 837.5 480.311L1041.04 480.311 1039.54 481.811 1039.54 381.5ZM842 573.122 837.5 582.122 833 573.122Z" fill="#0078D4"/><path d="M1386.62 381.5 1386.62 481.811C1386.62 482.64 1385.94 483.311 1385.12 483.311L837.5 483.311 839 481.811 839 574.622 836 574.622 836 481.811C836 480.983 836.672 480.311 837.5 480.311L1385.12 480.311 1383.62 481.811 1383.62 381.5ZM842 573.122 837.5 582.122 833 573.122Z" fill="#0078D4"/><path d="M0 1.5-24 1.5-22.5 0-22.5 1431.83-24 1430.33-7.49989 1430.33-7.49989 1433.33-24 1433.33C-24.8284 1433.33-25.5 1432.66-25.5 1431.83L-25.5 0C-25.5-0.828427-24.8284-1.5-24-1.5L0-1.5ZM-8.9999 1427.33 0.000104987 1431.83-8.9999 1436.33Z" fill="#0078D4" transform="matrix(-1 0 0 1 1841.5 414.5)"/><path d="M0 1.5-24 1.5-22.5 0-22.5 1247.82-24 1246.32-7.49989 1246.32-7.49989 1249.32-24 1249.32C-24.8284 1249.32-25.5 1248.65-25.5 1247.82L-25.5 0C-25.5-0.828427-24.8284-1.5-24-1.5L0-1.5ZM-8.9999 1243.32 0.000104987 1247.82-8.9999 1252.32Z" fill="#0078D4" transform="matrix(-1 0 0 1 1841.5 598.5)"/><path d="M1841.5 781 1865.65 781C1866.48 781 1867.15 781.672 1867.15 782.5L1867.15 1846.31C1867.15 1847.14 1866.48 1847.81 1865.65 1847.81L1849.15 1847.81 1849.15 1844.81 1865.65 1844.81 1864.15 1846.31 1864.15 782.5 1865.65 784 1841.5 784ZM1850.65 1850.81 1841.65 1846.31 1850.65 1841.81Z" fill="#0078D4"/><path d="M1841.5 1149 1865.65 1149C1866.48 1149 1867.15 1149.67 1867.15 1150.5L1867.15 1846.29C1867.15 1847.11 1866.48 1847.79 1865.65 1847.79L1849.15 1847.79 1849.15 1844.79 1865.65 1844.79 1864.15 1846.29 1864.15 1150.5 1865.65 1152 1841.5 1152ZM1850.65 1850.79 1841.65 1846.29 1850.65 1841.79Z" fill="#0078D4"/><path d="M0 1.5-24 1.5-22.5 0-22.5 511.775-24 510.275-7.49989 510.275-7.49989 513.275-24 513.275C-24.8284 513.275-25.5 512.603-25.5 511.775L-25.5 0C-25.5-0.828427-24.8284-1.5-24-1.5L0-1.5ZM-8.9999 507.275 0.000104987 511.775-8.9999 516.275Z" fill="#0078D4" transform="matrix(-1 0 0 1 1841.5 1334.5)"/><path d="M0 1.5-24 1.5-22.5 0-22.5 327.764-24 326.264-7.49989 326.264-7.49989 329.264-24 329.264C-24.8284 329.264-25.5 328.592-25.5 327.764L-25.5 0C-25.5-0.828427-24.8284-1.5-24-1.5L0-1.5ZM-8.9999 323.264 0.000104987 327.764-8.9999 332.264Z" fill="#0078D4" transform="matrix(-1 0 0 1 1841.5 1518.5)"/><rect x="37" y="1241" width="211" height="153" stroke="#A6A6A6" stroke-width="2" stroke-linejoin="round" stroke-miterlimit="10" fill="#A6A6A6"/><text font-family="Segoe UI,Segoe UI_MSFontService,sans-serif" font-weight="400" font-size="24" transform="translate(92.0258 1312)">Project to</text><text font-family="Segoe UI,Segoe UI_MSFontService,sans-serif" font-weight="400" font-size="24" transform="translate(114.232 1341)">profit</text><path d="M0-1.5 66.6328-1.5C67.4613-1.5 68.1328-0.828427 68.1328 0L68.1328 1223.06C68.1328 1223.89 67.4613 1224.56 66.6328 1224.56L50.1326 1224.56 50.1326 1221.56 66.6328 1221.56 65.1328 1223.06 65.1328 0 66.6328 1.5 0 1.5ZM51.6326 1227.56 42.6326 1223.06 51.6326 1218.56Z" fill="#0078D4" transform="matrix(-1 1.22465e-16 1.22465e-16 1 80.1327 95.5001)"/><path d="M0-1.5 224.643-1.5C225.472-1.5 226.143-0.828427 226.143 0L226.143 659.722 224.643 658.222 441.786 658.222 441.786 661.222 224.643 661.222C223.815 661.222 223.143 660.551 223.143 659.722L223.143 0 224.643 1.5 0 1.5ZM440.286 655.222 449.286 659.722 440.286 664.222Z" fill="#0078D4" transform="matrix(1 0 0 -1 248.5 1318.22)"/><path d="M841.552 1228.5 841.552 1293.32C841.552 1294.15 840.881 1294.82 840.052 1294.82L545.5 1294.82 547 1293.32 547 1350.64 544 1350.64 544 1293.32C544 1292.49 544.672 1291.82 545.5 1291.82L840.052 1291.82 838.552 1293.32 838.552 1228.5ZM550 1349.14 545.5 1358.14 541 1349.14Z" fill="#0078D4"/><path d="M842.333 1228.5 842.333 1293.32C842.333 1294.15 841.662 1294.82 840.833 1294.82L839.5 1294.82 841 1293.32 841 1350.64 838 1350.64 838 1293.32C838 1292.49 838.672 1291.82 839.5 1291.82L840.833 1291.82 839.333 1293.32 839.333 1228.5ZM844 1349.14 839.5 1358.14 835 1349.14Z" fill="#0078D4"/><path d="M0-1.5 64.818-1.5C65.6464-1.5 66.318-0.828427 66.318 0L66.318 290.87 64.818 289.37 122.136 289.37 122.136 292.37 64.818 292.37C63.9896 292.37 63.318 291.699 63.318 290.87L63.318 0 64.818 1.5 0 1.5ZM120.636 286.37 129.636 290.87 120.636 295.37Z" fill="#0078D4" transform="matrix(1.83697e-16 1 1 -1.83697e-16 840.5 1228.5)"/><path d="M0-1.5 47.2448-1.5C48.0733-1.5 48.7448-0.828427 48.7448 0L48.7448 294.552 47.2448 293.052 86.9894 293.052 86.9894 296.052 47.2448 296.052C46.4164 296.052 45.7448 295.381 45.7448 294.552L45.7448 0 47.2448 1.5 0 1.5ZM85.4893 290.052 94.4893 294.552 85.4893 299.052Z" fill="#0078D4" transform="matrix(1.83697e-16 1 1 -1.83697e-16 545.5 1510.5)"/><path d="M842 1510.5 842 1597.49 839 1597.49 839 1510.5ZM845 1595.99 840.5 1604.99 836 1595.99Z" fill="#0078D4"/><path d="M1132.87 1510.5 1132.87 1557.74C1132.87 1558.57 1132.2 1559.24 1131.37 1559.24L840.5 1559.24 842 1557.74 842 1597.49 839 1597.49 839 1557.74C839 1556.92 839.672 1556.24 840.5 1556.24L1131.37 1556.24 1129.87 1557.74 1129.87 1510.5ZM845 1595.99 840.5 1604.99 836 1595.99Z" fill="#0078D4"/><rect x="1629" y="889" width="212" height="153" stroke="#A6A6A6" stroke-width="2" stroke-linejoin="round" stroke-miterlimit="10" fill="#A0A0A0"/><text font-family="Segoe UI,Segoe UI_MSFontService,sans-serif" font-weight="400" font-size="24" transform="translate(1676.92 960)">Forecast to</text><text font-family="Segoe UI,Segoe UI_MSFontService,sans-serif" font-weight="400" font-size="24" transform="translate(1712.25 989)">plan</text><rect x="1629" y="1625" width="212" height="153" stroke="#A6A6A6" stroke-width="2" stroke-linejoin="round" stroke-miterlimit="10" fill="#A0A0A0"/><text font-family="Segoe UI,Segoe UI_MSFontService,sans-serif" font-weight="400" font-size="24" transform="translate(1696.01 1696)">Case to</text><text font-family="Segoe UI,Segoe UI_MSFontService,sans-serif" font-weight="400" font-size="24" transform="translate(1682.32 1725)">resolution</text><path d="M0-1.5 76.3537-1.5C77.1821-1.5 77.8537-0.828427 77.8537 0L77.8537 418.78C77.8537 419.609 77.1821 420.28 76.3537 420.28L59.8538 420.28 59.8538 417.28 76.3537 417.28 74.8537 418.78 74.8537 0 76.3537 1.5 0 1.5ZM61.3538 423.28 52.3538 418.78 61.3538 414.28Z" fill="#0078D4" transform="matrix(1 0 0 -1 1269.5 1434.28)"/><path d="M1269.5 1433 1449.53 1433C1450.36 1433 1451.03 1433.67 1451.03 1434.5L1451.03 1702.41 1449.53 1700.91 1622.07 1700.91 1622.07 1703.91 1449.53 1703.91C1448.7 1703.91 1448.03 1703.24 1448.03 1702.41L1448.03 1434.5 1449.53 1436 1269.5 1436ZM1620.57 1697.91 1629.57 1702.41 1620.57 1706.91Z" fill="#0078D4"/><path d="M977.5 657 1183.08 657C1183.91 657 1184.58 657.672 1184.58 658.5L1184.58 931.391 1181.58 931.391 1181.58 658.5 1183.08 660 977.5 660ZM1187.58 929.891 1183.08 938.891 1178.58 929.891Z" fill="#0078D4"/><path d="M1269.5 1433 1449.53 1433C1450.36 1433 1451.03 1433.67 1451.03 1434.5L1451.03 1518.4 1449.53 1516.9 1622.07 1516.9 1622.07 1519.9 1449.53 1519.9C1448.7 1519.9 1448.03 1519.23 1448.03 1518.4L1448.03 1434.5 1449.53 1436 1269.5 1436ZM1620.57 1513.9 1629.57 1518.4 1620.57 1522.9Z" fill="#0078D4"/><path d="M977.5 657 1469.88 657C1470.7 657 1471.38 657.672 1471.38 658.5L1471.38 966.181 1469.88 964.681 1622.75 964.681 1622.75 967.681 1469.88 967.681C1469.05 967.681 1468.38 967.01 1468.38 966.181L1468.38 658.5 1469.88 660 977.5 660ZM1621.25 961.681 1630.25 966.181 1621.25 970.681Z" fill="#0078D4"/><path d="M1.5-0.00378314 1.55856 23.2168-1.44143 23.2243-1.5 0.00378314ZM4.55477 21.7092 0.0774803 30.7205-4.4452 21.7319Z" fill="#0078D4" transform="matrix(-1 0 0 1 1735.58 674.5)"/><path d="M0 1.5-24 1.5-22.5 0-22.5 879.797-24 878.297-7.49989 878.297-7.49989 881.297-24 881.297C-24.8284 881.297-25.5 880.625-25.5 879.797L-25.5 0C-25.5-0.828427-24.8284-1.5-24-1.5L0-1.5ZM-8.9999 875.297 0.000104987 879.797-8.9999 884.297Z" fill="#0078D4" transform="matrix(-1 0 0 1 1841.5 966.5)"/><path d="M1841.5 1702.5 1866.74 1702.5" stroke="#0078D4" stroke-width="3" stroke-linejoin="round" stroke-miterlimit="10" fill="none" fill-rule="evenodd"/></g></svg>