<svg width="1920" height="1920" xmlns="http://www.w3.org/2000/svg" xmlns:xlink="http://www.w3.org/1999/xlink" overflow="hidden"><g><rect x="0" y="0" width="1920" height="1920" fill="#FFFFFF"/><path d="M37 107.699C37 75.2806 63.2806 49 95.6994 49L565.301 49C597.719 49 624 75.2806 624 107.699L624 1842.3C624 1874.72 597.719 1901 565.301 1901L95.6994 1901C63.2806 1901 37 1874.72 37 1842.3Z" fill="#CBCBCB" fill-rule="evenodd"/><text font-family="Segoe UI,Segoe UI_MSFontService,sans-serif" font-weight="400" font-size="87" transform="translate(145.163 305)">Upstream</text><text font-family="Segoe UI,Segoe UI_MSFontService,sans-serif" font-weight="400" font-size="87" transform="translate(144.15 409)">processes</text><path d="M95.5001 626.9C95.5001 615.081 105.081 605.5 116.9 605.5L544.1 605.5C555.919 605.5 565.5 615.081 565.5 626.9L565.5 798.1C565.5 809.919 555.919 819.5 544.1 819.5L116.9 819.5C105.081 819.5 95.5001 809.919 95.5001 798.1Z" stroke="#000000" stroke-width="1.13333" stroke-linejoin="round" stroke-miterlimit="10" fill="#FFFFFF" fill-rule="evenodd"/><text font-family="Segoe UI,Segoe UI_MSFontService,sans-serif" font-weight="400" font-size="31" transform="translate(222.143 723)">Forecast to plan</text><path d="M95.5001 873.9C95.5001 862.081 105.081 852.5 116.9 852.5L544.1 852.5C555.919 852.5 565.5 862.081 565.5 873.9L565.5 1045.1C565.5 1056.92 555.919 1066.5 544.1 1066.5L116.9 1066.5C105.081 1066.5 95.5001 1056.92 95.5001 1045.1Z" stroke="#000000" stroke-width="1.13333" stroke-linejoin="round" stroke-miterlimit="10" fill="#FFFFFF" fill-rule="evenodd"/><text font-family="Segoe UI,Segoe UI_MSFontService,sans-serif" font-weight="400" font-size="31" transform="translate(238.416 970)">Order to cash</text><path d="M95.5001 1120.9C95.5001 1109.08 105.081 1099.5 116.9 1099.5L544.1 1099.5C555.919 1099.5 565.5 1109.08 565.5 1120.9L565.5 1292.1C565.5 1303.92 555.919 1313.5 544.1 1313.5L116.9 1313.5C105.081 1313.5 95.5001 1303.92 95.5001 1292.1Z" stroke="#000000" stroke-width="1.13333" stroke-linejoin="round" stroke-miterlimit="10" fill="#FFFFFF" fill-rule="evenodd"/><text font-family="Segoe UI,Segoe UI_MSFontService,sans-serif" font-weight="400" font-size="31" transform="translate(139.096 1199)">Product and service lifecycle</text><text font-family="Segoe UI,Segoe UI_MSFontService,sans-serif" font-weight="400" font-size="31" transform="translate(240.376 1236)">management</text><path d="M95.5001 1368C95.5001 1356.13 105.126 1346.5 117 1346.5L544 1346.5C555.874 1346.5 565.5 1356.13 565.5 1368L565.5 1540C565.5 1551.87 555.874 1561.5 544 1561.5L117 1561.5C105.126 1561.5 95.5001 1551.87 95.5001 1540Z" stroke="#000000" stroke-width="1.13333" stroke-linejoin="round" stroke-miterlimit="10" fill="#FFFFFF" fill-rule="evenodd"/><text font-family="Segoe UI,Segoe UI_MSFontService,sans-serif" font-weight="400" font-size="31" transform="translate(224.283 1464)">Project to profit</text><path d="M95.5001 1615.9C95.5001 1604.08 105.081 1594.5 116.9 1594.5L544.1 1594.5C555.919 1594.5 565.5 1604.08 565.5 1615.9L565.5 1787.1C565.5 1798.92 555.919 1808.5 544.1 1808.5L116.9 1808.5C105.081 1808.5 95.5001 1798.92 95.5001 1787.1Z" stroke="#000000" stroke-width="1.13333" stroke-linejoin="round" stroke-miterlimit="10" fill="#FFFFFF" fill-rule="evenodd"/><text font-family="Segoe UI,Segoe UI_MSFontService,sans-serif" font-weight="400" font-size="31" transform="translate(209.246 1711)">Prospect to quote</text><path d="M668 107.699C668 75.2806 694.281 49 726.699 49L1196.3 49C1228.72 49 1255 75.2806 1255 107.699L1255 1842.3C1255 1874.72 1228.72 1901 1196.3 1901L726.699 1901C694.281 1901 668 1874.72 668 1842.3Z" fill="#CBCBCB" fill-rule="evenodd"/><text font-family="Segoe UI,Segoe UI_MSFontService,sans-serif" font-weight="400" font-size="87" transform="translate(763.594 305)">Procure to</text><text font-family="Segoe UI,Segoe UI_MSFontService,sans-serif" font-weight="400" font-size="87" transform="translate(893.127 409)">pay</text><path d="M726.5 614.3C726.5 609.44 730.44 605.5 735.3 605.5L1187.7 605.5C1192.56 605.5 1196.5 609.44 1196.5 614.3L1196.5 684.7C1196.5 689.56 1192.56 693.5 1187.7 693.5L735.3 693.5C730.44 693.5 726.5 689.56 726.5 684.7Z" stroke="#000000" stroke-width="1.13333" stroke-linejoin="round" stroke-miterlimit="10" fill="#FFFFFF" fill-rule="evenodd"/><text font-family="Segoe UI,Segoe UI_MSFontService,sans-serif" font-weight="400" font-size="31" transform="translate(764.614 660)">Manage vendor relationships</text><path d="M726.5 715.3C726.5 710.44 730.44 706.5 735.3 706.5L1187.7 706.5C1192.56 706.5 1196.5 710.44 1196.5 715.3L1196.5 785.7C1196.5 790.56 1192.56 794.5 1187.7 794.5L735.3 794.5C730.44 794.5 726.5 790.56 726.5 785.7Z" stroke="#000000" stroke-width="1.13333" stroke-linejoin="round" stroke-miterlimit="10" fill="#FFFFFF" fill-rule="evenodd"/><text font-family="Segoe UI,Segoe UI_MSFontService,sans-serif" font-weight="400" font-size="31" transform="translate(773.9 761)">Develop sourcing strategies</text><path d="M726.5 817.3C726.5 812.44 730.44 808.5 735.3 808.5L1187.7 808.5C1192.56 808.5 1196.5 812.44 1196.5 817.3L1196.5 887.7C1196.5 892.56 1192.56 896.5 1187.7 896.5L735.3 896.5C730.44 896.5 726.5 892.56 726.5 887.7Z" stroke="#000000" stroke-width="1.13333" stroke-linejoin="round" stroke-miterlimit="10" fill="#FFFFFF" fill-rule="evenodd"/><text font-family="Segoe UI,Segoe UI_MSFontService,sans-serif" font-weight="400" font-size="31" transform="translate(765.427 862)">Define procurement catalogs</text><path d="M726.5 918.3C726.5 913.44 730.44 909.5 735.3 909.5L1187.7 909.5C1192.56 909.5 1196.5 913.44 1196.5 918.3L1196.5 988.7C1196.5 993.56 1192.56 997.5 1187.7 997.5L735.3 997.5C730.44 997.5 726.5 993.56 726.5 988.7Z" stroke="#000000" stroke-width="1.13333" stroke-linejoin="round" stroke-miterlimit="10" fill="#FFFFFF" fill-rule="evenodd"/><text font-family="Segoe UI,Segoe UI_MSFontService,sans-serif" font-weight="400" font-size="31" transform="translate(752.63 945)">Define policies and procedures</text><text font-family="Segoe UI,Segoe UI_MSFontService,sans-serif" font-weight="400" font-size="31" transform="translate(850.604 982)">for procurement</text><path d="M726.5 1019.3C726.5 1014.44 730.44 1010.5 735.3 1010.5L1187.7 1010.5C1192.56 1010.5 1196.5 1014.44 1196.5 1019.3L1196.5 1089.7C1196.5 1094.56 1192.56 1098.5 1187.7 1098.5L735.3 1098.5C730.44 1098.5 726.5 1094.56 726.5 1089.7Z" stroke="#000000" stroke-width="1.13333" stroke-linejoin="round" stroke-miterlimit="10" fill="#FFFFFF" fill-rule="evenodd"/><text font-family="Segoe UI,Segoe UI_MSFontService,sans-serif" font-weight="400" font-size="31" transform="translate(883.73 1065)">Plan supply</text><path d="M726.5 1121.3C726.5 1116.44 730.44 1112.5 735.3 1112.5L1187.7 1112.5C1192.56 1112.5 1196.5 1116.44 1196.5 1121.3L1196.5 1191.7C1196.5 1196.56 1192.56 1200.5 1187.7 1200.5L735.3 1200.5C730.44 1200.5 726.5 1196.56 726.5 1191.7Z" stroke="#000000" stroke-width="1.13333" stroke-linejoin="round" stroke-miterlimit="10" fill="#FFFFFF" fill-rule="evenodd"/><text font-family="Segoe UI,Segoe UI_MSFontService,sans-serif" font-weight="400" font-size="31" transform="translate(757.037 1166)">Procure materials and services</text><path d="M726.5 1222.3C726.5 1217.44 730.44 1213.5 735.3 1213.5L1187.7 1213.5C1192.56 1213.5 1196.5 1217.44 1196.5 1222.3L1196.5 1292.7C1196.5 1297.56 1192.56 1301.5 1187.7 1301.5L735.3 1301.5C730.44 1301.5 726.5 1297.56 726.5 1292.7Z" stroke="#000000" stroke-width="1.13333" stroke-linejoin="round" stroke-miterlimit="10" fill="#FFFFFF" fill-rule="evenodd"/><text font-family="Segoe UI,Segoe UI_MSFontService,sans-serif" font-weight="400" font-size="31" transform="translate(800.594 1268)">Process vendor invoices</text><path d="M726.5 1323.3C726.5 1318.44 730.44 1314.5 735.3 1314.5L1187.7 1314.5C1192.56 1314.5 1196.5 1318.44 1196.5 1323.3L1196.5 1393.7C1196.5 1398.56 1192.56 1402.5 1187.7 1402.5L735.3 1402.5C730.44 1402.5 726.5 1398.56 726.5 1393.7Z" stroke="#000000" stroke-width="1.13333" stroke-linejoin="round" stroke-miterlimit="10" fill="#FFFFFF" fill-rule="evenodd"/><text font-family="Segoe UI,Segoe UI_MSFontService,sans-serif" font-weight="400" font-size="31" transform="translate(735.37 1369)">Issue and settle vendor payments</text><path d="M726.5 1425.3C726.5 1420.44 730.44 1416.5 735.3 1416.5L1187.7 1416.5C1192.56 1416.5 1196.5 1420.44 1196.5 1425.3L1196.5 1495.7C1196.5 1500.56 1192.56 1504.5 1187.7 1504.5L735.3 1504.5C730.44 1504.5 726.5 1500.56 726.5 1495.7Z" stroke="#000000" stroke-width="1.13333" stroke-linejoin="round" stroke-miterlimit="10" fill="#FFFFFF" fill-rule="evenodd"/><text font-family="Segoe UI,Segoe UI_MSFontService,sans-serif" font-weight="400" font-size="31" transform="translate(779.074 1452)">Manage vendor debits and</text><text font-family="Segoe UI,Segoe UI_MSFontService,sans-serif" font-weight="400" font-size="31" transform="translate(877.494 1489)">chargebacks</text><path d="M726.5 1526.3C726.5 1521.44 730.44 1517.5 735.3 1517.5L1187.7 1517.5C1192.56 1517.5 1196.5 1521.44 1196.5 1526.3L1196.5 1596.7C1196.5 1601.56 1192.56 1605.5 1187.7 1605.5L735.3 1605.5C730.44 1605.5 726.5 1601.56 726.5 1596.7Z" stroke="#000000" stroke-width="1.13333" stroke-linejoin="round" stroke-miterlimit="10" fill="#FFFFFF" fill-rule="evenodd"/><text font-family="Segoe UI,Segoe UI_MSFontService,sans-serif" font-weight="400" font-size="31" transform="translate(752.764 1553)">Create and process promissory</text><text font-family="Segoe UI,Segoe UI_MSFontService,sans-serif" font-weight="400" font-size="31" transform="translate(923.784 1590)">notes</text><path d="M726.5 1628.2C726.5 1623.4 730.395 1619.5 735.2 1619.5L1187.8 1619.5C1192.6 1619.5 1196.5 1623.4 1196.5 1628.2L1196.5 1697.8C1196.5 1702.6 1192.6 1706.5 1187.8 1706.5L735.2 1706.5C730.395 1706.5 726.5 1702.6 726.5 1697.8Z" stroke="#000000" stroke-width="1.13333" stroke-linejoin="round" stroke-miterlimit="10" fill="#FFFFFF" fill-rule="evenodd"/><text font-family="Segoe UI,Segoe UI_MSFontService,sans-serif" font-weight="400" font-size="31" transform="translate(775.477 1655)">Process vendor rebates and</text><text font-family="Segoe UI,Segoe UI_MSFontService,sans-serif" font-weight="400" font-size="31" transform="translate(894.19 1692)">incentives</text><path d="M726.5 1729.3C726.5 1724.44 730.44 1720.5 735.3 1720.5L1187.7 1720.5C1192.56 1720.5 1196.5 1724.44 1196.5 1729.3L1196.5 1799.7C1196.5 1804.56 1192.56 1808.5 1187.7 1808.5L735.3 1808.5C730.44 1808.5 726.5 1804.56 726.5 1799.7Z" stroke="#000000" stroke-width="1.13333" stroke-linejoin="round" stroke-miterlimit="10" fill="#FFFFFF" fill-rule="evenodd"/><text font-family="Segoe UI,Segoe UI_MSFontService,sans-serif" font-weight="400" font-size="31" transform="translate(766.377 1775)">Analyze vendor performance</text><path d="M1299 107.699C1299 75.2806 1325.28 49 1357.7 49L1827.3 49C1859.72 49 1886 75.2806 1886 107.699L1886 1842.3C1886 1874.72 1859.72 1901 1827.3 1901L1357.7 1901C1325.28 1901 1299 1874.72 1299 1842.3Z" fill="#CBCBCB" fill-rule="evenodd"/><text font-family="Segoe UI,Segoe UI_MSFontService,sans-serif" font-weight="400" font-size="87" transform="translate(1350.88 305)">Downstream</text><text font-family="Segoe UI,Segoe UI_MSFontService,sans-serif" font-weight="400" font-size="87" transform="translate(1406.23 409)">processes</text><path d="M1357.5 617.3C1357.5 610.783 1362.78 605.5 1369.3 605.5L1815.7 605.5C1822.22 605.5 1827.5 610.783 1827.5 617.3L1827.5 711.7C1827.5 718.217 1822.22 723.5 1815.7 723.5L1369.3 723.5C1362.78 723.5 1357.5 718.217 1357.5 711.7Z" stroke="#000000" stroke-width="1.13333" stroke-linejoin="round" stroke-miterlimit="10" fill="#FFFFFF" fill-rule="evenodd"/><text font-family="Segoe UI,Segoe UI_MSFontService,sans-serif" font-weight="400" font-size="31" transform="translate(1466.32 675)">Acquire to dispose</text><path d="M1357.5 753.2C1357.5 746.738 1362.74 741.5 1369.2 741.5L1815.8 741.5C1822.26 741.5 1827.5 746.738 1827.5 753.2L1827.5 846.8C1827.5 853.262 1822.26 858.5 1815.8 858.5L1369.2 858.5C1362.74 858.5 1357.5 853.262 1357.5 846.8Z" stroke="#000000" stroke-width="1.13333" stroke-linejoin="round" stroke-miterlimit="10" fill="#FFFFFF" fill-rule="evenodd"/><text font-family="Segoe UI,Segoe UI_MSFontService,sans-serif" font-weight="400" font-size="31" transform="translate(1470.21 810)">Case to resolution</text><path d="M1357.5 888.3C1357.5 881.783 1362.78 876.5 1369.3 876.5L1815.7 876.5C1822.22 876.5 1827.5 881.783 1827.5 888.3L1827.5 982.7C1827.5 989.217 1822.22 994.5 1815.7 994.5L1369.3 994.5C1362.78 994.5 1357.5 989.217 1357.5 982.7Z" stroke="#000000" stroke-width="1.13333" stroke-linejoin="round" stroke-miterlimit="10" fill="#FFFFFF" fill-rule="evenodd"/><text font-family="Segoe UI,Segoe UI_MSFontService,sans-serif" font-weight="400" font-size="31" transform="translate(1484.22 946)">Forecast to plan</text><path d="M1357.5 1024.3C1357.5 1017.78 1362.78 1012.5 1369.3 1012.5L1815.7 1012.5C1822.22 1012.5 1827.5 1017.78 1827.5 1024.3L1827.5 1118.7C1827.5 1125.22 1822.22 1130.5 1815.7 1130.5L1369.3 1130.5C1362.78 1130.5 1357.5 1125.22 1357.5 1118.7Z" stroke="#000000" stroke-width="1.13333" stroke-linejoin="round" stroke-miterlimit="10" fill="#FFFFFF" fill-rule="evenodd"/><text font-family="Segoe UI,Segoe UI_MSFontService,sans-serif" font-weight="400" font-size="31" transform="translate(1460.42 1081)">Inventory to deliver</text><path d="M1357.5 1160.2C1357.5 1153.74 1362.74 1148.5 1369.2 1148.5L1815.8 1148.5C1822.26 1148.5 1827.5 1153.74 1827.5 1160.2L1827.5 1253.8C1827.5 1260.26 1822.26 1265.5 1815.8 1265.5L1369.2 1265.5C1362.74 1265.5 1357.5 1260.26 1357.5 1253.8Z" stroke="#000000" stroke-width="1.13333" stroke-linejoin="round" stroke-miterlimit="10" fill="#FFFFFF" fill-rule="evenodd"/><text font-family="Segoe UI,Segoe UI_MSFontService,sans-serif" font-weight="400" font-size="31" transform="translate(1500.5 1217)">Order to cash</text><path d="M1357.5 1295.3C1357.5 1288.78 1362.78 1283.5 1369.3 1283.5L1815.7 1283.5C1822.22 1283.5 1827.5 1288.78 1827.5 1295.3L1827.5 1389.7C1827.5 1396.22 1822.22 1401.5 1815.7 1401.5L1369.3 1401.5C1362.78 1401.5 1357.5 1396.22 1357.5 1389.7Z" stroke="#000000" stroke-width="1.13333" stroke-linejoin="round" stroke-miterlimit="10" fill="#FFFFFF" fill-rule="evenodd"/><text font-family="Segoe UI,Segoe UI_MSFontService,sans-serif" font-weight="400" font-size="31" transform="translate(1484.92 1353)">Plan to produce</text><path d="M1357.5 1431.2C1357.5 1424.74 1362.74 1419.5 1369.2 1419.5L1815.8 1419.5C1822.26 1419.5 1827.5 1424.74 1827.5 1431.2L1827.5 1524.8C1827.5 1531.26 1822.26 1536.5 1815.8 1536.5L1369.2 1536.5C1362.74 1536.5 1357.5 1531.26 1357.5 1524.8Z" stroke="#000000" stroke-width="1.13333" stroke-linejoin="round" stroke-miterlimit="10" fill="#FFFFFF" fill-rule="evenodd"/><text font-family="Segoe UI,Segoe UI_MSFontService,sans-serif" font-weight="400" font-size="31" transform="translate(1486.36 1488)">Project to profit</text><path d="M1357.5 1566.3C1357.5 1559.78 1362.78 1554.5 1369.3 1554.5L1815.7 1554.5C1822.22 1554.5 1827.5 1559.78 1827.5 1566.3L1827.5 1660.7C1827.5 1667.22 1822.22 1672.5 1815.7 1672.5L1369.3 1672.5C1362.78 1672.5 1357.5 1667.22 1357.5 1660.7Z" stroke="#000000" stroke-width="1.13333" stroke-linejoin="round" stroke-miterlimit="10" fill="#FFFFFF" fill-rule="evenodd"/><text font-family="Segoe UI,Segoe UI_MSFontService,sans-serif" font-weight="400" font-size="31" transform="translate(1480.53 1624)">Record to report</text><path d="M1357.5 1702.3C1357.5 1695.78 1362.78 1690.5 1369.3 1690.5L1815.7 1690.5C1822.22 1690.5 1827.5 1695.78 1827.5 1702.3L1827.5 1796.7C1827.5 1803.22 1822.22 1808.5 1815.7 1808.5L1369.3 1808.5C1362.78 1808.5 1357.5 1803.22 1357.5 1796.7Z" stroke="#000000" stroke-width="1.13333" stroke-linejoin="round" stroke-miterlimit="10" fill="#FFFFFF" fill-rule="evenodd"/><text font-family="Segoe UI,Segoe UI_MSFontService,sans-serif" font-weight="400" font-size="31" transform="translate(1491.29 1759)">Service to cash</text></g></svg>