<?xml version="1.0" encoding="UTF-8" standalone="no"?>
<svg
   width="1920"
   height="1525.5306"
   overflow="hidden"
   version="1.1"
   id="svg170"
   sodipodi:docname="procure-to-pay-define-procurement-catalogs-flow.svg"
   inkscape:version="1.2.2 (732a01da63, 2022-12-09)"
   xmlns:inkscape="http://www.inkscape.org/namespaces/inkscape"
   xmlns:sodipodi="http://sodipodi.sourceforge.net/DTD/sodipodi-0.dtd"
   xmlns="http://www.w3.org/2000/svg"
   xmlns:svg="http://www.w3.org/2000/svg">
  <defs
     id="defs174" />
  <sodipodi:namedview
     id="namedview172"
     pagecolor="#ffffff"
     bordercolor="#000000"
     borderopacity="0.25"
     inkscape:showpageshadow="2"
     inkscape:pageopacity="0.0"
     inkscape:pagecheckerboard="0"
     inkscape:deskcolor="#d1d1d1"
     showgrid="false"
     inkscape:zoom="0.53489583"
     inkscape:cx="960"
     inkscape:cy="932.89192"
     inkscape:window-width="3840"
     inkscape:window-height="2054"
     inkscape:window-x="2725"
     inkscape:window-y="-11"
     inkscape:window-maximized="1"
     inkscape:current-layer="svg170" />
  <g
     id="g168"
     transform="translate(0,-26.173321)">
    <rect
       x="0"
       y="26.173321"
       width="1920"
       height="1525.5306"
       fill="#ffffff"
       id="rect2"
       style="stroke-width:0.891374" />
    <rect
       x="918.5"
       y="68.500099"
       width="999"
       height="1469"
       stroke="#0078d4"
       stroke-width="3"
       stroke-linejoin="round"
       stroke-miterlimit="10"
       fill="#d9d9d9"
       id="rect4" />
    <text
       fill="#0078d4"
       font-family="'Segoe UI', 'Segoe UI_MSFontService', sans-serif"
       font-weight="700"
       font-size="24px"
       transform="translate(946.824,114)"
       id="text6">Business process area</text>
    <path
       d="M 31,68.5 C 31,48.3416 47.3416,32 67.5,32 h 139 c 20.158,0 36.5,16.3416 36.5,36.5 v 0 C 243,88.6584 226.658,105 206.5,105 H 67.5 C 47.3416,105 31,88.6584 31,68.5 Z"
       stroke="#0078d4"
       stroke-width="2"
       stroke-linejoin="round"
       stroke-miterlimit="10"
       fill="none"
       fill-rule="evenodd"
       id="path8" />
    <text
       font-family="'Segoe UI', 'Segoe UI_MSFontService', sans-serif"
       font-weight="400"
       font-size="24px"
       transform="translate(112.164,77)"
       id="text10">Start</text>
    <rect
       x="31"
       y="152"
       width="212"
       height="153"
       stroke="#000000"
       stroke-width="2"
       stroke-linejoin="round"
       stroke-miterlimit="10"
       fill="#a0a0a0"
       id="rect12" />
    <text
       font-family="'Segoe UI', 'Segoe UI_MSFontService', sans-serif"
       font-weight="400"
       font-size="24px"
       transform="translate(72.5309,194)"
       id="text14">Product and</text>
    <text
       font-family="'Segoe UI', 'Segoe UI_MSFontService', sans-serif"
       font-weight="400"
       font-size="24px"
       transform="translate(100.478,223)"
       id="text16">service</text>
    <text
       font-family="'Segoe UI', 'Segoe UI_MSFontService', sans-serif"
       font-weight="400"
       font-size="24px"
       transform="translate(95.0175,252)"
       id="text18">lifecycle</text>
    <text
       font-family="'Segoe UI', 'Segoe UI_MSFontService', sans-serif"
       font-weight="400"
       font-size="24px"
       transform="translate(66.9575,281)"
       id="text20">management</text>
    <path
       d="M 1.5,-6.72652e-6 1.50018,39.3237 h -3 L -1.5,6.72652e-6 Z M 4.50017,37.8237 l -4.499960026,9 -4.500039974,-9 z"
       fill="#0078d4"
       transform="matrix(-1,0,0,1,137.5,105.5)"
       id="path22" />
    <rect
       x="300"
       y="152"
       width="252"
       height="153"
       fill="#ffffff"
       id="rect24" />
    <path
       d="m 331.5,152 v 153 m 189,-153 v 153"
       stroke="#0078d4"
       stroke-width="2"
       stroke-linejoin="round"
       stroke-miterlimit="10"
       fill="none"
       fill-rule="evenodd"
       id="path26" />
    <rect
       x="300"
       y="152"
       width="252"
       height="153"
       stroke="#0078d4"
       stroke-width="2"
       stroke-linejoin="round"
       stroke-miterlimit="10"
       fill="none"
       id="rect28" />
    <text
       font-family="'Segoe UI', 'Segoe UI_MSFontService', sans-serif"
       font-weight="400"
       font-size="24px"
       transform="translate(392.145,208)"
       id="text30">Define</text>
    <text
       font-family="'Segoe UI', 'Segoe UI_MSFontService', sans-serif"
       font-weight="400"
       font-size="24px"
       transform="translate(384.885,237)"
       id="text32">product</text>
    <text
       font-family="'Segoe UI', 'Segoe UI_MSFontService', sans-serif"
       font-weight="400"
       font-size="24px"
       transform="translate(402.558,266)"
       id="text34">lines</text>
    <rect
       x="31"
       y="361"
       width="212"
       height="154"
       stroke="#000000"
       stroke-width="2"
       stroke-linejoin="round"
       stroke-miterlimit="10"
       fill="#a0a0a0"
       id="rect36" />
    <text
       font-family="'Segoe UI', 'Segoe UI_MSFontService', sans-serif"
       font-weight="400"
       font-size="24px"
       transform="translate(60.2709,447)"
       id="text38">Procure to pay</text>
    <rect
       x="610"
       y="152"
       width="252"
       height="153"
       fill="#ffffff"
       id="rect40" />
    <path
       d="m 641.5,152 v 153 m 189,-153 v 153"
       stroke="#0078d4"
       stroke-width="2"
       stroke-linejoin="round"
       stroke-miterlimit="10"
       fill="none"
       fill-rule="evenodd"
       id="path42" />
    <rect
       x="610"
       y="152"
       width="252"
       height="153"
       stroke="#0078d4"
       stroke-width="2"
       stroke-linejoin="round"
       stroke-miterlimit="10"
       fill="none"
       id="rect44" />
    <text
       font-family="'Segoe UI', 'Segoe UI_MSFontService', sans-serif"
       font-weight="400"
       font-size="24px"
       transform="translate(688.867,223)"
       id="text46">Organize</text>
    <text
       font-family="'Segoe UI', 'Segoe UI_MSFontService', sans-serif"
       font-weight="400"
       font-size="24px"
       transform="translate(689.78,252)"
       id="text48">products</text>
    <rect
       x="1607"
       y="843"
       width="252"
       height="154"
       fill="#ffffff"
       id="rect50" />
    <path
       d="m 1638.5,843 v 154 m 189,-154 v 154"
       stroke="#0078d4"
       stroke-width="2"
       stroke-linejoin="round"
       stroke-miterlimit="10"
       fill="none"
       fill-rule="evenodd"
       id="path52" />
    <rect
       x="1607"
       y="843"
       width="252"
       height="154"
       stroke="#0078d4"
       stroke-width="2"
       stroke-linejoin="round"
       stroke-miterlimit="10"
       fill="none"
       id="rect54" />
    <text
       font-family="'Segoe UI', 'Segoe UI_MSFontService', sans-serif"
       font-weight="400"
       font-size="24px"
       transform="translate(1698.81,885)"
       id="text56">Assign</text>
    <text
       font-family="'Segoe UI', 'Segoe UI_MSFontService', sans-serif"
       font-weight="400"
       font-size="24px"
       transform="translate(1681.61,914)"
       id="text58">employee</text>
    <text
       font-family="'Segoe UI', 'Segoe UI_MSFontService', sans-serif"
       font-weight="400"
       font-size="24px"
       transform="translate(1685.57,943)"
       id="text60">access to</text>
    <text
       font-family="'Segoe UI', 'Segoe UI_MSFontService', sans-serif"
       font-weight="400"
       font-size="24px"
       transform="translate(1689.55,972)"
       id="text62">catalogs</text>
    <rect
       x="1297"
       y="843"
       width="252"
       height="154"
       fill="#ffffff"
       id="rect64" />
    <path
       d="m 1328.5,843 v 154 m 189,-154 v 154"
       stroke="#0078d4"
       stroke-width="2"
       stroke-linejoin="round"
       stroke-miterlimit="10"
       fill="none"
       fill-rule="evenodd"
       id="path66" />
    <rect
       x="1297"
       y="843"
       width="252"
       height="154"
       stroke="#0078d4"
       stroke-width="2"
       stroke-linejoin="round"
       stroke-miterlimit="10"
       fill="none"
       id="rect68" />
    <text
       font-family="'Segoe UI', 'Segoe UI_MSFontService', sans-serif"
       font-weight="400"
       font-size="24px"
       transform="translate(1388.49,900)"
       id="text70">Assign</text>
    <text
       font-family="'Segoe UI', 'Segoe UI_MSFontService', sans-serif"
       font-weight="400"
       font-size="24px"
       transform="translate(1366.82,929)"
       id="text72">vendors to</text>
    <text
       font-family="'Segoe UI', 'Segoe UI_MSFontService', sans-serif"
       font-weight="400"
       font-size="24px"
       transform="translate(1379.24,958)"
       id="text74">catalogs</text>
    <rect
       x="1297"
       y="361"
       width="252"
       height="154"
       stroke="#00569b"
       stroke-width="2"
       stroke-linejoin="round"
       stroke-miterlimit="10"
       fill="#0078d4"
       id="rect76" />
    <text
       font-family="'Segoe UI', 'Segoe UI_MSFontService', sans-serif"
       font-weight="400"
       font-size="24px"
       transform="translate(1388.82,418)"
       id="text78">Define</text>
    <text
       font-family="'Segoe UI', 'Segoe UI_MSFontService', sans-serif"
       font-weight="400"
       font-size="24px"
       transform="translate(1355.05,447)"
       id="text80">procurement</text>
    <text
       font-family="'Segoe UI', 'Segoe UI_MSFontService', sans-serif"
       font-weight="400"
       font-size="24px"
       transform="translate(1379.24,476)"
       id="text82">catalogs</text>
    <rect
       x="1298"
       y="1066"
       width="252"
       height="153"
       fill="#ffffff"
       id="rect84" />
    <path
       d="m 1329.5,1066 v 153 m 189,-153 v 153"
       stroke="#0078d4"
       stroke-width="2"
       stroke-linejoin="round"
       stroke-miterlimit="10"
       fill="none"
       fill-rule="evenodd"
       id="path86" />
    <rect
       x="1298"
       y="1066"
       width="252"
       height="153"
       stroke="#0078d4"
       stroke-width="2"
       stroke-linejoin="round"
       stroke-miterlimit="10"
       fill="none"
       id="rect88" />
    <text
       font-family="'Segoe UI', 'Segoe UI_MSFontService', sans-serif"
       font-weight="400"
       font-size="24px"
       transform="translate(1371.89,1108)"
       id="text90">Configure</text>
    <text
       font-family="'Segoe UI', 'Segoe UI_MSFontService', sans-serif"
       font-weight="400"
       font-size="24px"
       transform="translate(1375.91,1137)"
       id="text92">access to</text>
    <text
       font-family="'Segoe UI', 'Segoe UI_MSFontService', sans-serif"
       font-weight="400"
       font-size="24px"
       transform="translate(1381.93,1166)"
       id="text94">external</text>
    <text
       font-family="'Segoe UI', 'Segoe UI_MSFontService', sans-serif"
       font-weight="400"
       font-size="24px"
       transform="translate(1379.9,1195)"
       id="text96">catalogs</text>
    <path
       d="m 1318,1349 c 0,-19.88 16.12,-36 36,-36 h 139 c 19.88,0 36,16.12 36,36 v 0 c 0,19.88 -16.12,36 -36,36 h -139 c -19.88,0 -36,-16.12 -36,-36 z"
       stroke="#0078d4"
       stroke-width="2"
       stroke-linejoin="round"
       stroke-miterlimit="10"
       fill="#ffffff"
       fill-rule="evenodd"
       id="path98" />
    <text
       font-family="'Segoe UI', 'Segoe UI_MSFontService', sans-serif"
       font-weight="400"
       font-size="24px"
       transform="translate(1403.9,1358)"
       id="text100">End</text>
    <path
       d="m 552.5,227 h 50.482 v 3 H 552.5 Z m 48.982,-3 9,4.5 -9,4.5 z"
       fill="#0078d4"
       id="path102" />
    <path
       d="M 5.44507e-6,-1.5 50.3433,-1.49982 l -10e-5,3 L -5.44507e-6,1.5 Z M 48.8433,-4.49982 l 9,4.500029974 L 48.8432,4.50018 Z"
       fill="#0078d4"
       transform="matrix(1,0,0,-1,243.5,228.5)"
       id="path104" />
    <path
       d="m 862.5,227 h 560.69 c 0.83,0 1.5,0.672 1.5,1.5 v 125.633 h -3 V 228.5 l 1.5,1.5 H 862.5 Z m 565.19,125.633 -4.5,9 -4.5,-9 z"
       fill="#0078d4"
       id="path106" />
    <path
       d="m 0,-1.5 h 24.0002 c 0.8284,0 1.5,0.671573 1.5,1.5 v 369.634 c 0,0.829 -0.6716,1.5 -1.5,1.5 H 7.50021 v -3 H 24.0002 l -1.5,1.5 V 0 l 1.5,1.5 H 0 Z m 9.00021,375.634 -9.000000026,-4.5 9.000000026,-4.5 z"
       fill="#0078d4"
       transform="matrix(-1,0,0,1,31.5003,68.5001)"
       id="path108" />
    <rect
       x="300"
       y="361"
       width="252"
       height="154"
       fill="#ffffff"
       id="rect110" />
    <path
       d="m 331.5,361 v 154 m 189,-154 v 154"
       stroke="#0078d4"
       stroke-width="2"
       stroke-linejoin="round"
       stroke-miterlimit="10"
       fill="none"
       fill-rule="evenodd"
       id="path112" />
    <rect
       x="300"
       y="361"
       width="252"
       height="154"
       stroke="#0078d4"
       stroke-width="2"
       stroke-linejoin="round"
       stroke-miterlimit="10"
       fill="none"
       id="rect114" />
    <text
       font-family="'Segoe UI', 'Segoe UI_MSFontService', sans-serif"
       font-weight="400"
       font-size="24px"
       transform="translate(392.482,432)"
       id="text116">Create</text>
    <text
       font-family="'Segoe UI', 'Segoe UI_MSFontService', sans-serif"
       font-weight="400"
       font-size="24px"
       transform="translate(384.382,461)"
       id="text118">vendors</text>
    <path
       d="M 5.44507e-6,-1.5 50.3433,-1.49982 l -10e-5,3 L -5.44507e-6,1.5 Z M 48.8433,-4.49982 l 9,4.500029974 L 48.8432,4.50018 Z"
       fill="#0078d4"
       transform="matrix(1,0,0,-1,243.5,438.5)"
       id="path120" />
    <path
       d="m 552.5,437 h 737.18 v 3 H 552.5 Z m 735.68,-3 9,4.5 -9,4.5 z"
       fill="#0078d4"
       id="path122" />
    <rect
       x="1297"
       y="575"
       width="252"
       height="153"
       fill="#ffffff"
       id="rect124" />
    <path
       d="m 1328.5,575 v 153 m 189,-153 v 153"
       stroke="#0078d4"
       stroke-width="2"
       stroke-linejoin="round"
       stroke-miterlimit="10"
       fill="none"
       fill-rule="evenodd"
       id="path126" />
    <rect
       x="1297"
       y="575"
       width="252"
       height="153"
       stroke="#0078d4"
       stroke-width="2"
       stroke-linejoin="round"
       stroke-miterlimit="10"
       fill="none"
       id="rect128" />
    <text
       font-family="'Segoe UI', 'Segoe UI_MSFontService', sans-serif"
       font-weight="400"
       font-size="24px"
       transform="translate(1389.15,631)"
       id="text130">Create</text>
    <text
       font-family="'Segoe UI', 'Segoe UI_MSFontService', sans-serif"
       font-weight="400"
       font-size="24px"
       transform="translate(1359.13,660)"
       id="text132">procuremen</text>
    <text
       font-family="'Segoe UI', 'Segoe UI_MSFontService', sans-serif"
       font-weight="400"
       font-size="24px"
       transform="translate(1371.9,689)"
       id="text134">t catalogs</text>
    <rect
       x="987"
       y="843"
       width="252"
       height="154"
       fill="#ffffff"
       id="rect136" />
    <path
       d="m 1018.5,843 v 154 m 189,-154 v 154"
       stroke="#0078d4"
       stroke-width="2"
       stroke-linejoin="round"
       stroke-miterlimit="10"
       fill="none"
       fill-rule="evenodd"
       id="path138" />
    <rect
       x="987"
       y="843"
       width="252"
       height="154"
       stroke="#0078d4"
       stroke-width="2"
       stroke-linejoin="round"
       stroke-miterlimit="10"
       fill="none"
       id="rect140" />
    <text
       font-family="'Segoe UI', 'Segoe UI_MSFontService', sans-serif"
       font-weight="400"
       font-size="24px"
       transform="translate(1078.17,900)"
       id="text142">Assign</text>
    <text
       font-family="'Segoe UI', 'Segoe UI_MSFontService', sans-serif"
       font-weight="400"
       font-size="24px"
       transform="translate(1051.92,929)"
       id="text144">products to</text>
    <text
       font-family="'Segoe UI', 'Segoe UI_MSFontService', sans-serif"
       font-weight="400"
       font-size="24px"
       transform="translate(1068.92,958)"
       id="text146">catalogs</text>
    <path
       d="m 1114.5,844.833 v -24 h 620.63 V 843.5"
       stroke="#0078d4"
       stroke-width="3"
       stroke-linejoin="round"
       stroke-miterlimit="10"
       fill="none"
       fill-rule="evenodd"
       id="path148" />
    <path
       d="m 1113.5,997.5 h 0.24 v 23.33 h 620.23 v -21.997"
       stroke="#0078d4"
       stroke-width="3"
       stroke-linejoin="round"
       stroke-miterlimit="10"
       fill="none"
       fill-rule="evenodd"
       id="path150" />
    <path
       d="m 1425,728.5 v 83.22 h -3 V 728.5 Z m 3,81.72 -4.5,9 -4.5,-9 z"
       fill="#0078d4"
       id="path152" />
    <path
       d="M 1.5,-1.04549e-5 1.50037,52.7515 l -3,1e-4 L -1.5,1.04549e-5 Z M 4.50036,51.2515 4.19947e-4,60.2515 -4.49964,51.2516 Z"
       fill="#0078d4"
       transform="matrix(-1,0,0,1,1423.5,515.5)"
       id="path154" />
    <path
       d="m 1425,1021.48 0.56,37.49 -3,0.04 -0.56,-37.49 z m 3.53,35.94 -4.36,9.07 -4.64,-8.93 z"
       fill="#0078d4"
       id="path156" />
    <path
       d="m 1239.5,920.5 h 58.32"
       stroke="#0078d4"
       stroke-width="3"
       stroke-linejoin="round"
       stroke-miterlimit="10"
       fill="none"
       fill-rule="evenodd"
       id="path158" />
    <path
       d="m 1549.5,920.5 h 58.32"
       stroke="#0078d4"
       stroke-width="3"
       stroke-linejoin="round"
       stroke-miterlimit="10"
       fill="none"
       fill-rule="evenodd"
       id="path160" />
    <path
       d="m 1423.5,998.5 v 27.91"
       stroke="#0078d4"
       stroke-width="3"
       stroke-linejoin="round"
       stroke-miterlimit="10"
       fill="none"
       fill-rule="evenodd"
       id="path162" />
    <path
       d="m 1423.5,819.5 v 24.248"
       stroke="#0078d4"
       stroke-width="3"
       stroke-linejoin="round"
       stroke-miterlimit="10"
       fill="none"
       fill-rule="evenodd"
       id="path164" />
    <path
       d="m 1426,1219.5 v 85.92 h -3 v -85.92 z m 3,84.42 -4.5,9 -4.5,-9 z"
       fill="#0078d4"
       id="path166" />
  </g>
</svg>
