<?xml version="1.0" encoding="UTF-8" standalone="no"?>
<svg
   width="1859.8351"
   height="1865.1128"
   overflow="hidden"
   version="1.1"
   id="svg37"
   sodipodi:docname="procure-to-pay-process.svg"
   inkscape:version="1.3.2 (091e20e, 2023-11-25, custom)"
   xmlns:inkscape="http://www.inkscape.org/namespaces/inkscape"
   xmlns:sodipodi="http://sodipodi.sourceforge.net/DTD/sodipodi-0.dtd"
   xmlns="http://www.w3.org/2000/svg"
   xmlns:svg="http://www.w3.org/2000/svg">
  <defs
     id="defs37" />
  <sodipodi:namedview
     id="namedview37"
     pagecolor="#ffffff"
     bordercolor="#000000"
     borderopacity="0.25"
     inkscape:showpageshadow="2"
     inkscape:pageopacity="0.0"
     inkscape:pagecheckerboard="0"
     inkscape:deskcolor="#d1d1d1"
     inkscape:zoom="0.94739583"
     inkscape:cx="927.80649"
     inkscape:cy="917.779"
     inkscape:window-width="3840"
     inkscape:window-height="2054"
     inkscape:window-x="2868"
     inkscape:window-y="-12"
     inkscape:window-maximized="1"
     inkscape:current-layer="svg37" />
  <g
     id="g37"
     transform="translate(-31.665751,-42.221001)">
    <rect
       x="31.665751"
       y="42.221001"
       width="1859.8351"
       height="1865.1128"
       fill="#ffffff"
       id="rect1"
       style="stroke-width:0.970038" />
    <path
       d="M 37,107.699 C 37,75.2806 63.2806,49 95.6994,49 H 565.301 C 597.719,49 624,75.2806 624,107.699 V 1842.3 c 0,32.42 -26.281,58.7 -58.699,58.7 H 95.6994 C 63.2806,1901 37,1874.72 37,1842.3 Z"
       fill="#cbcbcb"
       fill-rule="evenodd"
       id="path1" />
    <text
       font-family="'Segoe UI', 'Segoe UI_MSFontService', sans-serif"
       font-weight="400"
       font-size="87px"
       transform="translate(145.163,305)"
       id="text1">Upstream</text>
    <text
       font-family="'Segoe UI', 'Segoe UI_MSFontService', sans-serif"
       font-weight="400"
       font-size="87px"
       transform="translate(144.15,409)"
       id="text2">processes</text>
    <path
       d="m 95.5001,618.8 c 0,-7.345 5.9549,-13.3 13.2999,-13.3 h 443.4 c 7.346,0 13.301,5.955 13.301,13.3 L 565.5,725.2 c 0,7.346 -5.955,13.301 -13.3,13.301 L 108.8,738.5 c -7.345,0 -13.2999,-5.955 -13.2999,-13.3 z"
       stroke="#000000"
       stroke-width="1.13333"
       stroke-linejoin="round"
       stroke-miterlimit="10"
       fill="#ffffff"
       fill-rule="evenodd"
       id="path2" />
    <text
       font-family="'Segoe UI', 'Segoe UI_MSFontService', sans-serif"
       font-weight="400"
       font-size="43px"
       transform="translate(154.983,686)"
       id="text3">Concept to market</text>
    <path
       d="m 95.5001,771.7 c 0,-7.29 5.9099,-13.2 13.1999,-13.2 h 443.6 c 7.29,0 13.2,5.91 13.2,13.2 v 105.6 c 0,7.29 -5.91,13.2 -13.2,13.2 H 108.7 c -7.29,0 -13.1999,-5.91 -13.1999,-13.2 z"
       stroke="#000000"
       stroke-width="1.13333"
       stroke-linejoin="round"
       stroke-miterlimit="10"
       fill="#ffffff"
       fill-rule="evenodd"
       id="path3" />
    <text
       font-family="'Segoe UI', 'Segoe UI_MSFontService', sans-serif"
       font-weight="400"
       font-size="43px"
       transform="translate(184.803,839)"
       id="text4">Design to</text>
    <text
       font-family="'Segoe UI', 'Segoe UI_MSFontService', sans-serif"
       font-weight="400"
       font-size="43px"
       transform="translate(377.249,839)"
       id="text5">retire</text>
    <path
       d="m 95.5001,924.7 c 0,-7.29 5.9099,-13.2 13.1999,-13.2 h 443.6 c 7.29,0 13.2,5.91 13.2,13.2 v 105.6 c 0,7.29 -5.91,13.2 -13.2,13.2 H 108.7 c -7.29,0 -13.1999,-5.91 -13.1999,-13.2 z"
       stroke="#000000"
       stroke-width="1.13333"
       stroke-linejoin="round"
       stroke-miterlimit="10"
       fill="#ffffff"
       fill-rule="evenodd"
       id="path5" />
    <text
       font-family="'Segoe UI', 'Segoe UI_MSFontService', sans-serif"
       font-weight="400"
       font-size="43px"
       transform="translate(179.923,992)"
       id="text6">Forecast to plan</text>
    <path
       d="m 95.5001,1077.7 c 0,-7.29 5.9099,-13.2 13.1999,-13.2 h 443.6 c 7.29,0 13.2,5.91 13.2,13.2 v 105.6 c 0,7.29 -5.91,13.2 -13.2,13.2 H 108.7 c -7.29,0 -13.1999,-5.91 -13.1999,-13.2 z"
       stroke="#000000"
       stroke-width="1.13333"
       stroke-linejoin="round"
       stroke-miterlimit="10"
       fill="#ffffff"
       fill-rule="evenodd"
       id="path6" />
    <text
       font-family="'Segoe UI', 'Segoe UI_MSFontService', sans-serif"
       font-weight="400"
       font-size="43px"
       transform="translate(202.57,1144)"
       id="text7">Order to cash</text>
    <path
       d="m 95.5001,1230.7 c 0,-7.29 5.9099,-13.2 13.1999,-13.2 h 443.6 c 7.29,0 13.2,5.91 13.2,13.2 v 105.6 c 0,7.29 -5.91,13.2 -13.2,13.2 H 108.7 c -7.29,0 -13.1999,-5.91 -13.1999,-13.2 z"
       stroke="#000000"
       stroke-width="1.13333"
       stroke-linejoin="round"
       stroke-miterlimit="10"
       fill="#ffffff"
       fill-rule="evenodd"
       id="path7" />
    <text
       font-family="'Segoe UI', 'Segoe UI_MSFontService', sans-serif"
       font-weight="400"
       font-size="43px"
       transform="translate(182.903,1297)"
       id="text8">Project to profit</text>
    <path
       d="m 95.5001,1382.8 c 0,-7.35 5.9549,-13.3 13.2999,-13.3 h 443.4 c 7.346,0 13.301,5.95 13.301,13.3 l -10e-4,106.4 c 0,7.35 -5.955,13.3 -13.3,13.3 H 108.8 c -7.345,0 -13.2999,-5.95 -13.2999,-13.3 z"
       stroke="#000000"
       stroke-width="1.13333"
       stroke-linejoin="round"
       stroke-miterlimit="10"
       fill="#ffffff"
       fill-rule="evenodd"
       id="path8" />
    <text
       font-family="'Segoe UI', 'Segoe UI_MSFontService', sans-serif"
       font-weight="400"
       font-size="43px"
       transform="translate(155.013,1450)"
       id="text9">Acquire to dispose</text>
    <path
       d="m 95.5001,1535.8 c 0,-7.35 5.9549,-13.3 13.2999,-13.3 h 443.4 c 7.346,0 13.301,5.95 13.301,13.3 l -10e-4,106.4 c 0,7.35 -5.955,13.3 -13.3,13.3 H 108.8 c -7.345,0 -13.2999,-5.95 -13.2999,-13.3 z"
       stroke="#000000"
       stroke-width="1.13333"
       stroke-linejoin="round"
       stroke-miterlimit="10"
       fill="#ffffff"
       fill-rule="evenodd"
       id="path9" />
    <text
       font-family="'Segoe UI', 'Segoe UI_MSFontService', sans-serif"
       font-weight="400"
       font-size="43px"
       transform="translate(180.893,1603)"
       id="text10">Plan to produce</text>
    <path
       d="m 95.5001,1688.8 c 0,-7.35 5.9549,-13.3 13.2999,-13.3 h 443.4 c 7.346,0 13.301,5.95 13.301,13.3 l -10e-4,106.4 c 0,7.35 -5.955,13.3 -13.3,13.3 H 108.8 c -7.345,0 -13.2999,-5.95 -13.2999,-13.3 z"
       stroke="#000000"
       stroke-width="1.13333"
       stroke-linejoin="round"
       stroke-miterlimit="10"
       fill="#ffffff"
       fill-rule="evenodd"
       id="path10" />
    <text
       font-family="'Segoe UI', 'Segoe UI_MSFontService', sans-serif"
       font-weight="400"
       font-size="43px"
       transform="translate(189.77,1756)"
       id="text11">Service to cash</text>
    <path
       d="M 668,107.699 C 668,75.2806 694.281,49 726.699,49 H 1196.3 c 32.42,0 58.7,26.2806 58.7,58.699 V 1842.3 c 0,32.42 -26.28,58.7 -58.7,58.7 H 726.699 C 694.281,1901 668,1874.72 668,1842.3 Z"
       fill="#cbcbcb"
       fill-rule="evenodd"
       id="path11" />
    <text
       font-family="'Segoe UI', 'Segoe UI_MSFontService', sans-serif"
       font-weight="400"
       font-size="87px"
       transform="translate(763.594,305)"
       id="text12">Procure to</text>
    <text
       font-family="'Segoe UI', 'Segoe UI_MSFontService', sans-serif"
       font-weight="400"
       font-size="87px"
       transform="translate(893.127,409)"
       id="text13">pay</text>
    <path
       d="m 726.5,621.6 c 0,-8.339 6.761,-15.1 15.1,-15.1 h 439.8 c 8.34,0 15.1,6.761 15.1,15.1 v 120.8 c 0,8.34 -6.76,15.101 -15.1,15.101 L 741.6,757.5 c -8.339,0 -15.1,-6.761 -15.1,-15.1 z"
       stroke="#000000"
       stroke-width="1.13333"
       stroke-linejoin="round"
       stroke-miterlimit="10"
       fill="#ffffff"
       fill-rule="evenodd"
       id="path13" />
    <text
       font-family="'Segoe UI', 'Segoe UI_MSFontService', sans-serif"
       font-weight="400"
       font-size="43px"
       transform="translate(772.78,671)"
       id="text14">Define procurement</text>
    <text
       font-family="'Segoe UI', 'Segoe UI_MSFontService', sans-serif"
       font-weight="400"
       font-size="43px"
       transform="translate(882.98,722)"
       id="text15">catalogs</text>
    <path
       d="m 726.5,796.6 c 0,-8.339 6.761,-15.1 15.1,-15.1 h 439.8 c 8.34,0 15.1,6.761 15.1,15.1 v 120.8 c 0,8.34 -6.76,15.101 -15.1,15.101 L 741.6,932.5 c -8.339,0 -15.1,-6.761 -15.1,-15.1 z"
       stroke="#000000"
       stroke-width="1.13333"
       stroke-linejoin="round"
       stroke-miterlimit="10"
       fill="#ffffff"
       fill-rule="evenodd"
       id="path15" />
    <text
       font-family="'Segoe UI', 'Segoe UI_MSFontService', sans-serif"
       font-weight="400"
       font-size="43px"
       transform="translate(772.78,845)"
       id="text16">Define procurement</text>
    <text
       font-family="'Segoe UI', 'Segoe UI_MSFontService', sans-serif"
       font-weight="400"
       font-size="43px"
       transform="translate(742.74,896)"
       id="text17">and sourcing strategies</text>
    <path
       d="m 726.5,971.6 c 0,-8.339 6.761,-15.1 15.1,-15.1 h 439.8 c 8.34,0 15.1,6.761 15.1,15.1 v 120.8 c 0,8.34 -6.76,15.1 -15.1,15.1 H 741.6 c -8.339,0 -15.1,-6.76 -15.1,-15.1 z"
       stroke="#000000"
       stroke-width="1.13333"
       stroke-linejoin="round"
       stroke-miterlimit="10"
       fill="#ffffff"
       fill-rule="evenodd"
       id="path17" />
    <text
       font-family="'Segoe UI', 'Segoe UI_MSFontService', sans-serif"
       font-weight="400"
       font-size="43px"
       transform="translate(812.747,1020)"
       id="text18">Manage vendor</text>
    <text
       font-family="'Segoe UI', 'Segoe UI_MSFontService', sans-serif"
       font-weight="400"
       font-size="43px"
       transform="translate(841.88,1071)"
       id="text19">relationships</text>
    <path
       d="m 726.5,1146.6 c 0,-8.34 6.761,-15.1 15.1,-15.1 h 439.8 c 8.34,0 15.1,6.76 15.1,15.1 v 120.8 c 0,8.34 -6.76,15.1 -15.1,15.1 H 741.6 c -8.339,0 -15.1,-6.76 -15.1,-15.1 z"
       stroke="#000000"
       stroke-width="1.13333"
       stroke-linejoin="round"
       stroke-miterlimit="10"
       fill="#ffffff"
       fill-rule="evenodd"
       id="path19" />
    <text
       font-family="'Segoe UI', 'Segoe UI_MSFontService', sans-serif"
       font-weight="400"
       font-size="43px"
       transform="translate(756.964,1195)"
       id="text20">Procure materials and</text>
    <text
       font-family="'Segoe UI', 'Segoe UI_MSFontService', sans-serif"
       font-weight="400"
       font-size="43px"
       transform="translate(887.117,1246)"
       id="text21">services</text>
    <path
       d="m 726.5,1321.6 c 0,-8.34 6.761,-15.1 15.1,-15.1 h 439.8 c 8.34,0 15.1,6.76 15.1,15.1 v 120.8 c 0,8.34 -6.76,15.1 -15.1,15.1 H 741.6 c -8.339,0 -15.1,-6.76 -15.1,-15.1 z"
       stroke="#000000"
       stroke-width="1.13333"
       stroke-linejoin="round"
       stroke-miterlimit="10"
       fill="#ffffff"
       fill-rule="evenodd"
       id="path21" />
    <text
       font-family="'Segoe UI', 'Segoe UI_MSFontService', sans-serif"
       font-weight="400"
       font-size="43px"
       transform="translate(818.704,1370)"
       id="text22">Process vendor</text>
    <text
       font-family="'Segoe UI', 'Segoe UI_MSFontService', sans-serif"
       font-weight="400"
       font-size="43px"
       transform="translate(885.984,1421)"
       id="text23">invoices</text>
    <path
       d="m 726.5,1495.7 c 0,-8.39 6.805,-15.2 15.2,-15.2 h 439.6 c 8.39,0 15.2,6.81 15.2,15.2 v 121.6 c 0,8.39 -6.81,15.2 -15.2,15.2 H 741.7 c -8.395,0 -15.2,-6.81 -15.2,-15.2 z"
       stroke="#000000"
       stroke-width="1.13333"
       stroke-linejoin="round"
       stroke-miterlimit="10"
       fill="#ffffff"
       fill-rule="evenodd"
       id="path23" />
    <text
       font-family="'Segoe UI', 'Segoe UI_MSFontService', sans-serif"
       font-weight="400"
       font-size="43px"
       transform="translate(744.22,1545)"
       id="text24">Issue and settle vendor</text>
    <text
       font-family="'Segoe UI', 'Segoe UI_MSFontService', sans-serif"
       font-weight="400"
       font-size="43px"
       transform="translate(869.72,1596)"
       id="text25">payments</text>
    <path
       d="m 726.5,1670.7 c 0,-8.39 6.805,-15.2 15.2,-15.2 h 439.6 c 8.39,0 15.2,6.81 15.2,15.2 v 121.6 c 0,8.39 -6.81,15.2 -15.2,15.2 H 741.7 c -8.395,0 -15.2,-6.81 -15.2,-15.2 z"
       stroke="#000000"
       stroke-width="1.13333"
       stroke-linejoin="round"
       stroke-miterlimit="10"
       fill="#ffffff"
       fill-rule="evenodd"
       id="path25" />
    <text
       font-family="'Segoe UI', 'Segoe UI_MSFontService', sans-serif"
       font-weight="400"
       font-size="43px"
       transform="translate(744.177,1720)"
       id="text26">Process vendor rebates</text>
    <text
       font-family="'Segoe UI', 'Segoe UI_MSFontService', sans-serif"
       font-weight="400"
       font-size="43px"
       transform="translate(826.69,1771)"
       id="text27">and incentives</text>
    <path
       d="M 1299,107.699 C 1299,75.2806 1325.28,49 1357.7,49 h 469.6 c 32.42,0 58.7,26.2806 58.7,58.699 V 1842.3 c 0,32.42 -26.28,58.7 -58.7,58.7 h -469.6 c -32.42,0 -58.7,-26.28 -58.7,-58.7 z"
       fill="#cbcbcb"
       fill-rule="evenodd"
       id="path27" />
    <text
       font-family="'Segoe UI', 'Segoe UI_MSFontService', sans-serif"
       font-weight="400"
       font-size="87px"
       transform="translate(1350.88,305)"
       id="text28">Downstream</text>
    <text
       font-family="'Segoe UI', 'Segoe UI_MSFontService', sans-serif"
       font-weight="400"
       font-size="87px"
       transform="translate(1406.23,409)"
       id="text29">processes</text>
    <path
       d="m 1352.5,1068.7 c 0,-7.29 5.91,-13.2 13.2,-13.2 h 443.6 c 7.29,0 13.2,5.91 13.2,13.2 v 105.6 c 0,7.29 -5.91,13.2 -13.2,13.2 h -443.6 c -7.29,0 -13.2,-5.91 -13.2,-13.2 z"
       stroke="#000000"
       stroke-width="1.13333"
       stroke-linejoin="round"
       stroke-miterlimit="10"
       fill="#ffffff"
       fill-rule="evenodd"
       id="path29" />
    <text
       font-family="'Segoe UI', 'Segoe UI_MSFontService', sans-serif"
       font-weight="400"
       font-size="43px"
       transform="translate(1412.05,1135)"
       id="text30">Acquire to dispose</text>
    <path
       d="m 1357.5,1226.7 c 0,-7.29 5.91,-13.2 13.2,-13.2 h 443.6 c 7.29,0 13.2,5.91 13.2,13.2 v 105.6 c 0,7.29 -5.91,13.2 -13.2,13.2 h -443.6 c -7.29,0 -13.2,-5.91 -13.2,-13.2 z"
       stroke="#000000"
       stroke-width="1.13333"
       stroke-linejoin="round"
       stroke-miterlimit="10"
       fill="#ffffff"
       fill-rule="evenodd"
       id="path30" />
    <text
       font-family="'Segoe UI', 'Segoe UI_MSFontService', sans-serif"
       font-weight="400"
       font-size="43px"
       transform="translate(1442.97,1293)"
       id="text31">Plan to produce</text>
    <path
       d="m 1355.5,762.8 c 0,-7.345 5.95,-13.3 13.3,-13.3 h 442.4 c 7.35,0 13.3,5.955 13.3,13.3 v 106.4 c 0,7.345 -5.95,13.3 -13.3,13.3 h -442.4 c -7.35,0 -13.3,-5.955 -13.3,-13.3 z"
       stroke="#000000"
       stroke-width="1.13333"
       stroke-linejoin="round"
       stroke-miterlimit="10"
       fill="#ffffff"
       fill-rule="evenodd"
       id="path31" />
    <text
       font-family="'Segoe UI', 'Segoe UI_MSFontService', sans-serif"
       font-weight="400"
       font-size="43px"
       transform="translate(1462.12,830)"
       id="text32">Order to cash</text>
    <path
       d="m 1357.5,614.8 c 0,-7.345 5.95,-13.3 13.3,-13.3 h 443.4 c 7.35,0 13.3,5.955 13.3,13.3 v 106.4 c 0,7.346 -5.95,13.301 -13.3,13.301 L 1370.8,734.5 c -7.35,0 -13.3,-5.955 -13.3,-13.3 z"
       stroke="#000000"
       stroke-width="1.13333"
       stroke-linejoin="round"
       stroke-miterlimit="10"
       fill="#ffffff"
       fill-rule="evenodd"
       id="path32" />
    <text
       font-family="'Segoe UI', 'Segoe UI_MSFontService', sans-serif"
       font-weight="400"
       font-size="43px"
       transform="translate(1442,682)"
       id="text33">Forecast to plan</text>
    <path
       d="m 1357.5,1379.7 c 0,-7.29 5.91,-13.2 13.2,-13.2 h 443.6 c 7.29,0 13.2,5.91 13.2,13.2 v 105.6 c 0,7.29 -5.91,13.2 -13.2,13.2 h -443.6 c -7.29,0 -13.2,-5.91 -13.2,-13.2 z"
       stroke="#000000"
       stroke-width="1.13333"
       stroke-linejoin="round"
       stroke-miterlimit="10"
       fill="#ffffff"
       fill-rule="evenodd"
       id="path33" />
    <text
       font-family="'Segoe UI', 'Segoe UI_MSFontService', sans-serif"
       font-weight="400"
       font-size="43px"
       transform="translate(1451.85,1446)"
       id="text34">Service to cash</text>
    <path
       d="m 1352.5,914.8 c 0,-7.345 5.95,-13.3 13.3,-13.3 h 443.4 c 7.35,0 13.3,5.955 13.3,13.3 v 106.4 c 0,7.35 -5.95,13.3 -13.3,13.3 h -443.4 c -7.35,0 -13.3,-5.95 -13.3,-13.3 z"
       stroke="#000000"
       stroke-width="1.13333"
       stroke-linejoin="round"
       stroke-miterlimit="10"
       fill="#ffffff"
       fill-rule="evenodd"
       id="path34" />
    <text
       font-family="'Segoe UI', 'Segoe UI_MSFontService', sans-serif"
       font-weight="400"
       font-size="43px"
       transform="translate(1439.93,982)"
       id="text35">Project to profit</text>
    <path
       d="m 1357.5,1535.8 c 0,-7.35 5.95,-13.3 13.3,-13.3 h 443.4 c 7.35,0 13.3,5.95 13.3,13.3 v 106.4 c 0,7.35 -5.95,13.3 -13.3,13.3 h -443.4 c -7.35,0 -13.3,-5.95 -13.3,-13.3 z"
       stroke="#000000"
       stroke-width="1.13333"
       stroke-linejoin="round"
       stroke-miterlimit="10"
       fill="#ffffff"
       fill-rule="evenodd"
       id="path35" />
    <text
       font-family="'Segoe UI', 'Segoe UI_MSFontService', sans-serif"
       font-weight="400"
       font-size="43px"
       transform="translate(1408.89,1603)"
       id="text36">Inventory to deliver</text>
    <path
       d="m 1357.5,1683.8 c 0,-7.35 5.95,-13.3 13.3,-13.3 h 443.4 c 7.35,0 13.3,5.95 13.3,13.3 v 106.4 c 0,7.35 -5.95,13.3 -13.3,13.3 h -443.4 c -7.35,0 -13.3,-5.95 -13.3,-13.3 z"
       stroke="#000000"
       stroke-width="1.13333"
       stroke-linejoin="round"
       stroke-miterlimit="10"
       fill="#ffffff"
       fill-rule="evenodd"
       id="path36" />
    <text
       font-family="'Segoe UI', 'Segoe UI_MSFontService', sans-serif"
       font-weight="400"
       font-size="43px"
       transform="translate(1436.87,1751)"
       id="text37">Record to report</text>
  </g>
</svg>
