<?xml version="1.0"?>
<svg xmlns="http://www.w3.org/2000/svg" xmlns:xlink="http://www.w3.org/1999/xlink" xmlns:ev="http://www.w3.org/2001/xml-events"    viewBox="54 45 540 707"    xml:space="preserve" color-interpolation-filters="sRGB" class="st10" width="1512" height="1768">
<rect x="0" y="0" width="1512" height="1768" fill="#ffffff" />
	<style type="text/css"><![CDATA[
		.st1 {fill:#0078d4;stroke:none;stroke-linecap:round;stroke-linejoin:round;stroke-width:0.24}
		.st2 {fill:#ffffff;font-family:Calibri;font-size:1.00001em}
		.st3 {font-size:1em}
		.st4 {fill:#ffffff;stroke:#0078d4;stroke-linecap:round;stroke-linejoin:round;stroke-width:0.24}
		.st5 {fill:#000000;font-family:Calibri;font-size:1.00001em}
		.st6 {fill:#ffffff}
		.st7 {stroke:#0078d4;stroke-linecap:round;stroke-linejoin:round;stroke-width:0.24}
		.st8 {marker-end:url(#mrkr13-59);stroke:#0078d4;stroke-linecap:round;stroke-linejoin:round;stroke-width:0.75}
		.st9 {fill:#0078d4;fill-opacity:1;stroke:#0078d4;stroke-opacity:1;stroke-width:0.22935779816514}
		.st10 {fill:none;fill-rule:evenodd;font-size:12px;overflow:visible;stroke-linecap:square;stroke-miterlimit:3}
	]]></style><style> a { pointer-events: none; } </style><style>a.rules_svg_anchor g:hover { opacity:0.8; cursor:pointer; }</style>
	<defs id="Markers">
		<g id="lend13">
			<path d="M 3 1 L 0 0 L 3 -1 L 3 1 " style="stroke:none" />
		</g>
		<marker id="mrkr13-59" class="st9" refX="-13.08" orient="auto" markerUnits="strokeWidth" overflow="visible">
			<use xlink:href="#lend13" transform="scale(-4.36,-4.36) " />
		</marker>
	</defs>
	<g>
		
		<a id="832a991a-80d4-4101-b649-fdbae8bd32f4" class="rules_svg_anchor rules_svg_shape"   href="/lms/chart?onclick=b3BlbkNoYXJ0Q29udGV4dE1lbnUoZXZlbnQsJ3cxMjVkNTIzNTk2NWMxNzM0M3Y0MDc4JywyMzEwMywgMSwgMSwgdGhpcywgd2luZG93LmZyYW1lRWxlbWVudCk=&amp;navigate=true&amp;details=Description">
			<g id="shape1-1" transform="translate(216,-684)">
				
				<desc>80.40 Manage project delivery</desc>
				<rect x="0" y="729" width="126" height="63" class="st1" />
				<text x="9.39" y="756.9" class="st2">80.40 Manage project <tspan x="43.61" dy="1.2em" class="st3">delivery</tspan>
				</text>
			</g>
		</a>
		<g id="shape2-5" transform="translate(54,-697.5)">
			
			<desc>Start</desc>
			<path d="M18 792 L67.5 792 A18 18 -180 0 0 67.5 756 L18 756 A18 18 -180 1 0 18 792 Z" class="st4" />
			<text x="31.01" y="777.6" class="st5">Start</text>
		</g>
		<a id="b53190f5-677f-4857-a76a-35cbd947cf36" class="rules_svg_anchor rules_svg_shape"   href="/lms/chart?onclick=b3BlbkNoYXJ0Q29udGV4dE1lbnUoZXZlbnQsJ3cxMjVkNTIzNTk2NWMxMDUzNDJ2NDA3OCcsMjMxMDQsIDEsIDEsIHRoaXMsIHdpbmRvdy5mcmFtZUVsZW1lbnQp&amp;navigate=true&amp;details=Description">
			<g id="shape3-8" transform="translate(216,-594)">
				
				<desc>80.40.005 Govern projects</desc>
				<path d="M0 792 L126 792 L126 729 L0 729 L0 792 Z" class="st6" />
				<path d="M0 792 L126 792 L126 729 L0 729 L0 792" class="st7" />
				<path d="M9 792 L9 729" class="st7" />
				<path d="M117 792 L117 729" class="st7" />
				<text x="19.44" y="756.9" class="st5">80.40.005 Govern <tspan x="43.28" dy="1.2em" class="st3">projects</tspan>
				</text>
			</g>
		</a>
		<a id="f692aa46-1a3a-4bdc-b2e7-a6a1d53930b3" class="rules_svg_anchor rules_svg_shape"   href="/lms/chart?onclick=b3BlbkNoYXJ0Q29udGV4dE1lbnUoZXZlbnQsJ3cxMjVkNTIzNTk2NWMxNzM0NXY0MDc4JywyMzEwNiwgMSwgMSwgdGhpcywgd2luZG93LmZyYW1lRWxlbWVudCk=&amp;navigate=true&amp;details=Description">
			<g id="shape4-15" transform="translate(54,-405)">
				
				<desc>80.40.020 Track project expenses</desc>
				<path d="M0 792 L126 792 L126 729 L0 729 L0 792 Z" class="st6" />
				<path d="M0 792 L126 792 L126 729 L0 729 L0 792" class="st7" />
				<path d="M9 792 L9 729" class="st7" />
				<path d="M117 792 L117 729" class="st7" />
				<text x="24.17" y="756.9" class="st5">80.40.020 Track <tspan x="21.71" dy="1.2em" class="st3">project expenses</tspan>
				</text>
			</g>
		</a>
		<a id="8e5efdf6-9583-4619-a6f7-8b7ed3e20346" class="rules_svg_anchor rules_svg_shape"   href="/lms/chart?onclick=b3BlbkNoYXJ0Q29udGV4dE1lbnUoZXZlbnQsJ3cxMjVkNTIzNTk2NWMxNzM0OHY0MDc4JywyMzEwNywgMSwgMSwgdGhpcywgd2luZG93LmZyYW1lRWxlbWVudCk=&amp;navigate=true&amp;details=Description">
			<g id="shape5-22" transform="translate(216,-405)">
				
				<desc>80.40.050 Track project time</desc>
				<path d="M0 792 L126 792 L126 729 L0 729 L0 792 Z" class="st6" />
				<path d="M0 792 L126 792 L126 729 L0 729 L0 792" class="st7" />
				<path d="M9 792 L9 729" class="st7" />
				<path d="M117 792 L117 729" class="st7" />
				<text x="24.17" y="756.9" class="st5">80.40.050 Track <tspan x="33.1" dy="1.2em" class="st3">project time</tspan>
				</text>
			</g>
		</a>
		<a id="cdeef292-5eb3-46b2-be00-458488e255ef" class="rules_svg_anchor rules_svg_shape"   href="/lms/chart?onclick=b3BlbkNoYXJ0Q29udGV4dE1lbnUoZXZlbnQsJ3cxMjVkNTIzNTk2NWMxNzM1NHY0MDc4JywyMzEwOSwgMSwgMSwgdGhpcywgd2luZG93LmZyYW1lRWxlbWVudCk=&amp;navigate=true&amp;details=Description">
			<g id="shape13-29" transform="translate(126,-252)">
				
				<desc>80.40.110 Purchase project materials</desc>
				<path d="M0 792 L126 792 L126 729 L0 729 L0 792 Z" class="st6" />
				<path d="M0 792 L126 792 L126 729 L0 729 L0 792" class="st7" />
				<path d="M9 792 L9 729" class="st7" />
				<path d="M117 792 L117 729" class="st7" />
				<text x="15.09" y="756.9" class="st5">80.40.110 Purchase <tspan x="21.54" dy="1.2em" class="st3">project materials</tspan>
				</text>
			</g>
		</a>
		<a id="96d01e7b-0aa0-4fbf-a0cc-4716286c8e52" class="rules_svg_anchor rules_svg_shape"   href="/lms/chart?onclick=b3BlbkNoYXJ0Q29udGV4dE1lbnUoZXZlbnQsJ3cxMjVkNTIzNTk2NWMxNzM1NXY0MDc4JywyMzExMCwgMSwgMSwgdGhpcywgd2luZG93LmZyYW1lRWxlbWVudCk=&amp;navigate=true&amp;details=Description">
			<g id="shape14-36" transform="translate(126,-153)">
				
				<desc>80.40.120 Produce project materials</desc>
				<path d="M0 792 L126 792 L126 729 L0 729 L0 792 Z" class="st6" />
				<path d="M0 792 L126 792 L126 729 L0 729 L0 792" class="st7" />
				<path d="M9 792 L9 729" class="st7" />
				<path d="M117 792 L117 729" class="st7" />
				<text x="17.14" y="756.9" class="st5">80.40.120 Produce <tspan x="21.54" dy="1.2em" class="st3">project materials</tspan>
				</text>
			</g>
		</a>
		<a id="e4dc9ac1-db40-4194-84c3-075194670169" class="rules_svg_anchor rules_svg_shape"   href="/lms/chart?onclick=b3BlbkNoYXJ0Q29udGV4dE1lbnUoZXZlbnQsJ3cxMjVkNTIzNTk2NWMxNzM1N3Y0MDc4JywyMzExMSwgMSwgMSwgdGhpcywgd2luZG93LmZyYW1lRWxlbWVudCk=&amp;navigate=true&amp;details=Description">
			<g id="shape16-43" transform="translate(342,-153)">
				
				<desc>80.40.140 Subcontract project components</desc>
				<path d="M0 792 L126 792 L126 729 L0 729 L0 792 Z" class="st6" />
				<path d="M0 792 L126 792 L126 729 L0 729 L0 792" class="st7" />
				<path d="M9 792 L9 729" class="st7" />
				<path d="M117 792 L117 729" class="st7" />
				<text x="38.68" y="749.7" class="st5">80.40.140 <tspan x="14.83" dy="1.2em" class="st3">Subcontract project </tspan>
					<tspan x="32.54" dy="1.2em" class="st3">components</tspan>
				</text>
			</g>
		</a>
		<g id="shape20-51" transform="translate(508.5,-54)">
			
			<desc>end</desc>
			<path d="M18 792 L67.5 792 A18 18 -180 0 0 67.5 756 L18 756 A18 18 -180 1 0 18 792 Z" class="st4" />
			<text x="33.46" y="777.6" class="st5">end</text>
		</g>
		<g id="shape21-54" transform="translate(139.5,-706.5)">
			
			<path d="M0 783 L66.69 783" class="st8" />
		</g>
		<g id="shape22-60" transform="translate(270,-684)">
			
			<path d="M9 792 L9 809.19" class="st8" />
		</g>
		<a id="6c8ca9ca-63a2-4eb1-bdef-c7e8b9b468ce" class="rules_svg_anchor rules_svg_shape"   href="/lms/chart?onclick=b3BlbkNoYXJ0Q29udGV4dE1lbnUoZXZlbnQsJ3cxMjVkNTIzNTk2NWMxMDUzNDN2NDA3OCcsMjMxMDUsIDEsIDEsIHRoaXMsIHdpbmRvdy5mcmFtZUVsZW1lbnQp&amp;navigate=true&amp;details=Description">
			<g id="shape44-65" transform="translate(216,-504)">
				
				<desc>80.40.008 Control project scope</desc>
				<path d="M0 792 L126 792 L126 729 L0 729 L0 792 Z" class="st6" />
				<path d="M0 792 L126 792 L126 729 L0 729 L0 792" class="st7" />
				<path d="M9 792 L9 729" class="st7" />
				<path d="M117 792 L117 729" class="st7" />
				<text x="19.17" y="756.9" class="st5">80.40.008 Control <tspan x="30.08" dy="1.2em" class="st3">project scope</tspan>
				</text>
			</g>
		</a>
		<a id="fbc39fcb-399b-4ccd-b113-06d783862013" class="rules_svg_anchor rules_svg_shape"   href="/lms/chart?onclick=b3BlbkNoYXJ0Q29udGV4dE1lbnUoZXZlbnQsJ3cxMjVkNTIzNTk2NWMxMDUzNDR2NDA3OCcsMjMxMDgsIDEsIDEsIHRoaXMsIHdpbmRvdy5mcmFtZUVsZW1lbnQp&amp;navigate=true&amp;details=Description">
			<g id="shape45-72" transform="translate(378,-405)">
				
				<desc>80.40.055 Track project fees</desc>
				<path d="M0 792 L126 792 L126 729 L0 729 L0 792 Z" class="st6" />
				<path d="M0 792 L126 792 L126 729 L0 729 L0 792" class="st7" />
				<path d="M9 792 L9 729" class="st7" />
				<path d="M117 792 L117 729" class="st7" />
				<text x="24.17" y="756.9" class="st5">80.40.055 Track <tspan x="34.12" dy="1.2em" class="st3">project fees</tspan>
				</text>
			</g>
		</a>
		<a id="bceccf71-17b8-48dd-b02c-e1e86043bd98" class="rules_svg_anchor rules_svg_shape"   href="/lms/chart?onclick=b25DaGFydFNoYXBlQ2xpY2soZXZlbnQsJ3cxMjVkNTIzNTk2NWMxMDUzNDV2NDA3OCcsJy0xJyk=&amp;navigate=true&amp;details=Description">
			<g id="shape46-79" transform="translate(342,-252)">
				
				<desc>80.40.115 Use and track project materials</desc>
				<path d="M0 792 L126 792 L126 729 L0 729 L0 792 Z" class="st6" />
				<path d="M0 792 L126 792 L126 729 L0 729 L0 792" class="st7" />
				<path d="M9 792 L9 729" class="st7" />
				<path d="M117 792 L117 729" class="st7" />
				<text x="17.61" y="749.7" class="st5">80.40.115 Use and <tspan x="32.03" dy="1.2em" class="st3">track project </tspan>
					<tspan x="40.27" dy="1.2em" class="st3">materials</tspan>
				</text>
			</g>
		</a>
		<a id="e80ec053-aea4-41ea-8d11-96f7d5d5588a" class="rules_svg_anchor rules_svg_shape"   href="/lms/chart?onclick=b3BlbkNoYXJ0Q29udGV4dE1lbnUoZXZlbnQsJ3cxMjVkNTIzNTk2NWMxMDUzNDZ2NDA3OCcsMjMxMTIsIDEsIDEsIHRoaXMsIHdpbmRvdy5mcmFtZUVsZW1lbnQp&amp;navigate=true&amp;details=Description">
			<g id="shape47-87" transform="translate(126,-40.5)">
				
				<desc>80.40.200 Manage project communications</desc>
				<path d="M0 792 L126 792 L126 729 L0 729 L0 792 Z" class="st6" />
				<path d="M0 792 L126 792 L126 729 L0 729 L0 792" class="st7" />
				<path d="M9 792 L9 729" class="st7" />
				<path d="M117 792 L117 729" class="st7" />
				<text x="17.49" y="749.7" class="st5">80.40.200 Manage <tspan x="45.62" dy="1.2em" class="st3">project </tspan>
					<tspan x="22.57" dy="1.2em" class="st3">communications</tspan>
				</text>
			</g>
		</a>
		<a id="28d38c81-01a5-4582-a8db-5edcbd3c462e" class="rules_svg_anchor rules_svg_shape"   href="/lms/chart?onclick=b3BlbkNoYXJ0Q29udGV4dE1lbnUoZXZlbnQsJ3cxMjVkNTIzNTk2NWMxMDUzNDd2NDA3OCcsMjMxMTMsIDEsIDEsIHRoaXMsIHdpbmRvdy5mcmFtZUVsZW1lbnQp&amp;navigate=true&amp;details=Description">
			<g id="shape48-95" transform="translate(342,-40.5)">
				
				<desc>80.40.300 Manage project knowledge and documentation</desc>
				<path d="M0 792 L126 792 L126 729 L0 729 L0 792 Z" class="st6" />
				<path d="M0 792 L126 792 L126 729 L0 729 L0 792" class="st7" />
				<path d="M9 792 L9 729" class="st7" />
				<path d="M117 792 L117 729" class="st7" />
				<text x="17.49" y="749.7" class="st5">80.40.300 Manage <tspan x="17.61" dy="1.2em" class="st3">project knowledge </tspan>
					<tspan x="14.94" dy="1.2em" class="st3">and documentation</tspan>
				</text>
			</g>
		</a>
		<g id="shape49-103" transform="translate(270,-594)">
			
			<path d="M9 792 L9 809.19" class="st8" />
		</g>
		<g id="shape50-108" transform="translate(270,-504)">
			
			<path d="M9 792 L9 818.19" class="st8" />
		</g>
		<g id="shape51-113" transform="translate(279,-504)">
			
			<path d="M0 792 L0 809.66 L162 809.66 L162 818.19" class="st8" />
		</g>
		<g id="shape52-118" transform="translate(279,-504)">
			
			<path d="M0 792 L0 809.66 L-162 809.66 L-162 818.19" class="st8" />
		</g>
		<g id="shape53-123" transform="translate(117,-405)">
			
			<path d="M0 792 L0 837 L72 837 L72 872.19" class="st8" />
		</g>
		<g id="shape54-128" transform="translate(279,-405)">
			
			<path d="M0 792 L0 837 L-90 837 L-90 872.19" class="st8" />
		</g>
		<g id="shape56-133" transform="translate(441,-405)">
			
			<path d="M0 792 L0 837 L-252 837 L-252 872.19" class="st8" />
		</g>
		<g id="shape57-138" transform="translate(252,-274.5)">
			
			<path d="M0 783 L80.19 783" class="st8" />
		</g>
		<g id="shape58-143" transform="translate(405,-252)">
			
			<path d="M0 792 L0 809.66 L-216 809.66 L-216 818.19" class="st8" />
		</g>
		<g id="shape59-148" transform="translate(252,-175.5)">
			
			<path d="M0 783 L80.19 783" class="st8" />
		</g>
		<g id="shape60-153" transform="translate(405,-153)">
			
			<path d="M0 792 L0 816.75 L-216 816.75 L-216 831.69" class="st8" />
		</g>
		<g id="shape61-158" transform="translate(252,-63)">
			
			<path d="M0 783 L80.19 783" class="st8" />
		</g>
		<g id="shape62-163" transform="translate(468,-63)">
			
			<path d="M0 783 L30.69 783" class="st8" />
		</g>
	</g>
</svg>
