<?xml version="1.0"?>
<svg xmlns="http://www.w3.org/2000/svg" xmlns:xlink="http://www.w3.org/1999/xlink" xmlns:ev="http://www.w3.org/2001/xml-events"    viewBox="47 58 475 711"    xml:space="preserve" color-interpolation-filters="sRGB" class="st10" width="1188" height="1778">
<rect x="0" y="0" width="1188" height="1778" fill="#ffffff" />
	<style type="text/css"><![CDATA[
		.st1 {fill:#ffffff;stroke:#0078d4;stroke-linecap:round;stroke-linejoin:round;stroke-width:0.24}
		.st2 {fill:#000000;font-family:Calibri;font-size:1.00001em}
		.st3 {fill:#0078d4;stroke:none;stroke-linecap:round;stroke-linejoin:round;stroke-width:0.24}
		.st4 {fill:#ffffff;font-family:Calibri;font-size:1.00001em}
		.st5 {fill:#ffffff}
		.st6 {stroke:#0078d4;stroke-linecap:round;stroke-linejoin:round;stroke-width:0.24}
		.st7 {font-size:1em}
		.st8 {marker-end:url(#mrkr13-57);stroke:#0078d4;stroke-linecap:round;stroke-linejoin:round;stroke-width:0.75}
		.st9 {fill:#0078d4;fill-opacity:1;stroke:#0078d4;stroke-opacity:1;stroke-width:0.22935779816514}
		.st10 {fill:none;fill-rule:evenodd;font-size:12px;overflow:visible;stroke-linecap:square;stroke-miterlimit:3}
	]]></style><style> a { pointer-events: none; } </style><style>a.rules_svg_anchor g:hover { opacity:0.8; cursor:pointer; }</style>
	<defs id="Markers">
		<g id="lend13">
			<path d="M 3 1 L 0 0 L 3 -1 L 3 1 " style="stroke:none" />
		</g>
		<marker id="mrkr13-57" class="st9" refX="-13.08" orient="auto" markerUnits="strokeWidth" overflow="visible">
			<use xlink:href="#lend13" transform="scale(-4.36,-4.36) " />
		</marker>
	</defs>
	<g>
		
		<g id="shape1-1" transform="translate(47.25,-684)">
			
			<desc>Start</desc>
			<path d="M18 792 L67.5 792 A18 18 -180 0 0 67.5 756 L18 756 A18 18 -180 1 0 18 792 Z" class="st1" />
			<text x="31.01" y="777.6" class="st2">Start</text>
		</g>
		<a id="79120e90-b2c2-42e3-af29-4b529cf8e576" class="rules_svg_anchor rules_svg_shape"   href="/lms/chart?onclick=b3BlbkNoYXJ0Q29udGV4dE1lbnUoZXZlbnQsJ3cxMjVkNTIzNTk2NWMxNzMzNnY0MDc4JywyMzA5NiwgMSwgMSwgdGhpcywgd2luZG93LmZyYW1lRWxlbWVudCk=&amp;navigate=true&amp;details=Description">
			<g id="shape2-4" transform="translate(234,-670.5)">
				
				<desc>80.30 Plan projects</desc>
				<rect x="0" y="729" width="126" height="63" class="st3" />
				<text x="16.38" y="764.1" class="st4">80.30 Plan projects</text>
			</g>
		</a>
		<a id="5e3bc672-419c-4cee-84ae-506125b7e93c" class="rules_svg_anchor rules_svg_shape"   href="/lms/chart?onclick=b3BlbkNoYXJ0Q29udGV4dE1lbnUoZXZlbnQsJ3cxMjVkNTIzNTk2NWMxMDcxOTV2NDA3OCcsMjMwOTcsIDEsIDEsIHRoaXMsIHdpbmRvdy5mcmFtZUVsZW1lbnQp&amp;navigate=true&amp;details=Description">
			<g id="shape3-7" transform="translate(234,-562.5)">
				
				<desc>80.30.020 Define project scope</desc>
				<path d="M0 792 L126 792 L126 729 L0 729 L0 792 Z" class="st5" />
				<path d="M0 792 L126 792 L126 729 L0 729 L0 792" class="st6" />
				<path d="M9 792 L9 729" class="st6" />
				<path d="M117 792 L117 729" class="st6" />
				<text x="21.3" y="756.9" class="st2">80.30.020 Define <tspan x="30.08" dy="1.2em" class="st7">project scope</tspan>
				</text>
			</g>
		</a>
		<a id="c236e2e4-7873-4661-a786-2b5776c52b60" class="rules_svg_anchor rules_svg_shape"   href="/lms/chart?onclick=b3BlbkNoYXJ0Q29udGV4dE1lbnUoZXZlbnQsJ3cxMjVkNTIzNTk2NWMxNzMzOHY0MDc4JywyMzA5OCwgMSwgMSwgdGhpcywgd2luZG93LmZyYW1lRWxlbWVudCk=&amp;navigate=true&amp;details=Description">
			<g id="shape4-14" transform="translate(234,-454.5)">
				
				<desc>80.30.030 Plan projects resources</desc>
				<path d="M0 792 L126 792 L126 729 L0 729 L0 792 Z" class="st5" />
				<path d="M0 792 L126 792 L126 729 L0 729 L0 792" class="st6" />
				<path d="M9 792 L9 729" class="st6" />
				<path d="M117 792 L117 729" class="st6" />
				<text x="26.82" y="756.9" class="st2">80.30.030 Plan <tspan x="18.22" dy="1.2em" class="st7">projects resources</tspan>
				</text>
			</g>
		</a>
		<a id="b94e37bd-2b25-4f3c-88fa-ae4a18625819" class="rules_svg_anchor rules_svg_shape"   href="/lms/chart?onclick=b3BlbkNoYXJ0Q29udGV4dE1lbnUoZXZlbnQsJ3cxMjVkNTIzNTk2NWMxNzMzOXY0MDc4JywyMzA5OSwgMSwgMSwgdGhpcywgd2luZG93LmZyYW1lRWxlbWVudCk=&amp;navigate=true&amp;details=Description">
			<g id="shape5-21" transform="translate(234,-346.5)">
				
				<desc>80.30.040 Plan project tasks</desc>
				<path d="M0 792 L126 792 L126 729 L0 729 L0 792 Z" class="st5" />
				<path d="M0 792 L126 792 L126 729 L0 729 L0 792" class="st6" />
				<path d="M9 792 L9 729" class="st6" />
				<path d="M117 792 L117 729" class="st6" />
				<text x="26.82" y="756.9" class="st2">80.30.040 Plan <tspan x="31.96" dy="1.2em" class="st7">project tasks</tspan>
				</text>
			</g>
		</a>
		<a id="da547fc2-0a56-4d7f-85de-f4cac868703f" class="rules_svg_anchor rules_svg_shape"   href="/lms/chart?onclick=b3BlbkNoYXJ0Q29udGV4dE1lbnUoZXZlbnQsJ3cxMjVkNTIzNTk2NWMxNzM0MHY0MDc4JywyMzEwMCwgMSwgMSwgdGhpcywgd2luZG93LmZyYW1lRWxlbWVudCk=&amp;navigate=true&amp;details=Description">
			<g id="shape6-28" transform="translate(234,-238.5)">
				
				<desc>80.30.050 Assign project resources</desc>
				<path d="M0 792 L126 792 L126 729 L0 729 L0 792 Z" class="st5" />
				<path d="M0 792 L126 792 L126 729 L0 729 L0 792" class="st6" />
				<path d="M9 792 L9 729" class="st6" />
				<path d="M117 792 L117 729" class="st6" />
				<text x="21.81" y="756.9" class="st2">80.30.050 Assign <tspan x="20.57" dy="1.2em" class="st7">project resources</tspan>
				</text>
			</g>
		</a>
		<a id="f010a655-0063-4a0b-846e-0d57d71696b9" class="rules_svg_anchor rules_svg_shape"   href="/lms/chart?onclick=b3BlbkNoYXJ0Q29udGV4dE1lbnUoZXZlbnQsJ3cxMjVkNTIzNTk2NWMxNzM0MXY0MDc4JywyMzEwMSwgMSwgMSwgdGhpcywgd2luZG93LmZyYW1lRWxlbWVudCk=&amp;navigate=true&amp;details=Description">
			<g id="shape7-35" transform="translate(234,-130.5)">
				
				<desc>80.30.060 Forecast project resources</desc>
				<path d="M0 792 L126 792 L126 729 L0 729 L0 792 Z" class="st5" />
				<path d="M0 792 L126 792 L126 729 L0 729 L0 792" class="st6" />
				<path d="M9 792 L9 729" class="st6" />
				<path d="M117 792 L117 729" class="st6" />
				<text x="16.56" y="756.9" class="st2">80.30.060 Forecast <tspan x="20.57" dy="1.2em" class="st7">project resources</tspan>
				</text>
			</g>
		</a>
		<a id="2df74a9b-bc9c-4c98-baf1-2ab39efc4ec6" class="rules_svg_anchor rules_svg_shape"   href="/lms/chart?onclick=b3BlbkNoYXJ0Q29udGV4dE1lbnUoZXZlbnQsJ3cxMjVkNTIzNTk2NWMxNzM0MnY0MDc4JywyMzEwMiwgMSwgMSwgdGhpcywgd2luZG93LmZyYW1lRWxlbWVudCk=&amp;navigate=true&amp;details=Description">
			<g id="shape8-42" transform="translate(234,-22.5)">
				
				<desc>80.30.070 Manage project budget</desc>
				<path d="M0 792 L126 792 L126 729 L0 729 L0 792 Z" class="st5" />
				<path d="M0 792 L126 792 L126 729 L0 729 L0 792" class="st6" />
				<path d="M9 792 L9 729" class="st6" />
				<path d="M117 792 L117 729" class="st6" />
				<text x="17.49" y="756.9" class="st2">80.30.070 Manage <tspan x="26.99" dy="1.2em" class="st7">project budget</tspan>
				</text>
			</g>
		</a>
		<g id="shape9-49" transform="translate(436.5,-36)">
			
			<desc>End</desc>
			<path d="M18 792 L67.5 792 A18 18 -180 0 0 67.5 756 L18 756 A18 18 -180 1 0 18 792 Z" class="st1" />
			<text x="33.52" y="777.6" class="st2">End</text>
		</g>
		<g id="shape11-52" transform="translate(132.75,-693)">
			
			<path d="M0 783 L91.44 783" class="st8" />
		</g>
		<g id="shape12-58" transform="translate(288,-670.5)">
			
			<path d="M9 792 L9 827.19" class="st8" />
		</g>
		<g id="shape13-63" transform="translate(288,-562.5)">
			
			<path d="M9 792 L9 827.19" class="st8" />
		</g>
		<g id="shape14-68" transform="translate(288,-454.5)">
			
			<path d="M9 792 L9 827.19" class="st8" />
		</g>
		<g id="shape15-73" transform="translate(288,-346.5)">
			
			<path d="M9 792 L9 827.19" class="st8" />
		</g>
		<g id="shape16-78" transform="translate(288,-238.5)">
			
			<path d="M9 792 L9 827.19" class="st8" />
		</g>
		<g id="shape17-83" transform="translate(288,-130.5)">
			
			<path d="M9 792 L9 827.19" class="st8" />
		</g>
		<g id="shape18-88" transform="translate(360,-45)">
			
			<path d="M0 783 L66.69 783" class="st8" />
		</g>
	</g>
</svg>
