<svg width="1920" height="1920" xmlns="http://www.w3.org/2000/svg" xmlns:xlink="http://www.w3.org/1999/xlink" overflow="hidden"><g><rect x="0" y="0" width="1920" height="1920" fill="#FFFFFF"/><rect x="474" y="32" width="1104" height="1608" stroke="#0078D4" stroke-width="2" stroke-linejoin="round" stroke-miterlimit="10" fill="#D9D9D9"/><text fill="#0078D4" font-family="Segoe UI,Segoe UI_MSFontService,sans-serif" font-weight="700" font-size="27" transform="translate(502.4 81)">Business process area</text><path d="M89 68.5C89 48.3416 105.342 32 125.5 32L263.5 32C283.658 32 300 48.3416 300 68.5L300 68.5C300 88.6584 283.658 105 263.5 105L125.5 105C105.342 105 89 88.6584 89 68.5Z" stroke="#0078D4" stroke-width="2" stroke-linejoin="round" stroke-miterlimit="10" fill="none" fill-rule="evenodd"/><text font-family="Segoe UI,Segoe UI_MSFontService,sans-serif" font-weight="400" font-size="16" transform="translate(178.001 75)">Start</text><rect x="89" y="152" width="211" height="153" stroke="#000000" stroke-width="2" stroke-linejoin="round" stroke-miterlimit="10" fill="#A0A0A0"/><text font-family="Segoe UI,Segoe UI_MSFontService,sans-serif" font-weight="400" font-size="24" transform="translate(143.724 223)">Project to</text><text font-family="Segoe UI,Segoe UI_MSFontService,sans-serif" font-weight="400" font-size="24" transform="translate(165.931 252)">profit</text><path d="M1-4.48434e-06 1.00018 40.1571-0.99982 40.1571-1 4.48434e-06ZM4.00017 38.8237 0.000209974 46.8237-3.99983 38.8237Z" fill="#0078D4" transform="matrix(-1 0 0 1 195 105)"/><rect x="560" y="360" width="252" height="154" fill="#FFFFFF"/><path d="M591.5 360 591.5 514M780.5 360 780.5 514" stroke="#0078D4" stroke-width="2" stroke-linejoin="round" stroke-miterlimit="10" fill="none" fill-rule="evenodd"/><rect x="560" y="360" width="252" height="154" stroke="#0078D4" stroke-width="2" stroke-linejoin="round" stroke-miterlimit="10" fill="none"/><text font-family="Segoe UI,Segoe UI_MSFontService,sans-serif" font-weight="400" font-size="21" transform="translate(654.226 420)">Collect</text><text font-family="Segoe UI,Segoe UI_MSFontService,sans-serif" font-weight="400" font-size="21" transform="translate(653.533 445)">project</text><text font-family="Segoe UI,Segoe UI_MSFontService,sans-serif" font-weight="400" font-size="21" transform="translate(624.259 471)">requirements</text><rect x="560" y="152" width="252" height="153" stroke="#00569B" stroke-width="2" stroke-linejoin="round" stroke-miterlimit="10" fill="#0078D4"/><text fill="#FFFFFF" font-family="Segoe UI,Segoe UI_MSFontService,sans-serif" font-weight="400" font-size="24" transform="translate(603.136 208)">Manage project</text><text fill="#FFFFFF" font-family="Segoe UI,Segoe UI_MSFontService,sans-serif" font-weight="400" font-size="24" transform="translate(632.149 237)">scope and</text><text fill="#FFFFFF" font-family="Segoe UI,Segoe UI_MSFontService,sans-serif" font-weight="400" font-size="24" transform="translate(639.649 266)">schedule</text><path d="M1315 1480.5C1315 1460.34 1331.34 1444 1351.5 1444L1489.5 1444C1509.66 1444 1526 1460.34 1526 1480.5L1526 1480.5C1526 1500.66 1509.66 1517 1489.5 1517L1351.5 1517C1331.34 1517 1315 1500.66 1315 1480.5Z" stroke="#0078D4" stroke-width="2" stroke-linejoin="round" stroke-miterlimit="10" fill="#FFFFFF" fill-rule="evenodd"/><text font-family="Segoe UI,Segoe UI_MSFontService,sans-serif" font-weight="400" font-size="16" transform="translate(1407.27 1487)">End</text><path d="M196 305 196 360.285C196 360.837 195.552 361.285 195 361.285L195 361.285 196 360.285 196 408.903 194 408.903 194 360.285C194 359.732 194.448 359.285 195 359.285L195 359.285 194 360.285 194 305ZM199 407.569 195 415.569 191 407.569Z" fill="#0078D4"/><path d="M300 227 553.411 227 553.411 229 300 229ZM552.078 224 560.078 228 552.078 232Z" fill="#0078D4"/><path d="M687 305 687 353.692 685 353.692 685 305ZM690 352.359 686 360.359 682 352.359Z" fill="#0078D4"/><path d="M812 645 921.334 645 921.334 647 812 647ZM920 642 928 646 920 650Z" fill="#0078D4"/><rect x="69" y="416" width="252" height="153" stroke="#00569B" stroke-width="2" stroke-linejoin="round" stroke-miterlimit="10" fill="#0078D4"/><text fill="#FFFFFF" font-family="Segoe UI,Segoe UI_MSFontService,sans-serif" font-weight="400" font-size="24" transform="translate(111.224 501)">Govern projects​</text><rect x="560" y="1195" width="252" height="153" fill="#FFFFFF"/><path d="M591.5 1195 591.5 1348M780.5 1195 780.5 1348" stroke="#0078D4" stroke-width="2" stroke-linejoin="round" stroke-miterlimit="10" fill="none" fill-rule="evenodd"/><rect x="560" y="1195" width="252" height="153" stroke="#0078D4" stroke-width="2" stroke-linejoin="round" stroke-miterlimit="10" fill="none"/><text font-family="Segoe UI,Segoe UI_MSFontService,sans-serif" font-weight="400" font-size="21" transform="translate(621.036 1267)">Control scope</text><text font-family="Segoe UI,Segoe UI_MSFontService,sans-serif" font-weight="400" font-size="21" transform="translate(624.316 1292)">and schedule</text><rect x="928" y="569" width="252" height="153" fill="#FFFFFF"/><path d="M959.5 569 959.5 722M1148.5 569 1148.5 722" stroke="#0078D4" stroke-width="2" stroke-linejoin="round" stroke-miterlimit="10" fill="none" fill-rule="evenodd"/><rect x="928" y="569" width="252" height="153" stroke="#0078D4" stroke-width="2" stroke-linejoin="round" stroke-miterlimit="10" fill="none"/><text font-family="Segoe UI,Segoe UI_MSFontService,sans-serif" font-weight="400" font-size="21" transform="translate(1024.04 641)">Create</text><text font-family="Segoe UI,Segoe UI_MSFontService,sans-serif" font-weight="400" font-size="21" transform="translate(1017.04 666)">projects</text><rect x="1295" y="569" width="252" height="153" fill="#FFFFFF"/><path d="M1326.5 569 1326.5 722M1515.5 569 1515.5 722" stroke="#0078D4" stroke-width="2" stroke-linejoin="round" stroke-miterlimit="10" fill="none" fill-rule="evenodd"/><rect x="1295" y="569" width="252" height="153" stroke="#0078D4" stroke-width="2" stroke-linejoin="round" stroke-miterlimit="10" fill="none"/><text font-family="Segoe UI,Segoe UI_MSFontService,sans-serif" font-weight="400" font-size="21" transform="translate(1364.36 615)">Create work</text><text font-family="Segoe UI,Segoe UI_MSFontService,sans-serif" font-weight="400" font-size="21" transform="translate(1368.3 640)">breakdown</text><text font-family="Segoe UI,Segoe UI_MSFontService,sans-serif" font-weight="400" font-size="21" transform="translate(1379.08 666)">structure</text><text font-family="Segoe UI,Segoe UI_MSFontService,sans-serif" font-weight="400" font-size="21" transform="translate(1392.35 692)">(WBS)</text><rect x="927" y="360" width="252" height="154" fill="#FFFFFF"/><path d="M958.5 360 958.5 514M1147.5 360 1147.5 514" stroke="#0078D4" stroke-width="2" stroke-linejoin="round" stroke-miterlimit="10" fill="none" fill-rule="evenodd"/><rect x="927" y="360" width="252" height="154" stroke="#0078D4" stroke-width="2" stroke-linejoin="round" stroke-miterlimit="10" fill="none"/><text font-family="Segoe UI,Segoe UI_MSFontService,sans-serif" font-weight="400" font-size="21" transform="translate(1022.02 432)">Define</text><text font-family="Segoe UI,Segoe UI_MSFontService,sans-serif" font-weight="400" font-size="21" transform="translate(989.411 457)">project scope</text><rect x="560" y="986" width="252" height="154" fill="#FFFFFF"/><path d="M591.5 986 591.5 1140M780.5 986 780.5 1140" stroke="#0078D4" stroke-width="2" stroke-linejoin="round" stroke-miterlimit="10" fill="none" fill-rule="evenodd"/><rect x="560" y="986" width="252" height="154" stroke="#0078D4" stroke-width="2" stroke-linejoin="round" stroke-miterlimit="10" fill="none"/><text font-family="Segoe UI,Segoe UI_MSFontService,sans-serif" font-weight="400" font-size="21" transform="translate(648.393 1046)">Monitor</text><text font-family="Segoe UI,Segoe UI_MSFontService,sans-serif" font-weight="400" font-size="21" transform="translate(658.813 1071)">scope</text><text font-family="Segoe UI,Segoe UI_MSFontService,sans-serif" font-weight="400" font-size="21" transform="translate(643.266 1097)">delivered</text><rect x="1293" y="360" width="252" height="154" fill="#FFFFFF"/><path d="M1324.5 360 1324.5 514M1513.5 360 1513.5 514" stroke="#0078D4" stroke-width="2" stroke-linejoin="round" stroke-miterlimit="10" fill="none" fill-rule="evenodd"/><rect x="1293" y="360" width="252" height="154" stroke="#0078D4" stroke-width="2" stroke-linejoin="round" stroke-miterlimit="10" fill="none"/><text font-family="Segoe UI,Segoe UI_MSFontService,sans-serif" font-weight="400" font-size="21" transform="translate(1363.2 432)">Plan project</text><text font-family="Segoe UI,Segoe UI_MSFontService,sans-serif" font-weight="400" font-size="21" transform="translate(1391.4 457)">scope</text><rect x="560" y="1404" width="252" height="153" fill="#FFFFFF"/><path d="M591.5 1404 591.5 1557M780.5 1404 780.5 1557" stroke="#0078D4" stroke-width="2" stroke-linejoin="round" stroke-miterlimit="10" fill="none" fill-rule="evenodd"/><rect x="560" y="1404" width="252" height="153" stroke="#0078D4" stroke-width="2" stroke-linejoin="round" stroke-miterlimit="10" fill="none"/><text font-family="Segoe UI,Segoe UI_MSFontService,sans-serif" font-weight="400" font-size="21" transform="translate(626.439 1476)">Revise scope</text><text font-family="Segoe UI,Segoe UI_MSFontService,sans-serif" font-weight="400" font-size="21" transform="translate(624.313 1501)">and schedule</text><rect x="560" y="778" width="252" height="153" fill="#FFFFFF"/><path d="M591.5 778 591.5 931M780.5 778 780.5 931" stroke="#0078D4" stroke-width="2" stroke-linejoin="round" stroke-miterlimit="10" fill="none" fill-rule="evenodd"/><rect x="560" y="778" width="252" height="153" stroke="#0078D4" stroke-width="2" stroke-linejoin="round" stroke-miterlimit="10" fill="none"/><text font-family="Segoe UI,Segoe UI_MSFontService,sans-serif" font-weight="400" font-size="21" transform="translate(651.983 837)">Update</text><text font-family="Segoe UI,Segoe UI_MSFontService,sans-serif" font-weight="400" font-size="21" transform="translate(629.229 862)">estimates to</text><text font-family="Segoe UI,Segoe UI_MSFontService,sans-serif" font-weight="400" font-size="21" transform="translate(642.483 888)">complete</text><path d="M812 436 919.625 436 919.625 438 812 438ZM918.292 433 926.292 437 918.292 441Z" fill="#0078D4"/><path d="M1179 436 1286.63 436 1286.63 438 1179 438ZM1285.29 433 1293.29 437 1285.29 441Z" fill="#0078D4"/><path d="M1180 645 1287.63 645 1287.63 647 1180 647ZM1286.29 642 1294.29 646 1286.29 650Z" fill="#0078D4"/><path d="M687 931 687 979.692 685 979.692 685 931ZM690 978.359 686 986.359 682 978.359Z" fill="#0078D4"/><path d="M687 1140 687 1188.69 685 1188.69 685 1140ZM690 1187.36 686 1195.36 682 1187.36Z" fill="#0078D4"/><path d="M687 1348 687 1396.69 685 1396.69 685 1348ZM690 1395.36 686 1403.36 682 1395.36Z" fill="#0078D4"/><path d="M812 1479 1307.95 1479 1307.95 1481 812 1481ZM1306.61 1476 1314.61 1480 1306.61 1484Z" fill="#0078D4"/><path d="M1419.58 514 1419.58 541.68C1419.58 542.232 1419.14 542.68 1418.58 542.68L686 542.68 687 541.68 687 562.692 685 562.692 685 541.68C685 541.127 685.448 540.68 686 540.68L1418.58 540.68 1417.58 541.68 1417.58 514ZM690 561.358 686 569.358 682 561.358Z" fill="#0078D4"/><path d="M1421.29 722 1421.29 749.68C1421.29 750.232 1420.84 750.68 1420.29 750.68L686 750.68 687 749.68 687 770.692 685 770.692 685 749.68C685 749.128 685.448 748.68 686 748.68L1420.29 748.68 1419.29 749.68 1419.29 722ZM690 769.359 686 777.359 682 769.359Z" fill="#0078D4"/><path d="M561.333 1480.95 511.733 1480.95C511.181 1480.95 510.733 1480.5 510.733 1479.95L510.733 854C510.733 853.448 511.181 853 511.733 853L553.333 853 553.333 855 511.733 855 512.733 854 512.733 1479.95 511.733 1478.95 561.333 1478.95ZM552 850 560 854 552 858Z" fill="#0078D4"/><path d="M0-1 119.878-1C120.43-1 120.878-0.552285 120.878 0L120.878 263.86 119.878 262.86 233.089 262.86 233.089 264.86 119.878 264.86C119.326 264.86 118.878 264.412 118.878 263.86L118.878 0 119.878 1 0 1ZM231.756 259.86 239.756 263.86 231.756 267.86Z" fill="#0078D4" transform="matrix(1 0 0 -1 321 491.86)"/><rect x="560" y="569" width="252" height="153" fill="#FFFFFF"/><path d="M591.5 569 591.5 722M780.5 569 780.5 722" stroke="#0078D4" stroke-width="2" stroke-linejoin="round" stroke-miterlimit="10" fill="none" fill-rule="evenodd"/><rect x="560" y="569" width="252" height="153" stroke="#0078D4" stroke-width="2" stroke-linejoin="round" stroke-miterlimit="10" fill="none"/><text font-family="Segoe UI,Segoe UI_MSFontService,sans-serif" font-weight="400" font-size="21" transform="translate(649.082 628)">Validate</text><text font-family="Segoe UI,Segoe UI_MSFontService,sans-serif" font-weight="400" font-size="21" transform="translate(638.229 653)">scope and</text><text font-family="Segoe UI,Segoe UI_MSFontService,sans-serif" font-weight="400" font-size="21" transform="translate(644.896 679)">schedule</text></g></svg>