<?xml version="1.0"?>
<svg xmlns="http://www.w3.org/2000/svg" xmlns:xlink="http://www.w3.org/1999/xlink" xmlns:ev="http://www.w3.org/2001/xml-events"    viewBox="42 22 723 923"    xml:space="preserve" color-interpolation-filters="sRGB" class="st11">
	<style type="text/css"><![CDATA[
		.st1 {fill:#ffffff;stroke:#0078d4;stroke-linecap:round;stroke-linejoin:round;stroke-width:0.24}
		.st2 {fill:#000000;font-family:Calibri;font-size:1.00001em}
		.st3 {fill:#0078d4;stroke:none;stroke-linecap:round;stroke-linejoin:round;stroke-width:0.24}
		.st4 {fill:#ffffff;font-family:Calibri;font-size:1.00001em}
		.st5 {fill:#ffffff}
		.st6 {stroke:#0078d4;stroke-linecap:round;stroke-linejoin:round;stroke-width:0.24}
		.st7 {font-size:1em}
		.st8 {fill:#a0a0a0;stroke:none;stroke-linecap:round;stroke-linejoin:round;stroke-width:0.24}
		.st9 {marker-end:url(#mrkr13-113);stroke:#0078d4;stroke-linecap:round;stroke-linejoin:round;stroke-width:0.75}
		.st10 {fill:#0078d4;fill-opacity:1;stroke:#0078d4;stroke-opacity:1;stroke-width:0.22935779816514}
		.st11 {fill:none;fill-rule:evenodd;font-size:12px;overflow:visible;stroke-linecap:square;stroke-miterlimit:3}
	]]></style><style> a { pointer-events: none; } </style><style>a.rules_svg_anchor g:hover { opacity:0.8; cursor:pointer; }</style>
	<defs id="Markers">
		<g id="lend13">
			<path d="M 3 1 L 0 0 L 3 -1 L 3 1 " style="stroke:none" />
		</g>
		<marker id="mrkr13-113" class="st10" refX="-13.08" orient="auto" markerUnits="strokeWidth" overflow="visible">
			<use xlink:href="#lend13" transform="scale(-4.36,-4.36) " />
		</marker>
	</defs>
	<g>
		
		<g id="shape1-1" transform="translate(101.25,-1116)">
			
			<desc>Start</desc>
			<path d="M18 1188 L60.75 1188 A18 18 -180 0 0 60.75 1152 L18 1152 A18 18 -180 1 0 18 1188 Z" class="st1" />
			<text x="27.63" y="1173.6" class="st2">Start</text>
		</g>
		<a id="cfe2a5e2-c2e4-4156-9c2c-9eea2b44843c" class="rules_svg_anchor rules_svg_shape"   href="/lms/chart?onclick=b3BlbkNoYXJ0Q29udGV4dE1lbnUoZXZlbnQsJ3cxMDRkNTIzNTk2NWMxNzMxOXY0MDYxJywxMjIxMiwgMSwgMSwgdGhpcywgd2luZG93LmZyYW1lRWxlbWVudCk=&amp;navigate=true&amp;details=Description">
			<g id="shape2-4" transform="translate(335.25,-1102.5)">
				
				<desc>80 Project to profit</desc>
				<rect x="0" y="1125" width="99" height="63" class="st3" />
				<text x="3.23" y="1160.1" class="st4">80 Project to profit</text>
			</g>
		</a>
		<a id="69726ae3-04e8-48c2-9ce6-f39aa66b361b" class="rules_svg_anchor rules_svg_shape"   href="/lms/chart?onclick=b3BlbkNoYXJ0Q29udGV4dE1lbnUoZXZlbnQsJ3cxMDRkNTIzNTk2NWMxNzMzMXY0MDYxJywxMjIxOCwgMSwgMSwgdGhpcywgd2luZG93LmZyYW1lRWxlbWVudCk=&amp;navigate=true&amp;details=Description">
			<g id="shape3-7" transform="translate(335.25,-909)">
				
				<desc>80.20 Manage project contracts</desc>
				<path d="M0 1188 L99 1188 L99 1125 L0 1125 L0 1188 Z" class="st5" />
				<path d="M0 1188 L99 1188 L99 1125 L0 1125 L0 1188" class="st6" />
				<path d="M9 1188 L9 1125" class="st6" />
				<path d="M90 1188 L90 1125" class="st6" />
				<text x="14.62" y="1145.7" class="st2">80.20 Manage <tspan x="32.12" dy="1.2em" class="st7">project </tspan>
					<tspan x="26.78" dy="1.2em" class="st7">contracts</tspan>
				</text>
			</g>
		</a>
		<a id="c0567944-d3a4-470c-85be-0e68bb4f62fd" class="rules_svg_anchor rules_svg_shape"   href="/lms/chart?onclick=b3BlbkNoYXJ0Q29udGV4dE1lbnUoZXZlbnQsJ3cxMDRkNTIzNTk2NWMxNzMyMHY0MDYxJywxMjIxMywgMSwgMSwgdGhpcywgd2luZG93LmZyYW1lRWxlbWVudCk=&amp;navigate=true&amp;details=Description">
			<g id="shape5-15" transform="translate(335.25,-1008)">
				
				<desc>80.10 Develop project strategy</desc>
				<path d="M0 1188 L99 1188 L99 1125 L0 1125 L0 1188 Z" class="st5" />
				<path d="M0 1188 L99 1188 L99 1125 L0 1125 L0 1188" class="st6" />
				<path d="M9 1188 L9 1125" class="st6" />
				<path d="M90 1188 L90 1125" class="st6" />
				<text x="14.4" y="1145.7" class="st2">80.10 Develop <tspan x="32.12" dy="1.2em" class="st7">project </tspan>
					<tspan x="29.64" dy="1.2em" class="st7">strategy</tspan>
				</text>
			</g>
		</a>
		<a id="1fc71810-2aac-43db-92e2-cf08e7a0d644" class="rules_svg_anchor rules_svg_shape"   href="/lms/chart?onclick=b3BlbkNoYXJ0Q29udGV4dE1lbnUoZXZlbnQsJ3cxMDRkNTIzNTk2NWMxNzQxMnY0MDYxJywxMjI2MiwgMSwgMSwgdGhpcywgd2luZG93LmZyYW1lRWxlbWVudCk=&amp;navigate=true&amp;details=Description">
			<g id="shape6-23" transform="translate(41.6842,-909)">
				
				<desc>90 Record to report</desc>
				<rect x="0" y="1125" width="78.75" height="63" class="st8" />
				<text x="8.22" y="1152.9" class="st2">90 Record to <tspan x="23.88" dy="1.2em" class="st7">report</tspan>
				</text>
			</g>
		</a>
		<a id="42096d01-0ba6-4073-8c72-172a7d7d2da4" class="rules_svg_anchor rules_svg_shape"   href="/lms/chart?onclick=b3BlbkNoYXJ0Q29udGV4dE1lbnUoZXZlbnQsJ3cxMDRkNTIzNTk2NWMxNzQ5NnY0MDYxJywxMjMxNywgMSwgMSwgdGhpcywgd2luZG93LmZyYW1lRWxlbWVudCk=&amp;navigate=true&amp;details=Description">
			<g id="shape8-27" transform="translate(648,-972)">
				
				<desc>95 Service to deliver</desc>
				<rect x="0" y="1125" width="78.75" height="63" class="st8" />
				<text x="7.96" y="1152.9" class="st2">95 Service to <tspan x="22.7" dy="1.2em" class="st7">deliver</tspan>
				</text>
			</g>
		</a>
		<a id="8938b33b-8b0f-40cc-b07e-9d61df1a1799" class="rules_svg_anchor rules_svg_shape"   href="/lms/chart?onclick=b3BlbkNoYXJ0Q29udGV4dE1lbnUoZXZlbnQsJ3cxMDRkNTIzNTk2NWMxNzMzNnY0MDYxJywxMjIyNSwgMSwgMSwgdGhpcywgd2luZG93LmZyYW1lRWxlbWVudCk=&amp;navigate=true&amp;details=Description">
			<g id="shape9-31" transform="translate(335.25,-796.5)">
				
				<desc>80.30 Plan projects</desc>
				<path d="M0 1188 L99 1188 L99 1125 L0 1125 L0 1188 Z" class="st5" />
				<path d="M0 1188 L99 1188 L99 1125 L0 1125 L0 1188" class="st6" />
				<path d="M9 1188 L9 1125" class="st6" />
				<path d="M90 1188 L90 1125" class="st6" />
				<text x="23.96" y="1152.9" class="st2">80.30 Plan <tspan x="29.78" dy="1.2em" class="st7">projects</tspan>
				</text>
			</g>
		</a>
		<a id="cc282ed4-ed84-4068-acab-ad2bf0439955" class="rules_svg_anchor rules_svg_shape"   href="/lms/chart?onclick=b3BlbkNoYXJ0Q29udGV4dE1lbnUoZXZlbnQsJ3cxMDRkNTIzNTk2NWMxNzM0M3Y0MDYxJywxMjIzMiwgMSwgMSwgdGhpcywgd2luZG93LmZyYW1lRWxlbWVudCk=&amp;navigate=true&amp;details=Description">
			<g id="shape10-38" transform="translate(335.25,-661.5)">
				
				<desc>80.40 Manage project delivery</desc>
				<path d="M0 1188 L99 1188 L99 1125 L0 1125 L0 1188 Z" class="st5" />
				<path d="M0 1188 L99 1188 L99 1125 L0 1125 L0 1188" class="st6" />
				<path d="M9 1188 L9 1125" class="st6" />
				<path d="M90 1188 L90 1125" class="st6" />
				<text x="14.62" y="1152.9" class="st2">80.40 Manage <tspan x="11.37" dy="1.2em" class="st7">project delivery</tspan>
				</text>
			</g>
		</a>
		<a id="7dc92bed-a6a5-4b8a-8609-a49a43096e1f" class="rules_svg_anchor rules_svg_shape"   href="/lms/chart?onclick=b3BlbkNoYXJ0Q29udGV4dE1lbnUoZXZlbnQsJ3cxMDRkNTIzNTk2NWMxNzM2MnY0MDYxJywxMjI0MywgMSwgMSwgdGhpcywgd2luZG93LmZyYW1lRWxlbWVudCk=&amp;navigate=true&amp;details=Description">
			<g id="shape12-45" transform="translate(335.25,-513)">
				
				<desc>80.50 Manage project financials</desc>
				<path d="M0 1188 L99 1188 L99 1125 L0 1125 L0 1188 Z" class="st5" />
				<path d="M0 1188 L99 1188 L99 1125 L0 1125 L0 1188" class="st6" />
				<path d="M9 1188 L9 1125" class="st6" />
				<path d="M90 1188 L90 1125" class="st6" />
				<text x="14.62" y="1145.7" class="st2">80.50 Manage <tspan x="32.12" dy="1.2em" class="st7">project </tspan>
					<tspan x="26.6" dy="1.2em" class="st7">financials</tspan>
				</text>
			</g>
		</a>
		<a id="a31da1bc-b7ac-49ce-bc95-6cbeadb5a9fd" class="rules_svg_anchor rules_svg_shape"   href="/lms/chart?onclick=b3BlbkNoYXJ0Q29udGV4dE1lbnUoZXZlbnQsJ3cxMDRkNTIzNTk2NWMxNzM3MXY0MDYxJywxMjI0OSwgMSwgMSwgdGhpcywgd2luZG93LmZyYW1lRWxlbWVudCk=&amp;navigate=true&amp;details=Description">
			<g id="shape25-53" transform="translate(335.25,-364.5)">
				
				<desc>80.60 Analyze project performance</desc>
				<path d="M0 1188 L99 1188 L99 1125 L0 1125 L0 1188 Z" class="st5" />
				<path d="M0 1188 L99 1188 L99 1125 L0 1125 L0 1188" class="st6" />
				<path d="M9 1188 L9 1125" class="st6" />
				<path d="M90 1188 L90 1125" class="st6" />
				<text x="15.52" y="1145.7" class="st2">80.60 Analyze <tspan x="32.12" dy="1.2em" class="st7">project </tspan>
					<tspan x="17.84" dy="1.2em" class="st7">performance</tspan>
				</text>
			</g>
		</a>
		<a id="6f42458d-e7e6-4509-ae9e-61dd98e033b0" class="rules_svg_anchor rules_svg_shape"   href="/lms/chart?onclick=b3BlbkNoYXJ0Q29udGV4dE1lbnUoZXZlbnQsJ3cxMDRkNTIzNTk2NWMxNzE1NXY0MDYxJywxMjA4MSwgMSwgMSwgdGhpcywgd2luZG93LmZyYW1lRWxlbWVudCk=&amp;navigate=true&amp;details=Description">
			<g id="shape26-61" transform="translate(41.6842,-796.5)">
				
				<desc>65 Order to cash</desc>
				<rect x="0" y="1125" width="78.75" height="63" class="st8" />
				<text x="11.11" y="1152.9" class="st2">65 Order to <tspan x="28.46" dy="1.2em" class="st7">cash</tspan>
				</text>
			</g>
		</a>
		<a id="204fe810-dff4-42df-9302-d7f28de2042d" class="rules_svg_anchor rules_svg_shape"   href="/lms/chart?onclick=b3BlbkNoYXJ0Q29udGV4dE1lbnUoZXZlbnQsJ3cxMDRkNTIzNTk2NWMxNjk0NHY0MDYxJywxMTkyNSwgMSwgMSwgdGhpcywgd2luZG93LmZyYW1lRWxlbWVudCk=&amp;navigate=true&amp;details=Description">
			<g id="shape27-65" transform="translate(41.6842,-684)">
				
				<desc>40 Design to retire</desc>
				<rect x="0" y="1125" width="78.75" height="63" class="st8" />
				<text x="9.03" y="1152.9" class="st2">40 Design to <tspan x="25.83" dy="1.2em" class="st7">retire</tspan>
				</text>
			</g>
		</a>
		<a id="01f23ef2-b159-48a9-9c00-4a736aea17c5" class="rules_svg_anchor rules_svg_shape"   href="/lms/chart?onclick=b3BlbkNoYXJ0Q29udGV4dE1lbnUoZXZlbnQsJ3cxMDRkNTIzNTk2NWMxNzM3NnY0MDYxJywxMjI1NSwgMSwgMSwgdGhpcywgd2luZG93LmZyYW1lRWxlbWVudCk=&amp;navigate=true&amp;details=Description">
			<g id="shape28-69" transform="translate(41.6842,-558)">
				
				<desc>85 Prospect to quote</desc>
				<rect x="0" y="1125" width="78.75" height="63" class="st8" />
				<text x="4.02" y="1152.9" class="st2">85 Prospect to <tspan x="24.91" dy="1.2em" class="st7">quote</tspan>
				</text>
			</g>
		</a>
		<a id="5b3f6389-b9ba-4db1-a107-8986036be06c" class="rules_svg_anchor rules_svg_shape"   href="/lms/chart?onclick=b3BlbkNoYXJ0Q29udGV4dE1lbnUoZXZlbnQsJ3cxMDRkNTIzNTk2NWMxNzQ5NnY0MDYxJywxMjMxNywgMSwgMSwgdGhpcywgd2luZG93LmZyYW1lRWxlbWVudCk=&amp;navigate=true&amp;details=Description">
			<g id="shape29-73" transform="translate(41.6842,-432)">
				
				<desc>95 Service to deliver</desc>
				<rect x="0" y="1125" width="78.75" height="63" class="st8" />
				<text x="7.96" y="1152.9" class="st2">95 Service to <tspan x="22.7" dy="1.2em" class="st7">deliver</tspan>
				</text>
			</g>
		</a>
		<a id="57d01b48-b9db-45e9-bceb-84a4b71ee95c" class="rules_svg_anchor rules_svg_shape"   href="/lms/chart?onclick=b3BlbkNoYXJ0Q29udGV4dE1lbnUoZXZlbnQsJ3cxMDRkNTIzNTk2NWMxNjk0NHY0MDYxJywxMTkyNSwgMSwgMSwgdGhpcywgd2luZG93LmZyYW1lRWxlbWVudCk=&amp;navigate=true&amp;details=Description">
			<g id="shape30-77" transform="translate(648,-877.5)">
				
				<desc>40 Design to retire</desc>
				<rect x="0" y="1125" width="78.75" height="63" class="st8" />
				<text x="9.03" y="1152.9" class="st2">40 Design to <tspan x="25.83" dy="1.2em" class="st7">retire</tspan>
				</text>
			</g>
		</a>
		<a id="cfc41578-ff9e-459d-9533-c6664a01b688" class="rules_svg_anchor rules_svg_shape"   href="/lms/chart?onclick=b3BlbkNoYXJ0Q29udGV4dE1lbnUoZXZlbnQsJ3cxMDRkNTIzNTk2NWMxNzE1NXY0MDYxJywxMjA4MSwgMSwgMSwgdGhpcywgd2luZG93LmZyYW1lRWxlbWVudCk=&amp;navigate=true&amp;details=Description">
			<g id="shape31-81" transform="translate(648,-783)">
				
				<desc>65 Order to cash</desc>
				<rect x="0" y="1125" width="78.75" height="63" class="st8" />
				<text x="11.11" y="1152.9" class="st2">65 Order to <tspan x="28.46" dy="1.2em" class="st7">cash</tspan>
				</text>
			</g>
		</a>
		<a id="d7881e16-0e69-4b37-9c3e-af1a1e78fc6d" class="rules_svg_anchor rules_svg_shape"   href="/lms/chart?onclick=b3BlbkNoYXJ0Q29udGV4dE1lbnUoZXZlbnQsJ3cxMDRkNTIzNTk2NWMxNzIzMHY0MDYxJywxMjEyNywgMSwgMSwgdGhpcywgd2luZG93LmZyYW1lRWxlbWVudCk=&amp;navigate=true&amp;details=Description">
			<g id="shape32-85" transform="translate(648,-688.5)">
				
				<desc>70 Plan to produce</desc>
				<rect x="0" y="1125" width="78.75" height="63" class="st8" />
				<text x="14.9" y="1152.9" class="st2">70 Plan to <tspan x="19.14" dy="1.2em" class="st7">produce</tspan>
				</text>
			</g>
		</a>
		<a id="c134a7d2-8099-4514-bc24-bbd6568c8ba3" class="rules_svg_anchor rules_svg_shape"   href="/lms/chart?onclick=b3BlbkNoYXJ0Q29udGV4dE1lbnUoZXZlbnQsJ3cxMDRkNTIzNTk2NWMxNzI2OXY0MDYxJywxMjE2MywgMSwgMSwgdGhpcywgd2luZG93LmZyYW1lRWxlbWVudCk=&amp;navigate=true&amp;details=Description">
			<g id="shape33-89" transform="translate(648,-594)">
				
				<desc>75 Source to pay</desc>
				<rect x="0" y="1125" width="78.75" height="63" class="st8" />
				<text x="8.72" y="1152.9" class="st2">75 Source to <tspan x="30.63" dy="1.2em" class="st7">pay</tspan>
				</text>
			</g>
		</a>
		<a id="f7d6bfe9-8f1a-4a4f-a8d2-338b2a8077be" class="rules_svg_anchor rules_svg_shape"   href="/lms/chart?onclick=b3BlbkNoYXJ0Q29udGV4dE1lbnUoZXZlbnQsJ3cxMDRkNTIzNTk2NWMxNjgwMnY0MDYxJywxMTc5MywgMSwgNCwgdGhpcywgd2luZG93LmZyYW1lRWxlbWVudCk=&amp;navigate=true&amp;details=Description">
			<g id="shape34-93" transform="translate(648,-499.5)">
				
				<desc>10 Acquire to dispose</desc>
				<rect x="0" y="1125" width="78.75" height="63" class="st8" />
				<text x="6.64" y="1152.9" class="st2">10 Acquire to <tspan x="20.85" dy="1.2em" class="st7">dispose</tspan>
				</text>
			</g>
		</a>
		<a id="cf895253-2ac0-428d-b3f8-f5183882d3f7" class="rules_svg_anchor rules_svg_shape"   href="/lms/chart?onclick=b3BlbkNoYXJ0Q29udGV4dE1lbnUoZXZlbnQsJ3cxMDRkNTIzNTk2NWMxNzQxMnY0MDYxJywxMjI2MiwgMSwgMSwgdGhpcywgd2luZG93LmZyYW1lRWxlbWVudCk=&amp;navigate=true&amp;details=Description">
			<g id="shape35-97" transform="translate(648,-405)">
				
				<desc>90 Record to report</desc>
				<rect x="0" y="1125" width="78.75" height="63" class="st8" />
				<text x="8.22" y="1152.9" class="st2">90 Record to <tspan x="23.88" dy="1.2em" class="st7">report</tspan>
				</text>
			</g>
		</a>
		<a id="2b5b5865-f3f5-4b15-83f9-a38f11ee1dfc" class="rules_svg_anchor rules_svg_shape"   href="/lms/chart?onclick=b3BlbkNoYXJ0Q29udGV4dE1lbnUoZXZlbnQsJ3cxMDRkNTIzNTk2NWMxNjg1N3Y0MDYxJywxMTg0NSwgMSwgMSwgdGhpcywgd2luZG93LmZyYW1lRWxlbWVudCk=&amp;navigate=true&amp;details=Description">
			<g id="shape36-101" transform="translate(648,-310.5)">
				
				<desc>20 Case to resolution</desc>
				<rect x="0" y="1125" width="78.75" height="63" class="st8" />
				<text x="14" y="1152.9" class="st2">20 Case to <tspan x="14.55" dy="1.2em" class="st7">resolution</tspan>
				</text>
			</g>
		</a>
		<g id="shape37-105" transform="translate(648,-243)">
			
			<desc>End</desc>
			<path d="M18 1188 L60.75 1188 A18 18 -180 0 0 60.75 1152 L18 1152 A18 18 -180 1 0 18 1188 Z" class="st1" />
			<text x="30.14" y="1173.6" class="st2">End</text>
		</g>
		<g id="shape43-108" transform="translate(180,-1125)">
			
			<path d="M0 1179 L145.44 1179" class="st9" />
		</g>
		<g id="shape56-114" transform="translate(434.25,-693)">
			
			<path d="M0 1188 L17.66 1188 L17.66 1161 L203.94 1161" class="st9" />
		</g>
		<g id="shape57-119" transform="translate(375.75,-796.5)">
			
			<path d="M9 1188 L9 1250.19" class="st9" />
		</g>
		<g id="shape58-124" transform="translate(375.75,-661.5)">
			
			<path d="M9 1188 L9 1263.69" class="st9" />
		</g>
		<g id="shape59-129" transform="translate(375.987,-513)">
			
			<path d="M8.76 1188 L9.18 1263.69" class="st9" />
		</g>
		<g id="shape61-134" transform="translate(120.434,-940.5)">
			
			<path d="M0 1188 L26.66 1188 L26.66 1584 L119.57 1584 A3 3 0 0 1 125.57 1584 L205.01 1584" class="st9" />
		</g>
		<g id="shape66-139" transform="translate(434.25,-544.5)">
			
			<path d="M0 1188 L17.66 1188 L17.66 1296 L203.94 1296" class="st9" />
		</g>
		<g id="shape67-144" transform="translate(434.25,-546.75)">
			
			<path d="M0 1190.25 L163.91 1190.25 L163.91 1203.75 L203.94 1203.75" class="st9" />
		</g>
		<g id="shape68-149" transform="translate(434.25,-693)">
			
			<path d="M0 1188 L189.75 1188 L189.75 1255.5 L203.94 1255.5" class="st9" />
		</g>
		<g id="shape69-154" transform="translate(434.25,-828)">
			
			<path d="M0 1188 L14.66 1188 A3 3 0 0 1 20.66 1188 L189.75 1188 L189.75 1296 L203.94 1296" class="st9" />
		</g>
		<g id="shape70-159" transform="translate(434.25,-830.25)">
			
			<path d="M0 1190.25 L14.66 1190.25 A3 3 0 0 1 20.66 1190.25 L189.75 1190.25 L189.75 1203.75 L203.94 1203.75" class="st9" />
		</g>
		<g id="shape71-164" transform="translate(434.25,-693)">
			
			<path d="M0 1188 L17.66 1188 L17.66 972 L203.94 972" class="st9" />
		</g>
		<g id="shape72-169" transform="translate(434.25,-693)">
			
			<path d="M0 1188 L17.66 1188 L17.66 877.5 L203.94 877.5" class="st9" />
		</g>
		<g id="shape73-174" transform="translate(717.75,-1003.5)">
			
			<path d="M9 1188 L26.66 1188 L26.66 1930.5 L18.81 1930.5" class="st9" />
		</g>
		<g id="shape74-179" transform="translate(717.75,-342)">
			
			<path d="M9 1188 L26.66 1188 L26.66 1269 L18.81 1269" class="st9" />
		</g>
		<g id="shape75-184" transform="translate(375.75,-1102.5)">
			
			<path d="M9 1188 L9 1209.69" class="st9" />
		</g>
		<g id="shape76-189" transform="translate(375.75,-909)">
			
			<path d="M9 1188 L9 1227.69" class="st9" />
		</g>
		<g id="shape77-194" transform="translate(120.434,-463.5)">
			
			<path d="M0 1188 L122.57 1188 L122.57 711 L205.01 711" class="st9" />
		</g>
		<g id="shape78-199" transform="translate(120.434,-589.5)">
			
			<path d="M0 1188 L23.66 1188 A3 3 0 1 1 29.66 1188 L122.57 1188 L122.57 837 L205.01 837" class="st9" />
		</g>
		<g id="shape79-204" transform="translate(120.434,-715.5)">
			
			<path d="M0 1188 L17.66 1188 L17.66 1210.5 L23.66 1210.5 A3 3 0 0 1 29.66 1210.5 L119.57 1210.5 A3 3 0 0 1 125.57 1210.5        L205.01 1210.5" class="st9" />
		</g>
		<g id="shape80-209" transform="translate(120.434,-828)">
			
			<path d="M0 1188 L26.66 1188 L26.66 1323 L119.57 1323 A3 3 0 0 1 125.57 1323 L205.01 1323" class="st9" />
		</g>
		<g id="shape81-214" transform="translate(120.434,-819)">
			
			<path d="M0 1179 L23.66 1179 A3 3 0 1 1 29.66 1179 L119.57 1179 A3 3 0 0 1 125.57 1179 L205.01 1179" class="st9" />
		</g>
		<g id="shape82-219" transform="translate(375.75,-1008)">
			
			<path d="M9 1188 L9 1214.19" class="st9" />
		</g>
	</g>
</svg>
