<?xml version="1.0" encoding="UTF-8" standalone="no"?>
<svg
   width="1920"
   height="1574.9095"
   overflow="hidden"
   version="1.1"
   id="svg228"
   sodipodi:docname="recognize-project-revenue-flow.svg"
   inkscape:version="1.2.2 (732a01da63, 2022-12-09)"
   xmlns:inkscape="http://www.inkscape.org/namespaces/inkscape"
   xmlns:sodipodi="http://sodipodi.sourceforge.net/DTD/sodipodi-0.dtd"
   xmlns="http://www.w3.org/2000/svg"
   xmlns:svg="http://www.w3.org/2000/svg">
  <defs
     id="defs232" />
  <sodipodi:namedview
     id="namedview230"
     pagecolor="#ffffff"
     bordercolor="#000000"
     borderopacity="0.25"
     inkscape:showpageshadow="2"
     inkscape:pageopacity="0.0"
     inkscape:pagecheckerboard="0"
     inkscape:deskcolor="#d1d1d1"
     showgrid="false"
     inkscape:zoom="0.43177083"
     inkscape:cx="958.84198"
     inkscape:cy="-1.1580217"
     inkscape:window-width="1920"
     inkscape:window-height="1010"
     inkscape:window-x="-6"
     inkscape:window-y="-6"
     inkscape:window-maximized="1"
     inkscape:current-layer="svg228" />
  <g
     id="g226"
     transform="translate(0,-30.108564)">
    <rect
       x="0"
       y="30.108564"
       width="1920"
       height="1574.9095"
       fill="#ffffff"
       id="rect2"
       style="stroke-width:0.905685" />
    <rect
       x="856"
       y="42"
       width="759"
       height="1539"
       stroke="#0078d4"
       stroke-width="2"
       stroke-linejoin="round"
       stroke-miterlimit="10"
       fill="#d9d9d9"
       id="rect4" />
    <text
       fill="#0078d4"
       font-family="'Segoe UI', 'Segoe UI_MSFontService', sans-serif"
       font-weight="700"
       font-size="32px"
       transform="translate(885.096,96)"
       id="text6">Business process area</text>
    <path
       d="M 31,68.5 C 31,48.3416 47.3416,32 67.5,32 h 139 c 20.158,0 36.5,16.3416 36.5,36.5 v 0 C 243,88.6584 226.658,105 206.5,105 H 67.5 C 47.3416,105 31,88.6584 31,68.5 Z"
       stroke="#0078d4"
       stroke-width="2"
       stroke-linejoin="round"
       stroke-miterlimit="10"
       fill="#ffffff"
       fill-rule="evenodd"
       id="path8" />
    <text
       font-family="'Segoe UI', 'Segoe UI_MSFontService', sans-serif"
       font-weight="400"
       font-size="27px"
       transform="translate(109.504,78)"
       id="text10">Start</text>
    <rect
       x="34"
       y="382"
       width="211"
       height="153"
       stroke="#000000"
       stroke-width="2"
       stroke-linejoin="round"
       stroke-miterlimit="10"
       fill="#a0a0a0"
       id="rect12" />
    <text
       font-family="'Segoe UI', 'Segoe UI_MSFontService', sans-serif"
       font-weight="400"
       font-size="27px"
       transform="translate(83.0679,453)"
       id="text14">Project to</text>
    <text
       font-family="'Segoe UI', 'Segoe UI_MSFontService', sans-serif"
       font-weight="400"
       font-size="27px"
       transform="translate(107.875,485)"
       id="text16">profit</text>
    <rect
       x="876"
       y="358"
       width="252"
       height="154"
       fill="#ffffff"
       id="rect18" />
    <path
       d="m 907.5,358 v 154 m 189,-154 v 154"
       stroke="#0078d4"
       stroke-width="2"
       stroke-linejoin="round"
       stroke-miterlimit="10"
       fill="none"
       fill-rule="evenodd"
       id="path20" />
    <rect
       x="876"
       y="358"
       width="252"
       height="154"
       stroke="#0078d4"
       stroke-width="2"
       stroke-linejoin="round"
       stroke-miterlimit="10"
       fill="none"
       id="rect22" />
    <text
       font-family="'Segoe UI', 'Segoe UI_MSFontService', sans-serif"
       font-weight="400"
       font-size="27px"
       transform="translate(952.301,429)"
       id="text24">Estimate</text>
    <text
       font-family="'Segoe UI', 'Segoe UI_MSFontService', sans-serif"
       font-weight="400"
       font-size="27px"
       transform="translate(961.041,461)"
       id="text26">project</text>
    <rect
       x="876"
       y="555"
       width="252"
       height="154"
       fill="#ffffff"
       id="rect28" />
    <path
       d="m 907.5,555 v 154 m 189,-154 v 154"
       stroke="#0078d4"
       stroke-width="2"
       stroke-linejoin="round"
       stroke-miterlimit="10"
       fill="none"
       fill-rule="evenodd"
       id="path30" />
    <rect
       x="876"
       y="555"
       width="252"
       height="154"
       stroke="#0078d4"
       stroke-width="2"
       stroke-linejoin="round"
       stroke-miterlimit="10"
       fill="none"
       id="rect32" />
    <text
       font-family="'Segoe UI', 'Segoe UI_MSFontService', sans-serif"
       font-weight="400"
       font-size="27px"
       transform="translate(960.802,578)"
       id="text34">Review</text>
    <text
       font-family="'Segoe UI', 'Segoe UI_MSFontService', sans-serif"
       font-weight="400"
       font-size="27px"
       transform="translate(979.602,610)"
       id="text36">and</text>
    <text
       font-family="'Segoe UI', 'Segoe UI_MSFontService', sans-serif"
       font-weight="400"
       font-size="27px"
       transform="translate(953.689,642)"
       id="text38">approve</text>
    <text
       font-family="'Segoe UI', 'Segoe UI_MSFontService', sans-serif"
       font-weight="400"
       font-size="27px"
       transform="translate(960.696,674)"
       id="text40">project</text>
    <text
       font-family="'Segoe UI', 'Segoe UI_MSFontService', sans-serif"
       font-weight="400"
       font-size="27px"
       transform="translate(946.036,706)"
       id="text42">estimates</text>
    <path
       d="m 876,1239 126,-82 126,82 -126,82 z"
       stroke="#0078d4"
       stroke-width="2"
       stroke-linejoin="round"
       stroke-miterlimit="10"
       fill="#ffffff"
       fill-rule="evenodd"
       id="path44" />
    <text
       font-family="'Segoe UI', 'Segoe UI_MSFontService', sans-serif"
       font-weight="400"
       font-size="24px"
       transform="translate(968.099,1219)"
       id="text46">Needs</text>
    <text
       font-family="'Segoe UI', 'Segoe UI_MSFontService', sans-serif"
       font-weight="400"
       font-size="24px"
       transform="translate(969.172,1248)"
       id="text48">correc</text>
    <text
       font-family="'Segoe UI', 'Segoe UI_MSFontService', sans-serif"
       font-weight="400"
       font-size="24px"
       transform="translate(975.599,1277)"
       id="text50">tion?</text>
    <rect
       x="876"
       y="152"
       width="252"
       height="153"
       stroke="#00569b"
       stroke-width="2"
       stroke-linejoin="round"
       stroke-miterlimit="10"
       fill="#0078d4"
       id="rect52" />
    <text
       fill="#ffffff"
       font-family="'Segoe UI', 'Segoe UI_MSFontService', sans-serif"
       font-weight="400"
       font-size="27px"
       transform="translate(941.469,222)"
       id="text54">Recognize</text>
    <text
       fill="#ffffff"
       font-family="'Segoe UI', 'Segoe UI_MSFontService', sans-serif"
       font-weight="400"
       font-size="27px"
       transform="translate(910.029,254)"
       id="text56">project revenue</text>
    <rect
       x="876"
       y="978"
       width="252"
       height="153"
       fill="#ffffff"
       id="rect58" />
    <path
       d="m 907.5,978 v 153 m 189,-153 v 153"
       stroke="#0078d4"
       stroke-width="2"
       stroke-linejoin="round"
       stroke-miterlimit="10"
       fill="none"
       fill-rule="evenodd"
       id="path60" />
    <rect
       x="876"
       y="978"
       width="252"
       height="153"
       stroke="#0078d4"
       stroke-width="2"
       stroke-linejoin="round"
       stroke-miterlimit="10"
       fill="none"
       id="rect62" />
    <text
       font-family="'Segoe UI', 'Segoe UI_MSFontService', sans-serif"
       font-weight="400"
       font-size="27px"
       transform="translate(961.602,1048)"
       id="text64">Accrue</text>
    <text
       font-family="'Segoe UI', 'Segoe UI_MSFontService', sans-serif"
       font-weight="400"
       font-size="27px"
       transform="translate(954.769,1080)"
       id="text66">revenue</text>
    <rect
       x="1254"
       y="1123"
       width="252"
       height="153"
       fill="#ffffff"
       id="rect68" />
    <path
       d="m 1285.5,1123 v 153 m 189,-153 v 153"
       stroke="#0078d4"
       stroke-width="2"
       stroke-linejoin="round"
       stroke-miterlimit="10"
       fill="none"
       fill-rule="evenodd"
       id="path70" />
    <rect
       x="1254"
       y="1123"
       width="252"
       height="153"
       stroke="#0078d4"
       stroke-width="2"
       stroke-linejoin="round"
       stroke-miterlimit="10"
       fill="none"
       id="rect72" />
    <text
       font-family="'Segoe UI', 'Segoe UI_MSFontService', sans-serif"
       font-weight="400"
       font-size="27px"
       transform="translate(1334.38,1178)"
       id="text74">Reverse</text>
    <text
       font-family="'Segoe UI', 'Segoe UI_MSFontService', sans-serif"
       font-weight="400"
       font-size="27px"
       transform="translate(1333.6,1210)"
       id="text76">accrued</text>
    <text
       font-family="'Segoe UI', 'Segoe UI_MSFontService', sans-serif"
       font-weight="400"
       font-size="27px"
       transform="translate(1332.77,1242)"
       id="text78">revenue</text>
    <rect
       x="1254"
       y="1323"
       width="252"
       height="153"
       fill="#ffffff"
       id="rect80" />
    <path
       d="m 1285.5,1323 v 153 m 189,-153 v 153"
       stroke="#0078d4"
       stroke-width="2"
       stroke-linejoin="round"
       stroke-miterlimit="10"
       fill="none"
       fill-rule="evenodd"
       id="path82" />
    <rect
       x="1254"
       y="1323"
       width="252"
       height="153"
       stroke="#0078d4"
       stroke-width="2"
       stroke-linejoin="round"
       stroke-miterlimit="10"
       fill="none"
       id="rect84" />
    <text
       font-family="'Segoe UI', 'Segoe UI_MSFontService', sans-serif"
       font-weight="400"
       font-size="27px"
       transform="translate(1323.89,1394)"
       id="text86">Reconcile</text>
    <text
       font-family="'Segoe UI', 'Segoe UI_MSFontService', sans-serif"
       font-weight="400"
       font-size="27px"
       transform="translate(1332.77,1426)"
       id="text88">revenue</text>
    <path
       d="m 1274,1561 c 0,-19.88 16.12,-36 36,-36 h 139 c 19.88,0 36,16.12 36,36 v 0 c 0,19.88 -16.12,36 -36,36 h -139 c -19.88,0 -36,-16.12 -36,-36 z"
       stroke="#0078d4"
       stroke-width="2"
       stroke-linejoin="round"
       stroke-miterlimit="10"
       fill="#ffffff"
       fill-rule="evenodd"
       id="path90" />
    <text
       font-family="'Segoe UI', 'Segoe UI_MSFontService', sans-serif"
       font-weight="400"
       font-size="27px"
       transform="translate(1357.6,1571)"
       id="text92">End</text>
    <path
       d="m 1381,1476 v 41.7 h -2 V 1476 Z m 3,40.36 -4,8 -4,-8 z"
       fill="#0078d4"
       id="path94" />
    <path
       d="M 876,830.5 1002,765 1128,830.5 1002,896 Z"
       stroke="#0078d4"
       stroke-width="2"
       stroke-linejoin="round"
       stroke-miterlimit="10"
       fill="#ffffff"
       fill-rule="evenodd"
       id="path96" />
    <text
       font-family="'Segoe UI', 'Segoe UI_MSFontService', sans-serif"
       font-weight="400"
       font-size="24px"
       transform="translate(993.512,810)"
       id="text98">Is</text>
    <text
       font-family="'Segoe UI', 'Segoe UI_MSFontService', sans-serif"
       font-weight="400"
       font-size="24px"
       transform="translate(970.506,839)"
       id="text100">appro</text>
    <text
       font-family="'Segoe UI', 'Segoe UI_MSFontService', sans-serif"
       font-weight="400"
       font-size="24px"
       transform="translate(977.332,868)"
       id="text102">ved?</text>
    <rect
       x="280"
       y="795"
       width="252"
       height="153"
       stroke="#00569b"
       stroke-width="2"
       stroke-linejoin="round"
       stroke-miterlimit="10"
       fill="#0078d4"
       id="rect104" />
    <text
       fill="#ffffff"
       font-family="'Segoe UI', 'Segoe UI_MSFontService', sans-serif"
       font-weight="400"
       font-size="27px"
       transform="translate(313.65,865)"
       id="text106">Manage project</text>
    <text
       fill="#ffffff"
       font-family="'Segoe UI', 'Segoe UI_MSFontService', sans-serif"
       font-weight="400"
       font-size="27px"
       transform="translate(332.723,897)"
       id="text108">supply chain</text>
    <rect
       x="280"
       y="382"
       width="252"
       height="153"
       stroke="#00569b"
       stroke-width="2"
       stroke-linejoin="round"
       stroke-miterlimit="10"
       fill="#0078d4"
       id="rect110" />
    <text
       fill="#ffffff"
       font-family="'Segoe UI', 'Segoe UI_MSFontService', sans-serif"
       font-weight="400"
       font-size="27px"
       transform="translate(320.726,453)"
       id="text112">Deliver project</text>
    <text
       fill="#ffffff"
       font-family="'Segoe UI', 'Segoe UI_MSFontService', sans-serif"
       font-weight="400"
       font-size="27px"
       transform="translate(377.513,485)"
       id="text114">work</text>
    <rect
       x="280"
       y="588"
       width="252"
       height="154"
       stroke="#00569b"
       stroke-width="2"
       stroke-linejoin="round"
       stroke-miterlimit="10"
       fill="#0078d4"
       id="rect116" />
    <text
       fill="#ffffff"
       font-family="'Segoe UI', 'Segoe UI_MSFontService', sans-serif"
       font-weight="400"
       font-size="27px"
       transform="translate(315.16,659)"
       id="text118">Capture project</text>
    <text
       fill="#ffffff"
       font-family="'Segoe UI', 'Segoe UI_MSFontService', sans-serif"
       font-weight="400"
       font-size="27px"
       transform="translate(352.473,691)"
       id="text120">expenses</text>
    <rect
       x="1635"
       y="441"
       width="252"
       height="145"
       stroke="#000000"
       stroke-width="2"
       stroke-linejoin="round"
       stroke-miterlimit="10"
       fill="#a0a0a0"
       id="rect122" />
    <text
       font-family="'Segoe UI', 'Segoe UI_MSFontService', sans-serif"
       font-weight="400"
       font-size="27px"
       transform="translate(1668.58,523)"
       id="text124">Project to profit</text>
    <path
       d="m 245.5,458 h 27.425 v 3 H 245.5 Z m 25.925,-3 9,4.5 -9,4.5 z"
       fill="#0078d4"
       id="path126" />
    <path
       d="m 0,-1.5 h 26.2607 c 0.8284,0 1.5,0.671573 1.5,1.5 v 436.793 l -1.5,-1.5 h 18.7607 v 3 H 26.2607 c -0.8284,0 -1.5,-0.671 -1.5,-1.5 V 0 l 1.5,1.5 H 0 Z m 43.5214,433.793 9,4.5 -9,4.5 z"
       fill="#0078d4"
       transform="matrix(1,0,0,-1,532.5,665.293)"
       id="path128" />
    <path
       d="m 0,-1.5 h 26.2607 c 0.8284,0 1.5,0.671573 1.5,1.5 v 643.187 l -1.5,-1.5 h 18.7607 v 3 H 26.2607 c -0.8284,0 -1.5,-0.672 -1.5,-1.5 V 0 l 1.5,1.5 H 0 Z m 43.5214,640.187 9,4.5 -9,4.5 z"
       fill="#0078d4"
       transform="matrix(1,0,0,-1,532.5,871.687)"
       id="path130" />
    <path
       d="m 1004,305.49 0.3,46.048 -3,0.02 -0.3,-46.048 z m 3.29,44.529 -4.44,9.029 -4.56,-8.97 z"
       fill="#0078d4"
       id="path132" />
    <path
       d="M 1.49995,-0.0120154 1.78833,35.9873 -1.21158,36.0114 -1.49995,0.0120154 Z M 4.77621,34.4633 0.348451,43.4991 -4.2235,34.5354 Z"
       fill="#0078d4"
       transform="matrix(-1,0,0,1,1002.85,512.5)"
       id="path134" />
    <path
       d="m 1004,709.5 v 48.986 h -3 V 709.5 Z m 3,47.486 -4.5,9 -4.5,-9 z"
       fill="#0078d4"
       id="path136" />
    <path
       d="m 1004,1131.5 v 18.82 h -3 v -18.82 z m 3,17.32 -4.5,9 -4.5,-9 z"
       fill="#0078d4"
       id="path138" />
    <path
       d="m 1004,896.5 v 74.458 h -3 V 896.5 Z m 3,72.958 -4.5,9 -4.5,-9 z"
       fill="#0078d4"
       id="path140" />
    <path
       d="m 1128.5,829 h 285.63 c 0.83,0 1.5,0.672 1.5,1.5 v 1.164 l -1.5,-1.5 h 278.13 v 3 h -278.13 c -0.83,0 -1.5,-0.672 -1.5,-1.5 V 830.5 l 1.5,1.5 H 1128.5 Z m 562.26,-1.836 9,4.5 -9,4.5 z"
       fill="#0078d4"
       id="path142" />
    <path
       d="m 0,-1.5 h 63 c 0.8284,0 1.5,0.671573 1.5,1.5 v 39.5968 l -1.5,-1.5 h 55.5 v 3 H 63 c -0.8284,0 -1.5,-0.6715 -1.5,-1.5 V 0 L 63,1.5 H 0 Z m 117,36.5968 9,4.5 -9,4.5 z"
       fill="#0078d4"
       transform="matrix(1,0,0,-1,1128.5,1240.1)"
       id="path144" />
    <path
       d="m 0,-1.5 h 78.6891 c 0.8285,0 1.5,0.671573 1.5,1.5 v 244.5 h -3 V 0 l 1.5,1.5 H 0 Z m 83.1891,244.5 -4.5,9 -4.5,-9 z"
       fill="#0078d4"
       transform="matrix(0,1,1,0,1002.5,1321.5)"
       id="path146" />
    <path
       d="M 0.0206886,-1.49986 126.167,0.240166 126.126,3.23988 -0.0206886,1.49986 Z M 124.708,-2.78024 l 8.937,4.6237 -9.061,4.37544 z"
       fill="#0078d4"
       transform="matrix(-1,0,0,1,1640.15,1398.5)"
       id="path148" />
    <path
       d="m 1890.06,836.045 h 23.99 l -1.5,1.5 V 632.5 l 1.5,1.5 H 1136 v -3 h 778.05 c 0.83,0 1.5,0.672 1.5,1.5 v 205.045 c 0,0.829 -0.67,1.5 -1.5,1.5 h -23.99 z M 1137.5,637 l -9,-4.5 9,-4.5 z"
       fill="#0078d4"
       id="path150" />
    <text
       font-family="'Segoe UI', 'Segoe UI_MSFontService', sans-serif"
       font-weight="400"
       font-size="24px"
       transform="translate(1138.26,822)"
       id="text152">No</text>
    <text
       font-family="'Segoe UI', 'Segoe UI_MSFontService', sans-serif"
       font-weight="400"
       font-size="24px"
       transform="translate(1142.69,1227)"
       id="text154">Yes</text>
    <text
       font-family="'Segoe UI', 'Segoe UI_MSFontService', sans-serif"
       font-weight="400"
       font-size="24px"
       transform="translate(1021.27,947)"
       id="text156">Yes</text>
    <text
       font-family="'Segoe UI', 'Segoe UI_MSFontService', sans-serif"
       font-weight="400"
       font-size="24px"
       transform="translate(1013.51,1393)"
       id="text158">No</text>
    <path
       d="m 1506.5,1199 h 266.3 c 0.83,0 1.5,0.67 1.5,1.5 v 125.14 h -3 V 1200.5 l 1.5,1.5 h -266.3 z m 270.8,125.14 -4.5,9 -4.5,-9 z"
       fill="#0078d4"
       id="path160" />
    <path
       d="m 0,-1.5 h 129.748 c 0.828,0 1.5,0.671573 1.5,1.5 v 133.102 h -3 V 0 l 1.5,1.5 H 0 Z m 134.248,133.102 -4.5,9 -4.5,-9 z"
       fill="#0078d4"
       transform="matrix(0,1,1,0,140.5,535.5)"
       id="path162" />
    <path
       d="m 0,-1.5 h 336.141 c 0.829,0 1.5,0.671573 1.5,1.5 v 133.102 h -3 V 0 l 1.5,1.5 H 0 Z m 340.641,133.102 -4.5,9 -4.5,-9 z"
       fill="#0078d4"
       transform="matrix(0,1,1,0,140.5,535.5)"
       id="path164" />
    <rect
       x="34"
       y="152"
       width="211"
       height="153"
       stroke="#000000"
       stroke-width="2"
       stroke-linejoin="round"
       stroke-miterlimit="10"
       fill="#a0a0a0"
       id="rect166" />
    <text
       font-family="'Segoe UI', 'Segoe UI_MSFontService', sans-serif"
       font-weight="400"
       font-size="27px"
       transform="translate(82.6475,222)"
       id="text168">Record to</text>
    <text
       font-family="'Segoe UI', 'Segoe UI_MSFontService', sans-serif"
       font-weight="400"
       font-size="27px"
       transform="translate(102.794,254)"
       id="text170">report</text>
    <rect
       x="285"
       y="152"
       width="252"
       height="153"
       stroke="#00569b"
       stroke-width="2"
       stroke-linejoin="round"
       stroke-miterlimit="10"
       fill="#0078d4"
       id="rect172" />
    <text
       fill="#ffffff"
       font-family="'Segoe UI', 'Segoe UI_MSFontService', sans-serif"
       font-weight="400"
       font-size="27px"
       transform="translate(331.481,190)"
       id="text174">Define ledger</text>
    <text
       fill="#ffffff"
       font-family="'Segoe UI', 'Segoe UI_MSFontService', sans-serif"
       font-weight="400"
       font-size="27px"
       transform="translate(333.074,222)"
       id="text176">structure and</text>
    <text
       fill="#ffffff"
       font-family="'Segoe UI', 'Segoe UI_MSFontService', sans-serif"
       font-weight="400"
       font-size="27px"
       transform="translate(360.994,254)"
       id="text178">currency</text>
    <text
       fill="#ffffff"
       font-family="'Segoe UI', 'Segoe UI_MSFontService', sans-serif"
       font-weight="400"
       font-size="27px"
       transform="translate(366.814,286)"
       id="text180">policies</text>
    <path
       d="m 245.5,227 h 32.389 v 3 H 245.5 Z m 30.889,-3 9,4.5 -9,4.5 z"
       fill="#0078d4"
       id="path182" />
    <path
       d="m 537.5,227 h 40.264 v 3 H 537.5 Z m 38.764,-3 9,4.5 -9,4.5 z"
       fill="#0078d4"
       id="path184" />
    <path
       d="m 0,-1.5 h 26.2607 c 0.8284,0 1.5,0.671573 1.5,1.5 v 230.4 l -1.5,-1.5 h 18.7607 v 3 H 26.2607 c -0.8284,0 -1.5,-0.672 -1.5,-1.5 V 0 l 1.5,1.5 H 0 Z m 43.5214,227.4 9,4.5 -9,4.5 z"
       fill="#0078d4"
       transform="matrix(1,0,0,-1,532.5,458.9)"
       id="path186" />
    <path
       d="M 31.5001,69.0001 H 7.50007 l 0.5,-0.5 V 228.335 l -0.5,-0.5 H 27.3731 v 1 H 7.50007 c -0.27615,0 -0.5,-0.224 -0.5,-0.5 V 68.5001 c 0,-0.2762 0.22385,-0.5 0.5,-0.5 H 31.5001 Z m -5.4603,155.3349 8,4 -8,4 z"
       fill="#0078d4"
       id="path188" />
    <path
       d="M 31.5001,69.0001 H 7.50005 l 0.5,-0.5 V 458.735 l -0.5,-0.5 H 27.5802 v 1 H 7.50005 c -0.27614,0 -0.5,-0.224 -0.5,-0.5 V 68.5001 c 0,-0.2762 0.22386,-0.5 0.5,-0.5 H 31.5001 Z m -5.2533,385.7349 8,4 -8,4 z"
       fill="#0078d4"
       id="path190" />
    <rect
       x="585"
       y="152"
       width="252"
       height="153"
       stroke="#00569b"
       stroke-width="2"
       stroke-linejoin="round"
       stroke-miterlimit="10"
       fill="#0078d4"
       id="rect192" />
    <text
       fill="#ffffff"
       font-family="'Segoe UI', 'Segoe UI_MSFontService', sans-serif"
       font-weight="400"
       font-size="27px"
       transform="translate(621.763,222)"
       id="text194">Process project</text>
    <text
       fill="#ffffff"
       font-family="'Segoe UI', 'Segoe UI_MSFontService', sans-serif"
       font-weight="400"
       font-size="27px"
       transform="translate(663.737,254)"
       id="text196">invoices</text>
    <path
       d="m 837.5,227 h 19.47 c 0.828,0 1.5,0.672 1.5,1.5 v 1.333 l -1.5,-1.5 h 11.969 v 3 H 856.97 c -0.829,0 -1.5,-0.671 -1.5,-1.5 V 228.5 l 1.5,1.5 H 837.5 Z m 29.939,-1.667 9,4.5 -9,4.5 z"
       fill="#0078d4"
       id="path198" />
    <path
       d="m 1766,586.478 2.49,166.868 -3,0.045 -2.49,-166.869 z m 5.47,165.323 -4.37,9.066 -4.63,-8.931 z"
       fill="#0078d4"
       id="path200" />
    <rect
       x="1637"
       y="760"
       width="252"
       height="154"
       stroke="#00569b"
       stroke-width="2"
       stroke-linejoin="round"
       stroke-miterlimit="10"
       fill="#0078d4"
       id="rect202" />
    <text
       fill="#ffffff"
       font-family="'Segoe UI', 'Segoe UI_MSFontService', sans-serif"
       font-weight="400"
       font-size="27px"
       transform="translate(1731.17,799)"
       id="text204">Make</text>
    <text
       fill="#ffffff"
       font-family="'Segoe UI', 'Segoe UI_MSFontService', sans-serif"
       font-weight="400"
       font-size="27px"
       transform="translate(1675.59,831)"
       id="text206">adjustments to</text>
    <text
       fill="#ffffff"
       font-family="'Segoe UI', 'Segoe UI_MSFontService', sans-serif"
       font-weight="400"
       font-size="27px"
       transform="translate(1722.25,863)"
       id="text208">project</text>
    <text
       fill="#ffffff"
       font-family="'Segoe UI', 'Segoe UI_MSFontService', sans-serif"
       font-weight="400"
       font-size="27px"
       transform="translate(1692.41,895)"
       id="text210">transactions</text>
    <rect
       x="1646"
       y="1332"
       width="252"
       height="153"
       stroke="#00569b"
       stroke-width="2"
       stroke-linejoin="round"
       stroke-miterlimit="10"
       fill="#0078d4"
       id="rect212" />
    <text
       fill="#ffffff"
       font-family="'Segoe UI', 'Segoe UI_MSFontService', sans-serif"
       font-weight="400"
       font-size="27px"
       transform="translate(1678.7,1403)"
       id="text214">Record financial</text>
    <text
       fill="#ffffff"
       font-family="'Segoe UI', 'Segoe UI_MSFontService', sans-serif"
       font-weight="400"
       font-size="27px"
       transform="translate(1701.15,1435)"
       id="text216">transactions</text>
    <rect
       x="1643"
       y="991"
       width="252"
       height="153"
       stroke="#000000"
       stroke-width="2"
       stroke-linejoin="round"
       stroke-miterlimit="10"
       fill="#a0a0a0"
       id="rect218" />
    <text
       font-family="'Segoe UI', 'Segoe UI_MSFontService', sans-serif"
       font-weight="400"
       font-size="27px"
       transform="translate(1712.04,1062)"
       id="text220">Record to</text>
    <text
       font-family="'Segoe UI', 'Segoe UI_MSFontService', sans-serif"
       font-weight="400"
       font-size="27px"
       transform="translate(1732.19,1094)"
       id="text222">report</text>
    <path
       d="m 1771,1144.47 3.05,180.4 -3,0.05 -3.05,-180.39 z m 6.02,178.85 -4.35,9.07 -4.65,-8.92 z"
       fill="#0078d4"
       id="path224" />
  </g>
</svg>
