<?xml version="1.0"?>
<svg xmlns="http://www.w3.org/2000/svg" xmlns:xlink="http://www.w3.org/1999/xlink" xmlns:ev="http://www.w3.org/2001/xml-events"    viewBox="47 31 493 626"    xml:space="preserve" color-interpolation-filters="sRGB" class="st10" width="1233" height="1565">
<rect x="0" y="0" width="1233" height="1565" fill="#ffffff" />
	<style type="text/css"><![CDATA[
		.st1 {fill:#ffffff;stroke:#0078d4;stroke-linecap:round;stroke-linejoin:round;stroke-width:0.24}
		.st2 {fill:#000000;font-family:Calibri;font-size:1.00001em}
		.st3 {fill:#0078d4;stroke:none;stroke-linecap:round;stroke-linejoin:round;stroke-width:0.24}
		.st4 {fill:#ffffff;font-family:Calibri;font-size:1.00001em}
		.st5 {font-size:1em}
		.st6 {fill:#ffffff}
		.st7 {stroke:#0078d4;stroke-linecap:round;stroke-linejoin:round;stroke-width:0.24}
		.st8 {marker-end:url(#mrkr13-44);stroke:#0078d4;stroke-linecap:round;stroke-linejoin:round;stroke-width:0.75}
		.st9 {fill:#0078d4;fill-opacity:1;stroke:#0078d4;stroke-opacity:1;stroke-width:0.22935779816514}
		.st10 {fill:none;fill-rule:evenodd;font-size:12px;overflow:visible;stroke-linecap:square;stroke-miterlimit:3}
	]]></style><style> a { pointer-events: none; } </style><style>a.rules_svg_anchor g:hover { opacity:0.8; cursor:pointer; }</style>
	<defs id="Markers">
		<g id="lend13">
			<path d="M 3 1 L 0 0 L 3 -1 L 3 1 " style="stroke:none" />
		</g>
		<marker id="mrkr13-44" class="st9" refX="-13.08" orient="auto" markerUnits="strokeWidth" overflow="visible">
			<use xlink:href="#lend13" transform="scale(-4.36,-4.36) " />
		</marker>
	</defs>
	<g>
		
		<g id="shape1-1" transform="translate(47.25,-711)">
			
			<desc>Start</desc>
			<path d="M18 792 L67.5 792 A18 18 -180 0 0 67.5 756 L18 756 A18 18 -180 1 0 18 792 Z" class="st1" />
			<text x="31.01" y="777.6" class="st2">Start</text>
		</g>
		<a id="978846c2-de55-4cab-9eb0-7c9a398c220e" class="rules_svg_anchor rules_svg_shape"   href="/lms/chart?onclick=b3BlbkNoYXJ0Q29udGV4dE1lbnUoZXZlbnQsJ3cxMjVkNTIzNTk2NWMxNzM3MXY0MDc4JywyMzEyMCwgMSwgMSwgdGhpcywgd2luZG93LmZyYW1lRWxlbWVudCk=&amp;navigate=true&amp;details=Description">
			<g id="shape2-4" transform="translate(202.5,-697.5)">
				
				<desc>80.60 Analyze project performance</desc>
				<rect x="0" y="729" width="126" height="63" class="st3" />
				<text x="10.29" y="756.9" class="st4">80.60 Analyze project <tspan x="31.34" dy="1.2em" class="st5">performance</tspan>
				</text>
			</g>
		</a>
		<a id="25bda2ba-329f-47cf-91aa-4f67fe07d105" class="rules_svg_anchor rules_svg_shape"   href="/lms/chart?onclick=b3BlbkNoYXJ0Q29udGV4dE1lbnUoZXZlbnQsJ3cxMjVkNTIzNTk2NWMxNzM3M3Y0MDc4JywyMzEyMSwgMSwgMSwgdGhpcywgd2luZG93LmZyYW1lRWxlbWVudCk=&amp;navigate=true&amp;details=Description">
			<g id="shape3-8" transform="translate(202.5,-585)">
				
				<desc>80.60.020 Monitor project status</desc>
				<path d="M0 792 L126 792 L126 729 L0 729 L0 792 Z" class="st6" />
				<path d="M0 792 L126 792 L126 729 L0 729 L0 792" class="st7" />
				<path d="M9 792 L9 729" class="st7" />
				<path d="M117 792 L117 729" class="st7" />
				<text x="17.24" y="756.9" class="st2">80.60.020 Monitor <tspan x="29.53" dy="1.2em" class="st5">project status</tspan>
				</text>
			</g>
		</a>
		<a id="9bb1e8fc-524c-4942-a2d1-73219b67272f" class="rules_svg_anchor rules_svg_shape"   href="/lms/chart?onclick=b3BlbkNoYXJ0Q29udGV4dE1lbnUoZXZlbnQsJ3cxMjVkNTIzNTk2NWMxNzM3NHY0MDc4JywyMzEyMiwgMSwgMSwgdGhpcywgd2luZG93LmZyYW1lRWxlbWVudCk=&amp;navigate=true&amp;details=Description">
			<g id="shape4-15" transform="translate(202.5,-472.5)">
				
				<desc>80.60.030 Analyze project metrics</desc>
				<path d="M0 792 L126 792 L126 729 L0 729 L0 792 Z" class="st6" />
				<path d="M0 792 L126 792 L126 729 L0 729 L0 792" class="st7" />
				<path d="M9 792 L9 729" class="st7" />
				<path d="M117 792 L117 729" class="st7" />
				<text x="18.38" y="756.9" class="st2">80.60.030 Analyze <tspan x="26.13" dy="1.2em" class="st5">project metrics</tspan>
				</text>
			</g>
		</a>
		<a id="372c61c0-1f38-44dc-9c54-1d4bf6584537" class="rules_svg_anchor rules_svg_shape"   href="/lms/chart?onclick=b3BlbkNoYXJ0Q29udGV4dE1lbnUoZXZlbnQsJ3cxMjVkNTIzNTk2NWMxMDUzNDl2NDA3OCcsMjMxMjMsIDEsIDEsIHRoaXMsIHdpbmRvdy5mcmFtZUVsZW1lbnQp&amp;navigate=true&amp;details=Description">
			<g id="shape5-22" transform="translate(202.5,-360)">
				
				<desc>80.60.100 Monitor project risks</desc>
				<path d="M0 792 L126 792 L126 729 L0 729 L0 792 Z" class="st6" />
				<path d="M0 792 L126 792 L126 729 L0 729 L0 792" class="st7" />
				<path d="M9 792 L9 729" class="st7" />
				<path d="M117 792 L117 729" class="st7" />
				<text x="17.24" y="756.9" class="st2">80.60.100 Monitor <tspan x="33.38" dy="1.2em" class="st5">project risks</tspan>
				</text>
			</g>
		</a>
		<a id="b93b6f68-bffa-47ce-a76a-4dd2f37031c6" class="rules_svg_anchor rules_svg_shape"   href="/lms/chart?onclick=b3BlbkNoYXJ0Q29udGV4dE1lbnUoZXZlbnQsJ3cxMjVkNTIzNTk2NWMxMDUzNTB2NDA3OCcsMjMxMjQsIDEsIDEsIHRoaXMsIHdpbmRvdy5mcmFtZUVsZW1lbnQp&amp;navigate=true&amp;details=Description">
			<g id="shape6-29" transform="translate(202.5,-247.5)">
				
				<desc>80.60.200 Manage project quality</desc>
				<path d="M0 792 L126 792 L126 729 L0 729 L0 792 Z" class="st6" />
				<path d="M0 792 L126 792 L126 729 L0 729 L0 792" class="st7" />
				<path d="M9 792 L9 729" class="st7" />
				<path d="M117 792 L117 729" class="st7" />
				<text x="17.49" y="756.9" class="st2">80.60.200 Manage <tspan x="27.61" dy="1.2em" class="st5">project quality</tspan>
				</text>
			</g>
		</a>
		<g id="shape7-36" transform="translate(454.5,-148.5)">
			
			<desc>End</desc>
			<path d="M18 792 L67.5 792 A18 18 -180 0 0 67.5 756 L18 756 A18 18 -180 1 0 18 792 Z" class="st1" />
			<text x="33.52" y="777.6" class="st2">End</text>
		</g>
		<g id="shape8-39" transform="translate(132.75,-720)">
			
			<path d="M0 783 L59.94 783" class="st8" />
		</g>
		<g id="shape9-45" transform="translate(256.5,-697.5)">
			
			<path d="M9 792 L9 831.69" class="st8" />
		</g>
		<g id="shape10-50" transform="translate(256.5,-585)">
			
			<path d="M9 792 L9 831.69" class="st8" />
		</g>
		<g id="shape11-55" transform="translate(256.5,-472.5)">
			
			<path d="M9 792 L9 831.69" class="st8" />
		</g>
		<g id="shape12-60" transform="translate(256.5,-360)">
			
			<path d="M9 792 L9 831.69" class="st8" />
		</g>
		<g id="shape13-65" transform="translate(328.5,-157.5)">
			
			<path d="M0 783 L116.19 783" class="st8" />
		</g>
		<a id="a777b95a-5e35-48d2-b709-0f295d5cf52f" class="rules_svg_anchor rules_svg_shape"   href="/lms/chart?onclick=b3BlbkNoYXJ0Q29udGV4dE1lbnUoZXZlbnQsJ3cxMjVkNTIzNTk2NWMxMDUzNTF2NDA3OCcsMjMxMjUsIDEsIDEsIHRoaXMsIHdpbmRvdy5mcmFtZUVsZW1lbnQp&amp;navigate=true&amp;details=Description">
			<g id="shape14-70" transform="translate(202.5,-135)">
				
				<desc>80.60.300 Measure project progress</desc>
				<path d="M0 792 L126 792 L126 729 L0 729 L0 792 Z" class="st6" />
				<path d="M0 792 L126 792 L126 729 L0 729 L0 792" class="st7" />
				<path d="M9 792 L9 729" class="st7" />
				<path d="M117 792 L117 729" class="st7" />
				<text x="15.76" y="756.9" class="st2">80.60.300 Measure <tspan x="23.26" dy="1.2em" class="st5">project progress</tspan>
				</text>
			</g>
		</a>
		<g id="shape15-77" transform="translate(256.5,-247.5)">
			
			<path d="M9 792 L9 831.69" class="st8" />
		</g>
	</g>
</svg>
