<?xml version="1.0"?>
<svg xmlns="http://www.w3.org/2000/svg" xmlns:xlink="http://www.w3.org/1999/xlink" xmlns:ev="http://www.w3.org/2001/xml-events"    viewBox="40 40 470 581"    xml:space="preserve" color-interpolation-filters="sRGB" class="st10" width="1175" height="1453">
<rect x="0" y="0" width="1174" height="1453" fill="#ffffff" />
	<style type="text/css"><![CDATA[
		.st1 {fill:#ffffff;stroke:#0078d4;stroke-linecap:round;stroke-linejoin:round;stroke-width:0.24}
		.st2 {fill:#000000;font-family:Calibri;font-size:1.00001em}
		.st3 {fill:#0078d4;stroke:none;stroke-linecap:round;stroke-linejoin:round;stroke-width:0.24}
		.st4 {fill:#ffffff;font-family:Calibri;font-size:1.00001em}
		.st5 {font-size:1em}
		.st6 {fill:#ffffff}
		.st7 {stroke:#0078d4;stroke-linecap:round;stroke-linejoin:round;stroke-width:0.24}
		.st8 {marker-end:url(#mrkr13-23);stroke:#0078d4;stroke-linecap:round;stroke-linejoin:round;stroke-width:0.75}
		.st9 {fill:#0078d4;fill-opacity:1;stroke:#0078d4;stroke-opacity:1;stroke-width:0.22935779816514}
		.st10 {fill:none;fill-rule:evenodd;font-size:12px;overflow:visible;stroke-linecap:square;stroke-miterlimit:3}
	]]></style><style> a { pointer-events: none; } </style><style>a.rules_svg_anchor g:hover { opacity:0.8; cursor:pointer; }</style>
	<defs id="Markers">
		<g id="lend13">
			<path d="M 3 1 L 0 0 L 3 -1 L 3 1 " style="stroke:none" />
		</g>
		<marker id="mrkr13-23" class="st9" refX="-13.08" orient="auto" markerUnits="strokeWidth" overflow="visible">
			<use xlink:href="#lend13" transform="scale(-4.36,-4.36) " />
		</marker>
	</defs>
	<g>
		
		<g id="shape1-1" transform="translate(40.5,-702)">
			
			<desc>Start</desc>
			<path d="M18 792 L67.5 792 A18 18 -180 0 0 67.5 756 L18 756 A18 18 -180 1 0 18 792 Z" class="st1" />
			<text x="31.01" y="777.6" class="st2">Start</text>
		</g>
		<a id="4cb284f6-4053-4170-8a69-7bdb13b2bfd0" class="rules_svg_anchor rules_svg_shape"   href="/lms/chart?onclick=b3BlbkNoYXJ0Q29udGV4dE1lbnUoZXZlbnQsJ3cxMjVkNTIzNTk2NWMxNzMyMHY0MDc4JywyMzA4NCwgMSwgMSwgdGhpcywgd2luZG93LmZyYW1lRWxlbWVudCk=&amp;navigate=true&amp;details=Description">
			<g id="shape2-4" transform="translate(234,-688.5)">
				
				<desc>80.10 Develop project strategy</desc>
				<rect x="0" y="729" width="126" height="63" class="st3" />
				<text x="9.17" y="756.9" class="st4">80.10 Develop project <tspan x="43.14" dy="1.2em" class="st5">strategy</tspan>
				</text>
			</g>
		</a>
		<a id="50da4699-1e33-4c0e-adac-35439f549bea" class="rules_svg_anchor rules_svg_shape"   href="/lms/chart?onclick=b3BlbkNoYXJ0Q29udGV4dE1lbnUoZXZlbnQsJ3cxMjVkNTIzNTk2NWMxNzMyMXY0MDc4JywyMzA4NSwgMSwgMSwgdGhpcywgd2luZG93LmZyYW1lRWxlbWVudCk=&amp;navigate=true&amp;details=Description">
			<g id="shape3-8" transform="translate(234,-576)">
				
				<desc>80.10.010 Develop program charter</desc>
				<path d="M0 792 L126 792 L126 729 L0 729 L0 792 Z" class="st6" />
				<path d="M0 792 L126 792 L126 729 L0 729 L0 792" class="st7" />
				<path d="M9 792 L9 729" class="st7" />
				<path d="M117 792 L117 729" class="st7" />
				<text x="17.26" y="756.9" class="st2">80.10.010 Develop <tspan x="22.91" dy="1.2em" class="st5">program charter</tspan>
				</text>
			</g>
		</a>
		<g id="shape13-15" transform="translate(425.25,-171)">
			
			<desc>End</desc>
			<path d="M18 792 L67.5 792 A18 18 -180 0 0 67.5 756 L18 756 A18 18 -180 1 0 18 792 Z" class="st1" />
			<text x="33.52" y="777.6" class="st2">End</text>
		</g>
		<g id="shape15-18" transform="translate(126,-711)">
			
			<path d="M0 783 L98.19 783" class="st8" />
		</g>
		<g id="shape16-24" transform="translate(288,-688.5)">
			
			<path d="M9 792 L9 816.75 L9 831.69" class="st8" />
		</g>
		<a id="ed480437-dd69-42b9-9c71-23578d3becc3" class="rules_svg_anchor rules_svg_shape"   href="/lms/chart?onclick=b3BlbkNoYXJ0Q29udGV4dE1lbnUoZXZlbnQsJ3cxMjVkNTIzNTk2NWMxMDUzMzV2NDA3OCcsMjMwODYsIDEsIDEsIHRoaXMsIHdpbmRvdy5mcmFtZUVsZW1lbnQp&amp;navigate=true&amp;details=Description">
			<g id="shape18-29" transform="translate(234,-463.5)">
				
				<desc>80.10.200 Develop project management strategy</desc>
				<path d="M0 792 L126 792 L126 729 L0 729 L0 792 Z" class="st6" />
				<path d="M0 792 L126 792 L126 729 L0 729 L0 792" class="st7" />
				<path d="M9 792 L9 729" class="st7" />
				<path d="M117 792 L117 729" class="st7" />
				<text x="17.26" y="749.7" class="st2">80.10.200 Develop <tspan x="11.82" dy="1.2em" class="st5">project management </tspan>
					<tspan x="43.14" dy="1.2em" class="st5">strategy</tspan>
				</text>
			</g>
		</a>
		<a id="73d6fd14-cf5f-48f1-8680-5f96d1b55585" class="rules_svg_anchor rules_svg_shape"   href="/lms/chart?onclick=b3BlbkNoYXJ0Q29udGV4dE1lbnUoZXZlbnQsJ3cxMjVkNTIzNTk2NWMxMDUzMzZ2NDA3OCcsMjMwODcsIDEsIDEsIHRoaXMsIHdpbmRvdy5mcmFtZUVsZW1lbnQp&amp;navigate=true&amp;details=Description">
			<g id="shape19-37" transform="translate(234,-351)">
				
				<desc>80.10.300 Develop project governance strategy</desc>
				<path d="M0 792 L126 792 L126 729 L0 729 L0 792 Z" class="st6" />
				<path d="M0 792 L126 792 L126 729 L0 729 L0 792" class="st7" />
				<path d="M9 792 L9 729" class="st7" />
				<path d="M117 792 L117 729" class="st7" />
				<text x="17.26" y="749.7" class="st2">80.10.300 Develop <tspan x="15.79" dy="1.2em" class="st5">project governance </tspan>
					<tspan x="43.14" dy="1.2em" class="st5">strategy</tspan>
				</text>
			</g>
		</a>
		<a id="84302461-4939-4e26-90ae-87ca64803453" class="rules_svg_anchor rules_svg_shape"   href="/lms/chart?onclick=b3BlbkNoYXJ0Q29udGV4dE1lbnUoZXZlbnQsJ3cxMjVkNTIzNTk2NWMxMDUzMzd2NDA3OCcsMjMwODgsIDEsIDEsIHRoaXMsIHdpbmRvdy5mcmFtZUVsZW1lbnQp&amp;navigate=true&amp;details=Description">
			<g id="shape20-45" transform="translate(234,-238.5)">
				
				<desc>80.10.400 Develop project approval processes</desc>
				<path d="M0 792 L126 792 L126 729 L0 729 L0 792 Z" class="st6" />
				<path d="M0 792 L126 792 L126 729 L0 729 L0 792" class="st7" />
				<path d="M9 792 L9 729" class="st7" />
				<path d="M117 792 L117 729" class="st7" />
				<text x="17.26" y="749.7" class="st2">80.10.400 Develop <tspan x="22.87" dy="1.2em" class="st5">project approval </tspan>
					<tspan x="39.04" dy="1.2em" class="st5">processes</tspan>
				</text>
			</g>
		</a>
		<g id="shape21-53" transform="translate(288,-576)">
			
			<path d="M9 792 L9 831.69" class="st8" />
		</g>
		<g id="shape22-58" transform="translate(288,-463.5)">
			
			<path d="M9 792 L9 831.69" class="st8" />
		</g>
		<g id="shape23-63" transform="translate(288,-351)">
			
			<path d="M9 792 L9 831.69" class="st8" />
		</g>
		<g id="shape24-68" transform="translate(297,-238.5)">
			
			<path d="M0 792 L0 841.5 L118.44 841.5" class="st8" />
		</g>
	</g>
</svg>
