<?xml version="1.0" encoding="UTF-8" standalone="no"?>
<svg
   width="1920"
   height="1533.2207"
   overflow="hidden"
   version="1.1"
   id="svg218"
   sodipodi:docname="project-to-profit-resource-project-flow.svg"
   inkscape:version="1.2.2 (732a01da63, 2022-12-09)"
   xmlns:inkscape="http://www.inkscape.org/namespaces/inkscape"
   xmlns:sodipodi="http://sodipodi.sourceforge.net/DTD/sodipodi-0.dtd"
   xmlns="http://www.w3.org/2000/svg"
   xmlns:svg="http://www.w3.org/2000/svg">
  <defs
     id="defs222" />
  <sodipodi:namedview
     id="namedview220"
     pagecolor="#ffffff"
     bordercolor="#000000"
     borderopacity="0.25"
     inkscape:showpageshadow="2"
     inkscape:pageopacity="0.0"
     inkscape:pagecheckerboard="0"
     inkscape:deskcolor="#d1d1d1"
     showgrid="false"
     inkscape:zoom="0.43177083"
     inkscape:cx="958.84198"
     inkscape:cy="346.24849"
     inkscape:window-width="1920"
     inkscape:window-height="1010"
     inkscape:window-x="-6"
     inkscape:window-y="-6"
     inkscape:window-maximized="1"
     inkscape:current-layer="svg218" />
  <g
     id="g216"
     transform="translate(0,-215.39204)">
    <rect
       x="0"
       y="215.39204"
       width="1920"
       height="1533.2207"
       fill="#ffffff"
       id="rect2"
       style="stroke-width:0.893617" />
    <rect
       x="624"
       y="226"
       width="1023"
       height="1512"
       stroke="#0078d4"
       stroke-width="2"
       stroke-linejoin="round"
       stroke-miterlimit="10"
       fill="#d9d9d9"
       id="rect4" />
    <text
       fill="#0078d4"
       font-family="'Segoe UI', 'Segoe UI_MSFontService', sans-serif"
       font-weight="700"
       font-size="27px"
       transform="translate(652.906,275)"
       id="text6">Business process area</text>
    <path
       d="M 31,272.5 C 31,252.342 47.3416,236 67.5,236 h 139 c 20.158,0 36.5,16.342 36.5,36.5 v 0 c 0,20.158 -16.342,36.5 -36.5,36.5 H 67.5 C 47.3416,309 31,292.658 31,272.5 Z"
       stroke="#0078d4"
       stroke-width="2"
       stroke-linejoin="round"
       stroke-miterlimit="10"
       fill="none"
       fill-rule="evenodd"
       id="path8" />
    <text
       font-family="'Segoe UI', 'Segoe UI_MSFontService', sans-serif"
       font-weight="400"
       font-size="16px"
       transform="translate(120.401,279)"
       id="text10">Start</text>
    <rect
       x="31"
       y="356"
       width="212"
       height="153"
       stroke="#000000"
       stroke-width="2"
       stroke-linejoin="round"
       stroke-miterlimit="10"
       fill="#a0a0a0"
       id="rect12" />
    <text
       font-family="'Segoe UI', 'Segoe UI_MSFontService', sans-serif"
       font-weight="400"
       font-size="16px"
       transform="translate(81.9609,439)"
       id="text14">Project to profit</text>
    <path
       d="M 1,-4.48434e-6 1.00018,40.1571 h -2 L -1,4.48434e-6 Z M 4.00017,38.8237 l -3.999960026,8 -4.000039974,-8 z"
       fill="#0078d4"
       transform="matrix(-1,0,0,1,137,309)"
       id="path16" />
    <rect
       x="337"
       y="567"
       width="252"
       height="154"
       fill="#ffffff"
       id="rect18" />
    <path
       d="m 368.5,567 v 154 m 189,-154 v 154"
       stroke="#0078d4"
       stroke-width="2"
       stroke-linejoin="round"
       stroke-miterlimit="10"
       fill="none"
       fill-rule="evenodd"
       id="path20" />
    <rect
       x="337"
       y="567"
       width="252"
       height="154"
       stroke="#0078d4"
       stroke-width="2"
       stroke-linejoin="round"
       stroke-miterlimit="10"
       fill="none"
       id="rect22" />
    <text
       font-family="'Segoe UI', 'Segoe UI_MSFontService', sans-serif"
       font-weight="400"
       font-size="16px"
       transform="translate(398.406,641)"
       id="text24">Plan project scope</text>
    <text
       font-family="'Segoe UI', 'Segoe UI_MSFontService', sans-serif"
       font-weight="400"
       font-size="16px"
       transform="translate(416.212,660)"
       id="text26">and schedule</text>
    <rect
       x="33"
       y="567"
       width="212"
       height="154"
       stroke="#000000"
       stroke-width="2"
       stroke-linejoin="round"
       stroke-miterlimit="10"
       fill="#0078d4"
       id="rect28" />
    <text
       font-family="'Segoe UI', 'Segoe UI_MSFontService', sans-serif"
       font-weight="400"
       font-size="16px"
       transform="translate(83.7283,641)"
       id="text30"
       style="fill:#ffffff">Manage project</text>
    <text
       font-family="'Segoe UI', 'Segoe UI_MSFontService', sans-serif"
       font-weight="400"
       font-size="16px"
       transform="translate(69.7883,660)"
       id="text32"
       style="fill:#ffffff">scope and schedule</text>
    <rect
       x="339"
       y="842"
       width="252"
       height="153"
       fill="#ffffff"
       id="rect34" />
    <path
       d="m 370.5,842 v 153 m 189,-153 v 153"
       stroke="#0078d4"
       stroke-width="2"
       stroke-linejoin="round"
       stroke-miterlimit="10"
       fill="none"
       fill-rule="evenodd"
       id="path36" />
    <rect
       x="339"
       y="842"
       width="252"
       height="153"
       stroke="#0078d4"
       stroke-width="2"
       stroke-linejoin="round"
       stroke-miterlimit="10"
       fill="none"
       id="rect38" />
    <text
       font-family="'Segoe UI', 'Segoe UI_MSFontService', sans-serif"
       font-weight="400"
       font-size="16px"
       transform="translate(415.066,925)"
       id="text40">Define project</text>
    <rect
       x="714"
       y="841"
       width="252"
       height="153"
       fill="#ffffff"
       id="rect42" />
    <path
       d="m 745.5,841 v 153 m 189,-153 v 153"
       stroke="#0078d4"
       stroke-width="2"
       stroke-linejoin="round"
       stroke-miterlimit="10"
       fill="none"
       fill-rule="evenodd"
       id="path44" />
    <rect
       x="714"
       y="841"
       width="252"
       height="153"
       stroke="#0078d4"
       stroke-width="2"
       stroke-linejoin="round"
       stroke-miterlimit="10"
       fill="none"
       id="rect46" />
    <text
       font-family="'Segoe UI', 'Segoe UI_MSFontService', sans-serif"
       font-weight="400"
       font-size="16px"
       transform="translate(785.416,905)"
       id="text48">Define resource</text>
    <text
       font-family="'Segoe UI', 'Segoe UI_MSFontService', sans-serif"
       font-weight="400"
       font-size="16px"
       transform="translate(784.749,924)"
       id="text50">requirements at</text>
    <text
       font-family="'Segoe UI', 'Segoe UI_MSFontService', sans-serif"
       font-weight="400"
       font-size="16px"
       transform="translate(807.916,943)"
       id="text52">task level</text>
    <rect
       x="1037"
       y="1071"
       width="252"
       height="154"
       fill="#ffffff"
       id="rect54" />
    <path
       d="m 1068.5,1071 v 154 m 189,-154 v 154"
       stroke="#0078d4"
       stroke-width="2"
       stroke-linejoin="round"
       stroke-miterlimit="10"
       fill="none"
       fill-rule="evenodd"
       id="path56" />
    <rect
       x="1037"
       y="1071"
       width="252"
       height="154"
       stroke="#0078d4"
       stroke-width="2"
       stroke-linejoin="round"
       stroke-miterlimit="10"
       fill="none"
       id="rect58" />
    <text
       font-family="'Segoe UI', 'Segoe UI_MSFontService', sans-serif"
       font-weight="400"
       font-size="16px"
       transform="translate(1120.66,1135)"
       id="text60">Identify and</text>
    <text
       font-family="'Segoe UI', 'Segoe UI_MSFontService', sans-serif"
       font-weight="400"
       font-size="16px"
       transform="translate(1107.34,1154)"
       id="text62">propose project</text>
    <text
       font-family="'Segoe UI', 'Segoe UI_MSFontService', sans-serif"
       font-weight="400"
       font-size="16px"
       transform="translate(1133,1173)"
       id="text64">resource</text>
    <rect
       x="712"
       y="1070"
       width="252"
       height="153"
       fill="#ffffff"
       id="rect66" />
    <path
       d="m 743.5,1070 v 153 m 189,-153 v 153"
       stroke="#0078d4"
       stroke-width="2"
       stroke-linejoin="round"
       stroke-miterlimit="10"
       fill="none"
       fill-rule="evenodd"
       id="path68" />
    <rect
       x="712"
       y="1070"
       width="252"
       height="153"
       stroke="#0078d4"
       stroke-width="2"
       stroke-linejoin="round"
       stroke-miterlimit="10"
       fill="none"
       id="rect70" />
    <text
       font-family="'Segoe UI', 'Segoe UI_MSFontService', sans-serif"
       font-weight="400"
       font-size="16px"
       transform="translate(777.687,1153)"
       id="text72">Request resource</text>
    <rect
       x="694"
       y="356"
       width="252"
       height="153"
       stroke="#00569b"
       stroke-width="2"
       stroke-linejoin="round"
       stroke-miterlimit="10"
       fill="#0078d4"
       id="rect74" />
    <text
       font-family="'Segoe UI', 'Segoe UI_MSFontService', sans-serif"
       font-weight="400"
       font-size="16px"
       transform="translate(755.64,439)"
       id="text76"
       style="fill:#ffffff">Resource a project</text>
    <rect
       x="717"
       y="623"
       width="252"
       height="153"
       fill="#ffffff"
       id="rect78" />
    <path
       d="m 748.5,623 v 153 m 189,-153 v 153"
       stroke="#0078d4"
       stroke-width="2"
       stroke-linejoin="round"
       stroke-miterlimit="10"
       fill="none"
       fill-rule="evenodd"
       id="path80" />
    <rect
       x="717"
       y="623"
       width="252"
       height="153"
       stroke="#0078d4"
       stroke-width="2"
       stroke-linejoin="round"
       stroke-miterlimit="10"
       fill="none"
       id="rect82" />
    <text
       font-family="'Segoe UI', 'Segoe UI_MSFontService', sans-serif"
       font-weight="400"
       font-size="16px"
       transform="translate(784.421,706)"
       id="text84">Define resources</text>
    <rect
       x="1054"
       y="623"
       width="252"
       height="153"
       fill="#ffffff"
       id="rect86" />
    <path
       d="m 1085.5,623 v 153 m 189,-153 v 153"
       stroke="#0078d4"
       stroke-width="2"
       stroke-linejoin="round"
       stroke-miterlimit="10"
       fill="none"
       fill-rule="evenodd"
       id="path88" />
    <rect
       x="1054"
       y="623"
       width="252"
       height="153"
       stroke="#0078d4"
       stroke-width="2"
       stroke-linejoin="round"
       stroke-miterlimit="10"
       fill="none"
       id="rect90" />
    <text
       font-family="'Segoe UI', 'Segoe UI_MSFontService', sans-serif"
       font-weight="400"
       font-size="16px"
       transform="translate(1124.74,696)"
       id="text92">Define resource</text>
    <text
       font-family="'Segoe UI', 'Segoe UI_MSFontService', sans-serif"
       font-weight="400"
       font-size="16px"
       transform="translate(1130.17,715)"
       id="text94">characteristics</text>
    <rect
       x="1357"
       y="1077"
       width="252"
       height="153"
       fill="#ffffff"
       id="rect96" />
    <path
       d="m 1388.5,1077 v 153 m 189,-153 v 153"
       stroke="#0078d4"
       stroke-width="2"
       stroke-linejoin="round"
       stroke-miterlimit="10"
       fill="none"
       fill-rule="evenodd"
       id="path98" />
    <rect
       x="1357"
       y="1077"
       width="252"
       height="153"
       stroke="#0078d4"
       stroke-width="2"
       stroke-linejoin="round"
       stroke-miterlimit="10"
       fill="none"
       id="rect100" />
    <text
       font-family="'Segoe UI', 'Segoe UI_MSFontService', sans-serif"
       font-weight="400"
       font-size="16px"
       transform="translate(1417.29,1151)"
       id="text102">Approve and book</text>
    <text
       font-family="'Segoe UI', 'Segoe UI_MSFontService', sans-serif"
       font-weight="400"
       font-size="16px"
       transform="translate(1426.21,1170)"
       id="text104">project resource</text>
    <path
       d="m 1069,1485.5 c 0,-20.16 16.34,-36.5 36.5,-36.5 h 138 c 20.16,0 36.5,16.34 36.5,36.5 v 0 c 0,20.16 -16.34,36.5 -36.5,36.5 h -138 c -20.16,0 -36.5,-16.34 -36.5,-36.5 z"
       stroke="#0078d4"
       stroke-width="2"
       stroke-linejoin="round"
       stroke-miterlimit="10"
       fill="#ffffff"
       fill-rule="evenodd"
       id="path106" />
    <text
       font-family="'Segoe UI', 'Segoe UI_MSFontService', sans-serif"
       font-weight="400"
       font-size="16px"
       transform="translate(1161.18,1492)"
       id="text108">End</text>
    <path
       d="M 31,433 H 6.99999 l 1,-1 v 211.728 l -1,-1 H 26.4974 v 2 H 6.99999 c -0.55228,0 -1,-0.448 -1,-1 V 432 c 0,-0.552 0.44772,-1 1,-1 H 31 Z m -5.8359,206.728 8,4 -8,4 z"
       fill="#0078d4"
       id="path110" />
    <path
       d="m 552.001,431 135.955,0.089 -10e-4,2 L 551.999,433 Z m 134.624,-2.912 7.997,4.005 -8.003,3.995 z"
       fill="#0078d4"
       id="path112" />
    <path
       d="m 245,643 h 85.333 v 2 H 245 Z m 84,-3 8,4 -8,4 z"
       fill="#0078d4"
       id="path114" />
    <path
       d="m 464,720.986 1.648,114.431 -2,0.029 L 462,721.014 Z m 4.628,113.055 -3.884,8.056 -4.115,-7.941 z"
       fill="#0078d4"
       id="path116" />
    <path
       d="M 0.00699763,-0.999975 117.084,-0.180695 117.07,1.81926 -0.00699763,0.999975 Z M 115.771,-3.18995 l 7.972,4.055882 -8.027,3.943918 z"
       fill="#0078d4"
       transform="matrix(1,0,0,-1,591,918.866)"
       id="path118" />
    <path
       d="m 964.017,1146 66.203,1.15 -0.03,2 -66.207,-1.15 z m 64.923,-1.87 7.93,4.13 -8.07,3.86 z"
       fill="#0078d4"
       id="path120" />
    <path
       d="m 969,698 h 78.23 v 2 H 969 Z m 76.9,-3 8,4 -8,4 z"
       fill="#0078d4"
       id="path122" />
    <path
       d="m 1031,917 147,-66 147,66 -147,66 z"
       stroke="#0078d4"
       stroke-width="2"
       stroke-linejoin="round"
       stroke-miterlimit="10"
       fill="#ffffff"
       fill-rule="evenodd"
       id="path124" />
    <text
       font-family="'Segoe UI', 'Segoe UI_MSFontService', sans-serif"
       font-weight="400"
       font-size="15px"
       transform="translate(1143.4,905)"
       id="text126">Is resource</text>
    <text
       font-family="'Segoe UI', 'Segoe UI_MSFontService', sans-serif"
       font-weight="400"
       font-size="15px"
       transform="translate(1151.32,923)"
       id="text128">booking</text>
    <text
       font-family="'Segoe UI', 'Segoe UI_MSFontService', sans-serif"
       font-weight="400"
       font-size="15px"
       transform="translate(1139.73,940)"
       id="text130">centralized?</text>
    <path
       d="m 0,-1 h 32.5398 c 0.5523,0 1,0.447715 1,1 v 0.340892 l -1,-1 H 58.413 V 1.34089 H 32.5398 c -0.5522,0 -1,-0.447713 -1,-0.999998 V 0 l 1,1 H 0 Z m 57.0797,-2.65911 8,4.000002 -8,3.999998 z"
       fill="#0078d4"
       transform="matrix(1,0,0,-1,966,917.341)"
       id="path132" />
    <rect
       x="1357"
       y="842"
       width="252"
       height="153"
       fill="#ffffff"
       id="rect134" />
    <path
       d="m 1388.5,842 v 153 m 189,-153 v 153"
       stroke="#0078d4"
       stroke-width="2"
       stroke-linejoin="round"
       stroke-miterlimit="10"
       fill="none"
       fill-rule="evenodd"
       id="path136" />
    <rect
       x="1357"
       y="842"
       width="252"
       height="153"
       stroke="#0078d4"
       stroke-width="2"
       stroke-linejoin="round"
       stroke-miterlimit="10"
       fill="none"
       id="rect138" />
    <text
       font-family="'Segoe UI', 'Segoe UI_MSFontService', sans-serif"
       font-weight="400"
       font-size="16px"
       transform="translate(1420.78,915)"
       id="text140">Identify and book</text>
    <text
       font-family="'Segoe UI', 'Segoe UI_MSFontService', sans-serif"
       font-weight="400"
       font-size="16px"
       transform="translate(1426.64,934)"
       id="text142">project resource</text>
    <path
       d="m 0,1 h -23.9984 l 1,-1 v 567.106 l -1,-1 H 322.304 v 2 H -23.9984 c -0.5523,0 -1,-0.448 -1,-1 V 0 c 0,-0.552285 0.4477,-1 1,-1 H 0 Z m 320.97,562.106 8,4 -8,4 z"
       fill="#0078d4"
       transform="matrix(-1,0,0,1,1608.97,918)"
       id="path144" />
    <text
       font-family="'Segoe UI', 'Segoe UI_MSFontService', sans-serif"
       font-weight="400"
       font-size="16px"
       transform="translate(1397.47,939)"
       id="text146">No</text>
    <path
       d="m 694.5,433 h -24 l 0.5,-0.5 v 485.25 l -0.5,-0.5 h 37.333 v 1 H 670.5 c -0.276,0 -0.5,-0.224 -0.5,-0.5 V 432.5 c 0,-0.276 0.224,-0.5 0.5,-0.5 h 24 z m 11.999,480.75 8,4 -8,4 z"
       fill="#0078d4"
       id="path148" />
    <text
       font-family="'Segoe UI', 'Segoe UI_MSFontService', sans-serif"
       font-weight="400"
       font-size="16px"
       transform="translate(1127.64,1016)"
       id="text150">Yes</text>
    <path
       d="m 1179.23,983 v 43.38 c 0,0.56 -0.45,1 -1,1 H 838 l 1,-1 v 36.72 h -2 v -36.72 c 0,-0.55 0.448,-1 1,-1 h 340.23 l -1,1 V 983 Z m -337.23,78.77 -4,8 -4,-8 z"
       fill="#0078d4"
       id="path152" />
    <path
       d="m 1033,1350 129.5,-66 129.5,66 -129.5,66 z"
       stroke="#0078d4"
       stroke-width="2"
       stroke-linejoin="round"
       stroke-miterlimit="10"
       fill="#ffffff"
       fill-rule="evenodd"
       id="path154" />
    <text
       font-family="'Segoe UI', 'Segoe UI_MSFontService', sans-serif"
       font-weight="400"
       font-size="15px"
       transform="translate(1127.72,1337)"
       id="text156">Is</text>
    <text
       font-family="'Segoe UI', 'Segoe UI_MSFontService', sans-serif"
       font-weight="400"
       font-size="15px"
       transform="translate(1141.72,1337)"
       id="text158">resource</text>
    <text
       font-family="'Segoe UI', 'Segoe UI_MSFontService', sans-serif"
       font-weight="400"
       font-size="15px"
       transform="translate(1149.89,1355)"
       id="text160">well</text>
    <text
       font-family="'Segoe UI', 'Segoe UI_MSFontService', sans-serif"
       font-weight="400"
       font-size="15px"
       transform="translate(1130.97,1372)"
       id="text162">matched?</text>
    <path
       d="m 1164.32,1225 v 29.45 c 0,0.55 -0.45,1 -1,1 H 1163 l 1,-1 v 22.79 h -2 v -22.79 c 0,-0.55 0.45,-1 1,-1 h 0.32 l -1,1 V 1225 Z m 2.68,50.9 -4,8 -4,-8 z"
       fill="#0078d4"
       id="path164" />
    <text
       font-family="'Segoe UI', 'Segoe UI_MSFontService', sans-serif"
       font-weight="400"
       font-size="16px"
       transform="translate(1474,1340)"
       id="text166">Yes</text>
    <path
       d="M 1032.98,1350.36 H 838 c -0.552,0 -1,-0.45 -1,-1 v -119.69 h 2 v 119.69 l -1,-1 h 194.98 z M 834,1231 l 4,-8 4,8 z"
       fill="#0078d4"
       id="path168" />
    <text
       font-family="'Segoe UI', 'Segoe UI_MSFontService', sans-serif"
       font-weight="400"
       font-size="16px"
       transform="translate(927.474,1341)"
       id="text170">No</text>
    <path
       d="m 821.579,509.5 v 56.856 c 0,0.277 -0.224,0.5 -0.5,0.5 H 693.5 l 0.5,-0.5 v 133.503 l -0.5,-0.5 h 17.333 v 1 H 693.5 c -0.276,0 -0.5,-0.224 -0.5,-0.5 V 566.356 c 0,-0.276 0.224,-0.5 0.5,-0.5 h 127.579 l -0.5,0.5 V 509.5 Z M 709.5,695.859 l 8,4 -8,4 z"
       fill="#0078d4"
       id="path172" />
    <path
       d="m 1325.51,917 25.4,0.743 -0.03,0.999 -25.39,-0.742 z m 24.17,-2.795 7.88,4.232 -8.11,3.765 z"
       fill="#0078d4"
       id="path174" />
    <path
       d="m 0,0.5 h -23.9994 l 0.5,-0.5 v 331.435 l -0.5,-0.5 H 321.866 v 1 H -23.9994 c -0.2761,0 -0.5,-0.223 -0.5,-0.5 V 0 c 0,-0.276142 0.2239,-0.5 0.5,-0.5 H 0 Z m 320.533,326.935 8,4 -8,4 z"
       fill="#0078d4"
       transform="matrix(-1,0,0,1,1609.03,1154.5)"
       id="path176" />
    <path
       d="m 0,-0.5 h 190.599 c 0.276,0 0.5,0.223858 0.5,0.5 v 112.688 h -1 V 0 l 0.5,0.5 H 0 Z m 194.599,111.855 -4,8 -4,-8 z"
       fill="#0078d4"
       transform="matrix(1,0,0,-1,1292.5,1349.85)"
       id="path178" />
    <path
       d="M 0.499916,-0.00917249 1.75494,68.3916 0.755106,68.4099 -0.499916,0.00917249 Z M 5.22989,66.9943 1.37732,75.0664 -2.76876,67.1411 Z"
       fill="#0078d4"
       transform="matrix(-1,0,0,1,1179.88,776.5)"
       id="path180" />
    <rect
       x="340"
       y="356"
       width="212"
       height="153"
       stroke="#000000"
       stroke-width="2"
       stroke-linejoin="round"
       stroke-miterlimit="10"
       fill="#0078d4"
       id="rect182" />
    <text
       font-family="'Segoe UI', 'Segoe UI_MSFontService', sans-serif"
       font-weight="400"
       font-size="16px"
       transform="translate(393.991,439)"
       id="text184"
       style="fill:#ffffff">Govern project</text>
    <path
       d="M 4.75626e-4,-0.5 91.0088,-0.413428 l -10e-4,1 L -4.75626e-4,0.5 Z M 89.6787,-3.91469 97.6749,0.0929134 89.6711,4.0853 Z"
       fill="#0078d4"
       transform="matrix(1,0,0,-1,243.5,432.593)"
       id="path186" />
    <rect
       x="1663"
       y="961"
       width="252"
       height="153"
       fill="#ffffff"
       id="rect188" />
    <path
       d="m 1694.5,961 v 153 m 189,-153 v 153"
       stroke="#0078d4"
       stroke-width="2"
       stroke-linejoin="round"
       stroke-miterlimit="10"
       fill="none"
       fill-rule="evenodd"
       id="path190" />
    <rect
       x="1663"
       y="961"
       width="252"
       height="153"
       stroke="#0078d4"
       stroke-width="2"
       stroke-linejoin="round"
       stroke-miterlimit="10"
       fill="none"
       id="rect192" />
    <text
       font-family="'Segoe UI', 'Segoe UI_MSFontService', sans-serif"
       font-weight="400"
       font-size="16px"
       transform="translate(1740.28,1025)"
       id="text194">Revise project</text>
    <text
       font-family="'Segoe UI', 'Segoe UI_MSFontService', sans-serif"
       font-weight="400"
       font-size="16px"
       transform="translate(1752.86,1044)"
       id="text196">scope and</text>
    <text
       font-family="'Segoe UI', 'Segoe UI_MSFontService', sans-serif"
       font-weight="400"
       font-size="16px"
       transform="translate(1757.86,1063)"
       id="text198">schedule</text>
    <rect
       x="1685"
       y="612"
       width="212"
       height="153"
       stroke="#000000"
       stroke-width="2"
       stroke-linejoin="round"
       stroke-miterlimit="10"
       fill="#0078d4"
       id="rect200" />
    <text
       font-family="'Segoe UI', 'Segoe UI_MSFontService', sans-serif"
       font-weight="400"
       font-size="16px"
       transform="translate(1735.62,685)"
       id="text202"
       style="fill:#ffffff">Manage project</text>
    <text
       font-family="'Segoe UI', 'Segoe UI_MSFontService', sans-serif"
       font-weight="400"
       font-size="16px"
       transform="translate(1721.68,704)"
       id="text204"
       style="fill:#ffffff">scope and schedule</text>
    <path
       d="M 1664.55,1039.19 H 823.289 c -0.276,0 -0.5,-0.22 -0.5,-0.5 l 0.036,-40.526 1,10e-4 -0.036,40.525 -0.5,-0.5 h 841.261 z m -845.259,-39.798 4.209,-7.892 3.788,8.103 z"
       fill="#0078d4"
       id="path206" />
    <path
       d="M 0.499972,-0.00525917 2.4919,189.36 1.49195,189.371 -0.499972,0.00525917 Z M 5.97768,187.991 l -3.91563,8.041 -4.08393,-7.957 z"
       fill="#0078d4"
       transform="matrix(-1,0,0,1,1791.56,765.5)"
       id="path208" />
    <rect
       x="1685"
       y="355"
       width="212"
       height="153"
       stroke="#000000"
       stroke-width="2"
       stroke-linejoin="round"
       stroke-miterlimit="10"
       fill="#a0a0a0"
       id="rect210" />
    <text
       font-family="'Segoe UI', 'Segoe UI_MSFontService', sans-serif"
       font-weight="400"
       font-size="16px"
       transform="translate(1736.06,438)"
       id="text212">Project to profit</text>
    <path
       d="M 0.5,-2.0885e-4 0.54047,96.8875 l -1,4e-4 L -0.5,2.0885e-4 Z M 4.03991,95.5527 0.0432546,103.554 -3.96009,95.556 Z"
       fill="#0078d4"
       transform="matrix(-1,0,0,1,1791.54,508.5)"
       id="path214" />
  </g>
</svg>
