<svg width="1920" height="1920" xmlns="http://www.w3.org/2000/svg" xmlns:xlink="http://www.w3.org/1999/xlink" overflow="hidden"><g><rect x="0" y="0" width="1920" height="1920" fill="#FFFFFF"/><path d="M41 93.7994C41 61.3254 67.3255 35 99.7996 35L570.2 35C602.674 35 629 61.3254 629 93.7994L629 1839.2C629 1871.67 602.674 1898 570.2 1898L99.7996 1898C67.3255 1898 41 1871.67 41 1839.2Z" fill="#CBCBCB" fill-rule="evenodd"/><text font-family="Segoe UI,Segoe UI_MSFontService,sans-serif" font-weight="400" font-size="87" transform="translate(150.482 292)">Upstream</text><text font-family="Segoe UI,Segoe UI_MSFontService,sans-serif" font-weight="400" font-size="87" transform="translate(149.462 396)">processes</text><path d="M100.5 621.6C100.5 606.633 112.633 594.5 127.6 594.5L544.4 594.5C559.367 594.5 571.5 606.633 571.5 621.6L571.5 838.4C571.5 853.367 559.367 865.5 544.4 865.5L127.6 865.5C112.633 865.5 100.5 853.367 100.5 838.4Z" stroke="#000000" stroke-width="1.13333" stroke-linejoin="round" stroke-miterlimit="10" fill="#FFFFFF" fill-rule="evenodd"/><text font-family="Segoe UI,Segoe UI_MSFontService,sans-serif" font-weight="400" font-size="43" transform="translate(174.255 744)">Record to report</text><path d="M100.5 934.6C100.5 919.633 112.633 907.5 127.6 907.5L544.4 907.5C559.367 907.5 571.5 919.633 571.5 934.6L571.5 1151.4C571.5 1166.37 559.367 1178.5 544.4 1178.5L127.6 1178.5C112.633 1178.5 100.5 1166.37 100.5 1151.4Z" stroke="#000000" stroke-width="1.13333" stroke-linejoin="round" stroke-miterlimit="10" fill="#FFFFFF" fill-rule="evenodd"/><text font-family="Segoe UI,Segoe UI_MSFontService,sans-serif" font-weight="400" font-size="43" transform="translate(207.882 1057)">Order</text><text font-family="Segoe UI,Segoe UI_MSFontService,sans-serif" font-weight="400" font-size="43" transform="translate(328.282 1057)">to cash</text><path d="M100.5 1247.6C100.5 1232.63 112.633 1220.5 127.6 1220.5L544.4 1220.5C559.367 1220.5 571.5 1232.63 571.5 1247.6L571.5 1464.4C571.5 1479.37 559.367 1491.5 544.4 1491.5L127.6 1491.5C112.633 1491.5 100.5 1479.37 100.5 1464.4Z" stroke="#000000" stroke-width="1.13333" stroke-linejoin="round" stroke-miterlimit="10" fill="#FFFFFF" fill-rule="evenodd"/><text font-family="Segoe UI,Segoe UI_MSFontService,sans-serif" font-weight="400" font-size="43" transform="translate(149.962 1345)">Product and service</text><text font-family="Segoe UI,Segoe UI_MSFontService,sans-serif" font-weight="400" font-size="43" transform="translate(130.348 1396)">lifecycle management</text><path d="M100.5 1560.6C100.5 1545.63 112.633 1533.5 127.6 1533.5L544.4 1533.5C559.367 1533.5 571.5 1545.63 571.5 1560.6L571.5 1777.4C571.5 1792.37 559.367 1804.5 544.4 1804.5L127.6 1804.5C112.633 1804.5 100.5 1792.37 100.5 1777.4Z" stroke="#000000" stroke-width="1.13333" stroke-linejoin="round" stroke-miterlimit="10" fill="#FFFFFF" fill-rule="evenodd"/><text font-family="Segoe UI,Segoe UI_MSFontService,sans-serif" font-weight="400" font-size="43" transform="translate(167.295 1683)">Prospect to quote</text><path d="M673 93.7994C673 61.3254 699.326 35 731.8 35L1202.2 35C1234.67 35 1261 61.3254 1261 93.7994L1261 1839.2C1261 1871.67 1234.67 1898 1202.2 1898L731.8 1898C699.326 1898 673 1871.67 673 1839.2Z" fill="#CBCBCB" fill-rule="evenodd"/><text font-family="Segoe UI,Segoe UI_MSFontService,sans-serif" font-weight="400" font-size="87" transform="translate(783.759 292)">Project to</text><text font-family="Segoe UI,Segoe UI_MSFontService,sans-serif" font-weight="400" font-size="87" transform="translate(864.052 396)">profit</text><path d="M732.5 612.4C732.5 602.514 740.514 594.5 750.4 594.5L1185.6 594.5C1195.49 594.5 1203.5 602.514 1203.5 612.4L1203.5 755.6C1203.5 765.486 1195.49 773.5 1185.6 773.5L750.4 773.5C740.514 773.5 732.5 765.486 732.5 755.6Z" stroke="#000000" stroke-width="1.13333" stroke-linejoin="round" stroke-miterlimit="10" fill="#FFFFFF" fill-rule="evenodd"/><text font-family="Segoe UI,Segoe UI_MSFontService,sans-serif" font-weight="400" font-size="43" transform="translate(819.055 698)">Govern projects</text><path d="M732.5 818.4C732.5 808.514 740.514 800.5 750.4 800.5L1185.6 800.5C1195.49 800.5 1203.5 808.514 1203.5 818.4L1203.5 961.6C1203.5 971.486 1195.49 979.5 1185.6 979.5L750.4 979.5C740.514 979.5 732.5 971.486 732.5 961.6Z" stroke="#000000" stroke-width="1.13333" stroke-linejoin="round" stroke-miterlimit="10" fill="#FFFFFF" fill-rule="evenodd"/><text fill="#444444" font-family="Segoe UI,Segoe UI_MSFontService,sans-serif" font-weight="400" font-size="43" transform="translate(819.285 878)">Manage project</text><text fill="#444444" font-family="Segoe UI,Segoe UI_MSFontService,sans-serif" font-weight="400" font-size="43" transform="translate(881.312 929)">contracts</text><path d="M732.5 1024.4C732.5 1014.51 740.514 1006.5 750.4 1006.5L1185.6 1006.5C1195.49 1006.5 1203.5 1014.51 1203.5 1024.4L1203.5 1167.6C1203.5 1177.49 1195.49 1185.5 1185.6 1185.5L750.4 1185.5C740.514 1185.5 732.5 1177.49 732.5 1167.6Z" stroke="#000000" stroke-width="1.13333" stroke-linejoin="round" stroke-miterlimit="10" fill="#FFFFFF" fill-rule="evenodd"/><text font-family="Segoe UI,Segoe UI_MSFontService,sans-serif" font-weight="400" font-size="43" transform="translate(819.285 1085)">Manage project</text><text font-family="Segoe UI,Segoe UI_MSFontService,sans-serif" font-weight="400" font-size="43" transform="translate(747.979 1136)">resources and schedule</text><path d="M732.5 1231.4C732.5 1221.51 740.514 1213.5 750.4 1213.5L1185.6 1213.5C1195.49 1213.5 1203.5 1221.51 1203.5 1231.4L1203.5 1374.6C1203.5 1384.49 1195.49 1392.5 1185.6 1392.5L750.4 1392.5C740.514 1392.5 732.5 1384.49 732.5 1374.6Z" stroke="#000000" stroke-width="1.13333" stroke-linejoin="round" stroke-miterlimit="10" fill="#FFFFFF" fill-rule="evenodd"/><text fill="#444444" font-family="Segoe UI,Segoe UI_MSFontService,sans-serif" font-weight="400" font-size="43" transform="translate(819.285 1291)">Manage project</text><text font-family="Segoe UI,Segoe UI_MSFontService,sans-serif" font-weight="400" font-size="43" transform="translate(893.479 1342)">delivery</text><path d="M732.5 1437.4C732.5 1427.51 740.514 1419.5 750.4 1419.5L1185.6 1419.5C1195.49 1419.5 1203.5 1427.51 1203.5 1437.4L1203.5 1580.6C1203.5 1590.49 1195.49 1598.5 1185.6 1598.5L750.4 1598.5C740.514 1598.5 732.5 1590.49 732.5 1580.6Z" stroke="#000000" stroke-width="1.13333" stroke-linejoin="round" stroke-miterlimit="10" fill="#FFFFFF" fill-rule="evenodd"/><text fill="#444444" font-family="Segoe UI,Segoe UI_MSFontService,sans-serif" font-weight="400" font-size="43" transform="translate(819.285 1498)">Manage project</text><text font-family="Segoe UI,Segoe UI_MSFontService,sans-serif" font-weight="400" font-size="43" transform="translate(880.439 1549)">financials</text><path d="M732.5 1644.3C732.5 1634.47 740.469 1626.5 750.3 1626.5L1185.7 1626.5C1195.53 1626.5 1203.5 1634.47 1203.5 1644.3L1203.5 1786.7C1203.5 1796.53 1195.53 1804.5 1185.7 1804.5L750.3 1804.5C740.469 1804.5 732.5 1796.53 732.5 1786.7Z" stroke="#000000" stroke-width="1.13333" stroke-linejoin="round" stroke-miterlimit="10" fill="#FFFFFF" fill-rule="evenodd"/><text font-family="Segoe UI,Segoe UI_MSFontService,sans-serif" font-weight="400" font-size="43" transform="translate(774.245 1704)">Monitor and analyze</text><text font-family="Segoe UI,Segoe UI_MSFontService,sans-serif" font-weight="400" font-size="43" transform="translate(775.559 1755)">project performance</text><path d="M1305 93.7994C1305 61.3254 1331.33 35 1363.8 35L1834.2 35C1866.67 35 1893 61.3254 1893 93.7994L1893 1839.2C1893 1871.67 1866.67 1898 1834.2 1898L1363.8 1898C1331.33 1898 1305 1871.67 1305 1839.2Z" fill="#CBCBCB" fill-rule="evenodd"/><text font-family="Segoe UI,Segoe UI_MSFontService,sans-serif" font-weight="400" font-size="87" transform="translate(1358.21 292)">Downstream</text><text font-family="Segoe UI,Segoe UI_MSFontService,sans-serif" font-weight="400" font-size="87" transform="translate(1413.56 396)">processes</text><path d="M1364.5 605.1C1364.5 599.246 1369.25 594.5 1375.1 594.5L1824.9 594.5C1830.75 594.5 1835.5 599.246 1835.5 605.1L1835.5 689.9C1835.5 695.754 1830.75 700.5 1824.9 700.5L1375.1 700.5C1369.25 700.5 1364.5 695.754 1364.5 689.9Z" stroke="#000000" stroke-width="1.13333" stroke-linejoin="round" stroke-miterlimit="10" fill="#FFFFFF" fill-rule="evenodd"/><text font-family="Segoe UI,Segoe UI_MSFontService,sans-serif" font-weight="400" font-size="43" transform="translate(1424.43 662)">Acquire to dispose</text><path d="M1364.5 728.1C1364.5 722.246 1369.25 717.5 1375.1 717.5L1824.9 717.5C1830.75 717.5 1835.5 722.246 1835.5 728.1L1835.5 812.9C1835.5 818.754 1830.75 823.5 1824.9 823.5L1375.1 823.5C1369.25 823.5 1364.5 818.754 1364.5 812.9Z" stroke="#000000" stroke-width="1.13333" stroke-linejoin="round" stroke-miterlimit="10" fill="#FFFFFF" fill-rule="evenodd"/><text font-family="Segoe UI,Segoe UI_MSFontService,sans-serif" font-weight="400" font-size="43" transform="translate(1429.84 784)">Case to resolution</text><path d="M1364.5 850.2C1364.5 844.291 1369.29 839.5 1375.2 839.5L1824.8 839.5C1830.71 839.5 1835.5 844.291 1835.5 850.2L1835.5 935.8C1835.5 941.709 1830.71 946.5 1824.8 946.5L1375.2 946.5C1369.29 946.5 1364.5 941.709 1364.5 935.8Z" stroke="#000000" stroke-width="1.13333" stroke-linejoin="round" stroke-miterlimit="10" fill="#FFFFFF" fill-rule="evenodd"/><text font-family="Segoe UI,Segoe UI_MSFontService,sans-serif" font-weight="400" font-size="43" transform="translate(1449.34 907)">Forecast to plan</text><path d="M1364.5 973.1C1364.5 967.246 1369.25 962.5 1375.1 962.5L1824.9 962.5C1830.75 962.5 1835.5 967.246 1835.5 973.1L1835.5 1057.9C1835.5 1063.75 1830.75 1068.5 1824.9 1068.5L1375.1 1068.5C1369.25 1068.5 1364.5 1063.75 1364.5 1057.9Z" stroke="#000000" stroke-width="1.13333" stroke-linejoin="round" stroke-miterlimit="10" fill="#FFFFFF" fill-rule="evenodd"/><text font-family="Segoe UI,Segoe UI_MSFontService,sans-serif" font-weight="400" font-size="43" transform="translate(1480.58 1030)">Hire to retire</text><path d="M1364.5 1096.1C1364.5 1090.25 1369.25 1085.5 1375.1 1085.5L1824.9 1085.5C1830.75 1085.5 1835.5 1090.25 1835.5 1096.1L1835.5 1180.9C1835.5 1186.75 1830.75 1191.5 1824.9 1191.5L1375.1 1191.5C1369.25 1191.5 1364.5 1186.75 1364.5 1180.9Z" stroke="#000000" stroke-width="1.13333" stroke-linejoin="round" stroke-miterlimit="10" fill="#FFFFFF" fill-rule="evenodd"/><text font-family="Segoe UI,Segoe UI_MSFontService,sans-serif" font-weight="400" font-size="43" transform="translate(1416.22 1152)">Inventory</text><text font-family="Segoe UI,Segoe UI_MSFontService,sans-serif" font-weight="400" font-size="43" transform="translate(1606.37 1152)">to deliver</text><path d="M1364.5 1218.2C1364.5 1212.29 1369.29 1207.5 1375.2 1207.5L1824.8 1207.5C1830.71 1207.5 1835.5 1212.29 1835.5 1218.2L1835.5 1303.8C1835.5 1309.71 1830.71 1314.5 1824.8 1314.5L1375.2 1314.5C1369.29 1314.5 1364.5 1309.71 1364.5 1303.8Z" stroke="#000000" stroke-width="1.13333" stroke-linejoin="round" stroke-miterlimit="10" fill="#FFFFFF" fill-rule="evenodd"/><text font-family="Segoe UI,Segoe UI_MSFontService,sans-serif" font-weight="400" font-size="43" transform="translate(1471.98 1275)">Order to cash</text><path d="M1364.5 1341.1C1364.5 1335.25 1369.25 1330.5 1375.1 1330.5L1824.9 1330.5C1830.75 1330.5 1835.5 1335.25 1835.5 1341.1L1835.5 1425.9C1835.5 1431.75 1830.75 1436.5 1824.9 1436.5L1375.1 1436.5C1369.25 1436.5 1364.5 1431.75 1364.5 1425.9Z" stroke="#000000" stroke-width="1.13333" stroke-linejoin="round" stroke-miterlimit="10" fill="#FFFFFF" fill-rule="evenodd"/><text font-family="Segoe UI,Segoe UI_MSFontService,sans-serif" font-weight="400" font-size="43" transform="translate(1450.31 1397)">Plan to produce</text><path d="M1364.5 1464.1C1364.5 1458.25 1369.25 1453.5 1375.1 1453.5L1824.9 1453.5C1830.75 1453.5 1835.5 1458.25 1835.5 1464.1L1835.5 1548.9C1835.5 1554.75 1830.75 1559.5 1824.9 1559.5L1375.1 1559.5C1369.25 1559.5 1364.5 1554.75 1364.5 1548.9Z" stroke="#000000" stroke-width="1.13333" stroke-linejoin="round" stroke-miterlimit="10" fill="#FFFFFF" fill-rule="evenodd"/><text font-family="Segoe UI,Segoe UI_MSFontService,sans-serif" font-weight="400" font-size="43" transform="translate(1462.93 1520)">Procure to pay</text><path d="M1364.5 1586.1C1364.5 1580.25 1369.25 1575.5 1375.1 1575.5L1824.9 1575.5C1830.75 1575.5 1835.5 1580.25 1835.5 1586.1L1835.5 1670.9C1835.5 1676.75 1830.75 1681.5 1824.9 1681.5L1375.1 1681.5C1369.25 1681.5 1364.5 1676.75 1364.5 1670.9Z" stroke="#000000" stroke-width="1.13333" stroke-linejoin="round" stroke-miterlimit="10" fill="#FFFFFF" fill-rule="evenodd"/><text font-family="Segoe UI,Segoe UI_MSFontService,sans-serif" font-weight="400" font-size="43" transform="translate(1444.2 1643)">Record to report</text><path d="M1364.5 1709.1C1364.5 1703.25 1369.25 1698.5 1375.1 1698.5L1824.9 1698.5C1830.75 1698.5 1835.5 1703.25 1835.5 1709.1L1835.5 1793.9C1835.5 1799.75 1830.75 1804.5 1824.9 1804.5L1375.1 1804.5C1369.25 1804.5 1364.5 1799.75 1364.5 1793.9Z" stroke="#000000" stroke-width="1.13333" stroke-linejoin="round" stroke-miterlimit="10" fill="#FFFFFF" fill-rule="evenodd"/><text font-family="Segoe UI,Segoe UI_MSFontService,sans-serif" font-weight="400" font-size="43" transform="translate(1459.18 1765)">Service to cash</text></g></svg>