<?xml version="1.0"?>
<svg xmlns="http://www.w3.org/2000/svg" xmlns:xlink="http://www.w3.org/1999/xlink" xmlns:ev="http://www.w3.org/2001/xml-events"    viewBox="40 22 495 513"    xml:space="preserve" color-interpolation-filters="sRGB" class="st10" width="1238" height="1283">
<rect x="0" y="0" width="1238" height="1283" fill="#ffffff" />
	<style type="text/css"><![CDATA[
		.st1 {fill:#ffffff;stroke:#0078d4;stroke-linecap:round;stroke-linejoin:round;stroke-width:0.24}
		.st2 {fill:#000000;font-family:Calibri;font-size:1.00001em}
		.st3 {fill:#0078d4;stroke:none;stroke-linecap:round;stroke-linejoin:round;stroke-width:0.24}
		.st4 {fill:#ffffff;font-family:Calibri;font-size:1.00001em}
		.st5 {font-size:1em}
		.st6 {fill:#ffffff}
		.st7 {stroke:#0078d4;stroke-linecap:round;stroke-linejoin:round;stroke-width:0.24}
		.st8 {marker-end:url(#mrkr13-45);stroke:#0078d4;stroke-linecap:round;stroke-linejoin:round;stroke-width:0.75}
		.st9 {fill:#0078d4;fill-opacity:1;stroke:#0078d4;stroke-opacity:1;stroke-width:0.22935779816514}
		.st10 {fill:none;fill-rule:evenodd;font-size:12px;overflow:visible;stroke-linecap:square;stroke-miterlimit:3}
	]]></style><style> a { pointer-events: none; } </style><style>a.rules_svg_anchor g:hover { opacity:0.8; cursor:pointer; }</style>
	<defs id="Markers">
		<g id="lend13">
			<path d="M 3 1 L 0 0 L 3 -1 L 3 1 " style="stroke:none" />
		</g>
		<marker id="mrkr13-45" class="st9" refX="-13.08" orient="auto" markerUnits="strokeWidth" overflow="visible">
			<use xlink:href="#lend13" transform="scale(-4.36,-4.36) " />
		</marker>
	</defs>
	<g>
		
		<g id="shape1-1" transform="translate(40.5,-720)">
			
			<desc>Start</desc>
			<path d="M18 792 L67.5 792 A18 18 -180 0 0 67.5 756 L18 756 A18 18 -180 1 0 18 792 Z" class="st1" />
			<text x="31.01" y="777.6" class="st2">Start</text>
		</g>
		<a id="7e69d6e1-26d9-4938-81c0-32b12c19be7d" class="rules_svg_anchor rules_svg_shape"   href="/lms/chart?onclick=b3BlbkNoYXJ0Q29udGV4dE1lbnUoZXZlbnQsJ3cxMjVkNTIzNTk2NWMxNzM2MnY0MDc4JywyMzExNCwgMSwgMSwgdGhpcywgd2luZG93LmZyYW1lRWxlbWVudCk=&amp;navigate=true&amp;details=Description">
			<g id="shape2-4" transform="translate(225,-706.5)">
				
				<desc>80.50 Manage project financials</desc>
				<rect x="0" y="729" width="126" height="63" class="st3" />
				<text x="9.39" y="756.9" class="st4">80.50 Manage project <tspan x="40.1" dy="1.2em" class="st5">financials</tspan>
				</text>
			</g>
		</a>
		<a id="e093a8ec-0285-4a25-b9d8-e0261b48264c" class="rules_svg_anchor rules_svg_shape"   href="/lms/chart?onclick=b3BlbkNoYXJ0Q29udGV4dE1lbnUoZXZlbnQsJ3cxMjVkNTIzNTk2NWMxNzM2NXY0MDc4JywyMzExNSwgMSwgMSwgdGhpcywgd2luZG93LmZyYW1lRWxlbWVudCk=&amp;navigate=true&amp;details=Description">
			<g id="shape5-8" transform="translate(225,-616.5)">
				
				<desc>80.50.030 Correct project transactions</desc>
				<path d="M0 792 L126 792 L126 729 L0 729 L0 792 Z" class="st6" />
				<path d="M0 792 L126 792 L126 729 L0 729 L0 792" class="st7" />
				<path d="M9 792 L9 729" class="st7" />
				<path d="M117 792 L117 729" class="st7" />
				<text x="19.25" y="756.9" class="st2">80.50.030 Correct <tspan x="14.33" dy="1.2em" class="st5">project transactions</tspan>
				</text>
			</g>
		</a>
		<a id="ba69c4fa-9e81-43b6-9ff2-7c5a46ed4bc5" class="rules_svg_anchor rules_svg_shape"   href="/lms/chart?onclick=b3BlbkNoYXJ0Q29udGV4dE1lbnUoZXZlbnQsJ3cxMjVkNTIzNTk2NWMxNzM2NnY0MDc4JywyMzExNiwgMSwgMSwgdGhpcywgd2luZG93LmZyYW1lRWxlbWVudCk=&amp;navigate=true&amp;details=Description">
			<g id="shape6-15" transform="translate(225,-526.5)">
				
				<desc>80.50.040 Convert projects to fixed assets</desc>
				<path d="M0 792 L126 792 L126 729 L0 729 L0 792 Z" class="st6" />
				<path d="M0 792 L126 792 L126 729 L0 729 L0 792" class="st7" />
				<path d="M9 792 L9 729" class="st7" />
				<path d="M117 792 L117 729" class="st7" />
				<text x="18.01" y="749.7" class="st2">80.50.040 Convert <tspan x="23.45" dy="1.2em" class="st5">projects to fixed </tspan>
					<tspan x="48.09" dy="1.2em" class="st5">assets</tspan>
				</text>
			</g>
		</a>
		<a id="0a7de2c6-bee9-4559-a712-b3691d62a795" class="rules_svg_anchor rules_svg_shape"   href="/lms/chart?onclick=b3BlbkNoYXJ0Q29udGV4dE1lbnUoZXZlbnQsJ3cxMjVkNTIzNTk2NWMxNzM2N3Y0MDc4JywyMzExNywgMSwgMSwgdGhpcywgd2luZG93LmZyYW1lRWxlbWVudCk=&amp;navigate=true&amp;details=Description">
			<g id="shape7-23" transform="translate(225,-436.5)">
				
				<desc>80.50.050 Invoice project milestones</desc>
				<path d="M0 792 L126 792 L126 729 L0 729 L0 792 Z" class="st6" />
				<path d="M0 792 L126 792 L126 729 L0 729 L0 792" class="st7" />
				<path d="M9 792 L9 729" class="st7" />
				<path d="M117 792 L117 729" class="st7" />
				<text x="19.89" y="756.9" class="st2">80.50.050 Invoice <tspan x="17.73" dy="1.2em" class="st5">project milestones</tspan>
				</text>
			</g>
		</a>
		<a id="bdcbb510-4677-46e2-81cc-d19fc6fb3a91" class="rules_svg_anchor rules_svg_shape"   href="/lms/chart?onclick=b3BlbkNoYXJ0Q29udGV4dE1lbnUoZXZlbnQsJ3cxMjVkNTIzNTk2NWMxNzM2OHY0MDc4JywyMzExOSwgMSwgMSwgdGhpcywgd2luZG93LmZyYW1lRWxlbWVudCk=&amp;navigate=true&amp;details=Description">
			<g id="shape8-30" transform="translate(225,-256.5)">
				
				<desc>80.50.060 Recognize project revenue</desc>
				<path d="M0 792 L126 792 L126 729 L0 729 L0 792 Z" class="st6" />
				<path d="M0 792 L126 792 L126 729 L0 729 L0 792" class="st7" />
				<path d="M9 792 L9 729" class="st7" />
				<path d="M117 792 L117 729" class="st7" />
				<text x="12.67" y="756.9" class="st2">80.50.060 Recognize <tspan x="24.2" dy="1.2em" class="st5">project revenue</tspan>
				</text>
			</g>
		</a>
		<g id="shape11-37" transform="translate(450,-270)">
			
			<desc>End</desc>
			<path d="M18 792 L67.5 792 A18 18 -180 0 0 67.5 756 L18 756 A18 18 -180 1 0 18 792 Z" class="st1" />
			<text x="33.52" y="777.6" class="st2">End</text>
		</g>
		<g id="shape12-40" transform="translate(126,-729)">
			
			<path d="M0 783 L89.19 783" class="st8" />
		</g>
		<g id="shape13-46" transform="translate(279,-706.5)">
			
			<path d="M9 792 L9 809.19" class="st8" />
		</g>
		<g id="shape16-51" transform="translate(279,-616.5)">
			
			<path d="M9 792 L9 809.19" class="st8" />
		</g>
		<g id="shape17-56" transform="translate(279,-526.5)">
			
			<path d="M9 792 L9 809.19" class="st8" />
		</g>
		<g id="shape18-61" transform="translate(279,-436.5)">
			
			<path d="M9 792 L9 809.19" class="st8" />
		</g>
		<g id="shape19-66" transform="translate(279,-346.5)">
			
			<path d="M9 792 L9 809.19" class="st8" />
		</g>
		<g id="shape21-71" transform="translate(351,-279)">
			
			<path d="M0 783 L89.19 783" class="st8" />
		</g>
		<a id="809e9b13-b4bb-4b50-83b1-69e13e3b72ce" class="rules_svg_anchor rules_svg_shape"   href="/lms/chart?onclick=b3BlbkNoYXJ0Q29udGV4dE1lbnUoZXZlbnQsJ3cxMjVkNTIzNTk2NWMxMDUzNDh2NDA3OCcsMjMxMTgsIDEsIDEsIHRoaXMsIHdpbmRvdy5mcmFtZUVsZW1lbnQp&amp;navigate=true&amp;details=Description">
			<g id="shape22-76" transform="translate(225,-346.5)">
				
				<desc>80.50.055 Invoice project transactions</desc>
				<path d="M0 792 L126 792 L126 729 L0 729 L0 792 Z" class="st6" />
				<path d="M0 792 L126 792 L126 729 L0 729 L0 792" class="st7" />
				<path d="M9 792 L9 729" class="st7" />
				<path d="M117 792 L117 729" class="st7" />
				<text x="19.89" y="756.9" class="st2">80.50.055 Invoice <tspan x="14.33" dy="1.2em" class="st5">project transactions</tspan>
				</text>
			</g>
		</a>
	</g>
</svg>
