<?xml version="1.0" encoding="UTF-8" standalone="no"?>
<svg
   width="1551.704"
   height="1138.5394"
   overflow="hidden"
   version="1.1"
   id="svg152"
   sodipodi:docname="project-to-profit-manage-project-contracts-flow.svg"
   inkscape:version="1.2.2 (732a01da63, 2022-12-09)"
   xmlns:inkscape="http://www.inkscape.org/namespaces/inkscape"
   xmlns:sodipodi="http://sodipodi.sourceforge.net/DTD/sodipodi-0.dtd"
   xmlns="http://www.w3.org/2000/svg"
   xmlns:svg="http://www.w3.org/2000/svg">
  <defs
     id="defs156" />
  <sodipodi:namedview
     id="namedview154"
     pagecolor="#ffffff"
     bordercolor="#000000"
     borderopacity="0.25"
     inkscape:showpageshadow="2"
     inkscape:pageopacity="0.0"
     inkscape:pagecheckerboard="0"
     inkscape:deskcolor="#d1d1d1"
     showgrid="false"
     inkscape:zoom="0.53489583"
     inkscape:cx="925.41383"
     inkscape:cy="938.50049"
     inkscape:window-width="3840"
     inkscape:window-height="2054"
     inkscape:window-x="2725"
     inkscape:window-y="-11"
     inkscape:window-maximized="1"
     inkscape:current-layer="svg152" />
  <g
     id="g150"
     transform="translate(-33.651413,-20.564753)">
    <rect
       x="33.651413"
       y="20.564753"
       width="1551.704"
       height="1138.5394"
       fill="#ffffff"
       id="rect2"
       style="stroke-width:0.692273" />
    <rect
       x="585"
       y="83"
       width="649"
       height="1065"
       stroke="#0078d4"
       stroke-width="2"
       stroke-linejoin="round"
       stroke-miterlimit="10"
       fill="#d9d9d9"
       id="rect4" />
    <text
       fill="#0078d4"
       font-family="'Segoe UI', 'Segoe UI_MSFontService', sans-serif"
       font-weight="700"
       font-size="27px"
       transform="translate(613.775,132)"
       id="text6">Business process area</text>
    <path
       d="M 48,68.5 C 48,48.3416 64.3416,32 84.5,32 h 138 c 20.158,0 36.5,16.3416 36.5,36.5 v 0 C 259,88.6584 242.658,105 222.5,105 H 84.5 C 64.3416,105 48,88.6584 48,68.5 Z"
       stroke="#0078d4"
       stroke-width="2"
       stroke-linejoin="round"
       stroke-miterlimit="10"
       fill="none"
       fill-rule="evenodd"
       id="path8" />
    <text
       font-family="'Segoe UI', 'Segoe UI_MSFontService', sans-serif"
       font-weight="400"
       font-size="16px"
       transform="translate(137.155,75)"
       id="text10">Start</text>
    <path
       d="M 1,-2.18567e-6 1.00009,41.3675 h -2 L -1,2.18567e-6 Z M 4.00009,40.0341 l -3.999985013,8 -4.000014987,-8 z"
       fill="#0078d4"
       transform="matrix(-1,0,0,1,154,105)"
       id="path12" />
    <rect
       x="617"
       y="161"
       width="195"
       height="133"
       stroke="#00569b"
       stroke-width="2"
       stroke-linejoin="round"
       stroke-miterlimit="10"
       fill="#0078d4"
       id="rect14" />
    <text
       fill="#ffffff"
       font-family="'Segoe UI', 'Segoe UI_MSFontService', sans-serif"
       font-weight="400"
       font-size="16px"
       transform="translate(658.966,224)"
       id="text16">Manage project</text>
    <text
       fill="#ffffff"
       font-family="'Segoe UI', 'Segoe UI_MSFontService', sans-serif"
       font-weight="400"
       font-size="16px"
       transform="translate(682.106,243)"
       id="text18">contracts</text>
    <rect
       x="862"
       y="153"
       width="251"
       height="153"
       fill="#ffffff"
       id="rect20" />
    <path
       d="M 893.375,153 V 306 M 1081.62,153 v 153"
       stroke="#0078d4"
       stroke-width="2"
       stroke-linejoin="round"
       stroke-miterlimit="10"
       fill="none"
       fill-rule="evenodd"
       id="path22" />
    <rect
       x="862"
       y="153"
       width="251"
       height="153"
       stroke="#0078d4"
       stroke-width="2"
       stroke-linejoin="round"
       stroke-miterlimit="10"
       fill="none"
       id="rect24" />
    <text
       font-family="'Segoe UI', 'Segoe UI_MSFontService', sans-serif"
       font-weight="400"
       font-size="16px"
       transform="translate(938.288,226)"
       id="text26">Create project</text>
    <text
       font-family="'Segoe UI', 'Segoe UI_MSFontService', sans-serif"
       font-weight="400"
       font-size="16px"
       transform="translate(955.341,245)"
       id="text28">contracts</text>
    <path
       d="m 883,1092.5 c 0,-20.16 16.342,-36.5 36.5,-36.5 h 138 c 20.16,0 36.5,16.34 36.5,36.5 v 0 c 0,20.16 -16.34,36.5 -36.5,36.5 h -138 c -20.158,0 -36.5,-16.34 -36.5,-36.5 z"
       stroke="#0078d4"
       stroke-width="2"
       stroke-linejoin="round"
       stroke-miterlimit="10"
       fill="#ffffff"
       fill-rule="evenodd"
       id="path30" />
    <text
       font-family="'Segoe UI', 'Segoe UI_MSFontService', sans-serif"
       font-weight="400"
       font-size="16px"
       transform="translate(974.928,1099)"
       id="text32">End</text>
    <rect
       x="862"
       y="582"
       width="252"
       height="153"
       fill="#ffffff"
       id="rect34" />
    <path
       d="m 893.5,582 v 153 m 189,-153 v 153"
       stroke="#0078d4"
       stroke-width="2"
       stroke-linejoin="round"
       stroke-miterlimit="10"
       fill="none"
       fill-rule="evenodd"
       id="path36" />
    <rect
       x="862"
       y="582"
       width="252"
       height="153"
       stroke="#0078d4"
       stroke-width="2"
       stroke-linejoin="round"
       stroke-miterlimit="10"
       fill="none"
       id="rect38" />
    <text
       font-family="'Segoe UI', 'Segoe UI_MSFontService', sans-serif"
       font-weight="400"
       font-size="16px"
       transform="translate(938.785,656)"
       id="text40">Define project</text>
    <text
       font-family="'Segoe UI', 'Segoe UI_MSFontService', sans-serif"
       font-weight="400"
       font-size="16px"
       transform="translate(943.938,675)"
       id="text42">billing Terms</text>
    <path
       d="m 812.5,227 h 42.399 v 1 H 812.5 Z m 41.066,-3.5 8,4 -8,4 z"
       fill="#0078d4"
       id="path44" />
    <rect
       x="48"
       y="153"
       width="221"
       height="152"
       stroke="#000000"
       stroke-width="2"
       stroke-linejoin="round"
       stroke-miterlimit="10"
       fill="#a0a0a0"
       id="rect46" />
    <text
       font-family="'Segoe UI', 'Segoe UI_MSFontService', sans-serif"
       font-weight="400"
       font-size="16px"
       transform="translate(95.495,235)"
       id="text48">Prospect to quote</text>
    <rect
       x="861"
       y="394"
       width="252"
       height="153"
       fill="#ffffff"
       id="rect50" />
    <path
       d="m 892.5,394 v 153 m 189,-153 v 153"
       stroke="#0078d4"
       stroke-width="2"
       stroke-linejoin="round"
       stroke-miterlimit="10"
       fill="none"
       fill-rule="evenodd"
       id="path52" />
    <rect
       x="861"
       y="394"
       width="252"
       height="153"
       stroke="#0078d4"
       stroke-width="2"
       stroke-linejoin="round"
       stroke-miterlimit="10"
       fill="none"
       id="rect54" />
    <text
       font-family="'Segoe UI', 'Segoe UI_MSFontService', sans-serif"
       font-weight="400"
       font-size="16px"
       transform="translate(935.285,467)"
       id="text56">Define project</text>
    <text
       font-family="'Segoe UI', 'Segoe UI_MSFontService', sans-serif"
       font-weight="400"
       font-size="16px"
       transform="translate(962.765,486)"
       id="text58">pricing</text>
    <path
       d="M 0.499985,-0.00380586 1.11591,80.9115 0.115937,80.9191 -0.499985,0.00380586 Z M 4.60566,79.5515 0.666667,87.5817 -3.39411,79.6124 Z"
       fill="#0078d4"
       transform="matrix(-1,0,0,1,988.167,306.5)"
       id="path60" />
    <path
       d="m 1113.5,230 h 176.53 c 0.27,0 0.5,0.224 0.5,0.5 v 210.671 l -0.5,-0.5 h 73.86 v 1 h -73.86 c -0.28,0 -0.5,-0.224 -0.5,-0.5 V 230.5 l 0.5,0.5 H 1113.5 Z m 249.06,207.171 8,4 -8,4 z"
       fill="#0078d4"
       id="path62" />
    <rect
       x="862"
       y="790"
       width="252"
       height="134"
       fill="#ffffff"
       id="rect64" />
    <path
       d="m 893.5,790 v 134 m 189,-134 v 134"
       stroke="#0078d4"
       stroke-width="2"
       stroke-linejoin="round"
       stroke-miterlimit="10"
       fill="none"
       fill-rule="evenodd"
       id="path66" />
    <rect
       x="862"
       y="790"
       width="252"
       height="134"
       stroke="#0078d4"
       stroke-width="2"
       stroke-linejoin="round"
       stroke-miterlimit="10"
       fill="none"
       id="rect68" />
    <text
       font-family="'Segoe UI', 'Segoe UI_MSFontService', sans-serif"
       font-weight="400"
       font-size="16px"
       transform="translate(935.845,854)"
       id="text70">Define funding</text>
    <text
       font-family="'Segoe UI', 'Segoe UI_MSFontService', sans-serif"
       font-weight="400"
       font-size="16px"
       transform="translate(965.205,873)"
       id="text72">source</text>
    <path
       d="m 988,547.481 1.08,28.374 -1,0.038 -1.08,-28.374 z m 4.526,26.908 -3.693,8.147 -4.301,-7.842 z"
       fill="#0078d4"
       id="path74" />
    <path
       d="m 989,735.5 v 47.931 h -1 V 735.5 Z m 3.5,46.598 -4,8 -4,-8 z"
       fill="#0078d4"
       id="path76" />
    <path
       d="m 989,924.5 v 125.64 h -1 V 924.5 Z m 3.5,124.3 -4,8 -4,-8 z"
       fill="#0078d4"
       id="path78" />
    <rect
       x="53"
       y="432"
       width="211"
       height="133"
       stroke="#000000"
       stroke-width="2"
       stroke-linejoin="round"
       stroke-miterlimit="10"
       fill="#a0a0a0"
       id="rect80" />
    <text
       font-family="'Segoe UI', 'Segoe UI_MSFontService', sans-serif"
       font-weight="400"
       font-size="16px"
       transform="translate(103.432,505)"
       id="text82">Project to profit</text>
    <rect
       x="320"
       y="162"
       width="196"
       height="133"
       stroke="#00569b"
       stroke-width="2"
       stroke-linejoin="round"
       stroke-miterlimit="10"
       fill="#0078d4"
       id="rect84" />
    <text
       fill="#ffffff"
       font-family="'Segoe UI', 'Segoe UI_MSFontService', sans-serif"
       font-weight="400"
       font-size="16px"
       transform="translate(368.524,225)"
       id="text86">Create project</text>
    <text
       fill="#ffffff"
       font-family="'Segoe UI', 'Segoe UI_MSFontService', sans-serif"
       font-weight="400"
       font-size="16px"
       transform="translate(397.064,244)"
       id="text88">quote</text>
    <rect
       x="320"
       y="436"
       width="196"
       height="125"
       stroke="#00569b"
       stroke-width="2"
       stroke-linejoin="round"
       stroke-miterlimit="10"
       fill="#0078d4"
       id="rect90" />
    <text
       fill="#ffffff"
       font-family="'Segoe UI', 'Segoe UI_MSFontService', sans-serif"
       font-weight="400"
       font-size="16px"
       transform="translate(362.417,505)"
       id="text92">Govern</text>
    <text
       fill="#ffffff"
       font-family="'Segoe UI', 'Segoe UI_MSFontService', sans-serif"
       font-weight="400"
       font-size="16px"
       transform="translate(417.457,505)"
       id="text94">projects</text>
    <path
       d="M 0.00611072,-0.499963 44.2599,0.0409232 44.2477,1.04085 -0.00611072,0.499963 Z M 42.9695,-3.47511 50.92,0.622362 42.8717,4.52429 Z"
       fill="#0078d4"
       transform="matrix(1,0,0,-1,269.5,229.122)"
       id="path96" />
    <path
       d="M 9.43507e-7,-0.5 48.9699,-0.499908 v 1 L -9.43507e-7,0.5 Z M 47.6365,-3.99991 l 8,4.000014987 -8,3.999985013 z"
       fill="#0078d4"
       transform="matrix(1,0,0,-1,264.5,498.5)"
       id="path98" />
    <rect
       x="1362"
       y="173"
       width="212"
       height="133"
       stroke="#000000"
       stroke-width="2"
       stroke-linejoin="round"
       stroke-miterlimit="10"
       fill="#a0a0a0"
       id="rect100" />
    <text
       font-family="'Segoe UI', 'Segoe UI_MSFontService', sans-serif"
       font-weight="400"
       font-size="16px"
       transform="translate(1413.08,246)"
       id="text102">Project to profit</text>
    <rect
       x="1370"
       y="374"
       width="196"
       height="133"
       stroke="#00569b"
       stroke-width="2"
       stroke-linejoin="round"
       stroke-miterlimit="10"
       fill="#0078d4"
       id="rect104" />
    <text
       fill="#ffffff"
       font-family="'Segoe UI', 'Segoe UI_MSFontService', sans-serif"
       font-weight="400"
       font-size="16px"
       transform="translate(1412.68,427)"
       id="text106">Manage project</text>
    <text
       fill="#ffffff"
       font-family="'Segoe UI', 'Segoe UI_MSFontService', sans-serif"
       font-weight="400"
       font-size="16px"
       transform="translate(1419.29,446)"
       id="text108">resources and</text>
    <text
       fill="#ffffff"
       font-family="'Segoe UI', 'Segoe UI_MSFontService', sans-serif"
       font-weight="400"
       font-size="16px"
       transform="translate(1433.57,465)"
       id="text110">schedules</text>
    <rect
       x="1370"
       y="594"
       width="196"
       height="133"
       stroke="#00569b"
       stroke-width="2"
       stroke-linejoin="round"
       stroke-miterlimit="10"
       fill="#0078d4"
       id="rect112" />
    <text
       fill="#ffffff"
       font-family="'Segoe UI', 'Segoe UI_MSFontService', sans-serif"
       font-weight="400"
       font-size="16px"
       transform="translate(1412.68,658)"
       id="text114">Manage project</text>
    <text
       fill="#ffffff"
       font-family="'Segoe UI', 'Segoe UI_MSFontService', sans-serif"
       font-weight="400"
       font-size="16px"
       transform="translate(1440.47,677)"
       id="text116">delivery</text>
    <rect
       x="1371"
       y="790"
       width="196"
       height="133"
       stroke="#00569b"
       stroke-width="2"
       stroke-linejoin="round"
       stroke-miterlimit="10"
       fill="#0078d4"
       id="rect118" />
    <text
       fill="#ffffff"
       font-family="'Segoe UI', 'Segoe UI_MSFontService', sans-serif"
       font-weight="400"
       font-size="16px"
       transform="translate(1413.44,854)"
       id="text120">Manage project</text>
    <text
       fill="#ffffff"
       font-family="'Segoe UI', 'Segoe UI_MSFontService', sans-serif"
       font-weight="400"
       font-size="16px"
       transform="translate(1436.33,873)"
       id="text122">financials</text>
    <rect
       x="1370"
       y="970"
       width="196"
       height="133"
       stroke="#00569b"
       stroke-width="2"
       stroke-linejoin="round"
       stroke-miterlimit="10"
       fill="#0078d4"
       id="rect124" />
    <text
       fill="#ffffff"
       font-family="'Segoe UI', 'Segoe UI_MSFontService', sans-serif"
       font-weight="400"
       font-size="16px"
       transform="translate(1424.22,1023)"
       id="text126">Monitor and</text>
    <text
       fill="#ffffff"
       font-family="'Segoe UI', 'Segoe UI_MSFontService', sans-serif"
       font-weight="400"
       font-size="16px"
       transform="translate(1415.26,1042)"
       id="text128">analyze project</text>
    <text
       fill="#ffffff"
       font-family="'Segoe UI', 'Segoe UI_MSFontService', sans-serif"
       font-weight="400"
       font-size="16px"
       transform="translate(1423.1,1061)"
       id="text130">performance</text>
    <path
       d="m 1469,306.5 v 60.823 h -1 V 306.5 Z m 3.5,59.49 -4,8 -4,-8 z"
       fill="#0078d4"
       id="path132" />
    <path
       d="m 1469,507.5 v 80.952 h -1 V 507.5 Z m 3.5,79.619 -4,8 -4,-8 z"
       fill="#0078d4"
       id="path134" />
    <path
       d="m 1470,698.5 v 85.54 h -1 V 698.5 Z m 3.5,84.207 -4,8 -4,-8 z"
       fill="#0078d4"
       id="path136" />
    <path
       d="m 1476,894.5 v 68.982 h -1 V 894.5 Z m 3.5,67.649 -4,8 -4,-8 z"
       fill="#0078d4"
       id="path138" />
    <path
       d="m 1113.5,470 h 179.43 c 0.28,0 0.5,0.224 0.5,0.5 v 386.373 l -0.5,-0.5 h 71.72 v 1 h -71.72 c -0.27,0 -0.5,-0.224 -0.5,-0.5 V 470.5 l 0.5,0.5 H 1113.5 Z m 249.81,382.873 8,4 -8,4 z"
       fill="#0078d4"
       id="path140" />
    <path
       d="m 1114.5,857 h 128.24 c 0.28,0 0.5,0.224 0.5,0.5 v 0 l -0.5,-0.5 h 121.57 v 1 h -121.57 c -0.28,0 -0.5,-0.224 -0.5,-0.5 v 0 l 0.5,0.5 H 1114.5 Z m 248.48,-3.5 8,4 -8,4 z"
       fill="#0078d4"
       id="path142" />
    <path
       d="m 1114.5,659 249.06,2.106 -0.01,1 L 1114.5,660 Z m 247.76,-1.405 7.96,4.067 -8.03,3.932 z"
       fill="#0078d4"
       id="path144" />
    <path
       d="M 0.00380775,-0.499985 94.2752,0.217959 94.2676,1.21793 -0.00380775,0.499985 Z M 92.9685,-3.29209 100.938,0.768714 92.9076,4.70767 Z"
       fill="#0078d4"
       transform="matrix(1,0,0,-1,516.5,228.269)"
       id="path146" />
    <path
       d="m 0,-0.5 h 50.4689 c 0.2762,0 0.5,0.223858 0.5,0.5 v 271.139 l -0.5,-0.5 h 43.8023 v 1 H 50.4689 c -0.2761,0 -0.5,-0.223 -0.5,-0.5 V 0 l 0.5,0.5 H 0 Z m 92.9378,267.639 8.0002,4 -8.0002,4 z"
       fill="#0078d4"
       transform="matrix(1,0,0,-1,516.5,498.639)"
       id="path148" />
  </g>
</svg>
