<svg width="1920" height="1920" xmlns="http://www.w3.org/2000/svg" xmlns:xlink="http://www.w3.org/1999/xlink" overflow="hidden"><g><rect x="0" y="0" width="1920" height="1920" fill="#FFFFFF"/><path d="M246 109.5C246 92.6553 259.655 79 276.5 79L426.5 79C443.345 79 457 92.6553 457 109.5L457 109.5C457 126.345 443.345 140 426.5 140L276.5 140C259.655 140 246 126.345 246 109.5Z" stroke="#0078D4" stroke-width="2" stroke-linejoin="round" stroke-miterlimit="10" fill="none" fill-rule="evenodd"/><text font-family="Segoe UI,Segoe UI_MSFontService,sans-serif" font-weight="400" font-size="24" transform="translate(326.418 118)">Start</text><rect x="208" y="492" width="211" height="153" stroke="#A6A6A6" stroke-width="2" stroke-linejoin="round" stroke-miterlimit="10" fill="#A0A0A0"/><text font-family="Segoe UI,Segoe UI_MSFontService,sans-serif" font-weight="400" font-size="24" transform="translate(262.774 562)">Record to</text><text font-family="Segoe UI,Segoe UI_MSFontService,sans-serif" font-weight="400" font-size="24" transform="translate(280.834 591)">report</text><rect x="704" y="1013" width="279" height="153" fill="#FFFFFF"/><path d="M738.875 1013 738.875 1166M948.125 1013 948.125 1166" stroke="#0078D4" stroke-width="2" stroke-linejoin="round" stroke-miterlimit="10" fill="none" fill-rule="evenodd"/><rect x="704" y="1013" width="279" height="153" stroke="#0078D4" stroke-width="2" stroke-linejoin="round" stroke-miterlimit="10" fill="none"/><text font-family="Segoe UI,Segoe UI_MSFontService,sans-serif" font-weight="400" font-size="24" transform="translate(800.328 1069)">Manage</text><text font-family="Segoe UI,Segoe UI_MSFontService,sans-serif" font-weight="400" font-size="24" transform="translate(806.402 1098)">project</text><text font-family="Segoe UI,Segoe UI_MSFontService,sans-serif" font-weight="400" font-size="24" transform="translate(801.755 1127)">delivery</text><rect x="208" y="1172" width="211" height="153" stroke="#A6A6A6" stroke-width="2" stroke-linejoin="round" stroke-miterlimit="10" fill="#A6A6A6"/><text font-family="Segoe UI,Segoe UI_MSFontService,sans-serif" font-weight="400" font-size="24" transform="translate(253.614 1243)">Prospect to</text><text font-family="Segoe UI,Segoe UI_MSFontService,sans-serif" font-weight="400" font-size="24" transform="translate(282.62 1272)">quote</text><path d="M1534 1834.5C1534 1814.34 1550.34 1798 1570.5 1798L1708.5 1798C1728.66 1798 1745 1814.34 1745 1834.5L1745 1834.5C1745 1854.66 1728.66 1871 1708.5 1871L1570.5 1871C1550.34 1871 1534 1854.66 1534 1834.5Z" stroke="#0078D4" stroke-width="2" stroke-linejoin="round" stroke-miterlimit="10" fill="none" fill-rule="evenodd"/><text font-family="Segoe UI,Segoe UI_MSFontService,sans-serif" font-weight="400" font-size="24" transform="translate(1619.52 1843)">End</text><rect x="704" y="33" width="279" height="153" stroke="#0078D4" stroke-width="2" stroke-linejoin="round" stroke-miterlimit="10" fill="#0078D4"/><text fill="#FFFFFF" font-family="Segoe UI,Segoe UI_MSFontService,sans-serif" font-weight="400" font-size="24" transform="translate(760.618 118)">Project to profit</text><rect x="1219" y="1666" width="212" height="153" stroke="#A6A6A6" stroke-width="2" stroke-linejoin="round" stroke-miterlimit="10" fill="#A0A0A0"/><text font-family="Segoe UI,Segoe UI_MSFontService,sans-serif" font-weight="400" font-size="24" transform="translate(1285.81 1737)">Case to</text><text font-family="Segoe UI,Segoe UI_MSFontService,sans-serif" font-weight="400" font-size="24" transform="translate(1272.12 1766)">resolution</text><rect x="1225" y="897" width="212" height="153" stroke="#A6A6A6" stroke-width="2" stroke-linejoin="round" stroke-miterlimit="10" fill="#A0A0A0"/><text font-family="Segoe UI,Segoe UI_MSFontService,sans-serif" font-weight="400" font-size="24" transform="translate(1294.35 968)">Plan to</text><text font-family="Segoe UI,Segoe UI_MSFontService,sans-serif" font-weight="400" font-size="24" transform="translate(1287.33 997)">produce</text><rect x="208" y="707" width="211" height="154" stroke="#A6A6A6" stroke-width="2" stroke-linejoin="round" stroke-miterlimit="10" fill="#A0A0A0"/><text font-family="Segoe UI,Segoe UI_MSFontService,sans-serif" font-weight="400" font-size="24" transform="translate(242.036 793)">Order to cash</text><rect x="208" y="937" width="211" height="153" stroke="#A6A6A6" stroke-width="2" stroke-linejoin="round" stroke-miterlimit="10" fill="#A0A0A0"/><text font-family="Segoe UI,Segoe UI_MSFontService,sans-serif" font-weight="400" font-size="24" transform="translate(249.193 979)">Product and</text><text font-family="Segoe UI,Segoe UI_MSFontService,sans-serif" font-weight="400" font-size="24" transform="translate(277.139 1008)">service</text><text font-family="Segoe UI,Segoe UI_MSFontService,sans-serif" font-weight="400" font-size="24" transform="translate(271.679 1037)">lifecycle</text><text font-family="Segoe UI,Segoe UI_MSFontService,sans-serif" font-weight="400" font-size="24" transform="translate(243.619 1066)">management</text><rect x="704" y="346" width="279" height="154" fill="#FFFFFF"/><path d="M738.875 346 738.875 500M948.125 346 948.125 500" stroke="#0078D4" stroke-width="2" stroke-linejoin="round" stroke-miterlimit="10" fill="none" fill-rule="evenodd"/><rect x="704" y="346" width="279" height="154" stroke="#0078D4" stroke-width="2" stroke-linejoin="round" stroke-miterlimit="10" fill="none"/><text font-family="Segoe UI,Segoe UI_MSFontService,sans-serif" font-weight="400" font-size="24" transform="translate(805.252 417)">Govern</text><text font-family="Segoe UI,Segoe UI_MSFontService,sans-serif" font-weight="400" font-size="24" transform="translate(801.318 446)">projects</text><rect x="704" y="791" width="278" height="153" fill="#FFFFFF"/><path d="M738.75 791 738.75 944M947.25 791 947.25 944" stroke="#0078D4" stroke-width="2" stroke-linejoin="round" stroke-miterlimit="10" fill="none" fill-rule="evenodd"/><rect x="704" y="791" width="278" height="153" stroke="#0078D4" stroke-width="2" stroke-linejoin="round" stroke-miterlimit="10" fill="none"/><text font-family="Segoe UI,Segoe UI_MSFontService,sans-serif" font-weight="400" font-size="24" transform="translate(800.328 833)">Manage</text><text font-family="Segoe UI,Segoe UI_MSFontService,sans-serif" font-weight="400" font-size="24" transform="translate(806.402 862)">project</text><text font-family="Segoe UI,Segoe UI_MSFontService,sans-serif" font-weight="400" font-size="24" transform="translate(770.142 891)">resources and</text><text font-family="Segoe UI,Segoe UI_MSFontService,sans-serif" font-weight="400" font-size="24" transform="translate(796.662 920)">schedule</text><rect x="208" y="1394" width="217" height="154" stroke="#A6A6A6" stroke-width="2" stroke-linejoin="round" stroke-miterlimit="10" fill="#A6A6A6"/><text font-family="Segoe UI,Segoe UI_MSFontService,sans-serif" font-weight="400" font-size="24" transform="translate(237.444 1480)">Service to cash</text><path d="M457.001 108 697.32 108.253 697.318 110.253 456.999 110ZM695.989 105.251 703.985 109.26 695.981 113.251Z" fill="#0078D4"/><rect x="1219" y="1281" width="212" height="153" stroke="#A6A6A6" stroke-width="2" stroke-linejoin="round" stroke-miterlimit="10" fill="#A0A0A0"/><text font-family="Segoe UI,Segoe UI_MSFontService,sans-serif" font-weight="400" font-size="24" transform="translate(1270.3 1352)">Acquire to</text><text font-family="Segoe UI,Segoe UI_MSFontService,sans-serif" font-weight="400" font-size="24" transform="translate(1284.38 1381)">dispose</text><rect x="1225" y="708" width="211" height="153" stroke="#A6A6A6" stroke-width="2" stroke-linejoin="round" stroke-miterlimit="10" fill="#A0A0A0"/><text font-family="Segoe UI,Segoe UI_MSFontService,sans-serif" font-weight="400" font-size="24" transform="translate(1259.07 793)">Order to cash</text><rect x="1219" y="1472" width="212" height="153" stroke="#A6A6A6" stroke-width="2" stroke-linejoin="round" stroke-miterlimit="10" fill="#A0A0A0"/><text font-family="Segoe UI,Segoe UI_MSFontService,sans-serif" font-weight="400" font-size="24" transform="translate(1273.88 1543)">Record to</text><text font-family="Segoe UI,Segoe UI_MSFontService,sans-serif" font-weight="400" font-size="24" transform="translate(1291.94 1572)">report</text><rect x="1225" y="518" width="211" height="153" stroke="#A6A6A6" stroke-width="2" stroke-linejoin="round" stroke-miterlimit="10" fill="#A0A0A0"/><text font-family="Segoe UI,Segoe UI_MSFontService,sans-serif" font-weight="400" font-size="24" transform="translate(1266.23 560)">Product and</text><text font-family="Segoe UI,Segoe UI_MSFontService,sans-serif" font-weight="400" font-size="24" transform="translate(1294.18 589)">service</text><text font-family="Segoe UI,Segoe UI_MSFontService,sans-serif" font-weight="400" font-size="24" transform="translate(1288.72 618)">lifecycle</text><text font-family="Segoe UI,Segoe UI_MSFontService,sans-serif" font-weight="400" font-size="24" transform="translate(1260.66 647)">management</text><rect x="1221" y="1088" width="211" height="153" stroke="#A6A6A6" stroke-width="2" stroke-linejoin="round" stroke-miterlimit="10" fill="#A0A0A0"/><text font-family="Segoe UI,Segoe UI_MSFontService,sans-serif" font-weight="400" font-size="24" transform="translate(1249.63 1173)">Procure to pay</text><rect x="1225" y="313" width="211" height="153" stroke="#A6A6A6" stroke-width="2" stroke-linejoin="round" stroke-miterlimit="10" fill="#A0A0A0"/><text font-family="Segoe UI,Segoe UI_MSFontService,sans-serif" font-weight="400" font-size="24" transform="translate(1278.6 383)">Service to</text><text font-family="Segoe UI,Segoe UI_MSFontService,sans-serif" font-weight="400" font-size="24" transform="translate(1307.16 412)">cash</text><rect x="704" y="1235" width="278" height="153" fill="#FFFFFF"/><path d="M738.75 1235 738.75 1388M947.25 1235 947.25 1388" stroke="#0078D4" stroke-width="2" stroke-linejoin="round" stroke-miterlimit="10" fill="none" fill-rule="evenodd"/><rect x="704" y="1235" width="278" height="153" stroke="#0078D4" stroke-width="2" stroke-linejoin="round" stroke-miterlimit="10" fill="none"/><text font-family="Segoe UI,Segoe UI_MSFontService,sans-serif" font-weight="400" font-size="24" transform="translate(800.328 1291)">Manage</text><text font-family="Segoe UI,Segoe UI_MSFontService,sans-serif" font-weight="400" font-size="24" transform="translate(806.402 1320)">project</text><text font-family="Segoe UI,Segoe UI_MSFontService,sans-serif" font-weight="400" font-size="24" transform="translate(794.495 1349)">financials</text><rect x="704" y="1457" width="278" height="153" fill="#FFFFFF"/><path d="M738.75 1457 738.75 1610M947.25 1457 947.25 1610" stroke="#0078D4" stroke-width="2" stroke-linejoin="round" stroke-miterlimit="10" fill="none" fill-rule="evenodd"/><rect x="704" y="1457" width="278" height="153" stroke="#0078D4" stroke-width="2" stroke-linejoin="round" stroke-miterlimit="10" fill="none"/><text font-family="Segoe UI,Segoe UI_MSFontService,sans-serif" font-weight="400" font-size="24" transform="translate(777.592 1499)">Monitor and</text><text font-family="Segoe UI,Segoe UI_MSFontService,sans-serif" font-weight="400" font-size="24" transform="translate(803.998 1528)">analyze</text><text font-family="Segoe UI,Segoe UI_MSFontService,sans-serif" font-weight="400" font-size="24" transform="translate(806.405 1557)">project</text><text font-family="Segoe UI,Segoe UI_MSFontService,sans-serif" font-weight="400" font-size="24" transform="translate(775.705 1586)">performance</text><path d="M0.5-7.62411e-07 0.500095 62.1852-0.499905 62.1852-0.5 7.62411e-07ZM4.00009 60.8519 0.000104987 68.8519-3.99991 60.8519Z" transform="matrix(-1 0 0 1 843.5 944.5)"/><path d="M0-0.5 199.369-0.5C199.645-0.5 199.869-0.276142 199.869 0L199.869 603.361 199.369 602.861 277.91 602.861 277.91 603.861 199.369 603.861C199.092 603.861 198.869 603.637 198.869 603.361L198.869 0 199.369 0.5 0 0.5ZM276.577 599.361 284.577 603.361 276.577 607.361Z" transform="matrix(1 0 0 -1 419.5 1248.86)"/><path d="M0-0.5 90.2612-0.5C90.5374-0.5 90.7612-0.276142 90.7612 0L90.7612 272.494 90.2612 271.994 236.128 271.994 236.128 272.994 90.2612 272.994C89.9851 272.994 89.7612 272.77 89.7612 272.494L89.7612 0 90.2612 0.5 0 0.5ZM234.795 268.494 242.795 272.494 234.795 276.494Z" transform="matrix(1 0 0 -1 982.5 867.994)"/><path d="M1436.5 389 1485.21 389C1485.49 389 1485.71 389.224 1485.71 389.5L1485.71 1834.77 1485.21 1834.27 1527.25 1834.27 1527.25 1835.27 1485.21 1835.27C1484.93 1835.27 1484.71 1835.05 1484.71 1834.77L1484.71 389.5 1485.21 390 1436.5 390ZM1525.92 1830.77 1533.92 1834.77 1525.92 1838.77Z"/><path d="M1431.5 1743 1483.1 1743C1483.38 1743 1483.6 1743.22 1483.6 1743.5L1483.6 1835.15 1483.1 1834.65 1528.03 1834.65 1528.03 1835.65 1483.1 1835.65C1482.82 1835.65 1482.6 1835.43 1482.6 1835.15L1482.6 1743.5 1483.1 1744 1431.5 1744ZM1526.7 1831.15 1534.7 1835.15 1526.7 1839.15Z"/><path d="M982.5 1312 1162.82 1312C1163.09 1312 1163.32 1312.22 1163.32 1312.5L1163.32 1549.38 1162.82 1548.88 1212.85 1548.88 1212.85 1549.88 1162.82 1549.88C1162.54 1549.88 1162.32 1549.65 1162.32 1549.38L1162.32 1312.5 1162.82 1313 982.5 1313ZM1211.52 1545.38 1219.52 1549.38 1211.52 1553.38Z"/><path d="M0.5-3.27463e-07 0.500101 153.637-0.499899 153.637-0.5 3.27463e-07ZM4.0001 152.303 0.000104987 160.303-3.9999 152.303Z" transform="matrix(-1 0 0 1 843.5 186.5)"/><rect x="704" y="568" width="279" height="154" fill="#FFFFFF"/><path d="M738.875 568 738.875 722M948.125 568 948.125 722" stroke="#0078D4" stroke-width="2" stroke-linejoin="round" stroke-miterlimit="10" fill="none" fill-rule="evenodd"/><rect x="704" y="568" width="279" height="154" stroke="#0078D4" stroke-width="2" stroke-linejoin="round" stroke-miterlimit="10" fill="none"/><text font-family="Segoe UI,Segoe UI_MSFontService,sans-serif" font-weight="400" font-size="24" transform="translate(800.325 625)">Manage</text><text font-family="Segoe UI,Segoe UI_MSFontService,sans-serif" font-weight="400" font-size="24" transform="translate(806.398 654)">project</text><text font-family="Segoe UI,Segoe UI_MSFontService,sans-serif" font-weight="400" font-size="24" transform="translate(794.912 683)">contracts</text><path d="M0.5-1.60665e-06 0.500189 58.6788-0.499811 58.6788-0.5 1.60665e-06ZM4.00018 57.3454 0.000209974 65.3454-3.99982 57.3454Z" transform="matrix(-1 0 0 1 843.5 500.5)"/><path d="M844 722.5 844 784.685 843 784.685 843 722.5ZM847.5 783.352 843.5 791.352 839.5 783.352Z"/><path d="M844 1166.5 844 1228.69 843 1228.69 843 1166.5ZM847.5 1227.35 843.5 1235.35 839.5 1227.35Z"/><path d="M0.5-1.60665e-06 0.500189 58.6788-0.499811 58.6788-0.5 1.60665e-06ZM4.00018 57.3454 0.000209974 65.3454-3.99982 57.3454Z" transform="matrix(-1 0 0 1 838.5 1390.5)"/><path d="M0-0.5 41.9941-0.5C42.2702-0.5 42.4941-0.276142 42.4941 0L42.4941 922.418 41.9941 921.919 236.128 921.919 236.128 922.918 41.9941 922.918C41.7179 922.918 41.4941 922.695 41.4941 922.418L41.4941 0 41.9941 0.5 0 0.5ZM234.795 918.418 242.795 922.418 234.795 926.418Z" transform="matrix(1 0 0 -1 982.5 1311.92)"/><path d="M982.5 867 1050.41 867C1050.69 867 1050.91 867.224 1050.91 867.5L1050.91 1742.98 1050.41 1742.48 1212.85 1742.48 1212.85 1743.48 1050.41 1743.48C1050.14 1743.48 1049.91 1743.26 1049.91 1742.98L1049.91 867.5 1050.41 868 982.5 868ZM1211.52 1738.98 1219.52 1742.98 1211.52 1746.98Z"/><path d="M0-0.5 119.018-0.5C119.294-0.5 119.518-0.276142 119.518 0L119.518 527.353 119.018 526.853 236.128 526.853 236.128 527.853 119.018 527.853C118.742 527.853 118.518 527.629 118.518 527.353L118.518 0 119.018 0.5 0 0.5ZM234.795 523.353 242.795 527.353 234.795 531.353Z" transform="matrix(1 0 0 -1 982.5 1311.85)"/><path d="M983.5 1089 1141.16 1089C1141.44 1089 1141.66 1089.22 1141.66 1089.5L1141.66 1357.57 1141.16 1357.07 1213.25 1357.07 1213.25 1358.07 1141.16 1358.07C1140.89 1358.07 1140.66 1357.85 1140.66 1357.57L1140.66 1089.5 1141.16 1090 983.5 1090ZM1211.92 1353.57 1219.92 1357.57 1211.92 1361.57Z"/><path d="M983.5 1089 1185.28 1089C1185.55 1089 1185.78 1089.22 1185.78 1089.5L1185.78 1164.66 1185.28 1164.16 1214.69 1164.16 1214.69 1165.16 1185.28 1165.16C1185 1165.16 1184.78 1164.93 1184.78 1164.66L1184.78 1089.5 1185.28 1090 983.5 1090ZM1213.35 1160.66 1221.35 1164.66 1213.35 1168.66Z"/><path d="M0-0.5 228.369-0.5C228.645-0.5 228.869-0.276142 228.869 0L228.869 115.786 228.369 115.286 235.967 115.286 235.967 116.286 228.369 116.286C228.093 116.286 227.869 116.062 227.869 115.786L227.869 0 228.369 0.5 0 0.5ZM234.634 111.786 242.634 115.786 234.634 119.786Z" transform="matrix(1 0 0 -1 983.5 1090.29)"/><path d="M419.5 568 446.551 568C446.827 568 447.051 568.224 447.051 568.5L447.051 1311.9 446.551 1311.4 697.853 1311.4 697.853 1312.4 446.551 1312.4C446.275 1312.4 446.051 1312.18 446.051 1311.9L446.051 568.5 446.551 569 419.5 569ZM696.519 1307.9 704.519 1311.9 696.519 1315.9Z"/><path d="M0-0.5 213.605-0.5C213.881-0.5 214.105-0.276142 214.105 0L214.105 825.947 213.605 825.447 272.654 825.447 272.654 826.447 213.605 826.447C213.329 826.447 213.105 826.223 213.105 825.947L213.105 0 213.605 0.5 0 0.5ZM271.321 821.947 279.321 825.947 271.321 829.947Z" transform="matrix(1 0 0 -1 425.5 1471.45)"/><path d="M419.5 784 526.763 784C527.039 784 527.263 784.224 527.263 784.5L527.263 1089.95 526.763 1089.45 697.41 1089.45 697.41 1090.45 526.763 1090.45C526.487 1090.45 526.263 1090.22 526.263 1089.95L526.263 784.5 526.763 785 419.5 785ZM696.077 1085.95 704.077 1089.95 696.077 1093.95Z"/><path d="M419.5 1014 480.061 1014C480.337 1014 480.561 1014.22 480.561 1014.5L480.561 1090.28 480.061 1089.78 697.41 1089.78 697.41 1090.78 480.061 1090.78C479.785 1090.78 479.561 1090.55 479.561 1090.28L479.561 1014.5 480.061 1015 419.5 1015ZM696.077 1086.28 704.077 1090.28 696.077 1094.28Z"/><path d="M419.5 784 480.359 784C480.635 784 480.859 784.224 480.859 784.5L480.859 867.806 480.359 867.306 698.008 867.306 698.008 868.306 480.359 868.306C480.083 868.306 479.859 868.082 479.859 867.806L479.859 784.5 480.359 785 419.5 785ZM696.674 863.806 704.674 867.806 696.674 871.806Z"/><path d="M0-0.5 150.372-0.5C150.649-0.5 150.872-0.276142 150.872 0L150.872 146.367 150.372 145.867 278.508 145.867 278.508 146.867 150.372 146.867C150.096 146.867 149.872 146.643 149.872 146.367L149.872 0 150.372 0.5 0 0.5ZM277.174 142.367 285.174 146.367 277.174 150.367Z" transform="matrix(1 0 0 -1 419.5 1013.87)"/></g></svg>