<?xml version="1.0" encoding="UTF-8" standalone="no"?>
<svg
   width="1500.941"
   height="1003.8871"
   overflow="hidden"
   version="1.1"
   id="svg212"
   sodipodi:docname="project-to-profit-govern-projects.svg"
   inkscape:version="1.2.2 (732a01da63, 2022-12-09)"
   xmlns:inkscape="http://www.inkscape.org/namespaces/inkscape"
   xmlns:sodipodi="http://sodipodi.sourceforge.net/DTD/sodipodi-0.dtd"
   xmlns="http://www.w3.org/2000/svg"
   xmlns:svg="http://www.w3.org/2000/svg">
  <defs
     id="defs216" />
  <sodipodi:namedview
     id="namedview214"
     pagecolor="#ffffff"
     bordercolor="#000000"
     borderopacity="0.25"
     inkscape:showpageshadow="2"
     inkscape:pageopacity="0.0"
     inkscape:pagecheckerboard="0"
     inkscape:deskcolor="#d1d1d1"
     showgrid="false"
     inkscape:zoom="0.75645694"
     inkscape:cx="926.68857"
     inkscape:cy="901.57147"
     inkscape:window-width="3840"
     inkscape:window-height="2054"
     inkscape:window-x="2725"
     inkscape:window-y="-11"
     inkscape:window-maximized="1"
     inkscape:current-layer="svg212" />
  <g
     id="g210"
     transform="translate(-33.048809,-58.165901)">
    <rect
       x="33.048809"
       y="58.165901"
       width="1500.941"
       height="1003.8871"
       fill="#ffffff"
       id="rect2"
       style="stroke-width:0.639327" />
    <rect
       x="321"
       y="69"
       width="899"
       height="983"
       stroke="#0078d4"
       stroke-width="2"
       stroke-linejoin="round"
       stroke-miterlimit="10"
       fill="#d9d9d9"
       id="rect4" />
    <text
       fill="#0078d4"
       font-family="'Segoe UI', 'Segoe UI_MSFontService', sans-serif"
       font-weight="700"
       font-size="27px"
       transform="translate(349.785,118)"
       id="text6">Business process area</text>
    <path
       d="M 50,106.5 C 50,86.3416 66.3416,70 86.5,70 h 139 c 20.158,0 36.5,16.3416 36.5,36.5 v 0 c 0,20.158 -16.342,36.5 -36.5,36.5 H 86.5 C 66.3416,143 50,126.658 50,106.5 Z"
       stroke="#0078d4"
       stroke-width="2"
       stroke-linejoin="round"
       stroke-miterlimit="10"
       fill="#ffffff"
       fill-rule="evenodd"
       id="path8" />
    <text
       font-family="'Segoe UI', 'Segoe UI_MSFontService', sans-serif"
       font-weight="400"
       font-size="24px"
       transform="translate(131.146,115)"
       id="text10">Start</text>
    <rect
       x="341"
       y="336"
       width="229"
       height="124"
       fill="#ffffff"
       id="rect12" />
    <path
       d="M 369.625,336 V 460 M 541.375,336 V 460"
       stroke="#0078d4"
       stroke-width="2"
       stroke-linejoin="round"
       stroke-miterlimit="10"
       fill="none"
       fill-rule="evenodd"
       id="path14" />
    <rect
       x="341"
       y="336"
       width="229"
       height="124"
       stroke="#0078d4"
       stroke-width="2"
       stroke-linejoin="round"
       stroke-miterlimit="10"
       fill="none"
       id="rect16" />
    <text
       font-family="'Segoe UI', 'Segoe UI_MSFontService', sans-serif"
       font-weight="400"
       font-size="16px"
       transform="translate(399.63,395)"
       id="text18">Develop project</text>
    <text
       font-family="'Segoe UI', 'Segoe UI_MSFontService', sans-serif"
       font-weight="400"
       font-size="16px"
       transform="translate(430.39,414)"
       id="text20">charter</text>
    <rect
       x="346"
       y="143"
       width="229"
       height="139"
       stroke="#00569b"
       stroke-width="2"
       stroke-linejoin="round"
       stroke-miterlimit="10"
       fill="#0078d4"
       id="rect22" />
    <text
       fill="#ffffff"
       font-family="'Segoe UI', 'Segoe UI_MSFontService', sans-serif"
       font-weight="400"
       font-size="24px"
       transform="translate(376.712,221)"
       id="text24">Govern projects</text>
    <path
       d="m 908,966.5 c 0,-20.158 16.342,-36.5 36.5,-36.5 h 138 c 20.16,0 36.5,16.342 36.5,36.5 v 0 c 0,20.158 -16.34,36.5 -36.5,36.5 h -138 C 924.342,1003 908,986.658 908,966.5 Z"
       stroke="#0078d4"
       stroke-width="2"
       stroke-linejoin="round"
       stroke-miterlimit="10"
       fill="#ffffff"
       fill-rule="evenodd"
       id="path26" />
    <text
       font-family="'Segoe UI', 'Segoe UI_MSFontService', sans-serif"
       font-weight="400"
       font-size="24px"
       transform="translate(993.388,975)"
       id="text28">End</text>
    <rect
       x="1293"
       y="250"
       width="229"
       height="139"
       stroke="#00569b"
       stroke-width="2"
       stroke-linejoin="round"
       stroke-miterlimit="10"
       fill="#0078d4"
       id="rect30" />
    <text
       fill="#ffffff"
       font-family="'Segoe UI', 'Segoe UI_MSFontService', sans-serif"
       font-weight="400"
       font-size="24px"
       transform="translate(1324.73,314)"
       id="text32">Manage project</text>
    <text
       fill="#ffffff"
       font-family="'Segoe UI', 'Segoe UI_MSFontService', sans-serif"
       font-weight="400"
       font-size="24px"
       transform="translate(1364.58,343)"
       id="text34">contract</text>
    <path
       d="M 1.49958,-0.035307 2.54888,44.531 -0.450293,44.6016 -1.49958,0.035307 Z M 5.51274,42.9608 1.22583,52.0643 -3.48477,43.1727 Z"
       fill="#0078d4"
       transform="matrix(-1,0,0,1,460.726,282.5)"
       id="path36" />
    <path
       d="m 157,143.5 v 18.784 c 0,0.276 -0.224,0.5 -0.5,0.5 v 0 l 0.5,-0.5 v 12.117 h -1 v -12.117 c 0,-0.276 0.224,-0.5 0.5,-0.5 v 0 l -0.5,0.5 V 143.5 Z m 3.5,29.568 -4,8 -4,-8 z"
       fill="#0078d4"
       id="path38" />
    <rect
       x="41"
       y="357"
       width="229"
       height="140"
       stroke="#00569b"
       stroke-width="2"
       stroke-linejoin="round"
       stroke-miterlimit="10"
       fill="#0078d4"
       id="rect40" />
    <text
       fill="#ffffff"
       font-family="'Segoe UI', 'Segoe UI_MSFontService', sans-serif"
       font-weight="400"
       font-size="24px"
       transform="translate(81.7621,421)"
       id="text42">Create project</text>
    <text
       fill="#ffffff"
       font-family="'Segoe UI', 'Segoe UI_MSFontService', sans-serif"
       font-weight="400"
       font-size="24px"
       transform="translate(124.869,450)"
       id="text44">quote</text>
    <rect
       x="612"
       y="336"
       width="229"
       height="124"
       fill="#ffffff"
       id="rect46" />
    <path
       d="M 640.625,336 V 460 M 812.375,336 V 460"
       stroke="#0078d4"
       stroke-width="2"
       stroke-linejoin="round"
       stroke-miterlimit="10"
       fill="none"
       fill-rule="evenodd"
       id="path48" />
    <rect
       x="612"
       y="336"
       width="229"
       height="124"
       stroke="#0078d4"
       stroke-width="2"
       stroke-linejoin="round"
       stroke-miterlimit="10"
       fill="none"
       id="rect50" />
    <text
       font-family="'Segoe UI', 'Segoe UI_MSFontService', sans-serif"
       font-weight="400"
       font-size="16px"
       transform="translate(671.251,385)"
       id="text52">Develop project</text>
    <text
       font-family="'Segoe UI', 'Segoe UI_MSFontService', sans-serif"
       font-weight="400"
       font-size="16px"
       transform="translate(680.011,404)"
       id="text54">management</text>
    <text
       font-family="'Segoe UI', 'Segoe UI_MSFontService', sans-serif"
       font-weight="400"
       font-size="16px"
       transform="translate(711.677,423)"
       id="text56">plan</text>
    <rect
       x="896"
       y="336"
       width="239"
       height="126"
       fill="#ffffff"
       id="rect58" />
    <path
       d="M 925.875,336 V 462 M 1105.12,336 v 126"
       stroke="#0078d4"
       stroke-width="2"
       stroke-linejoin="round"
       stroke-miterlimit="10"
       fill="none"
       fill-rule="evenodd"
       id="path60" />
    <rect
       x="896"
       y="336"
       width="239"
       height="126"
       stroke="#0078d4"
       stroke-width="2"
       stroke-linejoin="round"
       stroke-miterlimit="10"
       fill="none"
       id="rect62" />
    <text
       font-family="'Segoe UI', 'Segoe UI_MSFontService', sans-serif"
       font-weight="400"
       font-size="16px"
       transform="translate(960.195,395)"
       id="text64">Manage project</text>
    <text
       font-family="'Segoe UI', 'Segoe UI_MSFontService', sans-serif"
       font-weight="400"
       font-size="16px"
       transform="translate(957.508,414)"
       id="text66">communications</text>
    <rect
       x="899"
       y="732"
       width="229"
       height="125"
       fill="#ffffff"
       id="rect68" />
    <path
       d="M 927.625,732 V 857 M 1099.38,732 v 125"
       stroke="#0078d4"
       stroke-width="2"
       stroke-linejoin="round"
       stroke-miterlimit="10"
       fill="none"
       fill-rule="evenodd"
       id="path70" />
    <rect
       x="899"
       y="732"
       width="229"
       height="125"
       stroke="#0078d4"
       stroke-width="2"
       stroke-linejoin="round"
       stroke-miterlimit="10"
       fill="none"
       id="rect72" />
    <text
       font-family="'Segoe UI', 'Segoe UI_MSFontService', sans-serif"
       font-weight="400"
       font-size="16px"
       transform="translate(957.995,791)"
       id="text74">Close project or</text>
    <text
       font-family="'Segoe UI', 'Segoe UI_MSFontService', sans-serif"
       font-weight="400"
       font-size="16px"
       transform="translate(992.468,810)"
       id="text76">phase</text>
    <rect
       x="621"
       y="732"
       width="229"
       height="123"
       fill="#ffffff"
       id="rect78" />
    <path
       d="M 649.625,732 V 855 M 821.375,732 V 855"
       stroke="#0078d4"
       stroke-width="2"
       stroke-linejoin="round"
       stroke-miterlimit="10"
       fill="none"
       fill-rule="evenodd"
       id="path80" />
    <rect
       x="621"
       y="732"
       width="229"
       height="123"
       stroke="#0078d4"
       stroke-width="2"
       stroke-linejoin="round"
       stroke-miterlimit="10"
       fill="none"
       id="rect82" />
    <text
       font-family="'Segoe UI', 'Segoe UI_MSFontService', sans-serif"
       font-weight="400"
       font-size="16px"
       transform="translate(680.292,781)"
       id="text84">Manage project</text>
    <text
       font-family="'Segoe UI', 'Segoe UI_MSFontService', sans-serif"
       font-weight="400"
       font-size="16px"
       transform="translate(681.519,800)"
       id="text86">knowledge and</text>
    <text
       font-family="'Segoe UI', 'Segoe UI_MSFontService', sans-serif"
       font-weight="400"
       font-size="16px"
       transform="translate(696.352,819)"
       id="text88">documents</text>
    <rect
       x="355"
       y="541"
       width="229"
       height="123"
       fill="#ffffff"
       id="rect90" />
    <path
       d="M 383.625,541 V 664 M 555.375,541 V 664"
       stroke="#0078d4"
       stroke-width="2"
       stroke-linejoin="round"
       stroke-miterlimit="10"
       fill="none"
       fill-rule="evenodd"
       id="path92" />
    <rect
       x="355"
       y="541"
       width="229"
       height="123"
       stroke="#0078d4"
       stroke-width="2"
       stroke-linejoin="round"
       stroke-miterlimit="10"
       fill="none"
       id="rect94" />
    <text
       font-family="Calibri, Calibri_MSFontService, sans-serif"
       font-weight="400"
       font-size="16px"
       transform="translate(418.093,598)"
       id="text96">Manage project</text>
    <text
       font-family="Calibri, Calibri_MSFontService, sans-serif"
       font-weight="400"
       font-size="16px"
       transform="translate(447.233,617)"
       id="text98">quality</text>
    <path
       d="M 1.5,-2.15216e-6 1.50009,65.6731 h -3 L -1.5,2.15216e-6 Z M 4.50009,64.1731 l -4.499985013,9 -4.500014987,-9 z"
       fill="#0078d4"
       transform="matrix(-1,0,0,1,1013.5,857.5)"
       id="path100" />
    <rect
       x="1293"
       y="91"
       width="229"
       height="139"
       stroke="#000000"
       stroke-width="2"
       stroke-linejoin="round"
       stroke-miterlimit="10"
       fill="#a0a0a0"
       id="rect102" />
    <text
       font-family="'Segoe UI', 'Segoe UI_MSFontService', sans-serif"
       font-weight="400"
       font-size="24px"
       transform="translate(1325.2,169)"
       id="text104">Project to profit</text>
    <path
       d="m 1410,230.5 v 12.568 h -3 V 230.5 Z m 3,11.068 -4.5,9 -4.5,-9 z"
       fill="#0078d4"
       id="path106" />
    <rect
       x="41"
       y="180"
       width="229"
       height="140"
       stroke="#000000"
       stroke-width="2"
       stroke-linejoin="round"
       stroke-miterlimit="10"
       fill="#a0a0a0"
       id="rect108" />
    <text
       font-family="'Segoe UI', 'Segoe UI_MSFontService', sans-serif"
       font-weight="400"
       font-size="24px"
       transform="translate(95.8554,244)"
       id="text110">Prospect to</text>
    <text
       font-family="'Segoe UI', 'Segoe UI_MSFontService', sans-serif"
       font-weight="400"
       font-size="24px"
       transform="translate(124.869,273)"
       id="text112">quote</text>
    <path
       d="m 0,-1.5 h 37.5085 c 0.8284,0 1.5,0.671573 1.5,1.5 v 407.887 l -1.5,-1.5 h 30.0081 v 3 H 37.5085 c -0.8284,0 -1.5,-0.672 -1.5,-1.5 V 0 l 1.5,1.5 H 0 Z m 66.0166,404.887 9,4.5 -9,4.5 z"
       fill="#0078d4"
       transform="matrix(1,0,0,-1,270.5,621.387)"
       id="path114" />
    <rect
       x="618"
       y="541"
       width="229"
       height="126"
       fill="#ffffff"
       id="rect116" />
    <path
       d="M 646.625,541 V 667 M 818.375,541 V 667"
       stroke="#0078d4"
       stroke-width="2"
       stroke-linejoin="round"
       stroke-miterlimit="10"
       fill="none"
       fill-rule="evenodd"
       id="path118" />
    <rect
       x="618"
       y="541"
       width="229"
       height="126"
       stroke="#0078d4"
       stroke-width="2"
       stroke-linejoin="round"
       stroke-miterlimit="10"
       fill="none"
       id="rect120" />
    <text
       font-family="Calibri, Calibri_MSFontService, sans-serif"
       font-weight="400"
       font-size="16px"
       transform="translate(681.465,600)"
       id="text122">Manage project</text>
    <text
       font-family="Calibri, Calibri_MSFontService, sans-serif"
       font-weight="400"
       font-size="16px"
       transform="translate(718.179,619)"
       id="text124">risks</text>
    <rect
       x="894"
       y="541"
       width="229"
       height="124"
       fill="#ffffff"
       id="rect126" />
    <path
       d="M 922.625,541 V 665 M 1094.38,541 v 124"
       stroke="#0078d4"
       stroke-width="2"
       stroke-linejoin="round"
       stroke-miterlimit="10"
       fill="none"
       fill-rule="evenodd"
       id="path128" />
    <rect
       x="894"
       y="541"
       width="229"
       height="124"
       stroke="#0078d4"
       stroke-width="2"
       stroke-linejoin="round"
       stroke-miterlimit="10"
       fill="none"
       id="rect130" />
    <text
       font-family="Calibri, Calibri_MSFontService, sans-serif"
       font-weight="400"
       font-size="16px"
       transform="translate(957.228,599)"
       id="text132">Manage project</text>
    <text
       font-family="Calibri, Calibri_MSFontService, sans-serif"
       font-weight="400"
       font-size="16px"
       transform="translate(967.361,618)"
       id="text134">stakeholders</text>
    <path
       d="M 0.0246959,-1.4998 39.1974,-0.854773 39.148,2.14482 -0.0246959,1.4998 Z M 37.747,-3.87906 46.6717,0.768504 37.5988,5.11972 Z"
       fill="#0078d4"
       transform="matrix(1,0,0,-1,847.5,604.269)"
       id="path136" />
    <rect
       x="358"
       y="732"
       width="229"
       height="123"
       fill="#ffffff"
       id="rect138" />
    <path
       d="M 386.625,732 V 855 M 558.375,732 V 855"
       stroke="#0078d4"
       stroke-width="2"
       stroke-linejoin="round"
       stroke-miterlimit="10"
       fill="none"
       fill-rule="evenodd"
       id="path140" />
    <rect
       x="358"
       y="732"
       width="229"
       height="123"
       stroke="#0078d4"
       stroke-width="2"
       stroke-linejoin="round"
       stroke-miterlimit="10"
       fill="none"
       id="rect142" />
    <text
       font-family="Calibri, Calibri_MSFontService, sans-serif"
       font-weight="400"
       font-size="16px"
       transform="translate(438.836,780)"
       id="text144">Direct and</text>
    <text
       font-family="Calibri, Calibri_MSFontService, sans-serif"
       font-weight="400"
       font-size="16px"
       transform="translate(421.509,799)"
       id="text146">manage project</text>
    <text
       font-family="Calibri, Calibri_MSFontService, sans-serif"
       font-weight="400"
       font-size="16px"
       transform="translate(455.969,819)"
       id="text148">work</text>
    <path
       d="m 584.5,601 h 25.559 v 3 H 584.5 Z m 24.059,-3 9,4.5 -9,4.5 z"
       fill="#0078d4"
       id="path150" />
    <rect
       x="1293"
       y="410"
       width="229"
       height="146"
       stroke="#00569b"
       stroke-width="2"
       stroke-linejoin="round"
       stroke-miterlimit="10"
       fill="#0078d4"
       id="rect152" />
    <text
       fill="#ffffff"
       font-family="'Segoe UI', 'Segoe UI_MSFontService', sans-serif"
       font-weight="400"
       font-size="24px"
       transform="translate(1324.26,463)"
       id="text154">Manage project</text>
    <text
       fill="#ffffff"
       font-family="'Segoe UI', 'Segoe UI_MSFontService', sans-serif"
       font-weight="400"
       font-size="24px"
       transform="translate(1334.26,492)"
       id="text156">resources and</text>
    <text
       fill="#ffffff"
       font-family="'Segoe UI', 'Segoe UI_MSFontService', sans-serif"
       font-weight="400"
       font-size="24px"
       transform="translate(1355.69,521)"
       id="text158">schedules</text>
    <rect
       x="1293"
       y="576"
       width="229"
       height="146"
       stroke="#00569b"
       stroke-width="2"
       stroke-linejoin="round"
       stroke-miterlimit="10"
       fill="#0078d4"
       id="rect160" />
    <text
       fill="#ffffff"
       font-family="'Segoe UI', 'Segoe UI_MSFontService', sans-serif"
       font-weight="400"
       font-size="24px"
       transform="translate(1324.26,643)"
       id="text162">Manage project</text>
    <text
       fill="#ffffff"
       font-family="'Segoe UI', 'Segoe UI_MSFontService', sans-serif"
       font-weight="400"
       font-size="24px"
       transform="translate(1365.86,672)"
       id="text164">delivery</text>
    <rect
       x="1293"
       y="742"
       width="229"
       height="147"
       stroke="#00569b"
       stroke-width="2"
       stroke-linejoin="round"
       stroke-miterlimit="10"
       fill="#0078d4"
       id="rect166" />
    <text
       fill="#ffffff"
       font-family="'Segoe UI', 'Segoe UI_MSFontService', sans-serif"
       font-weight="400"
       font-size="24px"
       transform="translate(1324.26,810)"
       id="text168">Manage project</text>
    <text
       fill="#ffffff"
       font-family="'Segoe UI', 'Segoe UI_MSFontService', sans-serif"
       font-weight="400"
       font-size="24px"
       transform="translate(1358.61,839)"
       id="text170">financials</text>
    <rect
       x="1293"
       y="909"
       width="229"
       height="146"
       stroke="#00569b"
       stroke-width="2"
       stroke-linejoin="round"
       stroke-miterlimit="10"
       fill="#0078d4"
       id="rect172" />
    <text
       fill="#ffffff"
       font-family="'Segoe UI', 'Segoe UI_MSFontService', sans-serif"
       font-weight="400"
       font-size="24px"
       transform="translate(1341.78,962)"
       id="text174">Monitor and</text>
    <text
       fill="#ffffff"
       font-family="'Segoe UI', 'Segoe UI_MSFontService', sans-serif"
       font-weight="400"
       font-size="24px"
       transform="translate(1328.01,991)"
       id="text176">analyze project</text>
    <text
       fill="#ffffff"
       font-family="'Segoe UI', 'Segoe UI_MSFontService', sans-serif"
       font-weight="400"
       font-size="24px"
       transform="translate(1339.9,1020)"
       id="text178">performance</text>
    <path
       d="m 1409,556.5 v 12.568 h -3 V 556.5 Z m 3,11.068 -4.5,9 -4.5,-9 z"
       fill="#0078d4"
       id="path180" />
    <path
       d="m 1409,722.5 v 12.568 h -3 V 722.5 Z m 3,11.068 -4.5,9 -4.5,-9 z"
       fill="#0078d4"
       id="path182" />
    <path
       d="m 1409,889.494 0.05,12.568 -3,0.012 -0.05,-12.568 z m 3.04,11.057 -4.46,9.017 -4.54,-8.982 z"
       fill="#0078d4"
       id="path184" />
    <path
       d="M 1.49959,-0.0350997 1.7938,12.5348 -1.20538,12.605 -1.49959,0.0350997 Z M 4.75788,10.965 0.469711,20.0678 -4.23965,11.1756 Z"
       fill="#0078d4"
       transform="matrix(-1,0,0,1,1407.97,389.5)"
       id="path186" />
    <rect
       x="41"
       y="551"
       width="229"
       height="139"
       stroke="#000000"
       stroke-width="2"
       stroke-linejoin="round"
       stroke-miterlimit="10"
       fill="#a0a0a0"
       id="rect188" />
    <text
       font-family="'Segoe UI', 'Segoe UI_MSFontService', sans-serif"
       font-weight="400"
       font-size="24px"
       transform="translate(73.2288,629)"
       id="text190">Project to profit</text>
    <path
       d="m 157,497.5 v 47.457 h -1 V 497.5 Z m 3.5,46.124 -4,8 -4,-8 z"
       fill="#0078d4"
       id="path192" />
    <path
       d="m 157,320.5 v 30.844 h -1 V 320.5 Z m 3.5,29.511 -4,8 -4,-8 z"
       fill="#0078d4"
       id="path194" />
    <path
       d="m 1017.28,462.5 v 39.614 c 0,0.828 -0.67,1.5 -1.5,1.5 H 469.5 l 1.5,-1.5 v 32.114 h -3 v -32.114 c 0,-0.828 0.672,-1.5 1.5,-1.5 h 546.28 l -1.5,1.5 V 462.5 Z M 474,532.728 l -4.5,9 -4.5,-9 z"
       fill="#0078d4"
       id="path196" />
    <path
       d="m 1010.14,665.5 v 33.75 c 0,0.828 -0.68,1.5 -1.5,1.5 H 472.5 l 1.5,-1.5 v 26.25 h -3 v -26.25 c 0,-0.829 0.672,-1.5 1.5,-1.5 h 536.14 l -1.5,1.5 V 665.5 Z M 477,724 l -4.5,9 -4.5,-9 z"
       fill="#0078d4"
       id="path198" />
    <path
       d="m 841.519,397 47.292,0.585 -0.037,3 L 841.482,400 Z m 45.829,-2.433 8.944,4.611 -9.055,4.388 z"
       fill="#0078d4"
       id="path200" />
    <path
       d="m 850.521,793 41.029,0.573 -0.042,3 L 850.479,796 Z m 39.571,-2.447 8.936,4.625 -9.062,4.374 z"
       fill="#0078d4"
       id="path202" />
    <path
       d="m 587.5,793 h 26.782 v 3 H 587.5 Z m 25.282,-3 9,4.5 -9,4.5 z"
       fill="#0078d4"
       id="path204" />
    <path
       d="m 0,-1.5 h 44.2465 c 0.8285,0 1.5,0.671573 1.5,1.5 v 861.035 l -1.5,-1.5 H 821.053 l -1.5,1.5 V 702.533 h 3 v 158.502 c 0,0.828 -0.672,1.5 -1.5,1.5 H 44.2465 c -0.8284,0 -1.5,-0.672 -1.5,-1.5 V 0 l 1.5,1.5 H 0 Z m 816.553,705.533 4.5,-9 4.5,9 z"
       fill="#0078d4"
       transform="matrix(-1,0,0,1,1293.55,160.5)"
       id="path206" />
    <path
       d="m 570.5,397 h 35.03 v 3 H 570.5 Z m 33.53,-3 9,4.5 -9,4.5 z"
       fill="#0078d4"
       id="path208" />
  </g>
</svg>
