<?xml version="1.0" encoding="UTF-8" standalone="no"?>
<svg
   width="1271.2755"
   height="1405.8812"
   overflow="hidden"
   version="1.1"
   id="svg206"
   sodipodi:docname="prospect-to-quote-manage-customer-relations.svg"
   inkscape:version="1.2.2 (732a01da63, 2022-12-09)"
   xmlns:inkscape="http://www.inkscape.org/namespaces/inkscape"
   xmlns:sodipodi="http://sodipodi.sourceforge.net/DTD/sodipodi-0.dtd"
   xmlns="http://www.w3.org/2000/svg"
   xmlns:svg="http://www.w3.org/2000/svg">
  <defs
     id="defs210" />
  <sodipodi:namedview
     id="namedview208"
     pagecolor="#ffffff"
     bordercolor="#000000"
     borderopacity="0.25"
     inkscape:showpageshadow="2"
     inkscape:pageopacity="0.0"
     inkscape:pagecheckerboard="0"
     inkscape:deskcolor="#d1d1d1"
     showgrid="false"
     inkscape:zoom="0.53489583"
     inkscape:cx="901.11003"
     inkscape:cy="759.02629"
     inkscape:window-width="3840"
     inkscape:window-height="2054"
     inkscape:window-x="2725"
     inkscape:window-y="-11"
     inkscape:window-maximized="1"
     inkscape:current-layer="svg206" />
  <g
     id="g204"
     transform="translate(-57.955208,-200.03896)">
    <rect
       x="57.955208"
       y="200.03896"
       width="1271.2755"
       height="1405.8812"
       fill="#ffffff"
       id="rect2"
       style="stroke-width:0.696294" />
    <rect
       x="764"
       y="214"
       width="550"
       height="1383"
       stroke="#a6a6a6"
       stroke-width="2"
       stroke-linejoin="round"
       stroke-miterlimit="10"
       fill="#a0a0a0"
       id="rect4" />
    <path
       d="M 91,306.5 C 91,286.342 107.342,270 127.5,270 h 139 c 20.158,0 36.5,16.342 36.5,36.5 v 0 c 0,20.158 -16.342,36.5 -36.5,36.5 h -139 C 107.342,343 91,326.658 91,306.5 Z"
       stroke="#0078d4"
       stroke-width="2"
       stroke-linejoin="round"
       stroke-miterlimit="10"
       fill="#ffffff"
       fill-rule="evenodd"
       id="path6" />
    <text
       font-family="'Segoe UI', 'Segoe UI_MSFontService', sans-serif"
       font-weight="400"
       font-size="24px"
       transform="translate(172.047,315)"
       id="text8">Start</text>
    <rect
       x="914"
       y="230"
       width="262"
       height="153"
       stroke="#0078d4"
       stroke-width="2"
       stroke-linejoin="round"
       stroke-miterlimit="10"
       fill="#0078d4"
       id="rect10" />
    <text
       fill="#ffffff"
       font-family="'Segoe UI Semibold', 'Segoe UI Semibold_MSFontService', sans-serif"
       font-weight="600"
       font-size="24px"
       transform="translate(947.033,300)"
       id="text12">Manage customer</text>
    <text
       fill="#ffffff"
       font-family="'Segoe UI Semibold', 'Segoe UI Semibold_MSFontService', sans-serif"
       font-weight="600"
       font-size="24px"
       transform="translate(975.819,329)"
       id="text14">relationships</text>
    <path
       d="m 0,-0.5 h 305.875 c 0.276,0 0.5,0.223858 0.5,0.5 v 1.04987e-4 l -0.5,-0.499999987 h 299.208 v 1 H 305.875 c -0.276,0 -0.5,-0.223858 -0.5,-0.500000013 V 0 l 0.5,0.5 H 0 Z m 603.75,-3.49989 8,3.999994987 -8,3.999995013 z"
       fill="#0078d4"
       transform="matrix(1,0,0,-1,303.5,306.5)"
       id="path16" />
    <rect
       x="902"
       y="430"
       width="287"
       height="153"
       fill="#ffffff"
       id="rect18" />
    <path
       d="M 937.875,430 V 583 M 1153.12,430 v 153"
       stroke="#0078d4"
       stroke-width="2"
       stroke-linejoin="round"
       stroke-miterlimit="10"
       fill="none"
       fill-rule="evenodd"
       id="path20" />
    <rect
       x="902"
       y="430"
       width="287"
       height="153"
       stroke="#0078d4"
       stroke-width="2"
       stroke-linejoin="round"
       stroke-miterlimit="10"
       fill="none"
       id="rect22" />
    <text
       font-family="'Segoe UI', 'Segoe UI_MSFontService', sans-serif"
       font-weight="400"
       font-size="24px"
       transform="translate(988.209,457)"
       id="text24">Create and</text>
    <text
       font-family="'Segoe UI', 'Segoe UI_MSFontService', sans-serif"
       font-weight="400"
       font-size="24px"
       transform="translate(1002.8,486)"
       id="text26">manage</text>
    <text
       font-family="'Segoe UI', 'Segoe UI_MSFontService', sans-serif"
       font-weight="400"
       font-size="24px"
       transform="translate(998.543,515)"
       id="text28">contacts,</text>
    <text
       font-family="'Segoe UI', 'Segoe UI_MSFontService', sans-serif"
       font-weight="400"
       font-size="24px"
       transform="translate(968.369,544)"
       id="text30">prospects, and</text>
    <text
       font-family="'Segoe UI', 'Segoe UI_MSFontService', sans-serif"
       font-weight="400"
       font-size="24px"
       transform="translate(991.056,573)"
       id="text32">customers</text>
    <rect
       x="900"
       y="936"
       width="287"
       height="153"
       fill="#ffffff"
       id="rect34" />
    <path
       d="m 935.875,936 v 153 M 1151.12,936 v 153"
       stroke="#0078d4"
       stroke-width="2"
       stroke-linejoin="round"
       stroke-miterlimit="10"
       fill="none"
       fill-rule="evenodd"
       id="path36" />
    <rect
       x="900"
       y="936"
       width="287"
       height="153"
       stroke="#0078d4"
       stroke-width="2"
       stroke-linejoin="round"
       stroke-miterlimit="10"
       fill="none"
       id="rect38" />
    <text
       font-family="'Segoe UI', 'Segoe UI_MSFontService', sans-serif"
       font-weight="400"
       font-size="24px"
       transform="translate(1000.7,992)"
       id="text40">Manage</text>
    <text
       font-family="'Segoe UI', 'Segoe UI_MSFontService', sans-serif"
       font-weight="400"
       font-size="24px"
       transform="translate(1009.03,1021)"
       id="text42">loyalty</text>
    <text
       font-family="'Segoe UI', 'Segoe UI_MSFontService', sans-serif"
       font-weight="400"
       font-size="24px"
       transform="translate(992.855,1050)"
       id="text44">programs</text>
    <rect
       x="900"
       y="1177"
       width="287"
       height="153"
       fill="#ffffff"
       id="rect46" />
    <path
       d="m 935.875,1177 v 153 m 215.245,-153 v 153"
       stroke="#0078d4"
       stroke-width="2"
       stroke-linejoin="round"
       stroke-miterlimit="10"
       fill="none"
       fill-rule="evenodd"
       id="path48" />
    <rect
       x="900"
       y="1177"
       width="287"
       height="153"
       stroke="#0078d4"
       stroke-width="2"
       stroke-linejoin="round"
       stroke-miterlimit="10"
       fill="none"
       id="rect50" />
    <text
       font-family="'Segoe UI', 'Segoe UI_MSFontService', sans-serif"
       font-weight="400"
       font-size="24px"
       transform="translate(996.105,1205)"
       id="text52">Organize</text>
    <text
       font-family="'Segoe UI', 'Segoe UI_MSFontService', sans-serif"
       font-weight="400"
       font-size="24px"
       transform="translate(986.532,1234)"
       id="text54">contacts in</text>
    <text
       font-family="'Segoe UI', 'Segoe UI_MSFontService', sans-serif"
       font-weight="400"
       font-size="24px"
       transform="translate(977.605,1263)"
       id="text56">organization</text>
    <text
       font-family="'Segoe UI', 'Segoe UI_MSFontService', sans-serif"
       font-weight="400"
       font-size="24px"
       transform="translate(984.105,1292)"
       id="text58">charts for a</text>
    <text
       font-family="'Segoe UI', 'Segoe UI_MSFontService', sans-serif"
       font-weight="400"
       font-size="24px"
       transform="translate(994.545,1321)"
       id="text60">customer</text>
    <text
       fill="#0078d4"
       font-family="'Segoe UI', 'Segoe UI_MSFontService', sans-serif"
       font-weight="400"
       font-size="43px"
       transform="translate(790.44,1564)"
       id="text62">Business process area</text>
    <path
       d="m 1045,1089.5 v 80.96 h -1 v -80.96 z m 3.5,79.62 -4,8 -4,-8 z"
       fill="#0078d4"
       id="path64" />
    <path
       d="m 939,1443.5 c 0,-20.16 16.342,-36.5 36.5,-36.5 h 139 c 20.16,0 36.5,16.34 36.5,36.5 v 0 c 0,20.16 -16.34,36.5 -36.5,36.5 h -139 c -20.158,0 -36.5,-16.34 -36.5,-36.5 z"
       stroke="#0078d4"
       stroke-width="2"
       stroke-linejoin="round"
       stroke-miterlimit="10"
       fill="#ffffff"
       fill-rule="evenodd"
       id="path66" />
    <text
       font-family="'Segoe UI', 'Segoe UI_MSFontService', sans-serif"
       font-weight="400"
       font-size="24px"
       transform="translate(1025.21,1452)"
       id="text68">End</text>
    <path
       d="m 1045,1330.49 1.31,70.5 -1,0.02 -1.31,-70.5 z m 4.78,69.1 -3.85,8.07 -4.15,-7.92 z"
       fill="#0078d4"
       id="path70" />
    <path
       d="m 1046,383.5 v 23.441 c 0,0.276 -0.22,0.5 -0.5,0.5 v 0 l 0.5,-0.5 v 16.774 h -1 v -16.774 c 0,-0.276 0.22,-0.5 0.5,-0.5 v 0 l -0.5,0.5 V 383.5 Z m 3.5,38.882 -4,8 -4,-8 z"
       fill="#0078d4"
       id="path72" />
    <rect
       x="902"
       y="695"
       width="286"
       height="153"
       fill="#ffffff"
       id="rect74" />
    <path
       d="m 937.75,695 v 153 m 214.5,-153 v 153"
       stroke="#0078d4"
       stroke-width="2"
       stroke-linejoin="round"
       stroke-miterlimit="10"
       fill="none"
       fill-rule="evenodd"
       id="path76" />
    <rect
       x="902"
       y="695"
       width="286"
       height="153"
       stroke="#0078d4"
       stroke-width="2"
       stroke-linejoin="round"
       stroke-miterlimit="10"
       fill="none"
       id="rect78" />
    <text
       font-family="'Segoe UI', 'Segoe UI_MSFontService', sans-serif"
       font-weight="400"
       font-size="24px"
       transform="translate(1011.13,737)"
       id="text80">Create</text>
    <text
       font-family="'Segoe UI', 'Segoe UI_MSFontService', sans-serif"
       font-weight="400"
       font-size="24px"
       transform="translate(978.201,766)"
       id="text82">relationships</text>
    <text
       font-family="'Segoe UI', 'Segoe UI_MSFontService', sans-serif"
       font-weight="400"
       font-size="24px"
       transform="translate(999.854,795)"
       id="text84">between</text>
    <text
       font-family="'Segoe UI', 'Segoe UI_MSFontService', sans-serif"
       font-weight="400"
       font-size="24px"
       transform="translate(990.801,824)"
       id="text86">customers</text>
    <path
       d="M 0.499999,-0.00112167 0.736486,105.416 -0.263511,105.418 -0.499999,0.00112167 Z M 4.23349,104.075 0.251444,112.084 -3.76649,104.093 Z"
       fill="#0078d4"
       transform="matrix(-1,0,0,1,1045.75,583.5)"
       id="path88" />
    <path
       d="M 0.499934,-0.00814911 1.82078,81.0234 0.820912,81.0397 -0.499934,0.00814911 Z M 5.29858,79.6333 1.4295,87.6974 -2.70035,79.7637 Z"
       fill="#0078d4"
       transform="matrix(-1,0,0,1,1045.93,848.5)"
       id="path90" />
    <rect
       x="81"
       y="429"
       width="211"
       height="154"
       stroke="#a6a6a6"
       stroke-width="2"
       stroke-linejoin="round"
       stroke-miterlimit="10"
       fill="#a0a0a0"
       id="rect92" />
    <text
       font-family="'Segoe UI', 'Segoe UI_MSFontService', sans-serif"
       font-weight="400"
       font-size="24px"
       transform="translate(115.187,515)"
       id="text94">Order to cash</text>
    <path
       d="m 0,-0.5 h 55.0616 c 0.2762,0 0.5,0.223858 0.5,0.5 V 2.09974e-4 L 55.0616,-0.49979 h 48.3954 v 1 H 55.0616 c -0.2761,0 -0.5,-0.223858 -0.5,-0.500000026 V 0 l 0.5,0.5 H 0 Z m 102.123,-3.49979 8,3.999999974 -8,4.000000026 z"
       fill="#0078d4"
       transform="matrix(1,0,0,-1,292.5,506.5)"
       id="path96" />
    <path
       d="m 518.5,523 h 40.363 v 1 H 518.5 Z m 39.029,-3.5 8,4 -8,4 z"
       fill="#0078d4"
       id="path98" />
    <rect
       x="403"
       y="429"
       width="262"
       height="154"
       stroke="#0078d4"
       stroke-width="2"
       stroke-linejoin="round"
       stroke-miterlimit="10"
       fill="#0078d4"
       id="rect100" />
    <text
       fill="#ffffff"
       font-family="'Segoe UI Semibold', 'Segoe UI Semibold_MSFontService', sans-serif"
       font-weight="600"
       font-size="24px"
       transform="translate(487.54,486)"
       id="text102">Creating</text>
    <text
       fill="#ffffff"
       font-family="'Segoe UI Semibold', 'Segoe UI Semibold_MSFontService', sans-serif"
       font-weight="600"
       font-size="24px"
       transform="translate(453.84,515)"
       id="text104">customers and</text>
    <text
       fill="#ffffff"
       font-family="'Segoe UI Semibold', 'Segoe UI Semibold_MSFontService', sans-serif"
       font-weight="600"
       font-size="24px"
       transform="translate(439.767,544)"
       id="text106">managing details</text>
    <path
       d="m 518.5,746 h 40.363 v 1 H 518.5 Z m 39.029,-3.5 8,4 -8,4 z"
       fill="#0078d4"
       id="path108" />
    <rect
       x="403"
       y="656"
       width="262"
       height="154"
       stroke="#0078d4"
       stroke-width="2"
       stroke-linejoin="round"
       stroke-miterlimit="10"
       fill="#0078d4"
       id="rect110" />
    <text
       fill="#ffffff"
       font-family="'Segoe UI Semibold', 'Segoe UI Semibold_MSFontService', sans-serif"
       font-weight="600"
       font-size="24px"
       transform="translate(438.957,713)"
       id="text112">Loyalty programs</text>
    <text
       fill="#ffffff"
       font-family="'Segoe UI Semibold', 'Segoe UI Semibold_MSFontService', sans-serif"
       font-weight="600"
       font-size="24px"
       transform="translate(434.683,742)"
       id="text114">and points earned</text>
    <text
       fill="#ffffff"
       font-family="'Segoe UI Semibold', 'Segoe UI Semibold_MSFontService', sans-serif"
       font-weight="600"
       font-size="24px"
       transform="translate(451.883,771)"
       id="text116">on sales orders</text>
    <path
       d="m 665.5,506 h 118.663 c 0.276,0 0.5,0.224 0.5,0.5 v 0.41 l -0.5,-0.5 h 111.996 v 1 H 784.163 c -0.276,0 -0.5,-0.223 -0.5,-0.5 v -0.41 l 0.5,0.5 H 665.5 Z m 229.326,-3.09 8,4 -8,4 z"
       fill="#0078d4"
       id="path118" />
    <path
       d="m 0,-0.5 h 77.8047 c 0.2762,0 0.5,0.223858 0.5,0.5 v 407.624 l -0.5,-0.5 H 228.698 v 1 H 77.8047 c -0.2761,0 -0.5,-0.224 -0.5,-0.5 V 0 l 0.5,0.5 H 0 Z m 227.365,404.124 8,4 -8,4 z"
       fill="#0078d4"
       transform="matrix(1,0,0,-1,667.5,914.124)"
       id="path120" />
    <rect
       x="77"
       y="836"
       width="211"
       height="154"
       stroke="#a6a6a6"
       stroke-width="2"
       stroke-linejoin="round"
       stroke-miterlimit="10"
       fill="#a0a0a0"
       id="rect122" />
    <text
       font-family="'Segoe UI', 'Segoe UI_MSFontService', sans-serif"
       font-weight="400"
       font-size="24px"
       transform="translate(130.653,907)"
       id="text124">Service to</text>
    <text
       font-family="'Segoe UI', 'Segoe UI_MSFontService', sans-serif"
       font-weight="400"
       font-size="24px"
       transform="translate(159.207,936)"
       id="text126">cash</text>
    <path
       d="m 520.5,976 h 40.363 v 1 H 520.5 Z m 39.029,-3.5 8,4 -8,4 z"
       fill="#0078d4"
       id="path128" />
    <rect
       x="405"
       y="837"
       width="262"
       height="154"
       stroke="#0078d4"
       stroke-width="2"
       stroke-linejoin="round"
       stroke-miterlimit="10"
       fill="#0078d4"
       id="rect130" />
    <text
       fill="#ffffff"
       font-family="'Segoe UI Semibold', 'Segoe UI Semibold_MSFontService', sans-serif"
       font-weight="600"
       font-size="24px"
       transform="translate(455.714,894)"
       id="text132">Customer data</text>
    <text
       fill="#ffffff"
       font-family="'Segoe UI Semibold', 'Segoe UI Semibold_MSFontService', sans-serif"
       font-weight="600"
       font-size="24px"
       transform="translate(449.581,923)"
       id="text134">used for service</text>
    <text
       fill="#ffffff"
       font-family="'Segoe UI Semibold', 'Segoe UI Semibold_MSFontService', sans-serif"
       font-weight="600"
       font-size="24px"
       transform="translate(492.254,952)"
       id="text136">delivery</text>
    <rect
       x="403"
       y="1041"
       width="262"
       height="154"
       stroke="#0078d4"
       stroke-width="2"
       stroke-linejoin="round"
       stroke-miterlimit="10"
       fill="#0078d4"
       id="rect138" />
    <text
       fill="#ffffff"
       font-family="'Segoe UI Semibold', 'Segoe UI Semibold_MSFontService', sans-serif"
       font-weight="600"
       font-size="24px"
       transform="translate(438.956,1098)"
       id="text140">Loyalty programs</text>
    <text
       fill="#ffffff"
       font-family="'Segoe UI Semibold', 'Segoe UI Semibold_MSFontService', sans-serif"
       font-weight="600"
       font-size="24px"
       transform="translate(434.683,1127)"
       id="text142">and points earned</text>
    <text
       fill="#ffffff"
       font-family="'Segoe UI Semibold', 'Segoe UI Semibold_MSFontService', sans-serif"
       font-weight="600"
       font-size="24px"
       transform="translate(440.236,1156)"
       id="text144">on service orders</text>
    <path
       d="m 0,-0.5 h 73.7569 c 0.2762,0 0.5,0.223858 0.5,0.5 v 105.346 l -0.5,-0.5 H 228.979 v 1 H 73.7569 c -0.2761,0 -0.5,-0.224 -0.5,-0.5 V 0 l 0.5,0.5 H 0 Z m 227.645,101.846 8,4 -8,4 z"
       fill="#0078d4"
       transform="matrix(1,0,0,-1,665.5,1118.85)"
       id="path146" />
    <rect
       x="76"
       y="1239"
       width="212"
       height="153"
       stroke="#a6a6a6"
       stroke-width="2"
       stroke-linejoin="round"
       stroke-miterlimit="10"
       fill="#a0a0a0"
       id="rect148" />
    <text
       font-family="'Segoe UI', 'Segoe UI_MSFontService', sans-serif"
       font-weight="400"
       font-size="24px"
       transform="translate(115.488,1324)"
       id="text150">Hire to retire</text>
    <rect
       x="76"
       y="1432"
       width="212"
       height="153"
       stroke="#a6a6a6"
       stroke-width="2"
       stroke-linejoin="round"
       stroke-miterlimit="10"
       fill="#a0a0a0"
       id="rect152" />
    <text
       font-family="'Segoe UI', 'Segoe UI_MSFontService', sans-serif"
       font-weight="400"
       font-size="24px"
       transform="translate(119.268,1503)"
       id="text154">Master data</text>
    <text
       font-family="'Segoe UI', 'Segoe UI_MSFontService', sans-serif"
       font-weight="400"
       font-size="24px"
       transform="translate(112.175,1532)"
       id="text156">m</text>
    <text
       font-family="'Segoe UI', 'Segoe UI_MSFontService', sans-serif"
       font-weight="400"
       font-size="24px"
       transform="translate(132.842,1532)"
       id="text158">anagement</text>
    <path
       d="m 0,-0.5 h 63.3331 c 0.2762,0 0.5,0.223858 0.5,0.5 v 63.4778 l -0.5,-0.5 H 227.017 v 1 H 63.3331 c -0.2761,0 -0.5,-0.2239 -0.5,-0.5 V 0 l 0.5,0.5 H 0 Z m 225.684,59.9778 8,4 -8,4 z"
       fill="#0078d4"
       transform="matrix(1,0,0,-1,667.5,1317.98)"
       id="path160" />
    <path
       d="m 0,-0.5 h 67.4628 c 0.2762,0 0.5,0.223858 0.5,0.5 v 255.09 l -0.5,-0.5 H 228.978 v 1 H 67.4628 c -0.2761,0 -0.5,-0.223 -0.5,-0.5 V 0 l 0.5,0.5 H 0 Z m 227.645,251.59 8,4 -8,4 z"
       fill="#0078d4"
       transform="matrix(1,0,0,-1,665.5,1509.59)"
       id="path162" />
    <rect
       x="405"
       y="1240"
       width="262"
       height="154"
       stroke="#0078d4"
       stroke-width="2"
       stroke-linejoin="round"
       stroke-miterlimit="10"
       fill="#0078d4"
       id="rect164" />
    <text
       fill="#ffffff"
       font-family="'Segoe UI Semibold', 'Segoe UI Semibold_MSFontService', sans-serif"
       font-weight="600"
       font-size="24px"
       transform="translate(475.811,1297)"
       id="text166">Account or</text>
    <text
       fill="#ffffff"
       font-family="'Segoe UI Semibold', 'Segoe UI Semibold_MSFontService', sans-serif"
       font-weight="600"
       font-size="24px"
       transform="translate(435.151,1326)"
       id="text168">contact ownership</text>
    <text
       fill="#ffffff"
       font-family="'Segoe UI Semibold', 'Segoe UI Semibold_MSFontService', sans-serif"
       font-weight="600"
       font-size="24px"
       transform="translate(462.218,1355)"
       id="text170">to employees</text>
    <path
       d="M 4.59871e-4,-0.5 108.053,-0.400619 108.052,0.59938 -4.59871e-4,0.5 Z M 106.723,-3.90184 l 7.996,4.007352 -8.004,3.992638 z"
       fill="#0078d4"
       transform="matrix(1,0,0,-1,288.5,1509.61)"
       id="path172" />
    <rect
       x="403"
       y="1432"
       width="262"
       height="153"
       stroke="#0078d4"
       stroke-width="2"
       stroke-linejoin="round"
       stroke-miterlimit="10"
       fill="#0078d4"
       id="rect174" />
    <text
       fill="#ffffff"
       font-family="'Segoe UI Semibold', 'Segoe UI Semibold_MSFontService', sans-serif"
       font-weight="600"
       font-size="24px"
       transform="translate(451.016,1474)"
       id="text176">Managing data</text>
    <text
       fill="#ffffff"
       font-family="'Segoe UI Semibold', 'Segoe UI Semibold_MSFontService', sans-serif"
       font-weight="600"
       font-size="24px"
       transform="translate(482.936,1503)"
       id="text178">quality in</text>
    <text
       fill="#ffffff"
       font-family="'Segoe UI Semibold', 'Segoe UI Semibold_MSFontService', sans-serif"
       font-weight="600"
       font-size="24px"
       transform="translate(482.923,1532)"
       id="text180">customer</text>
    <text
       fill="#ffffff"
       font-family="'Segoe UI Semibold', 'Segoe UI Semibold_MSFontService', sans-serif"
       font-weight="600"
       font-size="24px"
       transform="translate(485.436,1561)"
       id="text182">accounts</text>
    <path
       d="m 0,-0.5 h 36.8576 c 0.2761,0 0.5,0.223858 0.5,0.5 v 346.913 l -0.5,-0.5 h 30.1909 v 1 H 36.8576 c -0.2762,0 -0.5,-0.224 -0.5,-0.5 V 0 l 0.5,0.5 H 0 Z m 65.7152,343.413 8,4 -8,4 z"
       fill="#0078d4"
       transform="matrix(0,1,1,0,187.5,583.5)"
       id="path184" />
    <path
       d="m 0,-0.5 h 128.319 c 0.276,0 0.5,0.223858 0.5,0.5 v 213.198 h -1 V 0 l 0.5,0.5 H 0 Z m 132.319,212.364 -4,8 -4,-8 z"
       fill="#0078d4"
       transform="matrix(0,1,1,0,183.5,990.5)"
       id="path186" />
    <rect
       x="411"
       y="230"
       width="211"
       height="153"
       stroke="#a6a6a6"
       stroke-width="2"
       stroke-linejoin="round"
       stroke-miterlimit="10"
       fill="#a0a0a0"
       id="rect188" />
    <text
       font-family="'Segoe UI', 'Segoe UI_MSFontService', sans-serif"
       font-weight="400"
       font-size="24px"
       transform="translate(456.404,300)"
       id="text190">Prospect to</text>
    <text
       font-family="'Segoe UI', 'Segoe UI_MSFontService', sans-serif"
       font-weight="400"
       font-size="24px"
       transform="translate(485.417,329)"
       id="text192">quote</text>
    <path
       d="M 3.85631e-4,-0.5 396.395,-0.194276 v 1 L -3.85631e-4,0.5 Z M 395.065,-3.6953 l 7.997,4.006166 -8.003,3.993824 z"
       fill="#0078d4"
       transform="matrix(1,0,0,-1,622.5,306.811)"
       id="path194" />
    <path
       d="M 4.84741e-7,-0.5 101.625,-0.499901 v 1 L -4.84741e-7,0.5 Z M 100.292,-3.9999 l 8,4.000004987 -8,3.999995013 z"
       fill="#0078d4"
       transform="matrix(1,0,0,-1,303.5,306.5)"
       id="path196" />
    <path
       d="m 403.5,747 h -88.034 l 0.5,-0.5 v 263.85 l -0.5,-0.5 h 578.873 v 1 H 315.466 c -0.276,0 -0.5,-0.23 -0.5,-0.5 V 746.5 c 0,-0.276 0.224,-0.5 0.5,-0.5 H 403.5 Z m 489.506,259.35 8,4 -8,4 z"
       fill="#0078d4"
       id="path198" />
    <path
       d="m 288.506,1316 110.014,1.25 -0.012,1 -110.014,-1.25 z m 108.72,-2.27 7.954,4.1 -8.045,3.9 z"
       fill="#0078d4"
       id="path200" />
    <path
       d="m 288.504,913 109.482,0.828 -0.008,1 L 288.496,914 Z m 108.175,-2.682 7.969,4.061 -8.03,3.939 z"
       fill="#0078d4"
       id="path202" />
  </g>
</svg>
