<?xml version="1.0" encoding="UTF-8" standalone="no"?>
<svg
   width="1136.6699"
   height="1577.8773"
   overflow="hidden"
   version="1.1"
   id="svg250"
   sodipodi:docname="prospect-to-quote-flow.svg"
   inkscape:version="1.2.2 (732a01da63, 2022-12-09)"
   xmlns:inkscape="http://www.inkscape.org/namespaces/inkscape"
   xmlns:sodipodi="http://sodipodi.sourceforge.net/DTD/sodipodi-0.dtd"
   xmlns="http://www.w3.org/2000/svg"
   xmlns:svg="http://www.w3.org/2000/svg">
  <defs
     id="defs254" />
  <sodipodi:namedview
     id="namedview252"
     pagecolor="#ffffff"
     bordercolor="#000000"
     borderopacity="0.25"
     inkscape:showpageshadow="2"
     inkscape:pageopacity="0.0"
     inkscape:pagecheckerboard="0"
     inkscape:deskcolor="#d1d1d1"
     showgrid="false"
     inkscape:zoom="0.53489583"
     inkscape:cx="605.72541"
     inkscape:cy="869.32814"
     inkscape:window-width="3840"
     inkscape:window-height="2054"
     inkscape:window-x="2725"
     inkscape:window-y="-11"
     inkscape:window-maximized="1"
     inkscape:current-layer="svg250" />
  <g
     id="g248"
     transform="translate(-353.33981,-89.737099)">
    <rect
       x="353.33981"
       y="89.737099"
       width="1136.6699"
       height="1577.8773"
       fill="#ffffff"
       id="rect2"
       style="stroke-width:0.697513" />
    <path
       d="m 408,179 c 0,-19.882 16.118,-36 36,-36 h 139 c 19.882,0 36,16.118 36,36 v 0 c 0,19.882 -16.118,36 -36,36 H 444 c -19.882,0 -36,-16.118 -36,-36 z"
       stroke="#0078d4"
       stroke-width="2"
       stroke-linejoin="round"
       stroke-miterlimit="10"
       fill="none"
       fill-rule="evenodd"
       id="path4" />
    <text
       font-family="'Segoe UI', 'Segoe UI_MSFontService', sans-serif"
       font-weight="400"
       font-size="24px"
       transform="translate(488.9,188)"
       id="text6">Start</text>
    <rect
       x="718"
       y="858"
       width="286"
       height="154"
       fill="#ffffff"
       id="rect8" />
    <path
       d="m 753.75,858 v 154 m 214.5,-154 v 154"
       stroke="#0078d4"
       stroke-width="2"
       stroke-linejoin="round"
       stroke-miterlimit="10"
       fill="none"
       fill-rule="evenodd"
       id="path10" />
    <rect
       x="718"
       y="858"
       width="286"
       height="154"
       stroke="#0078d4"
       stroke-width="2"
       stroke-linejoin="round"
       stroke-miterlimit="10"
       fill="none"
       id="rect12" />
    <text
       font-family="'Segoe UI', 'Segoe UI_MSFontService', sans-serif"
       font-weight="400"
       font-size="24px"
       transform="translate(797.979,929)"
       id="text14">Identify and</text>
    <text
       font-family="'Segoe UI', 'Segoe UI_MSFontService', sans-serif"
       font-weight="400"
       font-size="24px"
       transform="translate(794.979,958)"
       id="text16">q</text>
    <text
       font-family="'Segoe UI', 'Segoe UI_MSFontService', sans-serif"
       font-weight="400"
       font-size="24px"
       transform="translate(809.146,958)"
       id="text18">ualify</text>
    <text
       font-family="'Segoe UI', 'Segoe UI_MSFontService', sans-serif"
       font-weight="400"
       font-size="24px"
       transform="translate(872.533,958)"
       id="text20">l</text>
    <text
       font-family="'Segoe UI', 'Segoe UI_MSFontService', sans-serif"
       font-weight="400"
       font-size="24px"
       transform="translate(878.366,958)"
       id="text22">eads</text>
    <rect
       x="718"
       y="427"
       width="286"
       height="153"
       fill="#ffffff"
       id="rect24" />
    <path
       d="M 753.75,427 V 580 M 968.25,427 V 580"
       stroke="#0078d4"
       stroke-width="2"
       stroke-linejoin="round"
       stroke-miterlimit="10"
       fill="none"
       fill-rule="evenodd"
       id="path26" />
    <rect
       x="718"
       y="427"
       width="286"
       height="153"
       stroke="#0078d4"
       stroke-width="2"
       stroke-linejoin="round"
       stroke-miterlimit="10"
       fill="none"
       id="rect28" />
    <text
       font-family="'Segoe UI', 'Segoe UI_MSFontService', sans-serif"
       font-weight="400"
       font-size="24px"
       transform="translate(798.173,498)"
       id="text30">Define sales</text>
    <text
       font-family="'Segoe UI', 'Segoe UI_MSFontService', sans-serif"
       font-weight="400"
       font-size="24px"
       transform="translate(818.599,527)"
       id="text32">strategy</text>
    <path
       d="m 1266,1583.5 c 0,-20.16 16.34,-36.5 36.5,-36.5 h 138 c 20.16,0 36.5,16.34 36.5,36.5 v 0 c 0,20.16 -16.34,36.5 -36.5,36.5 h -138 c -20.16,0 -36.5,-16.34 -36.5,-36.5 z"
       stroke="#0078d4"
       stroke-width="2"
       stroke-linejoin="round"
       stroke-miterlimit="10"
       fill="none"
       fill-rule="evenodd"
       id="path34" />
    <text
       font-family="'Segoe UI', 'Segoe UI_MSFontService', sans-serif"
       font-weight="400"
       font-size="24px"
       transform="translate(1351.51,1592)"
       id="text36">End</text>
    <rect
       x="730"
       y="103"
       width="262"
       height="153"
       stroke="#0078d4"
       stroke-width="2"
       stroke-linejoin="round"
       stroke-miterlimit="10"
       fill="#0078d4"
       id="rect38" />
    <text
       fill="#ffffff"
       font-family="'Segoe UI Semibold', 'Segoe UI Semibold_MSFontService', sans-serif"
       font-weight="600"
       font-size="24px"
       transform="translate(758.724,188)"
       id="text40">Prospect</text>
    <text
       fill="#ffffff"
       font-family="'Segoe UI Semibold', 'Segoe UI Semibold_MSFontService', sans-serif"
       font-weight="600"
       font-size="24px"
       transform="translate(860.011,188)"
       id="text42">t</text>
    <text
       fill="#ffffff"
       font-family="'Segoe UI Semibold', 'Segoe UI Semibold_MSFontService', sans-serif"
       font-weight="600"
       font-size="24px"
       transform="translate(868.538,188)"
       id="text44">o</text>
    <text
       fill="#ffffff"
       font-family="'Segoe UI Semibold', 'Segoe UI Semibold_MSFontService', sans-serif"
       font-weight="600"
       font-size="24px"
       transform="translate(889.538,188)"
       id="text46">q</text>
    <text
       fill="#ffffff"
       font-family="'Segoe UI Semibold', 'Segoe UI Semibold_MSFontService', sans-serif"
       font-weight="600"
       font-size="24px"
       transform="translate(904.038,188)"
       id="text48">uote</text>
    <rect
       x="396"
       y="805"
       width="211"
       height="153"
       stroke="#a6a6a6"
       stroke-width="2"
       stroke-linejoin="round"
       stroke-miterlimit="10"
       fill="#a0a0a0"
       id="rect50" />
    <text
       font-family="'Segoe UI', 'Segoe UI_MSFontService', sans-serif"
       font-weight="400"
       font-size="24px"
       transform="translate(443.517,876)"
       id="text52">Forecast to</text>
    <text
       font-family="'Segoe UI', 'Segoe UI_MSFontService', sans-serif"
       font-weight="400"
       font-size="24px"
       transform="translate(478.85,905)"
       id="text54">p</text>
    <text
       font-family="'Segoe UI', 'Segoe UI_MSFontService', sans-serif"
       font-weight="400"
       font-size="24px"
       transform="translate(493.017,905)"
       id="text56">lan</text>
    <rect
       x="718"
       y="1074"
       width="286"
       height="153"
       fill="#ffffff"
       id="rect58" />
    <path
       d="m 753.75,1074 v 153 m 214.5,-153 v 153"
       stroke="#0078d4"
       stroke-width="2"
       stroke-linejoin="round"
       stroke-miterlimit="10"
       fill="none"
       fill-rule="evenodd"
       id="path60" />
    <rect
       x="718"
       y="1074"
       width="286"
       height="153"
       stroke="#0078d4"
       stroke-width="2"
       stroke-linejoin="round"
       stroke-miterlimit="10"
       fill="none"
       id="rect62" />
    <text
       font-family="'Segoe UI', 'Segoe UI_MSFontService', sans-serif"
       font-weight="400"
       font-size="24px"
       transform="translate(825.339,1145)"
       id="text64">Pursue</text>
    <text
       font-family="'Segoe UI', 'Segoe UI_MSFontService', sans-serif"
       font-weight="400"
       font-size="24px"
       transform="translate(789.659,1174)"
       id="text66">o</text>
    <text
       font-family="'Segoe UI', 'Segoe UI_MSFontService', sans-serif"
       font-weight="400"
       font-size="24px"
       transform="translate(803.659,1174)"
       id="text68">pportunities</text>
    <rect
       x="718"
       y="643"
       width="286"
       height="153"
       fill="#ffffff"
       id="rect70" />
    <path
       d="M 753.75,643 V 796 M 968.25,643 V 796"
       stroke="#0078d4"
       stroke-width="2"
       stroke-linejoin="round"
       stroke-miterlimit="10"
       fill="none"
       fill-rule="evenodd"
       id="path72" />
    <rect
       x="718"
       y="643"
       width="286"
       height="153"
       stroke="#0078d4"
       stroke-width="2"
       stroke-linejoin="round"
       stroke-miterlimit="10"
       fill="none"
       id="rect74" />
    <text
       font-family="'Segoe UI', 'Segoe UI_MSFontService', sans-serif"
       font-weight="400"
       font-size="24px"
       transform="translate(783.829,714)"
       id="text76">Run</text>
    <text
       font-family="'Segoe UI', 'Segoe UI_MSFontService', sans-serif"
       font-weight="400"
       font-size="24px"
       transform="translate(831.663,714)"
       id="text78">m</text>
    <text
       font-family="'Segoe UI', 'Segoe UI_MSFontService', sans-serif"
       font-weight="400"
       font-size="24px"
       transform="translate(852.329,714)"
       id="text80">arketing</text>
    <text
       font-family="'Segoe UI', 'Segoe UI_MSFontService', sans-serif"
       font-weight="400"
       font-size="24px"
       transform="translate(804.329,743)"
       id="text82">c</text>
    <text
       font-family="'Segoe UI', 'Segoe UI_MSFontService', sans-serif"
       font-weight="400"
       font-size="24px"
       transform="translate(815.496,743)"
       id="text84">ampaigns</text>
    <rect
       x="718"
       y="1291"
       width="285"
       height="154"
       fill="#ffffff"
       id="rect86" />
    <path
       d="m 753.625,1291 v 154 m 213.75,-154 v 154"
       stroke="#0078d4"
       stroke-width="2"
       stroke-linejoin="round"
       stroke-miterlimit="10"
       fill="none"
       fill-rule="evenodd"
       id="path88" />
    <rect
       x="718"
       y="1291"
       width="285"
       height="154"
       stroke="#0078d4"
       stroke-width="2"
       stroke-linejoin="round"
       stroke-miterlimit="10"
       fill="none"
       id="rect90" />
    <text
       font-family="'Segoe UI', 'Segoe UI_MSFontService', sans-serif"
       font-weight="400"
       font-size="24px"
       transform="translate(792.569,1362)"
       id="text92">Estimate and</text>
    <text
       font-family="'Segoe UI', 'Segoe UI_MSFontService', sans-serif"
       font-weight="400"
       font-size="24px"
       transform="translate(800.822,1391)"
       id="text94">q</text>
    <text
       font-family="'Segoe UI', 'Segoe UI_MSFontService', sans-serif"
       font-weight="400"
       font-size="24px"
       transform="translate(814.989,1391)"
       id="text96">uote</text>
    <text
       font-family="'Segoe UI', 'Segoe UI_MSFontService', sans-serif"
       font-weight="400"
       font-size="24px"
       transform="translate(869.469,1391)"
       id="text98">s</text>
    <text
       font-family="'Segoe UI', 'Segoe UI_MSFontService', sans-serif"
       font-weight="400"
       font-size="24px"
       transform="translate(879.636,1391)"
       id="text100">ales</text>
    <rect
       x="718"
       y="1505"
       width="286"
       height="153"
       fill="#ffffff"
       id="rect102" />
    <path
       d="m 753.75,1505 v 153 m 214.5,-153 v 153"
       stroke="#0078d4"
       stroke-width="2"
       stroke-linejoin="round"
       stroke-miterlimit="10"
       fill="none"
       fill-rule="evenodd"
       id="path104" />
    <rect
       x="718"
       y="1505"
       width="286"
       height="153"
       stroke="#0078d4"
       stroke-width="2"
       stroke-linejoin="round"
       stroke-miterlimit="10"
       fill="none"
       id="rect106" />
    <text
       font-family="'Segoe UI', 'Segoe UI_MSFontService', sans-serif"
       font-weight="400"
       font-size="24px"
       transform="translate(818.173,1561)"
       id="text108">Manage</text>
    <text
       font-family="'Segoe UI', 'Segoe UI_MSFontService', sans-serif"
       font-weight="400"
       font-size="24px"
       transform="translate(812.019,1590)"
       id="text110">c</text>
    <text
       font-family="'Segoe UI', 'Segoe UI_MSFontService', sans-serif"
       font-weight="400"
       font-size="24px"
       transform="translate(823.186,1590)"
       id="text112">ustomer</text>
    <text
       font-family="'Segoe UI', 'Segoe UI_MSFontService', sans-serif"
       font-weight="400"
       font-size="24px"
       transform="translate(794.246,1619)"
       id="text114">r</text>
    <text
       font-family="'Segoe UI', 'Segoe UI_MSFontService', sans-serif"
       font-weight="400"
       font-size="24px"
       transform="translate(802.266,1619)"
       id="text116">elationships</text>
    <path
       d="m 862,256.495 1.789,165.573 -0.999,0.011 L 861,256.505 Z m 5.275,164.202 -3.913,8.043 -4.087,-7.956 z"
       fill="#0078d4"
       id="path118" />
    <path
       d="m 619.5,179 h 55.277 c 0.276,0 0.5,0.224 0.5,0.5 v 0.304 l -0.5,-0.5 h 48.61 v 1 h -48.61 c -0.276,0 -0.5,-0.223 -0.5,-0.5 V 179.5 l 0.5,0.5 H 619.5 Z m 102.553,-3.196 8,4 -8,4 z"
       fill="#0078d4"
       id="path120" />
    <path
       d="m 0,-0.5 h 33.8766 c 0.2761,0 0.5,0.223858 0.5,0.5 v 702.497 c 0,0.276 -0.2239,0.5 -0.5,0.5 H 18.6764 v -1 h 15.2002 l -0.5,0.5 V 0 l 0.5,0.5 H 0 Z m 20.0098,706.997 -8,-4 8,-4 z"
       fill="#0078d4"
       transform="matrix(-1,0,0,1,408.51,179.5)"
       id="path122" />
    <path
       d="m 852,581.5 v 55.382 h -1 V 581.5 Z m 3.5,54.049 -4,8 -4,-8 z"
       fill="#0078d4"
       id="path124" />
    <path
       d="m 852,796.5 v 55.382 h -1 V 796.5 Z m 3.5,54.049 -4,8 -4,-8 z"
       fill="#0078d4"
       id="path126" />
    <path
       d="m 852,1012.5 v 55.38 h -1 v -55.38 z m 3.5,54.05 -4,8 -4,-8 z"
       fill="#0078d4"
       id="path128" />
    <path
       d="M 0.499981,-0.0043661 1.00345,57.6496 0.0034842,57.6584 -0.499981,0.0043661 Z M 4.49167,56.2858 0.56168,64.3204 -3.50803,56.3557 Z"
       fill="#0078d4"
       transform="matrix(-1,0,0,1,851.062,1227.5)"
       id="path130" />
    <path
       d="m 851,1445.5 0.499,53.11 -1,0.01 L 850,1445.5 Z m 3.986,51.74 -3.924,8.04 -4.075,-7.96 z"
       fill="#0078d4"
       id="path132" />
    <rect
       x="1252"
       y="643"
       width="211"
       height="153"
       stroke="#a6a6a6"
       stroke-width="2"
       stroke-linejoin="round"
       stroke-miterlimit="10"
       fill="#a0a0a0"
       id="rect134" />
    <text
       font-family="'Segoe UI', 'Segoe UI_MSFontService', sans-serif"
       font-weight="400"
       font-size="24px"
       transform="translate(1305.65,714)"
       id="text136">Service to</text>
    <text
       font-family="'Segoe UI', 'Segoe UI_MSFontService', sans-serif"
       font-weight="400"
       font-size="24px"
       transform="translate(1334.21,743)"
       id="text138">c</text>
    <text
       font-family="'Segoe UI', 'Segoe UI_MSFontService', sans-serif"
       font-weight="400"
       font-size="24px"
       transform="translate(1345.37,743)"
       id="text140">ash</text>
    <rect
       x="1252"
       y="427"
       width="211"
       height="153"
       stroke="#a6a6a6"
       stroke-width="2"
       stroke-linejoin="round"
       stroke-miterlimit="10"
       fill="#a0a0a0"
       id="rect142" />
    <text
       font-family="'Segoe UI', 'Segoe UI_MSFontService', sans-serif"
       font-weight="400"
       font-size="24px"
       transform="translate(1280.83,512)"
       id="text144">Order to</text>
    <text
       font-family="'Segoe UI', 'Segoe UI_MSFontService', sans-serif"
       font-weight="400"
       font-size="24px"
       transform="translate(1377,512)"
       id="text146">c</text>
    <text
       font-family="'Segoe UI', 'Segoe UI_MSFontService', sans-serif"
       font-weight="400"
       font-size="24px"
       transform="translate(1388.16,512)"
       id="text148">ash</text>
    <path
       d="m 1004.5,1581 254.65,2.35 -0.01,1 -254.64,-2.35 z m 253.35,-1.16 7.96,4.07 -8.03,3.93 z"
       fill="#0078d4"
       id="path150" />
    <path
       d="m 0,-0.5 h 55.2768 c 0.2761,0 0.5,0.223858 0.5,0.5 v 161.627 l -0.5,-0.5 h 48.6102 v 1 H 55.2768 c -0.2762,0 -0.5,-0.224 -0.5,-0.5 V 0 l 0.5,0.5 H 0 Z m 102.553,158.127 8,4 -8,4 z"
       fill="#0078d4"
       transform="matrix(1,0,0,-1,607.5,882.127)"
       id="path152" />
    <path
       d="m 0,-0.5 h 217.058 c 0.276,0 0.5,0.223858 0.5,0.5 v 861.358 l -0.5,-0.5 h 23.875 v 1 h -23.875 c -0.276,0 -0.5,-0.224 -0.5,-0.5 V 0 l 0.5,0.5 H 0 Z m 239.599,857.858 8,4 -8,4 z"
       fill="#0078d4"
       transform="matrix(1,0,0,-1,1004.5,1581.86)"
       id="path154" />
    <path
       d="M 1171,1581.93 V 504.5 c 0,-0.276 0.22,-0.5 0.5,-0.5 h 74.16 v 1 h -74.16 l 0.5,-0.5 v 1077.43 z m 73.33,-1081.43 8,4 -8,4 z"
       fill="#0078d4"
       id="path156" />
    <rect
       x="397"
       y="1191"
       width="212"
       height="153"
       stroke="#a6a6a6"
       stroke-width="2"
       stroke-linejoin="round"
       stroke-miterlimit="10"
       fill="#a0a0a0"
       id="rect158" />
    <text
       font-family="'Segoe UI', 'Segoe UI_MSFontService', sans-serif"
       font-weight="400"
       font-size="24px"
       transform="translate(451.869,1261)"
       id="text160">Record to</text>
    <text
       font-family="'Segoe UI', 'Segoe UI_MSFontService', sans-serif"
       font-weight="400"
       font-size="24px"
       transform="translate(469.929,1290)"
       id="text162">r</text>
    <text
       font-family="'Segoe UI', 'Segoe UI_MSFontService', sans-serif"
       font-weight="400"
       font-size="24px"
       transform="translate(477.949,1290)"
       id="text164">eport</text>
    <rect
       x="396"
       y="1394"
       width="211"
       height="153"
       stroke="#a6a6a6"
       stroke-width="2"
       stroke-linejoin="round"
       stroke-miterlimit="10"
       fill="#a0a0a0"
       id="rect166" />
    <text
       font-family="'Segoe UI', 'Segoe UI_MSFontService', sans-serif"
       font-weight="400"
       font-size="24px"
       transform="translate(434.997,1479)"
       id="text168">Hire to</text>
    <text
       font-family="'Segoe UI', 'Segoe UI_MSFontService', sans-serif"
       font-weight="400"
       font-size="24px"
       transform="translate(513.33,1479)"
       id="text170">r</text>
    <text
       font-family="'Segoe UI', 'Segoe UI_MSFontService', sans-serif"
       font-weight="400"
       font-size="24px"
       transform="translate(521.35,1479)"
       id="text172">etire</text>
    <path
       d="m 0,-0.5 h 35.8452 c 0.2762,0 0.5,0.223858 0.5,0.5 v 1291.61 c 0,0.28 -0.2238,0.5 -0.5,0.5 H 18.6764 v -1 h 17.1688 l -0.5,0.5 V 0 l 0.5,0.5 H 0 Z m 20.0098,1296.11 -8,-4 8,-4 z"
       fill="#0078d4"
       transform="matrix(-1,0,0,1,408.51,179.5)"
       id="path174" />
    <path
       d="m 609.5,1267 h 54.684 c 0.276,0 0.5,0.22 0.5,0.5 v 313.89 l -0.5,-0.5 h 48.017 v 1 h -48.017 c -0.276,0 -0.5,-0.22 -0.5,-0.5 V 1267.5 l 0.5,0.5 H 609.5 Z m 101.368,310.39 8,4 -8,4 z"
       fill="#0078d4"
       id="path176" />
    <path
       d="m 0,-0.5 h 33.9727 c 0.2761,0 0.5,0.223858 0.5,0.5 v 209.564 h -1 V 0 l 0.5,0.5 H 0 Z m 37.9727,208.731 -4,8 -4,-8 z"
       fill="#0078d4"
       transform="matrix(0,1,1,0,502.5,1547.5)"
       id="path178" />
    <path
       d="m 0,-0.5 h 34.8242 c 0.2762,0 0.5,0.223858 0.5,0.5 v 1088.33 c 0,0.28 -0.2238,0.5 -0.5,0.5 H 17.4909 v -1 h 17.3333 l -0.5,0.5 V 0 l 0.5,0.5 H 0 Z m 18.8243,1092.83 -8,-4 8,-4 z"
       fill="#0078d4"
       transform="matrix(-1,0,0,1,408.324,179.5)"
       id="path180" />
    <rect
       x="397"
       y="428"
       width="212"
       height="153"
       stroke="#a6a6a6"
       stroke-width="2"
       stroke-linejoin="round"
       stroke-miterlimit="10"
       fill="#a0a0a0"
       id="rect182" />
    <text
       font-family="'Segoe UI', 'Segoe UI_MSFontService', sans-serif"
       font-weight="400"
       font-size="24px"
       transform="translate(438.442,470)"
       id="text184">Product and</text>
    <text
       font-family="'Segoe UI', 'Segoe UI_MSFontService', sans-serif"
       font-weight="400"
       font-size="24px"
       transform="translate(466.389,499)"
       id="text186">s</text>
    <text
       font-family="'Segoe UI', 'Segoe UI_MSFontService', sans-serif"
       font-weight="400"
       font-size="24px"
       transform="translate(476.555,499)"
       id="text188">ervice</text>
    <text
       font-family="'Segoe UI', 'Segoe UI_MSFontService', sans-serif"
       font-weight="400"
       font-size="24px"
       transform="translate(460.929,528)"
       id="text190">l</text>
    <text
       font-family="'Segoe UI', 'Segoe UI_MSFontService', sans-serif"
       font-weight="400"
       font-size="24px"
       transform="translate(466.762,528)"
       id="text192">ifecycle</text>
    <text
       font-family="'Segoe UI', 'Segoe UI_MSFontService', sans-serif"
       font-weight="400"
       font-size="24px"
       transform="translate(432.869,557)"
       id="text194">m</text>
    <text
       font-family="'Segoe UI', 'Segoe UI_MSFontService', sans-serif"
       font-weight="400"
       font-size="24px"
       transform="translate(453.535,557)"
       id="text196">anagement</text>
    <path
       d="m 609.5,504 h 103.887 v 1 H 609.5 Z m 102.553,-3.5 8,4 -8,4 z"
       fill="#0078d4"
       id="path198" />
    <path
       d="m 0,-0.5 h 34.8245 c 0.2761,0 0.5,0.223858 0.5,0.5 v 325.53 c 0,0.276 -0.2239,0.5 -0.5,0.5 H 17.4911 v -1 h 17.3334 l -0.5,0.5 V 0 l 0.5,0.5 H 0 Z m 18.8245,330.03 -8,-4 8,-4 z"
       fill="#0078d4"
       transform="matrix(-1,0,0,1,408.325,179.5)"
       id="path200" />
    <rect
       x="1252"
       y="235"
       width="211"
       height="154"
       stroke="#a6a6a6"
       stroke-width="2"
       stroke-linejoin="round"
       stroke-miterlimit="10"
       fill="#a0a0a0"
       id="rect202" />
    <text
       font-family="'Segoe UI', 'Segoe UI_MSFontService', sans-serif"
       font-weight="400"
       font-size="24px"
       transform="translate(1293.4,306)"
       id="text204">Inventory to</text>
    <text
       font-family="'Segoe UI', 'Segoe UI_MSFontService', sans-serif"
       font-weight="400"
       font-size="24px"
       transform="translate(1322.44,335)"
       id="text206">d</text>
    <text
       font-family="'Segoe UI', 'Segoe UI_MSFontService', sans-serif"
       font-weight="400"
       font-size="24px"
       transform="translate(1336.61,335)"
       id="text208">eliver</text>
    <rect
       x="396"
       y="256"
       width="211"
       height="153"
       stroke="#a6a6a6"
       stroke-width="2"
       stroke-linejoin="round"
       stroke-miterlimit="10"
       fill="#a0a0a0"
       id="rect210" />
    <text
       font-family="'Segoe UI', 'Segoe UI_MSFontService', sans-serif"
       font-weight="400"
       font-size="24px"
       transform="translate(434.997,341)"
       id="text212">Hire to</text>
    <text
       font-family="'Segoe UI', 'Segoe UI_MSFontService', sans-serif"
       font-weight="400"
       font-size="24px"
       transform="translate(513.33,341)"
       id="text214">r</text>
    <text
       font-family="'Segoe UI', 'Segoe UI_MSFontService', sans-serif"
       font-weight="400"
       font-size="24px"
       transform="translate(521.35,341)"
       id="text216">etire</text>
    <path
       d="m 607.5,332 h 55.277 c 0.276,0 0.5,0.224 0.5,0.5 v 171.509 l -0.5,-0.5 h 48.61 v 1 h -48.61 c -0.276,0 -0.5,-0.224 -0.5,-0.5 V 332.5 l 0.5,0.5 H 607.5 Z m 102.553,168.009 8,4 -8,4 z"
       fill="#0078d4"
       id="path218" />
    <path
       d="m 0,-0.5 h 33.8765 c 0.2761,0 0.5,0.223858 0.5,0.5 v 153.29 c 0,0.277 -0.2239,0.5 -0.5,0.5 H 18.6764 v -1 h 15.2001 l -0.5,0.5 V 0 l 0.5,0.5 H 0 Z m 20.0098,157.79 -8,-4 8,-4 z"
       fill="#0078d4"
       transform="matrix(-1,0,0,1,408.51,179.5)"
       id="path220" />
    <rect
       x="395"
       y="616"
       width="211"
       height="154"
       stroke="#a6a6a6"
       stroke-width="2"
       stroke-linejoin="round"
       stroke-miterlimit="10"
       fill="#a0a0a0"
       id="rect222" />
    <text
       font-family="'Segoe UI', 'Segoe UI_MSFontService', sans-serif"
       font-weight="400"
       font-size="24px"
       transform="translate(449.602,687)"
       id="text224">Record to</text>
    <text
       font-family="'Segoe UI', 'Segoe UI_MSFontService', sans-serif"
       font-weight="400"
       font-size="24px"
       transform="translate(467.662,716)"
       id="text226">r</text>
    <text
       font-family="'Segoe UI', 'Segoe UI_MSFontService', sans-serif"
       font-weight="400"
       font-size="24px"
       transform="translate(475.682,716)"
       id="text228">eport</text>
    <path
       d="m 0,-0.5 h 55.8173 c 0.2762,0 0.5,0.223858 0.5,0.5 v 189.214 l -0.5,-0.5 h 49.1507 v 1 H 55.8173 c -0.2761,0 -0.5,-0.224 -0.5,-0.5 V 0 l 0.5,0.5 H 0 Z m 103.635,185.714 8,4 -8,4 z"
       fill="#0078d4"
       transform="matrix(1,0,0,-1,606.5,693.714)"
       id="path230" />
    <path
       d="m 0,-0.5 h 34.2774 c 0.2761,0 0.5,0.223858 0.5,0.5 v 514.013 c 0,0.277 -0.2239,0.5 -0.5,0.5 H 19.7577 v -1 h 14.5197 l -0.5,0.5 V 0 l 0.5,0.5 H 0 Z m 21.091,518.513 -8,-4 8,-4 z"
       fill="#0078d4"
       transform="matrix(-1,0,0,1,408.591,179.5)"
       id="path232" />
    <rect
       x="395"
       y="1003"
       width="211"
       height="154"
       stroke="#a6a6a6"
       stroke-width="2"
       stroke-linejoin="round"
       stroke-miterlimit="10"
       fill="#a0a0a0"
       id="rect234" />
    <text
       font-family="'Segoe UI', 'Segoe UI_MSFontService', sans-serif"
       font-weight="400"
       font-size="24px"
       transform="translate(449.769,1074)"
       id="text236">Project to</text>
    <text
       font-family="'Segoe UI', 'Segoe UI_MSFontService', sans-serif"
       font-weight="400"
       font-size="24px"
       transform="translate(471.976,1103)"
       id="text238">p</text>
    <text
       font-family="'Segoe UI', 'Segoe UI_MSFontService', sans-serif"
       font-weight="400"
       font-size="24px"
       transform="translate(486.142,1103)"
       id="text240">rofit</text>
    <path
       d="m 0,-0.5 h 35.5039 c 0.2762,0 0.5,0.223858 0.5,0.5 v 901.071 c 0,0.277 -0.2238,0.5 -0.5,0.5 H 19.7578 v -0.999 h 15.7461 l -0.5,0.499 V 0 l 0.5,0.5 H 0 Z m 21.0911,905.571 -8,-4 8,-4 z"
       fill="#0078d4"
       transform="matrix(-1,0,0,1,408.591,179.5)"
       id="path242" />
    <path
       d="m 0,-0.5 h 55.8174 c 0.2761,0 0.5,0.223858 0.5,0.5 v 144.862 l -0.5,-0.5 h 49.1506 v 1 H 55.8174 c -0.2762,0 -0.5,-0.223 -0.5,-0.5 V 0 l 0.5,0.5 H 0 Z m 103.635,141.362 8,4 -8,4 z"
       fill="#0078d4"
       transform="matrix(1,0,0,-1,606.5,1080.36)"
       id="path244" />
    <path
       d="m 0,-0.5 h 124.414 c 0.276,0 0.5,0.223858 0.5,0.5 v 1055.99 l -0.5,-0.5 H 242.16 v 1 H 124.414 c -0.276,0 -0.5,-0.22 -0.5,-0.5 V 0 l 0.5,0.5 H 0 Z m 240.827,1052.49 8,4 -8,4 z"
       fill="#0078d4"
       transform="matrix(1,0,0,-1,1003.5,1368.49)"
       id="path246" />
  </g>
</svg>
