<svg width="1920" height="1920" xmlns="http://www.w3.org/2000/svg" xmlns:xlink="http://www.w3.org/1999/xlink" overflow="hidden"><g><rect x="0" y="0" width="1920" height="1920" fill="#FFFFFF"/><path d="M41 319.7C41 287.281 67.2811 261 99.7005 261L569.299 261C601.719 261 628 287.281 628 319.7L628 1672.3C628 1704.72 601.719 1731 569.299 1731L99.7005 1731C67.2811 1731 41 1704.72 41 1672.3Z" fill="#CBCBCB" fill-rule="evenodd"/><text font-family="Segoe UI Semibold,Segoe UI Semibold_MSFontService,sans-serif" font-weight="600" font-size="72" transform="translate(175.726 463)">Upstream</text><text font-family="Segoe UI Semibold,Segoe UI Semibold_MSFontService,sans-serif" font-weight="600" font-size="72" transform="translate(176.133 549)">processes</text><path d="M94.5001 731.4C94.5001 715.439 107.439 702.5 123.4 702.5L535.6 702.5C551.561 702.5 564.5 715.439 564.5 731.4L564.5 962.6C564.5 978.561 551.561 991.5 535.6 991.5L123.4 991.5C107.439 991.5 94.5001 978.561 94.5001 962.6Z" stroke="#000000" stroke-width="1.13333" stroke-linejoin="round" stroke-miterlimit="10" fill="#FFFFFF" fill-rule="evenodd"/><text font-family="Segoe UI,Segoe UI_MSFontService,sans-serif" font-weight="400" font-size="48" transform="translate(120.436 805)">Product and</text><text font-family="Segoe UI,Segoe UI_MSFontService,sans-serif" font-weight="400" font-size="48" transform="translate(391.516 805)">s</text><text font-family="Segoe UI,Segoe UI_MSFontService,sans-serif" font-weight="400" font-size="48" transform="translate(411.882 805)">ervice</text><text font-family="Segoe UI,Segoe UI_MSFontService,sans-serif" font-weight="400" font-size="48" transform="translate(245.236 863)">l</text><text font-family="Segoe UI,Segoe UI_MSFontService,sans-serif" font-weight="400" font-size="48" transform="translate(256.862 863)">ifecycle</text><text font-family="Segoe UI,Segoe UI_MSFontService,sans-serif" font-weight="400" font-size="48" transform="translate(188.656 920)">m</text><text font-family="Segoe UI,Segoe UI_MSFontService,sans-serif" font-weight="400" font-size="48" transform="translate(230.002 920)">anagement</text><path d="M94.5001 1064.4C94.5001 1048.44 107.439 1035.5 123.4 1035.5L535.6 1035.5C551.561 1035.5 564.5 1048.44 564.5 1064.4L564.5 1295.6C564.5 1311.56 551.561 1324.5 535.6 1324.5L123.4 1324.5C107.439 1324.5 94.5001 1311.56 94.5001 1295.6Z" stroke="#000000" stroke-width="1.13333" stroke-linejoin="round" stroke-miterlimit="10" fill="#FFFFFF" fill-rule="evenodd"/><text font-family="Segoe UI,Segoe UI_MSFontService,sans-serif" font-weight="400" font-size="48" transform="translate(160.112 1196)">Forecast to</text><text font-family="Segoe UI,Segoe UI_MSFontService,sans-serif" font-weight="400" font-size="48" transform="translate(406.372 1196)">p</text><text font-family="Segoe UI,Segoe UI_MSFontService,sans-serif" font-weight="400" font-size="48" transform="translate(434.592 1196)">lan</text><path d="M94.5001 1397.4C94.5001 1381.44 107.439 1368.5 123.4 1368.5L535.6 1368.5C551.561 1368.5 564.5 1381.44 564.5 1397.4L564.5 1628.6C564.5 1644.56 551.561 1657.5 535.6 1657.5L123.4 1657.5C107.439 1657.5 94.5001 1644.56 94.5001 1628.6Z" stroke="#000000" stroke-width="1.13333" stroke-linejoin="round" stroke-miterlimit="10" fill="#FFFFFF" fill-rule="evenodd"/><text font-family="Segoe UI,Segoe UI_MSFontService,sans-serif" font-weight="400" font-size="48" transform="translate(163.462 1529)">Project to</text><text font-family="Segoe UI,Segoe UI_MSFontService,sans-serif" font-weight="400" font-size="48" transform="translate(380.002 1529)">p</text><text font-family="Segoe UI,Segoe UI_MSFontService,sans-serif" font-weight="400" font-size="48" transform="translate(408.222 1529)">rofit</text><path d="M666 319.8C666 287.326 692.326 261 724.8 261L1195.2 261C1227.67 261 1254 287.326 1254 319.8L1254 1672.2C1254 1704.67 1227.67 1731 1195.2 1731L724.8 1731C692.326 1731 666 1704.67 666 1672.2Z" fill="#CBCBCB" fill-rule="evenodd"/><text font-family="Segoe UI Semibold,Segoe UI Semibold_MSFontService,sans-serif" font-weight="600" font-size="72" transform="translate(773.997 463)">Prospect</text><text font-family="Segoe UI Semibold,Segoe UI Semibold_MSFontService,sans-serif" font-weight="600" font-size="72" transform="translate(1077.42 463)">t</text><text font-family="Segoe UI Semibold,Segoe UI Semibold_MSFontService,sans-serif" font-weight="600" font-size="72" transform="translate(1103.01 463)">o</text><text font-family="Segoe UI Semibold,Segoe UI Semibold_MSFontService,sans-serif" font-weight="600" font-size="72" transform="translate(863.883 549)">q</text><text font-family="Segoe UI Semibold,Segoe UI Semibold_MSFontService,sans-serif" font-weight="600" font-size="72" transform="translate(907.263 549)">uote</text><path d="M725.5 715.5C725.5 708.873 730.873 703.5 737.5 703.5L1183.5 703.5C1190.13 703.5 1195.5 708.873 1195.5 715.5L1195.5 811.5C1195.5 818.128 1190.13 823.5 1183.5 823.5L737.5 823.5C730.873 823.5 725.5 818.128 725.5 811.5Z" stroke="#000000" stroke-width="1.13333" stroke-linejoin="round" stroke-miterlimit="10" fill="#FFFFFF" fill-rule="evenodd"/><text font-family="Segoe UI,Segoe UI_MSFontService,sans-serif" font-weight="400" font-size="48" transform="translate(814.867 750)">Define</text><text font-family="Segoe UI,Segoe UI_MSFontService,sans-serif" font-weight="400" font-size="48" transform="translate(965.687 750)">a</text><text font-family="Segoe UI,Segoe UI_MSFontService,sans-serif" font-weight="400" font-size="48" transform="translate(1003.25 750)">sales</text><text font-family="Segoe UI,Segoe UI_MSFontService,sans-serif" font-weight="400" font-size="48" transform="translate(874.887 808)">strategy</text><path d="M725.5 854.5C725.5 847.873 730.873 842.5 737.5 842.5L1183.5 842.5C1190.13 842.5 1195.5 847.873 1195.5 854.5L1195.5 950.5C1195.5 957.128 1190.13 962.5 1183.5 962.5L737.5 962.5C730.873 962.5 725.5 957.128 725.5 950.5Z" stroke="#000000" stroke-width="1.13333" stroke-linejoin="round" stroke-miterlimit="10" fill="#FFFFFF" fill-rule="evenodd"/><text font-family="Segoe UI,Segoe UI_MSFontService,sans-serif" font-weight="400" font-size="48" transform="translate(805.013 889)">Run marketing</text><text font-family="Segoe UI,Segoe UI_MSFontService,sans-serif" font-weight="400" font-size="48" transform="translate(846.313 947)">campaigns</text><path d="M725.5 992.6C725.5 985.917 730.917 980.5 737.6 980.5L1183.4 980.5C1190.08 980.5 1195.5 985.917 1195.5 992.6L1195.5 1089.4C1195.5 1096.08 1190.08 1101.5 1183.4 1101.5L737.6 1101.5C730.917 1101.5 725.5 1096.08 725.5 1089.4Z" stroke="#000000" stroke-width="1.13333" stroke-linejoin="round" stroke-miterlimit="10" fill="#FFFFFF" fill-rule="evenodd"/><text font-family="Segoe UI,Segoe UI_MSFontService,sans-serif" font-weight="400" font-size="48" transform="translate(755.747 1028)">Identify and qualify</text><text font-family="Segoe UI,Segoe UI_MSFontService,sans-serif" font-weight="400" font-size="48" transform="translate(905.107 1086)">leads</text><path d="M725.5 1131.6C725.5 1124.92 730.917 1119.5 737.6 1119.5L1183.4 1119.5C1190.08 1119.5 1195.5 1124.92 1195.5 1131.6L1195.5 1228.4C1195.5 1235.08 1190.08 1240.5 1183.4 1240.5L737.6 1240.5C730.917 1240.5 725.5 1235.08 725.5 1228.4Z" stroke="#000000" stroke-width="1.13333" stroke-linejoin="round" stroke-miterlimit="10" fill="#FFFFFF" fill-rule="evenodd"/><text font-family="Segoe UI,Segoe UI_MSFontService,sans-serif" font-weight="400" font-size="48" transform="translate(738.407 1196)">Pursue opportunities</text><path d="M725.5 1270.5C725.5 1263.87 730.873 1258.5 737.5 1258.5L1183.5 1258.5C1190.13 1258.5 1195.5 1263.87 1195.5 1270.5L1195.5 1366.5C1195.5 1373.13 1190.13 1378.5 1183.5 1378.5L737.5 1378.5C730.873 1378.5 725.5 1373.13 725.5 1366.5Z" stroke="#000000" stroke-width="1.13333" stroke-linejoin="round" stroke-miterlimit="10" fill="#FFFFFF" fill-rule="evenodd"/><text font-family="Segoe UI,Segoe UI_MSFontService,sans-serif" font-weight="400" font-size="48" transform="translate(755 1306)">Estimate and quote</text><text font-family="Segoe UI,Segoe UI_MSFontService,sans-serif" font-weight="400" font-size="48" transform="translate(909.06 1364)">sales</text><path d="M725.5 1409.5C725.5 1402.87 730.873 1397.5 737.5 1397.5L1183.5 1397.5C1190.13 1397.5 1195.5 1402.87 1195.5 1409.5L1195.5 1505.5C1195.5 1512.13 1190.13 1517.5 1183.5 1517.5L737.5 1517.5C730.873 1517.5 725.5 1512.13 725.5 1505.5Z" stroke="#000000" stroke-width="1.13333" stroke-linejoin="round" stroke-miterlimit="10" fill="#FFFFFF" fill-rule="evenodd"/><text font-family="Segoe UI,Segoe UI_MSFontService,sans-serif" font-weight="400" font-size="48" transform="translate(768.76 1445)">Manage customer</text><text font-family="Segoe UI,Segoe UI_MSFontService,sans-serif" font-weight="400" font-size="48" transform="translate(825.933 1503)">relationships</text><path d="M725.5 1548.5C725.5 1541.87 730.873 1536.5 737.5 1536.5L1183.5 1536.5C1190.13 1536.5 1195.5 1541.87 1195.5 1548.5L1195.5 1644.5C1195.5 1651.13 1190.13 1656.5 1183.5 1656.5L737.5 1656.5C730.873 1656.5 725.5 1651.13 725.5 1644.5Z" stroke="#000000" stroke-width="1.13333" stroke-linejoin="round" stroke-miterlimit="10" fill="#FFFFFF" fill-rule="evenodd"/><text font-family="Segoe UI,Segoe UI_MSFontService,sans-serif" font-weight="400" font-size="48" transform="translate(798.343 1584)">Analyze service</text><text font-family="Segoe UI,Segoe UI_MSFontService,sans-serif" font-weight="400" font-size="48" transform="translate(846.95 1642)">operations</text><path d="M1298 319.7C1298 287.281 1324.28 261 1356.7 261L1826.3 261C1858.72 261 1885 287.281 1885 319.7L1885 1672.3C1885 1704.72 1858.72 1731 1826.3 1731L1356.7 1731C1324.28 1731 1298 1704.72 1298 1672.3Z" fill="#CBCBCB" fill-rule="evenodd"/><text font-family="Segoe UI Semibold,Segoe UI Semibold_MSFontService,sans-serif" font-weight="600" font-size="72" transform="translate(1384.15 463)">Downstream</text><text font-family="Segoe UI Semibold,Segoe UI Semibold_MSFontService,sans-serif" font-weight="600" font-size="72" transform="translate(1433.11 549)">processes</text><path d="M1356.5 731.4C1356.5 715.439 1369.44 702.5 1385.4 702.5L1797.6 702.5C1813.56 702.5 1826.5 715.439 1826.5 731.4L1826.5 962.6C1826.5 978.561 1813.56 991.5 1797.6 991.5L1385.4 991.5C1369.44 991.5 1356.5 978.561 1356.5 962.6Z" stroke="#000000" stroke-width="1.13333" stroke-linejoin="round" stroke-miterlimit="10" fill="#FFFFFF" fill-rule="evenodd"/><text font-family="Segoe UI,Segoe UI_MSFontService,sans-serif" font-weight="400" font-size="48" transform="translate(1447.67 863)">Order to</text><text font-family="Segoe UI,Segoe UI_MSFontService,sans-serif" font-weight="400" font-size="48" transform="translate(1640.28 863)">c</text><text font-family="Segoe UI,Segoe UI_MSFontService,sans-serif" font-weight="400" font-size="48" transform="translate(1662.45 863)">ash</text><path d="M1356.5 1064.4C1356.5 1048.44 1369.44 1035.5 1385.4 1035.5L1797.6 1035.5C1813.56 1035.5 1826.5 1048.44 1826.5 1064.4L1826.5 1295.6C1826.5 1311.56 1813.56 1324.5 1797.6 1324.5L1385.4 1324.5C1369.44 1324.5 1356.5 1311.56 1356.5 1295.6Z" stroke="#000000" stroke-width="1.13333" stroke-linejoin="round" stroke-miterlimit="10" fill="#FFFFFF" fill-rule="evenodd"/><text font-family="Segoe UI,Segoe UI_MSFontService,sans-serif" font-weight="400" font-size="48" transform="translate(1433.27 1196)">Service to</text><text font-family="Segoe UI,Segoe UI_MSFontService,sans-serif" font-weight="400" font-size="48" transform="translate(1654.68 1196)">c</text><text font-family="Segoe UI,Segoe UI_MSFontService,sans-serif" font-weight="400" font-size="48" transform="translate(1676.86 1196)">ash</text><path d="M1356.5 1397.4C1356.5 1381.44 1369.44 1368.5 1385.4 1368.5L1797.6 1368.5C1813.56 1368.5 1826.5 1381.44 1826.5 1397.4L1826.5 1628.6C1826.5 1644.56 1813.56 1657.5 1797.6 1657.5L1385.4 1657.5C1369.44 1657.5 1356.5 1644.56 1356.5 1628.6Z" stroke="#000000" stroke-width="1.13333" stroke-linejoin="round" stroke-miterlimit="10" fill="#FFFFFF" fill-rule="evenodd"/><text font-family="Segoe UI,Segoe UI_MSFontService,sans-serif" font-weight="400" font-size="48" transform="translate(1384.94 1529)">Inventory to</text><text font-family="Segoe UI,Segoe UI_MSFontService,sans-serif" font-weight="400" font-size="48" transform="translate(1656.02 1529)">d</text><text font-family="Segoe UI,Segoe UI_MSFontService,sans-serif" font-weight="400" font-size="48" transform="translate(1684.29 1529)">eliver</text></g></svg>