<?xml version="1.0" encoding="UTF-8" standalone="no"?>
<svg
   width="1920"
   height="1920"
   overflow="hidden"
   version="1.1"
   id="svg186"
   sodipodi:docname="prospect-to-quote-define-sales-strategy-flow.svg"
   inkscape:version="1.2.2 (732a01da63, 2022-12-09)"
   xmlns:inkscape="http://www.inkscape.org/namespaces/inkscape"
   xmlns:sodipodi="http://sodipodi.sourceforge.net/DTD/sodipodi-0.dtd"
   xmlns="http://www.w3.org/2000/svg"
   xmlns:svg="http://www.w3.org/2000/svg">
  <defs
     id="defs190" />
  <sodipodi:namedview
     id="namedview188"
     pagecolor="#ffffff"
     bordercolor="#000000"
     borderopacity="0.25"
     inkscape:showpageshadow="2"
     inkscape:pageopacity="0.0"
     inkscape:pagecheckerboard="0"
     inkscape:deskcolor="#d1d1d1"
     showgrid="false"
     inkscape:zoom="9.4795606"
     inkscape:cx="1272.2109"
     inkscape:cy="293.26254"
     inkscape:window-width="3840"
     inkscape:window-height="2054"
     inkscape:window-x="2725"
     inkscape:window-y="-11"
     inkscape:window-maximized="1"
     inkscape:current-layer="svg186" />
  <g
     id="g184">
    <rect
       x="0"
       y="0"
       width="1920"
       height="1920"
       fill="#FFFFFF"
       id="rect2" />
    <rect
       x="740"
       y="216"
       width="1148"
       height="1488"
       stroke="#A6A6A6"
       stroke-width="2"
       stroke-linejoin="round"
       stroke-miterlimit="10"
       fill="#A0A0A0"
       id="rect4" />
    <path
       d="M91 306.5C91 286.342 107.342 270 127.5 270L266.5 270C286.658 270 303 286.342 303 306.5L303 306.5C303 326.658 286.658 343 266.5 343L127.5 343C107.342 343 91 326.658 91 306.5Z"
       stroke="#0078D4"
       stroke-width="2"
       stroke-linejoin="round"
       stroke-miterlimit="10"
       fill="#FFFFFF"
       fill-rule="evenodd"
       id="path6" />
    <text
       font-family="Segoe UI,Segoe UI_MSFontService,sans-serif"
       font-weight="400"
       font-size="24"
       transform="translate(172.047 315)"
       id="text8">Start</text>
    <rect
       x="1161"
       y="230"
       width="262"
       height="153"
       stroke="#0078D4"
       stroke-width="2"
       stroke-linejoin="round"
       stroke-miterlimit="10"
       fill="#0078D4"
       id="rect10" />
    <text
       fill="#ffffff"
       font-family="'Segoe UI Semibold', 'Segoe UI Semibold_MSFontService', sans-serif"
       font-weight="600"
       font-size="24px"
       id="text12"
       inkscape:transform-center-x="72.911392"
       inkscape:transform-center-y="-1.8695229"
       x="1244.3969"
       y="300.1055">Define a</text>
    <text
       fill="#ffffff"
       font-family="'Segoe UI Semibold', 'Segoe UI Semibold_MSFontService', sans-serif"
       font-weight="600"
       font-size="24px"
       id="text14"
       x="1219.6742"
       y="328.78903">sales strategy</text>
    <rect
       x="79"
       y="647"
       width="212"
       height="153"
       stroke="#A6A6A6"
       stroke-width="2"
       stroke-linejoin="round"
       stroke-miterlimit="10"
       fill="#A0A0A0"
       id="rect16" />
    <text
       font-family="Segoe UI,Segoe UI_MSFontService,sans-serif"
       font-weight="400"
       font-size="24"
       transform="translate(126.664 718)"
       id="text18">Forecast to</text>
    <text
       font-family="Segoe UI,Segoe UI_MSFontService,sans-serif"
       font-weight="400"
       font-size="24"
       transform="translate(161.997 747)"
       id="text20">plan</text>
    <rect
       x="78"
       y="430"
       width="211"
       height="153"
       stroke="#A6A6A6"
       stroke-width="2"
       stroke-linejoin="round"
       stroke-miterlimit="10"
       fill="#A0A0A0"
       id="rect22" />
    <text
       font-family="Segoe UI,Segoe UI_MSFontService,sans-serif"
       font-weight="400"
       font-size="24"
       transform="translate(116.613 515)"
       id="text24">Hire to retire</text>
    <path
       d="M0-0.5 429.198-0.5C429.474-0.5 429.698-0.276142 429.698 0L429.698 0.000104987 429.198-0.499895 851.73-0.499895 851.73 0.500105 429.198 0.500105C428.922 0.500105 428.698 0.276247 428.698 0.000104987L428.698 0 429.198 0.5 0 0.5ZM850.396-3.99989 858.396 0.000104987 850.396 4.0001Z"
       fill="#0078D4"
       transform="matrix(1 0 0 -1 303.5 306.5)"
       id="path26" />
    <path
       d="M0-0.5 37.5412-0.5C37.8173-0.5 38.0412-0.276142 38.0412 0L38.0412 200.172C38.0412 200.448 37.8173 200.672 37.5412 200.672L20.2077 200.672 20.2077 199.672 37.5412 199.672 37.0412 200.172 37.0412 0 37.5412 0.5 0 0.5ZM21.541 204.172 13.541 200.172 21.541 196.172Z"
       fill="#0078D4"
       transform="matrix(-1 1.22465e-16 1.22465e-16 1 92.041 306.5)"
       id="path28" />
    <path
       d="M0-0.5 36.0097-0.5C36.2858-0.5 36.5097-0.276142 36.5097 0L36.5097 417.285C36.5097 417.561 36.2858 417.785 36.0097 417.785L18.6764 417.785 18.6764 416.785 36.0097 416.785 35.5097 417.285 35.5097 0 36.0097 0.5 0 0.5ZM20.0098 421.285 12.0098 417.285 20.0098 413.285Z"
       fill="#0078D4"
       transform="matrix(-1 1.22465e-16 1.22465e-16 1 91.5098 306.5)"
       id="path30" />
    <path
       d="M0-0.5 56.0422-0.5C56.3183-0.5 56.5422-0.276142 56.5422 0L56.5422 0.000209974 56.0422-0.49979 105.418-0.49979 105.418 0.50021 56.0422 0.50021C55.7661 0.50021 55.5422 0.276352 55.5422 0.000209974L55.5422 0 56.0422 0.5 0 0.5ZM104.084-3.99979 112.084 0.000209974 104.084 4.00021Z"
       fill="#0078D4"
       transform="matrix(1 0 0 -1 289.5 506.5)"
       id="path32" />
    <rect
       x="79"
       y="862"
       width="212"
       height="153"
       stroke="#A6A6A6"
       stroke-width="2"
       stroke-linejoin="round"
       stroke-miterlimit="10"
       fill="#A0A0A0"
       id="rect34" />
    <text
       font-family="Segoe UI,Segoe UI_MSFontService,sans-serif"
       font-weight="400"
       font-size="24"
       transform="translate(133.831 933)"
       id="text36">Record to</text>
    <text
       font-family="Segoe UI,Segoe UI_MSFontService,sans-serif"
       font-weight="400"
       font-size="24"
       transform="translate(151.891 962)"
       id="text38">report</text>
    <path
       d="M0-0.5 36.0099-0.5C36.2861-0.5 36.5099-0.276142 36.5099 0L36.5099 632.625C36.5099 632.901 36.2861 633.125 36.0099 633.125L18.6764 633.125 18.6764 632.125 36.0099 632.125 35.5099 632.625 35.5099 0 36.0099 0.5 0 0.5ZM20.0098 636.625 12.0098 632.625 20.0098 628.625Z"
       fill="#0078D4"
       transform="matrix(-1 1.22465e-16 1.22465e-16 1 91.5098 306.5)"
       id="path40" />
    <path
       d="M291.5 723 395.387 723 395.387 724 291.5 724ZM394.053 719.5 402.053 723.5 394.053 727.5Z"
       fill="#0078D4"
       id="path42" />
    <rect
       x="1392"
       y="642"
       width="286"
       height="154"
       fill="#FFFFFF"
       id="rect44" />
    <path
       d="M1427.75 642 1427.75 796M1642.25 642 1642.25 796"
       stroke="#0078D4"
       stroke-width="2"
       stroke-linejoin="round"
       stroke-miterlimit="10"
       fill="none"
       fill-rule="evenodd"
       id="path46" />
    <rect
       x="1392"
       y="642"
       width="286"
       height="154"
       stroke="#0078D4"
       stroke-width="2"
       stroke-linejoin="round"
       stroke-miterlimit="10"
       fill="none"
       id="rect48" />
    <text
       font-family="Segoe UI,Segoe UI_MSFontService,sans-serif"
       font-weight="400"
       font-size="24"
       transform="translate(1477.47 699)"
       id="text50">Define and</text>
    <text
       font-family="Segoe UI,Segoe UI_MSFontService,sans-serif"
       font-weight="400"
       font-size="24"
       transform="translate(1463.72 728)"
       id="text52">manage sales</text>
    <text
       font-family="Segoe UI,Segoe UI_MSFontService,sans-serif"
       font-weight="400"
       font-size="24"
       transform="translate(1484.07 757)"
       id="text54">territories</text>
    <rect
       x="1149"
       y="430"
       width="286"
       height="153"
       fill="#FFFFFF"
       id="rect56" />
    <path
       d="M1184.75 430 1184.75 583M1399.25 430 1399.25 583"
       stroke="#0078D4"
       stroke-width="2"
       stroke-linejoin="round"
       stroke-miterlimit="10"
       fill="none"
       fill-rule="evenodd"
       id="path58" />
    <rect
       x="1149"
       y="430"
       width="286"
       height="153"
       stroke="#0078D4"
       stroke-width="2"
       stroke-linejoin="round"
       stroke-miterlimit="10"
       fill="none"
       id="rect60" />
    <text
       font-family="Segoe UI,Segoe UI_MSFontService,sans-serif"
       font-weight="400"
       font-size="24"
       transform="translate(1229.03 501)"
       id="text62">Define sales</text>
    <text
       font-family="Segoe UI,Segoe UI_MSFontService,sans-serif"
       font-weight="400"
       font-size="24"
       transform="translate(1245.86 530)"
       id="text64">channels</text>
    <rect
       x="931"
       y="642"
       width="285"
       height="154"
       fill="#FFFFFF"
       id="rect66" />
    <path
       d="M966.625 642 966.625 796M1180.38 642 1180.38 796"
       stroke="#0078D4"
       stroke-width="2"
       stroke-linejoin="round"
       stroke-miterlimit="10"
       fill="none"
       fill-rule="evenodd"
       id="path68" />
    <rect
       x="931"
       y="642"
       width="285"
       height="154"
       stroke="#0078D4"
       stroke-width="2"
       stroke-linejoin="round"
       stroke-miterlimit="10"
       fill="none"
       id="rect70" />
    <text
       font-family="Segoe UI,Segoe UI_MSFontService,sans-serif"
       font-weight="400"
       font-size="24"
       transform="translate(1010.35 713)"
       id="text72">Define sales</text>
    <text
       font-family="Segoe UI,Segoe UI_MSFontService,sans-serif"
       font-weight="400"
       font-size="24"
       transform="translate(1041.61 742)"
       id="text74">teams</text>
    <rect
       x="1139"
       y="857"
       width="287"
       height="153"
       fill="#FFFFFF"
       id="rect76" />
    <path
       d="M1174.88 857 1174.88 1010M1390.12 857 1390.12 1010"
       stroke="#0078D4"
       stroke-width="2"
       stroke-linejoin="round"
       stroke-miterlimit="10"
       fill="none"
       fill-rule="evenodd"
       id="path78" />
    <rect
       x="1139"
       y="857"
       width="287"
       height="153"
       stroke="#0078D4"
       stroke-width="2"
       stroke-linejoin="round"
       stroke-miterlimit="10"
       fill="none"
       id="rect80" />
    <text
       font-family="Segoe UI,Segoe UI_MSFontService,sans-serif"
       font-weight="400"
       font-size="24"
       transform="translate(1247.98 899)"
       id="text82">Define</text>
    <text
       font-family="Segoe UI,Segoe UI_MSFontService,sans-serif"
       font-weight="400"
       font-size="24"
       transform="translate(1206.06 928)"
       id="text84">salesperson or</text>
    <text
       font-family="Segoe UI,Segoe UI_MSFontService,sans-serif"
       font-weight="400"
       font-size="24"
       transform="translate(1209.14 957)"
       id="text86">sales taker for</text>
    <text
       font-family="Segoe UI,Segoe UI_MSFontService,sans-serif"
       font-weight="400"
       font-size="24"
       transform="translate(1248.64 986)"
       id="text88">orders</text>
    <rect
       x="1138"
       y="1058"
       width="287"
       height="154"
       fill="#FFFFFF"
       id="rect90" />
    <path
       d="M1173.88 1058 1173.88 1212M1389.12 1058 1389.12 1212"
       stroke="#0078D4"
       stroke-width="2"
       stroke-linejoin="round"
       stroke-miterlimit="10"
       fill="none"
       fill-rule="evenodd"
       id="path92" />
    <rect
       x="1138"
       y="1058"
       width="287"
       height="154"
       stroke="#0078D4"
       stroke-width="2"
       stroke-linejoin="round"
       stroke-miterlimit="10"
       fill="none"
       id="rect94" />
    <text
       font-family="Segoe UI,Segoe UI_MSFontService,sans-serif"
       font-weight="400"
       font-size="24"
       transform="translate(1226.35 1129)"
       id="text96">Determine</text>
    <text
       font-family="Segoe UI,Segoe UI_MSFontService,sans-serif"
       font-weight="400"
       font-size="24"
       transform="translate(1216.31 1158)"
       id="text98">sales targets</text>
    <text
       fill="#0078D4"
       font-family="Segoe UI,Segoe UI_MSFontService,sans-serif"
       font-weight="400"
       font-size="43"
       transform="translate(769.002 1676)"
       id="text100">Business</text>
    <text
       fill="#0078D4"
       font-family="Segoe UI,Segoe UI_MSFontService,sans-serif"
       font-weight="400"
       font-size="43"
       transform="translate(940.669 1676)"
       id="text102">p</text>
    <text
       fill="#0078D4"
       font-family="Segoe UI,Segoe UI_MSFontService,sans-serif"
       font-weight="400"
       font-size="43"
       transform="translate(965.835 1676)"
       id="text104">rocess</text>
    <text
       fill="#0078D4"
       font-family="Segoe UI,Segoe UI_MSFontService,sans-serif"
       font-weight="400"
       font-size="43"
       transform="translate(1095.11 1676)"
       id="text106">a</text>
    <text
       fill="#0078D4"
       font-family="Segoe UI,Segoe UI_MSFontService,sans-serif"
       font-weight="400"
       font-size="43"
       transform="translate(1116.78 1676)"
       id="text108">rea</text>
    <path
       d="M516.5 520 556.863 520 556.863 521 516.5 521ZM555.529 516.5 563.529 520.5 555.529 524.5Z"
       fill="#0078D4"
       id="path110" />
    <path
       d="M663.5 506 901.705 506C901.982 506 902.205 506.224 902.205 506.5L902.205 719.147 901.705 718.647 924.251 718.647 924.251 719.647 901.705 719.647C901.429 719.647 901.205 719.423 901.205 719.147L901.205 506.5 901.705 507 663.5 507ZM922.918 715.147 930.918 719.147 922.918 723.147Z"
       fill="#0078D4"
       id="path112" />
    <path
       d="M0.499953-0.00687299 1.07036 41.4855 0.0704546 41.4993-0.499953 0.00687299ZM4.5517 40.1042 0.662047 48.1584-3.44754 40.2142Z"
       fill="#0078D4"
       transform="matrix(-1 0 0 1 1283.16 1010.5)"
       id="path114" />
    <rect
       x="1140"
       y="1260"
       width="285"
       height="153"
       fill="#FFFFFF"
       id="rect116" />
    <path
       d="M1175.62 1260 1175.62 1413M1389.38 1260 1389.38 1413"
       stroke="#0078D4"
       stroke-width="2"
       stroke-linejoin="round"
       stroke-miterlimit="10"
       fill="none"
       fill-rule="evenodd"
       id="path118" />
    <rect
       x="1140"
       y="1260"
       width="285"
       height="153"
       stroke="#0078D4"
       stroke-width="2"
       stroke-linejoin="round"
       stroke-miterlimit="10"
       fill="none"
       id="rect120" />
    <text
       font-family="Segoe UI,Segoe UI_MSFontService,sans-serif"
       font-weight="400"
       font-size="24"
       transform="translate(1207.51 1302)"
       id="text122">Establish sales</text>
    <text
       font-family="Segoe UI,Segoe UI_MSFontService,sans-serif"
       font-weight="400"
       font-size="24"
       transform="translate(1219.27 1331)"
       id="text124">commission</text>
    <text
       font-family="Segoe UI,Segoe UI_MSFontService,sans-serif"
       font-weight="400"
       font-size="24"
       transform="translate(1211.92 1360)"
       id="text126">and incentive</text>
    <text
       font-family="Segoe UI,Segoe UI_MSFontService,sans-serif"
       font-weight="400"
       font-size="24"
       transform="translate(1230.42 1389)"
       id="text128">structures</text>
    <rect
       x="401"
       y="430"
       width="262"
       height="153"
       stroke="#0078D4"
       stroke-width="2"
       stroke-linejoin="round"
       stroke-miterlimit="10"
       fill="#0078D4"
       id="rect130" />
    <text
       fill="#FFFFFF"
       font-family="Segoe UI Semibold,Segoe UI Semibold_MSFontService,sans-serif"
       font-weight="600"
       font-size="24"
       transform="translate(446.28 501)"
       id="text132">Plan and recruit</text>
    <text
       fill="#FFFFFF"
       font-family="Segoe UI Semibold,Segoe UI Semibold_MSFontService,sans-serif"
       font-weight="600"
       font-size="24"
       transform="translate(477.493 530)"
       id="text134">workforce</text>
    <path
       d="M663.5 506 901.385 506C901.661 506 901.885 506.224 901.885 506.5L901.885 933.789 901.385 933.289 1132.6 933.289 1132.6 934.289 901.385 934.289C901.109 934.289 900.885 934.065 900.885 933.789L900.885 506.5 901.385 507 663.5 507ZM1131.27 929.789 1139.27 933.789 1131.27 937.789Z"
       fill="#0078D4"
       id="path136" />
    <rect
       x="406"
       y="641"
       width="263"
       height="153"
       stroke="#0078D4"
       stroke-width="2"
       stroke-linejoin="round"
       stroke-miterlimit="10"
       fill="#0078D4"
       id="rect138" />
    <text
       fill="#FFFFFF"
       font-family="Segoe UI Semibold,Segoe UI Semibold_MSFontService,sans-serif"
       font-weight="600"
       font-size="24"
       transform="translate(452.881 712)"
       id="text140">Forecast supply</text>
    <text
       fill="#FFFFFF"
       font-family="Segoe UI Semibold,Segoe UI Semibold_MSFontService,sans-serif"
       font-weight="600"
       font-size="24"
       transform="translate(468.775 741)"
       id="text142">and demand</text>
    <rect
       x="401"
       y="858"
       width="262"
       height="154"
       stroke="#0078D4"
       stroke-width="2"
       stroke-linejoin="round"
       stroke-miterlimit="10"
       fill="#0078D4"
       id="rect144" />
    <text
       fill="#FFFFFF"
       font-family="Segoe UI Semibold,Segoe UI Semibold_MSFontService,sans-serif"
       font-weight="600"
       font-size="24"
       transform="translate(429.861 943)"
       id="text146">Manage budgets</text>
    <path
       d="M291.5 934 395.387 934 395.387 935 291.5 935ZM394.053 930.5 402.053 934.5 394.053 938.5Z"
       fill="#0078D4"
       id="path148" />
    <path
       d="M669.5 718 833.293 718C833.57 718 833.793 718.224 833.793 718.5L833.793 1143.76 833.293 1143.26 1126.96 1143.26 1126.96 1144.26 833.293 1144.26C833.017 1144.26 832.793 1144.04 832.793 1143.76L832.793 718.5 833.293 719 669.5 719ZM1125.62 1139.76 1133.62 1143.76 1125.62 1147.76Z"
       fill="#0078D4"
       id="path150" />
    <path
       d="M663.5 935 832.894 935C833.17 935 833.394 935.224 833.394 935.5L833.394 1142.12 832.894 1141.62 1126.22 1141.62 1126.22 1142.62 832.894 1142.62C832.618 1142.62 832.394 1142.4 832.394 1142.12L832.394 935.5 832.894 936 663.5 936ZM1124.89 1138.12 1132.89 1142.12 1124.89 1146.12Z"
       fill="#0078D4"
       id="path152" />
    <rect
       x="401"
       y="1107"
       width="262"
       height="153"
       stroke="#0078D4"
       stroke-width="2"
       stroke-linejoin="round"
       stroke-miterlimit="10"
       fill="#0078D4"
       id="rect154" />
    <text
       fill="#FFFFFF"
       font-family="Segoe UI Semibold,Segoe UI Semibold_MSFontService,sans-serif"
       font-weight="600"
       font-size="24"
       transform="translate(458.173 1163)"
       id="text156">Define ledger</text>
    <text
       fill="#FFFFFF"
       font-family="Segoe UI Semibold,Segoe UI Semibold_MSFontService,sans-serif"
       font-weight="600"
       font-size="24"
       transform="translate(459.7 1192)"
       id="text158">structure and</text>
    <text
       fill="#FFFFFF"
       font-family="Segoe UI Semibold,Segoe UI Semibold_MSFontService,sans-serif"
       font-weight="600"
       font-size="24"
       transform="translate(441.113 1221)"
       id="text160">currency policies</text>
    <path
       d="M0-0.5 167.938-0.5C168.214-0.5 168.438-0.276142 168.438 0L168.438 209.564 167.438 209.564 167.438 0 167.938 0.5 0 0.5ZM171.938 208.231 167.938 216.231 163.938 208.231Z"
       fill="#0078D4"
       transform="matrix(1.83697e-16 1 1 -1.83697e-16 185.5 1015.5)"
       id="path162" />
    <path
       d="M663.5 1183 901.667 1183C901.944 1183 902.167 1183.22 902.167 1183.5L902.167 1336.65 901.667 1336.15 1133.17 1336.15 1133.17 1337.15 901.667 1337.15C901.391 1337.15 901.167 1336.93 901.167 1336.65L901.167 1183.5 901.667 1184 663.5 1184ZM1131.83 1332.65 1139.83 1336.65 1131.83 1340.65Z"
       fill="#0078D4"
       id="path164" />
    <path
       d="M1283 1212.49 1283.53 1253.99 1282.53 1254 1282 1212.51ZM1287.01 1252.61 1283.11 1260.66 1279.01 1252.71Z"
       fill="#0078D4"
       id="path166" />
    <path
       d="M0-0.5 29.678-0.5C29.9541-0.5 30.178-0.276142 30.178 0L30.178 242.945 29.678 242.445 52.6892 242.445 52.6892 243.445 29.678 243.445C29.4018 243.445 29.178 243.221 29.178 242.945L29.178 0 29.678 0.5 0 0.5ZM51.3559 238.945 59.3559 242.945 51.3559 246.945Z"
       fill="#0078D4"
       transform="matrix(1.83697e-16 1 1 -1.83697e-16 1292.5 583.5)"
       id="path168" />
    <path
       d="M1292.68 583.5 1292.68 613.178C1292.68 613.454 1292.45 613.678 1292.18 613.678L1073.5 613.678 1074 613.178 1074 636.189 1073 636.189 1073 613.178C1073 612.902 1073.22 612.678 1073.5 612.678L1292.18 612.678 1291.68 613.178 1291.68 583.5ZM1077.5 634.856 1073.5 642.856 1069.5 634.856Z"
       fill="#0078D4"
       id="path170" />
    <path
       d="M1176 1526.5C1176 1506.34 1192.34 1490 1212.5 1490L1350.5 1490C1370.66 1490 1387 1506.34 1387 1526.5L1387 1526.5C1387 1546.66 1370.66 1563 1350.5 1563L1212.5 1563C1192.34 1563 1176 1546.66 1176 1526.5Z"
       stroke="#0078D4"
       stroke-width="2"
       stroke-linejoin="round"
       stroke-miterlimit="10"
       fill="#FFFFFF"
       fill-rule="evenodd"
       id="path172" />
    <text
       font-family="Segoe UI,Segoe UI_MSFontService,sans-serif"
       font-weight="400"
       font-size="24"
       transform="translate(1261.73 1535)"
       id="text174">End</text>
    <path
       d="M0.499984-0.00397678 1.06071 70.4942 0.0607455 70.5021-0.499984 0.00397678ZM4.55 69.1331 0.613753 77.1646-3.44975 69.1967Z"
       fill="#0078D4"
       transform="matrix(-1 0 0 1 1283.11 1413.5)"
       id="path176" />
    <path
       d="M1535.66 796.5 1535.66 827.176C1535.66 827.452 1535.43 827.676 1535.16 827.676L1282.5 827.676 1283 827.176 1283 851.185 1282 851.185 1282 827.176C1282 826.9 1282.22 826.676 1282.5 826.676L1535.16 826.676 1534.66 827.176 1534.66 796.5ZM1286.5 849.852 1282.5 857.852 1278.5 849.852Z"
       fill="#0078D4"
       id="path178" />
    <path
       d="M0-0.5 30.6759-0.5C30.9521-0.5 31.1759-0.276142 31.1759 0L31.1759 208.965 30.6759 208.465 54.6849 208.465 54.6849 209.465 30.6759 209.465C30.3998 209.465 30.1759 209.241 30.1759 208.965L30.1759 0 30.6759 0.5 0 0.5ZM53.3516 204.965 61.3516 208.965 53.3516 212.965Z"
       fill="#0078D4"
       transform="matrix(1.83697e-16 1 1 -1.83697e-16 1073.5 796.5)"
       id="path180" />
    <path
       d="M1293 383.5 1293 406.941C1293 407.217 1292.78 407.441 1292.5 407.441L1292.5 407.441 1293 406.941 1293 423.715 1292 423.715 1292 406.941C1292 406.665 1292.22 406.441 1292.5 406.441L1292.5 406.441 1292 406.941 1292 383.5ZM1296.5 422.382 1292.5 430.382 1288.5 422.382Z"
       fill="#0078D4"
       id="path182" />
  </g>
</svg>
