<?xml version="1.0" encoding="UTF-8" standalone="no"?>
<svg
   width="1920"
   height="1514.3135"
   overflow="hidden"
   version="1.1"
   id="svg136"
   sodipodi:docname="prospect-to-quote-process.svg"
   inkscape:version="1.2.2 (732a01da63, 2022-12-09)"
   xmlns:inkscape="http://www.inkscape.org/namespaces/inkscape"
   xmlns:sodipodi="http://sodipodi.sourceforge.net/DTD/sodipodi-0.dtd"
   xmlns="http://www.w3.org/2000/svg"
   xmlns:svg="http://www.w3.org/2000/svg">
  <defs
     id="defs140" />
  <sodipodi:namedview
     id="namedview138"
     pagecolor="#ffffff"
     bordercolor="#000000"
     borderopacity="0.25"
     inkscape:showpageshadow="2"
     inkscape:pageopacity="0.0"
     inkscape:pagecheckerboard="0"
     inkscape:deskcolor="#d1d1d1"
     showgrid="false"
     inkscape:zoom="0.53489583"
     inkscape:cx="959.06524"
     inkscape:cy="721.63583"
     inkscape:window-width="3840"
     inkscape:window-height="2054"
     inkscape:window-x="2725"
     inkscape:window-y="-11"
     inkscape:window-maximized="1"
     inkscape:current-layer="svg136" />
  <g
     id="g134"
     transform="translate(0,-237.42941)">
    <rect
       x="0"
       y="237.42941"
       width="1920"
       height="1514.3135"
       fill="#ffffff"
       id="rect2"
       style="stroke-width:0.888091" />
    <path
       d="M 41,319.7 C 41,287.281 67.2811,261 99.7005,261 H 569.299 c 32.42,0 58.701,26.281 58.701,58.7 v 1352.6 c 0,32.42 -26.281,58.7 -58.701,58.7 H 99.7005 C 67.2811,1731 41,1704.72 41,1672.3 Z"
       fill="#cbcbcb"
       fill-rule="evenodd"
       id="path4" />
    <text
       font-family="'Segoe UI Semibold', 'Segoe UI Semibold_MSFontService', sans-serif"
       font-weight="600"
       font-size="72px"
       transform="translate(175.726,463)"
       id="text6">Upstream</text>
    <text
       font-family="'Segoe UI Semibold', 'Segoe UI Semibold_MSFontService', sans-serif"
       font-weight="600"
       font-size="72px"
       transform="translate(176.133,549)"
       id="text8">processes</text>
    <path
       d="m 94.5001,719.5 c 0,-9.389 7.6109,-17 16.9999,-17 h 436 c 9.389,0 17,7.611 17,17 v 136 c 0,9.389 -7.611,17 -17,17 h -436 c -9.389,0 -16.9999,-7.611 -16.9999,-17 z"
       stroke="#000000"
       stroke-width="1.13333"
       stroke-linejoin="round"
       stroke-miterlimit="10"
       fill="#ffffff"
       fill-rule="evenodd"
       id="path10" />
    <text
       font-family="'Segoe UI', 'Segoe UI_MSFontService', sans-serif"
       font-weight="400"
       font-size="45px"
       transform="translate(132.029,776)"
       id="text12">Product and</text>
    <text
       font-family="'Segoe UI', 'Segoe UI_MSFontService', sans-serif"
       font-weight="400"
       font-size="45px"
       transform="translate(388.036,776)"
       id="text14">s</text>
    <text
       font-family="'Segoe UI', 'Segoe UI_MSFontService', sans-serif"
       font-weight="400"
       font-size="45px"
       transform="translate(407.269,776)"
       id="text16">ervice</text>
    <text
       font-family="'Segoe UI', 'Segoe UI_MSFontService', sans-serif"
       font-weight="400"
       font-size="45px"
       transform="translate(111.182,830)"
       id="text18">l</text>
    <text
       font-family="'Segoe UI', 'Segoe UI_MSFontService', sans-serif"
       font-weight="400"
       font-size="45px"
       transform="translate(122.162,830)"
       id="text20">ifecycle</text>
    <text
       font-family="'Segoe UI', 'Segoe UI_MSFontService', sans-serif"
       font-weight="400"
       font-size="45px"
       transform="translate(281.736,830)"
       id="text22">m</text>
    <text
       font-family="'Segoe UI', 'Segoe UI_MSFontService', sans-serif"
       font-weight="400"
       font-size="45px"
       transform="translate(320.782,830)"
       id="text24">anagement</text>
    <path
       d="m 94.5001,915.5 c 0,-9.389 7.6109,-17 16.9999,-17 h 436 c 9.389,0 17,7.611 17,17 v 136 c 0,9.39 -7.611,17 -17,17 h -436 c -9.389,0 -16.9999,-7.61 -16.9999,-17 z"
       stroke="#000000"
       stroke-width="1.13333"
       stroke-linejoin="round"
       stroke-miterlimit="10"
       fill="#ffffff"
       fill-rule="evenodd"
       id="path26" />
    <text
       font-family="'Segoe UI', 'Segoe UI_MSFontService', sans-serif"
       font-weight="400"
       font-size="48px"
       transform="translate(160.112,1000)"
       id="text28">Forecast to</text>
    <text
       font-family="'Segoe UI', 'Segoe UI_MSFontService', sans-serif"
       font-weight="400"
       font-size="48px"
       transform="translate(406.372,1000)"
       id="text30">p</text>
    <text
       font-family="'Segoe UI', 'Segoe UI_MSFontService', sans-serif"
       font-weight="400"
       font-size="48px"
       transform="translate(434.592,1000)"
       id="text32">lan</text>
    <path
       d="m 94.5001,1111.5 c 0,-9.39 7.6109,-17 16.9999,-17 h 436 c 9.389,0 17,7.61 17,17 v 136 c 0,9.39 -7.611,17 -17,17 h -436 c -9.389,0 -16.9999,-7.61 -16.9999,-17 z"
       stroke="#000000"
       stroke-width="1.13333"
       stroke-linejoin="round"
       stroke-miterlimit="10"
       fill="#ffffff"
       fill-rule="evenodd"
       id="path34" />
    <text
       font-family="'Segoe UI', 'Segoe UI_MSFontService', sans-serif"
       font-weight="400"
       font-size="48px"
       transform="translate(163.462,1196)"
       id="text36">Project to</text>
    <text
       font-family="'Segoe UI', 'Segoe UI_MSFontService', sans-serif"
       font-weight="400"
       font-size="48px"
       transform="translate(380.002,1196)"
       id="text38">p</text>
    <text
       font-family="'Segoe UI', 'Segoe UI_MSFontService', sans-serif"
       font-weight="400"
       font-size="48px"
       transform="translate(408.222,1196)"
       id="text40">rofit</text>
    <path
       d="m 94.5001,1308.5 c 0,-9.39 7.6109,-17 16.9999,-17 h 436 c 9.389,0 17,7.61 17,17 v 136 c 0,9.39 -7.611,17 -17,17 h -436 c -9.389,0 -16.9999,-7.61 -16.9999,-17 z"
       stroke="#000000"
       stroke-width="1.13333"
       stroke-linejoin="round"
       stroke-miterlimit="10"
       fill="#ffffff"
       fill-rule="evenodd"
       id="path42" />
    <text
       font-family="'Segoe UI', 'Segoe UI_MSFontService', sans-serif"
       font-weight="400"
       font-size="45px"
       transform="translate(202.702,1391)"
       id="text44">Hire to</text>
    <text
       font-family="'Segoe UI', 'Segoe UI_MSFontService', sans-serif"
       font-weight="400"
       font-size="45px"
       transform="translate(351.142,1391)"
       id="text46">r</text>
    <text
       font-family="'Segoe UI', 'Segoe UI_MSFontService', sans-serif"
       font-weight="400"
       font-size="45px"
       transform="translate(366.302,1391)"
       id="text48">etire</text>
    <path
       d="m 94.5001,1504.5 c 0,-9.39 7.6109,-17 16.9999,-17 h 436 c 9.389,0 17,7.61 17,17 v 136 c 0,9.39 -7.611,17 -17,17 h -436 c -9.389,0 -16.9999,-7.61 -16.9999,-17 z"
       stroke="#000000"
       stroke-width="1.13333"
       stroke-linejoin="round"
       stroke-miterlimit="10"
       fill="#ffffff"
       fill-rule="evenodd"
       id="path50" />
    <text
       font-family="'Segoe UI', 'Segoe UI_MSFontService', sans-serif"
       font-weight="400"
       font-size="45px"
       transform="translate(164.046,1588)"
       id="text52">Record to</text>
    <text
       font-family="'Segoe UI', 'Segoe UI_MSFontService', sans-serif"
       font-weight="400"
       font-size="45px"
       transform="translate(369.366,1588)"
       id="text54">r</text>
    <text
       font-family="'Segoe UI', 'Segoe UI_MSFontService', sans-serif"
       font-weight="400"
       font-size="45px"
       transform="translate(384.526,1588)"
       id="text56">eport</text>
    <path
       d="m 666,319.8 c 0,-32.474 26.326,-58.8 58.8,-58.8 h 470.4 c 32.47,0 58.8,26.326 58.8,58.8 v 1352.4 c 0,32.47 -26.33,58.8 -58.8,58.8 H 724.8 c -32.474,0 -58.8,-26.33 -58.8,-58.8 z"
       fill="#cbcbcb"
       fill-rule="evenodd"
       id="path58" />
    <text
       font-family="'Segoe UI Semibold', 'Segoe UI Semibold_MSFontService', sans-serif"
       font-weight="600"
       font-size="72px"
       transform="translate(773.997,463)"
       id="text60">Prospect</text>
    <text
       font-family="'Segoe UI Semibold', 'Segoe UI Semibold_MSFontService', sans-serif"
       font-weight="600"
       font-size="72px"
       transform="translate(1077.42,463)"
       id="text62">t</text>
    <text
       font-family="'Segoe UI Semibold', 'Segoe UI Semibold_MSFontService', sans-serif"
       font-weight="600"
       font-size="72px"
       transform="translate(1103.01,463)"
       id="text64">o</text>
    <text
       font-family="'Segoe UI Semibold', 'Segoe UI Semibold_MSFontService', sans-serif"
       font-weight="600"
       font-size="72px"
       transform="translate(863.883,549)"
       id="text66">q</text>
    <text
       font-family="'Segoe UI Semibold', 'Segoe UI Semibold_MSFontService', sans-serif"
       font-weight="600"
       font-size="72px"
       transform="translate(907.263,549)"
       id="text68">uote</text>
    <path
       d="m 725.5,716.6 c 0,-7.787 6.313,-14.1 14.1,-14.1 h 441.8 c 7.79,0 14.1,6.313 14.1,14.1 v 112.8 c 0,7.787 -6.31,14.1 -14.1,14.1 H 739.6 c -7.787,0 -14.1,-6.313 -14.1,-14.1 z"
       stroke="#000000"
       stroke-width="1.13333"
       stroke-linejoin="round"
       stroke-miterlimit="10"
       fill="#ffffff"
       fill-rule="evenodd"
       id="path70" />
    <text
       font-family="'Segoe UI', 'Segoe UI_MSFontService', sans-serif"
       font-weight="400"
       font-size="48px"
       transform="translate(741.963,789)"
       id="text72">Define sales strategy</text>
    <path
       d="m 725.5,879.6 c 0,-7.787 6.313,-14.1 14.1,-14.1 h 441.8 c 7.79,0 14.1,6.313 14.1,14.1 v 112.8 c 0,7.79 -6.31,14.1 -14.1,14.1 H 739.6 c -7.787,0 -14.1,-6.31 -14.1,-14.1 z"
       stroke="#000000"
       stroke-width="1.13333"
       stroke-linejoin="round"
       stroke-miterlimit="10"
       fill="#ffffff"
       fill-rule="evenodd"
       id="path74" />
    <text
       font-family="'Segoe UI', 'Segoe UI_MSFontService', sans-serif"
       font-weight="400"
       font-size="48px"
       transform="translate(805.013,923)"
       id="text76">Run marketing</text>
    <text
       font-family="'Segoe UI', 'Segoe UI_MSFontService', sans-serif"
       font-weight="400"
       font-size="48px"
       transform="translate(846.313,981)"
       id="text78">campaigns</text>
    <path
       d="m 725.5,1041.7 c 0,-7.84 6.358,-14.2 14.2,-14.2 h 441.6 c 7.84,0 14.2,6.36 14.2,14.2 v 113.6 c 0,7.84 -6.36,14.2 -14.2,14.2 H 739.7 c -7.842,0 -14.2,-6.36 -14.2,-14.2 z"
       stroke="#000000"
       stroke-width="1.13333"
       stroke-linejoin="round"
       stroke-miterlimit="10"
       fill="#ffffff"
       fill-rule="evenodd"
       id="path80" />
    <text
       font-family="'Segoe UI', 'Segoe UI_MSFontService', sans-serif"
       font-weight="400"
       font-size="48px"
       transform="translate(755.747,1086)"
       id="text82">Identify and qualify</text>
    <text
       font-family="'Segoe UI', 'Segoe UI_MSFontService', sans-serif"
       font-weight="400"
       font-size="48px"
       transform="translate(905.107,1144)"
       id="text84">leads</text>
    <path
       d="m 725.5,1204.6 c 0,-7.79 6.313,-14.1 14.1,-14.1 h 441.8 c 7.79,0 14.1,6.31 14.1,14.1 v 112.8 c 0,7.79 -6.31,14.1 -14.1,14.1 H 739.6 c -7.787,0 -14.1,-6.31 -14.1,-14.1 z"
       stroke="#000000"
       stroke-width="1.13333"
       stroke-linejoin="round"
       stroke-miterlimit="10"
       fill="#ffffff"
       fill-rule="evenodd"
       id="path86" />
    <text
       font-family="'Segoe UI', 'Segoe UI_MSFontService', sans-serif"
       font-weight="400"
       font-size="48px"
       transform="translate(888.153,1248)"
       id="text88">Pursue</text>
    <text
       font-family="'Segoe UI', 'Segoe UI_MSFontService', sans-serif"
       font-weight="400"
       font-size="48px"
       transform="translate(816.827,1306)"
       id="text90">opportunities</text>
    <path
       d="m 725.5,1367.6 c 0,-7.79 6.313,-14.1 14.1,-14.1 h 441.8 c 7.79,0 14.1,6.31 14.1,14.1 v 112.8 c 0,7.79 -6.31,14.1 -14.1,14.1 H 739.6 c -7.787,0 -14.1,-6.31 -14.1,-14.1 z"
       stroke="#000000"
       stroke-width="1.13333"
       stroke-linejoin="round"
       stroke-miterlimit="10"
       fill="#ffffff"
       fill-rule="evenodd"
       id="path92" />
    <text
       font-family="'Segoe UI', 'Segoe UI_MSFontService', sans-serif"
       font-weight="400"
       font-size="48px"
       transform="translate(755,1411)"
       id="text94">Estimate and quote</text>
    <text
       font-family="'Segoe UI', 'Segoe UI_MSFontService', sans-serif"
       font-weight="400"
       font-size="48px"
       transform="translate(909.06,1469)"
       id="text96">sales</text>
    <path
       d="m 725.5,1530.6 c 0,-7.79 6.313,-14.1 14.1,-14.1 h 441.8 c 7.79,0 14.1,6.31 14.1,14.1 v 112.8 c 0,7.79 -6.31,14.1 -14.1,14.1 H 739.6 c -7.787,0 -14.1,-6.31 -14.1,-14.1 z"
       stroke="#000000"
       stroke-width="1.13333"
       stroke-linejoin="round"
       stroke-miterlimit="10"
       fill="#ffffff"
       fill-rule="evenodd"
       id="path98" />
    <text
       font-family="'Segoe UI', 'Segoe UI_MSFontService', sans-serif"
       font-weight="400"
       font-size="48px"
       transform="translate(768.76,1574)"
       id="text100">Manage customer</text>
    <text
       font-family="'Segoe UI', 'Segoe UI_MSFontService', sans-serif"
       font-weight="400"
       font-size="48px"
       transform="translate(825.933,1632)"
       id="text102">relationships</text>
    <path
       d="m 1298,319.7 c 0,-32.419 26.28,-58.7 58.7,-58.7 h 469.6 c 32.42,0 58.7,26.281 58.7,58.7 v 1352.6 c 0,32.42 -26.28,58.7 -58.7,58.7 h -469.6 c -32.42,0 -58.7,-26.28 -58.7,-58.7 z"
       fill="#cbcbcb"
       fill-rule="evenodd"
       id="path104" />
    <text
       font-family="'Segoe UI Semibold', 'Segoe UI Semibold_MSFontService', sans-serif"
       font-weight="600"
       font-size="72px"
       transform="translate(1384.15,463)"
       id="text106">Downstream</text>
    <text
       font-family="'Segoe UI Semibold', 'Segoe UI Semibold_MSFontService', sans-serif"
       font-weight="600"
       font-size="72px"
       transform="translate(1433.11,549)"
       id="text108">processes</text>
    <path
       d="m 1356.5,731.4 c 0,-15.961 12.94,-28.9 28.9,-28.9 h 412.2 c 15.96,0 28.9,12.939 28.9,28.9 v 231.2 c 0,15.961 -12.94,28.9 -28.9,28.9 h -412.2 c -15.96,0 -28.9,-12.939 -28.9,-28.9 z"
       stroke="#000000"
       stroke-width="1.13333"
       stroke-linejoin="round"
       stroke-miterlimit="10"
       fill="#ffffff"
       fill-rule="evenodd"
       id="path110" />
    <text
       font-family="'Segoe UI', 'Segoe UI_MSFontService', sans-serif"
       font-weight="400"
       font-size="48px"
       transform="translate(1447.67,863)"
       id="text112">Order to</text>
    <text
       font-family="'Segoe UI', 'Segoe UI_MSFontService', sans-serif"
       font-weight="400"
       font-size="48px"
       transform="translate(1640.28,863)"
       id="text114">c</text>
    <text
       font-family="'Segoe UI', 'Segoe UI_MSFontService', sans-serif"
       font-weight="400"
       font-size="48px"
       transform="translate(1662.45,863)"
       id="text116">ash</text>
    <path
       d="m 1356.5,1064.4 c 0,-15.96 12.94,-28.9 28.9,-28.9 h 412.2 c 15.96,0 28.9,12.94 28.9,28.9 v 231.2 c 0,15.96 -12.94,28.9 -28.9,28.9 h -412.2 c -15.96,0 -28.9,-12.94 -28.9,-28.9 z"
       stroke="#000000"
       stroke-width="1.13333"
       stroke-linejoin="round"
       stroke-miterlimit="10"
       fill="#ffffff"
       fill-rule="evenodd"
       id="path118" />
    <text
       font-family="'Segoe UI', 'Segoe UI_MSFontService', sans-serif"
       font-weight="400"
       font-size="48px"
       transform="translate(1433.27,1196)"
       id="text120">Service to</text>
    <text
       font-family="'Segoe UI', 'Segoe UI_MSFontService', sans-serif"
       font-weight="400"
       font-size="48px"
       transform="translate(1654.68,1196)"
       id="text122">c</text>
    <text
       font-family="'Segoe UI', 'Segoe UI_MSFontService', sans-serif"
       font-weight="400"
       font-size="48px"
       transform="translate(1676.86,1196)"
       id="text124">ash</text>
    <path
       d="m 1356.5,1397.4 c 0,-15.96 12.94,-28.9 28.9,-28.9 h 412.2 c 15.96,0 28.9,12.94 28.9,28.9 v 231.2 c 0,15.96 -12.94,28.9 -28.9,28.9 h -412.2 c -15.96,0 -28.9,-12.94 -28.9,-28.9 z"
       stroke="#000000"
       stroke-width="1.13333"
       stroke-linejoin="round"
       stroke-miterlimit="10"
       fill="#ffffff"
       fill-rule="evenodd"
       id="path126" />
    <text
       font-family="'Segoe UI', 'Segoe UI_MSFontService', sans-serif"
       font-weight="400"
       font-size="48px"
       transform="translate(1384.94,1529)"
       id="text128">Inventory to</text>
    <text
       font-family="'Segoe UI', 'Segoe UI_MSFontService', sans-serif"
       font-weight="400"
       font-size="48px"
       transform="translate(1656.02,1529)"
       id="text130">d</text>
    <text
       font-family="'Segoe UI', 'Segoe UI_MSFontService', sans-serif"
       font-weight="400"
       font-size="48px"
       transform="translate(1684.29,1529)"
       id="text132">eliver</text>
  </g>
</svg>
