<?xml version="1.0" encoding="UTF-8" standalone="no"?>
<svg
   width="1647.0497"
   height="1531.1393"
   overflow="hidden"
   version="1.1"
   id="svg1133"
   sodipodi:docname="prospect-to-quote-define-sales-strategy-flow.svg"
   inkscape:version="1.2.2 (732a01da63, 2022-12-09)"
   xmlns:inkscape="http://www.inkscape.org/namespaces/inkscape"
   xmlns:sodipodi="http://sodipodi.sourceforge.net/DTD/sodipodi-0.dtd"
   xmlns="http://www.w3.org/2000/svg"
   xmlns:svg="http://www.w3.org/2000/svg">
  <defs
     id="defs1137" />
  <sodipodi:namedview
     id="namedview1135"
     pagecolor="#ffffff"
     bordercolor="#000000"
     borderopacity="0.25"
     inkscape:showpageshadow="2"
     inkscape:pageopacity="0.0"
     inkscape:pagecheckerboard="0"
     inkscape:deskcolor="#d1d1d1"
     showgrid="false"
     inkscape:zoom="0.53489583"
     inkscape:cx="885.21908"
     inkscape:cy="773.98247"
     inkscape:window-width="2557"
     inkscape:window-height="2032"
     inkscape:window-x="3382"
     inkscape:window-y="78"
     inkscape:window-maximized="0"
     inkscape:current-layer="svg1133" />
  <g
     id="g1131"
     transform="translate(-76.650436,-185.08276)">
    <rect
       x="76.650436"
       y="185.08276"
       width="1647.0497"
       height="1531.1393"
       fill="#ffffff"
       id="rect945"
       style="stroke-width:0.827103" />
    <rect
       x="880"
       y="203"
       width="827"
       height="1501"
       stroke="#a6a6a6"
       stroke-width="2"
       stroke-linejoin="round"
       stroke-miterlimit="10"
       fill="#a0a0a0"
       id="rect947" />
    <path
       d="M 91,306.5 C 91,286.342 107.342,270 127.5,270 h 139 c 20.158,0 36.5,16.342 36.5,36.5 v 0 c 0,20.158 -16.342,36.5 -36.5,36.5 h -139 C 107.342,343 91,326.658 91,306.5 Z"
       stroke="#0078d4"
       stroke-width="2"
       stroke-linejoin="round"
       stroke-miterlimit="10"
       fill="#ffffff"
       fill-rule="evenodd"
       id="path949" />
    <text
       font-family="'Segoe UI', 'Segoe UI_MSFontService', sans-serif"
       font-weight="400"
       font-size="24px"
       transform="translate(172.047,315)"
       id="text951">Start</text>
    <rect
       x="1161"
       y="230"
       width="262"
       height="153"
       stroke="#0078d4"
       stroke-width="2"
       stroke-linejoin="round"
       stroke-miterlimit="10"
       fill="#0078d4"
       id="rect953" />
    <text
       fill="#ffffff"
       font-family="'Segoe UI Semibold', 'Segoe UI Semibold_MSFontService', sans-serif"
       font-weight="600"
       font-size="24px"
       transform="translate(1226.78,300)"
       id="text955">Define sales</text>
    <text
       fill="#ffffff"
       font-family="'Segoe UI Semibold', 'Segoe UI Semibold_MSFontService', sans-serif"
       font-weight="600"
       font-size="24px"
       transform="translate(1247.84,329)"
       id="text957">strategy</text>
    <rect
       x="113"
       y="929"
       width="212"
       height="154"
       stroke="#a6a6a6"
       stroke-width="2"
       stroke-linejoin="round"
       stroke-miterlimit="10"
       fill="#a0a0a0"
       id="rect959" />
    <text
       font-family="'Segoe UI', 'Segoe UI_MSFontService', sans-serif"
       font-weight="400"
       font-size="24px"
       transform="translate(160.95,1000)"
       id="text961">Forecast to</text>
    <text
       font-family="'Segoe UI', 'Segoe UI_MSFontService', sans-serif"
       font-weight="400"
       font-size="24px"
       transform="translate(196.283,1029)"
       id="text963">plan</text>
    <rect
       x="112"
       y="712"
       width="211"
       height="153"
       stroke="#a6a6a6"
       stroke-width="2"
       stroke-linejoin="round"
       stroke-miterlimit="10"
       fill="#a0a0a0"
       id="rect965" />
    <text
       font-family="'Segoe UI', 'Segoe UI_MSFontService', sans-serif"
       font-weight="400"
       font-size="24px"
       transform="translate(150.899,797)"
       id="text967">Hire</text>
    <text
       font-family="'Segoe UI', 'Segoe UI_MSFontService', sans-serif"
       font-weight="400"
       font-size="24px"
       transform="translate(200.752,797)"
       id="text969">to retire</text>
    <path
       d="m 0,-0.5 h 56.0422 c 0.2761,0 0.5,0.223858 0.5,0.5 V 2.09974e-4 L 56.0422,-0.49979 h 49.3758 v 1 H 56.0422 c -0.2761,0 -0.5,-0.223858 -0.5,-0.500000026 V 0 l 0.5,0.5 H 0 Z m 104.084,-3.49979 8,3.999999974 -8,4.000000026 z"
       fill="#0078d4"
       transform="matrix(1,0,0,-1,323.5,789.5)"
       id="path971" />
    <rect
       x="113"
       y="1145"
       width="212"
       height="153"
       stroke="#a6a6a6"
       stroke-width="2"
       stroke-linejoin="round"
       stroke-miterlimit="10"
       fill="#a0a0a0"
       id="rect973" />
    <text
       font-family="'Segoe UI', 'Segoe UI_MSFontService', sans-serif"
       font-weight="400"
       font-size="24px"
       transform="translate(168.117,1215)"
       id="text975">Record to</text>
    <text
       font-family="'Segoe UI', 'Segoe UI_MSFontService', sans-serif"
       font-weight="400"
       font-size="24px"
       transform="translate(186.177,1244)"
       id="text977">report</text>
    <path
       d="m 325.5,1006 h 103.887 v 1 H 325.5 Z m 102.553,-3.5 8,4 -8,4 z"
       fill="#0078d4"
       id="path979" />
    <rect
       x="1392"
       y="642"
       width="286"
       height="154"
       fill="#ffffff"
       id="rect981" />
    <path
       d="m 1427.75,642 v 154 m 214.5,-154 v 154"
       stroke="#0078d4"
       stroke-width="2"
       stroke-linejoin="round"
       stroke-miterlimit="10"
       fill="none"
       fill-rule="evenodd"
       id="path983" />
    <rect
       x="1392"
       y="642"
       width="286"
       height="154"
       stroke="#0078d4"
       stroke-width="2"
       stroke-linejoin="round"
       stroke-miterlimit="10"
       fill="none"
       id="rect985" />
    <text
       font-family="'Segoe UI', 'Segoe UI_MSFontService', sans-serif"
       font-weight="400"
       font-size="24px"
       transform="translate(1477.47,699)"
       id="text987">Define and</text>
    <text
       font-family="'Segoe UI', 'Segoe UI_MSFontService', sans-serif"
       font-weight="400"
       font-size="24px"
       transform="translate(1463.72,728)"
       id="text989">manage sales</text>
    <text
       font-family="'Segoe UI', 'Segoe UI_MSFontService', sans-serif"
       font-weight="400"
       font-size="24px"
       transform="translate(1484.07,757)"
       id="text991">territories</text>
    <rect
       x="1149"
       y="430"
       width="286"
       height="153"
       fill="#ffffff"
       id="rect993" />
    <path
       d="m 1184.75,430 v 153 m 214.5,-153 v 153"
       stroke="#0078d4"
       stroke-width="2"
       stroke-linejoin="round"
       stroke-miterlimit="10"
       fill="none"
       fill-rule="evenodd"
       id="path995" />
    <rect
       x="1149"
       y="430"
       width="286"
       height="153"
       stroke="#0078d4"
       stroke-width="2"
       stroke-linejoin="round"
       stroke-miterlimit="10"
       fill="none"
       id="rect997" />
    <text
       font-family="'Segoe UI', 'Segoe UI_MSFontService', sans-serif"
       font-weight="400"
       font-size="24px"
       transform="translate(1229.03,501)"
       id="text999">Define sales</text>
    <text
       font-family="'Segoe UI', 'Segoe UI_MSFontService', sans-serif"
       font-weight="400"
       font-size="24px"
       transform="translate(1245.86,530)"
       id="text1001">channels</text>
    <rect
       x="931"
       y="642"
       width="285"
       height="154"
       fill="#ffffff"
       id="rect1003" />
    <path
       d="M 966.625,642 V 796 M 1180.38,642 v 154"
       stroke="#0078d4"
       stroke-width="2"
       stroke-linejoin="round"
       stroke-miterlimit="10"
       fill="none"
       fill-rule="evenodd"
       id="path1005" />
    <rect
       x="931"
       y="642"
       width="285"
       height="154"
       stroke="#0078d4"
       stroke-width="2"
       stroke-linejoin="round"
       stroke-miterlimit="10"
       fill="none"
       id="rect1007" />
    <text
       font-family="'Segoe UI', 'Segoe UI_MSFontService', sans-serif"
       font-weight="400"
       font-size="24px"
       transform="translate(1010.35,713)"
       id="text1009">Define sales</text>
    <text
       font-family="'Segoe UI', 'Segoe UI_MSFontService', sans-serif"
       font-weight="400"
       font-size="24px"
       transform="translate(1041.61,742)"
       id="text1011">teams</text>
    <rect
       x="1139"
       y="857"
       width="287"
       height="153"
       fill="#ffffff"
       id="rect1013" />
    <path
       d="m 1174.88,857 v 153 m 215.24,-153 v 153"
       stroke="#0078d4"
       stroke-width="2"
       stroke-linejoin="round"
       stroke-miterlimit="10"
       fill="none"
       fill-rule="evenodd"
       id="path1015" />
    <rect
       x="1139"
       y="857"
       width="287"
       height="153"
       stroke="#0078d4"
       stroke-width="2"
       stroke-linejoin="round"
       stroke-miterlimit="10"
       fill="none"
       id="rect1017" />
    <text
       font-family="'Segoe UI', 'Segoe UI_MSFontService', sans-serif"
       font-weight="400"
       font-size="24px"
       transform="translate(1247.98,899)"
       id="text1019">Define</text>
    <text
       font-family="'Segoe UI', 'Segoe UI_MSFontService', sans-serif"
       font-weight="400"
       font-size="24px"
       transform="translate(1206.06,928)"
       id="text1021">salesperson or</text>
    <text
       font-family="'Segoe UI', 'Segoe UI_MSFontService', sans-serif"
       font-weight="400"
       font-size="24px"
       transform="translate(1209.14,957)"
       id="text1023">sales taker for</text>
    <text
       font-family="'Segoe UI', 'Segoe UI_MSFontService', sans-serif"
       font-weight="400"
       font-size="24px"
       transform="translate(1248.64,986)"
       id="text1025">orders</text>
    <rect
       x="1138"
       y="1058"
       width="287"
       height="154"
       fill="#ffffff"
       id="rect1027" />
    <path
       d="m 1173.88,1058 v 154 m 215.24,-154 v 154"
       stroke="#0078d4"
       stroke-width="2"
       stroke-linejoin="round"
       stroke-miterlimit="10"
       fill="none"
       fill-rule="evenodd"
       id="path1029" />
    <rect
       x="1138"
       y="1058"
       width="287"
       height="154"
       stroke="#0078d4"
       stroke-width="2"
       stroke-linejoin="round"
       stroke-miterlimit="10"
       fill="none"
       id="rect1031" />
    <text
       font-family="'Segoe UI', 'Segoe UI_MSFontService', sans-serif"
       font-weight="400"
       font-size="24px"
       transform="translate(1226.35,1129)"
       id="text1033">Determine</text>
    <text
       font-family="'Segoe UI', 'Segoe UI_MSFontService', sans-serif"
       font-weight="400"
       font-size="24px"
       transform="translate(1216.31,1158)"
       id="text1035">sales targets</text>
    <text
       fill="#0078d4"
       font-family="'Segoe UI', 'Segoe UI_MSFontService', sans-serif"
       font-weight="400"
       font-size="43px"
       transform="translate(913.002,1669)"
       id="text1037">Business</text>
    <text
       fill="#0078d4"
       font-family="'Segoe UI', 'Segoe UI_MSFontService', sans-serif"
       font-weight="400"
       font-size="43px"
       transform="translate(1084.67,1669)"
       id="text1039">p</text>
    <text
       fill="#0078d4"
       font-family="'Segoe UI', 'Segoe UI_MSFontService', sans-serif"
       font-weight="400"
       font-size="43px"
       transform="translate(1109.84,1669)"
       id="text1041">rocess</text>
    <text
       fill="#0078d4"
       font-family="'Segoe UI', 'Segoe UI_MSFontService', sans-serif"
       font-weight="400"
       font-size="43px"
       transform="translate(1239.11,1669)"
       id="text1043">a</text>
    <text
       fill="#0078d4"
       font-family="'Segoe UI', 'Segoe UI_MSFontService', sans-serif"
       font-weight="400"
       font-size="43px"
       transform="translate(1260.78,1669)"
       id="text1045">rea</text>
    <path
       d="m 551.5,802 h 40.363 v 1 H 551.5 Z m 39.029,-3.5 8,4 -8,4 z"
       fill="#0078d4"
       id="path1047" />
    <path
       d="m 0,-0.5 h 116.566 c 0.276,0 0.5,0.223858 0.5,0.5 v 69.8679 l -0.5,-0.5 h 109.899 v 1 H 116.566 c -0.276,0 -0.5,-0.2238 -0.5,-0.5 V 0 l 0.5,0.5 H 0 Z m 225.132,66.3679 8,4 -8,4 z"
       fill="#0078d4"
       transform="matrix(1,0,0,-1,698.5,789.368)"
       id="path1049" />
    <path
       d="M 0.499953,-0.00687299 1.07036,41.4855 0.0704546,41.4993 -0.499953,0.00687299 Z M 4.5517,40.1042 0.662047,48.1584 -3.44754,40.2142 Z"
       fill="#0078d4"
       transform="matrix(-1,0,0,1,1283.16,1010.5)"
       id="path1051" />
    <rect
       x="1140"
       y="1260"
       width="285"
       height="153"
       fill="#ffffff"
       id="rect1053" />
    <path
       d="m 1175.62,1260 v 153 m 213.76,-153 v 153"
       stroke="#0078d4"
       stroke-width="2"
       stroke-linejoin="round"
       stroke-miterlimit="10"
       fill="none"
       fill-rule="evenodd"
       id="path1055" />
    <rect
       x="1140"
       y="1260"
       width="285"
       height="153"
       stroke="#0078d4"
       stroke-width="2"
       stroke-linejoin="round"
       stroke-miterlimit="10"
       fill="none"
       id="rect1057" />
    <text
       font-family="'Segoe UI', 'Segoe UI_MSFontService', sans-serif"
       font-weight="400"
       font-size="24px"
       transform="translate(1207.51,1302)"
       id="text1059">Establish sales</text>
    <text
       font-family="'Segoe UI', 'Segoe UI_MSFontService', sans-serif"
       font-weight="400"
       font-size="24px"
       transform="translate(1219.27,1331)"
       id="text1061">commission</text>
    <text
       font-family="'Segoe UI', 'Segoe UI_MSFontService', sans-serif"
       font-weight="400"
       font-size="24px"
       transform="translate(1211.92,1360)"
       id="text1063">and incentive</text>
    <text
       font-family="'Segoe UI', 'Segoe UI_MSFontService', sans-serif"
       font-weight="400"
       font-size="24px"
       transform="translate(1230.42,1389)"
       id="text1065">structures</text>
    <rect
       x="435"
       y="712"
       width="263"
       height="153"
       stroke="#0078d4"
       stroke-width="2"
       stroke-linejoin="round"
       stroke-miterlimit="10"
       fill="#0078d4"
       id="rect1067" />
    <text
       fill="#ffffff"
       font-family="'Segoe UI Semibold', 'Segoe UI Semibold_MSFontService', sans-serif"
       font-weight="600"
       font-size="24px"
       transform="translate(480.566,783)"
       id="text1069">Plan and recruit</text>
    <text
       fill="#ffffff"
       font-family="'Segoe UI Semibold', 'Segoe UI Semibold_MSFontService', sans-serif"
       font-weight="600"
       font-size="24px"
       transform="translate(511.779,812)"
       id="text1071">workforce</text>
    <path
       d="m 698.5,789 h 116.512 c 0.276,0 0.5,0.224 0.5,0.5 v 144.774 l -0.5,-0.5 h 318.308 v 1 H 815.012 c -0.276,0 -0.5,-0.224 -0.5,-0.5 V 789.5 l 0.5,0.5 H 698.5 Z m 433.48,141.274 8,4 -8,4 z"
       fill="#0078d4"
       id="path1073" />
    <rect
       x="441"
       y="923"
       width="262"
       height="154"
       stroke="#0078d4"
       stroke-width="2"
       stroke-linejoin="round"
       stroke-miterlimit="10"
       fill="#0078d4"
       id="rect1075" />
    <text
       fill="#ffffff"
       font-family="'Segoe UI Semibold', 'Segoe UI Semibold_MSFontService', sans-serif"
       font-weight="600"
       font-size="24px"
       transform="translate(487.167,994)"
       id="text1077">Forecast supply</text>
    <text
       fill="#ffffff"
       font-family="'Segoe UI Semibold', 'Segoe UI Semibold_MSFontService', sans-serif"
       font-weight="600"
       font-size="24px"
       transform="translate(503.061,1023)"
       id="text1079">and demand</text>
    <rect
       x="435"
       y="1141"
       width="263"
       height="153"
       stroke="#0078d4"
       stroke-width="2"
       stroke-linejoin="round"
       stroke-miterlimit="10"
       fill="#0078d4"
       id="rect1081" />
    <text
       fill="#ffffff"
       font-family="'Segoe UI Semibold', 'Segoe UI Semibold_MSFontService', sans-serif"
       font-weight="600"
       font-size="24px"
       transform="translate(464.147,1226)"
       id="text1083">Manage budgets</text>
    <path
       d="m 325.5,1216 h 103.887 v 1 H 325.5 Z m 102.553,-3.5 8,4 -8,4 z"
       fill="#0078d4"
       id="path1085" />
    <path
       d="m 703.5,1000 h 114.92 c 0.277,0 0.5,0.22 0.5,0.5 v 135.03 l -0.5,-0.5 h 313.97 v 1 H 818.42 c -0.276,0 -0.5,-0.23 -0.5,-0.5 V 1000.5 l 0.5,0.5 H 703.5 Z m 427.55,131.53 8,4 -8,4 z"
       fill="#0078d4"
       id="path1087" />
    <path
       d="m 0,-0.5 h 120.296 c 0.276,0 0.5,0.223858 0.5,0.5 v 82.3393 l -0.5,-0.5 h 313.859 v 1 H 120.296 c -0.276,0 -0.5,-0.2238 -0.5,-0.5 V 0 l 0.5,0.5 H 0 Z m 432.821,78.8393 8,4 -8,4 z"
       fill="#0078d4"
       transform="matrix(1,0,0,-1,698.5,1217.84)"
       id="path1089" />
    <rect
       x="435"
       y="1389"
       width="263"
       height="154"
       stroke="#0078d4"
       stroke-width="2"
       stroke-linejoin="round"
       stroke-miterlimit="10"
       fill="#0078d4"
       id="rect1091" />
    <text
       fill="#ffffff"
       font-family="'Segoe UI Semibold', 'Segoe UI Semibold_MSFontService', sans-serif"
       font-weight="600"
       font-size="24px"
       transform="translate(492.459,1446)"
       id="text1093">Define ledger</text>
    <text
       fill="#ffffff"
       font-family="'Segoe UI Semibold', 'Segoe UI Semibold_MSFontService', sans-serif"
       font-weight="600"
       font-size="24px"
       transform="translate(493.986,1475)"
       id="text1095">structure and</text>
    <text
       fill="#ffffff"
       font-family="'Segoe UI Semibold', 'Segoe UI Semibold_MSFontService', sans-serif"
       font-weight="600"
       font-size="24px"
       transform="translate(475.399,1504)"
       id="text1097">currency policies</text>
    <path
       d="m 0,-0.5 h 167.938 c 0.276,0 0.5,0.223858 0.5,0.5 v 209.564 h -1 V 0 l 0.5,0.5 H 0 Z m 171.938,208.731 -4,8 -4,-8 z"
       fill="#0078d4"
       transform="matrix(0,1,1,0,219.5,1298.5)"
       id="path1099" />
    <path
       d="m 0,-0.5 h 115.423 c 0.276,0 0.5,0.223858 0.5,0.5 v 129.365 l -0.5,-0.5 h 319.959 v 1 H 115.423 c -0.276,0 -0.5,-0.224 -0.5,-0.5 V 0 l 0.5,0.5 H 0 Z m 434.049,125.865 8,4 -8,4 z"
       fill="#0078d4"
       transform="matrix(1,0,0,-1,698.5,1466.86)"
       id="path1101" />
    <path
       d="m 1283,1212.49 0.53,41.5 -1,0.01 -0.53,-41.49 z m 4.01,40.12 -3.9,8.05 -4.1,-7.95 z"
       fill="#0078d4"
       id="path1103" />
    <path
       d="m 0,-0.5 h 29.678 c 0.2761,0 0.5,0.223858 0.5,0.5 v 242.945 l -0.5,-0.5 h 23.0112 v 1 H 29.678 c -0.2762,0 -0.5,-0.224 -0.5,-0.5 V 0 l 0.5,0.5 H 0 Z m 51.3559,239.445 8,4 -8,4 z"
       fill="#0078d4"
       transform="matrix(0,1,1,0,1292.5,583.5)"
       id="path1105" />
    <path
       d="m 1292.68,583.5 v 29.678 c 0,0.276 -0.23,0.5 -0.5,0.5 H 1073.5 l 0.5,-0.5 v 23.011 h -1 v -23.011 c 0,-0.276 0.22,-0.5 0.5,-0.5 h 218.68 l -0.5,0.5 V 583.5 Z m -215.18,51.356 -4,8 -4,-8 z"
       fill="#0078d4"
       id="path1107" />
    <path
       d="m 1176,1526.5 c 0,-20.16 16.34,-36.5 36.5,-36.5 h 138 c 20.16,0 36.5,16.34 36.5,36.5 v 0 c 0,20.16 -16.34,36.5 -36.5,36.5 h -138 c -20.16,0 -36.5,-16.34 -36.5,-36.5 z"
       stroke="#0078d4"
       stroke-width="2"
       stroke-linejoin="round"
       stroke-miterlimit="10"
       fill="#ffffff"
       fill-rule="evenodd"
       id="path1109" />
    <text
       font-family="'Segoe UI', 'Segoe UI_MSFontService', sans-serif"
       font-weight="400"
       font-size="24px"
       transform="translate(1261.73,1535)"
       id="text1111">End</text>
    <path
       d="M 0.499984,-0.00397678 1.06071,70.4942 0.0607455,70.5021 -0.499984,0.00397678 Z M 4.55,69.1331 0.613753,77.1646 -3.44975,69.1967 Z"
       fill="#0078d4"
       transform="matrix(-1,0,0,1,1283.11,1413.5)"
       id="path1113" />
    <path
       d="m 1535.66,796.5 v 30.676 c 0,0.276 -0.23,0.5 -0.5,0.5 H 1282.5 l 0.5,-0.5 v 24.009 h -1 v -24.009 c 0,-0.276 0.22,-0.5 0.5,-0.5 h 252.66 l -0.5,0.5 V 796.5 Z m -249.16,53.352 -4,8 -4,-8 z"
       fill="#0078d4"
       id="path1115" />
    <path
       d="m 0,-0.5 h 30.6759 c 0.2762,0 0.5,0.223858 0.5,0.5 v 208.965 l -0.5,-0.5 h 24.009 v 1 h -24.009 c -0.2761,0 -0.5,-0.224 -0.5,-0.5 V 0 l 0.5,0.5 H 0 Z m 53.3516,205.465 8,4 -8,4 z"
       fill="#0078d4"
       transform="matrix(0,1,1,0,1073.5,796.5)"
       id="path1117" />
    <path
       d="m 1293,383.5 v 23.441 c 0,0.276 -0.22,0.5 -0.5,0.5 v 0 l 0.5,-0.5 v 16.774 h -1 v -16.774 c 0,-0.276 0.22,-0.5 0.5,-0.5 v 0 l -0.5,0.5 V 383.5 Z m 3.5,38.882 -4,8 -4,-8 z"
       fill="#0078d4"
       id="path1119" />
    <rect
       x="411"
       y="230"
       width="211"
       height="153"
       stroke="#a6a6a6"
       stroke-width="2"
       stroke-linejoin="round"
       stroke-miterlimit="10"
       fill="#a0a0a0"
       id="rect1121" />
    <text
       font-family="'Segoe UI', 'Segoe UI_MSFontService', sans-serif"
       font-weight="400"
       font-size="24px"
       transform="translate(456.404,300)"
       id="text1123">Prospect to</text>
    <text
       font-family="'Segoe UI', 'Segoe UI_MSFontService', sans-serif"
       font-weight="400"
       font-size="24px"
       transform="translate(485.417,329)"
       id="text1125">quote</text>
    <path
       d="m 622.5,306 h 532.08 v 1 H 622.5 Z m 530.75,-3.5 8,4 -8,4 z"
       fill="#0078d4"
       id="path1127" />
    <path
       d="M 4.84741e-7,-0.5 101.625,-0.499901 v 1 L -4.84741e-7,0.5 Z M 100.292,-3.9999 l 8,4.000004987 -8,3.999995013 z"
       fill="#0078d4"
       transform="matrix(1,0,0,-1,303.5,306.5)"
       id="path1129" />
  </g>
</svg>
