<svg width="1920" height="1920" xmlns="http://www.w3.org/2000/svg" xmlns:xlink="http://www.w3.org/1999/xlink" overflow="hidden"><g><rect x="0" y="0" width="1920" height="1920" fill="#FFFFFF"/><path d="M408 302.5C408 282.342 424.342 266 444.5 266L582.5 266C602.658 266 619 282.342 619 302.5L619 302.5C619 322.658 602.658 339 582.5 339L444.5 339C424.342 339 408 322.658 408 302.5Z" stroke="#0078D4" stroke-width="2" stroke-linejoin="round" stroke-miterlimit="10" fill="none" fill-rule="evenodd"/><text font-family="Segoe UI,Segoe UI_MSFontService,sans-serif" font-weight="400" font-size="24" transform="translate(488.9 311)">Start</text><rect x="718" y="858" width="286" height="154" fill="#FFFFFF"/><path d="M753.75 858 753.75 1012M968.25 858 968.25 1012" stroke="#0078D4" stroke-width="2" stroke-linejoin="round" stroke-miterlimit="10" fill="none" fill-rule="evenodd"/><rect x="718" y="858" width="286" height="154" stroke="#0078D4" stroke-width="2" stroke-linejoin="round" stroke-miterlimit="10" fill="none"/><text font-family="Segoe UI,Segoe UI_MSFontService,sans-serif" font-weight="400" font-size="24" transform="translate(797.979 929)">Identify and</text><text font-family="Segoe UI,Segoe UI_MSFontService,sans-serif" font-weight="400" font-size="24" transform="translate(794.979 958)">q</text><text font-family="Segoe UI,Segoe UI_MSFontService,sans-serif" font-weight="400" font-size="24" transform="translate(809.146 958)">ualify</text><text font-family="Segoe UI,Segoe UI_MSFontService,sans-serif" font-weight="400" font-size="24" transform="translate(872.533 958)">l</text><text font-family="Segoe UI,Segoe UI_MSFontService,sans-serif" font-weight="400" font-size="24" transform="translate(878.366 958)">eads</text><rect x="718" y="427" width="286" height="153" fill="#FFFFFF"/><path d="M753.75 427 753.75 580M968.25 427 968.25 580" stroke="#0078D4" stroke-width="2" stroke-linejoin="round" stroke-miterlimit="10" fill="none" fill-rule="evenodd"/><rect x="718" y="427" width="286" height="153" stroke="#0078D4" stroke-width="2" stroke-linejoin="round" stroke-miterlimit="10" fill="none"/><text font-family="Segoe UI,Segoe UI_MSFontService,sans-serif" font-weight="400" font-size="24" transform="translate(788.839 498)">Define</text><text font-family="Segoe UI,Segoe UI_MSFontService,sans-serif" font-weight="400" font-size="24" transform="translate(864.006 498)">a</text><text font-family="Segoe UI,Segoe UI_MSFontService,sans-serif" font-weight="400" font-size="24" transform="translate(882.673 498)">sales</text><text font-family="Segoe UI,Segoe UI_MSFontService,sans-serif" font-weight="400" font-size="24" transform="translate(818.599 527)">strategy</text><path d="M1403 1582.5C1403 1562.34 1419.34 1546 1439.5 1546L1577.5 1546C1597.66 1546 1614 1562.34 1614 1582.5L1614 1582.5C1614 1602.66 1597.66 1619 1577.5 1619L1439.5 1619C1419.34 1619 1403 1602.66 1403 1582.5Z" stroke="#0078D4" stroke-width="2" stroke-linejoin="round" stroke-miterlimit="10" fill="none" fill-rule="evenodd"/><text font-family="Segoe UI,Segoe UI_MSFontService,sans-serif" font-weight="400" font-size="24" transform="translate(1488.65 1591)">End</text><rect x="718" y="226" width="262" height="153" stroke="#0078D4" stroke-width="2" stroke-linejoin="round" stroke-miterlimit="10" fill="#0078D4"/><text fill="#FFFFFF" font-family="Segoe UI Semibold,Segoe UI Semibold_MSFontService,sans-serif" font-weight="600" font-size="24" transform="translate(746.715 311)">Prospect</text><text fill="#FFFFFF" font-family="Segoe UI Semibold,Segoe UI Semibold_MSFontService,sans-serif" font-weight="600" font-size="24" transform="translate(848.001 311)">t</text><text fill="#FFFFFF" font-family="Segoe UI Semibold,Segoe UI Semibold_MSFontService,sans-serif" font-weight="600" font-size="24" transform="translate(856.528 311)">o</text><text fill="#FFFFFF" font-family="Segoe UI Semibold,Segoe UI Semibold_MSFontService,sans-serif" font-weight="600" font-size="24" transform="translate(877.528 311)">q</text><text fill="#FFFFFF" font-family="Segoe UI Semibold,Segoe UI Semibold_MSFontService,sans-serif" font-weight="600" font-size="24" transform="translate(892.028 311)">uote</text><rect x="396" y="643" width="211" height="153" stroke="#A6A6A6" stroke-width="2" stroke-linejoin="round" stroke-miterlimit="10" fill="#A0A0A0"/><text font-family="Segoe UI,Segoe UI_MSFontService,sans-serif" font-weight="400" font-size="24" transform="translate(443.517 714)">Forecast to</text><text font-family="Segoe UI,Segoe UI_MSFontService,sans-serif" font-weight="400" font-size="24" transform="translate(478.85 743)">p</text><text font-family="Segoe UI,Segoe UI_MSFontService,sans-serif" font-weight="400" font-size="24" transform="translate(493.017 743)">lan</text><rect x="718" y="1074" width="286" height="153" fill="#FFFFFF"/><path d="M753.75 1074 753.75 1227M968.25 1074 968.25 1227" stroke="#0078D4" stroke-width="2" stroke-linejoin="round" stroke-miterlimit="10" fill="none" fill-rule="evenodd"/><rect x="718" y="1074" width="286" height="153" stroke="#0078D4" stroke-width="2" stroke-linejoin="round" stroke-miterlimit="10" fill="none"/><text font-family="Segoe UI,Segoe UI_MSFontService,sans-serif" font-weight="400" font-size="24" transform="translate(825.339 1145)">Pursue</text><text font-family="Segoe UI,Segoe UI_MSFontService,sans-serif" font-weight="400" font-size="24" transform="translate(789.659 1174)">o</text><text font-family="Segoe UI,Segoe UI_MSFontService,sans-serif" font-weight="400" font-size="24" transform="translate(803.659 1174)">pportunities</text><rect x="718" y="643" width="286" height="153" fill="#FFFFFF"/><path d="M753.75 643 753.75 796M968.25 643 968.25 796" stroke="#0078D4" stroke-width="2" stroke-linejoin="round" stroke-miterlimit="10" fill="none" fill-rule="evenodd"/><rect x="718" y="643" width="286" height="153" stroke="#0078D4" stroke-width="2" stroke-linejoin="round" stroke-miterlimit="10" fill="none"/><text font-family="Segoe UI,Segoe UI_MSFontService,sans-serif" font-weight="400" font-size="24" transform="translate(783.829 714)">Run</text><text font-family="Segoe UI,Segoe UI_MSFontService,sans-serif" font-weight="400" font-size="24" transform="translate(831.663 714)">m</text><text font-family="Segoe UI,Segoe UI_MSFontService,sans-serif" font-weight="400" font-size="24" transform="translate(852.329 714)">arketing</text><text font-family="Segoe UI,Segoe UI_MSFontService,sans-serif" font-weight="400" font-size="24" transform="translate(804.329 743)">c</text><text font-family="Segoe UI,Segoe UI_MSFontService,sans-serif" font-weight="400" font-size="24" transform="translate(815.496 743)">ampaigns</text><rect x="718" y="1291" width="285" height="154" fill="#FFFFFF"/><path d="M753.625 1291 753.625 1445M967.375 1291 967.375 1445" stroke="#0078D4" stroke-width="2" stroke-linejoin="round" stroke-miterlimit="10" fill="none" fill-rule="evenodd"/><rect x="718" y="1291" width="285" height="154" stroke="#0078D4" stroke-width="2" stroke-linejoin="round" stroke-miterlimit="10" fill="none"/><text font-family="Segoe UI,Segoe UI_MSFontService,sans-serif" font-weight="400" font-size="24" transform="translate(792.569 1362)">Estimate and</text><text font-family="Segoe UI,Segoe UI_MSFontService,sans-serif" font-weight="400" font-size="24" transform="translate(800.822 1391)">q</text><text font-family="Segoe UI,Segoe UI_MSFontService,sans-serif" font-weight="400" font-size="24" transform="translate(814.989 1391)">uote</text><text font-family="Segoe UI,Segoe UI_MSFontService,sans-serif" font-weight="400" font-size="24" transform="translate(869.469 1391)">s</text><text font-family="Segoe UI,Segoe UI_MSFontService,sans-serif" font-weight="400" font-size="24" transform="translate(879.636 1391)">ales</text><rect x="718" y="1505" width="286" height="153" fill="#FFFFFF"/><path d="M753.75 1505 753.75 1658M968.25 1505 968.25 1658" stroke="#0078D4" stroke-width="2" stroke-linejoin="round" stroke-miterlimit="10" fill="none" fill-rule="evenodd"/><rect x="718" y="1505" width="286" height="153" stroke="#0078D4" stroke-width="2" stroke-linejoin="round" stroke-miterlimit="10" fill="none"/><text font-family="Segoe UI,Segoe UI_MSFontService,sans-serif" font-weight="400" font-size="24" transform="translate(818.173 1561)">Manage</text><text font-family="Segoe UI,Segoe UI_MSFontService,sans-serif" font-weight="400" font-size="24" transform="translate(812.019 1590)">c</text><text font-family="Segoe UI,Segoe UI_MSFontService,sans-serif" font-weight="400" font-size="24" transform="translate(823.186 1590)">ustomer</text><text font-family="Segoe UI,Segoe UI_MSFontService,sans-serif" font-weight="400" font-size="24" transform="translate(794.246 1619)">r</text><text font-family="Segoe UI,Segoe UI_MSFontService,sans-serif" font-weight="400" font-size="24" transform="translate(802.266 1619)">elationships</text><path d="M852 371.5 852 421.74 851 421.74 851 371.5ZM855.5 420.407 851.5 428.407 847.5 420.407Z" fill="#0078D4"/><rect x="396" y="427" width="211" height="153" stroke="#A6A6A6" stroke-width="2" stroke-linejoin="round" stroke-miterlimit="10" fill="#A0A0A0"/><text font-family="Segoe UI,Segoe UI_MSFontService,sans-serif" font-weight="400" font-size="24" transform="translate(437.257 469)">Product and</text><text font-family="Segoe UI,Segoe UI_MSFontService,sans-serif" font-weight="400" font-size="24" transform="translate(465.204 498)">s</text><text font-family="Segoe UI,Segoe UI_MSFontService,sans-serif" font-weight="400" font-size="24" transform="translate(475.37 498)">ervice</text><text font-family="Segoe UI,Segoe UI_MSFontService,sans-serif" font-weight="400" font-size="24" transform="translate(459.744 527)">l</text><text font-family="Segoe UI,Segoe UI_MSFontService,sans-serif" font-weight="400" font-size="24" transform="translate(465.577 527)">ifecycle</text><text font-family="Segoe UI,Segoe UI_MSFontService,sans-serif" font-weight="400" font-size="24" transform="translate(431.684 556)">m</text><text font-family="Segoe UI,Segoe UI_MSFontService,sans-serif" font-weight="400" font-size="24" transform="translate(452.35 556)">anagement</text><path d="M0-0.5 49.2718-0.5C49.548-0.5 49.7718-0.276142 49.7718 0L49.7718 0.000104987 49.2718-0.499895 91.877-0.499895 91.877 0.500105 49.2718 0.500105C48.9957 0.500105 48.7718 0.276247 48.7718 0.000104987L48.7718 0 49.2718 0.5 0 0.5ZM90.5436-3.99989 98.5436 0.000104987 90.5436 4.0001Z" fill="#0078D4" transform="matrix(1 0 0 -1 619.5 303.5)"/><path d="M0-0.5 36.0097-0.5C36.2858-0.5 36.5097-0.276142 36.5097 0L36.5097 201.216C36.5097 201.492 36.2858 201.716 36.0097 201.716L18.6764 201.716 18.6764 200.716 36.0097 200.716 35.5097 201.216 35.5097 0 36.0097 0.5 0 0.5ZM20.0098 205.216 12.0098 201.216 20.0098 197.216Z" fill="#0078D4" transform="matrix(-1 1.22465e-16 1.22465e-16 1 408.51 303.5)"/><path d="M0-0.5 36.0097-0.5C36.2858-0.5 36.5097-0.276142 36.5097 0L36.5097 417.285C36.5097 417.561 36.2858 417.785 36.0097 417.785L18.6764 417.785 18.6764 416.785 36.0097 416.785 35.5097 417.285 35.5097 0 36.0097 0.5 0 0.5ZM20.0098 421.285 12.0098 417.285 20.0098 413.285Z" fill="#0078D4" transform="matrix(-1 1.22465e-16 1.22465e-16 1 408.51 303.5)"/><path d="M852 581.5 852 636.882 851 636.882 851 581.5ZM855.5 635.549 851.5 643.549 847.5 635.549Z" fill="#0078D4"/><path d="M852 796.5 852 851.882 851 851.882 851 796.5ZM855.5 850.549 851.5 858.549 847.5 850.549Z" fill="#0078D4"/><path d="M852 1012.5 852 1067.88 851 1067.88 851 1012.5ZM855.5 1066.55 851.5 1074.55 847.5 1066.55Z" fill="#0078D4"/><path d="M0.499981-0.0043661 1.00345 57.6496 0.0034842 57.6584-0.499981 0.0043661ZM4.49167 56.2858 0.56168 64.3204-3.50803 56.3557Z" fill="#0078D4" transform="matrix(-1 0 0 1 851.062 1227.5)"/><path d="M851 1445.5 851.499 1498.61 850.499 1498.62 850 1445.5ZM854.986 1497.24 851.062 1505.28 846.987 1497.32Z" fill="#0078D4"/><rect x="1405" y="858" width="212" height="154" stroke="#A6A6A6" stroke-width="2" stroke-linejoin="round" stroke-miterlimit="10" fill="#A0A0A0"/><text font-family="Segoe UI,Segoe UI_MSFontService,sans-serif" font-weight="400" font-size="24" transform="translate(1446.63 929)">Inventory</text><text font-family="Segoe UI,Segoe UI_MSFontService,sans-serif" font-weight="400" font-size="24" transform="translate(1553.26 929)">to</text><text font-family="Segoe UI,Segoe UI_MSFontService,sans-serif" font-weight="400" font-size="24" transform="translate(1475.67 958)">d</text><text font-family="Segoe UI,Segoe UI_MSFontService,sans-serif" font-weight="400" font-size="24" transform="translate(1489.84 958)">eliver</text><rect x="1403" y="643" width="211" height="153" stroke="#A6A6A6" stroke-width="2" stroke-linejoin="round" stroke-miterlimit="10" fill="#A0A0A0"/><text font-family="Segoe UI,Segoe UI_MSFontService,sans-serif" font-weight="400" font-size="24" transform="translate(1456.51 714)">Service to</text><text font-family="Segoe UI,Segoe UI_MSFontService,sans-serif" font-weight="400" font-size="24" transform="translate(1485.07 743)">c</text><text font-family="Segoe UI,Segoe UI_MSFontService,sans-serif" font-weight="400" font-size="24" transform="translate(1496.23 743)">ash</text><rect x="1403" y="427" width="211" height="153" stroke="#A6A6A6" stroke-width="2" stroke-linejoin="round" stroke-miterlimit="10" fill="#A0A0A0"/><text font-family="Segoe UI,Segoe UI_MSFontService,sans-serif" font-weight="400" font-size="24" transform="translate(1431.69 512)">Order to</text><text font-family="Segoe UI,Segoe UI_MSFontService,sans-serif" font-weight="400" font-size="24" transform="translate(1527.85 512)">c</text><text font-family="Segoe UI,Segoe UI_MSFontService,sans-serif" font-weight="400" font-size="24" transform="translate(1539.02 512)">ash</text><path d="M1336.51 1581 1396.77 1582.06 1396.76 1583.06 1336.49 1582ZM1395.5 1578.54 1403.43 1582.68 1395.36 1586.54Z" fill="#0078D4"/><rect x="396" y="858" width="211" height="154" stroke="#A6A6A6" stroke-width="2" stroke-linejoin="round" stroke-miterlimit="10" fill="#A0A0A0"/><text font-family="Segoe UI,Segoe UI_MSFontService,sans-serif" font-weight="400" font-size="24" transform="translate(450.85 929)">Project to</text><text font-family="Segoe UI,Segoe UI_MSFontService,sans-serif" font-weight="400" font-size="24" transform="translate(473.057 958)">profit</text><rect x="1074" y="1505" width="262" height="153" fill="#FFFFFF"/><path d="M1106.75 1505 1106.75 1658M1303.25 1505 1303.25 1658" stroke="#0078D4" stroke-width="2" stroke-linejoin="round" stroke-miterlimit="10" fill="none" fill-rule="evenodd"/><rect x="1074" y="1505" width="262" height="153" stroke="#0078D4" stroke-width="2" stroke-linejoin="round" stroke-miterlimit="10" fill="none"/><text font-family="Segoe UI,Segoe UI_MSFontService,sans-serif" font-weight="400" font-size="24" transform="translate(1163.85 1561)">Analyze</text><text font-family="Segoe UI,Segoe UI_MSFontService,sans-serif" font-weight="400" font-size="24" transform="translate(1168.37 1590)">s</text><text font-family="Segoe UI,Segoe UI_MSFontService,sans-serif" font-weight="400" font-size="24" transform="translate(1178.53 1590)">ervice</text><text font-family="Segoe UI,Segoe UI_MSFontService,sans-serif" font-weight="400" font-size="24" transform="translate(1148.43 1619)">o</text><text font-family="Segoe UI,Segoe UI_MSFontService,sans-serif" font-weight="400" font-size="24" transform="translate(1162.43 1619)">perations</text><path d="M1009.5 1581 1067.1 1581 1067.1 1582 1009.5 1582ZM1065.76 1577.5 1073.76 1581.5 1065.76 1585.5Z" fill="#0078D4"/><path d="M0-0.5 36.0099-0.5C36.2861-0.5 36.5099-0.276142 36.5099 0L36.5099 632.625C36.5099 632.901 36.2861 633.125 36.0099 633.125L18.6764 633.125 18.6764 632.125 36.0099 632.125 35.5099 632.625 35.5099 0 36.0099 0.5 0 0.5ZM20.0098 636.625 12.0098 632.625 20.0098 628.625Z" fill="#0078D4" transform="matrix(-1 1.22465e-16 1.22465e-16 1 408.51 303.5)"/><path d="M1205 1504.87 1205 935.5C1205 935.224 1205.22 935 1205.5 935L1399.25 935 1399.25 936 1205.5 936 1206 935.5 1206 1504.87ZM1397.91 931.5 1405.91 935.5 1397.91 939.5Z" fill="#0078D4"/><path d="M607.5 720 711.387 720 711.387 721 607.5 721ZM710.053 716.5 718.053 720.5 710.053 724.5Z" fill="#0078D4"/><path d="M1205 1505.21 1205 720.5C1205 720.224 1205.22 720 1205.5 720L1396.88 720 1396.88 721 1205.5 721 1206 720.5 1206 1505.21ZM1395.54 716.5 1403.54 720.5 1395.54 724.5Z" fill="#0078D4"/><path d="M1205 1505.28 1205 504.5C1205 504.224 1205.22 504 1205.5 504L1396.88 504 1396.88 505 1205.5 505 1206 504.5 1206 1505.28ZM1395.54 500.5 1403.54 504.5 1395.54 508.5Z" fill="#0078D4"/><path d="M607.5 500 711.387 500 711.387 501 607.5 501ZM710.053 496.5 718.053 500.5 710.053 504.5Z" fill="#0078D4"/></g></svg>