<?xml version="1.0" encoding="UTF-8" standalone="no"?>
<svg
   width="1382.6779"
   height="1920"
   overflow="hidden"
   version="1.1"
   id="svg413"
   sodipodi:docname="record-to-report-flow.svg"
   inkscape:version="1.2.2 (732a01da63, 2022-12-09)"
   xmlns:inkscape="http://www.inkscape.org/namespaces/inkscape"
   xmlns:sodipodi="http://sodipodi.sourceforge.net/DTD/sodipodi-0.dtd"
   xmlns="http://www.w3.org/2000/svg"
   xmlns:svg="http://www.w3.org/2000/svg">
  <sodipodi:namedview
     id="namedview415"
     pagecolor="#ffffff"
     bordercolor="#000000"
     borderopacity="0.25"
     inkscape:showpageshadow="2"
     inkscape:pageopacity="0.0"
     inkscape:pagecheckerboard="0"
     inkscape:deskcolor="#d1d1d1"
     showgrid="false"
     inkscape:zoom="0.43177083"
     inkscape:cx="826.8275"
     inkscape:cy="962.31604"
     inkscape:window-width="1920"
     inkscape:window-height="1010"
     inkscape:window-x="-6"
     inkscape:window-y="-6"
     inkscape:window-maximized="1"
     inkscape:current-layer="svg413" />
  <defs
     id="defs5">
    <clipPath
       id="clip0">
      <rect
         x="0"
         y="0"
         width="1920"
         height="1920"
         id="rect2" />
    </clipPath>
  </defs>
  <g
     clip-path="url(#clip0)"
     id="g411"
     transform="translate(-132.01448)">
    <rect
       x="132.01448"
       y="0"
       width="1382.6779"
       height="1920"
       fill="#ffffff"
       id="rect7"
       style="stroke-width:0.848614" />
    <path
       d="M 148,62.5 C 148,42.3416 164.342,26 184.5,26 h 138 c 20.158,0 36.5,16.3416 36.5,36.5 v 0 C 359,82.6584 342.658,99 322.5,99 h -138 C 164.342,99 148,82.6584 148,62.5 Z"
       stroke="#0078d4"
       stroke-width="2"
       stroke-linejoin="round"
       stroke-miterlimit="10"
       fill="none"
       fill-rule="evenodd"
       id="path9" />
    <text
       font-family="'Segoe UI', 'Segoe UI_MSFontService', sans-serif"
       font-weight="400"
       font-size="24px"
       transform="translate(228.487,71)"
       id="text11">Start</text>
    <rect
       x="1284"
       y="132"
       width="212"
       height="154"
       stroke="#a6a6a6"
       stroke-width="2"
       stroke-linejoin="round"
       stroke-miterlimit="10"
       fill="#a0a0a0"
       id="rect13" />
    <text
       font-family="'Segoe UI', 'Segoe UI_MSFontService', sans-serif"
       font-weight="400"
       font-size="24px"
       transform="translate(1350.95,203)"
       id="text15">Case to</text>
    <text
       font-family="'Segoe UI', 'Segoe UI_MSFontService', sans-serif"
       font-weight="400"
       font-size="24px"
       transform="translate(1337.27,232)"
       id="text17">resolution</text>
    <rect
       x="564"
       y="694"
       width="279"
       height="154"
       fill="#ffffff"
       id="rect19" />
    <path
       d="M 598.875,694 V 848 M 808.125,694 V 848"
       stroke="#0078d4"
       stroke-width="2"
       stroke-linejoin="round"
       stroke-miterlimit="10"
       fill="none"
       fill-rule="evenodd"
       id="path21" />
    <rect
       x="564"
       y="694"
       width="279"
       height="154"
       stroke="#0078d4"
       stroke-width="2"
       stroke-linejoin="round"
       stroke-miterlimit="10"
       fill="none"
       id="rect23" />
    <text
       font-family="'Segoe UI', 'Segoe UI_MSFontService', sans-serif"
       font-weight="400"
       font-size="24px"
       transform="translate(666.447,751)"
       id="text25">Record</text>
    <text
       font-family="'Segoe UI', 'Segoe UI_MSFontService', sans-serif"
       font-weight="400"
       font-size="24px"
       transform="translate(659.46,780)"
       id="text27">financial</text>
    <text
       font-family="'Segoe UI', 'Segoe UI_MSFontService', sans-serif"
       font-weight="400"
       font-size="24px"
       transform="translate(639.54,809)"
       id="text29">transactions</text>
    <rect
       x="562"
       y="1145"
       width="279"
       height="154"
       fill="#ffffff"
       id="rect31" />
    <path
       d="m 596.875,1145 v 154 m 209.25,-154 v 154"
       stroke="#0078d4"
       stroke-width="2"
       stroke-linejoin="round"
       stroke-miterlimit="10"
       fill="none"
       fill-rule="evenodd"
       id="path33" />
    <rect
       x="562"
       y="1145"
       width="279"
       height="154"
       stroke="#0078d4"
       stroke-width="2"
       stroke-linejoin="round"
       stroke-miterlimit="10"
       fill="none"
       id="rect35" />
    <text
       font-family="'Segoe UI', 'Segoe UI_MSFontService', sans-serif"
       font-weight="400"
       font-size="24px"
       transform="translate(642.333,1187)"
       id="text37">Report and</text>
    <text
       font-family="'Segoe UI', 'Segoe UI_MSFontService', sans-serif"
       font-weight="400"
       font-size="24px"
       transform="translate(661.927,1216)"
       id="text39">analyze</text>
    <text
       font-family="'Segoe UI', 'Segoe UI_MSFontService', sans-serif"
       font-weight="400"
       font-size="24px"
       transform="translate(629.26,1245)"
       id="text41">financials and</text>
    <text
       font-family="'Segoe UI', 'Segoe UI_MSFontService', sans-serif"
       font-weight="400"
       font-size="24px"
       transform="translate(652.18,1274)"
       id="text43">cash flow</text>
    <rect
       x="922"
       y="249"
       width="278"
       height="154"
       fill="#ffffff"
       id="rect45" />
    <path
       d="m 956.75,249 v 154 m 208.5,-154 v 154"
       stroke="#0078d4"
       stroke-width="2"
       stroke-linejoin="round"
       stroke-miterlimit="10"
       fill="none"
       fill-rule="evenodd"
       id="path47" />
    <rect
       x="922"
       y="249"
       width="278"
       height="154"
       stroke="#0078d4"
       stroke-width="2"
       stroke-linejoin="round"
       stroke-miterlimit="10"
       fill="none"
       id="rect49" />
    <text
       font-family="'Segoe UI', 'Segoe UI_MSFontService', sans-serif"
       font-weight="400"
       font-size="24px"
       transform="translate(994.578,291)"
       id="text51">Comply with</text>
    <text
       font-family="'Segoe UI', 'Segoe UI_MSFontService', sans-serif"
       font-weight="400"
       font-size="24px"
       transform="translate(986.665,320)"
       id="text53">tax, audit, and</text>
    <text
       font-family="'Segoe UI', 'Segoe UI_MSFontService', sans-serif"
       font-weight="400"
       font-size="24px"
       transform="translate(1006.26,349)"
       id="text55">regulatory</text>
    <text
       font-family="'Segoe UI', 'Segoe UI_MSFontService', sans-serif"
       font-weight="400"
       font-size="24px"
       transform="translate(991.058,378)"
       id="text57">requirements</text>
    <rect
       x="564"
       y="249"
       width="279"
       height="154"
       fill="#ffffff"
       id="rect59" />
    <path
       d="M 598.875,249 V 403 M 808.125,249 V 403"
       stroke="#0078d4"
       stroke-width="2"
       stroke-linejoin="round"
       stroke-miterlimit="10"
       fill="none"
       fill-rule="evenodd"
       id="path61" />
    <rect
       x="564"
       y="249"
       width="279"
       height="154"
       stroke="#0078d4"
       stroke-width="2"
       stroke-linejoin="round"
       stroke-miterlimit="10"
       fill="none"
       id="rect63" />
    <text
       font-family="'Segoe UI', 'Segoe UI_MSFontService', sans-serif"
       font-weight="400"
       font-size="24px"
       transform="translate(627.416,277)"
       id="text65">Define ledger</text>
    <text
       font-family="'Segoe UI', 'Segoe UI_MSFontService', sans-serif"
       font-weight="400"
       font-size="24px"
       transform="translate(627.416,306)"
       id="text67">structure and</text>
    <text
       font-family="'Segoe UI', 'Segoe UI_MSFontService', sans-serif"
       font-weight="400"
       font-size="24px"
       transform="translate(627.416,335)"
       id="text69">organizational</text>
    <text
       font-family="'Segoe UI', 'Segoe UI_MSFontService', sans-serif"
       font-weight="400"
       font-size="24px"
       transform="translate(627.416,364)"
       id="text71">accounting</text>
    <text
       font-family="'Segoe UI', 'Segoe UI_MSFontService', sans-serif"
       font-weight="400"
       font-size="24px"
       transform="translate(627.416,393)"
       id="text73">policies</text>
    <path
       d="m 595,1536.5 c 0,-20.16 16.342,-36.5 36.5,-36.5 h 139 c 20.158,0 36.5,16.34 36.5,36.5 v 0 c 0,20.16 -16.342,36.5 -36.5,36.5 h -139 c -20.158,0 -36.5,-16.34 -36.5,-36.5 z"
       stroke="#0078d4"
       stroke-width="2"
       stroke-linejoin="round"
       stroke-miterlimit="10"
       fill="none"
       fill-rule="evenodd"
       id="path75" />
    <text
       font-family="'Segoe UI', 'Segoe UI_MSFontService', sans-serif"
       font-weight="400"
       font-size="24px"
       transform="translate(681.145,1545)"
       id="text77">End</text>
    <rect
       x="819"
       y="0"
       width="279"
       height="128"
       stroke="#0078d4"
       stroke-width="2"
       stroke-linejoin="round"
       stroke-miterlimit="10"
       fill="#0078d4"
       id="rect79" />
    <text
       fill="#ffffff"
       font-family="'Segoe UI', 'Segoe UI_MSFontService', sans-serif"
       font-weight="400"
       font-size="24px"
       transform="translate(871.377,72)"
       id="text81">Record to report</text>
    <rect
       x="1284"
       y="311"
       width="212"
       height="153"
       stroke="#a6a6a6"
       stroke-width="2"
       stroke-linejoin="round"
       stroke-miterlimit="10"
       fill="#a0a0a0"
       id="rect83" />
    <text
       font-family="'Segoe UI', 'Segoe UI_MSFontService', sans-serif"
       font-weight="400"
       font-size="24px"
       transform="translate(1335.44,382)"
       id="text85">Acquire to</text>
    <text
       font-family="'Segoe UI', 'Segoe UI_MSFontService', sans-serif"
       font-weight="400"
       font-size="24px"
       transform="translate(1349.52,411)"
       id="text87">dispose</text>
    <rect
       x="1284"
       y="1206"
       width="212"
       height="153"
       stroke="#a6a6a6"
       stroke-width="2"
       stroke-linejoin="round"
       stroke-miterlimit="10"
       fill="#a0a0a0"
       id="rect89" />
    <text
       font-family="'Segoe UI', 'Segoe UI_MSFontService', sans-serif"
       font-weight="400"
       font-size="24px"
       transform="translate(1313.26,1291)"
       id="text91">Procure to pay</text>
    <rect
       x="1284"
       y="490"
       width="212"
       height="153"
       stroke="#a6a6a6"
       stroke-width="2"
       stroke-linejoin="round"
       stroke-miterlimit="10"
       fill="#a0a0a0"
       id="rect93" />
    <text
       font-family="'Segoe UI', 'Segoe UI_MSFontService', sans-serif"
       font-weight="400"
       font-size="24px"
       transform="translate(1337.97,561)"
       id="text95">Service to</text>
    <text
       font-family="'Segoe UI', 'Segoe UI_MSFontService', sans-serif"
       font-weight="400"
       font-size="24px"
       transform="translate(1366.53,590)"
       id="text97">cash</text>
    <rect
       x="562"
       y="923"
       width="279"
       height="153"
       fill="#ffffff"
       id="rect99" />
    <path
       d="m 596.875,923 v 153 m 209.25,-153 v 153"
       stroke="#0078d4"
       stroke-width="2"
       stroke-linejoin="round"
       stroke-miterlimit="10"
       fill="none"
       fill-rule="evenodd"
       id="path101" />
    <rect
       x="562"
       y="923"
       width="279"
       height="153"
       stroke="#0078d4"
       stroke-width="2"
       stroke-linejoin="round"
       stroke-miterlimit="10"
       fill="none"
       id="rect103" />
    <text
       font-family="'Segoe UI', 'Segoe UI_MSFontService', sans-serif"
       font-weight="400"
       font-size="24px"
       transform="translate(625.748,994)"
       id="text105">Close financial</text>
    <text
       font-family="'Segoe UI', 'Segoe UI_MSFontService', sans-serif"
       font-weight="400"
       font-size="24px"
       transform="translate(661.835,1023)"
       id="text107">periods</text>
    <rect
       x="563"
       y="472"
       width="278"
       height="153"
       fill="#ffffff"
       id="rect109" />
    <path
       d="M 597.75,472 V 625 M 806.25,472 V 625"
       stroke="#0078d4"
       stroke-width="2"
       stroke-linejoin="round"
       stroke-miterlimit="10"
       fill="none"
       fill-rule="evenodd"
       id="path111" />
    <rect
       x="563"
       y="472"
       width="278"
       height="153"
       stroke="#0078d4"
       stroke-width="2"
       stroke-linejoin="round"
       stroke-miterlimit="10"
       fill="none"
       id="rect113" />
    <text
       font-family="'Segoe UI', 'Segoe UI_MSFontService', sans-serif"
       font-weight="400"
       font-size="24px"
       transform="translate(659.009,543)"
       id="text115">Manage</text>
    <text
       font-family="'Segoe UI', 'Segoe UI_MSFontService', sans-serif"
       font-weight="400"
       font-size="24px"
       transform="translate(658.596,572)"
       id="text117">budgets</text>
    <path
       d="m 359.504,62.0001 452.657,1.2875 -0.009,3 L 359.496,65 Z m 451.164,-1.7168 8.987,4.5256 -9.012,4.4744 z"
       fill="#0078d4"
       id="path119" />
    <rect
       x="922"
       y="472"
       width="279"
       height="153"
       fill="#ffffff"
       id="rect121" />
    <path
       d="M 956.875,472 V 625 M 1166.12,472 v 153"
       stroke="#0078d4"
       stroke-width="2"
       stroke-linejoin="round"
       stroke-miterlimit="10"
       fill="none"
       fill-rule="evenodd"
       id="path123" />
    <rect
       x="922"
       y="472"
       width="279"
       height="153"
       stroke="#0078d4"
       stroke-width="2"
       stroke-linejoin="round"
       stroke-miterlimit="10"
       fill="none"
       id="rect125" />
    <text
       font-family="'Segoe UI', 'Segoe UI_MSFontService', sans-serif"
       font-weight="400"
       font-size="24px"
       transform="translate(990.846,543)"
       id="text127">Manage fund</text>
    <text
       font-family="'Segoe UI', 'Segoe UI_MSFontService', sans-serif"
       font-weight="400"
       font-size="24px"
       transform="translate(1002.85,572)"
       id="text129">accounting</text>
    <rect
       x="1284"
       y="1744"
       width="211"
       height="154"
       stroke="#a6a6a6"
       stroke-width="2"
       stroke-linejoin="round"
       stroke-miterlimit="10"
       fill="#a0a0a0"
       id="rect131" />
    <text
       font-family="'Segoe UI', 'Segoe UI_MSFontService', sans-serif"
       font-weight="400"
       font-size="24px"
       transform="translate(1323.18,1830)"
       id="text133">Hire to retire</text>
    <rect
       x="1284"
       y="1027"
       width="211"
       height="153"
       stroke="#a6a6a6"
       stroke-width="2"
       stroke-linejoin="round"
       stroke-miterlimit="10"
       fill="#a0a0a0"
       id="rect135" />
    <text
       font-family="'Segoe UI', 'Segoe UI_MSFontService', sans-serif"
       font-weight="400"
       font-size="24px"
       transform="translate(1353.13,1098)"
       id="text137">Plan to</text>
    <text
       font-family="'Segoe UI', 'Segoe UI_MSFontService', sans-serif"
       font-weight="400"
       font-size="24px"
       transform="translate(1346.11,1127)"
       id="text139">produce</text>
    <rect
       x="1284"
       y="669"
       width="211"
       height="154"
       stroke="#a6a6a6"
       stroke-width="2"
       stroke-linejoin="round"
       stroke-miterlimit="10"
       fill="#a0a0a0"
       id="rect141" />
    <text
       font-family="'Segoe UI', 'Segoe UI_MSFontService', sans-serif"
       font-weight="400"
       font-size="24px"
       transform="translate(1325.56,740)"
       id="text143">Inventory to</text>
    <text
       font-family="'Segoe UI', 'Segoe UI_MSFontService', sans-serif"
       font-weight="400"
       font-size="24px"
       transform="translate(1354.61,769)"
       id="text145">deliver</text>
    <rect
       x="1284"
       y="848"
       width="211"
       height="153"
       stroke="#a6a6a6"
       stroke-width="2"
       stroke-linejoin="round"
       stroke-miterlimit="10"
       fill="#a0a0a0"
       id="rect147" />
    <text
       font-family="'Segoe UI', 'Segoe UI_MSFontService', sans-serif"
       font-weight="400"
       font-size="24px"
       transform="translate(1318.29,933)"
       id="text149">Order to cash</text>
    <path
       d="m 960.36,128.5 v 60.837 c 0,0.829 -0.671,1.5 -1.5,1.5 H 703.5 l 1.5,-1.5 v 53.338 h -3 v -53.338 c 0,-0.828 0.672,-1.5 1.5,-1.5 h 255.36 l -1.5,1.5 V 128.5 Z M 708,241.175 l -4.5,9 -4.5,-9 z"
       fill="#0078d4"
       id="path151" />
    <path
       d="M 1.49978,-0.0258764 2.56525,61.7283 -0.434303,61.78 -1.49978,0.0258764 Z M 5.53893,60.1767 1.19486,69.253 -3.45973,60.332 Z"
       fill="#0078d4"
       transform="matrix(-1,0,0,1,703.695,403.5)"
       id="path153" />
    <rect
       x="1284"
       y="1384"
       width="212"
       height="154"
       stroke="#a6a6a6"
       stroke-width="2"
       stroke-linejoin="round"
       stroke-miterlimit="10"
       fill="#a0a0a0"
       id="rect155" />
    <text
       font-family="'Segoe UI', 'Segoe UI_MSFontService', sans-serif"
       font-weight="400"
       font-size="24px"
       transform="translate(1339.11,1455)"
       id="text157">Project to</text>
    <text
       font-family="'Segoe UI', 'Segoe UI_MSFontService', sans-serif"
       font-weight="400"
       font-size="24px"
       transform="translate(1361.32,1484)"
       id="text159">profit</text>
    <rect
       x="1284"
       y="1563"
       width="212"
       height="154"
       stroke="#a6a6a6"
       stroke-width="2"
       stroke-linejoin="round"
       stroke-miterlimit="10"
       fill="#a0a0a0"
       id="rect161" />
    <text
       font-family="'Segoe UI', 'Segoe UI_MSFontService', sans-serif"
       font-weight="400"
       font-size="24px"
       transform="translate(1331.78,1634)"
       id="text163">Forecast to</text>
    <text
       font-family="'Segoe UI', 'Segoe UI_MSFontService', sans-serif"
       font-weight="400"
       font-size="24px"
       transform="translate(1367.11,1663)"
       id="text165">plan</text>
    <rect
       x="150"
       y="492"
       width="211"
       height="153"
       stroke="#a6a6a6"
       stroke-width="2"
       stroke-linejoin="round"
       stroke-miterlimit="10"
       fill="#a0a0a0"
       id="rect167" />
    <text
       font-family="'Segoe UI', 'Segoe UI_MSFontService', sans-serif"
       font-weight="400"
       font-size="24px"
       transform="translate(201.028,563)"
       id="text169">Acquire to</text>
    <text
       font-family="'Segoe UI', 'Segoe UI_MSFontService', sans-serif"
       font-weight="400"
       font-size="24px"
       transform="translate(215.108,592)"
       id="text171">dispose</text>
    <rect
       x="148"
       y="1744"
       width="211"
       height="153"
       stroke="#a6a6a6"
       stroke-width="2"
       stroke-linejoin="round"
       stroke-miterlimit="10"
       fill="#a0a0a0"
       id="rect173" />
    <text
       font-family="'Segoe UI', 'Segoe UI_MSFontService', sans-serif"
       font-weight="400"
       font-size="24px"
       transform="translate(214.284,1815)"
       id="text175">Case to</text>
    <text
       font-family="'Segoe UI', 'Segoe UI_MSFontService', sans-serif"
       font-weight="400"
       font-size="24px"
       transform="translate(200.597,1844)"
       id="text177">resolution</text>
    <rect
       x="148"
       y="1211"
       width="211"
       height="153"
       stroke="#a6a6a6"
       stroke-width="2"
       stroke-linejoin="round"
       stroke-miterlimit="10"
       fill="#a0a0a0"
       id="rect179" />
    <text
       font-family="'Segoe UI', 'Segoe UI_MSFontService', sans-serif"
       font-weight="400"
       font-size="24px"
       transform="translate(176.748,1296)"
       id="text181">Procure to pay</text>
    <rect
       x="150"
       y="138"
       width="211"
       height="153"
       stroke="#a6a6a6"
       stroke-width="2"
       stroke-linejoin="round"
       stroke-miterlimit="10"
       fill="#a0a0a0"
       id="rect183" />
    <text
       font-family="'Segoe UI', 'Segoe UI_MSFontService', sans-serif"
       font-weight="400"
       font-size="24px"
       transform="translate(197.367,208)"
       id="text185">Forecast to</text>
    <text
       font-family="'Segoe UI', 'Segoe UI_MSFontService', sans-serif"
       font-weight="400"
       font-size="24px"
       transform="translate(232.7,237)"
       id="text187">plan</text>
    <rect
       x="150"
       y="316"
       width="211"
       height="154"
       stroke="#a6a6a6"
       stroke-width="2"
       stroke-linejoin="round"
       stroke-miterlimit="10"
       fill="#a0a0a0"
       id="rect189" />
    <text
       font-family="'Segoe UI', 'Segoe UI_MSFontService', sans-serif"
       font-weight="400"
       font-size="24px"
       transform="translate(188.847,402)"
       id="text191">Hire to retire</text>
    <rect
       x="148"
       y="1032"
       width="211"
       height="154"
       stroke="#a6a6a6"
       stroke-width="2"
       stroke-linejoin="round"
       stroke-miterlimit="10"
       fill="#a0a0a0"
       id="rect193" />
    <text
       font-family="'Segoe UI', 'Segoe UI_MSFontService', sans-serif"
       font-weight="400"
       font-size="24px"
       transform="translate(216.617,1103)"
       id="text195">Plan to</text>
    <text
       font-family="'Segoe UI', 'Segoe UI_MSFontService', sans-serif"
       font-weight="400"
       font-size="24px"
       transform="translate(209.597,1132)"
       id="text197">produce</text>
    <rect
       x="148"
       y="675"
       width="211"
       height="153"
       stroke="#a6a6a6"
       stroke-width="2"
       stroke-linejoin="round"
       stroke-miterlimit="10"
       fill="#a0a0a0"
       id="rect199" />
    <text
       font-family="'Segoe UI', 'Segoe UI_MSFontService', sans-serif"
       font-weight="400"
       font-size="24px"
       transform="translate(189.051,746)"
       id="text201">Inventory to</text>
    <text
       font-family="'Segoe UI', 'Segoe UI_MSFontService', sans-serif"
       font-weight="400"
       font-size="24px"
       transform="translate(218.097,775)"
       id="text203">deliver</text>
    <rect
       x="148"
       y="854"
       width="211"
       height="153"
       stroke="#a6a6a6"
       stroke-width="2"
       stroke-linejoin="round"
       stroke-miterlimit="10"
       fill="#a0a0a0"
       id="rect205" />
    <text
       font-family="'Segoe UI', 'Segoe UI_MSFontService', sans-serif"
       font-weight="400"
       font-size="24px"
       transform="translate(181.774,939)"
       id="text207">Order to cash</text>
    <rect
       x="148"
       y="1390"
       width="211"
       height="153"
       stroke="#a6a6a6"
       stroke-width="2"
       stroke-linejoin="round"
       stroke-miterlimit="10"
       fill="#a0a0a0"
       id="rect209" />
    <text
       font-family="'Segoe UI', 'Segoe UI_MSFontService', sans-serif"
       font-weight="400"
       font-size="24px"
       transform="translate(202.602,1461)"
       id="text211">Project to</text>
    <text
       font-family="'Segoe UI', 'Segoe UI_MSFontService', sans-serif"
       font-weight="400"
       font-size="24px"
       transform="translate(224.808,1490)"
       id="text213">profit</text>
    <rect
       x="148"
       y="1569"
       width="211"
       height="153"
       stroke="#a6a6a6"
       stroke-width="2"
       stroke-linejoin="round"
       stroke-miterlimit="10"
       fill="#a0a0a0"
       id="rect215" />
    <text
       font-family="'Segoe UI', 'Segoe UI_MSFontService', sans-serif"
       font-weight="400"
       font-size="24px"
       transform="translate(201.381,1640)"
       id="text217">Service to</text>
    <text
       font-family="'Segoe UI', 'Segoe UI_MSFontService', sans-serif"
       font-weight="400"
       font-size="24px"
       transform="translate(229.935,1669)"
       id="text219">cash</text>
    <path
       d="m 0,-1.5 h 60.8374 c 0.8285,0 1.5,0.671573 1.5,1.5 v 102.264 l -1.5,-1.5 h 53.3376 v 3 H 60.8374 c -0.8284,0 -1.5,-0.671 -1.5,-1.5 V 0 l 1.5,1.5 H 0 Z m 112.675,99.2644 9,4.4996 -9,4.5 z"
       fill="#0078d4"
       transform="matrix(0,1,1,0,959.5,128.5)"
       id="path221" />
    <path
       d="m 704,625.474 1.065,61.754 -2.999,0.052 L 701,625.526 Z m 4.039,60.203 -4.344,9.076 -4.655,-8.921 z"
       fill="#0078d4"
       id="path223" />
    <path
       d="m 0,1.5 h -23.9994 l 1.5,-1.5 v 445.087 l -1.5,-1.5 H 349.528 v 3 H -23.9994 c -0.8284,0 -1.5,-0.672 -1.5,-1.5 V 0 c 0,-0.828427 0.6716,-1.5 1.5,-1.5 H 0 Z m 348.027,439.087 9,4.5 -9,4.5 z"
       fill="#0078d4"
       transform="matrix(-1,0,0,1,1200.53,326.5)"
       id="path225" />
    <path
       d="m 1063,403.487 0.53,61.753 -3,0.026 -0.53,-61.753 z m 3.52,60.228 -4.42,9.038 -4.58,-8.961 z"
       fill="#0078d4"
       id="path227" />
    <path
       d="M 1.49957,-0.0357897 3.11285,67.56 0.113709,67.6316 -1.49957,0.0357897 Z M 6.07621,65.9888 l -4.28398,9.1048 -4.71346,-8.89 z"
       fill="#0078d4"
       transform="matrix(-1,0,0,1,703.292,848.5)"
       id="path229" />
    <path
       d="M 1.5,-0.00335639 1.63817,61.7496 -1.36182,61.7564 -1.5,0.00335639 Z M 4.63481,60.243 0.154961,69.253 -4.36517,60.2631 Z"
       fill="#0078d4"
       transform="matrix(-1,0,0,1,701.655,1076.5)"
       id="path231" />
    <path
       d="M 1.95609e-6,-1.5 73.0075,-1.4999 v 3 L -1.95609e-6,1.5 Z M 71.5075,-4.49991 l 9,4.500014987 -9,4.499985013 z"
       fill="#0078d4"
       transform="matrix(-1,0,0,1,922.008,548.5)"
       id="path233" />
    <path
       d="m 0,-1.5 h 158.117 c 0.829,0 1.5,0.671573 1.5,1.5 v 821.195 l -1.5,-1.5 h 37.386 v 3 h -37.386 c -0.828,0 -1.5,-0.672 -1.5,-1.5 V 0 l 1.5,1.5 H 0 Z m 194.003,818.195 9,4.5 -9,4.5 z"
       fill="#0078d4"
       transform="matrix(1,0,0,-1,359.5,1820.7)"
       id="path235" />
    <path
       d="m 0,-1.5 h 42.3684 c 0.8284,0 1.5,0.671573 1.5,1.5 v 117.055 l -1.5,-1.5 h 34.8684 v 3 H 42.3684 c -0.8284,0 -1.5,-0.671 -1.5,-1.5 V 0 l 1.5,1.5 H 0 Z m 75.7368,114.055 9,4.5 -9,4.5 z"
       fill="#0078d4"
       transform="matrix(1,0,0,-1,1200.5,326.555)"
       id="path237" />
    <path
       d="m 1200.5,325 h 42.37 c 0.83,0 1.5,0.672 1.5,1.5 v 61.729 l -1.5,-1.5 h 34.87 v 3 h -34.87 c -0.83,0 -1.5,-0.672 -1.5,-1.5 V 326.5 l 1.5,1.5 h -42.37 z m 75.74,58.729 9,4.5 -9,4.5 z"
       fill="#0078d4"
       id="path239" />
    <path
       d="m 841.5,1221 h 221.78 c 0.83,0 1.5,0.67 1.5,1.5 v 599.05 l -1.5,-1.5 h 214.28 v 3 h -214.28 c -0.83,0 -1.5,-0.67 -1.5,-1.5 V 1222.5 l 1.5,1.5 H 841.5 Z m 434.56,596.05 9,4.5 -9,4.5 z"
       fill="#0078d4"
       id="path241" />
    <path
       d="m 841.5,1221 h 221.78 c 0.83,0 1.5,0.67 1.5,1.5 v 417.89 l -1.5,-1.5 h 214.28 v 3 h -214.28 c -0.83,0 -1.5,-0.67 -1.5,-1.5 V 1222.5 l 1.5,1.5 H 841.5 Z m 434.56,414.89 9,4.5 -9,4.5 z"
       fill="#0078d4"
       id="path243" />
    <path
       d="m 703.199,1299.5 v 100.59 c 0,0.83 -0.672,1.5 -1.5,1.5 H 701.5 l 1.5,-1.5 v 93.09 h -3 v -93.09 c 0,-0.83 0.672,-1.5 1.5,-1.5 h 0.199 l -1.5,1.5 V 1299.5 Z m 2.801,192.18 -4.5,9 -4.5,-9 z"
       fill="#0078d4"
       id="path245" />
    <path
       d="m 546,250.5 c 0,-15.74 11.864,-28.5 26.5,-28.5 14.636,0 26.5,12.76 26.5,28.5 0,15.74 -11.864,28.5 -26.5,28.5 -14.636,0 -26.5,-12.76 -26.5,-28.5 z"
       fill="#0078d4"
       fill-rule="evenodd"
       id="path247" />
    <text
       fill="#ffffff"
       font-family="'Segoe UI', 'Segoe UI_MSFontService', sans-serif"
       font-weight="400"
       font-size="27px"
       transform="translate(565.167,261)"
       id="text249">1</text>
    <path
       d="m 545,476 c 0,-16.016 12.088,-29 27,-29 14.912,0 27,12.984 27,29 0,16.016 -12.088,29 -27,29 -14.912,0 -27,-12.984 -27,-29 z"
       fill="#0078d4"
       fill-rule="evenodd"
       id="path251" />
    <text
       fill="#ffffff"
       font-family="'Segoe UI', 'Segoe UI_MSFontService', sans-serif"
       font-weight="400"
       font-size="27px"
       transform="translate(564.796,486)"
       id="text253">2</text>
    <path
       d="m 164,814.5 c 0,-15.74 11.864,-28.5 26.5,-28.5 14.636,0 26.5,12.76 26.5,28.5 0,15.74 -11.864,28.5 -26.5,28.5 -14.636,0 -26.5,-12.76 -26.5,-28.5 z"
       fill="#0078d4"
       fill-rule="evenodd"
       id="path255" />
    <text
       fill="#ffffff"
       font-family="'Segoe UI', 'Segoe UI_MSFontService', sans-serif"
       font-weight="400"
       font-size="27px"
       transform="translate(183.414,825)"
       id="text257">1</text>
    <path
       d="m 222,814.5 c 0,-15.74 11.864,-28.5 26.5,-28.5 14.636,0 26.5,12.76 26.5,28.5 0,15.74 -11.864,28.5 -26.5,28.5 -14.636,0 -26.5,-12.76 -26.5,-28.5 z"
       fill="#0078d4"
       fill-rule="evenodd"
       id="path259" />
    <text
       fill="#ffffff"
       font-family="'Segoe UI', 'Segoe UI_MSFontService', sans-serif"
       font-weight="400"
       font-size="27px"
       transform="translate(241.299,825)"
       id="text261">2</text>
    <path
       d="m 549,699.5 c 0,-15.74 11.864,-28.5 26.5,-28.5 14.636,0 26.5,12.76 26.5,28.5 0,15.74 -11.864,28.5 -26.5,28.5 -14.636,0 -26.5,-12.76 -26.5,-28.5 z"
       fill="#0078d4"
       fill-rule="evenodd"
       id="path263" />
    <text
       fill="#ffffff"
       font-family="'Segoe UI', 'Segoe UI_MSFontService', sans-serif"
       font-weight="400"
       font-size="27px"
       transform="translate(568.284,710)"
       id="text265">3</text>
    <path
       d="m 280,814.5 c 0,-15.74 11.864,-28.5 26.5,-28.5 14.636,0 26.5,12.76 26.5,28.5 0,15.74 -11.864,28.5 -26.5,28.5 -14.636,0 -26.5,-12.76 -26.5,-28.5 z"
       fill="#0078d4"
       fill-rule="evenodd"
       id="path267" />
    <text
       fill="#ffffff"
       font-family="'Segoe UI', 'Segoe UI_MSFontService', sans-serif"
       font-weight="400"
       font-size="27px"
       transform="translate(299.184,825)"
       id="text269">3</text>
    <path
       d="m 164,989.5 c 0,-15.74 11.864,-28.5 26.5,-28.5 14.636,0 26.5,12.76 26.5,28.5 0,15.74 -11.864,28.5 -26.5,28.5 -14.636,0 -26.5,-12.76 -26.5,-28.5 z"
       fill="#0078d4"
       fill-rule="evenodd"
       id="path271" />
    <text
       fill="#ffffff"
       font-family="'Segoe UI', 'Segoe UI_MSFontService', sans-serif"
       font-weight="400"
       font-size="27px"
       transform="translate(183.414,999)"
       id="text273">1</text>
    <path
       d="m 222,989.5 c 0,-15.74 11.864,-28.5 26.5,-28.5 14.636,0 26.5,12.76 26.5,28.5 0,15.74 -11.864,28.5 -26.5,28.5 -14.636,0 -26.5,-12.76 -26.5,-28.5 z"
       fill="#0078d4"
       fill-rule="evenodd"
       id="path275" />
    <text
       fill="#ffffff"
       font-family="'Segoe UI', 'Segoe UI_MSFontService', sans-serif"
       font-weight="400"
       font-size="27px"
       transform="translate(241.299,999)"
       id="text277">2</text>
    <path
       d="m 280,989.5 c 0,-15.74 11.864,-28.5 26.5,-28.5 14.636,0 26.5,12.76 26.5,28.5 0,15.74 -11.864,28.5 -26.5,28.5 -14.636,0 -26.5,-12.76 -26.5,-28.5 z"
       fill="#0078d4"
       fill-rule="evenodd"
       id="path279" />
    <text
       fill="#ffffff"
       font-family="'Segoe UI', 'Segoe UI_MSFontService', sans-serif"
       font-weight="400"
       font-size="27px"
       transform="translate(299.184,999)"
       id="text281">3</text>
    <path
       d="m 164,1168 c 0,-16.02 11.864,-29 26.5,-29 14.636,0 26.5,12.98 26.5,29 0,16.02 -11.864,29 -26.5,29 -14.636,0 -26.5,-12.98 -26.5,-29 z"
       fill="#0078d4"
       fill-rule="evenodd"
       id="path283" />
    <text
       fill="#ffffff"
       font-family="'Segoe UI', 'Segoe UI_MSFontService', sans-serif"
       font-weight="400"
       font-size="27px"
       transform="translate(183.414,1178)"
       id="text285">1</text>
    <path
       d="m 222,1168 c 0,-16.02 11.864,-29 26.5,-29 14.636,0 26.5,12.98 26.5,29 0,16.02 -11.864,29 -26.5,29 -14.636,0 -26.5,-12.98 -26.5,-29 z"
       fill="#0078d4"
       fill-rule="evenodd"
       id="path287" />
    <text
       fill="#ffffff"
       font-family="'Segoe UI', 'Segoe UI_MSFontService', sans-serif"
       font-weight="400"
       font-size="27px"
       transform="translate(241.299,1178)"
       id="text289">2</text>
    <path
       d="m 280,1168 c 0,-16.02 11.864,-29 26.5,-29 14.636,0 26.5,12.98 26.5,29 0,16.02 -11.864,29 -26.5,29 -14.636,0 -26.5,-12.98 -26.5,-29 z"
       fill="#0078d4"
       fill-rule="evenodd"
       id="path291" />
    <text
       fill="#ffffff"
       font-family="'Segoe UI', 'Segoe UI_MSFontService', sans-serif"
       font-weight="400"
       font-size="27px"
       transform="translate(299.184,1178)"
       id="text293">3</text>
    <path
       d="m 170,1348.5 c 0,-15.74 11.864,-28.5 26.5,-28.5 14.636,0 26.5,12.76 26.5,28.5 0,15.74 -11.864,28.5 -26.5,28.5 -14.636,0 -26.5,-12.76 -26.5,-28.5 z"
       fill="#0078d4"
       fill-rule="evenodd"
       id="path295" />
    <text
       fill="#ffffff"
       font-family="'Segoe UI', 'Segoe UI_MSFontService', sans-serif"
       font-weight="400"
       font-size="27px"
       transform="translate(189.238,1359)"
       id="text297">1</text>
    <path
       d="m 228,1348.5 c 0,-15.74 11.864,-28.5 26.5,-28.5 14.636,0 26.5,12.76 26.5,28.5 0,15.74 -11.864,28.5 -26.5,28.5 -14.636,0 -26.5,-12.76 -26.5,-28.5 z"
       fill="#0078d4"
       fill-rule="evenodd"
       id="path299" />
    <text
       fill="#ffffff"
       font-family="'Segoe UI', 'Segoe UI_MSFontService', sans-serif"
       font-weight="400"
       font-size="27px"
       transform="translate(247.123,1359)"
       id="text301">2</text>
    <path
       d="m 286,1348.5 c 0,-15.74 11.864,-28.5 26.5,-28.5 14.636,0 26.5,12.76 26.5,28.5 0,15.74 -11.864,28.5 -26.5,28.5 -14.636,0 -26.5,-12.76 -26.5,-28.5 z"
       fill="#0078d4"
       fill-rule="evenodd"
       id="path303" />
    <text
       fill="#ffffff"
       font-family="'Segoe UI', 'Segoe UI_MSFontService', sans-serif"
       font-weight="400"
       font-size="27px"
       transform="translate(305.008,1359)"
       id="text305">3</text>
    <path
       d="m 170,1525.5 c 0,-15.74 11.864,-28.5 26.5,-28.5 14.636,0 26.5,12.76 26.5,28.5 0,15.74 -11.864,28.5 -26.5,28.5 -14.636,0 -26.5,-12.76 -26.5,-28.5 z"
       fill="#0078d4"
       fill-rule="evenodd"
       id="path307" />
    <text
       fill="#ffffff"
       font-family="'Segoe UI', 'Segoe UI_MSFontService', sans-serif"
       font-weight="400"
       font-size="27px"
       transform="translate(189.024,1536)"
       id="text309">1</text>
    <path
       d="m 228,1525.5 c 0,-15.74 11.864,-28.5 26.5,-28.5 14.636,0 26.5,12.76 26.5,28.5 0,15.74 -11.864,28.5 -26.5,28.5 -14.636,0 -26.5,-12.76 -26.5,-28.5 z"
       fill="#0078d4"
       fill-rule="evenodd"
       id="path311" />
    <text
       fill="#ffffff"
       font-family="'Segoe UI', 'Segoe UI_MSFontService', sans-serif"
       font-weight="400"
       font-size="27px"
       transform="translate(246.909,1536)"
       id="text313">2</text>
    <path
       d="m 285,1525.5 c 0,-15.74 12.088,-28.5 27,-28.5 14.912,0 27,12.76 27,28.5 0,15.74 -12.088,28.5 -27,28.5 -14.912,0 -27,-12.76 -27,-28.5 z"
       fill="#0078d4"
       fill-rule="evenodd"
       id="path315" />
    <text
       fill="#ffffff"
       font-family="'Segoe UI', 'Segoe UI_MSFontService', sans-serif"
       font-weight="400"
       font-size="27px"
       transform="translate(304.794,1536)"
       id="text317">3</text>
    <path
       d="m 170,1706.5 c 0,-15.74 11.864,-28.5 26.5,-28.5 14.636,0 26.5,12.76 26.5,28.5 0,15.74 -11.864,28.5 -26.5,28.5 -14.636,0 -26.5,-12.76 -26.5,-28.5 z"
       fill="#0078d4"
       fill-rule="evenodd"
       id="path319" />
    <text
       fill="#ffffff"
       font-family="'Segoe UI', 'Segoe UI_MSFontService', sans-serif"
       font-weight="400"
       font-size="27px"
       transform="translate(189.024,1716)"
       id="text321">1</text>
    <path
       d="m 228,1706.5 c 0,-15.74 11.864,-28.5 26.5,-28.5 14.636,0 26.5,12.76 26.5,28.5 0,15.74 -11.864,28.5 -26.5,28.5 -14.636,0 -26.5,-12.76 -26.5,-28.5 z"
       fill="#0078d4"
       fill-rule="evenodd"
       id="path323" />
    <text
       fill="#ffffff"
       font-family="'Segoe UI', 'Segoe UI_MSFontService', sans-serif"
       font-weight="400"
       font-size="27px"
       transform="translate(246.909,1716)"
       id="text325">2</text>
    <path
       d="m 285,1706.5 c 0,-15.74 12.088,-28.5 27,-28.5 14.912,0 27,12.76 27,28.5 0,15.74 -12.088,28.5 -27,28.5 -14.912,0 -27,-12.76 -27,-28.5 z"
       fill="#0078d4"
       fill-rule="evenodd"
       id="path327" />
    <text
       fill="#ffffff"
       font-family="'Segoe UI', 'Segoe UI_MSFontService', sans-serif"
       font-weight="400"
       font-size="27px"
       transform="translate(304.794,1716)"
       id="text329">3</text>
    <path
       d="m 361.5,213 h 100.712 c 0.829,0 1.5,0.672 1.5,1.5 v 334.264 l -1.5,-1.5 h 93.212 v 3 h -93.212 c -0.828,0 -1.5,-0.672 -1.5,-1.5 V 214.5 l 1.5,1.5 H 361.5 Z m 192.424,331.264 9,4.5 -9,4.5 z"
       fill="#0078d4"
       id="path331" />
    <path
       d="m 361.5,392 h 100.712 c 0.829,0 1.5,0.672 1.5,1.5 v 155.48 l -1.5,-1.5 h 93.212 v 3 h -93.212 c -0.828,0 -1.5,-0.672 -1.5,-1.5 V 393.5 l 1.5,1.5 H 361.5 Z m 192.424,152.48 9,4.5 -9,4.5 z"
       fill="#0078d4"
       id="path333" />
    <path
       d="m 164,631.5 c 0,-15.74 11.864,-28.5 26.5,-28.5 14.636,0 26.5,12.76 26.5,28.5 0,15.74 -11.864,28.5 -26.5,28.5 -14.636,0 -26.5,-12.76 -26.5,-28.5 z"
       fill="#0078d4"
       fill-rule="evenodd"
       id="path335" />
    <text
       fill="#ffffff"
       font-family="'Segoe UI', 'Segoe UI_MSFontService', sans-serif"
       font-weight="400"
       font-size="27px"
       transform="translate(183.414,642)"
       id="text337">1</text>
    <path
       d="m 222,631.5 c 0,-15.74 11.864,-28.5 26.5,-28.5 14.636,0 26.5,12.76 26.5,28.5 0,15.74 -11.864,28.5 -26.5,28.5 -14.636,0 -26.5,-12.76 -26.5,-28.5 z"
       fill="#0078d4"
       fill-rule="evenodd"
       id="path339" />
    <text
       fill="#ffffff"
       font-family="'Segoe UI', 'Segoe UI_MSFontService', sans-serif"
       font-weight="400"
       font-size="27px"
       transform="translate(241.299,642)"
       id="text341">2</text>
    <path
       d="m 280,631.5 c 0,-15.74 11.864,-28.5 26.5,-28.5 14.636,0 26.5,12.76 26.5,28.5 0,15.74 -11.864,28.5 -26.5,28.5 -14.636,0 -26.5,-12.76 -26.5,-28.5 z"
       fill="#0078d4"
       fill-rule="evenodd"
       id="path343" />
    <text
       fill="#ffffff"
       font-family="'Segoe UI', 'Segoe UI_MSFontService', sans-serif"
       font-weight="400"
       font-size="27px"
       transform="translate(299.184,642)"
       id="text345">3</text>
    <path
       d="m 804,928.5 c 0,-15.74 11.864,-28.5 26.5,-28.5 14.636,0 26.5,12.76 26.5,28.5 0,15.74 -11.864,28.5 -26.5,28.5 -14.636,0 -26.5,-12.76 -26.5,-28.5 z"
       fill="#0078d4"
       fill-rule="evenodd"
       id="path347" />
    <text
       fill="#ffffff"
       font-family="'Segoe UI', 'Segoe UI_MSFontService', sans-serif"
       font-weight="400"
       font-size="27px"
       transform="translate(823.721,938)"
       id="text349">4</text>
    <path
       d="m 804,1145 c 0,-16.02 11.864,-29 26.5,-29 14.636,0 26.5,12.98 26.5,29 0,16.02 -11.864,29 -26.5,29 -14.636,0 -26.5,-12.98 -26.5,-29 z"
       fill="#0078d4"
       fill-rule="evenodd"
       id="path351" />
    <text
       fill="#ffffff"
       font-family="'Segoe UI', 'Segoe UI_MSFontService', sans-serif"
       font-weight="400"
       font-size="27px"
       transform="translate(823.545,1155)"
       id="text353">5</text>
    <path
       d="m 1342,626.5 c 0,-15.74 11.86,-28.5 26.5,-28.5 14.64,0 26.5,12.76 26.5,28.5 0,15.74 -11.86,28.5 -26.5,28.5 -14.64,0 -26.5,-12.76 -26.5,-28.5 z"
       fill="#0078d4"
       fill-rule="evenodd"
       id="path355" />
    <text
       fill="#ffffff"
       font-family="'Segoe UI', 'Segoe UI_MSFontService', sans-serif"
       font-weight="400"
       font-size="27px"
       transform="translate(1361.09,637)"
       id="text357">4</text>
    <path
       d="m 1399,626.5 c 0,-15.74 11.86,-28.5 26.5,-28.5 14.64,0 26.5,12.76 26.5,28.5 0,15.74 -11.86,28.5 -26.5,28.5 -14.64,0 -26.5,-12.76 -26.5,-28.5 z"
       fill="#0078d4"
       fill-rule="evenodd"
       id="path359" />
    <text
       fill="#ffffff"
       font-family="'Segoe UI', 'Segoe UI_MSFontService', sans-serif"
       font-weight="400"
       font-size="27px"
       transform="translate(1418.06,637)"
       id="text361">5</text>
    <path
       d="m 1342,810 c 0,-16.016 11.86,-29 26.5,-29 14.64,0 26.5,12.984 26.5,29 0,16.016 -11.86,29 -26.5,29 -14.64,0 -26.5,-12.984 -26.5,-29 z"
       fill="#0078d4"
       fill-rule="evenodd"
       id="path363" />
    <text
       fill="#ffffff"
       font-family="'Segoe UI', 'Segoe UI_MSFontService', sans-serif"
       font-weight="400"
       font-size="27px"
       transform="translate(1361.09,820)"
       id="text365">4</text>
    <path
       d="m 1399,810.5 c 0,-15.74 11.86,-28.5 26.5,-28.5 14.64,0 26.5,12.76 26.5,28.5 0,15.74 -11.86,28.5 -26.5,28.5 -14.64,0 -26.5,-12.76 -26.5,-28.5 z"
       fill="#0078d4"
       fill-rule="evenodd"
       id="path367" />
    <text
       fill="#ffffff"
       font-family="'Segoe UI', 'Segoe UI_MSFontService', sans-serif"
       font-weight="400"
       font-size="27px"
       transform="translate(1418.06,820)"
       id="text369">5</text>
    <path
       d="m 1342,985.5 c 0,-15.74 11.86,-28.5 26.5,-28.5 14.64,0 26.5,12.76 26.5,28.5 0,15.74 -11.86,28.5 -26.5,28.5 -14.64,0 -26.5,-12.76 -26.5,-28.5 z"
       fill="#0078d4"
       fill-rule="evenodd"
       id="path371" />
    <text
       fill="#ffffff"
       font-family="'Segoe UI', 'Segoe UI_MSFontService', sans-serif"
       font-weight="400"
       font-size="27px"
       transform="translate(1361.09,996)"
       id="text373">4</text>
    <path
       d="m 1399,986 c 0,-16.016 11.86,-29 26.5,-29 14.64,0 26.5,12.984 26.5,29 0,16.02 -11.86,29 -26.5,29 -14.64,0 -26.5,-12.98 -26.5,-29 z"
       fill="#0078d4"
       fill-rule="evenodd"
       id="path375" />
    <text
       fill="#ffffff"
       font-family="'Segoe UI', 'Segoe UI_MSFontService', sans-serif"
       font-weight="400"
       font-size="27px"
       transform="translate(1418.06,996)"
       id="text377">5</text>
    <path
       d="m 1342,1167 c 0,-16.02 11.86,-29 26.5,-29 14.64,0 26.5,12.98 26.5,29 0,16.02 -11.86,29 -26.5,29 -14.64,0 -26.5,-12.98 -26.5,-29 z"
       fill="#0078d4"
       fill-rule="evenodd"
       id="path379" />
    <text
       fill="#ffffff"
       font-family="'Segoe UI', 'Segoe UI_MSFontService', sans-serif"
       font-weight="400"
       font-size="27px"
       transform="translate(1361.09,1177)"
       id="text381">4</text>
    <path
       d="m 1399,1167 c 0,-16.02 11.86,-29 26.5,-29 14.64,0 26.5,12.98 26.5,29 0,16.02 -11.86,29 -26.5,29 -14.64,0 -26.5,-12.98 -26.5,-29 z"
       fill="#0078d4"
       fill-rule="evenodd"
       id="path383" />
    <text
       fill="#ffffff"
       font-family="'Segoe UI', 'Segoe UI_MSFontService', sans-serif"
       font-weight="400"
       font-size="27px"
       transform="translate(1418.06,1177)"
       id="text385">5</text>
    <path
       d="m 1342,1342 c 0,-16.02 11.86,-29 26.5,-29 14.64,0 26.5,12.98 26.5,29 0,16.02 -11.86,29 -26.5,29 -14.64,0 -26.5,-12.98 -26.5,-29 z"
       fill="#0078d4"
       fill-rule="evenodd"
       id="path387" />
    <text
       fill="#ffffff"
       font-family="'Segoe UI', 'Segoe UI_MSFontService', sans-serif"
       font-weight="400"
       font-size="27px"
       transform="translate(1361.09,1352)"
       id="text389">4</text>
    <path
       d="m 1399,1342.5 c 0,-15.74 11.86,-28.5 26.5,-28.5 14.64,0 26.5,12.76 26.5,28.5 0,15.74 -11.86,28.5 -26.5,28.5 -14.64,0 -26.5,-12.76 -26.5,-28.5 z"
       fill="#0078d4"
       fill-rule="evenodd"
       id="path391" />
    <text
       fill="#ffffff"
       font-family="'Segoe UI', 'Segoe UI_MSFontService', sans-serif"
       font-weight="400"
       font-size="27px"
       transform="translate(1418.06,1352)"
       id="text393">5</text>
    <path
       d="m 1342,1520.5 c 0,-15.74 11.86,-28.5 26.5,-28.5 14.64,0 26.5,12.76 26.5,28.5 0,15.74 -11.86,28.5 -26.5,28.5 -14.64,0 -26.5,-12.76 -26.5,-28.5 z"
       fill="#0078d4"
       fill-rule="evenodd"
       id="path395" />
    <text
       fill="#ffffff"
       font-family="'Segoe UI', 'Segoe UI_MSFontService', sans-serif"
       font-weight="400"
       font-size="27px"
       transform="translate(1361.09,1531)"
       id="text397">4</text>
    <path
       d="m 1399,1520.5 c 0,-15.74 11.86,-28.5 26.5,-28.5 14.64,0 26.5,12.76 26.5,28.5 0,15.74 -11.86,28.5 -26.5,28.5 -14.64,0 -26.5,-12.76 -26.5,-28.5 z"
       fill="#0078d4"
       fill-rule="evenodd"
       id="path399" />
    <text
       fill="#ffffff"
       font-family="'Segoe UI', 'Segoe UI_MSFontService', sans-serif"
       font-weight="400"
       font-size="27px"
       transform="translate(1418.06,1531)"
       id="text401">5</text>
    <path
       d="m 1363,1706.5 c 0,-15.74 11.86,-28.5 26.5,-28.5 14.64,0 26.5,12.76 26.5,28.5 0,15.74 -11.86,28.5 -26.5,28.5 -14.64,0 -26.5,-12.76 -26.5,-28.5 z"
       fill="#0078d4"
       fill-rule="evenodd"
       id="path403" />
    <text
       fill="#ffffff"
       font-family="'Segoe UI', 'Segoe UI_MSFontService', sans-serif"
       font-weight="400"
       font-size="27px"
       transform="translate(1382.7,1716)"
       id="text405">5</text>
    <path
       d="m 1368,1892.5 c 0,-15.74 11.86,-28.5 26.5,-28.5 14.64,0 26.5,12.76 26.5,28.5 0,15.74 -11.86,28.5 -26.5,28.5 -14.64,0 -26.5,-12.76 -26.5,-28.5 z"
       fill="#0078d4"
       fill-rule="evenodd"
       id="path407" />
    <text
       fill="#ffffff"
       font-family="'Segoe UI', 'Segoe UI_MSFontService', sans-serif"
       font-weight="400"
       font-size="27px"
       transform="translate(1387.63,1903)"
       id="text409">5</text>
  </g>
</svg>
