<?xml version="1.0"?>
<svg xmlns="http://www.w3.org/2000/svg" xmlns:xlink="http://www.w3.org/1999/xlink" xmlns:ev="http://www.w3.org/2001/xml-events"    viewBox="40 31 482 423"    xml:space="preserve" color-interpolation-filters="sRGB" class="st10" width="1205" height="1058">
<rect x="0" y="0" width="1205" height="1058" fill="#ffffff" />
	<style type="text/css"><![CDATA[
		.st1 {fill:#ffffff;stroke:#0078d4;stroke-linecap:round;stroke-linejoin:round;stroke-width:0.24}
		.st2 {fill:#000000;font-family:Calibri;font-size:1.00001em}
		.st3 {fill:#0078d4;stroke:none;stroke-linecap:round;stroke-linejoin:round;stroke-width:0.24}
		.st4 {fill:#ffffff;font-family:Calibri;font-size:1.00001em}
		.st5 {font-size:1em}
		.st6 {fill:#ffffff}
		.st7 {stroke:#0078d4;stroke-linecap:round;stroke-linejoin:round;stroke-width:0.24}
		.st8 {marker-end:url(#mrkr13-64);stroke:#0078d4;stroke-linecap:round;stroke-linejoin:round;stroke-width:0.75}
		.st9 {fill:#0078d4;fill-opacity:1;stroke:#0078d4;stroke-opacity:1;stroke-width:0.22935779816514}
		.st10 {fill:none;fill-rule:evenodd;font-size:12px;overflow:visible;stroke-linecap:square;stroke-miterlimit:3}
	]]></style><style> a { pointer-events: none; } </style><style>a.rules_svg_anchor g:hover { opacity:0.8; cursor:pointer; }</style>
	<defs id="Markers">
		<g id="lend13">
			<path d="M 3 1 L 0 0 L 3 -1 L 3 1 " style="stroke:none" />
		</g>
		<marker id="mrkr13-64" class="st9" refX="-13.08" orient="auto" markerUnits="strokeWidth" overflow="visible">
			<use xlink:href="#lend13" transform="scale(-4.36,-4.36) " />
		</marker>
	</defs>
	<g>
		
		<g id="shape1-1" transform="translate(40.5,-531)">
			
			<desc>Start</desc>
			<path d="M18 612 L67.5 612 A18 18 -180 0 0 67.5 576 L18 576 A18 18 -180 1 0 18 612 Z" class="st1" />
			<text x="31.01" y="597.6" class="st2">Start</text>
		</g>
		<a id="6d0639cc-32b5-4918-b6c3-478e7a753c0e" class="rules_svg_anchor rules_svg_shape"   href="/lms/chart?onclick=b3BlbkNoYXJ0Q29udGV4dE1lbnUoZXZlbnQsJ3cxMjVkNTIzNTk2NWMxNzQ2OXY0MDc4JywyMzE3MSwgMSwgMSwgdGhpcywgd2luZG93LmZyYW1lRWxlbWVudCk=&amp;navigate=true&amp;details=Description">
			<g id="shape2-4" transform="translate(180,-517.5)">
				
				<desc>90.60 Close financial periods</desc>
				<rect x="0" y="549" width="126" height="63" class="st3" />
				<text x="12.98" y="576.9" class="st4">90.60 Close financial <tspan x="44.73" dy="1.2em" class="st5">periods</tspan>
				</text>
			</g>
		</a>
		<a id="790e015b-a6b7-4f23-937c-492ad12c708b" class="rules_svg_anchor rules_svg_shape"   href="/lms/chart?onclick=b3BlbkNoYXJ0Q29udGV4dE1lbnUoZXZlbnQsJ3cxMjVkNTIzNTk2NWMxNzQ3MXY0MDc4JywyMzE3MiwgMSwgMSwgdGhpcywgd2luZG93LmZyYW1lRWxlbWVudCk=&amp;navigate=true&amp;details=Description">
			<g id="shape3-8" transform="translate(180,-427.5)">
				
				<desc>90.60.020 Finalize and post transactions</desc>
				<path d="M0 612 L126 612 L126 549 L0 549 L0 612 Z" class="st6" />
				<path d="M0 612 L126 612 L126 549 L0 549 L0 612" class="st7" />
				<path d="M9 612 L9 549" class="st7" />
				<path d="M117 612 L117 549" class="st7" />
				<text x="19.06" y="569.7" class="st2">90.60.020 Finalize <tspan x="41.79" dy="1.2em" class="st5">and post </tspan>
					<tspan x="33.06" dy="1.2em" class="st5">transactions</tspan>
				</text>
			</g>
		</a>
		<a id="22772045-e9aa-4efd-a126-353337096781" class="rules_svg_anchor rules_svg_shape"   href="/lms/chart?onclick=b3BlbkNoYXJ0Q29udGV4dE1lbnUoZXZlbnQsJ3cxMjVkNTIzNTk2NWMxNzQ3M3Y0MDc4JywyMzE3MywgMSwgMSwgdGhpcywgd2luZG93LmZyYW1lRWxlbWVudCk=&amp;navigate=true&amp;details=Description">
			<g id="shape4-16" transform="translate(180,-337.5)">
				
				<desc>90.60.040 Reconcile ledger and subledger</desc>
				<path d="M0 612 L126 612 L126 549 L0 549 L0 612 Z" class="st6" />
				<path d="M0 612 L126 612 L126 549 L0 549 L0 612" class="st7" />
				<path d="M9 612 L9 549" class="st7" />
				<path d="M117 612 L117 549" class="st7" />
				<text x="13.95" y="576.9" class="st2">90.60.040 Reconcile <tspan x="11.62" dy="1.2em" class="st5">ledger and subledger</tspan>
				</text>
			</g>
		</a>
		<a id="700c46b6-116e-49c2-a83f-2ffc79d8f209" class="rules_svg_anchor rules_svg_shape"   href="/lms/chart?onclick=b3BlbkNoYXJ0Q29udGV4dE1lbnUoZXZlbnQsJ3cxMjVkNTIzNTk2NWMxNzQ3NXY0MDc4JywyMzE3NCwgMSwgMSwgdGhpcywgd2luZG93LmZyYW1lRWxlbWVudCk=&amp;navigate=true&amp;details=Description">
			<g id="shape5-23" transform="translate(180,-247.5)">
				
				<desc>90.60.060 Revalue currency</desc>
				<path d="M0 612 L126 612 L126 549 L0 549 L0 612 Z" class="st6" />
				<path d="M0 612 L126 612 L126 549 L0 549 L0 612" class="st7" />
				<path d="M9 612 L9 549" class="st7" />
				<path d="M117 612 L117 549" class="st7" />
				<text x="17.99" y="576.9" class="st2">90.60.060 Revalue <tspan x="41.74" dy="1.2em" class="st5">currency</tspan>
				</text>
			</g>
		</a>
		<a id="76009b72-99ce-4ec0-87c7-01fcabeea17b" class="rules_svg_anchor rules_svg_shape"   href="/lms/chart?onclick=b3BlbkNoYXJ0Q29udGV4dE1lbnUoZXZlbnQsJ3cxMjVkNTIzNTk2NWMxNzQ3NnY0MDc4JywyMzE3NSwgMSwgMSwgdGhpcywgd2luZG93LmZyYW1lRWxlbWVudCk=&amp;navigate=true&amp;details=Description">
			<g id="shape6-30" transform="translate(180,-157.5)">
				
				<desc>90.60.070 Perform ledger settlements</desc>
				<path d="M0 612 L126 612 L126 549 L0 549 L0 612 Z" class="st6" />
				<path d="M0 612 L126 612 L126 549 L0 549 L0 612" class="st7" />
				<path d="M9 612 L9 549" class="st7" />
				<path d="M117 612 L117 549" class="st7" />
				<text x="17.27" y="576.9" class="st2">90.60.070 Perform <tspan x="17.23" dy="1.2em" class="st5">ledger settlements</tspan>
				</text>
			</g>
		</a>
		<a id="e5cd1e5d-6e47-4ece-93ed-4ffa1861d9f9" class="rules_svg_anchor rules_svg_shape"   href="/lms/chart?onclick=b3BlbkNoYXJ0Q29udGV4dE1lbnUoZXZlbnQsJ3cxMjVkNTIzNTk2NWMxNzQ3N3Y0MDc4JywyMzE3NiwgMSwgMSwgdGhpcywgd2luZG93LmZyYW1lRWxlbWVudCk=&amp;navigate=true&amp;details=Description">
			<g id="shape7-37" transform="translate(396,-427.5)">
				
				<desc>90.60.080 Consolidate and eliminate financials</desc>
				<path d="M0 612 L126 612 L126 549 L0 549 L0 612 Z" class="st6" />
				<path d="M0 612 L126 612 L126 549 L0 549 L0 612" class="st7" />
				<path d="M9 612 L9 549" class="st7" />
				<path d="M117 612 L117 549" class="st7" />
				<text x="38.68" y="569.7" class="st2">90.60.080 <tspan x="23.66" dy="1.2em" class="st5">Consolidate and </tspan>
					<tspan x="15.81" dy="1.2em" class="st5">eliminate financials</tspan>
				</text>
			</g>
		</a>
		<a id="9ae3e4eb-08ca-46d9-a0fe-285ed963b523" class="rules_svg_anchor rules_svg_shape"   href="/lms/chart?onclick=b3BlbkNoYXJ0Q29udGV4dE1lbnUoZXZlbnQsJ3cxMjVkNTIzNTk2NWMxNzQ3OHY0MDc4JywyMzE3NywgMSwgMSwgdGhpcywgd2luZG93LmZyYW1lRWxlbWVudCk=&amp;navigate=true&amp;details=Description">
			<g id="shape8-45" transform="translate(396,-337.5)">
				
				<desc>90.60.090 Prepare financial statements</desc>
				<path d="M0 612 L126 612 L126 549 L0 549 L0 612 Z" class="st6" />
				<path d="M0 612 L126 612 L126 549 L0 549 L0 612" class="st7" />
				<path d="M9 612 L9 549" class="st7" />
				<path d="M117 612 L117 549" class="st7" />
				<text x="18.05" y="576.9" class="st2">90.60.090 Prepare <tspan x="13.58" dy="1.2em" class="st5">financial statements</tspan>
				</text>
			</g>
		</a>
		<a id="3eab7f7b-df0f-42e5-90aa-a2b91236f6bc" class="rules_svg_anchor rules_svg_shape"   href="/lms/chart?onclick=b3BlbkNoYXJ0Q29udGV4dE1lbnUoZXZlbnQsJ3cxMjVkNTIzNTk2NWMxNzQ4MHY0MDc4JywyMzE3OCwgMSwgMSwgdGhpcywgd2luZG93LmZyYW1lRWxlbWVudCk=&amp;navigate=true&amp;details=Description">
			<g id="shape9-52" transform="translate(396,-247.5)">
				
				<desc>90.60.100 Close periods</desc>
				<path d="M0 612 L126 612 L126 549 L0 549 L0 612 Z" class="st6" />
				<path d="M0 612 L126 612 L126 549 L0 549 L0 612" class="st7" />
				<path d="M9 612 L9 549" class="st7" />
				<path d="M117 612 L117 549" class="st7" />
				<text x="24.25" y="576.9" class="st2">90.60.100 Close <tspan x="44.73" dy="1.2em" class="st5">periods</tspan>
				</text>
			</g>
		</a>
		<g id="shape10-59" transform="translate(234,-517.5)">
			
			<path d="M9 612 L9 629.19" class="st8" />
		</g>
		<g id="shape11-65" transform="translate(234,-427.5)">
			
			<path d="M9 612 L9 629.19" class="st8" />
		</g>
		<g id="shape12-70" transform="translate(234,-337.5)">
			
			<path d="M9 612 L9 629.19" class="st8" />
		</g>
		<g id="shape13-75" transform="translate(234,-247.5)">
			
			<path d="M9 612 L9 629.19" class="st8" />
		</g>
		<g id="shape14-80" transform="translate(306,-189)">
			
			<path d="M0 612 L17.66 612 L17.66 342 L80.19 342" class="st8" />
		</g>
		<g id="shape15-85" transform="translate(450,-427.5)">
			
			<path d="M9 612 L9 629.19" class="st8" />
		</g>
		<g id="shape16-90" transform="translate(450,-337.5)">
			
			<path d="M9 612 L9 629.19" class="st8" />
		</g>
		<g id="shape17-95" transform="translate(416.25,-171)">
			
			<desc>End</desc>
			<path d="M18 612 L67.5 612 A18 18 -180 0 0 67.5 576 L18 576 A18 18 -180 1 0 18 612 Z" class="st1" />
			<text x="33.52" y="597.6" class="st2">End</text>
		</g>
		<g id="shape18-98" transform="translate(450,-247.5)">
			
			<path d="M9 612 L9 642.69" class="st8" />
		</g>
		<g id="shape19-103" transform="translate(126,-540)">
			
			<path d="M0 603 L44.19 603" class="st8" />
		</g>
	</g>
</svg>
