<?xml version="1.0"?>
<svg xmlns="http://www.w3.org/2000/svg" xmlns:xlink="http://www.w3.org/1999/xlink" xmlns:ev="http://www.w3.org/2001/xml-events"    viewBox="3 61 861 704"    xml:space="preserve" color-interpolation-filters="sRGB" class="st11" width="2153" height="1760">
<rect x="0" y="0" width="2153" height="1760" fill="#ffffff" />
	<style type="text/css"><![CDATA[
		.st1 {fill:#ffffff;stroke:#0078d4;stroke-linecap:round;stroke-linejoin:round;stroke-width:0.24}
		.st2 {fill:#000000;font-family:Calibri;font-size:1.00001em}
		.st3 {fill:#0078d4;stroke:none;stroke-linecap:round;stroke-linejoin:round;stroke-width:0.24}
		.st4 {fill:#ffffff;font-family:Calibri;font-size:1.00001em}
		.st5 {fill:#ffffff}
		.st6 {stroke:#0078d4;stroke-linecap:round;stroke-linejoin:round;stroke-width:0.24}
		.st7 {font-size:1em}
		.st8 {fill:#a0a0a0;stroke:none;stroke-linecap:round;stroke-linejoin:round;stroke-width:0.24}
		.st9 {marker-end:url(#mrkr13-84);stroke:#0078d4;stroke-linecap:round;stroke-linejoin:round;stroke-width:0.75}
		.st10 {fill:#0078d4;fill-opacity:1;stroke:#0078d4;stroke-opacity:1;stroke-width:0.22935779816514}
		.st11 {fill:none;fill-rule:evenodd;font-size:12px;overflow:visible;stroke-linecap:square;stroke-miterlimit:3}
	]]></style><style> a { pointer-events: none; } </style><style>a.rules_svg_anchor g:hover { opacity:0.8; cursor:pointer; }</style>
	<defs id="Markers">
		<g id="lend13">
			<path d="M 3 1 L 0 0 L 3 -1 L 3 1 " style="stroke:none" />
		</g>
		<marker id="mrkr13-84" class="st10" refX="-13.08" orient="auto" markerUnits="strokeWidth" overflow="visible">
			<use xlink:href="#lend13" transform="scale(-4.36,-4.36) " />
		</marker>
	</defs>
	<g>
		
		<g id="shape1-1" transform="translate(47.25,-1090.82)">
			
			<desc>Start</desc>
			<path d="M18 1188 L67.5 1188 A18 18 -180 0 0 67.5 1152 L18 1152 A18 18 -180 1 0 18 1188 Z" class="st1" />
			<text x="31.01" y="1173.6" class="st2">Start</text>
		</g>
		<a id="7590289c-e890-42dc-a0e5-b63910485d0d" class="rules_svg_anchor rules_svg_shape"   href="/lms/chart?onclick=b3BlbkNoYXJ0Q29udGV4dE1lbnUoZXZlbnQsJ3cxMjVkNTIzNTk2NWMxNzQzOHY0MDc4JywyMzE1MSwgMSwgMSwgdGhpcywgd2luZG93LmZyYW1lRWxlbWVudCk=&amp;navigate=true&amp;details=Description">
			<g id="shape2-4" transform="translate(306,-1000.82)">
				
				<desc>90.30 Manage budgets</desc>
				<rect x="0" y="1125" width="126" height="63" class="st3" />
				<text x="7.15" y="1160.1" class="st4">90.30 Manage budgets</text>
			</g>
		</a>
		<a id="b8779e1d-0e02-483e-aede-c639db121b72" class="rules_svg_anchor rules_svg_shape"   href="/lms/chart?onclick=b3BlbkNoYXJ0Q29udGV4dE1lbnUoZXZlbnQsJ3cxMjVkNTIzNTk2NWM3OTQ3M3Y0MDc4JywyMzE1MywgMSwgMSwgdGhpcywgd2luZG93LmZyYW1lRWxlbWVudCk=&amp;navigate=true&amp;details=Description">
			<g id="shape3-7" transform="translate(306,-904.5)">
				
				<desc>90.30.025 Define preliminary budgets</desc>
				<path d="M0 1188 L126 1188 L126 1125 L0 1125 L0 1188 Z" class="st5" />
				<path d="M0 1188 L126 1188 L126 1125 L0 1125 L0 1188" class="st6" />
				<path d="M9 1188 L9 1125" class="st6" />
				<path d="M117 1188 L117 1125" class="st6" />
				<text x="21.3" y="1152.9" class="st2">90.30.025 Define <tspan x="14.03" dy="1.2em" class="st7">preliminary budgets</tspan>
				</text>
			</g>
		</a>
		<a id="1e9758f5-10ef-4e4e-96ea-4547b4193a29" class="rules_svg_anchor rules_svg_shape"   href="/lms/chart?onclick=b3BlbkNoYXJ0Q29udGV4dE1lbnUoZXZlbnQsJ3cxMjVkNTIzNTk2NWMxNzQ0MHY0MDc4JywyMzE1MiwgMSwgMSwgdGhpcywgd2luZG93LmZyYW1lRWxlbWVudCk=&amp;navigate=true&amp;details=Description">
			<g id="shape4-14" transform="translate(306,-792)">
				
				<desc>90.30.020 Plan budgets</desc>
				<path d="M0 1188 L126 1188 L126 1125 L0 1125 L0 1188 Z" class="st5" />
				<path d="M0 1188 L126 1188 L126 1125 L0 1125 L0 1188" class="st6" />
				<path d="M9 1188 L9 1125" class="st6" />
				<path d="M117 1188 L117 1125" class="st6" />
				<text x="26.82" y="1152.9" class="st2">90.30.020 Plan <tspan x="43.38" dy="1.2em" class="st7">budgets</tspan>
				</text>
			</g>
		</a>
		<a id="4495fab1-1378-4914-9963-bb91302a9275" class="rules_svg_anchor rules_svg_shape"   href="/lms/chart?onclick=b3BlbkNoYXJ0Q29udGV4dE1lbnUoZXZlbnQsJ3cxMjVkNTIzNTk2NWMxNzQ0MXY0MDc4JywyMzE1NCwgMSwgMSwgdGhpcywgd2luZG93LmZyYW1lRWxlbWVudCk=&amp;navigate=true&amp;details=Description">
			<g id="shape5-21" transform="translate(459,-792)">
				
				<desc>90.30.030 Reserve budgets</desc>
				<path d="M0 1188 L126 1188 L126 1125 L0 1125 L0 1188 Z" class="st5" />
				<path d="M0 1188 L126 1188 L126 1125 L0 1125 L0 1188" class="st6" />
				<path d="M9 1188 L9 1125" class="st6" />
				<path d="M117 1188 L117 1125" class="st6" />
				<text x="17.96" y="1152.9" class="st2">90.30.030 Reserve <tspan x="43.38" dy="1.2em" class="st7">budgets</tspan>
				</text>
			</g>
		</a>
		<a id="9339c8af-03b6-4ef5-a7e3-8b955021b426" class="rules_svg_anchor rules_svg_shape"   href="/lms/chart?onclick=b3BlbkNoYXJ0Q29udGV4dE1lbnUoZXZlbnQsJ3cxMjVkNTIzNTk2NWMxNzQxMnY0MDc4JywyMzEzMiwgMSwgMSwgdGhpcywgd2luZG93LmZyYW1lRWxlbWVudCk=&amp;navigate=true&amp;details=Description">
			<g id="shape6-28" transform="translate(40.5,-1000.82)">
				
				<desc>90 Record to report</desc>
				<rect x="0" y="1125" width="99" height="63" class="st8" />
				<text x="18.34" y="1152.9" class="st2">90 Record to <tspan x="34" dy="1.2em" class="st7">report</tspan>
				</text>
			</g>
		</a>
		<a id="fdf53ca4-5996-4e8c-b8fa-50712d1ac96d" class="rules_svg_anchor rules_svg_shape"   href="/lms/chart?onclick=b3BlbkNoYXJ0Q29udGV4dE1lbnUoZXZlbnQsJ3cxMjVkNTIzNTk2NWMxNzQxM3Y0MDc4JywyMzEzMywgMSwgMSwgdGhpcywgd2luZG93LmZyYW1lRWxlbWVudCk=&amp;navigate=true&amp;details=Description">
			<g id="shape7-32" transform="translate(162,-1000.82)">
				
				<desc>90.10 Define accounting policies</desc>
				<rect x="0" y="1125" width="99" height="63" class="st3" />
				<text x="18.44" y="1152.9" class="st4">90.10 Define <tspan x="3.05" dy="1.2em" class="st7">accounting policies</tspan>
				</text>
			</g>
		</a>
		<a id="9a074852-f90d-4643-95f4-25674ed7715d" class="rules_svg_anchor rules_svg_shape"   href="/lms/chart?onclick=b3BlbkNoYXJ0Q29udGV4dE1lbnUoZXZlbnQsJ3cxMjVkNTIzNTk2NWMxNzQ0NXY0MDc4JywyMzE1OCwgMSwgMSwgdGhpcywgd2luZG93LmZyYW1lRWxlbWVudCk=&amp;navigate=true&amp;details=Description">
			<g id="shape8-36" transform="translate(612,-792)">
				
				<desc>90.30.070 Transfer budgets</desc>
				<path d="M0 1188 L126 1188 L126 1125 L0 1125 L0 1188 Z" class="st5" />
				<path d="M0 1188 L126 1188 L126 1125 L0 1125 L0 1188" class="st6" />
				<path d="M9 1188 L9 1125" class="st6" />
				<path d="M117 1188 L117 1125" class="st6" />
				<text x="17.03" y="1152.9" class="st2">90.30.070 Transfer <tspan x="43.38" dy="1.2em" class="st7">budgets</tspan>
				</text>
			</g>
		</a>
		<a id="8957e378-60cd-441b-9c2d-6e186edf2eaa" class="rules_svg_anchor rules_svg_shape"   href="/lms/chart?onclick=b3BlbkNoYXJ0Q29udGV4dE1lbnUoZXZlbnQsJ3cxMjVkNTIzNTk2NWMxNzQ0M3Y0MDc4JywyMzE1NiwgMSwgMSwgdGhpcywgd2luZG93LmZyYW1lRWxlbWVudCk=&amp;navigate=true&amp;details=Description">
			<g id="shape9-43" transform="translate(306,-594)">
				
				<desc>90.30.050 Maintain budgets</desc>
				<path d="M0 1188 L126 1188 L126 1125 L0 1125 L0 1188 Z" class="st5" />
				<path d="M0 1188 L126 1188 L126 1125 L0 1125 L0 1188" class="st6" />
				<path d="M9 1188 L9 1125" class="st6" />
				<path d="M117 1188 L117 1125" class="st6" />
				<text x="15.38" y="1152.9" class="st2">90.30.050 Maintain <tspan x="43.38" dy="1.2em" class="st7">budgets</tspan>
				</text>
			</g>
		</a>
		<a id="fb7d131d-6078-48c9-b3c5-429c12262aad" class="rules_svg_anchor rules_svg_shape"   href="/lms/chart?onclick=b3BlbkNoYXJ0Q29udGV4dE1lbnUoZXZlbnQsJ3cxMjVkNTIzNTk2NWMxNzQ0MnY0MDc4JywyMzE1NSwgMSwgMSwgdGhpcywgd2luZG93LmZyYW1lRWxlbWVudCk=&amp;navigate=true&amp;details=Description">
			<g id="shape10-50" transform="translate(306,-693)">
				
				<desc>90.30.040 Allocate budgets</desc>
				<path d="M0 1188 L126 1188 L126 1125 L0 1125 L0 1188 Z" class="st5" />
				<path d="M0 1188 L126 1188 L126 1125 L0 1125 L0 1188" class="st6" />
				<path d="M9 1188 L9 1125" class="st6" />
				<path d="M117 1188 L117 1125" class="st6" />
				<text x="17.53" y="1152.9" class="st2">90.30.040 Allocate <tspan x="43.38" dy="1.2em" class="st7">budgets</tspan>
				</text>
			</g>
		</a>
		<a id="f6a0768c-d7cd-441c-ae0c-1380155f373b" class="rules_svg_anchor rules_svg_shape"   href="/lms/chart?onclick=b3BlbkNoYXJ0Q29udGV4dE1lbnUoZXZlbnQsJ3cxMjVkNTIzNTk2NWMxNzQ0NHY0MDc4JywyMzE1NywgMSwgMSwgdGhpcywgd2luZG93LmZyYW1lRWxlbWVudCk=&amp;navigate=true&amp;details=Description">
			<g id="shape11-57" transform="translate(306,-495)">
				
				<desc>90.30.060 Approve budgets</desc>
				<path d="M0 1188 L126 1188 L126 1125 L0 1125 L0 1188 Z" class="st5" />
				<path d="M0 1188 L126 1188 L126 1125 L0 1125 L0 1188" class="st6" />
				<path d="M9 1188 L9 1125" class="st6" />
				<path d="M117 1188 L117 1125" class="st6" />
				<text x="16.6" y="1152.9" class="st2">90.30.060 Approve <tspan x="43.38" dy="1.2em" class="st7">budgets</tspan>
				</text>
			</g>
		</a>
		<a id="65f8f963-f577-40e7-b032-7f367dc0994e" class="rules_svg_anchor rules_svg_shape"   href="/lms/chart?onclick=b3BlbkNoYXJ0Q29udGV4dE1lbnUoZXZlbnQsJ3cxMjVkNTIzNTk2NWM1NTM4MnY0MDc4JywyMzE1OSwgMSwgMSwgdGhpcywgd2luZG93LmZyYW1lRWxlbWVudCk=&amp;navigate=true&amp;details=Description">
			<g id="shape12-64" transform="translate(612,-495)">
				
				<desc>90.30.080 Appropriate budgets</desc>
				<path d="M0 1188 L126 1188 L126 1125 L0 1125 L0 1188 Z" class="st5" />
				<path d="M0 1188 L126 1188 L126 1125 L0 1125 L0 1188" class="st6" />
				<path d="M9 1188 L9 1125" class="st6" />
				<path d="M117 1188 L117 1125" class="st6" />
				<text x="38.68" y="1152.9" class="st2">90.30.080 <tspan x="12.5" dy="1.2em" class="st7">Appropriate budgets</tspan>
				</text>
			</g>
		</a>
		<g id="shape13-71" transform="translate(472.5,-904.5)">
			
			<desc>Is reservation required?</desc>
			<path d="M0 1156.5 L49.5 1125 L99 1156.5 L49.5 1188 L0 1156.5 Z" class="st3" />
			<text x="16.5" y="1152.9" class="st4">Is reservation <tspan x="25.73" dy="1.2em" class="st7">required?</tspan>
			</text>
		</g>
		<g id="shape14-75" transform="translate(625.5,-904.5)">
			
			<desc>Is transfer required?</desc>
			<path d="M0 1156.5 L49.5 1125 L99 1156.5 L49.5 1188 L0 1156.5 Z" class="st3" />
			<text x="24.9" y="1152.9" class="st4">Is transfer <tspan x="25.73" dy="1.2em" class="st7">required?</tspan>
			</text>
		</g>
		<g id="shape15-79" transform="translate(360,-1000.82)">
			
			<path d="M9 1188 L9 1211.51" class="st9" />
		</g>
		<g id="shape16-85" transform="translate(432,-1032.32)">
			
			<path d="M0 1188 L90 1188 L90 1243.01" class="st9" />
		</g>
		<g id="shape17-90" transform="translate(432,-1032.32)">
			
			<path d="M0 1188 L243 1188 L243 1243.01" class="st9" />
		</g>
		<g id="shape18-95" transform="translate(513,-904.5)">
			
			<path d="M9 1188 L9 1227.69" class="st9" />
		</g>
		<g id="shape19-100" transform="translate(666,-904.5)">
			
			<path d="M9 1188 L9 1227.69" class="st9" />
		</g>
		<g id="shape20-105" transform="translate(360,-904.5)">
			
			<path d="M9 1188 L9 1227.69" class="st9" />
		</g>
		<g id="shape21-110" transform="translate(360,-792)">
			
			<path d="M9 1188 L9 1214.19" class="st9" />
		</g>
		<g id="shape22-115" transform="translate(360,-693)">
			
			<path d="M9 1188 L9 1214.19" class="st9" />
		</g>
		<g id="shape23-120" transform="translate(360,-594)">
			
			<path d="M9 1188 L9 1214.19" class="st9" />
		</g>
		<g id="shape25-125" transform="translate(472.5,-495)">
			
			<desc>Is approved?</desc>
			<path d="M0 1156.5 L49.5 1125 L99 1156.5 L49.5 1188 L0 1156.5 Z" class="st3" />
			<text x="18.22" y="1160.1" class="st4">Is approved?</text>
		</g>
		<g id="shape26-128" transform="translate(432,-535.5)">
			
			<path d="M0 1197 L30.69 1197" class="st9" />
		</g>
		<g id="shape27-133" transform="translate(571.5,-517.5)">
			
			<path d="M0 1179 L30.69 1179" class="st9" />
		</g>
		<g id="shape28-138" transform="translate(522,-495)">
			
			<path d="M0 1188 L0 1205.66 L-233.66 1205.66 L-233.66 1156.5 L-225.81 1156.5" class="st9" />
		</g>
		<g id="shape29-143" transform="translate(632.25,-423)">
			
			<desc>End</desc>
			<path d="M18 1188 L67.5 1188 A18 18 -180 0 0 67.5 1152 L18 1152 A18 18 -180 1 0 18 1188 Z" class="st1" />
			<text x="33.52" y="1173.6" class="st2">End</text>
		</g>
		<a id="67a36d2f-b465-4536-ac69-a8f372726b13" class="rules_svg_anchor rules_svg_shape"   href="/lms/chart?onclick=b3BlbkNoYXJ0Q29udGV4dE1lbnUoZXZlbnQsJ3cxMjVkNTIzNTk2NWMxNjgwMnY0MDc4JywyMjYyMCwgMSwgNCwgdGhpcywgd2luZG93LmZyYW1lRWxlbWVudCk=&amp;navigate=true&amp;details=Description">
			<g id="shape30-146" transform="translate(40.5,-927)">
				
				<desc>10 Acquire to dispose</desc>
				<rect x="0" y="1125" width="99" height="63" class="st8" />
				<text x="16.76" y="1152.9" class="st2">10 Acquire to <tspan x="30.98" dy="1.2em" class="st7">dispose</tspan>
				</text>
			</g>
		</a>
		<a id="dea83048-b759-4c98-be5c-482c99072b0f" class="rules_svg_anchor rules_svg_shape"   href="/lms/chart?onclick=b3BlbkNoYXJ0Q29udGV4dE1lbnUoZXZlbnQsJ3cxMjVkNTIzNTk2NWMxNzA5M3Y0MDc4JywyMjkwMywgMSwgMSwgdGhpcywgd2luZG93LmZyYW1lRWxlbWVudCk=&amp;navigate=true&amp;details=Description">
			<g id="shape31-150" transform="translate(40.5,-853.176)">
				
				<desc>60 Inventory to deliver</desc>
				<rect x="0" y="1125" width="99" height="63" class="st8" />
				<text x="12.04" y="1152.9" class="st2">60 Inventory to <tspan x="32.82" dy="1.2em" class="st7">deliver</tspan>
				</text>
			</g>
		</a>
		<a id="01150362-d104-4acf-8495-ecac837def22" class="rules_svg_anchor rules_svg_shape"   href="/lms/chart?onclick=b3BlbkNoYXJ0Q29udGV4dE1lbnUoZXZlbnQsJ3cxMjVkNTIzNTk2NWMxNzE1NXY0MDc4JywyMjk1MiwgMSwgMSwgdGhpcywgd2luZG93LmZyYW1lRWxlbWVudCk=&amp;navigate=true&amp;details=Description">
			<g id="shape32-154" transform="translate(40.5,-779.351)">
				
				<desc>65 Order to cash</desc>
				<rect x="0" y="1125" width="99" height="63" class="st8" />
				<text x="8.97" y="1160.1" class="st2">65 Order to cash</text>
			</g>
		</a>
		<a id="e8894f91-9ad0-4ab3-be61-ed1a14e3d709" class="rules_svg_anchor rules_svg_shape"   href="/lms/chart?onclick=b3BlbkNoYXJ0Q29udGV4dE1lbnUoZXZlbnQsJ3cxMjVkNTIzNTk2NWMxNzIzMHY0MDc4JywyMjk5OCwgMSwgMSwgdGhpcywgd2luZG93LmZyYW1lRWxlbWVudCk=&amp;navigate=true&amp;details=Description">
			<g id="shape33-157" transform="translate(40.5,-705.527)">
				
				<desc>70 Plan to produce</desc>
				<rect x="0" y="1125" width="99" height="63" class="st8" />
				<text x="3.44" y="1160.1" class="st2">70 Plan to produce</text>
			</g>
		</a>
		<a id="b69a757b-2aa6-44ee-b6f3-ab994a7a099c" class="rules_svg_anchor rules_svg_shape"   href="/lms/chart?onclick=b3BlbkNoYXJ0Q29udGV4dE1lbnUoZXZlbnQsJ3cxMjVkNTIzNTk2NWMxNzI2OXY0MDc4JywyMzAzNCwgMSwgMSwgdGhpcywgd2luZG93LmZyYW1lRWxlbWVudCk=&amp;navigate=true&amp;details=Description">
			<g id="shape34-160" transform="translate(40.5,-631.702)">
				
				<desc>75 Source to pay</desc>
				<rect x="0" y="1125" width="99" height="63" class="st8" />
				<text x="8.74" y="1160.1" class="st2">75 Source to pay</text>
			</g>
		</a>
		<a id="9d5cc614-e123-4298-a03f-0c8c457dc16d" class="rules_svg_anchor rules_svg_shape"   href="/lms/chart?onclick=b3BlbkNoYXJ0Q29udGV4dE1lbnUoZXZlbnQsJ3cxMjVkNTIzNTk2NWMxNzMxOXY0MDc4JywyMzA4MywgMSwgMSwgdGhpcywgd2luZG93LmZyYW1lRWxlbWVudCk=&amp;navigate=true&amp;details=Description">
			<g id="shape35-163" transform="translate(40.5,-557.878)">
				
				<desc>80 Project to profit</desc>
				<rect x="0" y="1125" width="99" height="63" class="st8" />
				<text x="3.23" y="1160.1" class="st2">80 Project to profit</text>
			</g>
		</a>
		<a id="caba581d-0158-4c1b-82c5-ca8e7edf93cc" class="rules_svg_anchor rules_svg_shape"   href="/lms/chart?onclick=b3BlbkNoYXJ0Q29udGV4dE1lbnUoZXZlbnQsJ3cxMjVkNTIzNTk2NWMxNzQ5NnY0MDc4JywyMzE4NywgMSwgMSwgdGhpcywgd2luZG93LmZyYW1lRWxlbWVudCk=&amp;navigate=true&amp;details=Description">
			<g id="shape36-166" transform="translate(40.5,-484.054)">
				
				<desc>95 Service to deliver</desc>
				<rect x="0" y="1125" width="99" height="63" class="st8" />
				<text x="18.09" y="1152.9" class="st2">95 Service to <tspan x="32.82" dy="1.2em" class="st7">deliver</tspan>
				</text>
			</g>
		</a>
		<g id="shape37-170" transform="translate(81,-1090.82)">
			
			<path d="M9 1188 L9 1205.19" class="st9" />
		</g>
		<g id="shape38-175" transform="translate(52.875,-1108.82)">
			
			<path d="M-5.63 1188 L-30.03 1188 L-30.03 1338.32 L-22.18 1338.32" class="st9" />
		</g>
		<g id="shape39-180" transform="translate(52.875,-1108.82)">
			
			<path d="M-5.63 1188 L-30.03 1188 L-30.03 1412.15 L-22.18 1412.15" class="st9" />
		</g>
		<g id="shape40-185" transform="translate(52.875,-1108.82)">
			
			<path d="M-5.63 1188 L-30.03 1188 L-30.03 1485.97 L-22.18 1485.97" class="st9" />
		</g>
		<g id="shape41-190" transform="translate(52.875,-1108.82)">
			
			<path d="M-5.63 1188 L-30.03 1188 L-30.03 1559.8 L-22.18 1559.8" class="st9" />
		</g>
		<g id="shape42-195" transform="translate(52.875,-1108.82)">
			
			<path d="M-5.63 1188 L-30.03 1188 L-30.03 1633.62 L-22.18 1633.62" class="st9" />
		</g>
		<g id="shape43-200" transform="translate(52.875,-1108.82)">
			
			<path d="M-5.63 1188 L-30.03 1188 L-30.03 1707.45 L-22.18 1707.45" class="st9" />
		</g>
		<g id="shape44-205" transform="translate(52.875,-1108.82)">
			
			<path d="M-5.63 1188 L-30.03 1188 L-30.03 1781.27 L-22.18 1781.27" class="st9" />
		</g>
		<g id="shape45-210" transform="translate(139.5,-515.554)">
			
			<path d="M0 1188 L135 1188 L135 671.23 L156.69 671.23" class="st9" />
		</g>
		<g id="shape46-215" transform="translate(139.5,-1023.32)">
			
			<path d="M0 1179 L12.69 1179" class="st9" />
		</g>
		<g id="shape47-220" transform="translate(261,-1023.32)">
			
			<path d="M0 1179 L35.19 1179" class="st9" />
		</g>
		<g id="shape48-225" transform="translate(139.5,-958.5)">
			
			<path d="M0 1188 L135 1188 L135 1114.18 L156.69 1114.18" class="st9" />
		</g>
		<g id="shape49-230" transform="translate(139.5,-884.676)">
			
			<path d="M0 1188 L135 1188 L135 1040.35 L156.69 1040.35" class="st9" />
		</g>
		<g id="shape50-235" transform="translate(139.5,-810.851)">
			
			<path d="M0 1188 L135 1188 L135 966.53 L156.69 966.53" class="st9" />
		</g>
		<g id="shape51-240" transform="translate(139.5,-737.027)">
			
			<path d="M0 1188 L135 1188 L135 892.7 L156.69 892.7" class="st9" />
		</g>
		<g id="shape52-245" transform="translate(139.5,-663.202)">
			
			<path d="M0 1188 L135 1188 L135 818.88 L156.69 818.88" class="st9" />
		</g>
		<g id="shape53-250" transform="translate(139.5,-589.378)">
			
			<path d="M0 1188 L135 1188 L135 745.05 L156.69 745.05" class="st9" />
		</g>
		<g id="shape54-255" transform="translate(666,-495)">
			
			<path d="M9 1188 L9 1214.19" class="st9" />
		</g>
		<a id="164f9717-4909-4e02-906b-b0db91e3a1b3" class="rules_svg_anchor rules_svg_shape"   href="/lms/chart?onclick=b3BlbkNoYXJ0Q29udGV4dE1lbnUoZXZlbnQsJ3cxMjVkNTIzNTk2NWMxNzQxMnY0MDc4JywyMzEzMiwgMSwgMSwgdGhpcywgd2luZG93LmZyYW1lRWxlbWVudCk=&amp;navigate=true&amp;details=Description">
			<g id="shape57-260" transform="translate(765,-729)">
				
				<desc>90 Record to report</desc>
				<rect x="0" y="1125" width="99" height="63" class="st8" />
				<text x="18.34" y="1152.9" class="st2">90 Record to <tspan x="34" dy="1.2em" class="st7">report</tspan>
				</text>
			</g>
		</a>
		<a id="dc3a762f-ed0e-4e88-b850-728598dad794" class="rules_svg_anchor rules_svg_shape"   href="/lms/chart?onclick=b3BlbkNoYXJ0Q29udGV4dE1lbnUoZXZlbnQsJ3cxMjVkNTIzNTk2NWMxNzQ1OXY0MDc4JywyMzE2MCwgMSwgMSwgdGhpcywgd2luZG93LmZyYW1lRWxlbWVudCk=&amp;navigate=true&amp;details=Description">
			<g id="shape58-264" transform="translate(765,-639)">
				
				<desc>90.50 Record financial transactions</desc>
				<rect x="0" y="1125" width="99" height="63" class="st3" />
				<text x="17.28" y="1145.7" class="st4">90.50 Record <tspan x="28.95" dy="1.2em" class="st7">financial </tspan>
					<tspan x="19.56" dy="1.2em" class="st7">transactions</tspan>
				</text>
			</g>
		</a>
		<g id="shape59-269" transform="translate(805.5,-729)">
			
			<path d="M9 1188 L9 1205.19" class="st9" />
		</g>
		<g id="shape60-274" transform="translate(522,-792)">
			
			<path d="M0 1188 L0 1219.5 L233.19 1219.5" class="st9" />
		</g>
		<g id="shape61-279" transform="translate(675,-792)">
			
			<path d="M0 1188 L0 1219.5 L80.19 1219.5" class="st9" />
		</g>
		<g id="shape62-284" transform="translate(432,-526.5)">
			
			<path d="M0 1188 L17.66 1188 L17.66 954 L323.19 954" class="st9" />
		</g>
		<g id="shape63-289" transform="translate(814.5,-639)">
			
			<path d="M0 1188 L0 1386 L-86.94 1386" class="st9" />
		</g>
	</g>
</svg>
