<?xml version="1.0"?>
<svg xmlns="http://www.w3.org/2000/svg" xmlns:xlink="http://www.w3.org/1999/xlink" xmlns:ev="http://www.w3.org/2001/xml-events"    viewBox="40 31 365 662"    xml:space="preserve" color-interpolation-filters="sRGB" class="st10" width="913" height="1655">
<rect x="0" y="0" width="913" height="1655" fill="#ffffff" />
	<style type="text/css"><![CDATA[
		.st1 {fill:#ffffff;stroke:#0078d4;stroke-linecap:round;stroke-linejoin:round;stroke-width:0.24}
		.st2 {fill:#000000;font-family:Calibri;font-size:1.00001em}
		.st3 {fill:#0078d4;stroke:none;stroke-linecap:round;stroke-linejoin:round;stroke-width:0.24}
		.st4 {fill:#ffffff;font-family:Calibri;font-size:1.00001em}
		.st5 {font-size:1em}
		.st6 {fill:#ffffff}
		.st7 {stroke:#0078d4;stroke-linecap:round;stroke-linejoin:round;stroke-width:0.24}
		.st8 {marker-end:url(#mrkr13-88);stroke:#0078d4;stroke-linecap:round;stroke-linejoin:round;stroke-width:0.75}
		.st9 {fill:#0078d4;fill-opacity:1;stroke:#0078d4;stroke-opacity:1;stroke-width:0.22935779816514}
		.st10 {fill:none;fill-rule:evenodd;font-size:12px;overflow:visible;stroke-linecap:square;stroke-miterlimit:3}
	]]></style><style> a { pointer-events: none; } </style><style>a.rules_svg_anchor g:hover { opacity:0.8; cursor:pointer; }</style>
	<defs id="Markers">
		<g id="lend13">
			<path d="M 3 1 L 0 0 L 3 -1 L 3 1 " style="stroke:none" />
		</g>
		<marker id="mrkr13-88" class="st9" refX="-13.08" orient="auto" markerUnits="strokeWidth" overflow="visible">
			<use xlink:href="#lend13" transform="scale(-4.36,-4.36) " />
		</marker>
	</defs>
	<g>
		
		<g id="shape1-1" transform="translate(40.5,-711)">
			
			<desc>Start</desc>
			<path d="M18 792 L67.5 792 A18 18 -180 0 0 67.5 756 L18 756 A18 18 -180 1 0 18 792 Z" class="st1" />
			<text x="31.01" y="777.6" class="st2">Start</text>
		</g>
		<a id="1fc647c9-d66b-483d-ab3f-ccad75575c00" class="rules_svg_anchor rules_svg_shape"   href="/lms/chart?onclick=b3BlbkNoYXJ0Q29udGV4dE1lbnUoZXZlbnQsJ3cxMjVkNTIzNTk2NWMxNzQxM3Y0MDc4JywyMzEzMywgMSwgMSwgdGhpcywgd2luZG93LmZyYW1lRWxlbWVudCk=&amp;navigate=true&amp;details=Description">
			<g id="shape2-4" transform="translate(189,-697.5)">
				
				<desc>90.10 Define accounting policies</desc>
				<rect x="0" y="729" width="126" height="63" class="st3" />
				<text x="3.81" y="756.9" class="st4">90.10 Define accounting <tspan x="44.68" dy="1.2em" class="st5">policies</tspan>
				</text>
			</g>
		</a>
		<a id="3052e8c5-a6d6-4e7a-8337-c96f5a25c350" class="rules_svg_anchor rules_svg_shape"   href="/lms/chart?onclick=b3BlbkNoYXJ0Q29udGV4dE1lbnUoZXZlbnQsJ3cxMjVkNTIzNTk2NWMxNzQxNHY0MDc4JywyMzEzNCwgMSwgMSwgdGhpcywgd2luZG93LmZyYW1lRWxlbWVudCk=&amp;navigate=true&amp;details=Description">
			<g id="shape3-8" transform="translate(99,-589.5)">
				
				<desc>90.10.010 Develop company structure</desc>
				<path d="M0 792 L126 792 L126 729 L0 729 L0 792 Z" class="st6" />
				<path d="M0 792 L126 792 L126 729 L0 729 L0 792" class="st7" />
				<path d="M9 792 L9 729" class="st7" />
				<path d="M117 792 L117 729" class="st7" />
				<text x="17.26" y="756.9" class="st2">90.10.010 Develop <tspan x="16.88" dy="1.2em" class="st5">company structure</tspan>
				</text>
			</g>
		</a>
		<a id="4384d6e6-20fc-4979-8209-f4a4dff7b17d" class="rules_svg_anchor rules_svg_shape"   href="/lms/chart?onclick=b3BlbkNoYXJ0Q29udGV4dE1lbnUoZXZlbnQsJ3cxMjVkNTIzNTk2NWMxNzQxNXY0MDc4JywyMzEzNSwgMSwgMSwgdGhpcywgd2luZG93LmZyYW1lRWxlbWVudCk=&amp;navigate=true&amp;details=Description">
			<g id="shape4-15" transform="translate(279,-589.5)">
				
				<desc>90.10.020 Develop financial period strategy</desc>
				<path d="M0 792 L126 792 L126 729 L0 729 L0 792 Z" class="st6" />
				<path d="M0 792 L126 792 L126 729 L0 729 L0 792" class="st7" />
				<path d="M9 792 L9 729" class="st7" />
				<path d="M117 792 L117 729" class="st7" />
				<text x="17.26" y="749.7" class="st2">90.10.020 Develop <tspan x="25.17" dy="1.2em" class="st5">financial period </tspan>
					<tspan x="43.14" dy="1.2em" class="st5">strategy</tspan>
				</text>
			</g>
		</a>
		<a id="806f195b-d2ea-46dd-8a4b-36c8550667fd" class="rules_svg_anchor rules_svg_shape"   href="/lms/chart?onclick=b3BlbkNoYXJ0Q29udGV4dE1lbnUoZXZlbnQsJ3cxMjVkNTIzNTk2NWMxNzQxN3Y0MDc4JywyMzEzNywgMSwgMSwgdGhpcywgd2luZG93LmZyYW1lRWxlbWVudCk=&amp;navigate=true&amp;details=Description">
			<g id="shape5-23" transform="translate(99,-486)">
				
				<desc>90.10.040 Develop chart of accounts strategy</desc>
				<path d="M0 792 L126 792 L126 729 L0 729 L0 792 Z" class="st6" />
				<path d="M0 792 L126 792 L126 729 L0 729 L0 792" class="st7" />
				<path d="M9 792 L9 729" class="st7" />
				<path d="M117 792 L117 729" class="st7" />
				<text x="17.26" y="749.7" class="st2">90.10.040 Develop <tspan x="20.85" dy="1.2em" class="st5">chart of accounts </tspan>
					<tspan x="43.14" dy="1.2em" class="st5">strategy</tspan>
				</text>
			</g>
		</a>
		<a id="844aa772-34f1-43a4-8382-5b8cade59fc2" class="rules_svg_anchor rules_svg_shape"   href="/lms/chart?onclick=b3BlbkNoYXJ0Q29udGV4dE1lbnUoZXZlbnQsJ3cxMjVkNTIzNTk2NWMxNzQxOHY0MDc4JywyMzEzOSwgMSwgMSwgdGhpcywgd2luZG93LmZyYW1lRWxlbWVudCk=&amp;navigate=true&amp;details=Description">
			<g id="shape6-31" transform="translate(279,-382.5)">
				
				<desc>90.10.050 Develop currency policies</desc>
				<path d="M0 792 L126 792 L126 729 L0 729 L0 792 Z" class="st6" />
				<path d="M0 792 L126 792 L126 729 L0 729 L0 792" class="st7" />
				<path d="M9 792 L9 729" class="st7" />
				<path d="M117 792 L117 729" class="st7" />
				<text x="17.26" y="756.9" class="st2">90.10.050 Develop <tspan x="22.06" dy="1.2em" class="st5">currency policies</tspan>
				</text>
			</g>
		</a>
		<a id="cbecd863-56ee-4c7e-99be-3e63046e6b0e" class="rules_svg_anchor rules_svg_shape"   href="/lms/chart?onclick=b3BlbkNoYXJ0Q29udGV4dE1lbnUoZXZlbnQsJ3cxMjVkNTIzNTk2NWMxNzQxOXY0MDc4JywyMzE0MCwgMSwgMSwgdGhpcywgd2luZG93LmZyYW1lRWxlbWVudCk=&amp;navigate=true&amp;details=Description">
			<g id="shape7-38" transform="translate(279,-279)">
				
				<desc>90.10.060 Define banking policies</desc>
				<path d="M0 792 L126 792 L126 729 L0 729 L0 792 Z" class="st6" />
				<path d="M0 792 L126 792 L126 729 L0 729 L0 792" class="st7" />
				<path d="M9 792 L9 729" class="st7" />
				<path d="M117 792 L117 729" class="st7" />
				<text x="21.3" y="756.9" class="st2">90.10.060 Define <tspan x="24.07" dy="1.2em" class="st5">banking policies</tspan>
				</text>
			</g>
		</a>
		<a id="aed3277b-37fc-4b46-83ac-fc0d53d97598" class="rules_svg_anchor rules_svg_shape"   href="/lms/chart?onclick=b3BlbkNoYXJ0Q29udGV4dE1lbnUoZXZlbnQsJ3cxMjVkNTIzNTk2NWMxNzQyM3Y0MDc4JywyMzE0MiwgMSwgMSwgdGhpcywgd2luZG93LmZyYW1lRWxlbWVudCk=&amp;navigate=true&amp;details=Description">
			<g id="shape8-45" transform="translate(99,-175.5)">
				
				<desc>90.10.100 Develop asset policies</desc>
				<path d="M0 792 L126 792 L126 729 L0 729 L0 792 Z" class="st6" />
				<path d="M0 792 L126 792 L126 729 L0 729 L0 792" class="st7" />
				<path d="M9 792 L9 729" class="st7" />
				<path d="M117 792 L117 729" class="st7" />
				<text x="17.26" y="756.9" class="st2">90.10.100 Develop <tspan x="30.76" dy="1.2em" class="st5">asset policies</tspan>
				</text>
			</g>
		</a>
		<a id="6199f4c1-0996-492a-96f6-263ec88a0587" class="rules_svg_anchor rules_svg_shape"   href="/lms/chart?onclick=b3BlbkNoYXJ0Q29udGV4dE1lbnUoZXZlbnQsJ3cxMjVkNTIzNTk2NWM3OTQ2MnY0MDc4JywyMzEzNiwgMSwgMSwgdGhpcywgd2luZG93LmZyYW1lRWxlbWVudCk=&amp;navigate=true&amp;details=Description">
			<g id="shape9-52" transform="translate(279,-486)">
				
				<desc>90.10.035 Define posting policies</desc>
				<path d="M0 792 L126 792 L126 729 L0 729 L0 792 Z" class="st6" />
				<path d="M0 792 L126 792 L126 729 L0 729 L0 792" class="st7" />
				<path d="M9 792 L9 729" class="st7" />
				<path d="M117 792 L117 729" class="st7" />
				<text x="21.3" y="756.9" class="st2">90.10.035 Define <tspan x="25.3" dy="1.2em" class="st5">posting policies</tspan>
				</text>
			</g>
		</a>
		<a id="69d6a4dd-e2b3-4b82-a33a-30cfbae063f8" class="rules_svg_anchor rules_svg_shape"   href="/lms/chart?onclick=b3BlbkNoYXJ0Q29udGV4dE1lbnUoZXZlbnQsJ3cxMjVkNTIzNTk2NWM3OTQ2M3Y0MDc4JywyMzEzOCwgMSwgMSwgdGhpcywgd2luZG93LmZyYW1lRWxlbWVudCk=&amp;navigate=true&amp;details=Description">
			<g id="shape10-59" transform="translate(99,-382.5)">
				
				<desc>90.10.045 Develop budgeting strategy</desc>
				<path d="M0 792 L126 792 L126 729 L0 729 L0 792 Z" class="st6" />
				<path d="M0 792 L126 792 L126 729 L0 729 L0 792" class="st7" />
				<path d="M9 792 L9 729" class="st7" />
				<path d="M117 792 L117 729" class="st7" />
				<text x="17.26" y="756.9" class="st2">90.10.045 Develop <tspan x="17.16" dy="1.2em" class="st5">budgeting strategy</tspan>
				</text>
			</g>
		</a>
		<a id="e708d657-41ee-4277-9759-9ac3a0074419" class="rules_svg_anchor rules_svg_shape"   href="/lms/chart?onclick=b3BlbkNoYXJ0Q29udGV4dE1lbnUoZXZlbnQsJ3cxMjVkNTIzNTk2NWM1NTMyNHY0MDc4JywyMzE0MywgMSwgMSwgdGhpcywgd2luZG93LmZyYW1lRWxlbWVudCk=&amp;navigate=true&amp;details=Description">
			<g id="shape11-66" transform="translate(279,-175.5)">
				
				<desc>90.10.200 Develop tax strategy</desc>
				<path d="M0 792 L126 792 L126 729 L0 729 L0 792 Z" class="st6" />
				<path d="M0 792 L126 792 L126 729 L0 729 L0 792" class="st7" />
				<path d="M9 792 L9 729" class="st7" />
				<path d="M117 792 L117 729" class="st7" />
				<text x="17.26" y="756.9" class="st2">90.10.200 Develop <tspan x="34.3" dy="1.2em" class="st5">tax strategy</tspan>
				</text>
			</g>
		</a>
		<a id="7b8e33aa-99b1-492a-9864-491f37a54003" class="rules_svg_anchor rules_svg_shape"   href="/lms/chart?onclick=b3BlbkNoYXJ0Q29udGV4dE1lbnUoZXZlbnQsJ3cxMjVkNTIzNTk2NWM1NTMxNHY0MDc4JywyMzE0MSwgMSwgMSwgdGhpcywgd2luZG93LmZyYW1lRWxlbWVudCk=&amp;navigate=true&amp;details=Description">
			<g id="shape13-73" transform="translate(99,-279)">
				
				<desc>90.10.075 Define costing policies</desc>
				<path d="M0 792 L126 792 L126 729 L0 729 L0 792 Z" class="st6" />
				<path d="M0 792 L126 792 L126 729 L0 729 L0 792" class="st7" />
				<path d="M9 792 L9 729" class="st7" />
				<path d="M117 792 L117 729" class="st7" />
				<text x="21.3" y="756.9" class="st2">90.10.075 Define <tspan x="25.92" dy="1.2em" class="st5">costing policies</tspan>
				</text>
			</g>
		</a>
		<g id="shape14-80" transform="translate(299.25,-99)">
			
			<desc>End</desc>
			<path d="M18 792 L67.5 792 A18 18 -180 0 0 67.5 756 L18 756 A18 18 -180 1 0 18 792 Z" class="st1" />
			<text x="33.52" y="777.6" class="st2">End</text>
		</g>
		<g id="shape15-83" transform="translate(252,-697.5)">
			
			<path d="M0 792 L0 809.66 L-90 809.66 L-90 827.19" class="st8" />
		</g>
		<g id="shape16-89" transform="translate(333,-589.5)">
			
			<path d="M9 792 L9 822.69" class="st8" />
		</g>
		<g id="shape17-94" transform="translate(225,-612)">
			
			<path d="M0 783 L44.19 783" class="st8" />
		</g>
		<g id="shape18-99" transform="translate(279,-508.5)">
			
			<path d="M0 783 L-44.19 783" class="st8" />
		</g>
		<g id="shape19-104" transform="translate(153,-486)">
			
			<path d="M9 792 L9 822.69" class="st8" />
		</g>
		<g id="shape20-109" transform="translate(333,-382.5)">
			
			<path d="M9 792 L9 822.69" class="st8" />
		</g>
		<g id="shape21-114" transform="translate(153,-279)">
			
			<path d="M9 792 L9 822.69" class="st8" />
		</g>
		<g id="shape22-119" transform="translate(333,-175.5)">
			
			<path d="M9 792 L9 822.69" class="st8" />
		</g>
		<g id="shape23-124" transform="translate(225,-405)">
			
			<path d="M0 783 L44.19 783" class="st8" />
		</g>
		<g id="shape24-129" transform="translate(279,-301.5)">
			
			<path d="M0 783 L-44.19 783" class="st8" />
		</g>
		<g id="shape25-134" transform="translate(225,-198)">
			
			<path d="M0 783 L44.19 783" class="st8" />
		</g>
		<g id="shape26-139" transform="translate(126,-720)">
			
			<path d="M0 783 L53.19 783" class="st8" />
		</g>
	</g>
</svg>
