<?xml version="1.0"?>
<svg xmlns="http://www.w3.org/2000/svg" xmlns:xlink="http://www.w3.org/1999/xlink" xmlns:ev="http://www.w3.org/2001/xml-events"    viewBox="65 22 655 1058"    xml:space="preserve" color-interpolation-filters="sRGB" class="st11" width="1638" height="2645">
<rect x="0" y="0" width="1638" height="2645" fill="#ffffff" />
	<style type="text/css"><![CDATA[
		.st1 {fill:#ffffff;stroke:#0078d4;stroke-linecap:round;stroke-linejoin:round;stroke-width:0.24}
		.st2 {fill:#000000;font-family:Calibri;font-size:1.00001em}
		.st3 {fill:#a0a0a0;stroke:none;stroke-linecap:round;stroke-linejoin:round;stroke-width:0.24}
		.st4 {font-size:1em}
		.st5 {fill:#0078d4;stroke:none;stroke-linecap:round;stroke-linejoin:round;stroke-width:0.24}
		.st6 {fill:#ffffff;font-family:Calibri;font-size:1.00001em}
		.st7 {fill:#ffffff}
		.st8 {stroke:#0078d4;stroke-linecap:round;stroke-linejoin:round;stroke-width:0.24}
		.st9 {marker-end:url(#mrkr13-135);stroke:#0078d4;stroke-linecap:round;stroke-linejoin:round;stroke-width:0.75}
		.st10 {fill:#0078d4;fill-opacity:1;stroke:#0078d4;stroke-opacity:1;stroke-width:0.22935779816514}
		.st11 {fill:none;fill-rule:evenodd;font-size:12px;overflow:visible;stroke-linecap:square;stroke-miterlimit:3}
	]]></style><style> a { pointer-events: none; } </style><style>a.rules_svg_anchor g:hover { opacity:0.8; cursor:pointer; }</style>
	<defs id="Markers">
		<g id="lend13">
			<path d="M 3 1 L 0 0 L 3 -1 L 3 1 " style="stroke:none" />
		</g>
		<marker id="mrkr13-135" class="st10" refX="-13.08" orient="auto" markerUnits="strokeWidth" overflow="visible">
			<use xlink:href="#lend13" transform="scale(-4.36,-4.36) " />
		</marker>
	</defs>
	<g>
		
		<g id="shape1-1" transform="translate(65.25,-1062)">
			
			<desc>Start</desc>
			<path d="M18 1134 L60.75 1134 A18 18 -180 0 0 60.75 1098 L18 1098 A18 18 -180 1 0 18 1134 Z" class="st1" />
			<text x="27.63" y="1119.6" class="st2">Start</text>
		</g>
		<a id="efcf054e-3f6b-4d72-9679-f41fce016ad4" class="rules_svg_anchor rules_svg_shape"   href="/lms/chart?onclick=b3BlbkNoYXJ0Q29udGV4dE1lbnUoZXZlbnQsJ3cxMjVkNTIzNTk2NWMxNjk5MnY0MDc4JywyMjc4OSwgMSwgMSwgdGhpcywgd2luZG93LmZyYW1lRWxlbWVudCk=&amp;navigate=true&amp;details=Description">
			<g id="shape2-4" transform="translate(65.25,-972)">
				
				<desc>50 Forecast to plan</desc>
				<rect x="0" y="1071" width="78.75" height="63" class="st3" />
				<text x="4.64" y="1098.9" class="st2">50 Forecast to <tspan x="28.82" dy="1.2em" class="st4">plan</tspan>
				</text>
			</g>
		</a>
		<a id="a5d82dec-29e1-4cf6-8dc2-ee3d92834548" class="rules_svg_anchor rules_svg_shape"   href="/lms/chart?onclick=b3BlbkNoYXJ0Q29udGV4dE1lbnUoZXZlbnQsJ3cxMjVkNTIzNTk2NWMxNzAyMHY0MDc4JywyMjgzOSwgMSwgMSwgdGhpcywgd2luZG93LmZyYW1lRWxlbWVudCk=&amp;navigate=true&amp;details=Description">
			<g id="shape3-8" transform="translate(65.25,-882)">
				
				<desc>55 Hire to retire</desc>
				<rect x="0" y="1071" width="78.75" height="63" class="st3" />
				<text x="15.21" y="1098.9" class="st2">55 Hire to <tspan x="25.83" dy="1.2em" class="st4">retire</tspan>
				</text>
			</g>
		</a>
		<a id="66db63fc-cd00-49a1-b817-4ed1a84bb16e" class="rules_svg_anchor rules_svg_shape"   href="/lms/chart?onclick=b3BlbkNoYXJ0Q29udGV4dE1lbnUoZXZlbnQsJ3cxMjVkNTIzNTk2NWMxNjgwMnY0MDc4JywyMjYyMCwgMSwgNCwgdGhpcywgd2luZG93LmZyYW1lRWxlbWVudCk=&amp;navigate=true&amp;details=Description">
			<g id="shape4-12" transform="translate(65.25,-792)">
				
				<desc>10 Acquire to dispose</desc>
				<rect x="0" y="1071" width="78.75" height="63" class="st3" />
				<text x="6.64" y="1098.9" class="st2">10 Acquire to <tspan x="20.85" dy="1.2em" class="st4">dispose</tspan>
				</text>
			</g>
		</a>
		<a id="07698ee4-8f77-4878-b1f6-4b08881ba567" class="rules_svg_anchor rules_svg_shape"   href="/lms/chart?onclick=b3BlbkNoYXJ0Q29udGV4dE1lbnUoZXZlbnQsJ3cxMjVkNTIzNTk2NWMxNzA5M3Y0MDc4JywyMjkwMywgMSwgMSwgdGhpcywgd2luZG93LmZyYW1lRWxlbWVudCk=&amp;navigate=true&amp;details=Description">
			<g id="shape5-16" transform="translate(65.25,-702)">
				
				<desc>60 Inventory to deliver</desc>
				<rect x="0" y="1071" width="78.75" height="63" class="st3" />
				<text x="8.44" y="1098.9" class="st2">60 Inventory <tspan x="16.17" dy="1.2em" class="st4">to deliver</tspan>
				</text>
			</g>
		</a>
		<a id="796758f1-b6da-424b-844e-e00abc45b53f" class="rules_svg_anchor rules_svg_shape"   href="/lms/chart?onclick=b3BlbkNoYXJ0Q29udGV4dE1lbnUoZXZlbnQsJ3cxMjVkNTIzNTk2NWMxNzE1NXY0MDc4JywyMjk1MiwgMSwgMSwgdGhpcywgd2luZG93LmZyYW1lRWxlbWVudCk=&amp;navigate=true&amp;details=Description">
			<g id="shape6-20" transform="translate(65.25,-612)">
				
				<desc>65 Order to cash</desc>
				<rect x="0" y="1071" width="78.75" height="63" class="st3" />
				<text x="11.11" y="1098.9" class="st2">65 Order to <tspan x="28.46" dy="1.2em" class="st4">cash</tspan>
				</text>
			</g>
		</a>
		<a id="577c9cd1-a29a-44a1-b52c-3edfda1fc5fe" class="rules_svg_anchor rules_svg_shape"   href="/lms/chart?onclick=b3BlbkNoYXJ0Q29udGV4dE1lbnUoZXZlbnQsJ3cxMjVkNTIzNTk2NWMxNzIzMHY0MDc4JywyMjk5OCwgMSwgMSwgdGhpcywgd2luZG93LmZyYW1lRWxlbWVudCk=&amp;navigate=true&amp;details=Description">
			<g id="shape7-24" transform="translate(65.25,-522)">
				
				<desc>70 Plan to produce</desc>
				<rect x="0" y="1071" width="78.75" height="63" class="st3" />
				<text x="14.9" y="1098.9" class="st2">70 Plan to <tspan x="19.14" dy="1.2em" class="st4">produce</tspan>
				</text>
			</g>
		</a>
		<a id="8ffaa1f3-40b3-437e-a983-e5bbf1f4b67a" class="rules_svg_anchor rules_svg_shape"   href="/lms/chart?onclick=b3BlbkNoYXJ0Q29udGV4dE1lbnUoZXZlbnQsJ3cxMjVkNTIzNTk2NWMxNzI2OXY0MDc4JywyMzAzNCwgMSwgMSwgdGhpcywgd2luZG93LmZyYW1lRWxlbWVudCk=&amp;navigate=true&amp;details=Description">
			<g id="shape8-28" transform="translate(65.25,-432)">
				
				<desc>75 Source to pay</desc>
				<rect x="0" y="1071" width="78.75" height="63" class="st3" />
				<text x="8.72" y="1098.9" class="st2">75 Source to <tspan x="30.63" dy="1.2em" class="st4">pay</tspan>
				</text>
			</g>
		</a>
		<a id="4cea1340-5d37-47e8-a504-1c69f72bf93f" class="rules_svg_anchor rules_svg_shape"   href="/lms/chart?onclick=b3BlbkNoYXJ0Q29udGV4dE1lbnUoZXZlbnQsJ3cxMjVkNTIzNTk2NWMxNzMxOXY0MDc4JywyMzA4MywgMSwgMSwgdGhpcywgd2luZG93LmZyYW1lRWxlbWVudCk=&amp;navigate=true&amp;details=Description">
			<g id="shape9-32" transform="translate(65.25,-342)">
				
				<desc>80 Project to profit</desc>
				<rect x="0" y="1071" width="78.75" height="63" class="st3" />
				<text x="8.08" y="1098.9" class="st2">80 Project to <tspan x="25.75" dy="1.2em" class="st4">profit</tspan>
				</text>
			</g>
		</a>
		<a id="4c6e6e97-15ad-4050-86fa-f29dc105edde" class="rules_svg_anchor rules_svg_shape"   href="/lms/chart?onclick=b3BlbkNoYXJ0Q29udGV4dE1lbnUoZXZlbnQsJ3cxMjVkNTIzNTk2NWMxNzQ5NnY0MDc4JywyMzE4NywgMSwgMSwgdGhpcywgd2luZG93LmZyYW1lRWxlbWVudCk=&amp;navigate=true&amp;details=Description">
			<g id="shape10-36" transform="translate(65.25,-247.5)">
				
				<desc>95 Service to deliver</desc>
				<rect x="0" y="1071" width="78.75" height="63" class="st3" />
				<text x="7.96" y="1098.9" class="st2">95 Service to <tspan x="22.7" dy="1.2em" class="st4">deliver</tspan>
				</text>
			</g>
		</a>
		<a id="d761b71f-e9e7-454a-89c9-363744760fe5" class="rules_svg_anchor rules_svg_shape"   href="/lms/chart?onclick=b3BlbkNoYXJ0Q29udGV4dE1lbnUoZXZlbnQsJ3cxMjVkNTIzNTk2NWMxNjg1N3Y0MDc4JywyMjY3MiwgMSwgMSwgdGhpcywgd2luZG93LmZyYW1lRWxlbWVudCk=&amp;navigate=true&amp;details=Description">
			<g id="shape11-40" transform="translate(65.25,-157.5)">
				
				<desc>20 Case to resolution</desc>
				<rect x="0" y="1071" width="78.75" height="63" class="st3" />
				<text x="14" y="1098.9" class="st2">20 Case to <tspan x="14.55" dy="1.2em" class="st4">resolution</tspan>
				</text>
			</g>
		</a>
		<a id="55c0dbb7-4225-434d-97de-45e95d78cf37" class="rules_svg_anchor rules_svg_shape"   href="/lms/chart?onclick=b3BlbkNoYXJ0Q29udGV4dE1lbnUoZXZlbnQsJ3cxMjVkNTIzNTk2NWMxNzQxMnY0MDc4JywyMzEzMiwgMSwgMSwgdGhpcywgd2luZG93LmZyYW1lRWxlbWVudCk=&amp;navigate=true&amp;details=Description">
			<g id="shape12-44" transform="translate(270,-1048.5)">
				
				<desc>90 Record to report</desc>
				<rect x="0" y="1071" width="99" height="63" class="st5" />
				<text x="18.34" y="1098.9" class="st6">90 Record to <tspan x="34" dy="1.2em" class="st4">report</tspan>
				</text>
			</g>
		</a>
		<a id="4de7c6ef-1a4c-41ce-b78d-19917d734611" class="rules_svg_anchor rules_svg_shape"   href="/lms/chart?onclick=b3BlbkNoYXJ0Q29udGV4dE1lbnUoZXZlbnQsJ3cxMjVkNTIzNTk2NWMxNzQxM3Y0MDc4JywyMzEzMywgMSwgMSwgdGhpcywgd2luZG93LmZyYW1lRWxlbWVudCk=&amp;navigate=true&amp;details=Description">
			<g id="shape13-48" transform="translate(270,-936)">
				
				<desc>90.10 Define accounting policies</desc>
				<path d="M0 1134 L99 1134 L99 1071 L0 1071 L0 1134 Z" class="st7" />
				<path d="M0 1134 L99 1134 L99 1071 L0 1071 L0 1134" class="st8" />
				<path d="M9 1134 L9 1071" class="st8" />
				<path d="M90 1134 L90 1071" class="st8" />
				<text x="18.44" y="1091.7" class="st2">90.10 Define <tspan x="22.72" dy="1.2em" class="st4">accounting </tspan>
					<tspan x="31.18" dy="1.2em" class="st4">policies</tspan>
				</text>
			</g>
		</a>
		<a id="9cd59171-70c0-46f2-b5d8-a4bcb1bfeaa3" class="rules_svg_anchor rules_svg_shape"   href="/lms/chart?onclick=b3BlbkNoYXJ0Q29udGV4dE1lbnUoZXZlbnQsJ3cxMjVkNTIzNTk2NWMxNjg1N3Y0MDc4JywyMjY3MiwgMSwgMSwgdGhpcywgd2luZG93LmZyYW1lRWxlbWVudCk=&amp;navigate=true&amp;details=Description">
			<g id="shape15-56" transform="translate(641.25,-1012.5)">
				
				<desc>20 Case to resolution</desc>
				<rect x="0" y="1071" width="78.75" height="63" class="st3" />
				<text x="14" y="1098.9" class="st2">20 Case to <tspan x="14.55" dy="1.2em" class="st4">resolution</tspan>
				</text>
			</g>
		</a>
		<a id="3779c466-fb1e-49bf-a932-39692245c3a6" class="rules_svg_anchor rules_svg_shape"   href="/lms/chart?onclick=b3BlbkNoYXJ0Q29udGV4dE1lbnUoZXZlbnQsJ3cxMjVkNTIzNTk2NWMxNjgwMnY0MDc4JywyMjYyMCwgMSwgNCwgdGhpcywgd2luZG93LmZyYW1lRWxlbWVudCk=&amp;navigate=true&amp;details=Description">
			<g id="shape16-60" transform="translate(641.25,-927)">
				
				<desc>10 Acquire to dispose</desc>
				<rect x="0" y="1071" width="78.75" height="63" class="st3" />
				<text x="6.64" y="1098.9" class="st2">10 Acquire to <tspan x="20.85" dy="1.2em" class="st4">dispose</tspan>
				</text>
			</g>
		</a>
		<a id="6c80d429-e9a7-4a2a-992a-a39df735ada1" class="rules_svg_anchor rules_svg_shape"   href="/lms/chart?onclick=b3BlbkNoYXJ0Q29udGV4dE1lbnUoZXZlbnQsJ3cxMjVkNTIzNTk2NWMxNzQ5NnY0MDc4JywyMzE4NywgMSwgMSwgdGhpcywgd2luZG93LmZyYW1lRWxlbWVudCk=&amp;navigate=true&amp;details=Description">
			<g id="shape17-64" transform="translate(641.25,-837)">
				
				<desc>95 Service to deliver</desc>
				<rect x="0" y="1071" width="78.75" height="63" class="st3" />
				<text x="7.96" y="1098.9" class="st2">95 Service to <tspan x="22.7" dy="1.2em" class="st4">deliver</tspan>
				</text>
			</g>
		</a>
		<a id="a653651a-5f3b-4490-a4b6-821aabde2aab" class="rules_svg_anchor rules_svg_shape"   href="/lms/chart?onclick=b3BlbkNoYXJ0Q29udGV4dE1lbnUoZXZlbnQsJ3cxMjVkNTIzNTk2NWMxNzA5M3Y0MDc4JywyMjkwMywgMSwgMSwgdGhpcywgd2luZG93LmZyYW1lRWxlbWVudCk=&amp;navigate=true&amp;details=Description">
			<g id="shape18-68" transform="translate(641.25,-747)">
				
				<desc>60 Inventory to deliver</desc>
				<rect x="0" y="1071" width="78.75" height="63" class="st3" />
				<text x="8.44" y="1098.9" class="st2">60 Inventory <tspan x="16.17" dy="1.2em" class="st4">to deliver</tspan>
				</text>
			</g>
		</a>
		<a id="71943584-e37b-4ad7-ac63-72784dede44c" class="rules_svg_anchor rules_svg_shape"   href="/lms/chart?onclick=b3BlbkNoYXJ0Q29udGV4dE1lbnUoZXZlbnQsJ3cxMjVkNTIzNTk2NWMxNzE1NXY0MDc4JywyMjk1MiwgMSwgMSwgdGhpcywgd2luZG93LmZyYW1lRWxlbWVudCk=&amp;navigate=true&amp;details=Description">
			<g id="shape19-72" transform="translate(641.25,-657)">
				
				<desc>65 Order to cash</desc>
				<rect x="0" y="1071" width="78.75" height="63" class="st3" />
				<text x="11.11" y="1098.9" class="st2">65 Order to <tspan x="28.46" dy="1.2em" class="st4">cash</tspan>
				</text>
			</g>
		</a>
		<a id="bb6613a8-240b-4c0d-b121-659927de6bde" class="rules_svg_anchor rules_svg_shape"   href="/lms/chart?onclick=b3BlbkNoYXJ0Q29udGV4dE1lbnUoZXZlbnQsJ3cxMjVkNTIzNTk2NWMxNzIzMHY0MDc4JywyMjk5OCwgMSwgMSwgdGhpcywgd2luZG93LmZyYW1lRWxlbWVudCk=&amp;navigate=true&amp;details=Description">
			<g id="shape20-76" transform="translate(641.25,-567)">
				
				<desc>70 Plan to produce</desc>
				<rect x="0" y="1071" width="78.75" height="63" class="st3" />
				<text x="14.9" y="1098.9" class="st2">70 Plan to <tspan x="19.14" dy="1.2em" class="st4">produce</tspan>
				</text>
			</g>
		</a>
		<a id="735b360b-051b-4a81-860c-b953b688192c" class="rules_svg_anchor rules_svg_shape"   href="/lms/chart?onclick=b3BlbkNoYXJ0Q29udGV4dE1lbnUoZXZlbnQsJ3cxMjVkNTIzNTk2NWMxNzI2OXY0MDc4JywyMzAzNCwgMSwgMSwgdGhpcywgd2luZG93LmZyYW1lRWxlbWVudCk=&amp;navigate=true&amp;details=Description">
			<g id="shape21-80" transform="translate(641.25,-481.5)">
				
				<desc>75 Source to pay</desc>
				<rect x="0" y="1071" width="78.75" height="63" class="st3" />
				<text x="8.72" y="1098.9" class="st2">75 Source to <tspan x="30.63" dy="1.2em" class="st4">pay</tspan>
				</text>
			</g>
		</a>
		<a id="ced769bc-d925-4e6b-bd20-6bdb703009a0" class="rules_svg_anchor rules_svg_shape"   href="/lms/chart?onclick=b3BlbkNoYXJ0Q29udGV4dE1lbnUoZXZlbnQsJ3cxMjVkNTIzNTk2NWMxNzMxOXY0MDc4JywyMzA4MywgMSwgMSwgdGhpcywgd2luZG93LmZyYW1lRWxlbWVudCk=&amp;navigate=true&amp;details=Description">
			<g id="shape22-84" transform="translate(641.25,-391.5)">
				
				<desc>80 Project to profit</desc>
				<rect x="0" y="1071" width="78.75" height="63" class="st3" />
				<text x="8.08" y="1098.9" class="st2">80 Project to <tspan x="25.75" dy="1.2em" class="st4">profit</tspan>
				</text>
			</g>
		</a>
		<a id="c35a4b5e-e577-4411-aacb-7373c2879b84" class="rules_svg_anchor rules_svg_shape"   href="/lms/chart?onclick=b3BlbkNoYXJ0Q29udGV4dE1lbnUoZXZlbnQsJ3cxMjVkNTIzNTk2NWMxNjk5MnY0MDc4JywyMjc4OSwgMSwgMSwgdGhpcywgd2luZG93LmZyYW1lRWxlbWVudCk=&amp;navigate=true&amp;details=Description">
			<g id="shape23-88" transform="translate(641.25,-301.5)">
				
				<desc>50 Forecast to plan</desc>
				<rect x="0" y="1071" width="78.75" height="63" class="st3" />
				<text x="4.64" y="1098.9" class="st2">50 Forecast to <tspan x="28.82" dy="1.2em" class="st4">plan</tspan>
				</text>
			</g>
		</a>
		<a id="c317f67c-da5e-446c-ab2d-08b53c16835f" class="rules_svg_anchor rules_svg_shape"   href="/lms/chart?onclick=b3BlbkNoYXJ0Q29udGV4dE1lbnUoZXZlbnQsJ3cxMjVkNTIzNTk2NWMxNzAyMHY0MDc4JywyMjgzOSwgMSwgMSwgdGhpcywgd2luZG93LmZyYW1lRWxlbWVudCk=&amp;navigate=true&amp;details=Description">
			<g id="shape24-92" transform="translate(641.25,-211.5)">
				
				<desc>55 Hire to retire</desc>
				<rect x="0" y="1071" width="78.75" height="63" class="st3" />
				<text x="15.21" y="1098.9" class="st2">55 Hire to <tspan x="25.83" dy="1.2em" class="st4">retire</tspan>
				</text>
			</g>
		</a>
		<a id="496d452f-5a1a-4efc-88ae-584ea0e85cbc" class="rules_svg_anchor rules_svg_shape"   href="/lms/chart?onclick=b3BlbkNoYXJ0Q29udGV4dE1lbnUoZXZlbnQsJ3cxMjVkNTIzNTk2NWMxNzQzOHY0MDc4JywyMzE1MSwgMSwgMSwgdGhpcywgd2luZG93LmZyYW1lRWxlbWVudCk=&amp;navigate=true&amp;details=Description">
			<g id="shape25-96" transform="translate(270,-720)">
				
				<desc>90.30 Manage budgets</desc>
				<path d="M0 1134 L99 1134 L99 1071 L0 1071 L0 1134 Z" class="st7" />
				<path d="M0 1134 L99 1134 L99 1071 L0 1071 L0 1134" class="st8" />
				<path d="M9 1134 L9 1071" class="st8" />
				<path d="M90 1134 L90 1071" class="st8" />
				<text x="14.62" y="1098.9" class="st2">90.30 Manage <tspan x="29.88" dy="1.2em" class="st4">budgets</tspan>
				</text>
			</g>
		</a>
		<a id="b2fc82dd-6b6f-4cfd-a9a0-3d295c5fb0f8" class="rules_svg_anchor rules_svg_shape"   href="/lms/chart?onclick=b3BlbkNoYXJ0Q29udGV4dE1lbnUoZXZlbnQsJ3cxMjVkNTIzNTk2NWMxNzQ1OXY0MDc4JywyMzE2MCwgMSwgMSwgdGhpcywgd2luZG93LmZyYW1lRWxlbWVudCk=&amp;navigate=true&amp;details=Description">
			<g id="shape27-103" transform="translate(270,-625.5)">
				
				<desc>90.50 Record financial transactions</desc>
				<path d="M0 1134 L99 1134 L99 1071 L0 1071 L0 1134 Z" class="st7" />
				<path d="M0 1134 L99 1134 L99 1071 L0 1071 L0 1134" class="st8" />
				<path d="M9 1134 L9 1071" class="st8" />
				<path d="M90 1134 L90 1071" class="st8" />
				<text x="17.28" y="1091.7" class="st2">90.50 Record <tspan x="28.95" dy="1.2em" class="st4">financial </tspan>
					<tspan x="19.56" dy="1.2em" class="st4">transactions</tspan>
				</text>
			</g>
		</a>
		<a id="c72cab8f-a83d-49d9-9d12-0016a32bdec6" class="rules_svg_anchor rules_svg_shape"   href="/lms/chart?onclick=b3BlbkNoYXJ0Q29udGV4dE1lbnUoZXZlbnQsJ3cxMjVkNTIzNTk2NWMxNzQ2OXY0MDc4JywyMzE3MSwgMSwgMSwgdGhpcywgd2luZG93LmZyYW1lRWxlbWVudCk=&amp;navigate=true&amp;details=Description">
			<g id="shape28-111" transform="translate(270,-522)">
				
				<desc>90.60 Close financial periods</desc>
				<path d="M0 1134 L99 1134 L99 1071 L0 1071 L0 1134 Z" class="st7" />
				<path d="M0 1134 L99 1134 L99 1071 L0 1071 L0 1134" class="st8" />
				<path d="M9 1134 L9 1071" class="st8" />
				<path d="M90 1134 L90 1071" class="st8" />
				<text x="21.39" y="1091.7" class="st2">90.60 Close <tspan x="28.95" dy="1.2em" class="st4">financial </tspan>
					<tspan x="31.23" dy="1.2em" class="st4">periods</tspan>
				</text>
			</g>
		</a>
		<a id="33e88362-91fc-407f-b23e-71312a171954" class="rules_svg_anchor rules_svg_shape"   href="/lms/chart?onclick=b3BlbkNoYXJ0Q29udGV4dE1lbnUoZXZlbnQsJ3cxMjVkNTIzNTk2NWMxNzQ4M3Y0MDc4JywyMzE3OSwgMSwgMSwgdGhpcywgd2luZG93LmZyYW1lRWxlbWVudCk=&amp;navigate=true&amp;details=Description">
			<g id="shape29-119" transform="translate(270,-391.5)">
				
				<desc>90.70 Analyze financial performance</desc>
				<path d="M0 1134 L99 1134 L99 1071 L0 1071 L0 1134 Z" class="st7" />
				<path d="M0 1134 L99 1134 L99 1071 L0 1071 L0 1134" class="st8" />
				<path d="M9 1134 L9 1071" class="st8" />
				<path d="M90 1134 L90 1071" class="st8" />
				<text x="15.52" y="1091.7" class="st2">90.70 Analyze <tspan x="28.95" dy="1.2em" class="st4">financial </tspan>
					<tspan x="17.84" dy="1.2em" class="st4">performance</tspan>
				</text>
			</g>
		</a>
		<g id="shape31-127" transform="translate(641.25,-126)">
			
			<desc>End</desc>
			<path d="M18 1134 L60.75 1134 A18 18 -180 0 0 60.75 1098 L18 1098 A18 18 -180 1 0 18 1134 Z" class="st1" />
			<text x="30.14" y="1119.6" class="st2">End</text>
		</g>
		<g id="shape32-130" transform="translate(144,-1071)">
			
			<path d="M0 1125 L116.19 1125" class="st9" />
		</g>
		<g id="shape33-136" transform="translate(310.5,-1048.5)">
			
			<path d="M9 1134 L9 1173.69" class="st9" />
		</g>
		<g id="shape36-141" transform="translate(310.5,-936)">
			
			<path d="M9 1134 L9 1160.19" class="st9" />
		</g>
		<g id="shape37-146" transform="translate(310.5,-837)">
			
			<path d="M9 1134 L9 1178.19" class="st9" />
		</g>
		<g id="shape38-151" transform="translate(310.5,-720)">
			
			<path d="M9 1134 L9 1155.69" class="st9" />
		</g>
		<g id="shape39-156" transform="translate(310.5,-625.5)">
			
			<path d="M9 1134 L9 1164.69" class="st9" />
		</g>
		<g id="shape40-161" transform="translate(310.5,-522)">
			
			<path d="M9 1134 L9 1191.69" class="st9" />
		</g>
		<g id="shape41-166" transform="translate(319.5,-391.5)">
			
			<path d="M0 1134 L0 1381.5 L311.94 1381.5" class="st9" />
		</g>
		<g id="shape42-171" transform="translate(144,-1003.5)">
			
			<path d="M0 1134 L26.66 1134 L26.66 1386 L116.19 1386" class="st9" />
		</g>
		<g id="shape43-176" transform="translate(144,-913.5)">
			
			<path d="M0 1134 L26.66 1134 L26.66 1296 L116.19 1296" class="st9" />
		</g>
		<g id="shape44-181" transform="translate(144,-733.5)">
			
			<path d="M0 1134 L26.66 1134 L26.66 1210.5 L116.19 1210.5" class="st9" />
		</g>
		<g id="shape45-186" transform="translate(144,-823.5)">
			
			<path d="M0 1134 L26.66 1134 L26.66 1300.5 L116.19 1300.5" class="st9" />
		</g>
		<g id="shape46-191" transform="translate(144,-553.5)">
			
			<path d="M0 1134 L27 1134 L27 1030.5 L116.19 1030.5" class="st9" />
		</g>
		<g id="shape47-196" transform="translate(144,-463.5)">
			
			<path d="M0 1134 L27 1134 L27 940.5 L116.19 940.5" class="st9" />
		</g>
		<g id="shape48-201" transform="translate(144,-373.5)">
			
			<path d="M0 1134 L27 1134 L27 850.5 L116.19 850.5" class="st9" />
		</g>
		<g id="shape49-206" transform="translate(144,-279)">
			
			<path d="M0 1134 L27 1134 L27 756 L116.19 756" class="st9" />
		</g>
		<g id="shape50-211" transform="translate(144,-189)">
			
			<path d="M0 1134 L90 1134 L90 769.5 L116.19 769.5" class="st9" />
		</g>
		<g id="shape51-216" transform="translate(144,-279)">
			
			<path d="M0 1134 L27 1134 L27 661.5 L116.19 661.5" class="st9" />
		</g>
		<g id="shape52-221" transform="translate(144,-279)">
			
			<path d="M0 1134 L27 1134 L27 445.5 L116.19 445.5" class="st9" />
		</g>
		<g id="shape53-226" transform="translate(144,-373.5)">
			
			<path d="M0 1134 L27 1134 L27 756 L116.19 756" class="st9" />
		</g>
		<g id="shape54-231" transform="translate(144,-733.5)">
			
			<path d="M0 1134 L26.66 1134 L26.66 900 L116.19 900" class="st9" />
		</g>
		<g id="shape55-236" transform="translate(144,-641.25)">
			
			<path d="M0 1131.75 L27 1131.75 L27 1118.25 L116.19 1118.25" class="st9" />
		</g>
		<g id="shape56-241" transform="translate(144,-643.5)">
			
			<path d="M0 1134 L26.66 1134 L26.66 1026 L116.19 1026" class="st9" />
		</g>
		<g id="shape58-246" transform="translate(369,-553.5)">
			
			<path d="M0 1134 L25.87 1134 L25.87 999 L262.44 999" class="st9" />
		</g>
		<g id="shape59-251" transform="translate(369,-553.5)">
			
			<path d="M0 1134 L25.88 1134 L25.88 1264.5 L262.44 1264.5" class="st9" />
		</g>
		<g id="shape60-256" transform="translate(369,-553.5)">
			
			<path d="M0 1134 L25.87 1134 L25.87 909 L262.44 909" class="st9" />
		</g>
		<g id="shape61-261" transform="translate(369,-553.5)">
			
			<path d="M0 1134 L25.75 1134 L25.75 1174.5 L262.44 1174.5" class="st9" />
		</g>
		<g id="shape62-266" transform="translate(369,-553.5)">
			
			<path d="M0 1134 L25.87 1134 L25.87 1089 L262.44 1089" class="st9" />
		</g>
		<g id="shape63-271" transform="translate(369,-423)">
			
			<path d="M0 1134 L27 1134 L27 1314 L262.44 1314" class="st9" />
		</g>
		<g id="shape64-276" transform="translate(369,-423)">
			
			<path d="M0 1134 L27 1134 L27 1224 L262.44 1224" class="st9" />
		</g>
		<g id="shape65-281" transform="translate(369,-432)">
			
			<path d="M0 1143 L262.44 1143" class="st9" />
		</g>
		<g id="shape66-286" transform="translate(369,-423)">
			
			<path d="M0 1134 L25.88 1134 L25.88 1044 L262.44 1044" class="st9" />
		</g>
		<g id="shape67-291" transform="translate(369,-423)">
			
			<path d="M0 1134 L25.75 1134 L25.75 958.5 L262.44 958.5" class="st9" />
		</g>
		<g id="shape68-296" transform="translate(369,-423)">
			
			<path d="M0 1134 L25.88 1134 L25.88 868.5 L262.44 868.5" class="st9" />
		</g>
		<a id="a15a5da8-e322-41f4-813e-324bdd09e265" class="rules_svg_anchor rules_svg_shape"   href="/lms/chart?onclick=b3BlbkNoYXJ0Q29udGV4dE1lbnUoZXZlbnQsJ3cxMjVkNTIzNTk2NWMzMDY3MnY0MDc4JywyMzI2NCwgMSwgMiwgdGhpcywgd2luZG93LmZyYW1lRWxlbWVudCk=&amp;navigate=true&amp;details=Description">
			<g id="shape71-301" transform="translate(72,-54)">
				
				<desc>90 Record to Report Metro Map</desc>
				<path d="M18 1134 L630 1134 A18 18 -180 0 0 630 1098 L18 1098 A18 18 -180 1 0 18 1134 Z" class="st1" />
				<text x="245.57" y="1119.6" class="st2">90 Record to Report Metro Map</text>
			</g>
		</a>
		<a id="5d1cca96-40c0-43c9-824b-354be5b2d92e" class="rules_svg_anchor rules_svg_shape"   href="/lms/chart?onclick=b3BlbkNoYXJ0Q29udGV4dE1lbnUoZXZlbnQsJ3cxMjVkNTIzNTk2NWM1NTM0OXY0MDc4JywyMzE0NCwgMSwgMSwgdGhpcywgd2luZG93LmZyYW1lRWxlbWVudCk=&amp;navigate=true&amp;details=Description">
			<g id="shape72-304" transform="translate(270,-837)">
				
				<desc>90.25 Manage cash</desc>
				<path d="M0 1134 L99 1134 L99 1071 L0 1071 L0 1134 Z" class="st7" />
				<path d="M0 1134 L99 1134 L99 1071 L0 1071 L0 1134" class="st8" />
				<path d="M9 1134 L9 1071" class="st8" />
				<path d="M90 1134 L90 1071" class="st8" />
				<text x="14.62" y="1098.9" class="st2">90.25 Manage <tspan x="38.59" dy="1.2em" class="st4">cash</tspan>
				</text>
			</g>
		</a>
	</g>
</svg>
