<?xml version="1.0"?>
<svg xmlns="http://www.w3.org/2000/svg" xmlns:xlink="http://www.w3.org/1999/xlink" xmlns:ev="http://www.w3.org/2001/xml-events"    viewBox="40 31 639 689"    xml:space="preserve" color-interpolation-filters="sRGB" class="st11" width="1598" height="1723">
<rect x="0" y="0" width="1598" height="1723" fill="#ffffff" />
	<style type="text/css"><![CDATA[
		.st1 {fill:#ffffff;stroke:#0078d4;stroke-linecap:round;stroke-linejoin:round;stroke-width:0.24}
		.st2 {fill:#000000;font-family:Calibri;font-size:1.00001em}
		.st3 {fill:#a0a0a0;stroke:none;stroke-linecap:round;stroke-linejoin:round;stroke-width:0.24}
		.st4 {font-size:1em}
		.st5 {fill:#0078d4;stroke:none;stroke-linecap:round;stroke-linejoin:round;stroke-width:0.24}
		.st6 {fill:#ffffff;font-family:Calibri;font-size:1.00001em}
		.st7 {fill:#ffffff}
		.st8 {stroke:#0078d4;stroke-linecap:round;stroke-linejoin:round;stroke-width:0.24}
		.st9 {marker-end:url(#mrkr13-95);stroke:#0078d4;stroke-linecap:round;stroke-linejoin:round;stroke-width:0.75}
		.st10 {fill:#0078d4;fill-opacity:1;stroke:#0078d4;stroke-opacity:1;stroke-width:0.22935779816514}
		.st11 {fill:none;fill-rule:evenodd;font-size:12px;overflow:visible;stroke-linecap:square;stroke-miterlimit:3}
	]]></style><style> a { pointer-events: none; } </style><style>a.rules_svg_anchor g:hover { opacity:0.8; cursor:pointer; }</style>
	<defs id="Markers">
		<g id="lend13">
			<path d="M 3 1 L 0 0 L 3 -1 L 3 1 " style="stroke:none" />
		</g>
		<marker id="mrkr13-95" class="st10" refX="-13.08" orient="auto" markerUnits="strokeWidth" overflow="visible">
			<use xlink:href="#lend13" transform="scale(-4.36,-4.36) " />
		</marker>
	</defs>
	<g>
		
		<g id="shape1-1" transform="translate(40.5,-1107)">
			
			<desc>Start</desc>
			<path d="M18 1188 L67.5 1188 A18 18 -180 0 0 67.5 1152 L18 1152 A18 18 -180 1 0 18 1188 Z" class="st1" />
			<text x="31.01" y="1173.6" class="st2">Start</text>
		</g>
		<a id="efe46885-8346-4240-957e-1693f6c4c0e9" class="rules_svg_anchor rules_svg_shape"   href="/lms/chart?onclick=b3BlbkNoYXJ0Q29udGV4dE1lbnUoZXZlbnQsJ3cxMjVkNTIzNTk2NWMxNzQxM3Y0MDc4JywyMzEzMywgMSwgMSwgdGhpcywgd2luZG93LmZyYW1lRWxlbWVudCk=&amp;navigate=true&amp;details=Description">
			<g id="shape2-4" transform="translate(153,-1093.5)">
				
				<desc>90.10 Define accounting policies</desc>
				<rect x="0" y="1125" width="99" height="63" class="st3" />
				<text x="18.44" y="1152.9" class="st2">90.10 Define <tspan x="3.05" dy="1.2em" class="st4">accounting policies</tspan>
				</text>
			</g>
		</a>
		<a id="dcdaeb48-6197-4f74-bc52-d9991e1323b1" class="rules_svg_anchor rules_svg_shape"   href="/lms/chart?onclick=b3BlbkNoYXJ0Q29udGV4dE1lbnUoZXZlbnQsJ3cxMjVkNTIzNTk2NWMxNzQzOHY0MDc4JywyMzE1MSwgMSwgMSwgdGhpcywgd2luZG93LmZyYW1lRWxlbWVudCk=&amp;navigate=true&amp;details=Description">
			<g id="shape3-8" transform="translate(279,-1093.5)">
				
				<desc>90.30 Manage budgets</desc>
				<rect x="0" y="1125" width="99" height="63" class="st3" />
				<text x="14.62" y="1152.9" class="st2">90.30 Manage <tspan x="29.88" dy="1.2em" class="st4">budgets</tspan>
				</text>
			</g>
		</a>
		<a id="079de693-493d-4e0c-990e-27e5bf6ba3d3" class="rules_svg_anchor rules_svg_shape"   href="/lms/chart?onclick=b3BlbkNoYXJ0Q29udGV4dE1lbnUoZXZlbnQsJ3cxMjVkNTIzNTk2NWMxNzQ1OXY0MDc4JywyMzE2MCwgMSwgMSwgdGhpcywgd2luZG93LmZyYW1lRWxlbWVudCk=&amp;navigate=true&amp;details=Description">
			<g id="shape4-12" transform="translate(409.5,-1093.5)">
				
				<desc>90.50 Record financial transactions</desc>
				<rect x="0" y="1125" width="126" height="63" class="st5" />
				<text x="8.87" y="1152.9" class="st6">90.50 Record financial <tspan x="33.06" dy="1.2em" class="st4">transactions</tspan>
				</text>
			</g>
		</a>
		<a id="483e035e-82bc-42a9-b8da-2fa23ae8b2dd" class="rules_svg_anchor rules_svg_shape"   href="/lms/chart?onclick=b3BlbkNoYXJ0Q29udGV4dE1lbnUoZXZlbnQsJ3cxMjVkNTIzNTk2NWMxNzQ2M3Y0MDc4JywyMzE2MSwgMSwgMSwgdGhpcywgd2luZG93LmZyYW1lRWxlbWVudCk=&amp;navigate=true&amp;details=Description">
			<g id="shape5-16" transform="translate(409.5,-1003.5)">
				
				<desc>90.50.040 Record ledger entries</desc>
				<path d="M0 1188 L126 1188 L126 1125 L0 1125 L0 1188 Z" class="st7" />
				<path d="M0 1188 L126 1188 L126 1125 L0 1125 L0 1188" class="st8" />
				<path d="M9 1188 L9 1125" class="st8" />
				<path d="M117 1188 L117 1125" class="st8" />
				<text x="20.14" y="1152.9" class="st2">90.50.040 Record <tspan x="29.28" dy="1.2em" class="st4">ledger entries</tspan>
				</text>
			</g>
		</a>
		<a id="75ecd092-cad4-4239-b60e-9f8e2eac78b0" class="rules_svg_anchor rules_svg_shape"   href="/lms/chart?onclick=b3BlbkNoYXJ0Q29udGV4dE1lbnUoZXZlbnQsJ3cxMjVkNTIzNTk2NWM3OTQ3NXY0MDc4JywyMzE2MiwgMSwgMSwgdGhpcywgd2luZG93LmZyYW1lRWxlbWVudCk=&amp;navigate=true&amp;details=Description">
			<g id="shape6-23" transform="translate(265.5,-913.5)">
				
				<desc>90.50.043 Record intercompany transactions</desc>
				<path d="M0 1188 L126 1188 L126 1125 L0 1125 L0 1188 Z" class="st7" />
				<path d="M0 1188 L126 1188 L126 1125 L0 1125 L0 1188" class="st8" />
				<path d="M9 1188 L9 1125" class="st8" />
				<path d="M117 1188 L117 1125" class="st8" />
				<text x="20.14" y="1145.7" class="st2">90.50.043 Record <tspan x="28.99" dy="1.2em" class="st4">intercompany </tspan>
					<tspan x="33.06" dy="1.2em" class="st4">transactions</tspan>
				</text>
			</g>
		</a>
		<a id="8e01215e-7dfc-42ea-999a-555b23276b42" class="rules_svg_anchor rules_svg_shape"   href="/lms/chart?onclick=b3BlbkNoYXJ0Q29udGV4dE1lbnUoZXZlbnQsJ3cxMjVkNTIzNTk2NWM1NTM5OXY0MDc4JywyMzE2MywgMSwgMSwgdGhpcywgd2luZG93LmZyYW1lRWxlbWVudCk=&amp;navigate=true&amp;details=Description">
			<g id="shape7-31" transform="translate(409.5,-913.5)">
				
				<desc>90.50.045 Record cost accounting transactions</desc>
				<path d="M0 1188 L126 1188 L126 1125 L0 1125 L0 1188 Z" class="st7" />
				<path d="M0 1188 L126 1188 L126 1125 L0 1125 L0 1188" class="st8" />
				<path d="M9 1188 L9 1125" class="st8" />
				<path d="M117 1188 L117 1125" class="st8" />
				<text x="20.14" y="1145.7" class="st2">90.50.045 Record <tspan x="24.81" dy="1.2em" class="st4">cost accounting </tspan>
					<tspan x="33.06" dy="1.2em" class="st4">transactions</tspan>
				</text>
			</g>
		</a>
		<a id="521b6ed3-2f97-46d7-9767-04b354e4c2ca" class="rules_svg_anchor rules_svg_shape"   href="/lms/chart?onclick=b3BlbkNoYXJ0Q29udGV4dE1lbnUoZXZlbnQsJ3cxMjVkNTIzNTk2NWMxNzQ2NHY0MDc4JywyMzE2NSwgMSwgMSwgdGhpcywgd2luZG93LmZyYW1lRWxlbWVudCk=&amp;navigate=true&amp;details=Description">
			<g id="shape8-39" transform="translate(409.5,-823.5)">
				
				<desc>90.50.050 Correct ledger vouchers</desc>
				<path d="M0 1188 L126 1188 L126 1125 L0 1125 L0 1188 Z" class="st7" />
				<path d="M0 1188 L126 1188 L126 1125 L0 1125 L0 1188" class="st8" />
				<path d="M9 1188 L9 1125" class="st8" />
				<path d="M117 1188 L117 1125" class="st8" />
				<text x="19.25" y="1152.9" class="st2">90.50.050 Correct <tspan x="24.09" dy="1.2em" class="st4">ledger vouchers</tspan>
				</text>
			</g>
		</a>
		<a id="8f6034ae-58c0-4dfe-98aa-ab9d1637fa87" class="rules_svg_anchor rules_svg_shape"   href="/lms/chart?onclick=b3BlbkNoYXJ0Q29udGV4dE1lbnUoZXZlbnQsJ3cxMjVkNTIzNTk2NWM1NTQwMXY0MDc4JywyMzE2NCwgMSwgMSwgdGhpcywgd2luZG93LmZyYW1lRWxlbWVudCk=&amp;navigate=true&amp;details=Description">
			<g id="shape9-46" transform="translate(553.5,-913.5)">
				
				<desc>90.50.048 Revalue inventory</desc>
				<path d="M0 1188 L126 1188 L126 1125 L0 1125 L0 1188 Z" class="st7" />
				<path d="M0 1188 L126 1188 L126 1125 L0 1125 L0 1188" class="st8" />
				<path d="M9 1188 L9 1125" class="st8" />
				<path d="M117 1188 L117 1125" class="st8" />
				<text x="17.99" y="1152.9" class="st2">90.50.048 Revalue <tspan x="39.64" dy="1.2em" class="st4">inventory</tspan>
				</text>
			</g>
		</a>
		<a id="4021b5c5-a66c-44bf-88ce-259e72f64fc4" class="rules_svg_anchor rules_svg_shape"   href="/lms/chart?onclick=b3BlbkNoYXJ0Q29udGV4dE1lbnUoZXZlbnQsJ3cxMjVkNTIzNTk2NWMxNzQ2NXY0MDc4JywyMzE2NiwgMSwgMSwgdGhpcywgd2luZG93LmZyYW1lRWxlbWVudCk=&amp;navigate=true&amp;details=Description">
			<g id="shape10-53" transform="translate(333,-733.5)">
				
				<desc>90.50.060 Manage accruals</desc>
				<path d="M0 1188 L126 1188 L126 1125 L0 1125 L0 1188 Z" class="st7" />
				<path d="M0 1188 L126 1188 L126 1125 L0 1125 L0 1188" class="st8" />
				<path d="M9 1188 L9 1125" class="st8" />
				<path d="M117 1188 L117 1125" class="st8" />
				<text x="17.49" y="1152.9" class="st2">90.50.060 Manage <tspan x="43.21" dy="1.2em" class="st4">accruals</tspan>
				</text>
			</g>
		</a>
		<a id="e283c7ba-cefe-4ff9-99ba-9fb9930eedc5" class="rules_svg_anchor rules_svg_shape"   href="/lms/chart?onclick=b3BlbkNoYXJ0Q29udGV4dE1lbnUoZXZlbnQsJ3cxMjVkNTIzNTk2NWMxNzQ2N3Y0MDc4JywyMzE2OCwgMSwgMSwgdGhpcywgd2luZG93LmZyYW1lRWxlbWVudCk=&amp;navigate=true&amp;details=Description">
			<g id="shape11-60" transform="translate(409.5,-639)">
				
				<desc>90.50.080 Process allocations</desc>
				<path d="M0 1188 L126 1188 L126 1125 L0 1125 L0 1188 Z" class="st7" />
				<path d="M0 1188 L126 1188 L126 1125 L0 1125 L0 1188" class="st8" />
				<path d="M9 1188 L9 1125" class="st8" />
				<path d="M117 1188 L117 1125" class="st8" />
				<text x="18.76" y="1152.9" class="st2">90.50.080 Process <tspan x="36.75" dy="1.2em" class="st4">allocations</tspan>
				</text>
			</g>
		</a>
		<a id="dc80dece-9edf-48e2-85eb-c0ad86a7778b" class="rules_svg_anchor rules_svg_shape"   href="/lms/chart?onclick=b3BlbkNoYXJ0Q29udGV4dE1lbnUoZXZlbnQsJ3cxMjVkNTIzNTk2NWM1NTQxMnY0MDc4JywyMzE2OSwgMSwgMSwgdGhpcywgd2luZG93LmZyYW1lRWxlbWVudCk=&amp;navigate=true&amp;details=Description">
			<g id="shape12-67" transform="translate(333,-549)">
				
				<desc>90.50.090 Record tax commitments</desc>
				<path d="M0 1188 L126 1188 L126 1125 L0 1125 L0 1188 Z" class="st7" />
				<path d="M0 1188 L126 1188 L126 1125 L0 1125 L0 1188" class="st8" />
				<path d="M9 1188 L9 1125" class="st8" />
				<path d="M117 1188 L117 1125" class="st8" />
				<text x="11.3" y="1152.9" class="st2">90.50.090 Record tax <tspan x="29.04" dy="1.2em" class="st4">commitments</tspan>
				</text>
			</g>
		</a>
		<a id="302a8986-a695-455c-9738-fdbf35801b19" class="rules_svg_anchor rules_svg_shape"   href="/lms/chart?onclick=b3BlbkNoYXJ0Q29udGV4dE1lbnUoZXZlbnQsJ3cxMjVkNTIzNTk2NWMxNzQ2NnY0MDc4JywyMzE2NywgMSwgMSwgdGhpcywgd2luZG93LmZyYW1lRWxlbWVudCk=&amp;navigate=true&amp;details=Description">
			<g id="shape13-74" transform="translate(513,-733.5)">
				
				<desc>90.50.070 Manage deferrals</desc>
				<path d="M0 1188 L126 1188 L126 1125 L0 1125 L0 1188 Z" class="st7" />
				<path d="M0 1188 L126 1188 L126 1125 L0 1125 L0 1188" class="st8" />
				<path d="M9 1188 L9 1125" class="st8" />
				<path d="M117 1188 L117 1125" class="st8" />
				<text x="17.49" y="1152.9" class="st2">90.50.070 Manage <tspan x="41.26" dy="1.2em" class="st4">deferrals</tspan>
				</text>
			</g>
		</a>
		<a id="71b6f290-e220-49bd-816c-4163cc5b6aaa" class="rules_svg_anchor rules_svg_shape"   href="/lms/chart?onclick=b3BlbkNoYXJ0Q29udGV4dE1lbnUoZXZlbnQsJ3cxMjVkNTIzNTk2NWM1NTQxM3Y0MDc4JywyMzE3MCwgMSwgMSwgdGhpcywgd2luZG93LmZyYW1lRWxlbWVudCk=&amp;navigate=true&amp;details=Description">
			<g id="shape14-81" transform="translate(513,-549)">
				
				<desc>90.50.100 Pay taxes</desc>
				<path d="M0 1188 L126 1188 L126 1125 L0 1125 L0 1188 Z" class="st7" />
				<path d="M0 1188 L126 1188 L126 1125 L0 1125 L0 1188" class="st8" />
				<path d="M9 1188 L9 1125" class="st8" />
				<path d="M117 1188 L117 1125" class="st8" />
				<text x="14.47" y="1160.1" class="st2">90.50.100 Pay taxes</text>
			</g>
		</a>
		<g id="shape15-87" transform="translate(533.25,-468)">
			
			<desc>End</desc>
			<path d="M18 1188 L67.5 1188 A18 18 -180 0 0 67.5 1152 L18 1152 A18 18 -180 1 0 18 1188 Z" class="st1" />
			<text x="33.52" y="1173.6" class="st2">End</text>
		</g>
		<g id="shape16-90" transform="translate(567,-549)">
			
			<path d="M9 1188 L9 1223.19" class="st9" />
		</g>
		<g id="shape17-96" transform="translate(472.5,-639)">
			
			<path d="M0 1188 L0 1196.83 L-76.5 1196.83 L-76.5 1205.19" class="st9" />
		</g>
		<g id="shape18-101" transform="translate(459,-571.5)">
			
			<path d="M0 1179 L44.19 1179" class="st9" />
		</g>
		<g id="shape19-106" transform="translate(472.5,-823.5)">
			
			<path d="M0 1188 L0 1196.83 L-76.5 1196.83 L-76.5 1205.19" class="st9" />
		</g>
		<g id="shape20-111" transform="translate(472.5,-823.5)">
			
			<path d="M0 1188 L0 1196.83 L103.5 1196.83 L103.5 1205.19" class="st9" />
		</g>
		<g id="shape21-116" transform="translate(396,-733.5)">
			
			<path d="M0 1188 L0 1205.66 L76.5 1205.66 L76.5 1209.69" class="st9" />
		</g>
		<g id="shape22-121" transform="translate(576,-733.5)">
			
			<path d="M0 1188 L0 1205.66 L-103.5 1205.66 L-103.5 1209.69" class="st9" />
		</g>
		<g id="shape23-126" transform="translate(463.5,-1093.5)">
			
			<path d="M9 1188 L9 1205.19" class="st9" />
		</g>
		<g id="shape24-131" transform="translate(463.5,-1003.5)">
			
			<path d="M9 1188 L9 1205.19" class="st9" />
		</g>
		<g id="shape25-136" transform="translate(472.5,-1003.5)">
			
			<path d="M0 1188 L0 1196.83 L-144 1196.83 L-144 1205.19" class="st9" />
		</g>
		<g id="shape26-141" transform="translate(472.5,-1003.5)">
			
			<path d="M0 1188 L0 1196.83 L144 1196.83 L144 1205.19" class="st9" />
		</g>
		<g id="shape27-146" transform="translate(463.5,-913.5)">
			
			<path d="M9 1188 L9 1205.19" class="st9" />
		</g>
		<g id="shape29-151" transform="translate(126,-1116)">
			
			<path d="M0 1179 L17.19 1179" class="st9" />
		</g>
		<g id="shape30-156" transform="translate(252,-1116)">
			
			<path d="M0 1179 L17.19 1179" class="st9" />
		</g>
		<g id="shape31-161" transform="translate(378,-1116)">
			
			<path d="M0 1179 L21.69 1179" class="st9" />
		</g>
	</g>
</svg>
