<?xml version="1.0" encoding="UTF-8" standalone="no"?>
<svg
   width="1920"
   height="1892.8252"
   overflow="hidden"
   version="1.1"
   id="svg77"
   sodipodi:docname="source-to-pay-process-vendor-invoices-overview.svg"
   inkscape:version="1.3.2 (091e20e, 2023-11-25, custom)"
   xmlns:inkscape="http://www.inkscape.org/namespaces/inkscape"
   xmlns:sodipodi="http://sodipodi.sourceforge.net/DTD/sodipodi-0.dtd"
   xmlns="http://www.w3.org/2000/svg"
   xmlns:svg="http://www.w3.org/2000/svg">
  <defs
     id="defs77" />
  <sodipodi:namedview
     id="namedview77"
     pagecolor="#ffffff"
     bordercolor="#000000"
     borderopacity="0.25"
     inkscape:showpageshadow="2"
     inkscape:pageopacity="0.0"
     inkscape:pagecheckerboard="0"
     inkscape:deskcolor="#d1d1d1"
     inkscape:zoom="0.95677083"
     inkscape:cx="959.47741"
     inkscape:cy="953.72891"
     inkscape:window-width="3840"
     inkscape:window-height="2054"
     inkscape:window-x="2869"
     inkscape:window-y="-11"
     inkscape:window-maximized="1"
     inkscape:current-layer="svg77" />
  <g
     id="g77"
     transform="translate(0,-6.2710943)">
    <rect
       x="0"
       y="6.2710943"
       width="1920"
       height="1892.8252"
       fill="#ffffff"
       id="rect1"
       style="stroke-width:0.992898" />
    <rect
       x="704.5"
       y="17.500099"
       width="935"
       height="1873"
       stroke="#0078d4"
       stroke-width="3"
       stroke-linejoin="round"
       stroke-miterlimit="10"
       fill="#d9d9d9"
       id="rect2" />
    <text
       fill="#0078d4"
       font-family="'Segoe UI', 'Segoe UI_MSFontService', sans-serif"
       font-weight="700"
       font-size="32px"
       transform="translate(732.465,71)"
       id="text2">Business process area</text>
    <path
       d="M 67,67 C 67,42.6995 86.6994,23 111,23 h 162 c 24.301,0 44,19.6995 44,44 v 0 c 0,24.3005 -19.699,44 -44,44 H 111 C 86.6994,111 67,91.3005 67,67 Z"
       stroke="#0078d4"
       stroke-width="2"
       stroke-linejoin="round"
       stroke-miterlimit="10"
       fill="none"
       fill-rule="evenodd"
       id="path2" />
    <text
       font-family="'Segoe UI', 'Segoe UI_MSFontService', sans-serif"
       font-weight="400"
       font-size="24px"
       transform="translate(166.923,76)"
       id="text3">Start</text>
    <rect
       x="60"
       y="150"
       width="264"
       height="153"
       stroke="#000000"
       stroke-width="2"
       stroke-linejoin="round"
       stroke-miterlimit="10"
       fill="#a0a0a0"
       id="rect3" />
    <text
       font-family="'Segoe UI', 'Segoe UI_MSFontService', sans-serif"
       font-weight="400"
       font-size="24px"
       transform="translate(110.613,235)"
       id="text4">Design to retire</text>
    <rect
       x="61"
       y="518"
       width="265"
       height="154"
       stroke="#000000"
       stroke-width="2"
       stroke-linejoin="round"
       stroke-miterlimit="10"
       fill="#a0a0a0"
       id="rect4" />
    <text
       font-family="'Segoe UI', 'Segoe UI_MSFontService', sans-serif"
       font-weight="400"
       font-size="24px"
       transform="translate(116.596,604)"
       id="text5">Procure to pay</text>
    <rect
       x="1170"
       y="841"
       width="265"
       height="153"
       fill="#ffffff"
       id="rect5" />
    <path
       d="M 1203.12,841 V 994 M 1401.88,841 V 994"
       stroke="#0078d4"
       stroke-width="2"
       stroke-linejoin="round"
       stroke-miterlimit="10"
       fill="none"
       fill-rule="evenodd"
       id="path5" />
    <rect
       x="1170"
       y="841"
       width="265"
       height="153"
       stroke="#0078d4"
       stroke-width="2"
       stroke-linejoin="round"
       stroke-miterlimit="10"
       fill="none"
       id="rect6" />
    <text
       font-family="'Segoe UI', 'Segoe UI_MSFontService', sans-serif"
       font-weight="400"
       font-size="24px"
       transform="translate(1265.96,897)"
       id="text6">Record</text>
    <text
       font-family="'Segoe UI', 'Segoe UI_MSFontService', sans-serif"
       font-weight="400"
       font-size="24px"
       transform="translate(1265.62,926)"
       id="text7">invoice</text>
    <text
       font-family="'Segoe UI', 'Segoe UI_MSFontService', sans-serif"
       font-weight="400"
       font-size="24px"
       transform="translate(1268.3,955)"
       id="text8">details</text>
    <rect
       x="825"
       y="840"
       width="265"
       height="153"
       fill="#ffffff"
       id="rect8" />
    <path
       d="M 858.125,840 V 993 M 1056.88,840 v 153"
       stroke="#0078d4"
       stroke-width="2"
       stroke-linejoin="round"
       stroke-miterlimit="10"
       fill="none"
       fill-rule="evenodd"
       id="path8" />
    <rect
       x="825"
       y="840"
       width="265"
       height="153"
       stroke="#0078d4"
       stroke-width="2"
       stroke-linejoin="round"
       stroke-miterlimit="10"
       fill="none"
       id="rect9" />
    <text
       font-family="'Segoe UI', 'Segoe UI_MSFontService', sans-serif"
       font-weight="400"
       font-size="24px"
       transform="translate(917.531,911)"
       id="text9">Receive</text>
    <text
       font-family="'Segoe UI', 'Segoe UI_MSFontService', sans-serif"
       font-weight="400"
       font-size="24px"
       transform="translate(915.117,940)"
       id="text10">invoices</text>
    <rect
       x="920"
       y="153"
       width="265"
       height="154"
       stroke="#00569b"
       stroke-width="2"
       stroke-linejoin="round"
       stroke-miterlimit="10"
       fill="#0078d4"
       id="rect10" />
    <text
       fill="#ffffff"
       font-family="'Segoe UI', 'Segoe UI_MSFontService', sans-serif"
       font-weight="400"
       font-size="24px"
       transform="translate(972.471,224)"
       id="text11">Process vendor</text>
    <text
       fill="#ffffff"
       font-family="'Segoe UI', 'Segoe UI_MSFontService', sans-serif"
       font-weight="400"
       font-size="24px"
       transform="translate(1010.23,253)"
       id="text12">invoices</text>
    <rect
       x="838"
       y="1542"
       width="265"
       height="153"
       fill="#ffffff"
       id="rect12" />
    <path
       d="m 871.125,1542 v 153 m 198.755,-153 v 153"
       stroke="#0078d4"
       stroke-width="2"
       stroke-linejoin="round"
       stroke-miterlimit="10"
       fill="none"
       fill-rule="evenodd"
       id="path12" />
    <rect
       x="838"
       y="1542"
       width="265"
       height="153"
       stroke="#0078d4"
       stroke-width="2"
       stroke-linejoin="round"
       stroke-miterlimit="10"
       fill="none"
       id="rect13" />
    <text
       font-family="'Segoe UI', 'Segoe UI_MSFontService', sans-serif"
       font-weight="400"
       font-size="24px"
       transform="translate(902.701,1627)"
       id="text13">Post invoices</text>
    <path
       d="m 1663,1852 c 0,-19.88 16.12,-36 36,-36 h 178 c 19.88,0 36,16.12 36,36 v 0 c 0,19.88 -16.12,36 -36,36 h -178 c -19.88,0 -36,-16.12 -36,-36 z"
       stroke="#0078d4"
       stroke-width="2"
       stroke-linejoin="round"
       stroke-miterlimit="10"
       fill="#ffffff"
       fill-rule="evenodd"
       id="path13" />
    <text
       font-family="'Segoe UI', 'Segoe UI_MSFontService', sans-serif"
       font-weight="400"
       font-size="24px"
       transform="translate(1767.8,1861)"
       id="text14">End</text>
    <path
       d="m 0,-1.5 h 29.9164 c 0.8285,0 1.5,0.671573 1.5,1.5 v 527.979 c 0,0.828 -0.6715,1.5 -1.5,1.5 H 13.4165 v -3 h 16.4999 l -1.5,1.5 V 0 l 1.5,1.5 H 0 Z m 14.9165,533.979 -8.99996,-4.5 8.99996,-4.5 z"
       fill="#0078d4"
       transform="matrix(-1,0,0,1,67.4166,67.5001)"
       id="path14" />
    <rect
       x="60"
       y="917"
       width="264"
       height="154"
       fill="#0078d4"
       id="rect14" />
    <path
       d="m 93,917 v 154 M 291,917 v 154"
       stroke="#0078d4"
       stroke-width="2"
       stroke-linejoin="round"
       stroke-miterlimit="10"
       fill="none"
       fill-rule="evenodd"
       id="path15" />
    <rect
       x="60"
       y="917"
       width="264"
       height="154"
       stroke="#0078d4"
       stroke-width="2"
       stroke-linejoin="round"
       stroke-miterlimit="10"
       fill="none"
       id="rect15" />
    <text
       fill="#ffffff"
       font-family="'Segoe UI', 'Segoe UI_MSFontService', sans-serif"
       font-weight="400"
       font-size="24px"
       transform="translate(148.93,974)"
       id="text15">Manage</text>
    <text
       fill="#ffffff"
       font-family="'Segoe UI', 'Segoe UI_MSFontService', sans-serif"
       font-weight="400"
       font-size="24px"
       transform="translate(154.997,1003)"
       id="text16">vendor</text>
    <text
       fill="#ffffff"
       font-family="'Segoe UI', 'Segoe UI_MSFontService', sans-serif"
       font-weight="400"
       font-size="24px"
       transform="translate(130.084,1032)"
       id="text17">relationship</text>
    <path
       d="m 194,867.494 0.18,43.252 -3,0.013 -0.18,-43.253 z m 3.174,41.74 -4.463,9.019 -4.537,-8.982 z"
       fill="#0078d4"
       id="path17" />
    <rect
       x="59"
       y="713"
       width="265"
       height="154"
       fill="#0078d4"
       id="rect17" />
    <path
       d="M 92.125,713 V 867 M 290.875,713 V 867"
       stroke="#0078d4"
       stroke-width="2"
       stroke-linejoin="round"
       stroke-miterlimit="10"
       fill="none"
       fill-rule="evenodd"
       id="path18" />
    <rect
       x="59"
       y="713"
       width="265"
       height="154"
       stroke="#0078d4"
       stroke-width="2"
       stroke-linejoin="round"
       stroke-miterlimit="10"
       fill="none"
       id="rect18" />
    <text
       fill="#ffffff"
       font-family="'Segoe UI', 'Segoe UI_MSFontService', sans-serif"
       font-weight="400"
       font-size="24px"
       transform="translate(157.386,741)"
       id="text18">Define</text>
    <text
       fill="#ffffff"
       font-family="'Segoe UI', 'Segoe UI_MSFontService', sans-serif"
       font-weight="400"
       font-size="24px"
       transform="translate(128.799,770)"
       id="text19">policies and</text>
    <text
       fill="#ffffff"
       font-family="'Segoe UI', 'Segoe UI_MSFontService', sans-serif"
       font-weight="400"
       font-size="24px"
       transform="translate(132.613,799)"
       id="text20">procedures</text>
    <text
       fill="#ffffff"
       font-family="'Segoe UI', 'Segoe UI_MSFontService', sans-serif"
       font-weight="400"
       font-size="24px"
       transform="translate(176.799,828)"
       id="text21">for</text>
    <text
       fill="#ffffff"
       font-family="'Segoe UI', 'Segoe UI_MSFontService', sans-serif"
       font-weight="400"
       font-size="24px"
       transform="translate(123.613,857)"
       id="text22">procurement</text>
    <rect
       x="1170"
       y="613"
       width="265"
       height="154"
       fill="#ffffff"
       id="rect22" />
    <path
       d="M 1203.12,613 V 767 M 1401.88,613 V 767"
       stroke="#0078d4"
       stroke-width="2"
       stroke-linejoin="round"
       stroke-miterlimit="10"
       fill="none"
       fill-rule="evenodd"
       id="path22" />
    <rect
       x="1170"
       y="613"
       width="265"
       height="154"
       stroke="#0078d4"
       stroke-width="2"
       stroke-linejoin="round"
       stroke-miterlimit="10"
       fill="none"
       id="rect23" />
    <text
       font-family="'Segoe UI', 'Segoe UI_MSFontService', sans-serif"
       font-weight="400"
       font-size="24px"
       transform="translate(1245.39,670)"
       id="text23">Generate a</text>
    <text
       font-family="'Segoe UI', 'Segoe UI_MSFontService', sans-serif"
       font-weight="400"
       font-size="24px"
       transform="translate(1239.11,699)"
       id="text24">prepayment</text>
    <text
       font-family="'Segoe UI', 'Segoe UI_MSFontService', sans-serif"
       font-weight="400"
       font-size="24px"
       transform="translate(1265.62,728)"
       id="text25">invoice</text>
    <path
       d="m 1090.52,916 73.35,0.747 -0.03,3 -73.36,-0.747 z m 71.88,-2.268 8.95,4.591 -9.04,4.408 z"
       fill="#0078d4"
       id="path25" />
    <rect
       x="380"
       y="921"
       width="264"
       height="154"
       fill="#0078d4"
       id="rect25" />
    <path
       d="m 413,921 v 154 M 611,921 v 154"
       stroke="#0078d4"
       stroke-width="2"
       stroke-linejoin="round"
       stroke-miterlimit="10"
       fill="none"
       fill-rule="evenodd"
       id="path26" />
    <rect
       x="380"
       y="921"
       width="264"
       height="154"
       stroke="#0078d4"
       stroke-width="2"
       stroke-linejoin="round"
       stroke-miterlimit="10"
       fill="none"
       id="rect26" />
    <text
       fill="#ffffff"
       font-family="'Segoe UI', 'Segoe UI_MSFontService', sans-serif"
       font-weight="400"
       font-size="24px"
       transform="translate(471.704,978)"
       id="text26">Procure</text>
    <text
       fill="#ffffff"
       font-family="'Segoe UI', 'Segoe UI_MSFontService', sans-serif"
       font-weight="400"
       font-size="24px"
       transform="translate(464.23,1007)"
       id="text27">materials</text>
    <text
       fill="#ffffff"
       font-family="'Segoe UI', 'Segoe UI_MSFontService', sans-serif"
       font-weight="400"
       font-size="24px"
       transform="translate(447.324,1036)"
       id="text28">and services</text>
    <rect
       x="378"
       y="1174"
       width="264"
       height="153"
       fill="#0078d4"
       id="rect28" />
    <path
       d="m 411,1174 v 153 m 198,-153 v 153"
       stroke="#0078d4"
       stroke-width="2"
       stroke-linejoin="round"
       stroke-miterlimit="10"
       fill="none"
       fill-rule="evenodd"
       id="path28" />
    <rect
       x="378"
       y="1174"
       width="264"
       height="153"
       stroke="#0078d4"
       stroke-width="2"
       stroke-linejoin="round"
       stroke-miterlimit="10"
       fill="none"
       id="rect29" />
    <text
       fill="#ffffff"
       font-family="'Segoe UI', 'Segoe UI_MSFontService', sans-serif"
       font-weight="400"
       font-size="24px"
       transform="translate(470.185,1230)"
       id="text29">Process</text>
    <text
       fill="#ffffff"
       font-family="'Segoe UI', 'Segoe UI_MSFontService', sans-serif"
       font-weight="400"
       font-size="24px"
       transform="translate(465.611,1259)"
       id="text30">inbound</text>
    <text
       fill="#ffffff"
       font-family="'Segoe UI', 'Segoe UI_MSFontService', sans-serif"
       font-weight="400"
       font-size="24px"
       transform="translate(476.691,1288)"
       id="text31">goods</text>
    <rect
       x="382"
       y="150"
       width="264"
       height="153"
       fill="#0078d4"
       id="rect31" />
    <path
       d="M 415,150 V 303 M 613,150 v 153"
       stroke="#0078d4"
       stroke-width="2"
       stroke-linejoin="round"
       stroke-miterlimit="10"
       fill="none"
       fill-rule="evenodd"
       id="path31" />
    <rect
       x="382"
       y="150"
       width="264"
       height="153"
       stroke="#0078d4"
       stroke-width="2"
       stroke-linejoin="round"
       stroke-miterlimit="10"
       fill="none"
       id="rect32" />
    <text
       fill="#ffffff"
       font-family="'Segoe UI', 'Segoe UI_MSFontService', sans-serif"
       font-weight="400"
       font-size="24px"
       transform="translate(463.359,206)"
       id="text32">Introduce</text>
    <text
       fill="#ffffff"
       font-family="'Segoe UI', 'Segoe UI_MSFontService', sans-serif"
       font-weight="400"
       font-size="24px"
       transform="translate(492.372,235)"
       id="text33">new</text>
    <text
       fill="#ffffff"
       font-family="'Segoe UI', 'Segoe UI_MSFontService', sans-serif"
       font-weight="400"
       font-size="24px"
       transform="translate(467.359,264)"
       id="text34">products</text>
    <path
       d="m 324.5,225 h 49.846 v 3 H 324.5 Z m 48.346,-3 9,4.5 -9,4.5 z"
       fill="#0078d4"
       id="path34" />
    <path
       d="m 324.61,993.004 48.08,3.53 -0.22,2.992 -48.08,-3.53 z m 46.803,0.429 8.647,5.147 -9.306,3.83 z"
       fill="#0078d4"
       id="path35" />
    <rect
       x="66"
       y="1175"
       width="264"
       height="153"
       stroke="#000000"
       stroke-width="2"
       stroke-linejoin="round"
       stroke-miterlimit="10"
       fill="#a0a0a0"
       id="rect35" />
    <text
       font-family="'Segoe UI', 'Segoe UI_MSFontService', sans-serif"
       font-weight="400"
       font-size="24px"
       transform="translate(133.728,1246)"
       id="text35">Inventory to</text>
    <text
       font-family="'Segoe UI', 'Segoe UI_MSFontService', sans-serif"
       font-weight="400"
       font-size="24px"
       transform="translate(156.461,1275)"
       id="text36">delivery</text>
    <path
       d="m 887.5,450.5 164.5,-90 164.5,90 -164.5,90 z"
       stroke="#0078d4"
       stroke-linejoin="round"
       stroke-miterlimit="10"
       fill="#ffffff"
       fill-rule="evenodd"
       id="path36" />
    <text
       font-family="'Segoe UI', 'Segoe UI_MSFontService', sans-serif"
       font-weight="400"
       font-size="24px"
       transform="translate(1017.92,445)"
       id="text37">Is pre</text>
    <text
       font-family="'Segoe UI', 'Segoe UI_MSFontService', sans-serif"
       font-weight="400"
       font-size="24px"
       transform="translate(1075.61,445)"
       id="text38">-</text>
    <text
       font-family="'Segoe UI', 'Segoe UI_MSFontService', sans-serif"
       font-weight="400"
       font-size="24px"
       transform="translate(1000.24,474)"
       id="text39">payment?</text>
    <rect
       x="1236"
       y="1544"
       width="264"
       height="153"
       fill="#ffffff"
       id="rect39" />
    <path
       d="m 1269,1544 v 153 m 198,-153 v 153"
       stroke="#0078d4"
       stroke-width="2"
       stroke-linejoin="round"
       stroke-miterlimit="10"
       fill="none"
       fill-rule="evenodd"
       id="path39" />
    <rect
       x="1236"
       y="1544"
       width="264"
       height="153"
       stroke="#0078d4"
       stroke-width="2"
       stroke-linejoin="round"
       stroke-miterlimit="10"
       fill="none"
       id="rect40" />
    <text
       font-family="'Segoe UI', 'Segoe UI_MSFontService', sans-serif"
       font-weight="400"
       font-size="24px"
       transform="translate(1326.89,1586)"
       id="text40">Analyze</text>
    <text
       font-family="'Segoe UI', 'Segoe UI_MSFontService', sans-serif"
       font-weight="400"
       font-size="24px"
       transform="translate(1330.79,1615)"
       id="text41">invoice</text>
    <text
       font-family="'Segoe UI', 'Segoe UI_MSFontService', sans-serif"
       font-weight="400"
       font-size="24px"
       transform="translate(1336.56,1644)"
       id="text42">policy</text>
    <text
       font-family="'Segoe UI', 'Segoe UI_MSFontService', sans-serif"
       font-weight="400"
       font-size="24px"
       transform="translate(1317.39,1673)"
       id="text43">violations</text>
    <rect
       x="1171"
       y="1080"
       width="264"
       height="153"
       fill="#ffffff"
       id="rect43" />
    <path
       d="m 1204,1080 v 153 m 198,-153 v 153"
       stroke="#0078d4"
       stroke-width="2"
       stroke-linejoin="round"
       stroke-miterlimit="10"
       fill="none"
       fill-rule="evenodd"
       id="path43" />
    <rect
       x="1171"
       y="1080"
       width="264"
       height="153"
       stroke="#0078d4"
       stroke-width="2"
       stroke-linejoin="round"
       stroke-miterlimit="10"
       fill="none"
       id="rect44" />
    <text
       font-family="'Segoe UI', 'Segoe UI_MSFontService', sans-serif"
       font-weight="400"
       font-size="24px"
       transform="translate(1243.05,1136)"
       id="text44">Review and</text>
    <text
       font-family="'Segoe UI', 'Segoe UI_MSFontService', sans-serif"
       font-weight="400"
       font-size="24px"
       transform="translate(1259.69,1165)"
       id="text45">approve</text>
    <text
       font-family="'Segoe UI', 'Segoe UI_MSFontService', sans-serif"
       font-weight="400"
       font-size="24px"
       transform="translate(1260.7,1194)"
       id="text46">invoices</text>
    <path
       d="m 1140.5,1383.5 162.5,-90 162.5,90 -162.5,90 z"
       stroke="#0078d4"
       stroke-linejoin="round"
       stroke-miterlimit="10"
       fill="#ffffff"
       fill-rule="evenodd"
       id="path46" />
    <text
       font-family="'Segoe UI', 'Segoe UI_MSFontService', sans-serif"
       font-weight="400"
       font-size="24px"
       transform="translate(1294.47,1378)"
       id="text47">Is</text>
    <text
       font-family="'Segoe UI', 'Segoe UI_MSFontService', sans-serif"
       font-weight="400"
       font-size="24px"
       transform="translate(1247.03,1407)"
       id="text48">approved?</text>
    <path
       d="m 0,-1.5 h 79.7144 c 0.8284,0 1.5,0.671573 1.5,1.5 v 767.949 l -1.5,-1.5 H 268.291 v 3 H 79.7144 c -0.8284,0 -1.5,-0.672 -1.5,-1.5 V 0 l 1.5,1.5 H 0 Z m 266.791,764.949 9,4.5 -9,4.5 z"
       fill="#0078d4"
       transform="matrix(1,0,0,-1,644.5,998.449)"
       id="path48" />
    <path
       d="m 0,-1.5 h 55.4808 c 0.8285,0 1.5,0.671573 1.5,1.5 v 1184.51 c 0,0.83 -0.6715,1.5 -1.5,1.5 H 8.66504 v -3 H 55.4808 l -1.5,1.5 V 0 l 1.5,1.5 H 0 Z m 10.165,1190.51 -8.99996,-4.5 8.99996,-4.5 z"
       fill="#0078d4"
       transform="matrix(-1,0,0,1,67.6651,67.5001)"
       id="path49" />
    <path
       d="m 1216.5,449 h 86.67 c 0.83,0 1.5,0.672 1.5,1.5 v 155.491 h -3 V 450.5 l 1.5,1.5 h -86.67 z m 91.17,155.491 -4.5,9 -4.5,-9 z"
       fill="#0078d4"
       id="path50" />
    <path
       d="M 0.0361337,-1.49956 39.8815,-0.539446 39.8092,2.45968 -0.0361337,1.49956 Z M 38.4542,-3.57471 l 8.889,4.7155 -9.1058,4.28189 z"
       fill="#0078d4"
       transform="matrix(1,0,0,-1,330.5,1252.64)"
       id="path51" />
    <path
       d="m 1103.52,1618 125.23,1.95 -0.05,3 -125.22,-1.95 z m 123.78,-1.07 8.92,4.63 -9.06,4.36 z"
       fill="#0078d4"
       id="path52" />
    <path
       d="m 973,1696.02 v 24 l -1.5,-1.5 h 608.45 l -1.5,1.5 v -39.52 c 0,-0.83 0.67,-1.5 1.5,-1.5 h 68.88 v 3 h -68.88 l 1.5,-1.5 v 39.52 c 0,0.83 -0.68,1.5 -1.5,1.5 H 971.5 c -0.828,0 -1.5,-0.67 -1.5,-1.5 v -24 z m 674.33,-20.02 9,4.5 -9,4.5 z"
       fill="#0078d4"
       id="path53" />
    <rect
       x="1654"
       y="1394"
       width="265"
       height="154"
       stroke="#000000"
       stroke-width="2"
       stroke-linejoin="round"
       stroke-miterlimit="10"
       fill="#a0a0a0"
       id="rect53" />
    <text
       font-family="'Segoe UI', 'Segoe UI_MSFontService', sans-serif"
       font-weight="400"
       font-size="24px"
       transform="translate(1699.46,1480)"
       id="text53">Record to report</text>
    <rect
       x="1655"
       y="1603"
       width="265"
       height="154"
       fill="#0078d4"
       id="rect54" />
    <path
       d="m 1688.12,1603 v 154 m 198.76,-154 v 154"
       stroke="#0078d4"
       stroke-width="2"
       stroke-linejoin="round"
       stroke-miterlimit="10"
       fill="none"
       fill-rule="evenodd"
       id="path54" />
    <rect
       x="1655"
       y="1603"
       width="265"
       height="154"
       stroke="#0078d4"
       stroke-width="2"
       stroke-linejoin="round"
       stroke-miterlimit="10"
       fill="none"
       id="rect55" />
    <text
       fill="#ffffff"
       font-family="'Segoe UI', 'Segoe UI_MSFontService', sans-serif"
       font-weight="400"
       font-size="24px"
       transform="translate(1750.96,1660)"
       id="text55">Record</text>
    <text
       fill="#ffffff"
       font-family="'Segoe UI', 'Segoe UI_MSFontService', sans-serif"
       font-weight="400"
       font-size="24px"
       transform="translate(1743.96,1689)"
       id="text56">financial</text>
    <text
       fill="#ffffff"
       font-family="'Segoe UI', 'Segoe UI_MSFontService', sans-serif"
       font-weight="400"
       font-size="24px"
       transform="translate(1724.05,1718)"
       id="text57">transactions</text>
    <path
       d="m 1789,1548.47 0.92,48.01 -3,0.06 -0.92,-48.01 z m 3.89,46.45 -4.33,9.09 -4.67,-8.91 z"
       fill="#0078d4"
       id="path57" />
    <path
       d="m 1790,1757.5 v 51.56 h -3 v -51.56 z m 3,50.06 -4.5,9 -4.5,-9 z"
       fill="#0078d4"
       id="path58" />
    <text
       font-family="'Segoe UI', 'Segoe UI_MSFontService', sans-serif"
       font-weight="400"
       font-size="27px"
       transform="translate(1317.67,515)"
       id="text58">Yes</text>
    <text
       font-family="'Segoe UI', 'Segoe UI_MSFontService', sans-serif"
       font-weight="400"
       font-size="27px"
       transform="translate(781.658,676)"
       id="text59">No</text>
    <text
       font-family="'Segoe UI', 'Segoe UI_MSFontService', sans-serif"
       font-weight="400"
       font-size="27px"
       transform="translate(984.49,1442)"
       id="text60">Yes</text>
    <text
       font-family="'Segoe UI', 'Segoe UI_MSFontService', sans-serif"
       font-weight="400"
       font-size="27px"
       transform="translate(1474.05,1409)"
       id="text61">No</text>
    <path
       d="m 0,-1.5 h 169.534 c 0.829,0 1.5,0.671573 1.5,1.5 v 151.18 h -3 V 0 l 1.5,1.5 H 0 Z m 174.034,151.18 -4.5,9 -4.5,-9 z"
       fill="#0078d4"
       transform="matrix(-1,0,0,1,1141.03,1383.5)"
       id="path61" />
    <path
       d="M 1.49893,-0.0565372 2.78318,33.9918 -0.214691,34.1049 -1.49893,0.0565372 Z M 5.72451,32.3798 1.56693,41.543 -3.2691,32.719 Z"
       fill="#0078d4"
       transform="matrix(-1,0,0,1,194.067,672.5)"
       id="path62" />
    <path
       d="M 1.49966,-0.0319014 3.44924,91.6163 0.449916,91.6802 -1.49966,0.0319014 Z M 6.41666,90.0528 2.10908,99.1465 -2.58131,90.2442 Z"
       fill="#0078d4"
       transform="matrix(-1,0,0,1,512.609,1075.5)"
       id="path63" />
    <path
       d="M 1.49983,-0.0226113 2.19549,46.1211 -0.804172,46.1663 -1.49983,0.0226113 Z M 5.17253,44.576 0.808714,53.6428 -3.82644,44.7117 Z"
       fill="#0078d4"
       transform="matrix(-1,0,0,1,1053.31,307.5)"
       id="path64" />
    <path
       d="m 0,-1.5 h 121.009 c 0.829,0 1.5,0.671573 1.5,1.5 v 800.085 l -1.5,-1.5 h 116.419 v 3 H 121.009 c -0.828,0 -1.5,-0.672 -1.5,-1.5 V 0 l 1.5,1.5 H 0 Z m 235.928,797.085 9,4.5 -9,4.5 z"
       fill="#0078d4"
       transform="matrix(-1,0,0,1,887.428,450.5)"
       id="path65" />
    <path
       d="m 512,1327.48 v 24 l -1.5,-1.5 h 447.353 l -1.5,1.5 V 1001 h 3 v 350.48 c 0,0.83 -0.672,1.5 -1.5,1.5 H 510.5 c -0.828,0 -1.5,-0.67 -1.5,-1.5 v -24 z m 441.353,-324.98 4.5,-9 4.5,9 z"
       fill="#0078d4"
       id="path66" />
    <path
       d="m 1305,994.497 0.15,78.043 -3,0.01 -0.15,-78.047 z m 3.15,76.533 -4.48,9.01 -4.52,-8.99 z"
       fill="#0078d4"
       id="path67" />
    <path
       d="M 1.49999,-0.00415217 1.647,53.1034 -1.35299,53.1117 -1.49999,0.00415217 Z M 4.64284,51.5951 0.167769,60.6076 -4.35713,51.62 Z"
       fill="#0078d4"
       transform="matrix(-1,0,0,1,1303.67,1233.5)"
       id="path68" />
    <path
       d="m 1465.8,1382.1 h 59.37 l -1.5,1.5 V 917.5 l 1.5,1.5 H 1443 v -3 h 82.17 c 0.82,0 1.5,0.672 1.5,1.5 v 466.1 c 0,0.83 -0.68,1.5 -1.5,1.5 h -59.37 z m -21.3,-460.1 -9,-4.5 9,-4.5 z"
       fill="#0078d4"
       id="path69" />
    <path
       d="m 0,-1.5 h 154.514 c 0.829,0 1.5,0.671573 1.5,1.5 v 287.525 h -3 V 0 l 1.5,1.5 H 0 Z m 159.014,287.525 -4.5,9 -4.5,-9 z"
       fill="#0078d4"
       transform="matrix(0,1,1,0,1368.5,1697.5)"
       id="path70" />
    <path
       d="m 194,111.484 0.328,31.362 -2.999,0.031 L 191,111.516 Z m 3.312,29.83 -4.405,9.047 -4.594,-8.952 z"
       fill="#0078d4"
       id="path71" />
    <rect
       x="61"
       y="315"
       width="265"
       height="153"
       stroke="#000000"
       stroke-width="2"
       stroke-linejoin="round"
       stroke-miterlimit="10"
       fill="#a0a0a0"
       id="rect71" />
    <text
       font-family="'Segoe UI', 'Segoe UI_MSFontService', sans-serif"
       font-weight="400"
       font-size="24px"
       transform="translate(104.567,400)"
       id="text71">Concept to retire</text>
    <rect
       x="381"
       y="315"
       width="264"
       height="154"
       fill="#0078d4"
       id="rect72" />
    <path
       d="M 414,315 V 469 M 612,315 v 154"
       stroke="#0078d4"
       stroke-width="2"
       stroke-linejoin="round"
       stroke-miterlimit="10"
       fill="none"
       fill-rule="evenodd"
       id="path72" />
    <rect
       x="381"
       y="315"
       width="264"
       height="154"
       stroke="#0078d4"
       stroke-width="2"
       stroke-linejoin="round"
       stroke-miterlimit="10"
       fill="none"
       id="rect73" />
    <text
       fill="#ffffff"
       font-family="'Segoe UI', 'Segoe UI_MSFontService', sans-serif"
       font-weight="400"
       font-size="24px"
       transform="translate(462.157,386)"
       id="text73">Introduce</text>
    <text
       fill="#ffffff"
       font-family="'Segoe UI', 'Segoe UI_MSFontService', sans-serif"
       font-weight="400"
       font-size="24px"
       transform="translate(446.357,415)"
       id="text74">new</text>
    <text
       fill="#ffffff"
       font-family="'Segoe UI', 'Segoe UI_MSFontService', sans-serif"
       font-weight="400"
       font-size="24px"
       transform="translate(496.191,415)"
       id="text75">services</text>
    <path
       d="m 326.513,391 47.026,0.394 -0.025,3 L 326.487,394 Z m 45.552,-2.618 8.961,4.575 -9.037,4.425 z"
       fill="#0078d4"
       id="path75" />
    <path
       d="m 0,1.5 h -24.0002 l 1.5,-1.5 v 385.86 l -1.5,-1.5 H 134.265 c 0.829,0 1.5,0.672 1.5,1.5 v 301.72 h -3 V 385.86 l 1.5,1.5 H -24.0002 c -0.8285,0 -1.5,-0.672 -1.5,-1.5 V 0 c 0,-0.828427 0.6715,-1.5 1.5,-1.5 H 0 Z m 138.765,684.58 -4.5,9 -4.5,-9 z"
       fill="#0078d4"
       transform="matrix(-1,0,0,1,646.765,226.5)"
       id="path76" />
    <path
       d="m 0,1.5 h -24.0002 l 1.5,-1.5 v 221.49 l -1.5,-1.5 H 133.067 c 0.829,0 1.5,0.672 1.5,1.5 V 521.9 h -3 V 221.49 l 1.5,1.5 H -24.0002 c -0.8285,0 -1.5,-0.671 -1.5,-1.5 V 0 c 0,-0.828427 0.6715,-1.5 1.5,-1.5 H 0 Z m 137.567,518.9 -4.5,9 -4.5,-9 z"
       fill="#0078d4"
       transform="matrix(-1,0,0,1,645.567,392.5)"
       id="path77" />
  </g>
</svg>
