<?xml version="1.0"?>
<svg xmlns="http://www.w3.org/2000/svg" xmlns:xlink="http://www.w3.org/1999/xlink" xmlns:ev="http://www.w3.org/2001/xml-events"    viewBox="40 40 464 603"    xml:space="preserve" color-interpolation-filters="sRGB" class="st10" width="1160" height="1508">
<rect x="0" y="0" width="1160" height="1508" fill="#ffffff" />
	<style type="text/css"><![CDATA[
		.st1 {fill:#ffffff;stroke:#0078d4;stroke-linecap:round;stroke-linejoin:round;stroke-width:0.24}
		.st2 {fill:#000000;font-family:Calibri;font-size:1.00001em}
		.st3 {fill:#0078d4;stroke:none;stroke-linecap:round;stroke-linejoin:round;stroke-width:0.24}
		.st4 {fill:#ffffff;font-family:Calibri;font-size:1.00001em}
		.st5 {font-size:1em}
		.st6 {fill:#ffffff}
		.st7 {stroke:#0078d4;stroke-linecap:round;stroke-linejoin:round;stroke-width:0.24}
		.st8 {marker-end:url(#mrkr13-68);stroke:#0078d4;stroke-linecap:round;stroke-linejoin:round;stroke-width:0.75}
		.st9 {fill:#0078d4;fill-opacity:1;stroke:#0078d4;stroke-opacity:1;stroke-width:0.22935779816514}
		.st10 {fill:none;fill-rule:evenodd;font-size:12px;overflow:visible;stroke-linecap:square;stroke-miterlimit:3}
	]]></style><style> a { pointer-events: none; } </style><style>a.rules_svg_anchor g:hover { opacity:0.8; cursor:pointer; }</style>
	<defs id="Markers">
		<g id="lend13">
			<path d="M 3 1 L 0 0 L 3 -1 L 3 1 " style="stroke:none" />
		</g>
		<marker id="mrkr13-68" class="st9" refX="-13.08" orient="auto" markerUnits="strokeWidth" overflow="visible">
			<use xlink:href="#lend13" transform="scale(-4.36,-4.36) " />
		</marker>
	</defs>
	<g>
		
		<g id="shape1-1" transform="translate(40.5,-702)">
			
			<desc>Start</desc>
			<path d="M18 792 L67.5 792 A18 18 -180 0 0 67.5 756 L18 756 A18 18 -180 1 0 18 792 Z" class="st1" />
			<text x="31.01" y="777.6" class="st2">Start</text>
		</g>
		<a id="5e9fd7d0-32db-44f2-ab16-542ac8ca57e5" class="rules_svg_anchor rules_svg_shape"   href="/lms/chart?onclick=b3BlbkNoYXJ0Q29udGV4dE1lbnUoZXZlbnQsJ3cxMjVkNTIzNTk2NWMxNzI4N3Y0MDc4JywyMzA1OSwgMSwgMSwgdGhpcywgd2luZG93LmZyYW1lRWxlbWVudCk=&amp;navigate=true&amp;details=Description">
			<g id="shape2-4" transform="translate(243,-688.5)">
				
				<desc>75.40 Procure goods and services</desc>
				<rect x="0" y="729" width="126" height="63" class="st3" />
				<text x="2.3" y="756.9" class="st4">75.40 Procure goods and <tspan x="43.62" dy="1.2em" class="st5">services</tspan>
				</text>
			</g>
		</a>
		<a id="ecfa1709-2f5f-4ccf-87c5-95d82571a156" class="rules_svg_anchor rules_svg_shape"   href="/lms/chart?onclick=b3BlbkNoYXJ0Q29udGV4dE1lbnUoZXZlbnQsJ3cxMjVkNTIzNTk2NWMxNzI4OHY0MDc4JywyMzA2MCwgMSwgMSwgdGhpcywgd2luZG93LmZyYW1lRWxlbWVudCk=&amp;navigate=true&amp;details=Description">
			<g id="shape3-8" transform="translate(243,-598.5)">
				
				<desc>75.40.010 Raise purchase requisitions</desc>
				<path d="M0 792 L126 792 L126 729 L0 729 L0 792 Z" class="st6" />
				<path d="M0 792 L126 792 L126 729 L0 729 L0 792" class="st7" />
				<path d="M9 792 L9 729" class="st7" />
				<path d="M117 792 L117 729" class="st7" />
				<text x="24.49" y="749.7" class="st2">75.40.010 Raise <tspan x="40.71" dy="1.2em" class="st5">purchase </tspan>
					<tspan x="34.47" dy="1.2em" class="st5">requisitions</tspan>
				</text>
			</g>
		</a>
		<a id="b108da28-c243-461d-82fd-0cd261d85006" class="rules_svg_anchor rules_svg_shape"   href="/lms/chart?onclick=b3BlbkNoYXJ0Q29udGV4dE1lbnUoZXZlbnQsJ3cxMjVkNTIzNTk2NWMxNzI5MHY0MDc4JywyMzA2MSwgMSwgMSwgdGhpcywgd2luZG93LmZyYW1lRWxlbWVudCk=&amp;navigate=true&amp;details=Description">
			<g id="shape4-16" transform="translate(333,-508.5)">
				
				<desc>75.40.030 Issue purchase orders</desc>
				<path d="M0 792 L126 792 L126 729 L0 729 L0 792 Z" class="st6" />
				<path d="M0 792 L126 792 L126 729 L0 729 L0 792" class="st7" />
				<path d="M9 792 L9 729" class="st7" />
				<path d="M117 792 L117 729" class="st7" />
				<text x="24.98" y="756.9" class="st2">75.40.030 Issue <tspan x="23.52" dy="1.2em" class="st5">purchase orders</tspan>
				</text>
			</g>
		</a>
		<a id="4da52e8c-4710-41f6-8058-94b633b9dbce" class="rules_svg_anchor rules_svg_shape"   href="/lms/chart?onclick=b3BlbkNoYXJ0Q29udGV4dE1lbnUoZXZlbnQsJ3cxMjVkNTIzNTk2NWMxNzI5MnY0MDc4JywyMzA2MiwgMSwgMSwgdGhpcywgd2luZG93LmZyYW1lRWxlbWVudCk=&amp;navigate=true&amp;details=Description">
			<g id="shape5-23" transform="translate(243,-418.5)">
				
				<desc>75.40.050 Manage open purchases</desc>
				<path d="M0 792 L126 792 L126 729 L0 729 L0 792 Z" class="st6" />
				<path d="M0 792 L126 792 L126 729 L0 729 L0 792" class="st7" />
				<path d="M9 792 L9 729" class="st7" />
				<path d="M117 792 L117 729" class="st7" />
				<text x="17.49" y="756.9" class="st2">75.40.050 Manage <tspan x="24.55" dy="1.2em" class="st5">open purchases</tspan>
				</text>
			</g>
		</a>
		<a id="d855fa94-1187-4920-b97a-e7a13a260617" class="rules_svg_anchor rules_svg_shape"   href="/lms/chart?onclick=b3BlbkNoYXJ0Q29udGV4dE1lbnUoZXZlbnQsJ3cxMjVkNTIzNTk2NWM1NTQwNHY0MDc4JywyMzA2NiwgMSwgMSwgdGhpcywgd2luZG93LmZyYW1lRWxlbWVudCk=&amp;navigate=true&amp;details=Description">
			<g id="shape6-30" transform="translate(243,-148.5)">
				
				<desc>75.40.100 Analyze supply purchase plan</desc>
				<path d="M0 792 L126 792 L126 729 L0 729 L0 792 Z" class="st6" />
				<path d="M0 792 L126 792 L126 729 L0 729 L0 792" class="st7" />
				<path d="M9 792 L9 729" class="st7" />
				<path d="M117 792 L117 729" class="st7" />
				<text x="18.38" y="756.9" class="st2">75.40.100 Analyze <tspan x="11.54" dy="1.2em" class="st5">supply purchase plan</tspan>
				</text>
			</g>
		</a>
		<a id="720ea165-8c25-4804-a1c9-7621be8f4149" class="rules_svg_anchor rules_svg_shape"   href="/lms/chart?onclick=b3BlbkNoYXJ0Q29udGV4dE1lbnUoZXZlbnQsJ3cxMjVkNTIzNTk2NWMxNzI5M3Y0MDc4JywyMzA2MywgMSwgMSwgdGhpcywgd2luZG93LmZyYW1lRWxlbWVudCk=&amp;navigate=true&amp;details=Description">
			<g id="shape7-37" transform="translate(153,-508.5)">
				
				<desc>75.40.060 Issue blanket purchase orders</desc>
				<path d="M0 792 L126 792 L126 729 L0 729 L0 792 Z" class="st6" />
				<path d="M0 792 L126 792 L126 729 L0 729 L0 792" class="st7" />
				<path d="M9 792 L9 729" class="st7" />
				<path d="M117 792 L117 729" class="st7" />
				<text x="24.98" y="749.7" class="st2">75.40.060 Issue <tspan x="21.07" dy="1.2em" class="st5">blanket purchase </tspan>
					<tspan x="47.17" dy="1.2em" class="st5">orders</tspan>
				</text>
			</g>
		</a>
		<a id="e1ec0ebc-6ed9-4d4b-bc82-1a8f3a583148" class="rules_svg_anchor rules_svg_shape"   href="/lms/chart?onclick=b3BlbkNoYXJ0Q29udGV4dE1lbnUoZXZlbnQsJ3cxMjVkNTIzNTk2NWM1NTQwMnY0MDc4JywyMzA2NSwgMSwgMSwgdGhpcywgd2luZG93LmZyYW1lRWxlbWVudCk=&amp;navigate=true&amp;details=Description">
			<g id="shape8-45" transform="translate(243,-238.5)">
				
				<desc>75.40.080 Consolidate requisitions</desc>
				<path d="M0 792 L126 792 L126 729 L0 729 L0 792 Z" class="st6" />
				<path d="M0 792 L126 792 L126 729 L0 729 L0 792" class="st7" />
				<path d="M9 792 L9 729" class="st7" />
				<path d="M117 792 L117 729" class="st7" />
				<text x="38.68" y="749.7" class="st2">75.40.080 <tspan x="34.2" dy="1.2em" class="st5">Consolidate </tspan>
					<tspan x="34.47" dy="1.2em" class="st5">requisitions</tspan>
				</text>
			</g>
		</a>
		<a id="ba4d1501-94c2-4e6b-9e69-897219907662" class="rules_svg_anchor rules_svg_shape"   href="/lms/chart?onclick=b3BlbkNoYXJ0Q29udGV4dE1lbnUoZXZlbnQsJ3cxMjVkNTIzNTk2NWMxNzI5NHY0MDc4JywyMzA2NCwgMSwgMSwgdGhpcywgd2luZG93LmZyYW1lRWxlbWVudCk=&amp;navigate=true&amp;details=Description">
			<g id="shape9-53" transform="translate(243,-328.5)">
				
				<desc>75.40.070 Return goods to suppliers</desc>
				<path d="M0 792 L126 792 L126 729 L0 729 L0 792 Z" class="st6" />
				<path d="M0 792 L126 792 L126 729 L0 729 L0 792" class="st7" />
				<path d="M9 792 L9 729" class="st7" />
				<path d="M117 792 L117 729" class="st7" />
				<text x="20.68" y="756.9" class="st2">75.40.070 Return <tspan x="18.48" dy="1.2em" class="st5">goods to suppliers</tspan>
				</text>
			</g>
		</a>
		<g id="shape10-60" transform="translate(418.5,-162)">
			
			<desc>End</desc>
			<path d="M18 792 L67.5 792 A18 18 -180 0 0 67.5 756 L18 756 A18 18 -180 1 0 18 792 Z" class="st1" />
			<text x="33.52" y="777.6" class="st2">End</text>
		</g>
		<g id="shape11-63" transform="translate(126,-711)">
			
			<path d="M0 783 L107.19 783" class="st8" />
		</g>
		<g id="shape12-69" transform="translate(297,-688.5)">
			
			<path d="M9 792 L9 809.19" class="st8" />
		</g>
		<g id="shape13-74" transform="translate(306,-598.5)">
			
			<path d="M0 792 L0 800.83 L-90 800.83 L-90 809.19" class="st8" />
		</g>
		<g id="shape14-79" transform="translate(306,-598.5)">
			
			<path d="M0 792 L0 800.83 L90 800.83 L90 809.19" class="st8" />
		</g>
		<g id="shape15-84" transform="translate(216,-508.5)">
			
			<path d="M0 792 L0 800.83 L90 800.83 L90 809.19" class="st8" />
		</g>
		<g id="shape16-89" transform="translate(396,-508.5)">
			
			<path d="M0 792 L0 800.83 L-90 800.83 L-90 809.19" class="st8" />
		</g>
		<g id="shape17-94" transform="translate(297,-418.5)">
			
			<path d="M9 792 L9 809.19" class="st8" />
		</g>
		<g id="shape18-99" transform="translate(297,-328.5)">
			
			<path d="M9 792 L9 809.19" class="st8" />
		</g>
		<g id="shape19-104" transform="translate(297,-238.5)">
			
			<path d="M9 792 L9 809.19" class="st8" />
		</g>
		<g id="shape20-109" transform="translate(369,-171)">
			
			<path d="M0 783 L39.69 783" class="st8" />
		</g>
	</g>
</svg>
