<?xml version="1.0"?>
<svg xmlns="http://www.w3.org/2000/svg" xmlns:xlink="http://www.w3.org/1999/xlink" xmlns:ev="http://www.w3.org/2001/xml-events"    viewBox="40 40 473 545"    xml:space="preserve" color-interpolation-filters="sRGB" class="st10" width="1183" height="1363">
<rect x="0" y="0" width="1183" height="1363" fill="#ffffff" />
	<style type="text/css"><![CDATA[
		.st1 {fill:#ffffff;stroke:#0078d4;stroke-linecap:round;stroke-linejoin:round;stroke-width:0.24}
		.st2 {fill:#000000;font-family:Calibri;font-size:1.00001em}
		.st3 {fill:#0078d4;stroke:none;stroke-linecap:round;stroke-linejoin:round;stroke-width:0.24}
		.st4 {fill:#ffffff;font-family:Calibri;font-size:1.00001em}
		.st5 {font-size:1em}
		.st6 {fill:#ffffff}
		.st7 {stroke:#0078d4;stroke-linecap:round;stroke-linejoin:round;stroke-width:0.24}
		.st8 {marker-end:url(#mrkr13-61);stroke:#0078d4;stroke-linecap:round;stroke-linejoin:round;stroke-width:0.75}
		.st9 {fill:#0078d4;fill-opacity:1;stroke:#0078d4;stroke-opacity:1;stroke-width:0.22935779816514}
		.st10 {fill:none;fill-rule:evenodd;font-size:12px;overflow:visible;stroke-linecap:square;stroke-miterlimit:3}
	]]></style><style> a { pointer-events: none; } </style><style>a.rules_svg_anchor g:hover { opacity:0.8; cursor:pointer; }</style>
	<defs id="Markers">
		<g id="lend13">
			<path d="M 3 1 L 0 0 L 3 -1 L 3 1 " style="stroke:none" />
		</g>
		<marker id="mrkr13-61" class="st9" refX="-13.08" orient="auto" markerUnits="strokeWidth" overflow="visible">
			<use xlink:href="#lend13" transform="scale(-4.36,-4.36) " />
		</marker>
	</defs>
	<g>
		
		<g id="shape1-1" transform="translate(40.5,-702)">
			
			<desc>Start</desc>
			<path d="M18 792 L67.5 792 A18 18 -180 0 0 67.5 756 L18 756 A18 18 -180 1 0 18 792 Z" class="st1" />
			<text x="31.01" y="777.6" class="st2">Start</text>
		</g>
		<a id="22d84db1-178f-4960-b03f-3c6127882706" class="rules_svg_anchor rules_svg_shape"   href="/lms/chart?onclick=b3BlbkNoYXJ0Q29udGV4dE1lbnUoZXZlbnQsJ3cxMjVkNTIzNTk2NWMxNzI3MHY0MDc4JywyMzAzNSwgMSwgMSwgdGhpcywgd2luZG93LmZyYW1lRWxlbWVudCk=&amp;navigate=true&amp;details=Description">
			<g id="shape2-4" transform="translate(234,-688.5)">
				
				<desc>75.10 Develop procurement and sourcing strategy</desc>
				<rect x="0" y="729" width="126" height="63" class="st3" />
				<text x="27.9" y="749.7" class="st4">75.10 Develop <tspan x="20.35" dy="1.2em" class="st5">procurement and </tspan>
					<tspan x="21.14" dy="1.2em" class="st5">sourcing strategy</tspan>
				</text>
			</g>
		</a>
		<a id="31c5cb4f-2e5e-41ac-94f6-3aa6e1b79196" class="rules_svg_anchor rules_svg_shape"   href="/lms/chart?onclick=b3BlbkNoYXJ0Q29udGV4dE1lbnUoZXZlbnQsJ3cxMjVkNTIzNTk2NWMxNzI3MXY0MDc4JywyMzAzOCwgMSwgMSwgdGhpcywgd2luZG93LmZyYW1lRWxlbWVudCk=&amp;navigate=true&amp;details=Description">
			<g id="shape3-9" transform="translate(387,-576)">
				
				<desc>75.10.010 Develop procurement policies</desc>
				<path d="M0 792 L126 792 L126 729 L0 729 L0 792 Z" class="st6" />
				<path d="M0 792 L126 792 L126 729 L0 729 L0 792" class="st7" />
				<path d="M9 792 L9 729" class="st7" />
				<path d="M117 792 L117 729" class="st7" />
				<text x="17.26" y="756.9" class="st2">75.10.010 Develop <tspan x="11.21" dy="1.2em" class="st5">procurement policies</tspan>
				</text>
			</g>
		</a>
		<a id="28eab420-ee3a-40d9-86ee-776584023a26" class="rules_svg_anchor rules_svg_shape"   href="/lms/chart?onclick=b3BlbkNoYXJ0Q29udGV4dE1lbnUoZXZlbnQsJ3cxMjVkNTIzNTk2NWM1NTI2MXY0MDc4JywyMzAzNiwgMSwgMSwgdGhpcywgd2luZG93LmZyYW1lRWxlbWVudCk=&amp;navigate=true&amp;details=Description">
			<g id="shape4-16" transform="translate(81,-576)">
				
				<desc>75.10.005 Develop procurement catalogs</desc>
				<path d="M0 792 L126 792 L126 729 L0 729 L0 792 Z" class="st6" />
				<path d="M0 792 L126 792 L126 729 L0 729 L0 792" class="st7" />
				<path d="M9 792 L9 729" class="st7" />
				<path d="M117 792 L117 729" class="st7" />
				<text x="17.26" y="749.7" class="st2">75.10.005 Develop <tspan x="30.88" dy="1.2em" class="st5">procurement </tspan>
					<tspan x="42.99" dy="1.2em" class="st5">catalogs</tspan>
				</text>
			</g>
		</a>
		<a id="a7bced07-be2b-4dd3-b7c3-97fbf86d3311" class="rules_svg_anchor rules_svg_shape"   href="/lms/chart?onclick=b3BlbkNoYXJ0Q29udGV4dE1lbnUoZXZlbnQsJ3cxMjVkNTIzNTk2NWM1NTI2NnY0MDc4JywyMzAzNywgMSwgMSwgdGhpcywgd2luZG93LmZyYW1lRWxlbWVudCk=&amp;navigate=true&amp;details=Description">
			<g id="shape5-24" transform="translate(234,-576)">
				
				<desc>75.10.008 Develop supplier segments</desc>
				<path d="M0 792 L126 792 L126 729 L0 729 L0 792 Z" class="st6" />
				<path d="M0 792 L126 792 L126 729 L0 729 L0 792" class="st7" />
				<path d="M9 792 L9 729" class="st7" />
				<path d="M117 792 L117 729" class="st7" />
				<text x="17.26" y="756.9" class="st2">75.10.008 Develop <tspan x="18.56" dy="1.2em" class="st5">supplier segments</tspan>
				</text>
			</g>
		</a>
		<a id="ead1015b-3f13-4096-b64d-9f982dcc58bf" class="rules_svg_anchor rules_svg_shape"   href="/lms/chart?onclick=b3BlbkNoYXJ0Q29udGV4dE1lbnUoZXZlbnQsJ3cxMjVkNTIzNTk2NWM1NTI3NXY0MDc4JywyMzAzOSwgMSwgMSwgdGhpcywgd2luZG93LmZyYW1lRWxlbWVudCk=&amp;navigate=true&amp;details=Description">
			<g id="shape6-31" transform="translate(234,-477)">
				
				<desc>75.10.015 Define accounts payable policies</desc>
				<path d="M0 792 L126 792 L126 729 L0 729 L0 792 Z" class="st6" />
				<path d="M0 792 L126 792 L126 729 L0 729 L0 792" class="st7" />
				<path d="M9 792 L9 729" class="st7" />
				<path d="M117 792 L117 729" class="st7" />
				<text x="21.3" y="749.7" class="st2">75.10.015 Define <tspan x="20.74" dy="1.2em" class="st5">accounts payable </tspan>
					<tspan x="44.68" dy="1.2em" class="st5">policies</tspan>
				</text>
			</g>
		</a>
		<a id="149a4a2a-ac55-4d31-bcf0-515c54255bd3" class="rules_svg_anchor rules_svg_shape"   href="/lms/chart?onclick=b3BlbkNoYXJ0Q29udGV4dE1lbnUoZXZlbnQsJ3cxMjVkNTIzNTk2NWM1NTI5M3Y0MDc4JywyMzA0MCwgMSwgMSwgdGhpcywgd2luZG93LmZyYW1lRWxlbWVudCk=&amp;navigate=true&amp;details=Description">
			<g id="shape7-39" transform="translate(234,-378)">
				
				<desc>75.10.060 Develop spend strategy</desc>
				<path d="M0 792 L126 792 L126 729 L0 729 L0 792 Z" class="st6" />
				<path d="M0 792 L126 792 L126 729 L0 729 L0 792" class="st7" />
				<path d="M9 792 L9 729" class="st7" />
				<path d="M117 792 L117 729" class="st7" />
				<text x="17.26" y="756.9" class="st2">75.10.060 Develop <tspan x="27" dy="1.2em" class="st5">spend strategy</tspan>
				</text>
			</g>
		</a>
		<a id="a48617fe-7973-46d7-8ee2-c18ba9b29569" class="rules_svg_anchor rules_svg_shape"   href="/lms/chart?onclick=b3BlbkNoYXJ0Q29udGV4dE1lbnUoZXZlbnQsJ3cxMjVkNTIzNTk2NWM1NTMwM3Y0MDc4JywyMzA0MSwgMSwgMSwgdGhpcywgd2luZG93LmZyYW1lRWxlbWVudCk=&amp;navigate=true&amp;details=Description">
			<g id="shape8-46" transform="translate(234,-279)">
				
				<desc>75.10.070 Analyze sourcing market</desc>
				<path d="M0 792 L126 792 L126 729 L0 729 L0 792 Z" class="st6" />
				<path d="M0 792 L126 792 L126 729 L0 729 L0 792" class="st7" />
				<path d="M9 792 L9 729" class="st7" />
				<path d="M117 792 L117 729" class="st7" />
				<text x="18.38" y="756.9" class="st2">75.10.070 Analyze <tspan x="23.52" dy="1.2em" class="st5">sourcing market</tspan>
				</text>
			</g>
		</a>
		<g id="shape9-53" transform="translate(254.25,-207)">
			
			<desc>End</desc>
			<path d="M18 792 L67.5 792 A18 18 -180 0 0 67.5 756 L18 756 A18 18 -180 1 0 18 792 Z" class="st1" />
			<text x="33.52" y="777.6" class="st2">End</text>
		</g>
		<g id="shape10-56" transform="translate(126,-711)">
			
			<path d="M0 783 L98.19 783" class="st8" />
		</g>
		<g id="shape11-62" transform="translate(288,-688.5)">
			
			<path d="M9 792 L9 831.69" class="st8" />
		</g>
		<g id="shape12-67" transform="translate(297,-688.5)">
			
			<path d="M0 792 L0 810.5 L-153 810.5 L-153 831.69" class="st8" />
		</g>
		<g id="shape13-72" transform="translate(297,-688.5)">
			
			<path d="M0 792 L0 810.5 L153 810.5 L153 831.69" class="st8" />
		</g>
		<g id="shape14-77" transform="translate(288,-576)">
			
			<path d="M9 792 L9 818.19" class="st8" />
		</g>
		<g id="shape15-82" transform="translate(288,-477)">
			
			<path d="M9 792 L9 818.19" class="st8" />
		</g>
		<g id="shape16-87" transform="translate(288,-378)">
			
			<path d="M9 792 L9 818.19" class="st8" />
		</g>
		<g id="shape17-92" transform="translate(144,-576)">
			
			<path d="M0 792 L0 810.34 L153 810.34 L153 818.19" class="st8" />
		</g>
		<g id="shape18-97" transform="translate(450,-576)">
			
			<path d="M0 792 L0 810.34 L-153 810.34 L-153 818.19" class="st8" />
		</g>
		<g id="shape19-102" transform="translate(288,-279)">
			
			<path d="M9 792 L9 818.19" class="st8" />
		</g>
	</g>
</svg>
