<?xml version="1.0"?>
<svg xmlns="http://www.w3.org/2000/svg" xmlns:xlink="http://www.w3.org/1999/xlink" xmlns:ev="http://www.w3.org/2001/xml-events"    viewBox="7 22 740 725"    xml:space="preserve" color-interpolation-filters="sRGB" class="st11" width="1850" height="1813">
<rect x="0" y="0" width="1850" height="1813" fill="#ffffff" />
	<style type="text/css"><![CDATA[
		.st1 {fill:#ffffff;stroke:#0078d4;stroke-linecap:round;stroke-linejoin:round;stroke-width:0.24}
		.st2 {fill:#000000;font-family:Calibri;font-size:1.00001em}
		.st3 {fill:#ffffff}
		.st4 {stroke:#0078d4;stroke-linecap:round;stroke-linejoin:round;stroke-width:0.24}
		.st5 {font-size:1em}
		.st6 {fill:#0078d4;stroke:none;stroke-linecap:round;stroke-linejoin:round;stroke-width:0.24}
		.st7 {fill:#ffffff;font-family:Calibri;font-size:1.00001em}
		.st8 {fill:#a0a0a0;stroke:none;stroke-linecap:round;stroke-linejoin:round;stroke-width:0.24}
		.st9 {marker-end:url(#mrkr13-113);stroke:#0078d4;stroke-linecap:round;stroke-linejoin:round;stroke-width:0.75}
		.st10 {fill:#0078d4;fill-opacity:1;stroke:#0078d4;stroke-opacity:1;stroke-width:0.22935779816514}
		.st11 {fill:none;fill-rule:evenodd;font-size:12px;overflow:visible;stroke-linecap:square;stroke-miterlimit:3}
	]]></style><style> a { pointer-events: none; } </style><style>a.rules_svg_anchor g:hover { opacity:0.8; cursor:pointer; }</style>
	<defs id="Markers">
		<g id="lend13">
			<path d="M 3 1 L 0 0 L 3 -1 L 3 1 " style="stroke:none" />
		</g>
		<marker id="mrkr13-113" class="st10" refX="-13.08" orient="auto" markerUnits="strokeWidth" overflow="visible">
			<use xlink:href="#lend13" transform="scale(-4.36,-4.36) " />
		</marker>
	</defs>
	<g>
		
		<g id="shape1-1" transform="translate(81,-1116)">
			
			<desc>Start</desc>
			<path d="M18 1188 L60.75 1188 A18 18 -180 0 0 60.75 1152 L18 1152 A18 18 -180 1 0 18 1188 Z" class="st1" />
			<text x="27.63" y="1173.6" class="st2">Start</text>
		</g>
		<a id="4862f127-92f5-451a-b1af-f4725f71bc6a" class="rules_svg_anchor rules_svg_shape"   href="/lms/chart?onclick=b3BlbkNoYXJ0Q29udGV4dE1lbnUoZXZlbnQsJ3cxMjVkNTIzNTk2NWMxNzI4MnY0MDc4JywyMzA0MiwgMSwgMSwgdGhpcywgd2luZG93LmZyYW1lRWxlbWVudCk=&amp;navigate=true&amp;details=Description">
			<g id="shape3-4" transform="translate(210.375,-1017)">
				
				<desc>75.30 Manage supplier relationships</desc>
				<path d="M0 1188 L99 1188 L99 1125 L0 1125 L0 1188 Z" class="st3" />
				<path d="M0 1188 L99 1188 L99 1125 L0 1125 L0 1188" class="st4" />
				<path d="M9 1188 L9 1125" class="st4" />
				<path d="M90 1188 L90 1125" class="st4" />
				<text x="14.62" y="1145.7" class="st2">75.30 Manage <tspan x="29.86" dy="1.2em" class="st5">supplier </tspan>
					<tspan x="18.09" dy="1.2em" class="st5">relationships</tspan>
				</text>
			</g>
		</a>
		<a id="98f0df1f-90ce-4296-93a9-64cd6c03041e" class="rules_svg_anchor rules_svg_shape"   href="/lms/chart?onclick=b3BlbkNoYXJ0Q29udGV4dE1lbnUoZXZlbnQsJ3cxMjVkNTIzNTk2NWMxNzI3MHY0MDc4JywyMzAzNSwgMSwgMSwgdGhpcywgd2luZG93LmZyYW1lRWxlbWVudCk=&amp;navigate=true&amp;details=Description">
			<g id="shape4-12" transform="translate(392.625,-1012.5)">
				
				<desc>75.10 Develop procurement and sourcing strategy</desc>
				<path d="M0 1188 L99 1188 L99 1125 L0 1125 L0 1188 Z" class="st3" />
				<path d="M0 1188 L99 1188 L99 1125 L0 1125 L0 1188" class="st4" />
				<path d="M9 1188 L9 1125" class="st4" />
				<path d="M90 1188 L90 1125" class="st4" />
				<text x="14.4" y="1138.5" class="st2">75.10 Develop <tspan x="17.38" dy="1.2em" class="st5">procurement </tspan>
					<tspan x="18.32" dy="1.2em" class="st5">and sourcing </tspan>
					<tspan x="29.64" dy="1.2em" class="st5">strategy</tspan>
				</text>
			</g>
		</a>
		<a id="27202ff7-7c78-46de-90de-c668bec28254" class="rules_svg_anchor rules_svg_shape"   href="/lms/chart?onclick=b3BlbkNoYXJ0Q29udGV4dE1lbnUoZXZlbnQsJ3cxMjVkNTIzNTk2NWMxNzI2OXY0MDc4JywyMzAzNCwgMSwgMSwgdGhpcywgd2luZG93LmZyYW1lRWxlbWVudCk=&amp;navigate=true&amp;details=Description">
			<g id="shape7-21" transform="translate(308.25,-1102.5)">
				
				<desc>75 Source to pay</desc>
				<rect x="0" y="1125" width="99" height="63" class="st6" />
				<text x="8.74" y="1160.1" class="st7">75 Source to pay</text>
			</g>
		</a>
		<a id="8ad44338-cbf4-48e2-b5ce-079a47ab630a" class="rules_svg_anchor rules_svg_shape"   href="/lms/chart?onclick=b3BlbkNoYXJ0Q29udGV4dE1lbnUoZXZlbnQsJ3cxMjVkNTIzNTk2NWMxNjgwMnY0MDc4JywyMjYyMCwgMSwgNCwgdGhpcywgd2luZG93LmZyYW1lRWxlbWVudCk=&amp;navigate=true&amp;details=Description">
			<g id="shape8-24" transform="translate(668.25,-1066.5)">
				
				<desc>10 Acquire to dispose</desc>
				<rect x="0" y="1125" width="78.75" height="63" class="st8" />
				<text x="6.64" y="1152.9" class="st2">10 Acquire to <tspan x="20.85" dy="1.2em" class="st5">dispose</tspan>
				</text>
			</g>
		</a>
		<a id="df42a493-6445-41f7-b787-ea41efbf2aed" class="rules_svg_anchor rules_svg_shape"   href="/lms/chart?onclick=b3BlbkNoYXJ0Q29udGV4dE1lbnUoZXZlbnQsJ3cxMjVkNTIzNTk2NWMxNzM3NnY0MDc4JywyMzEyNiwgMSwgMSwgdGhpcywgd2luZG93LmZyYW1lRWxlbWVudCk=&amp;navigate=true&amp;details=Description">
			<g id="shape9-28" transform="translate(45,-855)">
				
				<desc>85 Prospect to quote</desc>
				<rect x="0" y="1125" width="78.75" height="63" class="st8" />
				<text x="4.02" y="1152.9" class="st2">85 Prospect to <tspan x="24.91" dy="1.2em" class="st5">quote</tspan>
				</text>
			</g>
		</a>
		<a id="d3406253-28b5-44fc-b7bb-6ee719de6d46" class="rules_svg_anchor rules_svg_shape"   href="/lms/chart?onclick=b3BlbkNoYXJ0Q29udGV4dE1lbnUoZXZlbnQsJ3cxMjVkNTIzNTk2NWMxNzE1NXY0MDc4JywyMjk1MiwgMSwgMSwgdGhpcywgd2luZG93LmZyYW1lRWxlbWVudCk=&amp;navigate=true&amp;details=Description">
			<g id="shape10-32" transform="translate(45,-774)">
				
				<desc>65 Order to cash</desc>
				<rect x="0" y="1125" width="78.75" height="63" class="st8" />
				<text x="11.11" y="1152.9" class="st2">65 Order to <tspan x="28.46" dy="1.2em" class="st5">cash</tspan>
				</text>
			</g>
		</a>
		<a id="088a20d4-a2a7-408c-ba71-d9cfdf3530c9" class="rules_svg_anchor rules_svg_shape"   href="/lms/chart?onclick=b3BlbkNoYXJ0Q29udGV4dE1lbnUoZXZlbnQsJ3cxMjVkNTIzNTk2NWMxNjk5MnY0MDc4JywyMjc4OSwgMSwgMSwgdGhpcywgd2luZG93LmZyYW1lRWxlbWVudCk=&amp;navigate=true&amp;details=Description">
			<g id="shape11-36" transform="translate(45,-693)">
				
				<desc>50 Forecast to plan</desc>
				<rect x="0" y="1125" width="78.75" height="63" class="st8" />
				<text x="4.64" y="1152.9" class="st2">50 Forecast to <tspan x="28.82" dy="1.2em" class="st5">plan</tspan>
				</text>
			</g>
		</a>
		<a id="d7199fa3-ffc8-4045-9271-9e9f3e2337a4" class="rules_svg_anchor rules_svg_shape"   href="/lms/chart?onclick=b3BlbkNoYXJ0Q29udGV4dE1lbnUoZXZlbnQsJ3cxMjVkNTIzNTk2NWMxNzMxOXY0MDc4JywyMzA4MywgMSwgMSwgdGhpcywgd2luZG93LmZyYW1lRWxlbWVudCk=&amp;navigate=true&amp;details=Description">
			<g id="shape12-40" transform="translate(45,-612)">
				
				<desc>80 Project to profit</desc>
				<rect x="0" y="1125" width="78.75" height="63" class="st8" />
				<text x="8.08" y="1152.9" class="st2">80 Project to <tspan x="25.75" dy="1.2em" class="st5">profit</tspan>
				</text>
			</g>
		</a>
		<a id="5a0d18cd-9f8d-42e5-b427-c2727fee568f" class="rules_svg_anchor rules_svg_shape"   href="/lms/chart?onclick=b3BlbkNoYXJ0Q29udGV4dE1lbnUoZXZlbnQsJ3cxMjVkNTIzNTk2NWM1NTM0NXY0MDc4JywyMzA1MSwgMSwgMSwgdGhpcywgd2luZG93LmZyYW1lRWxlbWVudCk=&amp;navigate=true&amp;details=Description">
			<g id="shape13-44" transform="translate(308.25,-891)">
				
				<desc>75.35 Source and contract goods and services</desc>
				<path d="M0 1188 L99 1188 L99 1125 L0 1125 L0 1188 Z" class="st3" />
				<path d="M0 1188 L99 1188 L99 1125 L0 1125 L0 1188" class="st4" />
				<path d="M9 1188 L9 1125" class="st4" />
				<path d="M90 1188 L90 1125" class="st4" />
				<text x="17.78" y="1138.5" class="st2">75.35 Source <tspan x="18.59" dy="1.2em" class="st5">and contract </tspan>
					<tspan x="24.31" dy="1.2em" class="st5">goods and </tspan>
					<tspan x="30.12" dy="1.2em" class="st5">services</tspan>
				</text>
			</g>
		</a>
		<a id="76f82259-66cd-427a-9129-893dd777697b" class="rules_svg_anchor rules_svg_shape"   href="/lms/chart?onclick=b3BlbkNoYXJ0Q29udGV4dE1lbnUoZXZlbnQsJ3cxMjVkNTIzNTk2NWMxNzI4N3Y0MDc4JywyMzA1OSwgMSwgMSwgdGhpcywgd2luZG93LmZyYW1lRWxlbWVudCk=&amp;navigate=true&amp;details=Description">
			<g id="shape14-53" transform="translate(308.25,-792)">
				
				<desc>75.40 Procure goods and services</desc>
				<path d="M0 1188 L99 1188 L99 1125 L0 1125 L0 1188 Z" class="st3" />
				<path d="M0 1188 L99 1188 L99 1125 L0 1125 L0 1188" class="st4" />
				<path d="M9 1188 L9 1125" class="st4" />
				<path d="M90 1188 L90 1125" class="st4" />
				<text x="15.34" y="1145.7" class="st2">75.40 Procure <tspan x="24.31" dy="1.2em" class="st5">goods and </tspan>
					<tspan x="30.12" dy="1.2em" class="st5">services</tspan>
				</text>
			</g>
		</a>
		<a id="740251e0-0df0-48ac-9a65-7ba717f5a15d" class="rules_svg_anchor rules_svg_shape"   href="/lms/chart?onclick=b3BlbkNoYXJ0Q29udGV4dE1lbnUoZXZlbnQsJ3cxMjVkNTIzNTk2NWMxNzI5NXY0MDc4JywyMzA2NywgMSwgMSwgdGhpcywgd2luZG93LmZyYW1lRWxlbWVudCk=&amp;navigate=true&amp;details=Description">
			<g id="shape15-61" transform="translate(308.25,-693)">
				
				<desc>75.50 Manage accounts payable</desc>
				<path d="M0 1188 L99 1188 L99 1125 L0 1125 L0 1188 Z" class="st3" />
				<path d="M0 1188 L99 1188 L99 1125 L0 1125 L0 1188" class="st4" />
				<path d="M9 1188 L9 1125" class="st4" />
				<path d="M90 1188 L90 1125" class="st4" />
				<text x="14.62" y="1145.7" class="st2">75.50 Manage <tspan x="27.73" dy="1.2em" class="st5">accounts </tspan>
					<tspan x="30.37" dy="1.2em" class="st5">payable</tspan>
				</text>
			</g>
		</a>
		<a id="ee4ca630-079b-4b68-8849-c22efd4fda99" class="rules_svg_anchor rules_svg_shape"   href="/lms/chart?onclick=b3BlbkNoYXJ0Q29udGV4dE1lbnUoZXZlbnQsJ3cxMjVkNTIzNTk2NWM1NjQ5MXY0MDc4JywyMzA3NiwgMSwgMSwgdGhpcywgd2luZG93LmZyYW1lRWxlbWVudCk=&amp;navigate=true&amp;details=Description">
			<g id="shape20-69" transform="translate(308.25,-580.5)">
				
				<desc>75.80 Analyze procurement and sourcing</desc>
				<path d="M0 1188 L99 1188 L99 1125 L0 1125 L0 1188 Z" class="st3" />
				<path d="M0 1188 L99 1188 L99 1125 L0 1125 L0 1188" class="st4" />
				<path d="M9 1188 L9 1125" class="st4" />
				<path d="M90 1188 L90 1125" class="st4" />
				<text x="15.52" y="1145.7" class="st2">75.80 Analyze <tspan x="17.38" dy="1.2em" class="st5">procurement </tspan>
					<tspan x="18.32" dy="1.2em" class="st5">and sourcing</tspan>
				</text>
			</g>
		</a>
		<a id="bf7820ad-8621-4055-9f3c-9bf6d1abba8b" class="rules_svg_anchor rules_svg_shape"   href="/lms/chart?onclick=b3BlbkNoYXJ0Q29udGV4dE1lbnUoZXZlbnQsJ3cxMjVkNTIzNTk2NWMxNzIzMHY0MDc4JywyMjk5OCwgMSwgMSwgdGhpcywgd2luZG93LmZyYW1lRWxlbWVudCk=&amp;navigate=true&amp;details=Description">
			<g id="shape21-77" transform="translate(668.25,-976.5)">
				
				<desc>70 Plan to produce</desc>
				<rect x="0" y="1125" width="78.75" height="63" class="st8" />
				<text x="14.9" y="1152.9" class="st2">70 Plan to <tspan x="19.14" dy="1.2em" class="st5">produce</tspan>
				</text>
			</g>
		</a>
		<a id="f29a5699-ee74-445c-8883-426ed65729aa" class="rules_svg_anchor rules_svg_shape"   href="/lms/chart?onclick=b3BlbkNoYXJ0Q29udGV4dE1lbnUoZXZlbnQsJ3cxMjVkNTIzNTk2NWMxNzA5M3Y0MDc4JywyMjkwMywgMSwgMSwgdGhpcywgd2luZG93LmZyYW1lRWxlbWVudCk=&amp;navigate=true&amp;details=Description">
			<g id="shape22-81" transform="translate(668.25,-886.5)">
				
				<desc>60 Inventory to deliver</desc>
				<rect x="0" y="1125" width="78.75" height="63" class="st8" />
				<text x="8.44" y="1152.9" class="st2">60 Inventory <tspan x="16.17" dy="1.2em" class="st5">to deliver</tspan>
				</text>
			</g>
		</a>
		<a id="108304ed-3f3c-4922-9d74-83500831d5d3" class="rules_svg_anchor rules_svg_shape"   href="/lms/chart?onclick=b3BlbkNoYXJ0Q29udGV4dE1lbnUoZXZlbnQsJ3cxMjVkNTIzNTk2NWMxNzE1NXY0MDc4JywyMjk1MiwgMSwgMSwgdGhpcywgd2luZG93LmZyYW1lRWxlbWVudCk=&amp;navigate=true&amp;details=Description">
			<g id="shape23-85" transform="translate(668.25,-792)">
				
				<desc>65 Order to cash</desc>
				<rect x="0" y="1125" width="78.75" height="63" class="st8" />
				<text x="11.11" y="1152.9" class="st2">65 Order to <tspan x="28.46" dy="1.2em" class="st5">cash</tspan>
				</text>
			</g>
		</a>
		<a id="6422afc5-5392-41bf-969e-686e9eb7b67f" class="rules_svg_anchor rules_svg_shape"   href="/lms/chart?onclick=b3BlbkNoYXJ0Q29udGV4dE1lbnUoZXZlbnQsJ3cxMjVkNTIzNTk2NWMxNjk5MnY0MDc4JywyMjc4OSwgMSwgMSwgdGhpcywgd2luZG93LmZyYW1lRWxlbWVudCk=&amp;navigate=true&amp;details=Description">
			<g id="shape24-89" transform="translate(668.25,-702)">
				
				<desc>50 Forecast to plan</desc>
				<rect x="0" y="1125" width="78.75" height="63" class="st8" />
				<text x="4.64" y="1152.9" class="st2">50 Forecast to <tspan x="28.82" dy="1.2em" class="st5">plan</tspan>
				</text>
			</g>
		</a>
		<a id="e7dbf608-a351-4c46-9d40-9596873d8ec3" class="rules_svg_anchor rules_svg_shape"   href="/lms/chart?onclick=b3BlbkNoYXJ0Q29udGV4dE1lbnUoZXZlbnQsJ3cxMjVkNTIzNTk2NWMxNzQ5NnY0MDc4JywyMzE4NywgMSwgMSwgdGhpcywgd2luZG93LmZyYW1lRWxlbWVudCk=&amp;navigate=true&amp;details=Description">
			<g id="shape25-93" transform="translate(668.25,-612)">
				
				<desc>95 Service to deliver</desc>
				<rect x="0" y="1125" width="78.75" height="63" class="st8" />
				<text x="7.96" y="1152.9" class="st2">95 Service to <tspan x="22.7" dy="1.2em" class="st5">deliver</tspan>
				</text>
			</g>
		</a>
		<a id="d75fbc5f-e41a-434c-a02a-27ad209aeecd" class="rules_svg_anchor rules_svg_shape"   href="/lms/chart?onclick=b3BlbkNoYXJ0Q29udGV4dE1lbnUoZXZlbnQsJ3cxMjVkNTIzNTk2NWMxNzMxOXY0MDc4JywyMzA4MywgMSwgMSwgdGhpcywgd2luZG93LmZyYW1lRWxlbWVudCk=&amp;navigate=true&amp;details=Description">
			<g id="shape26-97" transform="translate(668.25,-531)">
				
				<desc>80 Project to profit</desc>
				<rect x="0" y="1125" width="78.75" height="63" class="st8" />
				<text x="8.08" y="1152.9" class="st2">80 Project to <tspan x="25.75" dy="1.2em" class="st5">profit</tspan>
				</text>
			</g>
		</a>
		<a id="b03cb473-1275-488e-bf86-76584621f7cc" class="rules_svg_anchor rules_svg_shape"   href="/lms/chart?onclick=b3BlbkNoYXJ0Q29udGV4dE1lbnUoZXZlbnQsJ3cxMjVkNTIzNTk2NWMxNzQxMnY0MDc4JywyMzEzMiwgMSwgMSwgdGhpcywgd2luZG93LmZyYW1lRWxlbWVudCk=&amp;navigate=true&amp;details=Description">
			<g id="shape27-101" transform="translate(668.25,-441)">
				
				<desc>90 Record to report</desc>
				<rect x="0" y="1125" width="78.75" height="63" class="st8" />
				<text x="8.22" y="1152.9" class="st2">90 Record to <tspan x="23.88" dy="1.2em" class="st5">report</tspan>
				</text>
			</g>
		</a>
		<g id="shape29-105" transform="translate(318.375,-468)">
			
			<desc>End</desc>
			<path d="M18 1188 L60.75 1188 A18 18 -180 0 0 60.75 1152 L18 1152 A18 18 -180 1 0 18 1188 Z" class="st1" />
			<text x="30.14" y="1173.6" class="st2">End</text>
		</g>
		<g id="shape30-108" transform="translate(159.75,-1125)">
			
			<path d="M0 1179 L68.62 1179 L68.62 1179 L138.69 1179" class="st9" />
		</g>
		<g id="shape31-114" transform="translate(357.75,-1102.5)">
			
			<path d="M0 1188 L0 1196.83 L84.38 1196.83 L84.38 1205.19" class="st9" />
		</g>
		<g id="shape32-119" transform="translate(357.75,-1102.5)">
			
			<path d="M0 1188 L0 1196.83 L-97.87 1196.83 L-97.87 1200.69" class="st9" />
		</g>
		<g id="shape36-124" transform="translate(81,-1134)">
			
			<path d="M0 1188 L-53.66 1188 L-53.66 1435.5 L-45.81 1435.5" class="st9" />
		</g>
		<g id="shape37-129" transform="translate(81,-1134)">
			
			<path d="M0 1188 L-53.66 1188 L-53.66 1516.5 L-45.81 1516.5" class="st9" />
		</g>
		<g id="shape38-134" transform="translate(81,-1134)">
			
			<path d="M0 1188 L-53.66 1188 L-53.66 1597.5 L-45.81 1597.5" class="st9" />
		</g>
		<g id="shape39-139" transform="translate(81,-1134)">
			
			<path d="M0 1188 L-53.66 1188 L-53.66 1678.5 L-45.81 1678.5" class="st9" />
		</g>
		<g id="shape40-144" transform="translate(123.75,-643.5)">
			
			<path d="M0 1188 L61.93 1188 L61.93 909 L174.69 909" class="st9" />
		</g>
		<g id="shape41-149" transform="translate(123.75,-724.5)">
			
			<path d="M0 1188 L61.93 1188 L61.93 990 L174.69 990" class="st9" />
		</g>
		<g id="shape42-154" transform="translate(123.75,-805.5)">
			
			<path d="M0 1188 L61.93 1188 L61.93 1071 L174.69 1071" class="st9" />
		</g>
		<g id="shape43-159" transform="translate(123.75,-886.5)">
			
			<path d="M0 1188 L61.93 1188 L61.93 1152 L174.69 1152" class="st9" />
		</g>
		<g id="shape45-164" transform="translate(259.875,-1017)">
			
			<path d="M0 1188 L0 1211.63 L97.87 1211.63 L97.87 1241.19" class="st9" />
		</g>
		<g id="shape46-169" transform="translate(442.125,-1012.5)">
			
			<path d="M0 1188 L0 1207.5 L-84.38 1207.5 L-84.38 1236.69" class="st9" />
		</g>
		<g id="shape49-174" transform="translate(348.75,-891)">
			
			<path d="M9 1188 L9 1206 L9 1214.19" class="st9" />
		</g>
		<g id="shape50-179" transform="translate(348.75,-792)">
			
			<path d="M9 1188 L9 1206 L9 1214.19" class="st9" />
		</g>
		<g id="shape53-184" transform="translate(407.25,-823.5)">
			
			<path d="M0 1188 L243.34 1188 L243.34 913.5 L251.19 913.5" class="st9" />
		</g>
		<g id="shape54-189" transform="translate(407.25,-823.5)">
			
			<path d="M0 1188 L243.34 1188 L243.34 1003.5 L251.19 1003.5" class="st9" />
		</g>
		<g id="shape55-194" transform="translate(407.25,-823.5)">
			
			<path d="M0 1188 L243.34 1188 L243.34 1093.5 L251.19 1093.5" class="st9" />
		</g>
		<g id="shape56-199" transform="translate(407.25,-814.5)">
			
			<path d="M0 1179 L240.34 1179 A3 3 0 1 1 246.34 1179 L251.19 1179" class="st9" />
		</g>
		<g id="shape57-204" transform="translate(407.25,-823.5)">
			
			<path d="M0 1188 L243.34 1188 L243.34 1368 L251.19 1368" class="st9" />
		</g>
		<g id="shape58-209" transform="translate(407.25,-823.5)">
			
			<path d="M0 1188 L17.66 1188 L17.66 1449 L251.19 1449" class="st9" />
		</g>
		<g id="shape59-214" transform="translate(407.25,-612)">
			
			<path d="M0 1188 L17.66 1188 L17.66 1327.5 L251.19 1327.5" class="st9" />
		</g>
		<g id="shape64-219" transform="translate(348.75,-693)">
			
			<path d="M9 1188 L9 1227.69" class="st9" />
		</g>
		<g id="shape69-224" transform="translate(407.25,-724.5)">
			
			<path d="M0 1188 L17.66 1188 L17.66 1440 L251.19 1440" class="st9" />
		</g>
		<g id="shape70-229" transform="translate(407.25,-922.5)">
			
			<path d="M0 1188 L243.34 1188 L243.34 1377 L251.19 1377" class="st9" />
		</g>
		<g id="shape71-234" transform="translate(366.75,-580.5)">
			
			<path d="M-9 1188 L-9 1254.69" class="st9" />
		</g>
	</g>
</svg>
