<?xml version="1.0" encoding="UTF-8" standalone="no"?>
<svg
   width="1898.0511"
   height="1904.3223"
   overflow="hidden"
   version="1.1"
   id="svg105"
   sodipodi:docname="source-to-pay-issue-settle-vendor-payments-flow.svg"
   inkscape:version="1.3.2 (091e20e, 2023-11-25, custom)"
   xmlns:inkscape="http://www.inkscape.org/namespaces/inkscape"
   xmlns:sodipodi="http://sodipodi.sourceforge.net/DTD/sodipodi-0.dtd"
   xmlns="http://www.w3.org/2000/svg"
   xmlns:svg="http://www.w3.org/2000/svg">
  <defs
     id="defs105" />
  <sodipodi:namedview
     id="namedview105"
     pagecolor="#ffffff"
     bordercolor="#000000"
     borderopacity="0.25"
     inkscape:showpageshadow="2"
     inkscape:pageopacity="0.0"
     inkscape:pagecheckerboard="0"
     inkscape:deskcolor="#d1d1d1"
     inkscape:zoom="0.95677083"
     inkscape:cx="937.52858"
     inkscape:cy="944.32226"
     inkscape:window-width="3840"
     inkscape:window-height="2054"
     inkscape:window-x="2869"
     inkscape:window-y="-11"
     inkscape:window-maximized="1"
     inkscape:current-layer="svg105" />
  <g
     id="g105"
     transform="translate(-21.94883,-15.677735)">
    <rect
       x="21.94883"
       y="15.677735"
       width="1898.0511"
       height="1904.3223"
       fill="#ffffff"
       id="rect1"
       style="stroke-width:0.9902" />
    <rect
       x="710.5"
       y="23.500099"
       width="911"
       height="1883"
       stroke="#0078d4"
       stroke-width="3"
       stroke-linejoin="round"
       stroke-miterlimit="10"
       fill="#d9d9d9"
       id="rect2" />
    <text
       fill="#0078d4"
       font-family="'Segoe UI', 'Segoe UI_MSFontService', sans-serif"
       font-weight="700"
       font-size="32px"
       transform="translate(738.772,77)"
       id="text2">Business process area</text>
    <path
       d="M 67,67 C 67,42.6995 86.6994,23 111,23 h 162 c 24.301,0 44,19.6995 44,44 v 0 c 0,24.3005 -19.699,44 -44,44 H 111 C 86.6994,111 67,91.3005 67,67 Z"
       stroke="#0078d4"
       stroke-width="2"
       stroke-linejoin="round"
       stroke-miterlimit="10"
       fill="none"
       fill-rule="evenodd"
       id="path2" />
    <text
       font-family="'Segoe UI', 'Segoe UI_MSFontService', sans-serif"
       font-weight="400"
       font-size="24px"
       transform="translate(166.923,76)"
       id="text3">Start</text>
    <rect
       x="59"
       y="247"
       width="265"
       height="154"
       fill="#a0a0a0"
       id="rect3" />
    <text
       font-family="'Segoe UI', 'Segoe UI_MSFontService', sans-serif"
       font-weight="400"
       font-size="24px"
       transform="translate(110.111,333)"
       id="text4">Design to retire</text>
    <rect
       x="59"
       y="675"
       width="265"
       height="153"
       fill="#a0a0a0"
       id="rect4" />
    <text
       font-family="'Segoe UI', 'Segoe UI_MSFontService', sans-serif"
       font-weight="400"
       font-size="24px"
       transform="translate(119.277,760)"
       id="text5">Source</text>
    <text
       font-family="'Segoe UI', 'Segoe UI_MSFontService', sans-serif"
       font-weight="400"
       font-size="24px"
       transform="translate(197.797,760)"
       id="text6">to pay</text>
    <rect
       x="1324"
       y="924"
       width="264"
       height="153"
       fill="#ffffff"
       id="rect6" />
    <path
       d="m 1357,924 v 153 m 198,-153 v 153"
       stroke="#0078d4"
       stroke-width="2"
       stroke-linejoin="round"
       stroke-miterlimit="10"
       fill="none"
       fill-rule="evenodd"
       id="path6" />
    <rect
       x="1324"
       y="924"
       width="264"
       height="153"
       stroke="#0078d4"
       stroke-width="2"
       stroke-linejoin="round"
       stroke-miterlimit="10"
       fill="none"
       id="rect7" />
    <text
       font-family="'Segoe UI', 'Segoe UI_MSFontService', sans-serif"
       font-weight="400"
       font-size="24px"
       transform="translate(1408.09,980)"
       id="text7">Generate</text>
    <text
       font-family="'Segoe UI', 'Segoe UI_MSFontService', sans-serif"
       font-weight="400"
       font-size="24px"
       transform="translate(1409.66,1009)"
       id="text8">and post</text>
    <text
       font-family="'Segoe UI', 'Segoe UI_MSFontService', sans-serif"
       font-weight="400"
       font-size="24px"
       transform="translate(1387.39,1038)"
       id="text9">prepayments</text>
    <rect
       x="1252"
       y="46"
       width="264"
       height="153"
       fill="#0078d4"
       id="rect9" />
    <text
       fill="#ffffff"
       font-family="'Segoe UI', 'Segoe UI_MSFontService', sans-serif"
       font-weight="400"
       font-size="24px"
       transform="translate(1302.73,117)"
       id="text10">Issue and settle</text>
    <text
       fill="#ffffff"
       font-family="'Segoe UI', 'Segoe UI_MSFontService', sans-serif"
       font-weight="400"
       font-size="24px"
       transform="translate(1292.62,146)"
       id="text11">vendor payments</text>
    <path
       d="m 1652,1852 c 0,-19.88 16.12,-36 36,-36 h 177 c 19.88,0 36,16.12 36,36 v 0 c 0,19.88 -16.12,36 -36,36 h -177 c -19.88,0 -36,-16.12 -36,-36 z"
       stroke="#0078d4"
       stroke-width="2"
       stroke-linejoin="round"
       stroke-miterlimit="10"
       fill="#ffffff"
       fill-rule="evenodd"
       id="path11" />
    <text
       font-family="'Segoe UI', 'Segoe UI_MSFontService', sans-serif"
       font-weight="400"
       font-size="24px"
       transform="translate(1756.63,1861)"
       id="text12">End</text>
    <path
       d="m 0,-1.5 h 31.5787 c 0.8285,0 1.5,0.671573 1.5,1.5 v 684.647 c 0,0.828 -0.6715,1.5 -1.5,1.5 H 15.0789 v -3 h 16.4998 l -1.5,1.5 V 0 l 1.5,1.5 H 0 Z m 16.5789,690.647 -9,-4.5 9,-4.5 z"
       fill="#0078d4"
       transform="matrix(-1,0,0,1,67.0789,67.5001)"
       id="path12" />
    <rect
       x="59"
       y="1103"
       width="265"
       height="153"
       fill="#0078d4"
       id="rect12" />
    <path
       d="m 92.125,1103 v 153 m 198.75,-153 v 153"
       stroke="#0078d4"
       stroke-width="2"
       stroke-linejoin="round"
       stroke-miterlimit="10"
       fill="none"
       fill-rule="evenodd"
       id="path13" />
    <rect
       x="59"
       y="1103"
       width="265"
       height="153"
       stroke="#0078d4"
       stroke-width="2"
       stroke-linejoin="round"
       stroke-miterlimit="10"
       fill="none"
       id="rect13" />
    <text
       fill="#ffffff"
       font-family="'Segoe UI', 'Segoe UI_MSFontService', sans-serif"
       font-weight="400"
       font-size="24px"
       transform="translate(148.624,1159)"
       id="text13">Manage</text>
    <text
       fill="#ffffff"
       font-family="'Segoe UI', 'Segoe UI_MSFontService', sans-serif"
       font-weight="400"
       font-size="24px"
       transform="translate(154.691,1188)"
       id="text14">vendor</text>
    <text
       fill="#ffffff"
       font-family="'Segoe UI', 'Segoe UI_MSFontService', sans-serif"
       font-weight="400"
       font-size="24px"
       transform="translate(129.777,1217)"
       id="text15">relationship</text>
    <path
       d="m 194,1042.5 v 53.07 h -3 v -53.07 z m 3,51.57 -4.5,9 -4.5,-9 z"
       fill="#0078d4"
       id="path15" />
    <rect
       x="59"
       y="889"
       width="265"
       height="153"
       fill="#0078d4"
       id="rect15" />
    <path
       d="m 92.125,889 v 153 m 198.75,-153 v 153"
       stroke="#0078d4"
       stroke-width="2"
       stroke-linejoin="round"
       stroke-miterlimit="10"
       fill="none"
       fill-rule="evenodd"
       id="path16" />
    <rect
       x="59"
       y="889"
       width="265"
       height="153"
       stroke="#0078d4"
       stroke-width="2"
       stroke-linejoin="round"
       stroke-miterlimit="10"
       fill="none"
       id="rect16" />
    <text
       fill="#ffffff"
       font-family="'Segoe UI', 'Segoe UI_MSFontService', sans-serif"
       font-weight="400"
       font-size="24px"
       transform="translate(157.291,917)"
       id="text16">Define</text>
    <text
       fill="#ffffff"
       font-family="'Segoe UI', 'Segoe UI_MSFontService', sans-serif"
       font-weight="400"
       font-size="24px"
       transform="translate(128.704,946)"
       id="text17">policies and</text>
    <text
       fill="#ffffff"
       font-family="'Segoe UI', 'Segoe UI_MSFontService', sans-serif"
       font-weight="400"
       font-size="24px"
       transform="translate(132.517,975)"
       id="text18">procedures</text>
    <text
       fill="#ffffff"
       font-family="'Segoe UI', 'Segoe UI_MSFontService', sans-serif"
       font-weight="400"
       font-size="24px"
       transform="translate(176.704,1004)"
       id="text19">for</text>
    <text
       fill="#ffffff"
       font-family="'Segoe UI', 'Segoe UI_MSFontService', sans-serif"
       font-weight="400"
       font-size="24px"
       transform="translate(123.517,1033)"
       id="text20">procurement</text>
    <rect
       x="1349"
       y="373"
       width="265"
       height="154"
       fill="#ffffff"
       id="rect20" />
    <path
       d="M 1382.12,373 V 527 M 1580.88,373 V 527"
       stroke="#0078d4"
       stroke-width="2"
       stroke-linejoin="round"
       stroke-miterlimit="10"
       fill="none"
       fill-rule="evenodd"
       id="path20" />
    <rect
       x="1349"
       y="373"
       width="265"
       height="154"
       stroke="#0078d4"
       stroke-width="2"
       stroke-linejoin="round"
       stroke-miterlimit="10"
       fill="none"
       id="rect21" />
    <text
       font-family="'Segoe UI', 'Segoe UI_MSFontService', sans-serif"
       font-weight="400"
       font-size="24px"
       transform="translate(1433.66,415)"
       id="text21">Generate</text>
    <text
       font-family="'Segoe UI', 'Segoe UI_MSFontService', sans-serif"
       font-weight="400"
       font-size="24px"
       transform="translate(1418.4,444)"
       id="text22">and process</text>
    <text
       font-family="'Segoe UI', 'Segoe UI_MSFontService', sans-serif"
       font-weight="400"
       font-size="24px"
       transform="translate(1422.66,473)"
       id="text23">promissory</text>
    <text
       font-family="'Segoe UI', 'Segoe UI_MSFontService', sans-serif"
       font-weight="400"
       font-size="24px"
       transform="translate(1452.58,502)"
       id="text24">notes</text>
    <rect
       x="377"
       y="1103"
       width="264"
       height="153"
       fill="#0078d4"
       id="rect24" />
    <path
       d="m 410,1103 v 153 m 198,-153 v 153"
       stroke="#0078d4"
       stroke-width="2"
       stroke-linejoin="round"
       stroke-miterlimit="10"
       fill="none"
       fill-rule="evenodd"
       id="path24" />
    <rect
       x="377"
       y="1103"
       width="264"
       height="153"
       stroke="#0078d4"
       stroke-width="2"
       stroke-linejoin="round"
       stroke-miterlimit="10"
       fill="none"
       id="rect25" />
    <text
       fill="#ffffff"
       font-family="'Segoe UI', 'Segoe UI_MSFontService', sans-serif"
       font-weight="400"
       font-size="24px"
       transform="translate(468.615,1159)"
       id="text25">Procure</text>
    <text
       fill="#ffffff"
       font-family="'Segoe UI', 'Segoe UI_MSFontService', sans-serif"
       font-weight="400"
       font-size="24px"
       transform="translate(461.142,1188)"
       id="text26">materials</text>
    <text
       fill="#ffffff"
       font-family="'Segoe UI', 'Segoe UI_MSFontService', sans-serif"
       font-weight="400"
       font-size="24px"
       transform="translate(444.235,1217)"
       id="text27">and services</text>
    <rect
       x="377"
       y="1527"
       width="264"
       height="153"
       fill="#0078d4"
       id="rect27" />
    <path
       d="m 410,1527 v 153 m 198,-153 v 153"
       stroke="#0078d4"
       stroke-width="2"
       stroke-linejoin="round"
       stroke-miterlimit="10"
       fill="none"
       fill-rule="evenodd"
       id="path27" />
    <rect
       x="377"
       y="1527"
       width="264"
       height="153"
       stroke="#0078d4"
       stroke-width="2"
       stroke-linejoin="round"
       stroke-miterlimit="10"
       fill="none"
       id="rect28" />
    <text
       fill="#ffffff"
       font-family="'Segoe UI', 'Segoe UI_MSFontService', sans-serif"
       font-weight="400"
       font-size="24px"
       transform="translate(469.205,1583)"
       id="text28">Process</text>
    <text
       fill="#ffffff"
       font-family="'Segoe UI', 'Segoe UI_MSFontService', sans-serif"
       font-weight="400"
       font-size="24px"
       transform="translate(472.032,1612)"
       id="text29">vendor</text>
    <text
       fill="#ffffff"
       font-family="'Segoe UI', 'Segoe UI_MSFontService', sans-serif"
       font-weight="400"
       font-size="24px"
       transform="translate(466.785,1641)"
       id="text30">invoices</text>
    <rect
       x="377"
       y="247"
       width="264"
       height="154"
       fill="#0078d4"
       id="rect30" />
    <path
       d="M 410,247 V 401 M 608,247 v 154"
       stroke="#0078d4"
       stroke-width="2"
       stroke-linejoin="round"
       stroke-miterlimit="10"
       fill="none"
       fill-rule="evenodd"
       id="path30" />
    <rect
       x="377"
       y="247"
       width="264"
       height="154"
       stroke="#0078d4"
       stroke-width="2"
       stroke-linejoin="round"
       stroke-miterlimit="10"
       fill="none"
       id="rect31" />
    <text
       fill="#ffffff"
       font-family="'Segoe UI', 'Segoe UI_MSFontService', sans-serif"
       font-weight="400"
       font-size="24px"
       transform="translate(458.288,304)"
       id="text31">Introduce</text>
    <text
       fill="#ffffff"
       font-family="'Segoe UI', 'Segoe UI_MSFontService', sans-serif"
       font-weight="400"
       font-size="24px"
       transform="translate(487.302,333)"
       id="text32">new</text>
    <text
       fill="#ffffff"
       font-family="'Segoe UI', 'Segoe UI_MSFontService', sans-serif"
       font-weight="400"
       font-size="24px"
       transform="translate(462.288,362)"
       id="text33">products</text>
    <path
       d="m 324.5,323 h 45.278 v 3 H 324.5 Z m 43.778,-3 9,4.5 -9,4.5 z"
       fill="#0078d4"
       id="path33" />
    <path
       d="m 324.5,1179 h 45.278 v 3 H 324.5 Z m 43.778,-3 9,4.5 -9,4.5 z"
       fill="#0078d4"
       id="path34" />
    <rect
       x="59"
       y="1317"
       width="265"
       height="153"
       fill="#a0a0a0"
       id="rect34" />
    <text
       font-family="'Segoe UI', 'Segoe UI_MSFontService', sans-serif"
       font-weight="400"
       font-size="24px"
       transform="translate(127.314,1388)"
       id="text34">Inventory to</text>
    <text
       font-family="'Segoe UI', 'Segoe UI_MSFontService', sans-serif"
       font-weight="400"
       font-size="24px"
       transform="translate(150.047,1417)"
       id="text35">delivery</text>
    <path
       d="m 988.5,316.5 164.5,-90 164.5,90 -164.5,90 z"
       stroke="#0078d4"
       stroke-linejoin="round"
       stroke-miterlimit="10"
       fill="#ffffff"
       fill-rule="evenodd"
       id="path35" />
    <text
       font-family="'Segoe UI', 'Segoe UI_MSFontService', sans-serif"
       font-weight="400"
       font-size="24px"
       transform="translate(1144.25,296)"
       id="text36">Is</text>
    <text
       font-family="'Segoe UI', 'Segoe UI_MSFontService', sans-serif"
       font-weight="400"
       font-size="24px"
       transform="translate(1093.51,325)"
       id="text37">promissory</text>
    <text
       font-family="'Segoe UI', 'Segoe UI_MSFontService', sans-serif"
       font-weight="400"
       font-size="24px"
       transform="translate(1089.6,354)"
       id="text38">notes used?</text>
    <rect
       x="1264"
       y="1304"
       width="264"
       height="153"
       fill="#ffffff"
       id="rect38" />
    <path
       d="m 1297,1304 v 153 m 198,-153 v 153"
       stroke="#0078d4"
       stroke-width="2"
       stroke-linejoin="round"
       stroke-miterlimit="10"
       fill="none"
       fill-rule="evenodd"
       id="path38" />
    <rect
       x="1264"
       y="1304"
       width="264"
       height="153"
       stroke="#0078d4"
       stroke-width="2"
       stroke-linejoin="round"
       stroke-miterlimit="10"
       fill="none"
       id="rect39" />
    <text
       font-family="'Segoe UI', 'Segoe UI_MSFontService', sans-serif"
       font-weight="400"
       font-size="24px"
       transform="translate(1343.91,1346)"
       id="text39">Configure</text>
    <text
       font-family="'Segoe UI', 'Segoe UI_MSFontService', sans-serif"
       font-weight="400"
       font-size="24px"
       transform="translate(1343.67,1375)"
       id="text40">and apply</text>
    <text
       font-family="'Segoe UI', 'Segoe UI_MSFontService', sans-serif"
       font-weight="400"
       font-size="24px"
       transform="translate(1372.34,1404)"
       id="text41">cash</text>
    <text
       font-family="'Segoe UI', 'Segoe UI_MSFontService', sans-serif"
       font-weight="400"
       font-size="24px"
       transform="translate(1345.51,1433)"
       id="text42">discounts</text>
    <path
       d="m 0,-1.5 h 81.3034 c 0.8284,0 1.5,0.671573 1.5,1.5 v 1480.74 l -1.5,-1.5 H 603.112 v 3 H 81.3034 c -0.8285,0 -1.5,-0.67 -1.5,-1.5 V 0 l 1.5,1.5 H 0 Z m 601.61,1477.74 9,4.5 -9,4.5 z"
       fill="#0078d4"
       transform="matrix(1,0,0,-1,641.5,1604.24)"
       id="path42" />
    <path
       d="m 0,-1.5 h 31.5789 c 0.8284,0 1.5,0.671573 1.5,1.5 v 1326.22 c 0,0.83 -0.6716,1.5 -1.5,1.5 h -16.5 v -3 h 16.5 l -1.5,1.5 V 0 l 1.5,1.5 H 0 Z m 16.5789,1332.22 -9,-4.5 9,-4.5 z"
       fill="#0078d4"
       transform="matrix(-1,0,0,1,67.0789,67.5001)"
       id="path43" />
    <path
       d="m 1317.5,315 h 164.71 c 0.83,0 1.5,0.672 1.5,1.5 v 50.041 h -3 V 316.5 l 1.5,1.5 H 1317.5 Z m 169.21,50.041 -4.5,9 -4.5,-9 z"
       fill="#0078d4"
       id="path44" />
    <path
       d="m 324.5,1392 h 45.278 v 3 H 324.5 Z m 43.778,-3 9,4.5 -9,4.5 z"
       fill="#0078d4"
       id="path45" />
    <path
       d="m 1268.5,1000 h 38.36 c 0.83,0 1.5,0.67 1.5,1.5 v 225.94 l -1.5,-1.5 h 329.53 v 3 h -329.53 c -0.83,0 -1.5,-0.67 -1.5,-1.5 V 1001.5 l 1.5,1.5 h -38.36 z m 366.39,222.94 9,4.5 -9,4.5 z"
       fill="#0078d4"
       id="path46" />
    <rect
       x="1644"
       y="786"
       width="264"
       height="153"
       fill="#a0a0a0"
       id="rect46" />
    <text
       font-family="'Segoe UI', 'Segoe UI_MSFontService', sans-serif"
       font-weight="400"
       font-size="24px"
       transform="translate(1688.8,871)"
       id="text46">Record to report</text>
    <rect
       x="1644"
       y="1150"
       width="264"
       height="154"
       fill="#0078d4"
       id="rect47" />
    <path
       d="m 1677,1150 v 154 m 198,-154 v 154"
       stroke="#0078d4"
       stroke-width="2"
       stroke-linejoin="round"
       stroke-miterlimit="10"
       fill="none"
       fill-rule="evenodd"
       id="path47" />
    <rect
       x="1644"
       y="1150"
       width="264"
       height="154"
       stroke="#0078d4"
       stroke-width="2"
       stroke-linejoin="round"
       stroke-miterlimit="10"
       fill="none"
       id="rect48" />
    <text
       fill="#ffffff"
       font-family="'Segoe UI', 'Segoe UI_MSFontService', sans-serif"
       font-weight="400"
       font-size="24px"
       transform="translate(1739.23,1207)"
       id="text48">Record</text>
    <text
       fill="#ffffff"
       font-family="'Segoe UI', 'Segoe UI_MSFontService', sans-serif"
       font-weight="400"
       font-size="24px"
       transform="translate(1732.24,1236)"
       id="text49">financial</text>
    <text
       fill="#ffffff"
       font-family="'Segoe UI', 'Segoe UI_MSFontService', sans-serif"
       font-weight="400"
       font-size="24px"
       transform="translate(1712.33,1265)"
       id="text50">transactions</text>
    <path
       d="m 1778,939.5 v 204.14 h -3 V 939.5 Z m 3,202.64 -4.5,9 -4.5,-9 z"
       fill="#0078d4"
       id="path50" />
    <path
       d="m 1778,1304.5 0.55,504.34 h -3 L 1775,1304.5 Z m 3.55,502.84 -4.49,9.01 -4.51,-9 z"
       fill="#0078d4"
       id="path51" />
    <text
       font-family="'Segoe UI', 'Segoe UI_MSFontService', sans-serif"
       font-weight="400"
       font-size="27px"
       transform="translate(1309.58,303)"
       id="text51">Yes</text>
    <text
       font-family="'Segoe UI', 'Segoe UI_MSFontService', sans-serif"
       font-weight="400"
       font-size="27px"
       transform="translate(963.13,294)"
       id="text52">No</text>
    <text
       font-family="'Segoe UI', 'Segoe UI_MSFontService', sans-serif"
       font-weight="400"
       font-size="27px"
       transform="translate(1510.53,784)"
       id="text53">Yes</text>
    <text
       font-family="'Segoe UI', 'Segoe UI_MSFontService', sans-serif"
       font-weight="400"
       font-size="27px"
       transform="translate(934.004,708)"
       id="text54">No</text>
    <path
       d="m 194,828.5 v 53.069 h -3 V 828.5 Z m 3,51.569 -4.5,9 -4.5,-9 z"
       fill="#0078d4"
       id="path54" />
    <path
       d="m 988.5,318 h -23.999 l 1.5,-1.5 v 132.31 l -1.5,-1.5 h 126.189 c 0.83,0 1.5,0.672 1.5,1.5 v 34.797 h -3 V 448.81 l 1.5,1.5 H 964.501 c -0.829,0 -1.5,-0.671 -1.5,-1.5 V 316.5 c 0,-0.828 0.671,-1.5 1.5,-1.5 H 988.5 Z m 106.69,164.107 -4.5,9 -4.5,-9 z"
       fill="#0078d4"
       id="path55" />
    <path
       d="m 920,1515.5 v 13.44 h -3 v -13.44 z m 3,11.94 -4.5,9 -4.5,-9 z"
       fill="#0078d4"
       id="path56" />
    <rect
       x="377"
       y="1317"
       width="264"
       height="153"
       stroke="#00569b"
       stroke-width="2"
       stroke-linejoin="round"
       stroke-miterlimit="10"
       fill="#0078d4"
       id="rect56" />
    <text
       fill="#ffffff"
       font-family="'Segoe UI', 'Segoe UI_MSFontService', sans-serif"
       font-weight="400"
       font-size="24px"
       transform="translate(421.622,1388)"
       id="text56">Process inbound</text>
    <text
       fill="#ffffff"
       font-family="'Segoe UI', 'Segoe UI_MSFontService', sans-serif"
       font-weight="400"
       font-size="24px"
       transform="translate(475.715,1417)"
       id="text57">goods</text>
    <path
       d="m 641.5,323 h 24 c 0.828,0 1.5,0.672 1.5,1.5 v 855.44 c 0,0.83 -0.672,1.5 -1.5,1.5 h -15.167 v -3 H 665.5 l -1.5,1.5 V 324.5 l 1.5,1.5 h -24 z m 10.333,861.44 -9,-4.5 9,-4.5 z"
       fill="#0078d4"
       id="path57" />
    <path
       d="m 511,1256.5 v 53.07 h -3 v -53.07 z m 3,51.57 -4.5,9 -4.5,-9 z"
       fill="#0078d4"
       id="path58" />
    <path
       d="m 511,1470.5 v 49.27 h -3 v -49.27 z m 3,47.77 -4.5,9 -4.5,-9 z"
       fill="#0078d4"
       id="path59" />
    <rect
       x="786"
       y="1362"
       width="264"
       height="153"
       fill="#ffffff"
       id="rect59" />
    <path
       d="m 819,1362 v 153 m 198,-153 v 153"
       stroke="#0078d4"
       stroke-width="2"
       stroke-linejoin="round"
       stroke-miterlimit="10"
       fill="none"
       fill-rule="evenodd"
       id="path60" />
    <rect
       x="786"
       y="1362"
       width="264"
       height="153"
       stroke="#0078d4"
       stroke-width="2"
       stroke-linejoin="round"
       stroke-miterlimit="10"
       fill="none"
       id="rect60" />
    <text
       font-family="'Segoe UI', 'Segoe UI_MSFontService', sans-serif"
       font-weight="400"
       font-size="24px"
       transform="translate(847.856,1433)"
       id="text60">Settle vendor</text>
    <text
       font-family="'Segoe UI', 'Segoe UI_MSFontService', sans-serif"
       font-weight="400"
       font-size="24px"
       transform="translate(854.369,1462)"
       id="text61">transactions</text>
    <path
       d="m 1189.5,802.5 162.5,-90 162.5,90 -162.5,90 z"
       stroke="#0078d4"
       stroke-linejoin="round"
       stroke-miterlimit="10"
       fill="#ffffff"
       fill-rule="evenodd"
       id="path61" />
    <text
       font-family="'Segoe UI', 'Segoe UI_MSFontService', sans-serif"
       font-weight="400"
       font-size="24px"
       transform="translate(1317.63,796)"
       id="text62">Is pre</text>
    <text
       font-family="'Segoe UI', 'Segoe UI_MSFontService', sans-serif"
       font-weight="400"
       font-size="24px"
       transform="translate(1375.32,796)"
       id="text63">-</text>
    <text
       font-family="'Segoe UI', 'Segoe UI_MSFontService', sans-serif"
       font-weight="400"
       font-size="24px"
       transform="translate(1299.94,825)"
       id="text64">payment?</text>
    <path
       d="m 0,-1.5 h 52.6841 c 0.8284,0 1.5,0.671573 1.5,1.5 v 114.775 h -3 V 0 l 1.5,1.5 H 0 Z m 57.1841,114.775 -4.5,9 -4.5,-9 z"
       fill="#0078d4"
       transform="matrix(-1,0,0,1,1189.18,802.5)"
       id="path64" />
    <path
       d="m 0,1.5 h -23.9999 l 1.5,-1.5 v 105.701 l -1.5,-1.5 h 81.8046 c 0.8284,0 1.5,0.672 1.5,1.5 v 8.188 h -3 v -8.188 l 1.5,1.5 h -81.8046 c -0.8284,0 -1.5,-0.672 -1.5,-1.5 V 0 c 0,-0.828427 0.6716,-1.5 1.5,-1.5 H 0 Z m 62.3047,110.889 -4.5,9 -4.5,-9 z"
       fill="#0078d4"
       transform="matrix(-1,0,0,1,1514.3,802.5)"
       id="path65" />
    <path
       d="m 0,-1.5 h 259.128 c 0.828,0 1.5,0.671573 1.5,1.5 v 32.9208 h -3 V 0 l 1.5,1.5 H 0 Z m 263.628,32.9208 -4.5,9 -4.5,-9 z"
       fill="#0078d4"
       transform="matrix(-1,0,0,1,1349.63,450.5)"
       id="path66" />
    <rect
       x="1004"
       y="925"
       width="264"
       height="153"
       fill="#ffffff"
       id="rect66" />
    <path
       d="m 1037,925 v 153 m 198,-153 v 153"
       stroke="#0078d4"
       stroke-width="2"
       stroke-linejoin="round"
       stroke-miterlimit="10"
       fill="none"
       fill-rule="evenodd"
       id="path67" />
    <rect
       x="1004"
       y="925"
       width="264"
       height="153"
       stroke="#0078d4"
       stroke-width="2"
       stroke-linejoin="round"
       stroke-miterlimit="10"
       fill="none"
       id="rect67" />
    <text
       font-family="'Segoe UI', 'Segoe UI_MSFontService', sans-serif"
       font-weight="400"
       font-size="24px"
       transform="translate(1088.05,981)"
       id="text67">Generate</text>
    <text
       font-family="'Segoe UI', 'Segoe UI_MSFontService', sans-serif"
       font-weight="400"
       font-size="24px"
       transform="translate(1089.62,1010)"
       id="text68">and post</text>
    <text
       font-family="'Segoe UI', 'Segoe UI_MSFontService', sans-serif"
       font-weight="400"
       font-size="24px"
       transform="translate(1084.7,1039)"
       id="text69">payments</text>
    <path
       d="m 1137.87,1078.5 v 46.7 c 0,0.83 -0.67,1.5 -1.5,1.5 h -46.87 l 1.5,-1.5 v 39.19 h -3 v -39.19 c 0,-0.83 0.67,-1.5 1.5,-1.5 h 46.87 l -1.5,1.5 v -46.7 z m -43.87,84.39 -4.5,9 -4.5,-9 z"
       fill="#0078d4"
       id="path69" />
    <path
       d="m 1588.5,999 h 27.67 c 0.83,0 1.5,0.672 1.5,1.5 v 226.83 l -1.5,-1.5 h 20.18 v 3 h -20.18 c -0.82,0 -1.5,-0.67 -1.5,-1.5 V 1000.5 l 1.5,1.5 h -27.67 z m 46.35,223.83 9,4.5 -9,4.5 z"
       fill="#0078d4"
       id="path70" />
    <path
       d="m 1457.91,1077.5 v 47.14 c 0,0.83 -0.67,1.5 -1.5,1.5 H 1089.5 l 1.5,-1.5 v 39.64 h -3 v -39.64 c 0,-0.83 0.67,-1.5 1.5,-1.5 h 366.91 l -1.5,1.5 v -47.14 z m -363.91,85.28 -4.5,9 -4.5,-9 z"
       fill="#0078d4"
       id="path71" />
    <path
       d="m 755.5,1626.5 163,-90 163,90 -163,90 z"
       stroke="#0078d4"
       stroke-linejoin="round"
       stroke-miterlimit="10"
       fill="#ffffff"
       fill-rule="evenodd"
       id="path72" />
    <text
       font-family="'Segoe UI', 'Segoe UI_MSFontService', sans-serif"
       font-weight="400"
       font-size="24px"
       transform="translate(898.369,1592)"
       id="text72">Has</text>
    <text
       font-family="'Segoe UI', 'Segoe UI_MSFontService', sans-serif"
       font-weight="400"
       font-size="24px"
       transform="translate(871.776,1621)"
       id="text73">payment</text>
    <text
       font-family="'Segoe UI', 'Segoe UI_MSFontService', sans-serif"
       font-weight="400"
       font-size="24px"
       transform="translate(891.703,1650)"
       id="text74">been</text>
    <text
       font-family="'Segoe UI', 'Segoe UI_MSFontService', sans-serif"
       font-weight="400"
       font-size="24px"
       transform="translate(863.203,1679)"
       id="text75">cancelled?</text>
    <path
       d="m 755.5,1628 h -24.003 l 1.5,-1.5 v 225.82 l -1.5,-1.5 h 912.793 v 3 H 731.497 c -0.828,0 -1.5,-0.67 -1.5,-1.5 V 1626.5 c 0,-0.83 0.672,-1.5 1.5,-1.5 H 755.5 Z m 887.29,219.82 9,4.5 -9,4.5 z"
       fill="#0078d4"
       id="path75" />
    <rect
       x="1343"
       y="1658"
       width="264"
       height="152"
       fill="#ffffff"
       id="rect75" />
    <path
       d="m 1376,1658 v 152 m 198,-152 v 152"
       stroke="#0078d4"
       stroke-width="2"
       stroke-linejoin="round"
       stroke-miterlimit="10"
       fill="none"
       fill-rule="evenodd"
       id="path76" />
    <rect
       x="1343"
       y="1658"
       width="264"
       height="152"
       stroke="#0078d4"
       stroke-width="2"
       stroke-linejoin="round"
       stroke-miterlimit="10"
       fill="none"
       id="rect76" />
    <text
       font-family="'Segoe UI', 'Segoe UI_MSFontService', sans-serif"
       font-weight="400"
       font-size="24px"
       transform="translate(1430.47,1714)"
       id="text76">Cancel a</text>
    <text
       font-family="'Segoe UI', 'Segoe UI_MSFontService', sans-serif"
       font-weight="400"
       font-size="24px"
       transform="translate(1437.87,1743)"
       id="text77">vendor</text>
    <text
       font-family="'Segoe UI', 'Segoe UI_MSFontService', sans-serif"
       font-weight="400"
       font-size="24px"
       transform="translate(1428.55,1772)"
       id="text78">payment</text>
    <path
       d="m 1081.5,1625 h 96.09 c 0.82,0 1.5,0.67 1.5,1.5 v 24.06 h -3 v -24.06 l 1.5,1.5 h -96.09 z m 100.59,24.06 -4.5,9 -4.5,-9 z"
       fill="#0078d4"
       id="path78" />
    <text
       font-family="'Segoe UI', 'Segoe UI_MSFontService', sans-serif"
       font-weight="400"
       font-size="27px"
       transform="translate(1089.01,1609)"
       id="text79">Yes</text>
    <text
       font-family="'Segoe UI', 'Segoe UI_MSFontService', sans-serif"
       font-weight="400"
       font-size="27px"
       transform="translate(750.297,1608)"
       id="text80">No</text>
    <path
       d="m 0,-1.5 h 41.7205 c 0.8285,0 1.5,0.671573 1.5,1.5 v 169.442 h -3 V 0 l 1.5,1.5 H 0 Z m 46.2205,169.442 -4.5,9 -4.5,-9 z"
       fill="#0078d4"
       transform="matrix(0,1,1,0,1475.5,1810.5)"
       id="path80" />
    <rect
       x="59"
       y="461"
       width="265"
       height="154"
       fill="#a0a0a0"
       id="rect80" />
    <text
       font-family="'Segoe UI', 'Segoe UI_MSFontService', sans-serif"
       font-weight="400"
       font-size="24px"
       transform="translate(93.2873,547)"
       id="text81">Concept to market</text>
    <rect
       x="377"
       y="461"
       width="264"
       height="154"
       fill="#0078d4"
       id="rect81" />
    <path
       d="M 410,461 V 615 M 608,461 v 154"
       stroke="#0078d4"
       stroke-width="2"
       stroke-linejoin="round"
       stroke-miterlimit="10"
       fill="none"
       fill-rule="evenodd"
       id="path81" />
    <rect
       x="377"
       y="461"
       width="264"
       height="154"
       stroke="#0078d4"
       stroke-width="2"
       stroke-linejoin="round"
       stroke-miterlimit="10"
       fill="none"
       id="rect82" />
    <text
       fill="#ffffff"
       font-family="'Segoe UI', 'Segoe UI_MSFontService', sans-serif"
       font-weight="400"
       font-size="24px"
       transform="translate(458.285,532)"
       id="text82">Introduce</text>
    <text
       fill="#ffffff"
       font-family="'Segoe UI', 'Segoe UI_MSFontService', sans-serif"
       font-weight="400"
       font-size="24px"
       transform="translate(442.485,561)"
       id="text83">new services</text>
    <path
       d="m 324.5,537 h 45.278 v 3 H 324.5 Z m 43.778,-3 9,4.5 -9,4.5 z"
       fill="#0078d4"
       id="path83" />
    <path
       d="m 641.5,537 h 24 c 0.828,0 1.5,0.672 1.5,1.5 v 641.58 c 0,0.83 -0.672,1.5 -1.5,1.5 h -15.167 v -3 H 665.5 l -1.5,1.5 V 538.5 l 1.5,1.5 h -24 z m 10.333,647.58 -9,-4.5 9,-4.5 z"
       fill="#0078d4"
       id="path84" />
    <path
       d="M 1.5,-0.0010481 1.59019,129.079 l -3,0.002 L -1.5,0.0010481 Z M 4.58914,127.577 0.0954331,136.58 -4.41085,127.583 Z"
       fill="#0078d4"
       transform="matrix(-1,0,0,1,192.595,111.5)"
       id="path85" />
    <path
       d="m 927.5,1261.5 162.5,-90 162.5,90 -162.5,90 z"
       stroke="#0078d4"
       stroke-linejoin="round"
       stroke-miterlimit="10"
       fill="#ffffff"
       fill-rule="evenodd"
       id="path86" />
    <text
       font-family="'Segoe UI', 'Segoe UI_MSFontService', sans-serif"
       font-weight="400"
       font-size="24px"
       transform="translate(1035.67,1241)"
       id="text86">D</text>
    <text
       font-family="'Segoe UI', 'Segoe UI_MSFontService', sans-serif"
       font-weight="400"
       font-size="24px"
       transform="translate(1052.5,1241)"
       id="text87">oes cash</text>
    <text
       font-family="'Segoe UI', 'Segoe UI_MSFontService', sans-serif"
       font-weight="400"
       font-size="24px"
       transform="translate(1043.92,1270)"
       id="text88">discount</text>
    <text
       font-family="'Segoe UI', 'Segoe UI_MSFontService', sans-serif"
       font-weight="400"
       font-size="24px"
       transform="translate(1055.2,1299)"
       id="text89">apply?</text>
    <path
       d="m 1252.5,1260 h 144.09 c 0.83,0 1.5,0.67 1.5,1.5 v 35.04 h -3 v -35.04 l 1.5,1.5 H 1252.5 Z m 148.59,35.04 -4.5,9 -4.5,-9 z"
       fill="#0078d4"
       id="path89" />
    <path
       d="m 0,-1.5 h 8.55307 c 0.82843,0 1.50003,0.671573 1.50003,1.5 V 93.2019 H 7.05307 V 0 l 1.5,1.5 H 0 Z m 13.0531,93.2018 -4.50003,9.0002 -4.5,-9.0002 z"
       fill="#0078d4"
       transform="matrix(-1,0,0,1,927.053,1261.5)"
       id="path90" />
    <text
       font-family="'Segoe UI', 'Segoe UI_MSFontService', sans-serif"
       font-weight="400"
       font-size="27px"
       transform="translate(1255.3,1248)"
       id="text90">Yes</text>
    <text
       font-family="'Segoe UI', 'Segoe UI_MSFontService', sans-serif"
       font-weight="400"
       font-size="27px"
       transform="translate(901.985,1242)"
       id="text91">No</text>
    <path
       d="M 0,1.5 H -24 L -22.5,0 v 238.904 l -1.5,-1.5 h 42.479 c 0.8284,0 1.4999,0.672 1.4999,1.5 v 99.118 H 16.979 v -99.118 l 1.5,1.5 H -24 c -0.8284,0 -1.5,-0.671 -1.5,-1.5 V 0 c 0,-0.828427 0.6716,-1.5 1.5,-1.5 H 0 Z m 22.9789,335.022 -4.4999,9 -4.5001,-9 z"
       fill="#0078d4"
       transform="matrix(0,-1,-1,0,1396.02,1457.98)"
       id="path91" />
    <path
       d="m 928.5,571.5 162.5,-81 162.5,81 -162.5,81 z"
       stroke="#0078d4"
       stroke-linejoin="round"
       stroke-miterlimit="10"
       fill="#ffffff"
       fill-rule="evenodd"
       id="path92" />
    <text
       font-family="'Segoe UI', 'Segoe UI_MSFontService', sans-serif"
       font-weight="400"
       font-size="24px"
       transform="translate(1060.24,537)"
       id="text92">Settle</text>
    <text
       font-family="'Segoe UI', 'Segoe UI_MSFontService', sans-serif"
       font-weight="400"
       font-size="24px"
       transform="translate(1055.9,566)"
       id="text93">before</text>
    <text
       font-family="'Segoe UI', 'Segoe UI_MSFontService', sans-serif"
       font-weight="400"
       font-size="24px"
       transform="translate(1032.74,595)"
       id="text94">payment is</text>
    <text
       font-family="'Segoe UI', 'Segoe UI_MSFontService', sans-serif"
       font-weight="400"
       font-size="24px"
       transform="translate(1048.34,624)"
       id="text95">posted?</text>
    <path
       d="m 1386.64,199.5 v 13.25 c 0,0.828 -0.67,1.5 -1.5,1.5 H 1153.5 l 1.5,-1.5 v 5.749 h -3 v -5.749 c 0,-0.829 0.67,-1.5 1.5,-1.5 h 231.64 l -1.5,1.5 V 199.5 Z m -228.64,17.499 -4.5,9 -4.5,-9 z"
       fill="#0078d4"
       id="path95" />
    <path
       d="m 0,-1.5 h 40.0153 c 0.8285,0 1.5,0.671573 1.5,1.5 v 66.3035 h -3 V 0 l 1.5,1.5 H 0 Z m 44.5153,66.3035 -4.5,9 -4.5,-9 z"
       fill="#0078d4"
       transform="matrix(-1,0,0,1,928.515,571.5)"
       id="path96" />
    <path
       d="m 1253.5,570 h 98.48 c 0.82,0 1.5,0.672 1.5,1.5 v 133.626 h -3 V 571.5 l 1.5,1.5 h -98.48 z m 102.98,133.626 -4.5,9 -4.5,-9 z"
       fill="#0078d4"
       id="path97" />
    <rect
       x="755"
       y="645"
       width="265"
       height="153"
       fill="#ffffff"
       id="rect97" />
    <path
       d="M 788.125,645 V 798 M 986.875,645 V 798"
       stroke="#0078d4"
       stroke-width="2"
       stroke-linejoin="round"
       stroke-miterlimit="10"
       fill="none"
       fill-rule="evenodd"
       id="path98" />
    <rect
       x="755"
       y="645"
       width="265"
       height="153"
       stroke="#0078d4"
       stroke-width="2"
       stroke-linejoin="round"
       stroke-miterlimit="10"
       fill="none"
       id="rect98" />
    <text
       font-family="'Segoe UI', 'Segoe UI_MSFontService', sans-serif"
       font-weight="400"
       font-size="24px"
       transform="translate(817.471,716)"
       id="text98">Settle vendor</text>
    <text
       font-family="'Segoe UI', 'Segoe UI_MSFontService', sans-serif"
       font-weight="400"
       font-size="24px"
       transform="translate(823.984,745)"
       id="text99">transactions</text>
    <text
       font-family="'Segoe UI', 'Segoe UI_MSFontService', sans-serif"
       font-weight="400"
       font-size="27px"
       transform="translate(1158.83,789)"
       id="text100">No</text>
    <text
       font-family="'Segoe UI', 'Segoe UI_MSFontService', sans-serif"
       font-weight="400"
       font-size="27px"
       transform="translate(1243.17,554)"
       id="text101">No</text>
    <text
       font-family="'Segoe UI', 'Segoe UI_MSFontService', sans-serif"
       font-weight="400"
       font-size="27px"
       transform="translate(918.91,555)"
       id="text102">Yes</text>
    <path
       d="m 890,798.468 v 24 l -1.5,-1.5 h 216.68 l -1.5,1.5 V 688.499 c 0,-0.828 0.67,-1.499 1.5,-1.499 h 246.97 c 0.83,0 1.5,0.671 1.5,1.499 V 705 h -3 v -16.501 l 1.5,1.5 h -246.97 l 1.5,-1.5 v 133.969 c 0,0.829 -0.67,1.5 -1.5,1.5 H 888.5 c -0.828,0 -1.5,-0.671 -1.5,-1.5 v -24 z m 466.65,-94.968 -4.5,9 -4.5,-9 z"
       fill="#0078d4"
       id="path102" />
    <rect
       x="1044"
       y="1658"
       width="265"
       height="153"
       fill="#ffffff"
       id="rect102" />
    <path
       d="m 1077.12,1658 v 153 m 198.76,-153 v 153"
       stroke="#0078d4"
       stroke-width="2"
       stroke-linejoin="round"
       stroke-miterlimit="10"
       fill="none"
       fill-rule="evenodd"
       id="path103" />
    <rect
       x="1044"
       y="1658"
       width="265"
       height="153"
       stroke="#0078d4"
       stroke-width="2"
       stroke-linejoin="round"
       stroke-miterlimit="10"
       fill="none"
       id="rect103" />
    <text
       font-family="'Segoe UI', 'Segoe UI_MSFontService', sans-serif"
       font-weight="400"
       font-size="24px"
       transform="translate(1133.04,1714)"
       id="text103">Unsettle</text>
    <text
       font-family="'Segoe UI', 'Segoe UI_MSFontService', sans-serif"
       font-weight="400"
       font-size="24px"
       transform="translate(1139.77,1743)"
       id="text104">vendor</text>
    <text
       font-family="'Segoe UI', 'Segoe UI_MSFontService', sans-serif"
       font-weight="400"
       font-size="24px"
       transform="translate(1113.04,1772)"
       id="text105">transactions</text>
    <path
       d="m 0,-1.5 h 16.7696 c 0.8284,0 1.5,0.671573 1.5,1.5 v 0.376588 l -1.5,-1.499998 h 9.2696 v 3 h -9.2696 c -0.8284,0 -1.5,-0.67158 -1.5,-1.500002 V 0 l 1.5,1.5 H 0 Z m 24.5392,-2.62341 9,4.499998 -9,4.500002 z"
       fill="#0078d4"
       transform="matrix(1,0,0,-1,1309.5,1734.88)"
       id="path105" />
  </g>
</svg>
