<?xml version="1.0" encoding="UTF-8" standalone="no"?>
<svg
   width="1920"
   height="1892.8253"
   overflow="hidden"
   version="1.1"
   id="svg48"
   sodipodi:docname="source-to-pay-define-procurement-catalogs-flow.svg"
   inkscape:version="1.3.2 (091e20e, 2023-11-25, custom)"
   xmlns:inkscape="http://www.inkscape.org/namespaces/inkscape"
   xmlns:sodipodi="http://sodipodi.sourceforge.net/DTD/sodipodi-0.dtd"
   xmlns="http://www.w3.org/2000/svg"
   xmlns:svg="http://www.w3.org/2000/svg">
  <defs
     id="defs48" />
  <sodipodi:namedview
     id="namedview48"
     pagecolor="#ffffff"
     bordercolor="#000000"
     borderopacity="0.25"
     inkscape:showpageshadow="2"
     inkscape:pageopacity="0.0"
     inkscape:pagecheckerboard="0"
     inkscape:deskcolor="#d1d1d1"
     inkscape:zoom="0.95677083"
     inkscape:cx="957.38704"
     inkscape:cy="1309.0909"
     inkscape:window-width="3840"
     inkscape:window-height="2054"
     inkscape:window-x="2869"
     inkscape:window-y="-11"
     inkscape:window-maximized="1"
     inkscape:current-layer="svg48" />
  <g
     id="g48"
     transform="translate(-2.0903647,349.09091)">
    <rect
       x="2.0903647"
       y="-349.09091"
       width="1920"
       height="1892.8253"
       fill="#ffffff"
       id="rect1"
       style="stroke-width:0.992898" />
    <rect
       x="918.5"
       y="68.500099"
       width="999"
       height="1469"
       stroke="#0078d4"
       stroke-width="3"
       stroke-linejoin="round"
       stroke-miterlimit="10"
       fill="#d9d9d9"
       id="rect2" />
    <text
       fill="#0078d4"
       font-family="'Segoe UI', 'Segoe UI_MSFontService', sans-serif"
       font-weight="700"
       font-size="24px"
       transform="translate(946.824,114)"
       id="text2">Business process area</text>
    <path
       d="M 31,68.5 C 31,48.3416 47.3416,32 67.5,32 h 139 c 20.158,0 36.5,16.3416 36.5,36.5 v 0 C 243,88.6584 226.658,105 206.5,105 H 67.5 C 47.3416,105 31,88.6584 31,68.5 Z"
       stroke="#0078d4"
       stroke-width="2"
       stroke-linejoin="round"
       stroke-miterlimit="10"
       fill="none"
       fill-rule="evenodd"
       id="path2" />
    <text
       font-family="'Segoe UI', 'Segoe UI_MSFontService', sans-serif"
       font-weight="400"
       font-size="24px"
       transform="translate(112.164,77)"
       id="text3">Start</text>
    <rect
       x="31"
       y="152"
       width="212"
       height="153"
       stroke="#000000"
       stroke-width="2"
       stroke-linejoin="round"
       stroke-miterlimit="10"
       fill="#a0a0a0"
       id="rect3" />
    <text
       font-family="'Segoe UI', 'Segoe UI_MSFontService', sans-serif"
       font-weight="400"
       font-size="24px"
       transform="translate(86.2176,223)"
       id="text4">Design to</text>
    <text
       font-family="'Segoe UI', 'Segoe UI_MSFontService', sans-serif"
       font-weight="400"
       font-size="24px"
       transform="translate(109.438,252)"
       id="text5">retire</text>
    <path
       d="M 1.5,-6.72652e-6 1.50018,39.3237 h -3 L -1.5,6.72652e-6 Z M 4.50017,37.8237 l -4.499960026,9 -4.500039974,-9 z"
       fill="#0078d4"
       transform="matrix(-1,0,0,1,137.5,105.5)"
       id="path5" />
    <rect
       x="300"
       y="152"
       width="252"
       height="153"
       fill="#ffffff"
       id="rect5" />
    <path
       d="m 331.5,152 v 153 m 189,-153 v 153"
       stroke="#0078d4"
       stroke-width="2"
       stroke-linejoin="round"
       stroke-miterlimit="10"
       fill="none"
       fill-rule="evenodd"
       id="path6" />
    <rect
       x="300"
       y="152"
       width="252"
       height="153"
       stroke="#0078d4"
       stroke-width="2"
       stroke-linejoin="round"
       stroke-miterlimit="10"
       fill="none"
       id="rect6" />
    <text
       font-family="'Segoe UI', 'Segoe UI_MSFontService', sans-serif"
       font-weight="400"
       font-size="24px"
       transform="translate(392.145,208)"
       id="text6">Define</text>
    <text
       font-family="'Segoe UI', 'Segoe UI_MSFontService', sans-serif"
       font-weight="400"
       font-size="24px"
       transform="translate(384.885,237)"
       id="text7">product</text>
    <text
       font-family="'Segoe UI', 'Segoe UI_MSFontService', sans-serif"
       font-weight="400"
       font-size="24px"
       transform="translate(402.558,266)"
       id="text8">lines</text>
    <rect
       x="31"
       y="361"
       width="212"
       height="154"
       stroke="#000000"
       stroke-width="2"
       stroke-linejoin="round"
       stroke-miterlimit="10"
       fill="#a0a0a0"
       id="rect8" />
    <text
       font-family="'Segoe UI', 'Segoe UI_MSFontService', sans-serif"
       font-weight="400"
       font-size="24px"
       transform="translate(64.6142,447)"
       id="text9">Source</text>
    <text
       font-family="'Segoe UI', 'Segoe UI_MSFontService', sans-serif"
       font-weight="400"
       font-size="24px"
       transform="translate(143.134,447)"
       id="text10">to pay</text>
    <rect
       x="610"
       y="152"
       width="252"
       height="153"
       fill="#ffffff"
       id="rect10" />
    <path
       d="m 641.5,152 v 153 m 189,-153 v 153"
       stroke="#0078d4"
       stroke-width="2"
       stroke-linejoin="round"
       stroke-miterlimit="10"
       fill="none"
       fill-rule="evenodd"
       id="path10" />
    <rect
       x="610"
       y="152"
       width="252"
       height="153"
       stroke="#0078d4"
       stroke-width="2"
       stroke-linejoin="round"
       stroke-miterlimit="10"
       fill="none"
       id="rect11" />
    <text
       font-family="'Segoe UI', 'Segoe UI_MSFontService', sans-serif"
       font-weight="400"
       font-size="24px"
       transform="translate(688.867,223)"
       id="text11">Organize</text>
    <text
       font-family="'Segoe UI', 'Segoe UI_MSFontService', sans-serif"
       font-weight="400"
       font-size="24px"
       transform="translate(689.78,252)"
       id="text12">products</text>
    <rect
       x="1607"
       y="843"
       width="252"
       height="154"
       fill="#ffffff"
       id="rect12" />
    <path
       d="m 1638.5,843 v 154 m 189,-154 v 154"
       stroke="#0078d4"
       stroke-width="2"
       stroke-linejoin="round"
       stroke-miterlimit="10"
       fill="none"
       fill-rule="evenodd"
       id="path12" />
    <rect
       x="1607"
       y="843"
       width="252"
       height="154"
       stroke="#0078d4"
       stroke-width="2"
       stroke-linejoin="round"
       stroke-miterlimit="10"
       fill="none"
       id="rect13" />
    <text
       font-family="'Segoe UI', 'Segoe UI_MSFontService', sans-serif"
       font-weight="400"
       font-size="24px"
       transform="translate(1698.81,885)"
       id="text13">Assign</text>
    <text
       font-family="'Segoe UI', 'Segoe UI_MSFontService', sans-serif"
       font-weight="400"
       font-size="24px"
       transform="translate(1681.61,914)"
       id="text14">employee</text>
    <text
       font-family="'Segoe UI', 'Segoe UI_MSFontService', sans-serif"
       font-weight="400"
       font-size="24px"
       transform="translate(1685.57,943)"
       id="text15">access to</text>
    <text
       font-family="'Segoe UI', 'Segoe UI_MSFontService', sans-serif"
       font-weight="400"
       font-size="24px"
       transform="translate(1689.55,972)"
       id="text16">catalogs</text>
    <rect
       x="1297"
       y="843"
       width="252"
       height="154"
       fill="#ffffff"
       id="rect16" />
    <path
       d="m 1328.5,843 v 154 m 189,-154 v 154"
       stroke="#0078d4"
       stroke-width="2"
       stroke-linejoin="round"
       stroke-miterlimit="10"
       fill="none"
       fill-rule="evenodd"
       id="path16" />
    <rect
       x="1297"
       y="843"
       width="252"
       height="154"
       stroke="#0078d4"
       stroke-width="2"
       stroke-linejoin="round"
       stroke-miterlimit="10"
       fill="none"
       id="rect17" />
    <text
       font-family="'Segoe UI', 'Segoe UI_MSFontService', sans-serif"
       font-weight="400"
       font-size="24px"
       transform="translate(1388.49,900)"
       id="text17">Assign</text>
    <text
       font-family="'Segoe UI', 'Segoe UI_MSFontService', sans-serif"
       font-weight="400"
       font-size="24px"
       transform="translate(1366.82,929)"
       id="text18">vendors to</text>
    <text
       font-family="'Segoe UI', 'Segoe UI_MSFontService', sans-serif"
       font-weight="400"
       font-size="24px"
       transform="translate(1379.24,958)"
       id="text19">catalogs</text>
    <rect
       x="1298"
       y="361"
       width="252"
       height="154"
       stroke="#00569b"
       stroke-width="2"
       stroke-linejoin="round"
       stroke-miterlimit="10"
       fill="#0078d4"
       id="rect19" />
    <text
       fill="#ffffff"
       font-family="'Segoe UI', 'Segoe UI_MSFontService', sans-serif"
       font-weight="400"
       font-size="24px"
       transform="translate(1389.49,418)"
       id="text20">Define</text>
    <text
       fill="#ffffff"
       font-family="'Segoe UI', 'Segoe UI_MSFontService', sans-serif"
       font-weight="400"
       font-size="24px"
       transform="translate(1355.72,447)"
       id="text21">procurement</text>
    <text
       fill="#ffffff"
       font-family="'Segoe UI', 'Segoe UI_MSFontService', sans-serif"
       font-weight="400"
       font-size="24px"
       transform="translate(1379.9,476)"
       id="text22">catalogs</text>
    <rect
       x="1298"
       y="1066"
       width="252"
       height="153"
       fill="#ffffff"
       id="rect22" />
    <path
       d="m 1329.5,1066 v 153 m 189,-153 v 153"
       stroke="#0078d4"
       stroke-width="2"
       stroke-linejoin="round"
       stroke-miterlimit="10"
       fill="none"
       fill-rule="evenodd"
       id="path22" />
    <rect
       x="1298"
       y="1066"
       width="252"
       height="153"
       stroke="#0078d4"
       stroke-width="2"
       stroke-linejoin="round"
       stroke-miterlimit="10"
       fill="none"
       id="rect23" />
    <text
       font-family="'Segoe UI', 'Segoe UI_MSFontService', sans-serif"
       font-weight="400"
       font-size="24px"
       transform="translate(1371.89,1108)"
       id="text23">Configure</text>
    <text
       font-family="'Segoe UI', 'Segoe UI_MSFontService', sans-serif"
       font-weight="400"
       font-size="24px"
       transform="translate(1375.91,1137)"
       id="text24">access to</text>
    <text
       font-family="'Segoe UI', 'Segoe UI_MSFontService', sans-serif"
       font-weight="400"
       font-size="24px"
       transform="translate(1381.93,1166)"
       id="text25">external</text>
    <text
       font-family="'Segoe UI', 'Segoe UI_MSFontService', sans-serif"
       font-weight="400"
       font-size="24px"
       transform="translate(1379.9,1195)"
       id="text26">catalogs</text>
    <path
       d="m 1318,1349 c 0,-19.88 16.12,-36 36,-36 h 139 c 19.88,0 36,16.12 36,36 v 0 c 0,19.88 -16.12,36 -36,36 h -139 c -19.88,0 -36,-16.12 -36,-36 z"
       stroke="#0078d4"
       stroke-width="2"
       stroke-linejoin="round"
       stroke-miterlimit="10"
       fill="#ffffff"
       fill-rule="evenodd"
       id="path26" />
    <text
       font-family="'Segoe UI', 'Segoe UI_MSFontService', sans-serif"
       font-weight="400"
       font-size="24px"
       transform="translate(1403.9,1358)"
       id="text27">End</text>
    <path
       d="m 552.5,227 h 50.482 v 3 H 552.5 Z m 48.982,-3 9,4.5 -9,4.5 z"
       fill="#0078d4"
       id="path27" />
    <path
       d="M 5.44507e-6,-1.5 50.3433,-1.49982 l -10e-5,3 L -5.44507e-6,1.5 Z M 48.8433,-4.49982 l 9,4.500029974 L 48.8432,4.50018 Z"
       fill="#0078d4"
       transform="matrix(1,0,0,-1,243.5,228.5)"
       id="path28" />
    <path
       d="m 862.5,227 h 561.36 c 0.83,0 1.5,0.672 1.5,1.5 v 125.633 h -3 V 228.5 l 1.5,1.5 H 862.5 Z m 565.86,125.633 -4.5,9 -4.5,-9 z"
       fill="#0078d4"
       id="path29" />
    <path
       d="m 0,-1.5 h 24.0002 c 0.8284,0 1.5,0.671573 1.5,1.5 v 369.634 c 0,0.829 -0.6716,1.5 -1.5,1.5 H 7.50021 v -3 H 24.0002 l -1.5,1.5 V 0 l 1.5,1.5 H 0 Z m 9.00021,375.634 -9.000000026,-4.5 9.000000026,-4.5 z"
       fill="#0078d4"
       transform="matrix(-1,0,0,1,31.5003,68.5001)"
       id="path30" />
    <rect
       x="300"
       y="361"
       width="252"
       height="154"
       fill="#ffffff"
       id="rect30" />
    <path
       d="m 331.5,361 v 154 m 189,-154 v 154"
       stroke="#0078d4"
       stroke-width="2"
       stroke-linejoin="round"
       stroke-miterlimit="10"
       fill="none"
       fill-rule="evenodd"
       id="path31" />
    <rect
       x="300"
       y="361"
       width="252"
       height="154"
       stroke="#0078d4"
       stroke-width="2"
       stroke-linejoin="round"
       stroke-miterlimit="10"
       fill="none"
       id="rect31" />
    <text
       font-family="'Segoe UI', 'Segoe UI_MSFontService', sans-serif"
       font-weight="400"
       font-size="24px"
       transform="translate(392.482,432)"
       id="text31">Create</text>
    <text
       font-family="'Segoe UI', 'Segoe UI_MSFontService', sans-serif"
       font-weight="400"
       font-size="24px"
       transform="translate(384.382,461)"
       id="text32">vendors</text>
    <path
       d="M 5.44507e-6,-1.5 50.3433,-1.49982 l -10e-5,3 L -5.44507e-6,1.5 Z M 48.8433,-4.49982 l 9,4.500029974 L 48.8432,4.50018 Z"
       fill="#0078d4"
       transform="matrix(1,0,0,-1,243.5,438.5)"
       id="path32" />
    <path
       d="m 552.5,437 h 737.85 v 3 H 552.5 Z m 736.34,-3 9,4.5 -9,4.5 z"
       fill="#0078d4"
       id="path33" />
    <rect
       x="1292"
       y="574"
       width="263"
       height="153"
       fill="#ffffff"
       id="rect33" />
    <path
       d="M 1324.88,574 V 727 M 1522.12,574 V 727"
       stroke="#0078d4"
       stroke-width="2"
       stroke-linejoin="round"
       stroke-miterlimit="10"
       fill="none"
       fill-rule="evenodd"
       id="path34" />
    <rect
       x="1292"
       y="574"
       width="263"
       height="153"
       stroke="#0078d4"
       stroke-width="2"
       stroke-linejoin="round"
       stroke-miterlimit="10"
       fill="none"
       id="rect34" />
    <text
       font-family="'Segoe UI', 'Segoe UI_MSFontService', sans-serif"
       font-weight="400"
       font-size="24px"
       transform="translate(1389.82,630)"
       id="text34">Create</text>
    <text
       font-family="'Segoe UI', 'Segoe UI_MSFontService', sans-serif"
       font-weight="400"
       font-size="24px"
       transform="translate(1355.72,659)"
       id="text35">procurement</text>
    <text
       font-family="'Segoe UI', 'Segoe UI_MSFontService', sans-serif"
       font-weight="400"
       font-size="24px"
       transform="translate(1379.9,688)"
       id="text36">catalogs</text>
    <rect
       x="987"
       y="843"
       width="252"
       height="154"
       fill="#ffffff"
       id="rect36" />
    <path
       d="m 1018.5,843 v 154 m 189,-154 v 154"
       stroke="#0078d4"
       stroke-width="2"
       stroke-linejoin="round"
       stroke-miterlimit="10"
       fill="none"
       fill-rule="evenodd"
       id="path36" />
    <rect
       x="987"
       y="843"
       width="252"
       height="154"
       stroke="#0078d4"
       stroke-width="2"
       stroke-linejoin="round"
       stroke-miterlimit="10"
       fill="none"
       id="rect37" />
    <text
       font-family="'Segoe UI', 'Segoe UI_MSFontService', sans-serif"
       font-weight="400"
       font-size="24px"
       transform="translate(1078.17,900)"
       id="text37">Assign</text>
    <text
       font-family="'Segoe UI', 'Segoe UI_MSFontService', sans-serif"
       font-weight="400"
       font-size="24px"
       transform="translate(1051.92,929)"
       id="text38">products to</text>
    <text
       font-family="'Segoe UI', 'Segoe UI_MSFontService', sans-serif"
       font-weight="400"
       font-size="24px"
       transform="translate(1068.92,958)"
       id="text39">catalogs</text>
    <path
       d="m 1114.5,844.833 v -24 h 620.63 V 843.5"
       stroke="#0078d4"
       stroke-width="3"
       stroke-linejoin="round"
       stroke-miterlimit="10"
       fill="none"
       fill-rule="evenodd"
       id="path39" />
    <path
       d="m 1113.5,997.5 h 0.24 v 23.33 h 620.23 v -21.997"
       stroke="#0078d4"
       stroke-width="3"
       stroke-linejoin="round"
       stroke-miterlimit="10"
       fill="none"
       fill-rule="evenodd"
       id="path40" />
    <path
       d="M 1.49996,-0.0108612 2.11232,84.5576 -0.8876,84.5793 -1.49996,0.0108612 Z M 5.10138,83.0359 0.666667,92.0682 -3.89838,83.1011 Z"
       fill="#0078d4"
       transform="matrix(-1,0,0,1,1424.17,727.5)"
       id="path41" />
    <path
       d="M 1.5,-1.06941e-5 1.50037,51.4035 h -3 L -1.5,1.06941e-5 Z M 4.50036,49.9035 l -4.499940053,9 -4.500059947,-9 z"
       fill="#0078d4"
       transform="matrix(-1,0,0,1,1424.5,515.5)"
       id="path42" />
    <path
       d="m 1425,1021.48 0.56,37.49 -3,0.04 -0.56,-37.49 z m 3.53,35.94 -4.36,9.07 -4.64,-8.93 z"
       fill="#0078d4"
       id="path43" />
    <path
       d="m 1239.5,920.5 h 58.32"
       stroke="#0078d4"
       stroke-width="3"
       stroke-linejoin="round"
       stroke-miterlimit="10"
       fill="none"
       fill-rule="evenodd"
       id="path44" />
    <path
       d="m 1549.5,920.5 h 58.32"
       stroke="#0078d4"
       stroke-width="3"
       stroke-linejoin="round"
       stroke-miterlimit="10"
       fill="none"
       fill-rule="evenodd"
       id="path45" />
    <path
       d="m 1423.5,998.5 v 27.91"
       stroke="#0078d4"
       stroke-width="3"
       stroke-linejoin="round"
       stroke-miterlimit="10"
       fill="none"
       fill-rule="evenodd"
       id="path46" />
    <path
       d="m 1423.5,819.5 v 24.248"
       stroke="#0078d4"
       stroke-width="3"
       stroke-linejoin="round"
       stroke-miterlimit="10"
       fill="none"
       fill-rule="evenodd"
       id="path47" />
    <path
       d="m 1426,1219.5 v 85.92 h -3 v -85.92 z m 3,84.42 -4.5,9 -4.5,-9 z"
       fill="#0078d4"
       id="path48" />
  </g>
</svg>
