<?xml version="1.0"?>
<svg xmlns="http://www.w3.org/2000/svg" xmlns:xlink="http://www.w3.org/1999/xlink" xmlns:ev="http://www.w3.org/2001/xml-events"    viewBox="36 49 477 599"    xml:space="preserve" color-interpolation-filters="sRGB" class="st10" width="1193" height="1498">
<rect x="0" y="0" width="1193" height="1498" fill="#ffffff" />
	<style type="text/css"><![CDATA[
		.st1 {fill:#ffffff;stroke:#0078d4;stroke-linecap:round;stroke-linejoin:round;stroke-width:0.24}
		.st2 {fill:#000000;font-family:Calibri;font-size:1.00001em}
		.st3 {fill:#0078d4;stroke:none;stroke-linecap:round;stroke-linejoin:round;stroke-width:0.24}
		.st4 {fill:#ffffff;font-family:Calibri;font-size:1.00001em}
		.st5 {font-size:1em}
		.st6 {fill:#ffffff}
		.st7 {stroke:#0078d4;stroke-linecap:round;stroke-linejoin:round;stroke-width:0.24}
		.st8 {marker-end:url(#mrkr13-75);stroke:#0078d4;stroke-linecap:round;stroke-linejoin:round;stroke-width:0.75}
		.st9 {fill:#0078d4;fill-opacity:1;stroke:#0078d4;stroke-opacity:1;stroke-width:0.22935779816514}
		.st10 {fill:none;fill-rule:evenodd;font-size:12px;overflow:visible;stroke-linecap:square;stroke-miterlimit:3}
	]]></style><style> a { pointer-events: none; } </style><style>a.rules_svg_anchor g:hover { opacity:0.8; cursor:pointer; }</style>
	<defs id="Markers">
		<g id="lend13">
			<path d="M 3 1 L 0 0 L 3 -1 L 3 1 " style="stroke:none" />
		</g>
		<marker id="mrkr13-75" class="st9" refX="-13.08" orient="auto" markerUnits="strokeWidth" overflow="visible">
			<use xlink:href="#lend13" transform="scale(-4.36,-4.36) " />
		</marker>
	</defs>
	<g>
		
		<g id="shape1-1" transform="translate(36,-693)">
			
			<desc>Start</desc>
			<path d="M18 792 L67.5 792 A18 18 -180 0 0 67.5 756 L18 756 A18 18 -180 1 0 18 792 Z" class="st1" />
			<text x="31.01" y="777.6" class="st2">Start</text>
		</g>
		<a id="0e2f2607-9d10-4939-a9fa-6e97fc7c6ad2" class="rules_svg_anchor rules_svg_shape"   href="/lms/chart?onclick=b3BlbkNoYXJ0Q29udGV4dE1lbnUoZXZlbnQsJ3cxMjVkNTIzNTk2NWMxNzI4MnY0MDc4JywyMzA0MiwgMSwgMSwgdGhpcywgd2luZG93LmZyYW1lRWxlbWVudCk=&amp;navigate=true&amp;details=Description">
			<g id="shape2-4" transform="translate(234,-679.5)">
				
				<desc>75.30 Manage supplier relationships</desc>
				<rect x="0" y="729" width="126" height="63" class="st3" />
				<text x="7.13" y="756.9" class="st4">75.30 Manage supplier <tspan x="31.59" dy="1.2em" class="st5">relationships</tspan>
				</text>
			</g>
		</a>
		<a id="e3a905f2-113a-47f7-8ace-2b6840b51b2f" class="rules_svg_anchor rules_svg_shape"   href="/lms/chart?onclick=b3BlbkNoYXJ0Q29udGV4dE1lbnUoZXZlbnQsJ3cxMjVkNTIzNTk2NWMxNzI4M3Y0MDc4JywyMzA0MywgMSwgMSwgdGhpcywgd2luZG93LmZyYW1lRWxlbWVudCk=&amp;navigate=true&amp;details=Description">
			<g id="shape3-8" transform="translate(234,-576)">
				
				<desc>75.30.010 Discover suppliers</desc>
				<path d="M0 792 L126 792 L126 729 L0 729 L0 792 Z" class="st6" />
				<path d="M0 792 L126 792 L126 729 L0 729 L0 792" class="st7" />
				<path d="M9 792 L9 729" class="st7" />
				<path d="M117 792 L117 729" class="st7" />
				<text x="16.42" y="756.9" class="st2">75.30.010 Discover <tspan x="41.02" dy="1.2em" class="st5">suppliers</tspan>
				</text>
			</g>
		</a>
		<a id="1df29f7c-142c-4971-9555-49792d4763f2" class="rules_svg_anchor rules_svg_shape"   href="/lms/chart?onclick=b3BlbkNoYXJ0Q29udGV4dE1lbnUoZXZlbnQsJ3cxMjVkNTIzNTk2NWMxNzI4NHY0MDc4JywyMzA0NCwgMSwgMSwgdGhpcywgd2luZG93LmZyYW1lRWxlbWVudCk=&amp;navigate=true&amp;details=Description">
			<g id="shape4-15" transform="translate(234,-472.5)">
				
				<desc>75.30.020 Onboard new suppliers</desc>
				<path d="M0 792 L126 792 L126 729 L0 729 L0 792 Z" class="st6" />
				<path d="M0 792 L126 792 L126 729 L0 729 L0 792" class="st7" />
				<path d="M9 792 L9 729" class="st7" />
				<path d="M117 792 L117 729" class="st7" />
				<text x="15.77" y="756.9" class="st2">75.30.020 Onboard <tspan x="29.23" dy="1.2em" class="st5">new suppliers</tspan>
				</text>
			</g>
		</a>
		<a id="6e6c3ca1-331a-439f-8858-19c01e789fd7" class="rules_svg_anchor rules_svg_shape"   href="/lms/chart?onclick=b3BlbkNoYXJ0Q29udGV4dE1lbnUoZXZlbnQsJ3cxMjVkNTIzNTk2NWMxNzI4NXY0MDc4JywyMzA0NSwgMSwgMSwgdGhpcywgd2luZG93LmZyYW1lRWxlbWVudCk=&amp;navigate=true&amp;details=Description">
			<g id="shape5-22" transform="translate(81,-369)">
				
				<desc>75.30.030 Manage active suppliers</desc>
				<path d="M0 792 L126 792 L126 729 L0 729 L0 792 Z" class="st6" />
				<path d="M0 792 L126 792 L126 729 L0 729 L0 792" class="st7" />
				<path d="M9 792 L9 729" class="st7" />
				<path d="M117 792 L117 729" class="st7" />
				<text x="17.49" y="756.9" class="st2">75.30.030 Manage <tspan x="25.17" dy="1.2em" class="st5">active suppliers</tspan>
				</text>
			</g>
		</a>
		<a id="3268704b-3119-4426-a69e-e55c7b203d57" class="rules_svg_anchor rules_svg_shape"   href="/lms/chart?onclick=b3BlbkNoYXJ0Q29udGV4dE1lbnUoZXZlbnQsJ3cxMjVkNTIzNTk2NWMxNzI4NnY0MDc4JywyMzA0NiwgMSwgMSwgdGhpcywgd2luZG93LmZyYW1lRWxlbWVudCk=&amp;navigate=true&amp;details=Description">
			<g id="shape6-29" transform="translate(234,-369)">
				
				<desc>75.30.040 Evaluate supplier performance</desc>
				<path d="M0 792 L126 792 L126 729 L0 729 L0 792 Z" class="st6" />
				<path d="M0 792 L126 792 L126 729 L0 729 L0 792" class="st7" />
				<path d="M9 792 L9 729" class="st7" />
				<path d="M117 792 L117 729" class="st7" />
				<text x="16.41" y="749.7" class="st2">75.30.040 Evaluate <tspan x="43.36" dy="1.2em" class="st5">supplier </tspan>
					<tspan x="31.34" dy="1.2em" class="st5">performance</tspan>
				</text>
			</g>
		</a>
		<a id="02c30de6-365a-45b8-95da-e63b0dd65243" class="rules_svg_anchor rules_svg_shape"   href="/lms/chart?onclick=b3BlbkNoYXJ0Q29udGV4dE1lbnUoZXZlbnQsJ3cxMjVkNTIzNTk2NWM1NTMxNXY0MDc4JywyMzA0NywgMSwgMSwgdGhpcywgd2luZG93LmZyYW1lRWxlbWVudCk=&amp;navigate=true&amp;details=Description">
			<g id="shape7-37" transform="translate(387,-369)">
				
				<desc>75.30.050 Track supplier certifications and compliance</desc>
				<path d="M0 792 L126 792 L126 729 L0 729 L0 792 Z" class="st6" />
				<path d="M0 792 L126 792 L126 729 L0 729 L0 792" class="st7" />
				<path d="M9 792 L9 729" class="st7" />
				<path d="M117 792 L117 729" class="st7" />
				<text x="24.17" y="742.5" class="st2">75.30.050 Track <tspan x="43.36" dy="1.2em" class="st5">supplier </tspan>
					<tspan x="20.79" dy="1.2em" class="st5">certifications and </tspan>
					<tspan x="35.05" dy="1.2em" class="st5">compliance</tspan>
				</text>
			</g>
		</a>
		<a id="409034ef-88ee-421a-abd3-a5039aa079fa" class="rules_svg_anchor rules_svg_shape"   href="/lms/chart?onclick=b3BlbkNoYXJ0Q29udGV4dE1lbnUoZXZlbnQsJ3cxMjVkNTIzNTk2NWM1NTMyNnY0MDc4JywyMzA0OCwgMSwgMSwgdGhpcywgd2luZG93LmZyYW1lRWxlbWVudCk=&amp;navigate=true&amp;details=Description">
			<g id="shape8-46" transform="translate(81,-243)">
				
				<desc>75.30.060 Manage supplier risk</desc>
				<path d="M0 792 L126 792 L126 729 L0 729 L0 792 Z" class="st6" />
				<path d="M0 792 L126 792 L126 729 L0 729 L0 792" class="st7" />
				<path d="M9 792 L9 729" class="st7" />
				<path d="M117 792 L117 729" class="st7" />
				<text x="17.49" y="756.9" class="st2">75.30.060 Manage <tspan x="33.47" dy="1.2em" class="st5">supplier risk</tspan>
				</text>
			</g>
		</a>
		<a id="3d3e6c68-2f16-4131-bcf8-30fdc5e1d905" class="rules_svg_anchor rules_svg_shape"   href="/lms/chart?onclick=b3BlbkNoYXJ0Q29udGV4dE1lbnUoZXZlbnQsJ3cxMjVkNTIzNTk2NWM1NTMyOHY0MDc4JywyMzA0OSwgMSwgMSwgdGhpcywgd2luZG93LmZyYW1lRWxlbWVudCk=&amp;navigate=true&amp;details=Description">
			<g id="shape9-53" transform="translate(234,-243)">
				
				<desc>75.30.070 Manage supplier contracts</desc>
				<path d="M0 792 L126 792 L126 729 L0 729 L0 792 Z" class="st6" />
				<path d="M0 792 L126 792 L126 729 L0 729 L0 792" class="st7" />
				<path d="M9 792 L9 729" class="st7" />
				<path d="M117 792 L117 729" class="st7" />
				<text x="17.49" y="756.9" class="st2">75.30.070 Manage <tspan x="19.29" dy="1.2em" class="st5">supplier contracts</tspan>
				</text>
			</g>
		</a>
		<a id="1be8c698-eec7-404e-9d9c-87fa3fda0a1e" class="rules_svg_anchor rules_svg_shape"   href="/lms/chart?onclick=b3BlbkNoYXJ0Q29udGV4dE1lbnUoZXZlbnQsJ3cxMjVkNTIzNTk2NWM1NTMzMnY0MDc4JywyMzA1MCwgMSwgMSwgdGhpcywgd2luZG93LmZyYW1lRWxlbWVudCk=&amp;navigate=true&amp;details=Description">
			<g id="shape10-60" transform="translate(387,-243)">
				
				<desc>75.30.080 Manage supplier pricing</desc>
				<path d="M0 792 L126 792 L126 729 L0 729 L0 792 Z" class="st6" />
				<path d="M0 792 L126 792 L126 729 L0 729 L0 792" class="st7" />
				<path d="M9 792 L9 729" class="st7" />
				<path d="M117 792 L117 729" class="st7" />
				<text x="17.49" y="756.9" class="st2">75.30.080 Manage <tspan x="25.5" dy="1.2em" class="st5">supplier pricing</tspan>
				</text>
			</g>
		</a>
		<g id="shape11-67" transform="translate(254.25,-144)">
			
			<desc>End</desc>
			<path d="M18 792 L67.5 792 A18 18 -180 0 0 67.5 756 L18 756 A18 18 -180 1 0 18 792 Z" class="st1" />
			<text x="33.52" y="777.6" class="st2">End</text>
		</g>
		<g id="shape13-70" transform="translate(121.5,-702)">
			
			<path d="M0 783 L102.69 783" class="st8" />
		</g>
		<g id="shape14-76" transform="translate(288,-679.5)">
			
			<path d="M9 792 L9 822.69" class="st8" />
		</g>
		<g id="shape15-81" transform="translate(288,-576)">
			
			<path d="M9 792 L9 822.69" class="st8" />
		</g>
		<g id="shape16-86" transform="translate(297,-472.5)">
			
			<path d="M0 792 L0 814.84 L-153 814.84 L-153 822.69" class="st8" />
		</g>
		<g id="shape17-91" transform="translate(207,-391.5)">
			
			<path d="M0 783 L17.19 783" class="st8" />
		</g>
		<g id="shape18-96" transform="translate(360,-391.5)">
			
			<path d="M0 783 L17.19 783" class="st8" />
		</g>
		<g id="shape19-101" transform="translate(450,-369)">
			
			<path d="M0 792 L0 809.66 L-306 809.66 L-306 845.19" class="st8" />
		</g>
		<g id="shape20-106" transform="translate(207,-265.5)">
			
			<path d="M0 783 L17.19 783" class="st8" />
		</g>
		<g id="shape21-111" transform="translate(360,-265.5)">
			
			<path d="M0 783 L17.19 783" class="st8" />
		</g>
		<g id="shape22-116" transform="translate(450,-243)">
			
			<path d="M0 792 L0 837 L-153 837 L-153 845.19" class="st8" />
		</g>
	</g>
</svg>
