<?xml version="1.0" encoding="UTF-8" standalone="no"?>
<svg
   width="981.22845"
   height="556.46191"
   overflow="hidden"
   version="1.1"
   id="svg45"
   sodipodi:docname="admin_contoso_tenant.svg"
   inkscape:version="1.3.2 (091e20e, 2023-11-25, custom)"
   xmlns:inkscape="http://www.inkscape.org/namespaces/inkscape"
   xmlns:sodipodi="http://sodipodi.sourceforge.net/DTD/sodipodi-0.dtd"
   xmlns="http://www.w3.org/2000/svg"
   xmlns:svg="http://www.w3.org/2000/svg">
  <defs
     id="defs45" />
  <sodipodi:namedview
     id="namedview45"
     pagecolor="#ffffff"
     bordercolor="#000000"
     borderopacity="0.25"
     inkscape:showpageshadow="2"
     inkscape:pageopacity="0.0"
     inkscape:pagecheckerboard="0"
     inkscape:deskcolor="#d1d1d1"
     inkscape:zoom="2.54375"
     inkscape:cx="395.086"
     inkscape:cy="273.80835"
     inkscape:window-width="3840"
     inkscape:window-height="2054"
     inkscape:window-x="2869"
     inkscape:window-y="-11"
     inkscape:window-maximized="1"
     inkscape:current-layer="svg45" />
  <g
     id="g45"
     transform="translate(-244.914,-86.093369)">
    <rect
       x="244.914"
       y="86.093369"
       width="981.22845"
       height="556.46191"
       fill="#ffffff"
       id="rect1"
       style="stroke-width:0.769718" />
    <path
       d="m 881.5,400.5 v 48.438 h 74.271"
       stroke="#3d67b1"
       stroke-width="1.33333"
       stroke-miterlimit="8"
       fill="none"
       fill-rule="evenodd"
       id="path1" />
    <path
       d="m 881.3,286.5 v 33.906"
       stroke="#ffc000"
       stroke-width="1.33333"
       stroke-miterlimit="8"
       fill="none"
       fill-rule="evenodd"
       id="path2" />
    <path
       d="m 636.5,171.5 v 16.953 h 244.206 v 16.953"
       stroke="#ffc000"
       stroke-width="1.33333"
       stroke-miterlimit="8"
       fill="none"
       fill-rule="evenodd"
       id="path3" />
    <path
       d="m 685.5,400.5 v 48.438 h 74.271"
       stroke="#3d67b1"
       stroke-width="1.33333"
       stroke-miterlimit="8"
       fill="none"
       fill-rule="evenodd"
       id="path4" />
    <path
       d="m 685.3,286.5 v 33.906"
       stroke="#ffc000"
       stroke-width="1.33333"
       stroke-miterlimit="8"
       fill="none"
       fill-rule="evenodd"
       id="path5" />
    <path
       d="m 636.5,171.5 v 16.953 h 48.841 v 16.953"
       stroke="#ffc000"
       stroke-width="1.33333"
       stroke-miterlimit="8"
       fill="none"
       fill-rule="evenodd"
       id="path6" />
    <path
       d="m 490.5,400.5 v 48.438 h 74.271"
       stroke="#3d67b1"
       stroke-width="1.33333"
       stroke-miterlimit="8"
       fill="none"
       fill-rule="evenodd"
       id="path7" />
    <path
       d="m 392.5,286.5 v 16.953 h 97.682 v 16.953"
       stroke="#ffc000"
       stroke-width="1.33333"
       stroke-miterlimit="8"
       fill="none"
       fill-rule="evenodd"
       id="path8" />
    <path
       d="m 294.5,400.5 v 163.073 h 74.271"
       stroke="#3d67b1"
       stroke-width="1.33333"
       stroke-miterlimit="8"
       fill="none"
       fill-rule="evenodd"
       id="path9" />
    <path
       d="m 294.5,400.5 v 48.438 h 74.271"
       stroke="#3d67b1"
       stroke-width="1.33333"
       stroke-miterlimit="8"
       fill="none"
       fill-rule="evenodd"
       id="path10" />
    <path
       d="m 392.182,286.5 v 16.953 H 294.5 v 16.953"
       stroke="#ffc000"
       stroke-width="1.33333"
       stroke-miterlimit="8"
       fill="none"
       fill-rule="evenodd"
       id="path11" />
    <path
       d="m 636.706,171.5 v 16.953 H 392.5 v 16.953"
       stroke="#ffc000"
       stroke-width="1.33333"
       stroke-miterlimit="8"
       fill="none"
       fill-rule="evenodd"
       id="path12" />
    <path
       d="m 605.975,104.967 c 14.378,-17.1343 39.923,-19.3693 57.058,-4.9917 1.806,1.5157 3.476,3.1857 4.992,4.9917"
       stroke="#34599c"
       stroke-width="1.33333"
       stroke-miterlimit="8"
       fill="none"
       fill-rule="evenodd"
       id="path13" />
    <path
       d="m 668.025,157.033 c -14.378,17.134 -39.923,19.369 -57.058,4.992 -1.806,-1.516 -3.476,-3.186 -4.992,-4.992"
       stroke="#34599c"
       stroke-width="1.33333"
       stroke-miterlimit="8"
       fill="none"
       fill-rule="evenodd"
       id="path14" />
    <text
       font-family="Calibri, Calibri_MSFontService, sans-serif"
       font-weight="400"
       font-size="21px"
       transform="translate(577.607,137)"
       id="text14">Contoso Corp</text>
    <path
       d="m 361.975,219.967 c 14.378,-17.134 39.923,-19.369 57.058,-4.992 1.806,1.516 3.476,3.186 4.992,4.992"
       stroke="#34599c"
       stroke-width="1.33333"
       stroke-miterlimit="8"
       fill="none"
       fill-rule="evenodd"
       id="path15" />
    <path
       d="m 424.025,272.033 c -14.378,17.134 -39.923,19.369 -57.058,4.992 -1.806,-1.516 -3.476,-3.186 -4.992,-4.992"
       stroke="#34599c"
       stroke-width="1.33333"
       stroke-miterlimit="8"
       fill="none"
       fill-rule="evenodd"
       id="path16" />
    <text
       font-family="Calibri, Calibri_MSFontService, sans-serif"
       font-weight="400"
       font-size="21px"
       transform="translate(313.051,240)"
       id="text16">Dynamics 365 and</text>
    <text
       font-family="Calibri, Calibri_MSFontService, sans-serif"
       font-weight="400"
       font-size="21px"
       transform="translate(324.871,263)"
       id="text17">Power Platform</text>
    <path
       d="m 264.135,334.601 c 14.482,-16.835 40.041,-18.888 57.087,-4.585 1.671,1.402 3.224,2.936 4.643,4.585"
       stroke="#34599c"
       stroke-width="1.33333"
       stroke-miterlimit="8"
       fill="none"
       fill-rule="evenodd"
       id="path17" />
    <path
       d="m 325.865,386.399 c -14.482,16.835 -40.041,18.888 -57.087,4.585 -1.671,-1.402 -3.224,-2.935 -4.643,-4.585"
       stroke="#34599c"
       stroke-width="1.33333"
       stroke-miterlimit="8"
       fill="none"
       fill-rule="evenodd"
       id="path18" />
    <text
       font-family="Calibri, Calibri_MSFontService, sans-serif"
       font-weight="400"
       font-size="21px"
       transform="translate(246.572,366)"
       id="text18">Operations</text>
    <path
       d="m 368.975,448.967 c 14.378,-17.134 39.923,-19.369 57.058,-4.992 1.806,1.516 3.476,3.186 4.992,4.992"
       stroke="#34599c"
       stroke-width="1.33333"
       stroke-miterlimit="8"
       fill="none"
       fill-rule="evenodd"
       id="path19" />
    <path
       d="m 431.025,501.033 c -14.378,17.134 -39.923,19.369 -57.058,4.992 -1.806,-1.516 -3.476,-3.186 -4.992,-4.992"
       stroke="#34599c"
       stroke-width="1.33333"
       stroke-miterlimit="8"
       fill="none"
       fill-rule="evenodd"
       id="path20" />
    <text
       font-family="Calibri, Calibri_MSFontService, sans-serif"
       font-weight="400"
       font-size="21px"
       transform="translate(351.777,469)"
       id="text20">Production</text>
    <text
       font-family="Calibri, Calibri_MSFontService, sans-serif"
       font-weight="400"
       font-size="21px"
       transform="translate(343.75,492)"
       id="text21">environment</text>
    <path
       d="m 368.975,563.967 c 14.378,-17.134 39.923,-19.369 57.058,-4.992 1.806,1.516 3.476,3.186 4.992,4.992"
       stroke="#34599c"
       stroke-width="1.33333"
       stroke-miterlimit="8"
       fill="none"
       fill-rule="evenodd"
       id="path21" />
    <path
       d="m 431.025,616.033 c -14.378,17.134 -39.923,19.369 -57.058,4.992 -1.806,-1.516 -3.476,-3.186 -4.992,-4.992"
       stroke="#34599c"
       stroke-width="1.33333"
       stroke-miterlimit="8"
       fill="none"
       fill-rule="evenodd"
       id="path22" />
    <text
       font-family="Calibri, Calibri_MSFontService, sans-serif"
       font-weight="400"
       font-size="21px"
       transform="translate(324.157,596)"
       id="text22">Test environment</text>
    <path
       d="m 459.135,334.601 c 14.482,-16.835 40.041,-18.888 57.087,-4.585 1.671,1.402 3.224,2.936 4.643,4.585"
       stroke="#34599c"
       stroke-width="1.33333"
       stroke-miterlimit="8"
       fill="none"
       fill-rule="evenodd"
       id="path23" />
    <path
       d="m 520.865,386.399 c -14.482,16.835 -40.041,18.888 -57.087,4.585 -1.671,-1.402 -3.224,-2.935 -4.643,-4.585"
       stroke="#34599c"
       stroke-width="1.33333"
       stroke-miterlimit="8"
       fill="none"
       fill-rule="evenodd"
       id="path24" />
    <text
       font-family="Calibri, Calibri_MSFontService, sans-serif"
       font-weight="400"
       font-size="21px"
       transform="translate(467.907,366)"
       id="text24">Sales</text>
    <path
       d="m 563.975,448.967 c 14.378,-17.134 39.923,-19.369 57.058,-4.992 1.806,1.516 3.476,3.186 4.992,4.992"
       stroke="#34599c"
       stroke-width="1.33333"
       stroke-miterlimit="8"
       fill="none"
       fill-rule="evenodd"
       id="path25" />
    <path
       d="m 626.025,501.033 c -14.378,17.134 -39.923,19.369 -57.058,4.992 -1.806,-1.516 -3.476,-3.186 -4.992,-4.992"
       stroke="#34599c"
       stroke-width="1.33333"
       stroke-miterlimit="8"
       fill="none"
       fill-rule="evenodd"
       id="path26" />
    <text
       font-family="Calibri, Calibri_MSFontService, sans-serif"
       font-weight="400"
       font-size="21px"
       transform="translate(547.142,469)"
       id="text26">Production</text>
    <text
       font-family="Calibri, Calibri_MSFontService, sans-serif"
       font-weight="400"
       font-size="21px"
       transform="translate(539.115,492)"
       id="text27">environment</text>
    <path
       d="m 654.975,219.967 c 14.378,-17.134 39.923,-19.369 57.058,-4.992 1.806,1.516 3.476,3.186 4.992,4.992"
       stroke="#34599c"
       stroke-width="1.33333"
       stroke-miterlimit="8"
       fill="none"
       fill-rule="evenodd"
       id="path27" />
    <path
       d="m 717.025,272.033 c -14.378,17.134 -39.923,19.369 -57.058,4.992 -1.806,-1.516 -3.476,-3.186 -4.992,-4.992"
       stroke="#34599c"
       stroke-width="1.33333"
       stroke-miterlimit="8"
       fill="none"
       fill-rule="evenodd"
       id="path28" />
    <text
       font-family="Calibri, Calibri_MSFontService, sans-serif"
       font-weight="400"
       font-size="21px"
       transform="translate(624.698,252)"
       id="text28">Microsoft 365</text>
    <path
       d="m 655.135,334.601 c 14.482,-16.835 40.041,-18.888 57.087,-4.585 1.671,1.402 3.224,2.936 4.643,4.585"
       stroke="#34599c"
       stroke-width="1.33333"
       stroke-miterlimit="8"
       fill="none"
       fill-rule="evenodd"
       id="path29" />
    <path
       d="m 716.865,386.399 c -14.482,16.835 -40.041,18.888 -57.087,4.585 -1.671,-1.402 -3.223,-2.935 -4.643,-4.585"
       stroke="#34599c"
       stroke-width="1.33333"
       stroke-miterlimit="8"
       fill="none"
       fill-rule="evenodd"
       id="path30" />
    <text
       font-family="Calibri, Calibri_MSFontService, sans-serif"
       font-weight="400"
       font-size="21px"
       transform="translate(638.262,366)"
       id="text30">SharePoint</text>
    <path
       d="m 759.975,448.967 c 14.378,-17.134 39.923,-19.369 57.058,-4.992 1.806,1.516 3.476,3.186 4.992,4.992"
       stroke="#34599c"
       stroke-width="1.33333"
       stroke-miterlimit="8"
       fill="none"
       fill-rule="evenodd"
       id="path31" />
    <path
       d="m 822.025,501.033 c -14.378,17.134 -39.923,19.369 -57.058,4.992 -1.806,-1.516 -3.476,-3.186 -4.992,-4.992"
       stroke="#34599c"
       stroke-width="1.33333"
       stroke-miterlimit="8"
       fill="none"
       fill-rule="evenodd"
       id="path32" />
    <text
       font-family="Calibri, Calibri_MSFontService, sans-serif"
       font-weight="400"
       font-size="21px"
       transform="translate(725.413,481)"
       id="text32">SharePoint site</text>
    <path
       d="m 849.975,219.967 c 14.378,-17.134 39.923,-19.369 57.058,-4.992 1.806,1.516 3.476,3.186 4.992,4.992"
       stroke="#34599c"
       stroke-width="1.33333"
       stroke-miterlimit="8"
       fill="none"
       fill-rule="evenodd"
       id="path33" />
    <path
       d="m 912.025,272.033 c -14.378,17.134 -39.923,19.369 -57.058,4.992 -1.806,-1.516 -3.476,-3.186 -4.992,-4.992"
       stroke="#34599c"
       stroke-width="1.33333"
       stroke-miterlimit="8"
       fill="none"
       fill-rule="evenodd"
       id="path34" />
    <text
       font-family="Calibri, Calibri_MSFontService, sans-serif"
       font-weight="400"
       font-size="21px"
       transform="translate(855.749,252)"
       id="text34">Azure</text>
    <path
       d="m 850.135,334.601 c 14.482,-16.835 40.041,-18.888 57.087,-4.585 1.671,1.402 3.224,2.936 4.643,4.585"
       stroke="#34599c"
       stroke-width="1.33333"
       stroke-miterlimit="8"
       fill="none"
       fill-rule="evenodd"
       id="path35" />
    <path
       d="m 911.865,386.399 c -14.482,16.835 -40.041,18.888 -57.087,4.585 -1.671,-1.402 -3.223,-2.935 -4.643,-4.585"
       stroke="#34599c"
       stroke-width="1.33333"
       stroke-miterlimit="8"
       fill="none"
       fill-rule="evenodd"
       id="path36" />
    <text
       font-family="Calibri, Calibri_MSFontService, sans-serif"
       font-weight="400"
       font-size="21px"
       transform="translate(826.863,366)"
       id="text36">Subscription</text>
    <path
       d="m 954.975,448.967 c 14.378,-17.134 39.923,-19.369 57.055,-4.992 1.81,1.516 3.48,3.186 4.99,4.992"
       stroke="#34599c"
       stroke-width="1.33333"
       stroke-miterlimit="8"
       fill="none"
       fill-rule="evenodd"
       id="path37" />
    <path
       d="m 1017.02,501.033 c -14.37,17.134 -39.918,19.369 -57.053,4.992 -1.806,-1.516 -3.476,-3.186 -4.992,-4.992"
       stroke="#34599c"
       stroke-width="1.33333"
       stroke-miterlimit="8"
       fill="none"
       fill-rule="evenodd"
       id="path38" />
    <text
       font-family="Calibri, Calibri_MSFontService, sans-serif"
       font-weight="400"
       font-size="21px"
       transform="translate(942.001,481)"
       id="text38">Web roles</text>
    <rect
       x="1000.5"
       y="99.500099"
       width="221"
       height="46"
       stroke="#ed7d31"
       stroke-width="1.33333"
       stroke-miterlimit="8"
       fill="#ffffff"
       id="rect38" />
    <path
       d="M 1000.82,122.145 711.481,121.677"
       stroke="#ed7d31"
       stroke-width="1.33333"
       stroke-miterlimit="8"
       fill="none"
       fill-rule="evenodd"
       id="path39" />
    <text
       font-family="Calibri, Calibri_MSFontService, sans-serif"
       font-weight="400"
       font-size="19px"
       transform="translate(1014.31,128)"
       id="text39">Microsoft</text>
    <text
       font-family="Calibri, Calibri_MSFontService, sans-serif"
       font-weight="400"
       font-size="19px"
       transform="translate(1091.84,128)"
       id="text40">Entra</text>
    <text
       font-family="Calibri, Calibri_MSFontService, sans-serif"
       font-weight="400"
       font-size="19px"
       transform="translate(1136.29,128)"
       id="text41">ID tenant</text>
    <rect
       x="1083.5"
       y="269.5"
       width="138"
       height="32"
       stroke="#ffc000"
       stroke-width="1.33333"
       stroke-miterlimit="8"
       fill="#ffffff"
       id="rect41" />
    <text
       font-family="Calibri, Calibri_MSFontService, sans-serif"
       font-weight="400"
       font-size="19px"
       transform="translate(1092.62,291)"
       id="text42">Subscriptions</text>
    <path
       d="m 992.5,191.5 c 25.13,0 45.5,3.395 45.5,7.583 v 86.286 c 0,4.188 20.37,7.583 45.5,7.583 -25.13,0 -45.5,3.395 -45.5,7.583 v 104.382 c 0,4.188 -20.37,7.583 -45.5,7.583 z"
       fill="#ffffff"
       fill-rule="evenodd"
       id="path42" />
    <path
       d="m 992.5,191.5 c 25.13,0 45.5,3.395 45.5,7.583 v 86.286 c 0,4.188 20.37,7.583 45.5,7.583 -25.13,0 -45.5,3.395 -45.5,7.583 v 104.382 c 0,4.188 -20.37,7.583 -45.5,7.583"
       stroke="#ffc000"
       stroke-width="1.33333"
       stroke-miterlimit="8"
       fill="none"
       fill-rule="evenodd"
       id="path43" />
    <rect
       x="1111.5"
       y="498.5"
       width="110"
       height="54"
       stroke="#5b9bd5"
       stroke-width="1.33333"
       stroke-miterlimit="8"
       fill="#ffffff"
       id="rect43" />
    <text
       font-family="Calibri, Calibri_MSFontService, sans-serif"
       font-weight="400"
       font-size="19px"
       transform="translate(1120.38,519)"
       id="text43">Access for</text>
    <text
       font-family="Calibri, Calibri_MSFontService, sans-serif"
       font-weight="400"
       font-size="19px"
       transform="translate(1120.38,542)"
       id="text44">users</text>
    <path
       d="m 1033.5,431.5 c 21.54,0 39,2.91 39,6.5 v 82.026 c 0,3.59 17.46,6.5 39,6.5 -21.54,0 -39,2.91 -39,6.499 V 632 c 0,3.59 -17.46,6.5 -39,6.5 z"
       fill="#ffffff"
       fill-rule="evenodd"
       id="path44" />
    <path
       d="m 1033.5,431.5 c 21.54,0 39,2.91 39,6.5 v 82.026 c 0,3.59 17.46,6.5 39,6.5 -21.54,0 -39,2.91 -39,6.499 V 632 c 0,3.59 -17.46,6.5 -39,6.5"
       stroke="#5b9bd5"
       stroke-width="1.33333"
       stroke-miterlimit="8"
       fill="none"
       fill-rule="evenodd"
       id="path45" />
  </g>
</svg>
