<?xml version="1.0" encoding="UTF-8" standalone="no"?>
<svg
   width="1136.1179"
   height="238.42752"
   overflow="hidden"
   version="1.1"
   id="svg26"
   sodipodi:docname="admin_contoso_tenant2.svg"
   inkscape:version="1.3.2 (091e20e, 2023-11-25, custom)"
   xmlns:inkscape="http://www.inkscape.org/namespaces/inkscape"
   xmlns:sodipodi="http://sodipodi.sourceforge.net/DTD/sodipodi-0.dtd"
   xmlns="http://www.w3.org/2000/svg"
   xmlns:svg="http://www.w3.org/2000/svg">
  <defs
     id="defs26" />
  <sodipodi:namedview
     id="namedview26"
     pagecolor="#ffffff"
     bordercolor="#000000"
     borderopacity="0.25"
     inkscape:showpageshadow="2"
     inkscape:pageopacity="0.0"
     inkscape:pagecheckerboard="0"
     inkscape:deskcolor="#d1d1d1"
     inkscape:zoom="2.54375"
     inkscape:cx="545.65111"
     inkscape:cy="283.24324"
     inkscape:window-width="3840"
     inkscape:window-height="2054"
     inkscape:window-x="2869"
     inkscape:window-y="-11"
     inkscape:window-maximized="1"
     inkscape:current-layer="svg26" />
  <g
     id="g26"
     transform="translate(-94.348892,-76.658478)">
    <rect
       x="94.348892"
       y="76.658478"
       width="1136.1179"
       height="238.42752"
       fill="#ffffff"
       id="rect1"
       style="stroke-width:0.542149" />
    <path
       d="m 726.5,176.5 v 19.332 h 111.389 v 19.332"
       stroke="#5b9bd5"
       stroke-width="1.33333"
       stroke-miterlimit="8"
       fill="none"
       fill-rule="evenodd"
       id="path1" />
    <path
       d="m 726.889,176.5 v 19.332 H 615.5 v 19.332"
       stroke="#5b9bd5"
       stroke-width="1.33333"
       stroke-miterlimit="8"
       fill="none"
       fill-rule="evenodd"
       id="path2" />
    <path
       d="m 280.5,176.5 v 19.332 h 111.389 v 19.332"
       stroke="#5b9bd5"
       stroke-width="1.33333"
       stroke-miterlimit="8"
       fill="none"
       fill-rule="evenodd"
       id="path3" />
    <path
       d="m 280.889,176.5 v 19.332 H 169.5 v 19.332"
       stroke="#5b9bd5"
       stroke-width="1.33333"
       stroke-miterlimit="8"
       fill="none"
       fill-rule="evenodd"
       id="path4" />
    <path
       d="m 245.262,100.932 c 16.33,-19.4616 45.345,-22 64.806,-5.6699 2.052,1.7213 3.949,3.6184 5.67,5.6699"
       stroke="#a5a5a5"
       stroke-width="1.33333"
       stroke-miterlimit="8"
       fill="none"
       fill-rule="evenodd"
       id="path5" />
    <path
       d="m 315.738,160.068 c -16.33,19.462 -45.345,22 -64.806,5.67 -2.052,-1.721 -3.949,-3.618 -5.67,-5.67"
       stroke="#a5a5a5"
       stroke-width="1.33333"
       stroke-miterlimit="8"
       fill="none"
       fill-rule="evenodd"
       id="path6" />
    <text
       font-family="'Segoe UI', 'Segoe UI_MSFontService', sans-serif"
       font-weight="400"
       font-size="13px"
       transform="translate(230.356,116)"
       id="text6">Contoso Holding</text>
    <text
       font-family="'Segoe UI', 'Segoe UI_MSFontService', sans-serif"
       font-weight="400"
       font-size="13px"
       transform="translate(213.249,138)"
       id="text7">Microsoft</text>
    <text
       font-family="'Segoe UI', 'Segoe UI_MSFontService', sans-serif"
       font-weight="400"
       font-size="13px"
       transform="translate(272.876,138)"
       id="text8">365 account</text>
    <text
       font-family="'Segoe UI', 'Segoe UI_MSFontService', sans-serif"
       font-weight="400"
       font-size="13px"
       transform="translate(344.623,138)"
       id="text9">:</text>
    <text
       font-family="'Segoe UI', 'Segoe UI_MSFontService', sans-serif"
       font-weight="400"
       font-size="13px"
       transform="translate(228.476,154)"
       id="text10">hq@contoso.com</text>
    <path
       d="m 134.262,231.932 c 16.33,-19.462 45.345,-22 64.806,-5.67 2.052,1.721 3.949,3.618 5.67,5.67"
       stroke="#a5a5a5"
       stroke-width="1.33333"
       stroke-miterlimit="8"
       fill="none"
       fill-rule="evenodd"
       id="path10" />
    <path
       d="m 204.738,291.068 c -16.33,19.462 -45.345,22 -64.806,5.67 -2.051,-1.721 -3.949,-3.618 -5.67,-5.67"
       stroke="#a5a5a5"
       stroke-width="1.33333"
       stroke-miterlimit="8"
       fill="none"
       fill-rule="evenodd"
       id="path11" />
    <text
       font-family="'Segoe UI', 'Segoe UI_MSFontService', sans-serif"
       font-weight="400"
       font-size="13px"
       transform="translate(128.183,258)"
       id="text11">Contoso Corp</text>
    <text
       font-family="'Segoe UI', 'Segoe UI_MSFontService', sans-serif"
       font-weight="400"
       font-size="13px"
       transform="translate(97.55,274)"
       id="text12">Production environment</text>
    <path
       d="m 357.262,231.932 c 16.33,-19.462 45.345,-22 64.806,-5.67 2.052,1.721 3.949,3.618 5.67,5.67"
       stroke="#a5a5a5"
       stroke-width="1.33333"
       stroke-miterlimit="8"
       fill="none"
       fill-rule="evenodd"
       id="path12" />
    <path
       d="m 427.738,291.068 c -16.33,19.462 -45.345,22 -64.806,5.67 -2.051,-1.721 -3.949,-3.618 -5.67,-5.67"
       stroke="#a5a5a5"
       stroke-width="1.33333"
       stroke-miterlimit="8"
       fill="none"
       fill-rule="evenodd"
       id="path13" />
    <text
       font-family="'Segoe UI', 'Segoe UI_MSFontService', sans-serif"
       font-weight="400"
       font-size="13px"
       transform="translate(357.915,258)"
       id="text13">US</text>
    <text
       font-family="'Segoe UI', 'Segoe UI_MSFontService', sans-serif"
       font-weight="400"
       font-size="13px"
       transform="translate(377.815,258)"
       id="text14">Training</text>
    <text
       font-family="'Segoe UI', 'Segoe UI_MSFontService', sans-serif"
       font-weight="400"
       font-size="13px"
       transform="translate(327.095,274)"
       id="text15">Sandbox environment</text>
    <path
       d="m 691.262,100.932 c 16.33,-19.4616 45.345,-22 64.806,-5.6699 2.052,1.7213 3.949,3.6184 5.67,5.6699"
       stroke="#a5a5a5"
       stroke-width="1.33333"
       stroke-miterlimit="8"
       fill="none"
       fill-rule="evenodd"
       id="path15" />
    <path
       d="m 761.738,160.068 c -16.33,19.462 -45.345,22 -64.806,5.67 -2.052,-1.721 -3.949,-3.618 -5.67,-5.67"
       stroke="#a5a5a5"
       stroke-width="1.33333"
       stroke-miterlimit="8"
       fill="none"
       fill-rule="evenodd"
       id="path16" />
    <text
       font-family="'Segoe UI', 'Segoe UI_MSFontService', sans-serif"
       font-weight="400"
       font-size="13px"
       transform="translate(672.893,116)"
       id="text16">Contoso Germany</text>
    <text
       font-family="'Segoe UI', 'Segoe UI_MSFontService', sans-serif"
       font-weight="400"
       font-size="13px"
       transform="translate(658.807,138)"
       id="text17">Microsoft 365 account:</text>
    <text
       font-family="'Segoe UI', 'Segoe UI_MSFontService', sans-serif"
       font-weight="400"
       font-size="13px"
       transform="translate(679.64,154)"
       id="text18">de@contoso.de</text>
    <path
       d="m 580.262,231.932 c 16.33,-19.462 45.345,-22 64.806,-5.67 2.052,1.721 3.949,3.618 5.67,5.67"
       stroke="#a5a5a5"
       stroke-width="1.33333"
       stroke-miterlimit="8"
       fill="none"
       fill-rule="evenodd"
       id="path18" />
    <path
       d="m 650.738,291.068 c -16.33,19.462 -45.345,22 -64.806,5.67 -2.052,-1.721 -3.949,-3.618 -5.67,-5.67"
       stroke="#a5a5a5"
       stroke-width="1.33333"
       stroke-miterlimit="8"
       fill="none"
       fill-rule="evenodd"
       id="path19" />
    <text
       font-family="'Segoe UI', 'Segoe UI_MSFontService', sans-serif"
       font-weight="400"
       font-size="13px"
       transform="translate(579.967,258)"
       id="text19">Contoso DE</text>
    <text
       font-family="'Segoe UI', 'Segoe UI_MSFontService', sans-serif"
       font-weight="400"
       font-size="13px"
       transform="translate(543.107,274)"
       id="text20">Production environment</text>
    <path
       d="m 802.262,231.932 c 16.33,-19.462 45.345,-22 64.806,-5.67 2.052,1.721 3.949,3.618 5.67,5.67"
       stroke="#a5a5a5"
       stroke-width="1.33333"
       stroke-miterlimit="8"
       fill="none"
       fill-rule="evenodd"
       id="path20" />
    <path
       d="m 872.738,291.068 c -16.33,19.462 -45.345,22 -64.806,5.67 -2.052,-1.721 -3.949,-3.618 -5.67,-5.67"
       stroke="#a5a5a5"
       stroke-width="1.33333"
       stroke-miterlimit="8"
       fill="none"
       fill-rule="evenodd"
       id="path21" />
    <text
       font-family="'Segoe UI', 'Segoe UI_MSFontService', sans-serif"
       font-weight="400"
       font-size="13px"
       transform="translate(803.553,258)"
       id="text21">DE Training</text>
    <text
       font-family="'Segoe UI', 'Segoe UI_MSFontService', sans-serif"
       font-weight="400"
       font-size="13px"
       transform="translate(772.653,274)"
       id="text22">Sandbox environment</text>
    <rect
       x="1008.5"
       y="229.5"
       width="218"
       height="33"
       stroke="#ffc000"
       stroke-width="1.33333"
       stroke-miterlimit="8"
       fill="#ffffff"
       id="rect22" />
    <text
       font-family="'Segoe UI', 'Segoe UI_MSFontService', sans-serif"
       font-weight="400"
       font-size="19px"
       transform="translate(1017.43,252)"
       id="text23">Environments</text>
    <path
       d="m 946.5,198.5 c 17.121,0 31,2.313 31,5.166 v 40.623 c 0,2.854 13.879,5.167 31,5.167 -17.121,0 -31,2.313 -31,5.166 v 49.712 c 0,2.853 -13.879,5.166 -31,5.166 z"
       fill="#ffffff"
       fill-rule="evenodd"
       id="path23" />
    <path
       d="m 946.5,198.5 c 17.121,0 31,2.313 31,5.166 v 40.623 c 0,2.854 13.879,5.167 31,5.167 -17.121,0 -31,2.313 -31,5.166 v 49.712 c 0,2.853 -13.879,5.166 -31,5.166"
       stroke="#ffc000"
       stroke-width="1.33333"
       stroke-miterlimit="8"
       fill="none"
       fill-rule="evenodd"
       id="path24" />
    <rect
       x="975.5"
       y="118.5"
       width="251"
       height="40"
       stroke="#ed7d31"
       stroke-width="1.33333"
       stroke-miterlimit="8"
       fill="#ffffff"
       id="rect24" />
    <text
       font-family="'Segoe UI', 'Segoe UI_MSFontService', sans-serif"
       font-weight="400"
       font-size="19px"
       transform="translate(984.494,141)"
       id="text24">Microsoft Entra ID tenants</text>
    <path
       d="m 894.5,92.5001 c 22.091,0 40,2.9846 40,6.6664 v 31.1575 c 0,3.682 17.909,6.666 40,6.666 -22.091,0 -40,2.985 -40,6.667 v 22.177 c 0,3.681 -17.909,6.666 -40,6.666 z"
       fill="#ffffff"
       fill-rule="evenodd"
       id="path25" />
    <path
       d="m 894.5,92.5001 c 22.091,0 40,2.9846 40,6.6664 v 31.1575 c 0,3.682 17.909,6.666 40,6.666 -22.091,0 -40,2.985 -40,6.667 v 22.177 c 0,3.681 -17.909,6.666 -40,6.666"
       stroke="#ed7d31"
       stroke-width="1.33333"
       stroke-miterlimit="8"
       fill="none"
       fill-rule="evenodd"
       id="path26" />
  </g>
</svg>
