<?xml version="1.0" encoding="UTF-8" standalone="no"?>
<svg
   width="771.17358"
   height="579.30579"
   overflow="hidden"
   version="1.1"
   id="svg136"
   sodipodi:docname="environments-single-app.svg"
   inkscape:version="1.2.2 (732a01da63, 2022-12-09)"
   xmlns:inkscape="http://www.inkscape.org/namespaces/inkscape"
   xmlns:sodipodi="http://sodipodi.sourceforge.net/DTD/sodipodi-0.dtd"
   xmlns="http://www.w3.org/2000/svg"
   xmlns:svg="http://www.w3.org/2000/svg">
  <defs
     id="defs140" />
  <sodipodi:namedview
     id="namedview138"
     pagecolor="#ffffff"
     bordercolor="#000000"
     borderopacity="0.25"
     inkscape:showpageshadow="2"
     inkscape:pageopacity="0.0"
     inkscape:pagecheckerboard="0"
     inkscape:deskcolor="#d1d1d1"
     showgrid="false"
     inkscape:zoom="0.9453125"
     inkscape:cx="319.47107"
     inkscape:cy="289.32231"
     inkscape:window-width="1920"
     inkscape:window-height="1010"
     inkscape:window-x="-6"
     inkscape:window-y="-6"
     inkscape:window-maximized="1"
     inkscape:current-layer="g134" />
  <g
     id="g134"
     transform="translate(-320.52893,-70.87603)">
    <rect
       x="320.52893"
       y="70.87603"
       width="771.17358"
       height="579.30579"
       fill="#ffffff"
       id="rect2"
       style="stroke-width:0.69624" />
    <path
       d="m 791.5,282.5 v 292.938 h 78.344"
       stroke="#5b9bd5"
       stroke-width="1.33333"
       stroke-miterlimit="8"
       fill="none"
       fill-rule="evenodd"
       id="path4" />
    <path
       d="m 791.5,282.5 v 172.016 h 78.344"
       stroke="#5b9bd5"
       stroke-width="1.33333"
       stroke-miterlimit="8"
       fill="none"
       fill-rule="evenodd"
       id="path6" />
    <path
       d="m 791.5,282.5 v 51.094 h 78.344"
       stroke="#5b9bd5"
       stroke-width="1.33333"
       stroke-miterlimit="8"
       fill="none"
       fill-rule="evenodd"
       id="path8" />
    <path
       d="m 585.5,161.5 v 17.883 h 206.078 v 17.883"
       stroke="#ffc000"
       stroke-width="1.33333"
       stroke-miterlimit="8"
       fill="none"
       fill-rule="evenodd"
       id="path10" />
    <path
       d="m 585.5,282.5 v 292.938 h 78.344"
       stroke="#5b9bd5"
       stroke-width="1.33333"
       stroke-miterlimit="8"
       fill="none"
       fill-rule="evenodd"
       id="path12" />
    <path
       d="m 585.5,282.5 v 172.016 h 78.344"
       stroke="#5b9bd5"
       stroke-width="1.33333"
       stroke-miterlimit="8"
       fill="none"
       fill-rule="evenodd"
       id="path14" />
    <path
       d="m 585.5,282.5 v 51.094 h 78.344"
       stroke="#5b9bd5"
       stroke-width="1.33333"
       stroke-miterlimit="8"
       fill="none"
       fill-rule="evenodd"
       id="path16" />
    <path
       d="m 585.3,161.5 v 35.766"
       stroke="#ffc000"
       stroke-width="1.33333"
       stroke-miterlimit="8"
       fill="none"
       fill-rule="evenodd"
       id="path18" />
    <path
       d="m 379.5,282.5 v 292.938 h 78.344"
       stroke="#5b9bd5"
       stroke-width="1.33333"
       stroke-miterlimit="8"
       fill="none"
       fill-rule="evenodd"
       id="path20" />
    <path
       d="m 379.5,282.5 v 172.016 h 78.344"
       stroke="#5b9bd5"
       stroke-width="1.33333"
       stroke-miterlimit="8"
       fill="none"
       fill-rule="evenodd"
       id="path22" />
    <path
       d="m 379.5,282.5 v 51.094 h 78.344"
       stroke="#5b9bd5"
       stroke-width="1.33333"
       stroke-miterlimit="8"
       fill="none"
       fill-rule="evenodd"
       id="path24" />
    <path
       d="m 585.578,161.5 v 17.883 H 379.5 v 17.883"
       stroke="#ffc000"
       stroke-width="1.33333"
       stroke-miterlimit="8"
       fill="none"
       fill-rule="evenodd"
       id="path26" />
    <path
       d="m 552.443,91.6816 c 15.088,-17.9806 41.895,-20.326 59.875,-5.2384 1.896,1.5903 3.649,3.3431 5.239,5.2384"
       stroke="#a5a5a5"
       stroke-width="1.33333"
       stroke-miterlimit="8"
       fill="none"
       fill-rule="evenodd"
       id="path28" />
    <path
       d="m 617.557,146.318 c -15.088,17.981 -41.895,20.326 -59.875,5.239 -1.896,-1.59 -3.648,-3.343 -5.239,-5.239"
       stroke="#a5a5a5"
       stroke-width="1.33333"
       stroke-miterlimit="8"
       fill="none"
       fill-rule="evenodd"
       id="path30" />
    <text
       font-family="Calibri, Calibri_MSFontService, sans-serif"
       font-weight="400"
       font-size="19px"
       transform="translate(533.232,123)"
       id="text32">Contoso Corp</text>
    <path
       d="m 346.287,212.05 c 14.983,-18.28 41.777,-20.809 59.844,-5.648 2.03,1.703 3.899,3.594 5.583,5.648"
       stroke="#a5a5a5"
       stroke-width="1.33333"
       stroke-miterlimit="8"
       fill="none"
       fill-rule="evenodd"
       id="path34" />
    <path
       d="m 411.714,266.95 c -14.984,18.28 -41.778,20.809 -59.845,5.648 -2.03,-1.703 -3.899,-3.594 -5.583,-5.648"
       stroke="#a5a5a5"
       stroke-width="1.33333"
       stroke-miterlimit="8"
       fill="none"
       fill-rule="evenodd"
       id="path36" />
    <text
       font-family="Calibri, Calibri_MSFontService, sans-serif"
       font-weight="400"
       font-size="19px"
       transform="translate(336.877,234)"
       id="text38">Production</text>
    <text
       font-family="Calibri, Calibri_MSFontService, sans-serif"
       font-weight="400"
       font-size="19px"
       transform="translate(323.004,255)"
       id="text40">environment 1</text>
    <path
       d="m 457.287,333.05 c 14.983,-18.28 41.777,-20.809 59.844,-5.648 2.03,1.703 3.899,3.594 5.583,5.648"
       stroke="#a5a5a5"
       stroke-width="1.33333"
       stroke-miterlimit="8"
       fill="none"
       fill-rule="evenodd"
       id="path42" />
    <path
       d="m 522.714,387.95 c -14.984,18.28 -41.778,20.809 -59.845,5.648 -2.03,-1.703 -3.899,-3.594 -5.583,-5.648"
       stroke="#a5a5a5"
       stroke-width="1.33333"
       stroke-miterlimit="8"
       fill="none"
       fill-rule="evenodd"
       id="path44" />
    <text
       font-family="Calibri, Calibri_MSFontService, sans-serif"
       font-weight="400"
       font-size="19px"
       transform="translate(415.13,365)"
       id="text46">Dynamics 365 Sales</text>
    <path
       d="m 457.443,453.682 c 15.088,-17.981 41.895,-20.326 59.875,-5.239 1.896,1.591 3.649,3.343 5.239,5.239"
       stroke="#a5a5a5"
       stroke-width="1.33333"
       stroke-miterlimit="8"
       fill="none"
       fill-rule="evenodd"
       id="path48" />
    <path
       d="m 522.557,508.318 c -15.088,17.981 -41.895,20.326 -59.875,5.239 -1.896,-1.59 -3.648,-3.343 -5.239,-5.239"
       stroke="#a5a5a5"
       stroke-width="1.33333"
       stroke-miterlimit="8"
       fill="none"
       fill-rule="evenodd"
       id="path50" />
    <text
       font-family="Calibri, Calibri_MSFontService, sans-serif"
       font-weight="400"
       font-size="19px"
       transform="translate(467.713,486)"
       id="text52">Flows</text>
    <path
       d="m 457.443,574.682 c 15.088,-17.981 41.895,-20.326 59.875,-5.239 1.896,1.591 3.649,3.343 5.239,5.239"
       stroke="#a5a5a5"
       stroke-width="1.33333"
       stroke-miterlimit="8"
       fill="none"
       fill-rule="evenodd"
       id="path54" />
    <path
       d="m 522.557,629.318 c -15.088,17.981 -41.895,20.326 -59.875,5.239 -1.896,-1.59 -3.648,-3.343 -5.239,-5.239"
       stroke="#a5a5a5"
       stroke-width="1.33333"
       stroke-miterlimit="8"
       fill="none"
       fill-rule="evenodd"
       id="path56" />
    <text
       font-family="Calibri, Calibri_MSFontService, sans-serif"
       font-weight="400"
       font-size="19px"
       transform="translate(451.66,607)"
       id="text58">Dataverse</text>
    <path
       d="m 552.286,212.05 c 14.984,-18.28 41.778,-20.809 59.845,-5.648 2.03,1.703 3.899,3.594 5.583,5.648"
       stroke="#a5a5a5"
       stroke-width="1.33333"
       stroke-miterlimit="8"
       fill="none"
       fill-rule="evenodd"
       id="path60" />
    <path
       d="m 617.714,266.95 c -14.984,18.28 -41.777,20.809 -59.845,5.648 -2.03,-1.703 -3.899,-3.594 -5.583,-5.648"
       stroke="#a5a5a5"
       stroke-width="1.33333"
       stroke-miterlimit="8"
       fill="none"
       fill-rule="evenodd"
       id="path62" />
    <text
       font-family="Calibri, Calibri_MSFontService, sans-serif"
       font-weight="400"
       font-size="19px"
       transform="translate(542.955,234)"
       id="text64">Production</text>
    <text
       font-family="Calibri, Calibri_MSFontService, sans-serif"
       font-weight="400"
       font-size="19px"
       transform="translate(529.082,255)"
       id="text66">environment 2</text>
    <path
       d="m 663.286,333.05 c 14.984,-18.28 41.778,-20.809 59.845,-5.648 2.03,1.703 3.899,3.594 5.583,5.648"
       stroke="#a5a5a5"
       stroke-width="1.33333"
       stroke-miterlimit="8"
       fill="none"
       fill-rule="evenodd"
       id="path68" />
    <path
       d="m 728.714,387.95 c -14.984,18.28 -41.777,20.809 -59.845,5.648 -2.03,-1.703 -3.899,-3.594 -5.583,-5.648"
       stroke="#a5a5a5"
       stroke-width="1.33333"
       stroke-miterlimit="8"
       fill="none"
       fill-rule="evenodd"
       id="path70" />
    <text
       font-family="Calibri, Calibri_MSFontService, sans-serif"
       font-weight="400"
       font-size="19px"
       transform="translate(642.518,354)"
       id="text72">Dynamics 365</text>
    <text
       font-family="Calibri, Calibri_MSFontService, sans-serif"
       font-weight="400"
       font-size="19px"
       transform="translate(629.278,375)"
       id="text74">Customer Service</text>
    <path
       d="m 663.443,453.682 c 15.088,-17.981 41.895,-20.326 59.875,-5.239 1.896,1.591 3.649,3.343 5.239,5.239"
       stroke="#a5a5a5"
       stroke-width="1.33333"
       stroke-miterlimit="8"
       fill="none"
       fill-rule="evenodd"
       id="path76" />
    <path
       d="m 728.557,508.318 c -15.088,17.981 -41.895,20.326 -59.875,5.239 -1.896,-1.59 -3.648,-3.343 -5.239,-5.239"
       stroke="#a5a5a5"
       stroke-width="1.33333"
       stroke-miterlimit="8"
       fill="none"
       fill-rule="evenodd"
       id="path78" />
    <text
       font-family="Calibri, Calibri_MSFontService, sans-serif"
       font-weight="400"
       font-size="19px"
       transform="translate(673.791,486)"
       id="text80">Flows</text>
    <path
       d="m 663.443,574.682 c 15.088,-17.981 41.895,-20.326 59.875,-5.239 1.896,1.591 3.649,3.343 5.239,5.239"
       stroke="#a5a5a5"
       stroke-width="1.33333"
       stroke-miterlimit="8"
       fill="none"
       fill-rule="evenodd"
       id="path82" />
    <path
       d="m 728.557,629.318 c -15.088,17.981 -41.895,20.326 -59.875,5.239 -1.896,-1.59 -3.648,-3.343 -5.239,-5.239"
       stroke="#a5a5a5"
       stroke-width="1.33333"
       stroke-miterlimit="8"
       fill="none"
       fill-rule="evenodd"
       id="path84" />
    <text
       font-family="Calibri, Calibri_MSFontService, sans-serif"
       font-weight="400"
       font-size="19px"
       transform="translate(657.738,607)"
       id="text86">Dataverse</text>
    <path
       d="m 758.286,212.05 c 14.984,-18.28 41.778,-20.809 59.845,-5.648 2.03,1.703 3.899,3.594 5.583,5.648"
       stroke="#a5a5a5"
       stroke-width="1.33333"
       stroke-miterlimit="8"
       fill="none"
       fill-rule="evenodd"
       id="path88" />
    <path
       d="m 823.714,266.95 c -14.984,18.28 -41.777,20.809 -59.845,5.648 -2.03,-1.703 -3.899,-3.594 -5.583,-5.648"
       stroke="#a5a5a5"
       stroke-width="1.33333"
       stroke-miterlimit="8"
       fill="none"
       fill-rule="evenodd"
       id="path90" />
    <text
       font-family="Calibri, Calibri_MSFontService, sans-serif"
       font-weight="400"
       font-size="19px"
       transform="translate(749.033,234)"
       id="text92">Production</text>
    <text
       font-family="Calibri, Calibri_MSFontService, sans-serif"
       font-weight="400"
       font-size="19px"
       transform="translate(735.16,255)"
       id="text94">environment 3</text>
    <path
       d="m 869.286,333.05 c 14.984,-18.28 41.778,-20.809 59.845,-5.648 2.03,1.703 3.899,3.594 5.583,5.648"
       stroke="#a5a5a5"
       stroke-width="1.33333"
       stroke-miterlimit="8"
       fill="none"
       fill-rule="evenodd"
       id="path96" />
    <path
       d="m 934.714,387.95 c -14.984,18.28 -41.777,20.809 -59.845,5.648 -2.03,-1.703 -3.899,-3.594 -5.583,-5.648"
       stroke="#a5a5a5"
       stroke-width="1.33333"
       stroke-miterlimit="8"
       fill="none"
       fill-rule="evenodd"
       id="path98" />
    <text
       font-family="Calibri, Calibri_MSFontService, sans-serif"
       font-weight="400"
       font-size="19px"
       transform="translate(828.36,354)"
       id="text100">Dynamics 365 Field</text>
    <text
       font-family="Calibri, Calibri_MSFontService, sans-serif"
       font-weight="400"
       font-size="19px"
       transform="translate(874.206,375)"
       id="text102">Service</text>
    <path
       d="m 869.443,453.682 c 15.088,-17.981 41.895,-20.326 59.875,-5.239 1.896,1.591 3.649,3.343 5.239,5.239"
       stroke="#a5a5a5"
       stroke-width="1.33333"
       stroke-miterlimit="8"
       fill="none"
       fill-rule="evenodd"
       id="path104" />
    <path
       d="m 934.557,508.318 c -15.088,17.981 -41.895,20.326 -59.875,5.239 -1.896,-1.59 -3.648,-3.343 -5.239,-5.239"
       stroke="#a5a5a5"
       stroke-width="1.33333"
       stroke-miterlimit="8"
       fill="none"
       fill-rule="evenodd"
       id="path106" />
    <text
       font-family="Calibri, Calibri_MSFontService, sans-serif"
       font-weight="400"
       font-size="19px"
       transform="translate(879.87,486)"
       id="text108">Flows</text>
    <path
       d="m 869.443,574.682 c 15.088,-17.981 41.895,-20.326 59.875,-5.239 1.896,1.591 3.649,3.343 5.239,5.239"
       stroke="#a5a5a5"
       stroke-width="1.33333"
       stroke-miterlimit="8"
       fill="none"
       fill-rule="evenodd"
       id="path110" />
    <path
       d="m 934.557,629.318 c -15.088,17.981 -41.895,20.326 -59.875,5.239 -1.896,-1.59 -3.648,-3.343 -5.239,-5.239"
       stroke="#a5a5a5"
       stroke-width="1.33333"
       stroke-miterlimit="8"
       fill="none"
       fill-rule="evenodd"
       id="path112" />
    <text
       font-family="Calibri, Calibri_MSFontService, sans-serif"
       font-weight="400"
       font-size="19px"
       transform="translate(863.816,607)"
       id="text114">Dataverse</text>
    <rect
       x="871.5"
       y="95.500099"
       width="216"
       height="46"
       stroke="#ed7d31"
       stroke-width="1.33333"
       stroke-miterlimit="8"
       fill="#ffffff"
       id="rect116" />
    <path
       d="m 872.885,121.974 -236.533,1.938"
       stroke="#ed7d31"
       stroke-width="1.33333"
       stroke-miterlimit="8"
       fill="none"
       fill-rule="evenodd"
       id="path118" />
    <text
       font-family="Calibri, Calibri_MSFontService, sans-serif"
       font-weight="400"
       font-size="19px"
       transform="translate(882.398,124)"
       id="text120">Microsoft</text>
    <text
       font-family="Calibri, Calibri_MSFontService, sans-serif"
       font-weight="400"
       font-size="19px"
       transform="translate(959.932,124)"
       id="text122">Entra</text>
    <text
       font-family="Calibri, Calibri_MSFontService, sans-serif"
       font-weight="400"
       font-size="19px"
       transform="translate(1004.38,124)"
       id="text124">ID tenant</text>
    <rect
       x="951.61572"
       y="221.59917"
       width="138"
       height="33"
       stroke="#ffc000"
       stroke-width="1.33333"
       stroke-miterlimit="8"
       fill="#ffffff"
       id="rect126" />
    <text
       font-family="Calibri, Calibri_MSFontService, sans-serif"
       font-weight="400"
       font-size="19px"
       id="text128"
       x="963.48328"
       y="244.15703">Environments</text>
    <path
       d="m 853.5,176.5 c 26.51,0 48,3.582 48,8 v 42.76 c 0,4.418 21.49,8 48,8 -26.51,0 -48,3.581 -48,8 v 53.24 c 0,4.418 -21.49,8 -48,8 z"
       fill="#ffffff"
       fill-rule="evenodd"
       id="path130" />
    <path
       d="m 853.5,176.5 c 26.51,0 48,3.582 48,8 v 42.76 c 0,4.418 21.49,8 48,8 -26.51,0 -48,3.581 -48,8 v 53.24 c 0,4.418 -21.49,8 -48,8"
       stroke="#ffc000"
       stroke-width="1.33333"
       stroke-miterlimit="8"
       fill="none"
       fill-rule="evenodd"
       id="path132" />
  </g>
</svg>
