<?xml version="1.0" encoding="UTF-8" standalone="no"?>
<svg
   width="790.50177"
   height="291.37424"
   overflow="hidden"
   version="1.1"
   id="svg17"
   sodipodi:docname="solution-architecture-linear-flow-ideation.svg"
   inkscape:version="1.3.2 (091e20e, 2023-11-25, custom)"
   xmlns:inkscape="http://www.inkscape.org/namespaces/inkscape"
   xmlns:sodipodi="http://sodipodi.sourceforge.net/DTD/sodipodi-0.dtd"
   xmlns="http://www.w3.org/2000/svg"
   xmlns:svg="http://www.w3.org/2000/svg">
  <defs
     id="defs17" />
  <sodipodi:namedview
     id="namedview17"
     pagecolor="#ffffff"
     bordercolor="#000000"
     borderopacity="0.25"
     inkscape:showpageshadow="2"
     inkscape:pageopacity="0.0"
     inkscape:pagecheckerboard="0"
     inkscape:deskcolor="#d1d1d1"
     inkscape:zoom="2.3820312"
     inkscape:cx="585.42473"
     inkscape:cy="279.80321"
     inkscape:window-width="3840"
     inkscape:window-height="2054"
     inkscape:window-x="2869"
     inkscape:window-y="-11"
     inkscape:window-maximized="1"
     inkscape:current-layer="svg17" />
  <g
     id="g17"
     transform="matrix(0.64508392,0,0,0.65288967,-35.20563,-52.35109)">
    <rect
       x="54.575272"
       y="80.18367"
       width="1225.4247"
       height="446.28406"
       fill="#ffffff"
       id="rect1"
       style="stroke-width:0.770331" />
    <rect
       x="64.500099"
       y="87.500099"
       width="255"
       height="126"
       stroke="#000000"
       stroke-width="1.13333"
       stroke-linejoin="round"
       stroke-miterlimit="10"
       id="rect2" />
    <text
       fill="#ffffff"
       font-family="'Segoe UI', 'Segoe UI_MSFontService', sans-serif"
       font-weight="400"
       font-size="27px"
       transform="translate(92.502,144)"
       id="text2">Collect customer</text>
    <text
       fill="#ffffff"
       font-family="'Segoe UI', 'Segoe UI_MSFontService', sans-serif"
       font-weight="400"
       font-size="27px"
       transform="translate(120.815,176)"
       id="text3">suggestions</text>
    <rect
       x="64.500099"
       y="390.5"
       width="255"
       height="126"
       stroke="#000000"
       stroke-width="1.13333"
       stroke-linejoin="round"
       stroke-miterlimit="10"
       id="rect3" />
    <text
       fill="#ffffff"
       font-family="'Segoe UI', 'Segoe UI_MSFontService', sans-serif"
       font-weight="400"
       font-size="27px"
       transform="translate(88.0654,447)"
       id="text4">Conduct ongoing</text>
    <text
       fill="#ffffff"
       font-family="'Segoe UI', 'Segoe UI_MSFontService', sans-serif"
       font-weight="400"
       font-size="27px"
       transform="translate(142.085,479)"
       id="text5">research</text>
    <rect
       x="430.5"
       y="234.5"
       width="255"
       height="126"
       stroke="#000000"
       stroke-width="1.13333"
       stroke-linejoin="round"
       stroke-miterlimit="10"
       id="rect5" />
    <text
       fill="#ffffff"
       font-family="'Segoe UI', 'Segoe UI_MSFontService', sans-serif"
       font-weight="400"
       font-size="27px"
       transform="translate(476.832,291)"
       id="text6">Put ideas into</text>
    <text
       fill="#ffffff"
       font-family="'Segoe UI', 'Segoe UI_MSFontService', sans-serif"
       font-weight="400"
       font-size="27px"
       transform="translate(458.645,323)"
       id="text7">ideation pipeline</text>
    <rect
       x="724.5"
       y="234.5"
       width="255"
       height="126"
       stroke="#000000"
       stroke-width="1.13333"
       stroke-linejoin="round"
       stroke-miterlimit="10"
       id="rect7" />
    <text
       fill="#ffffff"
       font-family="'Segoe UI', 'Segoe UI_MSFontService', sans-serif"
       font-weight="400"
       font-size="27px"
       transform="translate(783.004,275)"
       id="text8">Test against</text>
    <text
       fill="#ffffff"
       font-family="'Segoe UI', 'Segoe UI_MSFontService', sans-serif"
       font-weight="400"
       font-size="27px"
       transform="translate(801.571,307)"
       id="text9">strategic</text>
    <text
       fill="#ffffff"
       font-family="'Segoe UI', 'Segoe UI_MSFontService', sans-serif"
       font-weight="400"
       font-size="27px"
       transform="translate(784.044,339)"
       id="text10">imperatives</text>
    <rect
       x="1019.5"
       y="234.5"
       width="255"
       height="126"
       stroke="#000000"
       stroke-width="1.13333"
       stroke-linejoin="round"
       stroke-miterlimit="10"
       id="rect10" />
    <text
       fill="#ffffff"
       font-family="'Segoe UI', 'Segoe UI_MSFontService', sans-serif"
       font-weight="400"
       font-size="27px"
       transform="translate(1056.78,291)"
       id="text11">Select ideas for</text>
    <text
       fill="#ffffff"
       font-family="'Segoe UI', 'Segoe UI_MSFontService', sans-serif"
       font-weight="400"
       font-size="27px"
       transform="translate(1038.78,323)"
       id="text12">conceptual design</text>
    <path
       d="m 685,296 h 37.53 v 2 H 685 Z m 30.033,-4.53 9.481,5.53 -9.481,5.531 c -0.477,0.278 -1.089,0.117 -1.367,-0.36 -0.279,-0.477 -0.117,-1.09 0.36,-1.368 l 8,-4.667 v 1.728 l -8,-4.667 c -0.477,-0.278 -0.639,-0.89 -0.36,-1.367 0.278,-0.478 0.89,-0.639 1.367,-0.36 z"
       fill="#0078d4"
       id="path12" />
    <path
       d="m 979,296 h 37.53 v 2 H 979 Z m 30.03,-4.53 9.48,5.53 -9.48,5.531 c -0.47,0.278 -1.09,0.117 -1.36,-0.36 -0.28,-0.477 -0.12,-1.09 0.36,-1.368 l 8,-4.667 v 1.728 l -8,-4.667 c -0.48,-0.278 -0.64,-0.89 -0.36,-1.367 0.27,-0.478 0.89,-0.639 1.36,-0.36 z"
       fill="#0078d4"
       id="path13" />
    <path
       d="m 319,296 h 109.124 v 2 H 319 Z m 101.628,-4.53 9.481,5.53 -9.481,5.531 c -0.477,0.278 -1.089,0.117 -1.368,-0.36 -0.278,-0.477 -0.117,-1.09 0.36,-1.368 l 8,-4.667 v 1.728 l -8,-4.667 c -0.477,-0.278 -0.638,-0.89 -0.36,-1.367 0.279,-0.477 0.891,-0.639 1.368,-0.36 z"
       fill="#0078d4"
       id="path14" />
    <rect
       x="64.500099"
       y="234.5"
       width="255"
       height="126"
       stroke="#000000"
       stroke-width="1.13333"
       stroke-linejoin="round"
       stroke-miterlimit="10"
       id="rect14" />
    <text
       fill="#ffffff"
       font-family="'Segoe UI', 'Segoe UI_MSFontService', sans-serif"
       font-weight="400"
       font-size="27px"
       transform="translate(141.485,275)"
       id="text14">Conduct</text>
    <text
       fill="#ffffff"
       font-family="'Segoe UI', 'Segoe UI_MSFontService', sans-serif"
       font-weight="400"
       font-size="27px"
       transform="translate(122.059,307)"
       id="text15">competitive</text>
    <text
       fill="#ffffff"
       font-family="'Segoe UI', 'Segoe UI_MSFontService', sans-serif"
       font-weight="400"
       font-size="27px"
       transform="translate(145.899,339)"
       id="text16">analysis</text>
    <path
       d="m 319,149 h 70.144 c 0.553,0 1,0.448 1,1 v 147.264 l -1,-1 h 38.98 v 2 h -38.98 c -0.552,0 -1,-0.448 -1,-1 V 150 l 1,1 H 319 Z m 101.628,142.734 9.481,5.53 -9.481,5.53 c -0.477,0.279 -1.089,0.118 -1.368,-0.359 -0.278,-0.477 -0.117,-1.09 0.36,-1.368 l 8,-4.667 v 1.728 l -8,-4.667 c -0.477,-0.278 -0.638,-0.89 -0.36,-1.367 0.279,-0.478 0.891,-0.639 1.368,-0.36 z"
       fill="#0078d4"
       id="path16" />
    <path
       d="M 0,0 H 71.5946 V 155.968"
       stroke="#0078d4"
       stroke-width="2"
       stroke-linejoin="round"
       stroke-miterlimit="10"
       fill="none"
       fill-rule="evenodd"
       transform="matrix(1,0,0,-1,319,452.968)"
       id="path17" />
  </g>
</svg>
