<?xml version="1.0" encoding="UTF-8" standalone="no"?>
<svg
   width="711.15778"
   height="248.13383"
   overflow="hidden"
   version="1.1"
   id="svg15"
   sodipodi:docname="solution-architecture-linear-flow.svg"
   inkscape:version="1.3.2 (091e20e, 2023-11-25, custom)"
   xmlns:inkscape="http://www.inkscape.org/namespaces/inkscape"
   xmlns:sodipodi="http://sodipodi.sourceforge.net/DTD/sodipodi-0.dtd"
   xmlns="http://www.w3.org/2000/svg"
   xmlns:svg="http://www.w3.org/2000/svg">
  <defs
     id="defs15" />
  <sodipodi:namedview
     id="namedview15"
     pagecolor="#ffffff"
     bordercolor="#000000"
     borderopacity="0.25"
     inkscape:showpageshadow="2"
     inkscape:pageopacity="0.0"
     inkscape:pagecheckerboard="0"
     inkscape:deskcolor="#d1d1d1"
     inkscape:zoom="2.3820312"
     inkscape:cx="86.270908"
     inkscape:cy="281.48245"
     inkscape:window-width="3840"
     inkscape:window-height="2054"
     inkscape:window-x="2869"
     inkscape:window-y="-11"
     inkscape:window-maximized="1"
     inkscape:current-layer="svg15" />
  <g
     id="g15"
     transform="matrix(0.5865651,0,0,0.75192813,-30.780721,-59.029686)">
    <rect
       x="52.476223"
       y="78.504425"
       width="1212.4106"
       height="329.99673"
       fill="#ffffff"
       id="rect1"
       style="stroke-width:0.658883" />
    <rect
       x="61.500099"
       y="87.500099"
       width="255"
       height="126"
       stroke="#000000"
       stroke-width="1.13333"
       stroke-linejoin="round"
       stroke-miterlimit="10"
       id="rect2" />
    <text
       fill="#ffffff"
       font-family="'Segoe UI', 'Segoe UI_MSFontService', sans-serif"
       font-weight="400"
       font-size="27px"
       transform="translate(143.021,144)"
       id="text2">Product</text>
    <text
       fill="#ffffff"
       font-family="'Segoe UI', 'Segoe UI_MSFontService', sans-serif"
       font-weight="400"
       font-size="27px"
       transform="translate(140.928,176)"
       id="text3">ideation</text>
    <rect
       x="375.5"
       y="272.5"
       width="255"
       height="126"
       stroke="#000000"
       stroke-width="1.13333"
       stroke-linejoin="round"
       stroke-miterlimit="10"
       id="rect3" />
    <text
       fill="#ffffff"
       font-family="'Segoe UI', 'Segoe UI_MSFontService', sans-serif"
       font-weight="400"
       font-size="27px"
       transform="translate(456.703,329)"
       id="text4">Product</text>
    <text
       fill="#ffffff"
       font-family="'Segoe UI', 'Segoe UI_MSFontService', sans-serif"
       font-weight="400"
       font-size="27px"
       transform="translate(432.81,361)"
       id="text5">prototyping</text>
    <rect
       x="375.5"
       y="87.500099"
       width="255"
       height="126"
       stroke="#000000"
       stroke-width="1.13333"
       stroke-linejoin="round"
       stroke-miterlimit="10"
       id="rect5" />
    <text
       fill="#ffffff"
       font-family="'Segoe UI', 'Segoe UI_MSFontService', sans-serif"
       font-weight="400"
       font-size="27px"
       transform="translate(456.707,144)"
       id="text6">Product</text>
    <text
       fill="#ffffff"
       font-family="'Segoe UI', 'Segoe UI_MSFontService', sans-serif"
       font-weight="400"
       font-size="27px"
       transform="translate(463.447,176)"
       id="text7">design</text>
    <rect
       x="689.5"
       y="87.500099"
       width="255"
       height="126"
       stroke="#000000"
       stroke-width="1.13333"
       stroke-linejoin="round"
       stroke-miterlimit="10"
       id="rect7" />
    <text
       fill="#ffffff"
       font-family="'Segoe UI', 'Segoe UI_MSFontService', sans-serif"
       font-weight="400"
       font-size="27px"
       transform="translate(770.392,144)"
       id="text8">Product</text>
    <text
       fill="#ffffff"
       font-family="'Segoe UI', 'Segoe UI_MSFontService', sans-serif"
       font-weight="400"
       font-size="27px"
       transform="translate(738.625,176)"
       id="text9">development</text>
    <rect
       x="1002.5"
       y="87.500099"
       width="255"
       height="126"
       stroke="#000000"
       stroke-width="1.13333"
       stroke-linejoin="round"
       stroke-miterlimit="10"
       id="rect9" />
    <text
       fill="#ffffff"
       font-family="'Segoe UI', 'Segoe UI_MSFontService', sans-serif"
       font-weight="400"
       font-size="27px"
       transform="translate(1084.08,144)"
       id="text10">Product</text>
    <text
       fill="#ffffff"
       font-family="'Segoe UI', 'Segoe UI_MSFontService', sans-serif"
       font-weight="400"
       font-size="27px"
       transform="translate(1089.76,176)"
       id="text11">testing</text>
    <path
       d="m 316,149 h 56.729 v 2 H 316 Z m 49.233,-4.53 9.481,5.53 -9.481,5.531 c -0.477,0.278 -1.089,0.117 -1.367,-0.36 -0.279,-0.477 -0.118,-1.09 0.36,-1.368 l 8,-4.667 v 1.728 l -8,-4.667 c -0.478,-0.278 -0.639,-0.89 -0.36,-1.367 0.278,-0.478 0.89,-0.639 1.367,-0.36 z"
       fill="#0078d4"
       id="path11" />
    <path
       d="m 630,149 h 56.729 v 2 H 630 Z m 49.233,-4.53 9.481,5.53 -9.481,5.531 c -0.477,0.278 -1.089,0.117 -1.367,-0.36 -0.279,-0.477 -0.118,-1.09 0.36,-1.368 l 8,-4.667 v 1.728 l -8,-4.667 c -0.478,-0.278 -0.639,-0.89 -0.36,-1.367 0.278,-0.478 0.89,-0.639 1.367,-0.36 z"
       fill="#0078d4"
       id="path12" />
    <path
       d="m 944,149 h 56.73 v 2 H 944 Z m 49.233,-4.53 9.477,5.53 -9.477,5.531 c -0.477,0.278 -1.089,0.117 -1.368,-0.36 -0.278,-0.477 -0.117,-1.09 0.36,-1.368 l 8.005,-4.667 v 1.728 l -8.005,-4.667 c -0.477,-0.278 -0.638,-0.89 -0.359,-1.367 0.278,-0.478 0.89,-0.639 1.367,-0.36 z"
       fill="#0078d4"
       id="path13" />
    <path
       d="m 449,213 v 57.028 h -2 V 213 Z m 4.531,49.532 -5.531,9.481 -5.53,-9.481 c -0.279,-0.477 -0.117,-1.089 0.36,-1.368 0.477,-0.278 1.089,-0.117 1.367,0.36 l 4.667,8 h -1.728 l 4.667,-8 c 0.278,-0.477 0.891,-0.638 1.368,-0.36 0.477,0.279 0.638,0.891 0.36,1.368 z"
       fill="#0078d4"
       id="path14" />
    <path
       d="M 1,-1.77919e-6 1.0001,57.0281 H -0.999898 L -1,1.77919e-6 Z M 5.53053,49.532 1.04888e-4,59.0128 -5.53036,49.5321 c -0.27828,-0.4771 -0.11714,-1.0894 0.35991,-1.3677 0.47705,-0.2783 1.08937,-0.1171 1.36765,0.3599 l 4.666679,8 h -1.727557 l 4.666648,-8 c 0.27828,-0.477 0.8906,-0.6382 1.36765,-0.3599 0.47706,0.2783 0.63819,0.8906 0.35991,1.3676 z"
       fill="#0078d4"
       transform="matrix(1,0,0,-1,567,272.008)"
       id="path15" />
  </g>
</svg>
