<?xml version="1.0" encoding="UTF-8" standalone="no"?>
<svg
   width="1194.4131"
   height="553.58099"
   overflow="hidden"
   version="1.1"
   id="svg56"
   sodipodi:docname="DTV043EXT-goals.svg"
   inkscape:version="1.3.2 (091e20e, 2023-11-25, custom)"
   xmlns:inkscape="http://www.inkscape.org/namespaces/inkscape"
   xmlns:sodipodi="http://sodipodi.sourceforge.net/DTD/sodipodi-0.dtd"
   xmlns="http://www.w3.org/2000/svg"
   xmlns:svg="http://www.w3.org/2000/svg">
  <defs
     id="defs56" />
  <sodipodi:namedview
     id="namedview56"
     pagecolor="#ffffff"
     bordercolor="#000000"
     borderopacity="0.25"
     inkscape:showpageshadow="2"
     inkscape:pageopacity="0.0"
     inkscape:pagecheckerboard="0"
     inkscape:deskcolor="#d1d1d1"
     inkscape:zoom="1.0515625"
     inkscape:cx="580.08915"
     inkscape:cy="310.96582"
     inkscape:window-width="1920"
     inkscape:window-height="1010"
     inkscape:window-x="-6"
     inkscape:window-y="-6"
     inkscape:window-maximized="1"
     inkscape:current-layer="svg56" />
  <g
     id="g56"
     transform="translate(-59.910847,-49.450222)">
    <rect
       x="59.910847"
       y="49.450222"
       width="1194.4131"
       height="553.58099"
       fill="#ffffff"
       id="rect1"
       style="stroke-width:0.847026" />
    <text
       font-family="'Segoe UI Semibold', 'Segoe UI Semibold_MSFontService', sans-serif"
       font-weight="600"
       font-size="40px"
       transform="translate(61.7599,87)"
       id="text1">Begin with the end in mind: Goals of presales discovery workshop</text>
    <text
       font-family="'Segoe UI Semibold', 'Segoe UI Semibold_MSFontService', sans-serif"
       font-style="italic"
       font-weight="600"
       font-size="29px"
       transform="translate(61.3333,176)"
       id="text2">What does the SELLER care about?</text>
    <text
       font-family="'Segoe UI Semibold', 'Segoe UI Semibold_MSFontService', sans-serif"
       font-style="italic"
       font-weight="600"
       font-size="29px"
       transform="translate(671.667,176)"
       id="text3">What does the CUSTOMER care about?</text>
    <text
       font-family="Arial, Arial_MSFontService, sans-serif"
       font-weight="400"
       font-size="29px"
       transform="translate(671.333,249)"
       id="text4">•</text>
    <text
       font-family="'Segoe UI', 'Segoe UI_MSFontService', sans-serif"
       font-weight="400"
       font-size="32px"
       transform="translate(706.6,249)"
       id="text5">Business</text>
    <text
       font-family="'Segoe UI', 'Segoe UI_MSFontService', sans-serif"
       font-weight="400"
       font-size="32px"
       transform="translate(835.1,249)"
       id="text6">o</text>
    <text
       font-family="'Segoe UI', 'Segoe UI_MSFontService', sans-serif"
       font-weight="400"
       font-size="32px"
       transform="translate(853.933,249)"
       id="text7">utcomes</text>
    <text
       font-family="Arial, Arial_MSFontService, sans-serif"
       font-weight="400"
       font-size="29px"
       transform="translate(671.333,295)"
       id="text8">•</text>
    <text
       font-family="'Segoe UI', 'Segoe UI_MSFontService', sans-serif"
       font-weight="400"
       font-size="32px"
       transform="translate(706.6,295)"
       id="text9">Business</text>
    <text
       font-family="'Segoe UI', 'Segoe UI_MSFontService', sans-serif"
       font-weight="400"
       font-size="32px"
       transform="translate(835.1,295)"
       id="text10">v</text>
    <text
       font-family="'Segoe UI', 'Segoe UI_MSFontService', sans-serif"
       font-weight="400"
       font-size="32px"
       transform="translate(849.853,295)"
       id="text11">alue</text>
    <text
       font-family="Arial, Arial_MSFontService, sans-serif"
       font-weight="400"
       font-size="29px"
       transform="translate(671.333,341)"
       id="text12">•</text>
    <text
       font-family="'Segoe UI', 'Segoe UI_MSFontService', sans-serif"
       font-weight="400"
       font-size="32px"
       transform="translate(706.6,341)"
       id="text13">Personal/Business unit success</text>
    <text
       font-family="Arial, Arial_MSFontService, sans-serif"
       font-weight="400"
       font-size="29px"
       transform="translate(671.333,387)"
       id="text14">•</text>
    <text
       font-family="'Segoe UI', 'Segoe UI_MSFontService', sans-serif"
       font-weight="400"
       font-size="32px"
       transform="translate(706.6,387)"
       id="text15">Serving customers</text>
    <text
       font-family="Arial, Arial_MSFontService, sans-serif"
       font-weight="400"
       font-size="29px"
       transform="translate(671.333,433)"
       id="text16">•</text>
    <text
       font-family="'Segoe UI', 'Segoe UI_MSFontService', sans-serif"
       font-weight="400"
       font-size="32px"
       transform="translate(706.6,433)"
       id="text17">Create value over competition</text>
    <text
       font-family="Arial, Arial_MSFontService, sans-serif"
       font-weight="400"
       font-size="29px"
       transform="translate(671.333,480)"
       id="text18">•</text>
    <text
       font-family="'Segoe UI', 'Segoe UI_MSFontService', sans-serif"
       font-weight="400"
       font-size="32px"
       transform="translate(706.6,480)"
       id="text19">How will technology help me?</text>
    <text
       font-family="Arial, Arial_MSFontService, sans-serif"
       font-weight="400"
       font-size="29px"
       transform="translate(671.333,526)"
       id="text20">•</text>
    <text
       font-family="'Segoe UI', 'Segoe UI_MSFontService', sans-serif"
       font-weight="400"
       font-size="32px"
       transform="translate(706.6,526)"
       id="text21">Maximize value from technology</text>
    <text
       font-family="'Segoe UI', 'Segoe UI_MSFontService', sans-serif"
       font-weight="400"
       font-size="32px"
       transform="translate(706.6,564)"
       id="text22">investment</text>
    <g
       id="g31">
      <g
         id="g30">
        <g
           id="g29">
          <path
             d="m 182.417,254.333 c -0.417,0 -0.917,-0.083 -1.25,-0.416 -0.667,-0.584 -0.75,-1.667 -0.167,-2.334 l 3.25,-3.75 c 0.583,-0.666 1.667,-0.75 2.333,-0.166 0.667,0.583 0.75,1.666 0.167,2.333 l -3.25,3.75 c -0.25,0.333 -0.667,0.5 -1.083,0.583 z"
             fill="#0078d4"
             id="path22" />
          <path
             d="m 177.333,252.417 c -0.583,0.083 -1.083,-0.084 -1.583,-0.5 -0.833,-0.75 -0.917,-2.084 -0.167,-2.917 l 3.834,-4.417 c 0.75,-0.833 2.083,-0.916 2.916,-0.166 0.834,0.75 0.917,2.083 0.167,2.916 l -3.833,4.417 c -0.334,0.417 -0.834,0.667 -1.334,0.667 z"
             fill="#0078d4"
             id="path23" />
          <path
             d="m 172.083,249.333 c -0.666,0.084 -1.333,-0.166 -1.833,-0.583 -1,-0.917 -1.167,-2.5 -0.25,-3.5 l 3.833,-4.417 c 0.917,-1 2.5,-1.166 3.5,-0.25 1,0.917 1.167,2.5 0.25,3.5 l -3.833,4.417 c -0.417,0.5 -1.083,0.833 -1.667,0.833 z"
             fill="#0078d4"
             id="path24" />
          <path
             d="m 166,246.25 c -0.667,0.083 -1.333,-0.167 -1.833,-0.583 -1,-0.917 -1.167,-2.5 -0.25,-3.5 l 4.416,-5 c 0.917,-1 2.5,-1.167 3.5,-0.25 1,0.916 1.167,2.5 0.25,3.5 l -4.416,5 c -0.5,0.5 -1.084,0.75 -1.667,0.833 z"
             fill="#0078d4"
             id="path25" />
          <path
             d="m 148.833,227.917 6.417,3.916 c 0.75,0.5 1.833,0.25 2.25,-0.583 l 7.75,-12.833 c 0.5,-0.75 0.25,-1.834 -0.583,-2.25 l -6.334,-3.917 z"
             fill="#0078d4"
             id="path26" />
          <path
             d="m 202.833,238.833 -13.416,-11.5 -0.917,-0.833 -5.75,6.583 c -0.833,1 -2,1.584 -3.333,1.667 -0.167,0 -0.334,0 -0.417,0 -1.25,0 -2.417,-0.417 -3.25,-1.25 -2.083,-1.833 -2.25,-5 -0.5,-7.083 l 4.917,-5.667 c -3.834,-0.5 -8.75,1.5 -13.834,-1 l -7.25,12 5.667,6.583 2.167,-2.5 c 0.75,-0.916 1.916,-1.416 3.166,-1.416 v 0 c 1,0 2,0.333 2.75,1 0.917,0.75 1.334,1.833 1.417,3 0.417,-0.167 0.917,-0.25 1.417,-0.25 1,0 2,0.333 2.75,1 0.916,0.833 1.416,1.916 1.416,3.083 0.334,-0.083 0.75,-0.167 1.084,-0.167 v 0 c 0.916,0 1.75,0.334 2.5,0.917 0.75,0.667 1.166,1.583 1.25,2.583 0.25,-0.083 0.583,-0.166 0.916,-0.166 v 0 c 0.834,0 1.584,0.25 2.167,0.833 0.667,0.583 1.083,1.417 1.167,2.25 0.083,0.917 -0.25,1.75 -0.834,2.417 l -2.833,3.25 1.167,0.916 c 0.583,0.334 1.25,0.584 2,0.5 1.833,-0.166 3.166,-1.75 3,-3.583 0,0 0,-0.083 0,-0.083 0.25,0.083 0.583,0.083 0.833,0.083 1.833,-0.167 3.167,-1.75 3,-3.583 0,0 0,-0.084 0,-0.084 0.25,0.084 0.583,0.084 0.833,0.084 1.834,-0.167 3.167,-1.75 3,-3.584 0,-0.166 -0.083,-0.333 -0.083,-0.5 0.5,0.25 1.083,0.417 1.75,0.334 1.833,-0.167 3.167,-1.75 3,-3.584 0.083,-0.916 -0.333,-1.666 -0.917,-2.25 z"
             fill="#0078d4"
             id="path27" />
          <path
             d="m 221.167,227.917 -6.417,3.916 c -0.75,0.5 -1.833,0.25 -2.25,-0.583 l -7.75,-12.833 c -0.5,-0.75 -0.25,-1.834 0.583,-2.25 l 6.417,-3.917 z"
             fill="#0078d4"
             id="path28" />
          <path
             d="m 203.75,220.083 c -6.917,2.5 -11.917,0.084 -17.5,-1 -0.083,0 -0.417,-0.083 -0.417,-0.083 -1,-0.083 -2.083,0.25 -2.833,1.083 l -6.583,7.5 c -1.25,1.417 -1.084,3.5 0.333,4.667 0.75,0.583 1.583,0.917 2.5,0.833 0.833,-0.083 1.667,-0.416 2.25,-1.166 0,0 6.833,-7.834 6.833,-7.834 l 15.584,13.417 v 0 0 c 0.416,0.417 0.583,0.583 0.916,1.083 l 6,-6.916 z"
             fill="#0078d4"
             id="path29" />
        </g>
      </g>
    </g>
    <text
       font-family="'Segoe UI', 'Segoe UI_MSFontService', sans-serif"
       font-weight="400"
       font-size="27px"
       transform="translate(135.235,330)"
       id="text31">Business</text>
    <text
       font-family="'Segoe UI', 'Segoe UI_MSFontService', sans-serif"
       font-weight="400"
       font-size="27px"
       transform="translate(127.362,365)"
       id="text32">outcomes</text>
    <g
       id="g39">
      <g
         id="g38">
        <g
           id="g37">
          <path
             d="m 381.5,219.667 c 0,4.142 -3.358,7.5 -7.5,7.5 -4.142,0 -7.5,-3.358 -7.5,-7.5 0,-4.142 3.358,-7.5 7.5,-7.5 4.142,0 7.5,3.358 7.5,7.5 z"
             fill="#0078d4"
             id="path32" />
          <path
             d="m 421.5,219.667 c 0,4.142 -3.358,7.5 -7.5,7.5 -4.142,0 -7.5,-3.358 -7.5,-7.5 0,-4.142 3.358,-7.5 7.5,-7.5 4.142,0 7.5,3.358 7.5,7.5 z"
             fill="#0078d4"
             id="path33" />
          <path
             d="m 409,255.833 v -7.5 c 0,-1.166 -0.5,-2.333 -1.5,-3 -2,-1.666 -4.667,-2.833 -7.333,-3.5 -1.834,-0.5 -4,-1 -6.167,-1 -2,0 -4.167,0.334 -6.167,1 -2.666,0.667 -5.166,2 -7.333,3.5 -1,0.834 -1.5,1.834 -1.5,3 v 7.5 z"
             fill="#0078d4"
             id="path34" />
          <path
             d="m 401.5,231.333 c 0,4.142 -3.358,7.5 -7.5,7.5 -4.142,0 -7.5,-3.358 -7.5,-7.5 0,-4.142 3.358,-7.5 7.5,-7.5 4.142,0 7.5,3.358 7.5,7.5 z"
             fill="#0078d4"
             id="path35" />
          <path
             d="m 427.5,233.667 c -2,-1.667 -4.667,-2.834 -7.333,-3.5 -1.834,-0.5 -4,-1 -6.167,-1 -2,0 -4.167,0.333 -6.167,1 -1,0.333 -2,0.666 -3,1.166 v 0.167 c 0,2.833 -1.166,5.5 -3,7.333 3.167,1 5.667,2.334 7.667,3.834 0.5,0.5 1,0.833 1.333,1.5 H 429 v -7.5 c 0,-1.167 -0.5,-2.334 -1.5,-3 z"
             fill="#0078d4"
             id="path36" />
          <path
             d="m 378.5,242.667 v 0 c 2.333,-1.667 5,-3 7.667,-3.834 -1.834,-2 -3,-4.5 -3,-7.333 0,-0.167 0,-0.167 0,-0.333 -1,-0.334 -2,-0.834 -3,-1 -1.834,-0.5 -4,-1 -6.167,-1 -2,0 -4.167,0.333 -6.167,1 -2.666,0.833 -5.166,2 -7.333,3.5 -1,0.666 -1.5,1.833 -1.5,3 v 7.5 h 18 c 0.5,-0.667 0.833,-1 1.5,-1.5 z"
             fill="#0078d4"
             id="path37" />
        </g>
      </g>
    </g>
    <text
       font-family="'Segoe UI', 'Segoe UI_MSFontService', sans-serif"
       font-weight="400"
       font-size="27px"
       transform="translate(324.415,330)"
       id="text39">Stakeholder</text>
    <text
       font-family="'Segoe UI', 'Segoe UI_MSFontService', sans-serif"
       font-weight="400"
       font-size="27px"
       transform="translate(355.801,365)"
       id="text40">buy</text>
    <text
       font-family="'Segoe UI', 'Segoe UI_MSFontService', sans-serif"
       font-weight="400"
       font-size="27px"
       transform="translate(399.481,365)"
       id="text41">-</text>
    <text
       font-family="'Segoe UI', 'Segoe UI_MSFontService', sans-serif"
       font-weight="400"
       font-size="27px"
       transform="translate(410.148,365)"
       id="text42">in</text>
    <g
       id="g49">
      <g
         id="g48">
        <g
           id="g47">
          <path
             d="m 216.667,475.167 -2.5,2.5 h -57.5 l -3.334,-3.334 v -16.666 l 3.334,-3.334 h 57.5 l 2.5,2.5 z m -68.334,-25.834 v 33.334 h 73.334 v -33.334 z"
             fill="#0078d4"
             id="path42" />
          <path
             d="m 191.667,466 c 0,4.602 -2.985,8.333 -6.667,8.333 -3.682,0 -6.667,-3.731 -6.667,-8.333 0,-4.602 2.985,-8.333 6.667,-8.333 3.682,0 6.667,3.731 6.667,8.333 z"
             fill="#0078d4"
             id="path43" />
          <path
             d="m 166.667,466 c 0,1.381 -1.12,2.5 -2.5,2.5 -1.381,0 -2.5,-1.119 -2.5,-2.5 0,-1.381 1.119,-2.5 2.5,-2.5 1.38,0 2.5,1.119 2.5,2.5 z"
             fill="#0078d4"
             id="path44" />
          <path
             d="m 208.333,466 c 0,1.381 -1.119,2.5 -2.5,2.5 -1.38,0 -2.5,-1.119 -2.5,-2.5 0,-1.381 1.12,-2.5 2.5,-2.5 1.381,0 2.5,1.119 2.5,2.5 z"
             fill="#0078d4"
             id="path45" />
          <path
             d="m 199.917,433.25 1.25,3.167 5,-1 -3.5,-8.75 L 157.833,445 183.5,439.917 Z"
             fill="#0078d4"
             id="path46" />
          <path
             d="m 195.583,446 13.167,-2.583 0.583,2.583 h 5.084 L 212.75,437.5 170,446 Z"
             fill="#0078d4"
             id="path47" />
        </g>
      </g>
    </g>
    <text
       font-family="'Segoe UI', 'Segoe UI_MSFontService', sans-serif"
       font-weight="400"
       font-size="27px"
       transform="translate(135.218,552)"
       id="text49">Revenue</text>
    <text
       font-family="'Segoe UI', 'Segoe UI_MSFontService', sans-serif"
       font-weight="400"
       font-size="27px"
       transform="translate(145.312,587)"
       id="text50">impact</text>
    <g
       id="g55">
      <g
         id="g54">
        <g
           id="g53">
          <path
             d="M 365.667,470.167 H 369 v 3.333 h -3.333 z m 0,-6.667 H 369 v 3.333 h -3.333 z m 0,-6.667 H 369 v 3.334 h -3.333 z m 6.666,13.334 h 3.334 v 3.333 h -3.334 z m 0,-6.667 h 3.334 v 3.333 h -3.334 z m 0,-6.667 h 3.334 v 3.334 h -3.334 z m -11.666,25 H 369 v -5 h 3.333 v 5 h 8.334 v -30 h -20 z"
             fill="#0078d4"
             id="path50" />
          <path
             d="m 389,470.167 h 3.333 V 473.5 H 389 Z m 0,-6.667 h 3.333 v 3.333 H 389 Z m 6.667,6.667 H 399 v 3.333 h -3.333 z m 0,-6.667 H 399 v 3.333 h -3.333 z M 384,481.833 h 8.333 v -5 h 3.334 v 5 H 404 V 458.5 h -20 z"
             fill="#0078d4"
             id="path51" />
          <path
             d="M 422.333,441 H 419 v -3.333 h 3.333 z m 0,5.833 H 419 V 443.5 h 3.333 z m 0,6.667 H 419 v -3.333 h 3.333 z m 0,6.667 H 419 v -3.334 h 3.333 z m 0,6.666 H 419 V 463.5 h 3.333 z m 0,6.667 H 419 v -3.333 h 3.333 z M 415.667,441 h -3.334 v -3.333 h 3.334 z m 0,5.833 h -3.334 V 443.5 h 3.334 z m 0,6.667 h -3.334 v -3.333 h 3.334 z m 0,6.667 h -3.334 v -3.334 h 3.334 z m 0,6.666 h -3.334 V 463.5 h 3.334 z m 0,6.667 h -3.334 v -3.333 h 3.334 z m -8.334,-41.667 v 50 h 8.334 v -5 H 419 v 5 h 8.333 v -47.5 z"
             fill="#0078d4"
             id="path52" />
          <path
             d="m 384,441.833 h 3.333 v 3.334 H 384 Z m 0,-6.666 h 3.333 V 438.5 H 384 Z m -3.333,3.333 h -3.334 v -3.333 h 3.334 z m 0,6.667 h -3.334 v -3.334 h 3.334 z m 3.333,10 h 8.333 v -25 h -20 V 448.5 H 384 Z"
             fill="#0078d4"
             id="path53" />
        </g>
      </g>
    </g>
    <text
       font-family="'Segoe UI', 'Segoe UI_MSFontService', sans-serif"
       font-weight="400"
       font-size="27px"
       transform="translate(315.588,552)"
       id="text55">Building your</text>
    <text
       font-family="'Segoe UI', 'Segoe UI_MSFontService', sans-serif"
       font-weight="400"
       font-size="27px"
       transform="translate(346.888,587)"
       id="text56">pipeline</text>
    <path
       d="m 560,381 32,-32 v 16 h 33 v -16 l 32,32 -32,32 v -16 h -33 v 16 z"
       fill="#0078d4"
       fill-rule="evenodd"
       id="path56" />
  </g>
</svg>
