<svg width="1280" height="720" xmlns="http://www.w3.org/2000/svg" xmlns:xlink="http://www.w3.org/1999/xlink" overflow="hidden"><g><rect x="0" y="0" width="1280" height="720" fill="#FFFFFF"/><text font-family="Segoe UI Semibold,Segoe UI Semibold_MSFontService,sans-serif" font-weight="600" font-size="48" transform="translate(61.7599 95)">Business process</text><text font-family="Segoe UI Semibold,Segoe UI Semibold_MSFontService,sans-serif" font-weight="600" font-size="48" transform="translate(413.673 95)">-</text><text font-family="Segoe UI Semibold,Segoe UI Semibold_MSFontService,sans-serif" font-weight="600" font-size="48" transform="translate(432.34 95)">centric approach</text><g><g><g><path d="M213.183 337.517C208.283 337.517 204.433 333.55 204.433 328.767 204.433 323.983 208.4 320.017 213.183 320.017 218.083 320.017 221.933 323.983 221.933 328.767 221.933 333.55 217.967 337.517 213.183 337.517ZM232.9 323.283C232.433 321.65 231.85 320.133 231.033 318.733L232.9 313.25 228.7 309.05 223.217 310.917C221.817 310.1 220.3 309.517 218.667 309.05L216.1 303.917 210.267 303.917 207.7 309.05C206.067 309.517 204.55 310.1 203.15 310.917L197.667 309.05 193.467 313.25 195.333 318.733C194.517 320.133 193.933 321.65 193.467 323.283L188.333 325.85 188.333 331.683 193.467 334.25C193.933 335.883 194.517 337.4 195.333 338.8L193.467 344.283 197.55 348.367 203.033 346.5C204.433 347.317 205.95 347.9 207.583 348.367L210.15 353.5 215.983 353.5 218.55 348.367C220.183 347.9 221.7 347.317 223.1 346.5L228.583 348.367 232.783 344.283 230.917 338.8C231.733 337.4 232.433 335.767 232.9 334.25L238.033 331.683 238.033 325.85 232.9 323.283Z" fill="#0078D4"/><path d="M186.817 379.983C181.917 379.983 178.067 376.017 178.067 371.233 178.067 366.333 182.033 362.483 186.817 362.483 191.717 362.483 195.567 366.45 195.567 371.233 195.567 376.017 191.717 379.983 186.817 379.983L186.817 379.983ZM204.667 361.2 206.533 355.717 202.333 351.517 196.85 353.383C195.45 352.567 193.817 351.983 192.3 351.517L189.733 346.383 183.9 346.383 181.333 351.517C179.7 351.983 178.183 352.567 176.783 353.383L171.3 351.517 167.217 355.6 168.967 361.083C168.15 362.483 167.567 364.117 167.1 365.633L161.967 368.2 161.967 374.033 167.1 376.6C167.567 378.233 168.15 379.75 168.967 381.15L167.217 386.633 171.3 390.717 176.783 388.967C178.183 389.783 179.7 390.367 181.333 390.833L183.9 395.967 189.733 395.967 192.3 390.833C193.933 390.367 195.45 389.783 196.85 388.967L202.333 390.833 206.417 386.633 204.667 381.267C205.483 379.867 206.067 378.35 206.533 376.717L211.667 374.15 211.667 368.317 206.533 365.75C206.067 364.117 205.483 362.6 204.667 361.2Z" fill="#0078D4"/></g></g></g><text font-family="Segoe UI,Segoe UI_MSFontService,sans-serif" font-weight="400" font-size="28" transform="translate(98.3102 469)">Tailored solution</text><g><g><g><path d="M528.583 314.417 527.417 303.917 514.583 316.75 515.283 322.817 496.617 341.483C494.983 340.667 493.117 340.083 491.133 340.083 484.717 340.083 479.467 345.333 479.467 351.75 479.467 358.167 484.717 363.417 491.133 363.417 497.55 363.417 502.8 358.167 502.8 351.75 502.8 349.767 502.333 348.017 501.517 346.383L520.183 327.717 526.25 328.417 539.083 315.583 528.583 314.417Z" fill="#0078D4"/><path d="M529.517 331.683 528 333.317 525.783 333.083 523.333 332.733C526.6 338.333 528.583 344.75 528.583 351.75 528.583 372.283 511.783 389.083 491.25 389.083 470.717 389.083 453.917 372.283 453.917 351.75 453.917 331.217 470.717 314.417 491.25 314.417 498.133 314.417 504.667 316.283 510.267 319.667L510.033 317.333 509.683 315 511.317 313.367 512.133 312.55C505.833 309.283 498.833 307.417 491.25 307.417 466.75 307.417 446.917 327.25 446.917 351.75 446.917 376.25 466.75 396.083 491.25 396.083 515.75 396.083 535.583 376.25 535.583 351.75 535.583 344.167 533.717 337.167 530.333 330.983L529.517 331.683Z" fill="#0078D4"/><path d="M510.733 343.817C511.783 346.267 512.25 348.95 512.25 351.75 512.25 363.3 502.8 372.75 491.25 372.75 479.7 372.75 470.25 363.3 470.25 351.75 470.25 340.2 479.7 330.75 491.25 330.75 494.05 330.75 496.733 331.333 499.183 332.267L504.433 327.017C500.467 324.917 496.033 323.75 491.25 323.75 475.85 323.75 463.25 336.35 463.25 351.75 463.25 367.15 475.85 379.75 491.25 379.75 506.65 379.75 519.25 367.15 519.25 351.75 519.25 346.967 518.083 342.533 515.983 338.567L510.733 343.817Z" fill="#0078D4"/></g></g></g><text font-family="Segoe UI,Segoe UI_MSFontService,sans-serif" font-weight="400" font-size="28" transform="translate(398.731 469)">Key to accurate</text><text font-family="Segoe UI,Segoe UI_MSFontService,sans-serif" font-weight="400" font-size="28" transform="translate(428.351 506)">estimation</text><g><g><g><path d="M768.5 329.933C768.5 335.732 763.799 340.433 758 340.433 752.201 340.433 747.5 335.732 747.5 329.933 747.5 324.134 752.201 319.433 758 319.433 763.799 319.433 768.5 324.134 768.5 329.933Z" fill="#0078D4"/><path d="M824.5 329.933C824.5 335.732 819.799 340.433 814 340.433 808.201 340.433 803.5 335.732 803.5 329.933 803.5 324.134 808.201 319.433 814 319.433 819.799 319.433 824.5 324.134 824.5 329.933Z" fill="#0078D4"/><path d="M807 380.567 807 370.067C807 368.433 806.3 366.8 804.9 365.867 802.1 363.533 798.367 361.9 794.633 360.967 792.067 360.267 789.033 359.567 786 359.567 783.2 359.567 780.167 360.033 777.367 360.967 773.633 361.9 770.133 363.767 767.1 365.867 765.7 367.033 765 368.433 765 370.067L765 380.567 807 380.567Z" fill="#0078D4"/><path d="M796.5 346.267C796.5 352.066 791.799 356.767 786 356.767 780.201 356.767 775.5 352.066 775.5 346.267 775.5 340.468 780.201 335.767 786 335.767 791.799 335.767 796.5 340.468 796.5 346.267Z" fill="#0078D4"/><path d="M832.9 349.533C830.1 347.2 826.367 345.567 822.633 344.633 820.067 343.933 817.033 343.233 814 343.233 811.2 343.233 808.167 343.7 805.367 344.633 803.967 345.1 802.567 345.567 801.167 346.267L801.167 346.5C801.167 350.467 799.533 354.2 796.967 356.767 801.4 358.167 804.9 360.033 807.7 362.133 808.4 362.833 809.1 363.3 809.567 364.233L835 364.233 835 353.733C835 352.1 834.3 350.467 832.9 349.533Z" fill="#0078D4"/><path d="M764.3 362.133 764.3 362.133C767.567 359.8 771.3 357.933 775.033 356.767 772.467 353.967 770.833 350.467 770.833 346.5 770.833 346.267 770.833 346.267 770.833 346.033 769.433 345.567 768.033 344.867 766.633 344.633 764.067 343.933 761.033 343.233 758 343.233 755.2 343.233 752.167 343.7 749.367 344.633 745.633 345.8 742.133 347.433 739.1 349.533 737.7 350.467 737 352.1 737 353.733L737 364.233 762.2 364.233C762.9 363.3 763.367 362.833 764.3 362.133Z" fill="#0078D4"/></g></g></g><text font-family="Segoe UI,Segoe UI_MSFontService,sans-serif" font-weight="400" font-size="28" transform="translate(704.789 469)">Enhances the</text><text font-family="Segoe UI,Segoe UI_MSFontService,sans-serif" font-weight="400" font-size="28" transform="translate(707.242 506)">effectiveness</text><g><g><g><path d="M98.0068 16.3291 14.0068 16.3291C11.4325 16.3367 9.34758 18.4215 9.34005 20.9958L9.34005 76.9958C9.34758 79.5701 11.4325 81.6549 14.0068 81.6625L46.6734 81.6625 46.6734 88.6625 35.0068 88.6625 35.0068 95.6625 77.0068 95.6625 77.0068 88.6625 65.3401 88.6625 65.3401 81.6625 98.0068 81.6625C100.581 81.6549 102.666 79.5701 102.673 76.9958L102.673 20.9958C102.666 18.4215 100.581 16.3367 98.0068 16.3291ZM95.6734 74.6625 16.3401 74.6625 16.3401 23.3291 95.6734 23.3291Z" fill="#0078D4" transform="matrix(1.00893 0 0 1 1023.5 294.5)"/><path d="M28.207 62.2168C32.2449 62.088 43.6361 62.3342 52.8915 68.3802 53.3279 68.6696 53.8391 68.8256 54.3627 68.8291L57.6644 68.8291C58.1665 68.8262 58.6578 68.6826 59.0823 68.4145 68.7887 62.3661 79.8268 62.0903 83.7824 62.2148 84.5159 62.2386 85.1298 61.6633 85.1536 60.9299 85.1553 60.8736 85.1536 60.8174 85.1483 60.7614L83.1488 39.1741C83.0867 38.487 82.5091 37.9619 81.8194 37.9652 81.4869 37.9678 81.0807 37.978 80.6256 37.9965L80.2788 34.2925 79.2933 34.2214C78.2659 34.1777 77.2368 34.2064 76.2134 34.3072L75.8993 30.6666 75.0209 30.5082C68.0239 29.643 61.0154 32.0258 55.9959 36.9768 50.9761 32.0262 43.9679 29.6434 36.971 30.5082L36.0925 30.6665 35.7785 34.3069C34.7551 34.2063 33.7259 34.1776 32.6985 34.2212L31.7129 34.2924 31.3662 37.9963C30.9112 37.9779 30.5052 37.9678 30.1727 37.9652 29.4829 37.9619 28.9053 38.487 28.8433 39.174L26.8437 60.7634C26.7736 61.4929 27.3083 62.1412 28.0378 62.2113 28.094 62.2168 28.1505 62.2186 28.207 62.2168ZM57.1632 39.1208C61.4645 34.6351 67.5314 32.2839 73.7324 32.6997L75.5404 53.6467C68.766 54.8882 62.4321 57.8738 57.1632 62.3092ZM57.1632 65.5139C65.1763 57.3146 76.8169 55.8026 76.9361 55.7881L78.0549 55.6514 76.4154 36.6476C77.1135 36.5829 77.7065 36.5507 78.146 36.5409L80.125 57.6845C71.7865 57.9185 63.7411 60.8116 57.1632 65.9415ZM38.2584 32.7071C44.454 32.323 50.5079 34.6666 54.8298 39.1224L54.8298 62.3103C49.5607 57.8742 43.2263 54.8883 36.4513 53.6467ZM33.8469 36.5381C34.2861 36.5469 34.8788 36.5779 35.5769 36.6417L33.9369 55.653 35.0558 55.7881C35.1751 55.8025 46.7993 57.2943 54.8298 65.5151L54.8298 65.9423C48.2518 60.8117 40.2058 57.9182 31.8668 57.6844Z" fill="#0078D4" transform="matrix(1.00893 0 0 1 1023.5 294.5)"/><path d="M60.6734 49.5105 60.6734 52.3713C63.8242 50.0864 67.3171 48.3148 71.0221 47.1225L70.8385 44.7289C67.2433 45.8401 63.8217 47.4495 60.6734 49.5105Z" fill="#0078D4" transform="matrix(1.00893 0 0 1 1023.5 294.5)"/><path d="M70.3647 38.5575C66.9411 39.6581 63.6813 41.2151 60.6734 43.1861L60.6734 46.0469C63.6872 43.8579 67.0174 42.1419 70.549 40.9578Z" fill="#0078D4" transform="matrix(1.00893 0 0 1 1023.5 294.5)"/></g></g></g><rect x="1023.5" y="294.5" width="113" height="112" stroke="#FFFFFF" stroke-width="1.13333" stroke-linejoin="round" stroke-miterlimit="10" fill="none"/><text font-family="Segoe UI,Segoe UI_MSFontService,sans-serif" font-weight="400" font-size="28" transform="translate(976.226 469)">Language to talk</text><text font-family="Segoe UI,Segoe UI_MSFontService,sans-serif" font-weight="400" font-size="28" transform="translate(996.826 506)">with business</text></g></svg>