<svg width="1280" height="720" xmlns="http://www.w3.org/2000/svg" xmlns:xlink="http://www.w3.org/1999/xlink" overflow="hidden"><defs><linearGradient x1="541.571" y1="32.8129" x2="541.571" y2="103.213" gradientUnits="userSpaceOnUse" spreadMethod="reflect" id="fill0"><stop offset="0" stop-color="#FFFFFF"/><stop offset="0.35" stop-color="#FFFFFF"/><stop offset="0.57576" stop-color="#FFFFFF"/><stop offset="1" stop-color="#FFFFFF"/></linearGradient></defs><g><rect x="0" y="0" width="1280" height="720" fill="#FFFFFF"/><text font-family="Segoe UI,Segoe UI_MSFontService,sans-serif" font-weight="400" font-size="19" transform="translate(1243.58 707)">3</text><rect x="0" y="0" width="1280" height="127" fill="#1392B4"/><path d="M1183 0 1280 0 1280 127 1158 127Z" fill="#1392B4" fill-rule="evenodd"/><rect x="28" y="30" width="1130" height="95" fill="#1392B4"/><path d="M871.865 75.3622 865.672 76.2264C863.751 76.4761 862.306 76.9419 861.336 77.6237 860.366 78.3055 859.881 79.501 859.881 81.2103 859.881 82.4587 860.328 83.4814 861.221 84.2785 862.114 85.0755 863.309 85.474 864.807 85.474 866.843 85.474 868.528 84.7586 869.863 83.3278 871.198 81.8969 871.865 80.0964 871.865 77.9262ZM1023.7 64.9911C1021.16 64.9911 1019.18 65.9274 1017.75 67.7999 1016.32 69.6725 1015.6 72.2893 1015.6 75.6503 1015.6 78.5503 1016.29 80.8694 1017.66 82.6076 1019.03 84.3457 1020.85 85.2147 1023.12 85.2147 1025.42 85.2147 1027.3 84.3841 1028.74 82.7228 1030.18 81.0615 1030.9 78.9345 1030.9 76.3417L1030.9 72.5101C1030.9 70.4359 1030.21 68.6642 1028.84 67.195 1027.47 65.7257 1025.75 64.9911 1023.7 64.9911ZM837.223 64.9911C834.842 64.9911 832.926 65.8362 831.476 67.5263 830.026 69.2164 829.301 71.329 829.301 73.8641L829.301 77.5228C829.301 79.6739 829.987 81.4984 831.361 82.9965 832.734 84.4945 834.477 85.2435 836.589 85.2435 839.067 85.2435 841.012 84.2785 842.423 82.3483 843.835 80.4181 844.541 77.7245 844.541 74.2675 844.541 71.3674 843.883 69.0963 842.567 67.4542 841.252 65.8121 839.47 64.9911 837.223 64.9911ZM669.696 64.9911C667.161 64.9911 665.178 65.9274 663.747 67.7999 662.317 69.6725 661.601 72.2893 661.601 75.6503 661.601 78.5503 662.288 80.8694 663.661 82.6076 665.034 84.3457 666.854 85.2147 669.12 85.2147 671.425 85.2147 673.297 84.3841 674.738 82.7228 676.178 81.0615 676.899 78.9345 676.899 76.3417L676.899 72.5101C676.899 70.4359 676.212 68.6642 674.839 67.195 673.466 65.7257 671.751 64.9911 669.696 64.9911ZM471.071 64.9911C468.459 64.9911 466.394 65.9034 464.877 67.7279 463.36 69.5525 462.601 72.0684 462.601 75.2758 462.601 78.3679 463.369 80.8022 464.906 82.5787 466.442 84.3553 468.497 85.2435 471.071 85.2435 473.702 85.2435 475.724 84.3697 477.135 82.622 478.547 80.8742 479.253 78.3871 479.253 75.1605 479.253 71.9148 478.547 69.4084 477.135 67.6415 475.724 65.8746 473.702 64.9911 471.071 64.9911ZM269.696 64.9911C267.161 64.9911 265.178 65.9274 263.747 67.7999 262.317 69.6725 261.601 72.2893 261.601 75.6503 261.601 78.5503 262.288 80.8694 263.661 82.6076 265.034 84.3457 266.854 85.2147 269.12 85.2147 271.425 85.2147 273.298 84.3841 274.738 82.7228 276.178 81.0615 276.899 78.9345 276.899 76.3417L276.899 72.5101C276.899 70.4359 276.212 68.6642 274.839 67.195 273.466 65.7257 271.751 64.9911 269.696 64.9911ZM98.6388 64.9911C96.1421 64.9911 94.1783 65.9226 92.7475 67.7855 91.3166 69.6485 90.6012 72.2317 90.6012 75.535 90.6012 78.5311 91.2878 80.8982 92.661 82.6364 94.0342 84.3745 95.8828 85.2435 98.2067 85.2435 100.492 85.2435 102.346 84.4033 103.767 82.7228 105.188 81.0423 105.899 78.9249 105.899 76.3705L105.899 72.5101C105.899 70.4167 105.217 68.6402 103.853 67.1805 102.49 65.7209 100.751 64.9911 98.6388 64.9911ZM702.89 64.5878C700.969 64.5878 699.342 65.2888 698.007 66.6908 696.672 68.0928 695.851 69.927 695.544 72.1932L709.199 72.1932C709.18 69.7925 708.613 67.9248 707.499 66.59 706.385 65.2552 704.849 64.5878 702.89 64.5878ZM618.89 64.5878C616.969 64.5878 615.341 65.2888 614.007 66.6908 612.672 68.0928 611.851 69.927 611.544 72.1932L625.199 72.1932C625.18 69.7925 624.613 67.9248 623.499 66.59 622.385 65.2552 620.849 64.5878 618.89 64.5878ZM538.89 64.5878C536.969 64.5878 535.342 65.2888 534.007 66.6908 532.672 68.0928 531.851 69.927 531.544 72.1932L545.199 72.1932C545.18 69.7925 544.613 67.9248 543.499 66.59 542.385 65.2552 540.849 64.5878 538.89 64.5878ZM963.675 60.3529 970.359 60.3529 970.359 89.8529 963.675 89.8529ZM774.498 60.3529 781.901 60.3529 788.931 81.7865C789.008 82.0554 789.18 82.766 789.449 83.9183L789.593 83.9183C789.689 83.4766 789.862 82.7852 790.112 81.8441L797.487 60.3529 804.228 60.3529 790.919 94.5775C788.153 100.685 784.273 103.739 779.28 103.739 777.878 103.739 776.706 103.614 775.765 103.364L775.765 97.8041C776.822 98.1498 777.782 98.3226 778.646 98.3226 781.143 98.3226 783.006 97.0935 784.235 94.6351L786.223 89.7953ZM210.675 60.3529 217.359 60.3529 217.359 89.8529 210.675 89.8529ZM133.099 60.3529 139.782 60.3529 139.782 77.2924C139.782 82.5931 141.828 85.2435 145.919 85.2435 147.897 85.2435 149.524 84.5137 150.802 83.0541 152.079 81.5945 152.717 79.6835 152.717 77.3212L152.717 60.3529 159.401 60.3529 159.401 89.8529 152.717 89.8529 152.717 85.1859 152.602 85.1859C150.662 88.7582 147.647 90.5443 143.556 90.5443 136.585 90.5443 133.099 86.3575 133.099 77.9838ZM119.675 60.3529 126.359 60.3529 126.359 88.6141C126.359 93.454 125.341 97.1847 123.305 99.8063 121.269 102.428 118.359 103.739 114.576 103.739 113.174 103.739 111.81 103.431 110.485 102.817L110.485 97.0839C111.733 97.9481 112.915 98.3803 114.028 98.3803 117.793 98.3803 119.675 95.0577 119.675 88.4125ZM651.022 59.8344C652.232 59.8344 653.153 60.0168 653.787 60.3817L653.787 66.7196C652.981 66.0858 651.819 65.7689 650.301 65.7689 648.323 65.7689 646.672 66.662 645.346 68.4481 644.021 70.2343 643.359 72.6638 643.359 75.7367L643.359 89.8529 636.675 89.8529 636.675 60.3529 643.359 60.3529 643.359 66.4315 643.474 66.4315C644.127 64.3573 645.13 62.7392 646.484 61.5773 647.838 60.4153 649.351 59.8344 651.022 59.8344ZM505.022 59.8344C506.232 59.8344 507.154 60.0168 507.787 60.3817L507.787 66.7196C506.981 66.0858 505.819 65.7689 504.301 65.7689 502.323 65.7689 500.672 66.662 499.346 68.4481 498.021 70.2343 497.359 72.6638 497.359 75.7367L497.359 89.8529 490.675 89.8529 490.675 60.3529 497.359 60.3529 497.359 66.4315 497.474 66.4315C498.127 64.3573 499.13 62.7392 500.484 61.5773 501.838 60.4153 503.351 59.8344 505.022 59.8344ZM1022.05 59.6615C1025.95 59.6615 1028.84 61.2556 1030.73 64.4437L1030.84 64.4437 1030.84 60.3529 1037.52 60.3529 1037.52 87.4906C1037.52 98.3226 1032.08 103.739 1021.19 103.739 1017.35 103.739 1014 103.095 1011.14 101.808L1011.14 95.7011C1014.36 97.5448 1017.43 98.4667 1020.33 98.4667 1027.34 98.4667 1030.84 95.0192 1030.84 88.1244L1030.84 84.8978 1030.73 84.8978C1028.52 88.6622 1025.19 90.5443 1020.76 90.5443 1017.17 90.5443 1014.27 89.2335 1012.07 86.6119 1009.87 83.9904 1008.77 80.4709 1008.77 76.0536 1008.77 71.0409 1009.95 67.0557 1012.32 64.098 1014.68 61.1403 1017.93 59.6615 1022.05 59.6615ZM994.067 59.6615C997.274 59.6615 999.723 60.7034 1001.41 62.7872 1003.1 64.8711 1003.95 67.8816 1003.95 71.8187L1003.95 89.8529 997.265 89.8529 997.265 73.2304C997.265 67.7183 995.315 64.9623 991.417 64.9623 989.381 64.9623 987.7 65.7257 986.375 67.2526 985.05 68.7794 984.387 70.7048 984.387 73.0287L984.387 89.8529 977.675 89.8529 977.675 60.3529 984.387 60.3529 984.387 65.2504 984.503 65.2504C986.711 61.5245 989.899 59.6615 994.067 59.6615ZM918.705 59.6615C921.393 59.6615 923.765 60.132 925.82 61.0731L925.82 67.2958C923.765 65.7593 921.576 64.9911 919.252 64.9911 916.429 64.9911 914.115 65.9466 912.309 67.8576 910.504 69.7685 909.601 72.2701 909.601 75.3622 909.601 78.4159 910.451 80.8262 912.151 82.5931 913.85 84.3601 916.131 85.2435 918.993 85.2435 921.393 85.2435 923.66 84.3889 925.792 82.6796L925.792 88.4989C923.429 89.8625 920.635 90.5443 917.408 90.5443 913.029 90.5443 909.496 89.1759 906.807 86.4391 904.118 83.7023 902.773 80.154 902.773 75.7943 902.773 70.9353 904.219 67.0317 907.109 64.0836 910 61.1356 913.865 59.6615 918.705 59.6615ZM867.141 59.6615C874.593 59.6615 878.318 63.3298 878.318 70.6664L878.318 89.8529 871.837 89.8529 871.837 85.2435 871.721 85.2435C869.685 88.7774 866.699 90.5443 862.762 90.5443 859.862 90.5443 857.591 89.7569 855.949 88.182 854.307 86.6071 853.485 84.5233 853.485 81.9305 853.485 76.3609 856.693 73.1151 863.108 72.1932L871.865 70.9545C871.865 66.7484 869.868 64.6454 865.873 64.6454 862.359 64.6454 859.19 65.8554 856.366 68.2753L856.366 62.4271C859.478 60.5834 863.069 59.6615 867.141 59.6615ZM839.499 59.6615C843.244 59.6615 846.164 60.9771 848.257 63.6083 850.35 66.2395 851.397 69.7733 851.397 74.2098 851.397 79.1265 850.216 83.0637 847.854 86.0214 845.491 88.979 842.265 90.4579 838.174 90.4579 834.41 90.4579 831.51 88.8062 829.474 85.5028L829.359 85.5028 829.359 103.422 822.675 103.422 822.675 60.3529 829.359 60.3529 829.359 65.5385 829.474 65.5385C831.759 61.6205 835.101 59.6615 839.499 59.6615ZM766.705 59.6615C769.393 59.6615 771.765 60.132 773.82 61.0731L773.82 67.2958C771.765 65.7593 769.576 64.9911 767.252 64.9911 764.429 64.9911 762.115 65.9466 760.309 67.8576 758.504 69.7685 757.601 72.2701 757.601 75.3622 757.601 78.4159 758.451 80.8262 760.151 82.5931 761.85 84.3601 764.131 85.2435 766.993 85.2435 769.393 85.2435 771.66 84.3889 773.792 82.6796L773.792 88.4989C771.429 89.8625 768.635 90.5443 765.408 90.5443 761.029 90.5443 757.496 89.1759 754.807 86.4391 752.118 83.7023 750.774 80.154 750.774 75.7943 750.774 70.9353 752.219 67.0317 755.109 64.0836 758 61.1356 761.865 59.6615 766.705 59.6615ZM736.067 59.6615C739.274 59.6615 741.723 60.7034 743.413 62.7872 745.103 64.8711 745.948 67.8816 745.948 71.8187L745.948 89.8529 739.265 89.8529 739.265 73.2304C739.265 67.7183 737.315 64.9623 733.417 64.9623 731.381 64.9623 729.7 65.7257 728.375 67.2526 727.05 68.7794 726.387 70.7048 726.387 73.0287L726.387 89.8529 719.675 89.8529 719.675 60.3529 726.387 60.3529 726.387 65.2504 726.503 65.2504C728.711 61.5245 731.899 59.6615 736.067 59.6615ZM702.976 59.6615C707.009 59.6615 710.13 60.9579 712.339 63.5507 714.548 66.1434 715.652 69.7445 715.652 74.3539L715.652 76.9179 695.544 76.9179C695.62 79.6451 696.461 81.7481 698.064 83.2269 699.668 84.7058 701.872 85.4452 704.676 85.4452 707.826 85.4452 710.716 84.5041 713.347 82.622L713.347 88.0092C710.658 89.6993 707.105 90.5443 702.688 90.5443 698.348 90.5443 694.943 89.2047 692.475 86.5255 690.008 83.8463 688.774 80.0772 688.774 75.2181 688.774 70.628 690.132 66.8877 692.85 63.9972 695.568 61.1067 698.943 59.6615 702.976 59.6615ZM668.054 59.6615C671.953 59.6615 674.844 61.2556 676.726 64.4437L676.841 64.4437 676.841 60.3529 683.525 60.3529 683.525 87.4906C683.525 98.3226 678.08 103.739 667.19 103.739 663.349 103.739 659.997 103.095 657.136 101.808L657.136 95.7011C660.362 97.5448 663.426 98.4667 666.326 98.4667 673.336 98.4667 676.841 95.0192 676.841 88.1244L676.841 84.8978 676.726 84.8978C674.517 88.6622 671.194 90.5443 666.758 90.5443 663.167 90.5443 660.271 89.2335 658.072 86.6119 655.873 83.9904 654.774 80.4709 654.774 76.0536 654.774 71.0409 655.955 67.0557 658.317 64.098 660.679 61.1403 663.925 59.6615 668.054 59.6615ZM618.976 59.6615C623.009 59.6615 626.13 60.9579 628.339 63.5507 630.548 66.1434 631.652 69.7445 631.652 74.3539L631.652 76.9179 611.544 76.9179C611.62 79.6451 612.461 81.7481 614.064 83.2269 615.668 84.7058 617.872 85.4452 620.676 85.4452 623.826 85.4452 626.716 84.5041 629.347 82.622L629.347 88.0092C626.659 89.6993 623.105 90.5443 618.688 90.5443 614.348 90.5443 610.943 89.2047 608.475 86.5255 606.008 83.8463 604.774 80.0772 604.774 75.2181 604.774 70.628 606.132 66.8877 608.85 63.9972 611.568 61.1067 614.943 59.6615 618.976 59.6615ZM571.779 59.6615C573.815 59.6615 575.596 60.2233 577.123 61.3468 578.65 62.4703 579.692 63.9444 580.249 65.7689 582.438 61.6973 585.703 59.6615 590.044 59.6615 596.535 59.6615 599.781 63.6659 599.781 71.6747L599.781 89.8529 593.097 89.8529 593.097 73.7777C593.097 70.6856 592.66 68.4481 591.786 67.0653 590.913 65.6825 589.439 64.9911 587.364 64.9911 585.617 64.9911 584.133 65.865 582.913 67.6127 581.694 69.3604 581.084 71.4538 581.084 73.893L581.084 89.8529 574.372 89.8529 574.372 73.2304C574.372 67.7375 572.432 64.9911 568.552 64.9911 566.747 64.9911 565.263 65.8169 564.101 67.4686 562.939 69.1203 562.359 71.2618 562.359 73.893L562.359 89.8529 555.675 89.8529 555.675 60.3529 562.359 60.3529 562.359 65.0199 562.474 65.0199C564.606 61.4476 567.707 59.6615 571.779 59.6615ZM538.976 59.6615C543.009 59.6615 546.13 60.9579 548.339 63.5507 550.548 66.1434 551.652 69.7445 551.652 74.3539L551.652 76.9179 531.544 76.9179C531.62 79.6451 532.461 81.7481 534.064 83.2269 535.668 84.7058 537.872 85.4452 540.676 85.4452 543.826 85.4452 546.716 84.5041 549.347 82.622L549.347 88.0092C546.659 89.6993 543.105 90.5443 538.688 90.5443 534.348 90.5443 530.943 89.2047 528.475 86.5255 526.008 83.8463 524.773 80.0772 524.773 75.2181 524.773 70.628 526.132 66.8877 528.85 63.9972 531.568 61.1067 534.943 59.6615 538.976 59.6615ZM471.474 59.6615C476.084 59.6615 479.675 61.0155 482.249 63.7235 484.822 66.4315 486.109 70.1862 486.109 74.9877 486.109 79.6931 484.721 83.4622 481.946 86.2951 479.171 89.1279 475.44 90.5443 470.754 90.5443 466.202 90.5443 462.568 89.1663 459.85 86.4103 457.132 83.6543 455.774 80.0004 455.774 75.4486 455.774 70.4935 457.19 66.6236 460.023 63.8388 462.856 61.0539 466.673 59.6615 471.474 59.6615ZM268.054 59.6615C271.953 59.6615 274.844 61.2556 276.726 64.4437L276.841 64.4437 276.841 60.3529 283.525 60.3529 283.525 87.4906C283.525 98.3226 278.08 103.739 267.19 103.739 263.349 103.739 259.998 103.095 257.136 101.808L257.136 95.7011C260.362 97.5448 263.426 98.4667 266.326 98.4667 273.336 98.4667 276.841 95.0192 276.841 88.1244L276.841 84.8978 276.726 84.8978C274.517 88.6622 271.194 90.5443 266.758 90.5443 263.166 90.5443 260.271 89.2335 258.072 86.6119 255.873 83.9904 254.774 80.4709 254.774 76.0536 254.774 71.0409 255.955 67.0557 258.317 64.098 260.679 61.1403 263.925 59.6615 268.054 59.6615ZM240.067 59.6615C243.274 59.6615 245.723 60.7034 247.413 62.7872 249.103 64.8711 249.948 67.8816 249.948 71.8187L249.948 89.8529 243.265 89.8529 243.265 73.2304C243.265 67.7183 241.315 64.9623 237.417 64.9623 235.381 64.9623 233.7 65.7257 232.375 67.2526 231.05 68.7794 230.387 70.7048 230.387 73.0287L230.387 89.8529 223.675 89.8529 223.675 60.3529 230.387 60.3529 230.387 65.2504 230.503 65.2504C232.711 61.5245 235.899 59.6615 240.067 59.6615ZM176.902 59.6615C179.629 59.6615 182.068 60.0744 184.219 60.9003L184.219 66.7484C182.145 65.3272 179.764 64.6166 177.075 64.6166 176.23 64.6166 175.466 64.703 174.785 64.8759 174.103 65.0487 173.522 65.2888 173.042 65.5961 172.562 65.9034 172.187 66.2731 171.918 66.7052 171.649 67.1373 171.515 67.6127 171.515 68.1312 171.515 68.765 171.649 69.3028 171.918 69.7445 172.187 70.1862 172.585 70.5752 173.114 70.9113 173.642 71.2474 174.276 71.5547 175.015 71.8331 175.754 72.1116 176.604 72.4141 177.565 72.7406 178.832 73.2592 179.97 73.7873 180.978 74.3251 181.987 74.8628 182.846 75.4726 183.557 76.1544 184.267 76.8362 184.815 77.6237 185.199 78.5167 185.583 79.4098 185.775 80.4709 185.775 81.7001 185.775 83.1981 185.429 84.5041 184.738 85.618 184.047 86.732 183.125 87.6539 181.972 88.3837 180.82 89.1135 179.49 89.6561 177.982 90.0114 176.475 90.3667 174.885 90.5443 173.214 90.5443 169.988 90.5443 167.193 90.0066 164.831 88.931L164.831 82.7372C167.328 84.6386 170.084 85.5892 173.099 85.5892 177.132 85.5892 179.149 84.3985 179.149 82.017 179.149 81.3448 178.976 80.7734 178.631 80.3029 178.285 79.8323 177.819 79.4146 177.233 79.0497 176.648 78.6848 175.956 78.3583 175.159 78.0702 174.362 77.7821 173.474 77.4556 172.494 77.0907 171.284 76.6106 170.194 76.1016 169.224 75.5639 168.255 75.0261 167.448 74.4163 166.805 73.7345 166.161 73.0527 165.676 72.2797 165.35 71.4154 165.023 70.5512 164.86 69.5429 164.86 68.3905 164.86 66.9693 165.196 65.7161 165.868 64.631 166.54 63.5459 167.443 62.6336 168.576 61.8942 169.709 61.1548 170.996 60.5978 172.437 60.2233 173.877 59.8488 175.366 59.6615 176.902 59.6615ZM320.915 54.6776C320.742 55.7723 320.55 56.6366 320.339 57.2704L314.663 73.7489 327.31 73.7489 321.577 57.2704C321.404 56.7326 321.222 55.8684 321.03 54.6776ZM62.9147 54.6776C62.7418 55.7723 62.5498 56.6366 62.3385 57.2704L56.6632 73.7489 69.3102 73.7489 63.5773 57.2704C63.4044 56.7326 63.222 55.8684 63.0299 54.6776ZM893.173 51.6239 893.173 60.3529 900.232 60.3529 900.232 65.5961 893.173 65.5961 893.173 80.3461C893.173 82.0938 893.49 83.3422 894.124 84.0912 894.758 84.8402 895.814 85.2147 897.293 85.2147 898.426 85.2147 899.406 84.8882 900.232 84.2352L900.232 89.536C898.925 90.189 897.207 90.5155 895.075 90.5155 889.352 90.5155 886.49 87.7691 886.49 82.2763L886.49 65.5961 881.564 65.5961 881.564 60.3529 886.49 60.3529 886.49 53.5253ZM199.173 51.6239 199.173 60.3529 206.232 60.3529 206.232 65.5961 199.173 65.5961 199.173 80.3461C199.173 82.0938 199.49 83.3422 200.124 84.0912 200.758 84.8402 201.814 85.2147 203.293 85.2147 204.426 85.2147 205.406 84.8882 206.232 84.2352L206.232 89.536C204.926 90.189 203.207 90.5155 201.075 90.5155 195.352 90.5155 192.49 87.7691 192.49 82.2763L192.49 65.5961 187.564 65.5961 187.564 60.3529 192.49 60.3529 192.49 53.5253ZM371.424 48.5414 381.075 48.5414 391.936 76.0536C392.762 78.1662 393.299 79.7411 393.549 80.7782L393.693 80.7782C394.404 78.608 394.98 76.9947 395.422 75.9384L406.484 48.5414 415.789 48.5414 415.789 89.8529 408.99 89.8529 408.99 63.1185C408.99 60.9291 409.125 58.2499 409.394 55.0809L409.278 55.0809C408.856 56.8863 408.481 58.1827 408.155 58.9701L395.825 89.8529 391.1 89.8529 378.741 59.2006C378.396 58.2979 378.031 56.9247 377.647 55.0809L377.531 55.0809C377.685 56.7326 377.762 59.431 377.762 63.1762L377.762 89.8529 371.424 89.8529ZM344.424 48.5414 351.28 48.5414 351.28 84.0624 367.298 84.0624 367.298 89.8529 344.424 89.8529ZM317.285 48.5414 325.005 48.5414 340.36 89.8529 332.841 89.8529 329.125 79.3378 312.877 79.3378 309.305 89.8529 301.815 89.8529ZM59.2848 48.5414 67.0055 48.5414 82.3605 89.8529 74.8414 89.8529 71.1251 79.3378 54.8771 79.3378 51.3048 89.8529 43.8146 89.8529ZM967.046 46.5536C968.179 46.5536 969.139 46.9185 969.926 47.6483 970.714 48.3781 971.107 49.2904 971.107 50.3851 971.107 51.4222 970.714 52.3105 969.926 53.0499 969.139 53.7894 968.179 54.1591 967.046 54.1591 965.951 54.1591 965.014 53.8038 964.237 53.0931 963.459 52.3825 963.07 51.4799 963.07 50.3851 963.07 49.2904 963.459 48.3781 964.237 47.6483 965.014 46.9185 965.951 46.5536 967.046 46.5536ZM214.046 46.5536C215.179 46.5536 216.139 46.9185 216.926 47.6483 217.714 48.3781 218.108 49.2904 218.108 50.3851 218.108 51.4222 217.714 52.3105 216.926 53.0499 216.139 53.7894 215.179 54.1591 214.046 54.1591 212.951 54.1591 212.015 53.8038 211.237 53.0931 210.459 52.3825 210.07 51.4799 210.07 50.3851 210.07 49.2904 210.459 48.3781 211.237 47.6483 212.015 46.9185 212.951 46.5536 214.046 46.5536ZM123.074 46.5536C124.188 46.5536 125.139 46.9185 125.926 47.6483 126.714 48.3781 127.108 49.2904 127.108 50.3851 127.108 51.4222 126.714 52.3105 125.926 53.0499 125.139 53.7894 124.188 54.1591 123.074 54.1591 121.98 54.1591 121.043 53.8038 120.266 53.0931 119.488 52.3825 119.099 51.4799 119.099 50.3851 119.099 49.2904 119.488 48.3781 120.266 47.6483 121.043 46.9185 121.98 46.5536 123.074 46.5536ZM930.675 46.1791 937.387 46.1791 937.387 65.2504 937.503 65.2504C939.73 61.5245 942.919 59.6615 947.067 59.6615 953.616 59.6615 956.891 63.6659 956.891 71.6747L956.891 89.8529 950.207 89.8529 950.207 73.7201C950.207 67.8816 948.258 64.9623 944.359 64.9623 942.4 64.9623 940.748 65.8073 939.404 67.4974 938.06 69.1876 937.387 71.3482 937.387 73.9794L937.387 89.8529 930.675 89.8529ZM105.812 46.1791 112.496 46.1791 112.496 89.8529 105.812 89.8529 105.812 84.8402 105.697 84.8402C103.546 88.643 100.233 90.5443 95.7579 90.5443 92.1281 90.5443 89.2232 89.2239 87.0433 86.5831 84.8635 83.9424 83.7736 80.3461 83.7736 75.7943 83.7736 70.9161 84.9787 67.0077 87.3891 64.0692 89.7994 61.1307 93.0115 59.6615 97.0255 59.6615 101.001 59.6615 103.892 61.2556 105.697 64.4437L105.812 64.4437ZM451.437 45.5165C453.089 45.5165 454.395 45.6989 455.355 46.0639L455.355 51.6239C454.452 51.1054 453.425 50.8461 452.273 50.8461 449.027 50.8461 447.404 52.6802 447.404 56.3485L447.404 60.3529 454.26 60.3529 454.26 65.5961 447.433 65.5961 447.433 89.8529 440.749 89.8529 440.749 65.5961 435.708 65.5961 435.708 60.3529 440.749 60.3529 440.749 55.5707C440.749 52.4594 441.767 50.0058 443.803 48.2101 445.839 46.4144 448.383 45.5165 451.437 45.5165Z" fill="url(#fill0)" fill-rule="evenodd"/><text fill="#000000" fill-opacity="0" font-family="Arial,Arial_MSFontService,sans-serif" font-size="58.2222" x="43.8146" y="96.4609">Adjusting ALM for emergency patching</text><rect x="38.5001" y="152.5" width="290" height="327" stroke="#0B6A83" stroke-width="1.13333" stroke-linejoin="round" stroke-miterlimit="10" fill="none"/><path d="M54.5001 441.5 294.955 441.5" stroke="#0078D4" stroke-width="3" stroke-linejoin="round" stroke-miterlimit="10" fill="none" fill-rule="evenodd"/><path d="M54.5001 380.5 294.955 380.5" stroke="#0078D4" stroke-width="3" stroke-linejoin="round" stroke-miterlimit="10" fill="none" fill-rule="evenodd"/><path d="M54.5001 319.5 294.955 319.5" stroke="#0078D4" stroke-width="3" stroke-linejoin="round" stroke-miterlimit="10" fill="none" fill-rule="evenodd"/><text fill="#1A1A1A" font-family="Segoe UI,Segoe UI_MSFontService,sans-serif" font-weight="700" font-size="15" transform="translate(60.948 427)">Release</text><text fill="#1A1A1A" font-family="Segoe UI,Segoe UI_MSFontService,sans-serif" font-weight="700" font-size="15" transform="translate(60.6584 368)">Main</text><text fill="#1A1A1A" font-family="Segoe UI,Segoe UI_MSFontService,sans-serif" font-weight="700" font-size="15" transform="translate(60.6583 306)">Dev C</text><path d="M141.952 381.286 168.072 436.514 167.168 436.942 141.048 381.714ZM170.666 433.813 170.471 442.755 163.434 437.233Z" fill="#1392B3"/><path d="M168 256.5 168 311.088 167 311.088 167 256.5ZM171.5 309.755 167.5 317.755 163.5 309.755Z" fill="#1392B3"/><path d="M0.666667-2.87362e-07 0.666769 236.898-0.666565 236.898-0.666667 2.87362e-07ZM4.0001 235.565 0.000104987 243.565-3.9999 235.565Z" fill="#FF0000" transform="matrix(1 0 0 -1 229.5 440.065)"/><path d="M54.5001 258.5 294.955 258.5" stroke="#0078D4" stroke-width="3" stroke-linejoin="round" stroke-miterlimit="10" fill="none" fill-rule="evenodd"/><text fill="#1A1A1A" font-family="Segoe UI,Segoe UI_MSFontService,sans-serif" font-weight="700" font-size="15" transform="translate(60.6583 246)">Dev B</text><rect x="478.5" y="207.5" width="158" height="98" stroke="#D9D9D9" stroke-width="1.13333" stroke-linejoin="round" stroke-miterlimit="10" fill="#0B5569"/><text fill="#FFFFFF" font-family="Segoe UI,Segoe UI_MSFontService,sans-serif" font-weight="400" font-size="21" transform="translate(519.982 265)">Build 1*</text><rect x="478.5" y="392.5" width="158" height="98" stroke="#D9D9D9" stroke-width="1.13333" stroke-linejoin="round" stroke-miterlimit="10" fill="#0B5569"/><text fill="#FFFFFF" font-family="Segoe UI,Segoe UI_MSFontService,sans-serif" font-weight="400" font-size="21" transform="translate(519.982 449)">Build 2*</text><path d="M0.834661-1.24633 178.132 117.489 176.463 119.981-0.834661 1.24633ZM178.555 114.161 183.529 122.908 173.547 121.639Z" transform="matrix(1 0 0 -1 294.5 379.408)"/><path d="M292.5 440 470.701 440 470.701 443 292.5 443ZM469.201 437 478.201 441.5 469.201 446Z" fill="#0B5569"/><rect x="680.5" y="208.5" width="158" height="98" stroke="#D9D9D9" stroke-linejoin="round" stroke-miterlimit="10" fill="#BFBFBF" fill-opacity="0.501961"/><text font-family="Segoe UI,Segoe UI_MSFontService,sans-serif" font-weight="400" font-size="21" transform="translate(709.492 257)">Sandbox 1</text><text font-family="Segoe UI,Segoe UI_MSFontService,sans-serif" font-weight="400" font-size="15" transform="translate(721.446 276)">(Initial Test)</text><rect x="882.5" y="392.5" width="158" height="98" stroke="#D9D9D9" stroke-width="1.13333" stroke-linejoin="round" stroke-miterlimit="10" fill="#70D5F0"/><text font-family="Segoe UI,Segoe UI_MSFontService,sans-serif" font-weight="400" font-size="21" transform="translate(911.706 440)">Sandbox 4</text><text font-family="Segoe UI,Segoe UI_MSFontService,sans-serif" font-weight="400" font-size="15" transform="translate(903.826 459)">(Acceptance Test)</text><path d="M636.511 255.933 674.17 256.639 674.149 257.772 636.489 257.067ZM672.901 253.181 680.825 257.33 672.751 261.18Z"/><path d="M636.5 440.933 674.158 440.933 674.158 442.067 636.5 442.067ZM672.825 437.5 680.825 441.5 672.825 445.5Z" fill="#0B5569"/><path d="M140.5 361.5 140.5 457.084" stroke="#1392B3" stroke-width="3" stroke-linejoin="round" stroke-miterlimit="10" fill="none" fill-rule="evenodd"/><path d="M54.5001 196.5 294.955 196.5" stroke="#0078D4" stroke-width="3" stroke-linejoin="round" stroke-miterlimit="10" fill="none" fill-rule="evenodd"/><text fill="#1A1A1A" font-family="Segoe UI,Segoe UI_MSFontService,sans-serif" font-weight="700" font-size="15" transform="translate(60.6584 185)">Dev A</text><path d="M198 320.5 198 375.088 197 375.088 197 320.5ZM201.5 373.755 197.5 381.755 193.5 373.755Z" fill="#1392B3"/><path d="M249 196.5 249 311.093 248 311.093 248 196.5ZM252.5 309.76 248.5 317.76 244.5 309.76Z" fill="#1392B3"/><path d="M274 318.5 274 373.088 273 373.088 273 318.5ZM277.5 371.755 273.5 379.755 269.5 371.755Z" fill="#1392B3"/><path d="M0 0 34.8257 77.3193" stroke="#FF0000" stroke-linejoin="round" stroke-miterlimit="10" fill="none" fill-rule="evenodd" transform="matrix(-1 0 0 1 139.326 442.5)"/><text fill="#1A1A1A" font-family="Segoe UI,Segoe UI_MSFontService,sans-serif" font-weight="400" font-size="15" transform="translate(52.9211 539)">Release 1 cutoff</text><path d="M215.5 441.5 272.52 520.277" stroke="#FF0000" stroke-linejoin="round" stroke-miterlimit="10" fill="none" fill-rule="evenodd"/><text fill="#1A1A1A" font-family="Segoe UI,Segoe UI_MSFontService,sans-serif" font-weight="400" font-size="15" transform="translate(226.238 538)">Hotfix / Binary</text><text fill="#1A1A1A" font-family="Segoe UI,Segoe UI_MSFontService,sans-serif" font-weight="700" font-size="15" transform="translate(229.818 556)">Regular task</text><text fill="#1A1A1A" font-family="Segoe UI,Segoe UI_MSFontService,sans-serif" font-weight="700" font-size="15" transform="translate(237.484 573)">Check LCS</text><text fill="#1A1A1A" font-family="Segoe UI,Segoe UI_MSFontService,sans-serif" font-weight="700" font-size="15" transform="translate(346.532 241)">Release 2 Build</text><text fill="#1A1A1A" font-family="Segoe UI,Segoe UI_MSFontService,sans-serif" font-weight="700" font-size="15" transform="translate(352.374 423)">Hotfix Build</text><text fill="#1A1A1A" font-family="Segoe UI,Segoe UI_MSFontService,sans-serif" font-weight="700" font-size="15" transform="translate(894.596 354)">Tier 2+</text><rect x="1084.5" y="393.5" width="158" height="98" stroke="#D9D9D9" stroke-width="1.13333" stroke-linejoin="round" stroke-miterlimit="10" fill="#00B050"/><text font-family="Segoe UI,Segoe UI_MSFontService,sans-serif" font-weight="400" font-size="21" transform="translate(1111.76 451)">Production</text><rect x="882.5" y="208.5" width="158" height="98" stroke="#D9D9D9" stroke-width="1.13333" stroke-linejoin="round" stroke-miterlimit="10" fill="#70D5F0"/><text font-family="Segoe UI,Segoe UI_MSFontService,sans-serif" font-weight="400" font-size="21" transform="translate(911.706 257)">Sandbox 2</text><text font-family="Segoe UI,Segoe UI_MSFontService,sans-serif" font-weight="400" font-size="15" transform="translate(903.826 276)">(Acceptance Test)</text><path d="M838.5 256.933 876.158 256.933 876.158 258.067 838.5 258.067ZM874.825 253.5 882.825 257.5 874.825 261.5Z"/><path d="M1040.5 441.933 1078.16 441.933 1078.16 443.067 1040.5 443.067ZM1076.82 438.5 1084.82 442.5 1076.82 446.5Z" fill="#0B5569"/><rect x="680.5" y="392.5" width="158" height="98" stroke="#D9D9D9" stroke-linejoin="round" stroke-miterlimit="10" fill="#BFBFBF" fill-opacity="0.501961"/><text font-family="Segoe UI,Segoe UI_MSFontService,sans-serif" font-weight="400" font-size="21" transform="translate(709.492 440)">Sandbox 3</text><text font-family="Segoe UI,Segoe UI_MSFontService,sans-serif" font-weight="400" font-size="15" transform="translate(721.445 459)">(Initial Test)</text><path d="M838.5 440.933 876.158 440.933 876.158 442.067 838.5 442.067ZM874.825 437.5 882.825 441.5 874.825 445.5Z" fill="#0B5569"/><path d="M669.5 481.5 669.5 514.784" stroke="#1392B3" stroke-linejoin="round" stroke-miterlimit="10" stroke-dasharray="4 3" fill="none" fill-rule="evenodd"/><path d="M1049.5 482.5 1049.5 515.784" stroke="#1392B3" stroke-linejoin="round" stroke-miterlimit="10" stroke-dasharray="4 3" fill="none" fill-rule="evenodd"/><path d="M669.5 514.5 1049.59 515.584" stroke="#1392B3" stroke-linejoin="round" stroke-miterlimit="10" stroke-dasharray="4 3" fill="none" fill-rule="evenodd"/><path d="M867.5 514.5 948.333 572.379" stroke="#1392B3" stroke-linejoin="round" stroke-miterlimit="10" stroke-dasharray="4 3" fill="none" fill-rule="evenodd"/><text fill="#1A1A1A" font-family="Segoe UI,Segoe UI_MSFontService,sans-serif" font-weight="400" font-size="15" transform="translate(976.294 550)">Structure of test</text><text fill="#1A1A1A" font-family="Segoe UI,Segoe UI_MSFontService,sans-serif" font-weight="400" font-size="15" transform="translate(961.707 568)">requirements should</text><text fill="#1A1A1A" font-family="Segoe UI,Segoe UI_MSFontService,sans-serif" font-weight="400" font-size="15" transform="translate(958.54 585)">correspond to testing</text><text fill="#1A1A1A" font-family="Segoe UI,Segoe UI_MSFontService,sans-serif" font-weight="400" font-size="15" transform="translate(1003.87 603)">process</text><path d="M0 0 41.6467 28.996" stroke="#FF0000" stroke-linejoin="round" stroke-miterlimit="10" fill="none" fill-rule="evenodd" transform="matrix(1 0 0 -1 919.5 335.496)"/><path d="M919.5 363.5 961.147 392.538" stroke="#FF0000" stroke-linejoin="round" stroke-miterlimit="10" fill="none" fill-rule="evenodd"/><rect x="0" y="618" width="1280" height="102" fill="#1392B4"/><text fill="#FFFFFF" font-family="Segoe UI,Segoe UI_MSFontService,sans-serif" font-weight="700" font-size="32" transform="translate(18.8226 660)">Learn More</text><text fill="#FFFFFF" font-family="Arial,Arial_MSFontService,sans-serif" font-weight="400" font-size="21" transform="translate(22.998 695)">•</text><text fill="#FFFFFF" font-family="Segoe UI,Segoe UI_MSFontService,sans-serif" font-weight="400" font-size="21" transform="translate(52.998 695)">TechTalk: Development ALM</text><path d="M52.998 697.235 140.998 697.235 228.998 697.235 316.998 697.235 316.998 698.235 228.998 698.235 140.998 698.235 52.998 698.235Z" fill="#FFFFFF" fill-rule="evenodd"/><text fill="#FFFFFF" font-family="Arial,Arial_MSFontService,sans-serif" font-weight="400" font-size="21" transform="translate(433.998 695)">•</text><text fill="#FFFFFF" font-family="Segoe UI,Segoe UI_MSFontService,sans-serif" font-weight="400" font-size="21" transform="translate(451.998 695)">Setting up Development Branches</text><path d="M451.998 697.235 531.748 697.235 611.498 697.235 691.248 697.235 770.998 697.235 770.998 698.235 691.248 698.235 611.498 698.235 531.748 698.235 451.998 698.235Z" fill="#FFFFFF" fill-rule="evenodd"/><text fill="#FFFFFF" font-family="Arial,Arial_MSFontService,sans-serif" font-weight="400" font-size="21" transform="translate(845.998 695)">•</text><text fill="#FFFFFF" font-family="Segoe UI,Segoe UI_MSFontService,sans-serif" font-weight="400" font-size="21" transform="translate(863.998 695)">Branching, Builds, and Environments</text><path d="M863.998 697.235 948.998 697.235 1034 697.235 1119 697.235 1204 697.235 1204 698.235 1119 698.235 1034 698.235 948.998 698.235 863.998 698.235Z" fill="#FFFFFF" fill-rule="evenodd"/><text fill="#1392B4" font-family="Segoe UI,Segoe UI_MSFontService,sans-serif" font-weight="400" font-size="21" transform="translate(1151.57 159)">* optional</text><text fill="#FFFFFF" font-family="Arial,Arial_MSFontService,sans-serif" font-weight="400" font-size="21" transform="translate(434.6 650)">•</text><text fill="#FFFFFF" font-family="Segoe UI,Segoe UI_MSFontService,sans-serif" font-weight="400" font-size="21" transform="translate(464.6 650)">Build automation that uses Microsoft</text><text fill="#FFFFFF" font-family="Segoe UI,Segoe UI_MSFontService,sans-serif" font-weight="400" font-size="21" transform="translate(810.82 650)">-</text><text fill="#FFFFFF" font-family="Segoe UI,Segoe UI_MSFontService,sans-serif" font-weight="400" font-size="21" transform="translate(819.32 650)">hosted agents and Azure Pipelines</text><path d="M464.6 651.609 690.267 651.609 915.933 651.609 1141.6 651.609 1141.6 652.609 915.933 652.609 690.267 652.609 464.6 652.609Z" fill="#FFFFFF" fill-rule="evenodd"/></g></svg>