<svg width="1280" height="720" xmlns="http://www.w3.org/2000/svg" xmlns:xlink="http://www.w3.org/1999/xlink" overflow="hidden"><g><rect x="0" y="0" width="1280" height="720" fill="#FFFFFF"/><text font-family="Segoe UI Semibold,Segoe UI Semibold_MSFontService,sans-serif" font-weight="600" font-size="48" transform="translate(61.7599 95)">Integration</text><text font-family="Segoe UI Semibold,Segoe UI Semibold_MSFontService,sans-serif" font-weight="600" font-size="48" transform="translate(309.813 95)">-</text><text font-family="Segoe UI Semibold,Segoe UI Semibold_MSFontService,sans-serif" font-weight="600" font-size="48" transform="translate(340.98 95)">fundamental principles</text><path d="M47.5001 352.167 47.5027 352.167C48.2391 352.167 48.8361 352.764 48.8361 353.5 48.8361 354.236 48.2391 354.833 47.5027 354.833L47.5001 354.833C46.7637 354.833 46.1667 354.236 46.1667 353.5 46.1667 352.764 46.7637 352.167 47.5001 352.167ZM52.8361 352.167 52.8387 352.167C53.5751 352.167 54.1721 352.764 54.1721 353.5 54.1721 354.236 53.5751 354.833 52.8387 354.833L52.8361 354.833C52.0997 354.833 51.5027 354.236 51.5027 353.5 51.5027 352.764 52.0997 352.167 52.8361 352.167ZM58.1721 352.167 58.1747 352.167C58.9111 352.167 59.5081 352.764 59.5081 353.5 59.5081 354.236 58.9111 354.833 58.1747 354.833L58.1721 354.833C57.4357 354.833 56.8387 354.236 56.8387 353.5 56.8387 352.764 57.4357 352.167 58.1721 352.167ZM63.508 352.167 63.5107 352.167C64.2471 352.167 64.8441 352.764 64.8441 353.5 64.8441 354.236 64.2471 354.833 63.5107 354.833L63.508 354.833C62.7717 354.833 62.1747 354.236 62.1747 353.5 62.1747 352.764 62.7717 352.167 63.508 352.167ZM68.8441 352.167 68.8467 352.167C69.5831 352.167 70.1801 352.764 70.1801 353.5 70.1801 354.236 69.5831 354.833 68.8467 354.833L68.8441 354.833C68.1077 354.833 67.5107 354.236 67.5107 353.5 67.5107 352.764 68.1077 352.167 68.8441 352.167ZM74.1801 352.167 74.1827 352.167C74.9191 352.167 75.5161 352.764 75.5161 353.5 75.5161 354.236 74.9191 354.833 74.1827 354.833L74.1801 354.833C73.4437 354.833 72.8467 354.236 72.8467 353.5 72.8467 352.764 73.4437 352.167 74.1801 352.167ZM79.5161 352.167 79.5187 352.167C80.2551 352.167 80.8521 352.764 80.8521 353.5 80.8521 354.236 80.2551 354.833 79.5187 354.833L79.5161 354.833C78.7797 354.833 78.1827 354.236 78.1827 353.5 78.1827 352.764 78.7797 352.167 79.5161 352.167ZM84.8521 352.167 84.8547 352.167C85.5911 352.167 86.188 352.764 86.188 353.5 86.188 354.236 85.5911 354.833 84.8547 354.833L84.8521 354.833C84.1157 354.833 83.5187 354.236 83.5187 353.5 83.5187 352.764 84.1157 352.167 84.8521 352.167ZM90.188 352.167 90.1907 352.167C90.9271 352.167 91.5241 352.764 91.5241 353.5 91.5241 354.236 90.9271 354.833 90.1907 354.833L90.188 354.833C89.4517 354.833 88.8547 354.236 88.8547 353.5 88.8547 352.764 89.4517 352.167 90.188 352.167ZM95.524 352.167 95.5267 352.167C96.2631 352.167 96.86 352.764 96.86 353.5 96.86 354.236 96.2631 354.833 95.5267 354.833L95.524 354.833C94.7877 354.833 94.1907 354.236 94.1907 353.5 94.1907 352.764 94.7877 352.167 95.524 352.167ZM100.86 352.167 100.863 352.167C101.599 352.167 102.196 352.764 102.196 353.5 102.196 354.236 101.599 354.833 100.863 354.833L100.86 354.833C100.124 354.833 99.5267 354.236 99.5267 353.5 99.5267 352.764 100.124 352.167 100.86 352.167ZM106.196 352.167 106.199 352.167C106.935 352.167 107.532 352.764 107.532 353.5 107.532 354.236 106.935 354.833 106.199 354.833L106.196 354.833C105.46 354.833 104.863 354.236 104.863 353.5 104.863 352.764 105.46 352.167 106.196 352.167ZM111.532 352.167 111.535 352.167C112.271 352.167 112.868 352.764 112.868 353.5 112.868 354.236 112.271 354.833 111.535 354.833L111.532 354.833C110.796 354.833 110.199 354.236 110.199 353.5 110.199 352.764 110.796 352.167 111.532 352.167ZM116.868 352.167 116.871 352.167C117.607 352.167 118.204 352.764 118.204 353.5 118.204 354.236 117.607 354.833 116.871 354.833L116.868 354.833C116.132 354.833 115.535 354.236 115.535 353.5 115.535 352.764 116.132 352.167 116.868 352.167ZM122.204 352.167 122.207 352.167C122.943 352.167 123.54 352.764 123.54 353.5 123.54 354.236 122.943 354.833 122.207 354.833L122.204 354.833C121.468 354.833 120.871 354.236 120.871 353.5 120.871 352.764 121.468 352.167 122.204 352.167ZM127.54 352.167 127.543 352.167C128.279 352.167 128.876 352.764 128.876 353.5 128.876 354.236 128.279 354.833 127.543 354.833L127.54 354.833C126.804 354.833 126.207 354.236 126.207 353.5 126.207 352.764 126.804 352.167 127.54 352.167ZM132.876 352.167 132.879 352.167C133.615 352.167 134.212 352.764 134.212 353.5 134.212 354.236 133.615 354.833 132.879 354.833L132.876 354.833C132.14 354.833 131.543 354.236 131.543 353.5 131.543 352.764 132.14 352.167 132.876 352.167ZM138.212 352.167 138.215 352.167C138.951 352.167 139.548 352.764 139.548 353.5 139.548 354.236 138.951 354.833 138.215 354.833L138.212 354.833C137.476 354.833 136.879 354.236 136.879 353.5 136.879 352.764 137.476 352.167 138.212 352.167ZM143.548 352.167 143.551 352.167C144.287 352.167 144.884 352.764 144.884 353.5 144.884 354.236 144.287 354.833 143.551 354.833L143.548 354.833C142.812 354.833 142.215 354.236 142.215 353.5 142.215 352.764 142.812 352.167 143.548 352.167ZM148.884 352.167 148.887 352.167C149.623 352.167 150.22 352.764 150.22 353.5 150.22 354.236 149.623 354.833 148.887 354.833L148.884 354.833C148.148 354.833 147.551 354.236 147.551 353.5 147.551 352.764 148.148 352.167 148.884 352.167ZM154.22 352.167 154.223 352.167C154.959 352.167 155.556 352.764 155.556 353.5 155.556 354.236 154.959 354.833 154.223 354.833L154.22 354.833C153.484 354.833 152.887 354.236 152.887 353.5 152.887 352.764 153.484 352.167 154.22 352.167ZM159.556 352.167 159.559 352.167C160.295 352.167 160.892 352.764 160.892 353.5 160.892 354.236 160.295 354.833 159.559 354.833L159.556 354.833C158.82 354.833 158.223 354.236 158.223 353.5 158.223 352.764 158.82 352.167 159.556 352.167ZM164.892 352.167 164.895 352.167C165.631 352.167 166.228 352.764 166.228 353.5 166.228 354.236 165.631 354.833 164.895 354.833L164.892 354.833C164.156 354.833 163.559 354.236 163.559 353.5 163.559 352.764 164.156 352.167 164.892 352.167ZM170.228 352.167 170.231 352.167C170.967 352.167 171.564 352.764 171.564 353.5 171.564 354.236 170.967 354.833 170.231 354.833L170.228 354.833C169.492 354.833 168.895 354.236 168.895 353.5 168.895 352.764 169.492 352.167 170.228 352.167ZM175.564 352.167 175.567 352.167C176.303 352.167 176.9 352.764 176.9 353.5 176.9 354.236 176.303 354.833 175.567 354.833L175.564 354.833C174.828 354.833 174.231 354.236 174.231 353.5 174.231 352.764 174.828 352.167 175.564 352.167ZM180.9 352.167 180.903 352.167C181.639 352.167 182.236 352.764 182.236 353.5 182.236 354.236 181.639 354.833 180.903 354.833L180.9 354.833C180.164 354.833 179.567 354.236 179.567 353.5 179.567 352.764 180.164 352.167 180.9 352.167ZM186.236 352.167 186.239 352.167C186.975 352.167 187.572 352.764 187.572 353.5 187.572 354.236 186.975 354.833 186.239 354.833L186.236 354.833C185.5 354.833 184.903 354.236 184.903 353.5 184.903 352.764 185.5 352.167 186.236 352.167ZM191.572 352.167 191.575 352.167C192.311 352.167 192.908 352.764 192.908 353.5 192.908 354.236 192.311 354.833 191.575 354.833L191.572 354.833C190.836 354.833 190.239 354.236 190.239 353.5 190.239 352.764 190.836 352.167 191.572 352.167ZM196.908 352.167 196.911 352.167C197.647 352.167 198.244 352.764 198.244 353.5 198.244 354.236 197.647 354.833 196.911 354.833L196.908 354.833C196.172 354.833 195.575 354.236 195.575 353.5 195.575 352.764 196.172 352.167 196.908 352.167ZM202.244 352.167 202.247 352.167C202.983 352.167 203.58 352.764 203.58 353.5 203.58 354.236 202.983 354.833 202.247 354.833L202.244 354.833C201.508 354.833 200.911 354.236 200.911 353.5 200.911 352.764 201.508 352.167 202.244 352.167ZM207.58 352.167 207.583 352.167C208.319 352.167 208.916 352.764 208.916 353.5 208.916 354.236 208.319 354.833 207.583 354.833L207.58 354.833C206.844 354.833 206.247 354.236 206.247 353.5 206.247 352.764 206.844 352.167 207.58 352.167ZM212.916 352.167 212.919 352.167C213.655 352.167 214.252 352.764 214.252 353.5 214.252 354.236 213.655 354.833 212.919 354.833L212.916 354.833C212.18 354.833 211.583 354.236 211.583 353.5 211.583 352.764 212.18 352.167 212.916 352.167ZM218.252 352.167 218.255 352.167C218.991 352.167 219.588 352.764 219.588 353.5 219.588 354.236 218.991 354.833 218.255 354.833L218.252 354.833C217.516 354.833 216.919 354.236 216.919 353.5 216.919 352.764 217.516 352.167 218.252 352.167ZM223.588 352.167 223.591 352.167C224.327 352.167 224.924 352.764 224.924 353.5 224.924 354.236 224.327 354.833 223.591 354.833L223.588 354.833C222.852 354.833 222.255 354.236 222.255 353.5 222.255 352.764 222.852 352.167 223.588 352.167ZM228.924 352.167 228.927 352.167C229.663 352.167 230.26 352.764 230.26 353.5 230.26 354.236 229.663 354.833 228.927 354.833L228.924 354.833C228.188 354.833 227.591 354.236 227.591 353.5 227.591 352.764 228.188 352.167 228.924 352.167ZM234.26 352.167 234.263 352.167C234.999 352.167 235.596 352.764 235.596 353.5 235.596 354.236 234.999 354.833 234.263 354.833L234.26 354.833C233.523 354.833 232.927 354.236 232.927 353.5 232.927 352.764 233.523 352.167 234.26 352.167ZM239.596 352.167 239.599 352.167C240.335 352.167 240.932 352.764 240.932 353.5 240.932 354.236 240.335 354.833 239.599 354.833L239.596 354.833C238.859 354.833 238.263 354.236 238.263 353.5 238.263 352.764 238.859 352.167 239.596 352.167ZM244.932 352.167 244.935 352.167C245.671 352.167 246.268 352.764 246.268 353.5 246.268 354.236 245.671 354.833 244.935 354.833L244.932 354.833C244.195 354.833 243.599 354.236 243.599 353.5 243.599 352.764 244.195 352.167 244.932 352.167ZM250.268 352.167 250.271 352.167C251.007 352.167 251.604 352.764 251.604 353.5 251.604 354.236 251.007 354.833 250.271 354.833L250.268 354.833C249.531 354.833 248.935 354.236 248.935 353.5 248.935 352.764 249.531 352.167 250.268 352.167ZM255.604 352.167 255.606 352.167C256.343 352.167 256.94 352.764 256.94 353.5 256.94 354.236 256.343 354.833 255.606 354.833L255.604 354.833C254.867 354.833 254.271 354.236 254.271 353.5 254.271 352.764 254.867 352.167 255.604 352.167ZM260.94 352.167 260.942 352.167C261.679 352.167 262.276 352.764 262.276 353.5 262.276 354.236 261.679 354.833 260.942 354.833L260.94 354.833C260.203 354.833 259.606 354.236 259.606 353.5 259.606 352.764 260.203 352.167 260.94 352.167ZM266.276 352.167 266.278 352.167C267.015 352.167 267.612 352.764 267.612 353.5 267.612 354.236 267.015 354.833 266.278 354.833L266.276 354.833C265.539 354.833 264.942 354.236 264.942 353.5 264.942 352.764 265.539 352.167 266.276 352.167ZM271.612 352.167 271.614 352.167C272.351 352.167 272.948 352.764 272.948 353.5 272.948 354.236 272.351 354.833 271.614 354.833L271.612 354.833C270.875 354.833 270.278 354.236 270.278 353.5 270.278 352.764 270.875 352.167 271.612 352.167ZM276.948 352.167 276.95 352.167C277.687 352.167 278.284 352.764 278.284 353.5 278.284 354.236 277.687 354.833 276.95 354.833L276.948 354.833C276.211 354.833 275.614 354.236 275.614 353.5 275.614 352.764 276.211 352.167 276.948 352.167ZM282.284 352.167 282.286 352.167C283.023 352.167 283.62 352.764 283.62 353.5 283.62 354.236 283.023 354.833 282.286 354.833L282.284 354.833C281.547 354.833 280.95 354.236 280.95 353.5 280.95 352.764 281.547 352.167 282.284 352.167ZM287.62 352.167 287.622 352.167C288.359 352.167 288.956 352.764 288.956 353.5 288.956 354.236 288.359 354.833 287.622 354.833L287.62 354.833C286.883 354.833 286.286 354.236 286.286 353.5 286.286 352.764 286.883 352.167 287.62 352.167ZM292.956 352.167 292.958 352.167C293.695 352.167 294.292 352.764 294.292 353.5 294.292 354.236 293.695 354.833 292.958 354.833L292.956 354.833C292.219 354.833 291.622 354.236 291.622 353.5 291.622 352.764 292.219 352.167 292.956 352.167ZM298.292 352.167 298.294 352.167C299.031 352.167 299.628 352.764 299.628 353.5 299.628 354.236 299.031 354.833 298.294 354.833L298.292 354.833C297.555 354.833 296.958 354.236 296.958 353.5 296.958 352.764 297.555 352.167 298.292 352.167ZM303.628 352.167 303.631 352.167C304.367 352.167 304.964 352.764 304.964 353.5 304.964 354.236 304.367 354.833 303.631 354.833L303.628 354.833C302.891 354.833 302.294 354.236 302.294 353.5 302.294 352.764 302.891 352.167 303.628 352.167ZM308.964 352.167 308.967 352.167C309.703 352.167 310.3 352.764 310.3 353.5 310.3 354.236 309.703 354.833 308.967 354.833L308.964 354.833C308.227 354.833 307.631 354.236 307.631 353.5 307.631 352.764 308.227 352.167 308.964 352.167ZM314.3 352.167 314.303 352.167C315.039 352.167 315.636 352.764 315.636 353.5 315.636 354.236 315.039 354.833 314.303 354.833L314.3 354.833C313.563 354.833 312.967 354.236 312.967 353.5 312.967 352.764 313.563 352.167 314.3 352.167ZM319.636 352.167 319.639 352.167C320.375 352.167 320.972 352.764 320.972 353.5 320.972 354.236 320.375 354.833 319.639 354.833L319.636 354.833C318.9 354.833 318.303 354.236 318.303 353.5 318.303 352.764 318.9 352.167 319.636 352.167ZM324.972 352.167 324.975 352.167C325.711 352.167 326.308 352.764 326.308 353.5 326.308 354.236 325.711 354.833 324.975 354.833L324.972 354.833C324.236 354.833 323.639 354.236 323.639 353.5 323.639 352.764 324.236 352.167 324.972 352.167ZM330.308 352.167 330.311 352.167C331.047 352.167 331.644 352.764 331.644 353.5 331.644 354.236 331.047 354.833 330.311 354.833L330.308 354.833C329.572 354.833 328.975 354.236 328.975 353.5 328.975 352.764 329.572 352.167 330.308 352.167ZM335.644 352.167 335.647 352.167C336.383 352.167 336.98 352.764 336.98 353.5 336.98 354.236 336.383 354.833 335.647 354.833L335.644 354.833C334.908 354.833 334.311 354.236 334.311 353.5 334.311 352.764 334.908 352.167 335.644 352.167ZM340.98 352.167 340.983 352.167C341.719 352.167 342.316 352.764 342.316 353.5 342.316 354.236 341.719 354.833 340.983 354.833L340.98 354.833C340.244 354.833 339.647 354.236 339.647 353.5 339.647 352.764 340.244 352.167 340.98 352.167ZM346.316 352.167 346.319 352.167C347.055 352.167 347.652 352.764 347.652 353.5 347.652 354.236 347.055 354.833 346.319 354.833L346.316 354.833C345.58 354.833 344.983 354.236 344.983 353.5 344.983 352.764 345.58 352.167 346.316 352.167ZM351.652 352.167 351.655 352.167C352.391 352.167 352.988 352.764 352.988 353.5 352.988 354.236 352.391 354.833 351.655 354.833L351.652 354.833C350.916 354.833 350.319 354.236 350.319 353.5 350.319 352.764 350.916 352.167 351.652 352.167ZM356.988 352.167 356.991 352.167C357.727 352.167 358.324 352.764 358.324 353.5 358.324 354.236 357.727 354.833 356.991 354.833L356.988 354.833C356.252 354.833 355.655 354.236 355.655 353.5 355.655 352.764 356.252 352.167 356.988 352.167ZM362.324 352.167 362.327 352.167C363.063 352.167 363.66 352.764 363.66 353.5 363.66 354.236 363.063 354.833 362.327 354.833L362.324 354.833C361.587 354.833 360.991 354.236 360.991 353.5 360.991 352.764 361.587 352.167 362.324 352.167ZM367.66 352.167 367.663 352.167C368.399 352.167 368.996 352.764 368.996 353.5 368.996 354.236 368.399 354.833 367.663 354.833L367.66 354.833C366.923 354.833 366.327 354.236 366.327 353.5 366.327 352.764 366.923 352.167 367.66 352.167ZM372.996 352.167 372.999 352.167C373.735 352.167 374.332 352.764 374.332 353.5 374.332 354.236 373.735 354.833 372.999 354.833L372.996 354.833C372.259 354.833 371.663 354.236 371.663 353.5 371.663 352.764 372.259 352.167 372.996 352.167ZM378.332 352.167 378.335 352.167C379.071 352.167 379.668 352.764 379.668 353.5 379.668 354.236 379.071 354.833 378.335 354.833L378.332 354.833C377.595 354.833 376.999 354.236 376.999 353.5 376.999 352.764 377.595 352.167 378.332 352.167ZM383.668 352.167 383.671 352.167C384.407 352.167 385.004 352.764 385.004 353.5 385.004 354.236 384.407 354.833 383.671 354.833L383.668 354.833C382.931 354.833 382.334 354.236 382.334 353.5 382.334 352.764 382.931 352.167 383.668 352.167ZM389.004 352.167 389.006 352.167C389.743 352.167 390.34 352.764 390.34 353.5 390.34 354.236 389.743 354.833 389.006 354.833L389.004 354.833C388.267 354.833 387.67 354.236 387.67 353.5 387.67 352.764 388.267 352.167 389.004 352.167ZM394.34 352.167 394.342 352.167C395.079 352.167 395.676 352.764 395.676 353.5 395.676 354.236 395.079 354.833 394.342 354.833L394.34 354.833C393.603 354.833 393.006 354.236 393.006 353.5 393.006 352.764 393.603 352.167 394.34 352.167ZM399.676 352.167 399.678 352.167C400.415 352.167 401.012 352.764 401.012 353.5 401.012 354.236 400.415 354.833 399.678 354.833L399.676 354.833C398.939 354.833 398.342 354.236 398.342 353.5 398.342 352.764 398.939 352.167 399.676 352.167ZM405.012 352.167 405.014 352.167C405.751 352.167 406.348 352.764 406.348 353.5 406.348 354.236 405.751 354.833 405.014 354.833L405.012 354.833C404.275 354.833 403.678 354.236 403.678 353.5 403.678 352.764 404.275 352.167 405.012 352.167ZM410.348 352.167 410.35 352.167C411.087 352.167 411.684 352.764 411.684 353.5 411.684 354.236 411.087 354.833 410.35 354.833L410.348 354.833C409.611 354.833 409.014 354.236 409.014 353.5 409.014 352.764 409.611 352.167 410.348 352.167ZM415.684 352.167 415.686 352.167C416.423 352.167 417.02 352.764 417.02 353.5 417.02 354.236 416.423 354.833 415.686 354.833L415.684 354.833C414.947 354.833 414.35 354.236 414.35 353.5 414.35 352.764 414.947 352.167 415.684 352.167ZM421.02 352.167 421.022 352.167C421.759 352.167 422.356 352.764 422.356 353.5 422.356 354.236 421.759 354.833 421.022 354.833L421.02 354.833C420.283 354.833 419.686 354.236 419.686 353.5 419.686 352.764 420.283 352.167 421.02 352.167ZM426.356 352.167 426.358 352.167C427.095 352.167 427.692 352.764 427.692 353.5 427.692 354.236 427.095 354.833 426.358 354.833L426.356 354.833C425.619 354.833 425.022 354.236 425.022 353.5 425.022 352.764 425.619 352.167 426.356 352.167ZM431.692 352.167 431.694 352.167C432.431 352.167 433.028 352.764 433.028 353.5 433.028 354.236 432.431 354.833 431.694 354.833L431.692 354.833C430.955 354.833 430.358 354.236 430.358 353.5 430.358 352.764 430.955 352.167 431.692 352.167ZM437.028 352.167 437.03 352.167C437.767 352.167 438.364 352.764 438.364 353.5 438.364 354.236 437.767 354.833 437.03 354.833L437.028 354.833C436.291 354.833 435.694 354.236 435.694 353.5 435.694 352.764 436.291 352.167 437.028 352.167ZM442.364 352.167 442.366 352.167C443.103 352.167 443.7 352.764 443.7 353.5 443.7 354.236 443.103 354.833 442.366 354.833L442.364 354.833C441.627 354.833 441.03 354.236 441.03 353.5 441.03 352.764 441.627 352.167 442.364 352.167ZM447.7 352.167 447.702 352.167C448.439 352.167 449.036 352.764 449.036 353.5 449.036 354.236 448.439 354.833 447.702 354.833L447.7 354.833C446.963 354.833 446.366 354.236 446.366 353.5 446.366 352.764 446.963 352.167 447.7 352.167ZM453.036 352.167 453.038 352.167C453.775 352.167 454.372 352.764 454.372 353.5 454.372 354.236 453.775 354.833 453.038 354.833L453.036 354.833C452.299 354.833 451.702 354.236 451.702 353.5 451.702 352.764 452.299 352.167 453.036 352.167ZM458.372 352.167 458.374 352.167C459.111 352.167 459.708 352.764 459.708 353.5 459.708 354.236 459.111 354.833 458.374 354.833L458.372 354.833C457.635 354.833 457.038 354.236 457.038 353.5 457.038 352.764 457.635 352.167 458.372 352.167ZM463.708 352.167 463.71 352.167C464.447 352.167 465.044 352.764 465.044 353.5 465.044 354.236 464.447 354.833 463.71 354.833L463.708 354.833C462.971 354.833 462.374 354.236 462.374 353.5 462.374 352.764 462.971 352.167 463.708 352.167ZM469.044 352.167 469.046 352.167C469.783 352.167 470.38 352.764 470.38 353.5 470.38 354.236 469.783 354.833 469.046 354.833L469.044 354.833C468.307 354.833 467.71 354.236 467.71 353.5 467.71 352.764 468.307 352.167 469.044 352.167ZM474.38 352.167 474.382 352.167C475.119 352.167 475.716 352.764 475.716 353.5 475.716 354.236 475.119 354.833 474.382 354.833L474.38 354.833C473.643 354.833 473.046 354.236 473.046 353.5 473.046 352.764 473.643 352.167 474.38 352.167ZM479.716 352.167 479.718 352.167C480.455 352.167 481.052 352.764 481.052 353.5 481.052 354.236 480.455 354.833 479.718 354.833L479.716 354.833C478.979 354.833 478.382 354.236 478.382 353.5 478.382 352.764 478.979 352.167 479.716 352.167ZM485.052 352.167 485.054 352.167C485.791 352.167 486.388 352.764 486.388 353.5 486.388 354.236 485.791 354.833 485.054 354.833L485.052 354.833C484.315 354.833 483.718 354.236 483.718 353.5 483.718 352.764 484.315 352.167 485.052 352.167ZM490.388 352.167 490.39 352.167C491.127 352.167 491.724 352.764 491.724 353.5 491.724 354.236 491.127 354.833 490.39 354.833L490.388 354.833C489.651 354.833 489.054 354.236 489.054 353.5 489.054 352.764 489.651 352.167 490.388 352.167ZM495.724 352.167 495.726 352.167C496.463 352.167 497.06 352.764 497.06 353.5 497.06 354.236 496.463 354.833 495.726 354.833L495.724 354.833C494.987 354.833 494.39 354.236 494.39 353.5 494.39 352.764 494.987 352.167 495.724 352.167ZM501.06 352.167 501.062 352.167C501.799 352.167 502.396 352.764 502.396 353.5 502.396 354.236 501.799 354.833 501.062 354.833L501.06 354.833C500.323 354.833 499.726 354.236 499.726 353.5 499.726 352.764 500.323 352.167 501.06 352.167ZM506.396 352.167 506.398 352.167C507.135 352.167 507.732 352.764 507.732 353.5 507.732 354.236 507.135 354.833 506.398 354.833L506.396 354.833C505.659 354.833 505.062 354.236 505.062 353.5 505.062 352.764 505.659 352.167 506.396 352.167ZM511.732 352.167 511.734 352.167C512.471 352.167 513.068 352.764 513.068 353.5 513.068 354.236 512.471 354.833 511.734 354.833L511.732 354.833C510.995 354.833 510.398 354.236 510.398 353.5 510.398 352.764 510.995 352.167 511.732 352.167ZM517.068 352.167 517.07 352.167C517.807 352.167 518.404 352.764 518.404 353.5 518.404 354.236 517.807 354.833 517.07 354.833L517.068 354.833C516.331 354.833 515.734 354.236 515.734 353.5 515.734 352.764 516.331 352.167 517.068 352.167ZM522.404 352.167 522.406 352.167C523.143 352.167 523.74 352.764 523.74 353.5 523.74 354.236 523.143 354.833 522.406 354.833L522.404 354.833C521.667 354.833 521.07 354.236 521.07 353.5 521.07 352.764 521.667 352.167 522.404 352.167ZM527.74 352.167 527.742 352.167C528.479 352.167 529.076 352.764 529.076 353.5 529.076 354.236 528.479 354.833 527.742 354.833L527.74 354.833C527.003 354.833 526.406 354.236 526.406 353.5 526.406 352.764 527.003 352.167 527.74 352.167ZM533.076 352.167 533.078 352.167C533.815 352.167 534.412 352.764 534.412 353.5 534.412 354.236 533.815 354.833 533.078 354.833L533.076 354.833C532.339 354.833 531.742 354.236 531.742 353.5 531.742 352.764 532.339 352.167 533.076 352.167ZM538.412 352.167 538.414 352.167C539.151 352.167 539.748 352.764 539.748 353.5 539.748 354.236 539.151 354.833 538.414 354.833L538.412 354.833C537.675 354.833 537.078 354.236 537.078 353.5 537.078 352.764 537.675 352.167 538.412 352.167ZM543.748 352.167 543.751 352.167C544.487 352.167 545.084 352.764 545.084 353.5 545.084 354.236 544.487 354.833 543.751 354.833L543.748 354.833C543.011 354.833 542.414 354.236 542.414 353.5 542.414 352.764 543.011 352.167 543.748 352.167ZM549.084 352.167 549.087 352.167C549.823 352.167 550.42 352.764 550.42 353.5 550.42 354.236 549.823 354.833 549.087 354.833L549.084 354.833C548.347 354.833 547.751 354.236 547.751 353.5 547.751 352.764 548.347 352.167 549.084 352.167ZM554.42 352.167 554.423 352.167C555.159 352.167 555.756 352.764 555.756 353.5 555.756 354.236 555.159 354.833 554.423 354.833L554.42 354.833C553.683 354.833 553.087 354.236 553.087 353.5 553.087 352.764 553.683 352.167 554.42 352.167ZM559.756 352.167 559.759 352.167C560.495 352.167 561.092 352.764 561.092 353.5 561.092 354.236 560.495 354.833 559.759 354.833L559.756 354.833C559.02 354.833 558.423 354.236 558.423 353.5 558.423 352.764 559.02 352.167 559.756 352.167ZM565.092 352.167 565.095 352.167C565.831 352.167 566.428 352.764 566.428 353.5 566.428 354.236 565.831 354.833 565.095 354.833L565.092 354.833C564.356 354.833 563.759 354.236 563.759 353.5 563.759 352.764 564.356 352.167 565.092 352.167ZM570.428 352.167 570.431 352.167C571.167 352.167 571.764 352.764 571.764 353.5 571.764 354.236 571.167 354.833 570.431 354.833L570.428 354.833C569.692 354.833 569.095 354.236 569.095 353.5 569.095 352.764 569.692 352.167 570.428 352.167ZM575.764 352.167 575.767 352.167C576.503 352.167 577.1 352.764 577.1 353.5 577.1 354.236 576.503 354.833 575.767 354.833L575.764 354.833C575.028 354.833 574.431 354.236 574.431 353.5 574.431 352.764 575.028 352.167 575.764 352.167ZM581.1 352.167 581.103 352.167C581.839 352.167 582.436 352.764 582.436 353.5 582.436 354.236 581.839 354.833 581.103 354.833L581.1 354.833C580.364 354.833 579.767 354.236 579.767 353.5 579.767 352.764 580.364 352.167 581.1 352.167ZM586.436 352.167 586.439 352.167C587.175 352.167 587.772 352.764 587.772 353.5 587.772 354.236 587.175 354.833 586.439 354.833L586.436 354.833C585.7 354.833 585.103 354.236 585.103 353.5 585.103 352.764 585.7 352.167 586.436 352.167ZM591.772 352.167 591.775 352.167C592.511 352.167 593.108 352.764 593.108 353.5 593.108 354.236 592.511 354.833 591.775 354.833L591.772 354.833C591.036 354.833 590.439 354.236 590.439 353.5 590.439 352.764 591.036 352.167 591.772 352.167ZM597.108 352.167 597.111 352.167C597.847 352.167 598.444 352.764 598.444 353.5 598.444 354.236 597.847 354.833 597.111 354.833L597.108 354.833C596.372 354.833 595.775 354.236 595.775 353.5 595.775 352.764 596.372 352.167 597.108 352.167ZM602.444 352.167 602.447 352.167C603.183 352.167 603.78 352.764 603.78 353.5 603.78 354.236 603.183 354.833 602.447 354.833L602.444 354.833C601.708 354.833 601.111 354.236 601.111 353.5 601.111 352.764 601.708 352.167 602.444 352.167ZM607.78 352.167 607.783 352.167C608.519 352.167 609.116 352.764 609.116 353.5 609.116 354.236 608.519 354.833 607.783 354.833L607.78 354.833C607.044 354.833 606.447 354.236 606.447 353.5 606.447 352.764 607.044 352.167 607.78 352.167ZM613.116 352.167 613.119 352.167C613.855 352.167 614.452 352.764 614.452 353.5 614.452 354.236 613.855 354.833 613.119 354.833L613.116 354.833C612.38 354.833 611.783 354.236 611.783 353.5 611.783 352.764 612.38 352.167 613.116 352.167ZM618.452 352.167 618.455 352.167C619.191 352.167 619.788 352.764 619.788 353.5 619.788 354.236 619.191 354.833 618.455 354.833L618.452 354.833C617.716 354.833 617.119 354.236 617.119 353.5 617.119 352.764 617.716 352.167 618.452 352.167ZM623.788 352.167 623.791 352.167C624.527 352.167 625.124 352.764 625.124 353.5 625.124 354.236 624.527 354.833 623.791 354.833L623.788 354.833C623.052 354.833 622.455 354.236 622.455 353.5 622.455 352.764 623.052 352.167 623.788 352.167ZM629.124 352.167 629.127 352.167C629.863 352.167 630.46 352.764 630.46 353.5 630.46 354.236 629.863 354.833 629.127 354.833L629.124 354.833C628.388 354.833 627.791 354.236 627.791 353.5 627.791 352.764 628.388 352.167 629.124 352.167ZM634.46 352.167 634.463 352.167C635.199 352.167 635.796 352.764 635.796 353.5 635.796 354.236 635.199 354.833 634.463 354.833L634.46 354.833C633.724 354.833 633.127 354.236 633.127 353.5 633.127 352.764 633.724 352.167 634.46 352.167ZM639.796 352.167 639.799 352.167C640.535 352.167 641.132 352.764 641.132 353.5 641.132 354.236 640.535 354.833 639.799 354.833L639.796 354.833C639.06 354.833 638.463 354.236 638.463 353.5 638.463 352.764 639.06 352.167 639.796 352.167ZM645.132 352.167 645.135 352.167C645.871 352.167 646.468 352.764 646.468 353.5 646.468 354.236 645.871 354.833 645.135 354.833L645.132 354.833C644.396 354.833 643.799 354.236 643.799 353.5 643.799 352.764 644.396 352.167 645.132 352.167ZM650.468 352.167 650.471 352.167C651.207 352.167 651.804 352.764 651.804 353.5 651.804 354.236 651.207 354.833 650.471 354.833L650.468 354.833C649.732 354.833 649.135 354.236 649.135 353.5 649.135 352.764 649.732 352.167 650.468 352.167ZM655.804 352.167 655.807 352.167C656.543 352.167 657.14 352.764 657.14 353.5 657.14 354.236 656.543 354.833 655.807 354.833L655.804 354.833C655.068 354.833 654.471 354.236 654.471 353.5 654.471 352.764 655.068 352.167 655.804 352.167ZM661.14 352.167 661.143 352.167C661.879 352.167 662.476 352.764 662.476 353.5 662.476 354.236 661.879 354.833 661.143 354.833L661.14 354.833C660.404 354.833 659.807 354.236 659.807 353.5 659.807 352.764 660.404 352.167 661.14 352.167ZM666.476 352.167 666.479 352.167C667.215 352.167 667.812 352.764 667.812 353.5 667.812 354.236 667.215 354.833 666.479 354.833L666.476 354.833C665.74 354.833 665.143 354.236 665.143 353.5 665.143 352.764 665.74 352.167 666.476 352.167ZM671.812 352.167 671.815 352.167C672.551 352.167 673.148 352.764 673.148 353.5 673.148 354.237 672.551 354.833 671.815 354.833L671.812 354.833C671.076 354.833 670.479 354.236 670.479 353.5 670.479 352.764 671.076 352.167 671.812 352.167ZM677.148 352.167 677.151 352.167C677.887 352.167 678.484 352.764 678.484 353.5 678.484 354.237 677.887 354.833 677.151 354.833L677.148 354.833C676.412 354.833 675.815 354.237 675.815 353.5 675.815 352.764 676.412 352.167 677.148 352.167ZM682.484 352.167 682.487 352.167C683.223 352.167 683.82 352.764 683.82 353.5 683.82 354.237 683.223 354.833 682.487 354.833L682.484 354.833C681.748 354.833 681.151 354.237 681.151 353.5 681.151 352.764 681.748 352.167 682.484 352.167ZM687.82 352.167 687.823 352.167C688.559 352.167 689.156 352.764 689.156 353.5 689.156 354.237 688.559 354.833 687.823 354.833L687.82 354.833C687.084 354.833 686.487 354.237 686.487 353.5 686.487 352.764 687.084 352.167 687.82 352.167ZM693.156 352.167 693.159 352.167C693.895 352.167 694.492 352.764 694.492 353.5 694.492 354.237 693.895 354.833 693.159 354.833L693.156 354.833C692.42 354.833 691.823 354.237 691.823 353.5 691.823 352.764 692.42 352.167 693.156 352.167ZM698.492 352.167 698.495 352.167C699.231 352.167 699.828 352.764 699.828 353.5 699.828 354.237 699.231 354.833 698.495 354.833L698.492 354.833C697.756 354.833 697.159 354.237 697.159 353.5 697.159 352.764 697.756 352.167 698.492 352.167ZM703.828 352.167 703.831 352.167C704.567 352.167 705.164 352.764 705.164 353.5 705.164 354.237 704.567 354.833 703.831 354.833L703.828 354.833C703.092 354.833 702.495 354.237 702.495 353.5 702.495 352.764 703.092 352.167 703.828 352.167ZM709.164 352.167 709.167 352.167C709.903 352.167 710.5 352.764 710.5 353.5 710.5 354.237 709.903 354.833 709.167 354.833L709.164 354.833C708.428 354.833 707.831 354.237 707.831 353.5 707.831 352.764 708.428 352.167 709.164 352.167ZM714.5 352.167 714.503 352.167C715.239 352.167 715.836 352.764 715.836 353.5 715.836 354.237 715.239 354.833 714.503 354.833L714.5 354.833C713.764 354.833 713.167 354.237 713.167 353.5 713.167 352.764 713.764 352.167 714.5 352.167ZM719.836 352.167 719.839 352.167C720.575 352.167 721.172 352.764 721.172 353.5 721.172 354.237 720.575 354.833 719.839 354.833L719.836 354.833C719.1 354.833 718.503 354.237 718.503 353.5 718.503 352.764 719.1 352.167 719.836 352.167ZM725.172 352.167 725.175 352.167C725.911 352.167 726.508 352.764 726.508 353.5 726.508 354.237 725.911 354.833 725.175 354.833L725.172 354.833C724.436 354.833 723.839 354.237 723.839 353.5 723.839 352.764 724.436 352.167 725.172 352.167ZM730.508 352.167 730.511 352.167C731.247 352.167 731.844 352.764 731.844 353.5 731.844 354.237 731.247 354.833 730.511 354.833L730.508 354.833C729.772 354.833 729.175 354.237 729.175 353.5 729.175 352.764 729.772 352.167 730.508 352.167ZM735.844 352.167 735.847 352.167C736.583 352.167 737.18 352.764 737.18 353.5 737.18 354.237 736.583 354.833 735.847 354.833L735.844 354.833C735.108 354.833 734.511 354.237 734.511 353.5 734.511 352.764 735.108 352.167 735.844 352.167ZM741.18 352.167 741.183 352.167C741.919 352.167 742.516 352.764 742.516 353.5 742.516 354.237 741.919 354.833 741.183 354.833L741.18 354.833C740.444 354.833 739.847 354.237 739.847 353.5 739.847 352.764 740.444 352.167 741.18 352.167ZM746.516 352.167 746.519 352.167C747.255 352.167 747.852 352.764 747.852 353.5 747.852 354.237 747.255 354.833 746.519 354.833L746.516 354.833C745.78 354.833 745.183 354.237 745.183 353.5 745.183 352.764 745.78 352.167 746.516 352.167ZM751.852 352.167 751.855 352.167C752.591 352.167 753.188 352.764 753.188 353.5 753.188 354.237 752.591 354.833 751.855 354.833L751.852 354.833C751.116 354.833 750.519 354.237 750.519 353.5 750.519 352.764 751.116 352.167 751.852 352.167ZM757.188 352.167 757.191 352.167C757.927 352.167 758.524 352.764 758.524 353.5 758.524 354.237 757.927 354.833 757.191 354.833L757.188 354.833C756.452 354.833 755.855 354.237 755.855 353.5 755.855 352.764 756.452 352.167 757.188 352.167ZM762.524 352.167 762.527 352.167C763.263 352.167 763.86 352.764 763.86 353.5 763.86 354.237 763.263 354.833 762.527 354.833L762.524 354.833C761.788 354.833 761.191 354.237 761.191 353.5 761.191 352.764 761.788 352.167 762.524 352.167ZM767.86 352.167 767.863 352.167C768.599 352.167 769.196 352.764 769.196 353.5 769.196 354.237 768.599 354.833 767.863 354.833L767.86 354.833C767.124 354.833 766.527 354.237 766.527 353.5 766.527 352.764 767.124 352.167 767.86 352.167ZM773.196 352.167 773.199 352.167C773.935 352.167 774.532 352.764 774.532 353.5 774.532 354.237 773.935 354.833 773.199 354.833L773.196 354.833C772.46 354.833 771.863 354.237 771.863 353.5 771.863 352.764 772.46 352.167 773.196 352.167ZM778.532 352.167 778.535 352.167C779.271 352.167 779.868 352.764 779.868 353.5 779.868 354.237 779.271 354.833 778.535 354.833L778.532 354.833C777.796 354.833 777.199 354.237 777.199 353.5 777.199 352.764 777.796 352.167 778.532 352.167ZM783.868 352.167 783.871 352.167C784.607 352.167 785.204 352.764 785.204 353.5 785.204 354.237 784.607 354.833 783.871 354.833L783.868 354.833C783.132 354.833 782.535 354.237 782.535 353.5 782.535 352.764 783.132 352.167 783.868 352.167ZM789.204 352.167 789.207 352.167C789.943 352.167 790.54 352.764 790.54 353.5 790.54 354.237 789.943 354.833 789.207 354.833L789.204 354.833C788.468 354.833 787.871 354.237 787.871 353.5 787.871 352.764 788.468 352.167 789.204 352.167ZM794.54 352.167 794.543 352.167C795.279 352.167 795.876 352.764 795.876 353.5 795.876 354.237 795.279 354.833 794.543 354.833L794.54 354.833C793.804 354.833 793.207 354.237 793.207 353.5 793.207 352.764 793.804 352.167 794.54 352.167ZM799.876 352.167 799.879 352.167C800.615 352.167 801.212 352.764 801.212 353.5 801.212 354.237 800.615 354.833 799.879 354.833L799.876 354.833C799.14 354.833 798.543 354.237 798.543 353.5 798.543 352.764 799.14 352.167 799.876 352.167ZM805.212 352.167 805.215 352.167C805.951 352.167 806.548 352.764 806.548 353.5 806.548 354.237 805.951 354.833 805.215 354.833L805.212 354.833C804.476 354.833 803.879 354.237 803.879 353.5 803.879 352.764 804.476 352.167 805.212 352.167ZM810.548 352.167 810.551 352.167C811.287 352.167 811.884 352.764 811.884 353.5 811.884 354.237 811.287 354.833 810.551 354.833L810.548 354.833C809.812 354.833 809.215 354.237 809.215 353.5 809.215 352.764 809.812 352.167 810.548 352.167ZM815.884 352.167 815.887 352.167C816.623 352.167 817.22 352.764 817.22 353.5 817.22 354.237 816.623 354.833 815.887 354.833L815.884 354.833C815.148 354.833 814.551 354.237 814.551 353.5 814.551 352.764 815.148 352.167 815.884 352.167ZM821.22 352.167 821.223 352.167C821.959 352.167 822.556 352.764 822.556 353.5 822.556 354.237 821.959 354.833 821.223 354.833L821.22 354.833C820.484 354.833 819.887 354.237 819.887 353.5 819.887 352.764 820.484 352.167 821.22 352.167ZM826.556 352.167 826.559 352.167C827.295 352.167 827.892 352.764 827.892 353.5 827.892 354.237 827.295 354.833 826.559 354.833L826.556 354.833C825.82 354.833 825.223 354.237 825.223 353.5 825.223 352.764 825.82 352.167 826.556 352.167ZM831.892 352.167 831.895 352.167C832.631 352.167 833.228 352.764 833.228 353.5 833.228 354.237 832.631 354.833 831.895 354.833L831.892 354.833C831.156 354.833 830.559 354.237 830.559 353.5 830.559 352.764 831.156 352.167 831.892 352.167ZM837.228 352.167 837.231 352.167C837.967 352.167 838.564 352.764 838.564 353.5 838.564 354.237 837.967 354.833 837.231 354.833L837.228 354.833C836.492 354.833 835.895 354.237 835.895 353.5 835.895 352.764 836.492 352.167 837.228 352.167ZM842.564 352.167 842.567 352.167C843.304 352.167 843.9 352.764 843.9 353.5 843.9 354.237 843.304 354.833 842.567 354.833L842.564 354.833C841.828 354.833 841.231 354.237 841.231 353.5 841.231 352.764 841.828 352.167 842.564 352.167ZM847.9 352.167 847.903 352.167C848.64 352.167 849.236 352.764 849.236 353.5 849.236 354.237 848.64 354.833 847.903 354.833L847.9 354.833C847.164 354.833 846.567 354.237 846.567 353.5 846.567 352.764 847.164 352.167 847.9 352.167ZM853.236 352.167 853.239 352.167C853.975 352.167 854.572 352.764 854.572 353.5 854.572 354.237 853.975 354.833 853.239 354.833L853.236 354.833C852.5 354.833 851.903 354.237 851.903 353.5 851.903 352.764 852.5 352.167 853.236 352.167ZM858.572 352.167 858.575 352.167C859.311 352.167 859.908 352.764 859.908 353.5 859.908 354.237 859.311 354.833 858.575 354.833L858.572 354.833C857.836 354.833 857.239 354.237 857.239 353.5 857.239 352.764 857.836 352.167 858.572 352.167ZM863.908 352.167 863.911 352.167C864.647 352.167 865.244 352.764 865.244 353.5 865.244 354.237 864.647 354.833 863.911 354.833L863.908 354.833C863.172 354.833 862.575 354.237 862.575 353.5 862.575 352.764 863.172 352.167 863.908 352.167ZM869.244 352.167 869.247 352.167C869.983 352.167 870.58 352.764 870.58 353.5 870.58 354.237 869.983 354.833 869.247 354.833L869.244 354.833C868.508 354.833 867.911 354.237 867.911 353.5 867.911 352.764 868.508 352.167 869.244 352.167ZM874.58 352.167 874.583 352.167C875.319 352.167 875.916 352.764 875.916 353.5 875.916 354.237 875.319 354.833 874.583 354.833L874.58 354.833C873.844 354.833 873.247 354.237 873.247 353.5 873.247 352.764 873.844 352.167 874.58 352.167ZM879.916 352.167 879.919 352.167C880.655 352.167 881.252 352.764 881.252 353.5 881.252 354.237 880.655 354.833 879.919 354.833L879.916 354.833C879.18 354.833 878.583 354.237 878.583 353.5 878.583 352.764 879.18 352.167 879.916 352.167ZM885.252 352.167 885.255 352.167C885.991 352.167 886.588 352.764 886.588 353.5 886.588 354.237 885.991 354.833 885.255 354.833L885.252 354.833C884.516 354.833 883.919 354.237 883.919 353.5 883.919 352.764 884.516 352.167 885.252 352.167ZM890.588 352.167 890.591 352.167C891.327 352.167 891.924 352.764 891.924 353.5 891.924 354.237 891.327 354.833 890.591 354.833L890.588 354.833C889.852 354.833 889.255 354.237 889.255 353.5 889.255 352.764 889.852 352.167 890.588 352.167ZM895.924 352.167 895.927 352.167C896.663 352.167 897.26 352.764 897.26 353.5 897.26 354.237 896.663 354.833 895.927 354.833L895.924 354.833C895.188 354.833 894.591 354.237 894.591 353.5 894.591 352.764 895.188 352.167 895.924 352.167ZM901.26 352.167 901.263 352.167C901.999 352.167 902.596 352.764 902.596 353.5 902.596 354.237 901.999 354.833 901.263 354.833L901.26 354.833C900.524 354.833 899.927 354.237 899.927 353.5 899.927 352.764 900.524 352.167 901.26 352.167ZM906.596 352.167 906.599 352.167C907.335 352.167 907.932 352.764 907.932 353.5 907.932 354.237 907.335 354.833 906.599 354.833L906.596 354.833C905.86 354.833 905.263 354.237 905.263 353.5 905.263 352.764 905.86 352.167 906.596 352.167ZM911.932 352.167 911.935 352.167C912.671 352.167 913.268 352.764 913.268 353.5 913.268 354.237 912.671 354.833 911.935 354.833L911.932 354.833C911.196 354.833 910.599 354.237 910.599 353.5 910.599 352.764 911.196 352.167 911.932 352.167ZM917.268 352.167 917.271 352.167C918.007 352.167 918.604 352.764 918.604 353.5 918.604 354.237 918.007 354.833 917.271 354.833L917.268 354.833C916.532 354.833 915.935 354.237 915.935 353.5 915.935 352.764 916.532 352.167 917.268 352.167ZM922.604 352.167 922.607 352.167C923.343 352.167 923.94 352.764 923.94 353.5 923.94 354.237 923.343 354.833 922.607 354.833L922.604 354.833C921.868 354.833 921.271 354.237 921.271 353.5 921.271 352.764 921.868 352.167 922.604 352.167ZM927.94 352.167 927.943 352.167C928.679 352.167 929.276 352.764 929.276 353.5 929.276 354.237 928.679 354.833 927.943 354.833L927.94 354.833C927.204 354.833 926.607 354.237 926.607 353.5 926.607 352.764 927.204 352.167 927.94 352.167ZM933.276 352.167 933.279 352.167C934.015 352.167 934.612 352.764 934.612 353.5 934.612 354.237 934.015 354.833 933.279 354.833L933.276 354.833C932.54 354.833 931.943 354.237 931.943 353.5 931.943 352.764 932.54 352.167 933.276 352.167ZM938.612 352.167 938.615 352.167C939.351 352.167 939.948 352.764 939.948 353.5 939.948 354.237 939.351 354.833 938.615 354.833L938.612 354.833C937.876 354.833 937.279 354.237 937.279 353.5 937.279 352.764 937.876 352.167 938.612 352.167ZM943.948 352.167 943.951 352.167C944.687 352.167 945.284 352.764 945.284 353.5 945.284 354.237 944.687 354.833 943.951 354.833L943.948 354.833C943.212 354.833 942.615 354.237 942.615 353.5 942.615 352.764 943.212 352.167 943.948 352.167ZM949.284 352.167 949.287 352.167C950.023 352.167 950.62 352.764 950.62 353.5 950.62 354.237 950.023 354.833 949.287 354.833L949.284 354.833C948.548 354.833 947.951 354.237 947.951 353.5 947.951 352.764 948.548 352.167 949.284 352.167ZM954.62 352.167 954.623 352.167C955.359 352.167 955.956 352.764 955.956 353.5 955.956 354.237 955.359 354.833 954.623 354.833L954.62 354.833C953.884 354.833 953.287 354.237 953.287 353.5 953.287 352.764 953.884 352.167 954.62 352.167ZM959.956 352.167 959.959 352.167C960.695 352.167 961.292 352.764 961.292 353.5 961.292 354.237 960.695 354.833 959.959 354.833L959.956 354.833C959.22 354.833 958.623 354.237 958.623 353.5 958.623 352.764 959.22 352.167 959.956 352.167ZM965.292 352.167 965.295 352.167C966.031 352.167 966.628 352.764 966.628 353.5 966.628 354.237 966.031 354.833 965.295 354.833L965.292 354.833C964.556 354.833 963.959 354.237 963.959 353.5 963.959 352.764 964.556 352.167 965.292 352.167ZM970.628 352.167 970.631 352.167C971.367 352.167 971.964 352.764 971.964 353.5 971.964 354.237 971.367 354.833 970.631 354.833L970.628 354.833C969.892 354.833 969.295 354.237 969.295 353.5 969.295 352.764 969.892 352.167 970.628 352.167ZM975.964 352.167 975.966 352.167C976.703 352.167 977.3 352.764 977.3 353.5 977.3 354.237 976.703 354.833 975.966 354.833L975.964 354.833C975.227 354.833 974.631 354.237 974.631 353.5 974.631 352.764 975.227 352.167 975.964 352.167ZM981.3 352.167 981.302 352.167C982.039 352.167 982.636 352.764 982.636 353.5 982.636 354.237 982.039 354.833 981.302 354.833L981.3 354.833C980.563 354.833 979.966 354.237 979.966 353.5 979.966 352.764 980.563 352.167 981.3 352.167ZM986.636 352.167 986.638 352.167C987.375 352.167 987.972 352.764 987.972 353.5 987.972 354.237 987.375 354.833 986.638 354.833L986.636 354.833C985.899 354.833 985.302 354.237 985.302 353.5 985.302 352.764 985.899 352.167 986.636 352.167ZM991.972 352.167 991.974 352.167C992.711 352.167 993.308 352.764 993.308 353.5 993.308 354.237 992.711 354.833 991.974 354.833L991.972 354.833C991.235 354.833 990.638 354.237 990.638 353.5 990.638 352.764 991.235 352.167 991.972 352.167ZM997.308 352.167 997.31 352.167C998.047 352.167 998.644 352.764 998.644 353.5 998.644 354.237 998.047 354.833 997.31 354.833L997.308 354.833C996.571 354.833 995.974 354.237 995.974 353.5 995.974 352.764 996.571 352.167 997.308 352.167ZM1002.64 352.167 1002.65 352.167C1003.38 352.167 1003.98 352.764 1003.98 353.5 1003.98 354.237 1003.38 354.833 1002.65 354.833L1002.64 354.833C1001.91 354.833 1001.31 354.237 1001.31 353.5 1001.31 352.764 1001.91 352.167 1002.64 352.167ZM1007.98 352.167 1007.98 352.167C1008.72 352.167 1009.32 352.764 1009.32 353.5 1009.32 354.237 1008.72 354.833 1007.98 354.833L1007.98 354.833C1007.24 354.833 1006.65 354.237 1006.65 353.5 1006.65 352.764 1007.24 352.167 1007.98 352.167ZM1013.32 352.167 1013.32 352.167C1014.05 352.167 1014.65 352.764 1014.65 353.5 1014.65 354.237 1014.05 354.833 1013.32 354.833L1013.32 354.833C1012.58 354.833 1011.98 354.237 1011.98 353.5 1011.98 352.764 1012.58 352.167 1013.32 352.167ZM1018.65 352.167 1018.65 352.167C1019.39 352.167 1019.99 352.764 1019.99 353.5 1019.99 354.237 1019.39 354.833 1018.65 354.833L1018.65 354.833C1017.92 354.833 1017.32 354.237 1017.32 353.5 1017.32 352.764 1017.92 352.167 1018.65 352.167ZM1023.99 352.167 1023.99 352.167C1024.73 352.167 1025.32 352.764 1025.32 353.5 1025.32 354.237 1024.73 354.833 1023.99 354.833L1023.99 354.833C1023.25 354.833 1022.65 354.237 1022.65 353.5 1022.65 352.764 1023.25 352.167 1023.99 352.167ZM1029.32 352.167 1029.33 352.167C1030.06 352.167 1030.66 352.764 1030.66 353.5 1030.66 354.237 1030.06 354.833 1029.33 354.833L1029.32 354.833C1028.59 354.833 1027.99 354.237 1027.99 353.5 1027.99 352.764 1028.59 352.167 1029.32 352.167ZM1034.66 352.167 1034.66 352.167C1035.4 352.167 1036 352.764 1036 353.5 1036 354.237 1035.4 354.833 1034.66 354.833L1034.66 354.833C1033.92 354.833 1033.33 354.237 1033.33 353.5 1033.33 352.764 1033.92 352.167 1034.66 352.167ZM1040 352.167 1040 352.167C1040.73 352.167 1041.33 352.764 1041.33 353.5 1041.33 354.237 1040.73 354.833 1040 354.833L1040 354.833C1039.26 354.833 1038.66 354.237 1038.66 353.5 1038.66 352.764 1039.26 352.167 1040 352.167ZM1045.33 352.167 1045.33 352.167C1046.07 352.167 1046.67 352.764 1046.67 353.5 1046.67 354.237 1046.07 354.833 1045.33 354.833L1045.33 354.833C1044.59 354.833 1044 354.237 1044 353.5 1044 352.764 1044.59 352.167 1045.33 352.167ZM1050.67 352.167 1050.67 352.167C1051.41 352.167 1052 352.764 1052 353.5 1052 354.237 1051.41 354.833 1050.67 354.833L1050.67 354.833C1049.93 354.833 1049.33 354.237 1049.33 353.5 1049.33 352.764 1049.93 352.167 1050.67 352.167ZM1056 352.167 1056.01 352.167C1056.74 352.167 1057.34 352.764 1057.34 353.5 1057.34 354.237 1056.74 354.833 1056.01 354.833L1056 354.833C1055.27 354.833 1054.67 354.237 1054.67 353.5 1054.67 352.764 1055.27 352.167 1056 352.167ZM1061.34 352.167 1061.34 352.167C1062.08 352.167 1062.68 352.764 1062.68 353.5 1062.68 354.237 1062.08 354.833 1061.34 354.833L1061.34 354.833C1060.6 354.833 1060.01 354.237 1060.01 353.5 1060.01 352.764 1060.6 352.167 1061.34 352.167ZM1066.68 352.167 1066.68 352.167C1067.41 352.167 1068.01 352.764 1068.01 353.5 1068.01 354.237 1067.41 354.833 1066.68 354.833L1066.68 354.833C1065.94 354.833 1065.34 354.237 1065.34 353.5 1065.34 352.764 1065.94 352.167 1066.68 352.167ZM1072.01 352.167 1072.01 352.167C1072.75 352.167 1073.35 352.764 1073.35 353.5 1073.35 354.237 1072.75 354.833 1072.01 354.833L1072.01 354.833C1071.27 354.833 1070.68 354.237 1070.68 353.5 1070.68 352.764 1071.27 352.167 1072.01 352.167ZM1077.35 352.167 1077.35 352.167C1078.09 352.167 1078.68 352.764 1078.68 353.5 1078.68 354.237 1078.09 354.833 1077.35 354.833L1077.35 354.833C1076.61 354.833 1076.01 354.237 1076.01 353.5 1076.01 352.764 1076.61 352.167 1077.35 352.167ZM1082.68 352.167 1082.69 352.167C1083.42 352.167 1084.02 352.764 1084.02 353.5 1084.02 354.237 1083.42 354.833 1082.69 354.833L1082.68 354.833C1081.95 354.833 1081.35 354.237 1081.35 353.5 1081.35 352.764 1081.95 352.167 1082.68 352.167ZM1088.02 352.167 1088.02 352.167C1088.76 352.167 1089.35 352.764 1089.35 353.5 1089.35 354.237 1088.76 354.833 1088.02 354.833L1088.02 354.833C1087.28 354.833 1086.69 354.237 1086.69 353.5 1086.69 352.764 1087.28 352.167 1088.02 352.167ZM1093.35 352.167 1093.36 352.167C1094.09 352.167 1094.69 352.764 1094.69 353.5 1094.69 354.237 1094.09 354.833 1093.36 354.833L1093.35 354.833C1092.62 354.833 1092.02 354.237 1092.02 353.5 1092.02 352.764 1092.62 352.167 1093.35 352.167ZM1098.69 352.167 1098.69 352.167C1099.43 352.167 1100.03 352.764 1100.03 353.5 1100.03 354.237 1099.43 354.833 1098.69 354.833L1098.69 354.833C1097.95 354.833 1097.36 354.237 1097.36 353.5 1097.36 352.764 1097.95 352.167 1098.69 352.167ZM1104.03 352.167 1104.03 352.167C1104.77 352.167 1105.36 352.764 1105.36 353.5 1105.36 354.237 1104.77 354.833 1104.03 354.833L1104.03 354.833C1103.29 354.833 1102.69 354.237 1102.69 353.5 1102.69 352.764 1103.29 352.167 1104.03 352.167ZM1109.36 352.167 1109.37 352.167C1110.1 352.167 1110.7 352.764 1110.7 353.5 1110.7 354.237 1110.1 354.833 1109.37 354.833L1109.36 354.833C1108.63 354.833 1108.03 354.237 1108.03 353.5 1108.03 352.764 1108.63 352.167 1109.36 352.167ZM1114.7 352.167 1114.7 352.167C1115.44 352.167 1116.03 352.764 1116.03 353.5 1116.03 354.237 1115.44 354.833 1114.7 354.833L1114.7 354.833C1113.96 354.833 1113.37 354.237 1113.37 353.5 1113.37 352.764 1113.96 352.167 1114.7 352.167ZM1120.03 352.167 1120.04 352.167C1120.77 352.167 1121.37 352.764 1121.37 353.5 1121.37 354.237 1120.77 354.833 1120.04 354.833L1120.03 354.833C1119.3 354.833 1118.7 354.237 1118.7 353.5 1118.7 352.764 1119.3 352.167 1120.03 352.167ZM1125.37 352.167 1125.37 352.167C1126.11 352.167 1126.71 352.764 1126.71 353.5 1126.71 354.237 1126.11 354.833 1125.37 354.833L1125.37 354.833C1124.63 354.833 1124.04 354.237 1124.04 353.5 1124.04 352.764 1124.63 352.167 1125.37 352.167ZM1130.71 352.167 1130.71 352.167C1131.45 352.167 1132.04 352.764 1132.04 353.5 1132.04 354.237 1131.45 354.833 1130.71 354.833L1130.71 354.833C1129.97 354.833 1129.37 354.237 1129.37 353.5 1129.37 352.764 1129.97 352.167 1130.71 352.167ZM1136.04 352.167 1136.05 352.167C1136.78 352.167 1137.38 352.764 1137.38 353.5 1137.38 354.237 1136.78 354.833 1136.05 354.833L1136.04 354.833C1135.31 354.833 1134.71 354.237 1134.71 353.5 1134.71 352.764 1135.31 352.167 1136.04 352.167ZM1141.38 352.167 1141.38 352.167C1142.12 352.167 1142.71 352.764 1142.71 353.5 1142.71 354.237 1142.12 354.833 1141.38 354.833L1141.38 354.833C1140.64 354.833 1140.05 354.237 1140.05 353.5 1140.05 352.764 1140.64 352.167 1141.38 352.167ZM1146.71 352.167 1146.72 352.167C1147.45 352.167 1148.05 352.764 1148.05 353.5 1148.05 354.237 1147.45 354.833 1146.72 354.833L1146.71 354.833C1145.98 354.833 1145.38 354.237 1145.38 353.5 1145.38 352.764 1145.98 352.167 1146.71 352.167ZM1152.05 352.167 1152.05 352.167C1152.79 352.167 1153.39 352.764 1153.39 353.5 1153.39 354.237 1152.79 354.833 1152.05 354.833L1152.05 354.833C1151.31 354.833 1150.72 354.237 1150.72 353.5 1150.72 352.764 1151.31 352.167 1152.05 352.167ZM1157.39 352.167 1157.39 352.167C1158.13 352.167 1158.72 352.764 1158.72 353.5 1158.72 354.237 1158.13 354.833 1157.39 354.833L1157.39 354.833C1156.65 354.833 1156.05 354.237 1156.05 353.5 1156.05 352.764 1156.65 352.167 1157.39 352.167ZM1162.72 352.167 1162.72 352.167C1163.46 352.167 1164.06 352.764 1164.06 353.5 1164.06 354.237 1163.46 354.833 1162.72 354.833L1162.72 354.833C1161.99 354.833 1161.39 354.237 1161.39 353.5 1161.39 352.764 1161.99 352.167 1162.72 352.167ZM1168.06 352.167 1168.06 352.167C1168.8 352.167 1169.39 352.764 1169.39 353.5 1169.39 354.237 1168.8 354.833 1168.06 354.833L1168.06 354.833C1167.32 354.833 1166.72 354.237 1166.72 353.5 1166.72 352.764 1167.32 352.167 1168.06 352.167ZM1173.39 352.167 1173.4 352.167C1174.13 352.167 1174.73 352.764 1174.73 353.5 1174.73 354.237 1174.13 354.833 1173.4 354.833L1173.39 354.833C1172.66 354.833 1172.06 354.237 1172.06 353.5 1172.06 352.764 1172.66 352.167 1173.39 352.167ZM1178.73 352.167 1178.73 352.167C1179.47 352.167 1180.07 352.764 1180.07 353.5 1180.07 354.237 1179.47 354.833 1178.73 354.833L1178.73 354.833C1177.99 354.833 1177.4 354.237 1177.4 353.5 1177.4 352.764 1177.99 352.167 1178.73 352.167ZM1184.07 352.167 1184.07 352.167C1184.81 352.167 1185.4 352.764 1185.4 353.5 1185.4 354.237 1184.81 354.833 1184.07 354.833L1184.07 354.833C1183.33 354.833 1182.73 354.237 1182.73 353.5 1182.73 352.764 1183.33 352.167 1184.07 352.167ZM1189.4 352.167 1189.4 352.167C1190.14 352.167 1190.74 352.764 1190.74 353.5 1190.74 354.237 1190.14 354.833 1189.4 354.833L1189.4 354.833C1188.67 354.833 1188.07 354.237 1188.07 353.5 1188.07 352.764 1188.67 352.167 1189.4 352.167ZM1194.74 352.167 1194.74 352.167C1195.48 352.167 1196.07 352.764 1196.07 353.5 1196.07 354.237 1195.48 354.833 1194.74 354.833L1194.74 354.833C1194 354.833 1193.41 354.237 1193.41 353.5 1193.41 352.764 1194 352.167 1194.74 352.167ZM1200.07 352.167 1200.08 352.167C1200.81 352.167 1201.41 352.764 1201.41 353.5 1201.41 354.237 1200.81 354.833 1200.08 354.833L1200.07 354.833C1199.34 354.833 1198.74 354.237 1198.74 353.5 1198.74 352.764 1199.34 352.167 1200.07 352.167ZM1205.41 352.167 1205.41 352.167C1206.15 352.167 1206.75 352.764 1206.75 353.5 1206.75 354.237 1206.15 354.833 1205.41 354.833L1205.41 354.833C1204.67 354.833 1204.08 354.237 1204.08 353.5 1204.08 352.764 1204.67 352.167 1205.41 352.167ZM1210.75 352.167 1210.75 352.167C1211.49 352.167 1212.08 352.764 1212.08 353.5 1212.08 354.237 1211.49 354.833 1210.75 354.833L1210.75 354.833C1210.01 354.833 1209.41 354.237 1209.41 353.5 1209.41 352.764 1210.01 352.167 1210.75 352.167ZM1216.08 352.167 1216.09 352.167C1216.82 352.167 1217.42 352.764 1217.42 353.5 1217.42 354.237 1216.82 354.833 1216.09 354.833L1216.08 354.833C1215.35 354.833 1214.75 354.237 1214.75 353.5 1214.75 352.764 1215.35 352.167 1216.08 352.167ZM1221.42 352.167 1221.42 352.167C1222.16 352.167 1222.75 352.764 1222.75 353.5 1222.75 354.237 1222.16 354.833 1221.42 354.833L1221.42 354.833C1220.68 354.833 1220.09 354.237 1220.09 353.5 1220.09 352.764 1220.68 352.167 1221.42 352.167ZM1226.75 352.167 1226.76 352.167C1227.49 352.167 1228.09 352.764 1228.09 353.5 1228.09 354.237 1227.49 354.833 1226.76 354.833L1226.75 354.833C1226.02 354.833 1225.42 354.237 1225.42 353.5 1225.42 352.764 1226.02 352.167 1226.75 352.167ZM1232.09 352.167 1232.09 352.167C1232.83 352.167 1233.43 352.764 1233.43 353.5 1233.43 354.237 1232.83 354.833 1232.09 354.833L1232.09 354.833C1231.35 354.833 1230.76 354.237 1230.76 353.5 1230.76 352.764 1231.35 352.167 1232.09 352.167ZM1226.01 345.809 1235.24 353.5 1226.01 361.191C1225.44 361.663 1224.6 361.586 1224.13 361.02 1223.66 360.455 1223.74 359.614 1224.3 359.143L1232.3 352.476 1232.3 354.524 1224.3 347.858C1223.74 347.386 1223.66 346.546 1224.13 345.98 1224.6 345.414 1225.44 345.338 1226.01 345.809Z" fill="#0A1B45"/><text fill="#0078D4" font-family="Segoe UI Semibold,Segoe UI Semibold_MSFontService,sans-serif" font-weight="600" font-size="24" transform="translate(69.6734 261)">Requirements</text><path d="M79 347.5C79 311.325 108.325 282 144.5 282 180.675 282 210 311.325 210 347.5 210 383.675 180.675 413 144.5 413 108.325 413 79 383.675 79 347.5Z" fill="#0078D4" fill-rule="evenodd"/><path d="M87 347.5C87 315.744 112.744 290 144.5 290 176.256 290 202 315.744 202 347.5 202 379.256 176.256 405 144.5 405 112.744 405 87 379.256 87 347.5Z" fill="#0A1B45" fill-rule="evenodd"/><path d="M155.924 318C155.924 373.668 155.924 373.668 155.924 373.668 118.106 373.668 118.106 373.668 118.106 373.668 118.106 373.668 112 374.256 112 363.671 112 355.831 112 324.076 112 324.076 112 324.076 112.394 318 120.47 318 127.758 318 155.924 318 155.924 318ZM155.924 362.691C120.076 362.691 121.455 362.495 121.455 362.495 121.455 362.495 113.182 361.711 112.394 367.395M174.242 377C174.242 377 174.242 377 174.242 377 177 372.492 177 372.492 177 372.492 177 372.492 177 372.492 177 321.724 177 321.724 176.803 318 174.242 318 171.682 318 171.485 321.724 171.485 321.724 171.485 321.724 171.485 321.724 171.485 372.492 171.485 372.492 171.485 372.492 174.242 377ZM177 326.037C173.652 322.312 171.485 326.429 171.485 326.429M177 369.944C174.242 365.827 171.485 369.944 171.485 369.944" stroke="#FFFFFF" stroke-width="1.66667" stroke-miterlimit="8" fill="none" fill-rule="evenodd"/><text font-family="Segoe UI,Segoe UI_MSFontService,sans-serif" font-weight="400" font-size="19" transform="translate(79.0834 446)">Start from the</text><text fill="#0078D4" font-family="Segoe UI,Segoe UI_MSFontService,sans-serif" font-weight="700" font-size="19" transform="translate(79.0834 469)">requirements</text><text fill="#0078D4" font-family="Segoe UI Semibold,Segoe UI Semibold_MSFontService,sans-serif" font-weight="600" font-size="24" transform="translate(284.538 260)">Existing strategy</text><path d="M306 348C306 312.102 335.325 283 371.5 283 407.675 283 437 312.102 437 348 437 383.898 407.675 413 371.5 413 335.325 413 306 383.898 306 348Z" fill="#0078D4" fill-rule="evenodd"/><path d="M314 348C314 316.52 339.744 291 371.5 291 403.256 291 429 316.52 429 348 429 379.48 403.256 405 371.5 405 339.744 405 314 379.48 314 348Z" fill="#0A1B45" fill-rule="evenodd"/><path d="M351.679 373.414C351.679 373.414 351.679 373.201 351.679 373.201 346.067 372.562 341.965 368.089 341.965 362.55 341.965 361.698 341.965 361.059 342.181 360.207 339.159 357.651 337 353.817 337 349.343 337 344.657 339.375 340.396 343.044 337.84 342.397 336.136 341.965 334.432 341.965 332.728 341.965 326.763 346.067 322.077 351.679 320.799 351.679 320.799 351.679 320.799 351.679 320.586 351.679 315.26 355.997 311 361.394 311 366.79 311 371.108 315.26 371.108 320.586 371.108 373.414 371.108 373.414 371.108 373.414M390.536 373.414C390.536 373.414 390.536 373.201 390.536 373.201 395.933 372.562 400.251 368.089 400.251 362.55 400.251 361.698 400.035 361.059 400.035 360.207 403.057 357.651 405 353.817 405 349.343 405 344.657 402.625 340.396 398.956 337.84 399.819 336.136 400.251 334.432 400.251 332.728 400.251 326.763 395.933 322.077 390.536 320.799 390.536 320.799 390.536 320.799 390.536 320.586 390.536 315.26 386.219 311 380.822 311 375.425 311 371.108 315.26 371.108 320.586 371.108 373.414 371.108 373.414 371.108 373.414M351.679 373.414C356.429 373.414 356.429 373.414 356.429 373.414M385.571 373.414C390.536 373.414 390.536 373.414 390.536 373.414M349.089 349.343C351.679 349.343 351.679 349.343 351.679 349.343 354.27 349.343 356.429 351.473 356.429 354.243 356.429 354.243 356.429 354.243 356.429 354.243 356.429 356.799 358.587 358.929 361.394 358.929 371.108 358.929 371.108 358.929 371.108 358.929 380.822 358.929 380.822 358.929 380.822 358.929 383.413 358.929 385.571 356.799 385.571 354.243 385.571 354.243 385.571 354.243 385.571 354.243 385.571 351.473 387.73 349.343 390.536 349.343 392.911 349.343 392.911 349.343 392.911 349.343M354.054 330.172C356.429 330.172 356.429 330.172 356.429 330.172 359.235 330.172 361.394 332.302 361.394 335.071 361.394 335.071 361.394 335.071 361.394 335.071 361.394 337.627 363.552 339.757 366.143 339.757 375.857 339.757 375.857 339.757 375.857 339.757 378.663 339.757 380.822 337.627 380.822 335.071 380.822 335.071 380.822 335.071 380.822 335.071 380.822 332.302 382.981 330.172 385.571 330.172 387.946 330.172 387.946 330.172 387.946 330.172M342.181 360.207C344.771 362.55 348.01 363.828 351.679 363.828M390.536 363.828C394.206 363.828 397.444 362.55 400.035 360.207M343.044 337.84C352.759 337.84 352.759 337.84 352.759 337.84M389.457 337.84C399.171 337.84 399.171 337.84 399.171 337.84M351.679 320.586C358.803 320.586 358.803 320.586 358.803 320.586M390.536 320.586C383.197 320.586 383.197 320.586 383.197 320.586M366.143 373.414C375.857 373.414 375.857 373.414 375.857 373.414M351.679 373.414C351.679 375.757 351.679 375.757 351.679 375.757 351.679 379.805 354.917 383 358.803 383 366.143 383 366.143 383 366.143 383 368.949 383 371.108 380.87 371.108 378.101 371.108 373.414 371.108 373.414 371.108 373.414M371.108 373.414C371.108 378.101 371.108 378.101 371.108 378.101 371.108 380.87 373.267 383 375.857 383 383.197 383 383.197 383 383.197 383 387.298 383 390.536 379.805 390.536 375.757 390.536 373.414 390.536 373.414 390.536 373.414" stroke="#FFFFFF" stroke-width="1.66667" stroke-miterlimit="8" fill="none" fill-rule="evenodd"/><text font-family="Segoe UI,Segoe UI_MSFontService,sans-serif" font-weight="400" font-size="19" transform="translate(324.875 436)">Align with the</text><text fill="#0078D4" font-family="Segoe UI,Segoe UI_MSFontService,sans-serif" font-weight="700" font-size="19" transform="translate(324.875 459)">companys</text><text fill="#0078D4" font-family="Segoe UI,Segoe UI_MSFontService,sans-serif" font-weight="700" font-size="19" transform="translate(324.875 481)">integration</text><text fill="#0078D4" font-family="Segoe UI,Segoe UI_MSFontService,sans-serif" font-weight="700" font-size="19" transform="translate(324.875 503)">strategy</text><text fill="#0078D4" font-family="Segoe UI Semibold,Segoe UI Semibold_MSFontService,sans-serif" font-weight="600" font-size="24" transform="translate(564.858 259)">Monitoring</text><path d="M564 347.5C564 311.325 593.325 282 629.5 282 665.675 282 695 311.325 695 347.5 695 383.675 665.675 413 629.5 413 593.325 413 564 383.675 564 347.5Z" fill="#0078D4" fill-rule="evenodd"/><path d="M572 347.5C572 315.744 597.744 290 629.5 290 661.256 290 687 315.744 687 347.5 687 379.256 661.256 405 629.5 405 597.744 405 572 379.256 572 347.5Z" fill="#0A1B45" fill-rule="evenodd"/><path d="M639.918 318 657 318 657 334.837 639.918 334.837 639.918 318M639.918 377 657 377 657 360.163 639.918 360.163 639.918 377M593 355.983 610.068 355.983 610.068 339.146 593 339.146 593 355.983M610.082 347.521 639.918 327.879M639.918 367.164 610.155 347.55" stroke="#FFFFFF" stroke-width="1.66667" stroke-linecap="square" stroke-miterlimit="8" fill="none" fill-rule="evenodd"/><text font-family="Segoe UI,Segoe UI_MSFontService,sans-serif" font-weight="400" font-size="19" transform="translate(570.667 438)">Implement</text><text fill="#0078D4" font-family="Segoe UI,Segoe UI_MSFontService,sans-serif" font-weight="700" font-size="19" transform="translate(664.833 438)">high</text><text fill="#0078D4" font-family="Segoe UI,Segoe UI_MSFontService,sans-serif" font-weight="700" font-size="19" transform="translate(570.667 461)">availability,</text><text fill="#0078D4" font-family="Segoe UI,Segoe UI_MSFontService,sans-serif" font-weight="700" font-size="19" transform="translate(570.667 483)">monitoring</text><text font-family="Segoe UI,Segoe UI_MSFontService,sans-serif" font-weight="400" font-size="19" transform="translate(675.333 483)">and</text><text fill="#0078D4" font-family="Segoe UI,Segoe UI_MSFontService,sans-serif" font-weight="700" font-size="19" transform="translate(570.667 505)">error handling</text><text fill="#0078D4" font-family="Segoe UI Semibold,Segoe UI Semibold_MSFontService,sans-serif" font-weight="600" font-size="24" transform="translate(809.718 258)">Simplification</text><path d="M828 347.5C828 311.325 857.325 282 893.5 282 929.675 282 959 311.325 959 347.5 959 383.675 929.675 413 893.5 413 857.325 413 828 383.675 828 347.5Z" fill="#0078D4" fill-rule="evenodd"/><path d="M836 347.5C836 315.744 861.744 290 893.5 290 925.256 290 951 315.744 951 347.5 951 379.256 925.256 405 893.5 405 861.744 405 836 379.256 836 347.5Z" fill="#0A1B45" fill-rule="evenodd"/><path d="M914.758 374.921C870.755 374.921 870.755 374.921 870.755 374.921 868.204 374.921 865.653 372.387 865.653 369.642 865.653 324.88 865.653 324.88 865.653 324.88 865.653 321.501 868.204 319.601 870.755 319.601 914.758 319.601 914.758 319.601 914.758 319.601 917.946 319.601 919.859 321.501 919.859 324.88 919.859 369.642 919.859 369.642 919.859 369.642 919.859 372.387 917.946 374.921 914.758 374.921ZM874.581 319.601C874.581 312 874.581 312 874.581 312M883.722 319.601C883.722 312 883.722 312 883.722 312M892.65 312C892.65 319.601 892.65 319.601 892.65 319.601M901.79 312C901.79 319.601 901.79 319.601 901.79 319.601M912.419 312C912.419 319.601 912.419 319.601 912.419 319.601M929 328.469C919.859 328.469 919.859 328.469 919.859 328.469M929 337.548C919.859 337.548 919.859 337.548 919.859 337.548M929 346.416C919.859 346.416 919.859 346.416 919.859 346.416M929 356.974C919.859 356.974 919.859 356.974 919.859 356.974M929 366.053C919.859 366.053 919.859 366.053 919.859 366.053M865.653 328.469C858 328.469 858 328.469 858 328.469M865.653 337.548C858 337.548 858 337.548 858 337.548M865.653 346.416C858 346.416 858 346.416 858 346.416M865.653 356.974C858 356.974 858 356.974 858 356.974M865.653 366.053C858 366.053 858 366.053 858 366.053M874.581 374.921C874.581 384 874.581 384 874.581 384M883.722 374.921C883.722 384 883.722 384 883.722 384M892.65 384C892.65 374.921 892.65 374.921 892.65 374.921M901.79 374.921C901.79 384 901.79 384 901.79 384M912.419 374.921C912.419 384 912.419 384 912.419 384" stroke="#FFFFFF" stroke-width="1.66667" stroke-linecap="square" stroke-miterlimit="8" fill="none" fill-rule="evenodd"/><text font-family="Segoe UI,Segoe UI_MSFontService,sans-serif" font-weight="400" font-size="19" transform="translate(836.22 454)">Keep it</text><text fill="#0078D4" font-family="Segoe UI,Segoe UI_MSFontService,sans-serif" font-weight="700" font-size="19" transform="translate(898.64 454)">simple</text><text font-family="Segoe UI,Segoe UI_MSFontService,sans-serif" font-weight="400" font-size="19" transform="translate(956.307 454)">.</text><text fill="#0078D4" font-family="Segoe UI Semibold,Segoe UI Semibold_MSFontService,sans-serif" font-weight="600" font-size="24" transform="translate(1097.54 261)">Scale</text><path d="M1068 348C1068 312.102 1097.1 283 1133 283 1168.9 283 1198 312.102 1198 348 1198 383.898 1168.9 413 1133 413 1097.1 413 1068 383.898 1068 348Z" fill="#0078D4" fill-rule="evenodd"/><path d="M1076 347.5C1076 315.744 1101.52 290 1133 290 1164.48 290 1190 315.744 1190 347.5 1190 379.256 1164.48 405 1133 405 1101.52 405 1076 379.256 1076 347.5Z" fill="#0A1B45" fill-rule="evenodd"/><path d="M1097 348.108C1097 339.676 1099.78 331.892 1104.7 325.622 1111.11 317.405 1121.17 312 1132.5 312 1152.17 312 1168 328.216 1168 348.108 1168 367.784 1152.17 384 1132.5 384 1112.83 384 1097 367.784 1097 348.108ZM1116.03 379.892C1118.81 376.649 1118.81 376.649 1118.81 376.649 1117.96 370.811 1117.96 370.811 1117.96 370.811 1112.4 367.135 1112.4 367.135 1112.4 367.135 1105.13 367.135 1105.13 367.135 1105.13 367.135 1101.49 358.919 1101.49 358.919 1101.49 358.919 1105.13 348.324 1105.13 348.324 1105.13 348.324 1109.4 348.108 1109.4 348.108 1109.4 348.108 1114.11 353.73 1114.11 353.73 1114.11 353.73 1118.81 351.351 1118.81 351.351 1118.81 351.351 1116.89 345.73 1116.89 345.73 1116.89 345.73 1118.6 338.811 1118.6 338.811 1118.6 338.811 1128.01 329.297 1128.01 329.297 1128.01 329.297 1122.45 322.162 1122.45 322.162 1122.45 322.162 1118.6 326.703 1118.6 326.703 1118.6 326.703 1103.84 326.703 1103.84 326.703 1103.84 326.703M1150.68 317.189C1136.99 324.108 1136.99 324.108 1136.99 324.108 1139.98 331.892 1139.98 331.892 1139.98 331.892 1147.26 331.892 1147.26 331.892 1147.26 331.892 1143.83 336.865 1143.83 336.865 1143.83 336.865 1136.99 340.108 1136.99 340.108 1136.99 340.108 1131.43 348.324 1131.43 348.324 1131.43 348.324 1133.14 356.108 1133.14 356.108 1133.14 356.108 1141.05 360.649 1141.05 360.649 1141.05 360.649 1143.62 357.838 1143.62 357.838 1143.62 357.838 1145.97 364.757 1145.97 364.757 1145.97 364.757 1143.41 374.486 1143.41 374.486 1143.41 374.486 1149.39 371.676 1149.39 371.676 1149.39 371.676 1152.39 367.351 1152.39 367.351 1152.39 367.351 1152.39 348.324 1152.39 348.324 1152.39 348.324 1148.11 341.622 1148.11 341.622 1148.11 341.622 1152.39 338.811 1152.39 338.811 1152.39 338.811 1157.73 341.622 1157.73 341.622 1157.73 341.622 1162.44 348.757 1162.44 348.757 1162.44 348.757 1162.44 352.216 1162.44 352.216 1162.44 352.216 1168 351.135 1168 351.135 1168 351.135" stroke="#FFFFFF" stroke-width="1.66667" stroke-linejoin="round" stroke-miterlimit="10" fill="none" fill-rule="evenodd"/><text font-family="Segoe UI,Segoe UI_MSFontService,sans-serif" font-weight="400" font-size="19" transform="translate(1051.25 455)">Build for</text><text fill="#0078D4" font-family="Segoe UI,Segoe UI_MSFontService,sans-serif" font-weight="700" font-size="19" transform="translate(1126.08 455)">growth</text><text font-family="Segoe UI,Segoe UI_MSFontService,sans-serif" font-weight="400" font-size="19" transform="translate(1189.68 455)">.</text></g></svg>