<svg width="1280" height="720" xmlns="http://www.w3.org/2000/svg" xmlns:xlink="http://www.w3.org/1999/xlink" overflow="hidden"><g><rect x="0" y="0" width="1280" height="720" fill="#FFFFFF"/><text font-family="Segoe UI Semibold,Segoe UI Semibold_MSFontService,sans-serif" font-weight="600" font-size="48" transform="translate(61.7599 95)">Pitfalls in scope definition</text><path d="M61 161.699C61 155.79 65.7903 151 71.6995 151L1207.3 151C1213.21 151 1218 155.79 1218 161.699L1218 247.301C1218 253.21 1213.21 258 1207.3 258L71.6995 258C65.7903 258 61 253.21 61 247.301Z" fill="#CCDCE5" fill-rule="evenodd"/><g><g><g><path d="M38.0625 9.0625 9.0625 9.0625 9.0625 27.1875 12.6875 27.1875 12.6875 12.6875 16.3125 12.6875 16.3125 27.1875 27.1875 27.1875 27.1875 38.0625 16.3125 38.0625 16.3125 41.6875 30.8125 41.6875 30.8125 23.5625 19.9375 23.5625 19.9375 12.6875 27.1875 12.6875 27.1875 16.3125 23.5625 16.3125 23.5625 19.9375 30.8125 19.9375 30.8125 12.6875 38.0625 12.6875 38.0625 9.0625Z" fill="#1084A3" transform="matrix(1 0 0 1.01724 94.5001 175.5)"/><path d="M41.6875 9.0625 41.6875 12.6875 45.3125 12.6875 45.3125 16.3125 34.4375 16.3125 34.4375 27.1875 38.0625 27.1875 38.0625 19.9375 45.3125 19.9375 45.3125 24.1667 41.6875 24.1667 41.6875 27.7917 45.3125 27.7917 45.3125 38.0625 38.0625 38.0625 38.0625 34.4375 42.2917 34.4375 42.2917 30.8125 34.4375 30.8125 34.4375 41.6875 45.3125 41.6875 45.3125 45.3125 12.6875 45.3125 12.6875 34.4375 23.5625 34.4375 23.5625 30.8125 9.0625 30.8125 9.0625 48.9375 48.9375 48.9375 48.9375 9.0625 41.6875 9.0625Z" fill="#1084A3" transform="matrix(1 0 0 1.01724 94.5001 175.5)"/></g></g></g><rect x="94.5001" y="175.5" width="58" height="59" stroke="#FFFFFF" stroke-width="1.13333" stroke-linejoin="round" stroke-miterlimit="10" fill="none"/><text font-family="Segoe UI,Segoe UI_MSFontService,sans-serif" font-weight="700" font-size="29" transform="translate(195.932 217)">What NOT to Do</text><text font-family="Segoe UI,Segoe UI_MSFontService,sans-serif" font-weight="400" font-size="23" transform="translate(716.507 198)">Avoid replicating current processes without</text><text font-family="Segoe UI,Segoe UI_MSFontService,sans-serif" font-weight="400" font-size="23" transform="translate(716.507 229)">considering future needs.</text><path d="M61 294.699C61 288.79 65.7903 284 71.6995 284L1207.3 284C1213.21 284 1218 288.79 1218 294.699L1218 380.301C1218 386.21 1213.21 391 1207.3 391L71.6995 391C65.7903 391 61 386.21 61 380.301Z" fill="#CCDCE5" fill-rule="evenodd"/><g><g><g><path d="M54.7073 48.3333 31.0965 7.25C30.4325 6.09218 28.9557 5.69176 27.7979 6.35565 27.4257 6.5691 27.117 6.87777 26.9035 7.25L3.29271 48.3333C2.62536 49.4892 3.0214 50.9672 4.17727 51.6346 4.54392 51.8463 4.95975 51.9579 5.38313 51.9583L52.6169 51.9583C53.9515 51.9569 55.0325 50.8739 55.0311 49.5392 55.0306 49.1158 54.919 48.7 54.7073 48.3333ZM29 22.9583 32.5223 26.4806 30.2083 26.4806 30.2083 31.4167 27.7917 31.4167 27.7917 26.4806 25.4777 26.4806ZM42.8958 41.0833 15.1042 41.0833 15.1042 38.6667 20.596 38.6667C21.0552 35.8573 24.6379 33.2292 29 33.2292 33.3621 33.2292 36.9448 35.8573 37.404 38.6667L42.8958 38.6667Z" fill="#279FC7" transform="matrix(1 0 0 1.01724 94.5001 308.5)"/></g></g></g><rect x="94.5001" y="308.5" width="58" height="59" stroke="#FFFFFF" stroke-width="1.13333" stroke-linejoin="round" stroke-miterlimit="10" fill="none"/><text font-family="Segoe UI,Segoe UI_MSFontService,sans-serif" font-weight="700" font-size="29" transform="translate(195.932 350)">The danger</text><text font-family="Segoe UI,Segoe UI_MSFontService,sans-serif" font-weight="400" font-size="23" transform="translate(716.507 332)">Risk of merely replicating processes in the new</text><text font-family="Segoe UI,Segoe UI_MSFontService,sans-serif" font-weight="400" font-size="23" transform="translate(716.507 363)">system without re</text><text font-family="Segoe UI,Segoe UI_MSFontService,sans-serif" font-weight="400" font-size="23" transform="translate(893.6 363)">-</text><text font-family="Segoe UI,Segoe UI_MSFontService,sans-serif" font-weight="400" font-size="23" transform="translate(902.667 363)">evaluating and optimizing.</text><path d="M61 428.699C61 422.79 65.7903 418 71.6995 418L1207.3 418C1213.21 418 1218 422.79 1218 428.699L1218 514.301C1218 520.21 1213.21 525 1207.3 525L71.6995 525C65.7903 525 61 520.21 61 514.301Z" fill="#CCDCE5" fill-rule="evenodd"/><g><g><g><path d="M139.208 473.887 145.31 467.784 148.875 471.349 148.875 461.682 139.208 461.682 142.773 465.247 136.792 471.228 126.521 481.499 117.458 472.437 98.6688 491.226 101.206 493.764 117.458 477.512 126.521 486.574 139.208 473.887Z" fill="#5DACCC"/><path d="M108.396 454.583C108.396 456.252 107.043 457.604 105.375 457.604 103.707 457.604 102.354 456.252 102.354 454.583 102.354 452.915 103.707 451.563 105.375 451.563 107.043 451.563 108.396 452.915 108.396 454.583Z" fill="#5DACCC"/><path d="M134.478 470.117 135.082 469.512 136.465 468.129 134.786 460.577C134.735 460.309 134.589 460.069 134.375 459.9 133.651 459.332 132.833 458.897 131.958 458.613 130.38 458.074 128.667 458.074 127.089 458.613 126.214 458.897 125.396 459.333 124.672 459.9 124.463 460.073 124.318 460.311 124.261 460.577L123.5 464.117 123.5 464.117 122.709 460.577C122.653 460.309 122.506 460.07 122.292 459.9 121.568 459.332 120.75 458.897 119.875 458.613 117.395 457.813 114.678 458.295 112.625 459.9 112.416 460.073 112.271 460.311 112.214 460.577L111.417 464.002C111.417 464.002 111.417 464.002 111.417 464.002L110.631 460.577C110.571 460.31 110.422 460.071 110.208 459.9 109.484 459.333 108.666 458.897 107.792 458.613 106.213 458.074 104.501 458.074 102.922 458.613 102.048 458.899 101.23 459.334 100.505 459.9 100.296 460.073 100.152 460.311 100.095 460.577L98.1734 469.349C98.0013 470.025 98.4096 470.712 99.0854 470.885 99.1015 470.889 99.1177 470.892 99.134 470.896 99.2003 470.902 99.2671 470.902 99.3334 470.896 99.9112 470.909 100.418 470.512 100.542 469.947L102.354 461.833 102.354 461.833 102.354 466.123 100.542 475.125 102.354 475.125 102.354 484.121 104.771 481.704 104.771 475.125 105.979 475.125 105.979 480.496 108.396 478.079 108.396 475.125 110.208 475.125 108.396 466.129 108.396 461.9 108.396 461.9 110.208 469.79C110.262 470.417 110.788 470.898 111.417 470.896L111.417 470.896C111.981 470.892 112.467 470.498 112.589 469.947L112.625 469.688 114.389 461.936C114.389 461.936 114.389 461.936 114.389 461.936L114.389 472.068 115.724 470.727C116.668 469.782 118.198 469.782 119.142 470.725 119.143 470.725 119.143 470.726 119.144 470.727L120.479 472.014 120.479 461.942C120.479 461.942 120.479 461.942 120.479 461.942L122.292 469.953C122.418 470.515 122.924 470.91 123.5 470.896L123.5 470.896C124.067 470.895 124.556 470.501 124.678 469.947L126.491 461.936C126.491 461.936 126.491 461.936 126.491 461.936L126.491 478.067 126.491 478.067 128.907 475.651 128.907 471.5 130.116 471.5 130.116 474.467 132.532 472.05 132.532 461.942C132.532 461.942 132.532 461.942 132.532 461.942L134.435 470.123Z" fill="#5DACCC"/><path d="M132.557 454.583C132.557 456.252 131.204 457.604 129.536 457.604 127.867 457.604 126.515 456.252 126.515 454.583 126.515 452.915 127.867 451.563 129.536 451.563 131.204 451.563 132.557 452.915 132.557 454.583Z" fill="#5DACCC"/><path d="M120.455 454.583C120.455 456.252 119.103 457.604 117.434 457.604 115.766 457.604 114.413 456.252 114.413 454.583 114.413 452.915 115.766 451.563 117.434 451.563 119.103 451.563 120.455 452.915 120.455 454.583Z" fill="#5DACCC"/></g></g></g><rect x="94.5001" y="442.5" width="58" height="58" stroke="#FFFFFF" stroke-width="1.13333" stroke-linejoin="round" stroke-miterlimit="10" fill="none"/><text font-family="Segoe UI,Segoe UI_MSFontService,sans-serif" font-weight="700" font-size="29" transform="translate(195.932 484)">Impact on long</text><text font-family="Segoe UI,Segoe UI_MSFontService,sans-serif" font-weight="700" font-size="29" transform="translate(405.318 484)">-</text><text font-family="Segoe UI,Segoe UI_MSFontService,sans-serif" font-weight="700" font-size="29" transform="translate(417.178 484)">term success</text><text font-family="Segoe UI,Segoe UI_MSFontService,sans-serif" font-weight="400" font-size="23" transform="translate(716.507 480)">Missed</text><text font-family="Segoe UI,Segoe UI_MSFontService,sans-serif" font-weight="400" font-size="23" transform="translate(792.993 480)">opportunities for process improvement.</text><path d="M61 561.699C61 555.79 65.7903 551 71.6995 551L1207.3 551C1213.21 551 1218 555.79 1218 561.699L1218 647.301C1218 653.21 1213.21 658 1207.3 658L71.6995 658C65.7903 658 61 653.21 61 647.301Z" fill="#CCDCE5" fill-rule="evenodd"/><g><g><g><path d="M47.4271 10.5729 46.8229 5.13542 40.1771 11.7812 40.5396 14.9229 30.8729 24.5896C30.0271 24.1667 29.0604 23.8646 28.0333 23.8646 24.7104 23.8646 21.9917 26.5833 21.9917 29.9063 21.9917 33.2292 24.7104 35.9479 28.0333 35.9479 31.3563 35.9479 34.075 33.2292 34.075 29.9063 34.075 28.8792 33.8333 27.9729 33.4104 27.1271L43.0771 17.4604 46.2188 17.8229 52.8646 11.1771 47.4271 10.5729Z" fill="#96BCCE" transform="matrix(1 0 0 1.01724 94.5001 575.5)"/><path d="M47.9104 19.5146 47.125 20.3604 45.9771 20.2396 44.7083 20.0583C46.4 22.9583 47.4271 26.2812 47.4271 29.9063 47.4271 40.5396 38.7271 49.2396 28.0938 49.2396 17.4604 49.2396 8.76042 40.5396 8.76042 29.9063 8.76042 19.2729 17.4604 10.5729 28.0938 10.5729 31.6583 10.5729 35.0417 11.5396 37.9417 13.2917L37.8208 12.0833 37.6396 10.875 38.4854 10.0292 38.9083 9.60625C35.6458 7.91458 32.0208 6.94792 28.0938 6.94792 15.4063 6.94792 5.13542 17.2188 5.13542 29.9063 5.13542 42.5938 15.4063 52.8646 28.0938 52.8646 40.7812 52.8646 51.0521 42.5938 51.0521 29.9063 51.0521 25.9792 50.0854 22.3542 48.3333 19.1521L47.9104 19.5146Z" fill="#96BCCE" transform="matrix(1 0 0 1.01724 94.5001 575.5)"/><path d="M38.1833 25.7979C38.7271 27.0667 38.9688 28.4562 38.9688 29.9063 38.9688 35.8875 34.075 40.7812 28.0938 40.7812 22.1125 40.7812 17.2188 35.8875 17.2188 29.9063 17.2188 23.925 22.1125 19.0312 28.0938 19.0312 29.5438 19.0312 30.9333 19.3333 32.2021 19.8167L34.9208 17.0979C32.8667 16.0104 30.5708 15.4063 28.0938 15.4063 20.1187 15.4063 13.5938 21.9312 13.5938 29.9063 13.5938 37.8813 20.1187 44.4062 28.0938 44.4062 36.0688 44.4062 42.5938 37.8813 42.5938 29.9063 42.5938 27.4292 41.9896 25.1333 40.9021 23.0792L38.1833 25.7979Z" fill="#96BCCE" transform="matrix(1 0 0 1.01724 94.5001 575.5)"/></g></g></g><rect x="94.5001" y="575.5" width="58" height="59" stroke="#FFFFFF" stroke-width="1.13333" stroke-linejoin="round" stroke-miterlimit="10" fill="none"/><text font-family="Segoe UI,Segoe UI_MSFontService,sans-serif" font-weight="700" font-size="29" transform="translate(195.932 598)">Focus on business goals, not</text><text font-family="Segoe UI,Segoe UI_MSFontService,sans-serif" font-weight="700" font-size="29" transform="translate(195.932 637)">current constraints</text><text font-family="Segoe UI,Segoe UI_MSFontService,sans-serif" font-weight="400" font-size="23" transform="translate(716.507 598)">A</text><text font-family="Segoe UI,Segoe UI_MSFontService,sans-serif" font-weight="400" font-size="23" transform="translate(731.127 598)">lign processes with overarching business goals</text><text font-family="Segoe UI,Segoe UI_MSFontService,sans-serif" font-weight="400" font-size="23" transform="translate(716.507 629)">rather than the limitations of the current system</text></g></svg>