<svg width="1280" height="720" xmlns="http://www.w3.org/2000/svg" xmlns:xlink="http://www.w3.org/1999/xlink" overflow="hidden"><g><rect x="0" y="0" width="1280" height="720" fill="#FFFFFF"/><text font-family="Segoe UI Semibold,Segoe UI Semibold_MSFontService,sans-serif" font-weight="600" font-size="43" transform="translate(61.7599 90)">Recommended mapping for the business process catalog</text><path d="M62 201.7C62 173.699 84.7235 151 112.754 151L568.246 151C596.276 151 619 173.699 619 201.7L619 607.3C619 635.301 596.276 658 568.246 658L112.754 658C84.7235 658 62 635.301 62 607.3L62 201.7Z" fill="#CBD6EF" fill-rule="evenodd"/><text font-family="Segoe UI,Segoe UI_MSFontService,sans-serif" font-weight="400" font-size="59" transform="translate(84.1382 245)">Catalog component</text><path d="M118.5 309.4C118.5 306.142 121.125 303.5 124.364 303.5L557.636 303.5C560.875 303.5 563.5 306.142 563.5 309.4L563.5 356.6C563.5 359.859 560.875 362.5 557.636 362.5L124.364 362.5C121.125 362.5 118.5 359.859 118.5 356.6L118.5 309.4Z" stroke="#FFFFFF" stroke-width="1.13333" stroke-linejoin="round" stroke-miterlimit="10" fill="#0078D4" fill-rule="evenodd"/><text fill="#FFFFFF" font-family="Segoe UI,Segoe UI_MSFontService,sans-serif" font-weight="400" font-size="31" transform="translate(131.295 342)">End</text><text fill="#FFFFFF" font-family="Segoe UI,Segoe UI_MSFontService,sans-serif" font-weight="400" font-size="31" transform="translate(182.128 342)">-</text><text fill="#FFFFFF" font-family="Segoe UI,Segoe UI_MSFontService,sans-serif" font-weight="400" font-size="31" transform="translate(194.462 342)">to</text><text fill="#FFFFFF" font-family="Segoe UI,Segoe UI_MSFontService,sans-serif" font-weight="400" font-size="31" transform="translate(222.555 342)">-</text><text fill="#FFFFFF" font-family="Segoe UI,Segoe UI_MSFontService,sans-serif" font-weight="400" font-size="31" transform="translate(234.888 342)">end business processes</text><path d="M118.5 377.3C118.5 374.097 121.125 371.5 124.364 371.5L557.636 371.5C560.875 371.5 563.5 374.097 563.5 377.3L563.5 423.7C563.5 426.903 560.875 429.5 557.636 429.5L124.364 429.5C121.125 429.5 118.5 426.903 118.5 423.7L118.5 377.3Z" stroke="#FFFFFF" stroke-width="1.13333" stroke-linejoin="round" stroke-miterlimit="10" fill="#0078D4" fill-rule="evenodd"/><text fill="#FFFFFF" font-family="Segoe UI,Segoe UI_MSFontService,sans-serif" font-weight="400" font-size="31" transform="translate(194.712 410)">Business process area</text><path d="M118.5 444.4C118.5 441.142 121.125 438.5 124.364 438.5L557.636 438.5C560.875 438.5 563.5 441.142 563.5 444.4L563.5 491.6C563.5 494.859 560.875 497.5 557.636 497.5L124.364 497.5C121.125 497.5 118.5 494.859 118.5 491.6L118.5 444.4Z" stroke="#FFFFFF" stroke-width="1.13333" stroke-linejoin="round" stroke-miterlimit="10" fill="#0078D4" fill-rule="evenodd"/><text fill="#FFFFFF" font-family="Segoe UI,Segoe UI_MSFontService,sans-serif" font-weight="400" font-size="31" transform="translate(194.712 477)">Business process area</text><path d="M118.5 512.4C118.5 509.142 121.125 506.5 124.364 506.5L557.636 506.5C560.875 506.5 563.5 509.142 563.5 512.4L563.5 559.6C563.5 562.859 560.875 565.5 557.636 565.5L124.364 565.5C121.125 565.5 118.5 562.859 118.5 559.6L118.5 512.4Z" stroke="#FFFFFF" stroke-width="1.13333" stroke-linejoin="round" stroke-miterlimit="10" fill="#0078D4" fill-rule="evenodd"/><text fill="#FFFFFF" font-family="Segoe UI,Segoe UI_MSFontService,sans-serif" font-weight="400" font-size="31" transform="translate(227.675 545)">Business process</text><path d="M118.5 580.4C118.5 577.142 121.125 574.5 124.364 574.5L557.636 574.5C560.875 574.5 563.5 577.142 563.5 580.4L563.5 627.6C563.5 630.859 560.875 633.5 557.636 633.5L124.364 633.5C121.125 633.5 118.5 630.859 118.5 627.6L118.5 580.4Z" stroke="#FFFFFF" stroke-width="1.13333" stroke-linejoin="round" stroke-miterlimit="10" fill="#0078D4" fill-rule="evenodd"/><text fill="#FFFFFF" font-family="Segoe UI,Segoe UI_MSFontService,sans-serif" font-weight="400" font-size="31" transform="translate(228.448 613)">Pattern/Scenario</text><path d="M661 201.7C661 173.699 683.724 151 711.754 151L1167.25 151C1195.28 151 1218 173.699 1218 201.7L1218 607.3C1218 635.301 1195.28 658 1167.25 658L711.754 658C683.724 658 661 635.301 661 607.3L661 201.7Z" fill="#CBD6EF" fill-rule="evenodd"/><text font-family="Segoe UI,Segoe UI_MSFontService,sans-serif" font-weight="400" font-size="59" transform="translate(755.498 245)">Azure DevOps</text><path d="M716.5 309.4C716.5 306.142 719.131 303.5 722.377 303.5L1156.62 303.5C1159.87 303.5 1162.5 306.142 1162.5 309.4L1162.5 356.6C1162.5 359.859 1159.87 362.5 1156.62 362.5L722.377 362.5C719.131 362.5 716.5 359.859 716.5 356.6L716.5 309.4Z" stroke="#FFFFFF" stroke-width="1.13333" stroke-linejoin="round" stroke-miterlimit="10" fill="#0078D4" fill-rule="evenodd"/><text fill="#FFFFFF" font-family="Segoe UI,Segoe UI_MSFontService,sans-serif" font-weight="400" font-size="31" transform="translate(867.102 342)">Area paths</text><path d="M716.5 377.3C716.5 374.097 719.131 371.5 722.377 371.5L1156.62 371.5C1159.87 371.5 1162.5 374.097 1162.5 377.3L1162.5 423.7C1162.5 426.903 1159.87 429.5 1156.62 429.5L722.377 429.5C719.131 429.5 716.5 426.903 716.5 423.7L716.5 377.3Z" stroke="#FFFFFF" stroke-width="1.13333" stroke-linejoin="round" stroke-miterlimit="10" fill="#0078D4" fill-rule="evenodd"/><text fill="#FFFFFF" font-family="Segoe UI,Segoe UI_MSFontService,sans-serif" font-weight="400" font-size="31" transform="translate(863.562 410)">Workshops</text><path d="M716.5 444.4C716.5 441.142 719.131 438.5 722.377 438.5L1156.62 438.5C1159.87 438.5 1162.5 441.142 1162.5 444.4L1162.5 491.6C1162.5 494.859 1159.87 497.5 1156.62 497.5L722.377 497.5C719.131 497.5 716.5 494.859 716.5 491.6L716.5 444.4Z" stroke="#FFFFFF" stroke-width="1.13333" stroke-linejoin="round" stroke-miterlimit="10" fill="#0078D4" fill-rule="evenodd"/><text fill="#FFFFFF" font-family="Segoe UI,Segoe UI_MSFontService,sans-serif" font-weight="400" font-size="31" transform="translate(905.028 477)">Epics</text><path d="M716.5 512.4C716.5 509.142 719.131 506.5 722.377 506.5L1156.62 506.5C1159.87 506.5 1162.5 509.142 1162.5 512.4L1162.5 559.6C1162.5 562.859 1159.87 565.5 1156.62 565.5L722.377 565.5C719.131 565.5 716.5 562.859 716.5 559.6L716.5 512.4Z" stroke="#FFFFFF" stroke-width="1.13333" stroke-linejoin="round" stroke-miterlimit="10" fill="#0078D4" fill-rule="evenodd"/><text fill="#FFFFFF" font-family="Segoe UI,Segoe UI_MSFontService,sans-serif" font-weight="400" font-size="31" transform="translate(882.315 545)">Features</text><path d="M716.5 580.4C716.5 577.142 719.131 574.5 722.377 574.5L1156.62 574.5C1159.87 574.5 1162.5 577.142 1162.5 580.4L1162.5 627.6C1162.5 630.859 1159.87 633.5 1156.62 633.5L722.377 633.5C719.131 633.5 716.5 630.859 716.5 627.6L716.5 580.4Z" stroke="#FFFFFF" stroke-width="1.13333" stroke-linejoin="round" stroke-miterlimit="10" fill="#0078D4" fill-rule="evenodd"/><text fill="#FFFFFF" font-family="Segoe UI,Segoe UI_MSFontService,sans-serif" font-weight="400" font-size="31" transform="translate(860.482 613)">User stories</text><path d="M567 386.75 685.5 386.75 685.5 372 715 401.5 685.5 431 685.5 416.25 567 416.25Z" fill="#0078D4" fill-rule="evenodd"/><path d="M566 315.75 684.5 315.75 684.5 301 714 330.5 684.5 360 684.5 345.25 566 345.25Z" fill="#0078D4" fill-rule="evenodd"/><path d="M566 457.5 685 457.5 685 443 714 472 685 501 685 486.5 566 486.5Z" fill="#0078D4" fill-rule="evenodd"/><path d="M567 520.75 685.5 520.75 685.5 506 715 535.5 685.5 565 685.5 550.25 567 550.25Z" fill="#0078D4" fill-rule="evenodd"/><path d="M567 583.75 685.5 583.75 685.5 569 715 598.5 685.5 628 685.5 613.25 567 613.25Z" fill="#0078D4" fill-rule="evenodd"/></g></svg>