<svg width="1280" height="720" xmlns="http://www.w3.org/2000/svg" xmlns:xlink="http://www.w3.org/1999/xlink" overflow="hidden"><g><rect x="0" y="0" width="1280" height="720" fill="#FFFFFF"/><text font-family="Segoe UI Semibold,Segoe UI Semibold_MSFontService,sans-serif" font-weight="600" font-size="48" transform="translate(61.7599 95)">Estimating projects</text><path d="M307.5 219 358.51 219 358.51 220 307.5 220ZM350.762 214.401 359.502 219.5 350.762 224.599C350.523 224.738 350.217 224.657 350.078 224.419 349.939 224.18 350.02 223.874 350.258 223.735L358.258 219.068 358.258 219.932 350.258 215.265C350.02 215.126 349.939 214.82 350.078 214.581 350.217 214.343 350.523 214.262 350.762 214.401Z" fill="#0072CA"/><path d="M70.5001 148.5 308.5 148.5 308.5 290.5 70.5001 290.5 70.5001 148.5Z" stroke="#FFFFFF" stroke-width="1.13333" stroke-linejoin="round" stroke-miterlimit="10" fill="#0078D4" fill-rule="evenodd" fill-opacity="0.901961"/><text fill="#FFFFFF" font-family="Segoe UI,Segoe UI_MSFontService,sans-serif" font-weight="400" font-size="29" transform="translate(121.79 213)">Define the</text><text fill="#FFFFFF" font-family="Segoe UI,Segoe UI_MSFontService,sans-serif" font-weight="400" font-size="29" transform="translate(119.416 245)">workshops</text><path d="M600.5 219 650.51 219 650.51 220 600.5 220ZM642.762 214.401 651.502 219.5 642.762 224.599C642.523 224.738 642.217 224.657 642.078 224.419 641.939 224.18 642.02 223.874 642.258 223.735L650.258 219.068 650.258 219.932 642.258 215.265C642.02 215.126 641.939 214.82 642.078 214.581 642.217 214.343 642.523 214.262 642.762 214.401Z" fill="#087BE2"/><path d="M362.5 148.5 600.5 148.5 600.5 290.5 362.5 290.5 362.5 148.5Z" stroke="#FFFFFF" stroke-width="1.13333" stroke-linejoin="round" stroke-miterlimit="10" fill="#0078D4" fill-rule="evenodd" fill-opacity="0.85098"/><text fill="#FFFFFF" font-family="Segoe UI,Segoe UI_MSFontService,sans-serif" font-weight="400" font-size="29" transform="translate(403.924 197)">Create work</text><text fill="#FFFFFF" font-family="Segoe UI,Segoe UI_MSFontService,sans-serif" font-weight="400" font-size="29" transform="translate(409.21 229)">breakdown</text><text fill="#FFFFFF" font-family="Segoe UI,Segoe UI_MSFontService,sans-serif" font-weight="400" font-size="29" transform="translate(423.77 260)">structure</text><path d="M892.5 219 942.51 219 942.51 220 892.5 220ZM934.762 214.401 943.502 219.5 934.762 224.599C934.523 224.738 934.217 224.657 934.078 224.419 933.939 224.18 934.02 223.874 934.258 223.735L942.258 219.068 942.258 219.932 934.258 215.265C934.02 215.126 933.939 214.82 934.078 214.581 934.217 214.343 934.523 214.262 934.762 214.401Z" fill="#1A83EF"/><path d="M654.5 148.5 892.5 148.5 892.5 290.5 654.5 290.5 654.5 148.5Z" stroke="#FFFFFF" stroke-width="1.13333" stroke-linejoin="round" stroke-miterlimit="10" fill="#0078D4" fill-rule="evenodd" fill-opacity="0.8"/><text fill="#FFFFFF" font-family="Segoe UI,Segoe UI_MSFontService,sans-serif" font-weight="400" font-size="29" transform="translate(724.204 213)">Identify</text><text fill="#FFFFFF" font-family="Segoe UI,Segoe UI_MSFontService,sans-serif" font-weight="400" font-size="29" transform="translate(695.804 245)">integrations</text><path d="M1066 290.5 1066 318.315C1066 318.591 1065.78 318.815 1065.5 318.815L189.5 318.815 190 318.315 190 341.51 189 341.51 189 318.315C189 318.039 189.224 317.815 189.5 317.815L1065.5 317.815 1065 318.315 1065 290.5ZM194.599 333.762 189.5 342.502 184.401 333.762C184.262 333.523 184.343 333.217 184.581 333.078 184.82 332.939 185.126 333.02 185.265 333.258L189.932 341.258 189.068 341.258 193.735 333.258C193.874 333.02 194.18 332.939 194.419 333.078 194.657 333.217 194.738 333.523 194.599 333.762Z" fill="#3F8DEA"/><path d="M947.5 148.5 1184.5 148.5 1184.5 290.5 947.5 290.5 947.5 148.5Z" stroke="#FFFFFF" stroke-width="1.13333" stroke-linejoin="round" stroke-miterlimit="10" fill="#0078D4" fill-rule="evenodd" fill-opacity="0.74902"/><text fill="#FFFFFF" font-family="Segoe UI,Segoe UI_MSFontService,sans-serif" font-weight="400" font-size="29" transform="translate(983.738 213)">Identify data</text><text fill="#FFFFFF" font-family="Segoe UI,Segoe UI_MSFontService,sans-serif" font-weight="400" font-size="29" transform="translate(996.224 245)">migrations</text><path d="M307.5 416.5 358.51 416.5 358.51 417.5 307.5 417.5ZM350.762 411.901 359.502 417 350.762 422.099C350.523 422.238 350.217 422.157 350.078 421.919 349.939 421.68 350.02 421.374 350.258 421.235L358.258 416.568 358.258 417.432 350.258 412.765C350.02 412.626 349.939 412.32 350.078 412.081 350.217 411.843 350.523 411.762 350.762 411.901Z" fill="#619AE7"/><path d="M70.5001 345.5 308.5 345.5 308.5 488.5 70.5001 488.5 70.5001 345.5Z" stroke="#FFFFFF" stroke-width="1.13333" stroke-linejoin="round" stroke-miterlimit="10" fill="#0078D4" fill-rule="evenodd" fill-opacity="0.701961"/><text fill="#FFFFFF" font-family="Segoe UI,Segoe UI_MSFontService,sans-serif" font-weight="400" font-size="29" transform="translate(104.8 410)">Identify gaps</text><text fill="#FFFFFF" font-family="Segoe UI,Segoe UI_MSFontService,sans-serif" font-weight="400" font-size="29" transform="translate(92.6998 442)">and t</text><text fill="#FFFFFF" font-family="Segoe UI,Segoe UI_MSFontService,sans-serif" font-weight="400" font-size="29" transform="translate(159.7 442)">-</text><text fill="#FFFFFF" font-family="Segoe UI,Segoe UI_MSFontService,sans-serif" font-weight="400" font-size="29" transform="translate(171.367 442)">shirt size</text><path d="M600.5 416.5 650.51 416.5 650.51 417.5 600.5 417.5ZM642.762 411.901 651.502 417 642.762 422.099C642.523 422.238 642.217 422.157 642.078 421.919 641.939 421.68 642.02 421.374 642.258 421.235L650.258 416.568 650.258 417.432 642.258 412.765C642.02 412.626 641.939 412.32 642.078 412.081 642.217 411.843 642.523 411.762 642.762 411.901Z" fill="#81A8E6"/><path d="M362.5 345.5 600.5 345.5 600.5 488.5 362.5 488.5 362.5 345.5Z" stroke="#FFFFFF" stroke-width="1.13333" stroke-linejoin="round" stroke-miterlimit="10" fill="#0078D4" fill-rule="evenodd" fill-opacity="0.65098"/><text fill="#FFFFFF" font-family="Segoe UI,Segoe UI_MSFontService,sans-serif" font-weight="400" font-size="29" transform="translate(393.187 410)">Estimate time</text><text fill="#FFFFFF" font-family="Segoe UI,Segoe UI_MSFontService,sans-serif" font-weight="400" font-size="29" transform="translate(429.74 442)">per task</text><path d="M892.5 416.5 942.51 416.5 942.51 417.5 892.5 417.5ZM934.762 411.901 943.502 417 934.762 422.099C934.523 422.238 934.217 422.157 934.078 421.919 933.939 421.68 934.02 421.374 934.258 421.235L942.258 416.568 942.258 417.432 934.258 412.765C934.02 412.626 933.939 412.32 934.078 412.081 934.217 411.843 934.523 411.762 934.762 411.901Z" fill="#9FB9E7"/><path d="M654.5 345.5 892.5 345.5 892.5 488.5 654.5 488.5 654.5 345.5Z" stroke="#FFFFFF" stroke-width="1.13333" stroke-linejoin="round" stroke-miterlimit="10" fill="#0078D4" fill-rule="evenodd" fill-opacity="0.6"/><text fill="#FFFFFF" font-family="Segoe UI,Segoe UI_MSFontService,sans-serif" font-weight="400" font-size="29" transform="translate(695.704 410)">Identify and</text><text fill="#FFFFFF" font-family="Segoe UI,Segoe UI_MSFontService,sans-serif" font-weight="400" font-size="29" transform="translate(679.244 442)">map resources</text><path d="M1066 487.5 1066 515.315C1066 515.591 1065.78 515.815 1065.5 515.815L189.5 515.815 190 515.315 190 538.51 189 538.51 189 515.315C189 515.039 189.224 514.815 189.5 514.815L1065.5 514.815 1065 515.315 1065 487.5ZM194.599 530.762 189.5 539.502 184.401 530.762C184.262 530.523 184.343 530.217 184.581 530.078 184.82 529.939 185.126 530.02 185.265 530.258L189.932 538.258 189.068 538.258 193.735 530.258C193.874 530.02 194.18 529.939 194.419 530.078 194.657 530.217 194.738 530.523 194.599 530.762Z" fill="#BCCBEB"/><path d="M947.5 345.5 1184.5 345.5 1184.5 488.5 947.5 488.5 947.5 345.5Z" stroke="#FFFFFF" stroke-width="1.13333" stroke-linejoin="round" stroke-miterlimit="10" fill="#0078D4" fill-rule="evenodd" fill-opacity="0.54902"/><text fill="#FFFFFF" font-family="Segoe UI,Segoe UI_MSFontService,sans-serif" font-weight="400" font-size="29" transform="translate(979.921 410)">Estimate cost</text><text fill="#FFFFFF" font-family="Segoe UI,Segoe UI_MSFontService,sans-serif" font-weight="400" font-size="29" transform="translate(978.861 442)">per resources</text><path d="M70.5001 542.5 308.5 542.5 308.5 685.5 70.5001 685.5 70.5001 542.5Z" stroke="#FFFFFF" stroke-width="1.13333" stroke-linejoin="round" stroke-miterlimit="10" fill="#0078D4" fill-rule="evenodd" fill-opacity="0.501961"/><text fill="#FFFFFF" font-family="Segoe UI,Segoe UI_MSFontService,sans-serif" font-weight="400" font-size="29" transform="translate(106.876 607)">Add time for</text><text fill="#FFFFFF" font-family="Segoe UI,Segoe UI_MSFontService,sans-serif" font-weight="400" font-size="29" transform="translate(95.8165 639)">standard tasks</text></g></svg>