<svg width="1280" height="720" xmlns="http://www.w3.org/2000/svg" xmlns:xlink="http://www.w3.org/1999/xlink" overflow="hidden"><g><rect x="0" y="0" width="1280" height="720" fill="#FFFFFF"/><path d="M213 138.1C213 123.133 225.133 111 240.1 111L456.9 111C471.867 111 484.001 123.133 484.001 138.1L484 652.9C484 667.867 471.867 680.001 456.9 680.001L240.1 680C225.133 680 213 667.867 213 652.9Z" fill="#CCD1D4" fill-rule="evenodd"/><text font-family="Segoe UI,Segoe UI_MSFontService,sans-serif" font-weight="400" font-size="43" transform="translate(280.561 211)">Header</text><path d="M238.5 253.2C238.5 250.604 240.604 248.5 243.2 248.5L450.8 248.5C453.396 248.5 455.5 250.604 455.5 253.2L455.5 290.8C455.5 293.396 453.396 295.5 450.8 295.5L243.2 295.5C240.604 295.5 238.5 293.396 238.5 290.8Z" stroke="#E6E6E6" stroke-width="1.13333" stroke-linejoin="round" stroke-miterlimit="10" fill="#0B5569" fill-rule="evenodd"/><text fill="#FFFFFF" font-family="Segoe UI,Segoe UI_MSFontService,sans-serif" font-weight="400" font-size="14" transform="translate(313.498 276)">Customers</text><path d="M238.5 307.2C238.5 304.604 240.604 302.5 243.2 302.5L450.8 302.5C453.396 302.5 455.5 304.604 455.5 307.2L455.5 344.8C455.5 347.396 453.396 349.5 450.8 349.5L243.2 349.5C240.604 349.5 238.5 347.396 238.5 344.8Z" stroke="#E6E6E6" stroke-width="1.13333" stroke-linejoin="round" stroke-miterlimit="10" fill="#0B5569" fill-rule="evenodd"/><text fill="#FFFFFF" font-family="Segoe UI,Segoe UI_MSFontService,sans-serif" font-weight="400" font-size="14" transform="translate(268.548 330)">Custom Project price lists</text><path d="M238.5 361.1C238.5 358.56 240.56 356.5 243.1 356.5L450.9 356.5C453.441 356.5 455.5 358.56 455.5 361.1L455.5 397.9C455.5 400.441 453.441 402.5 450.9 402.5L243.1 402.5C240.56 402.5 238.5 400.441 238.5 397.9Z" stroke="#E6E6E6" stroke-width="1.13333" stroke-linejoin="round" stroke-miterlimit="10" fill="#0B5569" fill-rule="evenodd"/><text fill="#FFFFFF" font-family="Segoe UI,Segoe UI_MSFontService,sans-serif" font-weight="400" font-size="14" transform="translate(291.701 384)">Product Price lists</text><path d="M238.5 415.1C238.5 412.56 240.56 410.5 243.1 410.5L450.9 410.5C453.441 410.5 455.5 412.56 455.5 415.1L455.5 451.9C455.5 454.441 453.441 456.5 450.9 456.5L243.1 456.5C240.56 456.5 238.5 454.441 238.5 451.9Z" stroke="#E6E6E6" stroke-width="1.13333" stroke-linejoin="round" stroke-miterlimit="10" fill="#0B5569" fill-rule="evenodd"/><text fill="#FFFFFF" font-family="Segoe UI,Segoe UI_MSFontService,sans-serif" font-weight="400" font-size="14" transform="translate(272.051 437)">Requested delivery date</text><path d="M238.5 468.2C238.5 465.604 240.604 463.5 243.2 463.5L450.8 463.5C453.396 463.5 455.5 465.604 455.5 468.2L455.5 505.8C455.5 508.396 453.396 510.5 450.8 510.5L243.2 510.5C240.604 510.5 238.5 508.396 238.5 505.8Z" stroke="#E6E6E6" stroke-width="1.13333" stroke-linejoin="round" stroke-miterlimit="10" fill="#0B5569" fill-rule="evenodd"/><text fill="#FFFFFF" font-family="Segoe UI,Segoe UI_MSFontService,sans-serif" font-weight="400" font-size="14" transform="translate(276.638 491)">Not</text><text fill="#FFFFFF" font-family="Segoe UI,Segoe UI_MSFontService,sans-serif" font-weight="400" font-size="14" transform="translate(303.891 491)">–</text><text fill="#FFFFFF" font-family="Segoe UI,Segoe UI_MSFontService,sans-serif" font-weight="400" font-size="14" transform="translate(314.724 491)">to</text><text fill="#FFFFFF" font-family="Segoe UI,Segoe UI_MSFontService,sans-serif" font-weight="400" font-size="14" transform="translate(331.504 491)">–</text><text fill="#FFFFFF" font-family="Segoe UI,Segoe UI_MSFontService,sans-serif" font-weight="400" font-size="14" transform="translate(342.338 491)">Exceed limit</text><path d="M238.5 522.2C238.5 519.604 240.604 517.5 243.2 517.5L450.8 517.5C453.396 517.5 455.5 519.604 455.5 522.2L455.5 559.8C455.5 562.396 453.396 564.5 450.8 564.5L243.2 564.5C240.604 564.5 238.5 562.396 238.5 559.8Z" stroke="#E6E6E6" stroke-width="1.13333" stroke-linejoin="round" stroke-miterlimit="10" fill="#0B5569" fill-rule="evenodd"/><text fill="#FFFFFF" font-family="Segoe UI,Segoe UI_MSFontService,sans-serif" font-weight="400" font-size="14" transform="translate(318.928 545)">Currency</text><path d="M238.5 576.1C238.5 573.56 240.56 571.5 243.1 571.5L450.9 571.5C453.441 571.5 455.5 573.56 455.5 576.1L455.5 612.9C455.5 615.441 453.441 617.5 450.9 617.5L243.1 617.5C240.56 617.5 238.5 615.44 238.5 612.9Z" stroke="#E6E6E6" stroke-width="1.13333" stroke-linejoin="round" stroke-miterlimit="10" fill="#0B5569" fill-rule="evenodd"/><text fill="#FFFFFF" font-family="Segoe UI,Segoe UI_MSFontService,sans-serif" font-weight="400" font-size="14" transform="translate(292.298 599)">Customer Budget</text><path d="M505 138C505 123.088 517.088 111 532 111L748 111C762.912 111 775 123.088 775 138L775 653C775 667.912 762.912 680 748 680L532 680C517.088 680 505 667.912 505 653Z" fill="#CCD1D4" fill-rule="evenodd"/><text font-family="Segoe UI,Segoe UI_MSFontService,sans-serif" font-weight="400" font-size="43" transform="translate(601.56 211)">Line</text><path d="M532.5 259.4C532.5 257.798 533.798 256.5 535.4 256.5L745.6 256.5C747.202 256.5 748.5 257.798 748.5 259.4L748.5 282.6C748.5 284.202 747.202 285.5 745.6 285.5L535.4 285.5C533.798 285.5 532.5 284.202 532.5 282.6Z" stroke="#E6E6E6" stroke-width="1.13333" stroke-linejoin="round" stroke-miterlimit="10" fill="#0B5569" fill-rule="evenodd"/><text fill="#FFFFFF" font-family="Segoe UI,Segoe UI_MSFontService,sans-serif" font-weight="400" font-size="13" transform="translate(608.727 275)">Customers</text><path d="M532.5 292.5C532.5 290.843 533.843 289.5 535.5 289.5L745.5 289.5C747.157 289.5 748.5 290.843 748.5 292.5L748.5 316.5C748.5 318.157 747.157 319.5 745.5 319.5L535.5 319.5C533.843 319.5 532.5 318.157 532.5 316.5Z" stroke="#E6E6E6" stroke-width="1.13333" stroke-linejoin="round" stroke-miterlimit="10" fill="#0B5569" fill-rule="evenodd"/><text fill="#FFFFFF" font-family="Segoe UI,Segoe UI_MSFontService,sans-serif" font-weight="400" font-size="13" transform="translate(596.86 309)">Billing Method</text><path d="M532.5 326.4C532.5 324.798 533.798 323.5 535.4 323.5L745.6 323.5C747.202 323.5 748.5 324.798 748.5 326.4L748.5 349.6C748.5 351.202 747.202 352.5 745.6 352.5L535.4 352.5C533.798 352.5 532.5 351.202 532.5 349.6Z" stroke="#E6E6E6" stroke-width="1.13333" stroke-linejoin="round" stroke-miterlimit="10" fill="#0B5569" fill-rule="evenodd"/><text fill="#FFFFFF" font-family="Segoe UI,Segoe UI_MSFontService,sans-serif" font-weight="400" font-size="13" transform="translate(619.603 343)">Project</text><path d="M532.5 361.6C532.5 359.336 534.336 357.5 536.6 357.5L744.4 357.5C746.664 357.5 748.5 359.336 748.5 361.6L748.5 394.4C748.5 396.664 746.664 398.5 744.4 398.5L536.6 398.5C534.336 398.5 532.5 396.664 532.5 394.4Z" stroke="#E6E6E6" stroke-width="1.13333" stroke-linejoin="round" stroke-miterlimit="10" fill="#0B5569" fill-rule="evenodd"/><text fill="#FFFFFF" font-family="Segoe UI,Segoe UI_MSFontService,sans-serif" font-weight="400" font-size="13" transform="translate(545.4 375)">Included Classes of Transactions</text><text fill="#FFFFFF" font-family="Segoe UI,Segoe UI_MSFontService,sans-serif" font-weight="400" font-size="13" transform="translate(612.453 391)">and tasks</text><path d="M532.5 597.4C532.5 595.798 533.798 594.5 535.4 594.5L745.6 594.5C747.202 594.5 748.5 595.798 748.5 597.4L748.5 620.6C748.5 622.202 747.202 623.5 745.6 623.5L535.4 623.5C533.798 623.5 532.5 622.202 532.5 620.6Z" stroke="#E6E6E6" stroke-width="1.13333" stroke-linejoin="round" stroke-miterlimit="10" fill="#0B5569" fill-rule="evenodd"/><text fill="#FFFFFF" font-family="Segoe UI,Segoe UI_MSFontService,sans-serif" font-weight="400" font-size="13" transform="translate(587.02 614)">Invoice Frequency</text><path d="M532.5 532.4C532.5 530.798 533.798 529.5 535.4 529.5L745.6 529.5C747.202 529.5 748.5 530.798 748.5 532.4L748.5 555.6C748.5 557.202 747.202 558.5 745.6 558.5L535.4 558.5C533.798 558.5 532.5 557.202 532.5 555.6Z" stroke="#E6E6E6" stroke-width="1.13333" stroke-linejoin="round" stroke-miterlimit="10" fill="#0B5569" fill-rule="evenodd"/><text fill="#FFFFFF" font-family="Segoe UI,Segoe UI_MSFontService,sans-serif" font-weight="400" font-size="13" transform="translate(587.833 548)">Invoice Schedules</text><path d="M532.5 465.5C532.5 463.843 533.843 462.5 535.5 462.5L745.5 462.5C747.157 462.5 748.5 463.843 748.5 465.5L748.5 489.5C748.5 491.157 747.157 492.5 745.5 492.5L535.5 492.5C533.843 492.5 532.5 491.157 532.5 489.5Z" stroke="#E6E6E6" stroke-width="1.13333" stroke-linejoin="round" stroke-miterlimit="10" fill="#0B5569" fill-rule="evenodd"/><text fill="#FFFFFF" font-family="Segoe UI,Segoe UI_MSFontService,sans-serif" font-weight="400" font-size="13" transform="translate(573.623 482)">Not</text><text fill="#FFFFFF" font-family="Segoe UI,Segoe UI_MSFontService,sans-serif" font-weight="400" font-size="13" transform="translate(599.583 482)">–</text><text fill="#FFFFFF" font-family="Segoe UI,Segoe UI_MSFontService,sans-serif" font-weight="400" font-size="13" transform="translate(609.903 482)">to</text><text fill="#FFFFFF" font-family="Segoe UI,Segoe UI_MSFontService,sans-serif" font-weight="400" font-size="13" transform="translate(625.89 482)">–</text><text fill="#FFFFFF" font-family="Segoe UI,Segoe UI_MSFontService,sans-serif" font-weight="400" font-size="13" transform="translate(636.21 482)">Exceed limit</text><path d="M532.5 499.4C532.5 497.798 533.798 496.5 535.4 496.5L745.6 496.5C747.202 496.5 748.5 497.798 748.5 499.4L748.5 522.6C748.5 524.202 747.202 525.5 745.6 525.5L535.4 525.5C533.798 525.5 532.5 524.202 532.5 522.6Z" stroke="#E6E6E6" stroke-width="1.13333" stroke-linejoin="round" stroke-miterlimit="10" fill="#0B5569" fill-rule="evenodd"/><text fill="#FFFFFF" font-family="Segoe UI,Segoe UI_MSFontService,sans-serif" font-weight="400" font-size="13" transform="translate(569.463 515)">Split Billing percentages</text><path d="M532.5 563.4C532.5 561.798 533.798 560.5 535.4 560.5L745.6 560.5C747.202 560.5 748.5 561.798 748.5 563.4L748.5 586.6C748.5 588.202 747.202 589.5 745.6 589.5L535.4 589.5C533.798 589.5 532.5 588.202 532.5 586.6Z" stroke="#E6E6E6" stroke-width="1.13333" stroke-linejoin="round" stroke-miterlimit="10" fill="#0B5569" fill-rule="evenodd"/><text fill="#FFFFFF" font-family="Segoe UI,Segoe UI_MSFontService,sans-serif" font-weight="400" font-size="13" transform="translate(588.537 580)">Customer Budget</text><path d="M532.5 410.9C532.5 407.918 534.918 405.5 537.9 405.5L743.1 405.5C746.082 405.5 748.5 407.918 748.5 410.9L748.5 454.1C748.5 457.082 746.082 459.5 743.1 459.5L537.9 459.5C534.918 459.5 532.5 457.082 532.5 454.1Z" stroke="#E6E6E6" stroke-width="1.13333" stroke-linejoin="round" stroke-miterlimit="10" fill="#0B5569" fill-rule="evenodd"/><text fill="#FFFFFF" font-family="Segoe UI,Segoe UI_MSFontService,sans-serif" font-weight="400" font-size="13" transform="translate(535.924 421)">Chargeable components</text><text fill="#FFFFFF" font-family="Segoe UI,Segoe UI_MSFontService,sans-serif" font-weight="400" font-size="11" transform="translate(535.924 440)">•</text><text fill="#FFFFFF" font-family="Segoe UI,Segoe UI_MSFontService,sans-serif" font-weight="400" font-size="11" transform="translate(541.924 440)">Roles</text><text fill="#FFFFFF" font-family="Segoe UI,Segoe UI_MSFontService,sans-serif" font-weight="400" font-size="11" transform="translate(535.924 455)">•</text><text fill="#FFFFFF" font-family="Segoe UI,Segoe UI_MSFontService,sans-serif" font-weight="400" font-size="11" transform="translate(541.924 455)">Categories</text><path d="M796 138.1C796 123.133 808.133 111 823.1 111L1039.9 111C1054.87 111 1067 123.133 1067 138.1L1067 652.9C1067 667.867 1054.87 680.001 1039.9 680.001L823.1 680C808.133 680 796 667.867 796 652.9Z" fill="#CCD1D4" fill-rule="evenodd"/><text font-family="Segoe UI,Segoe UI_MSFontService,sans-serif" font-weight="400" font-size="43" transform="translate(823.276 211)">Line Details</text><path d="M823.5 299.6C823.5 290.156 831.156 282.5 840.6 282.5L1022.4 282.5C1031.84 282.5 1039.5 290.156 1039.5 299.6L1039.5 436.4C1039.5 445.844 1031.84 453.5 1022.4 453.5L840.6 453.5C831.156 453.5 823.5 445.844 823.5 436.4Z" stroke="#E6E6E6" stroke-width="1.13333" stroke-linejoin="round" stroke-miterlimit="10" fill="#0B5569" fill-rule="evenodd"/><text fill="#FFFFFF" font-family="Segoe UI,Segoe UI_MSFontService,sans-serif" font-weight="400" font-size="32" transform="translate(899.649 378)">Cost</text><path d="M823.5 497.6C823.5 488.156 831.156 480.5 840.6 480.5L1022.4 480.5C1031.84 480.5 1039.5 488.156 1039.5 497.6L1039.5 634.4C1039.5 643.844 1031.84 651.5 1022.4 651.5L840.6 651.5C831.156 651.5 823.5 643.844 823.5 634.4Z" stroke="#E6E6E6" stroke-width="1.13333" stroke-linejoin="round" stroke-miterlimit="10" fill="#0B5569" fill-rule="evenodd"/><text fill="#FFFFFF" font-family="Segoe UI,Segoe UI_MSFontService,sans-serif" font-weight="400" font-size="32" transform="translate(895.472 576)">Sales</text><text font-family="Segoe UI Semibold,Segoe UI Semibold_MSFontService,sans-serif" font-weight="600" font-size="48" transform="translate(61.6 69)">Contracts: Structure &amp; Key concepts</text></g></svg>