<svg width="1280" height="720" xmlns="http://www.w3.org/2000/svg" xmlns:xlink="http://www.w3.org/1999/xlink" overflow="hidden"><defs><filter id="fx0" x="-10%" y="-10%" width="120%" height="120%" filterUnits="userSpaceOnUse" primitiveUnits="userSpaceOnUse"><feComponentTransfer color-interpolation-filters="sRGB"><feFuncR type="discrete" tableValues="0 0"/><feFuncG type="discrete" tableValues="0 0"/><feFuncB type="discrete" tableValues="0 0"/><feFuncA type="linear" slope="0.4" intercept="0"/></feComponentTransfer><feGaussianBlur stdDeviation="6.22222 6.22222"/></filter><filter id="fx1" x="-10%" y="-10%" width="120%" height="120%" filterUnits="userSpaceOnUse" primitiveUnits="userSpaceOnUse"><feComponentTransfer color-interpolation-filters="sRGB"><feFuncR type="discrete" tableValues="0 0"/><feFuncG type="discrete" tableValues="0 0"/><feFuncB type="discrete" tableValues="0 0"/><feFuncA type="linear" slope="0.4" intercept="0"/></feComponentTransfer><feGaussianBlur stdDeviation="6.22222 6.22222"/></filter><filter id="fx2" x="-10%" y="-10%" width="120%" height="120%" filterUnits="userSpaceOnUse" primitiveUnits="userSpaceOnUse"><feComponentTransfer color-interpolation-filters="sRGB"><feFuncR type="discrete" tableValues="0 0"/><feFuncG type="discrete" tableValues="0 0"/><feFuncB type="discrete" tableValues="0 0"/><feFuncA type="linear" slope="0.4" intercept="0"/></feComponentTransfer><feGaussianBlur stdDeviation="6.22222 6.22222"/></filter><filter id="fx3" x="-10%" y="-10%" width="120%" height="120%" filterUnits="userSpaceOnUse" primitiveUnits="userSpaceOnUse"><feComponentTransfer color-interpolation-filters="sRGB"><feFuncR type="discrete" tableValues="0 0"/><feFuncG type="discrete" tableValues="0 0"/><feFuncB type="discrete" tableValues="0 0"/><feFuncA type="linear" slope="0.4" intercept="0"/></feComponentTransfer><feGaussianBlur stdDeviation="6.22222 6.22222"/></filter><filter id="fx4" x="-10%" y="-10%" width="120%" height="120%" filterUnits="userSpaceOnUse" primitiveUnits="userSpaceOnUse"><feComponentTransfer color-interpolation-filters="sRGB"><feFuncR type="discrete" tableValues="0 0"/><feFuncG type="discrete" tableValues="0 0"/><feFuncB type="discrete" tableValues="0 0"/><feFuncA type="linear" slope="0.4" intercept="0"/></feComponentTransfer><feGaussianBlur stdDeviation="6.22222 6.22222"/></filter></defs><g><rect x="0" y="0" width="1280" height="720" fill="#FFFFFF"/><path d="M235.355 324.576 434.037 324.576 434.037 401.376 235.355 401.376Z" fill="#FFFFFF" fill-rule="evenodd"/><path d="M434.037 324.576 644.703 324.576 644.703 401.376 434.037 401.376Z" fill="#FFFFFF" fill-rule="evenodd"/><path d="M644.703 324.576 851.43 324.576 851.43 401.376 644.703 401.376Z" fill="#FFFFFF" fill-rule="evenodd"/><path d="M851.43 324.576 1053.79 324.576 1053.79 401.376 851.43 401.376Z" fill="#FFFFFF" fill-rule="evenodd"/><path d="M1053.79 324.576 1274.02 324.576 1274.02 401.376 1053.79 401.376Z" fill="#FFFFFF" fill-rule="evenodd"/><path d="M235.355 401.376 434.037 401.376 434.037 478.176 235.355 478.176Z" fill="#FFFFFF" fill-rule="evenodd"/><path d="M434.037 401.376 644.703 401.376 644.703 478.176 434.037 478.176Z" fill="#FFFFFF" fill-rule="evenodd"/><path d="M644.703 401.376 851.43 401.376 851.43 478.176 644.703 478.176Z" fill="#FFFFFF" fill-rule="evenodd"/><path d="M851.43 401.376 1053.79 401.376 1053.79 478.176 851.43 478.176Z" fill="#FFFFFF" fill-rule="evenodd"/><path d="M1053.79 401.376 1274.02 401.376 1274.02 478.176 1053.79 478.176Z" fill="#FFFFFF" fill-rule="evenodd"/><path d="M235.355 478.176 434.037 478.176 434.037 554.976 235.355 554.976Z" fill="#FFFFFF" fill-rule="evenodd"/><path d="M434.037 478.176 644.703 478.176 644.703 554.976 434.037 554.976Z" fill="#FFFFFF" fill-rule="evenodd"/><path d="M644.703 478.176 851.43 478.176 851.43 554.976 644.703 554.976Z" fill="#FFFFFF" fill-rule="evenodd"/><path d="M851.43 478.176 1053.79 478.176 1053.79 554.976 851.43 554.976Z" fill="#FFFFFF" fill-rule="evenodd"/><path d="M1053.79 478.176 1274.02 478.176 1274.02 554.976 1053.79 554.976Z" fill="#FFFFFF" fill-rule="evenodd"/><path d="M235.355 554.976 434.037 554.976 434.037 631.776 235.355 631.776Z" fill="#FFFFFF" fill-rule="evenodd"/><path d="M434.037 554.976 644.703 554.976 644.703 631.776 434.037 631.776Z" fill="#FFFFFF" fill-rule="evenodd"/><path d="M644.703 554.976 851.43 554.976 851.43 631.776 644.703 631.776Z" fill="#FFFFFF" fill-rule="evenodd"/><path d="M851.43 554.976 1053.79 554.976 1053.79 631.776 851.43 631.776Z" fill="#FFFFFF" fill-rule="evenodd"/><path d="M1053.79 554.976 1274.02 554.976 1274.02 631.776 1053.79 631.776Z" fill="#FFFFFF" fill-rule="evenodd"/><path d="M235.355 631.776 434.037 631.776 434.037 708.576 235.355 708.576Z" fill="#FFFFFF" fill-rule="evenodd"/><path d="M434.037 631.776 644.703 631.776 644.703 708.576 434.037 708.576Z" fill="#FFFFFF" fill-rule="evenodd"/><path d="M644.703 631.776 851.43 631.776 851.43 708.576 644.703 708.576Z" fill="#FFFFFF" fill-rule="evenodd"/><path d="M851.43 631.776 1053.79 631.776 1053.79 708.576 851.43 708.576Z" fill="#FFFFFF" fill-rule="evenodd"/><path d="M1053.79 631.776 1274.02 631.776 1274.02 708.576 1053.79 708.576Z" fill="#FFFFFF" fill-rule="evenodd"/><path d="M235.355 213.843 235.355 708.909" stroke="#000000" stroke-width="0.666667" stroke-linejoin="round" stroke-miterlimit="10" fill="none" fill-rule="evenodd"/><path d="M434.037 213.843 434.037 708.909" stroke="#000000" stroke-width="0.666667" stroke-linejoin="round" stroke-miterlimit="10" fill="none" fill-rule="evenodd"/><path d="M644.703 213.843 644.703 708.909" stroke="#000000" stroke-width="0.666667" stroke-linejoin="round" stroke-miterlimit="10" fill="none" fill-rule="evenodd"/><path d="M851.43 213.843 851.43 708.909" stroke="#000000" stroke-width="0.666667" stroke-linejoin="round" stroke-miterlimit="10" fill="none" fill-rule="evenodd"/><path d="M1053.79 213.843 1053.79 708.909" stroke="#000000" stroke-width="0.666667" stroke-linejoin="round" stroke-miterlimit="10" fill="none" fill-rule="evenodd"/><path d="M5.64241 324.576 1274.36 324.576" stroke="#000000" stroke-width="0.666667" stroke-linejoin="round" stroke-miterlimit="10" fill="none" fill-rule="evenodd"/><path d="M5.64241 401.376 1274.36 401.376" stroke="#000000" stroke-width="0.666667" stroke-linejoin="round" stroke-miterlimit="10" fill="none" fill-rule="evenodd"/><path d="M5.64241 478.176 1274.36 478.176" stroke="#000000" stroke-width="0.666667" stroke-linejoin="round" stroke-miterlimit="10" fill="none" fill-rule="evenodd"/><path d="M5.64241 554.976 1274.36 554.976" stroke="#000000" stroke-width="0.666667" stroke-linejoin="round" stroke-miterlimit="10" fill="none" fill-rule="evenodd"/><path d="M5.64241 631.776 1274.36 631.776" stroke="#000000" stroke-width="0.666667" stroke-linejoin="round" stroke-miterlimit="10" fill="none" fill-rule="evenodd"/><path d="M5.97575 213.843 5.97575 708.909" stroke="#000000" stroke-width="0.666667" stroke-linejoin="round" stroke-miterlimit="10" fill="none" fill-rule="evenodd"/><path d="M1274.02 213.843 1274.02 708.909" stroke="#000000" stroke-width="0.666667" stroke-linejoin="round" stroke-miterlimit="10" fill="none" fill-rule="evenodd"/><path d="M5.64241 214.176 1274.36 214.176" stroke="#000000" stroke-width="0.666667" stroke-linejoin="round" stroke-miterlimit="10" fill="none" fill-rule="evenodd"/><path d="M5.64241 708.576 1274.36 708.576" stroke="#000000" stroke-width="0.666667" stroke-linejoin="round" stroke-miterlimit="10" fill="none" fill-rule="evenodd"/><text font-family="Arial,Arial_MSFontService,sans-serif" font-weight="400" font-size="14" transform="translate(1063.39 233)">•</text><text font-family="Segoe UI,Segoe UI_MSFontService,sans-serif" font-weight="700" font-size="14" transform="translate(1075.39 233)">Process excellence is woven</text><text font-family="Segoe UI,Segoe UI_MSFontService,sans-serif" font-weight="700" font-size="14" transform="translate(1075.39 249)">into the fabric of the culture</text><text font-family="Arial,Arial_MSFontService,sans-serif" font-weight="400" font-size="14" transform="translate(1063.39 266)">•</text><text font-family="Segoe UI,Segoe UI_MSFontService,sans-serif" font-weight="700" font-size="14" transform="translate(1075.39 266)">Processes are managed in</text><text font-family="Segoe UI,Segoe UI_MSFontService,sans-serif" font-weight="700" font-size="14" transform="translate(1075.39 283)">real</text><text font-family="Segoe UI,Segoe UI_MSFontService,sans-serif" font-weight="700" font-size="14" transform="translate(1099.89 283)">-</text><text font-family="Segoe UI,Segoe UI_MSFontService,sans-serif" font-weight="700" font-size="14" transform="translate(1105.56 283)">time using (mostly) BI /</text><text font-family="Segoe UI,Segoe UI_MSFontService,sans-serif" font-weight="700" font-size="14" transform="translate(1075.39 300)">Predictive / AI+ML / self</text><text font-family="Segoe UI,Segoe UI_MSFontService,sans-serif" font-weight="700" font-size="14" transform="translate(1236.39 300)">-</text><text font-family="Segoe UI,Segoe UI_MSFontService,sans-serif" font-weight="700" font-size="14" transform="translate(1075.39 317)">healing</text><text font-family="Arial,Arial_MSFontService,sans-serif" font-weight="400" font-size="14" transform="translate(861.03 233)">•</text><text font-family="Segoe UI,Segoe UI_MSFontService,sans-serif" font-weight="700" font-size="14" transform="translate(873.03 233)">Performance</text><text font-family="Segoe UI,Segoe UI_MSFontService,sans-serif" font-weight="700" font-size="14" transform="translate(873.03 249)">management is</text><text font-family="Segoe UI,Segoe UI_MSFontService,sans-serif" font-weight="700" font-size="14" transform="translate(873.03 266)">embedded</text><text font-family="Arial,Arial_MSFontService,sans-serif" font-weight="400" font-size="14" transform="translate(861.03 283)">•</text><text font-family="Segoe UI,Segoe UI_MSFontService,sans-serif" font-weight="700" font-size="14" transform="translate(873.03 283)">Processes are continually</text><text font-family="Segoe UI,Segoe UI_MSFontService,sans-serif" font-weight="700" font-size="14" transform="translate(873.03 300)">improved &amp; automation</text><text font-family="Segoe UI,Segoe UI_MSFontService,sans-serif" font-weight="700" font-size="14" transform="translate(873.03 317)">is applied in key areas</text><text font-family="Arial,Arial_MSFontService,sans-serif" font-weight="400" font-size="14" transform="translate(654.303 233)">•</text><text font-family="Segoe UI,Segoe UI_MSFontService,sans-serif" font-weight="700" font-size="14" transform="translate(666.303 233)">Processes are understood,</text><text font-family="Segoe UI,Segoe UI_MSFontService,sans-serif" font-weight="700" font-size="14" transform="translate(666.303 249)">documented and</text><text font-family="Segoe UI,Segoe UI_MSFontService,sans-serif" font-weight="700" font-size="14" transform="translate(666.303 266)">published</text><text font-family="Arial,Arial_MSFontService,sans-serif" font-weight="400" font-size="14" transform="translate(654.303 283)">•</text><text font-family="Segoe UI,Segoe UI_MSFontService,sans-serif" font-weight="700" font-size="14" transform="translate(666.303 283)">Managing to metric</text><text font-family="Segoe UI,Segoe UI_MSFontService,sans-serif" font-weight="700" font-size="14" transform="translate(666.303 300)">targets is a standard</text><text font-family="Segoe UI,Segoe UI_MSFontService,sans-serif" font-weight="700" font-size="14" transform="translate(666.303 317)">rhythm</text><text font-family="Arial,Arial_MSFontService,sans-serif" font-weight="400" font-size="14" transform="translate(443.637 233)">•</text><text font-family="Segoe UI,Segoe UI_MSFontService,sans-serif" font-weight="700" font-size="14" transform="translate(455.637 233)">Process work is done in</text><text font-family="Segoe UI,Segoe UI_MSFontService,sans-serif" font-weight="700" font-size="14" transform="translate(455.637 249)">pockets, but inconsistently</text><text font-family="Segoe UI,Segoe UI_MSFontService,sans-serif" font-weight="700" font-size="14" transform="translate(455.637 266)">across teams</text><text font-family="Arial,Arial_MSFontService,sans-serif" font-weight="400" font-size="14" transform="translate(443.637 283)">•</text><text font-family="Segoe UI,Segoe UI_MSFontService,sans-serif" font-weight="700" font-size="14" transform="translate(455.637 283)">Individual SME’s hold</text><text font-family="Segoe UI,Segoe UI_MSFontService,sans-serif" font-weight="700" font-size="14" transform="translate(455.637 300)">process knowledge and it</text><text font-family="Segoe UI,Segoe UI_MSFontService,sans-serif" font-weight="700" font-size="14" transform="translate(455.637 317)">is shared within team</text><text font-family="Arial,Arial_MSFontService,sans-serif" font-weight="400" font-size="14" transform="translate(244.955 241)">•</text><text font-family="Segoe UI,Segoe UI_MSFontService,sans-serif" font-weight="700" font-size="14" transform="translate(256.955 241)">Processes are manual,</text><text font-family="Segoe UI,Segoe UI_MSFontService,sans-serif" font-weight="700" font-size="14" transform="translate(256.955 257)">largely undefined</text><text font-family="Arial,Arial_MSFontService,sans-serif" font-weight="400" font-size="14" transform="translate(244.955 274)">•</text><text font-family="Segoe UI,Segoe UI_MSFontService,sans-serif" font-weight="700" font-size="14" transform="translate(256.955 274)">Process metrics are</text><text font-family="Segoe UI,Segoe UI_MSFontService,sans-serif" font-weight="700" font-size="14" transform="translate(256.955 291)">poorly understood or</text><text font-family="Segoe UI,Segoe UI_MSFontService,sans-serif" font-weight="700" font-size="14" transform="translate(256.955 308)">undefined</text><text font-family="Arial,Arial_MSFontService,sans-serif" font-weight="400" font-size="14" transform="translate(1063.39 369)">•</text><text font-family="Segoe UI,Segoe UI_MSFontService,sans-serif" font-weight="400" font-size="14" transform="translate(1075.39 369)">Process</text><text font-family="Segoe UI,Segoe UI_MSFontService,sans-serif" font-weight="400" font-size="14" transform="translate(1122.06 369)">-</text><text font-family="Segoe UI,Segoe UI_MSFontService,sans-serif" font-weight="400" font-size="14" transform="translate(1127.73 369)">centric</text><text font-family="Arial,Arial_MSFontService,sans-serif" font-weight="400" font-size="14" transform="translate(861.03 352)">•</text><text font-family="Segoe UI,Segoe UI_MSFontService,sans-serif" font-weight="400" font-size="14" transform="translate(873.03 352)">Strategic alignment of</text><text font-family="Segoe UI,Segoe UI_MSFontService,sans-serif" font-weight="400" font-size="14" transform="translate(873.03 368)">process performance to</text><text font-family="Segoe UI,Segoe UI_MSFontService,sans-serif" font-weight="400" font-size="14" transform="translate(873.03 385)">LOB and Corp goals</text><text font-family="Arial,Arial_MSFontService,sans-serif" font-weight="400" font-size="14" transform="translate(654.303 343)">•</text><text font-family="Segoe UI,Segoe UI_MSFontService,sans-serif" font-weight="400" font-size="14" transform="translate(666.303 343)">Established</text><text font-family="Segoe UI,Segoe UI_MSFontService,sans-serif" font-weight="400" font-size="14" transform="translate(739.303 343)">CoE</text><text font-family="Segoe UI,Segoe UI_MSFontService,sans-serif" font-weight="400" font-size="14" transform="translate(766.97 343)">or hub and</text><text font-family="Segoe UI,Segoe UI_MSFontService,sans-serif" font-weight="400" font-size="14" transform="translate(666.303 359)">spoke</text><text font-family="Arial,Arial_MSFontService,sans-serif" font-weight="400" font-size="14" transform="translate(654.303 376)">•</text><g><text font-family="Segoe UI,Segoe UI_MSFontService,sans-serif" font-weight="400" font-size="14" transform="translate(666.303 376)">Process ownership structure</text></g><text font-family="Segoe UI,Segoe UI_MSFontService,sans-serif" font-weight="400" font-size="14" transform="translate(666.303 393)">and process established</text><text font-family="Arial,Arial_MSFontService,sans-serif" font-weight="400" font-size="14" transform="translate(443.637 369)">•</text><text font-family="Segoe UI,Segoe UI_MSFontService,sans-serif" font-weight="400" font-size="14" transform="translate(455.637 369)">Isolated champions</text><text font-family="Arial,Arial_MSFontService,sans-serif" font-weight="400" font-size="14" transform="translate(244.955 369)">•</text><text font-family="Segoe UI,Segoe UI_MSFontService,sans-serif" font-weight="400" font-size="14" transform="translate(256.955 369)">Functional hierarchy / silos</text><text font-family="Segoe UI,Segoe UI_MSFontService,sans-serif" font-weight="700" font-size="16" transform="translate(15.5757 369)">Organization &amp; Governance</text><text font-family="Arial,Arial_MSFontService,sans-serif" font-weight="400" font-size="14" transform="translate(1063.39 420)">•</text><text font-family="Segoe UI,Segoe UI_MSFontService,sans-serif" font-weight="400" font-size="14" transform="translate(1075.39 420)">Baseline process skills are</text><text font-family="Segoe UI,Segoe UI_MSFontService,sans-serif" font-weight="400" font-size="14" transform="translate(1075.39 436)">required for all roles</text><text font-family="Arial,Arial_MSFontService,sans-serif" font-weight="400" font-size="14" transform="translate(1063.39 453)">•</text><text font-family="Segoe UI,Segoe UI_MSFontService,sans-serif" font-weight="400" font-size="14" transform="translate(1075.39 453)">Advanced process skills are</text><text font-family="Segoe UI,Segoe UI_MSFontService,sans-serif" font-weight="400" font-size="14" transform="translate(1075.39 470)">required for many roles</text><text font-family="Arial,Arial_MSFontService,sans-serif" font-weight="400" font-size="14" transform="translate(861.03 437)">•</text><text font-family="Segoe UI,Segoe UI_MSFontService,sans-serif" font-weight="400" font-size="14" transform="translate(873.03 437)">Baseline process skills are</text><text font-family="Segoe UI,Segoe UI_MSFontService,sans-serif" font-weight="400" font-size="14" transform="translate(873.03 453)">required for all roles</text><text font-family="Arial,Arial_MSFontService,sans-serif" font-weight="400" font-size="14" transform="translate(654.303 429)">•</text><text font-family="Segoe UI,Segoe UI_MSFontService,sans-serif" font-weight="400" font-size="14" transform="translate(666.303 429)">Process skills present in</text><text font-family="Segoe UI,Segoe UI_MSFontService,sans-serif" font-weight="400" font-size="14" transform="translate(666.303 445)">roles designed for process</text><text font-family="Segoe UI,Segoe UI_MSFontService,sans-serif" font-weight="400" font-size="14" transform="translate(666.303 462)">improvement</text><text font-family="Arial,Arial_MSFontService,sans-serif" font-weight="400" font-size="14" transform="translate(443.637 437)">•</text><text font-family="Segoe UI,Segoe UI_MSFontService,sans-serif" font-weight="400" font-size="14" transform="translate(455.637 437)">Awareness that there are</text><text font-family="Segoe UI,Segoe UI_MSFontService,sans-serif" font-weight="400" font-size="14" transform="translate(455.637 453)">gaps in skills</text><text font-family="Arial,Arial_MSFontService,sans-serif" font-weight="400" font-size="14" transform="translate(244.955 445)">•</text><text font-family="Segoe UI,Segoe UI_MSFontService,sans-serif" font-weight="400" font-size="14" transform="translate(256.955 445)">Isolated</text><text font-family="Segoe UI,Segoe UI_MSFontService,sans-serif" font-weight="700" font-size="16" transform="translate(15.5757 446)">Process Competencies</text><text font-family="Arial,Arial_MSFontService,sans-serif" font-weight="400" font-size="14" transform="translate(1063.39 514)">•</text><text font-family="Segoe UI,Segoe UI_MSFontService,sans-serif" font-weight="400" font-size="14" transform="translate(1075.39 514)">Sets standards globally /</text><text font-family="Segoe UI,Segoe UI_MSFontService,sans-serif" font-weight="400" font-size="14" transform="translate(1075.39 530)">benchmarked as world class</text><text font-family="Arial,Arial_MSFontService,sans-serif" font-weight="400" font-size="14" transform="translate(861.03 497)">•</text><text font-family="Segoe UI,Segoe UI_MSFontService,sans-serif" font-weight="400" font-size="14" transform="translate(873.03 497)">Breadth and depth</text><text font-family="Segoe UI,Segoe UI_MSFontService,sans-serif" font-weight="400" font-size="14" transform="translate(873.03 513)">achieved across most</text><text font-family="Segoe UI,Segoe UI_MSFontService,sans-serif" font-weight="400" font-size="14" transform="translate(873.03 530)">common and appropriate</text><text font-family="Segoe UI,Segoe UI_MSFontService,sans-serif" font-weight="400" font-size="14" transform="translate(873.03 547)">methods</text><text font-family="Arial,Arial_MSFontService,sans-serif" font-weight="400" font-size="14" transform="translate(654.303 505)">•</text><text font-family="Segoe UI,Segoe UI_MSFontService,sans-serif" font-weight="400" font-size="14" transform="translate(666.303 505)">Standard methods</text><text font-family="Segoe UI,Segoe UI_MSFontService,sans-serif" font-weight="400" font-size="14" transform="translate(783.97 505)">–</text><text font-family="Segoe UI,Segoe UI_MSFontService,sans-serif" font-weight="400" font-size="14" transform="translate(666.303 521)">breadth of methods used,</text><text font-family="Segoe UI,Segoe UI_MSFontService,sans-serif" font-weight="400" font-size="14" transform="translate(666.303 538)">deep expertise in a few</text><text font-family="Arial,Arial_MSFontService,sans-serif" font-weight="400" font-size="14" transform="translate(443.637 522)">•</text><text font-family="Segoe UI,Segoe UI_MSFontService,sans-serif" font-weight="400" font-size="14" transform="translate(455.637 522)">Ad hoc, inconsistent</text><text font-family="Arial,Arial_MSFontService,sans-serif" font-weight="400" font-size="14" transform="translate(244.955 522)">•</text><text font-family="Segoe UI,Segoe UI_MSFontService,sans-serif" font-weight="400" font-size="14" transform="translate(256.955 522)">Nothing defined</text><text font-family="Segoe UI,Segoe UI_MSFontService,sans-serif" font-weight="700" font-size="16" transform="translate(15.5757 523)">Methodologies</text><text font-family="Arial,Arial_MSFontService,sans-serif" font-weight="400" font-size="14" transform="translate(1063.39 591)">•</text><text font-family="Segoe UI,Segoe UI_MSFontService,sans-serif" font-weight="400" font-size="14" transform="translate(1075.39 591)">Leaders in self</text><text font-family="Segoe UI,Segoe UI_MSFontService,sans-serif" font-weight="400" font-size="14" transform="translate(1162.89 591)">-</text><text font-family="Segoe UI,Segoe UI_MSFontService,sans-serif" font-weight="400" font-size="14" transform="translate(1168.56 591)">healing,</text><text font-family="Segoe UI,Segoe UI_MSFontService,sans-serif" font-weight="400" font-size="14" transform="translate(1075.39 607)">learning process ecosystems</text><text font-family="Arial,Arial_MSFontService,sans-serif" font-weight="400" font-size="14" transform="translate(861.03 574)">•</text><text font-family="Segoe UI,Segoe UI_MSFontService,sans-serif" font-weight="400" font-size="14" transform="translate(873.03 574)">Digital automation toolset</text><text font-family="Arial,Arial_MSFontService,sans-serif" font-weight="400" font-size="14" transform="translate(861.03 590)">•</text><text font-family="Segoe UI,Segoe UI_MSFontService,sans-serif" font-weight="400" font-size="14" transform="translate(873.03 590)">Analysis and dashboard</text><text font-family="Segoe UI,Segoe UI_MSFontService,sans-serif" font-weight="400" font-size="14" transform="translate(873.03 607)">reporting with current data</text><text font-family="Segoe UI,Segoe UI_MSFontService,sans-serif" font-weight="400" font-size="14" transform="translate(873.03 624)">by process</text><text font-family="Arial,Arial_MSFontService,sans-serif" font-weight="400" font-size="14" transform="translate(654.303 574)">•</text><text font-family="Segoe UI,Segoe UI_MSFontService,sans-serif" font-weight="400" font-size="14" transform="translate(666.303 574)">Common process analysis</text><text font-family="Segoe UI,Segoe UI_MSFontService,sans-serif" font-weight="400" font-size="14" transform="translate(666.303 590)">and design tool</text><text font-family="Arial,Arial_MSFontService,sans-serif" font-weight="400" font-size="14" transform="translate(654.303 607)">•</text><text font-family="Segoe UI,Segoe UI_MSFontService,sans-serif" font-weight="400" font-size="14" transform="translate(666.303 607)">Coordinated, E2E</text><text font-family="Segoe UI,Segoe UI_MSFontService,sans-serif" font-weight="400" font-size="14" transform="translate(666.303 624)">Architecture</text><text font-family="Arial,Arial_MSFontService,sans-serif" font-weight="400" font-size="14" transform="translate(443.637 574)">•</text><text font-family="Segoe UI,Segoe UI_MSFontService,sans-serif" font-weight="400" font-size="14" transform="translate(455.637 574)">E2E arch across silos is a</text><text font-family="Segoe UI,Segoe UI_MSFontService,sans-serif" font-weight="400" font-size="14" transform="translate(455.637 590)">desire, but not a reality</text><text font-family="Arial,Arial_MSFontService,sans-serif" font-weight="400" font-size="14" transform="translate(443.637 607)">•</text><text font-family="Segoe UI,Segoe UI_MSFontService,sans-serif" font-weight="400" font-size="14" transform="translate(455.637 607)">No standardization of tools</text><text font-family="Segoe UI,Segoe UI_MSFontService,sans-serif" font-weight="400" font-size="14" transform="translate(455.637 624)">use</text><text font-family="Arial,Arial_MSFontService,sans-serif" font-weight="400" font-size="14" transform="translate(244.955 574)">•</text><text font-family="Segoe UI,Segoe UI_MSFontService,sans-serif" font-weight="400" font-size="14" transform="translate(256.955 574)">No process architecture</text><text font-family="Segoe UI,Segoe UI_MSFontService,sans-serif" font-weight="400" font-size="14" transform="translate(256.955 590)">defined</text><text font-family="Arial,Arial_MSFontService,sans-serif" font-weight="400" font-size="14" transform="translate(244.955 607)">•</text><text font-family="Segoe UI,Segoe UI_MSFontService,sans-serif" font-weight="400" font-size="14" transform="translate(256.955 607)">Tools used are</text><text font-family="Segoe UI,Segoe UI_MSFontService,sans-serif" font-weight="400" font-size="14" transform="translate(256.955 624)">rudimentary</text><text font-family="Segoe UI,Segoe UI_MSFontService,sans-serif" font-weight="700" font-size="16" transform="translate(15.5757 600)">Technology &amp; Architecture</text><text font-family="Arial,Arial_MSFontService,sans-serif" font-weight="400" font-size="14" transform="translate(1063.39 659)">•</text><text font-family="Segoe UI,Segoe UI_MSFontService,sans-serif" font-weight="400" font-size="14" transform="translate(1075.39 659)">Predictive analytics and event</text><text font-family="Segoe UI,Segoe UI_MSFontService,sans-serif" font-weight="400" font-size="14" transform="translate(1075.39 675)">sensing trigger need for</text><text font-family="Segoe UI,Segoe UI_MSFontService,sans-serif" font-weight="400" font-size="14" transform="translate(1075.39 692)">optimization</text><text font-family="Arial,Arial_MSFontService,sans-serif" font-weight="400" font-size="14" transform="translate(861.03 651)">•</text><text font-family="Segoe UI,Segoe UI_MSFontService,sans-serif" font-weight="400" font-size="14" transform="translate(873.03 651)">Process performance is</text><g><text font-family="Segoe UI,Segoe UI_MSFontService,sans-serif" font-weight="400" font-size="14" transform="translate(873.03 667)">managed and tightly linked</text></g><text font-family="Segoe UI,Segoe UI_MSFontService,sans-serif" font-weight="400" font-size="14" transform="translate(873.03 684)">from line</text><text font-family="Segoe UI,Segoe UI_MSFontService,sans-serif" font-weight="400" font-size="14" transform="translate(928.197 684)">-</text><text font-family="Segoe UI,Segoe UI_MSFontService,sans-serif" font-weight="400" font-size="14" transform="translate(933.864 684)">worker tasks</text><text font-family="Segoe UI,Segoe UI_MSFontService,sans-serif" font-weight="400" font-size="14" transform="translate(873.03 701)">directly to Corp KPI’s</text><text font-family="Arial,Arial_MSFontService,sans-serif" font-weight="400" font-size="14" transform="translate(654.303 659)">•</text><g><text font-family="Segoe UI,Segoe UI_MSFontService,sans-serif" font-weight="400" font-size="14" transform="translate(666.303 659)">Processes are measured and</text></g><g><text font-family="Segoe UI,Segoe UI_MSFontService,sans-serif" font-weight="400" font-size="14" transform="translate(666.303 675)">improvement efforts directly</text></g><text font-family="Segoe UI,Segoe UI_MSFontService,sans-serif" font-weight="400" font-size="14" transform="translate(666.303 692)">impact performance targets</text><text font-family="Arial,Arial_MSFontService,sans-serif" font-weight="400" font-size="14" transform="translate(443.637 651)">•</text><text font-family="Segoe UI,Segoe UI_MSFontService,sans-serif" font-weight="400" font-size="14" transform="translate(455.637 651)">A few process areas are</text><text font-family="Segoe UI,Segoe UI_MSFontService,sans-serif" font-weight="400" font-size="14" transform="translate(455.637 667)">actively working to improve</text><text font-family="Segoe UI,Segoe UI_MSFontService,sans-serif" font-weight="400" font-size="14" transform="translate(455.637 684)">processes but don’t have a</text><text font-family="Segoe UI,Segoe UI_MSFontService,sans-serif" font-weight="400" font-size="14" transform="translate(455.637 701)">way to show causality</text><text font-family="Arial,Arial_MSFontService,sans-serif" font-weight="400" font-size="14" transform="translate(244.955 651)">•</text><text font-family="Segoe UI,Segoe UI_MSFontService,sans-serif" font-weight="400" font-size="14" transform="translate(256.955 651)">Business tracks</text><text font-family="Segoe UI,Segoe UI_MSFontService,sans-serif" font-weight="400" font-size="14" transform="translate(256.955 667)">performance</text><text font-family="Segoe UI,Segoe UI_MSFontService,sans-serif" font-weight="400" font-size="14" transform="translate(256.955 684)">independently to process</text><text font-family="Segoe UI,Segoe UI_MSFontService,sans-serif" font-weight="400" font-size="14" transform="translate(256.955 701)">performance</text><text font-family="Segoe UI,Segoe UI_MSFontService,sans-serif" font-weight="700" font-size="16" transform="translate(15.5757 667)">Performance Management</text><text font-family="Segoe UI,Segoe UI_MSFontService,sans-serif" font-weight="700" font-size="16" transform="translate(15.5757 686)">/ Metrics</text><text fill="#C00000" font-family="Calibri,Calibri_MSFontService,sans-serif" font-weight="700" font-size="24" transform="translate(312.074 182)">Initial</text><text fill="#C00000" font-family="Calibri,Calibri_MSFontService,sans-serif" font-weight="700" font-size="24" transform="translate(476.682 184)">Coordinated</text><text fill="#C00000" font-family="Calibri,Calibri_MSFontService,sans-serif" font-weight="700" font-size="24" transform="translate(701.763 184)">Managed</text><text fill="#C00000" font-family="Calibri,Calibri_MSFontService,sans-serif" font-weight="700" font-size="24" transform="translate(895.681 183)">Goal</text><text fill="#C00000" font-family="Calibri,Calibri_MSFontService,sans-serif" font-weight="700" font-size="24" transform="translate(941.514 183)">-</text><text fill="#C00000" font-family="Calibri,Calibri_MSFontService,sans-serif" font-weight="700" font-size="24" transform="translate(948.848 183)">Driven</text><text fill="#C00000" font-family="Calibri,Calibri_MSFontService,sans-serif" font-weight="700" font-size="24" transform="translate(1107.1 184)">Optimizing</text><text fill="#4C4D4C" font-family="Segoe UI,Segoe UI_MSFontService,sans-serif" font-weight="400" font-size="40" transform="translate(11.8046 45)">Microsoft’s Process Maturity Model Sample</text><text font-family="Calibri,Calibri_MSFontService,sans-serif" font-style="italic" font-weight="400" font-size="24" transform="translate(16.6578 114)">Where are we</text><text font-family="Calibri,Calibri_MSFontService,sans-serif" font-style="italic" font-weight="400" font-size="24" transform="translate(16.6578 143)">today and what’s</text><text font-family="Calibri,Calibri_MSFontService,sans-serif" font-style="italic" font-weight="400" font-size="24" transform="translate(16.6578 172)">the aspiration?</text><path d="M469.593 89.9346C461.777 96.6536 453.96 103.373 445.756 106.884 437.551 110.394 427.993 110.535 420.365 111 412.737 111.465 401.584 111.477 399.988 109.673 398.393 107.868 406.229 100.664 410.794 100.173 415.36 99.6829 421.909 103.926 427.383 106.731 432.856 109.536 439.033 115.113 443.635 117.004 448.237 118.894 452.005 118.34 454.993 118.073 457.981 117.807 458.537 117.761 461.564 115.405 464.59 113.05 470.717 108.073 473.15 103.942 475.583 99.8106 476.385 92.0531 476.163 90.619 475.941 89.1848 471.262 92.5896 471.818 95.3369 472.373 98.0842 480.017 103.559 479.495 107.103 478.974 110.647 474.221 114.877 468.69 116.602 463.158 118.327 453.211 118.891 446.307 117.453 439.404 116.014 434.879 108.828 427.271 107.969 419.662 107.11 399.524 110.922 400.655 112.299 401.787 113.677 423.555 116.844 434.059 116.234 444.564 115.623 454.792 109.728 463.683 108.637 472.573 107.546 487.4 109.688 487.4 109.688 491.316 109.717 489.247 109.265 487.178 108.812" stroke="#A6A6A6" stroke-width="1.13333" stroke-linejoin="round" stroke-miterlimit="10" fill="none" fill-rule="evenodd"/><g filter="url(#fx0)" transform="translate(1090 41)"><g><path d="M24.1801 62.5C24.1801 41.3751 42.9035 24.25 66.0001 24.25 89.0966 24.25 107.82 41.3751 107.82 62.5 107.82 83.6249 89.0966 100.75 66.0001 100.75 42.9035 100.75 24.1801 83.6249 24.1801 62.5Z" stroke="#83BD0A" stroke-width="8" stroke-linejoin="round" stroke-miterlimit="10" fill="none" fill-rule="evenodd"/></g></g><path d="M1115 103.5C1115 82.7893 1133.36 66 1156 66 1178.64 66 1197 82.7893 1197 103.5 1197 124.211 1178.64 141 1156 141 1133.36 141 1115 124.211 1115 103.5Z" stroke="#83BD0A" stroke-width="8" stroke-linejoin="round" stroke-miterlimit="10" fill="none" fill-rule="evenodd"/><g filter="url(#fx1)" transform="translate(900 45)"><g><path d="M24.18 62.5C24.18 41.3751 42.9034 24.25 66 24.25 89.0965 24.25 107.82 41.3751 107.82 62.5 107.82 83.6249 89.0965 100.75 66 100.75 42.9034 100.75 24.18 83.6249 24.18 62.5Z" stroke="#FFD400" stroke-width="8" stroke-linejoin="round" stroke-miterlimit="10" fill="none" fill-rule="evenodd"/></g></g><path d="M925 107.5C925 86.7893 943.356 70 966 70 988.644 70 1007 86.7893 1007 107.5 1007 128.211 988.644 145 966 145 943.356 145 925 128.211 925 107.5Z" stroke="#FFD400" stroke-width="8" stroke-linejoin="round" stroke-miterlimit="10" fill="none" fill-rule="evenodd"/><g filter="url(#fx2)" transform="translate(696 39)"><g><path d="M24.18 62.5C24.18 41.3751 42.9034 24.25 66 24.25 89.0965 24.25 107.82 41.3751 107.82 62.5 107.82 83.6249 89.0965 100.75 66 100.75 42.9034 100.75 24.18 83.6249 24.18 62.5Z" stroke="#FB8D08" stroke-width="8" stroke-linejoin="round" stroke-miterlimit="10" fill="none" fill-rule="evenodd"/></g></g><path d="M721 101.5C721 80.7893 739.356 64 762 64 784.644 64 803 80.7893 803 101.5 803 122.211 784.644 139 762 139 739.356 139 721 122.211 721 101.5Z" stroke="#FB8D08" stroke-width="8" stroke-linejoin="round" stroke-miterlimit="10" fill="none" fill-rule="evenodd"/><g filter="url(#fx3)" transform="translate(485 44)"><g><path d="M24.19 62.5C24.19 41.3751 42.6851 24.25 65.5 24.25 88.3149 24.25 106.81 41.3751 106.81 62.5 106.81 83.6249 88.3149 100.75 65.5 100.75 42.6851 100.75 24.19 83.6249 24.19 62.5Z" stroke="#A00708" stroke-width="8" stroke-linejoin="round" stroke-miterlimit="10" fill="none" fill-rule="evenodd"/></g></g><path d="M510 106.5C510 85.7893 528.132 69 550.5 69 572.868 69 591 85.7893 591 106.5 591 127.211 572.868 144 550.5 144 528.132 144 510 127.211 510 106.5Z" stroke="#A00708" stroke-width="8" stroke-linejoin="round" stroke-miterlimit="10" fill="none" fill-rule="evenodd"/><g filter="url(#fx4)" transform="translate(270 44)"><g><path d="M24.18 62.5C24.18 41.3751 42.9034 24.25 66 24.25 89.0965 24.25 107.82 41.3751 107.82 62.5 107.82 83.6249 89.0965 100.75 66 100.75 42.9034 100.75 24.18 83.6249 24.18 62.5Z" stroke="#9B1C60" stroke-width="8" stroke-linejoin="round" stroke-miterlimit="10" fill="none" fill-rule="evenodd"/></g></g><path d="M295 106.5C295 85.7893 313.356 69 336 69 358.644 69 377 85.7893 377 106.5 377 127.211 358.644 144 336 144 313.356 144 295 127.211 295 106.5Z" stroke="#9B1C60" stroke-width="8" stroke-linejoin="round" stroke-miterlimit="10" fill="none" fill-rule="evenodd"/><text font-family="Calibri,Calibri_MSFontService,sans-serif" font-weight="700" font-size="27" transform="translate(326.392 116)">1</text><text font-family="Calibri,Calibri_MSFontService,sans-serif" font-weight="700" font-size="27" transform="translate(545.169 116)">2</text><text font-family="Calibri,Calibri_MSFontService,sans-serif" font-weight="700" font-size="27" transform="translate(755.861 111)">3</text><text font-family="Calibri,Calibri_MSFontService,sans-serif" font-weight="700" font-size="27" transform="translate(958.145 118)">4</text><text font-family="Calibri,Calibri_MSFontService,sans-serif" font-weight="700" font-size="27" transform="translate(1151.52 114)">5</text><path d="M678.588 89.9346C670.771 96.6536 662.955 103.373 654.75 106.884 646.545 110.394 636.987 110.535 629.36 111 621.732 111.465 610.578 111.477 608.983 109.673 607.388 107.868 615.223 100.664 619.789 100.173 624.354 99.6829 630.903 103.926 636.377 106.731 641.85 109.536 648.028 115.113 652.629 117.004 657.231 118.894 660.999 118.34 663.987 118.073 666.975 117.807 667.532 117.761 670.558 115.405 673.584 113.05 679.711 108.073 682.144 103.942 684.577 99.8106 685.379 92.0531 685.157 90.619 684.935 89.1848 680.257 92.5896 680.812 95.3369 681.367 98.0842 689.011 103.559 688.49 107.103 687.968 110.647 683.215 114.877 677.684 116.602 672.153 118.327 662.205 118.891 655.302 117.453 648.398 116.014 643.874 108.828 636.265 107.969 628.656 107.11 608.518 110.922 609.65 112.299 610.781 113.677 632.549 116.844 643.053 116.234 653.558 115.623 663.787 109.728 672.677 108.637 681.567 107.546 696.394 109.688 696.394 109.688 700.31 109.717 698.241 109.265 696.172 108.812" stroke="#A6A6A6" stroke-width="1.13333" stroke-linejoin="round" stroke-miterlimit="10" fill="none" fill-rule="evenodd"/><path d="M896.017 89.9346C888.201 96.6536 880.384 103.373 872.179 106.884 863.975 110.394 854.417 110.535 846.789 111 839.161 111.465 828.007 111.477 826.412 109.673 824.817 107.868 832.652 100.664 837.218 100.173 841.784 99.6829 848.333 103.926 853.806 106.731 859.28 109.536 865.457 115.113 870.059 117.004 874.661 118.894 878.428 118.34 881.416 118.073 884.404 117.807 884.961 117.761 887.987 115.405 891.014 113.05 897.14 108.073 899.574 103.942 902.007 99.8106 902.809 92.0531 902.587 90.619 902.365 89.1848 897.686 92.5896 898.242 95.3369 898.797 98.0842 906.441 103.559 905.919 107.103 905.398 110.647 900.645 114.877 895.113 116.602 889.582 118.327 879.634 118.891 872.731 117.453 865.828 116.014 861.303 108.828 853.694 107.969 846.086 107.11 825.948 110.922 827.079 112.299 828.21 113.677 849.978 116.844 860.483 116.234 870.987 115.623 881.216 109.728 890.106 108.637 898.997 107.546 913.824 109.688 913.824 109.688 917.74 109.717 915.671 109.265 913.602 108.812" stroke="#A6A6A6" stroke-width="1.13333" stroke-linejoin="round" stroke-miterlimit="10" fill="none" fill-rule="evenodd"/><path d="M1087.98 95.6751C1080.16 102.394 1072.35 109.113 1064.14 112.624 1055.94 116.135 1046.38 116.276 1038.75 116.741 1031.13 117.205 1019.97 117.218 1018.38 115.413 1016.78 113.609 1024.62 106.404 1029.18 105.914 1033.75 105.423 1040.3 109.666 1045.77 112.471 1051.24 115.277 1057.42 120.854 1062.02 122.744 1066.62 124.635 1070.39 124.08 1073.38 123.814 1076.37 123.547 1076.93 123.501 1079.95 121.146 1082.98 118.791 1089.1 113.813 1091.54 109.682 1093.97 105.551 1094.77 97.7936 1094.55 96.3594 1094.33 94.9253 1089.65 98.33 1090.21 101.077 1090.76 103.825 1098.4 109.299 1097.88 112.843 1097.36 116.387 1092.61 120.618 1087.08 122.343 1081.55 124.068 1071.6 124.632 1064.7 123.193 1057.79 121.754 1053.27 114.569 1045.66 113.71 1038.05 112.851 1017.91 116.662 1019.04 118.04 1020.17 119.417 1041.94 122.584 1052.45 121.974 1062.95 121.364 1073.18 115.469 1082.07 114.378 1090.96 113.287 1105.79 115.428 1105.79 115.428 1109.7 115.457 1107.63 115.005 1105.57 114.553" stroke="#A6A6A6" stroke-width="1.13333" stroke-linejoin="round" stroke-miterlimit="10" fill="none" fill-rule="evenodd"/></g></svg>