<svg width="1280" height="720" xmlns="http://www.w3.org/2000/svg" xmlns:xlink="http://www.w3.org/1999/xlink" overflow="hidden"><g><rect x="0" y="0" width="1280" height="720" fill="#FFFFFF"/><text font-family="Segoe UI Semibold,Segoe UI Semibold_MSFontService,sans-serif" font-weight="600" font-size="48" transform="translate(61.7599 95)">Customer</text><text font-family="Segoe UI Semibold,Segoe UI Semibold_MSFontService,sans-serif" font-weight="600" font-size="48" transform="translate(278.98 95)">a</text><text font-family="Segoe UI Semibold,Segoe UI Semibold_MSFontService,sans-serif" font-weight="600" font-size="48" transform="translate(303.313 95)">ttribute</text><text font-family="Segoe UI Semibold,Segoe UI Semibold_MSFontService,sans-serif" font-weight="600" font-size="48" transform="translate(462.533 95)">s</text><text font-family="Segoe UI,Segoe UI_MSFontService,sans-serif" font-weight="400" font-size="27" transform="translate(92.9058 281)">The c</text><text font-family="Segoe UI,Segoe UI_MSFontService,sans-serif" font-weight="400" font-size="27" transform="translate(155.739 281)">ustomer</text><text font-family="Segoe UI,Segoe UI_MSFontService,sans-serif" font-weight="400" font-size="27" transform="translate(260.366 281)">attributes</text><text font-family="Segoe UI,Segoe UI_MSFontService,sans-serif" font-weight="700" font-size="27" transform="translate(379.992 281)">Contoso</text><text font-family="Segoe UI,Segoe UI_MSFontService,sans-serif" font-weight="700" font-size="27" transform="translate(92.9058 313)">Entertainment System</text><text font-family="Segoe UI,Segoe UI_MSFontService,sans-serif" font-weight="400" font-size="27" transform="translate(377.459 313)">uses</text><text font-family="Segoe UI,Segoe UI_MSFontService,sans-serif" font-weight="400" font-size="27" transform="translate(436.626 313)">to</text><text font-family="Segoe UI,Segoe UI_MSFontService,sans-serif" font-weight="400" font-size="27" transform="translate(468.419 313)">determine</text><text font-family="Segoe UI,Segoe UI_MSFontService,sans-serif" font-weight="400" font-size="27" transform="translate(92.9058 345)">the price are</text><text font-family="Segoe UI,Segoe UI_MSFontService,sans-serif" font-style="italic" font-weight="400" font-size="27" transform="translate(247.386 345)">order customer</text><text font-family="Segoe UI,Segoe UI_MSFontService,sans-serif" font-weight="400" font-size="27" transform="translate(420.859 345)">,</text><text font-family="Segoe UI,Segoe UI_MSFontService,sans-serif" font-style="italic" font-weight="400" font-size="27" transform="translate(434.026 345)">customer</text><text font-family="Segoe UI,Segoe UI_MSFontService,sans-serif" font-style="italic" font-weight="400" font-size="27" transform="translate(92.9058 377)">group</text><text font-family="Segoe UI,Segoe UI_MSFontService,sans-serif" font-weight="400" font-size="27" transform="translate(160.519 377)">,</text><text font-family="Segoe UI,Segoe UI_MSFontService,sans-serif" font-style="italic" font-weight="400" font-size="27" transform="translate(173.686 377)">region</text><text font-family="Segoe UI,Segoe UI_MSFontService,sans-serif" font-style="italic" font-weight="400" font-size="27" transform="translate(246.879 377)">,</text><text font-family="Segoe UI,Segoe UI_MSFontService,sans-serif" font-weight="400" font-size="27" transform="translate(260.046 377)">and segment.</text><path d="M640.5 580.5 877.5 106.5 1114.5 580.5Z" stroke="#FFFFFF" stroke-width="1.13333" stroke-linejoin="round" stroke-miterlimit="10" fill="#0078D4" fill-rule="evenodd"/><path d="M858.5 184.667C858.5 176.843 864.843 170.5 872.667 170.5L1152.33 170.5C1160.16 170.5 1166.5 176.843 1166.5 184.667L1166.5 241.333C1166.5 249.157 1160.16 255.5 1152.33 255.5L872.667 255.5C864.843 255.5 858.5 249.157 858.5 241.333Z" stroke="#0078D4" stroke-width="1.13333" stroke-linejoin="round" stroke-miterlimit="10" fill="#FFFFFF" fill-rule="evenodd" fill-opacity="0.901961"/><text font-family="Segoe UI,Segoe UI_MSFontService,sans-serif" font-weight="700" font-size="19" transform="translate(943.331 218)">Order customer</text><path d="M858.5 279.5C858.5 271.768 864.768 265.5 872.5 265.5L1152.5 265.5C1160.23 265.5 1166.5 271.768 1166.5 279.5L1166.5 335.5C1166.5 343.232 1160.23 349.5 1152.5 349.5L872.5 349.5C864.768 349.5 858.5 343.232 858.5 335.5Z" stroke="#0078D4" stroke-width="1.13333" stroke-linejoin="round" stroke-miterlimit="10" fill="#FFFFFF" fill-rule="evenodd" fill-opacity="0.901961"/><text font-family="Segoe UI,Segoe UI_MSFontService,sans-serif" font-weight="700" font-size="19" transform="translate(940.831 292)">Customer group</text><text font-family="Segoe UI,Segoe UI_MSFontService,sans-serif" font-weight="400" font-size="16" transform="translate(868.424 318)">F.ex</text><text font-family="Segoe UI,Segoe UI_MSFontService,sans-serif" font-weight="400" font-size="16" transform="translate(894.224 318)">.</text><text font-family="Segoe UI,Segoe UI_MSFontService,sans-serif" font-weight="400" font-size="16" transform="translate(902.058 318)">Super</text><text font-family="Segoe UI,Segoe UI_MSFontService,sans-serif" font-weight="400" font-size="16" transform="translate(947.058 318)">Store, Giant Market, Air Hotel,</text><text font-family="Segoe UI,Segoe UI_MSFontService,sans-serif" font-weight="400" font-size="16" transform="translate(987.424 335)">Loyalty</text><path d="M858.5 374.5C858.5 366.768 864.768 360.5 872.5 360.5L1152.5 360.5C1160.23 360.5 1166.5 366.768 1166.5 374.5L1166.5 430.5C1166.5 438.232 1160.23 444.5 1152.5 444.5L872.5 444.5C864.768 444.5 858.5 438.232 858.5 430.5Z" stroke="#0078D4" stroke-width="1.13333" stroke-linejoin="round" stroke-miterlimit="10" fill="#FFFFFF" fill-rule="evenodd" fill-opacity="0.901961"/><text font-family="Segoe UI,Segoe UI_MSFontService,sans-serif" font-weight="700" font-size="19" transform="translate(981.571 396)">Region</text><text font-family="Segoe UI,Segoe UI_MSFontService,sans-serif" font-weight="400" font-size="16" transform="translate(899.798 422)">F.ex</text><text font-family="Segoe UI,Segoe UI_MSFontService,sans-serif" font-weight="400" font-size="16" transform="translate(925.598 422)">.</text><text font-family="Segoe UI,Segoe UI_MSFontService,sans-serif" font-weight="400" font-size="16" transform="translate(933.431 422)">US</text><text font-family="Segoe UI,Segoe UI_MSFontService,sans-serif" font-weight="400" font-size="16" transform="translate(957.264 422)">East, US West, Denmark</text><path d="M858.5 469.5C858.5 461.768 864.768 455.5 872.5 455.5L1152.5 455.5C1160.23 455.5 1166.5 461.768 1166.5 469.5L1166.5 525.5C1166.5 533.232 1160.23 539.5 1152.5 539.5L872.5 539.5C864.768 539.5 858.5 533.232 858.5 525.5Z" stroke="#0078D4" stroke-width="1.13333" stroke-linejoin="round" stroke-miterlimit="10" fill="#FFFFFF" fill-rule="evenodd" fill-opacity="0.901961"/><text font-family="Segoe UI,Segoe UI_MSFontService,sans-serif" font-weight="700" font-size="19" transform="translate(973.171 490)">Segment</text><text font-family="Segoe UI,Segoe UI_MSFontService,sans-serif" font-weight="400" font-size="16" transform="translate(880.644 516)">F.ex</text><text font-family="Segoe UI,Segoe UI_MSFontService,sans-serif" font-weight="400" font-size="16" transform="translate(906.444 516)">.</text><text font-family="Segoe UI,Segoe UI_MSFontService,sans-serif" font-weight="400" font-size="16" transform="translate(914.278 516)">Retail</text><text font-family="Segoe UI,Segoe UI_MSFontService,sans-serif" font-weight="400" font-size="16" transform="translate(952.998 516)">, Entertainment, Distributor</text></g></svg>