<svg width="1280" height="720" xmlns="http://www.w3.org/2000/svg" xmlns:xlink="http://www.w3.org/1999/xlink" overflow="hidden"><g><rect x="0" y="0" width="1280" height="720" fill="#FFFFFF"/><text font-family="Segoe UI Semibold,Segoe UI Semibold_MSFontService,sans-serif" font-weight="600" font-size="48" transform="translate(61.7599 95)">Product</text><text font-family="Segoe UI Semibold,Segoe UI Semibold_MSFontService,sans-serif" font-weight="600" font-size="48" transform="translate(240.507 95)">a</text><text font-family="Segoe UI Semibold,Segoe UI Semibold_MSFontService,sans-serif" font-weight="600" font-size="48" transform="translate(264.84 95)">ttribute</text><text font-family="Segoe UI Semibold,Segoe UI Semibold_MSFontService,sans-serif" font-weight="600" font-size="48" transform="translate(424.06 95)">s</text><text font-family="Segoe UI,Segoe UI_MSFontService,sans-serif" font-weight="400" font-size="27" transform="translate(71.1915 296)">The p</text><text font-family="Segoe UI,Segoe UI_MSFontService,sans-serif" font-weight="400" font-size="27" transform="translate(137.358 296)">roduct</text><text font-family="Segoe UI,Segoe UI_MSFontService,sans-serif" font-weight="400" font-size="27" transform="translate(221.505 296)">attributes</text><text font-family="Segoe UI,Segoe UI_MSFontService,sans-serif" font-weight="700" font-size="27" transform="translate(341.132 296)">Contoso</text><text font-family="Segoe UI,Segoe UI_MSFontService,sans-serif" font-weight="700" font-size="27" transform="translate(71.1915 328)">Entertainment System</text><text font-family="Segoe UI,Segoe UI_MSFontService,sans-serif" font-weight="400" font-size="27" transform="translate(355.745 328)">uses</text><text font-family="Segoe UI,Segoe UI_MSFontService,sans-serif" font-weight="400" font-size="27" transform="translate(414.911 328)">to</text><text font-family="Segoe UI,Segoe UI_MSFontService,sans-serif" font-weight="400" font-size="27" transform="translate(71.1915 360)">determine the price are</text><text font-family="Segoe UI,Segoe UI_MSFontService,sans-serif" font-style="italic" font-weight="400" font-size="27" transform="translate(353.411 360)">product</text><text font-family="Segoe UI,Segoe UI_MSFontService,sans-serif" font-weight="400" font-size="27" transform="translate(441.358 360)">,</text><text font-family="Segoe UI,Segoe UI_MSFontService,sans-serif" font-style="italic" font-weight="400" font-size="27" transform="translate(71.1915 392)">product category</text><text font-family="Segoe UI,Segoe UI_MSFontService,sans-serif" font-weight="400" font-size="27" transform="translate(266.031 392)">, and the</text><text font-family="Segoe UI,Segoe UI_MSFontService,sans-serif" font-style="italic" font-weight="400" font-size="27" transform="translate(376.365 392)">brand</text><text font-family="Segoe UI,Segoe UI_MSFontService,sans-serif" font-weight="400" font-size="27" transform="translate(444.185 392)">.</text><path d="M579.5 619.5 820 138.5 1060.5 619.5Z" stroke="#FFFFFF" stroke-width="1.13333" stroke-linejoin="round" stroke-miterlimit="10" fill="#0078D4" fill-rule="evenodd"/><path d="M813.5 216.501C813.5 206.007 822.007 197.5 832.5 197.5L1107.5 197.5C1117.99 197.5 1126.5 206.007 1126.5 216.501L1126.5 292.5C1126.5 302.993 1117.99 311.5 1107.5 311.5L832.5 311.5C822.007 311.5 813.5 302.993 813.5 292.5Z" stroke="#0078D4" stroke-width="1.13333" stroke-linejoin="round" stroke-miterlimit="10" fill="#FFFFFF" fill-rule="evenodd" fill-opacity="0.901961"/><text font-family="Segoe UI,Segoe UI_MSFontService,sans-serif" font-weight="700" font-size="19" transform="translate(934.854 247)">Product</text><text font-family="Segoe UI,Segoe UI_MSFontService,sans-serif" font-weight="400" font-size="16" transform="translate(865.12 273)">F.ex</text><text font-family="Segoe UI,Segoe UI_MSFontService,sans-serif" font-weight="400" font-size="16" transform="translate(890.92 273)">.</text><text font-family="Segoe UI,Segoe UI_MSFontService,sans-serif" font-weight="400" font-size="16" transform="translate(898.754 273)">Techware</text><text font-family="Segoe UI,Segoe UI_MSFontService,sans-serif" font-weight="400" font-size="16" transform="translate(967.727 273)">X990 soundbar</text><path d="M813.5 344.501C813.5 334.007 822.007 325.5 832.5 325.5L1107.5 325.5C1117.99 325.5 1126.5 334.007 1126.5 344.501L1126.5 420.5C1126.5 430.993 1117.99 439.5 1107.5 439.5L832.5 439.5C822.007 439.5 813.5 430.993 813.5 420.5Z" stroke="#0078D4" stroke-width="1.13333" stroke-linejoin="round" stroke-miterlimit="10" fill="#FFFFFF" fill-rule="evenodd" fill-opacity="0.901961"/><text font-family="Segoe UI,Segoe UI_MSFontService,sans-serif" font-weight="700" font-size="19" transform="translate(943.4 375)">Brand</text><text font-family="Segoe UI,Segoe UI_MSFontService,sans-serif" font-weight="400" font-size="16" transform="translate(891.454 401)">F.ex</text><text font-family="Segoe UI,Segoe UI_MSFontService,sans-serif" font-weight="400" font-size="16" transform="translate(917.254 401)">.</text><text font-family="Segoe UI,Segoe UI_MSFontService,sans-serif" font-weight="400" font-size="16" transform="translate(925.087 401)">Techware</text><text font-family="Segoe UI,Segoe UI_MSFontService,sans-serif" font-weight="400" font-size="16" transform="translate(989.727 401)">,</text><text font-family="Segoe UI,Segoe UI_MSFontService,sans-serif" font-weight="400" font-size="16" transform="translate(997.56 401)">Litware</text><path d="M813.5 472.501C813.5 462.007 822.007 453.5 832.5 453.5L1107.5 453.5C1117.99 453.5 1126.5 462.007 1126.5 472.501L1126.5 548.5C1126.5 558.993 1117.99 567.5 1107.5 567.5L832.5 567.5C822.007 567.5 813.5 558.993 813.5 548.5Z" stroke="#0078D4" stroke-width="1.13333" stroke-linejoin="round" stroke-miterlimit="10" fill="#FFFFFF" fill-rule="evenodd" fill-opacity="0.901961"/><text font-family="Segoe UI,Segoe UI_MSFontService,sans-serif" font-weight="700" font-size="19" transform="translate(893.517 503)">Product</text><text font-family="Segoe UI,Segoe UI_MSFontService,sans-serif" font-weight="700" font-size="19" transform="translate(968.11 503)">c</text><text font-family="Segoe UI,Segoe UI_MSFontService,sans-serif" font-weight="700" font-size="19" transform="translate(977.11 503)">ategory</text><text font-family="Segoe UI,Segoe UI_MSFontService,sans-serif" font-weight="400" font-size="16" transform="translate(875.017 529)">F.ex</text><text font-family="Segoe UI,Segoe UI_MSFontService,sans-serif" font-weight="400" font-size="16" transform="translate(900.817 529)">.</text><text font-family="Segoe UI,Segoe UI_MSFontService,sans-serif" font-weight="400" font-size="16" transform="translate(908.65 529)">Soundbar</text><text font-family="Segoe UI,Segoe UI_MSFontService,sans-serif" font-weight="400" font-size="16" transform="translate(975.537 529)">, TV, Speaker</text></g></svg>