<svg width="1280" height="720" xmlns="http://www.w3.org/2000/svg" xmlns:xlink="http://www.w3.org/1999/xlink" overflow="hidden"><g><rect x="0" y="0" width="1280" height="720" fill="#FFFFFF"/><path d="M313.376 256.028 380.135 256.028 380.135 311.587 313.376 311.587Z" fill="#F9B3FE" fill-rule="evenodd"/><path d="M513.652 311.587 580.411 311.587 580.411 367.146 513.652 367.146Z" fill="#F9B3FE" fill-rule="evenodd"/><path d="M713.929 311.587 780.688 311.587 780.688 367.146 713.929 367.146Z" fill="#F9B3FE" fill-rule="evenodd"/><path d="M980.964 311.587 1047.72 311.587 1047.72 367.146 980.964 367.146Z" fill="#F9B3FE" fill-rule="evenodd"/><path d="M246.617 367.146 313.376 367.146 313.376 422.705 246.617 422.705Z" fill="#F9B3FE" fill-rule="evenodd"/><path d="M446.894 367.146 513.652 367.146 513.652 422.705 446.894 422.705Z" fill="#F9B3FE" fill-rule="evenodd"/><path d="M513.652 367.146 580.411 367.146 580.411 422.705 513.652 422.705Z" fill="#F9B3FE" fill-rule="evenodd"/><path d="M647.17 367.146 713.929 367.146 713.929 422.705 647.17 422.705Z" fill="#F9B3FE" fill-rule="evenodd"/><path d="M713.929 367.146 780.688 367.146 780.688 422.705 713.929 422.705Z" fill="#F9B3FE" fill-rule="evenodd"/><path d="M780.688 367.146 847.447 367.146 847.447 422.705 780.688 422.705Z" fill="#F9B3FE" fill-rule="evenodd"/><path d="M847.447 367.146 914.205 367.146 914.205 422.705 847.447 422.705Z" fill="#F9B3FE" fill-rule="evenodd"/><path d="M914.205 367.146 980.964 367.146 980.964 422.705 914.205 422.705Z" fill="#F9B3FE" fill-rule="evenodd"/><path d="M1114.48 367.146 1181.24 367.146 1181.24 422.705 1114.48 422.705Z" fill="#F9B3FE" fill-rule="evenodd"/><path d="M246.617 422.705 313.376 422.705 313.376 478.264 246.617 478.264Z" fill="#F9B3FE" fill-rule="evenodd"/><path d="M513.652 422.705 580.411 422.705 580.411 478.264 513.652 478.264Z" fill="#F9B3FE" fill-rule="evenodd"/><path d="M713.929 422.705 780.688 422.705 780.688 478.264 713.929 478.264Z" fill="#F9B3FE" fill-rule="evenodd"/><path d="M780.688 422.705 847.447 422.705 847.447 478.264 780.688 478.264Z" fill="#F9B3FE" fill-rule="evenodd"/><path d="M847.447 422.705 914.205 422.705 914.205 478.264 847.447 478.264Z" fill="#F9B3FE" fill-rule="evenodd"/><path d="M914.205 422.705 980.964 422.705 980.964 478.264 914.205 478.264Z" fill="#F9B3FE" fill-rule="evenodd"/><path d="M1047.72 422.705 1114.48 422.705 1114.48 478.264 1047.72 478.264Z" fill="#F9B3FE" fill-rule="evenodd"/><path d="M1114.48 422.705 1181.24 422.705 1181.24 478.264 1114.48 478.264Z" fill="#F9B3FE" fill-rule="evenodd"/><path d="M380.135 478.264 446.894 478.264 446.894 533.823 380.135 533.823Z" fill="#F9B3FE" fill-rule="evenodd"/><path d="M446.894 478.264 513.652 478.264 513.652 533.823 446.894 533.823Z" fill="#F9B3FE" fill-rule="evenodd"/><path d="M513.652 478.264 580.411 478.264 580.411 533.823 513.652 533.823Z" fill="#F9B3FE" fill-rule="evenodd"/><path d="M313.376 533.823 380.135 533.823 380.135 589.382 313.376 589.382Z" fill="#F9B3FE" fill-rule="evenodd"/><path d="M513.652 533.823 580.411 533.823 580.411 589.382 513.652 589.382Z" fill="#F9B3FE" fill-rule="evenodd"/><path d="M580.411 533.823 647.17 533.823 647.17 589.382 580.411 589.382Z" fill="#F9B3FE" fill-rule="evenodd"/><path d="M780.688 533.823 847.447 533.823 847.447 589.382 780.688 589.382Z" fill="#F9B3FE" fill-rule="evenodd"/><path d="M847.447 533.823 914.205 533.823 914.205 589.382 847.447 589.382Z" fill="#F9B3FE" fill-rule="evenodd"/><path d="M914.205 533.823 980.964 533.823 980.964 589.382 914.205 589.382Z" fill="#F9B3FE" fill-rule="evenodd"/><path d="M1114.48 533.823 1181.24 533.823 1181.24 589.382 1114.48 589.382Z" fill="#F9B3FE" fill-rule="evenodd"/><path d="M246.617 589.382 313.376 589.382 313.376 644.941 246.617 644.941Z" fill="#F9B3FE" fill-rule="evenodd"/><path d="M513.652 589.382 580.411 589.382 580.411 644.941 513.652 644.941Z" fill="#F9B3FE" fill-rule="evenodd"/><path d="M847.447 589.382 914.205 589.382 914.205 644.941 847.447 644.941Z" fill="#F9B3FE" fill-rule="evenodd"/><path d="M1047.72 589.382 1114.48 589.382 1114.48 644.941 1047.72 644.941Z" fill="#F9B3FE" fill-rule="evenodd"/><path d="M246.617 644.941 313.376 644.941 313.376 700.5 246.617 700.5Z" fill="#F9B3FE" fill-rule="evenodd"/><path d="M313.376 644.941 380.135 644.941 380.135 700.5 313.376 700.5Z" fill="#F9B3FE" fill-rule="evenodd"/><path d="M513.652 644.941 580.411 644.941 580.411 700.5 513.652 700.5Z" fill="#F9B3FE" fill-rule="evenodd"/><path d="M580.411 644.941 647.17 644.941 647.17 700.5 580.411 700.5Z" fill="#F9B3FE" fill-rule="evenodd"/><path d="M847.447 644.941 914.205 644.941 914.205 700.5 847.447 700.5Z" fill="#F9B3FE" fill-rule="evenodd"/><path d="M1181.24 644.941 1248 644.941 1248 700.5 1181.24 700.5Z" fill="#F9B3FE" fill-rule="evenodd"/><path d="M246.617 255.361 246.617 701.167" stroke="#000000" stroke-width="1.33333" stroke-linejoin="round" stroke-miterlimit="10" fill="none" fill-rule="evenodd"/><path d="M313.376 255.361 313.376 701.167" stroke="#000000" stroke-width="1.33333" stroke-linejoin="round" stroke-miterlimit="10" fill="none" fill-rule="evenodd"/><path d="M380.135 255.361 380.135 701.167" stroke="#000000" stroke-width="1.33333" stroke-linejoin="round" stroke-miterlimit="10" fill="none" fill-rule="evenodd"/><path d="M446.894 255.361 446.894 701.167" stroke="#000000" stroke-width="1.33333" stroke-linejoin="round" stroke-miterlimit="10" fill="none" fill-rule="evenodd"/><path d="M513.652 255.361 513.652 701.167" stroke="#000000" stroke-width="1.33333" stroke-linejoin="round" stroke-miterlimit="10" fill="none" fill-rule="evenodd"/><path d="M580.411 255.361 580.411 701.167" stroke="#000000" stroke-width="1.33333" stroke-linejoin="round" stroke-miterlimit="10" fill="none" fill-rule="evenodd"/><path d="M647.17 255.361 647.17 701.167" stroke="#000000" stroke-width="1.33333" stroke-linejoin="round" stroke-miterlimit="10" fill="none" fill-rule="evenodd"/><path d="M713.929 255.361 713.929 701.167" stroke="#000000" stroke-width="1.33333" stroke-linejoin="round" stroke-miterlimit="10" fill="none" fill-rule="evenodd"/><path d="M780.688 255.361 780.688 701.167" stroke="#000000" stroke-width="1.33333" stroke-linejoin="round" stroke-miterlimit="10" fill="none" fill-rule="evenodd"/><path d="M847.447 255.361 847.447 701.167" stroke="#000000" stroke-width="1.33333" stroke-linejoin="round" stroke-miterlimit="10" fill="none" fill-rule="evenodd"/><path d="M914.205 255.361 914.205 701.167" stroke="#000000" stroke-width="1.33333" stroke-linejoin="round" stroke-miterlimit="10" fill="none" fill-rule="evenodd"/><path d="M980.964 255.361 980.964 701.167" stroke="#000000" stroke-width="1.33333" stroke-linejoin="round" stroke-miterlimit="10" fill="none" fill-rule="evenodd"/><path d="M1047.72 255.361 1047.72 701.167" stroke="#000000" stroke-width="1.33333" stroke-linejoin="round" stroke-miterlimit="10" fill="none" fill-rule="evenodd"/><path d="M1114.48 255.361 1114.48 701.167" stroke="#000000" stroke-width="1.33333" stroke-linejoin="round" stroke-miterlimit="10" fill="none" fill-rule="evenodd"/><path d="M1181.24 255.361 1181.24 701.167" stroke="#000000" stroke-width="1.33333" stroke-linejoin="round" stroke-miterlimit="10" fill="none" fill-rule="evenodd"/><path d="M245.95 256.028 1248.67 256.028" stroke="#000000" stroke-width="1.33333" stroke-linejoin="round" stroke-miterlimit="10" fill="none" fill-rule="evenodd"/><path d="M245.95 311.587 1248.67 311.587" stroke="#000000" stroke-width="1.33333" stroke-linejoin="round" stroke-miterlimit="10" fill="none" fill-rule="evenodd"/><path d="M245.95 367.146 1248.67 367.146" stroke="#000000" stroke-width="1.33333" stroke-linejoin="round" stroke-miterlimit="10" fill="none" fill-rule="evenodd"/><path d="M245.95 422.705 1248.67 422.705" stroke="#000000" stroke-width="1.33333" stroke-linejoin="round" stroke-miterlimit="10" fill="none" fill-rule="evenodd"/><path d="M245.95 478.264 1248.67 478.264" stroke="#000000" stroke-width="1.33333" stroke-linejoin="round" stroke-miterlimit="10" fill="none" fill-rule="evenodd"/><path d="M245.95 533.823 1248.67 533.823" stroke="#000000" stroke-width="1.33333" stroke-linejoin="round" stroke-miterlimit="10" fill="none" fill-rule="evenodd"/><path d="M245.95 589.382 1248.67 589.382" stroke="#000000" stroke-width="1.33333" stroke-linejoin="round" stroke-miterlimit="10" fill="none" fill-rule="evenodd"/><path d="M245.95 644.941 1248.67 644.941" stroke="#000000" stroke-width="1.33333" stroke-linejoin="round" stroke-miterlimit="10" fill="none" fill-rule="evenodd"/><path d="M1248 255.361 1248 701.167" stroke="#000000" stroke-width="1.33333" stroke-linejoin="round" stroke-miterlimit="10" fill="none" fill-rule="evenodd"/><path d="M245.95 700.5 1248.67 700.5" stroke="#000000" stroke-width="1.33333" stroke-linejoin="round" stroke-miterlimit="10" fill="none" fill-rule="evenodd"/><g><text font-family="Segoe UI,Segoe UI_MSFontService,sans-serif" font-weight="400" font-size="24" transform="matrix(6.12323e-17 -1 1 6.12323e-17 1208.82 251)">Administer to</text></g><g><text font-family="Segoe UI,Segoe UI_MSFontService,sans-serif" font-weight="400" font-size="24" transform="matrix(6.12323e-17 -1 1 6.12323e-17 1237.82 251)">operate</text></g><g><text font-family="Segoe UI,Segoe UI_MSFontService,sans-serif" font-weight="400" font-size="24" transform="matrix(6.12323e-17 -1 1 6.12323e-17 1156.46 251)">Service to deliver</text></g><g><text font-family="Segoe UI,Segoe UI_MSFontService,sans-serif" font-weight="400" font-size="24" transform="matrix(6.12323e-17 -1 1 6.12323e-17 1089.7 251)">Record to report</text></g><g><text font-family="Segoe UI,Segoe UI_MSFontService,sans-serif" font-weight="400" font-size="24" transform="matrix(6.12323e-17 -1 1 6.12323e-17 1022.94 251)">Prospect to quote</text></g><g><text font-family="Segoe UI,Segoe UI_MSFontService,sans-serif" font-weight="400" font-size="24" transform="matrix(6.12323e-17 -1 1 6.12323e-17 956.185 251)">Project to profit</text></g><g><text font-family="Segoe UI,Segoe UI_MSFontService,sans-serif" font-weight="400" font-size="24" transform="matrix(6.12323e-17 -1 1 6.12323e-17 889.426 251)">Source to pay</text></g><g><text font-family="Segoe UI,Segoe UI_MSFontService,sans-serif" font-weight="400" font-size="24" transform="matrix(6.12323e-17 -1 1 6.12323e-17 822.667 251)">Plan to produce</text></g><g><text font-family="Segoe UI,Segoe UI_MSFontService,sans-serif" font-weight="400" font-size="24" transform="matrix(6.12323e-17 -1 1 6.12323e-17 755.908 251)">Order to cash</text></g><g><text font-family="Segoe UI,Segoe UI_MSFontService,sans-serif" font-weight="400" font-size="24" transform="matrix(6.12323e-17 -1 1 6.12323e-17 689.149 251)">Inventory to deliver</text></g><g><text font-family="Segoe UI,Segoe UI_MSFontService,sans-serif" font-weight="400" font-size="24" transform="matrix(6.12323e-17 -1 1 6.12323e-17 622.391 251)">Hire to retire</text></g><g><text font-family="Segoe UI,Segoe UI_MSFontService,sans-serif" font-weight="400" font-size="24" transform="matrix(6.12323e-17 -1 1 6.12323e-17 555.632 251)">Forecast to plan</text></g><g><text font-family="Segoe UI,Segoe UI_MSFontService,sans-serif" font-weight="400" font-size="24" transform="matrix(6.12323e-17 -1 1 6.12323e-17 488.873 251)">Design to retire</text></g><g><text font-family="Segoe UI,Segoe UI_MSFontService,sans-serif" font-weight="400" font-size="24" transform="matrix(6.12323e-17 -1 1 6.12323e-17 422.114 251)">Concept to market</text></g><g><text font-family="Segoe UI,Segoe UI_MSFontService,sans-serif" font-weight="400" font-size="24" transform="matrix(6.12323e-17 -1 1 6.12323e-17 355.355 251)">Case to resolution</text></g><g><text font-family="Segoe UI,Segoe UI_MSFontService,sans-serif" font-weight="400" font-size="24" transform="matrix(6.12323e-17 -1 1 6.12323e-17 288.596 251)">Acquire to dispose</text></g><text font-family="Segoe UI,Segoe UI_MSFontService,sans-serif" font-weight="400" font-size="24" transform="translate(48.5887 292)">Customer service</text><text font-family="Segoe UI,Segoe UI_MSFontService,sans-serif" font-weight="400" font-size="24" transform="translate(112.559 348)">Sales</text><text font-family="Segoe UI,Segoe UI_MSFontService,sans-serif" font-weight="400" font-size="24" transform="translate(80.8087 404)">Operations</text><text font-family="Segoe UI,Segoe UI_MSFontService,sans-serif" font-weight="400" font-size="24" transform="translate(99.142 459)">Finance</text><text font-family="Segoe UI,Segoe UI_MSFontService,sans-serif" font-weight="400" font-size="24" transform="translate(85.4654 515)">Marketing</text><text font-family="Segoe UI,Segoe UI_MSFontService,sans-serif" font-weight="400" font-size="24" transform="translate(47.622 570)">Human resources</text><text font-family="Segoe UI,Segoe UI_MSFontService,sans-serif" font-weight="400" font-size="24" transform="translate(61.392 626)">Administration</text><text font-family="Segoe UI,Segoe UI_MSFontService,sans-serif" font-weight="400" font-size="24" transform="translate(129.892 681)">IT</text></g></svg>